<?xml version="1.0" encoding="UTF-8"?>
<!-- Reconstructed from Amplitude.Graphics.Svg.SvgAsset and recolored from static UIMapper.Color metadata for EWShop; not original source SVG. Live UI state/material colors are not included. -->
<svg xmlns="http://www.w3.org/2000/svg" width="57" height="57" viewBox="0 0 57 57">
  <path d="M 28.5 51.704 L 48.934 31.122 L 57 31.122 L 53.326 33.315 L 50.877 33.315 C 50.877 33.315 48.956 35.192 48.863 35.306 L 52.526 35.306 L 49.602 37.388 L 46.191 37.388 C 46.05 37.408 29.563 53.949 28.53 54.98 C 28.52 54.99 28.51 55 28.5 55 L 28.48 54.98 C 27.448 53.949 10.973 37.42 10.819 37.377 L 7.408 37.377 L 4.474 35.306 L 8.147 35.306 C 8.056 35.194 6.133 33.315 6.133 33.315 L 3.684 33.315 L 0 31.122 L 8.076 31.122 L 28.5 51.704 M 47.78 28.521 C 41.323 35 34.906 41.439 28.51 47.867 C 23.83 43.156 19.127 38.425 14.419 33.69 C 15.036 33.452 15.569 32.962 15.835 32.213 C 15.873 32.107 15.909 32 15.947 31.894 C 18.101 34.047 20.514 36.453 20.626 36.521 C 24.887 39.092 30.352 37.948 33.246 33.877 C 33.327 33.765 33.409 33.653 33.51 33.551 C 34.593 32.459 35.676 31.368 36.759 30.266 C 36.799 30.225 36.86 30.184 36.94 30.112 C 36.384 33.275 34.876 35.806 32.366 37.684 C 29.846 39.571 27.002 40.255 23.885 39.867 C 25.454 41.439 27.002 43 28.521 44.521 C 33.804 39.194 39.116 33.846 44.43 28.489 C 44.368 28.417 36.262 20.265 36.141 20.193 C 34.876 19.479 33.51 19.061 32.063 19.01 C 28.591 18.877 25.828 20.245 23.764 23.051 C 23.683 23.153 23.612 23.255 23.521 23.347 C 22.448 24.438 21.365 25.52 20.292 26.602 C 20.241 26.653 20.191 26.684 20.12 26.745 C 20.464 24.266 21.759 21.683 23.864 19.826 C 26.486 17.52 29.542 16.622 32.933 16.959 C 32.595 16.621 32.257 16.279 31.918 15.939 C 32.016 15.904 32.115 15.87 32.213 15.835 C 32.977 15.563 33.473 15.015 33.705 14.382 C 38.381 19.078 43.075 23.792 47.78 28.521 M 24.34 26.062 C 27.123 24.531 29.927 24.531 32.71 26.062 C 34.066 26.806 35.382 27.612 36.708 28.388 C 36.769 28.428 36.829 28.47 36.94 28.541 C 35.281 29.49 33.692 30.418 32.072 31.306 C 31.283 31.734 30.402 31.949 29.512 32.051 C 27.933 32.234 26.395 32.051 24.988 31.316 C 23.349 30.459 21.759 29.49 20.1 28.551 C 20.201 28.48 20.261 28.429 20.332 28.388 C 21.668 27.612 22.984 26.806 24.34 26.062 M 10.304 29.55 C 9.969 29.214 9.635 28.877 9.301 28.541 C 9.47 28.371 9.639 28.2 9.808 28.029 L 10.304 29.55 M 8.856 25.111 L 8.066 25.908 L 0 25.908 L 3.674 23.714 L 6.123 23.714 C 6.128 23.709 7.286 22.575 7.845 22.019 L 8.856 25.111 M 28.521 2.051 C 29.554 3.083 46.016 19.598 46.181 19.652 L 49.592 19.652 L 52.526 21.724 L 48.853 21.724 C 48.944 21.836 50.867 23.714 50.867 23.714 L 53.316 23.714 L 57 25.908 L 48.924 25.908 L 28.5 5.326 L 25.023 8.827 L 22.518 8.008 C 25.551 4.973 28.085 2.435 28.47 2.051 C 28.48 2.041 28.49 2.03 28.5 2.03 L 28.521 2.051 M 7.079 19.931 C 7.137 19.95 7.183 19.996 7.202 20.054 L 7.748 21.724 L 4.474 21.724 L 7.02 19.911 L 7.079 19.931 M 19.398 21.681 L 19.931 20.054 C 19.95 19.996 19.996 19.95 20.054 19.931 L 21.666 19.402 C 20.911 20.161 20.154 20.921 19.398 21.681 M 29.69 10.35 L 27.924 9.773 C 28.123 9.573 28.322 9.374 28.521 9.174 C 28.91 9.566 29.3 9.958 29.69 10.35" transform="matrix(1 0 0 1 0 0)" fill="#4AB89D" stroke="none" />
  <path d="M 19.791 11.151 L 16.869 10.195 C 16.839 10.185 16.815 10.161 16.805 10.131 L 15.849 7.209 L 13.595 0.292 C 13.565 0.2 13.435 0.2 13.405 0.292 L 11.151 7.209 L 10.195 10.131 C 10.185 10.161 10.161 10.185 10.131 10.195 L 7.209 11.151 L 0.292 13.405 C 0.2 13.435 0.2 13.565 0.292 13.595 L 7.209 15.849 L 10.131 16.805 C 10.161 16.815 10.185 16.839 10.195 16.869 L 11.151 19.791 L 13.405 26.708 C 13.435 26.8 13.565 26.8 13.595 26.708 L 15.849 19.791 L 16.805 16.869 C 16.815 16.839 16.839 16.815 16.869 16.805 L 19.791 15.849 L 26.708 13.595 C 26.8 13.565 26.8 13.435 26.708 13.405 L 19.791 11.151" transform="matrix(1 0 0 1 0 0)" fill="#4AB89D" stroke="none" />
</svg>
