<?xml version="1.0" encoding="UTF-8"?>
<!-- Reconstructed from Amplitude.Graphics.Svg.SvgAsset and recolored from static UIMapper.Color metadata for EWShop; not original source SVG. Live UI state/material colors are not included. -->
<svg xmlns="http://www.w3.org/2000/svg" width="57" height="57" viewBox="0 0 57 57">
  <path d="M 28.5 1 C 28.52 1 28.57 1.051 28.57 1.051 L 28.59 1.08 C 28.59 1.08 35.53 11.052 35.912 11.576 C 36.032 11.757 36.082 11.929 36.082 12.14 C 36.072 13.267 36.082 14.394 36.072 15.531 C 36.072 15.712 36.133 15.823 36.293 15.924 C 37.286 16.558 38.178 17.323 38.95 18.219 C 40.796 20.362 41.809 22.828 41.809 25.686 C 41.799 32.579 41.809 46.738 41.809 46.738 L 45.42 46.738 L 45.42 48.942 L 41.829 48.942 L 41.829 50.603 L 49 50.603 L 49 54.99 C 48.92 54.99 10.618 55.01 8.19 55 C 8.13 54.99 8.08 54.99 8 54.99 L 8 50.603 L 15.171 50.603 L 15.171 48.942 L 11.58 48.942 L 11.58 46.738 L 15.191 46.738 C 15.191 46.738 15.193 39.754 15.191 33.208 C 15.465 32.952 15.69 32.621 15.835 32.213 C 16.336 30.804 16.846 29.345 17.301 28.022 C 17.239 33.36 17.207 45.797 17.207 52.394 C 17.207 52.648 17.334 52.776 17.588 52.776 C 21.229 52.787 35.772 52.787 39.412 52.776 C 39.666 52.776 39.793 52.648 39.793 52.394 C 39.793 43.971 39.743 26.028 39.643 25.494 C 39.091 22.415 37.486 20.01 34.929 18.238 C 34.778 18.138 34.718 18.027 34.718 17.836 C 34.728 16.166 34.719 14.495 34.729 12.815 C 34.739 12.563 34.658 12.361 34.518 12.16 C 34.227 11.748 33.635 10.902 33.635 10.902 L 28.57 3.687 C 28.568 3.683 28.538 3.637 28.5 3.627 C 28.462 3.637 28.432 3.683 28.43 3.687 L 24.857 8.773 L 23.383 8.291 C 25.534 5.207 28.41 1.08 28.41 1.08 L 28.43 1.051 C 28.46 1 28.48 1 28.5 1 M 22.281 27.215 L 21.098 29.218 L 21.067 29.882 C 21.077 36.896 21.077 43.92 21.077 50.944 L 21.077 51.83 L 18.139 51.83 L 18.139 27.315 C 18.139 25.484 18.63 23.803 19.553 22.233 C 20.205 21.127 21.067 20.201 22.07 19.416 C 22.121 19.376 22.281 19.266 22.281 19.266 L 22.281 27.215 M 34.93 19.416 C 35.933 20.201 36.795 21.127 37.446 22.233 C 38.369 23.803 38.861 25.484 38.861 27.315 L 38.861 51.83 L 35.922 51.83 L 35.922 50.944 C 35.922 43.92 35.923 36.896 35.933 29.882 L 35.902 29.218 L 34.719 27.215 L 34.719 19.266 C 34.726 19.27 34.881 19.377 34.93 19.416 M 33.807 51.8 L 23.115 51.8 L 23.115 49.023 L 33.807 49.023 L 33.807 51.8 M 28.029 47.634 L 23.115 47.634 L 23.115 41.928 C 24.77 43.85 26.375 45.722 28.029 47.634 M 33.756 47.634 L 28.932 47.634 C 30.537 45.743 33.757 41.954 33.796 41.908 L 33.756 47.634 M 28.59 20.11 C 28.645 20.189 32.011 26.503 33.645 29.62 C 33.755 29.832 33.825 30.103 33.825 30.345 C 33.835 33.313 33.835 36.282 33.845 39.251 C 33.845 39.472 33.795 39.643 33.645 39.824 C 32.01 41.756 28.7 45.682 28.649 45.722 L 28.64 45.722 C 27.456 44.323 23.866 40.106 23.254 39.361 C 23.164 39.251 23.104 39.07 23.104 38.919 L 23.104 30.536 C 23.104 30.395 23.144 30.244 23.204 30.123 C 23.667 29.235 28.55 20.171 28.59 20.11 M 23.225 25.484 L 23.225 18.893 L 25.681 18.09 C 26.239 17.908 26.865 17.696 27.534 17.468 L 23.225 25.484 M 33.785 25.484 L 29.172 16.904 C 30.166 16.559 31.202 16.195 32.213 15.835 C 33.082 15.526 33.603 14.86 33.785 14.118 L 33.785 25.484 M 20.124 19.907 C 20.047 19.989 19.971 20.07 19.898 20.153 L 19.931 20.054 C 19.95 19.996 19.996 19.95 20.054 19.931 L 20.124 19.907 M 32.575 11.335 C 32.44 11.262 32.295 11.198 32.139 11.148 L 25.937 9.126 L 28.5 5.368 L 32.575 11.335" transform="matrix(1 0 0 1 0 0)" fill="#84D8F2" stroke="none" />
  <path d="M 19.791 11.151 L 16.869 10.195 C 16.839 10.185 16.815 10.161 16.805 10.131 L 15.849 7.209 L 13.595 0.292 C 13.565 0.2 13.435 0.2 13.405 0.292 L 11.151 7.209 L 10.195 10.131 C 10.185 10.161 10.161 10.185 10.131 10.195 L 7.209 11.151 L 0.292 13.405 C 0.2 13.435 0.2 13.565 0.292 13.595 L 7.209 15.849 L 10.131 16.805 C 10.161 16.815 10.185 16.839 10.195 16.869 L 11.151 19.791 L 13.405 26.708 C 13.435 26.8 13.565 26.8 13.595 26.708 L 15.849 19.791 L 16.805 16.869 C 16.815 16.839 16.839 16.815 16.869 16.805 L 19.791 15.849 L 26.708 13.595 C 26.8 13.565 26.8 13.435 26.708 13.405 L 19.791 11.151" transform="matrix(1 0 0 1 0 0)" fill="#84D8F2" stroke="none" />
</svg>
