<?xml version="1.0" encoding="UTF-8"?>
<!-- Reconstructed from Amplitude.Graphics.Svg.SvgAsset and recolored from static UIMapper.Color metadata for EWShop; not original source SVG. Live UI state/material colors are not included. -->
<svg xmlns="http://www.w3.org/2000/svg" width="57" height="57" viewBox="0 0 57 57">
  <path d="M 24.487 52 L 13 52 L 13 48.062 L 24.487 48.062 C 24.487 48.062 24.487 51.88 24.487 52 M 31.049 51.99 L 27.256 51.99 L 27.256 17.564 C 28.423 17.168 29.736 16.71 31.049 16.246 L 31.049 51.99 M 45 51.99 L 33.906 51.99 L 33.906 48.082 L 45 48.082 L 45 51.99 M 24.478 46.227 L 13.01 46.227 L 13.01 43.216 L 16.822 43.216 L 16.822 40.165 L 20.655 40.165 L 20.665 40.155 L 20.665 19.731 L 24.478 18.483 L 24.478 46.227 M 44.989 13.783 L 41.157 13.783 L 41.157 16.845 L 37.334 16.845 L 37.334 40.165 L 41.167 40.165 L 41.167 43.216 L 44.98 43.216 L 44.98 46.227 L 33.522 46.227 L 33.522 14.77 C 33.973 13.999 33.971 13.014 33.522 12.243 L 33.522 10.743 L 44.989 10.743 L 44.989 13.783 M 18.28 35.698 L 15.088 35.698 L 15.088 33.299 C 15.408 33.032 15.672 32.671 15.835 32.213 C 16.659 29.897 17.514 27.449 18.09 25.681 L 18.28 25.098 L 18.28 35.698 M 43.198 35.698 L 40.006 35.698 L 40.006 21.8 L 43.198 21.8 L 43.198 35.698 M 31.049 10.792 L 30.898 10.743 L 31.049 10.743 L 31.049 10.792 M 44.892 8.898 C 44.891 8.898 34.233 8.899 25.239 8.898 L 20.054 7.202 C 19.996 7.183 19.95 7.137 19.931 7.079 L 19.251 5 L 44.892 5 L 44.892 8.898" transform="matrix(1 0 0 1 0 0)" fill="#DAC475" stroke="none" />
  <path d="M 19.791 11.151 L 16.869 10.195 C 16.839 10.185 16.815 10.161 16.805 10.131 L 15.849 7.209 L 13.595 0.292 C 13.565 0.2 13.435 0.2 13.405 0.292 L 11.151 7.209 L 10.195 10.131 C 10.185 10.161 10.161 10.185 10.131 10.195 L 7.209 11.151 L 0.292 13.405 C 0.2 13.435 0.2 13.565 0.292 13.595 L 7.209 15.849 L 10.131 16.805 C 10.161 16.815 10.185 16.839 10.195 16.869 L 11.151 19.791 L 13.405 26.708 C 13.435 26.8 13.565 26.8 13.595 26.708 L 15.849 19.791 L 16.805 16.869 C 16.815 16.839 16.839 16.815 16.869 16.805 L 19.791 15.849 L 26.708 13.595 C 26.8 13.565 26.8 13.435 26.708 13.405 L 19.791 11.151" transform="matrix(1 0 0 1 0 0)" fill="#DAC475" stroke="none" />
</svg>
