<?xml version="1.0" encoding="UTF-8"?>
<!-- Reconstructed from Amplitude.Graphics.Svg.SvgAsset and recolored from static UIMapper.Color metadata for EWShop; not original source SVG. Live UI state/material colors are not included. -->
<svg xmlns="http://www.w3.org/2000/svg" width="35" height="37" viewBox="0 0 35 37">
  <path d="M 20.566 9.452 C 20.566 10.255 20.367 11.001 19.968 11.692 C 19.587 12.364 19.08 12.896 18.445 13.288 C 19.859 13.643 21.256 14.333 22.634 15.36 C 22.827 15.504 23.009 15.659 23.18 15.826 C 19.84 18.09 17.585 21.82 17.034 26 L 8 26 L 8 20.036 C 8 18.057 8.58 16.573 9.741 15.584 C 11.046 14.445 12.47 13.68 14.011 13.288 C 13.377 12.896 12.86 12.364 12.461 11.692 C 12.08 11.001 11.89 10.255 11.89 9.452 C 11.89 8.22 12.316 7.175 13.168 6.316 C 14.02 5.439 15.045 5 16.242 5 C 17.438 5 18.454 5.439 19.288 6.316 C 20.14 7.175 20.566 8.22 20.566 9.452" transform="matrix(1 0 0 1 0 0)" fill="#FFFFFF" stroke="none" />
  <path d="M 31 15 L 27 20 L 29 20 C 29 23.955 24.391 26.87 21 28 L 17 31 L 19 27 C 19.43 21.814 22.789 17.311 27.543 15.973 L 31 15" transform="matrix(1 0 0 1 0 0)" fill="#FFFFFF" stroke="none" />
</svg>
