<?xml version="1.0" encoding="UTF-8"?>
<!-- Reconstructed from Amplitude.Graphics.Svg.SvgAsset and recolored from static UIMapper.Color metadata for EWShop; not original source SVG. Live UI state/material colors are not included. -->
<svg xmlns="http://www.w3.org/2000/svg" width="35" height="37" viewBox="0 0 35 37">
  <path d="M 20.566 9.452 C 20.566 10.255 20.367 11.001 19.968 11.692 C 19.587 12.364 19.08 12.896 18.445 13.288 C 19.134 13.461 19.819 13.714 20.5 14.046 L 20.5 16.257 L 19.257 15.015 L 15.015 19.257 L 16.257 20.5 L 14.5 20.5 L 14.5 26 L 8 26 L 8 20.036 C 8 18.057 8.58 16.573 9.741 15.584 C 11.046 14.445 12.47 13.68 14.011 13.288 C 13.377 12.896 12.86 12.364 12.461 11.692 C 12.08 11.001 11.89 10.255 11.89 9.452 C 11.89 8.22 12.316 7.175 13.168 6.316 C 14.02 5.439 15.045 5 16.242 5 C 17.438 5 18.454 5.439 19.288 6.316 C 20.14 7.175 20.566 8.22 20.566 9.452" transform="matrix(1 0 0 1 0 0)" fill="none" stroke="none" />
  <path d="M 28.303 20.818 L 29.864 19.258 L 27.743 17.136 L 26.182 18.697 C 25.812 18.49 25.416 18.325 25 18.207 L 25 16 L 22 16 L 22 18.207 C 21.584 18.325 21.188 18.49 20.818 18.697 L 19.257 17.136 L 17.136 19.257 L 18.697 20.818 C 18.49 21.188 18.325 21.584 18.207 22 L 16 22 L 16 25 L 18.207 25 C 18.325 25.416 18.49 25.812 18.697 26.182 L 17.136 27.743 L 19.257 29.864 L 20.818 28.303 C 21.188 28.51 21.584 28.675 22 28.793 L 22 31 L 25 31 L 25 28.793 C 25.416 28.675 25.812 28.51 26.182 28.303 L 27.743 29.864 L 29.864 27.743 L 28.303 26.182 C 28.51 25.812 28.675 25.416 28.793 25 L 31 25 L 31 22 L 28.793 22 C 28.675 21.584 28.51 21.188 28.303 20.818 M 26 23.5 C 26 24.881 24.881 26 23.5 26 C 22.119 26 21 24.881 21 23.5 C 21 22.119 22.119 21 23.5 21 C 24.881 21 26 22.119 26 23.5" transform="matrix(1 0 0 1 0 0)" fill="none" stroke="none" />
</svg>
