<?xml version="1.0" encoding="UTF-8"?>
<!-- Reconstructed from Amplitude.Graphics.Svg.SvgAsset and recolored from static UIMapper.Color metadata for EWShop; not original source SVG. Live UI state/material colors are not included. -->
<svg xmlns="http://www.w3.org/2000/svg" width="35" height="37" viewBox="0 0 35 37">
  <path d="M 20.566 9.452 C 20.566 10.255 20.367 11.001 19.968 11.692 C 19.587 12.364 19.08 12.896 18.445 13.288 C 19.315 13.506 20.178 13.852 21.034 14.324 C 19.477 14.741 18.005 15.56 16.783 16.783 C 14.286 19.279 13.469 22.82 14.333 26 L 8 26 L 8 20.036 C 8 18.057 8.58 16.573 9.741 15.584 C 11.046 14.445 12.47 13.68 14.011 13.288 C 13.377 12.896 12.86 12.364 12.461 11.692 C 12.08 11.001 11.89 10.255 11.89 9.452 C 11.89 8.22 12.316 7.175 13.168 6.316 C 14.02 5.439 15.045 5 16.242 5 C 17.438 5 18.454 5.439 19.288 6.316 C 20.14 7.175 20.566 8.22 20.566 9.452" transform="matrix(1 0 0 1 0 0)" fill="none" stroke="none" />
  <path d="M 28.05 17.536 C 28.312 17.737 28.564 17.957 28.803 18.197 C 29.043 18.437 29.263 18.688 29.464 18.951 C 31.713 21.891 31.493 26.114 28.803 28.803 C 26.114 31.493 21.891 31.713 18.951 29.464 C 18.688 29.263 18.437 29.043 18.197 28.803 C 17.957 28.564 17.737 28.312 17.536 28.05 C 15.287 25.109 15.508 20.886 18.197 18.197 C 20.886 15.508 25.109 15.287 28.05 17.536 M 19.611 19.611 C 21.517 17.705 24.475 17.49 26.618 18.968 L 18.968 26.618 C 17.49 24.475 17.705 21.517 19.611 19.611 M 28.032 20.382 L 20.382 28.032 C 22.525 29.51 25.483 29.296 27.389 27.389 C 29.296 25.483 29.51 22.525 28.032 20.382" transform="matrix(1 0 0 1 0 0)" fill="none" stroke="none" />
</svg>
