<?xml version="1.0" encoding="UTF-8"?>
<!-- Reconstructed from Amplitude.Graphics.Svg.SvgAsset and recolored from static UIMapper.Color metadata for EWShop; not original source SVG. Live UI state/material colors are not included. -->
<svg xmlns="http://www.w3.org/2000/svg" width="31" height="30" viewBox="0 0 31 30">
  <path d="M 18.385 8.962 C 18.385 9.631 18.214 10.253 17.872 10.829 C 17.545 11.389 17.11 11.832 16.565 12.159 C 17.779 12.454 18.976 13.03 20.159 13.885 C 20.519 14.145 20.831 14.45 21.097 14.799 L 18.396 14.799 L 18.396 22.752 L 7.605 22.752 L 7.605 17.782 C 7.605 16.133 8.103 14.896 9.099 14.072 C 10.219 13.123 11.44 12.485 12.762 12.159 C 12.217 11.832 11.774 11.389 11.432 10.829 C 11.105 10.253 10.942 9.631 10.942 8.962 C 10.942 7.935 11.307 7.064 12.039 6.349 C 12.77 5.618 13.649 5.252 14.675 5.252 C 15.702 5.252 16.573 5.618 17.289 6.349 C 18.02 7.064 18.385 7.935 18.385 8.962 M 20.396 22.752 L 20.396 16.799 L 22.014 16.799 L 28.899 16.799 L 25.711 19.988 C 27.245 21.342 27.719 23.538 26.879 25.404 L 25.711 28.002 L 25.805 26.085 C 25.887 24.445 25.024 22.903 23.585 22.113 L 20.396 25.302 L 20.396 22.752" transform="matrix(1 0 0 1 0 0)" fill="#FFFFFF" stroke="none" />
</svg>
