<?xml version="1.0" encoding="UTF-8"?>
<!-- Reconstructed from Amplitude.Graphics.Svg.SvgAsset; not original source SVG. UI tint/material colors are not included. -->
<svg xmlns="http://www.w3.org/2000/svg" width="24" height="24" viewBox="0 0 24 24">
  <path d="M 9.481 6.952 C 8.235 6.804 8.039 9.004 8.039 9.004 C 7.901 10.112 7.438 10.708 6.323 10.89 C 5.682 10.995 5.208 11.282 4.823 11.798 C 4.342 12.445 3.697 12.323 3.363 11.626 C 2.465 9.686 4.158 7.207 6.339 7.475 C 7.55 7.638 8.13 6.132 9.284 6.178 C 9.479 6.188 10.189 6.293 10.393 6.519 C 10.548 3.997 11.849 0.443 15.146 2.218 C 16.221 2.797 16.714 2.861 16.912 2.835 C 20.415 2.338 22.813 6.017 21.471 9.104 C 21.096 9.987 20.236 9.981 19.744 9.228 C 19.142 8.34 18.382 7.699 17.267 7.68 C 15.451 7.661 14.593 6.065 14.741 4.517 C 15.288 2.01 12.164 2.75 12.01 4.909 C 12.01 7.674 12 20.063 12 20.063 L 15 20.063 L 13.714 18.342 L 15.429 16.622 L 24 18.739 L 24 21.74 L 0 21.74 L 0 16.588 L 3.429 17.448 L 8.571 14.901 L 8.571 17.447 L 7 19 L 5 19 L 5 20.063 L 8.039 20.063 L 9.857 18.305 C 10.77 16.477 11.772 7.359 9.481 6.952 M 18 3.684 C 18.712 3.453 21.471 6.178 21 7.985 C 18.5 5.5 15.429 4.517 18 3.684" transform="matrix(1 0 0 1 0 0)" fill="#FFFFFF" stroke="none" />
</svg>
