<?xml version="1.0" encoding="UTF-8"?>
<!-- Reconstructed from Amplitude.Graphics.Svg.SvgAsset; not original source SVG. UI tint/material colors are not included. -->
<svg xmlns="http://www.w3.org/2000/svg" width="24" height="24" viewBox="0 0 24 24">
  <path d="M 11.016 21.468 C 5.599 21.925 1 17.364 1 12 C 1 6.73 5.164 2.5 10.25 2.5 C 15.783 2.5 19.986 7.586 19.453 12.974 C 19.79 12.992 20.121 13.032 20.446 13.091 C 21.048 7.119 16.374 1.5 10.25 1.5 C 4.589 1.5 0 6.201 0 12 C 0 17.959 5.137 22.99 11.14 22.461 C 11.079 22.136 11.037 21.805 11.016 21.468" transform="matrix(1 0 0 1 0 0)" fill="#FFFFFF" stroke="none" />
  <path d="M 11.097 19.712 C 6.602 20.224 2.674 16.477 2.674 11.999 C 2.674 7.713 6.066 4.238 10.25 4.238 C 14.877 4.238 18.353 8.572 17.757 13.057 C 14.336 13.591 11.633 16.292 11.097 19.712 M 9.805 6.977 L 11.588 6.977 L 11.588 13.369 L 5.348 13.369 L 5.348 11.543 L 9.805 11.543 L 9.805 6.977" transform="matrix(1 0 0 1 0 0)" fill="#FFFFFF" stroke="none" />
  <path d="M 23.874 18.976 L 20.328 21.552 C 20.125 21.688 19.801 21.563 19.801 21.332 L 19.801 19.51 L 17.547 19.51 C 16.995 19.51 16.547 19.958 16.547 20.51 L 16.547 22.281 L 15.153 22.281 L 15.153 20.009 C 15.153 18.904 16.048 18.009 17.153 18.009 L 19.801 18.009 L 19.801 16.397 C 19.801 16.156 20.113 16.02 20.328 16.177 L 23.874 18.525 C 24.042 18.64 24.042 18.85 23.874 18.976" transform="matrix(1 0 0 1 0 0)" fill="#FFFFFF" stroke="none" />
</svg>
