<?xml version="1.0" encoding="UTF-8"?>
<!-- Reconstructed from Amplitude.Graphics.Svg.SvgAsset; not original source SVG. UI tint/material colors are not included. -->
<svg xmlns="http://www.w3.org/2000/svg" width="24" height="24" viewBox="0 0 24 24">
  <path d="M 12.767 12.394 C 12.587 12.903 12.026 13.173 11.515 12.993 C 11.004 12.813 10.734 12.244 10.924 11.734 C 11.115 11.225 11.665 10.955 12.186 11.145 C 12.707 11.335 12.957 11.884 12.777 12.404 L 12.767 12.394" transform="matrix(1 0 0 1 0 0)" fill="#FFFFFF" stroke="none" />
  <path d="M 8.12 23 L 8.906 14.592 C 8.82 14.497 8.739 14.399 8.663 14.297 L 5.937 14.818 L 8.047 13.07 C 8.005 12.93 7.971 12.786 7.945 12.641 L 3.393 9.566 C 2.821 11.239 2.635 13.046 2.843 14.905 C 2.029 13.052 1.997 10.935 2.569 9.01 L 1 7.95 L 2.889 8.128 C 3.533 6.606 4.587 5.245 5.911 4.272 L 4.5 2.677 C 6.21 3.125 8.086 2.88 9.919 2.677 C 8.657 4.031 7.672 5.371 7 7 L 6.256 5.087 C 5.306 5.995 4.526 7.057 3.948 8.227 L 9.535 8.753 C 10.003 8.414 10.709 8.128 11.286 8.05 L 16.086 1 L 15.271 9.52 L 18.004 8.996 L 15.735 10.866 L 21.668 14.878 C 22.184 13.265 22.346 11.533 22.147 9.753 C 22.931 11.536 22.989 13.563 22.483 15.43 L 23 15.779 L 22.399 15.722 C 21.835 17.566 20.63 19.245 19.079 20.386 L 20.5 21.981 C 18.79 21.533 16.904 21.777 15.071 21.981 C 16.333 20.627 17.332 19.129 18.004 17.5 L 18.734 19.57 C 19.897 18.459 20.805 17.116 21.399 15.627 L 14.421 14.964 L 13.058 15.71 L 8.12 23 M 15.057 13.118 C 15.687 11.302 14.812 9.382 12.994 8.718 C 10.028 7.636 7.463 10.841 8.765 13.536 C 10.091 16.082 14.072 15.906 15.057 13.118" transform="matrix(1 0 0 1 0 0)" fill="#FFFFFF" stroke="none" />
</svg>
