<?xml version="1.0" encoding="UTF-8"?>
<!-- Reconstructed from Amplitude.Graphics.Svg.SvgAsset; not original source SVG. UI tint/material colors are not included. -->
<svg xmlns="http://www.w3.org/2000/svg" width="32" height="32" viewBox="0 0 32 32">
  <path d="M 4.967 5.256 C 4.106 5.256 3.409 5.952 3.409 6.881 L 3.409 26.241 C 3.409 26.517 3.633 26.741 3.909 26.741 L 11.793 26.741 L 11.793 12.493 C 11.793 12.467 11.793 12.442 11.794 12.416 C 11.824 10.998 12.931 9.866 14.351 9.866 L 16.321 9.866 L 16.321 6.881 C 16.321 5.952 15.624 5.256 14.763 5.256 L 4.967 5.256 M 17.321 9.866 L 17.321 6.881 C 17.321 5.43 16.206 4.256 14.763 4.256 L 4.967 4.256 C 3.523 4.256 2.409 5.43 2.409 6.881 L 2.409 26.241 C 2.409 27.069 3.081 27.741 3.909 27.741 L 11.793 27.741 L 12.293 27.741 L 20.69 27.741 C 20.714 27.741 20.738 27.74 20.762 27.739 C 20.926 27.763 21.094 27.703 21.207 27.574 C 21.344 27.419 21.37 27.194 21.274 27.011 C 21.092 26.666 20.859 26.02 20.728 25.301 C 20.594 24.574 20.578 23.849 20.758 23.314 C 20.977 22.662 21.28 22.378 21.588 22.096 L 21.617 22.069 C 21.705 21.989 21.797 21.905 21.887 21.81 C 21.884 21.995 21.855 22.214 21.786 22.473 C 21.726 22.696 21.827 22.931 22.03 23.042 C 22.233 23.152 22.485 23.109 22.64 22.938 C 23.373 22.127 23.715 21.254 23.841 20.496 C 24.704 21.961 25.385 24.332 24.209 27.045 C 24.142 27.2 24.157 27.378 24.25 27.519 C 24.342 27.659 24.499 27.744 24.668 27.744 C 24.771 27.744 24.859 27.716 24.903 27.7 C 24.958 27.681 25.014 27.656 25.067 27.63 C 25.174 27.577 25.298 27.505 25.432 27.417 C 25.703 27.241 26.04 26.988 26.404 26.667 C 27.13 26.027 27.986 25.097 28.628 23.939 C 29.271 22.779 29.707 21.374 29.563 19.804 C 29.419 18.23 28.697 16.54 27.114 14.805 C 26.945 14.621 26.666 14.589 26.46 14.732 C 26.254 14.874 26.186 15.147 26.299 15.37 C 26.622 16.001 26.529 16.645 26.285 17.215 C 26.223 17.36 26.153 17.497 26.08 17.623 C 25.814 16.891 25.435 16.039 24.949 15.246 C 24.396 14.343 23.666 13.451 22.754 12.939 L 22.754 12.475 C 22.754 11.029 21.636 9.866 20.196 9.866 L 17.321 9.866 M 12.794 12.44 C 12.82 11.537 13.506 10.867 14.351 10.867 L 16.821 10.867 L 17.321 10.867 L 17.321 10.866 L 20.196 10.866 C 21.061 10.866 21.754 11.558 21.754 12.475 L 21.754 12.59 C 21.622 12.605 21.499 12.671 21.415 12.78 C 21.292 12.938 21.275 13.154 21.372 13.329 C 21.887 14.26 21.741 15.456 21.242 16.672 C 20.917 17.464 20.461 18.214 20.024 18.816 C 19.995 18.382 19.998 17.782 20.069 16.983 C 20.09 16.751 19.947 16.536 19.725 16.464 C 19.504 16.392 19.262 16.482 19.142 16.682 C 17.17 19.976 16.92 22.515 17.522 24.374 C 17.852 25.392 18.427 26.173 19.065 26.741 L 12.793 26.741 L 12.793 12.475 C 12.793 12.463 12.794 12.451 12.794 12.44 M 22.653 14.069 C 22.798 15.075 22.548 16.125 22.167 17.052 C 21.621 18.381 20.76 19.578 20.127 20.282 C 20.027 20.394 19.881 20.455 19.731 20.448 C 19.581 20.44 19.442 20.366 19.353 20.244 C 19.264 20.123 19.205 19.964 19.163 19.809 C 19.117 19.64 19.077 19.427 19.05 19.166 C 19.046 19.129 19.042 19.09 19.039 19.051 C 18.093 21.238 18.09 22.882 18.474 24.066 C 18.77 24.982 19.31 25.661 19.889 26.129 C 19.834 25.92 19.785 25.703 19.744 25.481 C 19.599 24.688 19.551 23.766 19.81 22.996 C 20.109 22.105 20.56 21.682 20.912 21.359 C 21.24 21.058 21.391 20.916 21.438 20.548 C 21.46 20.37 21.576 20.217 21.742 20.149 C 21.907 20.08 22.097 20.105 22.239 20.214 C 22.442 20.371 22.608 20.594 22.721 20.871 C 22.977 20.096 22.916 19.42 22.824 19.114 C 22.759 18.896 22.849 18.661 23.045 18.543 C 23.24 18.425 23.49 18.454 23.653 18.614 C 24.764 19.702 26.468 22.532 25.603 26.037 C 25.649 25.999 25.696 25.958 25.743 25.917 C 26.408 25.331 27.18 24.487 27.753 23.454 C 28.324 22.424 28.689 21.22 28.568 19.895 C 28.482 18.958 28.151 17.935 27.443 16.848 C 27.389 17.121 27.304 17.377 27.205 17.607 C 26.896 18.331 26.436 18.866 26.273 19.046 C 26.15 19.181 25.963 19.238 25.785 19.195 C 25.608 19.152 25.468 19.016 25.42 18.839 C 25.21 18.061 24.758 16.848 24.096 15.768 C 23.671 15.073 23.185 14.476 22.653 14.069 M 24.572 26.757 L 24.569 26.758 C 24.569 26.758 24.571 26.757 24.574 26.756 L 24.572 26.757" transform="matrix(1 0 0 1 0 0)" fill="#000000" stroke="none" />
</svg>
