<?xml version="1.0" encoding="UTF-8"?>
<!-- Reconstructed from Amplitude.Graphics.Svg.SvgAsset; not original source SVG. UI tint/material colors are not included. -->
<svg xmlns="http://www.w3.org/2000/svg" width="24" height="24" viewBox="0 0 24 24">
  <path d="M 24 22.998 L 0 22.998 C 0.97 19.144 5.34 16.154 10.76 15.764 L 10.76 8.859 C 9.43 9.126 7.27 9.311 5.51 8.263 C 2.76 6.629 2.03 2.621 2.03 2.621 C 2.03 2.621 5.77 1.255 8.53 2.888 C 10.49 4.05 11.42 6.423 11.79 7.687 C 11.25 7.009 9.82 5.293 8.13 4.286 C 5.98 3.022 4.25 3.382 4.25 3.382 C 4.25 3.382 5.28 4.276 7.42 5.55 C 8.612 6.263 10.69 7.975 12.13 7.975 C 12.47 6.67 13.53 3.443 16.07 1.943 C 19.29 0.032 23.66 1.625 23.66 1.625 C 23.66 1.625 22.81 6.31 19.6 8.222 C 17.52 9.455 15.952 9.177 14.392 8.859 C 15.012 8.828 16.63 8.674 18.66 7.471 C 20.98 6.094 21.66 3.926 21.66 3.926 C 21.66 3.926 20.15 4.625 17.83 6.002 C 15.69 7.276 13.25 8.889 13.25 8.889 L 13.25 15.764 C 13.65 16.175 15.94 18.703 10.76 18.374 C 4.96 18.004 14.12 20.676 19.91 17.829 C 22 19.134 23.48 20.943 24 22.998" transform="matrix(1 0 0 1 0 0)" fill="#FFFFFF" stroke="none" />
</svg>
