<?xml version="1.0" encoding="UTF-8"?>
<!-- Reconstructed from Amplitude.Graphics.Svg.SvgAsset; not original source SVG. UI tint/material colors are not included. -->
<svg xmlns="http://www.w3.org/2000/svg" width="24" height="24" viewBox="0 0 24 24">
  <path d="M 7.898 13.741 L 9.5 13.728 L 11.102 13.741 C 11.511 13.741 11.902 13.867 12.235 14.092 L 13.509 14.977 L 12.129 15.924 C 11.863 16.105 11.54 16.204 11.216 16.204 L 11.227 16.214 C 11.008 16.214 10.837 16.376 10.837 16.574 L 10.837 21.547 C 10.837 21.863 11.169 22.08 11.483 21.972 L 15.677 20.483 C 15.944 20.393 16.068 20.094 15.963 19.842 C 15.697 19.228 15.288 18.072 15.288 16.818 L 15.288 13.334 C 15.287 9.772 11.149 8.506 9.662 8.05 L 9.647 8.046 L 9.5 8.001 L 9.495 8 L 9.353 8.046 L 9.338 8.05 C 7.851 8.506 3.713 9.772 3.712 13.334 L 3.712 16.818 C 3.712 18.072 3.303 19.228 3.037 19.842 C 2.932 20.094 3.056 20.393 3.323 20.483 L 7.517 21.972 C 7.831 22.08 8.163 21.863 8.163 21.547 L 8.163 16.574 C 8.163 16.376 7.992 16.214 7.774 16.214 L 7.784 16.204 C 7.46 16.204 7.136 16.105 6.87 15.924 L 5.491 14.977 L 6.766 14.092 C 7.098 13.867 7.489 13.741 7.898 13.741" transform="matrix(1 0 0 1 0 0)" fill="#EBEBEB" stroke="none" />
  <path d="M 23 5 L 17 9 L 17 6.5 C 15.494 6.5 14.21 7.451 13.716 8.785 C 13.674 8.756 13.632 8.726 13.59 8.697 C 12.723 8.116 11.782 7.715 11.023 7.443 C 12.016 5.125 14.318 3.5 17 3.5 L 17 1 L 23 5" transform="matrix(1 0 0 1 0 0)" fill="#EBEBEB" stroke="none" />
</svg>
