<?xml version="1.0" encoding="UTF-8"?>
<!-- Reconstructed from Amplitude.Graphics.Svg.SvgAsset; not original source SVG. UI tint/material colors are not included. -->
<svg xmlns="http://www.w3.org/2000/svg" width="24" height="24" viewBox="0 0 24 24">
  <path d="M 22.988 17.156 C 23.01 17.19 23.001 17.234 22.966 17.256 L 18.669 19.988 C 18.657 19.996 18.643 20 18.628 20 L 16.407 20 C 16.382 20 16.359 19.988 16.345 19.968 C 15.503 18.758 14.654 17.187 14.654 13.844 C 14.654 10.404 9.114 10.585 9.114 13.748 C 9.114 16.441 8.499 18.953 7.824 19.968 C 7.81 19.989 7.787 20 7.762 20 L 5.54 20 C 5.526 20 5.512 19.996 5.5 19.989 L 1.035 17.268 C 0.993 17.242 0.988 17.185 1.025 17.152 L 3.161 15.306 C 3.171 15.297 3.178 15.286 3.182 15.274 L 4.052 12.681 C 4.057 12.666 4.057 12.649 4.052 12.634 L 1.928 6.868 C 1.903 6.8 1.985 6.742 2.044 6.786 L 8.006 11.15 C 8.071 11.198 8.158 11.123 8.116 11.055 L 5.989 7.576 C 5.966 7.539 5.982 7.491 6.023 7.473 L 7.52 6.821 C 7.521 6.82 7.522 6.82 7.523 6.82 C 7.528 6.82 7.531 6.816 7.53 6.812 L 6.592 3.09 C 6.573 3.014 6.674 2.967 6.724 3.028 L 9.1 5.936 C 9.109 5.947 9.121 5.955 9.134 5.96 L 11.931 6.912 C 12.002 6.936 12.061 6.854 12.014 6.797 L 9.723 4.047 C 9.687 4.004 9.712 3.94 9.768 3.93 L 15.236 3.008 C 15.3 2.997 15.347 3.065 15.312 3.118 L 14.025 5.115 C 13.991 5.167 14.036 5.233 14.099 5.225 L 16.752 4.872 C 16.777 4.869 16.803 4.878 16.819 4.897 L 18.598 6.917 C 18.622 6.943 18.622 6.983 18.599 7.01 L 16.34 9.649 C 16.295 9.701 16.343 9.779 16.412 9.767 L 19.868 9.15 C 19.91 9.142 19.949 9.169 19.956 9.209 L 20.742 13.734 C 20.743 13.743 20.747 13.752 20.752 13.761 L 22.988 17.156" transform="matrix(1 0 0 1 0 0)" fill="#EBEBEB" stroke="none" />
</svg>
