<?xml version="1.0" encoding="UTF-8"?>
<!-- Reconstructed from Amplitude.Graphics.Svg.SvgAsset; not original source SVG. UI tint/material colors are not included. -->
<svg xmlns="http://www.w3.org/2000/svg" width="24" height="24" viewBox="0 0 24 24">
  <path d="M 16.3 10.435 C 13.641 8.689 11.969 6.975 11.021 5.395 L 10.225 5.167 L 3.7 6.904 L 3.7 12.886 C 3.7 16.592 7.975 19.062 10.225 19.834 C 14.905 17.672 16.3 15.395 16.3 12.886 L 16.3 10.435 M 10.169 18.367 L 10.169 6.634 L 5.275 8.023 L 5.275 12.809 C 5.275 15.773 8.481 17.749 10.169 18.367" transform="matrix(1 0 0 1 0 0)" fill="#FFFFFF" stroke="none" />
  <path d="M 11.061 1.722 L 10.321 1.5 L 1 4.105 L 1 13.079 C 1 18.637 7.107 22.342 10.321 23.5 C 17.007 20.258 19 16.842 19 13.079 L 19 10.263 C 18.609 10.457 18.266 10.542 18.002 10.481 L 18 10.48 L 18 13.079 C 18 14.762 17.562 16.336 16.376 17.874 C 15.219 19.375 13.309 20.891 10.27 22.411 C 8.79 21.821 6.795 20.726 5.131 19.202 C 3.312 17.537 2 15.468 2 13.079 L 2 4.864 L 10.312 2.541 L 11.013 2.752 C 10.985 2.391 11.003 2.047 11.061 1.722" transform="matrix(1 0 0 1 0 0)" fill="#FFFFFF" stroke="none" />
  <path d="M 22.904 3.94 C 22.403 5.346 19.157 8.735 18.001 8.487 C 7.547 3.007 16.492 -2.264 17.983 2.153 C 18.672 -0.985 23.756 0.757 22.904 3.94" transform="matrix(1 0 0 1 0 0)" fill="#FFFFFF" stroke="none" />
</svg>
