<?xml version="1.0" encoding="UTF-8"?>
<!-- Reconstructed from Amplitude.Graphics.Svg.SvgAsset; not original source SVG. UI tint/material colors are not included. -->
<svg xmlns="http://www.w3.org/2000/svg" width="24" height="24" viewBox="0 0 24 24">
  <path d="M 19.957 17.929 C 20.127 17.77 20.397 17.761 20.58 17.9 L 20.615 17.929 L 22.809 19.973 C 23.063 20.21 23.063 20.593 22.809 20.83 L 20.615 22.873 C 20.433 23.042 20.138 23.042 19.957 22.873 C 19.775 22.704 19.775 22.43 19.957 22.261 L 21.785 20.559 L 21.96 20.402 L 21.785 20.243 L 19.957 18.541 L 19.924 18.509 C 19.775 18.339 19.786 18.087 19.957 17.929 M 10.113 19.728 C 10.339 19.826 10.592 19.881 10.86 19.881 L 11.688 19.881 L 11.688 20.748 L 10.86 20.748 C 10.453 20.748 10.066 20.664 9.719 20.513 L 10.113 19.728 M 14.504 20.748 L 12.85 20.748 L 12.85 19.881 L 14.504 19.881 L 14.504 20.748 M 17.483 20.748 L 15.829 20.748 L 15.829 19.881 L 17.483 19.881 L 17.483 20.748 M 20.461 20.748 L 18.807 20.748 L 18.807 19.881 L 20.461 19.881 L 20.461 20.748 M 9.335 18.235 C 9.335 18.485 9.395 18.72 9.5 18.931 L 8.657 19.298 C 8.495 18.975 8.405 18.614 8.405 18.235 L 8.405 17.128 L 9.335 17.128 L 9.335 18.235 M 9.335 15.357 L 8.405 15.357 L 8.405 14 L 9.335 14 L 9.335 15.357 M 5.164 1.02 L 6.891 3.073 C 6.897 3.081 6.907 3.087 6.916 3.09 L 8.95 3.762 C 9.001 3.779 9.045 3.721 9.01 3.681 L 7.344 1.739 C 7.318 1.709 7.336 1.663 7.377 1.656 L 11.353 1.006 C 11.4 0.998 11.435 1.046 11.41 1.084 L 10.473 2.493 C 10.449 2.53 10.481 2.576 10.527 2.57 L 12.457 2.321 C 12.475 2.319 12.493 2.326 12.505 2.339 L 13.799 3.765 C 13.816 3.784 13.816 3.812 13.799 3.831 L 12.157 5.693 C 12.124 5.73 12.158 5.785 12.208 5.776 L 14.722 5.341 C 14.752 5.336 14.781 5.355 14.787 5.383 L 15.358 8.577 C 15.359 8.584 15.362 8.59 15.366 8.596 L 16.992 10.993 C 17.007 11.017 17.001 11.048 16.976 11.064 L 13.851 12.992 C 13.842 12.998 13.831 13 13.821 13 L 12.206 13 C 12.187 13 12.17 12.992 12.16 12.978 C 11.548 12.124 10.93 11.014 10.93 8.654 C 10.93 6.226 6.901 6.354 6.901 8.587 C 6.901 10.487 6.454 12.261 5.963 12.978 C 5.953 12.992 5.937 13 5.918 13 L 4.302 13 C 4.292 13 4.282 12.997 4.273 12.992 L 1.026 11.071 C 0.995 11.053 0.991 11.013 1.018 10.99 L 2.572 9.687 C 2.579 9.681 2.584 9.673 2.587 9.664 L 3.22 7.834 C 3.224 7.823 3.223 7.812 3.219 7.801 L 1.675 3.731 C 1.657 3.683 1.716 3.642 1.759 3.673 L 6.095 6.753 C 6.143 6.787 6.206 6.734 6.175 6.686 L 4.628 4.231 C 4.612 4.204 4.623 4.17 4.653 4.157 L 5.742 3.697 L 5.745 3.696 C 5.748 3.696 5.75 3.693 5.749 3.691 L 5.067 1.064 C 5.053 1.01 5.127 0.977 5.164 1.02" transform="matrix(1 0 0 1 0 0)" fill="#EBEBEB" stroke="none" />
</svg>
