<?xml version="1.0" encoding="UTF-8"?>
<!-- Reconstructed from Amplitude.Graphics.Svg.SvgAsset; not original source SVG. UI tint/material colors are not included. -->
<svg xmlns="http://www.w3.org/2000/svg" width="24" height="24" viewBox="0 0 24 24">
  <path d="M 3.819 12 C 3.829 12.021 3.84 12.044 3.851 12.068 C 3.931 12.237 4.054 12.483 4.219 12.778 C 4.551 13.37 5.055 14.158 5.739 14.945 C 7.109 16.52 9.165 18.045 12 18.045 C 14.835 18.045 16.891 16.52 18.261 14.945 C 18.945 14.158 19.448 13.37 19.781 12.778 C 19.947 12.483 20.069 12.237 20.149 12.068 C 20.161 12.044 20.171 12.021 20.181 12 C 20.171 11.979 20.16 11.957 20.149 11.932 C 20.069 11.763 19.946 11.517 19.781 11.222 C 19.448 10.63 18.945 9.842 18.261 9.055 C 16.891 7.48 14.835 5.955 12 5.955 C 9.165 5.955 7.109 7.48 5.739 9.055 C 5.055 9.842 4.551 10.63 4.219 11.222 C 4.054 11.517 3.931 11.763 3.851 11.932 C 3.84 11.957 3.829 11.979 3.819 12 M 20.727 12 C 21.19 11.812 21.19 11.811 21.19 11.811 L 21.189 11.809 L 21.187 11.804 L 21.18 11.787 C 21.174 11.773 21.165 11.752 21.154 11.726 C 21.131 11.674 21.098 11.599 21.053 11.505 C 20.964 11.317 20.831 11.051 20.653 10.733 C 20.297 10.098 19.755 9.249 19.016 8.399 C 17.539 6.702 15.232 4.955 12 4.955 C 8.768 4.955 6.461 6.702 4.984 8.399 C 4.244 9.249 3.703 10.098 3.347 10.733 C 3.169 11.051 3.036 11.317 2.947 11.505 C 2.902 11.599 2.869 11.674 2.846 11.726 C 2.835 11.752 2.826 11.773 2.82 11.787 L 2.813 11.804 L 2.811 11.809 L 2.81 11.811 C 2.81 11.811 2.81 11.812 3.273 12 L 2.81 11.812 L 2.733 12 L 2.81 12.188 L 3.273 12 C 2.81 12.188 2.81 12.188 2.81 12.188 L 2.81 12.189 L 2.811 12.191 L 2.813 12.196 L 2.82 12.213 C 2.826 12.227 2.835 12.248 2.846 12.274 C 2.869 12.326 2.902 12.401 2.947 12.495 C 3.036 12.683 3.169 12.949 3.347 13.267 C 3.703 13.903 4.244 14.751 4.984 15.601 C 6.461 17.298 8.768 19.045 12 19.045 C 15.232 19.045 17.539 17.298 19.016 15.601 C 19.755 14.751 20.297 13.903 20.653 13.267 C 20.831 12.949 20.964 12.683 21.053 12.495 C 21.098 12.401 21.131 12.326 21.154 12.274 C 21.165 12.248 21.174 12.227 21.18 12.213 L 21.187 12.196 L 21.189 12.191 L 21.19 12.189 C 21.19 12.189 21.19 12.188 20.727 12 L 21.19 12.188 L 21.267 12 L 21.19 11.811 L 20.727 12 M 12 9.227 C 10.469 9.227 9.227 10.469 9.227 12 C 9.227 13.531 10.469 14.773 12 14.773 C 13.531 14.773 14.773 13.531 14.773 12 C 14.773 10.469 13.531 9.227 12 9.227 M 8.227 12 C 8.227 9.916 9.916 8.227 12 8.227 C 14.084 8.227 15.773 9.916 15.773 12 C 15.773 14.084 14.084 15.773 12 15.773 C 9.916 15.773 8.227 14.084 8.227 12" transform="matrix(1 0 0 1 0 0)" fill="#000000" stroke="none" />
</svg>
