<?xml version="1.0" encoding="UTF-8"?>
<!-- Reconstructed from Amplitude.Graphics.Svg.SvgAsset; not original source SVG. UI tint/material colors are not included. -->
<svg xmlns="http://www.w3.org/2000/svg" width="48" height="48" viewBox="0 0 48 48">
  <path d="M 45 30.5 C 44.7 29.2 43.9 27.8 43.4 26.6 C 41.8 23.1 40.2 19.6 38.2 16.3 C 36.3 13.2 34 10.6 31.4 8.1 C 29.2 5.9 26.7 5.1 23.8 4.1 C 22.6 3.7 21.3 3.1 20 3 C 18.9 2.9 18.3 3.7 17.7 4.5 C 16.1 6.5 14 9.1 15.7 11.7 C 16.2 12.5 17.1 13 18 13.3 C 19 13.7 19.9 13.3 20.9 13 C 22 12.6 22.7 13 23.8 13.2 C 24.6 13.3 25.2 13 26 13 C 26.8 13 28 14.2 28.4 14.8 C 28.9 15.5 28.7 16.5 28.8 17.3 C 28.9 20 28.9 22.7 28.9 25.4 C 26.6 24.6 24.1 24.6 21.9 25.7 C 21.5 25.9 21.1 26.1 20.7 26.3 C 20.6 26.4 20.3 26.7 20.3 26.7 C 20.1 26.7 19.7 26.3 19.5 26.1 C 18.7 25.6 17.8 25.1 16.9 24.7 C 9.9 22 2.3 28.2 2.9 35.6 C 3.1 37.9 3.9 40.2 5.3 42 C 7.8 45.2 11.5 44.8 15.2 44.8 C 16.1 44.8 16.8 44.8 17.7 45.1 C 18.1 45.2 18.5 45.1 19 45.1 C 19.7 45 20.4 45.1 21.1 45 C 22.5 45 24 44.8 25.4 44.8 C 26.1 44.8 26.8 44.8 27.4 44.6 C 29.5 44 31.5 43.1 33.4 42.2 C 36.8 40.5 40.1 38.4 42.8 35.6 C 44.2 34.2 45.5 32.8 45 30.5 M 43.1 31.7 C 42.8 32.4 42 33.1 41.4 33.6 C 40.1 34.9 38.8 36 37.3 37 C 34.9 38.6 32.4 40 29.7 41 C 28.5 41.5 27.3 42 26 42 C 23 42.1 20.1 42.3 17.1 42.4 C 16.2 42.5 15.3 42.5 14.4 42.5 C 12.7 42.5 10.8 42.6 9.2 42 C 6.9 41.1 5.7 38.7 5.2 36.4 C 4.2 31.3 7.9 26.2 13.3 26.2 C 15.3 26.2 16.8 27.3 18.6 28 C 17.6 29 16.3 31 16.4 32.5 C 16.5 33.2 17 33.7 17.7 33.5 C 18.6 33.3 18.6 32.4 18.8 31.7 C 19.2 30.4 20 29.7 20.8 28.8 C 21.3 28.2 21.7 27.8 22.5 27.4 C 23.3 27 24.2 26.8 25.2 26.8 C 26.9 26.8 28.4 27.2 29.6 28.5 C 30.1 29 30.7 30.3 31.5 30.4 C 32.2 30.5 32.9 29.7 32.8 29 C 32.7 28.6 32.3 28.3 32 28 C 30.2 26.2 30.6 23.4 30.5 21.1 C 30.5 19.7 30.5 18.3 30.4 16.9 C 30.4 15.9 30.5 14.8 30 13.9 C 29.4 12.6 27.9 11.4 26.6 10.8 C 26 10.5 25.4 10.4 24.7 10.6 C 24.4 10.7 24.3 10.9 24 10.9 C 23.7 10.9 23.4 10.8 23.1 10.7 C 22.4 10.5 21.7 10.1 21 10.4 C 20.4 10.6 19.9 11.2 19.2 11.3 C 18.7 11.4 18.1 11 17.7 10.6 C 17.2 10.2 17.2 9.5 17.4 8.9 C 17.7 7.8 18.7 6.7 19.3 5.8 C 19.6 5.7 20 5.1 20.2 5 C 20.4 5 20.9 5.3 21.2 5.4 C 21.7 5.6 22.1 5.7 22.6 5.8 C 24.9 6.3 27.3 6.9 29.2 8.4 C 30.4 9.4 31.3 10.6 32.5 11.6 C 33.5 12.5 34.4 13.6 35.2 14.7 C 37 17.3 38.5 20.1 39.8 23 C 40.9 25.2 42.1 27.5 42.9 29.9 C 43 30.4 43.3 31.2 43.1 31.7" transform="matrix(1 0 0 1 0 0)" fill="#000000" stroke="none" />
</svg>
