<?xml version="1.0" encoding="UTF-8"?>
<!-- Reconstructed from Amplitude.Graphics.Svg.SvgAsset; not original source SVG. UI tint/material colors are not included. -->
<svg xmlns="http://www.w3.org/2000/svg" width="25" height="25" viewBox="0 0 25 25">
  <path d="M 14.627 8.198 C 14.355 7.969 14.414 7.669 14.584 7.421 C 15.754 7.638 16.842 7.346 16.33 6.03 C 16.321 6.003 16.314 5.979 16.307 5.957 L 16.307 5.957 C 16.294 5.916 16.283 5.885 16.278 5.856 C 16.298 5.833 16.326 5.805 16.353 5.782 C 16.996 5.246 16.523 4.635 15.951 4.087 C 15.827 3.963 15.683 3.876 15.544 3.792 L 15.51 3.772 C 15.476 3.754 15.445 3.733 15.415 3.712 C 15.338 3.661 15.267 3.613 15.171 3.622 C 15.423 3.019 15.671 2.396 15.671 2.396 C 15.719 2.057 13.649 1.076 13.039 0.973 C 12.321 0.843 9.85 0.674 9.988 1.143 C 10.055 1.383 10.079 1.947 10.09 2.487 C 9.239 2.526 8.25 2.676 8.502 3.693 L 8.506 3.724 L 8.506 3.736 C 7.737 4.162 7.954 5.474 8.869 5.545 L 8.901 5.56 C 9.131 5.661 9.543 5.843 9.464 6.136 C 9.371 6.405 9.303 6.413 9.091 6.439 C 9.069 6.442 9.047 6.444 9.022 6.448 C -2.553 7.051 -2.404 22.477 9.184 22.887 C 10.435 22.891 11.583 22.666 12.609 22.266 C 12.591 22.234 12.574 22.202 12.557 22.169 C 12.443 22.037 12.343 21.898 12.258 21.752 C 11.332 22.095 10.301 22.287 9.184 22.284 C -0.878 22.028 -2.025 8.923 7.84 7.141 C 8.135 7.108 8.368 7.091 8.576 7.075 C 8.634 7.071 8.691 7.067 8.746 7.063 C 8.787 7.059 8.826 7.057 8.865 7.054 L 8.865 7.054 C 8.976 7.046 9.08 7.039 9.188 7.027 C 9.822 7.027 10.291 6.207 9.988 5.667 C 9.779 5.293 9.389 5.092 9.038 4.958 L 8.963 4.942 C 8.865 4.93 8.735 4.883 8.683 4.78 C 8.62 4.733 8.656 4.359 8.707 4.331 C 8.742 4.288 8.785 4.26 8.831 4.231 C 8.89 4.194 8.955 4.153 9.014 4.071 C 9.113 3.937 9.129 3.783 9.101 3.626 L 9.097 3.626 C 9.092 3.572 9.085 3.527 9.078 3.488 C 9.064 3.402 9.054 3.345 9.089 3.283 C 9.297 3.147 9.609 3.121 9.977 3.091 C 10.014 3.088 10.052 3.085 10.09 3.082 C 10.09 3.46 10.083 3.74 10.083 3.74 C 10.827 4.635 12.479 4.812 13.835 4.907 C 14.485 4.926 14.67 4.729 14.67 4.729 C 14.698 4.71 14.816 4.453 14.962 4.118 C 15.012 4.172 15.079 4.211 15.145 4.25 L 15.145 4.25 C 15.173 4.266 15.2 4.283 15.226 4.3 C 15.328 4.359 15.478 4.453 15.526 4.509 C 15.88 4.871 16.006 5.005 16.062 5.214 C 16.041 5.25 15.998 5.289 15.954 5.327 C 15.921 5.357 15.888 5.386 15.864 5.415 C 15.644 5.604 15.64 5.951 15.758 6.211 C 15.809 6.349 15.904 6.684 15.829 6.755 C 15.805 6.787 15.699 6.881 15.301 6.881 C 14.915 6.881 14.319 6.798 13.425 6.558 C 13.263 6.515 13.102 6.609 13.058 6.771 C 12.994 7.121 13.371 7.186 13.681 7.239 C 13.79 7.258 13.89 7.275 13.961 7.303 C 13.709 7.8 13.847 8.403 14.359 8.753 L 14.359 8.745 C 15.941 9.948 16.859 11.457 17.214 13.027 C 17.218 13.031 17.223 13.035 17.227 13.039 C 17.244 13.043 17.264 13.047 17.285 13.047 C 17.41 13.064 17.527 13.089 17.643 13.123 L 17.812 12.952 C 17.433 11.201 16.411 9.519 14.627 8.202 L 14.627 8.198 M 14.804 12.318 C 14.648 12.264 14.467 12.226 14.256 12.21 C 13.914 12.186 13.571 12.238 13.24 12.328 C 12.455 12.549 10.583 13.101 9.089 13.775 C 8.833 13.889 8.829 14.259 9.081 14.382 C 9.834 14.742 10.656 14.99 11.526 15.101 C 12.227 14.395 12.926 13.691 13.635 12.98 C 13.97 12.645 14.376 12.424 14.804 12.318 M 10.413 16.569 L 10.083 16.522 C 9.409 16.423 8.758 16.202 8.167 15.864 C 7.536 15.505 7.099 14.929 6.815 14.283 C 6.661 13.944 6.37 13.578 5.735 13.388 L 5.605 13.345 C 4.186 12.978 3.631 15.012 3.631 15.012 C 3.457 15.268 3.047 15.032 2.767 14.681 L 2.594 14.456 C 2.574 14.579 2.574 14.701 2.574 14.823 C 2.574 17.913 5.558 20.53 9.204 20.53 C 10.159 20.53 11.067 20.359 11.886 20.05 C 11.886 20.045 11.887 20.04 11.887 20.035 C 11.604 19.767 11.33 19.507 11.059 19.251 C 10.564 18.786 10.281 18.136 10.268 17.457 C 10.263 17.152 10.313 16.851 10.413 16.569" transform="matrix(1 0 0 1 0 0)" fill="#FFFFFF" stroke="none" />
  <path d="M 18.575 23.1 C 18.575 23.1 18.533 23.146 18.512 23.167 C 18.243 23.426 17.818 23.447 17.538 23.203 C 17.403 23.089 17.289 22.949 17.144 22.804 C 17.227 22.726 17.32 22.654 17.403 22.571 C 17.527 22.446 17.626 22.301 17.693 22.146 L 18.543 23.068 L 18.575 23.1" transform="matrix(1 0 0 1 0 0)" fill="#FFFFFF" stroke="none" />
  <path d="M 21.328 21.378 L 21.307 21.358 L 19.715 19.626 L 19.679 19.662 L 19.451 19.875 L 19.368 19.952 L 21.167 21.918 L 21.245 22 C 21.224 22.161 21.141 22.301 21.001 22.42 C 20.861 22.54 20.669 22.623 20.441 22.586 L 20.368 22.509 L 18.668 20.663 L 18.616 20.715 L 18.393 20.922 L 18.326 20.989 L 19.865 22.664 L 19.876 22.675 C 19.783 22.804 19.643 22.887 19.466 22.923 C 19.295 22.96 19.145 22.939 19 22.866 L 17.802 21.56 C 17.792 21.067 17.527 20.59 17.05 20.336 C 17.003 20.31 16.952 20.269 16.931 20.217 C 16.755 19.854 16.485 19.584 16.107 19.429 C 16.07 19.413 16.029 19.372 16.013 19.336 C 15.572 18.444 14.494 18.236 13.758 18.91 C 13.664 18.998 13.587 19.102 13.499 19.211 C 12.876 18.62 12.285 18.06 11.705 17.516 C 12.845 16.375 13.976 15.245 15.121 14.104 C 15.298 14.265 15.5 14.446 15.702 14.628 C 15.754 14.674 15.816 14.721 15.863 14.773 C 16.055 15.027 16.355 14.98 16.615 15.027 C 16.781 15.058 16.952 15.079 17.149 15.105 C 16.319 15.893 15.505 16.671 14.686 17.448 C 15.064 17.858 15.386 18.309 15.92 18.527 C 16.651 18.822 17.33 18.713 17.942 18.236 C 18.097 18.117 18.243 18.06 18.434 18.07 C 18.637 18.086 18.839 18.07 19.041 18.076 C 19.098 18.081 19.171 18.107 19.207 18.143 C 20 18.931 20.783 19.719 21.571 20.502 C 21.836 20.772 21.649 21.275 21.328 21.378" transform="matrix(1 0 0 1 0 0)" fill="#FFFFFF" stroke="none" />
  <path d="M 22.302 19.667 C 22.302 19.667 22.261 19.6 22.23 19.569 C 21.421 18.755 20.607 17.816 19.798 17.002 C 19.736 16.94 19.679 16.909 19.586 16.914 C 19.109 16.914 18.274 17.049 17.797 17.054 C 17.74 17.054 17.672 17.09 17.636 17.127 C 17.429 17.339 17.201 17.656 16.91 17.744 C 16.485 17.873 16.076 17.832 15.785 17.49 C 15.884 17.386 15.977 17.282 16.076 17.189 C 16.63 16.66 17.185 16.131 17.74 15.608 C 17.787 15.561 17.854 15.53 17.916 15.514 C 18.398 15.395 18.886 15.286 19.368 15.167 C 19.425 15.151 19.487 15.115 19.529 15.074 C 19.99 14.617 20.446 14.161 20.903 13.7 C 20.934 13.668 20.96 13.627 20.975 13.606 C 22.214 14.851 23.443 16.074 24.662 17.298 C 23.816 18.143 23.194 18.765 22.297 19.657 L 22.302 19.667" transform="matrix(1 0 0 1 0 0)" fill="#FFFFFF" stroke="none" />
  <path d="M 14.307 21.708 C 14.195 21.669 14.07 21.652 13.975 21.592 C 13.742 21.441 13.713 21.115 13.904 20.912 C 14.058 20.749 14.22 20.59 14.382 20.435 C 14.528 20.298 14.74 20.272 14.91 20.366 C 15.085 20.461 15.176 20.646 15.143 20.844 C 15.143 20.865 15.135 20.891 15.131 20.921 C 15.322 20.882 15.496 20.904 15.642 21.033 C 15.787 21.162 15.841 21.33 15.821 21.519 C 15.9 21.532 15.979 21.532 16.049 21.553 C 16.374 21.652 16.477 22.056 16.245 22.297 C 16.095 22.452 15.941 22.602 15.787 22.757 C 15.65 22.895 15.488 22.938 15.305 22.873 C 15.122 22.809 15.027 22.675 15.002 22.482 C 15.002 22.469 14.998 22.452 14.993 22.439 C 14.474 22.576 14.133 22.108 14.303 21.708 L 14.307 21.708" transform="matrix(1 0 0 1 0 0)" fill="#FFFFFF" stroke="none" />
  <path d="M 22.302 19.667 C 22.302 19.667 22.261 19.6 22.23 19.569 C 21.825 19.162 21.42 18.724 21.014 18.286 L 21.014 18.286 C 20.608 17.847 20.202 17.409 19.798 17.002 C 19.736 16.94 19.679 16.909 19.585 16.914 C 19.34 16.914 19.001 16.95 18.664 16.985 C 18.345 17.018 18.029 17.052 17.797 17.054 C 17.74 17.054 17.672 17.09 17.636 17.127 C 17.592 17.172 17.546 17.222 17.5 17.274 C 17.328 17.464 17.138 17.674 16.91 17.744 C 16.485 17.873 16.075 17.832 15.785 17.49 C 15.81 17.463 15.836 17.436 15.86 17.41 C 15.932 17.333 16.002 17.258 16.075 17.189 C 16.63 16.66 17.185 16.131 17.74 15.608 C 17.786 15.561 17.854 15.53 17.916 15.514 C 18.157 15.455 18.399 15.398 18.642 15.341 C 18.884 15.284 19.127 15.226 19.368 15.167 C 19.425 15.151 19.487 15.115 19.528 15.074 C 19.99 14.617 20.446 14.161 20.902 13.7 C 20.926 13.676 20.946 13.647 20.961 13.625 L 20.962 13.625 C 20.967 13.618 20.971 13.611 20.975 13.606 C 21.594 14.228 22.211 14.845 22.826 15.459 L 22.826 15.46 L 22.826 15.46 C 23.44 16.074 24.052 16.686 24.661 17.298 L 24.661 17.298 L 24.661 17.298 C 23.816 18.143 23.194 18.765 22.297 19.657 L 22.302 19.667 M 21.307 21.358 L 21.328 21.378 C 21.649 21.275 21.836 20.772 21.571 20.502 C 21.177 20.111 20.785 19.718 20.391 19.324 C 19.998 18.931 19.604 18.537 19.207 18.143 C 19.171 18.107 19.098 18.081 19.041 18.076 C 18.96 18.073 18.879 18.075 18.798 18.076 C 18.677 18.078 18.556 18.08 18.434 18.07 C 18.243 18.06 18.097 18.117 17.942 18.236 C 17.33 18.713 16.651 18.822 15.92 18.527 C 15.483 18.349 15.189 18.015 14.889 17.675 C 14.822 17.599 14.755 17.523 14.686 17.448 C 15.117 17.039 15.547 16.63 15.978 16.219 L 15.978 16.219 L 15.978 16.219 L 15.978 16.219 C 16.366 15.849 16.756 15.478 17.149 15.105 L 17.067 15.094 C 16.904 15.073 16.757 15.054 16.615 15.027 C 16.553 15.016 16.489 15.01 16.424 15.004 C 16.218 14.985 16.009 14.966 15.863 14.773 C 15.831 14.738 15.793 14.705 15.755 14.673 L 15.755 14.673 L 15.755 14.673 C 15.737 14.658 15.719 14.643 15.702 14.628 C 15.5 14.446 15.298 14.265 15.121 14.104 C 13.976 15.245 12.845 16.375 11.705 17.516 C 12.285 18.06 12.876 18.62 13.499 19.211 C 13.515 19.191 13.53 19.172 13.546 19.152 C 13.616 19.065 13.681 18.982 13.758 18.91 C 14.494 18.236 15.572 18.444 16.013 19.335 C 16.029 19.372 16.07 19.413 16.107 19.429 C 16.485 19.584 16.755 19.854 16.931 20.217 C 16.952 20.269 17.003 20.31 17.05 20.336 C 17.527 20.59 17.792 21.067 17.802 21.56 L 19 22.866 C 19.145 22.939 19.295 22.96 19.466 22.923 C 19.643 22.887 19.783 22.804 19.876 22.674 L 19.865 22.664 L 18.326 20.989 L 18.393 20.922 L 18.616 20.715 L 18.668 20.663 L 20.368 22.509 L 20.441 22.586 C 20.669 22.623 20.861 22.54 21.001 22.42 C 21.141 22.301 21.224 22.161 21.245 22 L 21.167 21.917 L 19.368 19.952 L 19.451 19.875 L 19.679 19.662 L 19.715 19.626 L 21.307 21.358 M 18.512 23.167 C 18.533 23.146 18.574 23.1 18.574 23.1 L 18.543 23.068 L 17.693 22.146 C 17.626 22.301 17.527 22.446 17.403 22.571 C 17.355 22.619 17.303 22.663 17.253 22.707 C 17.215 22.739 17.179 22.771 17.143 22.804 C 17.197 22.858 17.246 22.91 17.294 22.961 L 17.294 22.962 C 17.376 23.049 17.452 23.131 17.538 23.203 C 17.818 23.447 18.243 23.426 18.512 23.167 M 14.195 21.674 C 14.233 21.685 14.271 21.695 14.308 21.708 L 14.304 21.708 C 14.133 22.108 14.474 22.576 14.994 22.439 C 14.998 22.452 15.002 22.469 15.002 22.482 C 15.027 22.675 15.123 22.809 15.305 22.873 C 15.488 22.938 15.651 22.895 15.788 22.757 C 15.84 22.705 15.891 22.653 15.943 22.602 C 16.045 22.5 16.146 22.4 16.245 22.297 C 16.478 22.056 16.374 21.652 16.05 21.553 C 16.005 21.54 15.957 21.535 15.907 21.529 C 15.879 21.526 15.85 21.523 15.821 21.519 C 15.842 21.33 15.788 21.162 15.642 21.033 C 15.497 20.904 15.322 20.882 15.131 20.921 C 15.133 20.909 15.135 20.897 15.137 20.887 C 15.14 20.871 15.143 20.857 15.143 20.844 C 15.177 20.646 15.085 20.461 14.911 20.366 C 14.74 20.272 14.528 20.298 14.383 20.435 C 14.22 20.59 14.058 20.749 13.904 20.912 C 13.713 21.115 13.742 21.441 13.975 21.592 C 14.039 21.632 14.117 21.653 14.195 21.674" transform="matrix(1 0 0 1 0 0)" fill="#FFFFFF" stroke="none" />
</svg>
