<?xml version="1.0" encoding="UTF-8"?>
<!-- Reconstructed from Amplitude.Graphics.Svg.SvgAsset; not original source SVG. UI tint/material colors are not included. -->
<svg xmlns="http://www.w3.org/2000/svg" width="26" height="26" viewBox="0 0 26 26">
  <path d="M 2.573 2.41 C 2.573 2.41 3.213 2.12 3.408 2.082 C 3.603 2.043 3.654 2.172 3.654 2.172 C 5.787 2.107 7.995 2.062 10.068 1.541 C 10.742 1.372 11.398 1.116 11.971 0.673 C 12.372 0.365 13.084 0.377 13.545 0.507 C 14.515 0.782 15.168 1.033 16.125 0.748 C 16.332 0.687 17.232 0.262 17.307 0.201 C 17.988 1.455 18.313 2.933 19.31 3.91 C 19.986 4.572 20.479 5.378 21.172 6.027 C 21.738 6.558 22.371 6.795 23.427 6.623 C 23.401 6.739 23.156 6.85 22.993 7.007 C 21.734 8.049 20.481 8.123 19.112 7.238 C 17.93 6.474 16.802 6.651 15.73 7.721 C 15.026 8.424 14.392 9.198 13.539 9.753 C 12.463 10.454 11.208 10.457 10.026 10.742 C 8.537 11.101 7.03 11.372 5.508 11.561 L 8.271 25.562 L 7.189 25.799 L 2.573 2.41" transform="matrix(1 0 0 1 0 0)" fill="#EBEBEB" stroke="none" />
</svg>
