<?xml version="1.0" encoding="UTF-8"?>
<!-- Reconstructed from Amplitude.Graphics.Svg.SvgAsset; not original source SVG. UI tint/material colors are not included. -->
<svg xmlns="http://www.w3.org/2000/svg" width="25" height="25" viewBox="0 0 25 25">
  <path d="M 20.972 15.328 C 21.088 15.903 21.088 16.465 21.005 16.994 C 20.926 17.528 20.767 18.028 20.576 18.498 C 20.38 18.969 20.142 19.415 19.884 19.84 C 19.626 20.265 19.342 20.669 19.042 21.057 C 18.892 21.253 18.742 21.44 18.584 21.632 L 18.467 21.773 L 18.409 21.844 L 18.351 21.915 L 18.23 22.053 L 18.109 22.19 C 17.784 22.553 17.451 22.907 17.113 23.248 C 17.017 23.344 16.922 23.44 16.826 23.536 L 1.101 23.536 L 1.092 23.528 C 2.834 22.765 4.53 21.982 6.134 21.165 C 6.934 20.757 7.713 20.34 8.455 19.915 C 8.826 19.703 9.188 19.49 9.534 19.273 C 9.884 19.057 10.222 18.84 10.542 18.619 L 10.663 18.536 L 10.78 18.453 L 10.838 18.411 L 10.897 18.369 L 11.013 18.286 C 11.163 18.178 11.317 18.065 11.459 17.957 C 11.747 17.736 12.013 17.519 12.255 17.303 C 12.497 17.086 12.713 16.873 12.892 16.673 C 13.076 16.469 13.226 16.278 13.338 16.103 C 13.455 15.928 13.53 15.769 13.584 15.623 C 13.609 15.553 13.63 15.482 13.638 15.411 C 13.647 15.344 13.655 15.273 13.647 15.203 C 13.638 15.061 13.584 14.903 13.476 14.728 C 13.363 14.553 13.192 14.361 12.959 14.165 C 12.855 14.078 12.742 13.99 12.617 13.898 L 16.338 14.703 L 20.476 14.04 C 20.555 14.182 20.626 14.328 20.688 14.473 C 20.809 14.757 20.897 15.044 20.959 15.332 L 20.972 15.328 M 5.297 8.078 C 4.942 7.994 4.601 7.903 4.288 7.807 C 4.076 7.744 3.88 7.673 3.701 7.607 C 3.522 7.536 3.359 7.465 3.23 7.394 C 3.097 7.323 2.992 7.257 2.917 7.19 C 2.842 7.123 2.788 7.061 2.755 6.982 C 2.722 6.903 2.713 6.798 2.742 6.682 C 2.755 6.623 2.78 6.561 2.809 6.494 C 2.838 6.432 2.876 6.365 2.917 6.294 C 2.959 6.228 3.009 6.157 3.063 6.09 C 3.072 6.078 3.08 6.069 3.092 6.057 C 3.113 6.032 3.13 6.011 3.151 5.986 C 3.159 5.978 3.163 5.973 3.172 5.965 C 3.18 5.957 3.188 5.944 3.197 5.936 L 3.242 5.886 C 3.367 5.748 3.513 5.611 3.667 5.473 C 3.976 5.203 4.322 4.936 4.688 4.682 C 4.872 4.553 5.059 4.428 5.255 4.303 C 5.447 4.178 5.642 4.053 5.842 3.932 C 6.392 3.594 6.963 3.269 7.547 2.948 C 7.634 2.898 7.576 2.761 7.48 2.794 C 6.772 3.023 6.072 3.265 5.38 3.523 C 5.138 3.615 4.892 3.707 4.655 3.803 C 4.413 3.898 4.176 3.998 3.938 4.103 C 3.463 4.311 2.997 4.528 2.542 4.778 C 2.317 4.903 2.092 5.032 1.876 5.178 L 1.797 5.232 C 1.772 5.248 1.742 5.269 1.717 5.286 C 1.672 5.315 1.63 5.348 1.588 5.382 C 1.58 5.39 1.572 5.394 1.559 5.403 C 1.455 5.482 1.351 5.561 1.255 5.648 C 1.059 5.823 0.871 6.015 0.721 6.236 C 0.646 6.348 0.58 6.465 0.53 6.59 C 0.48 6.715 0.442 6.848 0.426 6.99 C 0.409 7.128 0.417 7.273 0.442 7.415 C 0.471 7.557 0.521 7.698 0.588 7.832 C 0.655 7.965 0.738 8.09 0.834 8.211 C 0.93 8.328 1.034 8.44 1.142 8.54 C 1.363 8.744 1.605 8.923 1.847 9.082 C 1.967 9.161 2.092 9.236 2.217 9.307 C 2.342 9.378 2.467 9.448 2.592 9.515 C 3.092 9.778 3.601 10.003 4.101 10.215 C 4.601 10.428 5.101 10.619 5.597 10.807 C 5.701 10.844 5.801 10.886 5.905 10.923 L 5.301 8.086 L 5.297 8.078" transform="matrix(1 0 0 1 0 0)" fill="#FFFFFF" stroke="none" />
  <path d="M 12.518 3.371 C 12.518 4.313 11.755 5.075 10.814 5.075 C 9.872 5.075 9.11 4.313 9.11 3.371 C 9.11 2.429 9.872 1.667 10.814 1.667 C 11.755 1.667 12.518 2.429 12.518 3.371 M 12.935 3.371 C 12.935 4.542 11.985 5.492 10.814 5.492 C 9.643 5.492 8.693 4.542 8.693 3.371 C 8.693 2.2 9.643 1.25 10.814 1.25 C 11.985 1.25 12.935 2.2 12.935 3.371 M 12.964 6.467 C 12.622 6.188 12.48 6.233 11.897 6.233 L 9.73 6.233 C 9.135 6.233 8.622 6.421 8.28 6.704 C 7.943 6.983 7.785 7.346 7.851 7.717 C 7.989 8.417 8.297 9.708 8.526 10.629 L 10.797 11.067 L 12.185 10.8 C 12.214 10.933 12.247 11.071 12.28 11.204 L 10.835 11.483 L 10.797 11.492 L 10.76 11.483 L 8.322 11.013 L 8.193 10.988 L 8.16 10.858 C 7.926 9.929 7.597 8.538 7.447 7.792 C 7.347 7.238 7.593 6.738 8.018 6.383 C 8.443 6.033 9.055 5.817 9.735 5.817 L 11.901 5.817 C 12.355 5.817 12.785 5.917 13.143 6.088 L 12.968 6.467 L 12.964 6.467 M 13.73 7.942 C 13.872 7.863 14.026 7.792 14.193 7.742 C 14.026 7.796 13.872 7.863 13.73 7.942" transform="matrix(1 0 0 1 0 0)" fill="#FFFFFF" stroke="none" />
  <path d="M 16.117 7.082 C 17.288 7.082 18.238 6.132 18.238 4.961 C 18.238 3.79 17.288 2.84 16.117 2.84 C 14.947 2.84 13.997 3.79 13.997 4.961 C 13.997 6.132 14.947 7.082 16.117 7.082 M 12.955 9.34 C 12.784 8.415 13.763 7.611 15.038 7.611 L 17.205 7.611 C 18.459 7.611 19.434 8.415 19.288 9.323 C 19.213 9.782 18.734 11.694 18.542 12.394 L 16.105 12.865 L 13.667 12.394 C 13.434 11.465 13.105 10.082 12.959 9.34 L 12.955 9.34" transform="matrix(1 0 0 1 0 0)" fill="#FFFFFF" stroke="none" />
  <path d="M 13.997 23.528 C 21.001 17.587 20.614 16.762 20.822 14.887 C 21.864 17.803 19.214 21.316 16.914 23.528 L 13.997 23.528" transform="matrix(1 0 0 1 0 0)" fill="#D9D9D9" stroke="none" />
  <path d="M 16.101 12.871 C 18.434 10.751 17.796 8.501 17.176 7.617 C 20.359 7.617 19.23 10.209 18.538 12.401 L 16.101 12.871" transform="matrix(1 0 0 1 0 0)" fill="#D9D9D9" stroke="none" />
  <path d="M 19.529 3.305 C 19.525 3.328 19.522 3.351 19.522 3.375 L 19.526 3.371 C 19.526 3.538 19.547 3.696 19.584 3.85 L 22.126 1.308 C 21.972 1.275 21.813 1.25 21.647 1.25 C 21.628 1.25 21.61 1.253 21.592 1.256 C 21.575 1.259 21.557 1.263 21.538 1.263 L 19.534 3.267 C 19.533 3.28 19.531 3.292 19.529 3.305 M 19.822 4.437 L 22.709 1.55 C 22.843 1.625 22.963 1.717 23.076 1.817 L 20.088 4.804 C 19.984 4.692 19.897 4.571 19.822 4.437 M 23.201 6.067 C 23.051 6.042 22.892 6.029 22.726 6.029 L 22.722 6.029 L 22.605 6.029 L 19.988 8.692 C 20.011 8.778 20.033 8.864 20.054 8.948 L 20.054 8.948 L 20.054 8.948 L 20.054 8.948 C 20.076 9.033 20.097 9.116 20.118 9.196 L 23.201 6.067 M 23.555 10.913 L 24.097 10.808 L 24.101 10.808 C 24.132 10.673 24.169 10.525 24.206 10.373 L 24.243 10.225 L 23.555 10.913 M 20.538 5.179 L 23.447 2.271 C 23.53 2.404 23.597 2.55 23.647 2.704 L 20.972 5.379 C 20.818 5.329 20.672 5.263 20.538 5.179 M 20.197 10.567 L 24.234 6.492 C 24.113 6.404 23.98 6.325 23.834 6.258 L 20.197 9.942 L 20.197 10.567 M 20.313 6.038 L 19.155 7.233 C 19.147 7.187 18.947 7.025 18.947 7.025 L 18.738 6.817 L 19.459 6.254 C 19.713 6.142 20.001 6.063 20.309 6.038 L 20.313 6.038 M 22.53 11.117 L 24.501 9.146 C 24.523 9.048 24.546 8.952 24.568 8.858 L 24.568 8.857 L 24.568 8.857 C 24.611 8.671 24.652 8.494 24.688 8.325 L 21.747 11.267 L 22.53 11.117 M 21.784 6.029 L 19.572 8.275 C 19.552 8.19 19.532 8.106 19.513 8.025 L 19.513 8.025 C 19.491 7.935 19.471 7.848 19.451 7.762 L 21.151 6.029 L 21.784 6.029 M 21.026 11.158 L 24.809 7.375 L 24.813 7.371 C 24.788 7.208 24.73 7.054 24.638 6.913 L 20.497 11.054 L 21.026 11.158 M 21.684 5.492 L 23.763 3.413 C 23.759 3.7 23.697 3.971 23.588 4.221 L 22.493 5.317 C 22.243 5.425 21.972 5.488 21.684 5.492 M 20.901 1.388 L 19.647 2.642 C 19.859 2.063 20.318 1.604 20.901 1.388" transform="matrix(1 0 0 1 0 0)" fill="#FFFFFF" stroke="none" />
</svg>
