<?xml version="1.0" encoding="UTF-8"?>
<!-- Reconstructed from Amplitude.Graphics.Svg.SvgAsset; not original source SVG. UI tint/material colors are not included. -->
<svg xmlns="http://www.w3.org/2000/svg" width="25" height="25" viewBox="0 0 25 25">
  <path d="M 3.323 6.505 L 5.347 6.291 C 5.38 5.809 5.408 5.339 5.426 5.024 L 3.205 5.257 C 2.861 5.29 2.608 5.595 2.64 5.94 C 2.673 6.285 2.978 6.538 3.323 6.505 L 3.323 6.505" transform="matrix(1 0 0 1 0 0)" fill="#FFFFFF" stroke="none" />
  <path d="M 11.707 22.939 C 11.683 22.97 11.67 23.008 11.671 23.047 L 11.681 24.068 C 11.684 24.352 11.917 24.58 12.201 24.577 L 12.432 24.574 C 12.714 24.571 12.94 24.341 12.94 24.06 L 12.94 21.863 C 12.94 21.7 12.734 21.629 12.634 21.757 L 11.707 22.939" transform="matrix(1 0 0 1 0 0)" fill="#FFFFFF" stroke="none" />
  <path d="M 11.707 22.939 C 11.683 22.97 11.67 23.008 11.671 23.047 L 11.686 23.988 L 12.886 22.86 C 12.92 22.828 12.94 22.783 12.94 22.735 L 12.94 21.863 C 12.94 21.7 12.734 21.629 12.634 21.757 L 11.707 22.939" transform="matrix(1 0 0 1 0 0)" fill="#D9D9D9" stroke="none" />
  <path d="M 22.359 4.025 C 22.327 3.68 22.021 3.427 21.676 3.46 L 19.242 3.694 C 19.239 3.694 19.236 3.692 19.236 3.689 C 19.243 3.596 19.249 3.511 19.253 3.444 L 19.256 3.403 C 19.26 3.355 19.255 3.307 19.238 3.263 C 19.184 3.123 19.049 3.047 18.912 3.06 L 14.854 3.456 C 14.693 3.472 14.57 3.607 14.57 3.769 C 14.57 3.779 14.565 4.793 14.229 5.796 C 13.916 6.732 13.433 7.327 12.788 7.575 C 12.784 7.576 12.781 7.574 12.781 7.57 L 12.756 5.583 C 12.756 5.58 12.758 5.578 12.761 5.578 L 13.637 5.493 C 13.639 5.493 13.641 5.492 13.641 5.49 C 13.769 4.999 13.827 4.539 13.855 4.218 C 13.855 4.215 13.852 4.213 13.849 4.213 L 12.746 4.322 C 12.743 4.322 12.741 4.32 12.741 4.317 L 12.724 2.615 C 13.062 2.404 13.288 2.033 13.288 1.606 C 13.288 0.948 12.755 0.417 12.097 0.417 C 11.439 0.417 10.906 0.949 10.906 1.607 C 10.906 2.034 11.132 2.405 11.47 2.615 L 11.488 4.439 C 11.488 4.441 11.486 4.444 11.483 4.444 L 9.269 4.655 C 9.266 4.655 9.264 4.654 9.263 4.651 C 9.235 4.48 9.227 4.374 9.227 4.371 C 9.22 4.286 9.18 4.207 9.115 4.153 C 9.05 4.098 8.966 4.072 8.881 4.081 L 6.427 4.326 C 6.27 4.342 6.148 4.47 6.14 4.627 C 6.078 5.804 5.956 7.679 5.874 8.03 C 5.873 8.036 5.854 8.13 5.853 8.135 C 5.84 8.209 5.821 8.37 5.795 8.597 C 5.629 10.025 5.158 14.063 3.902 15.43 C 3.816 15.524 3.795 15.661 3.85 15.777 C 3.904 15.892 4.023 15.963 4.151 15.957 C 4.625 15.931 5.038 15.879 5.367 15.824 C 5.371 15.823 5.374 15.828 5.372 15.831 C 5.27 15.988 5.175 16.147 5.115 16.277 C 5.086 16.34 5.055 16.409 5.022 16.484 L 5.022 16.486 C 4.773 17.055 4.398 17.916 3.289 18.682 C 3.192 18.748 3.141 18.864 3.156 18.981 C 3.171 19.097 3.25 19.196 3.361 19.236 C 4.511 19.654 5.451 19.412 6.155 18.515 C 6.214 18.44 6.301 18.366 6.5 18.388 C 7.028 18.445 7.735 19.073 7.969 19.361 C 7.97 19.363 7.97 19.364 7.97 19.366 L 7.957 19.395 C 7.716 19.935 7.014 21.508 6.438 22.287 C 6.393 22.393 6.347 22.502 6.393 22.607 C 6.445 22.728 6.529 22.818 6.651 22.818 C 6.68 22.818 6.71 22.814 6.739 22.806 C 7.658 22.541 9.766 20.777 10.561 20.092 C 10.563 20.09 10.567 20.091 10.568 20.093 L 11.293 21.249 C 11.347 21.336 11.441 21.391 11.543 21.396 C 11.645 21.402 11.744 21.356 11.807 21.275 L 13.171 19.524 C 13.174 19.521 13.178 19.522 13.18 19.525 C 13.206 19.596 13.235 19.671 13.265 19.746 C 13.569 20.506 13.756 20.699 13.909 20.781 C 13.959 20.807 14.013 20.824 14.068 20.822 C 14.229 20.818 14.35 20.703 14.375 20.559 C 14.414 20.321 14.516 20.093 14.624 19.853 L 14.627 19.847 L 14.628 19.846 C 14.805 19.453 15.006 19.007 14.922 18.47 C 14.911 18.4 14.909 18.333 14.911 18.271 C 14.911 18.265 14.919 18.264 14.921 18.269 C 14.953 18.352 14.999 18.433 15.061 18.511 C 15.2 18.709 15.395 18.782 15.538 18.835 C 15.601 18.858 15.673 18.885 15.692 18.909 C 15.697 18.914 15.702 18.92 15.707 18.926 C 15.845 19.142 16.033 20.52 15.937 21.707 C 15.926 21.829 15.989 21.946 16.096 22.007 C 16.203 22.067 16.335 22.06 16.435 21.987 C 17.63 21.12 17.736 18.865 17.8 17.517 L 17.8 17.516 C 17.815 17.187 17.83 16.876 17.858 16.766 C 17.8 11.351 18.555 10.394 18.984 9.859 L 18.989 9.852 C 19.747 8.633 19.582 7.731 19.388 6.667 C 19.377 6.607 19.366 6.546 19.355 6.485 C 19.264 5.979 19.17 5.458 19.171 4.965 C 19.171 4.963 19.173 4.961 19.175 4.96 L 21.794 4.708 C 22.139 4.676 22.392 4.37 22.359 4.025 M 9.612 5.881 L 11.498 5.699 C 11.501 5.699 11.503 5.701 11.503 5.704 L 11.528 7.655 C 11.528 7.658 11.525 7.661 11.522 7.66 C 10.731 7.506 10.119 6.979 9.698 6.089 C 9.666 6.022 9.637 5.954 9.609 5.887 C 9.607 5.884 9.609 5.881 9.612 5.881 M 4.059 18.984 C 4.06 18.981 4.063 18.978 4.066 18.975 L 4.067 18.974 C 4.06 18.984 4.057 18.987 4.059 18.984 M 11.579 20.522 L 11.592 20.528 L 11.587 20.534 L 11.579 20.522 M 7.802 10.404 L 7.946 10.136 L 7.189 10.605 L 8.257 14.131 C 8.672 15.5 10.202 16.376 11.475 16.762 L 12.914 12.542 L 12.869 12.525 C 12.673 12.457 12.517 12.319 12.423 12.132 C 12.329 11.944 12.316 11.733 12.384 11.537 L 12.497 11.21 C 12.578 10.976 12.771 10.79 13.009 10.718 C 13.166 10.67 13.331 10.671 13.486 10.725 L 14.023 10.909 C 14.049 10.848 14.073 10.786 14.096 10.722 L 13.484 8.699 L 10.185 8.747 L 9.23 9.339 L 9.048 9.603 L 11.681 9.866 L 10.416 11.309 L 12.192 12.256 L 10.791 13.953 L 11.023 12.61 L 8.993 11.528 L 9.986 10.591 L 7.802 10.404 M 12.41 18.69 C 12.378 18.716 12.335 18.699 12.324 18.662 L 12.323 18.659 L 12 17.234 C 11.997 17.225 12.001 17.207 12.001 17.207 L 13.733 12.135 L 13.075 11.909 C 13.007 11.886 12.97 11.81 12.994 11.742 L 13.107 11.415 C 13.13 11.347 13.207 11.31 13.274 11.333 L 13.996 11.58 C 14.203 11.652 14.433 11.565 14.524 11.366 C 14.76 10.856 14.921 10.296 15.007 9.724 C 15.022 9.642 15.104 9.59 15.183 9.617 L 15.743 9.808 C 15.825 9.833 15.857 9.928 15.815 10.001 C 15.521 10.498 15.298 11.041 15.181 11.601 C 15.138 11.813 15.266 12.014 15.469 12.084 L 16.205 12.335 C 16.273 12.359 16.31 12.435 16.286 12.503 L 16.173 12.83 C 16.15 12.898 16.074 12.935 16.006 12.911 L 15.284 12.665 L 13.555 17.733 C 13.552 17.744 13.539 17.758 13.539 17.758 L 12.41 18.69" transform="matrix(1 0 0 1 0 0)" fill="#FFFFFF" stroke="none" />
  <path d="M 18.893 3.072 L 17.786 3.179 C 17.822 3.286 18.339 3.125 18.107 4.964 C 17.922 6.436 18.244 7.482 18.429 7.822 C 18.476 8.072 18.407 8.914 17.75 10.286 C 16.929 12 17.286 11.679 16.929 15.214 C 16.643 18.043 15.941 18.845 15.679 18.893 C 15.893 19.214 15.964 21.036 15.929 21.643 C 15.9 22.129 16.274 22.083 16.464 22 C 17.607 21.107 17.929 18.75 17.893 15.214 C 17.864 12.386 18.429 10.75 18.714 10.286 C 19.084 9.845 19.779 8.736 19.607 7.822 C 19.436 6.907 19.25 5.536 19.179 4.964 L 19.25 3.679 C 19.422 3.193 19.072 3 18.893 3.072" transform="matrix(1 0 0 1 0 0)" fill="#D9D9D9" stroke="none" />
  <path d="M 12.786 7.571 C 12.243 7.829 11.702 7.726 11.5 7.643 L 11.5 7.036 C 12.1 7.379 12.607 6.393 12.786 6.25 L 12.786 7.571" transform="matrix(1 0 0 1 0 0)" fill="#D9D9D9" stroke="none" />
  <path d="M 3.272 6.502 L 5.357 6.285 C 5.39 5.796 5.402 5.319 5.42 5 L 3.152 5.236 C 2.799 5.27 2.541 5.58 2.574 5.929 C 2.608 6.279 2.92 6.535 3.272 6.502 L 3.272 6.502" transform="matrix(1 0 0 1 0 0)" fill="#D9D9D9" stroke="none" />
  <path d="M 9.615 5.9 C 9.113 5.58 9.156 4.902 9.251 4.636 L 10.827 4.5 L 11.543 5.707 L 9.615 5.9" transform="matrix(1 0 0 1 0 0)" fill="#D9D9D9" stroke="none" />
  <path d="M 12.091 2.066 C 12.551 2.066 12.924 1.693 12.924 1.232 C 12.924 1.202 12.922 1.172 12.919 1.143 C 13.027 1.283 13.091 1.459 13.091 1.649 C 13.091 2.109 12.718 2.482 12.257 2.482 C 11.827 2.482 11.473 2.157 11.429 1.739 C 11.581 1.938 11.821 2.066 12.091 2.066" transform="matrix(1 0 0 1 0 0)" fill="#D9D9D9" stroke="none" />
</svg>
