<?xml version="1.0" encoding="UTF-8"?>
<!-- Reconstructed from Amplitude.Graphics.Svg.SvgAsset; not original source SVG. UI tint/material colors are not included. -->
<svg xmlns="http://www.w3.org/2000/svg" width="25" height="25" viewBox="0 0 25 25">
  <path d="M 3.276 6.591 L 5.472 6.374 C 5.505 5.885 5.405 5.408 5.424 5.089 L 3.155 5.326 C 2.803 5.359 2.545 5.669 2.578 6.018 C 2.611 6.368 2.923 6.624 3.276 6.592 L 3.276 6.591" transform="matrix(1 0 0 1 0 0)" fill="#D9D9D9" stroke="none" />
  <path d="M 12.068 19.572 C 12.068 19.396 12.265 19.291 12.412 19.389 L 13.117 19.859 C 13.271 19.961 13.363 20.134 13.363 20.318 L 13.363 24.069 C 13.363 24.353 13.133 24.584 12.849 24.584 L 12.583 24.584 C 12.299 24.584 12.068 24.353 12.068 24.069 L 12.068 19.572" transform="matrix(1 0 0 1 0 0)" fill="#FFFFFF" stroke="none" />
  <path d="M 12.072 19.583 C 12.07 19.406 12.268 19.3 12.415 19.398 L 13.117 19.866 C 13.271 19.968 13.363 20.141 13.363 20.325 L 13.363 21.667 L 12.083 21.042 L 12.072 19.583" transform="matrix(1 0 0 1 0 0)" fill="#D9D9D9" stroke="none" />
  <path d="M 11.885 17.861 L 6.936 21.831 L 6.936 21.83 C 6.655 22.079 6.209 21.887 6.201 21.513 L 5.911 8.134 C 5.951 7.964 5.925 7.447 5.894 6.823 C 5.86 6.132 5.819 5.312 5.852 4.685 C 5.861 4.526 5.986 4.396 6.146 4.381 L 8.653 4.132 C 8.739 4.123 8.825 4.15 8.892 4.205 C 8.958 4.26 8.999 4.34 9.006 4.426 C 9.006 4.429 9.015 4.536 9.043 4.71 L 9.049 4.714 L 11.311 4.5 L 11.316 4.495 L 11.298 2.646 C 10.952 2.433 10.721 2.057 10.721 1.623 C 10.721 0.928 11.313 0.372 12.023 0.42 C 12.653 0.463 13.152 0.992 13.154 1.618 C 13.156 2.054 12.925 2.432 12.579 2.646 L 12.595 4.372 L 12.601 4.377 L 13.728 4.266 C 13.731 4.266 13.733 4.269 13.733 4.272 C 13.705 4.597 13.645 5.064 13.516 5.561 L 13.511 5.565 L 12.616 5.65 L 12.611 5.655 L 12.636 7.67 C 12.636 7.674 12.64 7.676 12.643 7.675 C 13.302 7.423 13.796 6.82 14.116 5.872 C 14.46 4.854 14.464 3.826 14.464 3.816 C 14.464 3.652 14.589 3.515 14.754 3.499 L 18.9 3.098 C 19.039 3.084 19.177 3.162 19.233 3.303 C 19.25 3.348 19.255 3.397 19.251 3.445 C 19.25 3.458 19.249 3.472 19.248 3.487 C 19.244 3.555 19.238 3.641 19.231 3.735 C 19.231 3.738 19.234 3.741 19.237 3.741 L 21.724 3.503 C 22.076 3.47 22.388 3.727 22.421 4.076 C 22.454 4.426 22.196 4.736 21.844 4.769 L 19.169 5.024 L 19.164 5.03 C 19.164 5.143 19.163 5.252 19.162 5.361 C 19.16 5.735 19.157 6.102 19.181 6.571 L 19.395 21.588 C 19.4 21.949 18.987 22.161 18.694 21.947 L 12.439 17.834 C 12.271 17.712 12.04 17.723 11.885 17.861 M 11.326 5.774 L 9.4 5.958 C 9.397 5.958 9.395 5.962 9.396 5.965 C 9.425 6.033 9.455 6.101 9.488 6.17 C 9.917 7.072 10.543 7.606 11.351 7.762 C 11.354 7.763 11.357 7.761 11.357 7.757 L 11.332 5.779 L 11.326 5.774 M 12.418 15.575 C 12.406 15.616 12.393 15.658 12.379 15.7 C 11.205 15.381 9.637 14.531 9.268 13.188 L 8.399 10.021 L 11.112 8.435 L 14.053 8.469 L 14.355 9.57 L 14.282 9.627 C 14.191 9.7 14.122 9.793 14.083 9.902 L 12.619 13.842 L 12.52 13.806 C 12.383 13.754 12.236 13.75 12.095 13.789 C 11.881 13.848 11.705 14.009 11.627 14.215 L 11.519 14.504 C 11.385 14.863 11.569 15.262 11.927 15.394 L 12.418 15.575 M 15.676 9.424 C 15.705 9.401 15.741 9.418 15.75 9.45 L 15.751 9.453 L 16 10.704 C 16.003 10.712 15.998 10.728 15.998 10.728 L 14.354 15.119 L 14.926 15.33 C 14.985 15.352 15.015 15.419 14.993 15.478 L 14.886 15.761 C 14.864 15.82 14.796 15.85 14.737 15.828 L 14.11 15.598 C 13.93 15.53 13.726 15.601 13.641 15.773 C 13.421 16.213 13.267 16.699 13.177 17.196 C 13.161 17.268 13.088 17.311 13.019 17.286 L 12.533 17.107 C 12.462 17.083 12.436 17 12.474 16.937 C 12.745 16.509 12.954 16.04 13.07 15.553 C 13.113 15.369 13.006 15.191 12.829 15.126 L 12.189 14.89 C 12.13 14.868 12.1 14.801 12.122 14.742 L 12.229 14.459 C 12.251 14.4 12.319 14.37 12.378 14.392 L 13.005 14.622 L 14.647 10.235 C 14.65 10.225 14.662 10.213 14.662 10.213 L 15.676 9.424" transform="matrix(1 0 0 1 0 0)" fill="#FFFFFF" stroke="none" />
  <path d="M 12.643 7.678 C 12.1 7.936 11.56 7.833 11.357 7.75 L 11.357 7.143 C 11.957 7.486 12.465 6.464 12.643 6.321 L 12.643 7.678" transform="matrix(1 0 0 1 0 0)" fill="#D9D9D9" stroke="none" />
  <path d="M 11.917 2.083 C 12.377 2.083 12.75 1.71 12.75 1.25 C 12.75 1.22 12.749 1.19 12.745 1.16 C 12.853 1.301 12.917 1.476 12.917 1.667 C 12.917 2.127 12.544 2.5 12.084 2.5 C 11.654 2.5 11.3 2.174 11.255 1.756 C 11.407 1.955 11.647 2.083 11.917 2.083" transform="matrix(1 0 0 1 0 0)" fill="#D9D9D9" stroke="none" />
  <path d="M 6.19 20.242 L 6.042 14.583 L 6.795 18.952 C 6.93 19.739 7.831 20.127 8.495 19.684 L 11.821 17.466 C 11.984 17.358 12.191 17.344 12.367 17.428 L 16.453 19.396 C 17.095 19.705 17.801 19.331 17.836 18.62 C 18.025 14.699 17.863 4.647 18.145 3.181 C 18.434 3.138 18.659 3.117 18.852 3.096 C 19.175 3.06 19.251 3.351 19.258 3.355 C 19.258 3.351 19.259 3.35 19.259 3.353 C 19.259 3.355 19.258 3.355 19.258 3.355 C 19.253 3.408 19.212 4.009 19.164 5.024 C 19.23 8.482 19.37 16.376 19.384 20.506 C 19.387 21.375 18.431 21.88 17.705 21.403 L 12.423 17.932 C 12.221 17.799 11.956 17.813 11.769 17.966 L 7.995 21.066 C 7.285 21.65 6.215 21.161 6.19 20.242" transform="matrix(1 0 0 1 0 0)" fill="#D9D9D9" stroke="none" />
  <path d="M 9.404 5.966 C 8.902 5.646 8.945 4.969 9.04 4.702 L 10.616 4.566 L 11.332 5.773 L 9.404 5.966" transform="matrix(1 0 0 1 0 0)" fill="#D9D9D9" stroke="none" />
</svg>
