<?xml version="1.0" encoding="UTF-8"?>
<!-- Reconstructed from Amplitude.Graphics.Svg.SvgAsset; not original source SVG. UI tint/material colors are not included. -->
<svg xmlns="http://www.w3.org/2000/svg" width="26" height="26" viewBox="0 0 26 26">
  <path d="M 25.124 0.709 C 18.788 4.83 14.75 8.01 10.511 12.143 C 7.998 8.677 5.282 5.604 0.875 1.126 C 1.173 1.614 1.459 2.091 1.733 2.555 C 4.425 7.057 6.354 10.285 8.903 13.739 C 6.628 16.049 4.21 18.681 1.292 21.921 C 4.699 19.467 7.533 17.407 10.129 15.358 C 12.309 18.157 14.989 21.23 18.847 25.315 C 15.93 20.432 13.857 16.978 11.821 13.989 C 16.144 10.428 19.991 6.652 25.124 0.685 L 25.124 0.709" transform="matrix(1 0 0 1 0 0)" fill="#EBEBEB" stroke="none" />
</svg>
