<?xml version="1.0" encoding="UTF-8"?>
<!-- Reconstructed from Amplitude.Graphics.Svg.SvgAsset; not original source SVG. UI tint/material colors are not included. -->
<svg xmlns="http://www.w3.org/2000/svg" width="26" height="26" viewBox="0 0 26 26">
  <path d="M 17.486 15.088 C 16.882 14.811 16.385 14.518 16.018 14.258 C 15.833 14.127 15.678 14.001 15.557 13.888 C 15.443 13.781 15.339 13.665 15.281 13.551 C 15.254 13.498 15.213 13.401 15.229 13.286 C 15.251 13.135 15.355 13.035 15.471 12.993 C 15.563 12.96 15.655 12.966 15.718 12.974 C 15.788 12.984 15.863 13.003 15.94 13.029 C 16.239 13.128 16.701 13.363 17.339 13.764 C 17.665 13.919 18.101 14.196 18.558 14.488 L 18.578 14.5 C 19.021 14.783 19.499 15.087 19.965 15.344 C 20.435 15.603 20.871 15.801 21.232 15.885 C 21.602 15.97 21.803 15.917 21.912 15.806 C 22.03 15.687 22.144 15.406 22.1 14.787 C 21.892 14.493 21.492 14.096 20.95 13.643 C 20.377 13.163 19.671 12.64 18.926 12.138 C 17.493 11.172 15.955 10.307 14.976 9.967 C 14.724 10.121 14.395 10.304 14.057 10.47 C 13.727 10.633 13.373 10.787 13.069 10.88 C 12.582 12.229 11.614 12.801 10.891 12.901 L 10.882 12.902 L 10.874 12.903 C 10.361 12.945 9.941 12.923 9.62 12.812 C 9.281 12.696 9.046 12.475 8.949 12.15 C 8.861 11.851 8.902 11.507 8.999 11.153 C 9.094 10.802 9.254 10.401 9.453 9.96 C 9.498 9.697 9.509 9.519 9.518 9.354 L 9.518 9.35 C 9.53 9.155 9.541 8.966 9.61 8.704 C 9.679 8.446 9.801 8.125 10.024 7.649 L 10.027 7.643 L 10.03 7.638 C 10.395 6.934 11.011 6.399 11.659 5.981 C 11.866 5.847 12.079 5.724 12.291 5.609 C 11.459 5.75 10.57 6.033 9.631 6.334 L 9.618 6.338 C 8.596 6.666 7.525 7.009 6.467 7.161 C 5.45 7.308 4.423 7.282 3.437 6.888 L 3.429 6.901 C 3.321 7.06 3.175 7.326 3.003 7.675 C 2.661 8.369 2.238 9.346 1.851 10.334 C 1.463 11.324 1.115 12.314 0.919 13.035 C 0.824 13.385 0.77 13.651 0.759 13.819 C 1.302 13.954 1.761 14.203 2.294 14.541 C 2.726 13.837 3.447 13.282 4.177 13.123 C 4.602 13.029 5.05 13.067 5.437 13.314 C 5.673 13.464 5.871 13.682 6.024 13.964 C 6.512 13.361 7.252 13.062 7.93 13.104 C 8.369 13.131 8.796 13.303 9.106 13.644 C 9.35 13.912 9.506 14.267 9.551 14.696 C 9.997 14.655 10.459 14.758 10.838 15.046 C 11.076 15.157 11.217 15.359 11.305 15.544 C 11.396 15.734 11.448 15.946 11.488 16.103 L 11.491 16.114 C 11.506 16.178 11.52 16.232 11.533 16.278 C 12.303 16.167 13.085 16.581 13.427 17.279 L 16.934 19.074 C 17.209 19.164 17.596 19.036 17.828 18.787 C 17.941 18.667 17.98 18.555 17.977 18.475 C 17.975 18.409 17.942 18.303 17.761 18.185 L 17.685 18.135 L 17.676 18.114 L 17.656 18.101 C 17.636 18.088 17.613 18.074 17.585 18.058 C 17.538 18.03 17.481 17.997 17.413 17.96 C 17.201 17.842 16.909 17.689 16.577 17.514 L 16.572 17.512 C 15.926 17.172 15.133 16.756 14.532 16.392 C 14.234 16.212 13.968 16.035 13.789 15.881 C 13.704 15.808 13.613 15.718 13.557 15.619 C 13.528 15.567 13.495 15.491 13.495 15.397 C 13.496 15.304 13.529 15.217 13.587 15.149 C 13.71 14.987 13.904 14.983 13.993 14.989 C 14.107 14.996 14.232 15.031 14.352 15.073 C 14.598 15.159 14.908 15.309 15.24 15.485 C 15.906 15.839 16.713 16.331 17.378 16.735 L 17.378 16.736 L 17.379 16.736 L 17.384 16.739 C 17.733 16.952 18.042 17.14 18.274 17.274 C 18.391 17.342 18.484 17.393 18.551 17.427 C 18.573 17.438 18.59 17.446 18.603 17.452 L 18.629 17.451 L 18.693 17.481 C 19.039 17.641 19.468 17.533 19.761 17.271 C 19.904 17.143 19.993 16.997 20.022 16.864 C 20.046 16.754 20.034 16.641 19.964 16.528 L 17.486 15.088 M 13.582 18.515 C 13.599 18.524 13.618 18.534 13.638 18.546 C 13.688 18.575 13.75 18.612 13.83 18.661 C 13.915 18.712 14.014 18.772 14.129 18.839 C 14.474 19.041 14.967 19.313 15.688 19.643 C 15.692 19.651 15.696 19.659 15.7 19.667 C 15.757 19.786 15.775 19.866 15.777 19.914 C 15.779 19.955 15.77 19.963 15.764 19.968 L 15.763 19.969 C 15.742 19.986 15.686 20.017 15.563 20.035 C 15.445 20.053 15.291 20.054 15.107 20.038 C 14.486 19.984 13.655 19.747 12.998 19.504 C 13.265 19.12 13.415 18.833 13.516 18.639 L 13.519 18.634 L 13.526 18.621 C 13.547 18.58 13.565 18.547 13.581 18.517 L 13.582 18.515 M 13.375 9.609 C 13.406 9.398 13.431 9.184 13.444 8.968 L 13.449 8.888 L 13.415 8.815 C 13.378 8.738 13.335 8.663 13.282 8.6 C 13.231 8.541 13.145 8.463 13.018 8.44 C 12.877 8.415 12.763 8.472 12.69 8.532 C 12.623 8.588 12.577 8.657 12.545 8.714 C 12.48 8.83 12.426 8.983 12.377 9.138 C 12.327 9.297 12.276 9.482 12.224 9.674 L 12.223 9.678 C 12.086 10.177 11.935 10.727 11.727 11.15 C 11.507 11.599 11.3 11.753 11.114 11.748 L 11.067 11.746 L 11.022 11.759 C 10.567 11.886 10.298 11.899 10.152 11.868 C 10.086 11.853 10.059 11.833 10.048 11.822 C 10.038 11.812 10.025 11.793 10.016 11.749 C 9.995 11.646 10.015 11.467 10.1 11.2 C 10.182 10.943 10.311 10.645 10.464 10.32 L 10.492 10.261 L 10.493 10.195 C 10.532 8.232 11.719 6.916 13.321 6.217 C 14.935 5.513 16.936 5.456 18.495 6.014 L 18.517 6.021 L 18.539 6.026 C 20.653 6.442 21.9 6.438 22.661 6.435 C 22.927 6.434 23.11 6.434 23.251 6.448 C 23.389 6.463 23.448 6.488 23.48 6.511 C 23.518 6.539 23.574 6.604 23.642 6.823 C 23.71 7.042 23.772 7.354 23.865 7.822 C 24.071 8.855 24.406 10.536 25.241 13.266 C 25.062 13.52 24.692 13.745 24.21 13.883 C 23.716 14.024 23.187 14.051 22.803 13.967 C 22.042 13.103 20.507 11.893 18.968 10.878 C 18.171 10.353 17.364 9.874 16.647 9.517 C 15.944 9.166 15.29 8.912 14.814 8.876 L 14.701 8.867 L 14.609 8.934 C 14.34 9.128 13.843 9.391 13.375 9.609 M 7.131 14.402 L 7.13 14.404 L 4.804 17.396 L 4.802 17.397 L 4.801 17.399 C 4.64 17.6 4.61 17.795 4.644 17.964 C 4.68 18.142 4.794 18.315 4.958 18.442 C 5.122 18.57 5.318 18.636 5.499 18.627 C 5.671 18.619 5.852 18.541 6.008 18.335 L 6.009 18.334 L 6.01 18.332 L 8.335 15.34 L 8.336 15.338 L 8.337 15.337 C 8.498 15.136 8.528 14.941 8.494 14.772 C 8.458 14.594 8.345 14.421 8.182 14.293 C 8.018 14.165 7.823 14.098 7.642 14.108 C 7.47 14.116 7.289 14.194 7.132 14.4 L 7.131 14.402 M 5.195 14.822 C 5.212 14.921 5.167 15.098 4.998 15.368 C 4.832 15.634 4.598 15.913 4.374 16.177 L 4.359 16.196 C 4.215 16.366 4.067 16.541 3.965 16.692 C 3.504 16.925 3.191 17.002 2.994 16.999 C 2.895 16.997 2.836 16.976 2.801 16.955 C 2.767 16.934 2.739 16.905 2.717 16.857 C 2.666 16.749 2.648 16.558 2.702 16.285 C 2.754 16.02 2.865 15.718 3.022 15.419 C 3.343 14.805 3.806 14.292 4.217 14.128 C 4.407 14.052 4.564 14.058 4.704 14.137 C 4.853 14.221 5.032 14.415 5.195 14.822 M 9.159 16.025 C 9.098 16.132 9.004 16.257 8.903 16.385 C 8.791 16.525 8.656 16.687 8.513 16.856 L 8.512 16.857 L 8.51 16.859 C 8.191 17.239 7.834 17.664 7.573 18.051 C 7.442 18.244 7.344 18.417 7.287 18.559 C 7.232 18.697 7.231 18.767 7.235 18.791 C 7.428 19.289 7.623 19.461 7.759 19.512 C 7.886 19.559 8.061 19.535 8.316 19.365 C 8.567 19.198 8.836 18.925 9.109 18.599 C 9.379 18.276 9.639 17.918 9.875 17.593 L 9.882 17.582 L 9.883 17.582 C 10.072 17.321 10.252 17.073 10.404 16.895 C 10.529 16.698 10.542 16.515 10.499 16.357 C 10.452 16.187 10.332 16.027 10.167 15.911 C 10.001 15.796 9.808 15.739 9.631 15.754 C 9.467 15.767 9.3 15.843 9.159 16.025 M 11.443 17.506 C 10.953 17.848 10.459 18.529 10.089 19.043 L 10.088 19.044 C 10.028 19.129 9.97 19.208 9.918 19.279 C 9.706 19.651 9.858 20.026 10.187 20.243 C 10.516 20.461 10.923 20.454 11.183 20.115 C 11.296 19.927 11.485 19.706 11.666 19.493 L 11.667 19.493 L 11.668 19.492 L 11.684 19.472 C 11.944 19.169 12.211 18.855 12.385 18.551 C 12.564 18.238 12.59 18.028 12.523 17.886 C 12.327 17.474 12.138 17.352 12.008 17.323 C 11.871 17.292 11.687 17.337 11.443 17.506" transform="matrix(1 0 0 1 0 0)" fill="#EBEBEB" stroke="none" />
</svg>
