<?xml version="1.0" encoding="UTF-8"?>
<!-- Reconstructed from Amplitude.Graphics.Svg.SvgAsset; not original source SVG. UI tint/material colors are not included. -->
<svg xmlns="http://www.w3.org/2000/svg" width="25" height="25" viewBox="0 0 25 25">
  <path d="M 14.25 2.248 C 14.296 1.94 12.421 1.057 11.867 0.961 C 11.217 0.84 8.983 0.69 9.104 1.115 C 9.167 1.336 9.187 1.853 9.196 2.348 C 8.871 2.369 8.621 2.398 8.425 2.444 C 8.225 2.49 8.058 2.561 7.937 2.669 C 7.808 2.79 7.758 2.936 7.75 3.078 C 7.742 3.19 7.762 3.315 7.779 3.415 L 7.779 3.444 L 7.783 3.444 C 7.783 3.453 7.783 3.461 7.783 3.465 C 7.783 3.465 7.758 3.482 7.733 3.498 C 7.671 3.54 7.579 3.603 7.504 3.715 C 7.429 3.828 7.383 3.973 7.367 4.157 C 7.35 4.353 7.383 4.519 7.458 4.657 C 7.533 4.794 7.637 4.886 7.737 4.948 C 7.837 5.007 7.937 5.04 8.008 5.057 C 8.046 5.065 8.075 5.069 8.1 5.073 L 8.108 5.073 C 8.129 5.082 8.162 5.094 8.2 5.111 C 8.275 5.144 8.371 5.194 8.458 5.257 C 8.546 5.319 8.612 5.386 8.646 5.453 C 8.675 5.507 8.683 5.561 8.658 5.632 C 8.608 5.765 8.575 5.819 8.546 5.844 C 8.525 5.865 8.487 5.886 8.392 5.907 C 8.35 5.915 8.3 5.919 8.242 5.928 C 3.917 6.007 0.417 9.278 0.417 13.353 C 0.417 17.428 3.996 20.773 8.375 20.773 C 12.754 20.773 16.333 17.473 16.333 13.353 C 16.333 10.982 15.137 8.869 13.292 7.515 C 13.192 7.428 13.15 7.344 13.129 7.273 C 13.104 7.186 13.112 7.094 13.142 7.003 C 13.171 6.915 13.212 6.836 13.254 6.778 C 13.512 6.815 13.729 6.836 13.917 6.832 C 14.325 6.832 14.633 6.736 14.808 6.511 C 14.979 6.286 14.954 6.015 14.912 5.832 C 14.892 5.736 14.862 5.64 14.837 5.561 L 14.829 5.54 C 14.804 5.469 14.787 5.419 14.779 5.378 L 14.779 5.373 C 14.779 5.369 14.787 5.361 14.804 5.344 C 14.821 5.328 14.837 5.315 14.858 5.294 C 14.858 5.294 14.887 5.269 14.904 5.253 C 14.946 5.215 15 5.161 15.042 5.094 C 15.087 5.023 15.125 4.936 15.129 4.828 C 15.133 4.723 15.112 4.619 15.067 4.515 C 14.979 4.315 14.796 4.082 14.492 3.79 C 14.408 3.703 14.296 3.632 14.204 3.573 C 14.162 3.548 14.129 3.528 14.096 3.507 C 14.042 3.473 13.996 3.448 13.954 3.419 C 13.904 3.386 13.846 3.369 13.792 3.378 C 14.021 2.828 14.254 2.248 14.254 2.248 L 14.25 2.248 M 8.537 2.936 C 8.687 2.903 8.9 2.873 9.196 2.853 C 9.196 3.207 9.187 3.465 9.187 3.465 C 9.187 3.465 9.496 3.79 9.629 3.865 C 10.279 4.24 11.583 4.486 12.583 4.523 C 13.171 4.54 13.342 4.361 13.342 4.361 C 13.367 4.344 13.479 4.103 13.612 3.786 C 13.629 3.803 13.646 3.819 13.667 3.836 C 13.721 3.873 13.792 3.915 13.854 3.953 C 13.883 3.969 13.912 3.986 13.937 4.003 C 14.029 4.057 14.092 4.103 14.129 4.144 L 14.129 4.148 C 14.421 4.432 14.546 4.607 14.596 4.719 C 14.617 4.769 14.617 4.794 14.617 4.803 C 14.617 4.807 14.617 4.811 14.608 4.823 C 14.6 4.836 14.583 4.857 14.55 4.886 C 14.542 4.89 14.533 4.898 14.525 4.907 C 14.496 4.932 14.458 4.965 14.429 4.994 C 14.383 5.04 14.329 5.107 14.296 5.19 C 14.258 5.282 14.25 5.382 14.275 5.49 C 14.292 5.557 14.312 5.632 14.333 5.694 L 14.342 5.719 C 14.367 5.798 14.392 5.869 14.404 5.94 C 14.437 6.094 14.421 6.169 14.392 6.203 C 14.362 6.24 14.262 6.323 13.9 6.323 C 13.546 6.323 13.008 6.244 12.2 6.032 C 12.067 5.994 11.925 6.078 11.892 6.211 C 11.854 6.344 11.937 6.486 12.071 6.519 C 12.304 6.582 12.521 6.632 12.717 6.673 C 12.692 6.723 12.667 6.782 12.65 6.844 C 12.6 7.003 12.575 7.203 12.633 7.411 C 12.692 7.623 12.833 7.819 13.062 7.99 L 13.062 7.982 C 14.746 9.253 15.821 11.19 15.821 13.353 C 15.821 17.161 12.504 20.269 8.367 20.269 C 4.229 20.269 0.921 17.161 0.921 13.353 C 0.921 9.928 3.604 7.069 7.154 6.528 C 7.483 6.49 7.742 6.473 7.95 6.461 L 7.975 6.461 C 8.075 6.453 8.171 6.448 8.258 6.44 C 8.296 6.44 8.337 6.44 8.375 6.44 L 8.375 6.428 C 8.408 6.423 8.442 6.419 8.475 6.411 C 8.625 6.382 8.767 6.332 8.883 6.219 C 8.996 6.111 9.067 5.969 9.121 5.815 C 9.2 5.598 9.171 5.394 9.083 5.228 C 9 5.069 8.867 4.948 8.746 4.861 C 8.625 4.773 8.496 4.707 8.4 4.665 C 8.354 4.644 8.312 4.628 8.283 4.615 C 8.267 4.611 8.258 4.607 8.25 4.603 L 8.242 4.603 L 8.242 4.598 L 8.208 4.586 L 8.175 4.586 L 8.171 4.586 C 8.171 4.586 8.146 4.586 8.129 4.578 C 8.092 4.569 8.046 4.553 8.004 4.528 C 7.962 4.503 7.933 4.473 7.908 4.432 C 7.887 4.39 7.867 4.323 7.875 4.211 C 7.887 4.086 7.912 4.032 7.929 4.003 C 7.946 3.978 7.967 3.961 8.008 3.932 C 8.008 3.932 8.017 3.928 8.021 3.923 C 8.058 3.898 8.15 3.844 8.208 3.765 C 8.292 3.648 8.308 3.515 8.283 3.373 C 8.262 3.244 8.254 3.173 8.258 3.115 C 8.258 3.073 8.271 3.061 8.283 3.048 C 8.308 3.023 8.375 2.982 8.542 2.944 L 8.537 2.936 M 14.354 13.611 L 14.354 13.186 L 14.346 13.203 C 14.346 12.99 14.346 12.803 14.329 12.615 C 14.337 12.494 14.417 10.919 12.375 11.148 C 12.375 11.148 9.508 11.898 7.742 12.811 C 8.817 13.44 10.071 13.807 11.425 13.807 C 12.012 13.807 12.579 13.74 13.121 13.611 C 13.3 13.573 13.483 13.515 13.658 13.461 L 13.729 13.44 C 13.729 13.44 13.729 13.457 13.729 13.465 C 13.729 13.536 13.729 13.623 13.667 13.732 L 13.65 13.765 C 13.554 13.919 13.325 14.107 12.825 14.353 C 12.342 14.59 12.146 14.686 11.987 14.744 C 11.979 14.753 11.962 14.753 11.954 14.753 C 11.346 14.998 10.767 15.119 10.229 15.144 L 9.904 15.144 C 9.462 15.128 9.05 15.061 8.683 14.957 L 8.675 14.957 C 8.2 14.819 7.796 14.632 7.454 14.436 C 6.883 14.111 6.487 13.59 6.233 13.003 C 6.092 12.694 5.829 12.365 5.258 12.194 C 5.242 12.19 5.221 12.182 5.2 12.178 C 5.179 12.169 5.158 12.165 5.142 12.161 C 3.858 11.828 3.354 13.669 3.354 13.669 C 3.196 13.898 2.825 13.686 2.571 13.369 C 2.483 13.257 2.437 13.182 2.429 13.132 C 2.412 13.148 2.412 13.165 2.412 13.165 C 2.396 13.278 2.396 13.386 2.396 13.498 C 2.396 16.294 5.096 18.665 8.396 18.665 C 11.696 18.665 14.358 16.407 14.358 13.611 L 14.354 13.611 M 19 4.332 C 19.017 4.44 19.008 4.557 18.933 4.661 C 18.883 4.732 18.804 4.778 18.779 4.794 L 18.717 4.932 C 18.712 4.998 18.725 5.028 18.729 5.04 C 18.737 5.053 18.75 5.065 18.767 5.078 C 18.787 5.09 18.808 5.098 18.829 5.103 L 18.954 5.132 C 18.975 5.14 19.004 5.153 19.042 5.169 C 19.108 5.198 19.204 5.248 19.292 5.315 C 19.379 5.378 19.483 5.473 19.546 5.598 C 19.617 5.732 19.642 5.894 19.579 6.069 C 19.537 6.182 19.487 6.294 19.396 6.382 C 19.3 6.473 19.183 6.515 19.075 6.536 C 19.05 6.54 19.021 6.544 18.992 6.548 L 18.917 6.557 L 18.704 6.573 C 18.558 6.582 18.379 6.594 18.154 6.619 C 17.212 6.765 16.362 7.144 15.671 7.694 C 15.558 7.569 15.442 7.444 15.325 7.328 C 16.283 6.553 17.529 6.073 18.887 6.053 C 18.925 6.053 18.954 6.044 18.979 6.04 C 19.037 6.028 19.046 6.019 19.046 6.015 C 19.054 6.011 19.071 5.986 19.104 5.898 C 19.112 5.869 19.112 5.857 19.104 5.836 C 19.087 5.807 19.054 5.769 19 5.728 C 18.946 5.69 18.883 5.657 18.833 5.632 L 18.717 5.598 C 18.662 5.586 18.583 5.561 18.508 5.515 C 18.429 5.465 18.346 5.394 18.287 5.282 C 18.229 5.169 18.204 5.04 18.217 4.89 C 18.229 4.753 18.262 4.64 18.325 4.548 C 18.383 4.457 18.454 4.407 18.5 4.378 C 18.492 4.311 18.479 4.223 18.483 4.14 C 18.492 4.028 18.529 3.907 18.637 3.803 C 18.733 3.711 18.867 3.661 19.012 3.628 C 19.154 3.594 19.337 3.573 19.562 3.557 C 19.554 3.24 19.537 2.919 19.5 2.778 C 19.417 2.482 20.967 2.59 21.417 2.669 C 21.8 2.736 23.1 3.348 23.071 3.561 C 23.071 3.561 22.929 3.911 22.783 4.265 C 22.825 4.265 22.871 4.282 22.908 4.307 L 23.079 4.411 C 23.142 4.448 23.225 4.503 23.292 4.573 C 23.5 4.778 23.637 4.948 23.704 5.098 C 23.737 5.178 23.758 5.265 23.754 5.353 C 23.75 5.44 23.721 5.515 23.679 5.573 C 23.642 5.628 23.6 5.669 23.571 5.698 C 23.554 5.711 23.546 5.723 23.533 5.732 L 23.525 5.74 L 23.517 5.748 C 23.521 5.769 23.529 5.79 23.542 5.823 L 23.542 5.836 C 23.562 5.89 23.583 5.957 23.6 6.032 C 23.629 6.165 23.654 6.382 23.512 6.565 C 23.371 6.753 23.125 6.815 22.833 6.819 C 22.712 6.819 22.575 6.811 22.412 6.786 C 22.396 6.815 22.379 6.848 22.367 6.882 C 22.35 6.936 22.346 6.982 22.358 7.028 C 22.367 7.061 22.387 7.103 22.442 7.157 C 23.737 8.107 24.583 9.594 24.583 11.269 C 24.583 14.178 22.062 16.494 18.983 16.494 C 18.437 16.494 17.912 16.423 17.412 16.286 C 17.467 16.128 17.517 15.965 17.558 15.803 C 18.008 15.923 18.487 15.99 18.979 15.99 C 21.812 15.99 24.071 13.861 24.071 11.269 C 24.071 9.798 23.342 8.473 22.192 7.607 L 22.1 7.532 C 21.929 7.407 21.908 7.332 21.862 7.169 C 21.817 7.007 21.837 6.853 21.875 6.732 C 21.879 6.719 21.883 6.707 21.887 6.694 C 21.775 6.669 21.654 6.64 21.529 6.607 C 21.396 6.569 21.312 6.432 21.35 6.298 C 21.387 6.165 21.525 6.082 21.658 6.119 C 22.217 6.269 22.583 6.319 22.817 6.319 C 22.933 6.319 23.004 6.307 23.05 6.29 C 23.071 6.282 23.083 6.278 23.092 6.273 C 23.096 6.273 23.1 6.265 23.1 6.265 C 23.1 6.265 23.1 6.257 23.1 6.248 C 23.1 6.228 23.1 6.194 23.087 6.148 C 23.079 6.103 23.062 6.057 23.046 6.003 L 23.046 5.986 C 23.025 5.94 23.008 5.886 22.996 5.836 C 22.975 5.748 22.983 5.661 23.012 5.582 C 23.042 5.507 23.087 5.453 23.121 5.419 C 23.142 5.394 23.175 5.369 23.192 5.353 C 23.192 5.353 23.2 5.344 23.204 5.34 C 23.212 5.332 23.217 5.328 23.221 5.323 L 23.221 5.315 C 23.196 5.253 23.117 5.14 22.917 4.944 L 22.917 4.94 C 22.896 4.919 22.862 4.894 22.8 4.857 C 22.783 4.848 22.767 4.836 22.746 4.823 C 22.7 4.798 22.65 4.765 22.608 4.736 C 22.6 4.728 22.592 4.723 22.583 4.715 C 22.504 4.894 22.446 5.023 22.429 5.036 C 22.429 5.036 22.312 5.161 21.904 5.148 C 21.208 5.123 20.304 4.953 19.854 4.694 C 19.762 4.64 19.55 4.415 19.55 4.415 C 19.55 4.415 19.55 4.269 19.554 4.065 C 19.354 4.078 19.212 4.098 19.117 4.119 C 19.029 4.14 18.992 4.161 18.979 4.169 C 18.979 4.198 18.979 4.24 18.996 4.336 M 17.779 14.794 C 17.842 14.369 17.875 13.936 17.875 13.498 C 17.875 12.69 17.767 11.903 17.558 11.161 C 17.733 11.515 17.992 11.823 18.346 12.023 C 18.583 12.161 18.862 12.29 19.196 12.386 L 19.2 12.386 C 19.458 12.457 19.742 12.503 20.05 12.515 L 20.275 12.515 C 20.646 12.498 21.05 12.415 21.471 12.244 C 21.475 12.244 21.487 12.244 21.496 12.24 C 21.604 12.198 21.742 12.132 22.075 11.969 C 22.421 11.798 22.583 11.669 22.65 11.561 L 22.662 11.536 C 22.708 11.461 22.704 11.403 22.704 11.353 L 22.704 11.336 L 22.654 11.353 C 22.533 11.39 22.404 11.432 22.279 11.457 C 21.9 11.544 21.508 11.594 21.1 11.594 C 20.158 11.594 19.287 11.34 18.542 10.903 C 19.767 10.269 21.758 9.748 21.758 9.748 C 23.175 9.59 23.121 10.682 23.112 10.765 C 23.125 10.894 23.125 11.023 23.125 11.173 L 23.125 11.161 L 23.129 11.457 C 23.129 13.398 21.279 14.965 18.992 14.965 C 18.567 14.965 18.158 14.907 17.771 14.803 L 17.779 14.794 M 14.804 19.965 L 17.092 21.761 C 17.229 21.865 17.442 21.761 17.442 21.59 L 17.442 20.398 L 21.229 19.798 L 17.442 19.165 L 17.442 18.015 C 17.442 17.823 17.229 17.732 17.092 17.844 L 14.804 19.628 C 14.687 19.711 14.687 19.882 14.804 19.965 M 24.446 22.844 L 21.867 24.648 C 21.712 24.753 21.475 24.657 21.475 24.482 L 21.475 23.269 L 17.217 22.686 L 21.475 22.023 L 21.475 20.898 C 21.475 20.715 21.708 20.611 21.867 20.732 L 24.446 22.519 C 24.571 22.607 24.571 22.765 24.446 22.861 L 24.446 22.844" transform="matrix(1 0 0 1 0 0)" fill="#FFFFFF" stroke="none" />
</svg>
