<?xml version="1.0" encoding="UTF-8"?>
<!-- Reconstructed from Amplitude.Graphics.Svg.SvgAsset; not original source SVG. UI tint/material colors are not included. -->
<svg xmlns="http://www.w3.org/2000/svg" width="60" height="60" viewBox="0 0 60 60">
  <path d="M 20.248 20.855 C 22.153 21.72 25.462 25.068 21.664 30.171 C 21.058 30.99 20.613 31.935 20.664 32.916 C 20.985 38.144 23.903 45.788 36.336 44.785 C 40.91 43.052 50.195 40.416 50.845 43.628 C 48.613 44.543 44.306 46.566 41.507 48.523 C 40.262 49.406 38.744 49.983 37.209 49.865 C 35.133 49.702 32.671 49.599 30.709 49.701 C 28.662 49.805 26.049 49.85 24.014 49.76 C 18.256 49.524 7.848 51.297 6.682 52.71 L 10.8 48 L 3.337 40.227 C 7.501 38.624 14.908 34.585 16.329 29.695 L 16.355 29.71 C 16.852 28.01 17.575 26.207 18.762 24.788 C 19.676 23.696 20.387 22.32 20.248 20.855 M 38.013 39.042 C 42.185 35.574 44.495 37.158 45.141 38.382 C 39.247 43.645 33.754 43.528 31.723 42.823 C 35.912 42.187 36.759 40.84 37.382 39.848 L 37.402 39.842 C 37.596 39.536 37.773 39.254 38.013 39.042 M 32.452 37.803 C 33.614 34.634 36.98 34.557 38.52 34.928 C 35.886 39.084 31.151 44.566 27.249 41.695 C 27.039 41.541 26.868 41.374 26.747 41.237 C 29.975 42.382 31.895 39.433 32.439 37.827 L 32.452 37.803 M 46.623 5.49 C 49.583 4.082 53.109 4.708 55.404 7.048 C 58.333 10.034 58.333 14.816 55.404 17.802 L 42.46 31 L 29.516 17.802 C 26.587 14.816 26.587 10.034 29.516 7.048 C 31.811 4.708 35.338 4.082 38.298 5.49 L 42.46 7.471 L 46.623 5.49" transform="matrix(1 0 0 1 0 0)" fill="#EBEBEB" stroke="none" />
</svg>
