<?xml version="1.0" encoding="UTF-8"?>
<!-- Reconstructed from Amplitude.Graphics.Svg.SvgAsset; not original source SVG. UI tint/material colors are not included. -->
<svg xmlns="http://www.w3.org/2000/svg" width="25" height="25" viewBox="0 0 25 25">
  <path d="M 15.574 2.761 L 13.43 2.761 C 13.079 2.761 12.8 2.912 12.696 3.024 C 12.138 3.535 11.556 4.045 11.03 4.532 C 10.926 4.651 10.807 4.691 10.647 4.691 C 8.933 4.691 7.745 4.683 6.118 4.691 C 5.959 4.691 5.839 4.651 5.736 4.532 C 5.209 4.045 4.627 3.535 4.069 3.024 C 3.966 2.912 3.687 2.761 3.336 2.761 L 1.191 2.761 C 0.545 2.761 0.402 3.128 0.418 3.678 C 0.418 3.702 0.418 3.734 0.426 3.766 C 0.426 3.822 0.426 3.878 0.442 3.941 C 0.513 4.468 0.585 4.994 0.657 5.521 C 0.689 5.776 0.729 6.031 0.761 6.287 C 0.832 6.797 0.904 7.316 0.976 7.826 C 0.976 7.866 0.976 7.906 1 7.946 C 1.024 8.121 1.048 8.305 1.087 8.48 C 1.087 8.552 1.103 8.632 1.127 8.704 C 1.159 8.855 1.191 8.999 1.231 9.134 C 1.255 9.23 1.279 9.318 1.311 9.414 C 1.351 9.549 1.398 9.677 1.446 9.804 C 1.47 9.884 1.502 9.956 1.542 10.028 C 1.598 10.171 1.661 10.307 1.725 10.435 C 1.757 10.499 1.789 10.554 1.829 10.618 C 1.877 10.73 1.941 10.842 2.012 10.945 C 2.1 11.081 2.188 11.208 2.283 11.336 C 2.307 11.376 2.339 11.416 2.371 11.456 C 2.491 11.615 2.626 11.775 2.778 11.926 C 2.778 11.934 2.786 11.942 2.802 11.958 C 3.113 12.285 3.463 12.588 3.854 12.86 C 3.958 12.931 4.061 13.003 4.165 13.059 C 4.213 13.099 4.269 13.131 4.324 13.163 C 4.34 13.179 4.364 13.187 4.38 13.211 C 4.42 13.235 4.452 13.259 4.484 13.282 C 4.548 13.354 4.604 13.426 4.651 13.514 C 5.066 14.28 5.568 14.966 6.174 15.572 C 6.374 15.779 6.589 15.971 6.812 16.154 C 6.844 16.186 6.876 16.21 6.908 16.242 C 6.908 16.266 6.924 16.282 6.932 16.306 C 6.956 16.394 6.987 16.513 7.003 16.665 C 7.019 16.721 7.035 16.784 7.035 16.856 C 7.067 17.04 7.091 17.247 7.107 17.446 C 7.139 17.782 7.139 18.093 7.099 18.252 C 7.091 18.276 7.083 18.3 7.067 18.324 C 7.051 18.356 7.035 18.396 7.011 18.428 C 6.987 18.46 6.964 18.483 6.94 18.491 C 6.932 18.499 6.932 18.507 6.924 18.507 C 6.9 18.515 6.876 18.531 6.852 18.539 C 6.756 18.587 6.661 18.635 6.573 18.683 C 6.469 18.747 6.366 18.819 6.27 18.882 C 6.166 18.954 6.071 19.034 5.983 19.114 C 5.911 19.178 5.839 19.241 5.776 19.313 C 5.504 19.584 5.289 19.903 5.114 20.278 C 5.098 20.326 5.082 20.382 5.058 20.43 C 5.034 20.51 5.01 20.581 4.97 20.637 C 4.97 20.645 4.97 20.653 4.97 20.661 C 4.962 20.677 4.954 20.693 4.93 20.709 C 4.93 20.725 4.906 20.741 4.891 20.741 C 4.867 20.757 4.843 20.765 4.819 20.765 C 4.803 20.765 4.787 20.765 4.771 20.765 L 4.739 20.765 C 4.604 20.797 4.436 20.765 4.285 20.765 L 4.253 20.765 C 4.157 20.765 4.061 20.765 3.966 20.765 C 3.711 20.765 3.615 20.837 3.551 21.068 C 3.455 21.451 3.36 21.826 3.272 22.209 C 3.264 22.225 3.264 22.241 3.264 22.249 C 3.224 22.472 3.288 22.608 3.455 22.663 C 3.487 22.679 3.527 22.679 3.567 22.679 C 3.591 22.687 3.615 22.687 3.647 22.687 C 6.82 22.695 9.985 22.695 13.167 22.687 C 13.183 22.687 13.198 22.687 13.214 22.679 C 13.254 22.679 13.294 22.679 13.326 22.663 C 13.493 22.608 13.557 22.472 13.517 22.249 C 13.517 22.241 13.517 22.225 13.509 22.209 C 13.422 21.826 13.326 21.451 13.23 21.068 C 13.167 20.837 13.071 20.765 12.816 20.765 C 12.72 20.765 12.624 20.765 12.529 20.765 L 12.497 20.765 C 12.345 20.765 12.178 20.805 12.042 20.765 L 12.01 20.765 C 12.01 20.765 11.979 20.765 11.963 20.765 C 11.939 20.765 11.915 20.757 11.891 20.741 C 11.875 20.741 11.851 20.725 11.851 20.709 C 11.827 20.693 11.819 20.677 11.811 20.661 C 11.803 20.653 11.803 20.645 11.803 20.637 C 11.763 20.581 11.739 20.51 11.715 20.43 C 11.692 20.382 11.676 20.326 11.66 20.278 C 11.652 20.254 11.636 20.23 11.628 20.207 C 11.46 19.872 11.253 19.568 10.998 19.313 C 10.934 19.241 10.862 19.178 10.791 19.114 C 10.703 19.034 10.607 18.954 10.504 18.882 C 10.408 18.819 10.304 18.747 10.201 18.683 C 10.105 18.627 10.017 18.579 9.922 18.539 C 9.898 18.531 9.874 18.515 9.85 18.507 C 9.842 18.507 9.842 18.499 9.834 18.491 C 9.81 18.483 9.786 18.46 9.762 18.428 C 9.738 18.396 9.722 18.364 9.706 18.324 C 9.69 18.3 9.682 18.276 9.674 18.252 C 9.634 18.093 9.634 17.782 9.666 17.446 C 9.682 17.247 9.714 17.04 9.738 16.856 C 9.738 16.784 9.754 16.721 9.77 16.665 C 9.786 16.513 9.818 16.394 9.842 16.306 C 9.85 16.282 9.858 16.266 9.866 16.242 C 9.898 16.21 9.929 16.186 9.961 16.154 C 10.185 15.971 10.4 15.779 10.599 15.572 C 11.237 14.926 11.763 14.208 12.194 13.394 C 12.218 13.354 12.25 13.322 12.29 13.282 C 12.321 13.259 12.353 13.235 12.393 13.211 C 12.409 13.187 12.433 13.179 12.449 13.163 C 12.505 13.131 12.561 13.099 12.608 13.059 C 12.712 13.003 12.816 12.931 12.919 12.86 C 13.31 12.588 13.661 12.285 13.972 11.958 C 13.988 11.95 14.004 11.934 13.996 11.926 C 14.147 11.775 14.283 11.615 14.402 11.456 C 14.442 11.416 14.466 11.376 14.49 11.336 C 14.586 11.208 14.673 11.081 14.761 10.945 C 14.833 10.842 14.897 10.73 14.953 10.618 C 14.984 10.562 15.016 10.499 15.048 10.435 C 15.112 10.307 15.176 10.171 15.232 10.028 C 15.271 9.956 15.303 9.884 15.327 9.804 C 15.375 9.677 15.423 9.549 15.463 9.414 C 15.495 9.318 15.519 9.23 15.543 9.134 C 15.582 8.999 15.614 8.855 15.646 8.704 C 15.654 8.672 15.662 8.632 15.67 8.592 C 15.678 8.552 15.686 8.52 15.686 8.48 C 15.726 8.305 15.75 8.121 15.774 7.946 C 15.79 7.906 15.798 7.866 15.798 7.826 C 15.869 7.316 15.941 6.797 16.013 6.287 C 16.045 6.031 16.085 5.776 16.117 5.521 C 16.18 5.05 16.252 4.58 16.316 4.109 C 16.324 4.053 16.332 3.997 16.332 3.941 C 16.348 3.878 16.348 3.822 16.348 3.766 C 16.348 3.734 16.356 3.71 16.356 3.678 C 16.372 3.128 16.228 2.761 15.582 2.761 L 15.574 2.761 M 3.91 4.699 C 3.79 4.707 3.703 4.731 3.655 4.787 C 3.639 4.795 3.631 4.803 3.631 4.819 C 3.607 4.835 3.599 4.851 3.599 4.867 C 3.591 4.883 3.583 4.907 3.575 4.93 C 3.575 4.994 3.559 5.074 3.559 5.17 L 3.559 6.311 C 3.559 7.34 3.559 8.377 3.583 9.406 C 3.615 9.972 3.695 10.538 3.774 11.097 C 3.782 11.169 3.798 11.24 3.814 11.312 C 3.838 11.416 3.862 11.52 3.894 11.615 L 3.886 11.615 C 3.368 11.376 2.698 9.533 2.387 8.225 C 2.076 6.885 1.988 5.648 1.805 4.316 C 1.797 4.236 1.781 4.149 1.781 4.069 C 1.781 3.846 1.885 3.71 2.108 3.71 L 3.009 3.758 C 3.057 3.758 3.113 3.774 3.144 3.814 C 3.543 4.197 3.647 4.3 3.942 4.691 C 3.934 4.691 3.918 4.691 3.91 4.699 M 12.537 9.557 C 12.433 12.078 11.373 14.128 9.467 15.723 C 9.276 15.891 9.076 16.043 8.869 16.194 C 8.789 16.25 8.71 16.306 8.63 16.362 C 8.55 16.417 8.47 16.473 8.399 16.529 C 8.391 16.529 8.391 16.521 8.383 16.521 C 8.375 16.521 8.375 16.529 8.367 16.529 C 8.295 16.473 8.215 16.417 8.136 16.362 C 8.056 16.306 7.976 16.25 7.896 16.194 C 7.745 16.074 7.585 15.963 7.434 15.835 C 7.386 15.795 7.346 15.763 7.298 15.723 C 7.482 15.58 7.681 15.444 7.857 15.301 C 8.04 15.149 8.215 14.99 8.383 14.83 C 9.475 13.745 10.081 12.413 10.153 10.818 C 10.193 9.852 10.169 9.342 10.169 8.377 C 10.169 8.345 10.169 8.385 10.161 8.345 L 4.197 8.345 L 4.197 5.969 L 12.537 5.969 L 12.569 7.547 C 12.569 8.775 12.593 8.345 12.537 9.557 M 14.961 4.316 C 14.777 5.648 14.689 6.885 14.378 8.225 C 14.068 9.533 13.398 11.376 12.88 11.607 L 12.872 11.607 C 12.903 11.52 12.927 11.416 12.951 11.312 C 12.967 11.24 12.983 11.169 12.991 11.097 C 13.071 10.538 13.151 9.972 13.183 9.406 C 13.206 8.361 13.206 7.316 13.206 6.271 C 13.214 6.143 13.214 6.023 13.206 5.904 L 13.206 5.17 C 13.206 5.074 13.198 4.994 13.191 4.93 C 13.191 4.907 13.175 4.883 13.167 4.867 C 13.167 4.851 13.159 4.835 13.135 4.819 C 13.135 4.803 13.127 4.795 13.111 4.787 C 13.055 4.731 12.967 4.699 12.856 4.699 C 12.848 4.691 12.832 4.691 12.824 4.691 C 13.119 4.3 13.222 4.197 13.621 3.814 C 13.653 3.774 13.709 3.758 13.757 3.758 L 14.658 3.71 C 14.881 3.71 14.992 3.846 14.984 4.069 C 14.984 4.149 14.968 4.236 14.961 4.316" transform="matrix(1 0 0 1 0 0)" fill="#FFFFFF" stroke="none" />
  <path d="M 8.437 8.349 C 8.883 9.686 9.282 13.002 7.295 15.753 C 8.505 15.18 10.862 12.709 10.173 8.349 L 8.437 8.349 M 11.419 22.702 L 13.138 22.702 C 13.401 22.702 13.594 22.455 13.531 22.2 L 13.244 21.042 C 13.2 20.861 13.038 20.734 12.852 20.734 L 11.915 20.734 C 11.779 20.192 11.183 18.986 9.881 18.498 C 9.865 18.481 9.848 18.466 9.833 18.452 C 9.657 18.293 9.556 18.202 9.855 16.261 C 9.381 16.871 8.539 18.254 8.865 18.904 C 9.407 19.175 10.491 19.921 10.491 20.734 C 10.966 20.802 11.744 21.238 11.419 22.702" transform="matrix(1 0 0 1 0 0)" fill="#D9D9D9" stroke="none" />
  <path d="M 22.264 18.561 C 22.264 18.561 22.223 18.494 22.192 18.463 C 21.787 18.056 21.382 17.617 20.976 17.179 C 20.57 16.741 20.164 16.303 19.76 15.896 C 19.698 15.834 19.641 15.803 19.547 15.808 C 19.302 15.808 18.963 15.844 18.626 15.879 C 18.307 15.912 17.991 15.945 17.759 15.948 C 17.702 15.948 17.634 15.984 17.598 16.021 C 17.554 16.066 17.508 16.116 17.462 16.168 C 17.29 16.358 17.1 16.568 16.872 16.638 C 16.447 16.767 16.037 16.726 15.747 16.383 C 15.772 16.357 15.797 16.33 15.822 16.303 C 15.894 16.227 15.964 16.152 16.037 16.083 C 16.592 15.554 17.147 15.025 17.702 14.501 C 17.748 14.455 17.816 14.424 17.878 14.408 C 18.119 14.348 18.361 14.291 18.604 14.234 L 18.604 14.234 C 18.846 14.177 19.089 14.12 19.33 14.061 C 19.387 14.045 19.449 14.009 19.49 13.967 C 19.952 13.511 20.408 13.055 20.864 12.593 C 20.888 12.57 20.908 12.541 20.923 12.519 L 20.923 12.519 C 20.929 12.512 20.933 12.505 20.937 12.5 C 21.557 13.122 22.173 13.739 22.788 14.354 L 22.788 14.354 C 23.402 14.968 24.014 15.58 24.623 16.192 L 24.623 16.192 L 24.623 16.192 C 23.778 17.037 23.156 17.659 22.259 18.551 L 22.264 18.561 M 21.269 20.251 L 21.29 20.272 C 21.611 20.168 21.798 19.665 21.533 19.396 C 21.139 19.005 20.747 18.612 20.354 18.219 L 20.353 18.218 C 19.96 17.825 19.566 17.431 19.169 17.037 C 19.133 17 19.06 16.975 19.003 16.969 C 18.922 16.967 18.841 16.969 18.76 16.97 C 18.639 16.972 18.518 16.973 18.396 16.964 C 18.205 16.954 18.059 17.011 17.904 17.13 C 17.292 17.607 16.613 17.716 15.882 17.42 C 15.445 17.242 15.151 16.909 14.851 16.569 C 14.784 16.493 14.717 16.417 14.648 16.342 C 15.079 15.933 15.509 15.524 15.94 15.113 L 15.94 15.113 L 15.94 15.113 C 16.328 14.743 16.718 14.372 17.111 13.998 L 17.029 13.988 C 16.866 13.966 16.719 13.947 16.577 13.921 C 16.515 13.91 16.451 13.904 16.386 13.898 C 16.18 13.879 15.971 13.86 15.825 13.667 C 15.793 13.632 15.754 13.599 15.717 13.567 C 15.699 13.552 15.681 13.537 15.664 13.521 C 15.462 13.34 15.26 13.159 15.083 12.998 C 13.937 14.138 12.807 15.269 11.667 16.409 C 12.247 16.954 12.838 17.514 13.46 18.105 C 13.477 18.085 13.492 18.065 13.508 18.046 L 13.508 18.046 C 13.577 17.959 13.643 17.876 13.72 17.804 C 14.456 17.13 15.534 17.337 15.975 18.229 C 15.991 18.266 16.032 18.307 16.068 18.323 C 16.447 18.478 16.717 18.748 16.893 19.111 C 16.914 19.163 16.965 19.204 17.012 19.23 C 17.489 19.484 17.753 19.961 17.764 20.454 L 18.962 21.76 C 19.107 21.833 19.257 21.853 19.428 21.817 C 19.604 21.781 19.744 21.698 19.838 21.568 L 19.827 21.558 L 18.288 19.883 L 18.355 19.816 L 18.578 19.608 L 18.63 19.557 L 20.33 21.402 L 20.403 21.48 C 20.631 21.516 20.823 21.433 20.963 21.314 C 21.103 21.195 21.186 21.055 21.207 20.894 L 21.129 20.811 L 19.33 18.846 L 19.413 18.768 L 19.641 18.556 L 19.677 18.52 L 21.269 20.251 M 18.474 22.061 C 18.495 22.04 18.536 21.993 18.536 21.993 L 18.505 21.962 L 17.655 21.039 C 17.588 21.195 17.489 21.34 17.365 21.465 C 17.317 21.512 17.265 21.557 17.215 21.601 C 17.177 21.633 17.14 21.665 17.105 21.698 C 17.159 21.751 17.208 21.804 17.256 21.855 L 17.256 21.855 C 17.338 21.943 17.414 22.025 17.499 22.097 C 17.779 22.341 18.205 22.32 18.474 22.061 M 14.157 20.568 C 14.195 20.579 14.233 20.589 14.27 20.602 L 14.265 20.602 C 14.095 21.002 14.436 21.47 14.956 21.333 C 14.96 21.346 14.964 21.363 14.964 21.376 C 14.989 21.569 15.084 21.702 15.267 21.767 C 15.45 21.831 15.612 21.788 15.75 21.651 C 15.802 21.599 15.853 21.547 15.905 21.495 C 16.007 21.394 16.108 21.293 16.207 21.191 C 16.44 20.95 16.336 20.546 16.012 20.447 C 15.967 20.433 15.919 20.428 15.869 20.423 C 15.841 20.42 15.812 20.417 15.783 20.413 C 15.804 20.223 15.75 20.056 15.604 19.927 C 15.459 19.798 15.284 19.776 15.093 19.815 C 15.094 19.803 15.097 19.791 15.099 19.78 C 15.102 19.765 15.105 19.75 15.105 19.737 C 15.139 19.54 15.047 19.355 14.872 19.26 C 14.702 19.166 14.49 19.191 14.344 19.329 C 14.182 19.484 14.02 19.643 13.866 19.806 C 13.675 20.008 13.704 20.335 13.937 20.486 C 14.001 20.526 14.079 20.547 14.157 20.568" transform="matrix(1 0 0 1 0 0)" fill="#FFFFFF" stroke="none" />
</svg>
