<?xml version="1.0" encoding="UTF-8"?>
<!-- Reconstructed from Amplitude.Graphics.Svg.SvgAsset; not original source SVG. UI tint/material colors are not included. -->
<svg xmlns="http://www.w3.org/2000/svg" width="25" height="25" viewBox="0 0 25 25">
  <path d="M 3.703 4.141 L 23.573 4.141 C 24.131 4.141 24.583 4.595 24.583 5.152 L 24.583 18.866 L 23.568 18.162 C 22.977 17.742 22.259 17.722 21.695 17.965 C 21.596 18.009 21.496 18.062 21.4 18.127 L 20.173 17.922 C 19.771 16.764 18.287 16.205 17.214 17.072 L 15.543 18.375 C 14.556 19.126 14.555 20.611 15.54 21.364 L 17.233 22.692 L 17.239 22.696 C 17.24 22.697 17.241 22.698 17.242 22.698 L 3.701 22.698 C 1.933 22.698 0.498 21.263 0.498 19.494 L 0.498 7.347 C 0.498 5.578 1.934 4.141 3.703 4.141 M 19.411 8.521 C 19.369 8.515 19.328 8.509 19.288 8.502 C 19.202 8.489 19.118 8.475 19.034 8.467 C 18.708 8.433 18.383 8.402 18.057 8.372 C 17.87 8.355 17.739 8.249 17.679 8.058 C 17.628 7.898 17.681 7.735 17.818 7.636 C 17.894 7.581 17.983 7.572 18.075 7.591 C 18.429 7.665 18.782 7.74 19.136 7.815 L 19.478 7.887 C 19.495 7.891 19.511 7.895 19.528 7.9 L 19.551 7.906 C 19.569 7.848 19.587 7.791 19.604 7.734 L 19.605 7.733 L 19.605 7.733 L 19.605 7.733 C 19.642 7.61 19.68 7.487 19.721 7.367 C 19.862 6.96 20.03 6.569 20.282 6.233 L 20.294 6.217 C 20.34 6.156 20.386 6.092 20.484 6.06 C 20.479 6.086 20.475 6.111 20.471 6.134 C 20.463 6.179 20.456 6.22 20.446 6.259 C 20.412 6.386 20.378 6.513 20.344 6.64 L 20.344 6.64 L 20.344 6.64 C 20.275 6.893 20.207 7.145 20.146 7.4 C 20.11 7.544 20.087 7.693 20.062 7.845 L 20.062 7.845 C 20.051 7.913 20.04 7.982 20.028 8.052 L 20.062 8.064 L 20.062 8.064 C 20.085 8.072 20.106 8.08 20.126 8.087 C 20.694 8.284 21.25 8.52 21.764 8.87 C 21.893 8.958 22.014 9.061 22.135 9.164 L 22.135 9.164 L 22.135 9.164 C 22.167 9.192 22.2 9.22 22.232 9.247 C 22.258 9.268 22.277 9.298 22.297 9.327 C 22.306 9.34 22.315 9.354 22.324 9.367 L 22.321 9.374 L 22.313 9.392 C 22.297 9.388 22.282 9.385 22.266 9.382 C 22.233 9.375 22.199 9.368 22.168 9.354 C 21.636 9.106 21.093 8.907 20.537 8.762 C 20.411 8.729 20.284 8.698 20.155 8.667 L 20.155 8.667 C 20.092 8.652 20.028 8.637 19.963 8.621 C 19.959 8.687 19.953 8.752 19.948 8.817 L 19.948 8.817 C 19.937 8.957 19.926 9.094 19.923 9.233 C 19.914 9.679 19.911 10.127 19.911 10.575 C 19.91 10.765 19.825 10.912 19.67 10.958 C 19.518 11.003 19.344 10.937 19.251 10.775 C 19.209 10.703 19.18 10.606 19.183 10.526 C 19.201 9.889 19.275 9.265 19.389 8.65 C 19.394 8.625 19.398 8.599 19.403 8.571 L 19.403 8.571 L 19.403 8.571 L 19.411 8.521 M 18.235 10.056 C 18.246 9.739 17.998 9.472 17.68 9.461 C 17.363 9.45 17.096 9.698 17.085 10.016 C 17.082 10.104 17.057 10.238 16.987 10.403 C 16.862 10.695 16.997 11.033 17.289 11.158 C 17.581 11.283 17.92 11.148 18.045 10.855 C 18.163 10.578 18.226 10.305 18.235 10.056 M 16.507 12.537 C 16.776 12.368 16.858 12.013 16.69 11.744 C 16.522 11.474 16.167 11.392 15.897 11.561 C 15.627 11.73 15.298 11.892 14.901 12.034 C 14.602 12.142 14.447 12.471 14.554 12.77 C 14.661 13.069 14.991 13.225 15.29 13.117 C 15.758 12.949 16.162 12.752 16.507 12.537 M 13.261 13.589 C 13.576 13.548 13.798 13.259 13.757 12.944 C 13.716 12.629 13.427 12.407 13.112 12.448 C 12.925 12.472 12.731 12.493 12.527 12.51 C 12.288 12.529 12.063 12.557 11.85 12.593 C 11.536 12.646 11.325 12.943 11.378 13.257 C 11.431 13.57 11.728 13.781 12.042 13.728 C 12.22 13.698 12.413 13.674 12.621 13.657 C 12.843 13.638 13.056 13.616 13.261 13.589 M 10.488 14.364 C 10.726 14.153 10.747 13.789 10.536 13.552 C 10.325 13.314 9.961 13.293 9.724 13.504 C 9.281 13.897 9.025 14.372 8.908 14.869 C 8.836 15.178 9.028 15.488 9.337 15.561 C 9.646 15.633 9.956 15.441 10.029 15.132 C 10.095 14.851 10.235 14.589 10.488 14.364 M 10.246 16.752 C 10.123 16.459 9.786 16.321 9.493 16.444 C 9.2 16.567 9.062 16.904 9.184 17.197 C 9.281 17.428 9.391 17.643 9.505 17.834 C 9.668 18.106 10.022 18.195 10.294 18.032 C 10.567 17.869 10.656 17.516 10.493 17.243 C 10.406 17.098 10.321 16.932 10.246 16.752" transform="matrix(1 0 0 1 0 0)" fill="#FFFFFF" stroke="none" />
  <path d="M 24.486 21.141 L 22.572 22.479 C 22.459 22.556 22.28 22.485 22.28 22.354 L 22.28 21.455 L 19.117 21.022 L 22.28 20.531 L 22.28 19.696 C 22.28 19.56 22.453 19.483 22.572 19.572 L 24.486 20.898 C 24.579 20.963 24.579 21.082 24.486 21.153 L 24.486 21.141" transform="matrix(1 0 0 1 0 0)" fill="#FFFFFF" stroke="none" />
  <path d="M 16.592 19.996 L 18.292 21.328 C 18.394 21.407 18.55 21.328 18.55 21.203 L 18.55 20.317 L 21.362 19.87 L 18.55 19.4 L 18.55 18.546 C 18.55 18.405 18.394 18.334 18.292 18.42 L 16.592 19.745 C 16.506 19.808 16.506 19.933 16.592 19.996" transform="matrix(1 0 0 1 0 0)" fill="#FFFFFF" stroke="none" />
  <path d="M 9.853 22.665 L 9.856 22.699 L 17.242 22.699 C 17.241 22.698 17.24 22.697 17.239 22.696 L 17.233 22.692 L 15.54 21.364 C 15.062 20.999 14.816 20.462 14.802 19.92 L 14.8 19.921 C 14.542 19.994 14.277 20.073 14.142 20.238 C 14.056 20.344 14.028 20.462 14.028 20.586 C 14.027 20.705 14.053 20.829 14.078 20.953 L 14.078 20.953 C 14.09 21.012 14.102 21.072 14.112 21.13 C 14.128 21.234 14.136 21.336 14.116 21.431 C 14.096 21.53 14.047 21.622 13.951 21.702 C 13.735 21.88 13.431 21.837 13.157 21.725 C 12.978 21.651 12.812 21.548 12.691 21.457 C 12.588 21.38 12.484 21.296 12.378 21.209 L 12.331 21.17 L 12.296 21.14 L 12.259 21.109 C 11.909 20.818 11.542 20.514 11.149 20.344 C 11.06 20.306 10.972 20.288 10.886 20.288 C 10.791 20.287 10.7 20.308 10.611 20.343 C 10.433 20.416 10.272 20.553 10.144 20.715 C 10.132 20.73 10.121 20.745 10.11 20.76 C 10.003 20.907 9.923 21.071 9.883 21.224 C 9.81 21.505 9.797 21.789 9.808 22.076 C 9.809 22.108 9.811 22.14 9.813 22.172 C 9.822 22.336 9.837 22.501 9.853 22.665 L 9.853 22.665 M 15.522 18.391 C 15.529 18.385 15.536 18.38 15.543 18.375 L 17.214 17.072 C 18.287 16.205 19.771 16.764 20.173 17.922 L 21.4 18.127 C 21.496 18.062 21.596 18.009 21.695 17.965 C 22.259 17.722 22.976 17.742 23.567 18.162 L 24.583 18.865 L 24.583 5.153 C 24.583 4.595 24.13 4.142 23.572 4.142 L 3.702 4.142 C 3.544 4.142 3.388 4.153 3.236 4.176 C 3.443 4.513 3.62 4.841 3.769 5.145 C 3.844 5.298 3.912 5.445 3.973 5.584 C 4.004 5.654 4.033 5.722 4.061 5.788 C 4.211 6.148 4.314 6.442 4.375 6.631 C 4.381 6.648 4.386 6.663 4.39 6.678 L 4.391 6.681 C 4.416 6.758 4.433 6.812 4.433 6.812 C 4.663 7.56 4.781 8.152 4.874 8.612 L 4.885 8.669 C 4.962 9.048 5.022 9.335 5.117 9.544 C 5.191 9.709 5.286 9.825 5.427 9.901 L 5.447 9.911 C 5.547 9.961 5.646 9.98 5.721 9.987 C 5.78 9.992 5.823 9.989 5.841 9.988 C 6.02 9.974 6.239 9.888 6.745 9.318 L 6.77 9.29 C 6.949 9.09 7.177 8.856 7.413 8.653 C 7.736 8.374 8.076 8.153 8.329 8.152 C 8.666 8.152 8.879 8.343 9.147 8.619 C 9.172 8.645 9.198 8.672 9.225 8.7 L 9.225 8.7 C 9.381 8.862 9.56 9.048 9.792 9.239 C 9.998 9.409 10.289 9.646 10.617 9.844 C 10.711 9.901 10.807 9.954 10.906 10.002 C 11.141 10.116 11.386 10.197 11.624 10.211 C 11.771 10.219 11.915 10.203 12.053 10.154 C 12.259 10.08 12.391 9.954 12.485 9.856 C 12.494 9.847 12.502 9.839 12.51 9.83 C 12.893 9.424 12.906 8.964 12.922 8.393 L 12.926 8.266 C 12.929 8.17 12.933 8.07 12.939 7.967 C 12.942 7.916 12.946 7.866 12.951 7.814 C 12.974 7.542 13.019 7.247 13.114 6.926 L 13.118 6.913 C 13.224 6.551 13.39 5.99 13.828 5.54 C 13.961 5.403 14.105 5.289 14.257 5.195 C 14.536 5.021 14.841 4.911 15.151 4.842 C 15.496 4.766 15.846 4.74 16.171 4.734 C 16.273 4.731 16.373 4.731 16.47 4.732 C 16.562 4.733 16.651 4.734 16.735 4.736 C 16.888 4.738 17.037 4.745 17.181 4.757 C 17.201 4.758 17.221 4.76 17.24 4.762 C 17.568 4.79 17.874 4.841 18.16 4.905 C 18.98 5.088 19.63 5.386 20.124 5.617 C 20.361 5.727 20.603 5.84 20.842 5.957 L 20.876 5.974 L 20.876 5.974 C 20.898 5.985 20.92 5.996 20.943 6.007 C 21.039 6.055 21.135 6.103 21.23 6.152 C 21.239 6.157 21.249 6.162 21.258 6.167 L 21.262 6.169 C 21.359 6.22 21.456 6.272 21.55 6.325 C 21.983 6.566 22.384 6.831 22.711 7.134 C 22.943 7.349 23.138 7.583 23.28 7.842 C 23.299 7.875 23.316 7.908 23.332 7.942 C 23.424 8.132 23.488 8.335 23.518 8.553 C 23.562 8.867 23.538 9.232 23.435 9.593 C 23.376 9.8 23.291 10.006 23.177 10.199 C 23.121 10.293 23.058 10.385 22.988 10.473 C 22.943 10.529 22.894 10.584 22.843 10.636 L 22.835 10.644 C 22.783 10.697 22.727 10.754 22.668 10.811 C 22.436 11.03 22.144 11.25 21.768 11.268 C 21.635 11.274 21.503 11.257 21.37 11.239 C 21.298 11.229 21.225 11.22 21.153 11.214 C 21.116 11.211 21.078 11.209 21.042 11.209 C 20.978 11.208 20.915 11.211 20.852 11.222 C 20.756 11.238 20.66 11.271 20.563 11.329 C 20.413 11.421 20.37 11.534 20.301 11.739 L 20.291 11.769 C 20.23 11.949 20.147 12.195 19.962 12.551 C 19.927 12.617 19.893 12.686 19.858 12.758 C 19.716 13.046 19.558 13.365 19.333 13.576 C 19.324 13.585 19.313 13.594 19.303 13.603 C 19.078 13.799 18.774 13.803 18.477 13.754 C 18.333 13.73 18.191 13.693 18.06 13.66 L 17.982 13.64 C 17.591 13.542 17.167 13.477 16.765 13.438 C 16.651 13.428 16.534 13.427 16.416 13.437 C 16.251 13.449 16.085 13.481 15.919 13.53 C 15.818 13.559 15.718 13.595 15.619 13.638 C 15.569 13.658 15.52 13.681 15.472 13.704 C 14.924 13.973 14.432 14.421 14.159 14.983 C 14.12 15.064 14.085 15.144 14.055 15.225 C 13.947 15.51 13.895 15.799 13.917 16.083 C 13.932 16.295 13.989 16.506 14.094 16.711 C 14.129 16.78 14.17 16.849 14.216 16.917 C 14.235 16.945 14.256 16.973 14.277 17.001 C 14.41 17.173 14.59 17.348 14.776 17.531 L 14.777 17.531 C 14.865 17.617 14.955 17.704 15.042 17.794 C 15.226 17.982 15.398 18.18 15.522 18.391" transform="matrix(1 0 0 1 0 0)" fill="#EDEDED" stroke="none" />
  <path d="M 3.652 16.919 L 4.044 16.919 C 5.336 16.919 6.46 17.615 7.046 18.644 C 7.108 18.754 7.28 18.71 7.28 18.585 L 7.28 4.179 C 7.279 2.331 5.743 0.833 3.848 0.833 C 1.953 0.833 0.417 2.331 0.417 4.179 L 0.417 18.584 C 0.417 18.71 0.588 18.754 0.651 18.644 C 1.236 17.615 2.36 16.919 3.652 16.919 L 3.652 16.919" transform="matrix(1 0 0 1 0 0)" fill="#D9D9D9" stroke="none" />
</svg>
