<?xml version="1.0" encoding="UTF-8"?>
<!-- Reconstructed from Amplitude.Graphics.Svg.SvgAsset; not original source SVG. UI tint/material colors are not included. -->
<svg xmlns="http://www.w3.org/2000/svg" width="25" height="25" viewBox="0 0 25 25">
  <path d="M 9.761 21.603 L 13.609 16.908 C 13.442 16.717 13.234 16.583 13.125 16.458 L 9.257 21.186 C 9.14 21.328 9.161 21.532 9.298 21.649 C 9.436 21.765 9.644 21.745 9.761 21.603" transform="matrix(1 0 0 1 0 0)" fill="#D9D9D9" stroke="none" />
  <path d="M 15.227 13.849 L 14.481 14.753 C 14.406 14.699 14.365 14.665 14.365 14.665 C 14.331 14.636 14.286 14.624 14.244 14.628 C 14.198 14.628 14.161 14.653 14.131 14.686 L 13.311 15.686 C 13.256 15.749 13.261 15.84 13.311 15.903 C 13.719 16.361 14.486 16.974 14.586 17.136 L 19.552 21.89 C 19.69 22.024 19.923 21.932 19.936 21.736 L 20.29 18.499 C 20.294 18.39 20.377 18.303 20.481 18.286 L 24.248 17.507 C 24.431 17.478 24.506 17.253 24.373 17.124 L 18.84 11.745 C 18.611 11.536 18.456 11.374 18.273 11.19 L 19.152 10.124 C 19.269 9.982 19.248 9.778 19.111 9.661 C 18.973 9.545 18.765 9.565 18.648 9.707 L 17.831 10.699 C 17.794 10.653 17.756 10.615 17.731 10.586 C 17.715 10.57 17.694 10.553 17.673 10.54 C 17.602 10.511 17.523 10.532 17.477 10.586 L 16.119 12.236 C 16.065 12.303 16.069 12.399 16.127 12.457 C 16.127 12.457 16.502 12.836 16.748 13.328 C 16.977 13.79 17.015 14.186 16.869 14.52 C 16.869 14.52 16.869 14.52 16.865 14.52 L 16.123 13.795 L 16.419 13.436 C 16.286 13.207 16.14 13.015 16.031 12.886 L 15.661 13.336 L 15.24 13.845 L 15.227 13.849 M 15.065 15.074 L 15.698 14.307 L 16.427 15.015 C 16.077 15.253 15.656 15.286 15.173 15.115 C 15.136 15.103 15.102 15.09 15.065 15.074" transform="matrix(1 0 0 1 0 0)" fill="#FFFFFF" stroke="none" />
  <path d="M 16.869 14.524 C 16.765 14.816 16.532 14.974 16.427 15.016 L 16.207 14.795 C 16.548 14.703 16.361 14.145 16.373 14.028 L 16.865 14.52 L 16.869 14.524" transform="matrix(1 0 0 1 0 0)" fill="#D9D9D9" stroke="none" />
  <path d="M 19.578 21.895 L 16.978 19.428 L 19.253 21.036 C 19.394 21.136 19.586 21.057 19.619 20.89 L 19.723 17.87 C 19.732 17.828 19.761 17.795 19.798 17.782 L 22.898 17.261 C 23.04 17.211 23.098 17.045 23.003 16.928 C 21.982 15.711 17.694 11.578 17.232 10.895 C 17.319 10.774 17.394 10.686 17.457 10.607 C 17.561 10.478 17.694 10.557 17.698 10.553 C 17.715 10.574 17.919 10.807 18.269 11.195 C 19.682 12.557 23.098 15.853 24.398 17.161 C 24.528 17.295 24.461 17.515 24.278 17.553 L 20.39 18.357 C 20.34 18.37 20.303 18.411 20.298 18.461 L 19.978 21.753 C 19.957 21.949 19.723 22.036 19.582 21.903 L 19.578 21.895" transform="matrix(1 0 0 1 0 0)" fill="#D9D9D9" stroke="none" />
  <path d="M 15.069 15.078 C 14.769 15.145 14.54 14.882 14.478 14.753 L 15.003 14.132 L 15.703 14.311 L 15.073 15.082 L 15.069 15.078" transform="matrix(1 0 0 1 0 0)" fill="#D9D9D9" stroke="none" />
  <path d="M 15.127 21.603 C 15.244 21.745 15.448 21.761 15.59 21.649 C 15.727 21.532 15.748 21.328 15.631 21.186 L 11.733 16.425 C 11.625 16.546 11.413 16.683 11.25 16.875 L 15.127 21.603" transform="matrix(1 0 0 1 0 0)" fill="#D9D9D9" stroke="none" />
  <path d="M 9.235 13.336 L 8.865 12.886 C 8.756 13.015 8.61 13.207 8.477 13.432 L 8.773 13.79 L 8.031 14.515 C 8.031 14.515 8.031 14.515 8.027 14.515 C 7.877 14.186 7.919 13.786 8.148 13.324 C 8.394 12.828 8.765 12.453 8.769 12.453 C 8.827 12.395 8.831 12.299 8.777 12.232 L 7.419 10.582 C 7.373 10.528 7.294 10.503 7.223 10.536 C 7.202 10.545 7.181 10.561 7.165 10.582 C 7.14 10.611 7.106 10.649 7.065 10.695 L 6.248 9.703 C 6.131 9.561 5.927 9.545 5.785 9.657 C 5.648 9.774 5.627 9.978 5.744 10.12 L 6.623 11.186 C 6.44 11.37 6.29 11.536 6.056 11.745 L 0.515 17.12 C 0.381 17.249 0.456 17.478 0.64 17.503 L 4.406 18.282 C 4.51 18.299 4.594 18.386 4.598 18.495 L 4.952 21.736 C 4.965 21.928 5.194 22.02 5.335 21.886 L 10.302 17.132 C 10.402 16.974 11.165 16.357 11.577 15.899 C 11.631 15.836 11.635 15.745 11.577 15.682 L 10.756 14.682 C 10.727 14.649 10.685 14.628 10.644 14.624 C 10.598 14.624 10.556 14.632 10.523 14.661 C 10.523 14.661 10.481 14.699 10.406 14.753 L 9.66 13.853 L 9.24 13.34 L 9.235 13.336 M 9.819 15.078 C 9.785 15.09 9.748 15.107 9.71 15.12 C 9.227 15.29 8.806 15.257 8.456 15.02 L 9.185 14.311 L 9.819 15.078" transform="matrix(1 0 0 1 0 0)" fill="#FFFFFF" stroke="none" />
  <path d="M 8.51 14.028 C 8.523 14.145 8.335 14.699 8.677 14.795 L 8.456 15.016 C 8.352 14.974 8.119 14.811 8.015 14.524 L 8.506 14.032 L 8.51 14.028" transform="matrix(1 0 0 1 0 0)" fill="#D9D9D9" stroke="none" />
  <path d="M 4.91 21.749 L 4.59 18.457 C 4.585 18.407 4.548 18.361 4.498 18.353 L 0.606 17.549 C 0.423 17.511 0.352 17.29 0.485 17.157 C 1.785 15.845 5.198 12.549 6.615 11.186 C 6.965 10.799 7.169 10.565 7.185 10.545 C 7.185 10.545 7.323 10.465 7.427 10.599 C 7.49 10.678 7.565 10.765 7.652 10.886 C 7.19 11.57 2.902 15.703 1.881 16.92 C 1.785 17.036 1.84 17.203 1.985 17.253 L 5.085 17.774 C 5.123 17.786 5.152 17.82 5.16 17.861 L 5.265 20.882 C 5.298 21.049 5.494 21.128 5.631 21.028 L 7.906 19.42 L 5.306 21.886 C 5.165 22.02 4.927 21.932 4.91 21.736 L 4.91 21.749" transform="matrix(1 0 0 1 0 0)" fill="#D9D9D9" stroke="none" />
  <path d="M 9.186 14.307 L 9.886 14.128 L 10.411 14.749 C 10.348 14.882 10.119 15.14 9.819 15.074 L 9.19 14.303 L 9.186 14.307" transform="matrix(1 0 0 1 0 0)" fill="#D9D9D9" stroke="none" />
  <path d="M 10.933 3.501 C 10.775 4.095 10.572 4.423 10.154 4.588 C 9.897 4.689 9.816 4.649 9.747 4.382 C 9.609 3.848 9.79 3.381 10.063 2.943 C 10.191 2.739 10.341 2.548 10.49 2.359 L 10.513 2.33 C 10.649 2.157 10.741 2.171 10.822 2.38 C 10.989 2.813 11.005 3.252 10.934 3.502 L 10.933 3.501 M 11.446 5.963 C 11.577 5.806 11.677 5.626 11.749 5.435 L 11.956 4.879 C 11.971 4.841 11.984 4.802 11.996 4.763 C 12.005 4.734 12.014 4.705 12.022 4.677 C 12.058 4.563 12.093 4.449 12.119 4.332 C 12.131 4.274 12.12 4.176 12.082 4.15 C 12.04 4.122 11.941 4.136 11.888 4.166 C 11.81 4.209 11.731 4.252 11.652 4.295 C 11.388 4.439 11.124 4.583 10.884 4.758 C 10.565 4.992 10.235 5.274 10.323 5.718 C 10.367 5.938 10.517 6.198 10.702 6.323 C 10.908 6.462 11.143 6.273 11.301 6.12 C 11.352 6.071 11.4 6.018 11.446 5.963 M 12.678 7.541 C 12.663 7.732 12.526 7.918 12.397 8.094 C 12.368 8.132 12.34 8.17 12.314 8.208 C 12.199 8.371 12.053 8.34 11.935 8.173 C 11.599 7.7 11.555 7.184 11.668 6.652 C 11.759 6.225 11.937 5.84 12.323 5.585 C 12.324 5.584 12.325 5.583 12.326 5.583 C 12.456 5.499 12.633 5.593 12.637 5.746 L 12.678 7.541 L 12.678 7.541 M 10.977 9.167 C 11.433 9.113 11.856 9.28 12.244 9.521 C 12.444 9.645 12.454 9.733 12.303 9.907 C 12.002 10.255 11.588 10.397 11.139 10.444 C 10.43 10.518 9.755 10.414 9.196 9.919 C 9.133 9.863 9.08 9.796 9.029 9.728 C 8.973 9.652 9.014 9.547 9.107 9.529 L 10.977 9.167 L 10.977 9.167 M 14.148 12.076 C 14.19 11.302 13.808 10.554 13.152 10.096 L 13.152 10.097 L 13.146 10.093 C 13.023 10.006 12.872 9.901 12.599 9.69 C 11.955 9.192 11.38 8.632 10.892 7.991 C 10.867 7.957 10.839 7.926 10.812 7.895 C 10.799 7.88 10.786 7.865 10.774 7.85 C 10.765 7.857 10.756 7.862 10.748 7.866 C 10.736 7.873 10.728 7.878 10.728 7.884 C 10.699 8.219 10.693 8.251 10.335 8.179 C 9.853 8.081 9.366 7.967 8.911 7.788 C 8.473 7.616 8.181 7.279 8.179 6.786 C 8.178 6.566 8.234 6.521 8.453 6.591 C 8.513 6.61 8.573 6.628 8.633 6.647 C 9.282 6.85 9.934 7.054 10.521 7.522 C 10.317 7.015 10.134 6.558 9.963 6.133 C 9.944 6.086 9.896 6.056 9.844 6.06 C 9.835 6.06 9.827 6.061 9.818 6.062 C 9.732 6.068 9.646 6.074 9.583 6.041 C 9.52 6.008 9.456 5.975 9.392 5.942 C 9.101 5.794 8.806 5.643 8.567 5.436 C 8.132 5.058 8.056 4.542 8.152 4.007 C 8.152 4.004 8.153 4.002 8.154 3.999 C 8.174 3.928 8.267 3.904 8.327 3.951 C 8.409 4.016 8.492 4.079 8.575 4.142 C 9.048 4.505 9.514 4.861 9.803 5.404 C 9.816 5.429 9.855 5.422 9.857 5.394 L 9.873 5.156 C 9.874 5.143 9.882 5.131 9.895 5.125 L 9.895 5.125 C 9.918 5.114 9.945 5.127 9.951 5.151 C 10.379 6.897 11.326 8.31 12.893 9.344 C 12.888 9.307 12.883 9.271 12.877 9.234 C 12.864 9.153 12.851 9.072 12.849 8.992 C 12.825 8.013 13.129 7.184 14.004 6.633 C 14.045 6.607 14.091 6.588 14.139 6.572 C 14.298 6.52 14.465 6.633 14.475 6.797 C 14.477 6.834 14.477 6.871 14.473 6.908 C 14.44 7.274 14.401 7.64 14.338 8.001 C 14.178 8.918 13.965 9.181 13.102 9.555 C 13.129 9.58 13.156 9.605 13.181 9.63 C 13.236 9.681 13.288 9.73 13.344 9.773 C 13.555 9.934 13.663 10.006 13.745 10.057 C 14.171 10.322 14.509 10.706 14.69 11.162 C 14.791 11.415 14.846 11.68 14.81 11.968 C 14.782 12.189 14.7 12.406 14.611 12.612 C 14.579 12.686 14.46 12.744 14.368 12.771 C 14.125 12.844 14.042 12.77 14.089 12.531 C 14.12 12.376 14.14 12.224 14.148 12.076" transform="matrix(1 0 0 1 0 0)" fill="#FFFFFF" stroke="none" />
</svg>
