<?xml version="1.0" encoding="UTF-8"?>
<!-- Reconstructed from Amplitude.Graphics.Svg.SvgAsset; not original source SVG. UI tint/material colors are not included. -->
<svg xmlns="http://www.w3.org/2000/svg" width="25" height="25" viewBox="0 0 25 25">
  <path d="M 4.457 4.026 L 5.499 2.764 L 6.54 4.026 L 6.54 10.465 L 4.457 10.465 L 4.457 4.026 M 3.332 10.465 L 3.332 7.776 L 2.291 6.514 L 1.25 7.776 L 1.25 10.465 L 3.332 10.465 M 1.25 14.628 L 3.332 14.628 L 3.332 23.83 L 1.25 23.83 L 1.25 14.628 M 4.457 14.628 L 6.54 14.628 L 6.54 23.83 L 4.458 23.83 L 4.457 14.628 M 18.46 14.628 L 18.46 23.83 L 20.543 23.83 L 20.543 14.628 L 18.46 14.628 M 21.668 14.628 L 21.668 23.83 L 23.75 23.83 L 23.75 14.628 L 21.668 14.628 M 23.75 10.465 L 21.668 10.465 L 21.668 7.776 L 22.709 6.514 L 23.75 7.776 L 23.75 10.465 M 20.543 10.465 L 18.46 10.465 L 18.46 4.026 L 19.501 2.764 L 20.543 4.026 L 20.543 10.465 M 1.25 11.505 L 6.54 11.505 L 6.54 13.588 L 1.25 13.588 L 1.25 11.505 M 23.75 11.505 L 18.46 11.505 L 18.46 13.588 L 23.75 13.588 L 23.75 11.505" transform="matrix(1 0 0 1 0 0)" fill="#9D9D9D" stroke="none" />
  <path d="M 7.661 13.958 L 7.661 11.882 C 7.711 11.84 7.762 11.801 7.814 11.761 C 7.82 11.757 7.826 11.752 7.832 11.748 C 7.861 11.727 7.89 11.705 7.919 11.685 C 7.937 11.673 7.955 11.66 7.973 11.648 L 8.026 11.612 C 8.17 11.517 8.319 11.43 8.47 11.347 C 8.771 11.182 9.083 11.035 9.399 10.898 C 9.557 10.829 9.716 10.764 9.876 10.699 C 10.037 10.635 10.198 10.573 10.36 10.513 C 10.727 10.376 11.097 10.246 11.47 10.122 C 11.567 10.09 11.625 10.227 11.537 10.277 C 11.24 10.442 10.95 10.611 10.668 10.784 C 10.535 10.866 10.404 10.948 10.276 11.032 C 10.148 11.115 10.022 11.199 9.9 11.285 C 9.655 11.456 9.424 11.632 9.219 11.813 C 9.117 11.903 9.021 11.995 8.937 12.086 L 8.906 12.121 C 8.9 12.127 8.894 12.134 8.889 12.14 C 8.884 12.145 8.88 12.15 8.876 12.155 C 8.862 12.17 8.85 12.186 8.837 12.202 C 8.831 12.209 8.825 12.216 8.819 12.224 C 8.783 12.269 8.749 12.315 8.721 12.36 C 8.693 12.405 8.667 12.449 8.648 12.492 C 8.629 12.535 8.614 12.576 8.605 12.616 C 8.586 12.695 8.591 12.763 8.613 12.817 C 8.636 12.871 8.672 12.913 8.723 12.956 C 8.773 13 8.842 13.045 8.93 13.092 C 9.018 13.139 9.125 13.187 9.245 13.233 C 9.365 13.279 9.497 13.324 9.637 13.367 C 9.917 13.452 10.227 13.53 10.549 13.603 C 10.871 13.676 11.206 13.745 11.548 13.812 C 11.832 13.868 12.12 13.923 12.412 13.979 C 12.825 14.058 13.247 14.138 13.673 14.225 C 14.037 14.298 14.405 14.377 14.778 14.462 C 15.15 14.548 15.527 14.642 15.908 14.748 C 16.098 14.801 16.289 14.858 16.481 14.918 C 16.674 14.979 16.867 15.044 17.061 15.114 C 17.153 15.147 17.246 15.182 17.339 15.218 L 17.339 23.83 L 7.661 23.83 L 7.661 23.759 C 8.768 23.273 9.845 22.772 10.866 22.252 C 11.4 21.98 11.917 21.702 12.41 21.42 C 12.657 21.279 12.897 21.136 13.13 20.992 C 13.363 20.849 13.588 20.704 13.803 20.558 L 13.883 20.503 L 13.962 20.449 L 14.001 20.421 L 14.04 20.394 L 14.117 20.339 C 14.218 20.266 14.319 20.193 14.414 20.12 C 14.605 19.974 14.783 19.828 14.945 19.684 C 15.105 19.541 15.249 19.399 15.37 19.265 C 15.492 19.129 15.591 19.001 15.667 18.884 C 15.744 18.766 15.796 18.661 15.831 18.565 C 15.848 18.517 15.861 18.471 15.869 18.425 C 15.875 18.379 15.88 18.333 15.875 18.286 C 15.869 18.191 15.835 18.087 15.761 17.97 C 15.686 17.853 15.572 17.726 15.418 17.596 C 15.265 17.465 15.074 17.332 14.858 17.201 C 14.642 17.069 14.399 16.94 14.14 16.813 C 13.88 16.686 13.604 16.562 13.316 16.441 C 13.028 16.319 12.728 16.199 12.421 16.08 C 12.066 15.943 11.701 15.806 11.329 15.668 C 11.057 15.567 10.782 15.464 10.505 15.359 C 10.176 15.233 9.843 15.104 9.509 14.964 C 9.175 14.824 8.838 14.674 8.504 14.498 C 8.42 14.454 8.337 14.408 8.254 14.36 C 8.171 14.313 8.089 14.263 8.007 14.21 C 7.889 14.132 7.772 14.05 7.661 13.958" transform="matrix(1 0 0 1 0 0)" fill="#FFFFFF" stroke="none" />
</svg>
