<?xml version="1.0" encoding="UTF-8"?>
<!-- Reconstructed from Amplitude.Graphics.Svg.SvgAsset; not original source SVG. UI tint/material colors are not included. -->
<svg xmlns="http://www.w3.org/2000/svg" width="60" height="60" viewBox="0 0 60 60">
  <path d="M 21.289 11.87 C 26.784 8.712 32.329 7.719 38.232 8.852 C 39.78 8.701 45.478 8.303 49.192 10.25 L 48.532 10.129 C 48.218 10.071 47.893 10.142 47.63 10.324 C 47.4 10.484 47.235 10.719 47.16 10.985 L 47.134 11.103 L 46.845 12.753 C 46.779 13.132 46.899 13.5 47.139 13.765 C 44.328 13.94 41.044 15.301 38.447 16.796 C 40.71 17.483 42.79 18.642 44.367 20.515 C 44.845 21.08 45.157 21.699 45.3 22.35 C 45.367 22.303 45.432 22.254 45.497 22.207 L 45.364 22.535 C 45.228 22.87 45.25 23.248 45.424 23.565 C 45.597 23.881 45.904 24.103 46.259 24.168 L 47.885 24.467 C 47.967 24.482 48.049 24.486 48.13 24.484 C 47.684 24.834 47.2 25.184 46.672 25.528 C 45.478 26.305 44.264 27.018 43.01 27.671 C 42.714 27.961 42.4 28.243 42.069 28.52 C 43.281 28.619 44.466 28.931 45.586 29.525 C 45.731 29.604 45.889 29.688 46.051 29.778 C 47.431 28.075 48.577 26.275 49.485 24.393 C 49.665 24.659 49.944 24.844 50.263 24.902 L 51.888 25.201 C 52.445 25.304 52.999 25.002 53.215 24.478 L 53.263 24.359 L 53.265 24.356 L 53.719 23.236 C 52.574 26.347 50.887 29.272 48.685 31.973 C 49.19 32.711 49.53 33.639 49.53 34.825 C 49.53 37.819 47.36 40.286 46.425 41.207 C 45.792 41.833 45.115 42.361 44.356 42.805 C 44.448 44.133 43.938 45.572 42.839 46.859 C 41.541 48.383 39.855 49.2 38.255 49.2 C 37.426 49.2 36.618 48.982 35.898 48.527 C 35.092 48.023 34.864 46.979 35.381 46.195 C 35.896 45.412 36.971 45.187 37.773 45.69 C 38.419 46.089 39.5 45.502 40.184 44.698 C 40.285 44.579 40.394 44.437 40.493 44.277 L 40.273 44.331 C 38.022 44.907 35.875 45.353 34.245 44.488 C 33.352 44.016 32.905 43.465 32.697 42.958 C 31.465 43.158 30.202 43.122 28.967 42.684 C 26.143 41.686 25.616 39.87 25.554 38.877 C 25.489 37.842 25.84 36.819 26.41 35.874 C 25.664 35.937 24.916 35.912 24.182 35.748 C 22.487 35.377 21.659 34.447 21.257 33.711 C 20.308 33.821 19.349 33.888 18.381 33.893 L 17.684 30.504 C 18.757 30.542 19.837 30.477 20.927 30.352 C 21.033 29.868 21.199 29.37 21.418 28.861 C 23.016 25.192 25.79 22.131 28.992 19.425 C 27.291 19.56 25.589 19.794 23.975 20.051 C 21.573 20.434 19.504 20.94 17.59 21.984 C 17.514 22.038 17.433 22.084 17.35 22.122 C 16.934 22.362 16.527 22.626 16.123 22.923 L 15.337 19.101 C 16.687 15.768 18.67 13.378 21.289 11.87 M 46.071 34.836 C 44.559 36.322 42.917 37.688 41.204 38.893 C 41.744 39.084 42.282 39.368 42.778 39.784 C 43.208 39.512 43.596 39.198 43.963 38.836 C 44.979 37.832 46.064 36.256 46.071 34.836 M 41.172 31.871 C 38.454 31.871 35.318 33.225 32.944 34.398 C 31.203 35.26 28.938 37.533 29.01 38.672 C 29.033 39.061 29.733 39.365 30.147 39.512 C 31.948 40.144 34.328 39.046 36.198 38.015 C 38.865 36.547 41.442 34.609 43.695 32.376 C 42.929 32.02 42.075 31.871 41.172 31.871 M 11.929 32.727 C 9.667 31.733 8.397 30.174 8.4 28.259 C 8.403 27.188 8.719 26.111 9.356 25.018 L 11.929 32.727 M 34.51 19.439 C 30.467 22.394 26.729 25.699 24.813 29.729 C 24.958 29.702 25.103 29.675 25.251 29.648 L 26.745 29.373 C 32.349 28.38 36.896 26.961 40.969 24.899 C 41.449 24.38 41.774 23.882 41.89 23.435 C 41.957 23.171 41.945 22.96 41.691 22.658 C 40.02 20.677 37.438 19.756 34.51 19.439 M 33.562 11.772 C 29.98 11.772 26.563 12.76 23.049 14.779 C 21.941 15.416 20.977 16.288 20.164 17.384 C 21.261 17.096 22.347 16.893 23.411 16.722 C 25.725 16.35 29.569 15.74 33.506 15.968 C 33.855 15.72 34.203 15.474 34.554 15.233 C 35.062 14.88 37.325 13.358 40.272 12.105 C 39.558 12.127 38.904 12.174 38.359 12.237 L 38.08 12.272 L 37.805 12.215 C 36.355 11.92 34.947 11.772 33.562 11.772" transform="matrix(1 0 0 1 0 0)" fill="#EBEBEB" stroke="none" />
  <path d="M 22.006 50.449 L 17.931 51.541 L 16.967 47.943 L 21.042 46.852 L 22.006 50.449 M 8.37 18.267 L 13.649 16.853 L 19.352 44.557 L 17.324 45.1 L 8.37 18.267" transform="matrix(1 0 0 1 0 0)" fill="#EBEBEB" stroke="none" />
  <path d="M 54.076 8.699 L 52.689 12.087 L 55.067 12.524 L 56.405 9.252 L 56.453 9.135 L 58.079 9.433 L 56.693 12.823 L 58.801 13.209 L 58.512 14.86 L 56.037 14.406 L 54.111 19.132 L 56.359 19.545 L 56.07 21.196 L 53.457 20.716 L 52.169 23.882 L 52.12 24 L 50.495 23.701 L 51.83 20.417 L 49.453 19.981 L 48.165 23.147 L 48.118 23.265 L 46.492 22.966 L 47.827 19.683 L 45.601 19.274 L 45.889 17.623 L 48.482 18.098 L 50.407 13.373 L 48.043 12.939 L 48.331 11.288 L 51.063 11.789 L 52.402 8.517 L 52.449 8.4 L 54.076 8.699 M 50.108 18.397 L 52.486 18.833 L 54.411 14.108 L 52.034 13.672 L 50.108 18.397 M 48.577 18.277 L 50.625 13.252 L 50.624 13.251 L 48.577 18.277" transform="matrix(1 0 0 1 0 0)" fill="#EBEBEB" stroke="none" />
</svg>
