<?xml version="1.0" encoding="UTF-8"?>
<!-- Reconstructed from Amplitude.Graphics.Svg.SvgAsset; not original source SVG. UI tint/material colors are not included. -->
<svg xmlns="http://www.w3.org/2000/svg" width="25" height="26" viewBox="0 0 25 26">
  <path d="M 19.107 13 L 18.216 13.927 L 18.558 15.017 L 17.759 15.715 L 17.785 16.867 L 16.853 17.352 L 16.232 18.1 L 15.27 18.364 L 14.54 19.13 L 13.544 19.437 L 12.5 19.577 L 11.563 18.773 L 10.451 19.157 L 9.77 18.289 L 8.786 18.075 L 8.176 17.324 L 7.426 16.713 L 6.78 15.953 L 6.561 14.978 L 6.444 13.982 L 6.182 13 L 6.322 11.998 L 6.285 10.932 L 7.031 10.177 L 7.213 9.131 L 8.239 8.739 L 8.765 7.895 L 9.588 7.36 L 10.449 6.837 L 11.568 7.252 L 12.5 6.534 L 13.499 6.841 L 14.537 6.881 L 15.453 7.28 L 16.194 7.952 L 16.921 8.579 L 17.596 9.271 L 17.753 10.288 L 18.532 10.992 L 18.728 11.99 L 19.107 13" transform="matrix(1 0 0 1 0 0)" fill="#606060" stroke="none" />
  <path d="M 21.192 8.834 C 22.257 10.046 23.891 12.323 24.045 13.656 C 24.095 14.117 24.125 14.474 24.141 14.745 C 24.171 15.239 24.015 15.705 23.801 16.156 C 23.405 16.986 22.944 18.144 22.936 18.899 C 22.929 19.569 22.921 19.679 22.915 19.748 C 22.913 19.781 22.911 19.805 22.91 19.88 C 22.321 20.345 21.411 20.759 20.298 20.526 C 20.226 19.827 20.039 19.196 19.874 18.64 C 19.688 18.012 19.53 17.481 19.6 17.057 C 19.669 16.639 19.882 15.739 20.005 15.343 C 20.104 15.026 20.168 13.149 20.188 12.251 C 20.3 11.879 20.73 11.814 21.065 11.861 C 21.41 12.474 21.585 14.454 21.316 16.123 C 21.349 16.095 21.394 16.063 21.449 16.024 C 22.063 15.583 23.806 14.331 20.438 9.684 C 20.532 9.352 20.674 8.997 21.192 8.834" transform="matrix(1 0 0 1 0 0)" fill="#EBEBEB" stroke="none" />
  <path d="M 3.786 8.834 C 2.721 10.046 1.087 12.323 0.933 13.656 C 0.883 14.117 0.854 14.474 0.837 14.745 C 0.807 15.239 0.963 15.705 1.177 16.156 C 1.573 16.986 2.034 18.144 2.042 18.899 C 2.049 19.569 2.057 19.679 2.063 19.748 C 2.065 19.781 2.067 19.805 2.068 19.88 C 2.657 20.345 3.567 20.759 4.68 20.526 C 4.752 19.827 4.94 19.196 5.104 18.64 C 5.29 18.012 5.448 17.481 5.378 17.057 C 5.309 16.639 5.097 15.739 4.973 15.343 C 4.874 15.026 4.81 13.149 4.791 12.251 C 4.678 11.879 4.248 11.814 3.913 11.861 C 3.568 12.474 3.393 14.454 3.662 16.123 C 3.629 16.095 3.584 16.063 3.529 16.024 C 2.915 15.583 1.172 14.331 4.54 9.684 C 4.446 9.352 4.304 8.997 3.786 8.834" transform="matrix(1 0 0 1 0 0)" fill="#EBEBEB" stroke="none" />
  <path d="M 5.417 10.787 L 5.441 10.738 C 5.484 10.65 5.563 10.585 5.657 10.56 C 5.744 10.536 5.837 10.549 5.914 10.594 L 6.588 10.982 C 6.631 11.007 6.669 11.04 6.701 11.078 L 7.055 11.507 C 7.074 11.53 7.095 11.551 7.118 11.569 L 7.474 11.85 C 7.535 11.898 7.607 11.928 7.684 11.937 L 8.169 11.994 C 8.21 11.998 8.251 11.997 8.291 11.99 L 8.647 11.926 C 8.873 11.886 9.017 11.663 8.961 11.441 L 8.866 11.067 L 8.691 10.371 C 8.677 10.313 8.675 10.252 8.686 10.193 L 8.945 8.803 L 9.179 7.546 C 9.205 7.407 9.3 7.29 9.431 7.237 L 9.493 7.212 C 9.644 7.15 9.816 7.223 9.877 7.374 L 9.942 7.533 C 9.972 7.607 9.98 7.688 9.965 7.767 L 9.744 8.94 L 9.521 10.125 C 9.508 10.196 9.513 10.269 9.537 10.337 L 9.768 11.013 L 10.028 11.775 C 10.032 11.787 10.039 11.798 10.048 11.807 C 10.057 11.816 10.065 11.826 10.072 11.837 L 10.296 12.168 L 10.387 12.303 C 10.436 12.375 10.546 12.346 10.555 12.261 L 10.579 12.007 L 10.792 11.021 L 10.887 10.116 C 10.9 10 10.96 9.894 11.054 9.825 L 11.901 9.2 C 11.95 9.164 11.99 9.118 12.019 9.065 L 12.409 8.356 C 12.518 8.158 12.766 8.083 12.967 8.188 L 13.024 8.218 C 13.05 8.231 13.078 8.24 13.107 8.244 C 13.244 8.262 13.34 8.388 13.322 8.525 L 13.316 8.569 L 13.293 8.736 C 13.282 8.818 13.247 8.894 13.193 8.956 L 12.635 9.587 C 12.598 9.629 12.57 9.678 12.552 9.732 L 12.259 10.618 C 12.25 10.645 12.238 10.672 12.224 10.697 L 11.871 11.302 C 11.852 11.335 11.838 11.37 11.828 11.407 L 11.633 12.162 L 11.417 12.698 C 11.399 12.744 11.389 12.793 11.387 12.843 L 11.374 13.385 C 11.373 13.405 11.374 13.426 11.377 13.446 L 11.397 13.604 L 11.42 13.793 L 11.425 13.82 C 11.428 13.837 11.434 13.854 11.444 13.869 L 11.957 14.628 C 12.004 14.697 12.029 14.778 12.029 14.861 L 12.029 15.391 C 12.029 15.498 12.07 15.602 12.145 15.679 L 12.413 15.96 C 12.44 15.988 12.472 16.012 12.506 16.032 L 12.763 16.181 C 12.958 16.293 13.208 16.23 13.326 16.038 L 13.661 15.494 C 13.692 15.443 13.733 15.4 13.782 15.367 L 14.856 14.64 C 15.019 14.53 15.082 14.322 15.009 14.14 L 14.838 13.712 L 14.574 13.055 C 14.552 13.001 14.519 12.952 14.477 12.911 L 13.751 12.209 L 13.02 11.503 C 12.98 11.465 12.949 11.42 12.927 11.37 L 12.842 11.175 C 12.777 11.026 12.845 10.852 12.994 10.787 L 13.011 10.78 C 13.164 10.713 13.343 10.744 13.465 10.859 L 14.267 11.618 L 15.213 12.514 C 15.25 12.55 15.281 12.591 15.303 12.637 L 15.448 12.94 C 15.508 13.067 15.693 13.048 15.728 12.913 L 15.838 12.481 L 16.022 11.754 C 16.04 11.685 16.039 11.612 16.02 11.542 L 15.704 10.378 L 15.373 9.157 C 15.364 9.124 15.359 9.09 15.358 9.055 L 15.354 8.813 C 15.351 8.65 15.481 8.516 15.644 8.513 L 15.693 8.512 C 15.844 8.51 15.985 8.589 16.061 8.72 L 16.382 9.273 L 16.785 9.789 C 16.888 9.92 16.903 10.1 16.822 10.247 L 16.594 10.661 C 16.51 10.814 16.529 11.003 16.643 11.135 L 17.038 11.591 C 17.154 11.726 17.172 11.92 17.082 12.074 L 16.438 13.173 C 16.422 13.2 16.41 13.228 16.4 13.258 L 15.992 14.553 C 15.967 14.633 15.918 14.703 15.852 14.755 L 14.431 15.872 C 14.394 15.902 14.362 15.937 14.337 15.977 L 13.726 16.941 C 13.687 17.002 13.665 17.071 13.662 17.143 L 13.614 18.065 L 13.572 18.872 C 13.565 19.012 13.488 19.139 13.367 19.21 L 13.306 19.245 C 13.166 19.328 12.986 19.281 12.903 19.141 L 12.818 18.995 C 12.776 18.924 12.756 18.843 12.761 18.761 L 12.801 18.04 L 12.834 17.448 C 12.843 17.291 12.763 17.143 12.627 17.064 L 12.03 16.72 L 11.471 16.397 C 11.316 16.308 11.236 16.129 11.271 15.953 L 11.349 15.573 C 11.372 15.457 11.345 15.336 11.274 15.241 L 10.707 14.48 L 9.984 13.537 L 9.624 12.905 C 9.547 12.77 9.403 12.689 9.248 12.694 L 8.977 12.703 C 8.954 12.704 8.931 12.706 8.909 12.711 L 8.387 12.815 C 8.341 12.825 8.294 12.826 8.247 12.819 L 7.488 12.711 C 7.431 12.703 7.376 12.683 7.328 12.653 L 6.71 12.272 C 6.672 12.249 6.638 12.22 6.61 12.186 L 6.283 11.797 C 6.252 11.76 6.214 11.729 6.172 11.705 L 5.498 11.315 C 5.42 11.27 5.363 11.196 5.34 11.11 C 5.315 11.015 5.331 10.914 5.386 10.833 L 5.417 10.787" transform="matrix(1 0 0 1 0 0)" fill="#EBEBEB" stroke="none" />
  <path d="M 12.584 3.708 C 16.449 3.708 21.125 8.709 21.125 8.709 C 21.125 8.709 16.284 4.252 12.584 4.541 C 9.61 4.774 7.309 6.225 5.794 8.291 L 5.125 8.291 C 5.125 8.291 5.91 7.801 5.709 7.458 C 5.497 7.096 4.667 7.715 4.667 7.715 C 6.41 5.286 9.197 3.708 12.584 3.708" transform="matrix(1 0 0 1 0 0)" fill="#D9D9D9" stroke="none" />
  <path d="M 5.5 20.88 C 5.5 20.88 5.717 21.019 6.082 21.233 C 7.108 21.806 9.395 22.875 12.166 22.875 C 15.114 22.875 17.714 20.885 19.249 18.5 C 19.249 18.5 18.599 19.531 19.041 19.664 C 19.468 19.793 19.666 18.708 19.666 18.708 L 19.939 19.664 C 18.149 21.996 15.333 23.5 12.166 23.5 C 10.184 23.5 7.303 21.948 6.082 21.233 C 5.706 21.023 5.5 20.88 5.5 20.88" transform="matrix(1 0 0 1 0 0)" fill="#D9D9D9" stroke="none" />
</svg>
