<?xml version="1.0" encoding="UTF-8"?>
<!-- Reconstructed from Amplitude.Graphics.Svg.SvgAsset; not original source SVG. UI tint/material colors are not included. -->
<svg xmlns="http://www.w3.org/2000/svg" width="25" height="25" viewBox="0 0 25 25">
  <path d="M 12.432 0.147 L 10.564 1.333 L 8.911 2.084 L 7.348 3.073 L 5.648 3.81 L 4.001 4.776 L 2.052 5.848 L 2.038 8.033 L 2.118 9.853 L 2.061 11.624 L 2.061 11.629 L 2.019 13.442 L 2.085 15.256 L 2.071 17.438 L 4.092 18.455 L 5.663 19.369 L 5.667 19.371 L 6.889 20.093 L 7.525 19.017 L 6.299 18.293 L 6.295 18.29 L 4.688 17.356 L 3.326 16.67 L 3.335 15.237 L 3.269 13.434 L 3.311 11.661 L 3.369 9.845 L 3.288 8.01 L 3.297 6.59 L 4.618 5.863 L 6.215 4.927 L 7.934 4.182 L 9.506 3.187 L 11.161 2.435 L 12.51 1.579 L 13.826 2.225 L 15.486 3.063 L 17.042 4.064 L 18.705 4.949 L 20.406 5.816 L 21.704 6.54 L 21.674 7.995 L 21.607 9.8 L 21.381 11.66 L 21.701 13.498 L 21.734 15.304 L 21.73 16.736 L 20.364 17.426 L 18.671 18.303 L 17.967 18.711 L 18.593 19.793 L 19.272 19.399 L 20.934 18.539 L 22.978 17.506 L 22.984 15.295 L 22.949 13.378 L 22.644 11.627 L 22.854 9.898 L 22.924 8.031 L 22.97 5.814 L 20.995 4.713 L 19.283 3.841 L 17.675 2.985 L 16.108 1.977 L 14.383 1.106 L 12.432 0.147" transform="matrix(1 0 0 1 0 0)" fill="#EBEBEB" stroke="none" />
  <path d="M 6.068 8.674 L 6.091 8.629 C 6.13 8.547 6.204 8.486 6.292 8.463 C 6.372 8.441 6.458 8.452 6.53 8.494 L 7.151 8.852 C 7.194 8.877 7.232 8.91 7.264 8.948 L 7.587 9.34 C 7.606 9.363 7.627 9.383 7.65 9.402 L 7.972 9.655 C 8.032 9.703 8.105 9.734 8.182 9.742 L 8.619 9.793 C 8.66 9.798 8.701 9.797 8.741 9.79 L 9.067 9.731 C 9.277 9.694 9.41 9.487 9.358 9.281 L 9.11 8.294 C 9.095 8.236 9.093 8.175 9.104 8.116 L 9.558 5.682 C 9.584 5.542 9.679 5.425 9.81 5.372 L 9.853 5.355 C 9.993 5.298 10.152 5.365 10.209 5.505 L 10.266 5.645 C 10.296 5.719 10.304 5.8 10.289 5.879 L 9.88 8.052 C 9.867 8.123 9.872 8.196 9.896 8.264 L 10.349 9.591 C 10.353 9.602 10.359 9.612 10.368 9.621 C 10.376 9.629 10.384 9.638 10.39 9.648 L 10.683 10.082 C 10.728 10.148 10.83 10.122 10.838 10.042 L 10.861 9.807 L 11.058 8.891 L 11.146 8.064 C 11.158 7.948 11.219 7.842 11.313 7.773 L 12.083 7.204 C 12.131 7.168 12.172 7.122 12.201 7.07 L 12.546 6.442 C 12.655 6.244 12.902 6.169 13.102 6.274 L 13.13 6.289 C 13.154 6.301 13.18 6.309 13.207 6.313 C 13.334 6.33 13.424 6.447 13.407 6.574 L 13.401 6.615 L 13.382 6.761 C 13.371 6.842 13.336 6.919 13.281 6.981 L 12.774 7.555 C 12.736 7.597 12.708 7.647 12.69 7.7 L 12.421 8.514 C 12.412 8.541 12.4 8.568 12.386 8.593 L 12.063 9.148 C 12.043 9.181 12.029 9.216 12.019 9.253 L 11.839 9.95 L 11.641 10.443 C 11.622 10.489 11.612 10.538 11.611 10.588 L 11.599 11.083 C 11.598 11.104 11.599 11.124 11.602 11.145 L 11.62 11.289 L 11.641 11.465 L 11.646 11.489 C 11.648 11.506 11.655 11.521 11.664 11.535 L 12.135 12.232 C 12.182 12.301 12.206 12.382 12.206 12.465 L 12.206 12.936 C 12.206 13.043 12.248 13.147 12.322 13.224 L 12.561 13.473 C 12.588 13.501 12.619 13.525 12.653 13.545 L 12.863 13.666 C 13.058 13.779 13.308 13.716 13.426 13.524 L 13.718 13.049 C 13.749 12.998 13.79 12.955 13.839 12.922 L 14.812 12.264 C 14.974 12.154 15.038 11.946 14.965 11.764 L 14.572 10.786 C 14.55 10.731 14.517 10.682 14.475 10.641 L 13.131 9.342 C 13.091 9.304 13.06 9.259 13.038 9.209 L 12.962 9.034 C 12.901 8.896 12.964 8.734 13.103 8.674 C 13.255 8.607 13.432 8.638 13.552 8.752 L 15.159 10.274 C 15.196 10.309 15.226 10.35 15.248 10.396 L 15.38 10.673 C 15.436 10.79 15.608 10.773 15.641 10.647 L 15.912 9.579 C 15.929 9.51 15.929 9.437 15.91 9.367 L 15.312 7.165 C 15.303 7.131 15.298 7.097 15.297 7.062 L 15.294 6.841 C 15.291 6.69 15.411 6.566 15.562 6.563 L 15.591 6.562 C 15.742 6.56 15.883 6.639 15.959 6.77 L 16.248 7.269 L 16.61 7.731 C 16.713 7.863 16.727 8.043 16.647 8.189 L 16.454 8.539 C 16.37 8.691 16.39 8.88 16.504 9.012 L 16.843 9.404 C 16.959 9.539 16.977 9.733 16.887 9.887 L 16.302 10.886 C 16.286 10.913 16.273 10.941 16.264 10.971 L 15.888 12.161 C 15.863 12.241 15.815 12.311 15.749 12.363 L 14.441 13.392 C 14.404 13.421 14.372 13.456 14.347 13.496 L 13.786 14.381 C 13.748 14.441 13.726 14.51 13.722 14.582 L 13.64 16.163 C 13.633 16.303 13.556 16.43 13.435 16.501 L 13.393 16.526 C 13.262 16.603 13.095 16.559 13.018 16.429 L 12.944 16.301 C 12.902 16.231 12.882 16.149 12.887 16.067 L 12.953 14.876 C 12.962 14.719 12.882 14.571 12.746 14.492 L 11.708 13.893 C 11.553 13.803 11.472 13.624 11.508 13.449 L 11.573 13.13 C 11.596 13.014 11.569 12.893 11.498 12.798 L 10.98 12.102 L 10.308 11.227 L 9.983 10.655 C 9.906 10.521 9.762 10.44 9.607 10.445 L 9.376 10.452 C 9.353 10.453 9.33 10.456 9.308 10.46 L 8.831 10.556 C 8.785 10.565 8.737 10.566 8.691 10.56 L 7.997 10.461 C 7.94 10.453 7.886 10.433 7.837 10.403 L 7.273 10.055 C 7.235 10.032 7.201 10.002 7.173 9.968 L 6.876 9.616 C 6.845 9.579 6.807 9.547 6.765 9.523 L 6.144 9.164 C 6.071 9.122 6.019 9.054 5.997 8.973 C 5.973 8.885 5.989 8.792 6.04 8.716 L 6.068 8.674" transform="matrix(1 0 0 1 0 0)" fill="#EBEBEB" stroke="none" />
  <path d="M 16.034 22.083 C 16.034 22.083 16.001 22.032 15.976 22.009 C 15.654 21.701 15.33 21.37 15.006 21.039 C 14.682 20.707 14.359 20.376 14.036 20.068 C 13.986 20.021 13.941 19.998 13.866 20.001 C 13.671 20.001 13.4 20.028 13.131 20.055 C 12.877 20.08 12.624 20.105 12.439 20.107 C 12.393 20.107 12.34 20.135 12.311 20.162 C 12.275 20.197 12.239 20.234 12.202 20.274 C 12.065 20.417 11.914 20.576 11.731 20.629 C 11.392 20.727 11.065 20.695 10.834 20.437 C 10.854 20.416 10.874 20.396 10.894 20.376 C 10.951 20.318 11.007 20.262 11.065 20.209 C 11.508 19.809 11.951 19.409 12.393 19.013 C 12.431 18.978 12.484 18.955 12.534 18.943 C 12.726 18.898 12.92 18.855 13.113 18.812 C 13.307 18.768 13.5 18.725 13.693 18.68 C 13.738 18.668 13.788 18.641 13.821 18.61 C 14.189 18.265 14.553 17.92 14.917 17.571 C 14.936 17.553 14.952 17.531 14.964 17.514 C 14.968 17.509 14.972 17.504 14.975 17.5 C 15.47 17.971 15.962 18.437 16.452 18.902 C 16.943 19.366 17.431 19.829 17.917 20.292 L 17.916 20.292 C 17.242 20.931 16.746 21.402 16.03 22.076 L 16.034 22.083" transform="matrix(1 0 0 1 0 0)" fill="#EBEBEB" stroke="none" />
  <path d="M 15.108 23.731 L 15.124 23.748 C 15.379 23.665 15.527 23.262 15.317 23.046 C 15.005 22.732 14.694 22.417 14.382 22.102 L 14.382 22.101 C 14.07 21.786 13.758 21.47 13.444 21.155 C 13.415 21.125 13.358 21.105 13.313 21.101 C 13.248 21.099 13.184 21.1 13.12 21.101 C 13.024 21.102 12.928 21.104 12.832 21.096 C 12.68 21.088 12.565 21.134 12.442 21.229 C 11.957 21.612 11.419 21.699 10.84 21.462 C 10.494 21.319 10.261 21.052 10.023 20.78 C 9.97 20.719 9.917 20.658 9.862 20.598 C 10.204 20.27 10.544 19.942 10.886 19.612 C 11.193 19.316 11.502 19.018 11.813 18.719 L 11.749 18.711 C 11.619 18.694 11.503 18.678 11.39 18.657 C 11.341 18.648 11.29 18.643 11.239 18.639 C 11.076 18.624 10.91 18.608 10.794 18.453 C 10.769 18.425 10.739 18.399 10.709 18.373 C 10.695 18.361 10.68 18.349 10.667 18.337 C 10.507 18.191 10.347 18.046 10.207 17.917 C 9.299 18.831 8.404 19.737 7.5 20.652 C 7.96 21.088 8.428 21.537 8.921 22.011 C 8.934 21.995 8.946 21.979 8.959 21.963 C 9.014 21.894 9.066 21.827 9.127 21.77 C 9.71 21.229 10.564 21.396 10.914 22.11 C 10.926 22.139 10.959 22.173 10.988 22.185 C 11.287 22.31 11.501 22.526 11.641 22.817 C 11.657 22.859 11.698 22.892 11.735 22.913 C 12.113 23.116 12.323 23.499 12.331 23.893 L 13.28 24.941 C 13.395 24.999 13.514 25.015 13.649 24.986 C 13.789 24.957 13.9 24.891 13.974 24.787 L 13.966 24.779 L 12.746 23.436 L 12.799 23.382 L 12.976 23.216 L 13.017 23.174 L 14.364 24.654 L 14.422 24.716 C 14.602 24.745 14.754 24.679 14.865 24.583 C 14.976 24.488 15.042 24.375 15.058 24.247 L 14.997 24.18 L 13.571 22.605 L 13.637 22.543 L 13.818 22.372 L 13.847 22.343 L 15.108 23.731" transform="matrix(1 0 0 1 0 0)" fill="#EBEBEB" stroke="none" />
  <path d="M 12.863 24.86 C 12.881 24.846 12.917 24.814 12.917 24.814 L 12.89 24.793 L 12.147 24.167 C 12.088 24.273 12.002 24.371 11.894 24.455 C 11.852 24.488 11.807 24.518 11.762 24.548 C 11.73 24.57 11.698 24.591 11.667 24.614 C 11.714 24.65 11.757 24.686 11.799 24.72 C 11.87 24.78 11.937 24.836 12.011 24.884 C 12.256 25.05 12.627 25.036 12.863 24.86" transform="matrix(1 0 0 1 0 0)" fill="#EBEBEB" stroke="none" />
  <path d="M 9.573 23.485 C 9.611 23.495 9.65 23.506 9.686 23.518 L 9.682 23.518 C 9.512 23.918 9.853 24.387 10.372 24.249 C 10.377 24.262 10.381 24.279 10.381 24.292 C 10.406 24.486 10.501 24.619 10.684 24.684 C 10.867 24.748 11.029 24.705 11.166 24.568 C 11.218 24.515 11.27 24.464 11.322 24.412 C 11.423 24.311 11.525 24.21 11.624 24.108 C 11.856 23.867 11.753 23.463 11.428 23.364 C 11.383 23.35 11.335 23.345 11.286 23.34 C 11.257 23.337 11.229 23.334 11.2 23.329 C 11.22 23.14 11.166 22.972 11.021 22.843 C 10.875 22.714 10.701 22.693 10.51 22.732 C 10.511 22.719 10.514 22.708 10.516 22.697 C 10.519 22.681 10.522 22.667 10.522 22.654 C 10.555 22.456 10.464 22.272 10.289 22.177 C 10.119 22.082 9.907 22.108 9.761 22.246 C 9.599 22.401 9.437 22.56 9.283 22.723 C 9.092 22.925 9.121 23.252 9.354 23.402 C 9.418 23.443 9.495 23.464 9.573 23.485" transform="matrix(1 0 0 1 0 0)" fill="#EBEBEB" stroke="none" />
</svg>
