<?xml version="1.0" encoding="UTF-8"?>
<!-- Reconstructed from Amplitude.Graphics.Svg.SvgAsset; not original source SVG. UI tint/material colors are not included. -->
<svg xmlns="http://www.w3.org/2000/svg" width="25" height="25" viewBox="0 0 25 25">
  <path d="M 11.459 4.026 L 12.5 2.764 L 13.541 4.026 L 13.541 23.83 L 11.459 23.83 L 11.459 4.026 M 14.879 4.026 L 15.92 2.764 L 16.961 4.026 L 16.961 23.83 L 14.879 23.83 L 14.879 4.026 M 9.08 2.764 L 8.039 4.026 L 8.039 23.83 L 10.121 23.83 L 10.121 4.026 L 9.08 2.764" transform="matrix(1 0 0 1 0 0)" fill="#FFFFFF" stroke="none" />
  <path d="M 4.457 4.026 L 5.499 2.764 L 6.54 4.026 L 6.54 10.465 L 4.457 10.465 L 4.457 4.026 M 3.332 10.465 L 3.332 7.776 L 2.291 6.514 L 1.25 7.776 L 1.25 10.465 L 3.332 10.465 M 1.25 14.628 L 3.332 14.628 L 3.332 23.83 L 1.25 23.83 L 1.25 14.628 M 4.457 14.628 L 6.54 14.628 L 6.54 23.83 L 4.458 23.83 L 4.457 14.628 M 18.46 14.628 L 18.46 23.83 L 20.543 23.83 L 20.543 14.628 L 18.46 14.628 M 21.668 14.628 L 21.668 23.83 L 23.75 23.83 L 23.75 14.628 L 21.668 14.628 M 23.75 10.465 L 21.668 10.465 L 21.668 7.776 L 22.709 6.514 L 23.75 7.776 L 23.75 10.465 M 20.543 10.465 L 18.46 10.465 L 18.46 4.026 L 19.501 2.764 L 20.543 4.026 L 20.543 10.465 M 1.25 11.505 L 6.54 11.505 L 6.54 13.588 L 1.25 13.588 L 1.25 11.505 M 23.75 11.505 L 18.46 11.505 L 18.46 13.588 L 23.75 13.588 L 23.75 11.505" transform="matrix(1 0 0 1 0 0)" fill="#9D9D9D" stroke="none" />
</svg>
