<?xml version="1.0" encoding="UTF-8"?>
<!-- Reconstructed from Amplitude.Graphics.Svg.SvgAsset; not original source SVG. UI tint/material colors are not included. -->
<svg xmlns="http://www.w3.org/2000/svg" width="25" height="25" viewBox="0 0 25 25">
  <path d="M 21.224 11.605 C 21.38 11.661 21.341 11.892 21.176 11.896 L 21.176 11.893 C 20.79 11.904 20.402 11.865 20.027 11.772 C 19.438 11.625 19.027 11.422 19.027 11.422 C 18.113 11.05 17.28 10.542 16.48 10.053 C 16.408 10.009 16.336 9.965 16.264 9.921 C 15.398 9.389 14.56 8.885 13.697 8.54 C 13.602 8.501 13.505 8.465 13.409 8.43 C 13.318 8.397 13.256 8.521 13.336 8.574 C 13.617 8.761 13.875 8.982 14.101 9.232 C 13.673 9.413 13.375 9.833 13.375 10.326 C 13.375 10.983 13.904 11.516 14.559 11.516 C 14.757 11.516 14.941 11.468 15.103 11.383 L 15.103 11.387 C 15.13 11.573 15.143 11.759 15.143 11.949 C 15.143 13.282 14.498 14.463 13.504 15.199 C 13.504 15.2 13.502 15.201 13.501 15.202 C 13.449 15.241 13.395 15.278 13.341 15.315 C 13.292 15.347 13.221 15.391 13.171 15.421 C 13.124 15.449 13.049 15.492 13.001 15.517 C 12.965 15.536 12.874 15.583 12.837 15.601 C 12.178 15.917 11.466 16.053 10.789 16.085 C 9.154 16.163 7.546 15.639 6.242 14.65 C 5.878 14.375 5.521 14.086 5.164 13.798 L 5.117 13.76 C 4.642 13.375 4.168 12.992 3.683 12.64 C 3.588 12.571 3.673 12.423 3.78 12.471 C 4.559 12.816 5.295 13.274 6.023 13.726 L 6.036 13.735 L 6.043 13.739 C 6.609 14.091 7.17 14.44 7.741 14.73 C 7.907 14.806 8.065 14.607 7.951 14.463 C 7.404 13.774 7.077 12.902 7.077 11.951 C 7.077 10.686 7.655 9.558 8.56 8.816 C 8.693 8.708 8.577 8.496 8.414 8.545 C 7.551 8.889 6.714 9.396 5.848 9.926 C 5.781 9.967 5.714 10.008 5.647 10.049 C 4.843 10.541 4.005 11.053 3.085 11.427 C 2.271 11.762 1.376 11.966 0.51 11.93 C 0.399 11.925 0.381 11.769 0.488 11.737 C 0.804 11.644 1.108 11.53 1.399 11.398 C 1.851 11.191 2.276 10.942 2.682 10.662 C 3.28 10.253 3.844 9.788 4.421 9.311 C 4.629 9.14 4.838 8.968 5.051 8.796 C 5.854 8.145 6.727 7.501 7.74 7.017 C 8.247 6.774 8.787 6.583 9.345 6.449 C 9.905 6.321 10.483 6.255 11.056 6.25 C 11.629 6.256 12.206 6.319 12.766 6.45 C 13.325 6.587 13.865 6.777 14.371 7.019 C 15.385 7.501 16.257 8.147 17.061 8.797 C 17.264 8.962 17.464 9.127 17.662 9.29 C 18.25 9.775 18.823 10.248 19.431 10.664 C 19.837 10.943 20.262 11.191 20.714 11.398 C 20.88 11.473 21.05 11.542 21.224 11.605 M 11.112 14.302 C 12.375 14.302 13.399 13.276 13.399 12.009 C 13.399 10.743 12.375 9.716 11.112 9.716 C 9.848 9.716 8.825 10.743 8.825 12.009 C 8.825 13.276 9.848 14.302 11.112 14.302 M 15.517 14.656 L 17.648 16.328 C 17.776 16.426 17.973 16.328 17.973 16.17 L 17.973 15.059 L 21.499 14.499 L 17.973 13.909 L 17.973 12.838 C 17.973 12.661 17.776 12.572 17.648 12.68 L 15.517 14.342 C 15.409 14.42 15.409 14.578 15.517 14.656 M 24.496 17.336 L 22.096 19.014 C 21.954 19.111 21.729 19.022 21.729 18.858 L 21.729 17.73 L 17.762 17.188 L 21.729 16.571 L 21.729 15.524 C 21.729 15.353 21.946 15.257 22.096 15.368 L 24.496 17.032 C 24.613 17.113 24.613 17.262 24.496 17.351 L 24.496 17.336" transform="matrix(1 0 0 1 0 0)" fill="#FFFFFF" stroke="none" />
</svg>
