<?xml version="1.0" encoding="UTF-8"?>
<!-- Reconstructed from Amplitude.Graphics.Svg.SvgAsset; not original source SVG. UI tint/material colors are not included. -->
<svg xmlns="http://www.w3.org/2000/svg" width="25" height="25" viewBox="0 0 25 25">
  <path d="M 16.43 12.132 C 16.065 12.552 15.76 12.972 15.567 13.482 L 13.811 13.912 C 14.399 13.162 15.151 12.292 15.344 12.082 C 15.801 11.561 15.171 10.401 14.745 10.511 C 14.745 10.511 10.267 11.271 10.226 11.321 C 9.506 12.032 10.115 15.133 10.166 15.313 L 9.252 16.363 L 8.338 15.313 C 8.379 15.133 8.988 12.032 8.277 11.321 C 8.186 11.231 3.647 10.301 3.647 10.301 C 3.18 10.191 2.815 11.571 3.221 12.092 L 3.25 12.126 C 3.743 12.699 5.505 14.75 5.475 15.103 C 5.455 15.29 5.435 15.555 5.421 15.747 C 5.413 15.854 5.407 15.938 5.404 15.973 C 5.377 16.06 5.182 16.2 5.078 16.274 L 5.078 16.274 C 5.062 16.286 5.049 16.295 5.038 16.303 C 4.112 17.053 4.253 17.885 4.302 18.172 L 4.307 18.204 C 4.429 18.744 6.053 20.175 6.074 20.185 L 6.074 23.416 C 4.063 19.945 2.256 18.544 2.256 18.544 C 2.256 18.527 2.263 18.509 2.271 18.489 C 2.277 18.475 2.282 18.461 2.287 18.444 C 2.855 17.644 3.221 16.463 3.221 15.143 C 3.221 13.682 2.784 12.952 2.084 12.152 C 2.085 12.131 2.086 12.097 2.087 12.049 C 2.11 11.287 2.234 7.201 4.662 4.809 C 4.672 4.801 4.691 4.785 4.718 4.762 L 4.718 4.762 L 4.718 4.762 C 4.805 4.688 4.977 4.54 5.231 4.358 L 7.891 7.059 L 7.048 1.047 C 7.048 1.047 7.922 0.417 9.272 0.417 C 10.328 0.417 11.496 1.047 11.496 1.047 L 10.663 7.059 L 13.303 4.358 C 13.648 4.588 13.851 4.769 13.892 4.809 C 16.226 7.118 16.415 11.175 16.455 12.02 C 16.457 12.068 16.459 12.105 16.461 12.132 L 16.43 12.132 M 17.294 24.409 C 17.294 24.409 17.254 24.454 17.234 24.474 C 16.974 24.724 16.564 24.744 16.294 24.509 C 16.212 24.439 16.138 24.36 16.059 24.276 L 16.059 24.275 L 16.059 24.275 C 16.013 24.226 15.965 24.175 15.914 24.124 C 15.948 24.092 15.983 24.061 16.019 24.03 L 16.019 24.03 C 16.068 23.988 16.118 23.945 16.164 23.898 C 16.284 23.778 16.379 23.638 16.444 23.488 L 17.264 24.379 L 17.294 24.409 M 19.93 22.728 L 19.95 22.748 C 20.261 22.648 20.441 22.163 20.186 21.903 C 19.805 21.525 19.426 21.146 19.047 20.767 C 18.667 20.387 18.287 20.007 17.905 19.627 C 17.87 19.592 17.8 19.567 17.745 19.562 C 17.667 19.56 17.589 19.561 17.51 19.562 C 17.393 19.564 17.276 19.566 17.159 19.557 C 16.974 19.547 16.834 19.602 16.684 19.717 C 16.094 20.177 15.439 20.282 14.733 19.997 C 14.312 19.825 14.028 19.503 13.739 19.176 L 13.739 19.176 L 13.739 19.175 C 13.674 19.102 13.61 19.029 13.543 18.957 C 13.959 18.562 14.373 18.167 14.789 17.771 L 14.789 17.77 L 14.79 17.77 C 15.165 17.413 15.54 17.056 15.919 16.696 L 15.84 16.685 C 15.682 16.665 15.541 16.646 15.404 16.621 C 15.344 16.61 15.282 16.604 15.22 16.599 C 15.021 16.581 14.819 16.562 14.678 16.375 C 14.648 16.342 14.611 16.31 14.574 16.279 L 14.574 16.279 C 14.557 16.265 14.539 16.25 14.523 16.235 C 14.328 16.06 14.133 15.885 13.963 15.73 C 12.858 16.831 11.767 17.921 10.667 19.022 C 11.227 19.547 11.797 20.087 12.397 20.657 C 12.413 20.638 12.428 20.619 12.443 20.601 L 12.443 20.6 L 12.443 20.6 L 12.443 20.6 C 12.51 20.516 12.574 20.437 12.648 20.367 C 13.358 19.717 14.398 19.917 14.823 20.777 C 14.838 20.812 14.878 20.852 14.913 20.867 C 15.279 21.017 15.539 21.277 15.709 21.628 C 15.729 21.678 15.779 21.718 15.824 21.743 C 16.284 21.988 16.539 22.448 16.549 22.923 L 17.705 24.184 C 17.845 24.254 17.99 24.274 18.155 24.239 C 18.325 24.204 18.46 24.124 18.55 23.999 L 18.54 23.989 L 17.054 22.373 L 17.119 22.308 L 17.334 22.108 L 17.384 22.058 L 19.025 23.838 L 19.095 23.914 C 19.315 23.949 19.5 23.868 19.635 23.753 C 19.77 23.638 19.85 23.503 19.87 23.348 L 19.795 23.268 L 18.06 21.372 L 18.14 21.297 L 18.36 21.092 L 18.395 21.057 L 19.93 22.728 M 20.891 21.097 C 20.891 21.097 20.851 21.032 20.821 21.002 C 20.431 20.61 20.039 20.187 19.648 19.764 C 19.256 19.342 18.865 18.919 18.475 18.526 C 18.415 18.466 18.36 18.436 18.27 18.441 C 18.033 18.441 17.706 18.476 17.381 18.51 C 17.073 18.542 16.768 18.574 16.544 18.576 C 16.489 18.576 16.424 18.611 16.389 18.646 C 16.346 18.69 16.303 18.739 16.258 18.788 C 16.092 18.972 15.909 19.175 15.689 19.242 C 15.279 19.367 14.883 19.327 14.603 18.997 C 14.628 18.971 14.652 18.945 14.676 18.919 C 14.745 18.846 14.813 18.773 14.883 18.706 L 14.884 18.706 C 15.419 18.196 15.954 17.686 16.489 17.181 C 16.534 17.136 16.599 17.106 16.659 17.091 C 16.892 17.033 17.126 16.978 17.359 16.923 L 17.36 16.923 C 17.594 16.868 17.827 16.813 18.06 16.756 C 18.115 16.741 18.175 16.706 18.215 16.666 C 18.66 16.225 19.1 15.785 19.54 15.34 C 19.563 15.318 19.583 15.289 19.597 15.268 L 19.597 15.268 C 19.602 15.261 19.607 15.255 19.61 15.25 C 20.208 15.85 20.803 16.445 21.395 17.037 L 21.396 17.038 L 21.397 17.039 C 21.99 17.632 22.579 18.222 23.167 18.812 C 22.351 19.627 21.751 20.227 20.886 21.087 L 20.891 21.097 M 13.069 23.034 C 13.106 23.044 13.142 23.054 13.178 23.066 L 13.174 23.066 C 13.01 23.452 13.338 23.904 13.84 23.771 C 13.844 23.784 13.848 23.8 13.848 23.813 C 13.872 23.999 13.964 24.128 14.141 24.19 C 14.317 24.252 14.473 24.211 14.606 24.078 C 14.656 24.028 14.706 23.978 14.756 23.928 C 14.854 23.83 14.951 23.733 15.047 23.634 C 15.272 23.402 15.171 23.012 14.858 22.917 C 14.815 22.904 14.769 22.899 14.721 22.894 C 14.694 22.891 14.666 22.888 14.638 22.884 C 14.658 22.701 14.606 22.539 14.465 22.415 C 14.325 22.29 14.157 22.27 13.972 22.307 C 13.974 22.295 13.976 22.284 13.978 22.274 C 13.981 22.258 13.984 22.245 13.984 22.232 C 14.016 22.042 13.928 21.863 13.76 21.772 C 13.595 21.681 13.391 21.706 13.25 21.838 C 13.094 21.988 12.937 22.141 12.789 22.299 C 12.604 22.494 12.633 22.809 12.857 22.954 C 12.919 22.993 12.994 23.013 13.069 23.034" transform="matrix(1 0 0 1 0 0)" fill="#FFFFFF" stroke="none" />
</svg>
