<?xml version="1.0" encoding="UTF-8"?>
<!-- Reconstructed from Amplitude.Graphics.Svg.SvgAsset; not original source SVG. UI tint/material colors are not included. -->
<svg xmlns="http://www.w3.org/2000/svg" width="25" height="25" viewBox="0 0 25 25">
  <path d="M 12.5 4.879 L 14.15 7.737 L 15.644 10.324 C 14.952 9.328 13.801 8.675 12.497 8.675 C 11.214 8.675 10.08 9.306 9.385 10.274 L 10.85 7.737 L 12.5 4.879 L 5.9 8.689 L 5.9 16.311 L 9.006 10.93 C 8.789 11.41 8.668 11.943 8.668 12.504 C 8.668 14.48 10.164 16.105 12.085 16.311 L 9.209 16.311 L 5.9 16.311 L 12.5 20.121 L 19.1 16.311 L 15.783 16.311 L 12.909 16.311 C 14.829 16.105 16.326 14.48 16.326 12.504 C 16.326 11.922 16.195 11.37 15.963 10.876 L 19.1 16.311 L 19.1 8.689 L 12.5 4.879 M 12.501 10.611 C 13.546 10.611 14.394 11.459 14.394 12.504 C 14.394 13.549 13.546 14.397 12.501 14.397 C 11.456 14.397 10.608 13.549 10.608 12.504 C 10.608 11.459 11.456 10.611 12.501 10.611 M 12.497 11.419 C 12.209 11.419 11.933 11.533 11.729 11.737 C 11.526 11.94 11.411 12.216 11.411 12.504 C 11.411 12.792 11.526 13.068 11.729 13.272 C 11.933 13.475 12.209 13.589 12.497 13.589 C 12.785 13.589 13.061 13.475 13.264 13.272 C 13.468 13.068 13.582 12.792 13.582 12.504 C 13.582 12.216 13.468 11.94 13.264 11.737 C 13.061 11.533 12.785 11.419 12.497 11.419" transform="matrix(1 0 0 1 0 0)" fill="#FFFFFF" stroke="none" />
</svg>
