<?xml version="1.0" encoding="UTF-8"?>
<!-- Reconstructed from Amplitude.Graphics.Svg.SvgAsset; not original source SVG. UI tint/material colors are not included. -->
<svg xmlns="http://www.w3.org/2000/svg" width="31" height="31" viewBox="0 0 31 31">
  <path d="M 15.5 28.993 C 22.952 28.993 28.993 22.952 28.993 15.5 C 28.993 8.048 22.952 2.007 15.5 2.007 C 8.048 2.007 2.007 8.048 2.007 15.5 C 2.007 22.952 8.048 28.993 15.5 28.993 M 15.5 29.884 C 23.444 29.884 29.884 23.444 29.884 15.5 C 29.884 7.556 23.444 1.116 15.5 1.116 C 7.556 1.116 1.116 7.556 1.116 15.5 C 1.116 23.444 7.556 29.884 15.5 29.884 M 15.5 24.426 C 15.5 24.426 7.211 20.282 7.211 13.548 C 7.211 10.973 9.299 8.885 11.874 8.885 C 13.338 8.885 14.645 9.561 15.5 10.617 C 16.355 9.561 17.662 8.885 19.126 8.885 C 21.701 8.885 23.789 10.973 23.789 13.548 C 23.789 20.282 15.5 24.426 15.5 24.426 M 26.517 15.5 C 26.517 21.585 21.585 26.517 15.5 26.517 C 9.415 26.517 4.483 21.585 4.483 15.5 C 4.483 9.415 9.415 4.483 15.5 4.483 C 21.585 4.483 26.517 9.415 26.517 15.5 M 27.408 15.5 C 27.408 22.077 22.077 27.408 15.5 27.408 C 8.923 27.408 3.592 22.077 3.592 15.5 C 3.592 8.923 8.923 3.592 15.5 3.592 C 22.077 3.592 27.408 8.923 27.408 15.5" transform="matrix(1 0 0 1 0 0)" fill="#FFFFFF" stroke="none" />
</svg>
