<?xml version="1.0" encoding="UTF-8"?>
<!-- Reconstructed from Amplitude.Graphics.Svg.SvgAsset; not original source SVG. UI tint/material colors are not included. -->
<svg xmlns="http://www.w3.org/2000/svg" width="16" height="16" viewBox="0 0 16 16">
  <path d="M 7.524 2.976 C 7.674 2.516 8.326 2.516 8.476 2.976 L 9.459 6.004 C 9.526 6.21 9.718 6.35 9.935 6.35 L 13.119 6.35 C 13.603 6.35 13.804 6.969 13.412 7.254 L 10.837 9.126 C 10.662 9.253 10.588 9.479 10.655 9.685 L 11.639 12.712 C 11.789 13.173 11.261 13.556 10.87 13.271 L 8.294 11.4 C 8.119 11.273 7.881 11.273 7.706 11.4 L 5.13 13.271 C 4.739 13.556 4.211 13.173 4.361 12.712 L 5.345 9.685 C 5.412 9.479 5.338 9.253 5.163 9.126 L 2.588 7.254 C 2.196 6.969 2.397 6.35 2.881 6.35 L 6.065 6.35 C 6.282 6.35 6.474 6.21 6.541 6.004 L 7.524 2.976" transform="matrix(1 0 0 1 0 0)" fill="#000000" stroke="none" />
</svg>
