<?xml version="1.0" encoding="UTF-8"?>
<!-- Reconstructed from Amplitude.Graphics.Svg.SvgAsset and recolored from static UIMapper.Color metadata for EWShop; not original source SVG. Live UI state/material colors are not included. -->
<svg xmlns="http://www.w3.org/2000/svg" width="26" height="26" viewBox="0 0 26 26">
  <path d="M 3.175 7.327 L 13.001 1.654 L 22.827 7.327 L 22.827 18.673 L 13.001 24.346 L 3.175 18.673 L 3.175 7.327 M 13.001 0.268 L 24.027 6.634 L 24.027 19.366 L 13.001 25.732 L 1.975 19.366 L 1.975 6.634 L 13.001 0.268 M 12.125 14.112 C 11.96 14.607 11.926 15.177 12.022 15.822 L 13.505 15.822 C 13.437 15.245 13.492 14.73 13.67 14.277 C 13.863 13.824 14.11 13.398 14.412 13 C 14.714 12.602 15.023 12.21 15.339 11.826 C 15.668 11.441 15.943 11.036 16.163 10.61 C 16.383 10.171 16.492 9.683 16.492 9.148 C 16.492 8.132 16.177 7.328 15.545 6.738 C 14.927 6.147 14.096 5.852 13.052 5.852 C 12.297 5.852 11.624 6.017 11.033 6.346 C 10.457 6.662 9.949 7.067 9.509 7.562 L 10.477 8.447 C 10.793 8.077 11.15 7.788 11.548 7.582 C 11.96 7.362 12.393 7.253 12.846 7.253 C 13.505 7.253 14 7.452 14.329 7.85 C 14.673 8.235 14.844 8.701 14.844 9.251 C 14.844 9.69 14.735 10.095 14.515 10.466 C 14.295 10.837 14.027 11.208 13.711 11.579 C 13.409 11.949 13.107 12.341 12.805 12.753 C 12.517 13.165 12.29 13.618 12.125 14.112 M 11.94 19.798 C 12.173 20.031 12.462 20.148 12.805 20.148 C 13.148 20.148 13.437 20.031 13.67 19.798 C 13.917 19.551 14.041 19.242 14.041 18.871 C 14.041 18.473 13.917 18.157 13.67 17.923 C 13.437 17.676 13.148 17.553 12.805 17.553 C 12.462 17.553 12.173 17.676 11.94 17.923 C 11.706 18.157 11.59 18.473 11.59 18.871 C 11.59 19.242 11.706 19.551 11.94 19.798" transform="matrix(1 0 0 1 0 0)" fill="none" stroke="none" />
</svg>
