<?xml version="1.0" encoding="UTF-8"?>
<!-- Reconstructed from Amplitude.Graphics.Svg.SvgAsset and recolored from static UIMapper.Color metadata for EWShop; not original source SVG. Live UI state/material colors are not included. -->
<svg xmlns="http://www.w3.org/2000/svg" width="32" height="32" viewBox="0 0 32 32">
  <path d="M 9.38 25.29 C 8.91 24.7 8.53 24.04 8.26 23.35 L 3.03 23.35 C 4.16 25.31 5.68 26.96 7.43 28.21 L 9.89 25.86 C 9.71 25.68 9.55 25.49 9.39 25.29 L 9.38 25.29" transform="matrix(1 0 0 1 0 0)" fill="#FFFFFF" stroke="none" />
  <path d="M 8.09 18.52 L 2.53 8 C 1.56 10.44 1.08 12.75 1 14.9 L 8.09 18.52" transform="matrix(1 0 0 1 0 0)" fill="#FFFFFF" stroke="none" />
  <path d="M 31 14.38 C 30.87 12.38 30.39 10.25 29.5 8 L 23.82 18.53 L 31 14.38" transform="matrix(1 0 0 1 0 0)" fill="#FFFFFF" stroke="none" />
  <path d="M 7.76 20.52 L 1.06 17.11 C 1.21 18.66 1.56 20.11 2.1 21.44 L 7.8 21.44 C 7.77 21.14 7.76 20.83 7.76 20.53 L 7.76 20.52" transform="matrix(1 0 0 1 0 0)" fill="#FFFFFF" stroke="none" />
  <path d="M 11.42 27.1 L 9.14 29.28 C 10.98 30.27 12.99 30.86 15.01 31 L 15.01 28.33 C 14.06 28.23 13.13 27.97 12.27 27.56 C 11.98 27.42 11.69 27.27 11.42 27.1" transform="matrix(1 0 0 1 0 0)" fill="#FFFFFF" stroke="none" />
  <path d="M 24.14 20.59 C 24.14 20.87 24.14 21.15 24.1 21.43 L 29.92 21.43 C 30.51 19.96 30.88 18.35 31 16.61 L 24.14 20.59" transform="matrix(1 0 0 1 0 0)" fill="#FFFFFF" stroke="none" />
  <path d="M 22.51 25.3 C 22.36 25.49 22.2 25.67 22.03 25.84 L 24.54 28.25 C 26.31 26.99 27.86 25.34 28.99 23.35 L 23.63 23.35 C 23.36 24.04 22.98 24.7 22.5 25.3 L 22.51 25.3" transform="matrix(1 0 0 1 0 0)" fill="#FFFFFF" stroke="none" />
  <path d="M 19.61 27.57 C 18.79 27.95 17.91 28.2 17.01 28.32 L 17.01 31.01 C 19 30.87 20.99 30.29 22.82 29.32 L 20.5 27.09 C 20.22 27.27 19.92 27.43 19.62 27.57 L 19.61 27.57" transform="matrix(1 0 0 1 0 0)" fill="#FFFFFF" stroke="none" />
  <path d="M 17.01 21.98 L 21 21.98 L 21 20.02 L 19 20.02 L 18.98 3.51 L 16 1.01 L 13 3.51 L 13 20.02 L 11 20.02 L 11 21.98 L 15.03 21.98 L 15.03 26 L 17.01 26 L 17.01 21.98 M 15.03 20 L 15.01 4 L 16 3 L 17.01 4 L 17.01 20.01 L 15.03 20.01 L 15.03 20" transform="matrix(1 0 0 1 0 0)" fill="#FFFFFF" stroke="none" />
</svg>
