<?xml version="1.0" encoding="UTF-8"?>
<!-- Reconstructed from Amplitude.Graphics.Svg.SvgAsset and recolored from static UIMapper.Color metadata for EWShop; not original source SVG. Live UI state/material colors are not included. -->
<svg xmlns="http://www.w3.org/2000/svg" width="32" height="32" viewBox="0 0 32 32">
  <path d="M 27.41 18.06 C 26.73 19.73 25.91 20.35 25.41 20.48 C 22.97 20.27 22.58 22.31 22.58 22.31 C 22.8 20.48 25.08 18.19 25.99 17.8 C 26.07 17.77 26.06 17.63 25.98 17.61 L 25.44 17.5 C 24.92 17.39 24.38 17.48 23.97 17.81 C 22.72 18.8 21.55 20.17 21.07 20.82 C 17.7 21.38 17.14 24.06 17.28 25.33 C 17.02 26.21 16.52 26.93 16 27.47 C 15.48 26.93 14.98 26.22 14.72 25.33 C 14.86 24.06 14.3 21.38 10.93 20.82 C 10.44 20.17 9.27 18.8 8.03 17.81 C 7.62 17.48 7.07 17.39 6.56 17.5 L 6.02 17.61 C 5.94 17.63 5.93 17.76 6.01 17.8 C 6.92 18.19 9.2 20.47 9.42 22.31 C 9.42 22.31 9.03 20.27 6.59 20.48 C 6.09 20.35 5.27 19.73 4.59 18.06 C 4.1 16.87 2.89 15.26 1 16.37 C 2.01 17.12 3.79 18.71 4.06 21.24 C 4.08 21.42 4.2 21.56 4.37 21.61 C 7.3 22.37 11.13 24.57 11.02 27.89 C 12.28 28.37 14.52 29.04 16 29 C 17.48 29.04 19.72 28.37 20.98 27.89 C 20.86 24.57 24.69 22.37 27.63 21.61 C 27.8 21.57 27.92 21.42 27.94 21.24 C 28.22 18.71 29.99 17.12 31 16.37 C 29.11 15.26 27.9 16.87 27.41 18.06" transform="matrix(1 0 0 1 0 0)" fill="#FFFFFF" stroke="none" />
  <path d="M 22.03 16 C 23 15.28 24.46 14.72 26.57 14.59 C 27.88 13.14 28.11 11.2 27.96 10 C 22.72 11.46 21.81 14.36 22.03 16" transform="matrix(1 0 0 1 0 0)" fill="#FFFFFF" stroke="none" />
  <path d="M 16 13.71 C 16.944 13.71 17.71 12.944 17.71 12 C 17.71 11.056 16.944 10.29 16 10.29 C 15.056 10.29 14.29 11.056 14.29 12 C 14.29 12.944 15.056 13.71 16 13.71" transform="matrix(1 0 0 1 0 0)" fill="#FFFFFF" stroke="none" />
  <path d="M 16 16 C 18.22 16 20 14.22 20 12 C 20 9.78 18.22 8 16 8 C 13.78 8 12 9.78 12 12 C 12 14.22 13.78 16 16 16 M 16 9.33 C 17.48 9.33 18.67 10.52 18.67 12 C 18.67 13.48 17.48 14.67 16 14.67 C 14.52 14.67 13.33 13.48 13.33 12 C 13.33 10.52 14.52 9.33 16 9.33" transform="matrix(1 0 0 1 0 0)" fill="#FFFFFF" stroke="none" />
  <path d="M 9.97 16 C 10.19 14.36 9.27 11.46 4.04 10 C 3.89 11.2 4.12 13.14 5.43 14.59 C 7.54 14.72 8.99 15.28 9.97 16" transform="matrix(1 0 0 1 0 0)" fill="#FFFFFF" stroke="none" />
  <path d="M 25.67 8.04 C 26.45 6.07 25.69 4.05 24.94 3 C 21.67 6 21.68 8.55 22.35 10 C 23.07 9.28 24.13 8.59 25.66 8.04 L 25.67 8.04" transform="matrix(1 0 0 1 0 0)" fill="#FFFFFF" stroke="none" />
  <path d="M 9.64 10 C 10.32 8.55 10.32 6 7.05 3 C 6.31 4.05 5.54 6.07 6.32 8.04 C 7.85 8.59 8.91 9.27 9.63 10 L 9.64 10" transform="matrix(1 0 0 1 0 0)" fill="#FFFFFF" stroke="none" />
</svg>
