<?xml version="1.0" encoding="UTF-8"?>
<!-- Reconstructed from Amplitude.Graphics.Svg.SvgAsset and recolored from static UIMapper.Color metadata for EWShop; not original source SVG. Live UI state/material colors are not included. -->
<svg xmlns="http://www.w3.org/2000/svg" width="32" height="32" viewBox="0 0 32 32">
  <path d="M 3.17 15.22 L 4.49 17 L 5.83 15.22 C 5.94 15.07 6.07 14.94 6.22 14.83 L 8 13.47 L 6.23 12.17 C 6.07 12.06 5.94 11.92 5.82 11.77 L 4.49 10 L 3.17 11.76 C 3.05 11.92 2.91 12.06 2.76 12.17 L 1 13.47 L 2.78 14.82 C 2.93 14.93 3.06 15.07 3.17 15.22" transform="matrix(1 0 0 1 0 0)" fill="#FFFFFF" stroke="none" />
  <path d="M 6.07 28.44 C 5.93 28.27 5.81 28.12 5.7 28 C 3.35 28 2.29 28.24 0.99 29 C 1.68 30.23 3.93 30.81 7.58 31 L 8.99 31 C 7.47 30.19 6.63 29.15 6.06 28.44 L 6.07 28.44" transform="matrix(1 0 0 1 0 0)" fill="#FFFFFF" stroke="none" />
  <path d="M 25.78 14.83 C 25.93 14.94 26.06 15.08 26.17 15.23 L 27.49 17.01 L 28.83 15.23 C 28.94 15.08 29.07 14.95 29.22 14.84 L 31 13.48 L 29.23 12.18 C 29.07 12.07 28.94 11.93 28.82 11.78 L 27.49 10.01 L 26.17 11.77 C 26.05 11.93 25.91 12.07 25.76 12.18 L 24 13.48 L 25.78 14.83" transform="matrix(1 0 0 1 0 0)" fill="#FFFFFF" stroke="none" />
  <path d="M 12.25 20 C 11.71 20 11.51 21.47 11.37 22.58 C 11.25 23.59 11.12 24.65 10.87 25.35 C 10.76 24.86 10.66 24.46 10.56 24.11 C 10.12 22.44 9.96 21.85 11.25 19 C 11.71 17.99 12.25 16.48 12.25 15.5 C 12.25 15.5 12.43 14 10.87 14 C 10.87 14 10.76 16.27 9.67 17.98 C 8.74 19.44 8.09 20.27 7.66 20.81 C 7.2 21.39 7 21.64 7 22 C 7 22.5 7.05 22.94 7.11 23.39 C 7.22 24.33 7.34 25.31 7 27 C 7.9 28.45 10.26 30.17 11.75 31 C 11.75 30 12.06 29.25 12.37 28.5 C 12.68 27.75 12.99 27 12.99 26 L 12.99 24.35 C 12.99 24.35 13.02 22.46 12.99 21.31 C 12.99 21.31 13.08 20 12.25 20" transform="matrix(1 0 0 1 0 0)" fill="#FFFFFF" stroke="none" />
  <path d="M 25.93 28.44 C 25.36 29.15 24.52 30.19 23 31 L 24.41 31 C 28.06 30.81 30.31 30.23 31 29 C 29.7 28.24 28.65 28 26.29 28 C 26.18 28.12 26.06 28.27 25.92 28.44 L 25.93 28.44" transform="matrix(1 0 0 1 0 0)" fill="#FFFFFF" stroke="none" />
  <path d="M 19.51 10.74 L 24 8.45 L 19.53 6.26 C 19.19 6.09 18.9 5.83 18.7 5.5 L 15.98 1 L 13.3 5.49 C 13.1 5.82 12.81 6.09 12.46 6.26 L 7.99 8.45 L 12.48 10.74 C 12.82 10.91 13.1 11.17 13.29 11.5 L 15.98 16 L 18.7 11.49 C 18.89 11.17 19.17 10.91 19.5 10.74 L 19.51 10.74" transform="matrix(1 0 0 1 0 0)" fill="#FFFFFF" stroke="none" />
  <path d="M 25 27 C 24.66 25.31 24.78 24.33 24.89 23.39 C 24.94 22.94 25 22.5 25 22 C 25 21.64 24.8 21.39 24.34 20.81 C 23.91 20.27 23.26 19.44 22.33 17.98 C 21.24 16.26 21.13 14 21.13 14 C 19.57 14 19.75 15.5 19.75 15.5 C 19.75 16.48 20.29 17.99 20.75 19 C 22.04 21.84 21.88 22.43 21.44 24.11 C 21.35 24.47 21.24 24.87 21.13 25.35 C 20.88 24.65 20.75 23.59 20.63 22.58 C 20.49 21.47 20.29 20 19.75 20 C 18.92 20 19.01 21.31 19.01 21.31 C 18.98 22.46 19.01 24.35 19.01 24.35 L 19.01 26 C 19.01 27 19.32 27.75 19.63 28.5 C 19.94 29.25 20.25 30 20.25 31 C 21.74 30.17 24.1 28.45 25 27" transform="matrix(1 0 0 1 0 0)" fill="#FFFFFF" stroke="none" />
</svg>
