<?xml version="1.0" encoding="UTF-8"?>
<!-- Reconstructed from Amplitude.Graphics.Svg.SvgAsset and recolored from static UIMapper.Color metadata for EWShop; not original source SVG. Live UI state/material colors are not included. -->
<svg xmlns="http://www.w3.org/2000/svg" width="16" height="16" viewBox="0 0 16 16">
  <path d="M 7 0 C 7.553 0 8 0.447 8 1 L 8 4.5 L 6 4.5 L 6 1 C 6 0.447 6.447 0 7 0 M 3 2 C 3 1.447 3.447 1 4 1 C 4.553 1 5 1.447 5 2 L 5 4.5 L 3 4.5 L 3 2 M 9 2 C 9 1.447 9.447 1 10 1 C 10.553 1 11 1.447 11 2 L 11 5 C 11 5.553 10.553 6 10 6 C 9.447 6 9 5.553 9 5 L 9 2 M 12 4 C 12 3.447 12.447 3 13 3 C 13.553 3 14 3.447 14 4 L 14 6 C 14 6.553 13.553 7 13 7 C 12.447 7 12 6.553 12 6 L 12 4 M 9 6.75 L 9 6.731 C 9.294 6.9 9.634 7 10 7 C 10.413 7 10.794 6.875 11.113 6.663 C 11.384 7.441 12.128 8 13 8 C 13.366 8 13.706 7.903 14 7.731 L 14 8 C 14 9.634 13.216 11.088 12 12 L 12 15 C 12 15.553 11.553 16 11 16 L 6 16 C 5.447 16 5 15.553 5 15 L 5 12.55 C 4.459 12.303 3.963 11.963 3.534 11.534 L 3.172 11.172 C 2.422 10.422 2 9.403 2 8.344 L 2 7.5 C 2 6.397 2.897 5.5 4 5.5 L 6.75 5.5 C 7.441 5.5 8 6.059 8 6.75 C 8 7.441 7.441 8 6.75 8 L 5 8 C 4.725 8 4.5 8.225 4.5 8.5 C 4.5 8.775 4.725 9 5 9 L 6.75 9 C 7.994 9 9 7.994 9 6.75" transform="matrix(1 0 0 1 0 0)" fill="#FFFFFF" stroke="none" />
</svg>
