<?xml version="1.0" encoding="UTF-8"?>
<!-- Reconstructed from Amplitude.Graphics.Svg.SvgAsset and recolored from static UIMapper.Color metadata for EWShop; not original source SVG. Live UI state/material colors are not included. -->
<svg xmlns="http://www.w3.org/2000/svg" width="57" height="57" viewBox="0 0 57 57">
  <path d="M 28.64 45.722 C 27.457 44.323 23.866 40.106 23.255 39.362 C 23.164 39.251 23.104 39.07 23.104 38.919 C 23.104 36.121 23.104 33.334 23.104 30.536 C 23.104 30.395 23.144 30.244 23.205 30.123 C 23.666 29.238 28.55 20.171 28.59 20.11 C 28.64 20.181 32.01 26.501 33.645 29.62 C 33.755 29.832 33.826 30.103 33.826 30.345 C 33.836 33.314 33.836 36.282 33.846 39.251 C 33.846 39.472 33.796 39.643 33.645 39.825 C 32.01 41.757 28.701 45.681 28.65 45.722 L 28.64 45.722" transform="matrix(1 0 0 1 0 0)" fill="#FFFFFF" stroke="none" />
  <path d="M 23.114 51.8 L 23.114 49.023 L 33.806 49.023 L 33.806 51.8 L 23.114 51.8" transform="matrix(1 0 0 1 0 0)" fill="#FFFFFF" stroke="none" />
  <path d="M 23.114 47.634 L 23.114 41.928 C 24.769 43.85 26.374 45.722 28.029 47.634 L 23.114 47.634" transform="matrix(1 0 0 1 0 0)" fill="#FFFFFF" stroke="none" />
  <path d="M 28.931 47.634 C 30.546 45.732 33.796 41.908 33.796 41.908 L 33.755 47.634 C 33.755 47.634 29.022 47.634 28.921 47.634 L 28.931 47.634" transform="matrix(1 0 0 1 0 0)" fill="#FFFFFF" stroke="none" />
  <path d="M 22.282 19.265 L 22.282 27.215 L 21.098 29.218 L 21.068 29.882 C 21.078 36.896 21.078 43.92 21.078 50.945 L 21.078 51.83 L 18.14 51.83 L 18.14 27.316 C 18.14 25.484 18.631 23.804 19.554 22.234 C 20.206 21.127 21.068 20.201 22.071 19.416 C 22.121 19.376 22.282 19.265 22.282 19.265" transform="matrix(1 0 0 1 0 0)" fill="#FFFFFF" stroke="none" />
  <path d="M 34.718 19.265 L 34.718 27.215 L 35.902 29.218 L 35.932 29.882 C 35.922 36.896 35.922 43.92 35.922 50.945 L 35.922 51.83 L 38.86 51.83 L 38.86 27.316 C 38.86 25.484 38.369 23.804 37.446 22.234 C 36.794 21.127 35.932 20.201 34.929 19.416 C 34.879 19.376 34.718 19.265 34.718 19.265" transform="matrix(1 0 0 1 0 0)" fill="#FFFFFF" stroke="none" />
  <path d="M 41.829 50.602 L 41.829 48.942 L 45.42 48.942 L 45.42 46.738 L 41.809 46.738 C 41.809 46.738 41.799 32.579 41.809 25.685 C 41.809 22.827 40.796 20.362 38.951 18.218 C 38.178 17.323 37.286 16.558 36.293 15.924 C 36.132 15.823 36.072 15.713 36.072 15.532 C 36.082 14.394 36.072 13.267 36.082 12.14 C 36.082 11.929 36.032 11.758 35.912 11.577 C 35.531 11.053 28.59 1.081 28.59 1.081 L 28.57 1.05 C 28.57 1.05 28.52 1 28.5 1 C 28.48 1 28.46 1 28.43 1.05 L 28.41 1.081 C 28.41 1.081 21.469 11.053 21.088 11.577 C 20.968 11.758 20.918 11.929 20.918 12.14 C 20.928 13.267 20.918 14.394 20.928 15.532 C 20.928 15.713 20.868 15.823 20.707 15.924 C 19.714 16.558 18.822 17.323 18.049 18.218 C 16.204 20.362 15.191 22.827 15.191 25.685 C 15.201 32.579 15.191 46.738 15.191 46.738 L 11.581 46.738 L 11.581 48.942 L 15.171 48.942 L 15.171 50.602 L 8 50.602 L 8 54.99 C 8.08 54.99 8.13 54.99 8.191 55 C 10.618 55.01 48.92 54.99 49 54.99 L 49 50.602 L 41.829 50.602 M 39.793 52.394 C 39.793 52.649 39.666 52.776 39.412 52.776 C 35.771 52.786 21.229 52.786 17.588 52.776 C 17.334 52.776 17.207 52.649 17.207 52.394 C 17.207 43.971 17.257 26.028 17.357 25.494 C 17.909 22.415 19.514 20.01 22.071 18.239 C 22.222 18.138 22.282 18.027 22.282 17.836 C 22.272 16.166 22.282 14.495 22.272 12.814 C 22.262 12.563 22.342 12.362 22.482 12.16 C 22.773 11.748 23.365 10.902 23.365 10.902 L 28.43 3.687 C 28.43 3.687 28.46 3.637 28.5 3.627 C 28.54 3.637 28.57 3.687 28.57 3.687 L 33.635 10.902 C 33.635 10.902 34.227 11.748 34.518 12.16 C 34.658 12.362 34.738 12.563 34.728 12.814 C 34.718 14.495 34.728 16.166 34.718 17.836 C 34.718 18.027 34.778 18.138 34.929 18.239 C 37.486 20.01 39.091 22.415 39.643 25.494 C 39.743 26.028 39.793 43.971 39.793 52.394" transform="matrix(1 0 0 1 0 0)" fill="#FFFFFF" stroke="none" />
  <path d="M 33.786 13.106 L 33.786 25.484 L 28.51 15.673 L 28.5 15.673 L 23.225 25.484 L 23.225 13.106 L 28.5 5.368 L 33.786 13.106" transform="matrix(1 0 0 1 0 0)" fill="#FFFFFF" stroke="none" />
</svg>
