<?xml version="1.0" encoding="UTF-8"?>
<!-- Reconstructed from Amplitude.Graphics.Svg.SvgAsset and recolored from static UIMapper.Color metadata for EWShop; not original source SVG. Live UI state/material colors are not included. -->
<svg xmlns="http://www.w3.org/2000/svg" width="128" height="128" viewBox="0 0 128 128">
  <path d="M 39.002 7.362 L 34.242 13.735 C 34.242 13.735 34.611 15.464 35.22 18.336 C 31.839 16.503 28.756 16.202 26.067 17.029 C 26.064 17.03 26.062 17.031 26.06 17.031 C 16.374 19.891 11.744 37.314 16.578 50.476 C 22.055 65.386 36.499 69.441 46.087 79.306 C 46.9 80.334 47.792 81.561 48.707 82.865 C 49.491 86.05 51.173 88.297 53.177 89.88 C 53.304 90.09 53.441 90.273 53.586 90.436 C 53.653 90.549 53.716 90.666 53.783 90.779 L 53.341 90.779 L 49.213 90.779 C 47.829 90.779 46.707 92.076 46.707 93.673 C 46.707 95.274 47.829 96.571 49.213 96.571 L 49.613 96.571 C 48.069 97.215 46.958 98.909 46.958 100.916 L 44.953 115.976 C 44.953 118.535 46.745 120.612 48.961 120.612 L 56.479 120.612 C 56.34 120.618 56.217 120.638 56.072 120.638 L 79.039 120.638 C 81.254 120.638 83.047 118.563 83.047 116.005 L 81.042 100.942 C 81.042 98.936 79.933 97.241 78.389 96.597 L 78.787 96.597 C 80.171 96.597 81.293 95.303 81.293 93.701 C 81.293 92.105 80.171 90.806 78.787 90.806 L 74.659 90.806 L 74.044 90.806 C 74.338 90.604 74.592 90.286 74.823 89.906 C 76.988 88.196 78.792 85.726 79.477 82.116 C 79.493 82.038 79.511 81.933 79.527 81.851 C 79.566 81.803 79.609 81.76 79.647 81.711 C 80.396 80.865 81.152 80.044 81.913 79.28 C 91.501 69.414 105.945 65.36 111.422 50.449 C 116.994 35.277 109.988 14.453 97.162 16.791 C 95.767 17.031 94.305 17.535 92.78 18.362 C 93.389 15.49 93.758 13.761 93.758 13.761 L 93.747 13.746 C 93.747 13.746 93.75 13.735 93.75 13.735 L 88.991 7.362 L 65.059 7.362 L 62.932 7.362 L 39.002 7.362 M 28.308 23.69 C 30.208 23.539 32.458 24.308 35.056 26.321 C 35.744 26.855 36.418 26.983 37.03 26.859 C 37.031 26.859 37.032 26.859 37.032 26.859 C 39.321 37.666 42.475 52.659 45.002 64.823 C 45.371 66.6 45.834 68.762 46.166 70.374 C 43.23 68.003 40.072 65.893 36.901 63.775 C 31.796 60.364 26.886 56.731 23.558 50.964 C 18.851 42.807 20.001 26.628 26.892 24.011 C 26.953 23.99 27.014 23.968 27.076 23.948 C 27.219 23.899 27.365 23.858 27.513 23.821 C 27.773 23.762 28.034 23.711 28.308 23.69 L 28.308 23.69 M 99.578 23.69 C 107.812 24.344 109.479 42.263 104.442 50.99 C 101.114 56.757 96.204 60.391 91.099 63.801 C 87.928 65.92 84.77 68.03 81.834 70.4 C 84.437 57.769 88.343 39.275 90.968 26.885 C 91.263 26.928 91.571 26.908 91.889 26.815 C 92.233 26.735 92.586 26.572 92.944 26.294 C 94.435 25.139 95.807 24.406 97.068 24.009 C 97.203 23.969 97.342 23.917 97.475 23.884 C 97.55 23.865 97.623 23.854 97.698 23.836 C 98.358 23.695 98.986 23.643 99.578 23.69" transform="matrix(1 0 0 1 0 0)" fill="#FFFFFF" stroke="none" />
</svg>
