<?xml version="1.0" encoding="UTF-8"?>
<!-- Reconstructed from Amplitude.Graphics.Svg.SvgAsset and recolored from static UIMapper.Color metadata for EWShop; not original source SVG. Live UI state/material colors are not included. -->
<svg xmlns="http://www.w3.org/2000/svg" width="57" height="57" viewBox="0 0 57 57">
  <path d="M 47.78 28.52 C 41.323 35 34.906 41.439 28.51 47.867 C 22.134 41.449 15.718 34.99 9.301 28.541 C 15.707 22.082 22.124 15.622 28.52 9.173 C 34.906 15.592 41.333 22.041 47.78 28.52 M 12.59 28.531 C 12.671 28.612 20.424 36.398 20.626 36.52 C 27.574 40.713 32.27 34.233 36.941 30.112 C 35.845 36.34 30.192 40.652 23.885 39.867 C 25.454 41.439 27.002 43 28.52 44.52 C 33.803 39.194 39.117 33.847 44.43 28.49 C 44.4 28.449 36.263 20.265 36.141 20.194 C 29.327 16.346 24.684 22.8 20.12 26.745 C 20.978 20.565 26.838 16.354 32.933 16.959 C 31.465 15.49 29.978 13.99 28.52 12.52 C 23.247 17.816 17.934 23.153 12.6 28.51 L 12.59 28.531" transform="matrix(1 0 0 1 0 0)" fill="none" stroke="none" />
  <path d="M 36.941 28.541 C 34.618 29.869 32.242 31.738 29.512 32.051 C 27.933 32.235 26.395 32.051 24.988 31.316 C 23.349 30.459 21.76 29.49 20.1 28.551 C 21.425 27.615 22.919 26.842 24.34 26.061 C 27.124 24.53 29.927 24.53 32.71 26.061 C 34.139 26.846 35.569 27.66 36.941 28.541" transform="matrix(1 0 0 1 0 0)" fill="none" stroke="none" />
  <path d="M 57 25.908 L 48.924 25.908 L 28.5 5.326 L 8.066 25.908 L 0 25.908 L 3.674 23.714 L 6.123 23.714 C 6.123 23.714 8.046 21.836 8.137 21.724 L 4.473 21.724 L 7.398 19.643 L 10.809 19.643 C 10.951 19.622 27.437 3.081 28.47 2.051 C 28.48 2.04 28.49 2.03 28.5 2.03 L 28.52 2.051 C 29.553 3.081 46.039 19.622 46.181 19.653 L 49.592 19.653 L 52.527 21.724 L 48.853 21.724 C 48.944 21.836 50.867 23.714 50.867 23.714 L 53.316 23.714 L 57 25.908" transform="matrix(1 0 0 1 0 0)" fill="none" stroke="none" />
  <path d="M 0 31.122 L 8.076 31.122 L 28.5 51.704 L 48.934 31.122 L 57 31.122 L 53.326 33.316 L 50.877 33.316 C 50.877 33.316 48.954 35.194 48.863 35.306 L 52.527 35.306 L 49.602 37.387 L 46.191 37.387 C 46.049 37.408 29.563 53.949 28.53 54.979 C 28.52 54.989 28.51 55 28.5 55 L 28.48 54.979 C 27.447 53.949 10.961 37.408 10.819 37.377 L 7.408 37.377 L 4.473 35.306 L 8.147 35.306 C 8.056 35.194 6.133 33.316 6.133 33.316 L 3.684 33.316 L 0 31.122" transform="matrix(1 0 0 1 0 0)" fill="none" stroke="none" />
</svg>
