<?xml version="1.0" encoding="UTF-8"?>
<!-- Reconstructed from Amplitude.Graphics.Svg.SvgAsset and recolored from static UIMapper.Color metadata for EWShop; not original source SVG. Live UI state/material colors are not included. -->
<svg xmlns="http://www.w3.org/2000/svg" width="57" height="57" viewBox="0 0 57 57">
  <path d="M 54.003 24.818 C 50.219 28.471 44.613 32.568 39.502 33.615 L 43.869 29.317 C 44.627 28.809 38.171 29.766 38.132 30.391 C 36.424 32.735 34.11 34.473 32.366 36.718 C 33.282 37.654 34.595 36.683 35.944 36.627 C 35.944 36.627 33.005 39.811 32.366 40.353 C 33.449 41.345 34.492 40.392 35.884 40.222 C 35.884 40.222 34.345 42.813 33.045 44.48 C 33.576 46.044 32.903 48.753 31.836 50.003 C 31.254 49.717 30.787 46.426 30.737 46.448 C 31.236 44.45 29.138 46.669 29.927 44.962 C 29.822 44.539 28.815 47.054 28.698 44.5 C 28.496 44.365 27.629 47.469 27.329 44.54 C 26.993 44.428 27.114 47.04 26.369 45.314 C 23.851 55.054 25.73 47.131 20.623 41.257 C 21.402 41.056 22.372 41.327 23.071 41.709 C 25.555 42.028 19.988 37.157 20.053 37.059 C 21.021 37.208 23.411 38.263 24.011 37.36 C 22.242 35.141 19.973 33.173 18.284 30.873 C 9.619 28.433 13.217 30.05 17.274 34.589 C 11.328 33.956 8.39 27.73 2.873 25.661 C -0.795 22.639 8.24 26.595 8.959 27.449 C 11.658 28.433 14.406 25.932 12.547 23.342 C 11.988 21.725 9.179 20.731 9.429 19.104 C 12.367 19.566 15.875 25.691 19.043 22.297 C 20.083 19.716 16.805 17.417 17.254 15.177 C 19.363 16.071 24.71 25.762 25.879 19.536 C 25.999 15.931 26.739 -1.563 28.098 12.205 C 29.737 32.56 37.883 11.964 39.032 15.72 C 37.173 18.311 34.654 23.944 40.211 22.98 C 42.53 22.297 44.279 18.973 46.618 19.014 C 47.167 20.66 38.322 24.527 42.3 27.78 C 44.759 29.226 53.044 22.97 54.003 24.818" transform="matrix(1 0 0 1 0 0)" fill="#FFFFFF" stroke="none" />
</svg>
