<?xml version="1.0" encoding="UTF-8"?>
<!-- Reconstructed from Amplitude.Graphics.Svg.SvgAsset and recolored from static UIMapper.Color metadata for EWShop; not original source SVG. Live UI state/material colors are not included. -->
<svg xmlns="http://www.w3.org/2000/svg" width="44" height="44" viewBox="0 0 44 44">
  <path d="M 19.76 26.872 C 19.592 25.744 19.652 24.748 19.94 23.884 C 20.228 23.02 20.624 22.228 21.128 21.508 C 21.656 20.788 22.184 20.104 22.712 19.456 C 23.264 18.808 23.732 18.16 24.116 17.512 C 24.5 16.864 24.692 16.156 24.692 15.388 C 24.692 14.428 24.392 13.612 23.792 12.94 C 23.216 12.244 22.352 11.896 21.2 11.896 C 20.408 11.896 19.652 12.088 18.932 12.472 C 18.236 12.832 17.612 13.336 17.06 13.984 L 15.368 12.436 C 16.136 11.572 17.024 10.864 18.032 10.312 C 19.064 9.736 20.24 9.448 21.56 9.448 C 23.384 9.448 24.836 9.964 25.916 10.996 C 27.02 12.028 27.572 13.432 27.572 15.208 C 27.572 16.144 27.38 16.996 26.996 17.764 C 26.612 18.508 26.132 19.216 25.556 19.888 C 25.004 20.56 24.464 21.244 23.936 21.94 C 23.408 22.636 22.976 23.38 22.64 24.172 C 22.328 24.964 22.232 25.864 22.352 26.872 L 19.76 26.872 M 21.128 34.432 C 20.528 34.432 20.024 34.228 19.616 33.82 C 19.208 33.388 19.004 32.848 19.004 32.2 C 19.004 31.504 19.208 30.952 19.616 30.544 C 20.024 30.112 20.528 29.896 21.128 29.896 C 21.728 29.896 22.232 30.112 22.64 30.544 C 23.072 30.952 23.288 31.504 23.288 32.2 C 23.288 32.848 23.072 33.388 22.64 33.82 C 22.232 34.228 21.728 34.432 21.128 34.432" transform="matrix(1 0 0 1 0 0)" fill="none" stroke="none" />
</svg>
