<?xml version="1.0" encoding="UTF-8"?>
<!-- Reconstructed from Amplitude.Graphics.Svg.SvgAsset and recolored from static UIMapper.Color metadata for EWShop; not original source SVG. Live UI state/material colors are not included. -->
<svg xmlns="http://www.w3.org/2000/svg" width="24" height="24" viewBox="0 0 24 24">
  <path d="M 12.725 20.535 C 12.725 20.535 12.648 20.621 12.61 20.659 C 12.11 21.139 11.323 21.178 10.805 20.727 C 10.555 20.515 10.344 20.256 10.075 19.987 C 10.229 19.843 10.402 19.709 10.555 19.555 C 10.786 19.325 10.968 19.056 11.093 18.768 L 12.667 20.477 L 12.725 20.535" transform="matrix(1 0 0 1 0 0)" fill="#F16599" stroke="none" />
  <path d="M 17.823 17.347 L 17.784 17.309 L 14.837 14.102 L 14.77 14.17 L 14.347 14.563 L 14.194 14.707 L 17.525 18.346 L 17.669 18.499 C 17.631 18.797 17.477 19.056 17.218 19.277 C 16.959 19.498 16.603 19.651 16.181 19.584 L 16.047 19.44 L 12.898 16.022 L 12.802 16.118 L 12.389 16.502 L 12.264 16.627 L 15.115 19.728 L 15.135 19.747 C 14.962 19.987 14.703 20.141 14.376 20.208 C 14.059 20.275 13.781 20.237 13.512 20.102 L 11.295 17.683 C 11.275 16.771 10.786 15.888 9.902 15.418 C 9.816 15.37 9.72 15.293 9.682 15.197 C 9.355 14.525 8.856 14.026 8.155 13.738 C 8.088 13.709 8.011 13.632 7.982 13.565 C 7.166 11.914 5.17 11.53 3.806 12.778 C 3.634 12.941 3.49 13.133 3.326 13.334 C 2.174 12.24 1.08 11.203 0.005 10.195 C 2.117 8.083 4.21 5.99 6.331 3.878 C 6.658 4.176 7.032 4.512 7.406 4.848 C 7.502 4.934 7.618 5.021 7.704 5.117 C 8.059 5.587 8.616 5.501 9.096 5.587 C 9.403 5.645 9.72 5.683 10.085 5.731 C 8.549 7.19 7.042 8.63 5.525 10.07 C 6.226 10.829 6.821 11.664 7.81 12.067 C 9.163 12.614 10.421 12.413 11.554 11.53 C 11.842 11.309 12.111 11.203 12.466 11.222 C 12.84 11.251 13.215 11.222 13.589 11.232 C 13.695 11.242 13.829 11.29 13.896 11.357 C 15.365 12.816 16.815 14.275 18.274 15.725 C 18.763 16.224 18.418 17.155 17.823 17.347" transform="matrix(1 0 0 1 0 0)" fill="#F16599" stroke="none" />
  <path d="M 19.627 14.179 C 19.627 14.179 19.55 14.055 19.492 13.997 C 17.995 12.49 16.488 10.752 14.99 9.245 C 14.875 9.13 14.769 9.072 14.596 9.082 C 13.713 9.082 12.168 9.331 11.284 9.341 C 11.179 9.341 11.054 9.408 10.987 9.475 C 10.603 9.869 10.18 10.455 9.643 10.618 C 8.856 10.858 8.097 10.781 7.56 10.147 C 7.742 9.955 7.915 9.763 8.097 9.591 C 9.124 8.611 10.152 7.632 11.179 6.663 C 11.265 6.576 11.39 6.519 11.505 6.49 C 12.398 6.269 13.3 6.067 14.193 5.847 C 14.299 5.818 14.414 5.751 14.491 5.674 C 15.345 4.829 16.19 3.984 17.035 3.13 C 17.092 3.072 17.14 2.995 17.169 2.957 C 19.464 5.261 21.739 7.527 23.995 9.792 C 22.43 11.357 21.278 12.509 19.617 14.16 L 19.627 14.179" transform="matrix(1 0 0 1 0 0)" fill="#F16599" stroke="none" />
  <path d="M 4.824 17.958 C 4.616 17.886 4.386 17.854 4.209 17.743 C 3.777 17.464 3.724 16.859 4.078 16.485 C 4.362 16.182 4.663 15.888 4.963 15.601 C 5.232 15.347 5.625 15.299 5.94 15.474 C 6.264 15.649 6.433 15.991 6.371 16.358 C 6.371 16.397 6.356 16.445 6.348 16.501 C 6.702 16.429 7.026 16.469 7.295 16.708 C 7.565 16.947 7.665 17.257 7.626 17.608 C 7.772 17.631 7.919 17.631 8.05 17.671 C 8.65 17.854 8.842 18.603 8.411 19.049 C 8.134 19.335 7.849 19.614 7.565 19.9 C 7.311 20.155 7.01 20.235 6.672 20.115 C 6.333 19.996 6.156 19.749 6.11 19.391 C 6.11 19.367 6.102 19.335 6.094 19.311 C 5.132 19.566 4.501 18.698 4.817 17.958 L 4.824 17.958" transform="matrix(1 0 0 1 0 0)" fill="#F16599" stroke="none" />
</svg>
