<?xml version="1.0" encoding="UTF-8"?>
<!-- Reconstructed from Amplitude.Graphics.Svg.SvgAsset and recolored from static UIMapper.Color metadata for EWShop; not original source SVG. Live UI state/material colors are not included. -->
<svg xmlns="http://www.w3.org/2000/svg" width="24" height="24" viewBox="0 0 24 24">
  <path d="M 12.23 8.967 L 10.945 8.967 C 10.765 8.967 10.623 9.117 10.623 9.307 L 10.623 11.008 L 9.337 11.008 L 9.337 9.307 C 9.337 9.117 9.196 8.967 9.016 8.967 L 7.73 8.967 C 7.55 8.967 7.409 9.117 7.409 9.307 L 7.409 11.008 L 6.123 11.008 L 6.123 9.307 C 6.123 9.117 5.982 8.967 5.802 8.967 L 4.516 8.967 C 4.336 8.967 4.195 9.117 4.195 9.307 L 4.195 11.008 L 2.909 11.008 L 2.909 9.307 C 2.909 9.117 2.768 8.967 2.588 8.967 L 1.302 8.967 C 1.122 8.967 0.98 9.117 0.98 9.307 L 0.98 14.131 C 0.98 14.315 1.051 14.485 1.167 14.614 L 2.073 15.573 C 2.195 15.703 2.26 15.873 2.26 16.056 L 2.26 20.254 C 2.26 20.438 2.189 20.608 2.073 20.737 L 1.167 21.696 C 1.045 21.826 0.98 21.996 0.98 22.179 L 0.98 22.921 C 0.98 23.111 1.122 23.261 1.302 23.261 L 12.23 23.261 C 12.41 23.261 12.552 23.111 12.552 22.921 L 12.552 22.179 C 12.552 21.996 12.481 21.826 12.365 21.696 L 11.459 20.737 C 11.337 20.608 11.272 20.438 11.272 20.254 L 11.272 16.056 C 11.272 15.873 11.343 15.703 11.459 15.573 L 12.365 14.614 C 12.487 14.485 12.552 14.315 12.552 14.131 L 12.552 9.307 C 12.552 9.117 12.41 8.967 12.23 8.967 M 8.695 20.533 L 4.838 20.533 L 4.838 15.771 C 4.838 14.641 5.699 13.73 6.766 13.73 C 7.833 13.73 8.695 14.641 8.695 15.771 L 8.695 20.533" transform="matrix(1 0 0 1 0 0)" fill="#8AE1EA" stroke="none" />
  <path d="M 12.48 5.89 C 12.279 6.091 12.279 6.419 12.48 6.62 L 14.848 8.988 C 15.05 9.19 15.377 9.19 15.579 8.988 L 17.06 7.507 L 20.909 11.355 C 21.01 11.456 21.174 11.456 21.275 11.355 L 22.945 9.685 C 23.046 9.584 23.046 9.42 22.945 9.319 L 19.096 5.471 L 20.578 3.989 C 20.78 3.787 20.78 3.46 20.578 3.258 L 18.211 0.89 C 18.009 0.688 17.682 0.688 17.48 0.89 L 15.998 2.372 L 15.843 2.217 C 15.439 1.814 14.785 1.814 14.381 2.217 L 13.807 2.791 C 13.403 3.195 13.403 3.849 13.807 4.253 L 13.962 4.408 L 12.48 5.89" transform="matrix(1 0 0 1 0 0)" fill="#8AE1EA" stroke="none" />
</svg>
