<?xml version="1.0" encoding="UTF-8"?>
<!-- Reconstructed from Amplitude.Graphics.Svg.SvgAsset and recolored from static UIMapper.Color metadata for EWShop; not original source SVG. Live UI state/material colors are not included. -->
<svg xmlns="http://www.w3.org/2000/svg" width="20" height="20" viewBox="0 0 20 20">
  <path d="M 15.899 7.119 L 11.554 7.119 C 11.472 7.119 11.432 7.037 11.462 6.966 L 14.68 1.152 C 14.721 1.081 14.67 1 14.589 1 L 9.066 1 C 9.066 1 8.995 1.02 8.975 1.051 L 4.01 10.036 C 3.97 10.107 4.021 10.188 4.102 10.188 L 8.021 10.188 C 8.081 10.188 8.132 10.249 8.122 10.31 L 6.061 18.868 C 6.041 18.97 6.173 19.041 6.234 18.959 L 15.97 7.291 C 16.021 7.22 15.97 7.129 15.889 7.129 L 15.899 7.119" transform="matrix(1 0 0 1 0 0)" fill="none" stroke="none" />
</svg>
