<?xml version="1.0" encoding="UTF-8"?>
<!-- Reconstructed from Amplitude.Graphics.Svg.SvgAsset and recolored from static UIMapper.Color metadata for EWShop; not original source SVG. Live UI state/material colors are not included. -->
<svg xmlns="http://www.w3.org/2000/svg" width="24" height="24" viewBox="0 0 24 24">
  <path d="M 3.824 17.557 C 3.669 18.229 4.061 18.908 4.722 19.108 C 5.551 19.36 6.388 19.454 7.2 19.407 C 7.425 20.07 7.817 20.681 8.347 21.219 C 8.46 21.334 8.591 21.424 8.732 21.489 L 7.61 22.753 L 1.342 24 L 3.226 18.084 L 3.836 17.508 C 3.832 17.524 3.828 17.54 3.824 17.557" transform="matrix(1 0 0 1 0 0)" fill="#000000" fill-opacity="0.871" stroke="none" />
  <path d="M 21.639 17.036 L 23.193 24 L 15.535 21.53 C 15.714 21.465 15.881 21.36 16.02 21.219 C 16.55 20.681 16.941 20.07 17.167 19.407 C 17.979 19.454 18.816 19.36 19.645 19.108 C 20.306 18.908 20.698 18.229 20.543 17.557 C 20.452 17.163 20.329 16.786 20.178 16.428 L 21.639 17.036" transform="matrix(1 0 0 1 0 0)" fill="#000000" fill-opacity="0.871" stroke="none" />
  <path d="M 11.975 12.947 C 12.596 12.947 13.1 13.451 13.1 14.072 C 13.1 14.694 12.596 15.197 11.975 15.197 C 11.354 15.197 10.85 14.694 10.85 14.072 C 10.85 13.451 11.354 12.948 11.975 12.947" transform="matrix(1 0 0 1 0 0)" fill="#000000" fill-opacity="0.871" stroke="none" />
  <path d="M 12.184 5.953 C 14.125 7.689 14.505 10.365 13.325 12.47 C 13.5 12.275 14.791 10.828 15.018 10.18 C 15.101 9.529 15.065 8.875 14.885 8.244 C 15.444 8.072 15.763 8.08 16.454 8.244 C 16.642 9.574 16.521 10.745 16.158 11.67 C 17.161 11.817 18.262 12.291 19.356 13.115 C 19.157 13.778 18.823 14.304 18.39 14.688 C 18.078 14.38 17.733 14.106 17.362 13.871 C 17.376 13.845 17.391 13.818 17.405 13.792 L 17.732 13.159 L 17.091 12.773 C 16.704 12.539 16.3 12.356 15.893 12.227 C 15.753 12.474 15.591 12.696 15.411 12.893 C 15.834 13.004 16.261 13.182 16.669 13.429 C 16.531 13.696 16.34 13.919 16.111 14.096 C 17.651 14.733 18.852 16.069 19.264 17.852 C 18.359 18.127 17.446 18.171 16.588 18.02 L 16.004 18.705 C 15.877 19.259 15.576 19.8 15.085 20.298 C 13.889 19.824 12.951 19.193 12.309 18.486 L 12.108 18.428 C 11.464 19.159 10.51 19.811 9.282 20.298 C 8.79 19.799 8.54 19.421 8.414 18.864 C 8.586 18.821 8.754 18.769 8.919 18.709 C 8.934 18.699 8.949 18.69 8.966 18.682 C 9.252 18.544 9.699 18.308 9.976 18.063 C 10.614 17.5 11.08 16.25 11.166 16.007 C 9.802 17.744 7.428 18.558 5.103 17.852 C 5.515 16.07 6.716 14.734 8.256 14.096 C 8.027 13.919 7.836 13.696 7.698 13.429 C 8.079 13.198 8.477 13.028 8.873 12.916 C 8.872 12.903 8.872 12.891 8.87 12.879 L 8.855 12.777 C 8.715 12.61 8.587 12.426 8.474 12.227 C 8.067 12.356 7.663 12.539 7.276 12.773 L 6.635 13.159 L 6.962 13.792 C 6.976 13.818 6.991 13.845 7.005 13.871 C 6.634 14.106 6.289 14.38 5.977 14.688 C 5.544 14.304 5.21 13.778 5.011 13.115 C 6.099 12.295 7.2 11.813 8.204 11.654 C 7.845 10.731 7.726 9.567 7.913 8.244 C 8.604 8.08 9.239 8.097 9.799 8.27 C 9.746 8.453 9.704 8.638 9.669 8.825 L 10.586 8.418 C 10.859 7.515 11.391 6.662 12.184 5.953 M 11.975 12.01 C 10.836 12.01 9.913 12.933 9.913 14.072 C 9.913 14.929 10.435 15.662 11.178 15.974 C 11.18 15.969 11.182 15.966 11.182 15.966 C 11.227 15.977 11.268 15.998 11.302 16.028 L 11.302 16.022 C 11.513 16.095 11.74 16.135 11.975 16.135 C 12.369 16.135 12.736 16.024 13.049 15.833 C 13.05 15.836 13.05 15.839 13.05 15.842 L 13.067 15.83 C 13.065 15.828 13.064 15.826 13.062 15.824 C 13.648 15.461 14.038 14.812 14.038 14.072 C 14.038 13.608 13.884 13.179 13.625 12.835 C 13.628 12.834 13.63 12.833 13.633 12.833 C 13.618 12.822 13.603 12.809 13.59 12.795 L 13.31 12.497 L 13.309 12.5 C 12.949 12.194 12.484 12.01 11.975 12.01" transform="matrix(1 0 0 1 0 0)" fill="#000000" fill-opacity="0.871" stroke="none" />
  <path d="M 6.532 8.842 C 6.49 9.5 6.516 10.133 6.609 10.73 C 5.803 11.032 4.997 11.482 4.221 12.067 C 3.792 12.39 3.605 12.941 3.745 13.456 L 0 10 L 4.481 8.544 L 6.532 8.842" transform="matrix(1 0 0 1 0 0)" fill="#000000" fill-opacity="0.871" stroke="none" />
  <path d="M 24 9 L 22.67 11.654 L 20.652 13.318 C 20.726 12.844 20.536 12.361 20.146 12.067 C 19.37 11.482 18.564 11.032 17.758 10.73 C 17.868 10.026 17.883 9.272 17.805 8.487 L 19.94 7.963 L 24 9" transform="matrix(1 0 0 1 0 0)" fill="#000000" fill-opacity="0.871" stroke="none" />
  <path d="M 14.885 3.566 L 16.107 6.852 C 15.582 6.792 15.067 6.811 14.572 6.915 C 14.204 6.207 13.7 5.548 13.058 4.974 C 12.576 4.543 11.854 4.529 11.356 4.934 L 11.309 4.974 C 10.666 5.549 10.158 6.207 9.789 6.914 C 9.363 6.825 8.923 6.799 8.474 6.832 L 9.789 2.793 L 12.47 0.137 L 14.885 3.566" transform="matrix(1 0 0 1 0 0)" fill="#000000" fill-opacity="0.871" stroke="none" />
</svg>
