<?xml version="1.0" encoding="UTF-8"?>
<!-- Reconstructed from Amplitude.Graphics.Svg.SvgAsset and recolored from static UIMapper.Color metadata for EWShop; not original source SVG. Live UI state/material colors are not included. -->
<svg xmlns="http://www.w3.org/2000/svg" width="24" height="24" viewBox="0 0 24 24">
  <path d="M 16.866 8.683 C 18.868 10.155 20.16 12.439 20.16 15.001 C 20.16 19.446 16.294 23.04 11.52 23.04 C 6.746 23.04 2.88 19.446 2.88 15.001 C 2.88 10.556 6.746 6.962 11.52 6.962" transform="matrix(1 0 0 1 0 0)" fill="none" stroke="#73D7A0" stroke-width="1" />
  <path d="M 17.614 4.095 C 17.782 4.21 18.038 4.334 18.176 4.478 C 19.508 5.768 18.305 5.596 18.423 6.122 C 18.541 6.647 19.419 8.043 15.75 7.068" transform="matrix(1 0 0 1 0 0)" fill="none" stroke="#73D7A0" stroke-width="1" />
  <path d="M 10.119 7.068 C 11.618 6.896 11.855 7.096 12.092 6.446 C 12.329 5.796 11.273 5.443 11.273 5.443 C 11.273 5.443 10.612 5.405 10.672 4.716 C 10.731 4.028 11.204 4.296 11.135 3.847 C 11.056 3.321 10.987 3.025 12.506 2.938" transform="matrix(1 0 0 1 0 0)" fill="none" stroke="#73D7A0" stroke-width="1" />
  <path d="M 16.884 7.307 C 16.884 7.307 16.085 8.119 16.953 8.76" transform="matrix(1 0 0 1 0 0)" fill="none" stroke="#73D7A0" stroke-width="1" />
  <path d="M 18.107 2.547 C 18.157 2.203 16.056 1.208 15.435 1.103 C 14.705 0.97 12.199 0.797 12.338 1.275 C 12.486 1.811 12.436 3.914 12.436 3.914 C 12.436 3.914 12.781 4.277 12.929 4.363 C 13.659 4.783 15.119 5.061 16.243 5.099 C 16.904 5.118 17.092 4.917 17.092 4.917 C 17.18 4.86 18.107 2.547 18.107 2.547" transform="matrix(1 0 0 1 0 0)" fill="#73D7A0" stroke="none" />
  <path d="M 18.225 14.81 C 18.225 14.953 18.225 15.116 18.225 15.288 C 18.225 18.423 15.237 20.956 11.538 20.956 C 7.839 20.956 4.812 18.299 4.812 15.163 C 4.812 15.039 4.812 14.915 4.831 14.791 C 4.831 14.791 4.831 14.772 4.851 14.752 C 4.861 14.81 4.91 14.896 5.009 15.02 C 5.295 15.374 5.709 15.613 5.887 15.355 C 5.887 15.355 6.449 13.29 7.889 13.663 C 7.928 13.672 7.978 13.691 8.017 13.701 C 8.658 13.892 8.954 14.265 9.112 14.609 C 9.398 15.269 9.842 15.852 10.483 16.215 C 10.867 16.435 11.321 16.645 11.854 16.798 C 11.854 16.798 11.854 16.798 11.864 16.798 C 12.278 16.913 12.741 16.989 13.235 17.008 C 13.343 17.008 13.461 17.008 13.59 17.008 C 13.59 17.008 13.59 17.008 13.6 17.008 C 14.201 16.98 14.852 16.846 15.533 16.569 C 15.543 16.569 15.562 16.569 15.572 16.559 C 15.75 16.492 15.967 16.387 16.509 16.119 C 17.071 15.842 17.328 15.632 17.436 15.46 L 17.456 15.421 C 17.535 15.288 17.525 15.183 17.525 15.096 C 17.308 15.163 17.071 15.24 16.844 15.288 C 16.233 15.431 15.602 15.508 14.941 15.508 C 13.422 15.508 12.012 15.096 10.808 14.389 C 12.791 13.366 16.006 12.525 16.006 12.525 C 18.294 12.267 18.206 14.035 18.196 14.169 C 18.215 14.38 18.215 14.59 18.215 14.829 L 18.225 14.81" transform="matrix(1 0 0 1 0 0)" fill="#73D7A0" stroke="none" />
</svg>
