<?xml version="1.0" encoding="UTF-8"?>
<!-- Reconstructed from Amplitude.Graphics.Svg.SvgAsset and recolored from static UIMapper.Color metadata for EWShop; not original source SVG. Live UI state/material colors are not included. -->
<svg xmlns="http://www.w3.org/2000/svg" width="24" height="24" viewBox="0 0 24 24">
  <path d="M 9.523 6.154 C 9.189 6.043 8.829 5.983 8.46 5.983 C 6.66 5.983 5.203 7.414 5.203 9.18 C 5.203 9.977 5.503 10.706 5.992 11.272 C 6.6 9.223 7.86 7.44 9.532 6.154 L 9.523 6.154" transform="matrix(1 0 0 1 0 0)" fill="#6377D9" stroke="none" />
  <path d="M 5.615 13.312 C 4.269 12.42 3.395 10.903 3.395 9.18 C 3.395 6.42 5.649 4.2 8.469 4.2 C 9.532 4.2 10.509 4.517 11.323 5.057 C 12.189 4.637 13.132 4.337 14.117 4.174 C 12.729 2.666 10.715 1.714 8.469 1.714 C 4.243 1.714 0.857 5.04 0.857 9.18 C 0.857 12.403 2.906 15.129 5.803 16.183 C 5.657 15.506 5.58 14.803 5.58 14.083 C 5.58 13.817 5.589 13.56 5.615 13.303 L 5.615 13.312" transform="matrix(1 0 0 1 0 0)" fill="#6377D9" stroke="none" />
  <path d="M 15.54 6.489 C 11.332 6.489 7.938 9.814 7.938 13.955 C 7.938 18.095 11.323 21.42 15.54 21.42 C 19.758 21.42 23.143 18.095 23.143 13.955 C 23.143 9.814 19.758 6.489 15.54 6.489 M 15.54 18.943 C 12.729 18.943 10.466 16.723 10.466 13.963 C 10.466 11.203 12.72 8.983 15.54 8.983 C 18.36 8.983 20.615 11.203 20.615 13.963 C 20.615 16.723 18.36 18.943 15.54 18.943" transform="matrix(1 0 0 1 0 0)" fill="#6377D9" stroke="none" />
  <path d="M 15.54 10.757 C 13.74 10.757 12.283 12.189 12.283 13.955 C 12.283 15.72 13.74 17.152 15.54 17.152 C 17.34 17.152 18.798 15.72 18.798 13.955 C 18.798 12.189 17.34 10.757 15.54 10.757" transform="matrix(1 0 0 1 0 0)" fill="#6377D9" stroke="none" />
</svg>
