<?xml version="1.0" encoding="UTF-8"?>
<!-- Reconstructed from Amplitude.Graphics.Svg.SvgAsset and recolored from static UIMapper.Color metadata for EWShop; not original source SVG. Live UI state/material colors are not included. -->
<svg xmlns="http://www.w3.org/2000/svg" width="84" height="84" viewBox="0 0 84 84">
  <path d="M 39.37 14.195 C 39.237 14.199 39.105 14.229 38.981 14.285 C 38.811 14.363 34.807 16.241 33.323 20.026 C 32.11 23.122 33.173 25.934 33.692 27.01 C 33.612 27.224 33.508 27.519 33.39 27.871 C 31.827 24.441 28.265 22.668 28.106 22.59 C 27.861 22.47 27.58 22.456 27.325 22.551 C 27.07 22.644 26.863 22.836 26.753 23.084 C 26.678 23.255 24.921 27.318 26.319 31.135 C 27.651 34.774 31.045 36.075 31.63 36.276 C 31.65 36.774 31.704 37.196 31.759 37.516 C 31.763 37.683 31.763 37.849 31.772 38.016 C 29.277 36.138 26.285 35.76 26.132 35.742 C 25.865 35.714 25.59 35.79 25.38 35.963 C 25.17 36.136 25.04 36.385 25.019 36.656 C 25.004 36.843 24.689 41.257 27.269 44.397 C 29.693 47.347 33.266 47.496 33.958 47.496 C 33.97 47.496 34.057 47.495 34.069 47.494 C 34.174 47.49 34.275 47.469 34.37 47.434 C 34.474 47.838 34.601 48.217 34.745 48.57 C 34.686 48.555 34.631 48.538 34.571 48.524 C 33.971 48.392 33.339 48.324 32.692 48.324 C 29.474 48.324 26.767 49.957 26.653 50.027 C 26.421 50.169 26.257 50.399 26.198 50.664 C 26.139 50.93 26.193 51.21 26.343 51.436 C 26.447 51.592 28.925 55.253 32.894 56.129 C 33.463 56.254 34.046 56.318 34.628 56.318 C 36.766 56.318 38.463 55.479 39.388 54.9 C 39.866 55.3 40.597 55.891 41.54 56.6 C 37.765 57.004 34.951 59.87 34.827 59.998 C 34.638 60.193 34.538 60.46 34.548 60.731 C 34.558 61.002 34.677 61.258 34.88 61.44 C 35.013 61.558 38.174 64.34 42.097 64.34 C 42.198 64.34 42.299 64.338 42.401 64.334 C 45.723 64.211 47.876 62.117 48.657 61.211 C 49.064 61.435 49.478 61.656 49.903 61.875 C 51.261 62.55 55.046 64.922 54.62 66.895 C 54.504 67.435 54.846 67.966 55.386 68.082 C 55.457 68.098 55.529 68.106 55.599 68.106 C 56.06 68.106 56.473 67.785 56.575 67.316 C 57.404 63.482 51.472 60.424 50.808 60.096 C 50.53 59.952 50.258 59.805 49.987 59.658 C 49.99 59.65 49.997 59.646 49.999 59.639 C 50.053 59.479 51.293 55.68 48.966 52.236 C 46.69 48.87 42.369 47.915 42.186 47.877 C 41.922 47.816 41.644 47.874 41.417 48.027 C 41.192 48.178 41.039 48.417 40.993 48.684 C 40.97 48.82 40.568 51.246 41.284 53.865 C 40.891 53.549 40.594 53.3 40.39 53.127 C 40.276 52.896 39.791 51.983 38.868 51.008 C 39.946 50.069 41.609 48.191 41.901 45.375 C 42.319 41.333 39.623 37.828 39.507 37.68 C 39.34 37.466 39.091 37.329 38.821 37.301 C 38.555 37.275 38.28 37.356 38.073 37.531 C 37.96 37.626 35.851 39.442 34.759 42.188 C 34.64 41.811 34.489 41.429 34.302 41.045 C 34.298 41.027 34.302 41.009 34.296 40.992 C 34.071 40.286 33.924 39.543 33.839 38.785 C 35.208 38.559 37.742 37.828 39.503 35.436 C 41.913 32.162 41.362 27.771 41.337 27.586 C 41.301 27.316 41.156 27.073 40.938 26.912 C 40.719 26.75 40.446 26.686 40.177 26.731 C 40.036 26.755 37.448 27.223 35.159 28.912 C 35.317 28.416 35.457 28.013 35.556 27.742 C 36.666 27.306 39.36 25.967 40.575 22.867 C 42.058 19.083 40.394 14.986 40.323 14.813 C 40.219 14.562 40.016 14.363 39.763 14.264 C 39.636 14.214 39.503 14.192 39.37 14.195 L 39.37 14.195 M 67.368 14.197 C 67.235 14.194 67.101 14.216 66.974 14.266 C 66.721 14.365 66.52 14.564 66.415 14.815 C 66.344 14.988 64.679 19.084 66.163 22.869 C 67.378 25.969 70.073 27.308 71.183 27.744 C 71.283 28.015 71.421 28.419 71.579 28.914 C 69.291 27.225 66.702 26.758 66.56 26.733 C 66.295 26.688 66.017 26.75 65.798 26.912 C 65.579 27.073 65.434 27.316 65.399 27.586 C 65.375 27.771 64.825 32.162 67.233 35.436 C 68.995 37.828 71.528 38.561 72.897 38.787 C 72.812 39.544 72.665 40.286 72.44 40.992 C 72.434 41.011 72.44 41.03 72.435 41.049 C 72.248 41.432 72.097 41.814 71.979 42.19 C 70.885 39.443 68.777 37.626 68.665 37.531 C 68.457 37.356 68.188 37.277 67.917 37.303 C 67.646 37.331 67.399 37.468 67.231 37.682 C 67.116 37.829 64.419 41.333 64.837 45.377 C 65.13 48.191 66.792 50.068 67.87 51.008 C 66.949 51.98 66.464 52.893 66.349 53.127 C 66.145 53.301 65.846 53.551 65.452 53.867 C 66.169 51.249 65.768 48.823 65.745 48.686 C 65.698 48.418 65.545 48.179 65.319 48.027 C 65.094 47.874 64.817 47.819 64.55 47.879 C 64.367 47.917 60.048 48.871 57.772 52.238 C 55.446 55.681 56.686 59.479 56.741 59.639 C 56.744 59.647 56.748 59.653 56.751 59.66 C 56.484 59.805 56.219 59.95 55.944 60.092 C 55.944 60.092 55.544 60.289 54.954 60.641 C 54.479 60.924 54.322 61.537 54.604 62.012 C 54.792 62.326 55.126 62.5 55.466 62.5 C 55.64 62.5 55.816 62.455 55.976 62.359 C 56.476 62.061 56.818 61.889 56.847 61.875 C 57.267 61.658 57.677 61.438 58.079 61.217 C 58.86 62.124 61.013 64.217 64.333 64.34 C 64.435 64.344 64.537 64.346 64.638 64.346 L 64.64 64.346 C 68.562 64.346 71.722 61.563 71.855 61.445 C 72.058 61.263 72.178 61.007 72.188 60.736 C 72.199 60.465 72.097 60.199 71.909 60.004 C 71.785 59.876 68.972 57.011 65.198 56.606 C 66.14 55.897 66.871 55.305 67.347 54.906 C 68.273 55.485 69.972 56.323 72.11 56.324 C 72.691 56.324 73.276 56.262 73.845 56.137 C 77.814 55.261 80.29 51.598 80.394 51.442 C 80.545 51.216 80.598 50.936 80.54 50.67 C 80.48 50.401 80.315 50.171 80.083 50.029 C 79.97 49.959 77.263 48.326 74.044 48.326 C 73.397 48.326 72.766 48.394 72.165 48.526 C 72.105 48.54 72.05 48.557 71.991 48.572 C 72.136 48.219 72.263 47.84 72.368 47.436 C 72.463 47.469 72.563 47.492 72.669 47.496 C 72.681 47.497 72.769 47.498 72.78 47.498 C 73.472 47.498 77.044 47.35 79.468 44.399 C 82.048 41.258 81.733 36.844 81.718 36.658 C 81.697 36.387 81.565 36.138 81.355 35.965 C 81.145 35.793 80.877 35.716 80.605 35.744 C 80.453 35.762 77.457 36.14 74.962 38.018 C 74.971 37.851 74.974 37.685 74.978 37.518 C 75.034 37.198 75.086 36.776 75.106 36.278 C 75.692 36.077 79.086 34.775 80.419 31.137 C 81.816 27.32 80.059 23.257 79.983 23.086 C 79.873 22.837 79.668 22.646 79.413 22.553 C 79.157 22.458 78.875 22.472 78.63 22.592 C 78.471 22.67 74.911 24.441 73.347 27.871 C 73.229 27.519 73.124 27.227 73.044 27.012 C 73.564 25.936 74.627 23.124 73.413 20.028 C 71.93 16.243 67.927 14.365 67.757 14.287 C 67.633 14.231 67.501 14.201 67.368 14.197 L 67.368 14.197 M 38.821 16.676 C 39.151 17.957 39.493 20.152 38.714 22.139 C 37.931 24.138 36.276 25.199 35.294 25.674 C 34.896 24.659 34.402 22.756 35.185 20.758 C 35.964 18.771 37.708 17.392 38.821 16.676 M 67.917 16.676 C 69.029 17.392 70.772 18.77 71.552 20.758 C 72.335 22.756 71.841 24.66 71.444 25.676 C 70.461 25.2 68.805 24.139 68.022 22.141 C 67.244 20.154 67.587 17.956 67.917 16.676 M 28.216 24.981 C 29.31 25.717 31.018 27.13 31.757 29.147 C 32.494 31.163 31.959 33.054 31.538 34.061 C 30.566 33.562 28.936 32.464 28.198 30.449 C 27.464 28.443 27.857 26.254 28.216 24.981 M 78.52 24.983 C 78.879 26.256 79.272 28.442 78.538 30.447 C 77.801 32.462 76.17 33.561 75.198 34.059 C 74.778 33.053 74.242 31.161 74.979 29.145 C 75.712 27.141 77.424 25.724 78.52 24.983 M 39.409 28.996 C 39.4 30.314 39.165 32.518 37.892 34.248 C 36.648 35.937 34.837 36.544 33.755 36.764 C 33.772 35.632 33.889 34.508 34.063 33.444 C 34.246 32.961 34.495 32.473 34.841 32.002 C 36.108 30.282 38.151 29.4 39.409 28.996 M 67.331 28.998 C 68.591 29.402 70.63 30.284 71.895 32.002 C 72.244 32.476 72.493 32.968 72.675 33.455 C 72.848 34.517 72.964 35.64 72.981 36.77 C 71.905 36.557 70.099 35.955 68.843 34.25 C 67.577 32.531 67.343 30.32 67.331 28.998 M 27.024 37.965 C 28.303 38.302 30.388 39.074 31.743 40.723 C 33.107 42.383 33.225 44.348 33.161 45.436 C 32.085 45.289 30.181 44.791 28.815 43.129 C 27.46 41.48 27.107 39.285 27.024 37.965 M 79.714 37.965 C 79.635 39.281 79.284 41.469 77.921 43.129 C 76.553 44.794 74.647 45.291 73.571 45.438 C 73.503 44.355 73.617 42.399 74.993 40.723 C 76.35 39.073 78.436 38.301 79.714 37.965 M 68.183 39.871 C 69.063 40.853 70.371 42.643 70.593 44.779 C 70.815 46.914 69.832 48.616 69.177 49.49 C 68.358 48.77 67.047 47.303 66.827 45.168 C 66.606 43.043 67.523 41.017 68.183 39.871 M 38.554 39.875 C 39.214 41.021 40.13 43.045 39.911 45.168 C 39.689 47.303 38.378 48.77 37.558 49.49 C 36.904 48.616 35.921 46.913 36.142 44.777 C 36.362 42.654 37.673 40.861 38.554 39.875 M 17.821 46.197 C 17.637 46.2 17.462 46.274 17.332 46.405 C 17.203 46.536 17.13 46.713 17.13 46.897 L 17.13 53.385 L 2.962 53.385 C 2.839 53.385 2.718 53.418 2.611 53.479 C 2.505 53.541 2.417 53.63 2.355 53.737 C 2.294 53.844 2.262 53.965 2.263 54.088 L 2.292 63.397 C 2.293 63.582 2.367 63.759 2.498 63.89 C 2.629 64.02 2.806 64.094 2.991 64.094 L 17.347 64.123 L 17.347 69.108 C 17.347 69.293 17.421 69.47 17.552 69.601 C 17.683 69.731 17.861 69.805 18.046 69.805 C 18.231 69.805 18.409 69.732 18.54 69.602 L 29.538 58.604 C 29.669 58.472 29.742 58.295 29.742 58.11 C 29.742 57.924 29.669 57.747 29.538 57.615 L 18.325 46.402 C 18.259 46.336 18.18 46.284 18.094 46.249 C 18.007 46.214 17.915 46.196 17.821 46.197 M 18.53 48.586 L 28.054 58.11 L 18.745 67.42 L 18.745 63.424 C 18.745 63.239 18.671 63.062 18.541 62.93 C 18.41 62.799 18.233 62.726 18.048 62.725 L 3.69 62.695 L 3.665 54.785 L 17.831 54.785 C 18.016 54.785 18.194 54.711 18.325 54.58 C 18.456 54.449 18.53 54.271 18.53 54.086 L 18.53 48.586 M 42.868 50.166 C 44.107 50.617 46.106 51.578 47.308 53.356 C 48.511 55.137 48.445 57.106 48.28 58.184 C 47.222 57.941 45.383 57.273 44.169 55.479 C 42.973 53.709 42.827 51.488 42.868 50.166 M 63.872 50.17 C 63.915 51.487 63.768 53.701 62.565 55.481 C 61.365 57.258 59.519 57.931 58.456 58.18 C 58.293 57.101 58.228 55.136 59.429 53.358 C 60.625 51.589 62.63 50.625 63.872 50.17 M 32.692 50.326 C 33.195 50.326 33.682 50.379 34.14 50.479 C 36.237 50.942 37.545 52.413 38.167 53.307 C 37.427 53.742 36.153 54.32 34.628 54.32 C 34.191 54.32 33.753 54.273 33.325 54.178 C 31.241 53.718 29.606 52.212 28.726 51.225 C 29.658 50.822 31.121 50.326 32.692 50.326 M 74.044 50.326 C 75.618 50.326 77.081 50.824 78.013 51.227 C 77.137 52.213 75.509 53.717 73.413 54.18 C 72.984 54.275 72.547 54.322 72.11 54.322 L 72.108 54.322 C 70.584 54.322 69.309 53.744 68.569 53.309 C 69.192 52.413 70.499 50.942 72.595 50.479 C 73.054 50.378 73.541 50.326 74.044 50.326 L 74.044 50.326 M 42.415 58.549 C 44.452 58.549 46.004 59.596 46.802 60.281 C 46.035 61.051 44.494 62.259 42.329 62.34 L 42.099 62.344 C 40.056 62.344 38.198 61.346 37.138 60.639 C 38.18 59.825 40.055 58.633 42.188 58.553 L 42.415 58.549 M 64.323 58.549 L 64.548 58.553 C 66.681 58.633 68.558 59.825 69.601 60.639 C 68.54 61.346 66.681 62.344 64.638 62.344 L 64.407 62.34 C 62.259 62.26 60.707 61.044 59.936 60.276 C 60.728 59.59 62.27 58.549 64.323 58.549 M 51.556 63.709 C 51.304 63.758 51.071 63.902 50.917 64.131 C 50.191 65.208 49.937 66.281 50.161 67.32 C 50.263 67.789 50.677 68.11 51.138 68.11 C 51.208 68.11 51.278 68.101 51.349 68.086 C 51.889 67.969 52.233 67.438 52.116 66.899 C 52.011 66.413 52.165 65.857 52.575 65.25 C 52.884 64.792 52.762 64.17 52.304 63.861 C 52.075 63.707 51.807 63.661 51.556 63.709" transform="matrix(1 0 0 1 0 0)" fill="none" stroke="none" />
</svg>
