<?xml version="1.0" encoding="UTF-8"?>
<!-- Reconstructed from Amplitude.Graphics.Svg.SvgAsset and recolored from static UIMapper.Color metadata for EWShop; not original source SVG. Live UI state/material colors are not included. -->
<svg xmlns="http://www.w3.org/2000/svg" width="24" height="24" viewBox="0 0 24 24">
  <path d="M 22.08 0.96 C 18.97 3.84 16.157 6.403 14.4 8.16 C 12.48 6.24 8.16 1.44 8.16 1.44 C 8.16 1.44 11.165 7.2 12.73 9.955 C 12.288 10.829 6.519 18.048 4.32 21.12 C 7.824 18.048 13.959 11.962 14.4 11.52 C 16.32 13.21 21.12 17.76 21.12 17.76 C 21.12 17.76 17.645 12 16.08 9.955 C 16.954 8.64 19.93 4.32 22.08 0.96" transform="matrix(1 0 0 1 0 0)" fill="#FFFFFF" stroke="none" />
  <path d="M 14.667 13.782 C 15.522 14.565 16.534 15.505 17.455 16.368 C 17.642 16.543 17.824 16.714 18 16.88 L 18 17.793 C 18.001 18.405 19.365 19.407 19.742 19.811 C 19.902 19.991 20 20.229 20 20.486 L 20 21.524 C 20 21.791 19.804 22 19.556 22 L 5.587 22 C 6.852 20.879 8.402 19.428 9.896 18 L 14.667 18 L 14.667 13.782" transform="matrix(1 0 0 1 0 0)" fill="#FFFFFF" stroke="none" />
  <path d="M 6.223 2 C 6.471 2 6.667 2.209 6.667 2.476 L 6.667 5 L 8.34 5 C 8.404 5.12 8.467 5.243 8.533 5.367 C 9.17 6.567 9.903 7.929 10.555 9.119 C 9.82 9.627 9.333 10.511 9.333 11.52 L 9.333 12.058 C 8.918 12.6 8.466 13.188 7.996 13.797 C 7.345 14.641 6.662 15.529 6 16.392 L 6 11.919 C 6 11.307 4.635 10.305 4.258 9.901 C 4.098 9.721 4 9.482 4 9.226 L 4 2.476 C 4 2.209 4.196 2 4.444 2 L 6.223 2" transform="matrix(1 0 0 1 0 0)" fill="#FFFFFF" stroke="none" />
  <path d="M 20 9.226 C 20 9.482 19.911 9.721 19.742 9.901 C 19.534 10.124 19.024 10.533 18.608 10.956 C 18.366 10.591 18.131 10.243 17.91 9.926 C 18.439 9.144 19.181 8.049 20 6.832 L 20 9.226" transform="matrix(1 0 0 1 0 0)" fill="#FFFFFF" stroke="none" />
  <path d="M 11.356 7.462 C 11.58 7.877 11.801 8.281 12.011 8.663 C 11.335 7.434 10.552 5.972 9.87 4.687 L 11.356 7.462" transform="matrix(1 0 0 1 0 0)" fill="#FFFFFF" stroke="none" />
  <path d="M 15.111 2 C 15.36 2 15.556 2.209 15.556 2.476 L 15.556 4.967 C 15.159 5.34 14.781 5.696 14.43 6.034 C 13.952 5.533 13.423 4.966 12.889 4.391 L 12.889 2.476 C 12.889 2.209 13.084 2 13.333 2 L 15.111 2" transform="matrix(1 0 0 1 0 0)" fill="#FFFFFF" stroke="none" />
  <path d="M 18.746 2 C 18.261 2.448 17.789 2.884 17.333 3.307 L 17.333 2.476 C 17.333 2.209 17.529 2 17.777 2 L 18.746 2" transform="matrix(1 0 0 1 0 0)" fill="#FFFFFF" stroke="none" />
</svg>
