<?xml version="1.0" encoding="UTF-8"?>
<!-- Reconstructed from Amplitude.Graphics.Svg.SvgAsset and recolored from static UIMapper.Color metadata for EWShop; not original source SVG. Live UI state/material colors are not included. -->
<svg xmlns="http://www.w3.org/2000/svg" width="48" height="48" viewBox="0 0 48 48">
  <path d="M 27.173 30.438 L 28.711 24.697 L 24.508 20.493 L 18.765 22.031 L 17.227 27.773 L 21.431 31.977 L 27.173 30.438 M 31.904 20.669 C 32.04 19.243 32.144 17.849 32.219 16.512 C 37.282 16.376 41.728 17.694 43.672 22.072 L 46.636 24.156 C 46.059 17.574 39.832 15.757 32.251 15.923 C 32.534 10.348 32.316 5.888 31.868 4.665 C 31.414 3.295 30.62 2.498 29.888 2.224 C 29.159 1.952 28.039 2.029 26.792 2.739 C 25.418 3.46 19.365 7.978 17.802 12.164 C 20.102 10.015 21.845 9.091 22.82 8.696 C 24.213 8.094 25.518 8.062 26.401 8.333 C 27.286 8.605 28.29 9.354 28.944 10.605 C 29.365 11.371 29.795 13.368 30.069 16.022 C 29.301 16.073 28.524 16.138 27.743 16.22 C 27.045 16.298 26.342 16.387 25.638 16.487 C 25.038 16.122 24.436 15.766 23.833 15.423 C 15.518 10.766 7.078 8.3 3.34 15.239 L 6.886 14.497 C 11.124 10.579 16.94 12.175 22.419 15.406 C 23.085 15.805 23.746 16.23 24.397 16.671 C 14.505 18.218 4.72 21.541 3.073 22.836 C 1.912 23.693 1.4 24.695 1.366 25.476 C 1.333 26.254 1.754 27.294 2.816 28.26 C 3.927 29.342 10.707 33.745 15.172 33.934 C 12.415 32.414 10.389 30.993 9.711 30.19 C 8.707 29.052 8.271 27.821 8.255 26.898 C 8.24 25.971 8.64 24.786 9.628 23.775 C 10.952 22.359 18.006 19.04 25.45 17.407 C 27.194 18.657 28.856 20.018 30.36 21.37 C 30.392 24.531 30.185 27.996 29.589 31.242 C 28.394 37.489 25.748 42.909 20.007 43.501 L 17.107 45.671 C 24.785 47.452 28.512 39.487 30.511 30.17 C 31.023 27.695 31.411 25.127 31.7 22.611 C 34.844 25.61 37.066 28.373 37.482 29.528 C 37.989 30.845 37.888 32.094 37.506 32.94 C 37.127 33.781 36.239 34.739 34.867 35.385 C 33.927 35.856 32.291 36.234 29.157 36.54 C 33.334 38.132 40.514 36.895 41.963 36.34 C 43.32 35.874 44.118 35.084 44.396 34.358 C 44.675 33.628 44.6 32.504 43.873 31.257 C 43.083 29.803 38.128 25.178 31.904 20.669 M 26.706 17.148 C 27.487 16.998 28.269 16.868 29.048 16.764 C 29.409 16.718 29.771 16.678 30.129 16.643 C 30.211 17.55 30.275 18.522 30.316 19.542 C 29.139 18.724 27.931 17.919 26.706 17.148" transform="matrix(1 0 0 1 0 0)" fill="#53BEEC" stroke="none" />
</svg>
