<?xml version="1.0" encoding="UTF-8"?>
<!-- Reconstructed from Amplitude.Graphics.Svg.SvgAsset; not original source SVG. UI tint/material colors are not included. -->
<svg xmlns="http://www.w3.org/2000/svg" width="18" height="18" viewBox="0 0 18 18">
  <path d="M 13.579 6.615 C 13.601 6.637 13.601 6.672 13.579 6.694 L 12.269 8.002 C 12.255 8.017 12.25 8.038 12.255 8.057 C 12.327 8.33 12.365 8.617 12.365 8.913 C 12.365 9.258 12.312 9.591 12.216 9.904 C 12.209 9.924 12.215 9.946 12.23 9.961 L 13.294 11.026 C 13.316 11.048 13.316 11.083 13.294 11.105 L 11.196 13.203 C 11.174 13.225 11.139 13.225 11.117 13.203 L 10.054 12.139 C 10.039 12.124 10.017 12.119 9.997 12.125 C 9.683 12.222 9.35 12.275 9.005 12.275 C 8.683 12.275 8.372 12.228 8.077 12.143 C 8.057 12.138 8.036 12.143 8.021 12.158 L 6.848 13.333 C 6.826 13.355 6.79 13.355 6.768 13.333 L 4.671 11.235 C 4.649 11.213 4.649 11.178 4.671 11.156 L 5.801 10.025 C 5.816 10.01 5.821 9.987 5.814 9.967 C 5.705 9.635 5.645 9.281 5.645 8.913 C 5.645 8.594 5.69 8.285 5.773 7.992 C 5.779 7.972 5.773 7.951 5.759 7.936 L 4.516 6.694 C 4.495 6.672 4.495 6.637 4.516 6.615 L 6.614 4.517 C 6.636 4.495 6.671 4.495 6.693 4.516 L 7.887 5.711 C 7.903 5.726 7.925 5.731 7.946 5.724 C 8.279 5.614 8.635 5.553 9.005 5.553 C 9.398 5.553 9.776 5.621 10.127 5.745 C 10.147 5.752 10.17 5.747 10.186 5.732 L 11.402 4.516 C 11.424 4.495 11.459 4.495 11.481 4.516 L 13.579 6.615 M 9.005 7.301 C 8.114 7.301 7.392 8.023 7.392 8.913 C 7.392 9.804 8.114 10.527 9.005 10.527 C 9.896 10.527 10.618 9.804 10.618 8.913 C 10.618 8.023 9.896 7.301 9.005 7.301" transform="matrix(1 0 0 1 0 0)" fill="#F27A60" stroke="none" />
  <path d="M 15.5 13.5 L 16.5 17 L 13 15.5 L 10 17 L 10.5 14 L 10.468 13.962 C 10.883 14.32 11.509 14.304 11.903 13.91 L 14.001 11.813 C 14.25 11.563 14.348 11.221 14.296 10.898 L 14.5 11 L 17 10.5 L 15.5 13.5" transform="matrix(1 0 0 1 0 0)" fill="#B359FD" stroke="none" />
  <path d="M 3.877 11.844 C 3.903 11.878 3.932 11.911 3.963 11.942 L 5.937 13.916 L 5.827 14.474 L 5.138 16.158 L 4.5 17 L 2 17 L 2.655 16 L 4.5 16 L 5.552 14.053 L 4.448 14.474 L 3.759 13.491 L 4.034 12.509 L 3.345 12.368 L 2.517 12.93 L 3.482 14.614 L 1 13.491 L 1 11.947 L 2.655 11.808 L 3.877 11.844 M 8.173 14.614 L 8.311 15.597 L 7.621 16.158 L 5.552 15.597 L 6.931 14.755 L 6.729 14.346 C 7.025 14.368 7.329 14.266 7.555 14.04 L 7.643 13.95 L 8.173 14.614 M 3.62 10.403 L 3.861 10.567 C 3.759 10.706 3.694 10.863 3.668 11.025 L 3.207 10.824 L 2 11 L 1.5 10.965 L 2.5 10 L 3.62 10.403" transform="matrix(1 0 0 1 0 0)" fill="#53BEEC" stroke="none" />
  <path d="M 6.967 3.547 C 6.604 3.435 6.193 3.523 5.906 3.81 L 3.809 5.907 C 3.396 6.32 3.397 6.989 3.81 7.401 L 4.119 7.711 L 3.998 7.744 L 1.455 9.35 L 1 9.021 L 1.724 6.103 L 1 2 L 2.737 4.699 L 4.688 1.998 L 7.138 1 L 6.967 3.547" transform="matrix(1 0 0 1 0 0)" fill="#88C03F" stroke="none" />
  <path d="M 13.5 1 C 15.44 1 17 2.532 17 4.438 C 17 6.235 15.611 7.699 13.825 7.859 L 14.285 7.401 C 14.538 7.149 14.635 6.799 14.578 6.472 C 15.326 6.091 15.835 5.326 15.835 4.438 C 15.835 3.166 14.795 2.145 13.5 2.145 C 12.544 2.145 11.727 2.702 11.365 3.506 C 11.155 3.521 10.948 3.596 10.775 3.736 L 10.694 3.809 L 10.001 4.5 C 10.001 4.479 10 4.458 10 4.438 C 10 2.532 11.56 1 13.5 1 M 13.5 3.38 C 14.095 3.38 14.577 3.853 14.577 4.438 C 14.577 4.911 14.261 5.31 13.824 5.445 L 12.48 4.101 C 12.623 3.682 13.025 3.38 13.5 3.38" transform="matrix(1 0 0 1 0 0)" fill="#E3B847" stroke="none" />
</svg>
