<?xml version="1.0" encoding="UTF-8"?>
<!-- Reconstructed from Amplitude.Graphics.Svg.SvgAsset and recolored from static UIMapper.Color metadata for EWShop; not original source SVG. Live UI state/material colors are not included. -->
<svg xmlns="http://www.w3.org/2000/svg" width="48" height="48" viewBox="0 0 48 48">
  <path d="M 3.79 7.278 C 3.273 7.423 2.916 7.895 2.916 8.432 L 2.916 9.747 C 2.916 10.41 3.452 10.947 4.116 10.947 L 29.835 10.947 C 30.498 10.947 31.035 10.41 31.035 9.747 L 31.035 8.432 C 31.035 7.895 30.677 7.423 30.161 7.278 L 17.302 3.649 C 17.088 3.589 16.862 3.589 16.649 3.649 L 3.79 7.278 M 5.897 13.316 C 5.235 13.316 4.697 13.853 4.697 14.516 L 4.697 14.785 C 4.697 15.135 4.847 15.45 5.086 15.67 C 5.299 15.866 5.584 15.985 5.897 15.985 L 28.054 15.985 C 28.716 15.985 29.254 15.448 29.254 14.785 L 29.254 14.516 C 29.254 13.853 28.716 13.316 28.054 13.316 L 5.897 13.316 M 4.697 34.555 C 4.697 33.892 5.235 33.355 5.897 33.355 L 24.335 33.355 L 24.335 37.142 L 5.897 37.142 C 5.235 37.142 4.697 36.605 4.697 35.942 L 4.697 34.555 M 24.335 29.363 C 24.335 27.614 25.287 26.008 26.81 25.164 L 26.81 19.554 C 26.81 18.891 26.272 18.354 25.61 18.354 L 24.227 18.354 C 23.565 18.354 23.027 18.891 23.027 19.554 L 23.027 29.786 C 23.027 30.155 23.195 30.486 23.458 30.706 C 23.666 30.881 23.934 30.986 24.227 30.986 L 24.335 30.986 L 24.335 29.363 M 10.923 19.554 C 10.923 18.891 10.385 18.354 9.723 18.354 L 8.34 18.354 C 7.678 18.354 7.14 18.891 7.14 19.554 L 7.14 29.786 C 7.14 30.449 7.678 30.986 8.34 30.986 L 9.723 30.986 C 10.385 30.986 10.923 30.449 10.923 29.786 L 10.923 19.554 M 18.604 18.805 C 18.768 19.01 18.866 19.271 18.866 19.554 L 18.866 29.786 C 18.866 30.449 18.329 30.986 17.666 30.986 L 16.284 30.986 C 15.621 30.986 15.084 30.449 15.084 29.786 L 15.084 19.554 C 15.084 18.891 15.621 18.354 16.284 18.354 L 17.666 18.354 C 18.046 18.354 18.384 18.53 18.604 18.805 M 40.547 21.57 C 40.547 23.188 39.677 24.602 38.38 25.372 C 39.743 25.702 41.181 26.349 42.67 27.414 C 44.325 28.597 45.084 30.623 45.084 32.656 L 45.084 41.841 C 45.084 43.252 43.941 44.397 42.529 44.397 L 30.3 44.397 C 28.888 44.397 27.744 43.252 27.744 41.841 L 27.744 32.029 C 27.744 30.374 28.232 28.705 29.498 27.641 C 30.659 26.667 32.146 25.794 33.874 25.37 C 32.579 24.599 31.712 23.186 31.712 21.57 C 31.712 19.131 33.689 17.153 36.129 17.153 C 38.569 17.153 40.547 19.131 40.547 21.57" transform="matrix(1 0 0 1 0 0)" fill="#F04698" stroke="none" />
</svg>
