<?xml version="1.0" encoding="UTF-8"?>
<!-- Reconstructed from Amplitude.Graphics.Svg.SvgAsset and recolored from static UIMapper.Color metadata for EWShop; not original source SVG. Live UI state/material colors are not included. -->
<svg xmlns="http://www.w3.org/2000/svg" width="24" height="24" viewBox="0 0 24 24">
  <path d="M 12.094 19.1 L 11.895 19.1 C 11.299 19.1 10.503 19.4 10.204 19.7 C 9.906 20 9.707 20.4 9.707 20.9 L 9.707 22.9 C 10.105 22.9 10.503 23 10.901 23 L 14.283 23 L 14.283 20.9 C 14.283 20.4 14.084 20 13.785 19.7 C 13.487 19.4 12.691 19.1 12.094 19.1" transform="matrix(1 0 0 1 0 0)" fill="#FFFFFF" stroke="none" />
  <path d="M 20.251 15.5 C 20.052 14.5 19.456 13.7 18.958 13 C 18.162 11.9 17.466 10.9 17.764 8.9 C 17.764 8.9 15.974 9.4 15.576 9.4 C 15.278 9.4 14.967 9.25 14.78 9 C 14.482 8.6 14.681 8.2 14.78 7.8 C 15.178 6.7 15.875 5.1 9.11 1 C 11.498 3.9 9.11 6.7 6.822 9.7 C 5.33 11.6 3.739 13.5 3.54 15.4 C 3.44 16.3 3.54 17.1 3.739 17.9 C 4.236 19.6 5.43 21 7.121 21.9 L 7.121 19.3 L 9.707 16.9 L 9.707 15.7 L 6.524 18.7 L 6.524 17.5 L 9.707 14.5 L 9.707 13.9 L 11.995 11.5 L 14.283 13.9 L 14.283 14.5 L 17.466 17.5 L 17.466 18.7 L 14.283 15.7 L 14.283 16.9 L 16.869 19.3 L 16.869 22 C 17.466 21.7 17.963 21.3 18.461 20.9 C 20.052 19.4 20.749 17.6 20.251 15.5 M 15.377 12.6 L 15.377 13.5 L 11.896 9.9 L 8.414 13.5 L 8.414 12.3 L 11.896 8.7 L 15.377 12.3 L 15.377 12.6" transform="matrix(1 0 0 1 0 0)" fill="#FFFFFF" stroke="none" />
  <path d="M 13.487 15.9 C 13.487 15.1 12.791 14.5 11.995 14.5 C 11.199 14.5 10.503 15.1 10.503 15.9 C 10.503 16.7 11.199 17.3 11.995 17.3 C 12.791 17.3 13.487 16.7 13.487 15.9" transform="matrix(1 0 0 1 0 0)" fill="#FFFFFF" stroke="none" />
</svg>
