<?xml version="1.0" encoding="UTF-8"?>
<!-- Reconstructed from Amplitude.Graphics.Svg.SvgAsset; not original source SVG. UI tint/material colors are not included. -->
<svg xmlns="http://www.w3.org/2000/svg" width="24" height="24" viewBox="0 0 24 24">
  <path d="M 13.956 11.197 L 15.358 8.469 C 15.828 7.555 16.107 6.556 16.178 5.532 L 16.313 3.573 M 13.956 11.197 C 13.353 9.33 10.686 7.104 10.686 7.104 M 13.956 11.197 C 14.558 13.063 14.683 14.197 14.691 15.27 M 7.222 1 L 7.966 3.305 C 8.399 4.645 9.197 5.839 10.272 6.752 L 10.686 7.104 L 12.191 1.464 M 12.5 21.368 C 12.5 21.368 14.701 16.696 14.691 15.27 L 17.217 13.907 M 19.791 7.949 L 19.05 11.457 C 18.829 12.503 18.159 13.398 17.217 13.907 L 22 14.793 M 3 14.075 L 3.194 14.213 C 4.419 15.087 5.876 15.578 7.381 15.624 L 9.333 15.683 L 9.452 15.699 C 10.214 15.8 10.957 16.016 11.6 16.436 C 11.782 16.555 11.987 16.695 12.215 16.857 C 12.782 17.261 13.463 18.412 13.463 18.412 M 9.333 15.683 L 7.433 13.472 M 5.533 6.839 L 5.533 8.457 C 5.533 10.266 6.182 12.016 7.363 13.39 L 7.433 13.472 L 9.333 10.629 M 5.774 18.842 C 7.621 20.787 10.235 22 13.133 22 C 16.031 22 18.644 20.787 20.491 18.842" transform="matrix(1 0 0 1 0 0)" fill="none" stroke="#D6A3D0" stroke-width="1.5" />
</svg>
