<?xml version="1.0" encoding="UTF-8"?>
<!-- Reconstructed from Amplitude.Graphics.Svg.SvgAsset and recolored from static UIMapper.Color metadata for EWShop; not original source SVG. Live UI state/material colors are not included. -->
<svg xmlns="http://www.w3.org/2000/svg" width="30" height="30" viewBox="0 0 30 30">
  <path d="M 21.07 2.18 L 29.381 10.491 C 29.577 10.686 29.577 11.003 29.381 11.198 L 21.07 19.509 C 20.927 19.652 20.712 19.694 20.526 19.617 C 20.339 19.54 20.217 19.357 20.217 19.155 L 20.217 15.5 L 15.547 15.5 C 15.538 15.5 15.529 15.5 15.52 15.5 L 9.283 15.5 C 9.007 15.5 8.783 15.277 8.783 15 L 8.783 12.052 L 1.679 19.156 L 8.783 26.26 L 8.783 23.311 C 8.783 23.035 9.007 22.811 9.283 22.811 L 15.52 22.811 C 15.797 22.811 16.02 23.035 16.02 23.311 C 16.02 23.587 15.797 23.811 15.52 23.811 L 9.783 23.811 L 9.783 27.467 C 9.783 27.669 9.661 27.851 9.474 27.929 C 9.288 28.006 9.073 27.963 8.93 27.82 L 0.619 19.509 C 0.423 19.314 0.423 18.998 0.619 18.802 L 8.93 10.491 C 9.073 10.348 9.288 10.306 9.474 10.383 C 9.661 10.46 9.783 10.643 9.783 10.845 L 9.783 14.5 L 14.453 14.5 C 14.462 14.5 14.471 14.5 14.479 14.5 L 20.717 14.5 C 20.993 14.5 21.217 14.724 21.217 15 L 21.217 17.948 L 28.321 10.844 L 21.217 3.741 L 21.217 6.689 C 21.217 6.965 20.993 7.189 20.717 7.189 L 14.479 7.189 C 14.203 7.189 13.979 6.965 13.979 6.689 C 13.979 6.413 14.203 6.189 14.479 6.189 L 20.217 6.189 L 20.217 2.533 C 20.217 2.331 20.339 2.149 20.526 2.071 C 20.712 1.994 20.927 2.037 21.07 2.18" transform="matrix(1 0 0 1 0 0)" fill="#FFFFFF" stroke="none" />
</svg>
