<?xml version="1.0" encoding="UTF-8"?>
<!-- Reconstructed from Amplitude.Graphics.Svg.SvgAsset and recolored from static UIMapper.Color metadata for EWShop; not original source SVG. Live UI state/material colors are not included. -->
<svg xmlns="http://www.w3.org/2000/svg" width="25" height="25" viewBox="0 0 25 25">
  <path d="M 11.236 3.906 C 11.874 3.906 12.39 4.409 12.39 5.031 L 12.39 8.969 L 10.082 8.969 L 10.082 5.031 C 10.082 4.409 10.598 3.906 11.236 3.906 M 6.62 6.156 C 6.62 5.534 7.136 5.031 7.774 5.031 C 8.412 5.031 8.928 5.534 8.928 6.156 L 8.928 8.969 L 6.62 8.969 L 6.62 6.156 M 13.544 6.156 C 13.544 5.534 14.059 5.031 14.697 5.031 C 15.336 5.031 15.851 5.534 15.851 6.156 L 15.851 9.531 C 15.851 10.154 15.336 10.656 14.697 10.656 C 14.059 10.656 13.544 10.154 13.544 9.531 L 13.544 6.156 M 17.005 8.406 C 17.005 7.784 17.521 7.281 18.159 7.281 C 18.797 7.281 19.313 7.784 19.313 8.406 L 19.313 10.656 C 19.313 11.279 18.797 11.781 18.159 11.781 C 17.521 11.781 17.005 11.279 17.005 10.656 L 17.005 8.406 M 13.544 11.5 L 13.544 11.479 C 13.882 11.669 14.275 11.781 14.697 11.781 C 15.173 11.781 15.613 11.641 15.981 11.402 C 16.295 12.277 17.153 12.906 18.159 12.906 C 18.581 12.906 18.974 12.797 19.313 12.604 L 19.313 12.906 C 19.313 14.745 18.408 16.38 17.005 17.406 L 17.005 20.781 C 17.005 21.404 16.489 21.906 15.851 21.906 L 10.082 21.906 C 9.444 21.906 8.928 21.404 8.928 20.781 L 8.928 18.025 C 8.304 17.747 7.731 17.364 7.237 16.882 L 6.819 16.475 C 5.953 15.631 5.467 14.485 5.467 13.293 L 5.467 12.344 C 5.467 11.103 6.501 10.094 7.774 10.094 L 10.947 10.094 C 11.744 10.094 12.39 10.723 12.39 11.5 C 12.39 12.277 11.744 12.906 10.947 12.906 L 8.928 12.906 C 8.611 12.906 8.351 13.159 8.351 13.469 C 8.351 13.778 8.611 14.031 8.928 14.031 L 10.947 14.031 C 12.382 14.031 13.544 12.899 13.544 11.5" transform="matrix(1 0 0 1 0 0)" fill="#FFFFFF" stroke="none" />
</svg>
