<?xml version="1.0" encoding="UTF-8"?>
<!-- Reconstructed from Amplitude.Graphics.Svg.SvgAsset and recolored from static UIMapper.Color metadata for EWShop; not original source SVG. Live UI state/material colors are not included. -->
<svg xmlns="http://www.w3.org/2000/svg" width="25" height="24" viewBox="0 0 25 24">
  <path d="M 22.687 9.273 L 17.201 2.69 C 16.901 2.33 16.348 2.33 16.048 2.69 L 11.919 7.644 C 11.752 7.846 11.895 8.152 12.157 8.152 C 12.756 8.152 13.325 8.453 13.719 8.977 L 15.879 11.854 C 16.572 12.777 16.561 14.157 15.853 15.063 L 15.427 15.609 C 15.318 15.748 15.321 15.944 15.434 16.08 L 16.048 16.817 C 16.348 17.177 16.901 17.177 17.201 16.817 L 22.687 10.234 C 22.919 9.955 22.919 9.551 22.687 9.273 M 14.527 14.363 C 14.539 14.351 14.551 14.338 14.562 14.324 L 14.829 13.982 C 14.844 13.962 14.859 13.942 14.872 13.92 L 15.032 13.716 C 15.15 13.565 15.152 13.335 15.036 13.181 L 14.874 12.964 C 14.863 12.947 14.85 12.929 14.838 12.912 L 12.678 10.036 C 12.665 10.019 12.652 10.003 12.638 9.987 L 12.571 9.897 C 12.505 9.81 12.41 9.759 12.31 9.759 L 8.892 9.759 L 5.475 9.759 C 5.375 9.759 5.28 9.81 5.214 9.897 L 2.748 13.181 C 2.691 13.258 2.662 13.354 2.663 13.449 C 2.663 13.477 2.666 13.504 2.671 13.531 C 2.683 13.598 2.711 13.662 2.753 13.716 L 8.636 21.252 C 8.774 21.428 9.011 21.428 9.148 21.252 L 14.527 14.363" transform="matrix(1 0 0 1 0 0)" fill="#E3B847" stroke="none" />
</svg>
