<?xml version="1.0" encoding="UTF-8"?>
<!-- Reconstructed from Amplitude.Graphics.Svg.SvgAsset and recolored from static UIMapper.Color metadata for EWShop; not original source SVG. Live UI state/material colors are not included. -->
<svg xmlns="http://www.w3.org/2000/svg" width="20" height="20" viewBox="0 0 20 20">
  <path d="M 0 1 L 3 1 L 3 3 L 5 3 L 5 1 L 7 1 L 7 3 L 9 3 L 9 1 L 11 1 L 11 3 L 13 3 L 13 1 L 15 1 L 15 3 L 17 3 L 17 1 L 20 1 L 20 3 L 20 11.462 L 20 13.333 C 19.261 13.333 18.462 13.06 17.58 12.739 C 17.545 12.726 17.509 12.713 17.474 12.7 C 17.332 12.649 17.188 12.596 17.041 12.544 C 16.653 9.149 13.649 6.157 10 6.157 C 6.503 6.157 3.598 8.905 3.021 12.123 C 1.973 12.257 0.988 12.53 0.06 12.787 L 0 12.803 L 0 3 L 0 1" transform="matrix(1 0 0 1 0 0)" fill="#EBEBEB" stroke="none" />
  <path d="M 0.06 14.106 C 0.04 14.112 0.02 14.117 0 14.123 L 0 15.703 C 0.088 15.676 0.179 15.647 0.272 15.618 C 0.41 15.575 0.553 15.53 0.702 15.485 C 1.787 15.157 3.124 14.846 3.866 14.846 C 4.607 14.846 5.403 15.132 6.286 15.468 C 6.321 15.481 6.356 15.495 6.392 15.508 C 7.245 15.834 8.179 16.19 9.244 16.19 C 10.309 16.19 11.242 15.834 12.096 15.508 C 12.131 15.495 12.167 15.481 12.202 15.468 C 13.084 15.132 13.882 14.846 14.622 14.846 C 15.361 14.846 16.16 15.132 17.042 15.468 C 17.077 15.481 17.113 15.495 17.148 15.508 C 18.002 15.834 18.935 16.19 20 16.19 L 20 14.678 C 19.261 14.678 18.462 14.392 17.58 14.056 C 17.545 14.043 17.509 14.029 17.474 14.016 C 16.62 13.69 15.687 13.333 14.622 13.333 C 13.557 13.333 12.624 13.69 11.77 14.016 C 11.734 14.029 11.699 14.043 11.664 14.056 C 10.782 14.392 9.983 14.678 9.244 14.678 C 8.504 14.678 7.706 14.392 6.824 14.056 C 6.789 14.043 6.755 14.03 6.721 14.017 C 5.866 13.691 4.93 13.333 3.866 13.333 C 2.499 13.399 1.233 13.766 0.06 14.106" transform="matrix(1 0 0 1 0 0)" fill="#EBEBEB" stroke="none" />
  <path d="M 0.06 16.963 C 0.04 16.969 0.02 16.975 0 16.98 L 0 18.56 C 0.088 18.533 0.179 18.505 0.272 18.475 C 0.41 18.432 0.553 18.387 0.702 18.342 C 1.787 18.014 3.124 17.703 3.866 17.703 C 4.607 17.703 5.403 17.989 6.286 18.325 C 6.321 18.338 6.356 18.352 6.392 18.365 C 7.245 18.691 8.179 19.048 9.244 19.048 C 10.309 19.048 11.242 18.691 12.096 18.365 C 12.131 18.352 12.167 18.338 12.202 18.325 C 13.084 17.989 13.882 17.703 14.622 17.703 C 15.361 17.703 16.16 17.989 17.042 18.325 C 17.077 18.338 17.113 18.352 17.148 18.365 C 18.002 18.691 18.935 19.048 20 19.048 L 20 17.535 C 19.261 17.535 18.462 17.249 17.58 16.913 C 17.545 16.9 17.509 16.886 17.474 16.873 C 16.62 16.547 15.687 16.19 14.622 16.19 C 13.557 16.19 12.624 16.547 11.77 16.873 C 11.734 16.886 11.699 16.9 11.664 16.913 C 10.782 17.249 9.983 17.535 9.244 17.535 C 8.504 17.535 7.706 17.249 6.824 16.913 C 6.789 16.9 6.755 16.887 6.721 16.874 C 5.866 16.548 4.93 16.19 3.866 16.19 C 2.499 16.257 1.233 16.623 0.06 16.963" transform="matrix(1 0 0 1 0 0)" fill="#EBEBEB" stroke="none" />
</svg>
