<?xml version="1.0" encoding="UTF-8"?>
<!-- Reconstructed from Amplitude.Graphics.Svg.SvgAsset and recolored from static UIMapper.Color metadata for EWShop; not original source SVG. Live UI state/material colors are not included. -->
<svg xmlns="http://www.w3.org/2000/svg" width="30" height="30" viewBox="0 0 30 30">
  <path d="M 19.354 14.012 C 18.443 14.174 17.474 13.89 16.77 13.155 L 15.54 11.87 C 15.055 11.364 14.784 10.682 14.784 9.967 L 14.784 9.559 L 12.21 8.091 C 12.039 7.994 11.933 7.801 11.942 7.596 C 11.952 7.39 12.068 7.208 12.249 7.123 L 13.773 6.415 C 14.368 6.142 15.01 6 15.663 6 L 16.247 6 C 17.432 6 18.572 6.472 19.435 7.319 L 20.875 8.736 C 21.656 9.505 21.947 10.615 21.734 11.637 L 22.244 12.173 L 22.503 11.903 C 22.806 11.586 23.297 11.586 23.597 11.903 L 24.372 12.713 C 24.676 13.03 24.676 13.543 24.372 13.857 L 21.53 16.825 C 21.227 17.142 20.736 17.142 20.436 16.825 L 19.661 16.015 C 19.357 15.698 19.357 15.186 19.661 14.872 L 19.919 14.602 L 19.354 14.012 M 6.885 18.721 L 14.426 12.16 C 14.539 12.325 14.668 12.484 14.807 12.632 L 16.037 13.917 C 16.231 14.12 16.438 14.295 16.657 14.447 L 10.357 22.347 C 9.888 22.934 9.194 23.271 8.464 23.271 C 7.101 23.271 6 22.118 6 20.698 C 6 19.935 6.326 19.21 6.885 18.721" transform="matrix(1 0 0 1 0 0)" fill="none" stroke="none" />
</svg>
