<?xml version="1.0" encoding="UTF-8"?>
<!-- Reconstructed from Amplitude.Graphics.Svg.SvgAsset and recolored from static UIMapper.Color metadata for EWShop; not original source SVG. Live UI state/material colors are not included. -->
<svg xmlns="http://www.w3.org/2000/svg" width="20" height="20" viewBox="0 0 20 20">
  <path d="M 15 10 C 17.761 10 20 7.761 20 5 C 20 2.239 17.761 0 15 0 C 12.239 0 10 2.239 10 5 C 10 7.761 12.239 10 15 10 M 19 4 L 16 4 L 16 1 L 14 1 L 14 4 L 11 4 L 11 6 L 14 6 L 14 9 L 16 9 L 16 6 L 19 6 L 19 4" transform="matrix(1 0 0 1 0 0)" fill="#FFFFFF" stroke="none" />
  <path d="M 10.356 1.2 L 10 1 L 2 5.5 L 2 14.5 L 10 19 L 18 14.5 L 18 10.197 C 17.684 10.38 17.349 10.535 17 10.659 L 17 13.915 L 10 17.853 L 3 13.915 L 3 6.085 L 9.606 2.369 C 9.811 1.95 10.063 1.558 10.356 1.2" transform="matrix(1 0 0 1 0 0)" fill="#FFFFFF" stroke="none" />
  <path d="M 5 7 L 9.014 4.592 C 9.005 4.727 9 4.863 9 5 C 9 8.314 11.686 11 15 11 L 15 13 L 10 16 L 5 13 L 5 7" transform="matrix(1 0 0 1 0 0)" fill="#FFFFFF" stroke="none" />
</svg>
