<?xml version="1.0" encoding="UTF-8"?>
<!-- Reconstructed from Amplitude.Graphics.Svg.SvgAsset and recolored from static UIMapper.Color metadata for EWShop; not original source SVG. Live UI state/material colors are not included. -->
<svg xmlns="http://www.w3.org/2000/svg" width="48" height="48" viewBox="0 0 48 48">
  <path d="M 46.307 31.863 C 45.781 29.619 44.402 27.036 42.569 25.905 C 41.766 26.833 40.963 27.761 40.159 28.689 C 39.136 27.313 36.612 27.366 35.845 26.481 C 35.94 25.34 36.038 24.199 36.136 23.058 C 33.938 22.905 30.593 23.332 29.38 24.884 C 29.993 25.898 30.606 26.912 31.219 27.926 C 29.6 28.476 28.872 30.895 27.793 31.348 C 26.735 30.903 25.676 30.461 24.621 30.013 C 23.802 32.058 23.186 35.355 24.27 36.992 C 25.426 36.723 26.582 36.454 27.738 36.186 C 27.752 37.898 29.835 39.34 29.928 40.508 C 29.178 41.374 28.426 42.239 27.677 43.107 C 29.338 44.482 32.525 46.309 34.227 45.479 C 34.325 44.339 34.422 43.199 34.519 42.06 C 36.153 42.579 38.168 41.034 39.307 41.305 C 39.9 42.287 40.495 43.267 41.085 44.25 C 42.956 43.072 45.389 40.775 45.478 38.799 C 44.383 38.339 43.289 37.878 42.195 37.418 C 43.181 36.024 42.346 33.637 42.959 32.642 C 44.075 32.382 45.191 32.122 46.307 31.863 M 38.968 34.781 C 38.863 37.65 35.122 39.327 32.899 37.521 C 30.521 35.935 31.023 31.889 33.717 30.933 C 36.252 29.807 39.288 32.016 38.968 34.781 M 27.087 17.387 C 27.345 15.96 25.717 13.904 27.9 13.828 C 29.077 13.446 30.254 13.066 31.43 12.684 C 30.845 11.404 30.194 8.783 28.957 8.649 C 27.687 9.571 26.418 10.493 25.148 11.415 C 24.516 10.11 21.993 9.402 23.712 8.057 C 24.438 7.056 25.166 6.058 25.893 5.059 C 24.661 4.313 22.767 2.837 21.563 3.129 C 21.067 4.659 20.57 6.189 20.072 7.719 C 18.792 7.033 16.329 7.951 16.929 5.848 C 16.929 4.615 16.929 3.381 16.929 2.148 C 15.499 2.273 13.096 2.183 12.296 3.128 C 12.792 4.659 13.289 6.189 13.787 7.719 C 12.347 7.912 10.896 10.113 10.145 8.056 C 9.42 7.056 8.689 6.058 7.965 5.058 C 6.934 6.01 4.647 7.434 4.902 8.648 C 6.171 9.57 7.441 10.492 8.71 11.414 C 7.658 12.417 7.775 15.049 5.959 13.828 C 4.782 13.446 3.605 13.066 2.429 12.684 C 2.151 14.062 1.149 16.554 2.065 17.388 C 3.634 17.388 5.204 17.388 6.773 17.388 C 6.514 18.815 8.142 20.871 5.959 20.948 C 4.782 21.329 3.606 21.712 2.429 22.093 C 3.014 23.372 3.667 25.993 4.902 26.128 C 6.171 25.205 7.44 24.282 8.71 23.361 C 9.341 24.666 11.865 25.372 10.145 26.717 C 9.419 27.717 8.69 28.716 7.965 29.717 C 9.197 30.46 11.094 31.944 12.296 31.645 C 12.793 30.116 13.29 28.587 13.788 27.058 C 15.068 27.74 17.53 26.824 16.93 28.926 C 16.93 30.159 16.93 31.393 16.93 32.627 C 18.36 32.501 20.767 32.593 21.564 31.645 C 21.068 30.115 20.571 28.586 20.073 27.058 C 21.513 26.863 22.964 24.659 23.714 26.717 C 24.44 27.718 25.168 28.718 25.895 29.718 C 26.926 28.765 29.212 27.342 28.958 26.129 C 27.689 25.206 26.419 24.283 25.149 23.362 C 26.201 22.359 26.084 19.727 27.9 20.949 C 29.077 21.331 30.253 21.713 31.43 22.094 C 31.708 20.714 32.71 18.222 31.794 17.389 C 30.226 17.387 28.652 17.391 27.087 17.387 M 21.765 18.957 C 20.822 22.312 16.185 23.612 13.628 21.249 C 10.885 19.101 11.451 14.315 14.619 12.865 C 17.652 11.162 21.862 13.499 21.995 16.981 C 22.047 17.646 21.971 18.322 21.765 18.957" transform="matrix(1 0 0 1 0 0)" fill="#F27A60" stroke="none" />
</svg>
