<?xml version="1.0" encoding="UTF-8"?>
<!-- Reconstructed from Amplitude.Graphics.Svg.SvgAsset and recolored from static UIMapper.Color metadata for EWShop; not original source SVG. Live UI state/material colors are not included. -->
<svg xmlns="http://www.w3.org/2000/svg" width="62" height="61" viewBox="0 0 62 61">
  <path d="M 38.217 24.456 C 39.915 26.23 42.253 26.914 44.45 26.523 L 45.814 27.947 L 45.19 28.598 C 44.458 29.355 44.458 30.592 45.19 31.358 L 47.06 33.311 C 47.785 34.076 48.969 34.076 49.702 33.311 L 56.559 26.149 C 57.291 25.392 57.291 24.154 56.559 23.389 L 54.689 21.436 C 53.964 20.671 52.78 20.671 52.047 21.436 L 51.424 22.087 L 50.193 20.793 C 50.707 18.327 50.006 15.649 48.12 13.793 L 44.645 10.375 C 42.565 8.332 39.814 7.193 36.954 7.193 L 35.544 7.193 C 33.97 7.193 32.419 7.534 30.986 8.194 L 27.308 9.903 C 26.872 10.106 26.591 10.546 26.568 11.042 C 26.544 11.539 26.801 12.003 27.214 12.239 L 33.425 15.779 L 33.425 16.764 C 33.425 18.49 34.079 20.134 35.248 21.355 L 38.217 24.456 M 37.05 28.127 L 31.932 23.009 L 9.759 45.182 L 14.877 50.3 L 37.05 28.127" transform="matrix(1 0 0 1 0 0)" fill="#FFFFFF" stroke="none" />
</svg>
