<?xml version="1.0" encoding="UTF-8"?>
<!-- Reconstructed from Amplitude.Graphics.Svg.SvgAsset and recolored from static UIMapper.Color metadata for EWShop; not original source SVG. Live UI state/material colors are not included. -->
<svg xmlns="http://www.w3.org/2000/svg" width="25" height="25" viewBox="0 0 25 25">
  <path d="M 0.336 15.388 C 0.167 14.676 0.059 13.94 0.019 13.186 L 5.65 13.186 C 5.65 11.126 6.421 9.243 8.801 9.207 C 10.305 9.626 11.431 11.349 11.431 13.411 C 11.431 14.521 11.105 15.532 10.569 16.295 L 9.422 16.194 L 9.622 15.945 L 9.77 12.447 L 9.208 10.841 L 8.381 10.761 L 7.528 11.302 L 6.888 14.187 L 8.381 12.328 L 8.866 13.102 L 8.381 15.945 L 8.146 16.08 L 6.568 15.941 L 5.79 15.24 L 5.275 14.168 L 5.103 15.519 L 5.26 15.825 L 0.336 15.388" transform="matrix(1 0 0 1 0 0)" fill="#EBEBEB" stroke="none" />
  <path d="M 23.498 18.445 C 21.384 22.348 17.252 24.999 12.5 24.999 C 6.965 24.999 2.271 21.402 0.627 16.418 L 23.498 18.445" transform="matrix(1 0 0 1 0 0)" fill="#EBEBEB" stroke="none" />
  <path d="M 1.498 6.563 C 1.834 5.941 2.221 5.352 2.653 4.799 L 6.091 4.131 C 5.496 4.782 5.139 5.576 4.944 6.361 L 1.498 6.563" transform="matrix(1 0 0 1 0 0)" fill="#EBEBEB" stroke="none" />
  <path d="M 0.348 9.561 C 0.511 8.882 0.731 8.225 1 7.594 L 4.776 7.373 C 4.716 8.042 4.76 8.65 4.854 9.085 L 2.598 9.693 L 0.348 9.561" transform="matrix(1 0 0 1 0 0)" fill="#EBEBEB" stroke="none" />
  <path d="M 0.004 12.186 C 0.02 11.539 0.085 10.904 0.196 10.285 L 2.469 10.475 L 5.6 9.715 C 5.056 10.402 4.775 11.278 4.677 12.186 L 0.004 12.186" transform="matrix(1 0 0 1 0 0)" fill="#EBEBEB" stroke="none" />
  <path d="M 14.94 1.885 C 15.048 1.729 15.165 1.586 15.29 1.455 L 11.546 3.07 L 7.716 3.815 C 7.265 4.263 6.567 5.204 6.21 6.287 L 10.853 6.016 L 13.91 5.204 C 14.046 3.852 14.362 2.714 14.94 1.885" transform="matrix(1 0 0 1 0 0)" fill="#EBEBEB" stroke="none" />
  <path d="M 17.504 1.512 C 18.866 1.512 19.969 3.44 19.969 5.818 C 19.969 7.916 19.111 9.663 17.974 10.047 L 17.169 9.798 L 18.527 7.789 L 18.66 4.667 L 18.158 3.233 L 17.42 3.161 L 16.657 3.644 L 16.086 6.22 L 17.42 4.56 L 17.852 5.251 L 17.42 7.789 L 15.898 9.399 L 14.831 9.059 L 14.301 8.085 L 13.862 6.25 L 14.849 5.988 C 14.975 4.324 15.292 1.512 17.504 1.512" transform="matrix(1 0 0 1 0 0)" fill="#EBEBEB" stroke="none" />
  <path d="M 14.585 9.908 L 16.511 10.477 L 12.059 10.788 L 11.546 9.291 L 10.477 8.33 C 9.536 8.33 8.594 8.33 7.653 8.33 L 6.236 8.712 L 6.015 8.074 C 5.977 7.817 5.973 7.558 5.995 7.301 L 11.012 7.008 L 12.941 6.496 L 13.553 8.909 L 14.585 9.908" transform="matrix(1 0 0 1 0 0)" fill="#EBEBEB" stroke="none" />
  <path d="M 22.387 17.342 L 20.882 17.209 L 21.666 16.469 L 22.152 13.444 L 21.666 12.055 L 20.951 11.986 L 20.212 12.454 L 19.659 14.949 L 20.951 13.341 L 21.37 14.01 L 20.951 16.469 L 20.062 16.981 L 19.492 16.805 L 18.634 16.033 L 18.119 14.961 L 17.948 16.312 L 18.29 16.979 L 11.542 16.381 L 11.98 15.633 L 12.392 13.84 L 12.392 13.809 L 18.651 13.556 C 18.904 12.081 19.495 10.31 21.3 10.456 C 23.602 11.762 23.855 15.334 22.387 17.342" transform="matrix(1 0 0 1 0 0)" fill="#EBEBEB" stroke="none" />
  <path d="M 17.813 12.589 L 12.392 12.809 L 12.392 12.077 L 12.232 11.587 L 16.336 11.399 L 18.999 10.266 C 18.409 10.834 18.026 11.647 17.813 12.589" transform="matrix(1 0 0 1 0 0)" fill="#EBEBEB" stroke="none" />
</svg>
