<?xml version="1.0" encoding="UTF-8"?>
<!-- Reconstructed from Amplitude.Graphics.Svg.SvgAsset and recolored from static UIMapper.Color metadata for EWShop; not original source SVG. Live UI state/material colors are not included. -->
<svg xmlns="http://www.w3.org/2000/svg" width="25" height="25" viewBox="0 0 25 25">
  <path d="M 0 12.002 C 0 18.906 5.596 24.502 12.5 24.502 C 18.293 24.502 23.165 20.562 24.583 15.215 L 21.138 13.475 L 21.904 15.527 L 21.041 15.844 L 18.674 10.703 C 14.685 11.848 10.184 12.56 6.339 10.604 L 4.03 15.62 L 3.096 15.185 L 6.854 6.259 L 2.746 4.184 C 1.028 6.324 0 9.043 0 12.002 M 6.923 12.205 L 5.118 16.126 L 5.831 16.458 L 7.405 14.352 L 8.669 15.527 L 10.842 16.214 L 10.731 17.988 L 11.794 17.988 L 11.794 15.385 C 9.992 15.152 8.473 14.021 7.699 12.455 C 7.41 12.375 7.151 12.29 6.923 12.205 M 12.994 15.405 L 12.994 17.988 L 13.879 17.988 L 13.879 16.059 L 15.475 16.059 L 17.027 14.662 L 17.692 13.798 L 18.911 16.702 L 19.931 16.302 L 18.013 12.136 C 17.786 12.196 17.561 12.253 17.339 12.306 C 16.566 14.002 14.931 15.222 12.994 15.405" transform="matrix(1 0 0 1 0 0)" fill="#EBEBEB" stroke="none" />
  <path d="M 11.293 1 L 10.994 4.974 C 8.813 5.607 7.209 7.595 7.152 9.966 C 8.922 10.771 12.412 11.53 17.814 9.918 C 17.738 7.58 16.157 5.623 14.008 4.984 L 13.771 1 L 11.293 1 M 14.101 5.767 C 14.686 6.066 15.932 6.892 16.23 7.803 L 14.867 8.345 C 14.568 7.433 13.323 6.608 12.738 6.309 L 14.101 5.767" transform="matrix(1 0 0 1 0 0)" fill="#EBEBEB" stroke="none" />
</svg>
