<?xml version="1.0" encoding="UTF-8"?>
<!-- Reconstructed from Amplitude.Graphics.Svg.SvgAsset and recolored from static UIMapper.Color metadata for EWShop; not original source SVG. Live UI state/material colors are not included. -->
<svg xmlns="http://www.w3.org/2000/svg" width="25" height="25" viewBox="0 0 25 25">
  <path d="M 24.218 14.788 C 23.401 14.913 22.614 15.24 21.936 15.761 L 21.759 15.896 C 20.12 17.154 17.826 17.171 16.149 15.965 C 14.544 14.81 12.358 14.793 10.753 15.948 C 9.06 17.166 6.756 17.091 5.144 15.766 C 3.834 14.688 2.037 14.417 0.468 15.062 L 0 15.255 C 0.252 16.165 0.604 17.034 1.043 17.848 C 2.399 17.386 3.986 17.124 4.549 17.969 C 5.349 19.169 8.549 18.084 9.549 17.417 C 8.827 18.862 7.221 19.586 5.622 19.816 C 5.501 19.834 5.382 19.85 5.268 19.863 C 4.841 19.915 4.456 19.62 4.114 19.358 L 4.113 19.357 C 3.517 18.9 2.45 18.623 1.423 18.504 C 3.629 22.053 7.563 24.417 12.049 24.417 C 15.773 24.417 19.116 22.789 21.406 20.206 C 20.668 19.275 17.931 19.315 16.55 19.469 C 17.883 18.802 20.75 17.769 21.55 18.969 C 21.685 19.172 21.861 19.311 22.064 19.399 C 23.075 18.048 23.819 16.484 24.218 14.788 M 12.05 21.859 C 11.49 22.819 9.249 21.95 8.549 21.417 C 9.043 22.545 10.229 23.177 11.446 23.36 C 11.481 23.365 11.516 23.37 11.55 23.374 C 11.845 23.415 12.103 23.205 12.32 23.001 C 13 22.362 14.669 22.147 15.55 22.259 C 14.616 21.725 12.61 20.899 12.05 21.859 M 13.05 18.196 C 12.81 17.716 11.85 18.15 11.55 18.417 L 11.558 18.395 L 11.564 18.38 C 11.772 17.858 12.274 17.529 12.829 17.439 C 12.952 17.419 13.067 17.508 13.147 17.604 C 13.425 17.94 14.164 18.053 14.55 17.996 C 14.15 18.263 13.29 18.676 13.05 18.196" transform="matrix(1 0 0 1 0 0)" fill="#EBEBEB" stroke="none" />
  <path d="M 9.847 15.198 C 8.454 15.89 6.757 15.717 5.525 14.704 C 4.691 14.018 3.683 13.622 2.644 13.536 L 6.262 5.132 L 11.236 2 L 12.603 9.042 L 9.847 15.198 M 7.8 9.642 C 8.429 9.923 9.229 9.5 9.589 8.698 C 9.948 7.895 9.73 7.016 9.102 6.735 C 8.473 6.454 7.673 6.876 7.313 7.679 C 6.954 8.482 7.172 9.36 7.8 9.642" transform="matrix(1 0 0 1 0 0)" fill="#EBEBEB" stroke="none" />
  <path d="M 18.082 15.572 C 17.523 15.458 16.982 15.227 16.499 14.879 C 15.094 13.869 13.293 13.629 11.707 14.184 L 13.34 10.534 L 19.551 12.29 L 18.082 15.572" transform="matrix(1 0 0 1 0 0)" fill="#EBEBEB" stroke="none" />
  <path d="M 12.456 2.231 L 13.812 9.071 L 13.896 8.882 L 20.01 11.041 L 18.024 4.156 L 12.456 2.231" transform="matrix(1 0 0 1 0 0)" fill="#EBEBEB" stroke="none" />
</svg>
