<?xml version="1.0" encoding="UTF-8"?>
<!-- Reconstructed from Amplitude.Graphics.Svg.SvgAsset and recolored from static UIMapper.Color metadata for EWShop; not original source SVG. Live UI state/material colors are not included. -->
<svg xmlns="http://www.w3.org/2000/svg" width="25" height="25" viewBox="0 0 25 25">
  <path d="M 1.395 18.244 C 1.211 17.433 1.077 16.412 1 15 C 1.404 16.833 2.656 18.428 3.272 19.126 L 3.655 19.02 L 3.833 16.5 L 5.69 18.461 L 11 17 L 18.451 19.107 L 20.92 16.5 L 21.132 19.5 C 21.132 19.5 23.21 17.465 23.753 15 C 23.647 16.944 23.433 18.146 23.129 19.081 C 21.842 21.157 19.963 22.827 17.729 23.857 C 17.735 23.846 17.74 23.835 17.746 23.824 C 17.681 23.862 17.615 23.9 17.55 23.938 C 16.005 24.621 14.297 25 12.5 25 C 7.667 25 3.475 22.258 1.395 18.244" transform="matrix(1 0 0 1 0 0)" fill="#EBEBEB" stroke="none" />
  <path d="M 13.499 3 L 16.038 10.685 L 17.559 16.776 L 11.007 14.924 L 6.129 16.265 L 6.334 15.326 C 7.72 12.925 10.091 6.185 10.091 6.185 L 13.499 3 M 13.126 5.114 L 15.491 12.5 L 10.734 7.365 L 13.126 5.114 M 7.566 15.11 L 9.086 11.361 L 11.555 13.796 L 7.566 15.11" transform="matrix(1 0 0 1 0 0)" fill="#EBEBEB" stroke="none" />
  <path d="M 4.907 8.574 C 4.852 8.551 4.69 8.539 4.479 8.674 C 4.268 8.809 4.073 8.876 4.002 8.893 L 3.51 8.686 L 4.517 4.913 L 4.895 4.932 L 6.278 4.395 L 7.161 5.046 L 6.404 8.224 L 4.907 8.574" transform="matrix(1 0 0 1 0 0)" fill="#EBEBEB" stroke="none" />
  <path d="M 20.486 10.61 C 20.452 10.61 20.432 10.621 20.424 10.641 L 20.486 10.61" transform="matrix(1 0 0 1 0 0)" fill="#EBEBEB" stroke="none" />
  <path d="M 20.424 10.641 L 19.492 11.1 L 20.207 13.77 L 21.07 14.332 L 21.359 13.118 L 21.401 12.389 L 21.45 10.302 L 21.07 10.238 C 21.053 10.246 21.058 10.371 21.065 10.529 C 21.076 10.789 21.091 11.143 21.013 11.223 C 20.902 11.337 20.366 10.78 20.424 10.641" transform="matrix(1 0 0 1 0 0)" fill="#EBEBEB" stroke="none" />
</svg>
