<?xml version="1.0" encoding="UTF-8"?>
<!-- Reconstructed from Amplitude.Graphics.Svg.SvgAsset and recolored from static UIMapper.Color metadata for EWShop; not original source SVG. Live UI state/material colors are not included. -->
<svg xmlns="http://www.w3.org/2000/svg" width="25" height="25" viewBox="0 0 25 25">
  <path d="M 23.655 18.05 L 22.253 17.79 L 22.232 8.851 C 22.232 7.477 21.108 6.609 19.837 6.609 C 18.838 6.765 17.221 7.653 17.168 10.307 L 17.168 13.518 L 16.401 13.518 L 16.182 11.587 L 2 11.587 L 2 16.604 L 2.796 16.677 C 3.495 14.787 5.108 13.362 7.163 13.362 C 8.471 13.362 9.601 13.94 10.429 14.848 C 11.819 16.372 12.238 18.633 11.64 20.586 L 20.911 21.673 C 21.249 21.364 21.57 21.037 21.873 20.692 L 18.782 20.188 L 18.895 18.477 L 23.108 19.027 C 23.304 18.71 23.487 18.385 23.655 18.05 M 17.2 19.93 L 17.2 18.255 L 13.814 17.813 C 13.62 18.409 13.253 18.903 12.786 19.209 L 17.2 19.93 M 20.445 14.813 L 20.655 17.495 L 18.98 17.184 L 19.134 14.848 L 20.445 14.813 M 17.2 14.848 L 13.225 14.848 C 13.562 15.214 13.806 15.698 13.91 16.246 L 17.2 16.855 L 17.2 14.848" transform="matrix(1 0 0 1 0 0)" fill="#EBEBEB" stroke="none" />
  <path d="M 3.436 18.796 C 3.436 21.234 5.105 23.211 7.163 23.211 C 9.191 23.211 10.842 21.29 10.888 18.9 C 10.912 17.688 10.514 16.448 9.683 15.544 C 9.019 14.822 8.135 14.381 7.163 14.381 C 5.105 14.381 3.436 16.358 3.436 18.796 M 7.163 15.788 C 5.761 15.788 4.624 17.135 4.624 18.796 C 4.624 20.457 5.761 21.804 7.163 21.804 C 8.565 21.804 9.701 20.457 9.701 18.796 C 9.701 17.135 8.565 15.788 7.163 15.788" transform="matrix(1 0 0 1 0 0)" fill="#EBEBEB" stroke="none" />
  <path d="M 6.173 7.692 L 6.173 6.609 C 4.536 6.609 2.225 6.774 2 8.851 L 2 10.125 L 4.982 10.125 L 5.006 9.131 L 6.173 7.692" transform="matrix(1 0 0 1 0 0)" fill="#EBEBEB" stroke="none" />
  <path d="M 6.468 9.132 L 6.445 10.126 L 9.747 10.126 L 9.747 9.132 L 10.887 7.693 L 10.887 5.117 L 12.702 4.361 L 11.945 3 L 6.614 3.302 L 7.446 4.853 L 7.446 7.693 L 6.468 9.132" transform="matrix(1 0 0 1 0 0)" fill="#EBEBEB" stroke="none" />
  <path d="M 11.21 9.131 L 11.21 10.125 L 15.999 10.125 C 15.816 9.134 15.853 7.696 16.607 6.609 L 12.16 6.609 L 12.16 7.692 L 11.21 9.131" transform="matrix(1 0 0 1 0 0)" fill="#EBEBEB" stroke="none" />
</svg>
