<?xml version="1.0" encoding="UTF-8"?>
<!-- Reconstructed from Amplitude.Graphics.Svg.SvgAsset and recolored from static UIMapper.Color metadata for EWShop; not original source SVG. Live UI state/material colors are not included. -->
<svg xmlns="http://www.w3.org/2000/svg" width="25" height="25" viewBox="0 0 25 25">
  <path d="M 12.531 0 C 12.527 0 12.523 0 12.519 0 C 11.312 0 10.143 0.166 9.032 0.477 C 9.392 1.701 9.675 2.655 9.688 2.677 L 12.998 1.665 C 12.998 1.643 12.803 0.954 12.531 0" transform="matrix(1 0 0 1 0 0)" fill="#EBEBEB" stroke="none" />
  <path d="M 24.206 7.225 C 24.514 7.822 24.78 8.445 25 9.091 C 24.933 9.381 24.857 9.67 24.774 9.957 C 24.585 9.122 24.349 8.299 24.067 7.492 C 24.113 7.404 24.16 7.315 24.206 7.225" transform="matrix(1 0 0 1 0 0)" fill="#EBEBEB" stroke="none" />
  <path d="M 23.32 5.747 C 23.464 5.956 23.603 6.169 23.735 6.387 C 23.715 6.428 23.694 6.468 23.674 6.508 C 23.563 6.251 23.445 5.997 23.32 5.747" transform="matrix(1 0 0 1 0 0)" fill="#EBEBEB" stroke="none" />
  <path d="M 20.955 3.584 C 20.681 3.245 20.367 2.941 20.02 2.681 C 19.357 2.95 18.709 3.259 18.08 3.606 L 19.503 4.821 L 20.955 3.584" transform="matrix(1 0 0 1 0 0)" fill="#EBEBEB" stroke="none" />
  <path d="M 22.758 9.841 C 23.051 9.371 23.351 8.89 23.516 8.368 C 23.837 9.415 24.099 10.481 24.3 11.559 C 23.891 12.799 23.417 14.014 22.878 15.2 C 22.846 13.647 22.658 12.102 22.317 10.589 C 22.447 10.34 22.602 10.092 22.758 9.841" transform="matrix(1 0 0 1 0 0)" fill="#EBEBEB" stroke="none" />
  <path d="M 20.331 12.287 C 19.724 10.601 18.748 9.081 17.479 7.844 C 18.157 7.133 18.798 6.511 19.401 5.969 C 20.388 7.296 21.09 8.823 21.463 10.449 C 21.086 11.08 20.704 11.695 20.331 12.287" transform="matrix(1 0 0 1 0 0)" fill="#EBEBEB" stroke="none" />
  <path d="M 21.714 11.587 C 22.027 13.355 22.144 15.154 22.061 16.95 C 21.777 17.518 21.504 18.049 21.247 18.524 C 21.413 16.843 20.683 13.326 20.659 13.261 C 20.963 12.789 21.324 12.218 21.714 11.587" transform="matrix(1 0 0 1 0 0)" fill="#EBEBEB" stroke="none" />
  <path d="M 21.481 4.254 C 22.185 5.228 22.759 6.294 23.188 7.423 C 22.825 8.102 22.43 8.802 22.024 9.493 C 21.608 8.021 20.923 6.644 20.005 5.434 C 20.529 4.98 21.022 4.591 21.481 4.254" transform="matrix(1 0 0 1 0 0)" fill="#EBEBEB" stroke="none" />
  <path d="M 18.879 5.357 C 18.244 5.931 17.57 6.584 16.867 7.323 C 16.076 6.682 15.127 6.279 14.126 6.158 C 15.143 5.402 16.198 4.701 17.286 4.058 C 17.87 4.417 18.406 4.854 18.879 5.357" transform="matrix(1 0 0 1 0 0)" fill="#EBEBEB" stroke="none" />
  <path d="M 11.302 6.982 L 10.364 3.748 C 10.349 3.697 10.344 3.643 10.349 3.59 C 10.355 3.536 10.37 3.484 10.395 3.437 C 10.42 3.39 10.454 3.348 10.494 3.314 C 10.535 3.281 10.582 3.255 10.632 3.24 L 12.508 2.667 C 12.558 2.651 12.611 2.646 12.663 2.652 C 12.715 2.657 12.765 2.673 12.811 2.699 C 12.857 2.724 12.898 2.759 12.931 2.801 C 12.963 2.842 12.988 2.89 13.003 2.942 L 13.727 5.44 C 13.36 5.661 13.029 5.941 12.747 6.268 C 12.221 6.397 11.728 6.641 11.302 6.982" transform="matrix(1 0 0 1 0 0)" fill="#EBEBEB" stroke="none" />
  <path d="M 11.383 12.946 C 11.247 12.988 11.111 13.035 10.975 13.085 C 10.601 13.224 10.223 13.391 9.843 13.586 C 9.704 11.437 10.122 9.418 11.272 8.125 C 14.606 4.665 18.72 9.549 19.782 13.141 C 20.881 16.294 21.102 21.869 17.497 23.225 C 15.767 23.63 14.182 22.842 12.907 21.421 L 12.917 21.4 L 12.931 21.369 C 12.961 21.341 13.005 21.303 13.037 21.275 C 13.091 21.228 13.147 21.18 13.204 21.125 C 13.5 20.841 13.771 20.557 14.022 20.267 C 15.048 21.417 16.175 21.924 17.043 21.659 C 19.241 20.775 19.19 16.794 18.433 14.158 C 17.429 10.693 15.015 8.123 13.273 8.656 C 12.158 8.997 11.364 10.645 11.383 12.946" transform="matrix(1 0 0 1 0 0)" fill="#EBEBEB" stroke="none" />
  <path d="M 8.359 23.989 C 8.359 23.989 8.861 22.913 7.846 22.78 C 6.929 22.659 3.816 22.171 2.282 19.908 C 0.839 17.779 0.646 15.14 1.542 12.908 C 1.542 12.908 0.899 10.449 2.569 8.537 C 2.569 8.537 3.825 9.338 3.607 10.656 C 4.031 10.459 4.449 10.472 4.804 10.561 C 5.371 10.704 5.775 11.045 5.775 11.045 C 5.593 11.377 5.383 11.663 5.158 11.91 C 4.701 12.413 4.18 12.752 3.699 12.981 C 3.146 13.838 3.124 14.989 3.731 15.885 C 4.25 16.651 5.154 17.075 6.058 16.979 C 6.24 16.959 6.42 16.925 6.597 16.877 C 5.738 15.721 5.865 14.807 5.865 14.807 C 6.983 14.661 8.239 15.341 8.766 15.667 C 8.899 15.569 9.032 15.472 9.168 15.379 C 10.559 14.427 12.242 13.663 13.971 13.735 C 14.373 13.752 15.013 13.851 15.177 14.333 C 15.495 15.268 15.236 16.272 14.864 17.147 C 14.331 18.402 13.525 19.456 12.555 20.386 C 12.517 20.422 12.474 20.46 12.428 20.499 C 12.289 20.619 12.13 20.757 12.067 20.905 C 11.874 21.359 10.802 23.483 8.377 24 C 8.369 24.001 8.36 23.998 8.359 23.989 M 12.254 18.191 C 12.692 18.191 13.048 17.826 13.048 17.377 C 13.048 16.927 12.692 16.562 12.254 16.562 C 11.816 16.562 11.461 16.927 11.461 17.377 C 11.461 17.826 11.816 18.191 12.254 18.191" transform="matrix(1 0 0 1 0 0)" fill="#EBEBEB" stroke="none" />
</svg>
