<?xml version="1.0" encoding="UTF-8"?>
<!-- Reconstructed from Amplitude.Graphics.Svg.SvgAsset and recolored from static UIMapper.Color metadata for EWShop; not original source SVG. Live UI state/material colors are not included. -->
<svg xmlns="http://www.w3.org/2000/svg" width="25" height="25" viewBox="0 0 25 25">
  <path d="M 21.677 4.467 C 19.385 1.736 15.945 0 12.1 0 C 6.284 0 1.396 3.971 0 9.35 C 3.685 6.534 11.629 1.957 21.677 4.467" transform="matrix(1 0 0 1 0 0)" fill="#EBEBEB" stroke="none" />
  <path d="M 3.277 21.355 C 3.127 21.206 2.981 21.053 2.839 20.896 L 2.839 15.448 L 11.69 17.551 L 11.69 24.993 C 11.172 24.977 10.663 24.929 10.163 24.851 L 10.163 19.996 C 10.163 19.86 10.062 19.745 9.927 19.725 L 6.994 19.316 C 6.915 19.305 6.836 19.329 6.777 19.38 C 6.717 19.432 6.683 19.508 6.683 19.587 L 6.683 23.768 C 6.399 23.632 6.121 23.485 5.849 23.327 L 5.849 19.575 C 5.849 19.454 5.769 19.347 5.653 19.313 L 3.627 18.719 C 3.544 18.695 3.455 18.711 3.386 18.763 C 3.317 18.815 3.277 18.896 3.277 18.982 L 3.277 21.355" transform="matrix(1 0 0 1 0 0)" fill="#EBEBEB" stroke="none" />
  <path d="M 13.763 24.89 C 13.263 24.957 12.753 24.994 12.236 24.999 L 12.236 17.55 L 21.087 15.448 L 21.087 21.188 C 20.944 21.335 20.799 21.479 20.649 21.619 L 20.649 18.681 C 20.649 18.595 20.608 18.513 20.539 18.462 C 20.469 18.41 20.38 18.394 20.297 18.419 L 18.271 19.026 C 18.156 19.06 18.077 19.167 18.077 19.288 L 18.077 23.481 C 17.805 23.63 17.527 23.768 17.243 23.896 L 17.243 19.299 C 17.243 19.215 17.205 19.136 17.139 19.084 C 17.073 19.033 16.988 19.014 16.906 19.033 L 13.973 19.73 C 13.85 19.759 13.763 19.869 13.763 19.996 L 13.763 24.89" transform="matrix(1 0 0 1 0 0)" fill="#EBEBEB" stroke="none" />
  <path d="M 12.1 8.5 L 5.6 8 L 12.1 7 L 18.1 7.5 L 12.1 8.5" transform="matrix(1 0 0 1 0 0)" fill="#EBEBEB" stroke="none" />
  <path d="M 12.43 9.234 L 18.687 8 L 18.687 13.727 L 12.43 15.228 L 12.43 9.234" transform="matrix(1 0 0 1 0 0)" fill="#EBEBEB" stroke="none" />
  <path d="M 11.971 15.228 L 5.713 13.727 L 5.713 8.5 L 11.971 9.234 L 11.971 15.228" transform="matrix(1 0 0 1 0 0)" fill="#EBEBEB" stroke="none" />
  <path d="M 18.839 14.273 L 20.839 14.818 L 11.964 17.052 L 2.839 14.818 L 5.484 14.273 L 11.964 16.038 L 18.839 14.273" transform="matrix(1 0 0 1 0 0)" fill="#EBEBEB" stroke="none" />
</svg>
