<?xml version="1.0" encoding="UTF-8"?>
<!-- Reconstructed from Amplitude.Graphics.Svg.SvgAsset and recolored from static UIMapper.Color metadata for EWShop; not original source SVG. Live UI state/material colors are not included. -->
<svg xmlns="http://www.w3.org/2000/svg" width="25" height="25" viewBox="0 0 25 25">
  <path d="M 23.335 19.233 C 22.053 21.361 20.155 23.076 17.888 24.131 L 12.777 21.964 L 10.701 22.906 L 10.181 22.182 L 11.223 20.692 L 10.74 20.39 L 8.848 20.294 L 8.848 21.503 L 7.638 22.22 L 6 19.446 L 7.083 18.452 L 10.114 17.257 L 15.462 17.98 L 16.03 16.066 L 15.18 14.437 C 12.521 13.658 6.402 9.1 10.278 6.382 C 10.355 5.883 10.36 5.395 10.193 5.083 C 9.94 5.109 9.695 5.13 9.463 5.15 C 8.529 5.231 7.802 5.294 7.572 5.587 C 6.941 4.361 7.509 4.077 8.312 3.675 C 8.738 3.462 9.23 3.216 9.645 2.78 C 10.844 1.519 13.373 1.683 13.647 4.041 C 14.048 4.35 14.359 4.809 14.598 5.339 C 14.843 5.527 15.142 5.596 15.419 5.737 C 17.605 6.856 24.418 13.618 23.605 14.94 L 14.148 10.11 C 13.79 9.858 13.294 9.5 12.896 8.972 C 13.144 10.83 14.52 11.958 15.347 12.343 L 23.476 15.588 L 24.463 16.802 C 24.27 17.373 24.036 17.925 23.766 18.456 L 22.425 18.117 L 19.291 15.728 L 18.518 18.434 L 23.335 19.233 M 18.345 16.317 L 17.752 18.32 L 16.225 18.094 L 17.113 15.004 L 17.759 15.193 L 18.345 16.317" transform="matrix(1 0 0 1 0 0)" fill="#EBEBEB" stroke="none" />
</svg>
