<?xml version="1.0" encoding="UTF-8"?>
<!-- Reconstructed from Amplitude.Graphics.Svg.SvgAsset and recolored from static UIMapper.Color metadata for EWShop; not original source SVG. Live UI state/material colors are not included. -->
<svg xmlns="http://www.w3.org/2000/svg" width="25" height="25" viewBox="0 0 25 25">
  <path d="M 21.401 3.724 C 20.386 4.869 19.153 5.816 17.768 6.502 C 17.818 6.21 17.843 5.909 17.843 5.603 C 17.843 2.652 15.451 0.259 12.5 0.259 C 9.549 0.259 7.157 2.652 7.157 5.603 C 7.157 5.909 7.182 6.21 7.232 6.502 C 5.847 5.816 4.614 4.869 3.599 3.724 C 5.866 1.425 9.017 0 12.5 0 C 15.984 0 19.134 1.425 21.401 3.724 M 22.104 20.502 C 22.51 20.014 22.88 19.496 23.21 18.95 L 21.932 13.262 L 19.773 12.853 L 19.637 12.122 L 20.633 10.899 L 20.331 9.313 L 19.298 8.327 L 17.851 8.81 L 17.332 9.96 L 17.573 11.258 L 18.37 12.204 L 18.37 12.853 L 16.94 13.113 L 18.805 21.415 L 19.079 22.634 L 17.829 22.634 L 16.773 22.634 L 16.499 24.347 C 17.327 24.067 18.117 23.703 18.858 23.265 L 18.884 23.145 L 18.909 23.234 C 19.66 22.785 20.361 22.259 20.999 21.666 L 20.522 19.14 L 21.101 16.269 L 22.104 20.502 M 13.173 24.982 C 13.948 24.941 14.705 24.829 15.436 24.653 L 14.948 22.066 L 14.534 19.874 L 14.288 18.576 L 14.894 15.575 L 15.228 16.988 L 15.445 17.901 L 15.867 19.685 L 16.329 21.634 L 17.829 21.634 L 17.605 20.634 L 17.306 19.302 L 16.982 17.862 L 16.034 13.642 L 15.762 12.432 L 13.506 12.006 L 13.363 11.241 L 14.405 9.963 L 14.09 8.305 L 13.009 7.275 L 11.497 7.779 L 10.954 8.981 L 11.206 10.339 L 12.04 11.327 L 12.04 12.006 L 9.694 12.432 L 9.247 14.288 L 8.476 17.493 L 7.814 20.24 L 7.719 20.634 L 7.478 21.634 L 8.794 21.634 L 9.136 20.283 L 9.736 17.913 L 9.909 17.232 L 10.234 15.944 L 10.954 18.576 L 10.645 20.51 L 10.396 22.066 L 9.968 24.743 C 10.653 24.884 11.359 24.969 12.081 24.993 L 12.577 22.762 L 13.173 24.982 M 5.974 23.163 C 6.791 23.664 7.669 24.074 8.596 24.378 L 8.266 22.634 L 7.478 22.634 L 6.209 22.634 L 6.506 21.4 L 8.49 13.162 L 6.857 12.853 L 6.721 12.122 L 7.718 10.899 L 7.416 9.313 L 6.383 8.327 L 4.936 8.81 L 4.416 9.96 L 4.657 11.258 L 5.455 12.204 L 5.455 12.853 L 3.211 13.262 L 1.826 19.009 C 2.115 19.481 2.434 19.933 2.781 20.361 L 3.727 16.621 L 4.416 19.14 L 4.011 21.675 C 4.611 22.231 5.266 22.728 5.966 23.158 L 5.969 23.145 L 5.974 23.163 M 8.289 6.962 C 8.151 6.534 8.076 6.077 8.076 5.603 C 8.076 3.159 10.057 1.179 12.5 1.179 C 14.943 1.179 16.924 3.159 16.924 5.603 C 16.924 6.077 16.849 6.534 16.711 6.962 C 16.402 7.079 16.087 7.184 15.766 7.275 C 15.767 7.247 15.767 7.219 15.767 7.191 C 15.767 5.387 14.305 3.924 12.5 3.924 C 10.695 3.924 9.233 5.387 9.233 7.191 C 9.233 7.219 9.233 7.247 9.234 7.275 C 8.913 7.184 8.598 7.079 8.289 6.962" transform="matrix(1 0 0 1 0 0)" fill="#EBEBEB" stroke="none" />
</svg>
