<?xml version="1.0" encoding="UTF-8"?>
<!-- Reconstructed from Amplitude.Graphics.Svg.SvgAsset and recolored from static UIMapper.Color metadata for EWShop; not original source SVG. Live UI state/material colors are not included. -->
<svg xmlns="http://www.w3.org/2000/svg" width="25" height="26" viewBox="0 0 25 26">
  <path d="M 22.753 5.506 C 23.392 6.42 23.911 7.423 24.289 8.493 L 13.398 13.034 C 13.083 11.626 12.362 10.645 11.736 10.074 L 22.753 5.506" transform="matrix(1 0 0 1 0 0)" fill="#EBEBEB" stroke="none" />
  <path d="M 3.485 4 L 11.838 8.733 L 6.84 10.805 C 6.811 10.784 6.781 10.76 6.75 10.733 C 6.554 10.568 6.337 10.329 6.143 10.015 C 5.762 9.398 5.473 8.497 5.621 7.308 C 5.676 6.868 5.485 6.435 5.124 6.179 C 4.762 5.924 4.29 5.888 3.894 6.085 C 3.357 6.354 2.961 6.835 2.684 7.31 C 2.394 7.808 2.168 8.413 2.026 9.081 C 1.79 10.187 1.771 11.524 2.12 12.954 C 2.049 13.053 1.992 13.162 1.953 13.279 C 1.221 15.477 3.203 17.618 5.451 17.056 L 5.527 17.037 C 8.206 18.916 14.235 22.353 21.573 20.554 C 22.179 20.405 22.57 19.817 22.473 19.2 C 22.375 18.584 21.821 18.145 21.199 18.191 C 20.849 18.217 20.142 18.113 19.143 17.815 C 18.184 17.53 17.078 17.105 15.986 16.596 C 14.893 16.087 13.842 15.507 12.987 14.92 C 12.761 14.765 12.556 14.615 12.372 14.47 L 18.024 12.239 L 24.564 15.945 C 23.121 21.254 18.266 25.159 12.5 25.159 C 5.596 25.159 0 19.562 0 12.659 C 0 9.298 1.327 6.246 3.485 4" transform="matrix(1 0 0 1 0 0)" fill="#EBEBEB" stroke="none" />
  <path d="M 9.782 10.885 L 10.674 10.515 C 11.145 10.8 12.139 11.744 12.458 13.426 L 11.343 13.89 C 11.158 13.204 10.9 12.589 10.621 12.078 C 10.41 11.69 10.184 11.355 9.963 11.089 C 9.904 11.018 9.843 10.95 9.782 10.885" transform="matrix(1 0 0 1 0 0)" fill="#EBEBEB" stroke="none" />
  <path d="M 9.743 12.556 C 10.004 13.036 10.247 13.623 10.411 14.279 L 9.5 14.659 C 11.023 17.114 18.965 19.56 21.287 19.388 C 14.032 21.167 8.099 17.448 5.775 15.738 L 5.159 15.892 C 3.831 16.224 2.658 14.958 3.092 13.659 L 3.526 13.479 C 2.431 10.354 3.449 7.649 4.431 7.159 C 4.063 10.101 5.854 11.86 6.793 12.124 L 8.858 11.268 L 8.807 11.362 C 8.877 11.4 9.014 11.511 9.194 11.728 C 9.367 11.937 9.558 12.216 9.743 12.556 M 5 14.159 C 5.379 14.651 5.42 15.255 5.092 15.508 C 4.763 15.76 4.19 15.566 3.811 15.073 C 3.432 14.581 3.391 13.977 3.72 13.724 C 4.048 13.472 4.621 13.666 5 14.159" transform="matrix(1 0 0 1 0 0)" fill="#EBEBEB" stroke="none" />
</svg>
