<?xml version="1.0" encoding="UTF-8"?>
<!-- Reconstructed from Amplitude.Graphics.Svg.SvgAsset and recolored from static UIMapper.Color metadata for EWShop; not original source SVG. Live UI state/material colors are not included. -->
<svg xmlns="http://www.w3.org/2000/svg" width="25" height="25" viewBox="0 0 25 25">
  <path d="M 0.188 14.973 C 0.109 14.609 0.046 14.239 0 13.864 L 5.102 13.864 L 5.102 7.695 L 8.362 2.805 L 12.405 8.557 L 12.405 15.592 L 13.795 15.369 L 20.264 13.864 L 22.324 13.864 L 15.504 16.532 L 15.868 17.463 L 24.796 13.97 C 24.72 14.548 24.604 15.114 24.451 15.664 L 13.409 19.983 L 13.774 20.915 L 24.038 16.899 C 23.842 17.396 23.615 17.876 23.36 18.339 L 19.158 19.983 L 19.522 20.915 L 22.436 19.775 C 20.158 22.834 16.513 24.815 12.405 24.815 C 11.616 24.815 10.844 24.742 10.096 24.602 L 17.651 21.647 L 17.286 20.716 L 8.444 24.175 C 7.938 24.006 7.446 23.805 6.971 23.576 L 11.769 21.699 L 11.404 20.768 L 5.83 22.948 C 5.339 22.644 4.87 22.306 4.427 21.939 L 14.309 18.073 L 13.944 17.142 L 3.601 21.188 C 3.214 20.804 2.852 20.395 2.518 19.964 L 8.337 17.687 L 7.973 16.756 L 1.92 19.124 C 1.669 18.738 1.438 18.337 1.23 17.922 L 5.352 16.31 L 4.988 15.379 L 0.817 17.01 C 0.676 16.664 0.551 16.309 0.441 15.948 L 2.233 15.247 L 1.868 14.315 L 0.188 14.973 M 8.632 10.609 C 9.321 10.609 9.879 9.896 9.879 9.017 C 9.879 8.137 9.321 7.424 8.632 7.424 C 7.944 7.424 7.386 8.137 7.386 9.017 C 7.386 9.896 7.944 10.609 8.632 10.609" transform="matrix(1 0 0 1 0 0)" fill="#EBEBEB" stroke="none" />
  <path d="M 9.57 2.518 L 13.696 8.339 L 20.156 7.581 L 15.438 2 L 9.57 2.518" transform="matrix(1 0 0 1 0 0)" fill="#EBEBEB" stroke="none" />
  <path d="M 20.156 9.123 L 20.156 12.86 L 13.795 13.842 L 13.795 10.054 L 20.156 9.123" transform="matrix(1 0 0 1 0 0)" fill="#EBEBEB" stroke="none" />
</svg>
