<?xml version="1.0" encoding="UTF-8"?>
<!-- Reconstructed from Amplitude.Graphics.Svg.SvgAsset and recolored from static UIMapper.Color metadata for EWShop; not original source SVG. Live UI state/material colors are not included. -->
<svg xmlns="http://www.w3.org/2000/svg" width="25" height="26" viewBox="0 0 25 26">
  <path d="M 21.432 21.844 C 19.19 23.973 16.16 25.28 12.824 25.28 C 9.38 25.28 6.261 23.887 4 21.634 L 4 17.682 C 6.814 17.923 9.642 18.142 12.468 18.142 C 15.62 18.142 20.245 17.745 21.432 17.639 L 21.432 21.844" transform="matrix(1 0 0 1 0 0)" fill="#EBEBEB" stroke="none" />
  <path d="M 6.759 7.836 C 6.135 9.117 5.725 10.542 5.725 12.055 L 11.707 12.055 C 11.707 11.166 11.849 10.308 12.092 9.491 L 9.707 8.751 C 10.206 8.41 10.757 7.948 11.058 7.399 C 11.337 6.892 11.468 6.131 11.535 5.547 L 13.381 6.682 C 14.125 5.484 15.023 4.45 15.872 3.635 C 16.596 3.917 17.274 4.292 17.889 4.747 C 15.584 7.181 13.796 10.329 13.634 13.735 L 4 13.735 L 4 11.762 C 4 10.155 4.435 8.648 5.195 7.355 C 4.1 6.726 4.43 5.139 5.007 4.277 C 5.762 3.151 7.036 2.681 7.852 3.228 C 8.2 3.461 8.536 3.704 8.897 3.926 C 9.278 3.739 9.675 3.58 10.086 3.45 C 9.839 3.68 9.587 3.928 9.334 4.194 L 10.586 4.964 C 10.537 5.608 10.498 6.344 10.182 6.917 C 9.821 7.574 9.077 8.006 8.434 8.356 L 6.759 7.836 M 5.9 6.56 C 6.483 6.547 6.985 6.041 7.274 5.579 C 7.73 4.852 7.755 4.047 7.321 3.756 C 6.873 3.456 6.104 3.816 5.605 4.561 C 5.25 5.091 4.839 6.584 5.9 6.56" transform="matrix(1 0 0 1 0 0)" fill="#EBEBEB" stroke="none" />
  <path d="M 4 14.734 L 4 16.678 C 6.813 16.919 9.642 17.141 12.468 17.141 C 15.458 17.141 18.455 16.904 21.432 16.634 L 21.432 11.785 L 21.432 11.762 C 21.432 9.245 20.365 6.978 18.66 5.387 C 16.199 7.965 14.622 11.137 14.622 14.734 L 4 14.734" transform="matrix(1 0 0 1 0 0)" fill="#EBEBEB" stroke="none" />
  <path d="M 6.519 11.457 L 6.993 8.842 L 11.09 10.036 L 10.737 11.457 L 6.519 11.457" transform="matrix(1 0 0 1 0 0)" fill="#EBEBEB" stroke="none" />
</svg>
