<?xml version="1.0" encoding="UTF-8"?>
<!-- Reconstructed from Amplitude.Graphics.Svg.SvgAsset and recolored from static UIMapper.Color metadata for EWShop; not original source SVG. Live UI state/material colors are not included. -->
<svg xmlns="http://www.w3.org/2000/svg" width="25" height="25" viewBox="0 0 25 25">
  <path d="M 0.109 10.49 C 0.037 11.034 0 11.588 0 12.151 C 0 12.328 0.004 12.503 0.011 12.678 C 0.568 12.219 1.229 11.778 1.935 11.366 L 8.29 12.23 L 3.063 10.749 C 4.618 9.95 6.23 9.309 7.328 8.938 C 4.593 9.241 2.124 9.777 0.109 10.49" transform="matrix(1 0 0 1 0 0)" fill="#EBEBEB" stroke="none" />
  <path d="M 24.891 10.491 C 22.174 9.529 18.669 8.903 14.878 8.717 C 16.66 9.072 19.295 9.761 21.558 10.695 L 16.135 12.232 L 22.913 11.309 C 23.73 11.72 24.448 12.166 24.991 12.643 C 24.997 12.48 25 12.317 25 12.152 C 25 11.589 24.963 11.035 24.891 10.491" transform="matrix(1 0 0 1 0 0)" fill="#EBEBEB" stroke="none" />
  <path d="M 24.505 15.647 L 23.395 14.724 C 23.702 14.567 23.921 14.154 23.921 13.67 C 23.921 13.05 23.562 12.547 23.119 12.547 C 22.676 12.547 22.317 13.05 22.317 13.67 C 22.317 14.23 22.611 14.695 22.995 14.779 L 21.66 15.431 L 21.225 17.715 C 20.7 17.821 20.153 17.912 19.595 17.989 L 19.676 17.127 L 18.436 16.162 L 17.33 17.127 L 17.33 18.232 C 14.174 18.484 10.991 18.491 7.836 18.216 L 7.698 17.644 L 7.807 16.181 L 6.6 15.288 C 7.024 15.258 7.361 14.768 7.361 14.167 C 7.361 13.547 7.002 13.044 6.559 13.044 C 6.116 13.044 5.757 13.547 5.757 14.167 C 5.757 14.647 5.972 15.057 6.276 15.218 L 4.816 16.305 L 5.373 17.943 C 4.734 17.855 4.102 17.753 3.496 17.637 L 3.496 15.865 L 2.453 15.281 C 2.85 15.214 3.158 14.741 3.158 14.167 C 3.158 13.547 2.799 13.044 2.356 13.044 C 1.913 13.044 1.554 13.547 1.554 14.167 C 1.554 14.606 1.735 14.987 1.997 15.171 L 0.495 15.478 L 0.826 16.63 C 2.627 21.321 7.174 24.652 12.5 24.652 C 18.191 24.652 22.993 20.849 24.505 15.647" transform="matrix(1 0 0 1 0 0)" fill="#EBEBEB" stroke="none" />
  <path d="M 12.758 2.368 C 12.695 3.077 12.234 3.615 11.727 3.57 C 11.221 3.526 10.861 2.914 10.924 2.205 C 10.987 1.496 11.448 0.958 11.955 1.003 C 12.461 1.047 12.821 1.659 12.758 2.368" transform="matrix(1 0 0 1 0 0)" fill="#EBEBEB" stroke="none" />
  <path d="M 10.189 4.604 L 10.194 4.629 L 10.166 4.611 L 8.919 6.376 L 9.057 7.969 L 10.599 9.286 L 10.189 14.508 C 10.189 14.508 11.652 15.162 12.644 15.162 C 13.636 15.162 15.099 14.508 15.099 14.508 L 13.161 6.463 L 13.354 5.702 L 14.85 6.015 L 15.302 5.338 L 15.697 2.951 L 16.417 2.753 L 16.556 1.502 L 16.028 1.502 L 15.486 1.961 L 14.708 2.169 L 14.302 4.532 L 13.832 3.825 L 10.189 4.604 M 9.676 6.607 L 10.404 5.75 L 10.738 7.529 L 10.675 8.326 L 9.763 7.369 L 9.676 6.607" transform="matrix(1 0 0 1 0 0)" fill="#EBEBEB" stroke="none" />
  <path d="M 17.668 14.722 C 17.668 15.342 18.027 15.845 18.47 15.845 C 18.912 15.845 19.271 15.342 19.271 14.722 C 19.271 14.102 18.912 13.6 18.47 13.6 C 18.027 13.6 17.668 14.102 17.668 14.722" transform="matrix(1 0 0 1 0 0)" fill="#EBEBEB" stroke="none" />
</svg>
