<?xml version="1.0" encoding="UTF-8"?>
<!-- Reconstructed from Amplitude.Graphics.Svg.SvgAsset and recolored from static UIMapper.Color metadata for EWShop; not original source SVG. Live UI state/material colors are not included. -->
<svg xmlns="http://www.w3.org/2000/svg" width="25" height="26" viewBox="0 0 25 26">
  <path d="M 23.748 18.914 C 21.637 22.831 17.497 25.494 12.736 25.494 C 8.174 25.494 4.183 23.05 2 19.401 C 2.584 18.377 3.306 17.442 4.141 16.623 C 6.078 17.311 9.206 17.758 12.736 17.758 C 16.524 17.758 19.851 17.243 21.737 16.467 C 22.504 17.194 23.181 18.016 23.748 18.914" transform="matrix(1 0 0 1 0 0)" fill="#EBEBEB" stroke="none" />
  <path d="M 11.532 8.209 C 11.803 7.789 12.033 7.36 12.226 6.929 L 7.216 3.877 L 6.658 4.834 L 11.532 8.209" transform="matrix(1 0 0 1 0 0)" fill="#EBEBEB" stroke="none" />
  <path d="M 12.594 5.98 L 9.666 4.176 C 10.857 2.74 12.151 1.896 13.057 2.01 C 13.171 3.138 13.067 4.546 12.594 5.98" transform="matrix(1 0 0 1 0 0)" fill="#EBEBEB" stroke="none" />
  <path d="M 12.516 8.526 C 13.713 6.558 14.127 4.414 14.096 2.678 C 15.162 3.965 15.055 6.479 13.739 8.81 C 14.915 8.575 15.924 8.803 16.501 9.467 C 17.701 10.849 16.26 12.131 15.492 13.234 C 17.497 13.631 19.332 14.5 20.877 15.721 C 18.296 16.601 15.437 16.758 12.736 16.758 C 10.16 16.758 7.485 16.591 5.002 15.851 C 6.813 14.371 9.041 13.381 11.483 13.086 L 11.79 11.187 C 10.674 12.116 9.445 12.568 8.412 12.38 C 10.045 11.493 11.253 10.356 12.125 9.122 C 12.263 8.925 12.394 8.726 12.516 8.526 M 14.07 13.036 C 14.188 13.046 14.305 13.057 14.421 13.07 C 14.84 12.287 16.559 11.059 15.746 10.122 C 15.456 9.789 14.705 9.527 13.497 9.902 L 14.07 13.036" transform="matrix(1 0 0 1 0 0)" fill="#EBEBEB" stroke="none" />
  <path d="M 7.921 6.926 C 6.929 9.012 6.689 10.96 7.327 11.809 C 8.895 11.072 10.075 10.097 10.946 9.02 L 7.921 6.926" transform="matrix(1 0 0 1 0 0)" fill="#EBEBEB" stroke="none" />
</svg>
