<?xml version="1.0" encoding="UTF-8"?>
<!-- Reconstructed from Amplitude.Graphics.Svg.SvgAsset and recolored from static UIMapper.Color metadata for EWShop; not original source SVG. Live UI state/material colors are not included. -->
<svg xmlns="http://www.w3.org/2000/svg" width="25" height="26" viewBox="0 0 25 26">
  <path d="M 0.37 15.781 C 0.182 15.059 0.056 14.311 0 13.545 C 0.545 12.801 1.301 12.274 2.019 11.773 C 3.134 10.996 4.157 10.282 4.157 8.918 C 4.165 8.399 4.143 7.625 4.062 6.858 C 5.108 6.713 6.198 6.72 7.245 6.86 C 7.163 7.627 7.142 8.4 7.149 8.918 C 7.149 9.799 7.571 10.409 8.166 10.94 C 7.126 10.855 5.688 10.829 4.422 11.063 L 5.724 11.681 C 6.481 11.62 8.282 11.577 9.431 11.898 L 9.43 11.893 C 9.782 12.143 10.139 12.403 10.47 12.697 C 8.976 12.535 6.548 12.425 4.451 12.813 L 6.318 13.699 C 7.381 13.613 9.877 13.553 11.528 13.982 C 11.981 14.814 12.159 15.875 11.93 16.805 L 0.37 15.781" transform="matrix(1 0 0 1 0 0)" fill="#EBEBEB" stroke="none" />
  <path d="M 23.321 18.818 C 21.166 22.58 17.112 25.115 12.466 25.115 C 7.035 25.115 2.413 21.651 0.688 16.813 L 23.321 18.818" transform="matrix(1 0 0 1 0 0)" fill="#EBEBEB" stroke="none" />
  <path d="M 24.963 12.903 C 24.923 14.669 24.516 16.345 23.817 17.858 L 18.254 17.365 C 18.745 16.736 19.061 15.974 19.061 15.11 C 19.061 13.858 18.865 12.876 18.637 11.991 C 19.143 11.607 19.486 11.109 19.486 10.319 C 19.504 9.118 19.366 7.052 18.679 6.365 C 18.923 5.672 23.282 5.874 23.282 6.365 C 22.595 7.052 22.458 9.118 22.475 10.319 C 22.475 11.838 23.728 12.278 24.963 12.903" transform="matrix(1 0 0 1 0 0)" fill="#EBEBEB" stroke="none" />
  <path d="M 16.665 17.225 C 17.393 16.664 17.836 15.923 17.836 15.111 C 17.836 14.39 17.765 13.774 17.656 13.203 C 16.591 12.999 15.181 13.036 14.548 13.087 L 13.322 12.506 C 14.805 12.231 16.541 12.336 17.49 12.455 C 17.416 12.157 17.335 11.865 17.253 11.567 C 17.078 10.937 16.897 10.284 16.762 9.514 C 14.475 9.168 12.035 9.177 9.751 9.514 C 9.686 9.844 9.613 10.159 9.535 10.464 C 10.514 11.176 11.537 11.841 12.255 12.841 C 13.079 13.989 13.44 15.52 13.162 16.914 L 16.665 17.225" transform="matrix(1 0 0 1 0 0)" fill="#EBEBEB" stroke="none" />
  <path d="M 3.868 5.647 C 3.747 5.118 3.578 4.678 3.349 4.448 C 3.593 3.753 7.958 3.956 7.958 4.448 C 7.728 4.678 7.559 5.119 7.437 5.649 C 6.264 5.488 5.042 5.481 3.868 5.647" transform="matrix(1 0 0 1 0 0)" fill="#EBEBEB" stroke="none" />
  <path d="M 16.548 6.921 C 16.548 7.405 16.567 7.848 16.601 8.257 C 14.394 8.005 12.144 8.005 9.936 8.254 C 9.976 7.851 9.998 7.42 9.998 6.955 C 9.998 6.081 16.548 6.106 16.548 6.921" transform="matrix(1 0 0 1 0 0)" fill="#EBEBEB" stroke="none" />
</svg>
