<?xml version="1.0" encoding="UTF-8"?>
<!-- Reconstructed from Amplitude.Graphics.Svg.SvgAsset and recolored from static UIMapper.Color metadata for EWShop; not original source SVG. Live UI state/material colors are not included. -->
<svg xmlns="http://www.w3.org/2000/svg" width="25" height="25" viewBox="0 0 25 25">
  <path d="M 0.571 8.943 L 2.118 7.973 L 2.954 8.382 L 4.584 10.747 L 3.346 13.667 L 0.088 13.378 C 0.068 13.088 0.057 12.795 0.057 12.5 C 0.057 11.264 0.237 10.07 0.571 8.943 M 0.221 14.527 L 4.597 15.044 L 13.761 15.907 L 16.783 16.045 L 20.962 17.246 L 24.03 17.471 C 23.169 19.454 21.81 21.171 20.11 22.462 L 18.148 21.582 L 20.072 20.622 L 19.6 19.801 L 16.881 20.752 L 14.414 19.654 L 13.511 20.622 L 15.439 21.582 L 13.365 22.693 L 14.517 23.68 L 16.881 22.363 L 18.958 23.239 C 17.086 24.358 14.897 25 12.557 25 C 6.344 25 1.19 20.467 0.221 14.527 M 24.442 16.386 L 20.998 15.97 L 19.054 15.204 L 18.809 15.328 L 13.467 14.682 L 13.078 14.529 L 4.717 13.788 L 5.112 10.937 L 6.954 11.14 L 8.527 10.073 L 9.464 11.266 C 9.464 11.266 9.831 9.908 9.874 9.567 L 11.381 8.587 L 12.088 8.933 L 13.914 11.094 L 15.471 11.266 L 16.868 10.333 L 17.725 12.703 L 19.249 10.857 L 19.842 11.147 L 21.214 13.263 L 22.779 13.372 L 23.852 12.321 L 24.943 14.2 C 24.84 14.952 24.671 15.683 24.442 16.386 M 8.885 6.564 C 8.882 6.661 8.878 6.756 8.875 6.849 C 8.875 7.974 7.696 10.177 6.289 9.917 C 4.656 9.615 3.826 8.307 3.42 6.849 C 3.153 5.407 3.508 3.522 5.112 3.063 L 5.242 3.025 C 6.161 2.76 7.071 2.498 7.926 3.144 C 8.982 3.943 8.929 5.364 8.885 6.564 M 17.197 7.352 C 17.194 7.434 17.191 7.514 17.188 7.593 C 17.188 8.544 16.191 10.408 15.001 10.188 C 13.62 9.933 12.917 8.826 12.574 7.593 C 12.348 6.373 12.648 4.778 14.005 4.39 L 14.115 4.358 C 14.892 4.134 15.663 3.912 16.385 4.458 C 17.278 5.134 17.234 6.336 17.197 7.352 M 24.066 10.078 C 24.098 9.226 24.135 8.217 23.385 7.65 C 22.779 7.192 22.133 7.378 21.481 7.566 L 21.389 7.593 C 20.25 7.919 19.999 9.257 20.188 10.28 C 20.476 11.315 21.066 12.243 22.224 12.457 C 23.223 12.642 24.059 11.078 24.059 10.28 C 24.061 10.214 24.064 10.146 24.066 10.078 M 4.561 16.302 L 3.469 17.472 L 5.8 18.633 L 3.292 19.975 L 4.685 21.169 L 7.543 19.577 L 10.83 20.964 L 11.641 19.783 L 9.075 18.633 L 11.4 17.472 L 10.83 16.479 L 7.543 17.63 L 4.561 16.302" transform="matrix(1 0 0 1 0 0)" fill="#EBEBEB" stroke="none" />
</svg>
