<?xml version="1.0" encoding="UTF-8"?>
<!-- Reconstructed from Amplitude.Graphics.Svg.SvgAsset and recolored from static UIMapper.Color metadata for EWShop; not original source SVG. Live UI state/material colors are not included. -->
<svg xmlns="http://www.w3.org/2000/svg" width="25" height="25" viewBox="0 0 25 25">
  <path d="M 0.115 14.205 L 2.528 9.59 L 6.006 9.59 L 4.016 14.493 L 2.826 14.565 L 2.628 15.189 L 2.114 15.569 C 2.027 15.632 1.913 15.715 1.794 15.801 C 1.553 15.975 1.299 16.158 1.199 16.228 L 0.684 16.59 C 0.42 15.826 0.227 15.028 0.115 14.205 M 6.564 23.503 L 5.669 22.576 C 5.792 22.348 6.264 21.441 6.289 21.391 L 6.607 22.591 L 8.997 23.484 L 10.699 22.169 L 9.564 20.464 L 9.202 20.577 L 8.981 20.261 L 10.009 19.682 L 11.58 21.67 L 10.106 24.126 L 8.717 24.211 L 8.205 24.243 C 7.638 24.035 7.089 23.787 6.564 23.503 M 16.737 24.264 L 15.887 24.211 L 14.498 24.126 L 13.024 21.67 L 14.595 19.682 L 15.622 20.261 L 15.402 20.577 L 15.04 20.464 L 13.905 22.169 L 15.607 23.484 L 17.997 22.591 L 18.315 21.391 C 18.332 21.424 18.539 21.824 18.715 22.16 C 18.808 22.337 18.892 22.497 18.934 22.576 L 17.675 23.882 C 17.369 24.021 17.056 24.149 16.737 24.264 M 23.26 18.866 L 23.962 16.619 L 23.405 16.228 C 23.305 16.158 23.051 15.975 22.81 15.801 C 22.691 15.715 22.577 15.632 22.49 15.569 L 21.976 15.189 L 21.778 14.565 L 20.905 14.512 L 18.907 9.59 L 22.385 9.59 L 24.866 14.336 C 24.626 15.97 24.069 17.502 23.26 18.866 M 9.755 4.28 L 12.456 2.959 L 15.157 4.28 L 15.948 4.28 L 19.761 14.443 L 18.64 14.375 L 18.483 15.452 L 16.941 15.377 L 16.325 18.344 L 15.703 19.236 L 14.358 18.478 L 12.302 21.078 L 10.246 18.478 L 8.901 19.236 L 8.278 18.344 L 7.663 15.377 L 6.12 15.452 L 5.963 14.375 L 5.159 14.424 L 8.965 4.28 L 9.755 4.28 M 21.039 17.849 L 21.637 17.206 L 21.083 15.458 L 20.12 15.399 L 19.44 15.358 L 19.228 16.814 L 20.436 16.72 L 20.4 18.13 L 19.03 18.221 L 19.186 17.565 L 19.587 17.552 L 19.525 17.834 L 19.97 17.786 L 20.027 17.187 L 18.783 17.241 L 18.625 18.505 L 20.141 18.816 L 21.039 17.849 M 22.868 16.991 L 22.452 18.324 L 22.155 19.273 L 21.654 19.487 L 20.876 19.818 L 19.596 20.364 L 19.032 20.006 L 17.316 18.916 L 17.178 18.828 L 17.692 16.348 L 18.87 16.405 L 18.815 16.786 L 18.441 16.847 L 18.189 18.88 L 20.3 19.294 L 21.213 18.312 L 22.037 17.425 L 21.984 17.172 L 21.784 16.209 C 21.812 16.23 22.153 16.477 22.453 16.694 C 22.629 16.82 22.79 16.936 22.868 16.991 M 5.164 15.358 L 4.8 15.38 L 3.627 15.451 L 3.521 15.458 L 3.153 16.617 L 2.967 17.206 L 3.784 18.086 L 4.463 18.816 L 5.979 18.505 L 5.821 17.241 L 4.577 17.187 L 4.634 17.786 L 5.079 17.834 L 5.017 17.552 L 5.417 17.565 L 5.574 18.221 L 4.203 18.13 L 4.176 17.043 L 4.168 16.72 L 4.293 16.73 L 5.376 16.814 L 5.164 15.358 M 2.82 16.209 L 2.567 17.425 L 2.747 17.619 L 3.611 18.548 L 4.304 19.294 L 6.415 18.88 L 6.163 16.847 L 5.789 16.786 L 5.734 16.405 L 6.911 16.348 L 7.426 18.828 L 7.288 18.916 L 5.572 20.006 L 5.008 20.364 L 3.728 19.818 L 3.216 19.6 L 2.449 19.273 L 2.286 18.754 L 1.735 16.991 C 1.809 16.94 1.955 16.835 2.118 16.718 C 2.426 16.496 2.791 16.231 2.82 16.209 M 14.706 4.939 L 10.434 4.939 L 10.227 5.623 L 14.915 5.623 L 14.706 4.939 M 15.828 8.623 L 9.32 8.623 L 9.12 9.284 L 16.03 9.284 L 15.828 8.623 M 16.943 12.284 L 8.214 12.284 L 7.987 13.034 L 17.172 13.034 L 16.943 12.284 M 9.278 14.087 L 9.134 14.891 L 16.102 14.891 L 15.958 14.087 L 9.278 14.087 M 16.832 19.714 L 16.601 19.58 L 15.759 20.787 L 16.881 21.244 L 16.218 22.489 L 14.952 21.956 L 15.385 21.44 L 15.75 21.608 L 15.568 21.832 L 15.987 21.988 L 16.306 21.478 L 15.17 20.97 L 14.463 22.029 L 15.679 22.986 L 17.737 22.216 L 18.015 20.465 L 18.025 20.405 L 16.832 19.714 M 6.866 22.216 L 6.589 20.465 L 6.579 20.405 L 7.772 19.714 L 8.003 19.58 L 8.845 20.787 L 7.723 21.244 L 8.386 22.489 L 9.652 21.956 L 9.218 21.44 L 8.854 21.608 L 9.036 21.832 L 8.617 21.988 L 8.298 21.478 L 9.434 20.97 L 10.141 22.029 L 8.925 22.986 L 6.866 22.216 M 14.024 7.453 L 13.905 6.793 L 11.483 6.793 L 11.364 7.453 L 14.024 7.453 M 15.185 11.114 L 10.162 11.114 L 10.281 10.453 L 15.066 10.453 L 15.185 11.114" transform="matrix(1 0 0 1 0 0)" fill="#EBEBEB" stroke="none" />
</svg>
