<?xml version="1.0" encoding="UTF-8"?>
<!-- Reconstructed from Amplitude.Graphics.Svg.SvgAsset and recolored from static UIMapper.Color metadata for EWShop; not original source SVG. Live UI state/material colors are not included. -->
<svg xmlns="http://www.w3.org/2000/svg" width="25" height="25" viewBox="0 0 25 25">
  <path d="M 25 13.833 L 25 11.981 C 25 10.99 24.196 10.186 23.204 10.186 C 22.213 10.186 21.409 10.99 21.409 11.981 L 21.409 19.952 C 23.123 18.31 24.388 16.203 25 13.833" transform="matrix(1 0 0 1 0 0)" fill="#EBEBEB" stroke="none" />
  <path d="M 23.108 3.196 C 23.234 3.376 23.355 3.561 23.471 3.748 C 21.383 4.087 19.137 4.649 17.12 5.278 L 16.052 4.718 C 17.237 4.425 18.431 4.156 19.61 3.912 C 20.575 3.666 21.988 3.396 23.108 3.196" transform="matrix(1 0 0 1 0 0)" fill="#EBEBEB" stroke="none" />
  <path d="M 12.294 23.554 C 21.031 17.795 17.648 13.651 14.274 11.102 L 10.307 9.02 C 10.591 9.384 11.138 9.75 11.976 10.311 L 12.022 10.342 C 14.014 11.653 17.332 13.856 17.187 16.675 C 17.122 17.961 16.364 19.303 14.925 20.691 C 14.952 20.585 14.989 20.47 15.037 20.345 C 16.777 15.781 12.473 12.976 10.593 11.75 C 10.178 11.479 9.88 11.285 9.793 11.167 C 9.501 10.772 9.74 9.666 9.978 8.848 L 7.336 7.461 C 5.592 8.177 4.089 8.947 2.969 9.757 C 1.915 9.365 0.725 8.858 0.628 8.414 C 0.588 8.256 0.772 7.981 1.087 7.68 C 1.685 7.112 2.886 6.5 4.682 5.846 C 4.529 5.677 4.395 5.494 4.283 5.3 C 2.612 5.926 1.327 6.565 0.667 7.194 C -1.168 8.938 1.126 9.771 3.406 10.6 C 5.036 11.193 6.66 11.783 6.764 12.701 C 6.926 14.139 6.752 16.554 1.506 17.58 C 1.524 17.608 1.542 17.636 1.561 17.663 C 4.037 17.266 5.701 16.569 6.593 15.559 C 7.485 14.563 7.485 13.462 7.393 12.623 L 7.393 12.62 C 7.743 13.694 8.348 15.858 7.983 17.068 C 7.698 18.013 6.773 19.594 4.405 20.773 C 6.58 22.489 9.316 23.523 12.294 23.554 M 7.175 11.993 L 7.17 11.985 L 7.17 11.98 L 7.175 11.993" transform="matrix(1 0 0 1 0 0)" fill="#EBEBEB" stroke="none" />
  <path d="M 7.766 2 C 7.818 2.021 7.87 2.045 7.921 2.072 L 10.994 3.685 L 12.512 8.554 L 9.28 6.858 L 7.766 2" transform="matrix(1 0 0 1 0 0)" fill="#EBEBEB" stroke="none" />
  <path d="M 16.265 6.452 L 12.801 4.633 L 14.318 9.502 L 17.783 11.321 L 16.265 6.452" transform="matrix(1 0 0 1 0 0)" fill="#EBEBEB" stroke="none" />
  <path d="M 21.9 9.409 L 18.072 7.4 L 19.589 12.269 L 20.224 12.602 C 20.081 11.296 20.744 10.033 21.9 9.409" transform="matrix(1 0 0 1 0 0)" fill="#EBEBEB" stroke="none" />
  <path d="M 7.474 5.91 L 6.245 5.265 C 5.363 4.803 5.023 3.713 5.486 2.831 C 5.668 2.484 5.948 2.221 6.273 2.057 L 7.474 5.91" transform="matrix(1 0 0 1 0 0)" fill="#EBEBEB" stroke="none" />
</svg>
