<?xml version="1.0" encoding="UTF-8"?>
<!-- Reconstructed from Amplitude.Graphics.Svg.SvgAsset and recolored from static UIMapper.Color metadata for EWShop; not original source SVG. Live UI state/material colors are not included. -->
<svg xmlns="http://www.w3.org/2000/svg" width="25" height="25" viewBox="0 0 25 25">
  <path d="M 8.415 0.683 C 8.503 1.029 8.454 1.414 8.217 1.807 L 8.109 1.947 C 7.396 2.883 7.054 3.331 5.108 4.271 L 8.315 4.468 C 8.632 5.078 8.476 5.251 8.166 5.594 C 8.044 5.728 7.899 5.889 7.749 6.114 L 6.122 8.545 C 6.122 8.545 5.14 10.268 4.989 10.58 C 4.866 10.835 4.167 11.525 3.921 11.763 C 3.867 11.827 3.836 11.845 3.836 11.845 C 3.836 11.845 3.868 11.814 3.921 11.763 C 4.114 11.536 4.608 10.731 5.108 8.095 C 5.748 4.715 3.714 6.801 3.714 6.801 C 2.934 5.799 2.888 5.058 3.161 4.191 C 4.568 2.61 6.371 1.389 8.415 0.683" transform="matrix(1 0 0 1 0 0)" fill="#EBEBEB" stroke="none" />
  <path d="M 0.128 10.704 L 2.523 11.914 L 2.055 12.016 L 1.73 12.533 C 1.295 13.225 1.4 14.127 1.984 14.7 C 2.266 14.978 2.445 15.343 2.492 15.736 L 2.711 17.572 C 2.821 18.494 3.185 19.367 3.761 20.094 L 4.219 20.67 C 4.563 21.104 5.033 21.421 5.564 21.578 C 6.087 21.732 6.547 22.052 6.982 22.38 C 7.208 22.55 7.493 22.733 7.834 22.889 C 8.429 23.162 10.021 23.498 10.021 23.498 L 13.5 24 C 13.5 24 15.721 23.686 16.458 23.276 C 16.843 23.061 17.169 22.848 17.4 22.688 C 17.516 22.608 17.609 22.54 17.674 22.492 C 17.706 22.468 17.732 22.448 17.75 22.434 L 17.772 22.417 L 17.775 22.415 L 17.779 22.412 L 18.784 21.635 L 19.895 21.337 L 20.838 21.813 C 18.626 23.795 15.704 25 12.5 25 C 5.596 25 0 19.404 0 12.5 C 0 11.89 0.044 11.29 0.128 10.704" transform="matrix(1 0 0 1 0 0)" fill="#EBEBEB" stroke="none" />
  <path d="M 13.77 9.035 C 13.804 8.929 13.823 8.816 13.823 8.699 C 13.823 8.069 13.28 7.557 12.611 7.557 C 11.941 7.557 11.399 8.069 11.399 8.699 C 11.399 8.816 11.417 8.929 11.452 9.035 C 9.741 9.236 8.491 9.869 8.491 10.62 C 8.491 11.532 10.336 12.271 12.612 12.271 C 14.888 12.271 16.732 11.532 16.732 10.62 C 16.732 9.869 15.482 9.236 13.77 9.035" transform="matrix(1 0 0 1 0 0)" fill="#EBEBEB" stroke="none" />
  <path d="M 3.517 12.691 L 3.009 13.499 L 4.165 14.635 L 4.631 18.547 L 6.111 20.411 L 8.847 20.594 L 7.935 16.317 L 6.881 15.689 L 5.888 13.499 L 4.631 12.446 L 3.517 12.691" transform="matrix(1 0 0 1 0 0)" fill="#EBEBEB" stroke="none" />
  <path d="M 12.61 13.135 C 13.83 13.135 14.974 12.938 15.845 12.589 C 16.278 12.416 16.686 12.187 17 11.89 C 17.291 11.614 17.549 11.229 17.588 10.748 L 18.96 11.51 L 19.953 12.834 C 20.574 13.662 20.923 14.662 20.951 15.697 L 20.957 15.931 C 20.985 16.953 20.699 17.958 20.139 18.812 L 19.356 20.005 L 18.114 20.964 C 18.114 20.964 16.11 22.544 14.445 22.544 L 10.946 22.544 C 9.881 22.544 8.138 21.514 7.944 21.398 L 8.608 21.442 C 9.27 21.486 9.791 20.885 9.653 20.236 L 8.791 16.196 C 8.733 15.924 8.564 15.688 8.325 15.546 L 7.824 15.247 C 7.649 15.143 7.51 14.987 7.426 14.801 L 6.592 12.964 L 5.991 12.46 C 6.176 12.25 6.472 11.926 6.714 11.711 C 6.831 11.593 6.935 11.493 7.027 11.407 C 7.188 11.256 7.43 11.145 7.692 11.068 C 7.793 11.403 7.997 11.678 8.22 11.89 C 8.534 12.187 8.942 12.416 9.375 12.589 C 10.246 12.938 11.39 13.135 12.61 13.135" transform="matrix(1 0 0 1 0 0)" fill="#EBEBEB" stroke="none" />
</svg>
