<?xml version="1.0" encoding="UTF-8"?>
<!-- Reconstructed from Amplitude.Graphics.Svg.SvgAsset and recolored from static UIMapper.Color metadata for EWShop; not original source SVG. Live UI state/material colors are not included. -->
<svg xmlns="http://www.w3.org/2000/svg" width="26" height="25" viewBox="0 0 26 25">
  <path d="M 13.465 24.969 C 13.305 24.975 13.144 24.978 12.983 24.978 C 12.806 24.978 12.63 24.975 12.454 24.967 L 12.248 20.072 L 9.444 19.67 L 10.374 13.975 L 12.313 14.369 L 14.734 14.108 L 16.978 18.739 L 13.247 19.799 L 13.465 24.969" transform="matrix(1 0 0 1 0 0)" fill="#EBEBEB" stroke="none" />
  <path d="M 21.145 9.705 C 18.908 9.705 18.746 13.58 21.145 13.58 C 22.147 13.58 22.96 12.713 22.96 11.643 C 22.96 10.573 22.147 9.705 21.145 9.705" transform="matrix(1 0 0 1 0 0)" fill="#EBEBEB" stroke="none" />
  <path d="M 14.266 5.453 L 13.401 7.253 L 12.735 7.642 L 12.759 8.206 L 16.753 8.678 L 16.404 9.405 L 17.503 9.542 C 18.203 8.16 19.572 7.222 21.146 7.222 C 23.432 7.222 25.285 9.201 25.285 11.643 C 25.285 14.085 23.432 16.064 21.146 16.064 C 20.475 16.064 19.842 15.894 19.282 15.592 C 19.112 15.5 19.282 14.615 19.282 14.615 C 19.282 14.615 18.42 14.98 18.254 14.806 C 17.284 13.795 16.856 12.345 17.054 10.966 L 15.741 10.784 L 14.57 13.22 L 12.313 13.474 L 10.104 12.972 L 9.288 11.271 L 7.432 11.681 L 7.871 13.067 L 7.184 13.656 L 6.593 11.866 L 5.757 12.051 L 5.757 10.511 L 6.121 10.438 L 5.876 9.695 L 4.682 11.767 L 5.469 14.348 C 5.421 14.339 5.371 14.331 5.321 14.326 C 5.131 14.304 4.943 14.306 4.761 14.331 L 4.137 11.704 L 5.674 9.081 L 5.564 8.749 L 6.349 8.258 L 6.984 10.264 L 8.645 9.93 L 8.334 9.282 L 11.752 8.287 L 11.726 7.658 L 10.81 7.253 L 10.305 5.453 L 10.673 3.622 L 12.285 3 L 13.715 3.622 L 14.266 5.453 M 21.145 8.431 C 22.806 8.431 24.153 9.869 24.153 11.643 C 24.153 13.417 22.806 14.855 21.145 14.855 C 20.651 14.855 20.184 14.727 19.772 14.501 L 20.039 13.61 L 19.238 14.126 C 17.178 12.319 18.277 8.431 21.145 8.431" transform="matrix(1 0 0 1 0 0)" fill="#EBEBEB" stroke="none" />
  <path d="M 5.986 18.946 C 5.82 19.021 5.645 19.077 5.465 19.11 L 4.682 20.318 L 3.927 18.84 C 3.818 18.776 3.716 18.704 3.621 18.625 L 2.453 18.491 L 2.989 17.769 C 2.91 17.58 2.856 17.379 2.831 17.174 L 2 16.418 L 2.958 16.112 C 3.089 15.763 3.298 15.465 3.559 15.231 L 3.519 14.102 L 4.638 14.696 C 4.97 14.632 5.319 14.643 5.663 14.739 L 6.697 14.289 L 6.587 15.256 C 6.761 15.417 6.908 15.605 7.022 15.81 L 8.159 16.205 L 7.305 16.944 C 7.3 17.174 7.26 17.407 7.181 17.636 C 7.122 17.807 7.044 17.966 6.951 18.111 L 7.192 19.364 L 5.986 18.946" transform="matrix(1 0 0 1 0 0)" fill="#EBEBEB" stroke="none" />
</svg>
