<?xml version="1.0" encoding="UTF-8"?>
<!-- Reconstructed from Amplitude.Graphics.Svg.SvgAsset and recolored from static UIMapper.Color metadata for EWShop; not original source SVG. Live UI state/material colors are not included. -->
<svg xmlns="http://www.w3.org/2000/svg" width="25" height="26" viewBox="0 0 25 26">
  <path d="M 0 12.58 C 0 19.484 5.596 25.08 12.5 25.08 C 18.251 25.08 23.095 21.196 24.552 15.909 L 18.435 12.855 L 13.038 14.826 L 13.038 15.631 L 12.234 17.99 L 10.071 19.313 L 7.027 19.743 L 3.865 19.126 L 3.865 16.511 L 9.048 14.398 L 7.238 13.615 L 2.101 15.631 L 1.327 15.503 L 1.327 12.94 L 2.101 11.579 L 3.633 10.642 L 5.224 10.099 L 7.619 9.711 L 10.591 10.099 L 13.038 9.259 L 3.41 4 C 1.296 6.239 0 9.258 0 12.58" transform="matrix(1 0 0 1 0 0)" fill="#EBEBEB" stroke="none" />
  <path d="M 24.532 9.178 L 12.1 14.161 L 12.1 15.448 C 12.072 16.502 11.169 17.547 9.593 18.145 C 8.076 18.72 6.307 18.74 4.9 18.296 L 4.9 17.431 C 5.739 17.602 7.065 17.807 8.906 17.06 L 8.906 16.555 C 6.074 17.242 5.471 16.945 4.93 16.679 L 4.9 16.664 L 4.9 16.6 L 9.791 14.744 L 9.791 13.818 L 7.345 12.954 L 2.433 14.661 L 2.433 13.871 C 2.523 12.858 3.416 11.868 4.933 11.293 C 6.604 10.659 8.581 10.699 10.044 11.292 L 23.244 6.188 C 23.796 7.114 24.232 8.117 24.532 9.178" transform="matrix(1 0 0 1 0 0)" fill="#EBEBEB" stroke="none" />
</svg>
