<?xml version="1.0" encoding="UTF-8"?>
<!-- Reconstructed from Amplitude.Graphics.Svg.SvgAsset and recolored from static UIMapper.Color metadata for EWShop; not original source SVG. Live UI state/material colors are not included. -->
<svg xmlns="http://www.w3.org/2000/svg" width="25" height="26" viewBox="0 0 25 26">
  <path d="M 0 12.818 C 0 19.722 5.596 25.318 12.5 25.318 C 18.293 25.318 23.165 21.378 24.583 16.032 L 19.751 13.591 L 18.555 14.261 C 18.834 15.078 18.878 15.968 18.736 16.816 C 18.12 20.503 14.371 21.951 10.988 21.951 C 7.565 21.951 3.423 20.391 3.197 16.476 C 2.961 12.408 7.49 10.029 10.988 9.819 C 11.451 9.791 11.959 9.832 12.476 9.915 L 2.746 5 C 1.028 7.141 0 9.86 0 12.818" transform="matrix(1 0 0 1 0 0)" fill="#EBEBEB" stroke="none" />
  <path d="M 8.149 16.076 L 7.335 14.761 C 7.507 14.244 8.259 13.208 9.887 13.195 L 10.701 14.072 C 10.022 14.239 8.562 14.874 8.149 16.076" transform="matrix(1 0 0 1 0 0)" fill="#EBEBEB" stroke="none" />
  <path d="M 24.13 8.227 L 16.443 13.137 C 17.104 14.219 17.502 15.369 17.29 16.641 C 16.789 19.64 13.739 20.818 10.987 20.818 C 8.202 20.818 4.833 19.549 4.648 16.364 C 4.456 13.033 8.075 11.123 10.986 10.949 C 12.248 10.873 13.908 11.419 14.91 11.808 L 23.263 6.457 C 23.597 7.02 23.887 7.611 24.13 8.227 M 15.95 15.401 C 15.95 17.234 13.753 18.72 11.043 18.72 C 8.333 18.72 6.136 17.234 6.136 15.401 C 6.136 13.568 8.333 12.082 11.043 12.082 C 13.753 12.082 15.95 13.568 15.95 15.401" transform="matrix(1 0 0 1 0 0)" fill="#EBEBEB" stroke="none" />
</svg>
