<?xml version="1.0" encoding="UTF-8"?>
<!-- Reconstructed from Amplitude.Graphics.Svg.SvgAsset and recolored from static UIMapper.Color metadata for EWShop; not original source SVG. Live UI state/material colors are not included. -->
<svg xmlns="http://www.w3.org/2000/svg" width="25" height="25" viewBox="0 0 25 25">
  <path d="M 24.639 9.048 C 23.14 3.823 18.327 0 12.621 0 C 8.087 0 4.116 2.414 1.925 6.028 L 6.201 3.916 L 6.998 3.129 L 8.084 3.081 L 9.389 3.749 L 10.157 3.081 L 12.902 3.129 L 17.635 2.649 L 18.057 6.337 L 18.602 6.55 L 19.518 3.749 L 20.568 4.702 L 21.033 5.579 L 22.377 6.337 L 24.639 9.048" transform="matrix(1 0 0 1 0 0)" fill="#EBEBEB" stroke="none" />
  <path d="M 23.516 18.633 C 21.371 22.434 17.296 25 12.621 25 C 7.347 25 2.836 21.733 1 17.113 L 1.959 17.482 L 2.893 13.548 L 3.607 7.654 L 4.732 8.087 L 5.259 14.218 L 5.259 18.593 L 6.509 19.683 L 7.492 16.405 L 7.715 12.282 L 8.285 12.505 L 8.742 18.18 L 10.081 21.007 L 13.867 22.672 L 16.126 20.504 L 17.521 21.806 L 18.206 17.482 L 19.569 18.18 L 19.86 20.857 L 21.732 20.032 L 23.516 18.633" transform="matrix(1 0 0 1 0 0)" fill="#EBEBEB" stroke="none" />
  <path d="M 20.647 12.159 C 19.599 9.92 16.963 4.948 13.748 5.876 C 11.383 6.558 9.671 7.924 7.891 9.532 C 12.114 8.018 16.874 8.325 20.647 12.159" transform="matrix(1 0 0 1 0 0)" fill="#EBEBEB" stroke="none" />
  <path d="M 18.331 11.654 C 17.419 10.568 14.456 8.706 9.908 9.95 C 10.562 9.97 11.479 10.029 12.486 10.141 L 10.524 11.581 L 12.886 10.718 C 12.79 11.215 12.653 11.839 12.439 12.565 C 10.497 11.965 8.982 11.032 8.621 10.392 C 8.845 11.126 9.856 12.588 12.182 13.375 C 11.717 14.736 10.996 16.375 9.848 18.179 L 10.825 20.242 L 13.804 21.348 C 14.049 20.146 14.847 16.716 15.249 13.87 C 17.672 13.852 19.382 12.84 20.014 12.23 C 19.08 12.533 17.135 13.009 15.357 13.034 C 15.432 12.388 15.479 11.79 15.485 11.282 L 17.109 12.641 L 15.807 10.702 C 16.805 10.945 17.705 11.258 18.331 11.654" transform="matrix(1 0 0 1 0 0)" fill="#EBEBEB" stroke="none" />
</svg>
