<?xml version="1.0" encoding="UTF-8"?>
<!-- Reconstructed from Amplitude.Graphics.Svg.SvgAsset and recolored from static UIMapper.Color metadata for EWShop; not original source SVG. Live UI state/material colors are not included. -->
<svg xmlns="http://www.w3.org/2000/svg" width="25" height="25" viewBox="0 0 25 25">
  <path d="M 12.016 1.397 C 11.805 0.917 11.608 0.448 11.428 0 C 11.331 0.008 11.235 0.017 11.139 0.028 C 10.465 1.584 9.402 3.212 7.798 4.345 C 8.309 3.534 9.086 2.014 9.602 0.292 C 4.57 1.487 0.716 5.723 0.089 10.951 L 1.174 10.85 L 5.753 6.303 L 2.496 10.727 L 3.773 10.608 C 3.89 10.863 4.013 11.117 4.121 11.376 C 8.04 10.442 10.892 4.814 12.016 1.397" transform="matrix(1 0 0 1 0 0)" fill="#EBEBEB" stroke="none" />
  <path d="M 0.183 14.6 C 0.036 13.746 -0.025 12.851 0.009 11.963 L 3.158 11.67 C 3.158 11.67 3.492 12.401 3.502 12.899 C 3.513 13.437 3.158 14.234 3.158 14.234 L 0.183 14.6" transform="matrix(1 0 0 1 0 0)" fill="#EBEBEB" stroke="none" />
  <path d="M 4.895 22.375 C 2.739 20.72 1.138 18.378 0.419 15.676 C 1.336 15.504 2.252 15.332 3.169 15.16 C 4.059 17.462 4.655 19.919 4.895 22.375" transform="matrix(1 0 0 1 0 0)" fill="#EBEBEB" stroke="none" />
  <path d="M 24.626 15.499 C 24.053 17.79 22.847 19.831 21.206 21.424 C 21.546 18.976 22.242 16.644 22.819 15.16 L 24.626 15.499" transform="matrix(1 0 0 1 0 0)" fill="#EBEBEB" stroke="none" />
  <path d="M 24.986 11.861 C 25.027 12.735 24.976 13.622 24.839 14.468 L 22.934 14.234 C 22.934 14.234 22.579 13.437 22.59 12.899 C 22.601 12.401 22.934 11.67 22.934 11.67 L 24.986 11.861" transform="matrix(1 0 0 1 0 0)" fill="#EBEBEB" stroke="none" />
  <path d="M 24.898 10.849 C 24.154 5.057 19.448 0.506 13.585 0.002 C 14.651 3.861 17.021 8.833 22.001 11.306 L 22.003 11.303 L 22.233 10.798 L 18.214 5.338 L 23.645 10.732 L 24.898 10.849" transform="matrix(1 0 0 1 0 0)" fill="#EBEBEB" stroke="none" />
  <path d="M 12.255 13.195 C 11.663 13.2 11.081 13.222 10.512 13.259 L 8.427 16.506 L 12.255 16.506 L 12.255 13.195" transform="matrix(1 0 0 1 0 0)" fill="#EBEBEB" stroke="none" />
  <path d="M 9.137 13.383 C 7.398 13.583 5.815 13.935 4.484 14.402 C 5.017 15.772 5.448 17.178 5.781 18.611 L 9.137 13.383" transform="matrix(1 0 0 1 0 0)" fill="#EBEBEB" stroke="none" />
  <path d="M 6.095 20.138 C 6.232 20.902 6.341 21.68 6.41 22.478 C 8.138 22.879 10.13 23.115 12.255 23.131 L 12.255 17.506 L 7.785 17.506 L 6.095 20.138" transform="matrix(1 0 0 1 0 0)" fill="#EBEBEB" stroke="none" />
  <path d="M 13.345 23.121 C 15.667 23.057 17.812 22.731 19.601 22.215 L 19.612 22.107 C 19.69 21.352 19.803 20.602 19.941 19.874 L 16.768 15.609 L 13.345 15.609 L 13.345 23.121" transform="matrix(1 0 0 1 0 0)" fill="#EBEBEB" stroke="none" />
  <path d="M 20.243 18.455 C 20.587 17.009 21.001 15.713 21.375 14.733 C 20.046 14.169 18.392 13.731 16.534 13.469 L 20.243 18.455" transform="matrix(1 0 0 1 0 0)" fill="#EBEBEB" stroke="none" />
  <path d="M 15.051 13.303 L 16.024 14.611 L 13.345 14.611 L 13.345 13.207 C 13.925 13.223 14.495 13.256 15.051 13.303" transform="matrix(1 0 0 1 0 0)" fill="#EBEBEB" stroke="none" />
</svg>
