<?xml version="1.0" encoding="UTF-8"?>
<!-- Reconstructed from Amplitude.Graphics.Svg.SvgAsset and recolored from static UIMapper.Color metadata for EWShop; not original source SVG. Live UI state/material colors are not included. -->
<svg xmlns="http://www.w3.org/2000/svg" width="25" height="25" viewBox="0 0 25 25">
  <path d="M 18.682 0.429 C 20.28 1.255 21.685 2.396 22.813 3.769 L 18.391 2.345 L 18.334 2.364 L 16.739 0.521 L 17.763 2.548 L 12.55 4.226 L 15.731 0 L 18.682 0.429" transform="matrix(1 0 0 1 0 0)" fill="#EBEBEB" stroke="none" />
  <path d="M 12.605 25 C 17.475 25 21.727 22.379 24 18.483 C 23.788 18.597 23.584 18.727 23.39 18.875 L 23.204 19.016 C 21.255 20.497 18.536 20.514 16.549 19.099 C 15.078 18.05 13.074 18.038 11.61 19.081 C 9.596 20.516 6.856 20.427 4.94 18.867 C 3.834 17.967 2.35 17.688 1 18.108 C 1.517 19.066 2.151 19.952 2.884 20.748 C 3.682 20.673 4.375 20.798 4.715 21.302 C 5.557 22.552 8.923 21.422 9.975 20.728 C 9.231 22.201 7.596 22.955 5.949 23.211 C 7.901 24.348 10.176 25 12.605 25 M 14.183 20.833 C 13.931 20.333 12.921 20.786 12.605 21.063 C 12.61 21.05 12.615 21.038 12.62 21.025 C 12.839 20.481 13.368 20.139 13.951 20.045 C 14.08 20.024 14.202 20.116 14.285 20.216 C 14.578 20.566 15.355 20.685 15.761 20.625 C 15.34 20.903 14.436 21.333 14.183 20.833 M 15.235 22.396 C 14.646 23.396 12.29 22.492 11.553 21.936 C 12.072 23.111 13.32 23.77 14.6 23.96 C 14.637 23.965 14.674 23.97 14.71 23.975 C 15.02 24.017 15.291 23.798 15.519 23.586 C 16.235 22.921 17.991 22.696 18.917 22.813 C 17.935 22.257 15.824 21.396 15.235 22.396" transform="matrix(1 0 0 1 0 0)" fill="#EBEBEB" stroke="none" />
  <path d="M 12.079 4.852 L 12.136 4.837 L 12.136 4.776 L 12.079 4.852" transform="matrix(1 0 0 1 0 0)" fill="#EBEBEB" stroke="none" />
  <path d="M 13.385 11.201 L 13.385 17.096 C 14.736 16.933 16.138 17.266 17.287 18.084 C 18.829 19.183 20.936 19.164 22.436 18.025 L 22.621 17.884 C 22.868 17.696 23.128 17.529 23.397 17.385 L 23.397 5.258 L 19.852 4.116 L 19.895 4.167 L 18.354 3.658 L 13.751 5.14 L 14.183 5.729 L 17.865 4.688 L 17.874 9.883 L 14.183 10.938 L 13.385 11.201 M 17.874 12.487 L 17.865 10.938 L 14.183 11.979 L 14.183 13.542 L 17.874 12.487 M 17.865 13.542 L 17.874 15.091 L 14.183 16.146 L 14.183 14.583 L 17.865 13.542" transform="matrix(1 0 0 1 0 0)" fill="#EBEBEB" stroke="none" />
  <path d="M 14.366 8.419 C 14.418 8.712 14.471 9.015 14.523 9.315 L 13.116 9.701 L 12.912 9.74 C 12.331 9.852 11.73 9.968 11.135 10.089 C 11.087 9.749 11.034 9.401 10.984 9.064 L 10.976 9.013 L 10.974 9 C 10.859 8.239 10.741 7.454 10.657 6.717 C 11.669 6.619 12.693 6.531 13.684 6.447 L 13.724 6.444 C 13.788 6.438 13.854 6.432 13.919 6.427 L 14.063 6.415 C 14.115 6.723 14.162 7.054 14.208 7.383 C 14.258 7.736 14.308 8.089 14.365 8.413 L 14.366 8.419" transform="matrix(1 0 0 1 0 0)" fill="#EBEBEB" stroke="none" />
  <path d="M 4.903 8.652 L 4.923 8.809 C 5.063 9.937 5.208 11.1 5.376 12.261 C 4.667 12.541 4.063 12.62 3.532 12.5 C 3.237 10.624 2.899 8.417 2.611 6.234 C 3.218 5.95 3.918 5.691 4.546 5.87 C 4.674 6.81 4.796 7.787 4.903 8.652" transform="matrix(1 0 0 1 0 0)" fill="#EBEBEB" stroke="none" />
  <path d="M 15.008 7.815 C 14.977 7.631 14.945 7.442 14.909 7.252 C 15.181 7.209 15.455 7.172 15.721 7.135 L 15.789 7.126 C 16.142 7.078 16.539 7.024 16.932 6.957 C 16.978 7.163 17.008 7.368 17.04 7.584 L 17.043 7.601 C 17.055 7.685 17.068 7.775 17.083 7.867 C 16.685 7.953 16.288 8.02 15.903 8.086 L 15.899 8.087 L 15.848 8.095 L 15.824 8.099 C 15.581 8.141 15.33 8.184 15.081 8.231 C 15.067 8.156 15.054 8.081 15.042 8.009 C 15.031 7.947 15.021 7.887 15.011 7.83 L 15.008 7.815" transform="matrix(1 0 0 1 0 0)" fill="#EBEBEB" stroke="none" />
  <path d="M 5.398 6.633 C 5.388 6.547 5.377 6.46 5.367 6.374 C 6.929 6.205 8.495 6.069 9.765 5.959 L 9.78 5.958 C 9.973 7.186 10.149 8.43 10.319 9.633 L 10.325 9.671 L 10.494 10.863 C 9.575 11.035 8.646 11.191 7.747 11.341 L 7.68 11.353 L 7.612 11.364 C 7.1 11.449 6.571 11.537 6.043 11.63 C 5.815 10.124 5.633 8.604 5.457 7.131 L 5.398 6.633" transform="matrix(1 0 0 1 0 0)" fill="#EBEBEB" stroke="none" />
</svg>
