<?xml version="1.0" encoding="UTF-8"?>
<!-- Reconstructed from Amplitude.Graphics.Svg.SvgAsset and recolored from static UIMapper.Color metadata for EWShop; not original source SVG. Live UI state/material colors are not included. -->
<svg xmlns="http://www.w3.org/2000/svg" width="25" height="25" viewBox="0 0 25 25">
  <path d="M 0.226 14.877 L 24.774 14.877 C 24.411 16.764 23.624 18.5 22.515 19.981 L 19.029 19.078 L 19.903 17.934 L 19.407 16.506 L 17.287 15.931 L 15.649 17.399 L 3.4 15.157 L 1.07 15.481 L 2.106 17.051 L 3.255 18.486 L 13.105 21.943 L 11.279 23.482 L 13.286 24.976 C 13.026 24.992 12.764 25 12.5 25 C 6.409 25 1.336 20.644 0.226 14.877 M 15.224 24.702 L 16.614 22.825 L 18.628 23.397 C 17.578 23.989 16.434 24.433 15.224 24.702 M 19.711 22.711 L 19.711 22.605 L 16.313 21.553 L 14.484 23.6 L 13.62 23.788 L 12.856 23.269 L 13.946 21.943 L 14.484 21.11 L 3.4 17.051 L 1.768 15.745 L 3.4 15.629 L 16.313 18.579 L 17.072 17.515 L 17.72 16.862 L 18.945 17.675 L 17.975 18.681 L 17.152 20.008 L 21.644 21.023 C 21.06 21.649 20.412 22.216 19.711 22.711 M 10.441 1.461 L 12.671 0.369 L 13.991 0.915 L 14.355 3.418 L 13.581 5.921 L 11.806 5.921 L 10.805 5.602 L 10.168 3.008 L 10.441 1.461 M 15.89 4.112 L 17.151 7.244 L 20.91 11.798 L 23.748 13.724 C 23.748 13.724 21.876 13.771 21.876 13.724 L 20.91 13.724 L 18.02 11.505 L 15.422 8.504 L 15.519 11.505 L 16.18 13.86 L 8.53 13.86 L 9.266 11.505 L 9.084 8.798 L 6.219 12.177 L 3.692 13.724 L 1.327 13.724 L 4.312 11.505 L 7.585 7.057 L 8.53 4.112 L 10.27 6.157 L 11.659 7.728 L 13.228 7.728 L 14.547 6.073 L 15.89 4.112" transform="matrix(1 0 0 1 0 0)" fill="#EBEBEB" stroke="none" />
</svg>
