<?xml version="1.0" encoding="UTF-8"?>
<!-- Reconstructed from Amplitude.Graphics.Svg.SvgAsset and recolored from static UIMapper.Color metadata for EWShop; not original source SVG. Live UI state/material colors are not included. -->
<svg xmlns="http://www.w3.org/2000/svg" width="25" height="25" viewBox="0 0 25 25">
  <path d="M 12.5 25 C 19.404 25 25 19.404 25 12.5 C 25 12.452 25 12.404 24.999 12.356 C 24.427 12.248 23.85 12.148 23.266 12.056 L 23.115 12.45 L 22.616 18.329 L 15.402 19.926 L 9.704 18.679 L 8.79 17.331 L 3.997 17.878 L 1.392 15.601 L 1.686 14.067 L 1.655 14.062 L 1.968 12.591 L 2.005 12.401 C 1.329 12.531 0.662 12.673 0.004 12.826 C 0.177 19.579 5.705 25 12.5 25" transform="matrix(1 0 0 1 0 0)" fill="#EBEBEB" stroke="none" />
  <path d="M 16.75 1.062 C 16.739 0.97 16.66 0.901 16.567 0.901 C 16.474 0.901 16.396 0.97 16.384 1.062 L 15.982 3.306 L 13.738 3.709 C 13.646 3.72 13.576 3.799 13.576 3.892 C 13.576 3.985 13.646 4.063 13.738 4.075 L 15.982 4.509 L 16.384 6.721 C 16.396 6.813 16.474 6.883 16.567 6.883 C 16.66 6.883 16.739 6.813 16.75 6.721 L 17.185 4.509 L 19.397 4.075 C 19.489 4.063 19.558 3.985 19.558 3.892 C 19.558 3.799 19.489 3.72 19.397 3.709 L 17.185 3.306 L 16.75 1.062" transform="matrix(1 0 0 1 0 0)" fill="#EBEBEB" stroke="none" />
  <path d="M 3.864 13.02 L 3.955 13.035 L 3.868 13.038 L 3.519 14.863 L 5.127 16.269 L 8.874 15.788 L 8.806 13.178 L 8.806 13.175 C 8.788 12.987 8.811 12.802 8.874 12.628 L 9.563 10.711 C 9.709 10.303 10.068 9.973 10.57 9.785 L 11.49 9.44 C 12.196 9.175 13.101 9.22 13.886 9.559 L 15.006 10.043 C 15.817 10.394 16.379 11.006 16.484 11.652 L 16.586 12.28 C 16.693 12.941 16.292 13.531 15.544 13.81 L 15.353 13.882 C 14.557 14.179 13.495 14.01 12.764 13.47 L 12.615 13.359 C 11.97 12.882 11.78 12.195 12.154 11.688 L 12.302 11.486 C 12.739 10.894 13.88 10.829 14.68 11.351 L 15.176 11.675 C 15.536 11.91 15.642 12.277 15.424 12.533 C 15.153 12.851 14.507 12.861 14.079 12.554 L 13.752 12.319 L 14.105 12.054 L 14.432 12.289 C 14.594 12.405 14.839 12.402 14.941 12.281 C 15.024 12.184 14.984 12.045 14.848 11.956 L 14.351 11.632 C 13.829 11.291 13.084 11.334 12.799 11.721 L 12.65 11.922 C 12.387 12.279 12.52 12.764 12.976 13.1 L 13.125 13.211 C 13.666 13.611 14.452 13.736 15.041 13.516 L 15.233 13.444 C 15.81 13.228 16.12 12.773 16.037 12.262 L 15.935 11.634 C 15.854 11.132 15.416 10.655 14.786 10.383 L 13.663 10.116 C 13.052 9.852 12.91 9.837 12.361 10.043 L 11.317 10.427 L 11.303 10.433 C 10.918 10.577 10.533 10.721 10.421 11.035 L 9.615 12.785 C 9.567 12.921 9.549 13.064 9.563 13.211 L 9.618 13.802 L 9.608 13.8 L 9.638 14.015 L 9.648 14.124 L 9.654 14.127 L 9.679 15.788 L 10.602 17.15 L 15.187 18.153 L 20.823 16.906 L 21.227 12.143 L 21.509 11.406 L 18.894 7.999 L 16.934 10.383 L 17.557 7.677 L 12.323 6.416 L 8.492 7.052 L 8.492 9.559 L 7.484 7.545 L 5.038 8.147 L 4.368 9.912 L 7.484 11.243 L 4.191 11.486 L 3.864 13.02" transform="matrix(1 0 0 1 0 0)" fill="#EBEBEB" stroke="none" />
</svg>
