<?xml version="1.0" encoding="UTF-8"?>
<!-- Reconstructed from Amplitude.Graphics.Svg.SvgAsset and recolored from static UIMapper.Color metadata for EWShop; not original source SVG. Live UI state/material colors are not included. -->
<svg xmlns="http://www.w3.org/2000/svg" width="25" height="25" viewBox="0 0 25 25">
  <path d="M 14.206 0 C 15.544 0.183 16.814 0.577 17.983 1.148 C 17.876 1.961 17.28 2.621 16.5 2.822 L 16.5 6.885 L 17.463 6.885 C 17.656 6.885 17.838 6.976 17.869 7.088 L 18.329 8.781 C 18.359 8.893 18.357 9.076 18.324 9.187 L 17.827 10.881 C 17.794 10.992 17.61 11.084 17.417 11.084 L 16.883 11.084 L 16.883 13.182 C 16.883 13.214 16.881 13.246 16.877 13.277 C 16.884 13.662 16.582 13.985 16.194 14.002 L 16.154 14.004 L 16.145 14.004 L 16.132 14.005 C 16.128 14.005 16.124 14.005 16.119 14.005 C 16.116 14.006 16.113 14.006 16.11 14.006 L 16.066 14.01 C 15.988 14.017 15.874 14.031 15.734 14.063 C 15.593 14.096 15.426 14.149 15.246 14.237 C 15.157 14.281 15.064 14.334 14.972 14.397 C 14.879 14.46 14.786 14.533 14.696 14.616 C 14.606 14.7 14.519 14.795 14.439 14.9 C 14.359 15.005 14.285 15.12 14.221 15.245 C 14.094 15.495 14.009 15.782 13.985 16.088 C 13.982 16.126 13.98 16.164 13.979 16.203 L 13.978 16.256 L 13.978 16.295 L 13.978 16.314 L 13.979 16.321 L 13.979 16.328 L 13.98 16.364 L 13.981 16.379 C 13.981 16.386 13.982 16.394 13.982 16.401 C 13.983 16.413 13.983 16.425 13.985 16.437 C 13.988 16.477 13.991 16.516 13.997 16.555 C 14.007 16.633 14.022 16.711 14.04 16.788 C 14.059 16.866 14.081 16.943 14.108 17.018 C 14.216 17.321 14.392 17.607 14.625 17.842 C 14.856 18.079 15.141 18.263 15.446 18.381 C 15.599 18.439 15.757 18.483 15.917 18.509 C 15.997 18.522 16.078 18.533 16.159 18.538 L 16.174 18.539 L 16.181 18.54 L 16.176 18.54 L 16.184 18.54 L 16.22 18.542 L 16.282 18.543 L 16.287 18.543 C 16.294 18.543 16.3 18.544 16.308 18.543 L 16.337 18.543 C 16.357 18.544 16.377 18.543 16.397 18.543 C 16.555 18.539 16.713 18.516 16.867 18.482 C 17.021 18.448 17.17 18.398 17.311 18.339 C 17.594 18.218 17.842 18.053 18.044 17.873 C 18.247 17.692 18.403 17.493 18.514 17.3 C 18.625 17.107 18.692 16.919 18.73 16.757 C 18.768 16.595 18.78 16.459 18.784 16.366 C 18.786 16.319 18.787 16.283 18.786 16.258 C 18.787 16.234 18.787 16.221 18.787 16.221 L 18.787 16.206 C 18.788 16.129 18.833 16.056 18.909 16.024 C 19.01 15.981 19.127 16.029 19.171 16.13 C 19.171 16.13 19.177 16.144 19.188 16.171 C 19.2 16.198 19.215 16.239 19.235 16.293 C 19.253 16.348 19.273 16.416 19.292 16.499 C 19.311 16.582 19.327 16.679 19.336 16.789 C 19.354 17.009 19.342 17.286 19.259 17.591 C 19.176 17.894 19.023 18.224 18.789 18.534 C 18.556 18.844 18.243 19.135 17.861 19.369 C 17.67 19.486 17.462 19.588 17.238 19.672 C 17.015 19.756 16.776 19.816 16.526 19.853 L 16.508 19.855 C 16.483 19.859 16.457 19.862 16.432 19.865 L 16.384 19.87 C 16.374 19.871 16.364 19.871 16.353 19.872 C 16.346 19.873 16.339 19.873 16.332 19.874 L 16.28 19.877 L 16.239 19.88 L 16.2 19.882 L 16.144 19.883 C 16.016 19.887 15.887 19.884 15.758 19.872 C 15.628 19.861 15.498 19.842 15.368 19.817 C 15.238 19.791 15.11 19.756 14.982 19.715 C 14.473 19.552 13.994 19.264 13.6 18.887 C 13.206 18.509 12.897 18.042 12.707 17.535 C 12.611 17.282 12.545 17.02 12.508 16.758 C 12.499 16.693 12.491 16.627 12.486 16.561 C 12.483 16.537 12.481 16.513 12.48 16.488 L 12.477 16.439 L 12.475 16.412 L 12.473 16.358 L 12.473 16.332 L 12.472 16.313 L 12.471 16.274 L 12.471 16.219 L 12.472 16.171 C 12.473 16.106 12.476 16.042 12.48 15.977 C 12.498 15.721 12.541 15.469 12.61 15.231 C 12.678 14.992 12.769 14.765 12.878 14.555 C 12.986 14.345 13.111 14.151 13.247 13.976 C 13.385 13.802 13.532 13.645 13.685 13.508 C 13.838 13.371 13.995 13.25 14.153 13.15 C 14.31 13.048 14.467 12.965 14.62 12.896 C 14.913 12.761 15.187 12.686 15.417 12.64 L 15.417 11.084 L 14.726 11.084 C 14.533 11.084 14.35 10.992 14.32 10.88 L 13.86 9.188 C 13.83 9.076 13.832 8.893 13.865 8.781 L 14.362 7.088 C 14.395 6.976 14.579 6.885 14.772 6.885 L 15.5 6.885 L 15.5 2.822 C 15.46 2.811 15.42 2.8 15.38 2.787 L 4.693 16.618 L 6 18.885 L 9 18.885 L 9 22.885 L 15 22.885 L 15 24.635 C 14.192 24.799 13.356 24.885 12.5 24.885 C 7.977 24.885 4.015 22.483 1.821 18.885 L 2.625 18.885 L 0.025 13.181 C 0.008 12.918 0 12.652 0 12.385 C 0 11.283 0.143 10.214 0.41 9.196 L 0.797 9.866 L 14.166 0.086 C 14.178 0.057 14.192 0.028 14.206 0 M 14.045 1.309 L 1.339 10.805 L 4.112 15.612 L 14.604 2.316 C 14.328 2.047 14.13 1.699 14.045 1.309" transform="matrix(1 0 0 1 0 0)" fill="#EBEBEB" stroke="none" />
</svg>
