<?xml version="1.0" encoding="UTF-8"?>
<!-- Reconstructed from Amplitude.Graphics.Svg.SvgAsset and recolored from static UIMapper.Color metadata for EWShop; not original source SVG. Live UI state/material colors are not included. -->
<svg xmlns="http://www.w3.org/2000/svg" width="25" height="25" viewBox="0 0 25 25">
  <path d="M 22.501 20 C 20.22 23.036 16.59 25 12.5 25 C 8.41 25 4.78 23.036 2.499 20 L 4.958 20 L 6.583 21.111 L 19.042 21.111 L 20.667 20 L 22.501 20" transform="matrix(1 0 0 1 0 0)" fill="#EBEBEB" stroke="none" />
  <path d="M 9.352 20.056 L 6.811 20.056 L 5.741 19.324 L 5.741 16.444 L 6.222 12.352 L 5.741 6.5 L 6.944 5.296 L 6.944 7.778 L 8.5 5 L 11.315 3.926 L 11.315 2.963 L 12.759 2 L 15.444 2.963 L 15.444 3.926 L 17 5 L 18.333 6.815 L 18.537 4.778 L 19.5 5.5 L 19.5 9 L 19 12 L 19.056 16.444 L 19.991 19.251 L 18.814 20.056 L 15.926 20.056 L 18.574 20.056 L 17.13 16.444 L 17.263 14.303 L 9.5 17.5 L 10.842 16.296 L 17.363 12.713 L 17.37 12.593 L 17.316 11.614 L 7.957 16.047 L 7.907 16.444 L 8.148 20.056 L 9.352 20.056 M 8.103 14.878 L 17.184 9.231 L 17.13 8.259 L 15.926 6.333 L 13 5.37 L 9.833 6.333 L 8.389 8.259 L 8.389 12.593 L 8.103 14.878" transform="matrix(1 0 0 1 0 0)" fill="#EBEBEB" stroke="none" />
</svg>
