<?xml version="1.0" encoding="UTF-8"?>
<!-- Reconstructed from Amplitude.Graphics.Svg.SvgAsset and recolored from static UIMapper.Color metadata for EWShop; not original source SVG. Live UI state/material colors are not included. -->
<svg xmlns="http://www.w3.org/2000/svg" width="25" height="25" viewBox="0 0 25 25">
  <path d="M 17.014 24.16 C 19.462 23.212 21.537 21.515 22.958 19.349 C 23.038 18.894 23.079 18.428 23.079 17.954 C 23.079 16.728 22.801 15.555 22.3 14.481 C 22.567 14.056 22.723 13.592 22.723 13.105 C 22.723 12.376 22.378 11.7 21.826 11.132 C 21.273 10.565 20.509 10.084 19.587 9.683 C 19.495 9.643 19.401 9.604 19.307 9.566 L 17.505 9.934 C 18.133 10.103 18.709 10.301 19.221 10.524 C 20.066 10.891 20.732 11.324 21.168 11.772 C 21.604 12.22 21.806 12.661 21.806 13.105 C 21.806 13.549 21.604 13.991 21.168 14.439 C 20.732 14.887 20.066 15.32 19.221 15.688 C 17.533 16.422 15.142 16.893 12.499 16.893 C 9.856 16.893 7.466 16.422 5.777 15.688 C 4.933 15.32 4.265 14.887 3.829 14.439 C 3.393 13.991 3.193 13.549 3.193 13.105 C 3.193 12.661 3.393 12.22 3.829 11.772 C 4.265 11.324 4.933 10.891 5.777 10.524 C 6.225 10.329 6.722 10.153 7.261 9.999 L 5.509 9.641 C 5.476 9.655 5.443 9.669 5.41 9.683 C 4.488 10.084 3.725 10.565 3.173 11.132 C 2.62 11.7 2.276 12.376 2.276 13.105 C 2.276 13.592 2.431 14.056 2.699 14.48 C 2.197 15.554 1.921 16.728 1.921 17.954 C 1.921 18.428 1.962 18.894 2.042 19.349 C 3.355 21.35 5.226 22.951 7.434 23.931 C 7.544 23.593 7.689 23.267 7.87 22.957 L 5.509 21.583 C 5.945 20.834 6.504 20.164 7.162 19.6 L 8.938 21.675 C 9.258 21.401 9.613 21.167 9.995 20.98 L 10 20.978 L 8.804 18.523 C 9.583 18.143 10.42 17.897 11.28 17.795 L 11.602 20.508 C 12.091 20.45 12.593 20.464 13.082 20.553 L 13.569 17.866 C 14.422 18.02 15.242 18.317 15.996 18.744 L 14.651 21.121 C 15.024 21.332 15.372 21.593 15.681 21.894 L 17.588 19.939 C 18.208 20.544 18.722 21.249 19.109 22.024 L 16.664 23.242 C 16.81 23.534 16.927 23.843 17.014 24.16 M 9.293 24.585 C 10.316 24.856 11.391 25 12.5 25 C 13.4 25 14.279 24.905 15.125 24.724 C 14.815 23.571 13.825 22.629 12.597 22.463 C 11.11 22.261 9.726 23.231 9.293 24.585 M 15.637 0.397 L 14.961 3.703 L 10.826 4.549 L 14.961 5.394 L 15.806 9.529 L 16.651 5.394 L 20.787 4.549 L 16.651 3.703 L 15.996 0.495 C 15.877 0.461 15.757 0.428 15.637 0.397 M 6.041 12.947 C 6.041 11.97 8.011 11.141 10.804 10.797 L 10.772 10.716 L 9.246 10.404 C 6.719 10.844 4.952 11.846 4.952 13.005 C 4.952 14.568 8.163 15.842 12.117 15.842 C 14.082 15.842 15.867 15.518 17.162 15.011 C 16.116 15.175 14.95 15.298 13.694 15.298 C 9.47 15.298 6.041 14.235 6.041 12.947 M 12.225 6.027 L 11.675 8.714 L 8.988 9.263 L 11.675 9.813 L 12.225 12.5 L 12.774 9.813 L 15.461 9.263 L 12.774 8.714 L 12.225 6.027" transform="matrix(1 0 0 1 0 0)" fill="#EBEBEB" stroke="none" />
</svg>
