<?xml version="1.0" encoding="UTF-8"?>
<!-- Reconstructed from Amplitude.Graphics.Svg.SvgAsset and recolored from static UIMapper.Color metadata for EWShop; not original source SVG. Live UI state/material colors are not included. -->
<svg xmlns="http://www.w3.org/2000/svg" width="25" height="25" viewBox="0 0 25 25">
  <path d="M 7.242 23.322 C 8.908 24.145 10.784 24.607 12.768 24.607 C 14.552 24.607 16.248 24.233 17.783 23.56 L 17.908 22.451 L 7.208 22.451 L 7.242 23.322" transform="matrix(1 0 0 1 0 0)" fill="#EBEBEB" stroke="none" />
  <path d="M 4.49 21.473 L 20.449 21.473 C 21.57 21.473 22.607 20.229 22.421 19.136 L 19.781 3.664 C 19.617 2.703 18.784 2 17.809 2 L 6.708 2 C 5.743 2 4.916 2.688 4.741 3.637 L 4.404 5.465 L 7.576 5.601 C 7.944 5.208 8.466 4.967 9.037 4.967 L 15.371 4.967 C 16.354 4.967 17.191 5.68 17.346 6.651 L 17.503 7.631 L 16.52 7.817 L 16.359 6.809 C 16.281 6.323 15.863 5.967 15.371 5.967 L 9.037 5.967 C 8.551 5.967 8.135 6.317 8.052 6.796 L 6.401 16.336 C 6.296 16.948 6.766 17.507 7.387 17.507 L 16.897 17.507 C 17.512 17.507 17.982 16.956 17.885 16.349 L 17.561 14.326 L 18.542 14.126 L 18.872 16.191 C 19.066 17.406 18.128 18.507 16.897 18.507 L 7.387 18.507 C 6.349 18.507 5.521 17.725 5.401 16.755 L 2.32 16.755 L 2.004 18.466 C 2.673 19.594 3.513 20.609 4.49 21.473 M 16.575 8.605 L 16.766 9.804 C 16.431 9.967 16.19 10.271 16.135 10.629 L 14.845 10.834 C 14.845 10.818 14.845 10.802 14.845 10.785 C 14.845 9.763 15.572 8.898 16.575 8.605 M 17.368 8.499 L 17.559 9.698 C 17.92 9.764 18.224 9.979 18.39 10.271 L 19.68 10.066 C 19.358 9.167 18.447 8.516 17.368 8.499 M 19.804 10.856 L 18.488 11.065 C 18.403 11.369 18.181 11.621 17.888 11.765 L 18.078 12.965 C 19.057 12.678 19.772 11.846 19.804 10.856 M 17.285 13.072 L 17.095 11.873 C 16.778 11.817 16.506 11.645 16.331 11.408 L 15.014 11.618 C 15.371 12.458 16.251 13.057 17.285 13.072" transform="matrix(1 0 0 1 0 0)" fill="#EBEBEB" stroke="none" />
  <path d="M 4.947 13.826 L 4.65 15.755 L 2.208 15.755 L 2 14.776 L 2.653 13.826 L 4.947 13.826" transform="matrix(1 0 0 1 0 0)" fill="#EBEBEB" stroke="none" />
  <path d="M 3.679 9.395 L 3.045 12.826 L 5.994 12.826 L 6.587 9.395 L 3.679 9.395" transform="matrix(1 0 0 1 0 0)" fill="#EBEBEB" stroke="none" />
  <path d="M 6.35 6.465 L 5.905 8.394 L 3.573 8.394 L 3.365 7.415 L 4.018 6.465 L 6.35 6.465" transform="matrix(1 0 0 1 0 0)" fill="#EBEBEB" stroke="none" />
</svg>
