<?xml version="1.0" encoding="UTF-8"?>
<!-- Reconstructed from Amplitude.Graphics.Svg.SvgAsset and recolored from static UIMapper.Color metadata for EWShop; not original source SVG. Live UI state/material colors are not included. -->
<svg xmlns="http://www.w3.org/2000/svg" width="25" height="25" viewBox="0 0 25 25">
  <path d="M 21.918 4.4 L 21.632 4.611 L 11.654 4.611 L 15.03 2.831 L 20.32 2.831 C 20.898 3.305 21.433 3.831 21.918 4.4 M 0.103 14.771 L 8.798 14.771 L 6.387 16.552 L 0.568 16.552 C 0.371 15.976 0.215 15.381 0.103 14.771 M 1.28 18.221 L 5.46 18.221 L 3.049 20.001 L 2.397 20.001 C 1.977 19.442 1.603 18.847 1.28 18.221 M 10.761 24.894 C 10.701 24.649 10.64 24.409 10.58 24.176 C 10.429 23.582 10.289 23.033 10.197 22.567 L 9.174 23.718 L 7.58 23.467 L 5.316 21.622 L 4.645 18.98 L 6.155 20.447 L 6.174 20.46 L 8 21.622 L 10.594 17.64 L 11.888 16.886 L 11.888 16.015 L 10.901 16.066 L 10.125 14.766 L 9.951 13.719 L 9.951 11.55 L 11.191 10.843 L 12.637 10.843 C 12.819 11.013 12.996 11.188 13.167 11.368 L 13.499 12.96 L 13.057 14.524 L 13.236 16.13 L 13.454 16.008 L 16.607 19.675 C 16.607 21.527 16.607 22.984 16.077 24.45 C 14.913 24.807 13.678 25 12.397 25 C 11.843 25 11.297 24.964 10.761 24.894 M 20.734 21.814 C 20.6 20.659 20.286 19.423 20.01 18.339 L 20.01 18.339 C 19.858 17.745 19.719 17.195 19.627 16.73 L 18.603 17.881 L 17.01 17.63 L 14.745 15.784 L 14.074 13.142 L 15.584 14.61 L 15.604 14.623 L 17.429 15.784 L 20.024 11.802 L 21.318 11.049 L 21.318 10.178 L 20.33 10.228 L 19.554 8.928 L 19.381 7.882 L 19.381 5.713 L 20.621 5.006 L 22.066 5.006 C 22.248 5.175 22.425 5.351 22.596 5.531 L 22.929 7.123 L 22.487 8.686 L 22.665 10.293 L 22.884 10.17 L 24.897 12.513 C 24.894 16.208 23.286 19.528 20.734 21.814 M 12.174 5.944 L 17.949 5.944 L 17.949 7.725 L 8.798 7.725 L 12.174 5.944 M 16.773 9.059 L 7.76 9.059 L 4.384 10.839 L 11.988 10.044 L 15.567 10.187 L 16.773 9.059 M 4.31 11.915 L 9.079 11.915 L 9.079 13.557 L 0.935 13.695 L 4.31 11.915" transform="matrix(1 0 0 1 0 0)" fill="#EBEBEB" stroke="none" />
</svg>
