<?xml version="1.0" encoding="UTF-8"?>
<!-- Reconstructed from Amplitude.Graphics.Svg.SvgAsset and recolored from static UIMapper.Color metadata for EWShop; not original source SVG. Live UI state/material colors are not included. -->
<svg xmlns="http://www.w3.org/2000/svg" width="25" height="25" viewBox="0 0 25 25">
  <path d="M 15.292 24.471 C 14.456 24.647 13.589 24.74 12.7 24.74 C 11.857 24.74 11.034 24.657 10.238 24.498 L 10.759 19.801 L 6.32 18.12 L 6.968 17.143 L 5.7 16.618 L 5.7 19.12 L 4.95 17.62 L 4.2 18.62 L 4.2 15.997 L 3 15.5 L 4.267 13.164 C 4.862 13.441 5.652 13.695 6.7 13.88 C 7.602 14.035 8.19 14.263 8.568 14.473 L 13.308 6.89 C 12.961 6.632 12.296 6.24 11.45 6.24 C 10.05 6.24 9.103 5.786 8.511 5.341 L 9.38 3.74 L 23.049 7.578 L 23.45 6.74 L 9.45 3 L 8.201 5.081 C 8.061 4.95 7.952 4.829 7.872 4.731 L 9.45 2 L 23.049 5.227 C 23.777 6.299 24.343 7.491 24.711 8.767 L 17.2 22.24 L 14.625 21.265 L 15.292 24.471 M 13.576 7.105 C 13.646 7.056 14.311 6.638 16.32 7.11 C 17.681 7.425 19.419 8.339 19.669 8.474 L 14.506 17.187 C 13.72 16.728 11.697 15.546 11.2 15.25 C 10.58 14.88 9.2 15 9.2 15 C 8.745 14.135 12.98 8.158 13.576 7.105 M 14.664 17.999 L 19.865 9.186 L 20.07 9.49 L 15.2 18.74 L 14.664 17.999 M 9.69 16.99 C 9.07 15.37 8.07 16.37 8.07 16.37 L 8.06 16.37 L 4.56 14.99 L 7.94 15.99 C 9.56 15.12 9.94 16.62 9.94 16.62 L 12.94 18.37 L 9.69 16.99" transform="matrix(1 0 0 1 0 0)" fill="#EBEBEB" stroke="none" />
</svg>
