<?xml version="1.0" encoding="UTF-8"?>
<!-- Reconstructed from Amplitude.Graphics.Svg.SvgAsset and recolored from static UIMapper.Color metadata for EWShop; not original source SVG. Live UI state/material colors are not included. -->
<svg xmlns="http://www.w3.org/2000/svg" width="25" height="25" viewBox="0 0 25 25">
  <path d="M 23.104 19.219 C 20.884 22.695 16.992 25 12.562 25 C 7.344 25 2.872 21.803 1 17.26 L 23.104 19.219" transform="matrix(1 0 0 1 0 0)" fill="#EBEBEB" stroke="none" />
  <path d="M 23.961 17.635 L 17.363 17.051 C 17.362 17.034 17.362 17.017 17.362 17 C 17.362 15.505 17.44 14.281 17.521 13.025 C 17.568 12.292 17.615 11.549 17.649 10.735 C 18.382 10.661 19.413 10.612 20.579 10.612 C 21.748 10.612 22.799 10.655 23.55 10.723 C 23.836 10.749 24.068 10.778 24.243 10.807 L 24.243 12.5 C 23.257 12.398 20.706 12.251 19.362 12.5 L 19.362 15.5 C 19.908 15.456 23.26 15.639 24.243 15.762 L 24.243 16.96 C 24.155 17.188 24.062 17.414 23.961 17.635" transform="matrix(1 0 0 1 0 0)" fill="#EBEBEB" stroke="none" />
  <path d="M 8.626 6.773 C 9.532 6.691 10.727 6.64 12.045 6.64 C 13.457 6.64 14.744 6.691 15.687 6.777 C 15.937 6.799 16.168 6.825 16.375 6.853 L 16.375 5.651 C 16.375 5.291 14.63 5 12.477 5 C 10.323 5 8.635 5.332 8.635 5.691 C 8.635 6.066 8.632 6.426 8.626 6.773" transform="matrix(1 0 0 1 0 0)" fill="#EBEBEB" stroke="none" />
  <path d="M 8.485 10.09 C 10.227 10.229 13.147 10.33 14.136 10 L 14.136 14 C 12.801 14.267 9.709 14.106 8.273 14.032 L 8.269 14.032 L 8.267 14.091 C 8.252 14.583 8.244 15.095 8.244 15.636 C 8.244 15.908 8.265 16.15 8.309 16.364 L 16.101 17.054 C 16.295 16.713 16.375 16.254 16.375 15.636 L 16.375 8.317 C 16.169 8.283 15.895 8.249 15.557 8.218 C 14.669 8.138 13.428 8.087 12.045 8.087 C 10.668 8.087 9.449 8.145 8.583 8.232 C 8.556 8.882 8.522 9.494 8.485 10.09" transform="matrix(1 0 0 1 0 0)" fill="#EBEBEB" stroke="none" />
  <path d="M 20.579 9.387 C 19.463 9.387 18.452 9.431 17.685 9.501 C 17.69 9.207 17.693 8.902 17.693 8.585 C 17.693 8.281 19.121 8 20.943 8 C 22.766 8 24.243 8.247 24.243 8.551 L 24.243 9.568 C 24.067 9.544 23.872 9.523 23.66 9.503 C 22.862 9.431 21.773 9.387 20.579 9.387" transform="matrix(1 0 0 1 0 0)" fill="#EBEBEB" stroke="none" />
  <path d="M 4.279 13.388 C 3.163 13.388 2.152 13.431 1.385 13.501 C 1.39 13.207 1.393 12.902 1.393 12.585 C 1.393 12.281 2.821 12 4.644 12 C 6.466 12 7.36 12.182 7.36 12.486 L 7.36 13.503 C 6.562 13.431 5.473 13.388 4.279 13.388" transform="matrix(1 0 0 1 0 0)" fill="#EBEBEB" stroke="none" />
  <path d="M 7.419 14.735 L 7.419 16.259 L 1.299 15.743 C 1.318 15.416 1.335 15.082 1.349 14.735 C 2.082 14.661 3.113 14.612 4.279 14.612 C 5.25 14.612 5.635 14.65 6.167 14.701 L 6.169 14.701 C 6.277 14.712 6.392 14.723 6.519 14.735 C 6.686 14.75 6.771 14.747 6.927 14.742 C 7.038 14.739 7.184 14.735 7.419 14.735" transform="matrix(1 0 0 1 0 0)" fill="#EBEBEB" stroke="none" />
</svg>
