<?xml version="1.0" encoding="UTF-8"?>
<!-- Reconstructed from Amplitude.Graphics.Svg.SvgAsset and recolored from static UIMapper.Color metadata for EWShop; not original source SVG. Live UI state/material colors are not included. -->
<svg xmlns="http://www.w3.org/2000/svg" width="25" height="25" viewBox="0 0 25 25">
  <path d="M 24.964 13.462 C 24.988 13.144 25 12.824 25 12.5 C 25 5.596 19.404 0 12.5 0 C 5.596 0 0 5.596 0 12.5 C 0 12.837 0.013 13.17 0.039 13.5 C 0.549 7.064 5.933 2 12.5 2 C 19.067 2 24.451 7.064 24.961 13.5 C 24.962 13.487 24.963 13.475 24.964 13.462" transform="matrix(1 0 0 1 0 0)" fill="#EBEBEB" stroke="none" />
  <path d="M 20.624 22 L 17.82 22.5 L 15.016 23 L 15.016 20 L 14.985 20 L 13.501 18.774 L 13.501 17.382 C 14.397 16.956 15.016 16.043 15.016 14.985 C 15.016 13.521 13.829 12.334 12.364 12.334 C 10.9 12.334 9.713 13.521 9.713 14.985 C 9.713 16.043 10.332 16.956 11.228 17.382 L 11.228 18.804 L 9.744 20 L 9.713 20 L 9.713 23 L 4.376 22 C 6.561 23.87 9.398 25 12.5 25 C 15.602 25 18.439 23.87 20.624 22" transform="matrix(1 0 0 1 0 0)" fill="#EBEBEB" stroke="none" />
  <path d="M 14 11.506 L 14 11.504 L 13.99 11.5 C 14.011 10.717 14.141 9.07 15.029 7.726 C 15.035 7.717 15.041 7.708 15.047 7.698 C 16.348 5.742 16.477 5.101 16.283 4.328 C 16.226 4.096 15.991 3.955 15.759 4.013 C 15.528 4.071 15.386 4.306 15.445 4.537 C 15.529 4.875 15.603 5.174 14.785 6.507 L 14.102 4.644 C 14.02 4.419 13.772 4.304 13.547 4.386 C 13.324 4.468 13.209 4.717 13.291 4.941 L 14.198 7.421 C 13.364 8.779 13.15 10.315 13.105 11.26 C 13.426 11.307 13.719 11.388 13.99 11.5 C 13.99 11.5 13.992 11.501 14 11.506" transform="matrix(1 0 0 1 0 0)" fill="#EBEBEB" stroke="none" />
  <path d="M 15.333 12.44 C 16.259 11.714 17.304 10.701 17.769 9.553 C 18.481 7.798 19.829 6.95 20.371 6.815 C 20.603 6.758 20.744 6.523 20.686 6.291 C 20.627 6.06 20.393 5.919 20.162 5.977 C 19.581 6.122 17.876 6.988 16.968 9.228 C 16.532 10.303 15.435 11.286 14.667 11.872 L 14.644 11.856 L 14.642 11.858 L 14.667 11.872 C 14.901 12.034 15.12 12.225 15.333 12.44" transform="matrix(1 0 0 1 0 0)" fill="#EBEBEB" stroke="none" />
  <path d="M 23.778 11.956 C 23.66 11.891 20.872 10.373 19.056 11.543 C 18.105 12.156 16.445 12.403 15.392 12.502 C 15.622 12.745 15.823 13.015 15.989 13.308 C 17.058 13.179 18.268 12.934 19.172 12.472 L 21.099 15.047 C 21.184 15.161 21.314 15.221 21.445 15.221 C 21.536 15.221 21.626 15.192 21.705 15.135 C 21.896 14.992 21.934 14.72 21.791 14.53 L 19.951 12.071 C 21.352 11.624 23.337 12.701 23.358 12.714 C 23.567 12.83 23.83 12.753 23.946 12.544 C 24.062 12.336 23.986 12.073 23.777 11.957 L 23.778 11.956" transform="matrix(1 0 0 1 0 0)" fill="#EBEBEB" stroke="none" />
  <path d="M 11.894 11.224 C 11.845 10.276 11.625 8.762 10.803 7.421 L 11.711 4.941 C 11.793 4.717 11.677 4.468 11.453 4.386 C 11.229 4.304 10.98 4.419 10.898 4.644 L 10.217 6.508 C 9.397 5.173 9.472 4.875 9.556 4.537 C 9.614 4.306 9.473 4.071 9.241 4.013 C 9.01 3.956 8.775 4.096 8.717 4.328 C 8.523 5.104 8.654 5.745 9.963 7.713 C 10.827 9.009 11.006 10.598 11.036 11.414 C 11.31 11.321 11.597 11.257 11.894 11.224" transform="matrix(1 0 0 1 0 0)" fill="#EBEBEB" stroke="none" />
  <path d="M 8.033 9.228 C 8.447 10.248 9.473 11.189 10.233 11.783 C 9.975 11.937 9.736 12.117 9.518 12.321 C 8.631 11.605 7.672 10.639 7.232 9.553 C 6.52 7.798 5.171 6.95 4.63 6.815 C 4.398 6.758 4.257 6.523 4.315 6.291 C 4.373 6.06 4.607 5.918 4.839 5.977 C 5.42 6.122 7.124 6.988 8.033 9.228" transform="matrix(1 0 0 1 0 0)" fill="#EBEBEB" stroke="none" />
  <path d="M 9.36 12.477 C 8.308 12.363 6.824 12.109 5.946 11.543 C 4.129 10.373 1.34 11.891 1.222 11.956 C 1.014 12.072 0.939 12.336 1.054 12.544 C 1.169 12.753 1.432 12.828 1.641 12.713 C 2.24 12.381 3.88 11.71 5.047 12.072 L 3.208 14.529 C 3.065 14.72 3.104 14.991 3.296 15.134 C 3.373 15.192 3.464 15.22 3.554 15.22 C 3.686 15.22 3.815 15.16 3.9 15.047 L 5.828 12.472 C 6.662 12.898 7.755 13.139 8.758 13.276 C 8.926 12.985 9.129 12.717 9.36 12.477" transform="matrix(1 0 0 1 0 0)" fill="#EBEBEB" stroke="none" />
  <path d="M 6.079 16.833 C 6.485 15.602 7.439 14.952 8.265 14.611 C 8.221 14.856 8.197 15.107 8.197 15.364 C 8.197 15.441 8.199 15.518 8.204 15.594 C 7.604 15.922 7.06 16.449 6.846 17.291 C 6.853 17.26 6.859 17.228 6.859 17.196 C 6.858 17.227 6.853 17.259 6.846 17.291 C 6.253 19.624 4.573 20.368 4.022 20.612 L 3.999 20.622 C 3.963 20.638 3.932 20.652 3.908 20.664 C 3.847 20.694 3.781 20.708 3.717 20.708 C 3.558 20.708 3.405 20.62 3.329 20.467 C 3.224 20.252 3.312 19.994 3.526 19.888 C 3.556 19.873 3.593 19.857 3.637 19.837 L 3.675 19.82 C 4.109 19.627 5.152 19.162 5.749 17.826 L 2.804 18.667 C 2.764 18.679 2.724 18.684 2.685 18.684 C 2.61 18.684 2.536 18.665 2.473 18.629 C 2.377 18.574 2.301 18.484 2.269 18.37 C 2.204 18.14 2.337 17.902 2.566 17.836 L 6.079 16.833" transform="matrix(1 0 0 1 0 0)" fill="#EBEBEB" stroke="none" />
  <path d="M 16.53 15.462 C 17.227 15.773 17.901 16.319 18.151 17.276 L 18.159 17.307 C 18.756 19.628 20.428 20.37 20.979 20.613 L 21.023 20.633 C 21.05 20.645 21.073 20.656 21.092 20.665 C 21.153 20.695 21.218 20.709 21.282 20.709 C 21.442 20.709 21.596 20.621 21.67 20.468 C 21.776 20.253 21.688 19.995 21.474 19.889 C 21.439 19.872 21.394 19.852 21.341 19.828 L 21.329 19.823 C 20.896 19.631 19.849 19.167 19.25 17.827 L 22.196 18.668 C 22.236 18.68 22.276 18.685 22.315 18.685 C 22.503 18.685 22.676 18.561 22.731 18.371 C 22.796 18.141 22.663 17.903 22.433 17.837 L 18.921 16.833 C 18.466 15.452 17.322 14.803 16.441 14.501 C 16.5 14.779 16.531 15.068 16.531 15.364 C 16.531 15.397 16.531 15.43 16.53 15.462" transform="matrix(1 0 0 1 0 0)" fill="#EBEBEB" stroke="none" />
</svg>
