<?xml version="1.0" encoding="UTF-8"?>
<!-- Reconstructed from Amplitude.Graphics.Svg.SvgAsset and recolored from static UIMapper.Color metadata for EWShop; not original source SVG. Live UI state/material colors are not included. -->
<svg xmlns="http://www.w3.org/2000/svg" width="25" height="25" viewBox="0 0 25 25">
  <path d="M 0.971 17.339 C 2.863 21.84 7.312 25 12.5 25 C 18.183 25 22.981 21.207 24.499 16.014 L 16.183 23.368 L 0.971 17.339" transform="matrix(1 0 0 1 0 0)" fill="#EBEBEB" stroke="none" />
  <path d="M 0.666 16.537 C 0.719 16.692 0.775 16.845 0.833 16.996 L 3.003 15.343 L 0.569 14.29 L 14.94 4.008 C 14.568 3.504 12.613 2.054 10.005 0.249 C 4.429 1.379 0.2 6.219 0.007 12.081 C 0.055 12.314 0.081 12.536 0.081 12.746 C 0.081 14.068 0.286 15.341 0.666 16.537" transform="matrix(1 0 0 1 0 0)" fill="#EBEBEB" stroke="none" />
  <path d="M 17.11 21.213 L 15.98 22.212 L 2.598 16.909 L 4.055 15.798 L 12.311 19.37 C 13.087 21.051 15.5 21.386 17.11 21.213" transform="matrix(1 0 0 1 0 0)" fill="#EBEBEB" stroke="none" />
  <path d="M 22.334 7.635 C 22.436 7.503 22.492 7.361 22.492 7.213 C 22.492 6.521 21.273 5.961 19.769 5.961 C 18.266 5.961 17.047 6.521 17.047 7.213 C 17.047 7.361 17.103 7.503 17.205 7.635 C 17.103 7.766 17.047 7.908 17.047 8.056 C 17.047 8.205 17.103 8.347 17.205 8.478 C 17.103 8.61 17.047 8.752 17.047 8.9 C 17.047 9.048 17.103 9.19 17.205 9.322 C 17.103 9.454 17.047 9.596 17.047 9.744 C 17.047 9.892 17.103 10.034 17.205 10.166 C 17.103 10.298 17.047 10.44 17.047 10.588 C 17.047 10.736 17.103 10.878 17.205 11.01 C 17.103 11.141 17.047 11.283 17.047 11.432 C 17.047 11.58 17.103 11.722 17.205 11.853 C 17.103 11.985 17.047 12.127 17.047 12.275 C 17.047 12.423 17.103 12.565 17.205 12.697 C 17.103 12.829 17.047 12.971 17.047 13.119 C 17.047 13.81 18.266 14.371 19.769 14.371 C 21.273 14.371 22.492 13.81 22.492 13.119 C 22.492 12.971 22.436 12.829 22.334 12.697 C 22.436 12.565 22.492 12.423 22.492 12.275 C 22.492 12.127 22.436 11.985 22.334 11.853 C 22.436 11.722 22.492 11.58 22.492 11.432 C 22.492 11.283 22.436 11.141 22.334 11.01 C 22.436 10.878 22.492 10.736 22.492 10.588 C 22.492 10.44 22.436 10.298 22.334 10.166 C 22.436 10.034 22.492 9.892 22.492 9.744 C 22.492 9.596 22.436 9.454 22.334 9.322 C 22.436 9.19 22.492 9.048 22.492 8.9 C 22.492 8.752 22.436 8.61 22.334 8.478 C 22.436 8.347 22.492 8.205 22.492 8.056 C 22.492 7.908 22.436 7.766 22.334 7.635" transform="matrix(1 0 0 1 0 0)" fill="#EBEBEB" stroke="none" />
  <path d="M 13.213 11.853 C 13.315 11.722 13.371 11.58 13.371 11.432 C 13.371 10.74 12.152 10.18 10.648 10.18 C 9.145 10.18 7.926 10.74 7.926 11.432 C 7.926 11.58 7.982 11.722 8.084 11.853 C 7.982 11.985 7.926 12.127 7.926 12.275 C 7.926 12.423 7.982 12.565 8.084 12.697 C 7.982 12.829 7.926 12.971 7.926 13.119 C 7.926 13.81 9.145 14.371 10.648 14.371 C 12.152 14.371 13.371 13.81 13.371 13.119 C 13.371 12.971 13.315 12.829 13.213 12.697 C 13.315 12.565 13.371 12.423 13.371 12.275 C 13.371 12.127 13.315 11.985 13.213 11.853" transform="matrix(1 0 0 1 0 0)" fill="#EBEBEB" stroke="none" />
  <path d="M 16.333 19.817 C 17.837 19.817 19.056 19.256 19.056 18.565 C 19.056 18.431 19.01 18.302 18.926 18.182 C 19.01 18.061 19.056 17.932 19.056 17.799 C 19.056 17.108 17.837 16.547 16.333 16.547 C 14.829 16.547 13.611 17.108 13.611 17.799 C 13.611 17.932 13.656 18.061 13.74 18.182 C 13.656 18.302 13.611 18.431 13.611 18.565 C 13.611 19.256 14.829 19.817 16.333 19.817" transform="matrix(1 0 0 1 0 0)" fill="#EBEBEB" stroke="none" />
</svg>
