<?xml version="1.0" encoding="UTF-8"?>
<!-- Reconstructed from Amplitude.Graphics.Svg.SvgAsset and recolored from static UIMapper.Color metadata for EWShop; not original source SVG. Live UI state/material colors are not included. -->
<svg xmlns="http://www.w3.org/2000/svg" width="25" height="25" viewBox="0 0 25 25">
  <path d="M 24 16.802 C 23.544 16.967 23.11 17.208 22.716 17.522 L 22.531 17.669 C 20.591 19.214 17.884 19.232 15.907 17.755 C 14.443 16.661 12.449 16.649 10.991 17.737 C 8.986 19.235 6.26 19.141 4.353 17.513 C 3.16 16.495 1.523 16.239 0.094 16.848 L 0 16.889 C 0.412 17.859 0.93 18.769 1.539 19.605 C 2.636 19.354 3.686 19.364 4.129 20.055 C 4.967 21.359 8.317 20.18 9.364 19.455 C 8.608 21.025 6.926 21.812 5.252 22.063 C 5.125 22.082 5 22.099 4.881 22.114 C 4.434 22.17 4.031 21.849 3.673 21.564 L 3.672 21.564 C 3.438 21.377 3.135 21.219 2.791 21.086 C 5.154 23.506 8.4 25 11.982 25 C 15.202 25 18.151 23.793 20.431 21.79 C 19.246 21.518 17.656 21.574 16.694 21.685 C 17.906 21.056 20.328 20.126 21.494 20.746 C 22.536 19.602 23.389 18.269 24 16.802 M 9.364 21.739 C 10.097 22.319 12.443 23.263 13.029 22.219 C 13.615 21.176 15.716 22.074 16.694 22.654 C 15.771 22.532 14.024 22.766 13.312 23.461 C 13.085 23.682 12.814 23.911 12.506 23.867 C 12.47 23.862 12.434 23.856 12.397 23.851 C 11.122 23.652 9.881 22.965 9.364 21.739 M 11.458 20.542 C 11.772 20.252 12.778 19.78 13.029 20.302 C 13.28 20.824 14.181 20.374 14.599 20.085 C 14.195 20.147 13.422 20.023 13.13 19.658 C 13.047 19.553 12.926 19.457 12.798 19.479 C 12.217 19.577 11.691 19.935 11.473 20.502 L 11.466 20.521 L 11.458 20.542" transform="matrix(1 0 0 1 0 0)" fill="#EBEBEB" stroke="none" />
  <path d="M 12.451 5.534 L 6.297 7.237 L 9.931 0 L 10.436 0.077 L 11.982 4.891 L 13.029 5.435 L 10.449 0.079 L 15.63 0.868 L 18.625 7.237 L 12.451 5.534 M 10.999 4.378 C 10.902 5.081 10.275 5.242 9.744 5.163 C 9.214 5.084 8.862 4.45 8.959 3.747 C 9.056 3.043 9.564 2.537 10.095 2.616 C 10.625 2.694 11.096 3.674 10.999 4.378" transform="matrix(1 0 0 1 0 0)" fill="#EBEBEB" stroke="none" />
  <path d="M 7.319 17.466 C 7.768 17.521 8.223 17.501 8.668 17.405 L 8.317 14.13 L 12.514 13.044 L 12.248 15.756 C 12.768 15.637 13.301 15.598 13.83 15.639 L 13.552 13.044 L 16.803 14.13 L 16.485 16.585 C 16.538 16.621 16.59 16.658 16.641 16.697 C 16.908 16.896 17.192 17.06 17.487 17.189 L 17.487 8.747 L 12.505 7.065 L 7.523 8.747 L 7.319 17.466 M 11.982 8.152 L 11.99 11.943 L 8.317 13.044 L 8.317 9.239 L 11.982 8.152" transform="matrix(1 0 0 1 0 0)" fill="#EBEBEB" stroke="none" />
</svg>
