<?xml version="1.0" encoding="UTF-8"?>
<!-- Reconstructed from Amplitude.Graphics.Svg.SvgAsset and recolored from static UIMapper.Color metadata for EWShop; not original source SVG. Live UI state/material colors are not included. -->
<svg xmlns="http://www.w3.org/2000/svg" width="25" height="25" viewBox="0 0 25 25">
  <path d="M 24.95 13.622 C 24.983 13.253 25 12.878 25 12.5 C 25 12.186 24.988 11.875 24.966 11.568 L 24.947 11.553 C 24.279 11.033 23.496 10.708 22.676 10.61 C 22.114 10.544 21.546 10.585 20.998 10.731 L 20.231 10.936 C 19.551 11.118 18.91 11.439 18.343 11.881 L 17.405 12.611 C 17.143 12.815 16.859 12.983 16.559 13.111 L 15.987 13.356 C 15.526 13.553 15.034 13.655 14.538 13.655 L 14.231 13.655 C 13.406 13.655 12.602 13.375 11.935 12.856 L 11.02 12.143 L 10.102 13.495 L 11.017 14.207 C 11.951 14.935 13.076 15.326 14.231 15.326 L 14.538 15.326 C 15.233 15.326 15.922 15.184 16.567 14.908 L 17.139 14.663 C 17.559 14.483 17.957 14.248 18.323 13.963 L 19.261 13.232 C 19.666 12.917 20.124 12.688 20.61 12.558 L 21.376 12.353 C 21.744 12.254 22.126 12.227 22.503 12.272 C 23.054 12.337 23.58 12.555 24.028 12.904 L 24.95 13.622 M 24.33 16.548 C 24.519 15.995 24.671 15.424 24.782 14.839 C 24.151 14.39 23.429 14.109 22.676 14.019 C 22.114 13.953 21.546 13.993 20.998 14.14 L 20.231 14.345 C 19.551 14.527 18.91 14.848 18.343 15.289 L 17.405 16.02 C 17.143 16.223 16.859 16.392 16.559 16.52 L 15.987 16.765 C 15.526 16.962 15.034 17.064 14.538 17.064 L 14.231 17.064 C 13.406 17.064 12.602 16.784 11.935 16.265 L 11.02 15.552 L 10.102 16.904 L 11.017 17.616 C 11.951 18.343 13.076 18.735 14.231 18.735 L 14.538 18.735 C 15.233 18.735 15.922 18.593 16.567 18.317 L 17.139 18.072 C 17.559 17.892 17.957 17.657 18.323 17.372 L 19.261 16.641 C 19.666 16.326 20.124 16.097 20.61 15.967 L 21.376 15.762 C 21.744 15.663 22.126 15.636 22.503 15.681 C 23.054 15.746 23.58 15.964 24.028 16.313 L 24.33 16.548 M 6.793 23.624 C 6.913 23.686 7.034 23.745 7.156 23.803 C 9.639 23.279 11.829 21.956 13.443 20.117 C 10.994 19.338 8.768 18.062 7.29 16.056 L 7.279 16.063 L 6.867 15.412 C 6.274 15.842 5.545 16.096 4.757 16.096 L 4.74 16.096 L 4.843 16.867 L 4.83 16.867 C 5.229 19.214 6.022 21.8 6.777 23.587 C 6.782 23.6 6.788 23.612 6.793 23.624 M 0.323 15.338 C 0.679 16.869 1.316 18.293 2.177 19.551 C 2.267 18.539 2.492 17.549 2.886 16.607 L 2.894 16.61 L 3.3 15.789 C 2.593 15.475 2.006 14.94 1.627 14.272 L 1.014 14.745 L 0.983 14.771 L 0.903 14.832 L 0.905 14.835 C 0.711 14.998 0.517 15.166 0.323 15.338 M 0.22 10.152 C 0.076 10.912 0 11.697 0 12.5 C 0 12.657 0.003 12.814 0.009 12.97 C 0.076 12.96 0.143 12.95 0.21 12.941 L 0.211 12.947 L 1.18 12.877 C 1.167 12.753 1.161 12.627 1.161 12.5 C 1.161 11.834 1.341 11.211 1.657 10.676 L 0.928 10.403 C 0.696 10.317 0.46 10.233 0.22 10.152 M 3.588 3.735 C 2.505 4.836 1.624 6.137 1.006 7.578 C 1.457 7.988 1.87 8.44 2.236 8.937 L 2.643 9.59 C 3.236 9.159 3.967 8.904 4.757 8.904 L 4.793 8.904 L 4.687 8.02 L 4.664 8.022 C 4.415 6.598 4.025 5.092 3.588 3.735 M 7.156 1.197 C 7.113 1.217 7.071 1.237 7.029 1.258 C 7.555 3.718 7.556 6.227 6.595 8.469 L 6.591 8.466 L 6.208 9.209 C 6.919 9.523 7.509 10.06 7.889 10.732 L 8.541 10.225 L 8.539 10.223 C 8.748 10.048 8.958 9.868 9.167 9.683 L 9.275 9.524 L 10.193 8.172 L 10.793 7.29 L 11.258 7.652 C 12.06 6.803 12.783 5.955 13.348 5.207 C 13.411 5.124 13.463 5.04 13.506 4.956 C 11.886 3.078 9.672 1.728 7.156 1.197 M 24.764 10.068 C 24.592 9.198 24.33 8.361 23.989 7.566 C 23.571 7.379 23.129 7.255 22.676 7.201 C 22.114 7.135 21.546 7.175 20.998 7.322 L 20.231 7.527 C 19.551 7.709 18.91 8.03 18.343 8.471 L 17.405 9.202 C 17.143 9.406 16.859 9.574 16.559 9.702 L 15.987 9.947 C 15.526 10.144 15.034 10.246 14.538 10.246 L 14.231 10.246 C 13.406 10.246 12.602 9.966 11.935 9.447 L 11.02 8.734 L 10.102 10.086 L 11.017 10.798 C 11.951 11.526 13.076 11.917 14.231 11.917 L 14.538 11.917 C 15.233 11.917 15.922 11.775 16.567 11.499 L 17.139 11.254 C 17.559 11.074 17.957 10.839 18.323 10.554 L 19.261 9.823 C 19.666 9.508 20.124 9.279 20.61 9.149 L 21.376 8.944 C 21.744 8.845 22.126 8.818 22.503 8.863 C 23.054 8.928 23.58 9.146 24.028 9.495 L 24.764 10.068 M 10.096 15.133 C 9.578 14.974 9.067 14.802 8.576 14.62 L 8.578 14.616 L 7.856 14.325 C 8.172 13.79 8.353 13.166 8.353 12.5 C 8.353 12.37 8.346 12.241 8.332 12.115 L 9.142 12.078 L 9.142 12.079 C 9.412 12.048 9.679 12.005 9.943 11.95 L 9.275 12.933 L 8.748 13.708 L 9.488 14.284 L 10.263 14.888 L 10.193 14.99 L 10.096 15.133 M 7.417 12.5 C 7.417 13.969 6.226 15.16 4.757 15.16 C 3.288 15.16 2.097 13.969 2.097 12.5 C 2.097 11.031 3.288 9.84 4.757 9.84 C 6.226 9.84 7.417 11.031 7.417 12.5" transform="matrix(1 0 0 1 0 0)" fill="#EBEBEB" stroke="none" />
</svg>
