<?xml version="1.0" encoding="UTF-8"?>
<!-- Reconstructed from Amplitude.Graphics.Svg.SvgAsset and recolored from static UIMapper.Color metadata for EWShop; not original source SVG. Live UI state/material colors are not included. -->
<svg xmlns="http://www.w3.org/2000/svg" width="25" height="25" viewBox="0 0 25 25">
  <path d="M 16.88 11.673 C 16.88 11.673 24.75 9.323 21.01 3.543 C 19.647 1.439 16.389 0.38 14.029 0.092 C 14.413 1.527 15.315 2.936 17.01 4.173 C 22.08 7.873 16.88 10.293 16.88 10.293 L 16.88 11.673" transform="matrix(1 0 0 1 0 0)" fill="#EBEBEB" stroke="none" />
  <path d="M 4.54 2.862 C 4.694 2.734 4.852 2.61 5.012 2.49 L 16.54 7.053 L 16.54 8.173 L 16.17 8.303 L 16.16 8.299 L 16.16 17.164 L 4.54 20.22 L 4.54 4.231 L 7.04 4.803 L 4.54 3.384 L 4.54 2.862 M 6.771 7.357 L 7.344 6.888 L 7.344 16.21 C 7.344 16.886 7.763 16.929 8.341 17.218 L 7.63 17.505 C 7.63 17.505 7.628 17.503 7.623 17.501 C 7.62 17.499 7.615 17.496 7.609 17.493 C 6.635 17.481 6.771 16.634 6.771 16.634 L 6.771 7.357 M 10.346 8.653 L 10.346 15.5 C 10.346 15.5 10.208 16.359 11.205 16.359 C 11.205 16.359 11.201 16.355 11.195 16.347 L 11.207 16.354 L 11.217 16.359 L 11.927 16.072 C 11.359 15.788 10.919 15.743 10.919 15.076 L 10.919 8.39 L 10.346 8.653 M 13.21 14.342 L 13.21 9.918 L 13.783 9.696 L 13.783 13.918 C 13.783 14.592 14.241 14.64 14.814 14.927 L 14.104 15.213 C 14.104 15.213 14.085 15.204 14.055 15.185 C 14.064 15.196 14.07 15.202 14.07 15.202 C 13.073 15.202 13.21 14.342 13.21 14.342" transform="matrix(1 0 0 1 0 0)" fill="#EBEBEB" stroke="none" />
  <path d="M 0.01 11.996 C 0.126 9.085 1.237 6.43 3.012 4.362 L 4.04 4.211 L 4.04 20.278 L 2.579 20.107 C 1.057 18.124 0.116 15.672 0.01 13.005 L 0.01 11.996" transform="matrix(1 0 0 1 0 0)" fill="#EBEBEB" stroke="none" />
  <path d="M 4.391 22.013 C 4.053 21.724 3.731 21.418 3.425 21.096 L 4.42 21.303 L 4.391 22.013" transform="matrix(1 0 0 1 0 0)" fill="#EBEBEB" stroke="none" />
  <path d="M 4.414 22.033 L 4.42 21.304 L 16.42 17.674 L 16.67 17.924 L 16.67 24.288 C 15.366 24.749 13.962 25 12.5 25 C 9.416 25 6.593 23.884 4.414 22.033" transform="matrix(1 0 0 1 0 0)" fill="#EBEBEB" stroke="none" />
  <path d="M 24.981 13.197 C 24.872 15.18 24.301 17.039 23.374 18.67 C 23.102 18.613 19.534 17.832 16.89 15.553 L 16.89 14.304 C 17.106 14.328 20.785 14.71 24.981 13.197" transform="matrix(1 0 0 1 0 0)" fill="#EBEBEB" stroke="none" />
  <path d="M 23.827 7.207 C 24.232 8.072 24.541 8.991 24.74 9.95 C 22.947 11.8 20.38 13.452 16.89 13.564 L 16.88 12.424 C 16.88 12.424 23.185 11.181 23.827 7.207" transform="matrix(1 0 0 1 0 0)" fill="#EBEBEB" stroke="none" />
  <path d="M 16.89 14.304 L 16.88 14.303 L 16.89 14.303 L 16.89 14.304" transform="matrix(1 0 0 1 0 0)" fill="#EBEBEB" stroke="none" />
</svg>
