<?xml version="1.0" encoding="UTF-8"?>
<!-- Reconstructed from Amplitude.Graphics.Svg.SvgAsset and recolored from static UIMapper.Color metadata for EWShop; not original source SVG. Live UI state/material colors are not included. -->
<svg xmlns="http://www.w3.org/2000/svg" width="25" height="25" viewBox="0 0 25 25">
  <path d="M 1.291 18.04 L 3.62 16.82 L 3.62 5.546 L 5.43 4.911 L 8.87 6.001 L 6.75 4.408 L 10.62 3.001 L 2.905 5.074 L 3.058 4.308 C 3.177 4.172 3.298 4.039 3.422 3.908 L 15.182 0.289 C 16.283 0.53 17.329 0.915 18.3 1.424 L 20.295 2.728 C 21.95 4.05 23.261 5.783 24.075 7.772 L 23.25 7.897 L 23.25 15.493 L 24.68 15.322 C 23.401 20.867 18.433 25.001 12.5 25.001 C 9.604 25.001 6.938 24.016 4.819 22.363 L 6.777 21.219 L 8.27 19.389 L 9.484 17.254 L 9.12 14.631 L 7.75 13.501 L 6.25 12.501 L 6.62 11.371 L 7.62 10.751 L 9 11.131 L 10.103 10.871 L 10.75 9.791 L 11.25 10.791 L 10.99 11.845 L 11 11.871 L 11.25 13.251 L 12.68 13.507 L 12.855 9.121 L 4.87 6.026 L 4.87 15.694 L 8.34 16.131 L 8.54 17.521 L 6.019 20.071 L 3.006 20.631 C 2.332 19.846 1.755 18.976 1.291 18.04 M 15.6 2.131 L 15.543 9.062 L 13.872 9.314 L 13.886 13.502 L 15.51 13.096 L 15.5 14.371 L 16.37 16.751 L 16.1 1.371 L 12.98 2.251 L 15.6 2.131 M 21.62 13.131 L 21.183 13.131 L 22.25 15.351 L 22.25 5.501 L 19.25 3.631 L 21.75 5.751 L 21.75 8.123 L 17.98 8.693 L 17.98 10.66 L 21.62 11.131 L 21.62 13.131 M 18 13.871 L 21.12 14.251 L 18 14.501 L 18 13.871 M 19.37 16.201 L 18 15.751 L 18 16.501 L 19.37 16.201 M 17.87 11.871 L 21 12.251 L 17.87 12.501 L 17.87 11.871" transform="matrix(1 0 0 1 0 0)" fill="#EBEBEB" stroke="none" />
</svg>
