<?xml version="1.0" encoding="UTF-8"?>
<!-- Reconstructed from Amplitude.Graphics.Svg.SvgAsset and recolored from static UIMapper.Color metadata for EWShop; not original source SVG. Live UI state/material colors are not included. -->
<svg xmlns="http://www.w3.org/2000/svg" width="25" height="25" viewBox="0 0 25 25">
  <path d="M 22.592 19.878 C 24.106 17.81 25 15.26 25 12.501 C 25 10.612 24.581 8.822 23.832 7.217 C 23.793 7.288 23.755 7.358 23.716 7.429 C 23.521 7.786 23.327 8.143 23.14 8.504 C 22.863 9.041 22.59 9.581 22.317 10.12 C 22.124 10.5 21.932 10.88 21.738 11.259 C 21.24 12.233 20.74 13.206 20.24 14.179 L 19.832 14.975 C 19.787 15.061 19.744 15.147 19.7 15.233 C 19.575 15.479 19.45 15.725 19.316 15.965 C 18.892 16.726 18.421 17.458 17.904 18.16 C 17.88 18.193 17.85 18.223 17.816 18.258 C 17.799 18.275 17.78 18.294 17.761 18.315 L 17.762 18.322 L 17.764 18.328 C 17.766 18.341 17.769 18.358 17.774 18.374 L 17.864 18.665 C 17.928 18.868 17.991 19.072 18.053 19.275 C 18.071 19.334 18.102 19.363 18.165 19.37 C 18.296 19.384 18.426 19.4 18.556 19.416 C 18.641 19.426 18.726 19.436 18.811 19.446 C 18.964 19.464 19.117 19.481 19.27 19.499 L 19.272 19.499 C 19.456 19.52 19.639 19.541 19.822 19.562 C 20.019 19.585 20.217 19.609 20.414 19.632 C 20.611 19.656 20.808 19.679 21.006 19.702 L 21.22 19.727 C 21.547 19.766 21.873 19.804 22.2 19.838 C 22.331 19.852 22.461 19.865 22.592 19.878" transform="matrix(1 0 0 1 0 0)" fill="#EBEBEB" stroke="none" />
  <path d="M 23.491 6.539 C 23.355 6.803 23.219 7.066 23.082 7.329 C 22.691 8.078 22.298 8.826 21.905 9.575 L 21.691 9.982 C 21.364 10.605 21.036 11.228 20.709 11.851 L 18.366 16.308 C 18.156 16.708 17.945 17.108 17.733 17.508 C 17.705 17.561 17.668 17.611 17.629 17.657 L 17.599 17.691 C 17.478 17.831 17.356 17.972 17.228 18.107 C 17.163 18.175 17.146 18.238 17.174 18.328 C 17.235 18.523 17.292 18.72 17.348 18.917 C 17.366 18.981 17.384 19.045 17.403 19.109 C 17.412 19.141 17.419 19.174 17.428 19.21 C 17.432 19.228 17.436 19.246 17.441 19.266 C 17.427 19.267 17.414 19.268 17.402 19.269 C 17.378 19.27 17.357 19.272 17.337 19.269 C 17.115 19.239 16.893 19.209 16.671 19.179 L 16.669 19.178 C 16.502 19.155 16.335 19.133 16.168 19.11 C 15.945 19.08 15.721 19.05 15.498 19.02 L 15.148 18.973 L 14.691 18.912 C 14.39 18.871 14.087 18.83 13.785 18.79 C 13.61 18.767 13.435 18.744 13.259 18.72 C 13.084 18.697 12.909 18.674 12.733 18.651 C 12.538 18.624 12.343 18.598 12.148 18.572 C 11.953 18.545 11.758 18.519 11.564 18.493 C 11.363 18.466 11.163 18.439 10.962 18.412 L 10.217 18.313 C 9.986 18.282 9.755 18.251 9.524 18.221 C 9.456 18.212 9.414 18.178 9.386 18.117 C 9.303 17.936 9.219 17.757 9.135 17.577 L 9.05 17.397 L 9.021 17.333 C 8.994 17.276 8.968 17.22 8.94 17.164 C 8.922 17.13 8.927 17.104 8.952 17.077 L 8.987 17.039 C 9.019 17.005 9.052 16.97 9.085 16.937 C 9.155 16.867 9.226 16.798 9.297 16.729 C 9.447 16.582 9.597 16.436 9.743 16.285 L 10.092 15.834 L 10.572 15.122 C 10.62 15.269 10.689 15.411 10.773 15.547 C 10.875 15.711 11.013 15.842 11.187 15.932 C 11.359 16.021 11.533 16.109 11.713 16.183 C 12.057 16.326 12.415 16.415 12.784 16.477 C 13.366 16.575 13.949 16.633 14.541 16.593 C 14.978 16.564 15.41 16.501 15.833 16.388 C 16.347 16.251 16.697 15.93 16.853 15.417 C 16.922 15.188 16.94 14.956 16.918 14.718 C 16.862 14.136 16.539 13.756 16.009 13.529 C 15.904 13.484 15.797 13.487 15.69 13.509 C 15.66 13.515 15.629 13.533 15.606 13.553 C 15.466 13.672 15.387 13.825 15.363 14.006 C 15.349 14.115 15.359 14.127 15.465 14.155 C 15.468 14.155 15.47 14.156 15.473 14.157 C 15.477 14.158 15.481 14.159 15.486 14.16 L 15.508 14.165 C 15.518 14.167 15.529 14.17 15.539 14.172 C 15.687 14.208 15.793 14.295 15.856 14.432 C 16.026 14.8 15.963 15.134 15.656 15.402 C 15.334 15.682 14.956 15.838 14.521 15.842 C 14.444 15.842 14.367 15.842 14.29 15.842 L 14.174 15.842 L 14.175 15.848 L 14.068 15.848 C 13.973 15.848 13.879 15.848 13.785 15.848 L 13.78 15.848 C 13.731 15.847 13.682 15.847 13.633 15.839 C 13.458 15.81 13.283 15.78 13.108 15.751 C 12.92 15.719 12.732 15.688 12.544 15.657 C 12.478 15.646 12.42 15.623 12.364 15.588 C 12.29 15.54 12.214 15.493 12.139 15.446 C 12.053 15.392 11.966 15.338 11.88 15.283 C 11.835 15.254 11.793 15.22 11.753 15.184 C 11.476 14.927 11.356 14.601 11.349 14.234 C 11.344 13.961 11.46 13.742 11.691 13.59 C 11.772 13.538 11.86 13.493 11.95 13.459 C 12.015 13.434 12.05 13.4 12.063 13.332 C 12.073 13.28 12.087 13.228 12.101 13.177 C 12.108 13.149 12.115 13.121 12.122 13.093 C 12.152 12.972 12.144 12.965 12.025 12.999 L 11.995 13.008 L 12.384 12.432 L 12.389 12.421 L 12.397 12.406 C 12.406 12.388 12.415 12.369 12.426 12.351 L 16.182 6.248 C 16.207 6.207 16.231 6.166 16.256 6.125 C 16.311 6.03 16.367 5.935 16.433 5.847 C 16.543 5.701 16.625 5.54 16.707 5.38 L 16.709 5.377 C 16.741 5.313 16.787 5.29 16.857 5.293 C 16.951 5.299 17.046 5.303 17.14 5.307 C 17.259 5.313 17.377 5.318 17.495 5.325 C 17.694 5.338 17.893 5.351 18.092 5.365 L 18.327 5.382 C 18.39 5.386 18.454 5.391 18.517 5.395 C 18.623 5.403 18.729 5.411 18.835 5.417 C 18.914 5.422 18.994 5.426 19.073 5.429 C 19.174 5.434 19.275 5.439 19.376 5.446 C 19.609 5.462 19.841 5.48 20.074 5.498 C 20.176 5.506 20.278 5.514 20.38 5.522 C 20.413 5.524 20.445 5.527 20.478 5.529 L 20.945 5.555 C 21.323 5.575 21.701 5.596 22.078 5.619 C 22.214 5.627 22.349 5.639 22.484 5.65 C 22.597 5.659 22.71 5.669 22.823 5.676 C 22.876 5.68 22.929 5.683 22.981 5.685 C 23.162 5.963 23.332 6.247 23.491 6.539 M 15.275 12.77 C 15.317 12.667 15.365 12.566 15.5 12.515 C 15.201 12.299 14.892 12.169 14.553 12.108 C 14.474 12.094 14.394 12.083 14.314 12.072 C 14.262 12.065 14.209 12.058 14.157 12.05 C 13.921 12.013 13.683 11.993 13.445 11.999 C 13.127 12.007 12.885 12.148 12.725 12.421 C 12.711 12.445 12.697 12.471 12.691 12.499 C 12.681 12.547 12.672 12.596 12.664 12.645 C 12.653 12.705 12.642 12.765 12.629 12.824 C 12.614 12.894 12.635 12.951 12.676 13.004 C 12.736 13.079 12.812 13.134 12.9 13.168 L 12.913 13.173 C 13.016 13.213 13.121 13.253 13.228 13.274 C 13.407 13.31 13.587 13.336 13.768 13.362 L 13.848 13.374 C 14.084 13.408 14.32 13.441 14.556 13.471 C 14.784 13.499 14.96 13.407 15.083 13.222 C 15.126 13.157 15.157 13.083 15.187 13.01 L 15.203 12.972 C 15.218 12.938 15.229 12.903 15.241 12.867 C 15.251 12.834 15.262 12.802 15.275 12.77" transform="matrix(1 0 0 1 0 0)" fill="#EBEBEB" stroke="none" />
  <path d="M 21.981 4.354 C 22.18 4.585 22.371 4.824 22.553 5.07 C 22.494 5.066 22.435 5.063 22.377 5.059 C 22.19 5.048 22.004 5.037 21.817 5.026 L 21.815 5.026 C 21.599 5.013 21.382 5 21.165 4.987 C 20.889 4.97 20.612 4.953 20.336 4.936 L 19.921 4.91 C 19.76 4.9 19.599 4.89 19.437 4.88 L 18.802 4.842 C 18.469 4.821 18.134 4.801 17.801 4.781 C 17.67 4.773 17.538 4.765 17.407 4.757 C 17.254 4.748 17.1 4.739 16.947 4.73 C 16.717 4.716 16.486 4.702 16.256 4.687 C 16.072 4.676 15.887 4.664 15.703 4.653 C 15.486 4.639 15.269 4.626 15.051 4.614 L 14.516 4.582 C 14.158 4.561 13.8 4.539 13.442 4.517 C 13.411 4.515 13.38 4.51 13.349 4.505 C 13.339 4.503 13.329 4.502 13.319 4.5 L 13.304 4.498 C 13.304 4.49 13.304 4.484 13.303 4.477 C 13.303 4.466 13.302 4.457 13.304 4.448 L 13.312 4.412 C 13.336 4.299 13.361 4.185 13.387 4.072 C 13.403 4.002 13.408 3.999 13.483 4 C 13.602 4.003 13.721 4.007 13.84 4.011 C 14.302 4.031 14.764 4.05 15.226 4.07 C 15.526 4.083 15.825 4.096 16.125 4.109 C 16.424 4.122 16.724 4.135 17.023 4.147 C 17.242 4.157 17.46 4.166 17.679 4.175 L 18.814 4.222 C 19.242 4.24 19.67 4.258 20.099 4.276 C 20.292 4.284 20.485 4.292 20.679 4.299 C 20.904 4.308 21.129 4.317 21.355 4.327 C 21.563 4.336 21.772 4.345 21.981 4.354" transform="matrix(1 0 0 1 0 0)" fill="#EBEBEB" stroke="none" />
  <path d="M 2.371 15.599 L 2 16.086 L 2.677 17.186 C 2.729 17.255 2.79 17.289 2.874 17.3 C 3.063 17.324 3.251 17.351 3.44 17.378 L 3.441 17.378 C 3.52 17.389 3.599 17.4 3.678 17.411 L 4.161 17.478 C 4.382 17.509 4.604 17.54 4.826 17.571 C 5.001 17.596 5.176 17.62 5.351 17.645 L 5.355 17.646 C 5.557 17.675 5.76 17.704 5.962 17.732 C 6.152 17.759 6.342 17.785 6.531 17.811 C 6.774 17.845 7.017 17.879 7.26 17.913 C 7.455 17.941 7.651 17.969 7.846 17.996 C 8.072 18.029 8.299 18.061 8.525 18.093 C 8.542 18.095 8.56 18.094 8.581 18.091 C 8.592 18.09 8.604 18.089 8.617 18.089 L 8.597 18.05 C 8.587 18.032 8.579 18.017 8.571 18.002 C 8.554 17.973 8.536 17.943 8.519 17.914 C 8.485 17.857 8.451 17.8 8.421 17.741 C 8.328 17.563 8.256 17.377 8.232 17.175 C 8.222 17.097 8.242 17.039 8.297 16.983 C 8.416 16.863 8.53 16.739 8.644 16.614 C 8.702 16.551 8.756 16.483 8.808 16.415 C 8.848 16.362 8.887 16.307 8.926 16.252 C 8.948 16.222 8.969 16.192 8.991 16.163 C 9.059 16.068 9.129 15.974 9.198 15.88 C 9.401 15.605 9.605 15.33 9.792 15.044 C 9.825 14.995 9.844 14.946 9.842 14.885 C 9.838 14.717 9.849 14.55 9.879 14.384 C 9.934 14.085 10.052 13.811 10.214 13.554 C 10.486 13.119 10.862 12.82 11.365 12.686 C 11.44 12.666 11.491 12.629 11.531 12.564 C 11.681 12.323 11.833 12.083 11.985 11.843 L 12.156 11.573 C 12.397 11.192 12.638 10.811 12.88 10.43 L 12.881 10.428 C 13.43 9.56 13.98 8.691 14.527 7.821 C 14.67 7.593 14.816 7.365 14.961 7.138 C 15.302 6.605 15.643 6.073 15.959 5.525 C 15.98 5.487 16.004 5.451 16.027 5.414 C 16.045 5.388 16.062 5.361 16.078 5.333 C 16.088 5.318 16.095 5.302 16.105 5.28 C 16.11 5.268 16.116 5.255 16.123 5.24 L 15.98 5.228 C 15.9 5.221 15.824 5.214 15.748 5.209 C 15.618 5.199 15.487 5.189 15.356 5.179 C 15.123 5.162 14.89 5.145 14.658 5.126 C 14.467 5.111 14.276 5.092 14.087 5.069 C 13.958 5.053 13.831 5.033 13.703 5.013 C 13.66 5.006 13.616 4.999 13.573 4.992 C 13.433 4.971 13.294 4.949 13.155 4.926 C 13.106 4.918 13.067 4.906 13.042 4.847 C 13.013 4.781 12.967 4.712 12.889 4.689 L 12.872 4.684 C 12.754 4.648 12.634 4.613 12.513 4.59 C 12.328 4.554 12.143 4.523 11.957 4.491 C 11.855 4.474 11.752 4.457 11.649 4.439 C 11.527 4.417 11.406 4.394 11.284 4.37 L 11.202 4.355 C 11.153 4.345 11.109 4.345 11.079 4.394 C 11.073 4.404 11.065 4.414 11.058 4.423 C 11.054 4.427 11.05 4.432 11.046 4.437 L 10.045 5.721 C 9.132 6.89 8.22 8.06 7.307 9.229 C 7.069 9.535 6.83 9.841 6.591 10.146 L 6.59 10.147 C 6.165 10.692 5.739 11.237 5.315 11.782 C 4.672 12.609 4.031 13.437 3.392 14.266 C 3.05 14.709 2.711 15.154 2.371 15.599" transform="matrix(1 0 0 1 0 0)" fill="#EBEBEB" stroke="none" />
</svg>
