<?xml version="1.0" encoding="UTF-8"?>
<!-- Reconstructed from Amplitude.Graphics.Svg.SvgAsset and recolored from static UIMapper.Color metadata for EWShop; not original source SVG. Live UI state/material colors are not included. -->
<svg xmlns="http://www.w3.org/2000/svg" width="25" height="25" viewBox="0 0 25 25">
  <path d="M 17.688 23.876 L 11.004 23.489 L 11.439 15.358 L 12.742 15.404 L 12.339 22.886 L 19.2 23.055 C 22.262 21.108 24.418 17.865 24.899 14.098 L 21.362 14.016 L 21.583 11.102 L 24.923 11.102 C 24.775 9.775 24.42 8.512 23.89 7.344 L 9.599 8.073 L 8.491 9.643 L 9.599 11.074 L 9.153 22.387 L 7.354 23.896 C 8.832 24.564 10.463 24.953 12.18 24.997 L 16.273 24.421 C 16.759 24.268 17.231 24.085 17.688 23.876 M 20.58 11.102 L 20.361 13.992 L 15.652 13.883 L 15.652 11.103 L 20.58 11.102 M 14.652 11.103 L 14.652 13.86 L 11.524 13.787 L 11.667 11.103 L 14.652 11.103" transform="matrix(1 0 0 1 0 0)" fill="#EBEBEB" stroke="none" />
  <path d="M 5.488 22.85 L 7.19 21.423 L 7.56 12.019 C 7.302 12.107 7.066 12.235 6.86 12.397 C 6.723 11.98 6.458 11.617 6.108 11.347 C 5.783 10.714 5.214 10.212 4.516 9.948 L 4.892 7.402 L 10.866 3.075 C 11.519 3.452 12.34 3.501 13.035 3.212 C 13.594 4.637 15.476 5.06 16.669 4.185 C 17.479 5.742 19.839 5.82 20.778 4.354 C 21.162 4.449 21.597 4.449 21.981 4.353 C 19.688 1.688 16.291 0 12.5 0 C 9.793 0 7.288 0.86 5.242 2.322 L 4.304 4.624 L 2.685 9.822 C 2.491 9.866 2.304 9.927 2.127 10.004 C 2.086 9.002 1.716 8.08 1.117 7.328 C -1.364 12.781 0.508 19.469 5.488 22.85 M 5.753 5.174 L 10.154 2.436 C 9.82 1.975 9.682 1.389 9.785 0.83 C 9.111 1.008 8.403 1.052 7.713 0.964 L 5.753 5.174" transform="matrix(1 0 0 1 0 0)" fill="#EBEBEB" stroke="none" />
</svg>
