<?xml version="1.0" encoding="UTF-8"?>
<!-- Reconstructed from Amplitude.Graphics.Svg.SvgAsset and recolored from static UIMapper.Color metadata for EWShop; not original source SVG. Live UI state/material colors are not included. -->
<svg xmlns="http://www.w3.org/2000/svg" width="25" height="25" viewBox="0 0 25 25">
  <path d="M 2.97 20.285 C 2.168 19.352 1.501 18.299 1 17.156 L 1.558 14.78 L 3.262 14.374 L 2.488 13.085 L 2.144 11.799 L 2.749 9.222 L 4.325 8.022 L 6.577 7.777 L 9.193 8.235 C 10.315 9.885 11.933 10.638 13.678 11.419 L 13.483 9.68 C 13.456 9.437 13.474 9.206 13.525 8.992 L 14.913 9.235 L 15.833 12.777 L 12.149 12.777 L 8.204 12.352 L 7.25 12.778 L 7.093 11.645 L 7.458 10.25 L 6.426 8.767 L 4.618 8.952 L 3.428 10.07 L 3.185 11.645 L 3.761 13.341 L 5.096 14.06 L 4.848 14.472 L 4.909 14.814 L 4.622 15.137 L 4.622 15.138 L 4.145 15.675 L 3.041 15.268 L 2.49 15.904 L 1.893 17.155 L 3.202 19.175 L 4.018 19.005 L 4.278 20.11 L 2.97 20.285" transform="matrix(1 0 0 1 0 0)" fill="#EBEBEB" stroke="none" />
  <path d="M 24.49 15.522 C 24.135 16.789 23.585 17.975 22.874 19.046 L 19.492 19.707 L 20.011 21.785 L 19.209 21.785 L 15.701 8.293 L 15.227 6.544 L 13.683 7.012 C 13.02 7.505 12.348 8.532 12.489 9.79 C 10.851 9.057 7.941 6.472 9.414 2 C 9.989 2.683 11.959 3.809 15.243 2.855 L 17.003 9.748 L 18.172 9.804 L 20.114 10.144 L 21.51 10.311 L 22.583 11.222 L 22.761 12.776 L 18.79 12.776 L 18.789 12.768 L 17.758 12.768 L 18.008 13.771 L 22.643 13.776 L 24.462 14.405 L 24.49 15.522" transform="matrix(1 0 0 1 0 0)" fill="#EBEBEB" stroke="none" />
  <path d="M 16.093 13.776 L 17.71 19.993 L 8.65 21.682 L 6.863 20.402 L 5.278 19.996 L 4.673 17.42 L 5.017 16.134 L 6.054 14.406 L 8.366 13.375 L 12.096 13.776 L 16.093 13.776 M 8.45 14.472 L 6.676 15.319 L 5.942 16.514 L 6.187 19.15 L 7.518 19.584 L 8.849 20.454 L 10.072 18.362 L 10.072 16.514 L 9.04 16.666 L 8.622 15.572 L 9.637 15.129 L 8.528 14.469 L 8.45 14.472" transform="matrix(1 0 0 1 0 0)" fill="#EBEBEB" stroke="none" />
</svg>
