<?xml version="1.0" encoding="UTF-8"?>
<!-- Reconstructed from Amplitude.Graphics.Svg.SvgAsset and recolored from static UIMapper.Color metadata for EWShop; not original source SVG. Live UI state/material colors are not included. -->
<svg xmlns="http://www.w3.org/2000/svg" width="25" height="25" viewBox="0 0 25 25">
  <path d="M 0 14.286 C 0.618 12.766 1.813 11.407 3.174 10.655 C 4.209 10.083 4.221 7.743 4.196 6.225 C 4.922 6.548 5.922 6.818 7.026 6.818 C 8.191 6.818 9.241 6.517 9.975 6.17 C 9.975 6.351 9.974 6.553 9.972 6.777 C 9.966 7.504 9.958 8.466 9.991 9.708 C 10.08 10.168 10.403 10.345 10.767 10.543 C 10.806 10.565 10.846 10.586 10.886 10.609 C 12.548 11.539 13.743 13.111 14.244 14.953 C 14.317 15.222 14.362 15.495 14.407 15.768 L 14.429 15.9 L 14.488 15.9 L 14.488 17.319 L 14.439 17.319 C 14.321 18.333 14.006 19.328 13.499 20.21 L 16.608 20.663 C 16.83 22.107 16.53 23.612 15.708 24.89 C 15.12 24.963 14.522 25 13.914 25 C 8.865 25 4.425 22.419 1.867 18.517 L 12.327 20.04 C 14.042 17.212 12.891 14.635 12.308 13.33 C 12.266 13.236 12.227 13.149 12.192 13.068 C 9.577 17.381 3.483 16.92 0.578 16.052 C 0.348 15.481 0.154 14.891 0 14.286" transform="matrix(1 0 0 1 0 0)" fill="#EBEBEB" stroke="none" />
  <path d="M 17.931 24.436 L 17.932 9.541 L 17.94 9.541 C 18.062 8.655 19.554 7.955 21.376 7.955 C 22.424 7.955 23.362 8.186 23.994 8.552 C 23.451 8.374 22.799 8.271 22.1 8.271 C 20.198 8.271 18.656 9.034 18.656 9.975 C 18.656 10.398 18.967 10.785 19.482 11.083 C 20.025 11.26 20.676 11.364 21.376 11.364 C 22.78 11.364 24.3 10.948 25 10.352 L 25 19.815 C 24.76 20.104 24.508 20.384 24.246 20.653 L 24.246 12.5 L 22.667 12.5 C 22.213 17.64 20.962 21.316 19.623 23.831 C 19.076 24.067 18.511 24.269 17.931 24.436" transform="matrix(1 0 0 1 0 0)" fill="#EBEBEB" stroke="none" />
  <path d="M 8.222 0 L 19.452 0 C 20.492 -0.001 21.604 0.081 21.829 1.417 C 21.876 1.694 21.869 1.994 21.863 2.285 C 21.861 2.379 21.859 2.472 21.859 2.562 L 21.859 6.818 C 21.509 6.823 21.159 6.821 20.809 6.82 C 20.659 6.819 20.509 6.818 20.36 6.818 L 20.36 2.786 C 20.36 2.613 20.363 2.462 20.366 2.332 C 20.374 1.917 20.379 1.706 20.275 1.599 C 20.166 1.488 19.942 1.489 19.484 1.491 C 19.421 1.491 19.353 1.491 19.28 1.491 L 8.426 1.487 C 7.923 1.485 7.874 1.862 7.891 2.273 C 7.893 2.308 7.895 2.503 7.897 2.722 C 7.9 3.019 7.903 3.362 7.906 3.409 C 7.913 3.505 7.919 3.598 7.919 3.686 L 7.842 3.563 C 7.502 3.026 6.69 3.098 6.452 3.686 L 6.452 2.245 C 6.451 1.047 6.948 0.063 8.222 0" transform="matrix(1 0 0 1 0 0)" fill="#EBEBEB" stroke="none" />
  <path d="M 7.113 4.689 C 7.609 4.689 8.071 4.736 8.457 4.816 C 8.009 4.651 7.343 4.545 6.599 4.545 C 5.25 4.545 4.156 4.892 4.156 5.319 C 4.156 5.589 4.593 5.826 5.255 5.965 C 4.89 5.83 4.669 5.654 4.669 5.462 C 4.669 5.035 5.763 4.689 7.113 4.689" transform="matrix(1 0 0 1 0 0)" fill="#EBEBEB" stroke="none" />
</svg>
