<?xml version="1.0" encoding="UTF-8"?>
<!-- Reconstructed from Amplitude.Graphics.Svg.SvgAsset and recolored from static UIMapper.Color metadata for EWShop; not original source SVG. Live UI state/material colors are not included. -->
<svg xmlns="http://www.w3.org/2000/svg" width="25" height="25" viewBox="0 0 25 25">
  <path d="M 24.999 12.329 L 24.213 12.722 L 23.661 11.617 L 22.463 10.972 L 23.804 10.987 L 24.46 8.855 C 24.795 9.956 24.983 11.122 24.999 12.329" transform="matrix(1 0 0 1 0 0)" fill="#EBEBEB" stroke="none" />
  <path d="M 0.824 16.974 L 1.752 16.749 L 1.754 16.118 L 0.856 15.671 L 0.431 13.846 L 0.883 12.03 L 2.526 11.48 L 3.929 12.168 L 4.398 14.025 L 3.45 15.788 L 2.766 16.148 L 2.764 16.713 L 6.742 17.367 L 6.742 17.37 L 7.521 19.915 L 10.655 19.155 L 10.657 18.524 L 9.759 18.077 L 9.334 16.252 L 9.786 14.436 L 11.428 13.886 L 12.831 14.574 L 13.3 16.431 L 12.352 18.195 L 11.668 18.554 L 11.666 19.12 L 15.644 19.773 L 15.638 19.809 L 16.62 22.324 L 19.668 21.585 L 19.67 20.954 L 18.772 20.507 L 18.347 18.682 L 18.799 16.866 L 20.441 16.316 L 21.844 17.004 L 22.313 18.861 L 21.365 20.624 L 20.681 20.984 L 20.679 21.549 L 21.058 21.612 C 18.821 23.713 15.811 25 12.5 25 C 7.173 25 2.624 21.668 0.824 16.974" transform="matrix(1 0 0 1 0 0)" fill="#EBEBEB" stroke="none" />
  <path d="M 14.498 0.294 L 13.415 1.377 L 11.412 7.887 L 10.169 7.873 L 11.279 8.471 L 11.792 9.496 L 12.874 8.955 L 12.879 8.938 L 14.499 8.956 L 13.105 8.206 L 15.039 1.918 L 14.498 0.294" transform="matrix(1 0 0 1 0 0)" fill="#EBEBEB" stroke="none" />
  <path d="M 11.541 12.013 L 11.295 12.75 L 10.176 13.159 L 10.184 13.13 L 9.657 12.954 L 7.773 13.425 L 8.113 15.208 L 7.901 15.967 L 6.153 15.329 L 4.914 10.642 L 1.938 9.718 L 2.122 8.245 L 3.064 6.832 L 4.477 6.832 L 4.006 5.419 L 4.477 4.007 L 5.419 4.007 L 6.361 4.477 L 6.361 5.419 L 5.89 6.832 L 7.302 7.303 L 7.302 8.245 L 8.244 9.658 L 7.773 11.542 L 9.657 12.013 L 10.509 12.013 L 11.298 9.294 L 11.624 9.931 L 12.203 9.556 L 11.489 12.013 L 11.541 12.013" transform="matrix(1 0 0 1 0 0)" fill="#EBEBEB" stroke="none" />
  <path d="M 13.521 13.492 L 13.786 11.373 L 14.802 9.849 L 16.325 9.849 L 15.817 8.326 L 16.325 6.802 L 17.341 6.802 L 18.357 7.31 L 18.357 8.326 L 17.849 9.849 L 19.372 10.357 L 19.372 11.373 L 20.388 12.896 L 19.88 14.928 L 20.405 15.059 L 17.758 15.742 L 17.011 17.743 L 14.848 17.446 L 15.014 17.169 L 14.633 14.31 L 13.521 13.492" transform="matrix(1 0 0 1 0 0)" fill="#EBEBEB" stroke="none" />
  <path d="M 21.911 15.436 L 21.744 15.394 L 23.548 16.621 L 23.943 15.436 L 23.887 15.436 L 24.656 12.787 L 24.033 13.191 L 23.681 12.504 L 22.83 15.436 L 21.911 15.436" transform="matrix(1 0 0 1 0 0)" fill="#EBEBEB" stroke="none" />
</svg>
