<?xml version="1.0" encoding="UTF-8"?>
<!-- Reconstructed from Amplitude.Graphics.Svg.SvgAsset and recolored from static UIMapper.Color metadata for EWShop; not original source SVG. Live UI state/material colors are not included. -->
<svg xmlns="http://www.w3.org/2000/svg" width="25" height="25" viewBox="0 0 25 25">
  <path d="M 23.16 19.032 C 20.961 22.612 17.01 25 12.5 25 C 6.928 25 2.207 21.354 0.594 16.318 L 3.32 15.523 L 6.56 17.704 L 6.56 19.345 L 9 19.844 L 12.597 23.128 L 16.6 19.844 L 17.5 18 L 18.74 19.844 L 21 18.664 L 23.16 19.032" transform="matrix(1 0 0 1 0 0)" fill="#EBEBEB" stroke="none" />
  <path d="M 17.388 0.992 L 17.388 4.388 L 14.97 4.388 L 14.97 6.934 L 14.218 6.934 L 14.218 10.298 L 16.064 12.144 L 14.746 19 L 12.768 20.5 L 10.79 19 L 9.208 12.144 L 11.054 10.298 L 11.054 6.934 L 10.302 6.934 L 10.302 4.388 L 8 4.388 L 8 0.834 C 9.396 0.296 10.914 0 12.5 0 C 14.234 0 15.886 0.353 17.388 0.992" transform="matrix(1 0 0 1 0 0)" fill="#EBEBEB" stroke="none" />
  <path d="M 5.078 10.998 L 8.881 16.149 L 6.693 8.058 L 5.078 10.998" transform="matrix(1 0 0 1 0 0)" fill="#EBEBEB" stroke="none" />
  <path d="M 3.734 14.419 L 6.888 15.852 L 3.724 12.605 L 3.734 14.419" transform="matrix(1 0 0 1 0 0)" fill="#EBEBEB" stroke="none" />
  <path d="M 19.717 12.069 L 17 14.217 L 19.292 10.305 L 19.717 12.069" transform="matrix(1 0 0 1 0 0)" fill="#EBEBEB" stroke="none" />
  <path d="M 20.461 14.162 L 16 16.449 L 22.528 15.782 L 20.461 14.162" transform="matrix(1 0 0 1 0 0)" fill="#EBEBEB" stroke="none" />
</svg>
