<?xml version="1.0" encoding="UTF-8"?>
<!-- Reconstructed from Amplitude.Graphics.Svg.SvgAsset and recolored from static UIMapper.Color metadata for EWShop; not original source SVG. Live UI state/material colors are not included. -->
<svg xmlns="http://www.w3.org/2000/svg" width="25" height="25" viewBox="0 0 25 25">
  <path d="M 5.875 6.921 L 7.144 1.523 C 7.559 1.326 7.987 1.151 8.425 1 L 6.978 7.138 L 18.273 7.138 L 16.848 1.098 C 17.291 1.262 17.721 1.451 18.139 1.662 L 19.38 6.943 C 20.248 6.712 21.249 6.766 22.004 6.885 L 21.168 3.814 C 23.53 6.088 25 9.283 25 12.821 C 25 14.021 24.831 15.182 24.515 16.28 C 23.856 16.176 23.009 16.121 22.226 16.262 L 23.952 17.839 C 23.8 18.185 23.633 18.523 23.451 18.852 L 22.652 18.081 L 2.599 18.081 L 1.637 19.009 C 1.45 18.682 1.278 18.346 1.121 18.001 L 2.917 16.359 C 2.071 16.243 1.175 16.336 0.538 16.46 C 0.188 15.309 0 14.087 0 12.821 C 0 9.299 1.456 6.118 3.799 3.846 L 2.987 6.948 C 3.738 6.796 4.885 6.681 5.875 6.921 M 4.926 15.837 L 3.511 17.201 L 8.25 17.201 L 8.88 10.581 L 7.5 9.571 L 17.75 9.571 L 16.5 10.581 L 17.25 17.201 L 21.739 17.201 L 20.324 15.837 L 18.541 8.275 L 6.709 8.275 L 4.926 15.837 M 21.29 15.064 L 19.699 8.297 C 20.57 8.045 21.592 8.094 22.366 8.213 L 24.203 14.961 C 23.381 14.822 22.233 14.754 21.29 15.064 M 5.557 8.273 C 4.57 8.013 3.412 8.12 2.64 8.271 L 0.84 15.146 C 1.634 14.981 2.895 14.853 3.938 15.158 L 5.557 8.273" transform="matrix(1 0 0 1 0 0)" fill="#EBEBEB" stroke="none" />
  <path d="M 3.335 21.32 L 21.665 21.32 C 21.379 21.628 21.078 21.922 20.763 22.2 L 4.237 22.2 C 3.922 21.922 3.621 21.628 3.335 21.32" transform="matrix(1 0 0 1 0 0)" fill="#EBEBEB" stroke="none" />
  <path d="M 21.25 19.201 L 19.88 20.071 L 5.5 20.071 L 4 19.201 L 21.25 19.201" transform="matrix(1 0 0 1 0 0)" fill="#EBEBEB" stroke="none" />
  <path d="M 11.583 2.068 L 10.911 1.576 L 14.362 1.576 L 13.754 2.068 L 14.511 5.29 L 15.12 5.782 L 10.131 5.782 L 10.802 5.29 L 11.583 2.068" transform="matrix(1 0 0 1 0 0)" fill="#EBEBEB" stroke="none" />
</svg>
