<?xml version="1.0" encoding="UTF-8"?>
<!-- Reconstructed from Amplitude.Graphics.Svg.SvgAsset and recolored from static UIMapper.Color metadata for EWShop; not original source SVG. Live UI state/material colors are not included. -->
<svg xmlns="http://www.w3.org/2000/svg" width="25" height="25" viewBox="0 0 25 25">
  <path d="M 8.701 2.443 L 10.817 3.029 L 11.515 0.038 C 10.713 0.101 9.933 0.239 9.181 0.446 L 8.701 2.443" transform="matrix(1 0 0 1 0 0)" fill="#EBEBEB" stroke="none" />
  <path d="M 21.588 21.082 C 19.309 23.495 16.08 25 12.5 25 C 5.596 25 0 19.404 0 12.5 C 0 10.914 0.295 9.397 0.834 8.001 L 2.5 10 L 2.5 13 L 3.943 14.082 C 4.585 14.156 5.212 14.279 5.821 14.446 L 8.234 4.389 L 10.362 4.978 L 7.963 15.254 C 10.631 16.552 12.768 18.772 13.96 21.5 L 14.5 21.5 L 15.5 20.5 L 16.5 20.5 L 17.5 22.259 L 19.5 21.5 L 21.588 21.082" transform="matrix(1 0 0 1 0 0)" fill="#EBEBEB" stroke="none" />
  <path d="M 12.91 0.007 C 13.014 0.244 13.199 0.451 13.462 0.578 C 13.452 1.665 13.393 2.736 13.284 3.794 C 13.162 3.739 13.04 3.684 12.918 3.629 C 12.675 3.518 12.392 3.626 12.287 3.87 C 12.183 4.114 12.295 4.402 12.538 4.512 C 12.747 4.607 12.956 4.701 13.166 4.794 C 13.003 6.003 12.775 7.194 12.481 8.365 L 11.644 8.122 C 11.388 8.048 11.125 8.196 11.056 8.453 C 10.987 8.711 11.139 8.98 11.395 9.054 L 12.232 9.297 C 11.902 10.458 11.506 11.6 11.045 12.723 C 10.819 12.689 10.594 12.656 10.368 12.625 C 10.105 12.588 9.866 12.774 9.835 13.039 C 9.804 13.304 9.991 13.549 10.255 13.586 C 10.386 13.604 10.518 13.623 10.65 13.642 C 10.534 13.902 10.413 14.161 10.29 14.419 C 10.577 14.569 10.858 14.73 11.132 14.902 C 11.309 14.535 11.478 14.165 11.641 13.793 C 12.713 13.966 13.777 14.165 14.835 14.391 C 14.513 15.318 14.17 16.239 13.805 17.153 C 14.213 17.607 14.588 18.091 14.926 18.602 C 15.911 18.775 16.884 18.993 17.845 19.256 L 17.62 20.098 C 17.551 20.356 17.703 20.624 17.959 20.699 C 18.215 20.773 18.478 20.625 18.547 20.367 L 18.772 19.525 C 19.846 19.855 20.904 20.242 21.946 20.687 C 22.543 19.999 23.066 19.245 23.502 18.438 C 23.584 17.952 23.671 17.468 23.763 16.986 C 23.882 17.03 24 17.074 24.119 17.119 C 24.237 16.822 24.344 16.519 24.44 16.211 C 24.278 16.15 24.116 16.089 23.953 16.029 C 24.17 14.984 24.412 13.946 24.679 12.915 L 24.99 13.005 C 24.997 12.838 25 12.669 25 12.5 C 25 12.333 24.997 12.166 24.99 12 L 24.928 11.982 C 24.946 11.92 24.963 11.857 24.98 11.794 C 24.937 11.018 24.823 10.261 24.645 9.528 C 24.417 10.253 24.203 10.981 24.002 11.713 L 21.088 10.866 L 21.872 7.935 C 22.702 8.17 23.537 8.388 24.376 8.589 C 24.253 8.215 24.113 7.849 23.956 7.492 C 23.342 7.338 22.731 7.175 22.121 7.003 L 22.616 5.155 C 22.381 4.832 22.131 4.521 21.866 4.222 L 21.195 6.733 C 20.174 6.429 19.161 6.098 18.154 5.742 C 18.356 4.701 18.532 3.652 18.684 2.597 C 19.528 2.957 20.382 3.281 21.245 3.568 C 19.082 1.45 16.152 0.111 12.91 0.007 M 14.421 0.59 L 14.572 0.505 C 15.622 1.128 16.688 1.689 17.77 2.19 C 17.619 3.27 17.441 4.343 17.237 5.409 C 16.22 5.032 15.21 4.628 14.208 4.198 C 14.34 3.013 14.411 1.81 14.421 0.59 M 19.022 18.592 C 20.136 18.934 21.235 19.336 22.317 19.799 C 22.469 18.743 22.645 17.695 22.846 16.654 C 21.84 16.297 20.826 15.967 19.806 15.662 L 19.022 18.592 M 23.752 12.645 C 23.49 13.656 23.252 14.674 23.038 15.699 C 22.05 15.352 21.056 15.028 20.055 14.729 L 20.839 11.799 L 23.752 12.645 M 16.072 10.413 C 15.789 11.439 15.481 12.458 15.147 13.47 C 14.114 13.247 13.074 13.05 12.027 12.877 C 12.464 11.79 12.841 10.687 13.159 9.566 L 16.072 10.413 M 17.047 6.366 C 16.831 7.411 16.589 8.45 16.321 9.481 L 13.408 8.634 C 13.693 7.504 13.917 6.356 14.082 5.19 C 15.064 5.607 16.052 5.999 17.047 6.366 M 17.248 9.75 C 17.511 8.739 17.749 7.721 17.963 6.696 C 18.95 7.044 19.945 7.367 20.945 7.666 L 20.161 10.597 L 17.248 9.75 M 16.094 13.681 C 16.42 12.689 16.722 11.689 16.999 10.682 L 19.912 11.529 L 19.128 14.46 C 18.124 14.176 17.112 13.916 16.094 13.681 M 14.677 17.578 C 15.071 16.593 15.44 15.6 15.785 14.601 C 16.823 14.839 17.854 15.103 18.879 15.392 L 18.095 18.323 C 16.972 18.015 15.832 17.766 14.677 17.578" transform="matrix(1 0 0 1 0 0)" fill="#EBEBEB" stroke="none" />
</svg>
