<?xml version="1.0" encoding="UTF-8"?>
<!-- Reconstructed from Amplitude.Graphics.Svg.SvgAsset and recolored from static UIMapper.Color metadata for EWShop; not original source SVG. Live UI state/material colors are not included. -->
<svg xmlns="http://www.w3.org/2000/svg" width="25" height="25" viewBox="0 0 25 25">
  <path d="M 17.183 10.128 C 18.985 10.128 21.103 9.774 21.103 7.451 C 21.103 6.545 20.448 6.037 19.746 5.495 C 18.697 4.682 17.544 3.789 18.334 1.357 C 16.632 0.489 14.705 0 12.664 0 C 8.152 0 4.198 2.391 2 5.975 C 2.96 6.416 4.098 6.698 5.425 6.698 C 9.976 6.698 9.169 8.482 8.198 9.375 C 9.835 9.375 11.8 9.175 12.087 7.135 C 13.697 7.596 20.166 7.39 17.183 10.128" transform="matrix(1 0 0 1 0 0)" fill="#EBEBEB" stroke="none" />
  <path d="M 22.387 20.355 C 20.096 23.188 16.591 24.999 12.664 24.999 C 8.63 24.999 5.042 23.088 2.756 20.122 L 7.034 20.122 L 7.034 17.971 L 7.691 17.971 L 7.691 17.278 L 8.128 17.278 L 8.128 17.031 L 7.595 17.031 L 7.595 16.212 L 8.128 16.212 L 8.128 15.737 L 7.595 15.737 L 7.595 14.918 L 8.128 14.918 L 8.128 14.443 L 7.595 14.443 L 7.595 13.624 L 8.128 13.624 L 8.128 10.023 L 9.477 10.023 L 9.477 13.624 L 10.053 13.624 L 10.053 14.443 L 9.477 14.443 L 9.477 14.918 L 10.053 14.918 L 10.053 15.346 L 12.357 15.346 C 12.758 15.37 13.56 15.674 13.56 16.695 L 13.56 19.145 L 15.974 19.145 L 15.974 13.596 L 17.137 13.596 L 17.137 10.971 L 18.181 10.971 L 18.181 13.596 L 20.359 13.596 L 20.359 18.608 L 22.387 18.608 L 22.387 20.355 M 15.974 19.831 L 15.974 21.215 L 13.56 21.215 L 13.56 19.831 L 15.974 19.831 M 9.615 16.212 L 11.959 16.212 C 12.194 16.227 12.664 16.389 12.664 16.917 L 12.664 20.99 L 11.23 20.99 L 11.23 17.989 L 10.229 17.989 L 10.229 17.241 L 9.615 17.241 L 9.615 16.212" transform="matrix(1 0 0 1 0 0)" fill="#EBEBEB" stroke="none" />
</svg>
