<?xml version="1.0" encoding="UTF-8"?>
<!-- Reconstructed from Amplitude.Graphics.Svg.SvgAsset and recolored from static UIMapper.Color metadata for EWShop; not original source SVG. Live UI state/material colors are not included. -->
<svg xmlns="http://www.w3.org/2000/svg" width="26" height="25" viewBox="0 0 26 25">
  <path d="M 11.078 5.758 L 10.875 5.092 L 10.512 5.02 L 10.242 4.31 L 10.569 4.092 L 9.405 0.278 C 9.842 0.162 10.288 0.069 10.742 0 L 11.559 3.907 L 11.852 3.95 L 12.032 4.48 L 11.74 4.772 L 11.9 5.537 C 12.676 5.395 13.588 5.41 14.622 5.73 L 15.207 9.974 L 15.761 9.814 L 16.992 7.86 L 16.742 8.86 L 17.872 8.36 L 20.372 8.36 L 18.992 8.98 L 18.622 9.61 L 20.122 9.74 L 21.242 10.61 L 19.492 10.61 L 19.222 10.828 L 20.544 11.832 L 20.717 12.633 C 19.988 12.379 19.24 12.136 18.502 11.88 C 18.611 12.159 18.862 12.803 19.096 13.399 L 17.952 12.65 C 18.025 13.472 18.078 14.313 18.154 15.143 C 17.786 14.879 17.417 14.618 17.052 14.35 C 17.024 15.225 16.995 16.101 16.993 16.976 L 16.972 17.07 L 16.992 17.11 L 16.993 16.976 C 17.128 16.348 17.244 15.72 17.357 15.087 C 17.822 15.499 18.29 15.905 18.752 16.32 C 18.768 15.557 18.754 14.783 18.733 14.019 C 19.384 14.463 20.232 15.041 20.672 15.34 L 19.723 13.02 C 20.336 13.197 20.952 13.369 21.562 13.52 C 21.506 13.328 21.312 12.721 21.133 12.162 L 25.108 12.972 C 24.788 19.591 19.321 24.86 12.622 24.86 C 7.347 24.86 2.835 21.592 1 16.97 L 3.751 14.807 L 4.872 14.73 L 4.992 15.61 L 6.992 14.86 L 6.872 16.24 L 9.872 13.74 L 7.492 14.98 L 7.742 13.74 L 5.742 14.61 L 5.941 13.614 L 4.632 13.739 L 4.622 13.74 L 5.742 12.24 L 3.372 13.24 L 3.992 12.11 L 6.122 11.24 L 3.992 11.24 L 6.492 10.48 L 8.807 11.705 L 9.811 11.455 L 8.872 7.23 C 8.872 7.23 9.655 6.267 11.078 5.758 M 13.872 6.36 L 14.584 10.153 L 13.657 10.421 L 12.864 6.36 L 13.872 6.36 M 12.163 6.433 L 13.042 10.598 L 12.253 10.825 L 11.329 6.704 L 12.163 6.433 M 10.563 7.02 L 11.541 11.025 L 10.459 11.294 L 9.742 7.36 L 10.563 7.02 M 8.94 17.74 C 8.406 18.58 7.891 19.433 7.352 20.27 C 7.995 19.889 8.642 19.496 9.285 19.104 C 9.093 19.438 8.9 19.779 8.722 20.08 C 9.139 19.889 10.001 19.512 10.664 19.221 L 10.717 19.198 C 10.611 20.389 10.519 21.613 10.442 22.8 C 11.13 22.023 11.838 21.206 12.518 20.404 C 12.582 20.973 12.66 21.652 12.692 21.93 L 13.984 20.213 L 14.362 20.87 C 14.752 20.33 15.132 19.8 15.502 19.25 C 15.132 19.62 14.777 20.006 14.417 20.387 C 14.302 20.112 14.124 19.662 14.052 19.52 C 13.982 19.597 13.482 20.157 13.098 20.588 C 13.077 20.002 13.056 19.416 13.032 18.83 C 12.462 19.449 11.886 20.069 11.319 20.692 C 11.388 19.795 11.452 18.903 11.522 18.01 L 10.244 18.627 C 10.467 18.186 10.684 17.743 10.902 17.3 C 10.064 17.922 9.157 18.572 8.296 19.204 C 8.515 18.718 8.729 18.23 8.94 17.74" transform="matrix(1 0 0 1 0 0)" fill="#EBEBEB" stroke="none" />
</svg>
