<?xml version="1.0" encoding="UTF-8"?>
<!-- Reconstructed from Amplitude.Graphics.Svg.SvgAsset and recolored from static UIMapper.Color metadata for EWShop; not original source SVG. Live UI state/material colors are not included. -->
<svg xmlns="http://www.w3.org/2000/svg" width="25" height="25" viewBox="0 0 25 25">
  <path d="M 10.002 7.267 C 5.747 11.94 8.736 14.164 11.135 14.72 C 5.971 10.442 14.689 7.966 17.645 5.721 C 18.206 5.975 18.843 6.048 19.447 5.932 C 19.951 8.098 22.667 8.948 24.322 7.514 C 22.396 3.092 17.987 0 12.856 0 C 7.341 0 2.66 3.572 1 8.528 C 1.278 8.614 1.573 8.66 1.879 8.66 C 3.179 8.66 4.284 7.832 4.698 6.675 C 5.197 7.047 5.815 7.267 6.485 7.267 C 8.229 7.267 9.629 5.715 9.465 3.987 C 10.618 5.008 11.098 6.064 10.002 7.267" transform="matrix(1 0 0 1 0 0)" fill="#EBEBEB" stroke="none" />
  <path d="M 23.115 19.643 L 21.618 18.061 L 20.911 18.252 L 20.731 17.365 L 19.034 15.906 L 18.26 15.915 L 18.51 15.353 L 17.653 13.933 L 16.057 12.865 L 14.988 13.023 L 14.087 14.279 L 10.21 18.859 L 9.073 22.346 L 9.435 18.264 L 11.345 15.749 L 10.545 15.415 L 9.455 15.71 L 8.755 15.599 L 7.604 16.794 L 7.38 17.261 L 6.459 17.142 L 5.578 18.19 L 5.559 18.201 L 5.111 17.728 L 4.022 18.023 L 3.321 17.912 L 2.215 19.062 C 4.417 22.625 8.359 25 12.856 25 C 17.103 25 20.856 22.881 23.115 19.643 M 18.987 16.633 L 17.802 16.532 L 17.404 17.219 L 18.053 17.25 L 18.146 18.02 L 17.571 18.172 L 18.092 19.305 L 19.313 20.298 L 19.755 19.448 L 20.32 18.866 L 19.703 17.192 L 18.987 16.633" transform="matrix(1 0 0 1 0 0)" fill="#EBEBEB" stroke="none" />
</svg>
