<?xml version="1.0" encoding="UTF-8"?>
<!-- Reconstructed from Amplitude.Graphics.Svg.SvgAsset and recolored from static UIMapper.Color metadata for EWShop; not original source SVG. Live UI state/material colors are not included. -->
<svg xmlns="http://www.w3.org/2000/svg" width="25" height="25" viewBox="0 0 25 25">
  <path d="M 12.977 24.667 C 12.485 24.696 11.983 24.696 11.492 24.667 L 11.492 22.757 L 6.645 21.596 L 6.481 23.289 C 5.884 22.979 5.315 22.622 4.779 22.223 L 5.611 14.804 L 4 14.804 L 4.49 13.496 L 5.115 13.496 L 5.115 9.78 L 6.048 9.78 L 6.048 5.886 L 4.359 5.886 L 5.077 4.578 L 5.251 4.578 L 11.64 0 L 12.228 4.578 L 13.332 4.578 L 12.774 0.231 L 18.389 4.578 L 18.529 4.578 L 19.247 5.886 L 17.821 5.886 L 17.821 9.78 L 18.685 9.78 L 18.685 13.496 L 19.116 13.496 L 19.606 14.804 L 18.686 14.804 L 19.816 22.128 C 19.355 22.48 18.869 22.801 18.361 23.087 L 18.139 21.582 L 12.977 22.695 L 12.977 24.667 M 6.969 5.886 L 11.313 5.886 L 11.313 9.78 L 6.969 9.78 L 6.969 5.886 M 16.899 9.78 L 16.899 5.886 L 12.234 5.886 L 12.234 13.463 L 13.338 13.463 L 13.338 9.78 L 16.899 9.78 M 7.265 14.833 L 11.492 14.833 L 11.492 16.993 L 7.118 16.707 L 7.265 14.833 M 6.777 20.234 L 6.992 18.016 L 11.492 18.289 L 11.492 21.452 L 6.777 20.234 M 17.61 17.994 L 17.941 20.238 L 12.977 21.386 L 12.977 18.248 L 17.61 17.994 M 17.142 14.812 L 17.422 16.711 L 12.977 16.955 L 12.977 14.812 L 17.142 14.812" transform="matrix(1 0 0 1 0 0)" fill="#EBEBEB" stroke="none" />
</svg>
