<?xml version="1.0" encoding="UTF-8"?>
<!-- Reconstructed from Amplitude.Graphics.Svg.SvgAsset and recolored from static UIMapper.Color metadata for EWShop; not original source SVG. Live UI state/material colors are not included. -->
<svg xmlns="http://www.w3.org/2000/svg" width="25" height="25" viewBox="0 0 25 25">
  <path d="M 1.628 4.588 L 8.785 0 L 17.428 5.541 C 15.747 6.033 14.199 6.405 12.737 6.659 L 12.737 9.065 C 12.518 8.964 12.304 8.865 12.095 8.769 C 11.947 8.701 11.8 8.634 11.656 8.569 L 11.656 6.826 C 9.868 7.069 8.197 7.124 6.55 6.989 L 6.55 12.537 L 10.407 12.537 C 10.883 12.867 11.364 13.184 11.821 13.485 L 11.893 13.532 C 13.112 14.337 14.167 15.037 14.898 15.67 L 14.898 15.941 C 14.841 15.97 14.783 16 14.721 16.032 L 14.72 16.032 C 14.56 16.115 14.38 16.208 14.152 16.333 C 13.884 16.481 13.479 16.712 13.12 17.047 L 12.948 17.22 C 12.864 17.313 12.784 17.412 12.712 17.518 C 12.413 17.959 12.361 18.531 12.576 19.022 C 12.703 19.311 12.91 19.545 13.164 19.7 L 13.253 20.717 C 12.938 20.97 12.634 21.217 12.39 21.424 C 12.218 21.57 12.04 21.728 11.897 21.873 C 11.831 21.94 11.73 22.048 11.638 22.179 C 11.592 22.243 11.515 22.36 11.45 22.517 C 11.397 22.646 11.266 22.999 11.353 23.451 C 11.454 23.968 11.764 24.296 12.02 24.47 C 12.251 24.627 12.474 24.688 12.598 24.715 C 12.85 24.77 13.092 24.765 13.242 24.757 C 13.358 24.751 13.479 24.739 13.602 24.724 L 13.624 24.971 C 13.34 24.99 13.054 25 12.766 25 C 9.648 25 6.787 23.85 4.551 21.934 L 4.977 17.047 L 1.888 17.047 L 1.888 12.537 L 3.96 12.537 L 3.96 6.62 C 2.989 6.423 2.008 6.161 1 5.833 C 1.189 5.405 1.399 4.99 1.628 4.588" transform="matrix(1 0 0 1 0 0)" fill="#EBEBEB" stroke="none" />
  <path d="M 12.775 23.151 C 12.752 23.032 13.446 22.473 14.261 21.818 C 15.271 21.005 16.465 20.043 16.705 19.587 C 16.851 19.307 17.058 18.883 16.652 18.674 L 13.895 18.393 C 14.148 18.02 14.718 17.724 15.294 17.426 C 16.392 16.856 17.51 16.275 16.475 15.134 C 15.642 14.214 14.191 13.258 12.728 12.293 C 11.224 11.301 9.706 10.301 8.829 9.321 C 9.058 9.065 9.27 9.169 9.487 9.277 C 9.551 9.308 9.616 9.34 9.681 9.363 C 10.159 9.526 11.312 10.061 12.635 10.674 C 15.029 11.784 17.98 13.152 18.502 13.05 C 19.249 12.904 19.245 11.851 19.241 10.847 C 19.238 10.198 19.236 9.569 19.437 9.22 L 21.38 11.799 C 21.765 11.782 22.138 10.071 22.483 8.484 C 22.732 7.342 22.967 6.264 23.183 5.928 C 25.739 12.731 22.068 20.506 15.384 22.777 C 15.093 22.876 12.839 23.481 12.775 23.151" transform="matrix(1 0 0 1 0 0)" fill="#EBEBEB" stroke="none" />
</svg>
