<?xml version="1.0" encoding="UTF-8"?>
<!-- Reconstructed from Amplitude.Graphics.Svg.SvgAsset and recolored from static UIMapper.Color metadata for EWShop; not original source SVG. Live UI state/material colors are not included. -->
<svg xmlns="http://www.w3.org/2000/svg" width="25" height="26" viewBox="0 0 25 26">
  <path d="M 0 12.604 C 0 19.507 5.596 25.104 12.5 25.104 C 18.334 25.104 23.234 21.107 24.613 15.703 L 22.227 14.497 C 20.853 16.429 17.728 15.913 15.722 15.768 C 13.872 15.635 12.025 15.592 10.172 15.734 C 7.579 15.933 3.391 16.375 3.009 12.854 C 2.771 10.664 3.67 9.306 4.899 7.709 C 5.252 7.251 5.736 6.808 6.232 6.417 L 2.821 4.693 C 1.058 6.848 0 9.602 0 12.604 M 18.086 21.761 C 18.086 21.049 17.02 20.472 15.705 20.472 C 14.39 20.472 13.324 21.049 13.324 21.761 C 13.324 22.472 14.39 23.049 15.705 23.049 C 17.02 23.049 18.086 22.472 18.086 21.761 M 19.547 17.124 C 20.861 17.124 21.927 17.701 21.927 18.413 C 21.927 19.124 20.861 19.701 19.547 19.701 C 18.232 19.701 17.166 19.124 17.166 18.413 C 17.166 17.701 18.232 17.124 19.547 17.124 M 13.548 19.273 C 13.548 18.562 12.482 17.985 11.168 17.985 C 9.895 17.985 8.856 18.525 8.79 19.205 L 8.79 19.207 C 8.689 20.281 10.434 20.562 11.168 20.562 C 12.482 20.562 13.548 19.985 13.548 19.273 M 7.751 21.652 C 8.417 21.652 9.02 21.504 9.452 21.265 C 8.544 20.922 7.681 20.13 7.798 19.076 C 7.05 19.072 5.37 19.313 5.37 20.364 C 5.37 21.076 6.436 21.652 7.751 21.652" transform="matrix(1 0 0 1 0 0)" fill="#EBEBEB" stroke="none" />
  <path d="M 19.04 3.076 C 19.043 4.154 19.112 6.471 17.715 6.776 C 16.712 6.995 14.046 5.604 12.679 5.604 C 11.336 5.604 9.03 6.58 7.786 6.526 C 5.992 6.448 7.181 4.057 7.181 3.076 C 7.181 2.066 13.111 2.921 13.111 2.921 C 13.992 2.548 19.04 0.964 19.04 3.076 M 8.432 5.45 C 8.97 5.129 9.962 4.798 11.098 4.492 L 8.653 3.323 L 12.798 4.072 C 14.161 3.761 15.519 3.505 16.42 3.353 C 15.877 4.142 16.522 5.08 16.913 5.45 C 14.051 4.167 10.067 4.915 8.432 5.45" transform="matrix(1 0 0 1 0 0)" fill="#EBEBEB" stroke="none" />
  <path d="M 7.225 6.918 L 8.376 7.499 C 8.932 7.438 9.479 7.304 10.02 7.164 C 9.889 7.488 9.78 7.846 9.73 8.242 C 9.673 8.693 9.701 9.181 9.904 9.638 C 10.246 10.408 9.847 11.197 9.585 11.497 L 10.339 12.155 C 10.722 11.715 11.386 10.512 10.818 9.232 C 10.658 8.872 10.676 8.411 10.813 7.928 C 10.941 7.478 11.153 7.072 11.313 6.829 C 12.064 6.646 12.717 6.543 13.47 6.737 C 13.847 7.37 14.209 8.295 13.888 9.017 C 13.464 9.972 13.684 11.157 14.367 11.94 L 15.121 11.282 C 14.859 10.982 14.46 10.193 14.802 9.423 C 15.126 8.696 15.018 7.863 14.756 7.133 C 16.157 7.6 18.039 8.373 19.162 6.964 C 19.503 7.407 19.753 7.96 19.753 8.631 C 19.753 10.278 21.716 11.037 21.716 12.8 C 21.716 15.584 17.549 14.897 15.794 14.771 C 13.873 14.632 12.013 14.59 10.092 14.737 C 8.133 14.887 4.31 15.573 4.003 12.746 C 3.744 10.365 5.408 8.248 7.225 6.918 M 15.568 11.592 L 14.62 12.46 L 15.437 13.353 L 16.386 12.484 L 15.568 11.592 M 9.976 12.706 L 9.028 11.838 L 8.211 12.73 L 9.159 13.599 L 9.976 12.706" transform="matrix(1 0 0 1 0 0)" fill="#EBEBEB" stroke="none" />
</svg>
