<?xml version="1.0" encoding="UTF-8"?>
<!-- Reconstructed from Amplitude.Graphics.Svg.SvgAsset and recolored from static UIMapper.Color metadata for EWShop; not original source SVG. Live UI state/material colors are not included. -->
<svg xmlns="http://www.w3.org/2000/svg" width="25" height="25" viewBox="0 0 25 25">
  <path d="M 21.675 20.067 C 19.382 22.788 15.949 24.516 12.112 24.516 C 8.401 24.516 5.068 22.899 2.779 20.332 L 9.042 18.756 L 9.042 13.549 L 10.044 13.282 L 10.044 15.951 L 13.005 15.951 L 13.005 12.627 L 16.464 13.549 L 16.464 18.756 L 21.675 20.067" transform="matrix(1 0 0 1 0 0)" fill="#EBEBEB" stroke="none" />
  <path d="M 19.593 2 C 19.605 2.009 19.618 2.019 19.63 2.028 L 22.562 7.105 L 20.721 6.408 L 20.721 10.546 L 18.486 10.546 L 18.486 6.408 L 16.645 7.105 L 19.593 2" transform="matrix(1 0 0 1 0 0)" fill="#EBEBEB" stroke="none" />
  <path d="M 10.41 4.423 C 10.047 4.234 9.664 4.084 9.268 3.976 L 8.733 5.937 C 8.383 5.842 8.015 5.798 7.654 5.808 L 7.598 3.775 C 6.954 3.793 6.316 3.919 5.713 4.147 L 6.435 6.048 C 6.135 6.162 5.849 6.315 5.59 6.501 L 4.407 4.847 C 3.882 5.222 3.425 5.683 3.053 6.21 L 4.714 7.382 C 4.501 7.684 4.333 8.018 4.219 8.367 L 2.287 7.733 C 2.086 8.346 1.989 8.988 2.001 9.633 L 4.034 9.596 L 4.034 9.6 C 4.04 9.917 4.087 10.23 4.171 10.531 L 2.213 11.08 C 2.387 11.701 2.664 12.288 3.033 12.817 L 4.701 11.655 C 4.928 11.981 5.205 12.267 5.52 12.503 L 4.299 14.129 C 4.602 14.357 4.926 14.554 5.267 14.717 L 6.829 11.59 C 5.603 11.04 5.118 9.453 5.851 8.309 C 6.482 7.324 7.833 6.989 8.848 7.549 L 10.41 4.423" transform="matrix(1 0 0 1 0 0)" fill="#EBEBEB" stroke="none" />
  <path d="M 9.687 11.943 C 10.334 10.674 10.983 9.401 11.623 8.143 L 13.14 11.095 L 17.971 12.378 L 15.562 7.444 L 10.979 6.771 L 8.056 12.378 L 9.687 11.943" transform="matrix(1 0 0 1 0 0)" fill="#EBEBEB" stroke="none" />
</svg>
