<?xml version="1.0" encoding="UTF-8"?>
<!-- Reconstructed from Amplitude.Graphics.Svg.SvgAsset and recolored from static UIMapper.Color metadata for EWShop; not original source SVG. Live UI state/material colors are not included. -->
<svg xmlns="http://www.w3.org/2000/svg" width="25" height="25" viewBox="0 0 25 25">
  <path d="M 6.891 1 C 6.329 1.282 5.792 1.606 5.283 1.966 C 5.643 2.433 5.934 2.91 6.219 3.497 C 6.789 4.656 7.072 5.239 6.997 5.954 L 6.99 6.004 C 6.975 6.131 6.969 6.222 7.016 6.283 C 7.192 6.517 8.058 6.376 8.698 6.007 C 9.395 5.604 9.879 4.936 9.773 4.692 C 9.747 4.625 9.667 4.588 9.517 4.522 C 8.891 4.254 8.531 3.732 7.876 2.781 L 7.759 2.608 C 7.417 2.11 7.126 1.571 6.891 1" transform="matrix(1 0 0 1 0 0)" fill="#EBEBEB" stroke="none" />
  <path d="M 23.154 5.633 C 24.325 7.536 25 9.776 25 12.174 C 25 19.077 19.404 24.674 12.5 24.674 C 11.872 24.674 11.254 24.628 10.651 24.538 L 2 14.674 L 23.154 5.633 M 23.336 15.18 C 23.214 15.332 23.258 15.496 23.458 15.627 C 23.588 15.719 23.667 15.825 23.667 15.947 C 23.667 16.069 23.588 16.178 23.458 16.271 C 23.258 16.401 23.214 16.565 23.336 16.717 C 23.414 16.822 23.432 16.94 23.371 17.058 C 23.31 17.172 23.171 17.269 22.997 17.336 C 22.736 17.441 22.605 17.593 22.631 17.761 C 22.657 17.871 22.614 17.984 22.492 18.085 C 22.362 18.191 22.188 18.266 21.979 18.313 C 21.666 18.38 21.457 18.511 21.396 18.675 C 21.361 18.784 21.257 18.889 21.083 18.969 C 20.909 19.054 20.692 19.108 20.466 19.125 C 20.135 19.15 19.857 19.251 19.718 19.403 C 19.622 19.504 19.465 19.592 19.257 19.651 C 19.039 19.71 18.804 19.731 18.578 19.723 C 18.239 19.706 17.926 19.769 17.708 19.9 C 17.56 19.984 17.36 20.047 17.125 20.081 C 16.89 20.11 16.647 20.102 16.429 20.059 C 16.116 20.005 15.777 20.026 15.499 20.118 C 15.316 20.186 15.09 20.224 14.838 20.224 C 14.586 20.224 14.359 20.186 14.177 20.118 C 13.898 20.026 13.559 20.005 13.246 20.059 C 13.028 20.102 12.785 20.11 12.55 20.081 C 12.315 20.047 12.115 19.984 11.967 19.9 C 11.75 19.769 11.436 19.706 11.097 19.723 C 10.871 19.731 10.636 19.71 10.419 19.651 C 10.21 19.592 10.045 19.504 9.958 19.403 C 9.81 19.251 9.54 19.15 9.21 19.125 C 8.984 19.108 8.766 19.054 8.592 18.969 C 8.418 18.889 8.314 18.784 8.271 18.675 C 8.218 18.511 8.01 18.38 7.696 18.313 C 7.488 18.266 7.305 18.191 7.183 18.085 C 7.062 17.984 7.018 17.871 7.035 17.761 C 7.07 17.593 6.939 17.441 6.679 17.336 C 6.496 17.269 6.366 17.172 6.305 17.058 C 6.244 16.94 6.261 16.822 6.339 16.717 C 6.461 16.565 6.418 16.401 6.217 16.271 C 6.087 16.178 6 16.064 6 15.947 C 6 15.829 6.087 15.719 6.217 15.627 C 6.418 15.496 6.461 15.332 6.339 15.18 C 6.261 15.075 6.244 14.957 6.305 14.839 C 6.366 14.726 6.496 14.629 6.679 14.562 C 6.94 14.456 7.07 14.305 7.035 14.136 C 7.018 14.027 7.061 13.913 7.183 13.812 C 7.305 13.707 7.488 13.631 7.696 13.585 C 8.01 13.518 8.218 13.387 8.271 13.223 C 8.314 13.113 8.418 13.008 8.592 12.928 C 8.766 12.844 8.984 12.789 9.21 12.773 C 9.54 12.747 9.81 12.646 9.958 12.495 C 10.045 12.394 10.21 12.305 10.419 12.246 C 10.636 12.187 10.871 12.166 11.097 12.175 C 11.437 12.192 11.75 12.128 11.967 11.998 C 12.115 11.914 12.315 11.85 12.55 11.817 C 12.785 11.788 13.028 11.796 13.246 11.838 C 13.559 11.893 13.898 11.872 14.177 11.779 C 14.359 11.712 14.594 11.674 14.838 11.674 C 15.081 11.674 15.316 11.712 15.499 11.779 C 15.777 11.872 16.116 11.893 16.429 11.838 C 16.647 11.796 16.891 11.788 17.125 11.817 C 17.36 11.85 17.56 11.914 17.708 11.998 C 17.926 12.128 18.239 12.192 18.578 12.175 C 18.804 12.166 19.039 12.187 19.257 12.246 C 19.465 12.305 19.622 12.394 19.718 12.495 C 19.731 12.509 19.746 12.523 19.762 12.537 C 19.335 12.687 18.968 12.841 18.653 12.986 C 17.545 12.651 16.238 12.456 14.838 12.456 C 10.863 12.456 7.627 14.019 7.627 15.947 C 7.627 17.875 10.863 19.441 14.838 19.441 C 18.813 19.441 22.049 17.87 22.049 15.946 C 22.049 15.165 21.515 14.443 20.615 13.86 C 20.927 13.712 21.249 13.569 21.579 13.431 C 21.679 13.497 21.815 13.55 21.979 13.585 C 22.188 13.631 22.362 13.707 22.492 13.812 C 22.614 13.913 22.657 14.027 22.631 14.136 C 22.605 14.305 22.736 14.456 22.997 14.562 C 23.171 14.629 23.31 14.726 23.371 14.839 C 23.432 14.957 23.414 15.075 23.336 15.18 M 14.838 12.877 C 16 12.877 17.091 13.029 18.028 13.294 C 17.969 13.325 17.912 13.355 17.858 13.384 C 16.697 13.994 15.764 14.721 15.163 15.513 C 15.152 15.523 15.147 15.531 15.142 15.54 C 15.136 15.548 15.131 15.556 15.121 15.566 C 14.976 15.449 14.81 15.352 14.623 15.256 C 14.105 14.999 13.442 14.817 12.675 14.753 C 12.638 14.751 12.597 14.747 12.552 14.744 C 12.394 14.73 12.182 14.713 11.907 14.721 C 10.995 14.732 10.332 14.956 10 15.074 C 11.348 15.427 12.239 15.823 12.778 16.112 C 13.463 16.465 13.983 16.853 14.293 17.084 C 14.33 17.112 14.364 17.138 14.395 17.16 C 14.665 17.364 14.893 17.545 15.038 17.674 C 15.183 17.535 15.411 17.332 15.701 17.096 C 16.012 16.829 17.754 15.374 19.703 14.325 C 19.801 14.271 19.901 14.218 20.002 14.165 C 20.743 14.667 21.179 15.282 21.179 15.946 C 21.179 17.643 18.335 19.02 14.838 19.02 C 11.341 19.02 8.497 17.639 8.497 15.946 C 8.497 14.254 11.341 12.877 14.838 12.877" transform="matrix(1 0 0 1 0 0)" fill="#EBEBEB" stroke="none" />
  <path d="M 6.497 6.337 C 6.553 5.852 6.384 5.397 6.039 4.667 C 3.854 6.222 2.757 7.678 3.325 8.661 L 3.33 8.659 L 3.337 8.672 C 4.029 9.82 6.949 9.428 9.742 7.815 C 12.534 6.203 14.332 3.866 13.686 2.697 L 13.679 2.684 C 13.111 1.7 11.277 1.964 8.838 3.079 C 9.315 3.762 9.618 4.134 10.094 4.336 L 10.102 4.34 C 10.236 4.398 10.431 4.483 10.524 4.694 C 10.776 5.283 9.605 6.235 8.957 6.609 C 8.308 6.984 6.979 7.447 6.59 6.937 C 6.451 6.746 6.475 6.533 6.497 6.337" transform="matrix(1 0 0 1 0 0)" fill="#EBEBEB" stroke="none" />
  <path d="M 14.367 3.606 C 14.159 4.997 12.541 6.82 10.128 8.213 C 7.71 9.609 5.327 10.096 4.018 9.582 L 4.624 10.632 C 5.294 11.792 8.229 11.403 11.034 9.783 C 13.84 8.164 15.643 5.817 14.974 4.656 L 14.367 3.606" transform="matrix(1 0 0 1 0 0)" fill="#EBEBEB" stroke="none" />
</svg>
