<?xml version="1.0" encoding="UTF-8"?>
<!-- Reconstructed from Amplitude.Graphics.Svg.SvgAsset and recolored from static UIMapper.Color metadata for EWShop; not original source SVG. Live UI state/material colors are not included. -->
<svg xmlns="http://www.w3.org/2000/svg" width="26" height="26" viewBox="0 0 26 26">
  <path d="M 11.514 25.224 C 12.002 25.267 12.503 25.282 12.999 25.268 L 12.999 21.47 L 17.481 21.224 L 17.906 24.109 C 18.411 23.873 18.898 23.605 19.364 23.307 L 18.686 18.914 L 19.606 18.914 L 19.116 17.606 L 17.821 17.606 L 17.821 14.61 L 16.899 15.135 L 16.899 17.606 L 6.969 17.606 L 6.969 6.938 L 16.899 6.938 L 16.899 10.677 L 17.821 10.996 L 17.821 6.938 L 19.247 6.938 L 18.529 5.63 L 18.043 5.63 L 12.788 1.396 L 13.332 5.63 L 12.228 5.63 L 11.633 1 L 5.553 5.63 L 5.077 5.63 L 4.359 6.938 L 6.048 6.938 L 6.048 17.606 L 4.49 17.606 L 4 18.914 L 5.611 18.914 L 5.175 22.807 C 5.695 23.194 6.247 23.542 6.825 23.846 L 7.077 21.244 L 11.514 21.514 L 11.514 25.224 M 11.514 20.218 L 7.204 19.936 L 7.265 18.943 L 11.514 18.943 L 11.514 20.218 M 12.999 18.921 L 17.142 18.921 L 17.292 19.941 L 12.999 20.177 L 12.999 18.921" transform="matrix(1 0 0 1 0 0)" fill="#EBEBEB" stroke="none" />
  <path d="M 25.105 13.589 L 22.748 13.855 L 24.285 15.277 L 22.325 15.277 L 22.325 17.454 L 20.473 15.683 C 22.044 13.758 21.022 10.03 19.708 8.798 L 21.48 6.898 L 21.48 9.589 L 23.632 9.166 L 22.325 11.049 L 25.013 11.049 C 25.016 11.073 25.019 11.096 25.023 11.119 L 22.748 12.587 L 25.106 13.575 C 25.105 13.58 25.105 13.584 25.105 13.589" transform="matrix(1 0 0 1 0 0)" fill="#EBEBEB" stroke="none" />
  <path d="M 9.891 11.45 C 8.656 9.117 12.954 6.742 14.23 9.152 L 15.744 12.011 L 17.938 12.765 L 10.578 16.662 L 11.405 14.309 L 9.891 11.45" transform="matrix(1 0 0 1 0 0)" fill="#EBEBEB" stroke="none" />
</svg>
