<?xml version="1.0" encoding="UTF-8"?>
<!-- Reconstructed from Amplitude.Graphics.Svg.SvgAsset and recolored from static UIMapper.Color metadata for EWShop; not original source SVG. Live UI state/material colors are not included. -->
<svg xmlns="http://www.w3.org/2000/svg" width="25" height="25" viewBox="0 0 25 25">
  <path d="M 0.251 15.007 L 0.691 14.918 C 1.3 14.508 2.537 13.687 2.614 13.687 C 2.691 13.687 4.633 13.88 5.595 13.976 L 7.364 15.187 L 12.267 15.648 L 13.613 16.36 L 13.94 17.744 L 11.844 17.321 L 8.19 17.321 L 6.652 17.744 L 6.652 18.417 L 8.44 18.225 L 10.748 18.898 L 12.132 20.725 L 14.151 20.936 L 16.17 20.398 L 19.631 20.513 L 20.573 21.955 L 19.15 21.955 L 15.593 22.378 L 12.69 23.417 L 9.979 21.955 L 4.422 19.34 L 2.32 19.756 C 1.323 18.359 0.606 16.749 0.251 15.007 M 19.093 5.422 L 18.294 1.515 L 17.496 5.422 L 13.588 6.221 L 17.496 7.019 L 18.294 10.927 L 19.093 7.019 L 23 6.221 L 19.093 5.422 M 4.749 10.65 L 5.364 12.322 L 8.037 13.976 L 9.732 14.135 L 10.258 10.546 L 7.496 9.348 L 4.749 10.65 M 11.146 10.347 L 10.58 14.214 L 12.132 14.36 L 13.442 14.868 L 15.809 11.727 L 15.774 11.713 L 15.305 8.418 L 9.979 6.414 L 8.277 8.76 L 10.895 9.895 L 11.193 10.025 L 11.146 10.347 M 16.621 12.062 L 14.266 15.187 L 14.267 15.187 L 15.305 17.629 L 17.497 15.975 L 18.918 15.648 L 18.631 12.889 L 16.621 12.062 M 15.305 19.552 L 16.978 17.629 L 18.631 16.802 L 19.997 17.167 L 18.401 18.417 L 17.843 19.725 L 15.305 19.552 M 12.69 19.725 L 11.228 18.225 L 14.536 18.571 L 14.151 19.34 L 12.69 19.725 M 21.679 7.617 L 22.198 10.157 L 24.737 10.676 L 22.198 11.195 L 21.679 13.734 L 21.16 11.195 L 18.62 10.676 L 21.16 10.157 L 21.679 7.617" transform="matrix(1 0 0 1 0 0)" fill="#EBEBEB" stroke="none" />
</svg>
