<?xml version="1.0" encoding="UTF-8"?>
<!-- Reconstructed from Amplitude.Graphics.Svg.SvgAsset and recolored from static UIMapper.Color metadata for EWShop; not original source SVG. Live UI state/material colors are not included. -->
<svg xmlns="http://www.w3.org/2000/svg" width="25" height="26" viewBox="0 0 25 26">
  <path d="M 5.309 2.643 C 2.098 4.905 0 8.642 0 12.869 C 0 14.363 0.262 15.797 0.743 17.125 L 2.922 15.465 L 0.488 14.412 L 9.363 8.119 L 9.356 8.108 C 8.113 6.425 6.673 5.309 4.743 4.585 L 5.309 2.643" transform="matrix(1 0 0 1 0 0)" fill="#EBEBEB" stroke="none" />
  <path d="M 24.614 15.963 C 23.237 21.37 18.335 25.368 12.5 25.368 C 7.215 25.368 2.696 22.088 0.867 17.452 L 16.102 23.49 L 24.614 15.963" transform="matrix(1 0 0 1 0 0)" fill="#EBEBEB" stroke="none" />
  <path d="M 24.911 14.365 C 24.957 13.987 24.985 13.603 24.995 13.215 L 22.53 11.891 L 19.705 14.594 C 20.315 15.517 21.007 16.605 21.093 17.742 L 24.911 14.365" transform="matrix(1 0 0 1 0 0)" fill="#EBEBEB" stroke="none" />
  <path d="M 11.582 9.755 C 10.345 7.478 8.552 4.957 6.034 4 L 6.795 2 L 9.955 2.2 C 11.244 2.95 13.381 5.436 14.897 8.05 L 14.24 9.188 C 13.282 7.497 11.836 5.644 9.473 4.014 C 11.368 6.436 12.661 8.288 13.523 9.755 L 11.582 9.755" transform="matrix(1 0 0 1 0 0)" fill="#EBEBEB" stroke="none" />
  <path d="M 14.7 12.167 L 12.532 11.806 C 12.433 11.538 12.309 11.239 12.163 10.917 L 13.947 10.512 C 14.279 11.134 14.524 11.679 14.7 12.167" transform="matrix(1 0 0 1 0 0)" fill="#EBEBEB" stroke="none" />
  <path d="M 15.409 11.666 L 16.155 10.653 C 15.97 10.157 15.742 9.645 15.483 9.129 L 14.673 10.003 C 14.966 10.593 15.205 11.153 15.409 11.666" transform="matrix(1 0 0 1 0 0)" fill="#EBEBEB" stroke="none" />
  <path d="M 17.029 21.335 L 15.899 22.334 L 2.517 17.03 L 3.974 15.92 L 12.23 19.492 C 13.006 21.173 15.419 21.508 17.029 21.335" transform="matrix(1 0 0 1 0 0)" fill="#EBEBEB" stroke="none" />
  <path d="M 12.981 18.726 L 12.885 18.948 C 13.11 19.866 14.544 20.574 16.28 20.574 C 18.172 20.574 19.705 19.733 19.705 18.696 C 19.705 18.696 20.3 18.485 20.3 17.908 C 20.3 16.812 18.89 14.817 18.89 14.817 C 18.89 14.817 17.809 14.104 16.443 14.05 L 15.831 12.703 L 14.899 12.975 L 16.088 15.927 C 15.02 15.892 14.184 15.576 14.184 15.19 C 14.184 15.032 14.324 14.886 14.562 14.766 L 14.406 14.444 C 13.95 14.632 13.67 14.817 13.67 14.817 C 13.67 14.817 12.26 16.812 12.26 17.908 C 12.26 18.378 12.611 18.566 12.981 18.726 M 18.376 15.19 C 18.376 15.474 17.923 15.72 17.258 15.845 L 16.629 14.46 C 17.621 14.519 18.376 14.823 18.376 15.19" transform="matrix(1 0 0 1 0 0)" fill="#EBEBEB" stroke="none" />
</svg>
