<?xml version="1.0" encoding="UTF-8"?>
<!-- Reconstructed from Amplitude.Graphics.Svg.SvgAsset and recolored from static UIMapper.Color metadata for EWShop; not original source SVG. Live UI state/material colors are not included. -->
<svg xmlns="http://www.w3.org/2000/svg" width="25" height="25" viewBox="0 0 25 25">
  <path d="M 24.37 8.569 L 24.245 12.435 L 22.909 12.068 L 22.984 5.691 C 23.562 6.579 24.03 7.545 24.37 8.569 M 22.256 4.684 L 22.07 4.57 L 16.618 3.7 L 8.812 3.7 L 3.412 4.187 L 3.029 4.342 C 3.403 3.908 3.807 3.5 4.237 3.121 C 4.264 3.096 4.292 3.072 4.32 3.048 C 4.376 2.999 4.434 2.95 4.491 2.902 C 4.684 2.741 4.882 2.585 5.085 2.436 L 9.118 1.96 L 9.118 2.984 L 15.466 2.984 L 15.466 2.293 L 19.717 2.293 C 20.671 2.968 21.526 3.774 22.256 4.684 M 14.321 0.132 L 14.321 1.677 L 10.316 1.605 L 10.316 0.19 C 10.902 0.087 11.502 0.024 12.114 0.006 L 12.887 0.006 C 13.372 0.021 13.851 0.063 14.321 0.132 M 22.574 19.902 L 22.909 16.338 L 24.4 16.338 C 23.983 17.631 23.362 18.831 22.574 19.902 M 24.715 15.165 L 0.285 15.165 C 0.171 14.639 0.09 14.1 0.044 13.551 L 24.957 13.551 C 24.911 14.1 24.83 14.639 24.715 15.165 M 1.728 6.155 C 1.182 7.08 0.752 8.08 0.458 9.137 L 0.751 13.1 L 2.067 11.38 L 1.728 6.155 M 12.5 25 C 9.003 25 5.841 23.564 3.573 21.249 L 3.353 16.338 L 21.44 16.338 L 20.887 21.769 C 18.67 23.777 15.728 25 12.5 25 M 2.232 19.63 C 1.516 18.601 0.951 17.46 0.568 16.237 L 2.067 16.338 L 2.232 19.63 M 13.321 20.383 C 13.744 20.112 14.025 19.637 14.025 19.097 C 14.025 18.255 13.342 17.572 12.5 17.572 C 11.658 17.572 10.975 18.255 10.975 19.097 C 10.975 19.637 11.256 20.112 11.68 20.383 L 10.443 22.897 L 14.558 22.897 L 13.321 20.383 M 3.464 12.469 L 21.824 12.469 L 22.047 11.936 L 21.083 11.171 L 20.614 11.82 L 19.783 11.936 L 18.324 10.884 L 17.773 10.117 L 16.211 11.14 L 14.764 9.319 L 13.72 8.892 L 12.676 8.466 L 10.992 8.757 L 9.477 10.192 L 8.139 11.041 L 7.497 10.192 L 6.192 9.875 L 5.683 11.389 L 4.765 12.012 L 3.211 12.012 L 2.819 12.469 L 3.464 12.469 M 15.961 3.992 L 16.514 6.219 L 18.741 6.771 L 16.514 7.323 L 15.961 9.55 L 15.409 7.323 L 13.182 6.771 L 15.409 6.219 L 15.961 3.992 M 8.32 6.219 L 8.872 3.992 L 9.424 6.219 L 11.651 6.771 L 9.424 7.323 L 8.872 9.55 L 8.32 7.323 L 6.093 6.771 L 8.32 6.219 M 20.256 7.052 L 20.686 8.79 L 22.424 9.221 L 20.686 9.651 L 20.256 11.389 L 19.825 9.651 L 18.087 9.221 L 19.825 8.79 L 20.256 7.052 M 4.147 8.79 L 4.578 7.052 L 5.009 8.79 L 6.746 9.221 L 5.009 9.651 L 4.578 11.389 L 4.147 9.651 L 2.41 9.221 L 4.147 8.79" transform="matrix(1 0 0 1 0 0)" fill="#EBEBEB" stroke="none" />
</svg>
