<?xml version="1.0" encoding="UTF-8"?>
<!-- Reconstructed from Amplitude.Graphics.Svg.SvgAsset and recolored from static UIMapper.Color metadata for EWShop; not original source SVG. Live UI state/material colors are not included. -->
<svg xmlns="http://www.w3.org/2000/svg" width="25" height="25" viewBox="0 0 25 25">
  <path d="M 9.127 0.461 L 10.628 4.904 L 11.534 0.037 C 10.707 0.1 9.902 0.244 9.127 0.461 M 6.276 1.658 L 7.991 5.712 L 4.276 3.135 L 5.161 2.38 C 5.519 2.121 5.891 1.879 6.276 1.658 M 0.083 11.048 L 3.717 7.819 L 4.108 7.472 L 4.569 7.718 L 6.038 8.504 C 5.879 9.01 5.793 9.538 5.765 10.058 L 4.323 9.287 L 0.015 13.115 C 0.005 12.912 0 12.707 0 12.5 C 0 12.009 0.028 11.524 0.083 11.048 M 0.282 15.154 L 5.494 12.578 L 6.542 13.092 L 9.25 16.296 L 11.56 16.551 L 13.631 15.167 L 15.546 19.873 L 17.087 18.8 L 17.749 17.142 L 18.386 17.511 L 19.087 17.594 L 18.238 19.498 C 18.238 19.498 21.263 20.565 21.603 20.997 L 8.754 19.873 L 2.827 19.348 C 2.827 19.348 2.455 19.332 1.981 19.256 C 1.186 18.021 0.602 16.636 0.282 15.154 M 3.026 20.655 L 20.662 21.968 C 18.472 23.858 15.619 25 12.5 25 C 8.712 25 5.318 23.316 3.026 20.655 M 13.61 4.923 L 16.404 2.463 L 14.278 1.09 L 13.61 4.923 M 21.851 4.296 L 20.876 9.614 L 19.187 7.925 L 15.238 12.225 C 15.276 12.004 15.297 11.788 15.298 11.582 C 15.301 11.475 15.306 11.365 15.31 11.249 L 15.312 11.193 C 15.326 10.815 15.342 10.373 15.33 9.908 L 18.126 6.864 L 16.307 5.045 L 21.851 4.296 M 14.005 11.368 L 14.005 11.35 L 14.011 11.201 C 14.066 9.695 14.132 7.912 12.807 6.91 C 11.736 6.1 10.593 6.429 9.44 6.762 L 9.277 6.808 C 8.12 7.14 7.481 8.062 7.211 9.131 C 7.079 9.654 7.035 10.211 7.061 10.752 C 7.075 11.028 7.107 11.299 7.155 11.559 C 7.664 13.388 8.706 15.029 10.754 15.407 C 11.685 15.579 12.536 14.892 13.133 13.997 C 13.156 13.962 13.179 13.926 13.202 13.89 C 13.696 13.11 13.998 12.196 13.998 11.559 C 14 11.496 14.002 11.432 14.005 11.368 M 21.232 14.202 C 21.232 15.179 20.44 15.971 19.463 15.971 C 18.486 15.971 17.694 15.179 17.694 14.202 C 17.694 13.225 18.486 12.433 19.463 12.433 C 20.44 12.433 21.232 13.225 21.232 14.202 M 22.288 14.202 C 22.288 15.762 21.023 17.027 19.463 17.027 C 17.903 17.027 16.638 15.762 16.638 14.202 C 16.638 12.642 17.903 11.377 19.463 11.377 C 21.023 11.377 22.288 12.642 22.288 14.202" transform="matrix(1 0 0 1 0 0)" fill="#EBEBEB" stroke="none" />
</svg>
