<?xml version="1.0" encoding="UTF-8"?>
<!-- Reconstructed from Amplitude.Graphics.Svg.SvgAsset and recolored from static UIMapper.Color metadata for EWShop; not original source SVG. Live UI state/material colors are not included. -->
<svg xmlns="http://www.w3.org/2000/svg" width="25" height="26" viewBox="0 0 25 26">
  <path d="M 24.295 16.949 C 22.583 21.812 17.949 25.298 12.5 25.298 C 5.596 25.298 0 19.702 0 12.798 C 0 11.89 0.097 11.005 0.281 10.152 L 8 15.298 L 7 19.298 C 5.681 19.659 5 20.255 5 20.798 C 5 21.903 8.358 22.798 12.5 22.798 C 16.642 22.798 20 21.903 20 20.798 C 20 20.366 19.373 19.625 18.5 19.298 L 18 17.298 L 24.295 16.949" transform="matrix(1 0 0 1 0 0)" fill="#EBEBEB" stroke="none" />
  <path d="M 12.561 2 L 9 3.781 L 9 4.798 C 10.779 5.273 12.624 5.409 14.44 5.209 L 12.5 2.298 L 15.292 5.09 C 15.741 5.014 16.189 4.916 16.632 4.798 L 16.632 3.781 L 12.561 2" transform="matrix(1 0 0 1 0 0)" fill="#EBEBEB" stroke="none" />
  <path d="M 14.56 6.195 C 12.704 6.415 10.818 6.283 9 5.798 L 9 9.798 C 10.509 10.176 11.331 10.01 11.947 9.886 C 12.148 9.846 12.326 9.81 12.5 9.798 L 14 10.798 C 12.261 11.062 10.25 10.872 9 10.717 L 9 11.904 C 10.95 12.424 12.979 12.538 14.963 12.247 L 14.56 6.195" transform="matrix(1 0 0 1 0 0)" fill="#EBEBEB" stroke="none" />
  <path d="M 15.951 12.068 L 15.55 6.044 C 15.913 5.976 16.273 5.894 16.632 5.798 L 16.632 11.904 C 16.406 11.964 16.179 12.019 15.951 12.068" transform="matrix(1 0 0 1 0 0)" fill="#EBEBEB" stroke="none" />
  <path d="M 16.632 12.728 C 14.131 13.395 11.5 13.395 9 12.728 L 9 13.746 L 9.916 14.051 L 8 20.798 L 9 20.798 L 10.397 14.211 L 11.544 14.594 L 11.544 16.289 C 12.36 16.616 13.271 16.616 14.088 16.289 L 14.088 14.594 L 15.113 14.252 L 16.5 20.798 L 17.5 20.798 L 15.597 14.09 L 16.632 13.746 L 16.632 12.728" transform="matrix(1 0 0 1 0 0)" fill="#EBEBEB" stroke="none" />
  <path d="M 14.47 18.011 C 13.275 18.488 11.91 18.208 11 17.298 L 10.227 19.892 C 10.944 19.831 11.708 19.798 12.5 19.798 C 13.409 19.798 14.281 19.842 15.087 19.921 L 15 17.798 L 14.47 18.011" transform="matrix(1 0 0 1 0 0)" fill="#EBEBEB" stroke="none" />
</svg>
