<?xml version="1.0" encoding="UTF-8"?>
<!-- Reconstructed from Amplitude.Graphics.Svg.SvgAsset and recolored from static UIMapper.Color metadata for EWShop; not original source SVG. Live UI state/material colors are not included. -->
<svg xmlns="http://www.w3.org/2000/svg" width="25" height="25" viewBox="0 0 25 25">
  <path d="M 3.053 20.686 C 3.125 20.557 3.232 20.434 3.368 20.321 C 3.099 20.097 2.945 19.837 2.945 19.559 C 2.945 19.282 3.099 19.021 3.368 18.797 C 3.099 18.573 2.945 18.313 2.945 18.036 C 2.945 17.758 3.099 17.498 3.368 17.274 C 3.099 17.05 2.945 16.79 2.945 16.512 C 2.945 16.235 3.099 15.975 3.368 15.751 C 3.099 15.526 2.945 15.266 2.945 14.989 C 2.945 14.147 4.358 13.465 6.102 13.465 C 7.845 13.465 9.258 14.147 9.258 14.989 C 9.258 15.266 9.104 15.526 8.836 15.751 C 9.104 15.975 9.258 16.235 9.258 16.512 C 9.258 16.79 9.104 17.05 8.836 17.274 C 9.104 17.498 9.258 17.758 9.258 18.036 C 9.258 18.313 9.104 18.573 8.836 18.797 C 9.104 19.021 9.258 19.282 9.258 19.559 C 9.258 19.837 9.104 20.097 8.836 20.321 C 9.104 20.545 9.258 20.805 9.258 21.083 C 9.258 21.34 9.125 21.583 8.892 21.795 L 10.151 21.684 C 10.199 21.468 10.34 21.265 10.555 21.086 C 10.287 20.862 10.133 20.602 10.133 20.324 C 10.133 20.047 10.287 19.787 10.555 19.563 C 10.287 19.338 10.133 19.078 10.133 18.801 C 10.133 18.523 10.287 18.263 10.555 18.039 C 10.287 17.815 10.133 17.555 10.133 17.277 C 10.133 16.436 11.546 15.754 13.289 15.754 C 13.817 15.754 14.314 15.816 14.752 15.927 C 14.738 15.87 14.731 15.812 14.731 15.754 C 14.731 15.476 14.885 15.216 15.154 14.992 C 14.885 14.768 14.731 14.508 14.731 14.231 C 14.731 13.953 14.885 13.693 15.154 13.469 C 14.885 13.245 14.731 12.985 14.731 12.707 C 14.731 12.43 14.885 12.169 15.154 11.945 C 14.885 11.721 14.731 11.461 14.731 11.184 C 14.731 10.906 14.885 10.646 15.154 10.422 C 14.885 10.198 14.731 9.938 14.731 9.66 C 14.731 8.819 16.145 8.137 17.888 8.137 C 19.631 8.137 21.044 8.819 21.044 9.66 C 21.044 9.938 20.89 10.198 20.622 10.422 C 20.89 10.646 21.044 10.906 21.044 11.184 C 21.044 11.461 20.89 11.721 20.622 11.945 C 20.89 12.169 21.044 12.43 21.044 12.707 C 21.044 12.985 20.89 13.245 20.622 13.469 C 20.89 13.693 21.044 13.953 21.044 14.231 C 21.044 14.508 20.89 14.768 20.622 14.992 C 20.89 15.216 21.044 15.476 21.044 15.754 C 21.044 16.031 20.89 16.292 20.622 16.516 C 20.89 16.74 21.044 17 21.044 17.277 C 21.044 17.555 20.89 17.815 20.622 18.039 C 20.89 18.263 21.044 18.523 21.044 18.801 C 21.044 19.078 20.89 19.338 20.622 19.563 C 20.89 19.787 21.044 20.047 21.044 20.324 C 21.044 20.464 21.005 20.6 20.932 20.729 L 21.985 20.635 C 21.681 20.989 21.357 21.326 21.016 21.643 L 21.017 21.649 C 20.338 22.281 19.589 22.839 18.782 23.309 C 18.777 23.31 18.771 23.311 18.766 23.311 C 17.987 23.763 17.156 24.133 16.282 24.41 C 16.284 24.412 16.285 24.414 16.287 24.416 C 15.092 24.795 13.82 25 12.5 25 C 11.694 25 10.906 24.924 10.142 24.778 C 10.142 24.776 10.143 24.773 10.143 24.771 C 9.805 24.706 9.472 24.628 9.144 24.537 C 9.142 24.539 9.141 24.541 9.14 24.543 C 6.744 23.876 4.638 22.513 3.053 20.686" transform="matrix(1 0 0 1 0 0)" fill="#EBEBEB" stroke="none" />
  <path d="M 12.675 3.334 C 13.036 3.615 13.542 3.615 13.903 3.334 L 16.09 1.633 L 14.389 3.82 C 14.108 4.181 14.108 4.687 14.389 5.048 L 16.09 7.234 L 13.903 5.534 C 13.542 5.253 13.036 5.253 12.675 5.534 L 10.489 7.234 L 12.189 5.048 C 12.47 4.687 12.47 4.181 12.189 3.82 L 10.488 1.633 L 12.675 3.334" transform="matrix(1 0 0 1 0 0)" fill="#EBEBEB" stroke="none" />
  <path d="M 7.122 7.99 C 6.761 8.271 6.255 8.271 5.894 7.99 L 3.285 5.961 L 5.314 8.57 C 5.595 8.931 5.595 9.437 5.314 9.798 L 3.286 12.406 L 5.894 10.377 C 6.255 10.097 6.761 10.097 7.122 10.377 L 9.73 12.406 L 7.702 9.798 C 7.421 9.437 7.421 8.931 7.702 8.57 L 9.73 5.961 L 7.122 7.99" transform="matrix(1 0 0 1 0 0)" fill="#EBEBEB" stroke="none" />
</svg>
