<?xml version="1.0" encoding="UTF-8"?>
<!-- Reconstructed from Amplitude.Graphics.Svg.SvgAsset and recolored from static UIMapper.Color metadata for EWShop; not original source SVG. Live UI state/material colors are not included. -->
<svg xmlns="http://www.w3.org/2000/svg" width="25" height="25" viewBox="0 0 25 25">
  <path d="M 23.514 9.367 C 23.626 10.018 23.687 10.686 23.695 11.367 L 19.695 11.367 L 19.695 12 C 19.695 12.811 18.949 13.266 18.195 13.388 L 18.195 11.367 L 17.195 11.367 L 17.195 13.367 L 13.595 13.367 C 12.173 14.434 10.218 14.434 8.795 13.367 L 5.195 13.367 L 5.195 11.367 L 3.695 11.367 L 3.695 9.367 L 5.195 9.367 L 5.195 7.367 L 7.035 7.367 C 7.131 7.367 7.221 7.314 7.268 7.23 L 8.195 6.367 L 14.195 6.367 L 15.149 7.18 C 15.186 7.291 15.289 7.367 15.406 7.367 L 17.195 7.367 L 17.195 9.367 L 18.195 9.367 L 18.195 7.382 C 18.949 7.505 19.695 8.19 19.695 9 L 19.695 9.367 L 23.514 9.367" transform="matrix(1 0 0 1 0 0)" fill="#EBEBEB" stroke="none" />
  <path d="M 11.195 24 C 15.716 24 19.677 21.6 21.872 18.005 C 20.927 17.822 19.936 18.047 19.156 18.646 L 19.019 18.751 C 17.581 19.855 15.574 19.867 14.108 18.813 C 13.682 18.506 13.195 18.318 12.695 18.25 C 11.923 18.145 11.12 18.327 10.463 18.8 C 10.22 18.975 9.962 19.119 9.695 19.234 C 8.331 19.818 6.724 19.612 5.542 18.64 C 4.657 17.912 3.443 17.73 2.384 18.165 L 1 18.734 C 3.265 21.921 6.988 24 11.195 24" transform="matrix(1 0 0 1 0 0)" fill="#EBEBEB" stroke="none" />
  <path d="M 9.075 1.953 L 13.316 1.953 C 13.577 1.953 13.789 1.739 13.789 1.476 C 13.789 1.213 13.577 1 13.316 1 L 9.075 1 C 8.814 1 8.601 1.214 8.601 1.476 C 8.601 1.739 8.813 1.953 9.075 1.953" transform="matrix(1 0 0 1 0 0)" fill="#EBEBEB" stroke="none" />
  <path d="M 11.996 2.773 L 10.435 2.773 L 10.435 5.367 L 11.996 5.367 L 11.996 2.773" transform="matrix(1 0 0 1 0 0)" fill="#EBEBEB" stroke="none" />
  <path d="M 2.695 7 L 2.695 14 C 1.941 13.878 1.362 13.203 1.362 12.393 L 1.362 8.608 C 1.362 7.797 1.941 7.123 2.695 7" transform="matrix(1 0 0 1 0 0)" fill="#EBEBEB" stroke="none" />
  <path d="M 13.195 14.867 C 11.936 15.496 10.454 15.496 9.195 14.867 L 9.695 16.367 L 9.695 18.19 C 9.771 18.145 9.846 18.096 9.919 18.043 C 10.74 17.453 11.732 17.212 12.695 17.312 L 12.695 16.367 L 13.195 14.867" transform="matrix(1 0 0 1 0 0)" fill="#EBEBEB" stroke="none" />
</svg>
