<?xml version="1.0" encoding="UTF-8"?>
<!-- Reconstructed from Amplitude.Graphics.Svg.SvgAsset and recolored from static UIMapper.Color metadata for EWShop; not original source SVG. Live UI state/material colors are not included. -->
<svg xmlns="http://www.w3.org/2000/svg" width="25" height="25" viewBox="0 0 25 25">
  <path d="M 22.675 19.802 C 20.385 22.675 16.856 24.515 12.896 24.515 C 9.111 24.515 5.719 22.833 3.426 20.175 L 10.081 18.501 L 10.081 13.293 L 10.828 13.094 L 10.828 15.951 L 13.789 15.951 L 13.789 12.305 L 13.792 12.305 L 17.502 13.293 L 17.502 18.501 L 22.675 19.802" transform="matrix(1 0 0 1 0 0)" fill="#EBEBEB" stroke="none" />
  <path d="M 20.377 2 C 20.389 2.009 20.402 2.019 20.414 2.028 L 23.346 7.105 L 21.505 6.408 L 21.505 10.546 L 19.27 10.546 L 19.27 6.408 L 17.429 7.105 L 20.377 2" transform="matrix(1 0 0 1 0 0)" fill="#EBEBEB" stroke="none" />
  <path d="M 10.471 11.943 L 8.84 12.378 L 11.763 6.771 L 16.346 7.444 L 18.756 12.378 L 13.924 11.095 L 12.407 8.143 L 10.471 11.943" transform="matrix(1 0 0 1 0 0)" fill="#EBEBEB" stroke="none" />
  <path d="M 3.94 10.321 C 5.005 10.398 5.969 9.807 6.527 9.372 C 6.527 9.372 5.615 12.131 5.615 13.185 C 5.615 14.239 5.957 18.531 5.957 18.531 L 8.042 17.946 C 8.042 17.946 6.838 13.763 6.733 12.815 C 6.629 11.866 7.695 8.805 7.695 8.805 C 7.695 8.805 8.455 7.483 9.155 6.389 C 9.915 5.205 10.456 4.527 10.456 4.527 C 10.456 4.527 10.645 5.696 9.885 6.88 C 9.22 7.915 8.047 8.623 7.765 8.782 C 8.566 8.566 9.817 8.071 10.499 7.01 C 11.549 5.369 10.85 2.986 10.85 2.986 C 10.85 2.986 8.441 3.265 7.387 4.908 C 6.553 6.201 6.813 7.952 6.959 8.64 C 6.825 8.707 6.737 8.698 6.582 8.695 C 6.1 8.688 5.028 8.672 4.197 8.61 C 2.902 8.516 2.213 8.34 2.213 8.34 C 2.213 8.34 2.935 7.768 4.233 7.855 C 5.256 7.93 6.323 8.395 6.733 8.585 C 6.266 8.083 5.277 7.193 4.093 7.11 C 2.424 6.993 1 8.504 1 8.504 C 1 8.504 2.276 10.202 3.94 10.321" transform="matrix(1 0 0 1 0 0)" fill="#EBEBEB" stroke="none" />
</svg>
