<?xml version="1.0" encoding="UTF-8"?>
<!-- Reconstructed from Amplitude.Graphics.Svg.SvgAsset and recolored from static UIMapper.Color metadata for EWShop; not original source SVG. Live UI state/material colors are not included. -->
<svg xmlns="http://www.w3.org/2000/svg" width="25" height="25" viewBox="0 0 25 25">
  <path d="M 0.408 15.266 C 1.815 20.629 6.695 24.586 12.5 24.586 C 13.604 24.586 14.674 24.443 15.694 24.174 L 13.539 22.83 L 15.108 20.053 L 11.076 21.534 L 0.408 15.266" transform="matrix(1 0 0 1 0 0)" fill="#EBEBEB" stroke="none" />
  <path d="M 0.138 13.945 L 11.175 20.431 L 17.317 18.175 L 14.88 22.487 L 16.942 23.772 C 18.135 23.318 19.241 22.687 20.227 21.91 L 22.77 19.211 C 23.415 18.284 23.937 17.266 24.314 16.179 C 23.936 16.135 23.531 16.103 23.101 16.086 L 23.142 15.087 C 23.662 15.108 24.152 15.149 24.607 15.208 C 24.817 14.392 24.946 13.543 24.986 12.672 L 18.095 8.971 L 18.12 10.06 L 18.925 10.06 L 20.402 11.1 L 21.61 13.047 L 17.415 14.02 L 11.441 12.275 L 12.515 10.731 L 14.764 9.724 L 15.267 9.724 L 15.267 7.452 L 14.502 7.041 L 13.421 7.945 L 11.441 8.449 L 9.092 7.945 L 7.481 6.67 L 8.79 5.965 L 7.481 4.354 L 8.287 3.704 L 7.577 3.322 L 6.872 3.878 L 6.659 5.318 L 5.044 5.318 L 2.746 7.129 C 2.85 7.257 2.951 7.386 3.048 7.515 L 2.248 8.116 C 2.156 7.993 2.06 7.87 1.961 7.748 L 0.386 8.988 C 0.134 9.978 0 11.015 0 12.084 C 0 12.717 0.047 13.338 0.138 13.945 M 21.344 16.096 C 20.787 16.124 20.201 16.175 19.59 16.254 L 19.462 15.262 C 20.099 15.18 20.711 15.127 21.295 15.098 L 21.344 16.096 M 17.849 16.544 C 17.228 16.67 16.577 16.835 15.979 16.963 L 15.769 15.986 C 16.369 15.857 17.024 15.691 17.65 15.564 L 17.849 16.544 M 9.769 17.444 C 8.95 17.317 8.266 17.082 7.684 16.746 L 8.182 15.88 C 8.644 16.145 9.208 16.345 9.923 16.456 L 9.769 17.444 M 13.952 17.336 C 13.2 17.447 12.516 17.515 11.892 17.541 L 11.85 16.542 C 12.433 16.517 13.082 16.454 13.805 16.346 L 13.952 17.336 M 5.558 8.183 L 7.046 8.857 L 5.871 10.926 L 8.072 11.688 L 7.386 13.201 L 5.154 12.189 L 4.086 14.068 L 3.094 13.619 L 3.983 11.658 L 1.95 10.737 L 2.408 9.728 L 4.525 10.461 L 5.558 8.183" transform="matrix(1 0 0 1 0 0)" fill="#EBEBEB" stroke="none" />
  <path d="M 0.966 7.259 L 4.697 4.319 L 5.796 4.319 L 5.941 3.339 L 6.616 2.807 L 5.113 2 C 3.294 3.335 1.849 5.15 0.966 7.259" transform="matrix(1 0 0 1 0 0)" fill="#EBEBEB" stroke="none" />
  <path d="M 15.957 5.305 C 15.18 5.428 14.599 5.665 14.025 6.19 C 13.096 7.039 11.613 8.394 8.999 6.964 C 10.216 6.964 10.856 6.875 11.518 6.118 C 11.056 6.349 9.731 5.436 8.999 4.88 C 10.9 5.23 11.333 5.01 12.658 3.716 C 14.006 2.401 14.983 2.127 16.523 2.758 L 17.084 10.107 L 16.082 10.347 L 15.957 5.305" transform="matrix(1 0 0 1 0 0)" fill="#EBEBEB" stroke="none" />
  <path d="M 15.503 10.754 C 14.512 10.479 13.233 11.469 12.717 11.999 L 17.292 13.162 L 20.422 12.818 C 20.422 12.818 19.218 10.582 17.945 10.582 C 16.672 10.582 16.493 11.029 15.503 10.754" transform="matrix(1 0 0 1 0 0)" fill="#EBEBEB" stroke="none" />
</svg>
