<?xml version="1.0" encoding="UTF-8"?>
<!-- Reconstructed from Amplitude.Graphics.Svg.SvgAsset and recolored from static UIMapper.Color metadata for EWShop; not original source SVG. Live UI state/material colors are not included. -->
<svg xmlns="http://www.w3.org/2000/svg" width="25" height="25" viewBox="0 0 25 25">
  <path d="M 22.855 19.504 C 20.608 22.821 16.808 25.001 12.5 25.001 C 5.596 25.001 0 19.404 0 12.501 C 0 11.94 0.037 11.387 0.109 10.846 L 1.63 16.486 L 4.242 19.266 L 7.021 22.21 L 11.041 23.077 L 13.299 20.909 L 14.695 22.21 L 15.379 17.886 L 16.742 18.584 L 17.034 21.261 L 18.905 20.436 L 22.468 17.642 L 22.855 19.504" transform="matrix(1 0 0 1 0 0)" fill="#EBEBEB" stroke="none" />
  <path d="M 23.649 18.158 C 23.637 18.182 23.624 18.206 23.612 18.229 L 23.12 15.859 L 21.284 17.299 L 20.64 12.941 L 18.147 11.671 L 20.07 18.251 L 17.88 19.794 L 17.678 17.938 L 16.6 17.386 L 15.295 14.322 L 17.329 10.357 L 18.988 11.202 L 18.84 9.222 L 21.57 6.58 L 24.269 9.352 L 23.757 12.147 L 24.22 11.789 L 24.997 12.788 C 24.988 13.191 24.959 13.59 24.913 13.983 L 24.402 13.326 L 23.649 18.158 M 22.81 12.879 L 23.407 9.614 L 21.921 8.088 L 21.675 13.755 L 22.81 12.879 M 20.166 9.052 L 21.118 8.13 L 21.075 9.125 L 20.166 9.052 M 23.599 13.279 L 22.551 14.089 L 23.446 14.263 L 23.599 13.279 M 17.401 11.97 L 16.496 13.734 L 17.819 13.4 L 17.401 11.97" transform="matrix(1 0 0 1 0 0)" fill="#EBEBEB" stroke="none" />
  <path d="M 22.766 5.366 L 18.544 3.281 L 17.747 2.495 L 16.661 2.446 L 15.357 3.114 L 14.589 2.446 L 13.263 2.014 L 13.03 3.79 L 12.485 4.004 L 11.381 3.114 L 4.177 4.067 L 3.712 4.944 L 2.369 5.702 L 1.252 7.04 C 3.279 2.872 7.554 0 12.5 0 C 16.752 0 20.508 2.123 22.766 5.366" transform="matrix(1 0 0 1 0 0)" fill="#EBEBEB" stroke="none" />
  <path d="M 12.969 8.904 L 10.422 4.354 L 5.943 6.843 L 5.382 9.81 L 3.332 7.964 L 1.048 10.487 L 1.295 11.405 L 2.983 9.541 L 3.044 12.23 L 1.512 12.207 L 2.53 15.983 L 3.938 17.481 L 3.853 12.629 L 3.781 9.445 L 7.071 12.406 L 6.673 16.788 L 5.864 19.527 L 7.535 21.298 L 8.721 21.553 L 10.885 16.218 L 11.887 13.952 L 13.243 17.166 L 10.604 21.959 L 12.365 20.419 L 14.13 17.213 L 12.11 12.42 L 11.101 12.841 L 12.969 8.904 M 10.371 5.9 L 7.743 14.245 L 9.997 13.303 L 12.069 8.934 L 10.371 5.9 M 7.269 7.021 L 9.585 5.734 L 8.987 7.633 L 7.269 7.021 M 8.68 14.721 L 11.124 13.699 L 10.319 15.52 L 8.68 14.721" transform="matrix(1 0 0 1 0 0)" fill="#EBEBEB" stroke="none" />
</svg>
