<?xml version="1.0" encoding="UTF-8"?>
<!-- Reconstructed from Amplitude.Graphics.Svg.SvgAsset and recolored from static UIMapper.Color metadata for EWShop; not original source SVG. Live UI state/material colors are not included. -->
<svg xmlns="http://www.w3.org/2000/svg" width="25" height="25" viewBox="0 0 25 25">
  <path d="M 11.5 0.039 L 11.5 4.212 C 10.827 4.292 10.179 4.452 9.565 4.683 L 9.565 8.484 L 7.426 8.484 L 7.282 18.664 L 9.422 18.664 L 9.422 20.262 C 10.078 20.522 10.775 20.702 11.5 20.788 L 11.5 24.961 C 11.83 24.987 12.163 25 12.5 25 C 12.837 25 13.17 24.987 13.5 24.961 L 13.5 20.788 C 15.056 20.603 16.481 19.989 17.653 19.068 L 20.604 22.018 C 21.112 21.585 21.585 21.112 22.018 20.604 L 19.068 17.653 C 19.989 16.481 20.603 15.056 20.788 13.5 L 24.961 13.5 C 24.987 13.17 25 12.837 25 12.5 C 25 12.163 24.987 11.83 24.961 11.5 L 20.788 11.5 C 20.603 9.944 19.989 8.519 19.068 7.347 L 22.018 4.396 C 21.585 3.888 21.112 3.415 20.604 2.982 L 17.653 5.932 C 16.481 5.011 15.056 4.397 13.5 4.212 L 13.5 0.039 C 13.17 0.013 12.837 0 12.5 0 C 12.163 0 11.83 0.013 11.5 0.039 M 15.618 14.288 C 14.709 14.198 13.999 13.432 13.999 12.499 C 13.999 11.567 14.709 10.801 15.618 10.711 C 15.921 11.238 16.094 11.848 16.094 12.499 C 16.094 13.15 15.921 13.761 15.618 14.288 M 10.711 15.617 C 11.238 15.92 11.849 16.093 12.5 16.093 C 13.151 16.093 13.761 15.92 14.287 15.618 C 14.198 14.709 13.431 13.999 12.499 13.999 C 11.567 13.999 10.801 14.709 10.711 15.617 M 9.382 10.711 C 9.079 11.238 8.906 11.848 8.906 12.499 C 8.906 13.15 9.079 13.761 9.382 14.287 C 10.29 14.197 10.999 13.431 10.999 12.499 C 10.999 11.568 10.29 10.801 9.382 10.711 M 14.287 9.381 C 13.761 9.079 13.151 8.906 12.5 8.906 C 11.849 8.906 11.238 9.079 10.711 9.382 C 10.801 10.29 11.567 10.999 12.499 10.999 C 13.431 10.999 14.198 10.29 14.287 9.381" transform="matrix(1 0 0 1 0 0)" fill="#EBEBEB" stroke="none" />
  <path d="M 5.694 2.013 C 6.158 2.541 6.44 3.234 6.44 3.992 L 6.44 4.066 L 8.565 4.066 L 8.565 7.484 L 6.44 7.484 L 6.267 19.664 L 8.422 19.664 L 8.422 23.484 L 6.528 23.484 C 4.825 22.556 3.362 21.244 2.255 19.664 L 2.965 19.664 L 2.965 4.417 C 3.751 3.49 4.671 2.679 5.694 2.013" transform="matrix(1 0 0 1 0 0)" fill="#EBEBEB" stroke="none" />
  <path d="M 17.111 0.878 C 16.362 0.619 15.532 0.99 15.231 1.734 C 14.921 2.502 15.292 3.377 16.06 3.687 C 16.828 3.997 17.703 3.626 18.013 2.858 C 18.313 2.114 17.975 1.271 17.256 0.937 C 17.208 0.917 17.16 0.897 17.111 0.878" transform="matrix(1 0 0 1 0 0)" fill="#EBEBEB" stroke="none" />
  <path d="M 23.261 15.226 C 24.029 15.536 24.4 16.41 24.09 17.178 C 23.779 17.947 22.905 18.318 22.137 18.007 C 21.369 17.697 20.998 16.823 21.308 16.055 C 21.619 15.287 22.493 14.915 23.261 15.226" transform="matrix(1 0 0 1 0 0)" fill="#EBEBEB" stroke="none" />
  <path d="M 15.231 23.258 C 15.541 24.026 16.415 24.397 17.184 24.086 C 17.952 23.776 18.323 22.902 18.012 22.134 C 17.702 21.366 16.828 20.995 16.06 21.305 C 15.292 21.615 14.921 22.489 15.231 23.258" transform="matrix(1 0 0 1 0 0)" fill="#EBEBEB" stroke="none" />
  <path d="M 23.261 9.768 C 24.029 9.457 24.4 8.583 24.09 7.815 C 23.779 7.047 22.905 6.676 22.137 6.986 C 21.369 7.296 20.998 8.171 21.308 8.939 C 21.619 9.707 22.493 10.078 23.261 9.768" transform="matrix(1 0 0 1 0 0)" fill="#EBEBEB" stroke="none" />
</svg>
