<?xml version="1.0" encoding="UTF-8"?>
<!-- Reconstructed from Amplitude.Graphics.Svg.SvgAsset and recolored from static UIMapper.Color metadata for EWShop; not original source SVG. Live UI state/material colors are not included. -->
<svg xmlns="http://www.w3.org/2000/svg" width="25" height="25" viewBox="0 0 25 25">
  <path d="M 23.921 17.589 C 23.537 18.448 23.059 19.257 22.501 20.001 C 22.048 20.453 20.103 21.12 17.837 21.572 L 17.936 20.233 L 16.545 19.204 L 15 20.355 L 15.537 21.934 C 15.196 21.972 14.855 22.003 14.52 22.025 L 14.594 21.807 L 12.442 20.204 C 12.889 19.968 13.207 19.363 13.207 18.655 C 13.207 17.741 12.678 17 12.025 17 C 11.372 17 10.842 17.741 10.842 18.655 C 10.842 19.541 11.339 20.264 11.964 20.308 L 10.185 21.624 L 10.216 22.044 C 9.702 22.054 9.186 22.011 8.678 21.928 L 8.678 21.427 L 9.435 19.2 L 8.003 18.133 C 8.3 17.976 8.512 17.574 8.512 17.102 C 8.512 16.493 8.159 16 7.725 16 C 7.29 16 6.938 16.493 6.938 17.102 C 6.938 17.692 7.268 18.173 7.684 18.203 L 6.5 19.079 L 6.606 20.515 L 6.355 21.288 C 5.868 21.102 5.405 20.894 4.979 20.68 L 4.979 19.128 L 5.974 16.204 L 4.092 14.802 C 4.483 14.595 4.761 14.067 4.761 13.448 C 4.761 12.648 4.298 12 3.727 12 C 3.156 12 2.693 12.648 2.693 13.448 C 2.693 14.222 3.127 14.854 3.674 14.893 L 2.118 16.044 L 2.258 17.931 L 1.879 19.095 C 0.688 17.18 0 14.921 0 12.5 C 0 11.701 0.075 10.92 0.218 10.162 C 0.918 10.753 1.765 11.367 2.746 11.974 L 2 9.782 L 3.693 8.521 C 3.504 8.421 3.343 8.236 3.236 8 C 3.145 7.798 3.092 7.559 3.092 7.302 C 3.092 6.583 3.508 6 4.022 6 C 4.503 6 4.9 6.512 4.947 7.169 C 4.95 7.213 4.952 7.257 4.952 7.302 C 4.952 7.559 4.899 7.798 4.807 8 C 4.65 8.346 4.38 8.581 4.07 8.603 L 5.469 9.639 L 5.344 11.336 L 6.255 13.829 C 6.974 14.153 7.732 14.464 8.527 14.757 L 8.606 14.515 L 8.5 13.079 L 9.684 12.203 C 9.268 12.173 8.938 11.692 8.938 11.102 C 8.938 10.493 9.29 10 9.725 10 C 10.159 10 10.512 10.493 10.512 11.102 C 10.512 11.574 10.3 11.976 10.003 12.133 L 11.435 13.2 L 10.678 15.427 L 10.678 15.475 C 12.035 15.882 13.48 16.232 15 16.5 C 15.032 16.506 15.075 16.516 15.126 16.529 C 15.371 16.59 15.799 16.696 16 16.5 C 16.206 16.299 16.579 16.396 16.828 16.461 C 16.897 16.479 16.957 16.494 17 16.5 C 17.231 16.531 17.826 16.71 18 17 C 18.129 17.215 18.426 17.359 18.684 17.436 L 18.716 17.336 L 18.591 15.639 L 19.99 14.603 C 19.499 14.568 19.108 13.999 19.108 13.302 C 19.108 12.583 19.525 12 20.038 12 C 20.552 12 20.969 12.583 20.969 13.302 C 20.969 13.86 20.718 14.335 20.367 14.521 L 22.06 15.782 L 21.412 17.688 C 22.205 17.726 22.99 17.713 23.921 17.589 M 16.711 19.204 C 17.145 19.204 17.498 18.711 17.498 18.102 C 17.498 17.493 17.145 17 16.711 17 C 16.276 17 15.923 17.493 15.923 18.102 C 15.923 18.711 16.276 19.204 16.711 19.204" transform="matrix(1 0 0 1 0 0)" fill="#EBEBEB" stroke="none" />
  <path d="M 14 0.089 L 14 1.75 C 13.984 1.776 13.968 1.802 13.953 1.828 C 13.887 1.939 13.83 2.056 13.783 2.177 L 12.64 1.871 L 11.968 1.302 L 9.659 1.302 L 10.036 4.693 L 10.801 4.904 L 11.113 6.789 L 11.921 8 L 5.864 8 C 5.922 7.775 5.952 7.54 5.952 7.302 C 5.952 6.758 5.796 6.224 5.493 5.8 C 5.192 5.378 4.685 5 4.022 5 C 3.358 5 2.852 5.378 2.55 5.8 C 2.248 6.224 2.092 6.758 2.092 7.302 C 2.092 7.54 2.121 7.775 2.18 8 L 1 8 L 1 7.593 C 2.907 3.129 7.338 0 12.5 0 C 13.008 0 13.508 0.03 14 0.089" transform="matrix(1 0 0 1 0 0)" fill="#EBEBEB" stroke="none" />
  <path d="M 6.432 23.431 C 7.654 23.822 8.978 24.073 10.309 24.042 L 10.205 24.79 C 8.859 24.54 7.589 24.075 6.432 23.431" transform="matrix(1 0 0 1 0 0)" fill="#EBEBEB" stroke="none" />
  <path d="M 18.529 23.453 C 18.495 23.471 18.461 23.49 18.427 23.508 L 18.417 23.477 C 18.454 23.469 18.492 23.461 18.529 23.453" transform="matrix(1 0 0 1 0 0)" fill="#EBEBEB" stroke="none" />
  <path d="M 18.379 23.534 C 16.91 24.318 15.266 24.818 13.522 24.959 L 13.828 24.059 C 15.236 24.024 16.737 23.823 18.145 23.534 L 18.379 23.534" transform="matrix(1 0 0 1 0 0)" fill="#EBEBEB" stroke="none" />
  <path d="M 14.202 6.702 L 12.706 7.015 L 12.255 6.338 L 11.859 3.951 L 11.139 3.752 L 11 2.502 L 11.528 2.502 L 12.07 2.96 L 12.848 3.169 L 13.254 5.531 L 13.724 4.825 L 13.717 4.797 L 13.745 4.794 L 13.748 4.79 L 14.1 4.758 L 15.898 4.579 L 17.367 5.604 L 17.363 5.629 L 17.391 5.61 L 18.637 7.376 L 18.499 8.969 L 16.957 10.286 L 17.759 14 C 17.755 14.002 17.664 14.042 17.515 14.102 C 17.16 14.245 16.475 14.498 15.838 14.605 C 15.653 14.636 15.471 14.655 15.304 14.655 C 14.311 14.655 12.848 14 12.848 14 L 14.396 7.462 L 14.202 6.702 M 16.882 9.326 L 17.793 8.368 L 17.88 7.607 L 17.153 6.75 L 16.819 8.529 L 16.882 9.326" transform="matrix(1 0 0 1 0 0)" fill="#EBEBEB" stroke="none" />
  <path d="M 15.829 4.57 C 15.323 4.615 14.861 4.077 14.799 3.368 C 14.744 2.747 15.012 2.202 15.419 2.045 C 15.456 2.031 15.493 2.02 15.532 2.013 C 15.555 2.008 15.578 2.005 15.602 2.003 C 16.108 1.958 16.57 2.496 16.633 3.205 C 16.645 3.349 16.641 3.488 16.621 3.62 C 16.595 3.794 16.543 3.954 16.47 4.091 C 16.452 4.125 16.432 4.158 16.412 4.19 C 16.316 4.333 16.196 4.444 16.057 4.509 C 16.014 4.529 15.969 4.545 15.923 4.556 L 15.912 4.558 L 15.897 4.561 C 15.875 4.565 15.852 4.568 15.829 4.57" transform="matrix(1 0 0 1 0 0)" fill="#EBEBEB" stroke="none" />
</svg>
