<?xml version="1.0" encoding="UTF-8"?>
<!-- Reconstructed from Amplitude.Graphics.Svg.SvgAsset and recolored from static UIMapper.Color metadata for EWShop; not original source SVG. Live UI state/material colors are not included. -->
<svg xmlns="http://www.w3.org/2000/svg" width="25" height="25" viewBox="0 0 25 25">
  <path d="M 19.481 22.871 C 20.335 20.84 18.994 17.144 18.587 15.083 L 17.563 16.235 L 15.97 15.983 L 13.705 14.138 L 13.034 11.496 L 14.544 12.964 L 14.564 12.976 L 16.389 14.138 L 18.984 10.156 L 20.278 9.402 L 20.278 8.532 L 19.29 8.582 L 18.514 7.282 L 18.341 6.236 L 18.341 4.067 L 19.581 3.359 L 21.026 3.359 C 21.208 3.529 21.385 3.704 21.556 3.884 L 21.889 5.477 L 21.447 7.04 L 21.625 8.647 L 21.844 8.524 L 24.996 12.191 C 25.099 16.426 22.993 20.502 19.481 22.871" transform="matrix(1 0 0 1 0 0)" fill="#EBEBEB" stroke="none" />
  <path d="M 0.803 16.917 C 1.207 17.986 1.753 18.985 2.418 19.891 L 3.557 20.499 L 7.64 19.125 L 13.745 15.46 L 12.817 14.704 L 12.673 14.135 L 7.64 17.219 L 3.557 18.209 L 0.803 16.917" transform="matrix(1 0 0 1 0 0)" fill="#EBEBEB" stroke="none" />
  <path d="M 0.32 15.322 L 3.436 17.062 L 7.048 16.323 L 12.378 12.972 L 11.5 9.516 C 8.757 7.735 4.879 6.248 2.762 5.756 L 1.658 6.274 C 0.603 8.107 0 10.233 0 12.5 C 0 13.47 0.111 14.415 0.32 15.322" transform="matrix(1 0 0 1 0 0)" fill="#EBEBEB" stroke="none" />
  <path d="M 5.162 4.631 L 11.719 1.555 L 14.824 1.899 L 18.013 3.187 L 17.487 3.628 L 17.379 4.347 L 11.892 1.978 C 9.711 2.221 8.641 4.035 8.28 5.199 C 8.804 5.212 9.464 5.274 10.212 5.429 L 10.72 4.223 L 12.19 2.786 L 13.688 3.222 L 14.489 4.746 L 13.657 6.353 L 13.106 6.836 C 13.655 7.475 13.967 8.136 15.339 8.419 C 16.475 8.139 17.095 7.34 17.405 6.479 L 17.86 8.34 L 18.562 9.085 L 15.806 10.818 L 12.242 7.309 L 11.097 6.273 L 8.506 5.754 L 5.162 4.631" transform="matrix(1 0 0 1 0 0)" fill="#EBEBEB" stroke="none" />
  <path d="M 16.876 11.559 L 15.512 12.394 L 16.091 12.763 L 16.876 11.559" transform="matrix(1 0 0 1 0 0)" fill="#EBEBEB" stroke="none" />
</svg>
