<?xml version="1.0" encoding="UTF-8"?>
<!-- Reconstructed from Amplitude.Graphics.Svg.SvgAsset and recolored from static UIMapper.Color metadata for EWShop; not original source SVG. Live UI state/material colors are not included. -->
<svg xmlns="http://www.w3.org/2000/svg" width="25" height="26" viewBox="0 0 25 26">
  <path d="M 0.099 11.282 C 0.034 11.801 0 12.329 0 12.865 C 0 14.049 0.165 15.194 0.472 16.28 L 4.788 16.662 L 6.381 12.904 L 4.283 9.861 L 3.208 9.334 L 0.099 11.282" transform="matrix(1 0 0 1 0 0)" fill="#EBEBEB" stroke="none" />
  <path d="M 21.655 4.465 L 18.298 5.102 C 17.627 5.704 16.894 7.079 16.26 8.712 L 17.298 9.639 C 17.721 8.776 18.219 7.969 18.781 7.35 C 18.435 8.061 18.136 8.875 17.883 9.708 L 20.301 9.629 C 21.11 8.357 22.116 7.188 23.24 6.465 C 22.807 5.741 22.189 5.115 21.655 4.465" transform="matrix(1 0 0 1 0 0)" fill="#EBEBEB" stroke="none" />
  <path d="M 23.219 19.298 L 0.815 17.313 C 2.608 22.019 7.164 25.364 12.5 25.364 C 17.05 25.364 21.033 22.932 23.219 19.298" transform="matrix(1 0 0 1 0 0)" fill="#EBEBEB" stroke="none" />
  <path d="M 11.932 8.288 C 11.982 6.676 12.179 4.63 10.71 3.519 C 9.559 2.648 8.328 3.06 7.089 3.414 C 5.024 4.005 4.568 6.432 4.912 8.288 C 5.434 10.164 6.503 11.848 8.604 12.236 C 10.415 12.571 11.932 9.735 11.932 8.288" transform="matrix(1 0 0 1 0 0)" fill="#EBEBEB" stroke="none" />
  <path d="M 13.636 15.573 L 11.556 11.99 L 9.431 13.41 L 7.061 13.148 L 6.552 16.818 L 17.99 17.832 C 17.641 17.389 16.86 17.186 16.364 16.938 L 16.644 15.645 L 16.025 15.886 L 15.613 15.517 L 15.446 16.479 L 13.636 15.573" transform="matrix(1 0 0 1 0 0)" fill="#EBEBEB" stroke="none" />
  <path d="M 18.298 14.466 L 16.854 15.027 C 16.878 14.566 16.963 13.852 17.108 13.013 C 17.352 12.962 18.161 12.743 18.83 12.559 C 18.561 13.271 18.378 13.929 18.298 14.466" transform="matrix(1 0 0 1 0 0)" fill="#EBEBEB" stroke="none" />
  <path d="M 15.699 14.727 L 14.786 14.104 C 14.878 13.497 15.009 12.85 15.17 12.19 L 16.13 12.708 C 15.899 13.517 15.751 14.232 15.699 14.727" transform="matrix(1 0 0 1 0 0)" fill="#EBEBEB" stroke="none" />
  <path d="M 16.353 11.984 L 15.396 11.323 C 15.548 10.78 15.716 10.236 15.897 9.707 L 16.93 10.444 C 16.711 10.96 16.518 11.482 16.353 11.984" transform="matrix(1 0 0 1 0 0)" fill="#EBEBEB" stroke="none" />
  <path d="M 17.617 10.654 C 17.804 10.652 19.102 10.464 19.868 10.35 C 19.583 10.855 19.329 11.367 19.113 11.864 L 17.27 12.155 C 17.368 11.672 17.484 11.166 17.617 10.654" transform="matrix(1 0 0 1 0 0)" fill="#EBEBEB" stroke="none" />
</svg>
