<?xml version="1.0" encoding="UTF-8"?>
<!-- Reconstructed from Amplitude.Graphics.Svg.SvgAsset and recolored from static UIMapper.Color metadata for EWShop; not original source SVG. Live UI state/material colors are not included. -->
<svg xmlns="http://www.w3.org/2000/svg" width="25" height="25" viewBox="0 0 25 25">
  <path d="M 21.922 19.802 C 19.631 22.675 16.102 24.515 12.143 24.515 C 8.357 24.515 4.965 22.833 2.673 20.175 L 9.327 18.501 L 9.327 13.293 L 10.075 13.094 L 10.075 15.951 L 13.036 15.951 L 13.036 12.305 L 13.038 12.305 L 16.749 13.293 L 16.749 18.501 L 21.922 19.802" transform="matrix(1 0 0 1 0 0)" fill="#EBEBEB" stroke="none" />
  <path d="M 19.623 2 C 19.636 2.009 19.648 2.019 19.661 2.028 L 22.592 7.105 L 20.752 6.408 L 20.752 10.546 L 18.516 10.546 L 18.516 6.408 L 16.676 7.105 L 19.623 2" transform="matrix(1 0 0 1 0 0)" fill="#EBEBEB" stroke="none" />
  <path d="M 7.563 6.569 C 7.643 6.428 8.609 4.811 8.663 4.91 C 9.253 6.04 8.782 7.444 8.666 8.632 L 9.405 7.142 C 9.591 6.4 10.543 3.41 9.319 3.01 C 8.298 2.676 7.538 4.932 7.225 5.577 L 7.563 6.569" transform="matrix(1 0 0 1 0 0)" fill="#EBEBEB" stroke="none" />
  <path d="M 8.471 9.026 L 8.201 8.719 L 7.772 8.805 C 7.036 7.549 4.783 3.056 3.114 4.022 C 1.353 5.041 4.524 8.143 5.223 8.838 L 5.456 8.653 C 5.248 8.301 3.643 5.49 4.298 5.311 C 5.287 5.042 6.79 8.044 7.349 8.89 L 6.515 9.058 L 6.389 9.431 C 4.539 9.628 1.643 9.49 0.273 10.834 C -1.602 12.673 6.802 12.769 6.64 12.718 L 6.863 12.267 C 5.208 12.06 3.509 11.87 1.952 11.235 C 0.727 10.736 5.765 10.049 6.206 9.975 L 5.966 10.688 L 7.041 11.908 L 8.471 9.026" transform="matrix(1 0 0 1 0 0)" fill="#EBEBEB" stroke="none" />
  <path d="M 4.04 13.406 L 4.995 13.406 C 4.59 13.904 4.176 14.4 3.825 14.938 C 3.498 15.44 3.738 15.418 4.199 15.272 C 5.203 14.953 6.166 14.456 7.091 13.961 L 7.259 14.208 L 7.256 14.211 C 6.415 14.915 3.103 17.913 2.086 16.713 C 1.315 15.803 3.505 13.98 4.04 13.406" transform="matrix(1 0 0 1 0 0)" fill="#EBEBEB" stroke="none" />
  <path d="M 9.718 11.943 L 8.087 12.378 L 11.01 6.771 L 15.593 7.444 L 18.002 12.378 L 13.171 11.095 L 11.654 8.143 L 9.718 11.943" transform="matrix(1 0 0 1 0 0)" fill="#EBEBEB" stroke="none" />
</svg>
