<?xml version="1.0" encoding="UTF-8"?>
<!-- Reconstructed from Amplitude.Graphics.Svg.SvgAsset and recolored from static UIMapper.Color metadata for EWShop; not original source SVG. Live UI state/material colors are not included. -->
<svg xmlns="http://www.w3.org/2000/svg" width="25" height="25" viewBox="0 0 25 25">
  <path d="M 24.288 15.959 C 22.908 15.643 21.484 15.552 20.081 15.688 L 18.795 14.145 C 19.109 13.545 19.32 12.822 19.402 12.068 L 22.205 12.697 C 22.298 11.742 22.293 10.772 22.19 9.82 L 19.393 10.515 C 19.326 9.963 19.19 9.427 18.996 8.95 L 21.692 6.426 C 21.511 5.982 21.305 5.563 21.079 5.172 C 21.059 5.138 21.039 5.104 21.019 5.071 C 20.844 4.777 20.655 4.5 20.456 4.241 L 17.371 4.241 L 17.371 7.02 C 17.074 6.875 16.764 6.8 16.451 6.8 L 16.451 2 L 10.869 2 C 10.327 2.077 9.193 2.273 8.997 2.444 L 9.275 4.327 L 12.497 4.327 L 14.763 7.591 C 14.516 7.846 14.294 8.16 14.108 8.514 L 11.626 5.53 L 5.166 5.53 C 4.77 6.286 4.453 7.13 4.228 8.032 L 8.579 9.733 C 8.459 10.177 8.389 10.659 8.375 11.144 L 13.015 11.144 L 13.246 12.345 L 8.368 12.345 L 4.172 13.398 C 4.313 14.338 4.63 15.241 4.954 16.072 L 11.145 16.072 L 13.875 13.633 C 14.04 14.055 14.25 14.438 14.496 14.76 L 11.825 17.312 L 4.446 17.322 C 4.12 16.8 3.463 15.54 3.437 14.674 L 0 14.674 C 0.441 17.094 1.58 19.271 3.199 20.989 C 4.339 20.703 5.296 20.091 6.11 19.27 C 8.174 21.357 11.374 21.288 13.38 19.26 C 15.377 21.396 17.706 21.642 19.856 19.635 C 20.386 20.208 20.965 20.495 21.739 20.608 C 22.896 19.275 23.776 17.696 24.288 15.959 M 17.115 15.748 C 16.826 15.848 16.525 15.882 16.228 15.849 L 16.186 16.707 C 16.492 16.572 16.799 16.445 17.115 16.336 L 17.115 15.748 M 16.024 14.768 C 16.195 14.546 16.35 14.295 16.485 14.017 C 16.821 13.325 17.021 12.502 17.06 11.644 C 17.099 10.786 16.976 9.929 16.706 9.173 C 16.532 8.685 16.3 8.252 16.024 7.893 C 16.713 7.594 17.363 8.12 17.732 8.678 C 18.156 9.321 18.442 10.311 18.442 11.331 C 18.442 12.47 18.114 14.011 17.064 14.67 C 16.745 14.87 16.373 14.92 16.024 14.768 M 15.392 8.384 C 16.08 9.281 16.311 10.502 16.261 11.608 C 16.218 12.54 15.97 13.525 15.393 14.278 C 14.709 13.488 14.46 12.352 14.46 11.331 C 14.46 10.31 14.709 9.174 15.392 8.384" transform="matrix(1 0 0 1 0 0)" fill="#EBEBEB" stroke="none" />
  <path d="M 20.928 21.458 C 20.438 21.321 20.078 21.138 19.839 20.983 C 17.759 22.566 15.323 22.362 13.361 20.658 C 11.105 22.518 8.356 22.512 6.105 20.647 C 5.709 20.961 4.998 21.448 4.022 21.786 C 6.226 23.734 9.124 24.917 12.297 24.917 C 15.644 24.917 18.685 23.601 20.928 21.458" transform="matrix(1 0 0 1 0 0)" fill="#EBEBEB" stroke="none" />
</svg>
