<?xml version="1.0" encoding="UTF-8"?>
<!-- Reconstructed from Amplitude.Graphics.Svg.SvgAsset and recolored from static UIMapper.Color metadata for EWShop; not original source SVG. Live UI state/material colors are not included. -->
<svg xmlns="http://www.w3.org/2000/svg" width="25" height="25" viewBox="0 0 25 25">
  <path d="M 1.986 6 L 3.576 6 L 4.165 4 L 3.5 4 C 5.783 1.54 9.045 0 12.666 0 C 16.286 0 19.548 1.54 21.831 4 L 21.166 4 L 21.375 6 L 23.345 6 C 23.73 6.632 24.061 7.301 24.331 8 L 21.533 8 L 22.501 20.215 C 21.712 21.219 20.773 22.1 19.718 22.822 L 18.543 8 L 6.408 8 L 5.253 22.566 C 4.189 21.782 3.254 20.832 2.486 19.756 L 3.418 8 L 1 8 C 1.27 7.301 1.601 6.632 1.986 6 M 6.566 6 L 6.725 4 L 18.226 4 L 18.385 6 L 6.566 6" transform="matrix(1 0 0 1 0 0)" fill="#EBEBEB" stroke="none" />
  <path d="M 17.239 24.137 C 15.823 24.694 14.28 25 12.666 25 C 11.051 25 9.508 24.694 8.092 24.137 C 7.648 23.226 7.47 22.171 7.652 21.082 L 7.665 21 C 10.813 22.574 14.518 22.574 17.666 21 L 17.679 21.082 C 17.861 22.171 17.683 23.226 17.239 24.137" transform="matrix(1 0 0 1 0 0)" fill="#EBEBEB" stroke="none" />
  <path d="M 11.568 10.454 C 11.993 10.061 12.521 9.744 13.108 9.5 C 12.009 9.624 10.491 10.322 10.243 11.262 C 10.111 11.752 10.367 12.265 10.763 12.633 C 11.252 13.101 11.92 13.395 12.624 13.598 C 12.755 13.637 12.886 13.675 13.016 13.712 C 14.172 14.043 15.252 14.352 15.326 15.514 C 15.34 15.876 15.219 16.246 14.957 16.545 C 14.824 16.694 14.658 16.82 14.49 16.946 C 14.328 17.067 14.165 17.189 14.03 17.335 C 13.801 17.569 13.687 17.895 13.798 18.182 C 13.85 18.319 13.97 18.443 14.134 18.5 C 13.783 18.224 13.992 17.767 14.333 17.55 C 14.478 17.452 14.641 17.369 14.805 17.286 C 14.998 17.189 15.193 17.09 15.361 16.963 C 15.379 16.949 15.399 16.934 15.42 16.918 C 15.472 16.88 15.528 16.838 15.563 16.798 C 16.339 16.081 16.419 14.975 15.778 14.176 C 15.594 13.94 15.331 13.735 15.05 13.571 C 14.509 13.255 13.877 13.082 13.265 12.915 C 13.169 12.889 13.074 12.863 12.979 12.836 C 12.684 12.756 12.408 12.675 12.138 12.557 C 11.572 12.301 10.967 11.902 10.989 11.348 C 11.02 11.007 11.274 10.729 11.568 10.454" transform="matrix(1 0 0 1 0 0)" fill="#EBEBEB" stroke="none" />
  <path d="M 10.166 15.136 C 11.226 14.948 12.364 15.257 12.603 16.146 C 12.689 16.457 12.596 16.845 12.43 17.141 C 12.301 17.382 12.133 17.597 11.97 17.807 C 11.895 17.904 11.821 18 11.751 18.097 C 11.58 18.338 11.464 18.531 11.469 18.78 C 11.508 19.505 12.298 19.896 13.045 20.135 C 13.127 20.163 13.21 20.189 13.294 20.216 C 13.393 20.247 13.493 20.278 13.593 20.312 C 13.382 20.353 13.171 20.378 12.959 20.391 C 12.288 20.433 11.61 20.329 11.109 19.995 C 10.593 19.654 10.287 19.079 10.438 18.471 C 10.537 18.035 10.847 17.658 11.149 17.291 C 11.27 17.144 11.39 16.998 11.494 16.851 C 11.876 16.336 11.608 15.866 11.148 15.57 C 10.879 15.394 10.547 15.274 10.218 15.155 L 10.166 15.136" transform="matrix(1 0 0 1 0 0)" fill="#EBEBEB" stroke="none" />
</svg>
