<?xml version="1.0" encoding="UTF-8"?>
<!-- Reconstructed from Amplitude.Graphics.Svg.SvgAsset and recolored from static UIMapper.Color metadata for EWShop; not original source SVG. Live UI state/material colors are not included. -->
<svg xmlns="http://www.w3.org/2000/svg" width="25" height="25" viewBox="0 0 25 25">
  <path d="M 22.553 10.847 L 21.147 11.332 L 21.147 13.069 L 12.271 19.568 L 8.051 15.203 L 6.79 16.173 L 4.074 13.603 L 3.653 10.838 L 4.974 9.111 L 4.974 4.76 L 8.425 3.725 L 5.383 2.223 C 2.13 4.48 0 8.241 0 12.5 C 0 19.404 5.596 25 12.5 25 C 19.404 25 25 19.404 25 12.5 C 25 12.371 24.998 12.241 24.994 12.113 L 22.553 10.847" transform="matrix(1 0 0 1 0 0)" fill="#EBEBEB" stroke="none" />
  <path d="M 23.711 6.966 L 20.136 8.691 L 20.053 12.088 L 12.442 17.692 L 8.794 14.165 L 7.164 14.951 L 5.523 13.424 C 4.569 12.521 5.396 11.373 5.396 11.373 L 5.724 11.195 L 5.724 6.569 L 11.365 11.056 L 11.362 11.056 L 12.531 16.04 L 13.757 11.312 L 18.092 8.339 L 12.513 9.967 L 12.385 10.048 L 6.396 5.83 L 11.77 4.137 L 17.495 6.509 L 22.202 4.618 C 22.788 5.338 23.295 6.125 23.711 6.966 M 7.314 14.011 L 8.642 13.329 L 8.642 11.728 L 7.385 12.397 L 7.314 14.011" transform="matrix(1 0 0 1 0 0)" fill="#EBEBEB" stroke="none" />
</svg>
