<?xml version="1.0" encoding="UTF-8"?>
<!-- Reconstructed from Amplitude.Graphics.Svg.SvgAsset and recolored from static UIMapper.Color metadata for EWShop; not original source SVG. Live UI state/material colors are not included. -->
<svg xmlns="http://www.w3.org/2000/svg" width="25" height="25" viewBox="0 0 25 25">
  <path d="M 0.123 10.741 C -0.334 13.986 0.519 17.352 2.484 19.98 L 2.45 18.126 L 4.029 16.324 L 3.945 18.193 L 5.074 19.311 L 16.496 9.834 L 20.351 9.619 L 19.013 13.173 L 7.255 21.738 L 7.919 22.542 L 9.788 22.626 L 7.825 24.096 C 9.269 24.679 10.847 24.999 12.5 24.999 C 14.04 24.999 15.514 24.721 16.876 24.212 L 14.568 22.639 L 16.522 22.556 L 17.201 21.738 L 13.516 19.054 L 16.466 17.07 L 16.456 17.044 L 19.38 19.309 L 20.687 18.022 L 20.604 16.068 L 22.25 17.955 L 22.478 20.03 C 24.47 17.395 25.337 14.007 24.877 10.741 L 23.368 10.741 L 23.368 7.046 L 21.971 6.46 L 21.971 8.26 L 20.482 7.711 L 20.482 5.835 L 18.424 4.971 L 18.424 7.3 L 16.553 6.761 L 16.553 4.186 L 14.913 3.498 L 13.236 3.498 L 13.236 5.944 L 10.924 5.944 L 10.924 3.498 L 8 3.498 L 8 5.944 L 5.565 5.944 L 5.565 3.498 L 3.827 3.498 C 3.497 3.816 3.185 4.151 2.892 4.503 L 2.892 10.741 L 0.123 10.741 M 10.99 12.402 L 8.004 9.866 L 4.149 9.652 L 5.487 13.205 L 8.063 15.081 L 10.99 12.402" transform="matrix(1 0 0 1 0 0)" fill="#EBEBEB" stroke="none" />
</svg>
