<?xml version="1.0" encoding="UTF-8"?>
<!-- Reconstructed from Amplitude.Graphics.Svg.SvgAsset and recolored from static UIMapper.Color metadata for EWShop; not original source SVG. Live UI state/material colors are not included. -->
<svg xmlns="http://www.w3.org/2000/svg" width="25" height="25" viewBox="0 0 25 25">
  <path d="M 13.368 6.063 L 20.333 7.417 L 20.333 6.482 L 21.939 6.729 L 21.731 8.158 L 23.664 11.622 L 23.731 9.782 L 24.721 9.865 C 24.777 10.127 24.825 10.391 24.864 10.658 L 24.378 16.399 C 22.74 21.393 18.042 25 12.5 25 C 7.234 25 2.732 21.742 0.891 17.133 L 0.772 16.169 L 0.76 16.161 L 0.77 16.147 L 0.113 10.815 C 0.179 10.328 0.271 9.848 0.392 9.38 L 1.169 9.285 L 1.368 11.922 L 3.619 8.112 L 3.543 6.482 L 4.777 6.482 L 4.777 7.248 L 11.997 5.915 L 11.939 5 L 13.42 5 L 13.368 6.063 M 6.44 15.104 L 4 19.519 L 8.62 23 L 16.467 23 L 21 19.519 L 18.21 15.104 L 12.456 14 L 6.44 15.104 M 15.523 16.613 L 17 19.066 L 14.6 21 L 10.446 21 L 8 19.066 L 9.292 16.613 L 12.477 16 L 15.523 16.613 M 1.683 16.085 L 1.817 17.869 L 3.896 14.009 L 3.833 12.661 L 1.683 16.085 M 20.929 13.684 L 23.44 17.766 L 23.498 16.183 L 21.134 12.273 L 20.929 13.684 M 1.466 13.213 L 1.589 14.841 L 3.771 11.364 L 3.683 9.461 L 1.466 13.213 M 21.301 11.118 L 23.547 14.832 L 23.612 13.049 L 21.556 9.364 L 21.301 11.118 M 13.081 11.993 L 20.333 13.421 L 20.333 11.338 L 13.174 10.075 L 13.081 11.993 M 4.777 11.357 L 4.777 13.402 L 12.388 11.969 L 12.259 9.977 L 4.777 11.357 M 4.777 8.001 L 4.777 10.605 L 12.211 9.232 L 12.045 6.659 L 4.777 8.001 M 13.21 9.329 L 20.333 10.586 L 20.333 8.172 L 13.332 6.811 L 13.21 9.329" transform="matrix(1 0 0 1 0 0)" fill="#FFFFFF" stroke="none" />
</svg>
