<?xml version="1.0" encoding="UTF-8"?>
<!-- Reconstructed from Amplitude.Graphics.Svg.SvgAsset and recolored from static UIMapper.Color metadata for EWShop; not original source SVG. Live UI state/material colors are not included. -->
<svg xmlns="http://www.w3.org/2000/svg" width="25" height="25" viewBox="0 0 25 25">
  <path d="M 10.276 10.59 L 10.276 11.771 L 9.665 13.541 L 11.497 14.131 L 11.497 15.311 L 12.719 17.081 L 13.03 18.771 L 14.561 20.574 L 16.454 21.441 L 17.722 20.725 C 17.806 20.677 17.902 20.765 17.862 20.853 L 17.531 21.583 L 18.74 21.777 C 18.831 21.792 18.855 21.912 18.777 21.961 L 17.14 23.002 L 15.573 22.309 L 13.346 21.475 L 11.561 20.155 L 11.723 21.212 L 12.621 24.998 C 12.581 24.998 12.54 25 12.5 25 C 10.12 25 7.896 24.334 6.002 23.18 L 6.002 20.155 L 3.848 21.517 C 3.434 21.12 3.048 20.695 2.692 20.245 L 4.78 18.771 L 4.78 15.311 L 6.002 13.541 L 7.834 13.541 L 7.223 11.771 L 7.834 10 L 9.055 10 L 10.276 10.59 M 22.591 19.873 C 22.253 20.335 21.883 20.772 21.486 21.183 L 14.702 17 L 14.702 15.498 L 22.591 19.873 M 23.964 17.481 C 23.704 18.078 23.4 18.65 23.054 19.194 L 14 14.5 L 17 14 L 23.964 17.481 M 3.781 17 L 0.839 17 C 0.649 16.508 0.487 16.002 0.359 15.482 L 3.781 15.482 L 3.781 17 M 24.622 9.44 C 24.798 10.141 24.915 10.865 24.968 11.606 L 24.246 12 L 24.246 14.678 L 22.5 13.699 L 22.5 10.5 L 24.622 9.44 M 4.114 14.518 L 0.163 14.518 C 0.082 14.021 0.031 13.515 0.011 13 L 5.16 13 L 4.114 14.518 M 12.5 0 C 15.989 0 19.143 1.431 21.41 3.736 L 20 5.5 L 16.134 7.5 L 16 13 L 13 14 L 12.497 13.497 L 12.356 13.356 L 11.5 12.5 L 11.5 11 L 12.5 11 L 13 8 L 10.5 4 L 10.5 1 L 7.596 1 C 9.102 0.357 10.759 0 12.5 0 M 23.479 6.521 C 23.779 7.071 24.04 7.646 24.256 8.243 L 24 8.5 L 21.246 10 L 21.246 13.145 L 19.746 12.374 L 19.746 9 L 22.25 7.75 L 23.479 6.521 M 22.052 4.44 C 22.375 4.823 22.675 5.225 22.951 5.645 L 21.5 7 L 18.433 8.5 L 18.5 11.8 L 17 11 L 17 8 L 20.213 6.25 L 22.052 4.44 M 2.476 8.211 L 2.605 10 L 1.736 9.876 L 1.203 10 L 1.009 8.13 L 1.11 7.35 C 1.506 6.476 1.999 5.655 2.576 4.902 L 2.476 8.211 M 5.403 8.211 L 5.163 9.795 L 4.698 9.795 L 4.078 9.876 L 4.078 8.13 L 3.402 3.965 L 4.543 3.965 L 5.403 8.211 M 8.432 6.163 L 9.395 8.13 L 9.28 9 L 7.121 9 L 6.82 9.87 L 6.719 9.876 L 6.905 8.13 L 6.176 6.163 L 5.591 3.984 L 7.623 3.984 L 8.432 6.163 M 12 8.211 L 11.649 9.876 L 10.937 9.795 L 10.937 8.13 L 9.324 5.554 L 8.6 3.965 L 9.324 3.965 L 12 8.211 M 9.398 3.016 L 4.363 3.016 C 4.792 2.648 5.245 2.308 5.721 2 L 9.398 2 L 9.398 3.016" transform="matrix(1 0 0 1 0 0)" fill="#EBEBEB" stroke="none" />
</svg>
