<?xml version="1.0" encoding="UTF-8"?>
<!-- Reconstructed from Amplitude.Graphics.Svg.SvgAsset and recolored from static UIMapper.Color metadata for EWShop; not original source SVG. Live UI state/material colors are not included. -->
<svg xmlns="http://www.w3.org/2000/svg" width="25" height="25" viewBox="0 0 25 25">
  <path d="M 4.31 9.75 C 4.64 10.58 5.09 11.17 5.64 11.58 C 5.9 11.77 6.17 11.91 6.43 12.01 C 6.52 11.51 6.69 11.03 6.92 10.59 C 6.78 10.53 6.65 10.46 6.53 10.37 C 6.24 10.15 5.94 9.8 5.7 9.19 C 5.56 8.85 5.39 8.55 5.2 8.29 C 5 8.81 4.68 9.27 4.25 9.63 C 4.27 9.67 4.29 9.71 4.3 9.75 L 4.31 9.75" transform="matrix(1 0 0 1 0 0)" fill="#EBEBEB" stroke="none" />
  <path d="M 4.41 7.17 C 4.41 6.05 3.57 5.13 2.49 4.99 C 1.67 6.09 1.02 7.33 0.6 8.66 C 1 9.09 1.57 9.37 2.21 9.37 C 3.42 9.37 4.41 8.38 4.41 7.17" transform="matrix(1 0 0 1 0 0)" fill="#EBEBEB" stroke="none" />
  <path d="M 19.3 9.88 C 20.03 9.22 20.68 8.61 21.25 8.08 C 20.84 7.78 20.5 7.4 20.27 6.94 C 19.7 7.47 19.04 8.09 18.29 8.77 C 17.47 9.52 16.57 10.08 15.72 10.5 C 15.96 10.93 16.14 11.41 16.25 11.91 C 17.25 11.43 18.32 10.77 19.3 9.88" transform="matrix(1 0 0 1 0 0)" fill="#EBEBEB" stroke="none" />
  <path d="M 23.12 7.69 C 23.43 7.69 23.72 7.63 23.99 7.51 C 23.41 6.17 22.6 4.94 21.61 3.89 C 21.19 4.29 20.92 4.86 20.92 5.48 C 20.92 6.69 21.91 7.68 23.12 7.68 L 23.12 7.69" transform="matrix(1 0 0 1 0 0)" fill="#EBEBEB" stroke="none" />
  <path d="M 12.49 5.67 C 12.65 6.28 12.64 6.7 12.55 6.89 L 12.04 7.97 C 12.55 8.04 13.04 8.19 13.49 8.4 L 13.9 7.52 C 14.23 6.81 14.1 5.93 13.93 5.28 C 13.84 4.93 13.72 4.59 13.59 4.28 C 13.25 4.67 12.81 4.97 12.32 5.16 C 12.38 5.32 12.44 5.49 12.48 5.67 L 12.49 5.67" transform="matrix(1 0 0 1 0 0)" fill="#EBEBEB" stroke="none" />
  <path d="M 3.21 16.97 C 2.41 16.97 1.71 17.4 1.32 18.04 C 1.93 19.26 2.73 20.36 3.68 21.31 C 4.67 21.09 5.41 20.22 5.41 19.16 C 5.41 17.95 4.42 16.96 3.21 16.96 L 3.21 16.97" transform="matrix(1 0 0 1 0 0)" fill="#EBEBEB" stroke="none" />
  <path d="M 11.21 4.37 C 12.42 4.37 13.41 3.38 13.41 2.17 C 13.41 1.08 12.62 0.18 11.58 0 C 11.15 0.03 10.73 0.09 10.31 0.16 C 9.54 0.5 9.01 1.27 9.01 2.17 C 9.01 3.38 10 4.37 11.21 4.37" transform="matrix(1 0 0 1 0 0)" fill="#EBEBEB" stroke="none" />
  <path d="M 16.35 13.15 C 16.33 13.67 16.23 14.16 16.06 14.62 C 16.39 14.71 16.72 14.81 17.06 14.91 C 17.62 15.09 18.16 15.28 18.65 15.48 C 18.82 14.99 19.11 14.55 19.48 14.2 C 18.84 13.92 18.17 13.68 17.51 13.48 C 17.13 13.36 16.74 13.25 16.36 13.15 L 16.35 13.15" transform="matrix(1 0 0 1 0 0)" fill="#EBEBEB" stroke="none" />
  <path d="M 21.68 14.33 C 20.46 14.33 19.48 15.32 19.48 16.53 C 19.48 17.75 20.47 18.73 21.68 18.73 C 22.89 18.73 23.88 17.74 23.88 16.53 C 23.88 15.32 22.89 14.33 21.68 14.33" transform="matrix(1 0 0 1 0 0)" fill="#EBEBEB" stroke="none" />
  <path d="M 7.45 16.05 C 7.33 16.18 7.19 16.29 7.03 16.37 C 6.56 16.6 6.12 16.81 5.72 17 C 5.68 17.02 5.65 17.03 5.61 17.05 C 5.94 17.43 6.18 17.88 6.31 18.38 C 6.32 18.38 6.34 18.37 6.35 18.36 C 6.76 18.17 7.21 17.96 7.71 17.71 C 8.05 17.54 8.33 17.32 8.56 17.07 C 8.14 16.79 7.77 16.44 7.46 16.05 L 7.45 16.05" transform="matrix(1 0 0 1 0 0)" fill="#EBEBEB" stroke="none" />
  <path d="M 15.21 20.97 C 14 20.97 13.01 21.96 13.01 23.17 C 13.01 23.87 13.34 24.49 13.85 24.9 C 15.03 24.77 16.17 24.48 17.23 24.05 C 17.35 23.78 17.41 23.49 17.41 23.17 C 17.41 21.96 16.42 20.97 15.21 20.97" transform="matrix(1 0 0 1 0 0)" fill="#EBEBEB" stroke="none" />
  <path d="M 14.86 19.99 C 14.97 19.98 15.09 19.97 15.21 19.97 L 15.37 19.97 C 15.8 20 16.21 20.1 16.58 20.28 C 16.49 19.96 16.36 19.64 16.21 19.33 C 15.76 18.43 15.04 17.52 14.22 17.02 C 13.74 17.35 13.21 17.61 12.63 17.76 C 12.85 17.95 13.07 18.11 13.31 18.23 C 13.83 18.49 14.45 19.17 14.86 19.98 L 14.86 19.99" transform="matrix(1 0 0 1 0 0)" fill="#EBEBEB" stroke="none" />
  <path d="M 15.36 12.93 C 15.36 10.72 13.57 8.93 11.36 8.93 C 9.15 8.93 7.36 10.72 7.36 12.93 C 7.36 15.14 9.15 16.93 11.36 16.93 C 13.57 16.93 15.36 15.14 15.36 12.93" transform="matrix(1 0 0 1 0 0)" fill="#EBEBEB" stroke="none" />
</svg>
