<?xml version="1.0" encoding="UTF-8"?>
<!-- Reconstructed from Amplitude.Graphics.Svg.SvgAsset and recolored from static UIMapper.Color metadata for EWShop; not original source SVG. Live UI state/material colors are not included. -->
<svg xmlns="http://www.w3.org/2000/svg" width="25" height="25" viewBox="0 0 25 25">
  <path d="M 24.914 13.962 C 24.19 20.177 18.909 25 12.5 25 C 12.17 25 11.842 24.987 11.519 24.962 C 12.129 24.4 12.637 23.821 13.084 23.259 C 13.514 22.718 13.945 22.119 14.292 21.668 C 14.664 21.184 15.004 20.782 15.363 20.454 C 16.124 19.763 16.754 19.577 17.606 19.086 C 18 18.859 18.43 18.559 18.77 18.095 C 19.09 17.657 19.283 17.136 19.365 16.518 C 19.652 16.553 19.946 16.574 20.245 16.574 C 21.326 16.574 22.355 16.336 23.148 15.901 C 23.748 15.573 24.351 15.041 24.576 14.312 C 24.587 14.303 24.6 14.294 24.611 14.285 C 24.71 14.202 24.816 14.094 24.914 13.962 M 4.375 6.688 C 7.498 4.838 7.691 3.226 9.679 3.812 C 10.841 4.155 11.062 5.266 11.329 6.567 L 10.557 8.725 L 11.876 8.564 C 11.995 8.855 12.138 9.142 12.316 9.418 C 12.926 10.364 13.427 11.077 13.902 11.641 L 13.119 12.9 L 15.087 12.782 C 15.325 12.962 15.574 13.123 15.844 13.274 C 17.135 13.998 18.592 14.264 18.391 16.261 C 18.169 18.453 16.421 18.138 14.69 19.714 C 13.264 21.011 12.34 23.1 10.189 24.785 C 10.035 24.756 9.881 24.725 9.729 24.69 C 9.95 24.201 9.992 23.562 9.618 22.767 C 9.016 21.488 7.701 21.013 6.822 20.753 C 6.72 20.702 6.613 20.644 6.504 20.581 C 6.625 20.374 6.74 20.163 6.843 19.949 C 6.898 19.834 6.88 19.705 6.807 19.613 L 6.801 19.607 C 6.773 19.574 6.738 19.546 6.695 19.526 C 6.587 19.476 6.462 19.492 6.37 19.56 C 6.328 19.59 6.292 19.632 6.269 19.682 C 6.192 19.842 6.107 20 6.02 20.156 C 6.004 20.184 5.986 20.211 5.97 20.238 C 5.695 20.043 5.41 19.811 5.126 19.538 L 5.972 18.06 L 4.041 18.257 C 3.962 18.142 3.886 18.022 3.81 17.898 L 5.049 16.1 L 3.121 16.576 C 2.334 14.758 2.715 14.025 2.012 12.175 L 2.008 12.177 C 1.907 11.761 1.761 11.32 1.55 10.871 C 1.227 10.185 0.789 9.802 0.337 9.606 C 0.433 9.203 0.548 8.807 0.682 8.419 C 1.737 8.04 3.04 7.48 4.375 6.688 M 6.263 21.87 C 7.193 21.999 8.261 22.269 8.804 23.055 C 9.201 23.629 9.307 24.145 9.266 24.576 C 7.8 24.185 6.442 23.532 5.241 22.673 C 5.328 22.517 5.453 22.38 5.621 22.27 C 5.836 22.128 6.053 21.995 6.263 21.87 M 17.41 14.612 C 17.396 14.613 17.37 14.618 17.346 14.661 C 17.029 15.232 16.56 15.663 16.104 16.064 L 15.943 16.203 L 15.783 16.019 C 15.752 15.983 15.727 15.945 15.71 15.921 L 15.707 15.918 C 15.687 15.89 15.678 15.875 15.668 15.864 L 15.664 15.86 L 15.66 15.856 C 15.634 15.822 15.588 15.799 15.527 15.807 C 15.465 15.815 15.422 15.852 15.408 15.894 C 15.382 15.986 15.358 16.077 15.334 16.169 C 15.31 16.261 15.285 16.358 15.257 16.455 L 15.127 16.912 L 14.854 16.46 C 14.84 16.437 14.823 16.413 14.799 16.38 L 14.796 16.377 C 14.775 16.348 14.748 16.31 14.723 16.269 C 14.707 16.247 14.696 16.242 14.69 16.24 C 14.681 16.237 14.661 16.233 14.631 16.239 C 14.564 16.254 14.501 16.306 14.478 16.354 C 14.387 16.572 14.337 16.823 14.284 17.099 C 14.281 17.115 14.278 17.133 14.274 17.149 C 14.219 17.438 14.155 17.752 14.019 18.026 L 13.869 18.326 L 13.642 18.02 C 13.586 17.944 13.534 17.866 13.485 17.795 C 13.482 17.79 13.479 17.785 13.476 17.78 C 13.43 17.714 13.388 17.653 13.348 17.597 L 13.347 17.595 L 13.345 17.594 C 13.278 17.498 13.201 17.473 13.155 17.478 C 13.117 17.481 13.06 17.508 13.047 17.62 C 13.012 17.968 12.955 18.316 12.865 18.649 L 12.651 19.44 L 12.432 18.589 C 12.419 18.54 12.402 18.487 12.381 18.425 L 12.379 18.421 C 12.36 18.365 12.338 18.3 12.32 18.234 C 12.301 18.179 12.231 18.115 12.145 18.096 C 12.106 18.088 12.082 18.093 12.07 18.1 C 12.062 18.104 12.045 18.115 12.037 18.159 C 11.959 18.621 11.871 19.073 11.761 19.523 L 11.597 20.192 L 11.334 19.49 C 11.133 18.953 10.871 18.426 10.546 17.909 C 10.511 17.853 10.425 17.804 10.342 17.808 C 10.305 17.809 10.284 17.822 10.273 17.832 C 10.266 17.84 10.253 17.859 10.256 17.908 C 10.363 19.349 10.342 20.773 10.15 22.172 C 10.144 22.225 10.161 22.245 10.168 22.252 C 10.181 22.266 10.21 22.286 10.257 22.293 C 10.355 22.308 10.433 22.263 10.445 22.167 L 10.445 22.165 C 10.556 21.312 10.615 20.442 10.61 19.563 L 10.605 18.429 L 11.041 19.539 C 11.214 19.98 11.331 20.421 11.414 20.885 C 11.422 20.929 11.441 20.951 11.455 20.964 C 11.473 20.979 11.501 20.994 11.538 20.998 C 11.618 21.008 11.679 20.969 11.696 20.911 L 11.698 20.909 C 11.826 20.496 11.934 20.077 12.031 19.665 L 12.21 18.906 L 12.462 19.709 C 12.471 19.739 12.477 19.765 12.48 19.778 L 12.479 19.779 C 12.481 19.79 12.482 19.794 12.482 19.795 L 12.482 19.797 L 12.483 19.799 C 12.498 19.849 12.521 19.878 12.54 19.895 C 12.561 19.912 12.588 19.924 12.618 19.928 C 12.68 19.935 12.748 19.907 12.778 19.833 C 12.957 19.401 13.093 18.964 13.178 18.512 L 13.255 18.102 L 13.558 18.45 C 13.589 18.486 13.612 18.522 13.624 18.541 C 13.626 18.544 13.628 18.548 13.629 18.55 C 13.632 18.555 13.634 18.559 13.636 18.562 L 13.642 18.567 L 13.65 18.581 C 13.691 18.64 13.75 18.686 13.8 18.704 C 13.822 18.712 13.84 18.715 13.852 18.713 C 13.862 18.711 13.877 18.705 13.896 18.689 C 14.258 18.337 14.362 17.885 14.483 17.356 C 14.499 17.289 14.515 17.22 14.531 17.149 L 14.657 16.624 L 14.942 17.146 C 14.949 17.157 14.961 17.173 14.983 17.205 L 14.985 17.21 C 15.002 17.233 15.027 17.269 15.049 17.307 C 15.063 17.326 15.074 17.33 15.079 17.332 C 15.089 17.335 15.108 17.339 15.139 17.332 C 15.204 17.318 15.266 17.268 15.291 17.222 C 15.355 17.046 15.416 16.875 15.468 16.713 L 15.538 16.492 L 15.765 16.613 C 15.848 16.658 15.922 16.648 15.946 16.63 C 16.045 16.541 16.145 16.454 16.242 16.368 C 16.756 15.917 17.241 15.49 17.566 14.904 C 17.599 14.845 17.597 14.796 17.586 14.76 C 17.573 14.719 17.544 14.679 17.506 14.649 C 17.467 14.62 17.432 14.612 17.41 14.612 M 1.389 13.574 C 1.458 13.9 1.499 14.203 1.545 14.528 C 1.641 15.204 1.759 15.944 2.204 16.974 L 2.54 17.751 L 2.729 17.703 L 2.615 17.869 L 2.959 18.425 C 3.038 18.553 3.125 18.689 3.217 18.823 L 3.553 19.313 L 4.138 19.253 L 3.871 19.719 L 4.434 20.26 C 4.678 20.495 4.925 20.704 5.167 20.889 L 5.133 20.946 L 5.504 21.16 C 5.361 21.248 5.216 21.339 5.071 21.435 C 4.8 21.613 4.595 21.825 4.444 22.055 C 2.251 20.203 0.701 17.613 0.187 14.665 C 0.238 14.653 0.288 14.642 0.335 14.628 L 0.513 14.575 L 0.66 14.462 L 0.779 14.37 L 0.892 14.284 L 0.977 14.17 C 1.098 14.005 1.233 13.81 1.36 13.587 L 1.389 13.574 M 7.361 16.419 C 7.185 16.412 7.034 16.548 7.022 16.724 C 6.993 17.199 6.934 17.631 6.843 18.045 C 6.828 18.11 6.813 18.175 6.796 18.24 C 6.753 18.412 6.858 18.583 7.028 18.623 C 7.199 18.663 7.373 18.557 7.416 18.387 C 7.434 18.316 7.451 18.242 7.466 18.171 C 7.565 17.724 7.63 17.26 7.661 16.752 C 7.665 16.687 7.649 16.624 7.618 16.572 C 7.609 16.557 7.598 16.543 7.587 16.529 C 7.539 16.473 7.471 16.433 7.393 16.422 L 7.361 16.419 M 20.408 9.051 C 21.759 9.104 22.833 9.802 22.856 9.817 C 22.856 9.817 24.266 11.813 24.266 12.909 C 24.266 13.486 23.671 13.697 23.671 13.697 C 23.67 14.734 22.137 15.574 20.245 15.574 C 19.949 15.574 19.663 15.551 19.389 15.513 C 19.358 15.218 19.292 14.939 19.186 14.678 C 18.981 14.173 18.659 13.8 18.308 13.515 C 17.969 13.24 17.59 13.036 17.263 12.872 C 16.904 12.693 16.629 12.569 16.332 12.402 C 16.323 12.398 16.315 12.392 16.307 12.387 C 16.605 11.278 17.636 9.817 17.636 9.817 C 17.648 9.81 17.926 9.629 18.372 9.444 L 18.527 9.767 C 18.289 9.887 18.15 10.033 18.149 10.19 C 18.149 10.576 18.986 10.894 20.054 10.928 L 18.864 7.976 L 19.797 7.704 L 20.408 9.051 M 7.149 13.247 C 7.059 13.26 6.98 13.311 6.93 13.38 C 6.884 13.444 6.86 13.524 6.87 13.607 C 6.943 14.202 6.99 14.694 7.018 15.154 C 7.018 15.159 7.018 15.165 7.018 15.17 C 7.028 15.345 7.179 15.477 7.355 15.464 C 7.384 15.462 7.412 15.456 7.438 15.446 C 7.571 15.4 7.664 15.269 7.655 15.122 C 7.627 14.644 7.581 14.135 7.506 13.52 C 7.498 13.457 7.473 13.4 7.436 13.356 C 7.368 13.276 7.262 13.232 7.149 13.247 M 0.214 10.189 C 0.441 10.435 0.641 10.774 0.771 11.238 C 1.046 12.214 0.608 12.984 0.171 13.576 L 0.054 13.665 C 0.018 13.281 0 12.893 0 12.5 C 0 11.71 0.074 10.938 0.214 10.189 M 7.178 6.107 C 7.14 6.154 7.091 6.198 7.066 6.249 C 6.962 6.464 6.85 6.678 6.77 6.898 C 6.517 7.591 6.406 8.295 6.344 9.001 C 6.34 9.038 6.336 9.075 6.331 9.122 C 6.065 9.147 5.806 9.184 5.551 9.191 C 5.086 9.205 4.623 9.2 4.159 9.204 C 4.088 9.205 4.014 9.215 3.92 9.223 C 3.99 9.332 4.086 9.362 4.176 9.397 C 4.633 9.579 5.129 9.651 5.636 9.684 C 5.855 9.698 6.077 9.7 6.301 9.709 C 6.301 9.738 6.3 9.769 6.301 9.798 C 6.322 10.359 6.343 10.921 6.366 11.481 C 6.371 11.592 6.406 11.692 6.49 11.761 C 6.643 11.886 6.846 11.895 7.015 11.788 C 7.216 11.661 7.3 11.477 7.266 11.26 C 7.206 10.882 7.147 10.503 7.093 10.123 C 7.072 9.979 7.062 9.83 7.047 9.677 C 7.106 9.671 7.153 9.666 7.2 9.662 C 7.937 9.601 8.674 9.492 9.407 9.315 C 9.5 9.293 9.603 9.23 9.674 9.16 C 9.832 9.004 9.858 8.785 9.763 8.626 C 9.665 8.466 9.473 8.414 9.256 8.473 C 8.743 8.611 8.229 8.747 7.715 8.875 C 7.482 8.933 7.246 8.972 7.002 9.021 C 7.001 8.781 6.996 8.552 6.998 8.324 C 7.005 7.648 7.078 6.97 7.208 6.29 C 7.219 6.232 7.211 6.172 7.211 6.113 C 7.2 6.112 7.189 6.109 7.178 6.107 M 21.224 10.846 C 21.889 10.722 22.342 10.474 22.342 10.19 C 22.341 9.824 21.586 9.52 20.595 9.461 L 21.224 10.846 M 17.912 5.511 C 18.244 6.132 18.489 6.678 18.665 7.166 L 16.498 6.805 C 16.399 6.537 16.274 6.237 16.128 5.916 L 17.912 5.511 M 19.448 4.128 C 19.708 4.644 19.935 5.156 20.12 5.652 L 19.374 6.665 C 19.17 6.153 18.932 5.592 18.639 5.003 L 19.448 4.128 M 12.5 0 C 13.11 0 13.71 0.044 14.297 0.129 C 15.733 2.017 16.764 3.521 17.488 4.755 L 15.548 4.755 C 14.629 3.064 13.403 1.239 11.802 0.02 C 12.033 0.007 12.266 0 12.5 0 M 15.025 0.255 C 15.92 0.438 16.779 0.721 17.593 1.085 C 18.04 1.713 18.472 2.377 18.862 3.05 L 18.206 4.188 C 17.484 2.913 16.485 1.548 15.025 0.255" transform="matrix(1 0 0 1 0 0)" fill="#EBEBEB" stroke="none" />
</svg>
