<?xml version="1.0" encoding="UTF-8"?>
<!-- Reconstructed from Amplitude.Graphics.Svg.SvgAsset and recolored from static UIMapper.Color metadata for EWShop; not original source SVG. Live UI state/material colors are not included. -->
<svg xmlns="http://www.w3.org/2000/svg" width="25" height="25" viewBox="0 0 25 25">
  <path d="M 15.392 4.914 C 18.075 3.35 21.717 4.653 21.717 4.653 C 21.717 4.653 21.008 8.489 18.333 10.053 C 16.6 11.062 15.293 10.834 13.993 10.573 C 14.51 10.548 15.858 10.422 17.55 9.438 C 19.483 8.312 20.05 6.537 20.05 6.537 C 20.038 6.543 18.782 7.115 16.858 8.236 C 15.089 9.271 13.072 10.579 13.042 10.599 L 13.042 16.225 L 23.474 18.487 C 21.352 22.368 17.234 25 12.5 25 C 7.374 25 2.97 21.913 1.042 17.497 L 2.846 17.266 C 2.855 17.22 2.865 17.174 2.878 17.129 C 3.148 16.186 4.131 15.641 5.073 15.91 C 5.704 16.091 6.156 16.591 6.306 17.185 L 8.184 17.185 L 11.825 18.145 L 10.967 16.225 L 10.967 10.573 C 9.858 10.792 8.058 10.944 6.592 10.086 C 4.313 8.756 3.698 5.506 3.691 5.47 C 3.691 5.47 6.808 4.351 9.108 5.688 C 10.742 6.639 11.517 8.581 11.825 9.615 C 11.375 9.06 10.184 7.656 8.775 6.832 C 6.998 5.806 5.565 6.087 5.542 6.092 C 5.56 6.107 6.419 6.834 8.184 7.866 C 9.177 8.45 10.908 9.851 12.108 9.851 C 12.392 8.783 13.275 6.142 15.392 4.914 M 12.269 21.876 C 11.585 21.638 10.837 21.999 10.599 22.682 C 10.36 23.365 10.722 24.114 11.405 24.353 C 12.089 24.591 12.837 24.229 13.075 23.546 C 13.313 22.862 12.952 22.115 12.269 21.876 M 17.277 19.459 C 16.252 19.102 15.132 19.643 14.774 20.668 C 14.417 21.693 14.957 22.815 15.982 23.173 C 17.008 23.531 18.13 22.988 18.487 21.963 C 18.845 20.938 18.303 19.817 17.277 19.459 M 8.123 21.82 C 7.781 21.702 7.408 21.882 7.289 22.224 C 7.17 22.565 7.35 22.939 7.691 23.059 C 8.033 23.178 8.407 22.997 8.526 22.655 C 8.645 22.314 8.465 21.94 8.123 21.82 M 22.167 14.499 C 22.821 14.499 23.35 15.03 23.351 15.684 C 23.351 16.337 22.821 16.867 22.167 16.867 C 21.513 16.867 20.983 16.337 20.982 15.684 C 20.983 15.03 21.513 14.499 22.167 14.499 M 1.578 12.632 C 1.758 12.004 2.414 11.64 3.042 11.819 C 3.67 11.999 4.035 12.655 3.855 13.283 C 3.675 13.912 3.019 14.276 2.391 14.096 C 1.762 13.916 1.398 13.26 1.578 12.632 M 20.3 10.519 C 20.808 9.68 21.9 9.413 22.739 9.921 C 23.578 10.429 23.846 11.52 23.338 12.358 C 22.83 13.197 21.738 13.466 20.899 12.958 C 20.061 12.45 19.792 11.357 20.3 10.519 M 3.289 9.192 C 3.603 9.282 3.785 9.61 3.695 9.924 C 3.605 10.238 3.277 10.42 2.963 10.33 C 2.649 10.24 2.468 9.913 2.558 9.599 C 2.648 9.284 2.975 9.102 3.289 9.192 M 12.5 0 C 12.872 0 13.241 0.017 13.605 0.049 C 14.007 0.732 14.333 1.558 14.338 2.446 C 14.343 3.962 13.701 4.731 13.039 5.483 C 13.039 4.144 12.702 2.642 12.083 2.446 C 11.583 2.946 11.5 5.145 12.619 6.358 C 12.619 6.358 12.083 7.282 12.083 7.645 C 11.491 7.056 9.867 4.28 9.863 2.431 C 9.86 1.593 10.144 0.815 10.508 0.158 C 11.157 0.054 11.822 0 12.5 0" transform="matrix(1 0 0 1 0 0)" fill="#EBEBEB" stroke="none" />
</svg>
