<?xml version="1.0" encoding="UTF-8"?>
<!-- Reconstructed from Amplitude.Graphics.Svg.SvgAsset and recolored from static UIMapper.Color metadata for EWShop; not original source SVG. Live UI state/material colors are not included. -->
<svg xmlns="http://www.w3.org/2000/svg" width="25" height="25" viewBox="0 0 25 25">
  <path d="M 13.79 10.99 L 11.15 11.05 C 10.76 11.32 10.5 11.76 10.51 12.27 L 14.44 12.19 C 14.44 11.69 14.18 11.25 13.79 11 L 13.79 10.99" transform="matrix(1 0 0 1 0 0)" fill="#EBEBEB" stroke="none" />
  <path d="M 8.57 7.48 C 8.28 9.21 10.57 9.92 11.83 9.85 C 11.98 9.85 12.08 9.72 12.08 9.57 L 12.08 4.38 C 12.08 4.18 11.88 4.03 11.68 4.09 C 10.13 4.57 9.01 4.78 8.56 7.48 L 8.57 7.48" transform="matrix(1 0 0 1 0 0)" fill="#EBEBEB" stroke="none" />
  <path d="M 8.37 5.13 L 2.7 4.72 C 1.54 6.19 0.71 7.91 0.3 9.8 L 7.78 9.22 C 7.31 7.81 7.98 5.9 8.37 5.12 L 8.37 5.13" transform="matrix(1 0 0 1 0 0)" fill="#EBEBEB" stroke="none" />
  <path d="M 20.3 13.69 L 20.26 13.83 C 20.24 13.91 20.21 14 20.18 14.08 C 20.35 13.99 20.51 13.9 20.66 13.81 C 21.14 13.5 21.24 13.08 21.17 12.67 L 21.18 12.67 C 21.15 12.5 21.11 12.3 21.06 12.1 C 20.8 12.24 20.53 12.38 20.25 12.51 C 20.27 12.59 20.29 12.68 20.31 12.77 L 20.34 12.93 L 20.34 13.09 L 20.3 13.69" transform="matrix(1 0 0 1 0 0)" fill="#EBEBEB" stroke="none" />
  <path d="M 13.39 9.8 L 13.41 9.8 L 13.51 9.82 L 14.27 9.82 C 14.55 9.82 14.77 9.6 14.77 9.32 L 14.77 8.77 C 14.77 8.69 14.79 8.62 14.82 8.55 L 15.3 7.59 C 15.33 7.52 15.35 7.44 15.35 7.37 L 15.35 4.47 C 15.35 4.39 15.33 4.31 15.29 4.25 C 15.22 4.12 15.1 4.02 14.95 3.98 L 14.85 3.98 L 13.5 3.98 C 13.23 3.98 13 4.21 13 4.48 L 13 9.34 C 13 9.57 13.16 9.77 13.38 9.82 L 13.39 9.8" transform="matrix(1 0 0 1 0 0)" fill="#EBEBEB" stroke="none" />
  <path d="M 16.86 4.46 L 16.86 7.36 C 16.86 7.67 16.79 7.97 16.65 8.25 L 16.27 9 L 16.27 9.32 C 16.27 9.92 16.01 10.45 15.59 10.82 C 15.68 11 15.76 11.19 15.82 11.38 L 15.95 11.38 C 16.4 10.92 17.03 10.63 17.73 10.62 L 17.97 10.62 C 18.54 10.67 19.06 10.9 19.47 11.26 C 20 11.02 20.48 10.76 20.91 10.48 C 20.97 10.22 21.07 9.98 21.21 9.75 C 21.7 8.92 22.45 7.55 23.12 5.84 C 21.1 2.61 17.65 0.37 13.65 0.01 L 13.57 2.46 L 14.86 2.46 C 15.96 2.46 16.86 3.36 16.86 4.46" transform="matrix(1 0 0 1 0 0)" fill="#EBEBEB" stroke="none" />
  <path d="M 8.91 3.67 C 9.7 3.07 10.65 2.84 11.24 2.65 L 11.45 2.6 C 11.5 2.6 11.55 2.58 11.6 2.58 L 11.51 0 C 8.61 0.23 5.99 1.45 3.99 3.32 L 8.46 3.64 L 8.9 3.67 L 8.91 3.67" transform="matrix(1 0 0 1 0 0)" fill="#EBEBEB" stroke="none" />
  <path d="M 17.77 14.28 C 18.28 14.28 18.69 13.92 18.81 13.46 L 18.84 13 C 18.76 12.49 18.31 12.11 17.77 12.11 C 17.3 12.11 16.9 12.43 16.76 12.86 L 8.31 13.03 C 8.16 12.62 7.76 12.32 7.29 12.33 C 6.75 12.33 6.31 12.74 6.22 13.27 L 6.25 13.73 C 6.38 14.18 6.8 14.51 7.29 14.49 C 7.73 14.49 8.1 14.21 8.28 13.83 C 9.15 13.63 11.48 13.64 12.66 15.44 C 13.84 13.6 15.92 13.49 16.79 13.65 C 16.96 14.02 17.34 14.28 17.78 14.27 L 17.77 14.28" transform="matrix(1 0 0 1 0 0)" fill="#EBEBEB" stroke="none" />
  <path d="M 22.79 14.21 C 22.15 14.99 19.95 16 16.65 16.67 C 16.63 17.19 16.62 17.8 16.59 18.47 C 16.56 19.22 16.53 20.05 16.49 20.95 L 16.87 21.51 C 18.98 20.88 21.95 19.7 23.55 18.32 C 23.96 17.54 24.3 16.71 24.54 15.85 C 24.31 15.31 23.76 14.76 22.78 14.22 L 22.79 14.21" transform="matrix(1 0 0 1 0 0)" fill="#EBEBEB" stroke="none" />
  <path d="M 13.14 16.1 C 13.14 16.15 13.1 20.31 13.03 24.95 C 13.64 24.93 14.24 24.86 14.83 24.75 C 15.11 19.2 15.23 14.55 15.23 14.5 C 15.09 14.21 13.26 15.25 13.15 16.1 L 13.14 16.1" transform="matrix(1 0 0 1 0 0)" fill="#EBEBEB" stroke="none" />
  <path d="M 9.84 14.61 C 9.84 14.68 10 19.28 10.33 24.77 C 10.96 24.88 11.61 24.94 12.27 24.96 C 12.2 20.32 12.16 16.16 12.16 16.12 C 11.91 15.13 9.83 14.31 9.84 14.61" transform="matrix(1 0 0 1 0 0)" fill="#EBEBEB" stroke="none" />
  <path d="M 4.9 12.48 C 4.47 12.29 4.05 12.09 3.66 11.88 C 3.65 11.95 3.63 12.01 3.62 12.08 C 3.58 12.28 3.53 12.47 3.49 12.68 C 3.42 13.09 3.52 13.51 4 13.82 C 4.25 13.99 4.54 14.14 4.86 14.28 C 4.85 14.24 4.83 14.2 4.82 14.16 L 4.77 14 L 4.73 13.37 L 4.73 13.19 L 4.75 13.01 C 4.78 12.82 4.84 12.64 4.91 12.47 L 4.9 12.48" transform="matrix(1 0 0 1 0 0)" fill="#EBEBEB" stroke="none" />
  <path d="M 2.35 14.21 C 1.26 14.81 0.7 15.41 0.53 16.01 C 0.75 16.74 1.03 17.44 1.37 18.11 C 2.9 19.59 6.06 20.84 8.27 21.51 L 8.63 20.99 C 8.54 19.27 8.47 17.77 8.43 16.66 C 5.17 15.98 3 14.98 2.36 14.21 L 2.35 14.21" transform="matrix(1 0 0 1 0 0)" fill="#EBEBEB" stroke="none" />
</svg>
