<?xml version="1.0" encoding="UTF-8"?>
<!-- Reconstructed from Amplitude.Graphics.Svg.SvgAsset and recolored from static UIMapper.Color metadata for EWShop; not original source SVG. Live UI state/material colors are not included. -->
<svg xmlns="http://www.w3.org/2000/svg" width="25" height="25" viewBox="0 0 25 25">
  <path d="M 6.93 8.753 L 9.23 6.252 L 9.38 8.263 L 8.79 10.014 L 14.93 10.014 L 14.4 8.263 L 14.32 6.042 L 16.41 8.263 L 18.73 9.904 L 19.51 9.904 L 21.01 9.904 L 18.73 8.473 L 15.71 5.092 L 14.7 2.771 L 13.62 4.222 L 12.56 5.452 L 11.3 5.452 L 10.18 4.282 L 8.78 2.761 L 8.02 4.942 L 5.39 8.243 L 2.99 9.884 L 4.89 9.884 L 6.92 8.733 L 6.93 8.753" transform="matrix(1 0 0 1 0 0)" fill="#EBEBEB" stroke="none" />
  <path d="M 11.41 4.112 L 12.83 4.112 L 13.45 2.251 L 13.16 0.4 L 12.12 0 C 12.12 0 12.1 0 12.09 0 L 10.32 0.8 L 10.1 1.951 L 10.61 3.872 L 11.41 4.112" transform="matrix(1 0 0 1 0 0)" fill="#EBEBEB" stroke="none" />
  <path d="M 0 12.495 C 0 14.086 0.3 15.596 0.84 16.997 L 2.42 15.866 C 1.71 15.506 1.21 14.586 1.21 13.505 C 1.21 12.115 2.05 10.984 3.09 10.984 L 0.09 10.984 C 0.03 11.475 0 11.975 0 12.485 L 0 12.495" transform="matrix(1 0 0 1 0 0)" fill="#EBEBEB" stroke="none" />
  <path d="M 24.91 10.994 L 21.92 10.994 C 22.96 10.994 23.8 12.125 23.8 13.515 C 23.8 14.596 23.3 15.516 22.59 15.876 L 24.17 17.007 C 24.71 15.606 25.01 14.096 25.01 12.505 C 25.01 11.995 24.98 11.495 24.92 11.004 L 24.91 10.994" transform="matrix(1 0 0 1 0 0)" fill="#EBEBEB" stroke="none" />
  <path d="M 4.96 13.515 C 4.96 14.866 4.17 15.966 3.18 16.026 L 6 18.027 L 5.81 21.509 L 5.39 22.779 C 6.75 23.72 8.3 24.4 9.98 24.74 L 9.18 23 L 7 22.049 L 9.18 21.359 L 10.06 18.988 L 11 21.359 L 13.12 22.049 L 11 23 L 10.13 24.77 C 10.9 24.92 11.69 25 12.5 25 C 15.14 25 17.59 24.18 19.61 22.779 L 19.19 21.509 L 19 18.027 L 21.82 16.026 C 20.83 15.956 20.04 14.856 20.04 13.515 C 20.04 12.125 20.88 10.994 21.92 10.994 L 3.08 10.994 C 4.12 10.994 4.96 12.125 4.96 13.515 M 13.88 12.215 L 18.02 16.116 L 17.18 19.338 L 17.21 19.368 L 13.82 21.359 L 12.81 20.388 L 11.43 19.658 L 13.44 16.307 L 13.61 16.026 L 13.38 15.796 L 11.4 13.736 L 13.87 12.225 L 13.88 12.215 M 7.42 14.106 L 10.46 13.966 L 12.55 16.136 L 10.68 19.248 L 9.18 18.447 L 7.35 15.886 L 7.43 14.106 L 7.42 14.106" transform="matrix(1 0 0 1 0 0)" fill="#EBEBEB" stroke="none" />
</svg>
