<?xml version="1.0" encoding="UTF-8"?>
<!-- Reconstructed from Amplitude.Graphics.Svg.SvgAsset and recolored from static UIMapper.Color metadata for EWShop; not original source SVG. Live UI state/material colors are not included. -->
<svg xmlns="http://www.w3.org/2000/svg" width="25" height="25" viewBox="0 0 25 25">
  <path d="M 13.341 13.93 C 13.483 14.924 12.787 21.363 10.919 24.9 C 11.248 24.942 11.581 24.97 11.917 24.985 C 13.751 21.206 14.424 14.935 14.261 13.797 L 13.341 13.93 M 8.172 21.282 C 8.15 21.989 7.877 22.653 7.399 23.107 C 7.536 23.205 7.674 23.3 7.822 23.388 C 8.463 23.772 9.099 23.967 9.566 23.985 C 10.031 24.007 10.267 23.857 10.324 23.703 C 10.383 23.556 10.336 23.237 10.031 22.804 C 9.729 22.366 9.208 21.875 8.564 21.495 C 8.526 21.474 8.483 21.449 8.447 21.424 C 8.357 21.374 8.264 21.328 8.172 21.282 M 6.206 19.263 C 5.838 19.064 5.433 19.013 5.064 19.141 C 4.281 19.408 3.85 20.417 4.21 21.46 C 4.313 21.761 4.469 22.018 4.654 22.227 C 4.853 22.388 5.058 22.542 5.267 22.69 C 5.606 22.847 5.973 22.881 6.308 22.766 C 7.091 22.498 7.524 21.485 7.169 20.444 C 6.982 19.89 6.619 19.481 6.206 19.263 M 19.663 19.94 C 19.41 20.155 19.134 20.357 18.834 20.534 C 18.751 20.585 18.669 20.631 18.586 20.672 C 18.478 21.147 18.445 21.585 18.47 21.928 C 18.485 22.185 18.537 22.385 18.601 22.509 C 18.658 22.631 18.71 22.667 18.75 22.682 C 18.788 22.692 18.851 22.699 18.975 22.636 C 19.097 22.578 19.261 22.45 19.436 22.258 C 19.666 22.002 19.908 21.633 20.117 21.187 C 20.079 21.108 20.042 21.022 20.009 20.934 C 19.876 20.609 19.785 20.282 19.719 19.963 C 19.71 19.957 19.697 19.953 19.685 19.949 C 19.678 19.947 19.672 19.946 19.663 19.94 M 22.214 19.13 C 21.787 19.643 21.197 19.981 20.576 20.05 C 20.622 20.2 20.675 20.352 20.733 20.506 C 20.874 20.864 21.049 21.181 21.231 21.441 C 21.704 20.98 22.14 20.483 22.535 19.952 C 22.493 19.809 22.445 19.665 22.389 19.522 C 22.335 19.387 22.278 19.254 22.214 19.13 M 9.562 18.849 C 9.278 18.793 8.922 18.786 8.539 18.849 C 8.507 18.937 8.474 19.026 8.439 19.119 C 8.303 19.465 8.144 19.782 7.969 20.067 L 8.002 20.159 C 8.01 20.186 8.017 20.212 8.029 20.241 C 8.311 20.352 8.6 20.491 8.892 20.664 C 9.005 20.733 9.114 20.799 9.219 20.874 C 9.561 20.682 9.842 20.461 10.034 20.236 C 10.338 19.882 10.411 19.579 10.337 19.358 C 10.288 19.224 10.174 19.093 9.987 18.995 C 9.876 18.933 9.731 18.888 9.562 18.849 M 1.798 17.916 C 1.566 17.905 1.393 17.937 1.27 17.99 C 1.698 18.864 2.224 19.681 2.836 20.426 C 2.959 20.497 3.081 20.563 3.203 20.62 C 3.229 19.915 3.496 19.253 3.969 18.796 C 3.837 18.7 3.693 18.603 3.545 18.516 C 3.502 18.492 3.463 18.47 3.427 18.444 C 2.825 18.11 2.237 17.935 1.798 17.916 M 17.935 17.89 C 17.9 17.914 17.86 17.937 17.823 17.957 C 17.215 18.316 16.722 18.781 16.437 19.195 C 16.149 19.605 16.103 19.907 16.159 20.046 C 16.213 20.191 16.436 20.333 16.876 20.312 C 17.319 20.295 17.919 20.111 18.525 19.748 C 18.665 19.665 18.797 19.575 18.926 19.482 C 18.474 19.052 18.216 18.425 18.195 17.756 C 18.108 17.799 18.02 17.842 17.935 17.89 M 21.134 15.73 C 20.785 15.61 20.402 15.658 20.055 15.846 C 19.664 16.052 19.321 16.439 19.144 16.963 C 18.808 17.947 19.218 18.906 19.959 19.159 C 20.696 19.414 21.606 18.908 21.942 17.924 C 22.283 16.937 21.875 15.983 21.134 15.73 M 7.66 15.926 C 7.518 15.847 7.247 15.871 6.893 16.175 C 6.534 16.476 6.153 17.018 5.879 17.715 C 5.817 17.877 5.762 18.038 5.713 18.196 C 6.372 18.264 6.991 18.619 7.442 19.162 C 7.507 19.035 7.568 18.894 7.625 18.752 C 7.899 18.055 8.009 17.351 7.979 16.817 C 7.952 16.291 7.8 16.009 7.66 15.926 M 23.586 17.714 C 23.31 17.877 23.029 18.012 22.763 18.117 L 22.737 18.195 C 22.734 18.208 22.729 18.22 22.724 18.232 C 22.719 18.244 22.713 18.257 22.709 18.269 C 22.857 18.517 22.994 18.792 23.113 19.093 C 23.114 19.094 23.116 19.096 23.116 19.098 C 23.424 18.603 23.698 18.085 23.936 17.548 C 23.92 17.539 23.904 17.529 23.888 17.519 C 23.791 17.584 23.689 17.651 23.586 17.714 M 3.792 15.42 C 3.75 15.436 3.697 15.468 3.63 15.599 C 3.569 15.729 3.514 15.94 3.493 16.21 C 3.467 16.572 3.505 17.038 3.613 17.542 C 3.701 17.585 3.788 17.633 3.871 17.684 C 4.189 17.872 4.482 18.085 4.749 18.312 L 4.778 18.301 C 4.798 18.295 4.818 18.289 4.834 18.281 C 4.907 17.917 5.013 17.543 5.161 17.176 C 5.172 17.145 5.185 17.115 5.197 17.086 C 5.209 17.056 5.221 17.026 5.232 16.996 C 5.013 16.531 4.759 16.137 4.514 15.86 C 4.354 15.682 4.201 15.563 4.079 15.489 L 4.027 15.461 C 3.898 15.4 3.834 15.404 3.792 15.42 M 17.581 15.422 C 17.321 15.401 17.081 15.414 16.88 15.454 C 16.719 15.49 16.583 15.534 16.478 15.593 C 16.301 15.686 16.194 15.809 16.148 15.935 C 16.078 16.144 16.146 16.431 16.433 16.766 C 16.615 16.979 16.88 17.188 17.204 17.37 C 17.303 17.299 17.406 17.236 17.514 17.171 C 17.79 17.007 18.063 16.877 18.329 16.771 C 18.34 16.744 18.348 16.718 18.356 16.693 C 18.361 16.68 18.366 16.665 18.371 16.65 C 18.376 16.636 18.381 16.62 18.387 16.606 C 18.221 16.337 18.071 16.037 17.942 15.71 C 17.91 15.622 17.878 15.538 17.848 15.454 L 17.581 15.422 M 24.225 14.572 C 23.809 14.59 23.252 14.755 22.683 15.071 C 22.648 15.095 22.612 15.116 22.571 15.139 C 22.431 15.222 22.296 15.313 22.171 15.404 C 22.618 15.836 22.87 16.463 22.895 17.13 C 23.021 17.07 23.15 17.004 23.277 16.928 C 23.809 16.614 24.251 16.22 24.545 15.849 C 24.651 15.469 24.74 15.082 24.81 14.687 C 24.694 14.611 24.503 14.559 24.225 14.572 M 19.405 12.924 C 19.07 12.637 18.813 12.615 18.679 12.689 C 18.547 12.768 18.402 13.035 18.376 13.533 C 18.348 14.038 18.452 14.703 18.712 15.362 C 18.766 15.497 18.823 15.63 18.885 15.75 C 19.312 15.236 19.897 14.901 20.521 14.837 C 20.475 14.687 20.422 14.534 20.363 14.381 C 20.104 13.722 19.744 13.209 19.405 12.924 M 22.338 12.21 C 22.298 12.195 22.237 12.192 22.115 12.249 L 22.066 12.276 C 21.951 12.346 21.806 12.458 21.655 12.627 C 21.423 12.889 21.182 13.261 20.975 13.701 L 21.043 13.871 C 21.183 14.219 21.284 14.572 21.353 14.917 C 21.367 14.925 21.386 14.93 21.405 14.935 L 21.433 14.947 C 21.686 14.732 21.963 14.531 22.263 14.353 C 22.342 14.304 22.423 14.259 22.507 14.218 C 22.609 13.741 22.645 13.3 22.62 12.958 C 22.601 12.703 22.549 12.503 22.491 12.381 C 22.428 12.257 22.378 12.225 22.338 12.21 M 2.793 9.668 L 0.327 10.528 L 2.793 11.39 L 3.653 13.854 L 4.515 11.39 L 6.979 10.528 L 4.515 9.668 L 3.653 7.202 L 2.793 9.668 M 14.225 9.417 C 13.584 9.886 12.808 10.105 12.072 10.005 C 12.082 10.191 12.099 10.381 12.122 10.575 C 12.23 11.404 12.497 12.104 12.806 12.53 C 13.109 12.958 13.404 13.056 13.579 13.004 C 13.754 12.951 13.999 12.691 14.173 12.124 C 14.351 11.55 14.421 10.748 14.314 9.919 C 14.291 9.748 14.262 9.578 14.225 9.417 M 11.053 9.614 C 10.699 9.789 10.322 9.942 9.925 10.059 C 9.814 10.095 9.708 10.124 9.6 10.147 C 9.338 10.663 9.173 11.16 9.104 11.561 C 9.047 11.862 9.049 12.107 9.087 12.268 C 9.118 12.426 9.167 12.482 9.209 12.511 C 9.25 12.534 9.32 12.561 9.481 12.523 C 9.639 12.492 9.863 12.392 10.12 12.221 C 10.459 11.992 10.846 11.637 11.216 11.183 C 11.194 11.081 11.176 10.971 11.163 10.86 C 11.104 10.447 11.093 10.044 11.109 9.656 C 11.101 9.647 11.088 9.639 11.074 9.632 C 11.068 9.628 11.061 9.623 11.053 9.614 M 20.825 7.005 L 18.751 7.729 L 20.825 8.454 L 21.55 10.529 L 22.274 8.454 L 24.091 7.819 C 24.063 7.749 24.037 7.678 24.008 7.609 L 22.274 7.005 L 21.55 4.931 L 20.825 7.005 M 16.216 8.18 C 15.851 8.289 15.487 8.364 15.15 8.408 L 15.098 8.49 C 15.09 8.503 15.081 8.517 15.071 8.529 C 15.062 8.542 15.052 8.555 15.044 8.568 C 15.143 8.896 15.222 9.253 15.273 9.634 C 15.294 9.776 15.304 9.922 15.314 10.062 C 15.718 10.228 16.104 10.325 16.434 10.34 C 16.959 10.359 17.274 10.212 17.417 9.997 C 17.558 9.776 17.567 9.425 17.334 8.961 C 17.18 8.665 16.941 8.346 16.619 8.043 C 16.489 8.089 16.353 8.137 16.216 8.18 M 9.65 6.753 C 9.604 6.771 9.551 6.786 9.503 6.799 C 8.698 7.037 7.997 7.431 7.548 7.826 C 7.098 8.215 6.958 8.55 6.982 8.726 C 7.003 8.91 7.219 9.138 7.732 9.24 C 8.247 9.348 8.992 9.308 9.796 9.064 C 9.981 9.009 10.159 8.945 10.334 8.875 C 9.938 8.249 9.82 7.451 9.989 6.674 C 9.876 6.698 9.762 6.723 9.65 6.753 M 13.961 5.186 C 13.594 4.947 13.138 4.892 12.684 5.008 C 12.174 5.133 11.666 5.481 11.311 6.034 C 10.64 7.072 10.836 8.294 11.617 8.8 C 12.394 9.306 13.589 8.986 14.261 7.948 C 14.937 6.909 14.742 5.692 13.961 5.186 M 17.856 4.743 C 17.373 4.644 16.683 4.674 15.937 4.874 C 15.89 4.892 15.841 4.905 15.788 4.92 C 15.603 4.975 15.42 5.041 15.25 5.109 C 15.641 5.736 15.751 6.531 15.587 7.307 C 15.75 7.275 15.917 7.235 16.086 7.184 C 16.891 6.946 17.592 6.552 18.041 6.157 C 18.491 5.768 18.626 5.435 18.606 5.252 C 18.581 5.075 18.37 4.846 17.856 4.743 M 9.138 3.642 C 8.942 3.638 8.772 3.648 8.634 3.685 C 8.403 3.742 8.244 3.853 8.154 3.985 C 8.013 4.206 8.01 4.556 8.244 5.025 C 8.393 5.323 8.638 5.64 8.959 5.943 C 9.093 5.89 9.231 5.847 9.373 5.804 C 9.738 5.694 10.092 5.622 10.429 5.578 C 10.449 5.55 10.465 5.523 10.481 5.496 C 10.491 5.482 10.501 5.465 10.511 5.45 C 10.521 5.435 10.532 5.418 10.542 5.404 C 10.429 5.046 10.342 4.657 10.288 4.243 C 10.276 4.132 10.264 4.026 10.253 3.921 C 9.852 3.748 9.462 3.658 9.138 3.642 M 12.009 0.973 C 11.834 1.026 11.59 1.292 11.416 1.859 C 11.238 2.433 11.166 3.23 11.275 4.064 C 11.298 4.235 11.326 4.405 11.362 4.561 C 12.003 4.092 12.774 3.874 13.512 3.979 C 13.502 3.793 13.485 3.604 13.462 3.41 C 13.353 2.576 13.086 1.88 12.777 1.454 C 12.474 1.027 12.185 0.927 12.009 0.973 M 16.096 1.457 L 16.031 1.474 C 15.878 1.521 15.678 1.609 15.456 1.76 C 15.113 1.995 14.73 2.356 14.363 2.803 C 14.367 2.839 14.372 2.874 14.377 2.91 C 14.382 2.946 14.388 2.981 14.392 3.017 C 14.453 3.459 14.467 3.895 14.447 4.312 C 14.462 4.325 14.483 4.338 14.503 4.349 C 14.507 4.354 14.512 4.356 14.517 4.359 C 14.522 4.362 14.527 4.365 14.531 4.37 C 14.885 4.195 15.262 4.043 15.659 3.925 C 15.764 3.891 15.871 3.862 15.979 3.839 C 16.234 3.319 16.404 2.822 16.474 2.42 C 16.525 2.12 16.522 1.875 16.491 1.718 C 16.454 1.556 16.406 1.505 16.364 1.476 C 16.322 1.448 16.253 1.426 16.096 1.457" transform="matrix(1 0 0 1 0 0)" fill="#FFFFFF" stroke="none" />
</svg>
