<?xml version="1.0" encoding="UTF-8"?>
<!-- Reconstructed from Amplitude.Graphics.Svg.SvgAsset and recolored from static UIMapper.Color metadata for EWShop; not original source SVG. Live UI state/material colors are not included. -->
<svg xmlns="http://www.w3.org/2000/svg" width="21" height="21" viewBox="0 0 21 21">
  <path d="M 11.226 3.685 L 12.753 1.556 C 11.607 1.27 10.386 1.193 9.145 1.365 C 6.042 1.804 3.446 3.713 1.909 6.357 C 3.408 4.84 5.355 3.79 7.551 3.484 C 8.811 3.303 10.052 3.389 11.226 3.685" transform="matrix(1 0 0 1 0 0)" fill="none" stroke="none" />
  <path d="M 8.496 5.775 C 6.234 6.09 4.353 7.484 3.236 9.412 C 4.325 8.305 5.737 7.541 7.341 7.321 C 7.79 7.255 8.238 7.236 8.677 7.264 L 9.785 5.718 C 9.365 5.699 8.935 5.718 8.505 5.775 L 8.496 5.775" transform="matrix(1 0 0 1 0 0)" fill="none" stroke="none" />
  <path d="M 15.282 4.41 C 15.397 3.608 15.645 2.988 16.056 2.835 C 15.664 2.511 15.216 2.959 14.614 3.971 C 13.469 5.909 12.552 10.405 16.056 9.078 C 15.798 8.887 15.588 8.381 15.435 7.742 L 16.266 6.634 L 15.263 6.634 C 15.235 6.377 15.216 6.1 15.216 5.842 L 16.275 4.42 L 15.292 4.42 L 15.282 4.41" transform="matrix(1 0 0 1 0 0)" fill="none" stroke="none" />
  <path d="M 10.567 12.39 C 12.008 12.533 12.877 13.249 13.144 14.166 L 11.321 14.166 L 13.077 15.674 C 13.01 15.874 12.915 16.075 12.791 16.266 L 10.032 16.266 L 11.33 17.707 C 10.767 18.07 10.08 18.375 9.259 18.595 C 10.08 19.482 10.91 19.922 12.142 19.922 C 15.024 16.38 17.497 12.829 10.557 12.39 L 10.567 12.39" transform="matrix(1 0 0 1 0 0)" fill="none" stroke="none" />
  <path d="M 16.008 10.176 C 10.911 10.891 12.715 5.307 14.357 3.083 C 15.674 1.308 16.829 2.348 17.239 3.083 C 17.239 3.026 16.8 -3.513 10.643 6.625 C 9.221 8.963 9.402 11.369 10.643 11.493 C 18.49 12.142 15.884 17.048 13.068 20.026 C 14.328 20.084 15.712 19.912 17.087 19.463 C 18.175 15.559 19.148 9.717 15.998 10.156 L 16.008 10.176" transform="matrix(1 0 0 1 0 0)" fill="none" stroke="none" />
</svg>
