<?xml version="1.0" encoding="UTF-8"?>
<!-- Reconstructed from Amplitude.Graphics.Svg.SvgAsset and recolored from static UIMapper.Color metadata for EWShop; not original source SVG. Live UI state/material colors are not included. -->
<svg xmlns="http://www.w3.org/2000/svg" width="25" height="26" viewBox="0 0 25 26">
  <path d="M 10.779 25.347 C 11.26 25.412 11.75 25.451 12.248 25.46 L 12.374 25.053 L 11.725 24.076 L 10.779 25.347" transform="matrix(1 0 0 1 0 0)" fill="#EBEBEB" stroke="none" />
  <path d="M 13.066 25.448 C 13.206 25.442 13.345 25.434 13.483 25.423 L 13.122 25.286 L 13.066 25.448" transform="matrix(1 0 0 1 0 0)" fill="#EBEBEB" stroke="none" />
  <path d="M 0.003 13.679 C 0.183 16.853 1.546 19.711 3.66 21.817 C 3.835 21.992 4.155 22.096 4.373 22.214 L 4.603 21.817 L 6.336 21.157 L 7.261 21.686 L 8.318 21.157 L 9.341 21.389 L 10.002 22.329 L 11.207 22.594 L 11.636 23.534 L 12.544 23.634 L 12.792 24.459 L 14.467 25.306 C 15.084 25.207 15.687 25.063 16.27 24.878 L 13.568 23.534 L 13.122 22.94 L 13.485 22.692 L 17.059 24.594 C 17.486 24.426 17.901 24.236 18.306 24.023 L 18.207 23.716 L 14.542 21.537 L 14.955 21.157 L 19.131 23.534 L 19.874 22.94 L 20.006 22.494 C 19.016 21.746 16.997 20.228 16.836 20.134 C 16.677 20.041 15.119 19.281 14.36 18.912 L 12.544 19.556 L 11.835 20.942 L 10.15 20.942 L 9.622 20.431 L 10.448 16.732 L 12.048 15.362 L 8.747 16.287 L 5.557 18.183 C 3.711 16.675 0.003 13.679 0.003 13.679" transform="matrix(1 0 0 1 0 0)" fill="#EBEBEB" stroke="none" />
  <path d="M 8.524 24.821 C 9.018 24.986 9.523 25.12 10.034 25.222 L 10.764 24.076 L 10.764 23.326 L 9.868 23.097 L 8.524 24.821" transform="matrix(1 0 0 1 0 0)" fill="#EBEBEB" stroke="none" />
  <path d="M 8.038 21.996 L 6.5 23.94 C 6.962 24.192 7.44 24.412 7.93 24.604 L 8.778 23.586 L 9.341 22.329 L 8.667 21.897 L 8.038 21.996" transform="matrix(1 0 0 1 0 0)" fill="#EBEBEB" stroke="none" />
  <path d="M 5.097 22.437 L 4.837 22.849 C 5.224 23.148 5.626 23.426 6.045 23.679 L 6.977 22.594 L 6.538 21.817 L 5.948 21.817 L 5.097 22.437" transform="matrix(1 0 0 1 0 0)" fill="#EBEBEB" stroke="none" />
  <path d="M 14.177 2.974 C 13.841 3.316 13.755 3.955 13.602 4.392 C 13.543 4.56 13.534 4.773 13.533 4.915 C 13.531 5.27 13.43 5.593 13.361 5.944 C 13.291 6.3 13.284 6.667 13.267 7.028 L 13.435 9.374 C 13.445 9.538 13.212 9.682 13.11 9.782 C 12.864 10.024 12.809 10.394 12.963 10.699 C 13.092 10.954 13.8 11.907 13.597 12.177 C 13.278 12.601 12.625 13.159 12.598 13.728 L 12.59 13.901 C 12.574 14.246 12.841 14.537 13.18 14.561 L 13.238 14.565 C 14.052 14.62 14.635 13.301 15.038 12.762 C 15.056 12.737 15.082 12.717 15.112 12.704 C 15.457 12.556 15.938 12.224 16.313 12.199 C 16.991 12.154 17.713 12.177 18.381 12.056 C 18.345 12.081 18.308 12.113 18.266 12.13 L 16.9 12.667 C 16.324 12.894 16.205 13.702 15.742 14.048 L 15.544 14.194 L 16.038 15.244 L 16.568 15.327 L 16.668 15.254 C 16.938 15.059 17.077 14.672 17.231 14.397 C 17.385 14.13 18.526 14.596 18.693 14.752 L 20.316 16.271 C 20.449 16.395 20.644 16.478 20.821 16.521 L 20.006 17.009 L 19.131 16.732 L 16.622 15.362 L 13.122 15.569 L 10.919 17.377 L 10.67 18.811 L 10.15 19.982 L 10.764 20.134 L 11.636 19.982 L 12.544 18.462 L 14.423 17.987 L 15.67 18.462 L 18.949 20.494 L 20.146 21.778 C 20.395 21.824 20.894 21.905 20.894 21.865 C 20.9 21.855 21.19 21.697 21.661 21.445 C 23.013 19.982 24.022 18.197 24.554 16.215 C 24.744 15.508 24.871 14.785 24.934 14.056 L 21.615 16.045 C 21.677 15.772 21.594 15.482 21.388 15.285 L 19.484 13.467 C 19.413 13.399 19.327 13.344 19.236 13.308 C 19.49 13.224 19.951 12.953 20.219 13.009 L 22.846 13.565 C 22.995 13.597 23.152 13.577 23.303 13.57 C 23.652 13.554 23.909 13.252 23.894 12.913 C 23.877 12.614 23.733 12.34 23.459 12.199 L 22.868 11.897 L 22.319 11.51 C 22.057 11.326 21.712 11.319 21.444 11.493 L 21.048 11.749 C 20.84 11.884 20.496 11.473 20.353 11.361 C 20.104 11.168 19.768 11.144 19.496 11.294 C 19.628 11.189 19.764 11.04 19.917 10.968 L 21.153 10.383 C 21.462 10.237 21.638 9.909 21.592 9.57 L 21.509 8.961 C 21.48 8.739 21.879 8.637 22.027 8.562 C 22.313 8.417 22.48 8.114 22.452 7.795 L 22.393 7.12 L 22.427 6.463 C 22.442 6.175 22.299 5.902 22.058 5.747 L 21.918 5.671 C 20.73 5.205 20.226 8.478 20.101 8.857 C 20.016 9.118 19.55 9.381 19.35 9.559 C 19.373 9.467 19.357 9.355 19.335 9.265 C 19.149 8.492 19.114 6.449 18.197 6.135 L 18.084 6.104 C 17.508 5.997 17.219 6.66 17.329 7.138 L 17.827 9.304 C 17.908 9.657 17.655 10.249 17.584 10.602 C 17.513 10.948 16.257 10.741 15.999 10.739 C 15.675 10.738 15.355 10.95 15.069 11.077 C 14.748 11.22 14.472 10.325 14.603 10.129 L 14.91 9.67 C 15.164 9.288 15.032 8.692 15.025 8.263 C 15.175 7.967 15.34 7.719 15.534 7.444 C 15.654 7.274 15.942 7.151 16.116 7.039 L 16.765 6.466 C 17.004 6.256 17.379 6.222 17.634 6.025 C 17.874 5.841 18.206 5.452 18.502 5.378 C 18.905 5.277 19.486 5.248 19.78 4.917 L 19.926 4.75 C 20.196 4.445 20.016 4.188 19.854 3.908 C 19.645 3.536 19.175 3.385 18.791 3.58 C 18.56 3.697 18.218 3.973 17.956 3.982 L 16.814 4.023 C 16.268 4.043 15.93 4.671 15.618 5.043 L 14.981 5.654 L 14.974 5.494 L 15.377 3.931 C 15.385 3.9 15.401 3.872 15.422 3.85 L 17.249 2.001 C 17.386 1.862 17.442 1.69 17.478 1.504 C 17.037 1.311 16.584 1.141 16.118 1 L 14.177 2.974" transform="matrix(1 0 0 1 0 0)" fill="#EBEBEB" stroke="none" />
  <path d="M 10.37 2.781 C 10.128 2.602 9.807 2.58 9.538 2.706 C 9.023 2.93 9.126 3.568 9.414 3.935 L 11.071 6.046 C 11.239 6.261 11.2 6.795 11.237 7.06 C 11.169 6.991 11.074 6.942 10.984 6.909 C 10.238 6.635 8.519 5.53 7.749 6.119 L 7.661 6.196 C 7.252 6.615 7.644 7.224 8.101 7.397 L 10.18 8.186 C 10.518 8.314 10.871 8.853 11.125 9.107 C 11.374 9.358 10.504 10.289 10.36 10.503 C 10.179 10.772 10.177 11.155 10.125 11.464 C 10.065 11.81 9.169 11.542 9.078 11.325 L 8.866 10.815 C 8.689 10.391 8.12 10.171 7.758 9.938 L 7.582 9.628 C 7.484 9.457 7.431 9.245 7.36 9.062 C 7.285 8.865 7.346 8.56 7.346 8.353 L 7.23 7.493 C 7.189 7.178 7.368 6.847 7.346 6.526 C 7.326 6.225 7.186 5.731 7.289 5.444 C 7.428 5.054 7.726 4.554 7.614 4.126 L 7.556 3.912 C 7.452 3.52 7.139 3.523 6.816 3.505 C 6.39 3.472 6.005 3.779 5.954 4.207 C 5.922 4.465 5.962 4.9 5.824 5.125 L 5.225 6.098 C 4.937 6.564 5.273 7.192 5.41 7.659 L 5.564 8.527 L 5.427 8.444 L 4.35 7.242 C 4.329 7.219 4.314 7.19 4.308 7.159 L 3.785 4.614 C 3.752 4.454 3.669 4.33 3.562 4.21 C 3.157 4.623 2.779 5.063 2.434 5.528 L 2.888 7.709 C 2.912 7.821 2.959 7.927 3.028 8.019 L 3.75 8.975 C 3.9 9.174 4.123 9.318 4.337 9.442 C 4.525 9.643 4.712 9.844 4.907 10.037 C 5.163 10.292 5.468 10.539 5.775 10.727 L 6.479 11.12 L 6.104 13.148 C 6.088 13.234 6.073 13.359 6.107 13.442 C 5.898 13.276 5.418 13.038 5.318 12.783 L 4.344 10.28 C 4.289 10.138 4.187 10.019 4.098 9.896 C 3.893 9.614 3.501 9.562 3.225 9.761 C 2.982 9.937 2.833 10.212 2.866 10.517 L 2.937 11.177 L 2.914 11.848 C 2.903 12.167 3.086 12.46 3.379 12.589 L 3.81 12.779 C 4.037 12.879 3.882 13.392 3.867 13.573 C 3.839 13.914 4.032 14.233 4.349 14.362 L 5.616 14.879 C 6.047 15.056 6.47 15.478 6.851 15.747 C 7.254 16.032 8.089 15.927 8.576 15.948 C 9.099 15.955 9.165 15.566 9.478 15.057 L 9.258 14.568 C 9.139 14.523 9.024 14.48 8.895 14.474 L 8.116 14.523 C 7.766 14.542 7.678 13.426 7.616 13.185 C 7.528 12.836 7.762 12.246 7.824 11.894 C 7.944 11.989 7.935 12.239 7.96 12.375 C 8.025 12.713 8.303 12.965 8.642 13.006 C 8.926 13.04 10.11 12.98 10.222 13.298 C 10.398 13.799 10.5 14.652 10.959 14.99 L 11.099 15.094 C 11.377 15.298 11.766 15.238 11.974 14.969 L 12.01 14.922 C 12.507 14.277 11.734 13.057 11.509 12.425 C 11.499 12.396 11.497 12.364 11.502 12.332 C 11.57 11.962 11.561 11.378 11.749 11.052 L 12.739 9.332 C 12.818 9.194 12.854 9.034 12.841 8.875 C 12.803 8.41 12.656 7.831 12.723 7.37 L 12.923 6.017 C 12.973 5.678 12.798 5.349 12.491 5.2 L 11.938 4.932 C 11.736 4.833 11.873 4.445 11.893 4.279 C 11.931 3.961 11.772 3.655 11.492 3.501 L 10.897 3.175 L 10.37 2.781" transform="matrix(1 0 0 1 0 0)" fill="#EBEBEB" stroke="none" />
</svg>
