<?xml version="1.0" encoding="UTF-8"?>
<!-- Reconstructed from Amplitude.Graphics.Svg.SvgAsset and recolored from static UIMapper.Color metadata for EWShop; not original source SVG. Live UI state/material colors are not included. -->
<svg xmlns="http://www.w3.org/2000/svg" width="25" height="25" viewBox="0 0 25 25">
  <path d="M 12.501 11.621 C 9.966 11.621 7.67 12.063 5.969 12.803 C 5.118 13.172 4.414 13.615 3.905 14.139 C 3.396 14.662 3.078 15.285 3.078 15.956 C 3.078 16.405 3.222 16.833 3.469 17.224 C 3.02 18.183 2.769 19.229 2.754 20.322 C 5.045 23.173 8.558 25 12.5 25 C 16.442 25 19.956 23.173 22.247 20.322 C 22.232 19.229 21.981 18.183 21.533 17.224 C 21.78 16.833 21.923 16.405 21.923 15.956 C 21.923 15.284 21.605 14.662 21.096 14.139 C 20.587 13.615 19.884 13.172 19.034 12.803 C 17.334 12.063 15.036 11.621 12.501 11.621 M 12.501 12.466 C 14.937 12.466 17.14 12.9 18.696 13.577 C 19.475 13.916 20.09 14.315 20.491 14.728 C 20.893 15.141 21.077 15.547 21.077 15.956 C 21.077 16.365 20.893 16.773 20.491 17.186 C 20.09 17.599 19.474 17.998 18.696 18.336 C 17.14 19.013 14.937 19.447 12.501 19.447 C 10.065 19.447 7.862 19.013 6.306 18.336 C 5.527 17.998 4.914 17.599 4.512 17.186 C 4.11 16.773 3.924 16.365 3.924 15.956 C 3.924 15.547 4.11 15.141 4.512 14.728 C 4.914 14.315 5.527 13.916 6.306 13.577 C 7.862 12.9 10.066 12.466 12.501 12.466 M 12.853 13.248 C 11.316 13.248 9.908 13.455 8.785 13.804 C 9.594 13.705 10.476 13.672 11.399 13.672 C 15.292 13.672 18.453 14.623 18.453 15.811 C 18.453 16.998 15.292 17.978 11.399 17.978 C 10.242 17.978 9.168 17.864 8.204 17.713 C 9.397 18.18 11.042 18.48 12.853 18.48 C 16.497 18.479 19.456 17.304 19.456 15.864 C 19.456 14.424 16.497 13.248 12.853 13.248 M 3.973 4.483 L 3.662 6.114 L 4.688 7.372 L 4.547 8.124 L 2.326 8.544 L 1.171 16.459 L 2.092 17.565 C 2.118 17.492 2.146 17.42 2.174 17.349 L 2.289 16.696 C 2.072 16.303 1.948 15.88 1.948 15.439 C 1.948 14.689 2.302 13.993 2.869 13.408 L 3.182 11.637 L 3.438 12.905 C 3.926 12.53 4.515 12.198 5.186 11.906 C 5.681 11.691 6.221 11.499 6.8 11.331 L 7.46 8.392 L 5.989 8.124 L 5.989 7.457 L 6.81 6.484 L 7.058 5.148 L 6.523 3.966 L 5.035 3.47 L 3.973 4.483 M 18.811 3.966 L 18.276 5.148 L 18.524 6.484 L 19.344 7.457 L 19.344 8.124 L 17.874 8.392 L 18.558 11.439 C 19.003 11.579 19.425 11.736 19.817 11.906 C 20.623 12.257 21.311 12.666 21.849 13.139 L 22.152 11.637 L 22.512 13.861 C 22.853 14.34 23.053 14.874 23.053 15.439 C 23.053 15.728 23 16.009 22.902 16.279 L 23.007 16.929 L 23.88 16.013 L 23.007 8.544 L 20.786 8.124 L 20.647 7.372 L 21.671 6.114 L 21.36 4.483 L 20.298 3.47 L 18.811 3.966 M 11.593 0.605 L 11.034 1.842 L 11.294 3.237 L 12.151 4.254 L 12.151 4.951 L 9.738 5.391 L 9.279 7.299 L 8.485 10.594 L 8.399 10.952 C 8.869 10.863 9.355 10.789 9.856 10.731 L 9.959 10.325 L 10.294 9.001 L 10.744 10.648 C 11.315 10.605 11.902 10.583 12.501 10.583 C 13.245 10.583 13.97 10.618 14.67 10.683 L 15.086 8.622 L 15.43 10.075 L 15.599 10.789 C 16.174 10.868 16.729 10.968 17.259 11.088 L 17.233 10.974 L 16.259 6.634 L 15.979 5.391 L 13.658 4.951 L 13.512 4.165 L 14.583 2.851 L 14.259 1.146 L 13.148 0.087 L 11.593 0.605" transform="matrix(1 0 0 1 0 0)" fill="#FFFFFF" stroke="none" />
</svg>
