<?xml version="1.0" encoding="UTF-8"?>
<!-- Reconstructed from Amplitude.Graphics.Svg.SvgAsset and recolored from static UIMapper.Color metadata for EWShop; not original source SVG. Live UI state/material colors are not included. -->
<svg xmlns="http://www.w3.org/2000/svg" width="25" height="25" viewBox="0 0 25 25">
  <path d="M 10.684 20.576 L 11.997 21.407 L 11.997 24 C 10.445 23.9 8.901 23.478 7.487 22.771 L 9.861 20.083 L 10.684 20.576 M 17.467 22.771 C 16.053 23.478 14.509 23.9 12.957 24 L 12.957 21.407 L 15.077 20.066 L 17.467 22.771 M 22.079 18.727 C 21.211 20.149 20.021 21.33 18.661 22.231 L 15.941 19.817 L 17.862 18.029 L 22.079 18.727 M 8.997 19.816 L 6.254 22.201 C 4.91 21.307 3.742 20.127 2.874 18.726 L 7.076 18.028 C 7.095 18.046 8.985 19.816 8.997 19.816 M 8.711 3.521 C 8.731 3.565 8.781 3.589 8.828 3.576 L 10.379 3.165 C 10.489 3.136 10.554 3.285 10.458 3.347 L 9.15 4.18 C 9.103 4.21 9.09 4.275 9.122 4.321 L 9.302 4.583 C 9.324 4.616 9.325 4.658 9.305 4.691 L 8.511 5.984 C 8.504 5.995 8.499 6.007 8.497 6.02 L 8.009 8.765 C 8.003 8.795 8.012 8.827 8.033 8.85 L 9.526 10.482 C 9.537 10.494 9.551 10.503 9.565 10.509 L 11.036 11.056 C 11.079 11.072 11.128 11.056 11.153 11.018 L 11.473 10.541 C 11.49 10.515 11.494 10.483 11.484 10.454 L 11.229 9.688 C 11.215 9.648 11.174 9.625 11.133 9.634 C 11.123 9.636 11.113 9.637 11.104 9.636 L 9.608 9.43 C 9.58 9.426 9.555 9.41 9.539 9.387 L 9.221 8.917 C 9.193 8.875 9.2 8.819 9.237 8.786 L 9.855 8.244 C 9.87 8.231 9.881 8.214 9.886 8.195 L 10.16 7.187 L 10.62 6.057 C 10.63 6.032 10.65 6.012 10.674 6.002 L 11.701 5.569 C 11.722 5.561 11.739 5.546 11.75 5.526 L 12.31 4.537 C 12.344 4.477 12.428 4.469 12.473 4.522 L 13.048 5.211 C 13.054 5.218 13.061 5.224 13.068 5.229 L 14.077 5.911 C 14.091 5.92 14.102 5.933 14.109 5.947 L 14.573 6.827 C 14.584 6.848 14.602 6.865 14.624 6.874 L 14.888 6.98 C 14.938 7.001 14.963 7.059 14.942 7.11 L 14.827 7.396 C 14.824 7.404 14.819 7.412 14.814 7.419 L 14.611 7.682 C 14.602 7.694 14.596 7.708 14.593 7.724 L 14.539 8.005 C 14.537 8.018 14.537 8.032 14.54 8.045 L 14.648 8.541 C 14.66 8.595 14.626 8.648 14.572 8.66 L 14.122 8.759 C 14.082 8.767 14.041 8.751 14.018 8.717 L 13.864 8.49 C 13.861 8.486 13.858 8.481 13.855 8.477 L 13.413 8.014 C 13.387 7.986 13.348 7.976 13.312 7.986 L 12.396 8.259 C 12.331 8.278 12.303 8.354 12.341 8.41 L 12.751 9.016 C 12.773 9.048 12.813 9.064 12.852 9.058 L 13.658 8.916 C 13.697 8.909 13.737 8.926 13.759 8.958 L 13.898 9.163 L 14.202 9.61 C 14.217 9.632 14.24 9.648 14.266 9.653 L 14.832 9.762 C 14.858 9.767 14.881 9.782 14.896 9.804 L 15.234 10.302 C 15.277 10.366 15.235 10.452 15.158 10.457 L 13.712 10.56 C 13.637 10.565 13.595 10.649 13.635 10.713 L 14.563 12.185 C 14.576 12.207 14.599 12.222 14.624 12.229 L 16.871 12.774 C 16.904 12.783 16.93 12.807 16.941 12.839 L 17.523 14.479 C 17.525 14.487 17.527 14.495 17.527 14.504 L 17.656 16.083 C 17.658 16.107 17.651 16.132 17.637 16.151 L 17.005 16.995 C 17.002 16.999 16.998 17.003 16.995 17.006 L 16.305 17.695 C 16.265 17.735 16.2 17.735 16.161 17.694 L 15.673 17.182 C 15.611 17.116 15.5 17.16 15.5 17.25 L 15.5 18.458 C 15.5 18.462 15.501 18.467 15.503 18.471 L 15.506 18.475 C 15.51 18.483 15.508 18.493 15.502 18.499 L 15.498 18.502 L 12.553 20.466 C 12.521 20.487 12.479 20.488 12.446 20.468 L 10.011 19.007 C 9.971 18.983 9.953 18.934 9.968 18.89 L 10.092 18.518 C 10.103 18.485 10.096 18.449 10.074 18.422 L 7.294 15.085 C 7.28 15.068 7.272 15.046 7.271 15.023 L 7.204 11.865 C 7.204 11.848 7.198 11.83 7.189 11.815 L 5.529 9.048 C 5.511 9.018 5.511 8.98 5.527 8.949 L 6.977 6.232 C 6.992 6.204 6.992 6.169 6.978 6.141 L 6.55 5.286 C 6.529 5.245 6.483 5.223 6.438 5.233 L 5.306 5.484 C 5.199 5.508 5.137 5.368 5.227 5.305 L 6.687 4.279 C 6.726 4.252 6.74 4.2 6.721 4.156 L 5.748 1.981 C 6.33 1.607 6.944 1.279 7.586 1.004 L 8.711 3.521 M 5.275 15.599 L 6.293 17.386 L 1.914 17.833 C 1.499 16.882 1.115 15.177 1 14.068 L 5.275 15.599 M 24 13.711 C 23.908 14.955 23.493 16.782 23.04 17.833 L 18.719 17.386 L 19.679 15.598 L 24 13.711 M 5.06 12.023 L 5.06 14.704 L 1.219 12.935 C 1.28 11.397 1.649 9.745 2.395 8 L 5.06 12.023 M 22.56 8 C 23.243 9.609 23.612 11.132 23.712 12.563 L 19.871 14.704 L 19.871 12.023 L 22.56 8 M 16.5 9.5 L 21.5 5.5 L 17.931 12.638 L 17.884 12.505 L 17.83 12.378 C 17.686 12.092 17.422 11.881 17.106 11.804 L 15.477 11.406 C 16.159 11.198 16.489 10.368 16.062 9.739 L 15.723 9.241 C 15.671 9.165 15.609 9.097 15.541 9.037 C 15.643 8.824 15.679 8.577 15.625 8.328 L 15.569 8.075 L 15.607 8.027 C 15.667 7.949 15.717 7.863 15.754 7.771 L 15.869 7.487 C 16.058 7.022 15.904 6.503 15.527 6.208 L 18 2.5 L 16.5 9.5 M 5.427 7.011 L 4.645 8.479 C 4.625 8.515 4.609 8.553 4.594 8.59 L 3 6 L 5.427 7.011 M 14 4.651 L 13.734 4.473 L 13.24 3.881 C 13.145 3.766 13.032 3.678 12.91 3.613 L 14 1 L 14 4.651" transform="matrix(1 0 0 1 0 0)" fill="#EBEBEB" stroke="none" />
</svg>
