<?xml version="1.0" encoding="UTF-8"?>
<!-- Reconstructed from Amplitude.Graphics.Svg.SvgAsset and recolored from static UIMapper.Color metadata for EWShop; not original source SVG. Live UI state/material colors are not included. -->
<svg xmlns="http://www.w3.org/2000/svg" width="25" height="25" viewBox="0 0 25 25">
  <path d="M 7.741 16 C 8.043 17.564 7.766 20.336 7.743 20.471 L 9.898 16.979 L 9.898 20.054 L 11.247 19.215 L 10.843 21.451 C 11.69 21.012 13.265 20.01 13.171 19.334 C 13.345 19.944 13.538 21.14 13.135 21.871 C 13.854 21.032 15.292 18.376 15.292 18.376 C 15.292 18.376 15.292 21.032 14.753 21.871 L 17.18 20.473 L 17.18 21.871 L 19.472 18.376 L 18.798 21.871 L 20.147 19.635 L 20.147 21.871 C 20.461 20.706 21 19.5 21.898 19.215 C 21.656 19.538 21.341 20.277 21.555 21.111 C 19.278 23.505 16.065 25 12.5 25 C 7.839 25 3.776 22.447 1.627 18.664 C 2.968 18.734 4.641 18.416 4.641 16.979 C 4.865 17.631 5.18 19.159 4.641 20.054 C 5.764 19.308 7.957 17.454 7.741 16 M 14.07 5 C 16.034 5 17.848 5.645 19.311 6.733 C 21.547 8.371 23 11.016 23 14 C 23 15.725 22.515 17.338 21.673 18.707 L 20.5 19 L 20.383 18.824 C 21.398 17.483 22 15.812 22 14 C 22 12.489 21.581 11.075 20.853 9.869 L 20.099 11.753 L 18.094 16.264 L 18.089 16.274 L 16.584 19.5 L 16 19.5 L 16 18 L 15.878 17.94 L 16.48 16.65 L 11.901 16.65 L 10.977 18.5 L 10.5 18.5 L 10.5 16.547 L 10.912 15.723 L 12.906 11.236 L 14.677 7.34 C 10.889 8.032 7.949 11.154 7.531 15.031 L 7.5 15 C 7.5 15 6 18 6 17.5 C 6 17.207 5.658 16.232 5.174 15.772 C 5.06 15.199 5 14.606 5 14 C 5 9.029 9.029 5 14 5 L 14.07 5 M 13.135 19.215 C 13.153 19.253 13.165 19.293 13.171 19.334 C 13.159 19.291 13.147 19.251 13.135 19.215 M 12.5 15.35 L 17.077 15.35 L 18.5 12.15 L 13.923 12.15 L 12.5 15.35 M 12.5 0 C 18.251 0 23.094 3.884 24.551 9.172 C 23.521 7.743 22.135 6.61 20.514 5.921 C 19.256 5.387 17.692 4.741 16.24 4.19 C 13.485 3.146 10.553 3.478 8.188 5.234 C 6.558 6.444 5.037 7.96 4.5 9.5 C 3.595 12.096 1.299 12.034 0.253 12.005 C 0.162 12.002 0.081 12 0.011 12 C 0.273 5.328 5.764 0 12.5 0 M 16.17 7.197 L 14.51 10.85 L 19.06 10.85 L 20.121 8.849 C 19.711 8.361 19.242 7.923 18.728 7.546 C 17.947 7.319 17.121 7.196 16.267 7.196 C 16.234 7.196 16.202 7.197 16.17 7.197" transform="matrix(1 0 0 1 0 0)" fill="#FFFFFF" stroke="none" />
</svg>
