<?xml version="1.0" encoding="UTF-8"?>
<!-- Reconstructed from Amplitude.Graphics.Svg.SvgAsset and recolored from static UIMapper.Color metadata for EWShop; not original source SVG. Live UI state/material colors are not included. -->
<svg xmlns="http://www.w3.org/2000/svg" width="25" height="25" viewBox="0 0 25 25">
  <path d="M 12.5 11 C 13.328 11 14 11.672 14 12.5 C 14 13.328 13.328 14 12.5 14 C 11.672 14 11 13.328 11 12.5 C 11 11.672 11.672 11 12.5 11" transform="matrix(1 0 0 1 0 0)" fill="#EBEBEB" stroke="none" />
  <path d="M 12.5 8 C 14.985 8 17 10.015 17 12.5 C 17 14.985 14.985 17 12.5 17 C 10.015 17 8 14.985 8 12.5 C 8 10.015 10.015 8 12.5 8 M 12.5 10 C 11.119 10 10 11.119 10 12.5 C 10 13.881 11.119 15 12.5 15 C 13.881 15 15 13.881 15 12.5 C 15 11.119 13.881 10 12.5 10" transform="matrix(1 0 0 1 0 0)" fill="#EBEBEB" stroke="none" />
  <path d="M 17.974 11.955 L 17.993 12.217 C 17.989 12.124 17.981 12.032 17.972 11.94 C 17.972 11.945 17.973 11.95 17.974 11.955" transform="matrix(1 0 0 1 0 0)" fill="#EBEBEB" stroke="none" />
  <path d="M 7.028 11.938 L 7.027 11.94 C 7.035 11.862 7.046 11.785 7.057 11.709 C 7.046 11.785 7.036 11.861 7.028 11.938" transform="matrix(1 0 0 1 0 0)" fill="#EBEBEB" stroke="none" />
  <path d="M 12.5 0.5 C 12.75 0.5 12.961 0.684 12.995 0.932 L 13.665 5.79 L 13.748 5.574 L 14.252 4.252 C 14.342 4.015 14.596 3.883 14.842 3.945 C 15.088 4.008 15.248 4.245 15.215 4.496 L 15.027 5.908 L 15.012 6.023 L 17.739 2.125 C 17.885 1.917 18.163 1.851 18.386 1.971 C 18.609 2.091 18.707 2.359 18.614 2.595 L 16.778 7.242 L 18.043 6.255 C 18.242 6.1 18.526 6.117 18.704 6.296 C 18.883 6.475 18.9 6.758 18.744 6.957 L 17.909 8.025 L 21.98 6.193 C 22.209 6.09 22.48 6.174 22.611 6.389 C 22.743 6.604 22.693 6.883 22.496 7.04 L 18.762 10.016 L 19.091 9.973 L 20.504 9.784 C 20.755 9.751 20.992 9.911 21.055 10.157 C 21.117 10.403 20.985 10.657 20.748 10.747 L 19.209 11.333 L 24.068 12.005 C 24.316 12.039 24.5 12.25 24.5 12.5 C 24.5 12.75 24.316 12.961 24.068 12.995 L 19.207 13.665 L 20.748 14.253 C 20.985 14.343 21.117 14.597 21.055 14.843 C 20.992 15.089 20.755 15.249 20.504 15.216 L 18.763 14.982 L 22.496 17.961 C 22.693 18.118 22.743 18.397 22.611 18.612 C 22.48 18.827 22.208 18.911 21.979 18.808 L 17.909 16.974 L 18.745 18.044 C 18.9 18.243 18.883 18.527 18.704 18.705 C 18.525 18.884 18.242 18.901 18.043 18.745 L 16.778 17.756 L 18.614 22.405 C 18.707 22.641 18.609 22.909 18.386 23.029 C 18.163 23.149 17.885 23.083 17.739 22.875 L 15.012 18.975 L 15.027 19.091 L 15.215 20.504 C 15.248 20.755 15.088 20.992 14.842 21.055 C 14.596 21.117 14.342 20.985 14.252 20.748 L 13.748 19.426 L 13.665 19.209 L 12.995 24.068 C 12.961 24.316 12.75 24.5 12.5 24.5 C 12.25 24.5 12.039 24.316 12.005 24.068 L 11.334 19.209 L 10.748 20.748 C 10.658 20.985 10.404 21.117 10.158 21.055 C 9.912 20.992 9.752 20.755 9.785 20.504 L 9.988 18.973 L 7.261 22.875 C 7.116 23.083 6.838 23.149 6.614 23.029 C 6.391 22.909 6.293 22.641 6.386 22.405 L 8.22 17.757 L 6.957 18.745 C 6.758 18.901 6.475 18.884 6.296 18.705 C 6.117 18.527 6.1 18.243 6.256 18.044 L 7.093 16.972 L 3.021 18.808 C 2.792 18.911 2.52 18.827 2.389 18.612 C 2.257 18.397 2.307 18.118 2.504 17.961 L 6.236 14.982 L 4.496 15.216 C 4.245 15.25 4.007 15.089 3.944 14.843 C 3.882 14.597 4.014 14.343 4.251 14.253 L 5.791 13.665 L 0.932 12.995 C 0.684 12.961 0.5 12.75 0.5 12.5 C 0.5 12.25 0.684 12.039 0.932 12.005 L 5.789 11.333 L 4.251 10.747 C 4.014 10.657 3.882 10.403 3.944 10.157 C 4.007 9.911 4.244 9.751 4.495 9.784 L 6.236 10.017 L 2.504 7.04 C 2.307 6.883 2.257 6.604 2.389 6.389 C 2.52 6.174 2.792 6.09 3.021 6.193 L 7.093 8.026 L 6.256 6.957 C 6.1 6.758 6.117 6.475 6.296 6.296 C 6.475 6.117 6.758 6.1 6.957 6.256 L 8.22 7.242 L 6.386 2.595 C 6.293 2.359 6.391 2.091 6.614 1.971 C 6.838 1.851 7.116 1.917 7.261 2.125 L 9.988 6.025 L 9.785 4.496 C 9.752 4.245 9.912 4.008 10.158 3.945 C 10.404 3.883 10.658 4.015 10.748 4.252 L 11.334 5.79 L 12.005 0.932 L 12.025 0.842 C 12.092 0.641 12.282 0.5 12.5 0.5 M 12.5 6.5 C 9.186 6.5 6.5 9.186 6.5 12.5 C 6.5 15.814 9.186 18.5 12.5 18.5 C 15.814 18.5 18.5 15.814 18.5 12.5 C 18.5 9.186 15.814 6.5 12.5 6.5" transform="matrix(1 0 0 1 0 0)" fill="#EBEBEB" stroke="none" />
</svg>
