<?xml version="1.0" encoding="UTF-8"?>
<!-- Reconstructed from Amplitude.Graphics.Svg.SvgAsset and recolored from static UIMapper.Color metadata for EWShop; not original source SVG. Live UI state/material colors are not included. -->
<svg xmlns="http://www.w3.org/2000/svg" width="25" height="25" viewBox="0 0 25 25">
  <path d="M 7 7.75 L 8.048 8.5 L 10.143 9 L 11.25 9 L 10 11.5 L 11.25 14 L 6 16 L 6.5 16.5 L 10.39 16.889 L 10.011 19.914 L 9.5 20 L 6 21 L 3.866 21.533 C 6.111 23.679 9.15 25 12.5 25 C 16.81 25 20.61 22.819 22.857 19.5 L 19 19.5 L 15.5 21.5 L 15.175 21.282 L 15.5 19 L 14.27 17.276 L 16.5 17.5 L 16.938 16.875 L 16 16 L 13.286 16.093 L 16.5 15 L 18.25 15 L 20 12.5 L 16.5 12 L 14.5 12.762 L 14.5 10 L 13.5 9 L 17.477 9 L 17.477 8.5 L 13.286 8 L 17.477 7.75 L 18 7.25 L 14.333 7 L 9.096 7 L 7 7.75" transform="matrix(1 0 0 1 0 0)" fill="#EBEBEB" stroke="none" />
  <path d="M 9.27 0.422 C 5.641 1.39 2.667 3.95 1.131 7.308 C 1.046 7.859 1 8.424 1 9 C 1 13.742 4.001 17.783 8.208 19.328 L 9.109 19.071 L 9.271 17.781 L 6.045 17.46 L 5.793 17.207 L 4.201 15.615 L 5.43 15.147 C 3.924 13.538 3 11.377 3 9 C 3 4.981 5.634 1.578 9.27 0.422" transform="matrix(1 0 0 1 0 0)" fill="#EBEBEB" stroke="none" />
  <path d="M 12.5 0 C 12.389 0 12.279 0.001 12.169 0.004 C 17.062 0.094 21 4.086 21 9 C 21 9.896 20.868 10.761 20.624 11.578 L 21.753 11.74 L 16.983 18.554 L 16.4 18.495 L 16.366 18.491 L 16.547 18.745 L 16.506 19.034 C 20.334 17.313 23 13.469 23 9 C 23 7.333 22.627 5.754 21.964 4.339 C 19.672 1.683 16.283 0 12.5 0" transform="matrix(1 0 0 1 0 0)" fill="#EBEBEB" stroke="none" />
  <path d="M 5.133 7.644 C 5.047 8.082 5 8.536 5 9 C 5 11.151 5.971 13.074 7.498 14.358 L 8.597 13.94 C 7.029 12.857 6 11.049 6 9 C 6 8.761 6.016 8.526 6.043 8.295 L 5.133 7.644" transform="matrix(1 0 0 1 0 0)" fill="#EBEBEB" stroke="none" />
  <path d="M 18.69 7.973 L 18.477 8.177 L 18.477 10 L 17.915 10 C 17.849 10.397 17.744 10.78 17.604 11.147 L 18.615 11.291 C 18.864 10.573 19 9.803 19 9 C 19 8.584 18.962 8.176 18.893 7.78 L 18.69 7.973" transform="matrix(1 0 0 1 0 0)" fill="#EBEBEB" stroke="none" />
  <path d="M 12 2 C 8.709 2 5.951 4.271 5.202 7.331 L 6.374 6.912 C 7.222 4.628 9.421 3 12 3 C 14.302 3 16.3 4.297 17.307 6.199 L 18.068 6.252 L 18.452 6.277 C 17.39 3.764 14.901 2 12 2" transform="matrix(1 0 0 1 0 0)" fill="#EBEBEB" stroke="none" />
</svg>
