<?xml version="1.0" encoding="UTF-8"?>
<!-- Reconstructed from Amplitude.Graphics.Svg.SvgAsset and recolored from static UIMapper.Color metadata for EWShop; not original source SVG. Live UI state/material colors are not included. -->
<svg xmlns="http://www.w3.org/2000/svg" width="25" height="25" viewBox="0 0 25 25">
  <path d="M 18.307 11.307 L 18.307 21 L 19.421 21 L 19.421 12.045 L 24.96 11.503 C 24.986 11.832 25 12.164 25 12.5 C 25 19.404 19.404 25 12.5 25 C 8.662 25 5.23 23.269 2.937 20.546 L 3.41 17.465 L 1.749 14.886 L 1 11.757 C 1.021 11.57 1.045 11.384 1.074 11.199 L 2.479 9 L 3.41 9.304 L 2.479 11.437 L 2.867 13.38 L 4.811 14.449 L 6.642 14.886 L 8.339 14.966 L 10.354 17.113 L 12 19.197 L 12 10.609 L 14.815 6.651 L 18.307 11.307 M 7.846 18.285 L 7.846 20.52 L 10.354 19.889 L 9.101 17.949 L 8.063 17.109 L 7.846 18.285 M 14 19 L 16.5 19.5 L 16.5 17 L 14 16.5 L 14 19 M 14 14.5 L 16.5 15 L 16.5 12.5 L 14 12 L 14 14.5 M 6.902 10.197 L 7.328 11.845 L 6.902 13.496 L 5.658 13.866 L 4.572 13.173 L 4.28 11.845 L 4.572 10.397 L 5.658 9.822 L 6.902 10.197 M 24.807 10.303 C 24.82 10.379 24.834 10.456 24.846 10.533 L 19.421 11.13 L 15.858 6.419 L 20.926 6 L 24.807 10.303 M 6.48 8.063 L 9.438 0.378 C 10.384 0.139 11.374 0.01 12.393 0.001 L 6.48 8.063 M 4.059 7.933 L 2.01 5.705 C 2.494 4.959 3.054 4.266 3.682 3.641 L 4.059 7.933 M 5.228 7.927 L 4.904 2.574 C 5.885 1.823 6.979 1.212 8.158 0.775 L 5.228 7.927" transform="matrix(1 0 0 1 0 0)" fill="#EBEBEB" stroke="none" />
</svg>
