<?xml version="1.0" encoding="UTF-8"?>
<!-- Reconstructed from Amplitude.Graphics.Svg.SvgAsset and recolored from static UIMapper.Color metadata for EWShop; not original source SVG. Live UI state/material colors are not included. -->
<svg xmlns="http://www.w3.org/2000/svg" width="25" height="25" viewBox="0 0 25 25">
  <path d="M 15.47 15.34 C 15.47 14.28 14.6 13.43 13.52 13.43 C 12.83 13.43 12.23 13.78 11.88 14.31 L 12.47 14.38 L 14.29 17.1 C 14.98 16.81 15.47 16.13 15.47 15.34" transform="matrix(1 0 0 1 0 0)" fill="#EBEBEB" stroke="none" />
  <path d="M 11.47 17.88 L 12.36 19.67 C 12.48 19.7 12.61 19.73 12.73 19.75 L 13.46 19.38 L 15.46 18.88 L 16.3 18.88 C 17.37 18.06 18.06 16.79 18.06 15.35 C 18.06 12.87 16.03 10.88 13.51 10.88 C 11.46 10.88 9.74 12.19 9.17 14.01 L 10.72 14.18 C 11.18 13.11 12.25 12.37 13.52 12.37 C 15.21 12.37 16.55 13.7 16.56 15.35 C 16.56 17 15.21 18.33 13.52 18.33 C 12.89 18.33 12.3 18.14 11.82 17.82 L 11.47 17.88" transform="matrix(1 0 0 1 0 0)" fill="#EBEBEB" stroke="none" />
  <path d="M 17.43 10.12 L 18.18 6.38 L 21.85 5.61 L 18.18 4.85 L 17.43 1.1 L 16.67 4.85 L 13 5.61 L 16.67 6.38 L 17.43 10.12" transform="matrix(1 0 0 1 0 0)" fill="#EBEBEB" stroke="none" />
  <path d="M 8.2 13.8 C 8.36 13.26 8.6 12.76 8.91 12.3 C 8.78 12.32 8.65 12.33 8.52 12.33 C 6.84 12.33 5.48 11 5.48 9.35 C 5.48 7.7 6.83 6.37 8.52 6.37 C 10.21 6.37 11.56 7.7 11.56 9.35 C 11.56 9.68 11.5 9.99 11.41 10.28 C 11.92 10.07 12.47 9.94 13.04 9.89 C 13.06 9.71 13.08 9.52 13.08 9.34 C 13.08 6.86 11.05 4.87 8.53 4.87 C 6.01 4.87 3.98 6.86 3.98 9.34 C 3.98 11.71 5.84 13.63 8.21 13.79 L 8.2 13.8" transform="matrix(1 0 0 1 0 0)" fill="#EBEBEB" stroke="none" />
  <path d="M 8.52 7.43 C 7.44 7.43 6.57 8.29 6.57 9.34 C 6.57 10.4 7.44 11.25 8.52 11.25 C 9.6 11.25 10.47 10.39 10.47 9.34 C 10.47 8.28 9.6 7.43 8.52 7.43" transform="matrix(1 0 0 1 0 0)" fill="#EBEBEB" stroke="none" />
  <path d="M 21.83 11.3 L 21.34 8.86 L 20.85 11.3 L 18.47 11.8 L 20.85 12.3 L 21.34 14.73 L 21.83 12.3 L 24.21 11.8 L 21.83 11.3" transform="matrix(1 0 0 1 0 0)" fill="#EBEBEB" stroke="none" />
  <path d="M 14.92 19.98 L 13.02 20.5 L 11.12 20.3 L 9.82 18.55 L 7.65 17.9 L 5.97 18.08 L 5.97 17.43 L 7.41 17.02 L 10.84 17.02 L 12.81 17.43 L 12.5 16.1 L 11.24 15.42 L 6.63 14.98 L 4.97 13.82 C 4.07 13.73 2.24 13.54 2.17 13.54 C 2.1 13.54 0.94 14.33 0.36 14.72 L 0.18 14.76 C 0.5 16.42 1.15 17.97 2.06 19.33 L 3.86 18.97 L 9.08 21.48 L 11.63 22.88 L 14.36 21.88 L 17.7 21.47 L 19.04 21.47 L 18.16 20.09 L 14.91 19.98 L 14.92 19.98" transform="matrix(1 0 0 1 0 0)" fill="#EBEBEB" stroke="none" />
</svg>
