<?xml version="1.0" encoding="UTF-8"?>
<!-- Reconstructed from Amplitude.Graphics.Svg.SvgAsset and recolored from static UIMapper.Color metadata for EWShop; not original source SVG. Live UI state/material colors are not included. -->
<svg xmlns="http://www.w3.org/2000/svg" width="25" height="25" viewBox="0 0 25 25">
  <path d="M 24 13 L 23.07 13 L 22.6 13.92 L 22.13 14.38 L 19.54 15.14 L 15.78 14.69 C 15.78 14.69 15.8 14.7 15.8 14.71 C 15.75 14.71 15.7 14.71 15.64 14.71 C 14.18 14.71 12.88 14.55 11.49 15.06 C 9.32 15.85 7.48 17.37 6.28 19.31 C 5.73 20.2 6.03 21.37 6.94 21.89 L 9.29 23.22 L 5.87 23.1 C 7.78 24.3 10.04 24.99 12.47 25 C 12.55 24.78 12.54 24.53 12.43 24.3 L 10.49 20.1 L 11.86 19.01 L 13.74 18.76 C 13.97 19.88 14.42 22.16 14.42 22.3 C 14.42 22.4 15.1 23.57 15.7 24.59 C 16.1 24.48 16.5 24.35 16.89 24.21 L 15.96 21.71 L 16.47 18.09 L 17.32 18.34 L 17.15 19.44 C 18.69 20.54 19.43 20.56 20.14 20.11 C 21.51 17.55 19.11 17.05 17.83 16.91 L 17.61 16.39 L 20.05 16.23 L 22.59 14.85 L 23.28 14.81 L 23.99 14.39 L 23.99 14.11 L 23.47 14.21 L 23.99 13.01 L 24 13" transform="matrix(1 0 0 1 0 0)" fill="#EBEBEB" stroke="none" />
  <path d="M 15.52 9.88 C 15.49 10.14 15.71 11.11 16.33 11.68 C 16.09 12.05 15.16 12.82 14.54 13.26 C 14.02 11.48 13.73 9.31 13.58 8.04 C 15.85 7.34 17.18 5.92 17.61 5.18 C 16.82 5.72 15.12 6.71 13.46 7.24 C 13.35 6.62 13.24 6.06 13.1 5.58 L 14.99 6.38 L 13.24 4.95 C 14.24 4.89 15.17 4.93 15.87 5.12 C 14.72 4.37 11.43 3.48 7.5 5.91 C 8.12 5.74 9 5.54 9.97 5.36 L 8.52 7.25 L 10.5 5.79 C 10.54 6.28 10.58 6.89 10.58 7.62 C 8.6 7.62 6.92 7.18 6.41 6.68 C 6.82 7.3 8.16 8.36 10.56 8.44 C 10.66 9.22 10.86 10.67 10.93 12.14 C 10.35 11.89 9.74 11.53 9.44 11.36 C 9.75 10.57 9.52 9.6 9.38 9.38 C 8.65 9.49 7.94 9.59 7.3 10.02 C 7.02 10.21 6.77 10.42 6.73 10.78 C 6.61 11.71 6.86 12.53 7.25 13.35 C 7.55 13.31 8.36 12.92 8.9 12.28 C 9.29 12.5 10.27 13.1 10.96 13.62 C 10.96 13.76 10.95 13.9 10.94 14.04 C 12.14 13.67 13.75 13.5 16.06 13.63 C 16.53 13.07 17.05 12.53 17.23 12.26 C 18 12.6 18.89 12.59 19.18 12.49 C 19.17 11.59 19.03 10.73 18.51 9.95 C 18.31 9.65 18 9.57 17.66 9.52 C 16.9 9.41 16.22 9.64 15.51 9.86 L 15.52 9.88" transform="matrix(1 0 0 1 0 0)" fill="#EBEBEB" stroke="none" />
  <path d="M 18.18 4.94 C 16.48 3.04 14.62 1.46 12.08 0.76 C 11.09 0.49 10.28 0.9 9.47 1.42 C 7.64 2.58 6.61 4.32 5.5 6.1 C 9.05 3.51 13.6 2.45 18.18 4.94" transform="matrix(1 0 0 1 0 0)" fill="#EBEBEB" stroke="none" />
</svg>
