<?xml version="1.0" encoding="UTF-8"?>
<!-- Reconstructed from Amplitude.Graphics.Svg.SvgAsset and recolored from static UIMapper.Color metadata for EWShop; not original source SVG. Live UI state/material colors are not included. -->
<svg xmlns="http://www.w3.org/2000/svg" width="25" height="25" viewBox="0 0 25 25">
  <path d="M 11.832 17.016 C 11.858 17.014 13.294 16.919 13.294 17.878 C 13.294 18.508 11.642 18.741 10.405 18.904 C 9.276 19.044 8.086 19.196 7.302 19.487 C 7.837 19.616 8.3 19.744 8.692 19.849 C 10.571 20.362 11.238 20.548 14.412 19.044 C 15.542 18.508 17.218 17.878 18.323 17.878 C 18.323 17.878 20 17.669 20 19.487 C 20 19.487 17.467 19.616 15.541 20.887 C 13.912 21.971 12.985 22.729 12.379 23.231 C 11.725 23.767 11.451 24 11.047 24 C 10.488 24 9.989 23.93 9.489 23.872 L 9.501 23.872 C 8.794 23.785 8.065 23.697 7.083 23.769 C 4.705 22.624 2.747 20.747 1.496 18.433 C 2.373 18.346 3.08 18.044 3.794 17.738 C 4.626 17.377 5.47 17.016 6.588 17.016 L 8.432 17.016 C 8.468 17.015 10.559 16.981 11.832 17.016 M 16.5 16.66 C 16.3 16.714 16.105 16.772 15.918 16.832 C 15.507 16.964 15.098 17.117 14.713 17.274 C 14.627 16.957 14.477 16.673 14.275 16.434 L 14.275 10.793 L 16.5 10.565 L 16.5 16.66 M 22 16.735 L 20.359 16.976 C 20.306 16.935 20.254 16.896 20.2 16.86 L 20.2 10.185 L 22 10 L 22 16.735 M 19.2 16.449 C 18.997 16.405 18.815 16.384 18.669 16.376 C 18.531 16.368 18.413 16.371 18.324 16.375 C 18.294 16.376 18.266 16.379 18.242 16.381 C 18 16.385 17.751 16.41 17.5 16.447 L 17.5 10.462 L 19.2 10.287 L 19.2 16.449 M 12.732 9.719 L 12.732 15.585 C 12.492 15.538 12.275 15.522 12.118 15.516 C 12.014 15.512 11.924 15.512 11.857 15.514 C 11.849 15.514 11.84 15.514 11.832 15.515 C 11.169 15.498 10.319 15.499 9.641 15.503 C 9.292 15.505 8.983 15.508 8.763 15.511 C 8.653 15.512 8.564 15.514 8.503 15.515 C 8.472 15.515 8.448 15.515 8.432 15.516 L 6.588 15.516 C 5.606 15.516 4.786 15.736 4.103 15.989 L 4 15.966 L 4 8.704 L 7.897 2.948 L 12.732 9.719 M 8.221 8.386 C 7.398 8.386 6.731 9.225 6.73 10.26 C 6.73 11.295 7.398 12.134 8.221 12.134 C 9.044 12.134 9.711 11.295 9.711 10.26 C 9.711 9.225 9.044 8.386 8.221 8.386 M 16.19 9.24 L 14.275 9.462 L 9.342 2.609 L 11.207 2.447 L 16.19 9.24 M 18.665 8.954 L 17.333 9.108 L 12.374 2.346 L 13.627 2.236 L 18.665 8.954 M 22 8.569 L 19.816 8.821 L 14.802 2.135 L 16.359 2 L 22 8.569" transform="matrix(1 0 0 1 0 0)" fill="#EBEBEB" stroke="none" />
</svg>
