<?xml version="1.0" encoding="UTF-8"?>
<!-- Reconstructed from Amplitude.Graphics.Svg.SvgAsset and recolored from static UIMapper.Color metadata for EWShop; not original source SVG. Live UI state/material colors are not included. -->
<svg xmlns="http://www.w3.org/2000/svg" width="25" height="25" viewBox="0 0 25 25">
  <path d="M 18.596 10.356 L 21.548 7.089 L 24.44 16.211 C 23.974 17.71 23.232 19.085 22.276 20.283 C 22.189 20.393 22.101 20.501 22.01 20.607 C 20.842 21.976 19.384 23.088 17.731 23.852 C 17.736 23.842 17.742 23.833 17.746 23.823 C 17.691 23.856 17.636 23.888 17.58 23.92 C 16.208 24.531 14.706 24.906 13.126 24.983 C 12.919 24.994 12.71 25 12.5 25 C 7.721 25 3.57 22.318 1.467 18.377 C 1.888 18.48 2.307 18.602 2.645 18.742 L 2.681 18.285 L 1.139 16.969 L 1 15.376 L 2.246 13.61 L 2.274 13.629 L 2.271 13.604 L 5.913 12.825 L 6.383 13.531 L 6.789 11.169 L 7.567 10.96 L 8.109 10.502 L 8.638 10.502 L 8.498 11.753 L 7.778 11.951 L 7.383 14.338 L 6.932 15.015 L 5.436 14.702 L 5.242 15.462 L 5.982 18.536 L 7 19.5 L 8.817 18.363 L 17 22 L 9.678 16.63 L 13.285 9.468 L 16.973 6 L 18.596 10.356 M 22 19 L 23.5 16 L 21.5 9.5 L 22 19 M 17.5 18 L 18 11.5 L 16.5 8 L 17.5 18 M 1.758 15.606 L 1.844 16.368 L 2.756 17.326 L 2.818 16.528 L 2.485 14.75 L 1.758 15.606 M 4.035 10.003 C 4.542 10.048 4.902 10.659 4.839 11.368 C 4.776 12.077 4.315 12.615 3.809 12.57 C 3.302 12.526 2.942 11.914 3.005 11.205 C 3.068 10.496 3.529 9.958 4.035 10.003 M 11.555 3.761 C 11.645 3.976 11.845 4.148 12.124 4.175 L 12.125 4.176 C 12.197 4.183 12.262 4.188 12.322 4.194 C 12.342 4.196 12.36 4.197 12.379 4.199 C 6.679 5.687 1.905 8.14 0.125 10.727 C 0.295 9.53 0.636 8.389 1.12 7.327 C 4.205 5.091 8.399 4.149 11.555 3.761 M 6.058 1.786 C 8.476 1.804 10.81 2.307 12.652 2.775 C 12.54 2.784 12.435 2.795 12.313 2.807 C 12.255 2.812 12.193 2.819 12.124 2.825 C 11.737 2.863 11.499 3.176 11.5 3.502 C 11.5 3.511 11.502 3.521 11.502 3.53 C 7.403 3.829 4.019 4.923 1.691 6.223 C 2.751 4.402 4.255 2.872 6.058 1.786 M 14.5 1 C 14.584 1 14.678 1.051 14.69 1.159 C 14.73 1.51 14.752 1.859 14.77 2.207 C 14.781 2.441 14.788 2.675 14.793 2.908 C 14.866 2.845 14.94 2.781 15.015 2.719 C 15.206 2.559 15.401 2.399 15.605 2.246 C 15.689 2.181 15.793 2.208 15.847 2.257 C 15.9 2.306 15.93 2.404 15.859 2.484 C 15.694 2.673 15.52 2.854 15.346 3.03 C 15.28 3.097 15.213 3.163 15.146 3.229 C 15.398 3.233 15.65 3.24 15.902 3.25 C 16.214 3.263 16.385 3.28 16.641 3.305 C 16.698 3.31 16.76 3.317 16.828 3.323 C 17.056 3.345 17.058 3.655 16.829 3.678 C 16.754 3.685 16.687 3.691 16.625 3.697 C 16.378 3.721 16.207 3.738 15.901 3.751 C 15.649 3.761 15.397 3.768 15.145 3.772 C 15.212 3.838 15.279 3.904 15.345 3.971 C 15.519 4.147 15.692 4.327 15.857 4.515 C 15.93 4.595 15.899 4.694 15.846 4.743 C 15.792 4.792 15.69 4.819 15.606 4.756 C 15.401 4.603 15.205 4.443 15.014 4.282 C 14.94 4.22 14.866 4.156 14.793 4.093 C 14.788 4.326 14.781 4.559 14.77 4.792 C 14.752 5.14 14.729 5.49 14.69 5.841 C 14.677 5.948 14.584 6 14.5 6 C 14.416 6 14.322 5.948 14.31 5.841 C 14.27 5.49 14.248 5.14 14.231 4.792 C 14.219 4.559 14.212 4.325 14.207 4.092 C 14.134 4.156 14.06 4.219 13.985 4.282 C 13.795 4.443 13.599 4.602 13.396 4.755 C 13.311 4.819 13.208 4.792 13.154 4.743 C 13.101 4.694 13.071 4.596 13.142 4.516 L 13.142 4.515 C 13.307 4.328 13.48 4.148 13.654 3.972 C 13.721 3.905 13.788 3.838 13.856 3.772 C 13.603 3.768 13.349 3.761 13.097 3.751 C 12.79 3.738 12.62 3.721 12.37 3.696 C 12.31 3.69 12.245 3.685 12.172 3.678 C 11.945 3.656 11.942 3.345 12.171 3.322 C 12.24 3.316 12.303 3.309 12.361 3.304 C 12.616 3.279 12.786 3.262 13.097 3.249 C 13.349 3.239 13.603 3.232 13.856 3.228 C 13.788 3.162 13.722 3.095 13.655 3.028 C 13.481 2.853 13.308 2.673 13.143 2.485 C 13.07 2.405 13.101 2.306 13.154 2.257 C 13.208 2.208 13.31 2.181 13.395 2.244 L 13.395 2.245 C 13.598 2.398 13.793 2.557 13.984 2.718 C 14.059 2.781 14.134 2.844 14.207 2.908 C 14.212 2.675 14.219 2.441 14.231 2.207 C 14.248 1.86 14.271 1.51 14.31 1.16 C 14.322 1.052 14.416 1 14.5 1" transform="matrix(1 0 0 1 0 0)" fill="#EBEBEB" stroke="none" />
</svg>
