<?xml version="1.0" encoding="UTF-8"?>
<!-- Reconstructed from Amplitude.Graphics.Svg.SvgAsset and recolored from static UIMapper.Color metadata for EWShop; not original source SVG. Live UI state/material colors are not included. -->
<svg xmlns="http://www.w3.org/2000/svg" width="25" height="25" viewBox="0 0 25 25">
  <path d="M 19.279 23 C 17.326 24.264 15 25 12.5 25 C 10 25 7.674 24.264 5.721 23 L 19.279 23 M 22.501 20 C 21.95 20.734 21.318 21.403 20.621 22 L 4.379 22 C 3.682 21.403 3.05 20.734 2.499 20 L 22.501 20 M 6 16.126 L 6 17.152 L 3.585 17.885 L 3.868 18.576 L 6.355 18.064 C 6.732 18.207 7 18.573 7 18.999 L 2 18.999 C 2 18.482 2.394 18.056 2.897 18.004 L 3 17.999 L 3 16.947 L 4.851 16.119 L 6 16.126 M 18.898 18.999 L 18 18.999 C 18 18.825 18.045 18.659 18.124 18.516 L 18.898 18.999 M 20.473 18.506 L 22.919 18.607 C 22.97 18.727 23 18.86 23 18.999 L 19.91 18.999 L 18.766 18.027 C 18.809 18.017 18.853 18.009 18.898 18.004 L 19 17.999 L 19 17.615 L 20.473 18.506 M 10.704 10.154 L 12.864 12.104 L 12.576 13.113 L 12.545 14.356 L 12.106 13.129 L 11.944 12.104 L 11.401 11.595 L 11.401 13.128 L 11.944 14.824 L 12.329 16.122 L 13.683 14.553 L 13.631 13.5 L 13.837 12.681 L 14.393 11.237 L 16 10.016 L 15.472 9.214 L 13.673 10.564 L 13.631 10.016 L 14.352 8.999 L 16 8.999 C 16.477 8.999 16.875 9.334 16.975 9.781 L 16.339 10.948 L 16.43 13.566 L 15.357 14.292 L 15.791 13.124 L 15.616 12.754 L 14.996 12.997 L 14.096 14.671 L 13.496 15.733 L 15.357 15.626 L 16.664 14.555 L 17 14.412 L 17 16.369 L 16.628 16.895 L 14.582 16.848 L 15.561 16.501 L 16.216 16.362 L 15.487 15.872 L 14.101 16.362 L 12.981 16.843 L 13.665 17.454 L 16.355 17.914 L 16.39 17.92 C 16.27 17.971 16.138 17.999 16 17.999 L 10.222 17.999 L 11.152 17.353 L 12.026 17.018 L 10.736 15.672 L 9.073 15.375 L 8 14.84 L 8 14.25 L 9.5 15 L 10.378 15.13 L 11.5 15.607 L 11.186 13.769 L 9.974 12.591 L 9.289 11.378 L 9.289 9.662 L 8.503 9.472 L 8.41 11.494 L 8.006 11.209 L 8 11.187 L 8 9.999 C 8 9.447 8.448 8.999 9 8.999 L 10.369 8.999 L 10.704 10.154 M 22 17.817 L 20.934 17.737 L 19.535 17.116 L 20.934 16.895 L 22 16.286 L 22 17.817 M 9.219 16.674 L 10.463 16.674 L 9.422 17.353 L 8.109 17.454 C 8.04 17.317 8 17.163 8 16.999 L 8 16.669 L 8.474 16.197 L 9.219 16.674 M 22 15.703 L 21.537 15.428 L 20.185 16.205 L 19 16.452 L 19 15.361 L 21.151 13.968 L 21.118 13.944 L 21.148 13.945 L 20.496 13.497 L 19 13.279 L 19 12.907 L 21 12.499 L 22 11.749 L 22 15.703 M 4 14.5 L 5.679 15.366 L 4.255 15.375 L 3 15.928 L 3 14.287 L 4 14.5 M 6.179 8.982 C 6.121 8.992 6.061 8.999 6 8.999 L 6 9.999 L 4 9.5 L 4.5 10.5 L 6 10.829 L 6 11.999 L 3.869 11.494 L 3.869 12.327 L 6 13.153 L 6 14.658 L 5.146 13.798 L 3 13.356 L 3 8.999 C 2.448 8.999 2 8.552 2 7.999 L 5.25 7.999 L 6.179 8.982 M 9.017 13.5 L 10.397 14.447 L 9.5 14.186 L 8.41 13.769 L 8 13.92 L 8 13.428 L 9.017 13.5 M 19 14.355 L 19 13.973 L 19.881 13.944 L 19 14.355 M 23 7.999 C 23 8.552 22.552 8.999 22 8.999 L 22 10.568 L 20.365 11.627 L 19 11.95 L 19 11.87 L 19.945 11.033 L 20.365 8.999 L 19.447 9.425 L 19 10.486 L 19 8.999 C 18.729 8.999 18.484 8.891 18.304 8.716 L 18.603 7.999 L 23 7.999 M 12.784 10.535 L 11.547 9.417 L 11.397 8.999 L 12.649 8.999 L 12.784 10.535 M 7 7.999 C 7 8.174 6.954 8.338 6.875 8.481 L 6.451 7.999 L 7 7.999 M 12.06 0.215 C 12.337 0.079 12.663 0.079 12.94 0.215 L 22.37 4.835 C 22.892 5.506 23.348 6.23 23.726 6.999 L 1.274 6.999 C 1.652 6.23 2.108 5.506 2.629 4.835 L 12.06 0.215 M 12.973 2.253 C 12.678 2.095 12.322 2.095 12.027 2.253 L 8.193 4.311 C 8.075 4.375 8 4.499 8 4.633 C 8 4.835 8.164 4.999 8.366 4.999 L 16.634 4.999 C 16.836 4.999 17 4.835 17 4.633 C 17 4.499 16.925 4.375 16.807 4.311 L 12.973 2.253" transform="matrix(1 0 0 1 0 0)" fill="#EBEBEB" stroke="none" />
</svg>
