<?xml version="1.0" encoding="UTF-8"?>
<!-- Reconstructed from Amplitude.Graphics.Svg.SvgAsset and recolored from static UIMapper.Color metadata for EWShop; not original source SVG. Live UI state/material colors are not included. -->
<svg xmlns="http://www.w3.org/2000/svg" width="25" height="25" viewBox="0 0 25 25">
  <path d="M 15.67 18.21 C 15.67 18.21 15.69 18.21 15.7 18.2 C 15.71 18.2 15.72 18.18 15.74 18.18 C 15.74 18.18 15.76 18.18 15.76 18.17 C 15.76 18.17 15.78 18.16 15.79 18.15 C 15.79 18.15 15.8 18.13 15.82 18.12 C 15.82 18.12 15.84 18.11 15.84 18.1 C 15.84 18.09 15.85 18.07 15.87 18.06 C 15.87 18.06 15.87 18.05 15.87 18.04 C 15.87 18.03 15.88 18.01 15.88 18 C 15.88 17.96 15.89 17.93 15.89 17.89 L 15.89 17.81 C 15.89 17.81 15.89 17.79 15.89 17.77 L 15.86 17.71 C 15.86 17.71 15.86 17.69 15.85 17.69 C 15.85 17.69 15.83 17.67 15.83 17.66 C 15.83 17.66 15.83 17.65 15.82 17.65 C 15.82 17.65 15.8 17.64 15.79 17.62 C 15.79 17.62 15.79 17.62 15.78 17.61 C 15.78 17.61 15.76 17.59 15.74 17.59 C 15.74 17.59 15.74 17.59 15.73 17.59 C 15.72 17.59 15.69 17.58 15.67 17.57 L 15.62 17.57 L 15.61 17.56 L 13.48 17.25 C 13.41 17.25 13.34 17.25 13.28 17.25 L 12.78 17.32 L 11.15 17.55 C 10.98 17.58 10.84 17.72 10.84 17.91 C 10.84 17.94 10.84 17.96 10.84 17.98 L 10.84 18 C 10.84 18 10.84 18.04 10.85 18.05 C 10.85 18.05 10.85 18.06 10.86 18.07 C 10.86 18.08 10.87 18.1 10.88 18.11 C 10.88 18.11 10.89 18.12 10.89 18.13 L 10.94 18.18 C 10.94 18.18 10.96 18.19 10.97 18.2 C 10.97 18.2 10.99 18.22 11 18.22 C 11.01 18.22 11.02 18.22 11.04 18.23 C 11.04 18.23 11.05 18.23 11.07 18.23 C 11.08 18.23 11.1 18.23 11.12 18.23 L 11.22 18.23 L 13.25 17.94 C 13.32 17.94 13.39 17.94 13.45 17.94 L 15.48 18.23 L 15.63 18.23 C 15.63 18.23 15.65 18.23 15.67 18.22 L 15.67 18.21" transform="matrix(1 0 0 1 0 0)" fill="#EBEBEB" stroke="none" />
  <path d="M 20.91 3.28 L 19.68 4.35 C 19.6 4.42 19.48 4.33 19.52 4.23 L 20.2 2.67 C 20.09 2.58 19.97 2.49 19.86 2.41 L 18.68 3.11 C 18.68 3.11 18.62 3.19 18.64 3.24 L 18.95 3.86 C 18.95 3.86 18.96 3.92 18.95 3.94 L 18.5 5.04 C 18.32 5.48 17.94 5.81 17.47 5.93 L 16.89 6.07 C 16.77 6.1 16.65 6.11 16.53 6.11 L 15.24 6.11 C 15.24 6.11 15.2 6.11 15.18 6.13 L 14.3 6.71 C 14.22 6.76 14.13 6.69 14.15 6.6 L 14.44 5.45 C 14.44 5.45 14.49 5.37 14.54 5.37 L 15.18 5.37 C 15.18 5.37 15.22 5.37 15.24 5.35 L 17.74 3.59 C 17.79 3.55 17.8 3.48 17.75 3.44 L 17.18 2.88 C 17.18 2.88 17.14 2.76 17.2 2.72 L 18.85 1.74 C 16.98 0.63 14.8 -0.01 12.47 -0.01 C 10.35 -0.01 8.35 0.52 6.6 1.45 L 8.73 2.71 C 8.79 2.74 8.8 2.82 8.75 2.87 L 8.18 3.43 C 8.18 3.43 8.14 3.55 8.19 3.58 L 10.69 5.34 C 10.69 5.34 10.73 5.36 10.75 5.36 L 11.39 5.36 C 11.39 5.36 11.48 5.39 11.49 5.44 L 11.78 6.59 C 11.8 6.68 11.7 6.75 11.63 6.7 L 10.74 6.12 C 10.74 6.12 10.7 6.1 10.69 6.1 L 9.4 6.1 C 9.28 6.1 9.15 6.09 9.04 6.06 L 8.46 5.92 C 7.99 5.8 7.61 5.48 7.43 5.03 L 6.98 3.93 C 6.98 3.93 6.98 3.87 6.98 3.85 L 7.29 3.23 C 7.29 3.23 7.29 3.13 7.25 3.1 L 5.72 2.2 C 5.64 2.15 5.54 2.24 5.58 2.33 L 6.41 4.23 C 6.45 4.33 6.33 4.42 6.25 4.35 L 4.52 2.84 C 3 4.09 1.78 5.69 0.99 7.52 C 2.17 8.38 3.41 8.94 4.7 9.07 C 4.7 9.07 4.71 9.07 4.72 9.07 C 5.53 9.01 7.51 8.63 9.14 7.63 C 9.18 7.61 9.23 7.61 9.26 7.64 L 9.47 7.85 C 9.52 7.9 9.51 7.99 9.44 8.02 C 8.51 8.45 6.56 9.74 5.14 11.93 C 5.11 11.98 5.13 12.05 5.18 12.07 L 10.61 14.75 C 10.71 14.8 10.8 14.68 10.73 14.59 L 8.11 11.68 C 8.11 11.68 8.06 11.65 8.04 11.65 L 7.51 11.65 C 7.43 11.65 7.38 11.57 7.43 11.5 C 7.98 10.61 9.2 9.07 10.33 9.06 L 10.35 9.06 L 11.82 9.42 C 11.82 9.42 11.84 9.42 11.85 9.43 L 12.91 10.12 C 12.91 10.12 12.99 10.14 13.02 10.12 L 14.08 9.43 C 14.08 9.43 14.1 9.42 14.11 9.42 L 15.58 9.06 L 15.6 9.06 C 16.73 9.07 17.95 10.61 18.5 11.5 C 18.54 11.57 18.5 11.65 18.42 11.65 L 17.89 11.65 C 17.89 11.65 17.83 11.66 17.82 11.68 L 15.2 14.59 C 15.13 14.67 15.22 14.79 15.32 14.75 L 20.75 12.07 C 20.8 12.04 20.82 11.98 20.79 11.93 C 19.37 9.73 17.42 8.45 16.49 8.02 C 16.43 7.99 16.41 7.9 16.46 7.85 L 16.67 7.64 C 16.67 7.64 16.75 7.6 16.79 7.63 C 18.42 8.63 20.41 9 21.21 9.07 C 21.21 9.07 21.22 9.07 21.23 9.07 C 22.24 8.97 23.21 8.6 24.15 8.04 C 23.45 6.2 22.33 4.57 20.91 3.27 L 20.91 3.28" transform="matrix(1 0 0 1 0 0)" fill="#EBEBEB" stroke="none" />
  <path d="M 10.09 22.36 L 10.09 22.13 C 10.13 21.64 10.52 21.23 11.02 21.15 L 11.15 21.13 C 10.61 21.13 10.15 20.71 10.09 20.17 L 10.09 19.94 C 10.13 19.45 10.52 19.04 11.02 18.96 L 11.15 18.94 C 10.61 18.94 10.15 18.52 10.09 17.98 L 10.09 17.75 C 10.13 17.26 10.52 16.85 11.02 16.77 L 12.69 16.53 C 12.57 15.1 12.44 13.59 12.33 12.4 C 12.29 12.07 11.88 11.96 11.67 12.21 C 11.51 12.4 11.33 12.6 11.14 12.79 L 11.85 13.58 C 13.03 14.89 11.53 16.87 9.95 16.09 L 5.7 14 L 4.4 15.1 C 4.35 15.21 4.3 15.31 4.25 15.42 C 4.25 15.57 4.31 15.73 4.42 15.84 C 4.88 16.28 5.33 17.15 5.16 18.57 C 5.01 19.74 4.79 20.54 4.58 21.02 C 4.47 21.3 4.64 21.7 4.93 21.75 L 6.03 21.93 C 6.03 21.93 6.09 21.94 6.11 21.95 C 6.84 22.27 8.29 23.11 8.53 24.08 C 8.56 24.18 8.6 24.28 8.65 24.38 C 9.85 24.76 11.13 24.97 12.45 24.97 C 12.59 24.97 12.73 24.97 12.87 24.97 C 12.96 24.33 13.05 23.66 13.11 23.04 L 11.31 23.29 C 10.7 23.38 10.14 22.93 10.07 22.34 L 10.09 22.36" transform="matrix(1 0 0 1 0 0)" fill="#EBEBEB" stroke="none" />
  <path d="M 10.84 20.2 L 10.84 20.22 C 10.84 20.23 10.86 20.25 10.86 20.26 L 10.87 20.28 C 10.87 20.29 10.89 20.3 10.9 20.31 C 10.9 20.31 10.92 20.32 10.92 20.33 C 10.92 20.33 10.94 20.34 10.95 20.35 C 10.95 20.35 10.97 20.37 10.98 20.37 C 10.99 20.37 11 20.37 11.02 20.38 C 11.02 20.38 11.04 20.38 11.05 20.38 C 11.06 20.38 11.08 20.38 11.1 20.38 L 11.2 20.38 L 13.23 20.09 C 13.3 20.09 13.37 20.09 13.43 20.09 L 15.46 20.38 L 15.61 20.38 C 15.61 20.38 15.63 20.38 15.65 20.37 C 15.65 20.37 15.67 20.37 15.68 20.36 C 15.69 20.36 15.7 20.34 15.72 20.34 C 15.72 20.34 15.73 20.34 15.74 20.33 C 15.74 20.33 15.76 20.32 15.77 20.31 L 15.82 20.26 C 15.82 20.26 15.84 20.23 15.85 20.22 C 15.85 20.22 15.85 20.22 15.85 20.21 C 15.85 20.2 15.86 20.17 15.87 20.16 C 15.87 20.13 15.88 20.09 15.88 20.07 L 15.88 19.99 C 15.88 19.99 15.88 19.97 15.88 19.95 C 15.88 19.95 15.88 19.94 15.87 19.92 C 15.87 19.92 15.87 19.9 15.86 19.89 C 15.86 19.89 15.86 19.88 15.85 19.87 C 15.85 19.87 15.83 19.85 15.83 19.84 C 15.83 19.84 15.83 19.83 15.82 19.83 C 15.82 19.83 15.81 19.81 15.79 19.8 C 15.79 19.8 15.79 19.8 15.78 19.79 C 15.78 19.79 15.76 19.77 15.74 19.77 C 15.74 19.77 15.74 19.77 15.73 19.77 C 15.72 19.77 15.69 19.75 15.67 19.75 L 15.62 19.75 L 15.61 19.74 L 13.48 19.43 C 13.41 19.43 13.34 19.43 13.28 19.43 L 13.28 19.41 L 12.99 19.45 L 11.15 19.71 C 10.98 19.74 10.84 19.88 10.84 20.07 C 10.84 20.1 10.84 20.12 10.84 20.14 L 10.84 20.16 C 10.84 20.16 10.84 20.2 10.85 20.21 L 10.84 20.2" transform="matrix(1 0 0 1 0 0)" fill="#EBEBEB" stroke="none" />
  <path d="M 15.54 22.6 L 15.64 22.6 C 15.65 22.6 15.66 22.6 15.68 22.59 C 15.68 22.59 15.7 22.59 15.71 22.58 C 15.72 22.58 15.73 22.56 15.75 22.56 C 15.75 22.56 15.77 22.56 15.77 22.55 C 15.77 22.55 15.79 22.53 15.8 22.53 C 15.8 22.53 15.81 22.51 15.83 22.5 C 15.83 22.5 15.85 22.49 15.85 22.48 C 15.85 22.47 15.86 22.45 15.88 22.44 C 15.88 22.44 15.88 22.43 15.88 22.42 C 15.88 22.41 15.88 22.39 15.89 22.38 C 15.9 22.34 15.91 22.31 15.91 22.27 L 15.91 22.19 C 15.91 22.19 15.91 22.17 15.91 22.16 L 15.88 22.1 C 15.88 22.1 15.88 22.09 15.87 22.08 C 15.87 22.08 15.86 22.06 15.85 22.05 C 15.85 22.05 15.85 22.04 15.84 22.04 C 15.84 22.04 15.83 22.02 15.81 22.01 L 15.8 22.01 C 15.8 22.01 15.78 21.98 15.76 21.97 C 15.76 21.97 15.76 21.97 15.75 21.97 C 15.74 21.97 15.71 21.96 15.69 21.95 L 15.64 21.95 L 15.63 21.94 L 15.07 21.86 L 14.11 21.72 L 13.49 21.63 C 13.42 21.63 13.35 21.63 13.29 21.63 L 13.24 21.63 L 11.16 21.93 C 10.99 21.96 10.85 22.1 10.85 22.29 C 10.85 22.32 10.85 22.34 10.85 22.36 L 10.85 22.38 C 10.85 22.38 10.85 22.42 10.86 22.43 C 10.86 22.43 10.86 22.45 10.87 22.45 C 10.87 22.46 10.88 22.48 10.89 22.49 C 10.89 22.49 10.9 22.5 10.9 22.51 C 10.9 22.52 10.92 22.53 10.93 22.54 C 10.93 22.54 10.94 22.56 10.95 22.56 L 11.01 22.6 C 11.01 22.6 11.03 22.6 11.05 22.61 C 11.05 22.61 11.06 22.61 11.08 22.61 C 11.09 22.61 11.11 22.61 11.13 22.61 L 11.23 22.61 L 13.26 22.32 C 13.33 22.32 13.4 22.32 13.46 22.32 L 15.49 22.61 L 15.53 22.61 L 15.54 22.6" transform="matrix(1 0 0 1 0 0)" fill="#EBEBEB" stroke="none" />
  <path d="M 20.78 15.11 L 19.82 14.22 L 15.98 16.11 C 14.4 16.89 12.9 14.91 14.08 13.6 L 14.6 13.03 C 14.32 12.74 14.06 12.43 13.82 12.14 C 13.61 11.88 13.19 11.99 13.18 12.33 C 13.16 13.6 13.32 15.1 13.52 16.49 L 13.57 16.49 L 15.7 16.8 L 15.8 16.82 C 16.29 16.94 16.64 17.37 16.64 17.87 C 16.64 18.47 16.15 18.95 15.57 18.95 L 15.71 18.97 L 15.81 18.99 C 16.3 19.11 16.65 19.54 16.65 20.04 C 16.65 20.64 16.16 21.12 15.58 21.12 L 15.72 21.14 L 15.82 21.16 C 16.31 21.28 16.66 21.71 16.66 22.21 C 16.66 22.87 16.07 23.38 15.41 23.29 L 14 23.09 C 13.95 23.7 13.87 24.32 13.79 24.91 C 14.85 24.8 15.86 24.56 16.82 24.2 C 17.13 23.26 18.42 22.44 19.1 22.12 C 19.13 22.11 19.16 22.1 19.19 22.09 L 20.25 21.9 C 20.53 21.85 20.7 21.46 20.59 21.2 C 20.39 20.7 20.17 19.87 20.02 18.62 C 19.85 17.14 20.3 16.23 20.75 15.78 C 20.93 15.59 20.98 15.25 20.79 15.07 L 20.78 15.11" transform="matrix(1 0 0 1 0 0)" fill="#EBEBEB" stroke="none" />
</svg>
