<?xml version="1.0" encoding="UTF-8"?>
<!-- Reconstructed from Amplitude.Graphics.Svg.SvgAsset and recolored from static UIMapper.Color metadata for EWShop; not original source SVG. Live UI state/material colors are not included. -->
<svg xmlns="http://www.w3.org/2000/svg" width="25" height="25" viewBox="0 0 25 25">
  <path d="M 4.567 2.879 L 3.771 3.557 C 3.738 3.588 3.705 3.619 3.673 3.65 L 3.418 4.397 L 3.447 5.099 L 3.891 5.568 L 4.466 5.88 L 5.094 5.88 L 5.442 5.658 L 5.67 5.337 L 5.717 4.993 L 5.67 4.571 L 6.113 4.751 L 6.403 5.273 L 6.467 5.991 L 6.467 6.436 L 5.225 6.436 L 5.225 7.775 L 6.231 7.775 L 6.184 7.988 L 5.567 9.615 L 4.9 10.877 L 4.355 11.995 L 3.589 13.579 L 3.194 14.524 L 2.829 15.535 L 2.679 16.194 L 2.514 17.169 L 2.514 19.068 L 3.001 20.452 L 3.262 20.919 C 4.101 21.839 5.077 22.632 6.156 23.269 L 7.534 20.739 L 6.71 20.386 C 6.354 20.093 5.632 19.49 5.591 19.411 C 5.552 19.334 5.18 18.526 4.999 18.132 L 4.999 16.245 L 5.591 14.012 L 6.358 11.593 L 7.125 9.226 L 7.551 7.775 L 9.482 7.775 L 9.482 20.162 L 8.786 20.162 L 6.879 23.663 C 8.569 24.516 10.478 25 12.5 25 C 14.512 25 16.412 24.522 18.096 23.677 L 16.18 20.162 L 15.518 20.162 L 15.518 7.775 L 17.405 7.775 L 17.831 9.226 L 18.598 11.593 L 19.365 14.012 L 19.957 16.245 L 19.957 18.132 C 19.776 18.526 19.404 19.334 19.365 19.411 C 19.324 19.49 18.603 20.093 18.246 20.386 L 17.349 20.771 L 18.743 23.327 C 19.819 22.706 20.793 21.93 21.635 21.028 L 21.955 20.452 L 22.442 19.068 L 22.442 17.169 L 22.277 16.194 L 22.127 15.535 L 21.762 14.524 L 21.367 13.579 L 20.601 11.995 L 20.056 10.877 L 19.389 9.615 L 18.773 7.988 L 18.725 7.775 L 19.775 7.775 L 19.775 6.436 L 18.489 6.436 L 18.489 5.991 L 18.553 5.273 L 18.843 4.751 L 19.286 4.571 L 19.239 4.993 L 19.286 5.337 L 19.514 5.658 L 19.862 5.88 L 20.49 5.88 L 21.065 5.568 L 21.509 5.099 L 21.538 4.397 L 21.279 3.637 L 20.389 2.879 L 19.174 2.702 L 17.927 3.294 L 17.367 4.397 L 17.127 5.453 L 17.234 6.436 L 7.722 6.436 L 7.829 5.453 L 7.589 4.397 L 7.029 3.294 L 5.782 2.702 L 4.567 2.879 M 15.721 22.231 L 9.235 22.231 L 9.235 21.208 L 15.721 21.208 L 15.721 22.231 M 14.817 20.162 L 13.739 20.162 L 13.739 7.775 L 14.817 7.775 L 14.817 20.162 M 13.039 20.162 L 11.961 20.162 L 11.961 7.775 L 13.039 7.775 L 13.039 20.162 M 11.261 20.162 L 10.183 20.162 L 10.183 7.775 L 11.261 7.775 L 11.261 20.162" transform="matrix(1 0 0 1 0 0)" fill="#FFFFFF" stroke="none" />
</svg>
