<?xml version="1.0" encoding="UTF-8"?>
<!-- Reconstructed from Amplitude.Graphics.Svg.SvgAsset and recolored from static UIMapper.Color metadata for EWShop; not original source SVG. Live UI state/material colors are not included. -->
<svg xmlns="http://www.w3.org/2000/svg" width="25" height="25" viewBox="0 0 25 25">
  <path d="M 8.218 11.545 L 8.79 13.259 L 7.075 13.259 L 6.27 14.468 L 5.932 14.974 L 5.932 19.884 L 6.392 23.404 C 8.198 24.419 10.281 25 12.5 25 C 12.712 25 12.923 24.994 13.132 24.983 L 12.791 21.262 L 14.486 20.838 L 14.89 20.736 L 15.077 20.69 L 15.312 20.768 L 15.69 20.895 L 15.717 20.903 L 15.706 20.938 L 15.765 20.917 L 16.034 20.818 L 17.065 20.441 L 17.363 19.547 L 17.301 19.547 L 18.166 16.565 L 17.465 17.021 L 17.068 16.246 L 16.11 19.547 L 15.077 19.547 L 12.791 18.975 L 13.362 16.689 L 12.219 14.974 L 12.219 13.831 L 10.504 13.259 L 11.076 11.545 L 11.076 10.401 L 9.933 9.83 L 8.79 9.83 L 8.218 11.545 M 23.54 18.363 C 22.038 19.557 20.227 20.379 18.247 20.69 L 18.203 20.82 L 18.021 21.369 L 17.478 21.568 L 16.118 22.065 L 14.136 22.79 L 14.326 24.866 C 14.328 24.866 14.33 24.866 14.331 24.866 C 14.578 24.83 14.823 24.787 15.065 24.736 C 15.444 24.657 15.816 24.561 16.182 24.448 C 16.394 24.383 16.603 24.312 16.811 24.235 C 19.71 23.17 22.104 21.061 23.54 18.363 M 9.743 0.306 C 5.55 1.25 2.156 4.3 0.729 8.287 C 0.622 8.585 0.527 8.888 0.442 9.196 C 0.195 10.101 0.047 11.046 0.011 12.021 C 0.005 12.18 0 12.34 0 12.5 C 0 12.622 0.002 12.743 0.006 12.863 C 0.017 13.265 0.048 13.662 0.097 14.054 C 0.125 14.282 0.159 14.508 0.199 14.732 C 0.269 15.122 0.358 15.506 0.464 15.882 C 0.523 16.093 0.587 16.302 0.657 16.509 C 0.818 16.984 1.006 17.446 1.221 17.894 C 1.234 17.921 1.249 17.948 1.263 17.976 C 2.149 19.791 3.461 21.358 5.069 22.55 L 4.742 20.039 L 4.731 19.962 L 4.731 14.61 L 4.934 14.309 L 5.717 13.134 C 5.324 11.982 5.11 10.747 5.11 9.463 C 5.11 5.706 6.933 2.375 9.743 0.306 M 14.079 22.176 L 14.084 22.224 L 14.099 22.171 L 14.079 22.176 M 19.639 6.638 L 17.207 14.54 L 15.697 14.523 L 17.046 15.248 L 17.667 16.492 L 18.981 15.835 L 18.987 15.815 L 20.953 15.837 L 19.261 14.926 L 21.609 7.295 L 20.952 5.324 L 19.639 6.638 M 14.749 6.683 C 14.648 7.302 14.162 7.788 13.542 7.89 L 12.5 8.061 L 13.542 8.231 C 14.162 8.333 14.648 8.819 14.749 9.438 L 14.92 10.481 L 15.09 9.438 C 15.191 8.819 15.678 8.333 16.298 8.231 L 17.34 8.061 L 16.298 7.89 C 15.678 7.788 15.191 7.303 15.09 6.683 L 14.92 5.641 L 14.749 6.683 M 11.572 2.573 C 11.454 3.297 10.886 3.865 10.162 3.983 L 8.945 4.183 L 10.162 4.382 C 10.886 4.5 11.454 5.069 11.572 5.793 L 11.772 7.01 L 11.971 5.793 C 12.089 5.069 12.658 4.5 13.382 4.382 L 14.599 4.183 L 13.382 3.983 C 12.658 3.865 12.089 3.297 11.971 2.573 L 11.772 1.355 L 11.572 2.573" transform="matrix(1 0 0 1 0 0)" fill="#FFFFFF" stroke="none" />
</svg>
