<?xml version="1.0" encoding="UTF-8"?>
<!-- Reconstructed from Amplitude.Graphics.Svg.SvgAsset and recolored from static UIMapper.Color metadata for EWShop; not original source SVG. Live UI state/material colors are not included. -->
<svg xmlns="http://www.w3.org/2000/svg" width="25" height="25" viewBox="0 0 25 25">
  <path d="M 13.36 13.16 L 12.95 13.22 L 10.42 13.58 C 10.18 13.62 10 13.82 10 14.07 C 10 14.11 10 14.14 10.01 14.17 C 10.01 14.17 10.01 14.19 10.01 14.2 C 10.01 14.22 10.02 14.25 10.03 14.27 C 10.03 14.27 10.03 14.29 10.04 14.3 C 10.05 14.32 10.06 14.34 10.07 14.36 C 10.07 14.37 10.09 14.38 10.09 14.39 C 10.1 14.41 10.12 14.42 10.13 14.43 C 10.13 14.43 10.15 14.45 10.16 14.46 C 10.17 14.47 10.19 14.48 10.2 14.49 C 10.21 14.49 10.23 14.51 10.24 14.52 C 10.26 14.52 10.27 14.53 10.29 14.54 C 10.3 14.54 10.31 14.55 10.33 14.55 C 10.35 14.55 10.37 14.55 10.4 14.56 C 10.45 14.56 10.49 14.56 10.54 14.56 L 13.33 14.16 C 13.42 14.15 13.52 14.15 13.61 14.16 L 16.4 14.56 C 16.4 14.56 16.44 14.56 16.46 14.56 C 16.47 14.56 16.48 14.56 16.5 14.56 C 16.52 14.56 16.54 14.56 16.56 14.56 C 16.58 14.56 16.59 14.56 16.6 14.56 C 16.62 14.56 16.63 14.55 16.65 14.54 C 16.66 14.54 16.68 14.53 16.69 14.52 C 16.71 14.52 16.72 14.5 16.74 14.49 C 16.75 14.49 16.76 14.48 16.77 14.47 C 16.78 14.46 16.8 14.45 16.81 14.44 C 16.82 14.43 16.83 14.41 16.85 14.4 C 16.85 14.39 16.87 14.38 16.88 14.37 C 16.89 14.35 16.91 14.33 16.92 14.31 C 16.92 14.31 16.92 14.3 16.93 14.29 C 16.94 14.27 16.95 14.24 16.96 14.22 C 16.97 14.18 16.98 14.13 16.98 14.09 C 16.98 14.08 16.98 14.06 16.98 14.05 C 16.98 14.04 16.98 14.02 16.98 14.01 C 16.98 14.01 16.98 13.99 16.98 13.98 C 16.98 13.96 16.98 13.95 16.97 13.93 C 16.97 13.92 16.96 13.91 16.95 13.89 C 16.95 13.88 16.94 13.86 16.93 13.85 C 16.93 13.84 16.92 13.83 16.91 13.82 C 16.91 13.81 16.89 13.79 16.88 13.78 C 16.88 13.78 16.87 13.76 16.86 13.76 C 16.85 13.75 16.84 13.73 16.82 13.72 C 16.82 13.72 16.81 13.71 16.8 13.7 C 16.79 13.69 16.77 13.68 16.75 13.67 C 16.75 13.67 16.74 13.66 16.73 13.66 C 16.71 13.65 16.68 13.64 16.65 13.63 L 16.58 13.61 C 16.58 13.61 16.57 13.61 16.56 13.61 L 13.63 13.19 C 13.54 13.18 13.44 13.18 13.35 13.19 L 13.36 13.16" transform="matrix(1 0 0 1 0 0)" fill="#EBEBEB" stroke="none" />
  <path d="M 9.01 17.24 L 9.01 17.07 L 9.01 16.93 C 9.07 16.25 9.6 15.69 10.29 15.59 L 10.47 15.56 C 9.73 15.55 9.09 14.98 9.01 14.24 L 9.01 14.07 L 9.01 13.93 C 9.07 13.25 9.6 12.69 10.29 12.59 L 10.47 12.56 C 9.73 12.55 9.09 11.98 9.01 11.24 L 9.01 11.07 L 9.01 10.93 C 9.07 10.25 9.6 9.69 10.29 9.59 L 12.59 9.26 C 12.42 7.29 12.25 5.22 12.09 3.59 C 12.04 3.14 11.47 2.98 11.18 3.33 C 10.19 4.49 8.77 5.9 7.74 6.16 C 6.53 6.46 4.78 5.88 3.82 5.46 C 3.64 5.38 3.42 5.4 3.27 5.54 L 1.2 7.29 C 1.13 7.44 1.06 7.58 1 7.73 C 1 7.94 1.08 8.16 1.23 8.31 C 1.86 8.92 2.48 10.11 2.24 12.06 C 2.04 13.67 1.73 14.76 1.45 15.43 C 1.3 15.81 1.53 16.36 1.93 16.43 L 3.44 16.68 C 3.44 16.68 3.52 16.7 3.55 16.71 C 4.55 17.15 6.54 18.31 6.87 19.64 C 7.23 21.08 10 22.25 11.64 23.33 C 11.97 23.54 12.44 23.37 12.51 22.99 C 12.74 21.64 13.02 19.81 13.17 18.2 L 10.7 18.55 C 9.86 18.67 9.09 18.06 9 17.24 L 9.01 17.24" transform="matrix(1 0 0 1 0 0)" fill="#EBEBEB" stroke="none" />
  <path d="M 10.42 10.58 C 10.18 10.62 10 10.82 10 11.07 C 10 11.11 10 11.14 10.01 11.17 C 10.01 11.17 10.01 11.19 10.01 11.2 C 10.01 11.22 10.02 11.25 10.03 11.27 C 10.03 11.28 10.04 11.29 10.05 11.3 C 10.05 11.32 10.07 11.34 10.08 11.35 C 10.08 11.36 10.1 11.37 10.1 11.38 C 10.11 11.4 10.13 11.41 10.14 11.42 C 10.14 11.42 10.16 11.44 10.17 11.45 C 10.18 11.46 10.2 11.47 10.21 11.48 C 10.22 11.48 10.24 11.5 10.25 11.51 C 10.27 11.51 10.28 11.52 10.3 11.53 C 10.31 11.53 10.32 11.54 10.34 11.54 C 10.36 11.54 10.38 11.54 10.41 11.55 C 10.46 11.55 10.5 11.55 10.55 11.55 L 13.34 11.15 C 13.43 11.14 13.53 11.14 13.62 11.15 L 16.41 11.55 C 16.41 11.55 16.45 11.55 16.47 11.55 C 16.48 11.55 16.49 11.55 16.51 11.55 C 16.53 11.55 16.55 11.55 16.57 11.55 C 16.59 11.55 16.6 11.55 16.61 11.55 C 16.63 11.55 16.64 11.54 16.66 11.53 C 16.67 11.53 16.69 11.52 16.7 11.51 C 16.72 11.51 16.73 11.49 16.75 11.48 C 16.76 11.48 16.77 11.47 16.78 11.46 C 16.79 11.45 16.81 11.44 16.82 11.43 C 16.83 11.42 16.84 11.4 16.86 11.39 C 16.86 11.38 16.88 11.37 16.89 11.36 C 16.9 11.34 16.91 11.32 16.93 11.3 C 16.93 11.3 16.93 11.28 16.94 11.27 C 16.94 11.25 16.96 11.23 16.96 11.21 C 16.97 11.16 16.98 11.12 16.98 11.06 C 16.98 11.05 16.98 11.03 16.98 11.02 C 16.98 11.01 16.98 10.99 16.98 10.98 C 16.98 10.98 16.98 10.96 16.98 10.95 C 16.98 10.93 16.98 10.92 16.97 10.9 C 16.97 10.89 16.96 10.88 16.95 10.86 C 16.95 10.85 16.94 10.83 16.93 10.82 C 16.93 10.82 16.92 10.8 16.91 10.79 C 16.91 10.78 16.89 10.76 16.88 10.75 C 16.88 10.75 16.87 10.73 16.86 10.73 C 16.85 10.72 16.84 10.71 16.82 10.69 C 16.82 10.69 16.81 10.68 16.8 10.67 C 16.79 10.66 16.77 10.65 16.75 10.64 C 16.75 10.64 16.74 10.63 16.73 10.63 C 16.71 10.62 16.68 10.61 16.65 10.6 L 16.58 10.58 C 16.58 10.58 16.57 10.58 16.56 10.58 L 13.63 10.16 C 13.54 10.15 13.44 10.15 13.35 10.16 L 12.66 10.26 L 10.42 10.58" transform="matrix(1 0 0 1 0 0)" fill="#EBEBEB" stroke="none" />
  <path d="M 16.49 17.56 C 16.49 17.56 16.51 17.56 16.53 17.56 C 16.55 17.56 16.57 17.56 16.59 17.56 C 16.61 17.56 16.62 17.56 16.63 17.56 C 16.65 17.56 16.66 17.55 16.68 17.54 C 16.69 17.54 16.71 17.53 16.72 17.52 C 16.74 17.52 16.75 17.5 16.77 17.49 C 16.78 17.49 16.79 17.48 16.8 17.47 C 16.81 17.46 16.83 17.45 16.84 17.44 C 16.85 17.43 16.86 17.41 16.88 17.4 C 16.88 17.39 16.9 17.38 16.91 17.37 C 16.92 17.35 16.93 17.33 16.95 17.31 C 16.95 17.31 16.95 17.29 16.96 17.28 C 16.96 17.26 16.97 17.24 16.98 17.23 C 17 17.18 17.01 17.13 17.01 17.08 C 17.01 17.07 17.01 17.05 17.01 17.04 C 17.01 17.03 17.01 17.01 17.01 17 C 17.01 16.99 17.01 16.98 17.01 16.97 C 17.01 16.95 17.01 16.94 17 16.93 C 17 16.92 16.99 16.91 16.98 16.89 C 16.98 16.88 16.97 16.86 16.96 16.85 C 16.96 16.84 16.95 16.83 16.94 16.82 C 16.94 16.81 16.92 16.79 16.91 16.78 C 16.91 16.78 16.9 16.76 16.89 16.76 C 16.88 16.75 16.87 16.73 16.85 16.72 C 16.85 16.72 16.84 16.71 16.83 16.7 C 16.82 16.69 16.8 16.68 16.78 16.67 C 16.78 16.67 16.77 16.66 16.76 16.66 C 16.74 16.65 16.71 16.64 16.68 16.63 L 16.61 16.61 C 16.61 16.61 16.6 16.61 16.59 16.61 L 15.82 16.5 L 14.5 16.31 L 13.65 16.19 C 13.56 16.18 13.46 16.18 13.37 16.19 L 13.3 16.19 L 10.44 16.6 C 10.2 16.64 10.02 16.84 10.02 17.09 C 10.02 17.13 10.02 17.16 10.03 17.19 C 10.03 17.19 10.03 17.21 10.03 17.22 C 10.03 17.24 10.04 17.27 10.05 17.29 C 10.05 17.3 10.06 17.31 10.07 17.32 C 10.07 17.34 10.09 17.36 10.1 17.37 C 10.1 17.38 10.12 17.39 10.12 17.4 C 10.13 17.42 10.15 17.43 10.16 17.44 C 10.16 17.44 10.18 17.46 10.19 17.47 C 10.2 17.48 10.22 17.49 10.23 17.5 C 10.24 17.5 10.26 17.52 10.27 17.53 C 10.29 17.53 10.3 17.54 10.32 17.55 C 10.33 17.55 10.34 17.56 10.36 17.56 C 10.38 17.56 10.4 17.56 10.43 17.57 C 10.48 17.57 10.52 17.57 10.57 17.57 L 13.36 17.17 C 13.45 17.16 13.55 17.16 13.64 17.17 L 16.43 17.57 C 16.43 17.57 16.47 17.57 16.49 17.57 L 16.49 17.56" transform="matrix(1 0 0 1 0 0)" fill="#EBEBEB" stroke="none" />
  <path d="M 23.68 7.27 L 21.68 5.43 C 21.52 5.29 21.29 5.26 21.1 5.35 C 20.18 5.79 18.52 6.37 17.37 6.06 C 16.4 5.8 15.07 4.38 14.12 3.2 C 13.83 2.84 13.25 3 13.24 3.46 C 13.21 5.21 13.43 7.26 13.7 9.17 C 13.72 9.17 13.75 9.17 13.77 9.17 L 16.7 9.59 L 16.84 9.62 C 17.51 9.78 17.99 10.38 17.99 11.07 C 17.99 11.9 17.32 12.55 16.52 12.56 L 16.71 12.59 L 16.85 12.62 C 17.52 12.78 18 13.38 18 14.07 C 18 14.9 17.33 15.55 16.53 15.56 L 16.72 15.59 L 16.86 15.62 C 17.53 15.78 18.01 16.38 18.01 17.07 C 18.01 17.98 17.2 18.68 16.3 18.55 L 14.36 18.27 C 14.21 19.93 13.98 21.68 13.72 22.88 C 13.62 23.33 14.12 23.78 14.52 23.55 C 16.04 22.7 17.88 21.31 18.19 19.96 C 18.51 18.6 20.4 17.4 21.37 16.94 C 21.41 16.92 21.45 16.91 21.49 16.9 L 22.95 16.64 C 23.34 16.57 23.57 16.04 23.42 15.68 C 23.15 14.99 22.84 13.85 22.64 12.14 C 22.4 10.1 23.02 8.86 23.64 8.24 C 23.89 7.98 23.96 7.51 23.69 7.27 L 23.68 7.27" transform="matrix(1 0 0 1 0 0)" fill="#EBEBEB" stroke="none" />
</svg>
