<?xml version="1.0" encoding="UTF-8"?>
<!-- Reconstructed from Amplitude.Graphics.Svg.SvgAsset and recolored from static UIMapper.Color metadata for EWShop; not original source SVG. Live UI state/material colors are not included. -->
<svg xmlns="http://www.w3.org/2000/svg" width="25" height="25" viewBox="0 0 25 25">
  <path d="M 14.09 13.03 L 14.405 14.688 L 13.363 15.966 L 13.506 16.731 L 15.763 17.157 L 16.034 18.367 L 16.982 22.586 L 17.306 24.027 L 17.308 24.039 C 16.85 24.23 16.379 24.396 15.896 24.532 L 15.867 24.41 L 15.444 22.626 L 15.229 21.713 L 14.894 20.3 L 14.288 23.301 L 14.533 24.599 L 14.576 24.827 C 13.901 24.94 13.207 25 12.5 25 C 11.889 25 11.289 24.955 10.702 24.87 L 10.954 23.301 L 10.234 20.668 L 9.908 21.956 L 9.736 22.638 L 9.246 24.571 C 8.823 24.458 8.411 24.32 8.007 24.164 L 8.476 22.218 L 9.247 19.013 L 9.694 17.157 L 12.04 16.731 L 12.04 16.052 L 11.206 15.064 L 10.954 13.706 L 11.497 12.504 L 13.01 12 L 14.09 13.03 M 7.416 14.037 L 7.718 15.623 L 6.722 16.847 L 6.857 17.578 L 8.49 17.887 L 7.074 23.764 C 5.838 23.167 4.717 22.372 3.748 21.422 L 3.728 21.346 L 3.716 21.391 C 3.344 21.023 2.996 20.631 2.672 20.22 L 3.211 17.986 L 5.455 17.578 L 5.455 16.929 L 4.657 15.982 L 4.416 14.685 L 4.936 13.534 L 6.383 13.052 L 7.416 14.037 M 20.331 14.037 L 20.634 15.623 L 19.637 16.847 L 19.773 17.578 L 21.933 17.986 L 22.41 20.113 C 22.043 20.591 21.642 21.041 21.211 21.46 L 21.101 20.993 L 20.957 21.702 C 20.142 22.451 19.227 23.091 18.235 23.605 L 16.94 17.838 L 18.37 17.578 L 18.37 16.929 L 17.573 15.982 L 17.332 14.685 L 17.851 13.534 L 19.298 13.052 L 20.331 14.037 M 12.28 2 C 14.323 2 16.231 2.564 17.856 3.543 C 18.137 3.27 18.524 3.101 18.95 3.101 C 19.812 3.101 20.511 3.791 20.511 4.642 C 20.511 4.96 20.412 5.256 20.245 5.501 C 21.957 7.377 23 9.86 23 12.584 C 23 14.155 22.652 15.646 22.03 16.986 L 21.125 16.815 C 21.204 16.655 21.278 16.493 21.348 16.328 L 21.703 15.894 L 21.637 15.553 C 21.941 14.617 22.108 13.62 22.108 12.584 C 22.108 10.073 21.142 7.784 19.557 6.062 C 19.37 6.139 19.165 6.182 18.95 6.182 C 18.088 6.182 17.39 5.492 17.39 4.642 C 17.39 4.529 17.402 4.42 17.425 4.314 C 15.928 3.405 14.166 2.881 12.28 2.881 C 7.079 2.881 2.821 6.87 2.475 11.918 C 3.163 11.993 3.757 12.378 4.111 12.928 L 4.024 13.123 L 3.505 14.273 L 3.376 14.559 L 3.433 14.867 L 3.611 15.831 C 3.463 15.947 3.301 16.046 3.126 16.122 C 3.234 16.394 3.355 16.66 3.486 16.919 L 3.031 17.002 L 2.579 17.084 C 2.458 16.83 2.344 16.572 2.243 16.308 L 2.229 16.308 C 1.398 16.308 0.674 15.857 0.291 15.19 C 0.18 14.684 0.099 14.167 0.052 13.64 C 0.223 12.859 0.811 12.232 1.576 12.001 C 1.883 6.427 6.558 2 12.28 2 M 9.587 5.742 C 10.101 5.742 10.557 5.988 10.841 6.366 C 11.365 6.23 11.916 6.158 12.483 6.158 C 15.908 6.158 18.707 8.795 18.915 12.125 L 18.035 12.418 C 17.979 9.437 15.516 7.038 12.483 7.038 C 12.022 7.038 11.573 7.093 11.145 7.198 C 11.146 7.226 11.148 7.254 11.148 7.282 C 11.148 8.133 10.449 8.823 9.587 8.823 C 9.246 8.823 8.93 8.715 8.673 8.532 C 7.673 9.464 7.024 10.758 6.939 12.201 L 6.637 11.913 L 6.052 12.107 C 6.162 10.418 6.94 8.907 8.128 7.831 C 8.062 7.661 8.025 7.475 8.025 7.282 C 8.026 6.431 8.725 5.742 9.587 5.742" transform="matrix(1 0 0 1 0 0)" fill="#EBEBEB" stroke="none" />
</svg>
