<?xml version="1.0" encoding="UTF-8"?>
<!-- Reconstructed from Amplitude.Graphics.Svg.SvgAsset and recolored from static UIMapper.Color metadata for EWShop; not original source SVG. Live UI state/material colors are not included. -->
<svg xmlns="http://www.w3.org/2000/svg" width="25" height="25" viewBox="0 0 25 25">
  <path d="M 12.5 23 C 13.88 23 15 23.224 15 23.5 C 15 23.776 13.88 24 12.5 24 C 11.119 24 10 23.776 10 23.5 C 10 23.224 11.119 23 12.5 23 M 6.5 22 C 7.88 22 9 22.224 9 22.5 C 9 22.776 7.88 23 6.5 23 C 6.21 23 5.933 22.988 5.674 22.97 C 5.3 22.725 4.938 22.462 4.592 22.18 C 5.051 22.072 5.735 22 6.5 22 M 18.5 22 C 19.264 22 19.947 22.072 20.406 22.18 C 20.061 22.462 19.7 22.725 19.325 22.97 C 19.067 22.988 18.789 23 18.5 23 C 17.119 23 16 22.776 16 22.5 C 16 22.224 17.119 22 18.5 22 M 1.085 14.5 L 6.057 15.404 C 6.257 15.968 6.512 16.54 6.827 17.118 C 10.078 18.25 15.033 18.744 18.128 17.201 C 18.202 17.067 18.274 16.933 18.342 16.8 L 23.965 16.999 C 23.953 17.196 23.936 17.39 23.919 17.581 C 23.384 18.782 22.667 19.883 21.801 20.848 C 20.019 21.158 18.122 20.939 16.805 20.648 C 12.979 21.486 9.312 21.141 7.88 20.714 C 6.585 20.971 4.841 21.135 3.197 20.848 C 2.33 19.882 1.614 18.781 1.079 17.58 C 0.988 16.562 0.969 15.457 1.057 14.324 C 1.065 14.381 1.075 14.44 1.085 14.5 M 12.76 15.474 C 15.085 15.474 17.232 15.71 17.232 16 C 17.232 16.291 15.085 17.052 12.76 17.052 C 10.436 17.052 7.5 16.291 7.5 16 C 7.5 15.71 10.436 15.474 12.76 15.474 M 15 3 C 21 4.54 23.273 9.049 23.844 13.382 C 22.383 14.091 20.457 13.853 19.408 13.607 C 19.649 12.138 19.542 10.746 19.212 9.469 L 19.195 9.476 C 18.943 9.582 18.576 9.729 18.114 9.894 C 17.19 10.223 15.879 10.625 14.331 10.922 C 11.836 11.399 8.692 11.606 5.541 10.755 C 5.482 11.215 5.455 11.687 5.463 12.169 C 4.416 12.424 2.722 12.684 1.376 12.103 C 2.21 8.192 4.589 4.389 10 3 C 9.043 3.771 7.961 4.933 7.093 6.385 L 7.334 6.435 C 7.715 6.513 8.096 6.59 8.472 6.662 C 9.61 6.882 10.73 7.061 11.816 7.092 C 13.754 7.146 15.562 6.73 17.118 5.214 C 16.43 4.301 15.683 3.55 15 3 M 17.696 6.045 C 15.927 7.702 13.873 8.149 11.789 8.091 C 10.62 8.058 9.435 7.867 8.283 7.645 C 7.883 7.567 7.49 7.487 7.103 7.408 C 6.933 7.373 6.763 7.339 6.594 7.305 C 6.221 8.066 5.915 8.891 5.716 9.767 C 8.697 10.591 11.709 10.405 14.143 9.939 C 15.631 9.655 16.891 9.267 17.778 8.951 C 18.221 8.793 18.57 8.653 18.807 8.554 C 18.847 8.537 18.883 8.522 18.916 8.508 C 18.595 7.614 18.172 6.788 17.696 6.045" transform="matrix(1 0 0 1 0 0)" fill="#FFFFFF" stroke="none" />
</svg>
