<?xml version="1.0" encoding="UTF-8"?>
<!-- Reconstructed from Amplitude.Graphics.Svg.SvgAsset and recolored from static UIMapper.Color metadata for EWShop; not original source SVG. Live UI state/material colors are not included. -->
<svg xmlns="http://www.w3.org/2000/svg" width="25" height="25" viewBox="0 0 25 25">
  <path d="M 14.856 9.077 L 14.856 10.221 L 15.428 11.936 L 13.713 12.507 L 13.713 13.649 L 12.569 15.364 L 13.141 17.651 L 10.855 18.223 L 9.821 18.223 L 8.863 14.923 L 8.467 15.696 L 7.766 15.241 L 10.475 23.968 L 8.37 23.817 L 5.004 22.957 L 5.004 23.04 L 7.271 24.437 L 10.13 25 L 12.729 24.907 L 12.729 26.105 L 14.713 24.837 L 16.172 24.785 L 16.985 24.585 L 18.454 24.585 L 19.35 23.548 L 19.358 23.484 L 19.996 23.142 L 19.996 22.964 L 19.415 23.049 L 20 18.56 L 20 13.649 L 18.856 11.936 L 17.142 11.936 L 17.714 10.221 L 17.142 8.506 L 15.999 8.506 L 14.856 9.077 M 11.042 19.412 L 11.445 19.514 L 13.141 19.938 L 12.8 23.66 L 12.767 24.03 L 12.303 24.099 L 11.19 24.019 L 10.167 19.593 L 10.225 19.614 L 10.215 19.579 L 10.241 19.57 L 10.62 19.443 L 10.855 19.365 L 11.042 19.412" transform="matrix(1 0 0 1 0 0)" fill="#EBEBEB" stroke="none" />
  <path d="M 20.996 24.44 L 26.425 24.44 L 26.425 22.509 L 23.934 22.509 L 23.934 18.291 L 21.073 17.246 L 20.996 17.218 L 20.996 24.44" transform="matrix(1 0 0 1 0 0)" fill="#EBEBEB" stroke="none" />
  <path d="M -1.425 14.315 L -1.425 16.246 L 1.066 16.246 L 1.066 22.509 L -1.425 22.509 L -1.425 24.44 L 4.004 24.44 L 4.004 14.315 L -1.425 14.315" transform="matrix(1 0 0 1 0 0)" fill="#EBEBEB" stroke="none" />
  <path d="M 11.031 -3.439 L 11.031 2.029 L 13.883 2.029 L 13.978 2.085 L 19.16 5.173 L 21.671 4.316 L 20.996 7.807 L 20.996 16.246 L 26.425 16.246 L 26.425 14.315 L 23.934 14.315 L 23.934 4.507 L 24.079 4.387 L 25.042 3.596 L 23.627 1.527 L 21.964 2.898 L 21.734 2.791 L 14.198 -0.746 L 13.969 -0.854 L 13.969 -3.439 L 11.031 -3.439" transform="matrix(1 0 0 1 0 0)" fill="#EBEBEB" stroke="none" />
  <path d="M 4.322 5.971 L 6.671 13.603 L 4.979 14.513 L 6.944 14.491 L 6.95 14.511 L 8.265 15.168 L 8.886 13.924 L 10.234 13.199 L 8.725 13.216 L 6.293 5.313 L 4.979 4 L 4.322 5.971" transform="matrix(1 0 0 1 0 0)" fill="#EBEBEB" stroke="none" />
  <path d="M -0.042 3.596 L 0.921 4.387 L 1.066 4.507 L 1.066 12.269 L 4.004 13.343 L 4.004 8.337 L 3.272 5.959 L 4.533 2.172 L 3.285 2.788 L 3.054 2.901 L 1.373 1.526 L -0.042 3.596" transform="matrix(1 0 0 1 0 0)" fill="#EBEBEB" stroke="none" />
  <path d="M 4.555 2.161 L 6.854 4.46 L 9.736 2.701 L 9.871 2.618 L 10.651 2.142 L 10.389 1.941 L 8.275 0.326 L 4.555 2.161" transform="matrix(1 0 0 1 0 0)" fill="#EBEBEB" stroke="none" />
</svg>
