<?xml version="1.0" encoding="UTF-8"?>
<!-- Reconstructed from Amplitude.Graphics.Svg.SvgAsset and recolored from static UIMapper.Color metadata for EWShop; not original source SVG. Live UI state/material colors are not included. -->
<svg xmlns="http://www.w3.org/2000/svg" width="25" height="25" viewBox="0 0 25 25">
  <path d="M 18.916 1.77 L 14.848 4.426 L 14.28 5.71 L 20.788 3.143 C 20.21 2.63 19.583 2.17 18.916 1.77 M 21.976 4.347 L 14.489 7.561 L 13.708 8.729 L 23.575 6.699 C 23.132 5.854 22.594 5.065 21.976 4.347 M 24.206 8.105 L 14.013 10.229 L 13.013 11.229 L 24.936 11.229 C 24.826 10.14 24.577 9.093 24.206 8.105 M 24.969 13.393 L 16.643 12.931 C 17.292 13.34 17.827 13.949 17.875 14.853 L 24.321 16.573 C 24.669 15.565 24.891 14.499 24.969 13.393 M 18.055 23.701 C 17.988 22.852 17.765 21.99 17.392 21.116 C 17.143 20.536 16.818 19.99 16.492 19.444 C 16.308 19.135 16.124 18.827 15.954 18.512 C 15.765 18.163 15.605 17.794 15.473 17.42 C 15.344 17.05 15.457 16.734 15.798 16.516 C 16.353 16.159 16.528 15.612 16.555 14.989 C 16.568 14.708 16.48 14.457 16.252 14.307 C 15.915 14.085 15.569 13.859 15.196 13.714 C 13.966 13.236 12.67 13.047 11.367 12.912 C 9.399 12.709 7.427 12.668 5.454 12.821 C 4.362 12.906 3.278 13.052 2.231 13.394 C 1.673 13.576 1.137 13.806 0.691 14.204 C 0.423 14.442 0.261 14.728 0.267 15.084 C 0.32 15.334 0.38 15.581 0.447 15.826 C 0.535 16.01 0.656 16.178 0.814 16.328 C 0.938 16.445 1.067 16.556 1.199 16.664 C 1.359 16.795 1.465 16.96 1.414 17.167 C 1.398 17.23 1.383 17.293 1.368 17.357 C 1.326 17.538 1.283 17.721 1.22 17.893 C 3.234 22.097 7.528 25 12.5 25 C 13.317 25 14.116 24.922 14.889 24.772 C 15.417 22.928 15.239 20.941 14.781 18.729 C 16.136 20.218 16.556 22.545 16.076 24.481 C 16.762 24.276 17.424 24.015 18.055 23.701 M 4.884 14.082 C 4.986 14.107 5.087 14.13 5.187 14.153 C 5.435 14.209 5.674 14.264 5.902 14.348 C 6.028 14.395 6.181 14.575 6.182 14.695 C 6.183 14.815 6.033 14.989 5.907 15.048 C 5.224 15.371 4.519 15.376 3.827 15.077 C 3.698 15.02 3.53 14.85 3.534 14.739 C 3.54 14.608 3.691 14.421 3.822 14.371 C 4.064 14.279 4.319 14.218 4.575 14.157 C 4.678 14.133 4.781 14.108 4.884 14.082 M 10.168 14.465 C 10.256 14.486 10.342 14.504 10.427 14.522 C 10.629 14.565 10.821 14.605 11.003 14.674 C 11.109 14.714 11.228 14.869 11.235 14.979 C 11.241 15.074 11.119 15.224 11.017 15.272 C 10.465 15.531 9.899 15.522 9.352 15.263 C 9.059 15.124 9.057 14.829 9.356 14.693 C 9.533 14.612 9.727 14.568 9.919 14.525 C 10.003 14.506 10.086 14.487 10.168 14.465 M 7.009 14.878 C 7.18 14.948 7.362 14.992 7.546 15.037 L 7.546 15.037 L 7.547 15.037 C 7.621 15.056 7.697 15.074 7.772 15.094 C 7.849 15.074 7.925 15.056 8.001 15.037 C 8.188 14.992 8.371 14.949 8.542 14.878 C 8.642 14.837 8.755 14.685 8.757 14.583 C 8.759 14.48 8.651 14.326 8.551 14.28 C 8.039 14.044 7.509 14.035 6.997 14.281 C 6.899 14.328 6.794 14.482 6.797 14.584 C 6.799 14.687 6.91 14.837 7.009 14.878 M 12.62 15.118 C 12.537 15.095 12.455 15.075 12.375 15.056 C 12.2 15.014 12.034 14.973 11.883 14.902 C 11.593 14.765 11.589 14.488 11.874 14.347 C 12.394 14.09 12.934 14.103 13.451 14.354 C 13.725 14.486 13.719 14.772 13.438 14.893 C 13.258 14.97 13.064 15.014 12.871 15.058 C 12.787 15.077 12.703 15.096 12.62 15.118 M 8.422 13.465 C 8.423 13.483 8.425 13.502 8.426 13.52 C 9.997 13.516 11.559 13.609 13.098 13.94 C 13.359 13.996 13.612 14.09 13.864 14.183 C 13.925 14.205 13.985 14.227 14.045 14.249 C 14.168 14.293 14.287 14.362 14.396 14.436 C 14.715 14.655 14.722 14.915 14.397 15.118 C 14.18 15.253 13.943 15.382 13.697 15.443 C 13.615 15.462 13.534 15.483 13.452 15.503 L 13.45 15.503 C 12.844 15.653 12.236 15.803 11.619 15.877 C 9.251 16.164 6.883 16.15 4.526 15.753 C 4 15.664 3.483 15.512 2.97 15.361 L 2.97 15.361 L 2.97 15.361 L 2.97 15.361 L 2.97 15.361 L 2.969 15.361 L 2.939 15.352 C 2.739 15.294 2.549 15.174 2.376 15.052 C 2.163 14.902 2.157 14.702 2.353 14.53 C 2.468 14.43 2.607 14.35 2.747 14.288 C 3.499 13.955 4.299 13.799 5.109 13.72 C 5.88 13.645 6.654 13.59 7.427 13.536 L 7.427 13.536 L 7.427 13.536 L 7.427 13.536 L 7.427 13.536 L 7.427 13.536 C 7.759 13.513 8.091 13.489 8.422 13.465 M 7.184 1.683 C 7.609 1.29 8.137 0.973 8.724 0.729 C 7.625 0.852 6.107 1.55 5.859 2.491 C 5.726 2.98 5.982 3.494 6.379 3.862 C 6.867 4.329 7.536 4.623 8.24 4.827 C 8.37 4.866 8.501 4.903 8.631 4.94 L 8.631 4.94 C 9.788 5.271 10.868 5.58 10.942 6.743 C 10.956 7.105 10.835 7.474 10.573 7.773 C 10.44 7.923 10.273 8.048 10.106 8.174 L 10.106 8.174 L 10.105 8.174 C 9.944 8.295 9.781 8.417 9.646 8.563 C 9.417 8.797 9.302 9.123 9.414 9.411 C 9.466 9.547 9.586 9.671 9.75 9.729 C 9.399 9.453 9.607 8.995 9.949 8.779 C 10.094 8.68 10.257 8.598 10.421 8.515 L 10.421 8.515 L 10.421 8.515 C 10.614 8.417 10.809 8.319 10.977 8.192 C 10.994 8.178 11.015 8.162 11.036 8.147 C 11.088 8.108 11.144 8.066 11.179 8.026 C 11.955 7.309 12.035 6.204 11.394 5.405 C 11.21 5.168 10.947 4.964 10.666 4.799 C 10.125 4.484 9.492 4.311 8.881 4.144 L 8.881 4.144 L 8.881 4.144 L 8.881 4.144 C 8.785 4.117 8.69 4.091 8.595 4.065 C 8.299 3.984 8.024 3.904 7.754 3.785 C 7.187 3.529 6.582 3.131 6.604 2.577 C 6.636 2.236 6.89 1.958 7.184 1.683 M 8.219 7.374 C 7.98 6.485 6.842 6.177 5.781 6.364 L 5.834 6.383 C 6.163 6.502 6.495 6.623 6.764 6.799 C 7.223 7.095 7.492 7.564 7.11 8.079 C 7.006 8.226 6.886 8.372 6.764 8.52 C 6.463 8.886 6.153 9.264 6.054 9.7 C 5.903 10.307 6.209 10.882 6.725 11.224 C 7.226 11.558 7.904 11.662 8.575 11.62 C 8.787 11.606 8.998 11.581 9.209 11.54 C 9.109 11.507 9.009 11.475 8.911 11.444 L 8.911 11.444 L 8.911 11.444 L 8.911 11.444 L 8.91 11.444 L 8.91 11.444 C 8.826 11.417 8.743 11.391 8.661 11.364 C 7.914 11.124 7.124 10.734 7.085 10.009 C 7.08 9.76 7.196 9.566 7.367 9.325 C 7.437 9.228 7.511 9.132 7.587 9.035 C 7.75 8.825 7.916 8.61 8.046 8.369 C 8.212 8.073 8.305 7.685 8.219 7.374" transform="matrix(1 0 0 1 0 0)" fill="#FFFFFF" stroke="none" />
</svg>
