<?xml version="1.0" encoding="UTF-8"?>
<!-- Reconstructed from Amplitude.Graphics.Svg.SvgAsset and recolored from static UIMapper.Color metadata for EWShop; not original source SVG. Live UI state/material colors are not included. -->
<svg xmlns="http://www.w3.org/2000/svg" width="25" height="25" viewBox="0 0 25 25">
  <path d="M 10 3 L 15 3 L 15 2 L 17 2 L 17 3 L 20.619 3 C 21.316 3.596 21.948 4.266 22.5 5 L 17 5 L 17 7 L 19 7 L 19 9 L 16.259 10.317 L 19 9.929 L 19 16.5 C 19 17.324 18.847 18.113 18.567 18.838 L 16.735 18.687 L 18.174 19.674 C 17.061 21.659 14.937 23 12.5 23 C 9.426 23 6.851 20.867 6.174 18 L 7.5 18 L 6.046 17.273 C 6.016 17.019 6 16.761 6 16.5 L 6 9.75 L 7 9.5 L 6 9.167 L 6 7 L 8 7 L 8 5 L 2.5 5 C 3.052 4.266 3.684 3.596 4.381 3 L 8 3 L 8 2 L 10 2 L 10 3 M 12.706 9 C 11.992 9 11.347 9.297 10.889 9.773 C 10.732 9.735 10.568 9.715 10.4 9.715 C 9.415 9.715 8.592 10.406 8.388 11.33 L 8.375 11.324 L 8.357 11.502 C 8.352 11.546 8.347 11.592 8.344 11.637 L 8 15.083 L 8.39 19.048 C 8.412 19.055 10.309 19.654 11.564 19.654 C 12.82 19.654 14.72 19.054 14.738 19.048 L 15.031 16.627 L 15.79 16.876 L 16.921 16.547 L 17.463 12.755 L 16.45 11.318 L 15.199 11.918 C 15.219 11.79 15.23 11.658 15.23 11.523 C 15.23 10.13 14.1 9 12.706 9 M 14.199 16.635 L 13.357 16.986 L 13.511 14.815 L 14.337 14.815 L 14.199 16.635 M 12.101 16.978 L 11.259 16.626 L 11.121 14.806 L 11.947 14.806 L 12.101 16.978 M 9.796 15.405 L 9.979 16.959 L 9.139 16.606 L 8.955 15.405 L 9.139 14.329 L 10.041 14.207 L 9.796 15.405 M 16.358 12.97 L 15.94 15.603 L 15.176 15.437 L 15.219 15.083 L 14.944 12.821 L 16.131 12.335 L 16.358 12.97 M 12.706 9.813 C 13.651 9.813 14.416 10.579 14.416 11.523 C 14.416 12.009 14.214 12.447 13.89 12.758 C 13.911 12.845 13.923 12.936 13.923 13.029 C 13.923 13.648 13.422 14.149 12.804 14.149 C 12.575 14.149 12.363 14.081 12.186 13.964 C 12.103 13.909 12.028 13.844 11.963 13.77 C 11.878 13.674 11.81 13.563 11.762 13.442 L 11.831 13.245 C 11.793 13.252 11.755 13.256 11.715 13.256 L 11.707 13.256 L 11.703 13.239 C 11.702 13.243 11.7 13.246 11.698 13.249 L 11.695 13.256 C 11.352 13.246 11.077 12.964 11.077 12.618 C 11.077 12.526 11.097 12.438 11.133 12.358 C 11.043 12.406 10.941 12.434 10.832 12.434 C 10.48 12.434 10.195 12.148 10.195 11.796 L 10.195 11.783 C 9.712 11.691 9.361 11.585 9.18 11.513 C 9.301 10.95 9.801 10.528 10.4 10.527 C 10.501 10.527 10.598 10.539 10.691 10.562 C 10.865 10.603 11.025 10.681 11.162 10.787 C 11.267 10.568 11.417 10.375 11.6 10.22 C 11.898 9.966 12.284 9.814 12.706 9.813 M 10 7 L 15 7 L 15 5 L 10 5 L 10 7" transform="matrix(1 0 0 1 0 0)" fill="#FFFFFF" stroke="none" />
</svg>
