<?xml version="1.0" encoding="UTF-8"?>
<!-- Reconstructed from Amplitude.Graphics.Svg.SvgAsset and recolored from static UIMapper.Color metadata for EWShop; not original source SVG. Live UI state/material colors are not included. -->
<svg xmlns="http://www.w3.org/2000/svg" width="25" height="25" viewBox="0 0 25 25">
  <path d="M 1.992 19.273 C 1.577 18.63 1.219 17.947 0.926 17.23 L 22.25 17.23 L 23.627 18.202 C 23.455 18.538 23.267 18.866 23.066 19.183 L 13.75 20.23 L 6.25 20.23 L 1.992 19.273 M 20.843 21.809 L 16.522 22.654 L 19.793 22.654 C 17.741 24.13 15.222 25 12.5 25 C 9.732 25 7.174 24.101 5.103 22.578 L 7.989 22.341 L 4.222 21.867 C 3.679 21.386 3.178 20.859 2.725 20.292 L 3.032 20.23 L 18.874 20.23 L 21.562 20.593 L 21.341 21.337 C 21.179 21.499 21.013 21.656 20.843 21.809 M 10.25 0.229 C 7.651 2.988 7.111 12.046 7.85 16.23 L 5.633 16.23 C 3.979 5.085 8.084 0.919 10.25 0.229 M 11.394 0.238 C 13.497 0.052 17.352 2.991 15.951 16.23 L 8.72 16.23 C 7.727 12.15 8.17 3.241 11.394 0.238 M 11.603 9.229 C 11.603 7.43 12.792 5.908 14.427 5.405 C 14.055 5.291 13.66 5.229 13.25 5.229 C 11.041 5.229 9.25 7.02 9.25 9.229 C 9.25 11.439 11.041 13.23 13.25 13.23 C 13.66 13.23 14.055 13.168 14.427 13.054 C 12.792 12.551 11.603 11.029 11.603 9.229" transform="matrix(1 0 0 1 0 0)" fill="#FFFFFF" stroke="none" />
</svg>
