<?xml version="1.0" encoding="UTF-8"?>
<!-- Reconstructed from Amplitude.Graphics.Svg.SvgAsset and recolored from static UIMapper.Color metadata for EWShop; not original source SVG. Live UI state/material colors are not included. -->
<svg xmlns="http://www.w3.org/2000/svg" width="25" height="25" viewBox="0 0 25 25">
  <path d="M 6.816 23.632 C 8.522 24.504 10.453 25 12.5 25 C 14.547 25 16.478 24.504 18.184 23.632 L 6.816 23.632 M 13.906 14.496 L 13.003 14.924 L 11.929 14.924 L 10.978 14.554 L 10.165 14.496 L 9.139 15.171 L 6.896 18.217 L 5.363 19.356 L 2.05 19.356 C 2.691 20.332 3.465 21.211 4.346 21.97 L 20.654 21.97 C 21.535 21.211 22.309 20.332 22.95 19.356 L 19.648 19.356 L 18.265 18.418 L 15.69 15.299 L 14.572 14.393 L 13.906 14.496 M 16.285 18.217 L 17.77 19.356 L 14.893 19.356 L 14.572 18.217 L 14.507 16.161 L 16.285 18.217 M 10.29 18.217 L 9.934 19.356 L 7.093 19.356 L 8.202 18.677 L 10.165 16.362 L 10.29 18.217 M 10.994 10.944 L 10.807 12.004 L 11.243 13.781 L 11.929 13.999 L 13.145 13.999 L 13.675 12.285 L 13.425 10.57 L 12.522 10.196 L 10.994 10.944 M 16.884 2.281 L 17.593 4.786 L 18.479 7.045 L 18.251 9.053 L 20.051 8.96 L 21.198 9.195 L 21.495 7.045 L 20.329 4.786 L 19.348 2.281 L 16.884 2.281 M 11.329 7.045 L 11.565 9.195 L 12.21 9.053 L 13.265 9.195 L 13.107 7.139 L 13.265 2.259 L 11.99 2.259 L 11.329 7.045 M 8.808 2.259 L 7.368 7.275 L 7.618 9.195 L 8.715 8.978 L 9.701 9.195 L 9.618 7.045 L 10.599 2.259 L 8.808 2.259 M 5.707 2.169 L 4.146 7.045 L 4.352 9.053 L 4.96 8.978 L 5.875 9.195 L 5.766 7.139 L 7.468 2.169 L 5.707 2.169 M 21.41 4.085 L 23.365 7.045 L 23.365 8.96 L 24.23 9.053 L 24.35 8.512 C 23.691 6.555 22.56 4.817 21.095 3.428 L 21.41 4.085 M 14.231 2.259 L 15.051 7.045 L 15.051 9.053 L 15.802 8.96 L 16.365 8.96 L 16.657 7.139 L 15.613 2.259 L 14.231 2.259 M 3.689 3.634 C 2.312 5.003 1.252 6.691 0.629 8.578 L 0.687 8.978 L 2.51 8.978 L 1.965 7.139 L 3.689 3.634 M 12.5 0 C 10.615 0 8.828 0.42 7.226 1.167 L 17.774 1.167 C 16.172 0.42 14.385 0 12.5 0" transform="matrix(1 0 0 1 0 0)" fill="#FFFFFF" stroke="none" />
</svg>
