<?xml version="1.0" encoding="UTF-8"?>
<!-- Reconstructed from Amplitude.Graphics.Svg.SvgAsset and recolored from static UIMapper.Color metadata for EWShop; not original source SVG. Live UI state/material colors are not included. -->
<svg xmlns="http://www.w3.org/2000/svg" width="25" height="25" viewBox="0 0 25 25">
  <path d="M 0 12.49 L 6 13.32 L 6.07 13.08 C 6.17 12.78 6.31 12.49 6.49 12.23 L 8.98 8.49 L 9.05 8.4 C 9.75 7.53 11.19 8.18 10.99 9.29 L 10.96 9.4 L 10.07 12.63 C 9.59 14.39 10.3 16.26 11.83 17.25 L 12.5 17.68 L 13.17 17.25 L 13.45 17.05 C 14.7 16.09 15.3 14.5 15.01 12.96 L 14.93 12.63 L 14.04 9.4 C 13.72 8.23 15.23 7.5 15.95 8.4 L 16.02 8.49 L 18.51 12.23 L 18.67 12.5 C 18.81 12.76 18.92 13.03 18.99 13.32 L 24.99 12.49 L 18.68 11.62 C 18.66 11.44 18.62 11.27 18.58 11.1 L 21.26 10.08 L 18.4 10.46 C 18.34 10.29 18.28 10.13 18.21 9.96 L 23.25 6.12 C 23.2 6.03 23.15 5.95 23.09 5.86 L 17.42 8.64 C 17.33 8.53 17.24 8.41 17.14 8.31 L 18.85 6.12 L 16.66 7.83 C 16.53 7.72 16.4 7.61 16.26 7.5 L 18.75 1.67 C 18.68 1.63 18.6 1.59 18.53 1.55 L 14.96 6.74 C 14.81 6.68 14.66 6.62 14.51 6.56 L 14.89 3.7 L 13.87 6.38 C 13.7 6.34 13.53 6.31 13.36 6.29 L 12.49 -0.01 L 12.49 0.03 L 12.48 -0.01 L 11.61 6.29 C 11.44 6.31 11.27 6.35 11.1 6.38 L 10.08 3.7 L 10.46 6.56 C 10.31 6.61 10.16 6.67 10.01 6.74 L 6.45 1.56 C 6.38 1.6 6.3 1.64 6.23 1.68 L 8.72 7.51 C 8.58 7.61 8.45 7.72 8.32 7.84 L 6.13 6.13 L 7.84 8.32 C 7.74 8.43 7.65 8.54 7.56 8.65 L 1.9 5.87 C 1.85 5.95 1.79 6.04 1.74 6.13 L 6.78 9.97 C 6.71 10.13 6.64 10.3 6.59 10.47 L 3.73 10.09 L 6.41 11.11 C 6.37 11.28 6.34 11.46 6.31 11.63 L 0 12.5 L 0 12.49" transform="matrix(1 0 0 1 0 0)" fill="#EBEBEB" stroke="none" />
  <path d="M 19.75 17.83 L 21.3 18.87 L 16.9 22.75 L 17.68 20.94 L 16.39 21.72 L 16.65 22.24 L 16.33 23.04 C 16.21 23.35 15.94 23.58 15.62 23.66 L 15.22 23.76 C 15.14 23.78 15.05 23.79 14.97 23.79 L 14.06 23.79 L 13.28 24.31 L 13.54 23.27 L 14.06 23.27 L 15.87 21.97 L 15.35 21.45 L 17.94 19.9 L 18.46 20.42 L 20.01 18.87 L 19.23 18.61 L 18.04 13.62 C 17.97 13.32 17.85 13.04 17.68 12.78 L 15.19 9.04 C 15.12 8.94 14.97 9.01 15 9.12 L 15.89 12.35 C 16.49 14.53 15.61 16.85 13.71 18.07 L 12.5 18.86 L 11.29 18.07 C 9.39 16.84 8.51 14.52 9.11 12.35 L 10 9.12 C 10.03 9.01 9.88 8.94 9.81 9.04 L 7.32 12.78 C 7.15 13.04 7.03 13.32 6.96 13.62 L 5.77 18.61 L 4.99 18.87 L 6.54 20.42 L 7.06 19.9 L 9.65 21.45 L 9.13 21.97 L 10.94 23.27 L 11.46 23.27 L 11.72 24.31 L 10.94 23.79 L 10.03 23.79 C 9.95 23.79 9.86 23.78 9.78 23.76 L 9.38 23.66 C 9.06 23.58 8.79 23.35 8.67 23.04 L 8.35 22.24 L 8.61 21.72 L 7.32 20.94 L 8.1 22.75 L 3.7 18.87 L 5.25 17.83 L 5.77 16.02 C 4.86 15.63 2.55 15 0.23 14.9 C 1.35 20.66 6.42 25 12.5 25 C 18.58 25 23.65 20.65 24.77 14.9 C 22.45 15.01 20.14 15.63 19.23 16.02 L 19.75 17.83" transform="matrix(1 0 0 1 0 0)" fill="#EBEBEB" stroke="none" />
</svg>
