<?xml version="1.0" encoding="UTF-8"?>
<!-- Reconstructed from Amplitude.Graphics.Svg.SvgAsset and recolored from static UIMapper.Color metadata for EWShop; not original source SVG. Live UI state/material colors are not included. -->
<svg xmlns="http://www.w3.org/2000/svg" width="25" height="25" viewBox="0 0 25 25">
  <path d="M 18.849 12.66 C 19.039 12.702 19.168 12.834 19.293 12.97 C 20.427 14.196 21.369 16.011 22.518 17.275 C 23.039 18.071 21.716 18.878 21.093 18.594 C 20.639 18.388 19.435 16.267 19.153 16.236 C 18.193 16.661 16.557 16.965 15.825 17.737 L 15.827 17.737 C 14.038 19.625 18.221 19.863 18.431 20.678 L 17.877 21.972 L 8.1 22 C 7.867 21.93 7.358 20.941 7.51 20.703 C 7.669 20.453 9.743 19.845 10.074 19.492 C 10.717 18.806 9.348 17.89 8.748 17.701 C 6.706 17.06 4.527 17.357 3.115 15.308 C 2.916 15.018 2.253 13.863 2.783 13.767 C 3.421 13.814 4.054 13.712 4.685 13.692 C 5.348 13.672 6.992 13.879 7.434 13.453 C 7.726 13.171 7.567 12.912 8.174 12.827 L 18.849 12.66 M 6.76 11.262 C 6.85 11.417 6.819 11.896 6.548 11.882 L 1.372 11.972 L 3.854 10.977 L 3.982 10.833 L 1.108 7.354 C 1.115 7.34 1.121 7.326 1.128 7.312 L 6.76 11.262 M 14.699 4.005 C 14.904 4.005 15.157 4.269 15.381 4.354 C 16.166 4.653 17.085 4.317 17.895 4.199 C 18.074 4.249 18.76 5.046 18.835 5.244 C 18.896 5.404 19.011 6.568 19 6.759 C 18.965 7.361 17.796 7.824 17.35 8.22 C 16.903 8.615 16.866 8.66 17.167 9.147 C 17.538 9.749 18.414 10.566 18.669 11.128 C 18.727 11.254 18.734 11.364 18.72 11.499 L 16.496 11.499 L 16.497 11.5 C 16.132 11.437 15.515 9.922 14.888 9.944 C 14.515 9.957 13.067 11.21 12.542 11.428 C 12.422 11.477 12.323 11.54 12.194 11.456 L 9.46 7.68 C 9.41 7.364 10.195 6.924 10.459 6.733 C 10.964 6.371 14.413 4.006 14.699 4.005 M 9.444 10.906 C 9.175 10.891 8.87 10.978 8.639 10.82 L 5.066 7.5 L 4.198 3.157 C 4.214 3.144 4.23 3.131 4.245 3.117 L 9.444 10.906 M 2.312 5.262 C 2.896 5.983 3.443 6.807 4.071 7.465 C 4.266 7.73 4.107 7.988 4.082 8.277 L 4.081 8.276 L 1.705 6.198 C 1.893 5.876 2.096 5.564 2.312 5.262" transform="matrix(1 0 0 1 0 0)" fill="#FFFFFF" stroke="none" />
</svg>
