<?xml version="1.0" encoding="UTF-8"?>
<!-- Reconstructed from Amplitude.Graphics.Svg.SvgAsset and recolored from static UIMapper.Color metadata for EWShop; not original source SVG. Live UI state/material colors are not included. -->
<svg xmlns="http://www.w3.org/2000/svg" width="26" height="25" viewBox="0 0 26 25">
  <path d="M 11.33 15.63 C 11.23 15.56 10.43 15.24 10.3 15.21 C 9.87 15.11 9.31 15.84 8.94 16.08 C 8.57 16.31 8.53 16.33 8.25 16.02 C 7.86 15.59 5.71 12.94 5.7 12.93 L 4.66 13.81 C 4.66 13.81 7.37 17.02 7.22 17.46 C 7.14 17.72 5.01 19.3 4.75 19.62 C 4.69 19.69 4.63 19.75 4.66 19.86 L 6.76 22.55 C 6.97 22.65 8.4 21.37 8.58 21.23 C 8.94 20.95 11.01 19.2 11.07 19 C 11.11 18.86 10.98 18.62 10.96 18.45 C 10.91 17.84 11.61 17.06 11.86 16.51 C 11.86 16.37 11.44 15.73 11.32 15.64 L 11.33 15.63" transform="matrix(1 0 0 1 0 0)" fill="#EBEBEB" stroke="none" />
  <path d="M 1.89 8.53 C 1.7 8.31 1.36 8.29 1.15 8.5 C 0.97 8.68 0.95 8.96 1.1 9.16 L 2.89 11.54 L 3.59 10.55 L 1.88 8.52 L 1.89 8.53" transform="matrix(1 0 0 1 0 0)" fill="#EBEBEB" stroke="none" />
  <path d="M 23.96 17.66 C 24.68 16.08 25.08 14.34 25.08 12.49 C 25.08 11.36 24.93 10.27 24.65 9.24 L 23.05 9.82 L 21.9 9.44 L 20.4 8.64 L 19.14 8.04 L 18.37 7.38 L 17.49 7.27 L 17.49 6.5 L 17.05 6.06 L 17.05 5.22 L 16.23 4.85 L 16.23 3.97 L 17.27 4.3 L 17.38 4.96 L 17.38 5.29 L 17.93 5.51 L 18.15 4.96 L 18.37 4.74 L 18.7 4.63 L 19.03 4.41 L 18.81 4.08 L 18.92 3.09 L 18.48 1.99 L 18.43 1.45 C 18.27 1.37 18.12 1.29 17.96 1.21 L 17.27 1.55 L 16.17 1.33 L 15.18 1.99 L 14.41 2.65 L 13.53 2.76 L 13.53 3.42 L 14.63 4.41 L 15.18 4.63 L 15.02 5.84 L 14.71 5.18 L 14.16 4.96 L 13.83 5.18 L 12.86 4.3 L 12.53 4.63 L 11.65 4.63 L 10.22 5.4 L 9.45 5.84 L 8.79 6.61 L 8.68 6.94 L 8.24 7.71 L 7.47 8.04 L 6.48 9.03 L 6.26 9.03 L 5.71 9.8 L 4.83 10.79 L 4.39 11.01 L 3.51 11.78 L 3.18 12.44 L 3.4 12.88 L 3.95 13.54 L 4.5 13.1 L 5.27 12.44 L 5.38 12 L 6.26 11.12 L 7.36 10.46 L 7.8 10.13 L 8.9 8.7 L 10.11 8.7 L 10.11 10.13 L 10.22 11.67 L 10.33 12 L 10.11 12.22 L 8.34 14.39 L 8.67 14.67 L 10.09 13.98 L 11.33 14.32 C 12.09 14.53 12.65 15.16 12.77 15.94 L 12.94 17.05 L 12.72 17.93 C 12.65 18.19 12.64 18.46 12.68 18.73 L 13.3 19.16 L 14.73 17.84 L 15.17 17.4 L 16.49 18.17 L 16.71 17.95 L 17.04 18.17 L 16.49 19.71 L 16.49 23.24 L 15.67 24.6 C 16.45 24.4 17.2 24.13 17.92 23.79 L 17.92 23.24 L 18.36 21.15 L 19.13 19.17 L 19.68 18.18 L 19.57 17.3 L 19.13 17.41 L 18.8 16.31 L 18.14 15.54 L 16.16 13.89 L 14.84 12.46 L 14.84 11.8 L 15.94 9.49 L 16.38 8.72 L 17.15 9.49 L 18.36 9.93 L 19.07 10.16 L 20.48 10.16 L 21.16 10.52 L 17.07 12.01 L 23.95 17.68 L 23.96 17.66" transform="matrix(1 0 0 1 0 0)" fill="#EBEBEB" stroke="none" />
</svg>
