<?xml version="1.0" encoding="UTF-8"?>
<!-- Reconstructed from Amplitude.Graphics.Svg.SvgAsset and recolored from static UIMapper.Color metadata for EWShop; not original source SVG. Live UI state/material colors are not included. -->
<svg xmlns="http://www.w3.org/2000/svg" width="25" height="25" viewBox="0 0 25 25">
  <path d="M 9.08 6.037 C 9.08 6.037 9.07 6.087 9.06 6.107 C 8.99 6.277 8.86 6.417 8.68 6.507 C 8.58 6.557 8.51 6.647 8.47 6.757 L 8.47 6.797 C 8.38 7.067 8.53 7.357 8.8 7.437 L 9.25 7.577 C 10.07 9.046 12.77 10.026 16.7 8.376 C 16.12 7.487 15.61 7.06 15 6.5 C 14.9 7.27 14.86 7.777 15.11 8.566 L 15.2 8.856 C 14.27 7.917 13.82 6.59 14 5.5 C 13.31 5.01 13.171 4.958 12.551 4.818 C 12.341 5.727 11.96 6.577 12.27 7.547 L 12.36 7.837 C 11.43 6.897 11.11 5.677 11.29 4.588 C 10.87 4.588 10.5 4.678 10.17 4.818 L 9.65 4.658 C 9.38 4.578 9.09 4.728 9.01 4.998 L 9.01 5.038 C 8.97 5.148 8.98 5.258 9.03 5.358 C 9.12 5.538 9.15 5.737 9.11 5.917 C 9.1 5.957 9.08 5.997 9.07 6.037 L 9.08 6.037" transform="matrix(1 0 0 1 0 0)" fill="#EBEBEB" stroke="none" />
  <path d="M 6.65 18.573 C 6.03 19.613 5.48 20.842 5.04 22.282 C 5.76 22.822 6.53 23.291 7.36 23.671 L 7.21 20.712 C 7.17 19.943 6.98 19.223 6.66 18.583 L 6.65 18.573" transform="matrix(1 0 0 1 0 0)" fill="#EBEBEB" stroke="none" />
  <path d="M 16.6 18.093 L 17.28 17.573 C 17.68 17.263 17.76 16.683 17.45 16.273 L 17.41 16.223 C 17.29 16.064 17.1 15.954 16.9 15.934 C 16.55 15.894 16.25 15.734 16.02 15.504 C 15.99 15.464 15.96 15.424 15.94 15.394 C 15.89 15.334 15.84 15.274 15.79 15.214 C 15.62 14.924 15.53 14.584 15.58 14.224 C 15.61 14.024 15.55 13.814 15.43 13.654 L 15.39 13.604 C 15.08 13.205 14.5 13.125 14.09 13.435 L 13.31 14.034 C 13.07 14.014 12.81 14.034 12.56 14.054 C 13.1 15.364 13.14 16.953 12.46 18.473 L 11.54 20.522 L 11.37 17.183 C 11.32 16.253 11.05 15.384 10.6 14.644 C 9.71 15.094 8.82 15.784 7.99 16.743 C 8.9 18.183 9.15 20.132 8.32 22.001 L 7.53 23.751 C 7.75 23.85 7.97 23.94 8.2 24.03 C 13.49 23.321 16.25 20.592 16.62 18.103 L 16.6 18.093" transform="matrix(1 0 0 1 0 0)" fill="#EBEBEB" stroke="none" />
  <path d="M 16.97 10.01 C 13.45 11.24 9.28 10.739 8 9 L 7.89 8.97 C 7.14 8.74 6.32 7.407 6.47 6.657 L 6.51 6.507 L 6.51 6.467 C 6.56 6.338 6.62 6.218 6.69 6.108 C 6.62 6.008 6.58 5.918 6.58 5.818 C 6.58 5.318 6.82 4.818 7.24 4.328 C 7.33 4.188 7.44 4.068 7.57 3.968 C 9.14 2.419 13.28 1.02 15.56 0.18 C 15.28 0.11 15 0.05 14.72 0 C 10.72 0.66 3.7 2.979 3.7 6.467 C 3.7 8.367 8.39 10.536 12.42 12.595 C 12.53 12.585 12.63 12.575 12.74 12.565 L 13.02 12.345 L 13.24 12.195 C 14.35 11.516 15.82 11.775 16.63 12.825 L 16.67 12.875 L 16.81 13.075 C 17.06 13.485 17.18 13.955 17.17 14.424 C 17.71 14.554 18.19 14.854 18.54 15.304 L 18.58 15.354 L 18.73 15.574 C 19.41 16.684 19.15 18.153 18.1 18.963 L 17.95 19.083 C 17.24 21.562 14.93 23.671 11.41 24.74 C 11.81 24.78 12.21 24.8 12.62 24.8 C 17.169 24.8 21.148 22.371 23.334 18.742 C 24.873 16.185 23.815 12.938 21.12 11.655 C 19.888 11.068 18.5 10.544 17 10 L 16.97 10.01" transform="matrix(1 0 0 1 0 0)" fill="#EBEBEB" stroke="none" />
</svg>
