<?xml version="1.0" encoding="UTF-8"?>
<!-- Reconstructed from Amplitude.Graphics.Svg.SvgAsset and recolored from static UIMapper.Color metadata for EWShop; not original source SVG. Live UI state/material colors are not included. -->
<svg xmlns="http://www.w3.org/2000/svg" width="25" height="25" viewBox="0 0 25 25">
  <path d="M 8.632 21.97 L 7.305 21.559 L 6.915 23.682 C 8.596 24.523 10.492 25 12.5 25 C 12.855 25 13.207 24.984 13.555 24.955 L 12.765 24.811 L 11.676 21.97 L 9.53 21.313 L 8.632 21.97 M 10.496 16.451 L 13.956 21.558 L 12.858 22.541 L 13.544 24.196 L 15.285 24.196 L 15.978 24.509 C 16.681 24.305 17.359 24.041 18.006 23.723 L 18.049 23.496 L 16.38 20.678 L 14.821 21.253 L 11.096 15.721 L 10.496 16.451 M 3.586 12.066 L 3.793 21.464 C 4.478 22.13 5.238 22.718 6.061 23.214 L 6.593 15.254 L 6.171 12.962 L 7.515 12.716 L 5.872 10.406 L 5.674 10.426 L 4.456 9.258 L 3.586 12.066 M 20.492 18.867 L 18.58 18.49 L 17.551 19.543 L 19.298 22.987 C 21.291 21.693 22.89 19.847 23.882 17.665 L 22.922 17.376 L 20.492 18.867 M 12.187 14.826 L 13.223 17.654 L 15.285 20.252 L 16.14 19.771 L 13.38 12.415 L 12.187 14.826 M 0.146 14.411 C 0.479 16.584 1.374 18.569 2.675 20.222 L 2.675 17.376 L 1.143 14.767 L 0.146 14.411 M 5.775 1.965 C 4.583 2.727 3.531 3.687 2.66 4.797 L 5.848 9.457 L 7.066 9.084 L 7.066 7.99 L 4.58 4.063 L 6.171 3.937 L 6.171 4.771 L 8.16 8.661 L 8.047 8.91 L 9.86 11.332 L 10.273 11.196 L 11.009 8.164 L 11.009 6.996 L 11.516 6.573 L 12.187 8.811 L 11.64 10.426 L 9.154 14.826 L 9.353 15.721 L 9.875 15.721 L 13.803 9.954 L 13.028 5.604 L 10.273 5.803 L 8.682 5.38 L 7.588 2.298 L 5.775 1.965 M 6.765 9.874 L 9.036 13.454 L 9.397 12.469 L 7.48 9.554 L 6.765 9.874 M 12.173 0.004 C 11.291 0.027 10.431 0.142 9.604 0.338 L 9.016 1.513 L 9.016 3.587 L 9.662 4.771 L 11.009 4.906 L 12.437 3.937 L 13.028 1.836 L 12.625 0.489 L 12.173 0.004" transform="matrix(1 0 0 1 0 0)" fill="#FFFFFF" stroke="none" />
</svg>
