<?xml version="1.0" encoding="UTF-8"?>
<!-- Reconstructed from Amplitude.Graphics.Svg.SvgAsset and recolored from static UIMapper.Color metadata for EWShop; not original source SVG. Live UI state/material colors are not included. -->
<svg xmlns="http://www.w3.org/2000/svg" width="25" height="25" viewBox="0 0 25 25">
  <path d="M 17.921 8.079 L 17.5 6 L 17.079 8.079 L 15 8.5 L 17.079 8.929 L 17.5 11 L 17.921 8.929 L 20 8.5 L 17.921 8.079" transform="matrix(1 0 0 1 0 0)" fill="#EBEBEB" stroke="none" />
  <path d="M 6.25 13.97 L 5.971 13.69 C 5.801 13.52 5.512 13.53 5.322 13.72 L 5.302 13.74 C 5.222 13.82 5.182 13.92 5.172 14.02 C 5.172 14.19 5.102 14.35 4.992 14.49 C 4.972 14.51 4.952 14.53 4.932 14.55 C 4.903 14.58 4.873 14.61 4.843 14.64 C 4.703 14.75 4.543 14.82 4.363 14.83 C 4.264 14.83 4.164 14.88 4.084 14.96 L 4.064 14.98 C 3.874 15.17 3.854 15.46 4.024 15.63 L 4.353 15.96 C 4.373 17.11 5.472 18.23 6.23 18.69 C 6.59 18.91 9.725 22.69 12.221 22.19 C 9.725 20.19 9.455 14.95 6.26 13.97 L 6.25 13.97" transform="matrix(1 0 0 1 0 0)" fill="#EBEBEB" stroke="none" />
  <path d="M 14.902 20.339 L 15.379 20.811 C 15.827 21.255 16.677 20.857 16.715 20.256 C 16.761 19.331 17.779 18.961 18.602 18.914 C 19.199 18.887 19.059 18.054 18.611 17.61 C 18.62 17.592 19.125 16.593 18.134 16.602 C 15.855 17.509 14.744 16.769 12.492 15.834 C 14.127 15.751 16.014 16.001 17.368 14.937 C 17.368 14.447 17.06 14.049 16.266 13.827 C 14.351 14.91 12.838 14.031 10.988 13.328 C 12.137 13.143 13.454 13.115 14.519 12.644 C 14.669 12.2 14.856 10.812 12.698 10.461 C 10.652 10.128 8 7 5 8 C 8 9 12.39 20.413 14.902 20.339" transform="matrix(1 0 0 1 0 0)" fill="#EBEBEB" stroke="none" />
  <path d="M 19.07 1.86 L 19.489 4.5 L 21.017 6 L 21.835 8.37 L 22.145 10.39 L 21.206 10.19 L 20.208 11.69 L 20.847 12.69 L 22.464 12.89 L 20.847 13.9 L 22.354 16.64 L 20.477 20.3 L 16.923 22.22 L 13.569 24.02 L 8.736 23.78 L 7.039 21.99 L 5.202 20.3 L 2.976 19.03 L 2.247 18.35 L 3.185 11.14 L 4.324 10.3 L 4.254 9.72 L 2.596 9.04 L 3.355 7.87 L 4.194 7.3 L 3.884 5.87 L 4.214 4.83 L 5.182 4.26 L 7.019 3.48 L 8.716 3.48 L 8.287 0.72 C 8.177 0.76 8.068 0.8 7.968 0.84 C 7.948 0.84 7.928 0.86 7.908 0.86 C 7.149 1.16 6.42 1.54 5.741 1.98 C 5.532 2.11 5.332 2.25 5.132 2.4 C 5.082 2.44 5.032 2.47 4.983 2.51 C 3.185 3.9 1.778 5.74 0.929 7.88 C 0.749 8.33 0.6 8.79 0.47 9.27 C 0.43 9.42 0.39 9.57 0.35 9.72 C 0.15 10.61 0.041 11.55 0.041 12.5 C 0.041 19.4 5.631 25 12.52 25 C 19.409 25 25 19.4 25 12.5 C 25 8 22.624 4.06 19.07 1.86" transform="matrix(1 0 0 1 0 0)" fill="#EBEBEB" stroke="none" />
  <path d="M 12.491 5.512 L 13 8 L 13.509 5.512 L 16 5 L 13.509 4.494 L 13 2 L 12.491 4.494 L 10 5 L 12.491 5.512" transform="matrix(1 0 0 1 0 0)" fill="#EBEBEB" stroke="none" />
</svg>
