<?xml version="1.0" encoding="UTF-8"?>
<!-- Reconstructed from Amplitude.Graphics.Svg.SvgAsset and recolored from static UIMapper.Color metadata for EWShop; not original source SVG. Live UI state/material colors are not included. -->
<svg xmlns="http://www.w3.org/2000/svg" width="25" height="25" viewBox="0 0 25 25">
  <path d="M 24.31 8.41 L 23.5 8 L 23.5 11.11 L 21.5 10.15 L 21.5 6.98 L 18.5 5.62 L 18.5 9.01 L 16.41 8.01 L 16.41 4.74 L 13 3.01 L 13 6.51 L 11 5.62 L 11 2 L 7.88 1 L 7.6 1 C 6.87 1.31 6.18 1.69 5.53 2.12 L 5.53 3.5 L 3.18 4.17 C 1.2 6.38 0 9.3 0 12.5 C 0 19.4 5.6 25 12.5 25 C 14.74 25 16.85 24.41 18.66 23.37 L 16 22.12 L 16 20.97 L 17.18 20.97 L 17.18 15.27 L 16 14.01 L 16 13.01 L 20 14.89 L 20 15.51 L 18.82 16.16 L 18.82 21.86 L 19.7 22.72 C 22.9 20.46 24.99 16.73 24.99 12.51 C 24.99 11.08 24.75 9.7 24.3 8.42 L 24.31 8.41 M 11.25 11.5 L 10 11.96 L 10 18.21 L 11.25 19.5 L 11.25 20.57 L 7 18.5 L 7 17.23 L 8.25 17.23 L 8.25 10.98 L 7 9.5 L 7 8.5 L 11.25 10.57 L 11.25 11.5" transform="matrix(1 0 0 1 0 0)" fill="#EBEBEB" stroke="none" />
</svg>
