<?xml version="1.0" encoding="UTF-8"?>
<!-- Reconstructed from Amplitude.Graphics.Svg.SvgAsset and recolored from static UIMapper.Color metadata for EWShop; not original source SVG. Live UI state/material colors are not included. -->
<svg xmlns="http://www.w3.org/2000/svg" width="25" height="25" viewBox="0 0 25 25">
  <path d="M 21.086 14 C 21.826 14 22.427 14.821 22.427 15.832 C 22.427 16.616 22.066 17.285 21.56 17.546 L 23.291 18.805 C 21.154 22.455 17.221 24.925 12.703 24.997 L 15.5 23 L 13 24 L 13 17 L 16.104 16 L 18 22 L 19.104 21.08 L 19 19.117 L 21.018 17.661 C 20.309 17.612 19.745 16.812 19.745 15.832 C 19.745 14.821 20.346 14 21.086 14 M 3.914 14 C 4.654 14 5.255 14.821 5.255 15.832 C 5.255 16.812 4.691 17.612 3.982 17.661 L 6 19.117 L 5.896 21.08 L 7 22 L 10 23.5 L 7.5 21 L 8.896 16 L 12 17 L 12 24.988 C 7.606 24.815 3.798 22.375 1.708 18.805 L 3.44 17.546 C 2.934 17.285 2.573 16.616 2.573 15.832 C 2.573 14.821 3.174 14 3.914 14 M 10.511 12.076 C 10.712 12.19 10.947 12.244 11.177 12.227 L 11.212 12.475 L 11.41 13.917 L 11.432 14.032 C 11.672 15.072 13.103 15.14 13.5 14.237 L 13.5 15.666 L 12.5 16 L 9 14.833 L 9 13.779 C 9.202 13.73 9.397 13.618 9.559 13.427 L 9.632 13.333 L 10.511 12.076 M 15.369 13.333 L 15.441 13.428 C 15.603 13.619 15.798 13.731 16 13.78 L 16 14.833 L 14.619 15.293 L 14.619 13 L 14.785 12.5 L 15.369 13.333 M 12.706 0.002 L 12.763 0.408 L 13.022 2.286 C 13.127 2.301 13.231 2.32 13.334 2.344 L 13.618 1.6 L 13.947 0.737 L 13.825 1.658 L 13.719 2.453 C 13.81 2.485 13.9 2.519 13.988 2.558 L 15.065 1.019 L 15.521 0.368 C 15.608 0.39 15.695 0.413 15.782 0.437 L 14.766 3.012 C 14.848 3.074 14.927 3.14 15.004 3.209 L 15.592 2.75 L 16.315 2.185 L 15.75 2.908 L 15.29 3.495 C 15.348 3.56 15.404 3.627 15.457 3.695 L 17.106 2.954 L 18.815 2.185 L 17.331 3.368 L 15.93 4.484 C 15.973 4.581 16.011 4.68 16.046 4.781 L 17.763 4.553 L 16.155 5.166 C 16.179 5.268 16.198 5.372 16.213 5.478 L 18.092 5.737 L 20 6 L 18.092 6.263 L 16.213 6.521 C 16.198 6.627 16.179 6.731 16.155 6.833 L 17.763 7.447 L 16.046 7.218 C 16.011 7.319 15.973 7.418 15.93 7.515 L 17.331 8.632 L 18.815 9.816 L 17.106 9.046 L 15.457 8.304 C 15.404 8.372 15.348 8.439 15.29 8.504 L 15.75 9.092 L 16.315 9.816 L 15.004 8.79 C 14.927 8.859 14.848 8.925 14.766 8.987 L 16.185 12.58 L 15.065 10.981 L 13.988 9.441 C 13.9 9.48 13.81 9.514 13.719 9.546 L 13.825 10.342 L 13.947 11.263 L 13.618 10.4 L 13.334 9.655 C 13.231 9.679 13.127 9.698 13.022 9.713 L 12.763 11.592 L 12.5 13.5 L 12.237 11.592 L 11.978 9.713 C 11.872 9.698 11.768 9.679 11.666 9.655 L 11.053 11.263 L 11.176 10.342 L 11.28 9.546 C 11.189 9.514 11.099 9.48 11.011 9.441 L 9.935 10.981 L 8.815 12.58 L 10.233 8.987 C 10.151 8.925 10.072 8.859 9.995 8.79 L 8.685 9.816 L 9.25 9.092 L 9.709 8.504 C 9.651 8.439 9.595 8.372 9.542 8.304 L 7.895 9.046 L 6.185 9.816 L 7.669 8.632 L 9.069 7.515 C 9.027 7.418 8.988 7.319 8.953 7.218 L 8.158 7.324 L 7.236 7.447 L 8.1 7.118 L 8.844 6.833 C 8.821 6.731 8.801 6.627 8.786 6.521 L 6.908 6.263 L 5 6 L 6.908 5.737 L 8.786 5.478 C 8.801 5.372 8.821 5.268 8.844 5.166 L 8.1 4.882 L 7.236 4.553 L 8.158 4.676 L 8.953 4.781 C 8.988 4.68 9.026 4.581 9.069 4.484 L 7.669 3.368 L 6.185 2.185 L 7.895 2.954 L 9.542 3.695 C 9.596 3.627 9.651 3.56 9.709 3.495 L 9.25 2.908 L 8.685 2.185 L 9.408 2.75 L 9.995 3.209 C 10.072 3.14 10.151 3.074 10.233 3.012 L 9.217 0.437 C 9.304 0.413 9.391 0.39 9.479 0.368 L 9.935 1.019 L 11.011 2.558 C 11.099 2.519 11.189 2.485 11.28 2.453 L 11.176 1.658 L 11.053 0.737 L 11.666 2.344 C 11.768 2.321 11.872 2.301 11.978 2.286 L 12.237 0.408 L 12.293 0.002 C 12.362 0.001 12.431 0 12.5 0 C 12.569 0 12.638 0.001 12.706 0.002 M 7.811 10.311 C 7.931 10.504 8.109 10.662 8.315 10.757 L 8.219 11.002 L 7.707 12.298 C 7.664 12.406 7.638 12.512 7.627 12.613 L 7 11.5 L 7.623 10.394 L 7.69 10.364 L 7.811 10.311 M 17.31 10.364 L 17.376 10.394 L 18 11.5 L 17.372 12.613 C 17.361 12.512 17.336 12.407 17.293 12.299 L 16.78 11.002 L 16.683 10.756 C 16.889 10.661 17.066 10.503 17.187 10.31 L 17.31 10.364 M 6.475 3.926 C 6.325 4.144 6.251 4.414 6.271 4.678 L 6.025 4.712 L 4.543 4.916 C 3.71 5.031 3.423 5.866 3.69 6.472 L 1.374 6.803 C 1.998 5.586 2.815 4.485 3.786 3.541 L 6.475 3.926 M 21.213 3.541 C 22.184 4.486 23.001 5.586 23.625 6.803 L 21.357 6.479 C 21.626 5.872 21.337 5.037 20.506 4.923 L 18.975 4.712 L 18.729 4.678 C 18.749 4.414 18.675 4.144 18.524 3.926 L 21.213 3.541" transform="matrix(1 0 0 1 0 0)" fill="#EBEBEB" stroke="none" />
</svg>
