<?xml version="1.0" encoding="UTF-8"?>
<!-- Reconstructed from Amplitude.Graphics.Svg.SvgAsset and recolored from static UIMapper.Color metadata for EWShop; not original source SVG. Live UI state/material colors are not included. -->
<svg xmlns="http://www.w3.org/2000/svg" width="25" height="25" viewBox="0 0 25 25">
  <path d="M 5.863 23.09 C 7.259 23.967 8.839 24.578 10.533 24.846 L 13.574 24.953 C 15.509 24.788 17.318 24.182 18.9 23.236 L 16.63 23.817 L 12.697 24.099 L 5.863 23.09 M 15.74 17.577 L 16.254 19.409 L 16.498 20.276 L 15.66 20.608 L 12.745 21.765 L 12.391 21.904 L 12.032 21.773 L 9.364 20.797 L 8.66 20.539 L 8.711 19.79 L 8.864 17.51 L 5.004 17.733 L 5.004 20.058 L 6.168 21.401 L 10.41 22.391 L 16.345 22.391 L 19.996 21.465 L 19.996 17.745 L 15.717 17.491 L 15.74 17.577 M 20.996 14.315 L 20.996 21.665 C 22.236 20.515 23.24 19.118 23.934 17.551 L 23.934 16.246 L 24.429 16.246 C 24.625 15.622 24.773 14.977 24.869 14.315 L 20.996 14.315 M 3.927 17.246 L 3.004 17.583 L 1.367 18.181 C 2.038 19.494 2.933 20.672 4.004 21.665 L 4.004 17.218 L 3.927 17.246 M 10.006 15.45 L 9.871 17.451 L 9.709 19.857 L 12.376 20.835 L 15.291 19.679 L 14.777 17.847 L 13.693 17.372 L 12.376 16.795 L 13.165 14.766 L 12.834 13.765 L 10.006 15.45 M 8.286 8.343 L 5.418 12.241 L 6.932 16.071 L 8.923 16.652 L 8.996 15.557 L 8.286 15.287 L 7.089 12.83 L 9.259 10.094 L 9.76 12.241 L 9.76 14.306 L 9.885 14.358 L 12.322 12.906 L 13.394 12.268 L 13.784 13.451 L 14.114 14.452 L 14.227 14.793 L 14.165 14.952 L 15.24 14.306 L 15.24 12.241 L 15.565 10.094 L 16.84 12.659 L 15.24 16.508 L 15.937 17.055 L 17.813 14.482 L 18.51 12.659 L 17.813 10.346 L 16.671 8.507 L 15.732 7.48 L 14.388 8.491 L 13.233 9.354 L 12.38 9.686 L 11.705 9.494 L 10.64 8.564 L 9.259 7.347 L 8.286 8.343 M 12.5 0 C 7.395 0 3.007 3.062 1.066 7.448 L 1.066 14.315 L 0.131 14.315 C 0.227 14.977 0.375 15.622 0.571 16.246 L 4.004 16.246 L 4.004 7.807 L 3.548 5.447 L 3.46 4.993 L 3.329 4.316 L 3.981 4.539 L 4.42 4.688 L 5.84 5.173 L 11.023 2.085 L 11.117 2.029 L 13.969 2.029 L 13.969 0.086 C 13.487 0.03 12.997 0 12.5 0 M 15.201 1.49 L 14.969 1.668 L 14.611 1.941 L 14.496 2.029 L 14.349 2.142 L 14.969 2.521 L 15.129 2.618 L 15.264 2.701 L 19.472 5.27 L 19.554 5.319 L 19.604 5.4 L 20.937 7.559 L 20.996 7.655 L 20.996 13.343 L 21.073 13.315 L 21.996 12.977 L 23.934 12.269 L 23.934 7.448 C 22.504 4.218 19.75 1.706 16.357 0.606 L 15.201 1.49 M 11.108 4.912 L 10.55 5.79 L 11.108 8.063 L 12.433 9.114 L 13.542 8.343 L 14.22 6.148 L 13.9 4.912 L 12.744 4.434 L 11.108 4.912" transform="matrix(1 0 0 1 0 0)" fill="#FFFFFF" stroke="none" />
</svg>
