<?xml version="1.0" encoding="UTF-8"?>
<!-- Reconstructed from Amplitude.Graphics.Svg.SvgAsset and recolored from static UIMapper.Color metadata for EWShop; not original source SVG. Live UI state/material colors are not included. -->
<svg xmlns="http://www.w3.org/2000/svg" width="25" height="26" viewBox="0 0 25 26">
  <path d="M 20.32 2.761 L 17.75 6.991 L 22.48 4.971 C 21.85 4.151 21.13 3.411 20.32 2.761" transform="matrix(1 0 0 1 0 0)" fill="#EBEBEB" stroke="none" />
  <path d="M 14.33 0.15 L 14.08 5.52 L 16.99 0.85 C 16.14 0.53 15.25 0.29 14.33 0.15" transform="matrix(1 0 0 1 0 0)" fill="#EBEBEB" stroke="none" />
  <path d="M 10.29 0.22 C 9.35 0.39 8.45 0.66 7.6 1.03 L 10.43 5.25 L 10.29 0.22" transform="matrix(1 0 0 1 0 0)" fill="#EBEBEB" stroke="none" />
  <path d="M 16.56 19.32 C 16.98 19.43 17.42 19.25 17.65 18.88 L 19.05 16.65 L 19.69 17.78 C 19.69 17.78 21.24 17.65 22.13 17.27 C 23.02 16.89 24.19 15.87 24.2 15.87 L 23.24 12.83 C 22.76 11.95 22.33 11.03 21.79 10.19 C 21.27 9.44 20.22 9.27 19.53 9.8 C 19.06 9.59 18.51 9.56 18 9.78 C 16.91 10.24 16.51 11.65 17.14 12.68 L 16.06 12.62 L 15.79 13.98 L 16.92 15.88 L 15.99 16.72 C 14.95 12.88 13.55 12.82 12.56 12.78 C 12.43 12.78 12.32 12.77 12.2 12.76 C 11.41 12.67 11.11 11.82 11.12 11.25 C 12.51 10.41 11.44 8.81 10.82 7.87 C 10.68 7.66 10.56 7.48 10.5 7.35 C 10.16 6.66 9.24 6.35 7.91 7.27 C 6.58 8.19 7.11 10.32 7.96 11.19 C 8.14 11.32 8 11.59 7.85 11.88 C 7.8 11.97 7.75 12.07 7.71 12.16 C 7.43 12.01 7.18 11.87 6.97 11.75 L 4.58 9.82 L 5.17 6.57 L 5.32 6.39 C 5.84 5.74 6.34 4.84 5.78 4.23 C 5.75 4.2 5.72 4.16 5.68 4.13 C 5.09 3.6 3.91 3.8 3.43 4.44 C 3.3 4.61 3.22 4.8 3.18 5 C 3.05 5.66 3.41 6.33 3.51 6.99 L 3.54 7.21 L 1.98 10.37 C 1.93 10.46 1.9 10.56 1.9 10.67 C 1.9 10.98 2.02 11.29 2.24 11.51 L 4.01 13.29 L 5.02 16.1 C 5.13 16.41 5.31 16.69 5.53 16.93 L 7.82 19.89 L 7.97 21.01 L 3.36 21.01 C 5.64 23.47 8.9 25.01 12.52 25.01 C 16.14 25.01 19.4 23.47 21.68 21.01 L 14.53 21.01 C 13.89 20.13 13.31 19.29 13.03 18.82 C 13.42 17.76 13.87 15.55 12.68 14.83 C 13.84 15.52 14.32 17.62 14.07 18.68 L 16.55 19.31 L 16.56 19.32 M 19.33 15.84 L 18.66 14.54 L 19.25 14.29 L 20.04 15.84 L 19.33 15.84 M 22.2 12.62 L 22.67 13.36 L 22.92 14.3 L 22.43 14.81 L 22.07 13.61 L 21.52 12.8 L 22.2 12.62 M 20.93 15.46 L 20.36 13.81 L 20.95 13.56 L 21.42 14.94 L 20.93 15.45 L 20.93 15.46 M 18.26 10.37 C 18.74 10.16 19.29 10.28 19.66 10.62 C 19.76 10.44 19.92 10.29 20.12 10.2 C 20.55 10.02 21.03 10.18 21.29 10.56 C 21.18 10.67 20.97 10.85 20.65 11.06 C 20.76 11.33 20.65 11.62 20.4 11.73 C 20.32 11.76 20.24 11.77 20.16 11.77 C 20.21 11.82 20.25 11.88 20.28 11.94 C 20.4 12.23 20.23 12.57 19.94 12.63 L 20.05 12.75 C 20.08 13.83 18.5 13.91 18.32 12.89 C 17.23 12.45 17.16 10.82 18.24 10.37 L 18.26 10.37 M 16.65 13.8 L 16.61 13.26 L 17.61 13.26 L 18.07 14.84 L 17.57 15.29 L 16.65 13.8" transform="matrix(1 0 0 1 0 0)" fill="#EBEBEB" stroke="none" />
</svg>
