<?xml version="1.0" encoding="UTF-8"?>
<!-- Reconstructed from Amplitude.Graphics.Svg.SvgAsset and recolored from static UIMapper.Color metadata for EWShop; not original source SVG. Live UI state/material colors are not included. -->
<svg xmlns="http://www.w3.org/2000/svg" width="25" height="25" viewBox="0 0 25 25">
  <path d="M 14.898 24.452 C 14.166 24.586 13.412 24.656 12.641 24.656 C 9.676 24.656 6.953 23.623 4.81 21.899 C 6.75 21.461 7.716 20.768 6.458 20.768 C 3.017 20.768 0.808 18.305 6.458 18.595 C 12.108 18.885 10.441 17.579 9.297 17.468 C 8.153 17.358 6.331 17.119 7.454 16.467 C 8.117 16.082 9.772 15.888 11.395 15.801 C 12.454 18.727 13.673 21.592 14.898 24.452" transform="matrix(1 0 0 1 0 0)" fill="#EBEBEB" stroke="none" />
  <path d="M 22.356 20.022 C 20.782 21.962 18.639 23.422 16.181 24.147 C 14.801 20.919 13.413 17.69 12.267 14.369 C 8.635 15.046 5.782 14.028 4.658 13.299 C 6.144 13.482 9.194 13.629 11.863 13.15 C 11.563 12.204 11.319 11.324 11.163 10.564 L 9.126 13.07 L 10.511 9.79 C 9.088 10.444 7.832 11.173 7.01 11.949 C 8.061 10.057 11.954 6.41 19.122 6.95 C 18.15 7.17 16.794 7.525 15.32 7.985 L 18.675 9.571 L 14.888 8.965 C 15.176 9.682 15.563 10.575 16.095 11.6 C 18.826 10.138 20.824 8.302 21.178 7.239 C 21.056 8.402 19.967 10.884 16.715 12.737 C 17.923 14.845 19.703 17.372 22.356 20.022" transform="matrix(1 0 0 1 0 0)" fill="#EBEBEB" stroke="none" />
  <path d="M 23.13 18.958 C 22.037 17.854 21.101 16.775 20.298 15.742 L 24.567 15.742 C 24.567 16.79 23.682 18.108 23.13 18.958" transform="matrix(1 0 0 1 0 0)" fill="#EBEBEB" stroke="none" />
  <path d="M 3.691 13.379 C 8.225 6.545 15.26 4.702 22.021 5.741 C 19.216 4.049 16.537 2.359 13.176 2.058 C 11.688 1.925 10.277 1.935 9.106 3.042 C 6.096 5.891 4.673 9.464 3.691 13.379" transform="matrix(1 0 0 1 0 0)" fill="#EBEBEB" stroke="none" />
</svg>
