<?xml version="1.0" encoding="UTF-8"?>
<!-- Reconstructed from Amplitude.Graphics.Svg.SvgAsset and recolored from static UIMapper.Color metadata for EWShop; not original source SVG. Live UI state/material colors are not included. -->
<svg xmlns="http://www.w3.org/2000/svg" width="22" height="22" viewBox="0 0 22 22">
  <path d="M 14 1 L 12 2.5 L 12 9 L 10.5 9.5 L 11 3.5 L 9.68 4.19 L 7.93 10.36 L 6.68 10.86 L 7.68 6.19 L 6.68 5.19 L 5.18 5.69 L 3.06 10.2 L 1 11 L 1 15.3 L 3 16 L 4 18.5 L 5.5 18 L 8.02 21 L 8.5 17.5 L 11.23 16.5 L 12.25 10.2 L 13 17.81 L 14.5 18.5 L 16 17.81 L 16 7.9 L 16 2 L 15.05 1 L 14 1" transform="matrix(1 0 0 1 0 0)" fill="#7099EB" stroke="none" />
  <path d="M 20 10 L 19 3 L 18.3 2.64 L 17.6 3 L 17.6 12.5 L 18.89 12 L 18.54 15.5 L 20 18 L 21 17.5 L 21 9.77 L 20 10" transform="matrix(1 0 0 1 0 0)" fill="#7099EB" stroke="none" />
</svg>
