<?xml version="1.0" encoding="UTF-8"?>
<!-- Reconstructed from Amplitude.Graphics.Svg.SvgAsset and recolored from static UIMapper.Color metadata for EWShop; not original source SVG. Live UI state/material colors are not included. -->
<svg xmlns="http://www.w3.org/2000/svg" width="22" height="22" viewBox="0 0 22 22">
  <path d="M 19.07 9.8 C 18.25 8.36 18.42 7.72 18.67 6.79 C 18.82 6.22 19.01 5.54 19.01 4.49 C 19.01 2.56 17.44 0.99 15.51 0.99 C 15.17 0.99 14.83 1.04 14.52 1.13 C 16.65 2.87 18.01 5.52 18.01 8.49 C 18.01 11.98 16.13 15.02 13.33 16.68 C 13.9 17.25 14.62 17.67 15.43 17.86 C 15.79 18.11 16.01 18.53 16.01 18.98 L 16.01 19.24 C 16.01 19.65 16.35 19.99 16.76 19.99 C 17.17 19.99 17.51 19.65 17.51 19.24 L 17.51 18.81 C 17.51 18.46 17.61 18.11 17.78 17.81 C 19.65 17.26 21.01 15.54 21.01 13.49 C 21.01 11.96 20.25 10.61 19.08 9.79 L 19.07 9.8" transform="matrix(1 0 0 1 0 0)" fill="#A9596C" stroke="none" />
  <path d="M 8.5 1 C 5.97 1 3.73 2.25 2.37 4.17 C 5.98 2.76 10.03 2.12 12.24 2 C 11.14 1.36 9.86 1 8.5 1" transform="matrix(1 0 0 1 0 0)" fill="#A9596C" stroke="none" />
  <path d="M 4.5 7 C 7.39 4.98 9.78 5.46 12.15 5.94 C 13.31 6.17 14.48 6.41 15.69 6.34 C 15.34 5.18 14.72 4.14 13.91 3.29 C 8.53 2.86 3.48 4.9 1.31 6.36 C 1.11 7.04 1 7.76 1 8.5 C 1 9.36 1.15 10.19 1.41 10.96 C 1.73 9.67 2.65 8.29 4.5 7" transform="matrix(1 0 0 1 0 0)" fill="#A9596C" stroke="none" />
  <path d="M 14.79 12.59 C 13.3 11.95 11.21 11.46 8.5 12 C 6.18 12.46 5.2 13.85 4.99 15.25 C 5.31 15.63 5.5 16.11 5.5 16.62 L 5.5 19.99 C 5.5 20.54 5.95 20.99 6.5 20.99 C 7.05 20.99 7.5 20.54 7.5 19.99 L 7.5 16.61 C 7.5 16.26 7.78 15.99 8.12 15.99 C 8.14 15.99 8.17 15.99 8.19 15.99 C 8.29 15.99 8.39 15.99 8.5 15.99 L 8.55 15.99 L 8.56 15.99 C 9.08 15.99 9.5 16.41 9.5 16.93 L 9.5 17.24 C 9.5 17.65 9.84 17.99 10.25 17.99 C 10.66 17.99 11 17.65 11 17.24 L 11 16.81 C 11 16.29 11.21 15.79 11.58 15.42 L 11.73 15.27 C 12.98 14.67 14.04 13.74 14.79 12.59" transform="matrix(1 0 0 1 0 0)" fill="#A9596C" stroke="none" />
  <path d="M 15.46 11.3 C 15.81 10.44 16 9.49 16 8.5 C 16 8.35 16 8.19 15.99 8.04 C 15.34 7.97 14.64 7.82 13.82 7.63 C 12.91 7.43 11.84 7.19 10.5 6.99 C 7.34 6.54 1.73 8.94 2.88 13.46 C 3.04 13.65 3.22 13.82 3.4 13.99 C 4.05 12.69 5.5 11.3 7.77 10.73 C 10.31 10.09 13.44 10.68 15.46 11.28 L 15.46 11.3" transform="matrix(1 0 0 1 0 0)" fill="#A9596C" stroke="none" />
</svg>
