<?xml version="1.0" encoding="UTF-8"?>
<!-- Reconstructed from Amplitude.Graphics.Svg.SvgAsset and recolored from static UIMapper.Color metadata for EWShop; not original source SVG. Live UI state/material colors are not included. -->
<svg xmlns="http://www.w3.org/2000/svg" width="22" height="22" viewBox="0 0 22 22">
  <path d="M 15.57 12.76 C 15.61 12.83 15.7 12.83 15.74 12.77 C 18.22 9.31 19.67 3.84 15.41 1.02 C 15.32 0.97 15.22 1.06 15.27 1.15 C 17.19 4.78 15.89 7 14.63 9.15 C 14.4 9.55 14.17 9.94 13.96 10.34 C 13.94 10.38 13.95 10.42 13.97 10.45 C 14.55 11.15 15.11 11.95 15.56 12.75 L 15.57 12.76" transform="matrix(1 0 0 1 0 0)" fill="#974156" stroke="none" />
  <path d="M 11.99 10.34 C 11.7 10.09 11.27 10.07 10.94 10.27 C 10.02 10.84 8.83 11.75 7.94 12.84 C 8 12.93 8.05 13.02 8.11 13.11 C 8.59 13.89 9.03 14.61 9.19 15.41 C 9.21 15.52 9.47 15.57 9.53 15.47 C 9.9 14.96 10.46 14.69 11.18 14.36 C 11.78 14.08 12.48 13.75 13.26 13.19 C 13.31 13.15 13.39 13.17 13.41 13.23 C 13.53 13.5 14.05 14.51 14.05 14.51 C 14.05 14.51 14.17 14.64 14.24 14.58 C 14.48 14.35 14.71 14.13 14.94 13.93 C 14.63 12.84 13.16 11.35 11.98 10.34 L 11.99 10.34" transform="matrix(1 0 0 1 0 0)" fill="#974156" stroke="none" />
  <path d="M 10.34 9.13 C 11.13 8.02 12 8.06 12.87 9.2 C 12.93 9.28 13.06 9.24 13.07 9.15 C 13.07 9.05 13.09 8.95 13.1 8.84 C 13.27 6.81 13.51 3.86 12.02 1.85 C 11.96 1.77 11.84 1.82 11.85 1.92 C 11.83 3.93 11.44 4.93 11.01 6 C 10.69 6.82 10.34 7.68 10.15 9.06 C 10.13 9.17 10.29 9.22 10.36 9.13 L 10.34 9.13" transform="matrix(1 0 0 1 0 0)" fill="#974156" stroke="none" />
  <path d="M 5.18 8.74 C 5.61 8.21 5.99 7.8 6.21 7.57 C 6.27 7.51 6.37 7.56 6.38 7.64 C 6.54 9.48 6.82 10.84 7.16 11.92 C 7.18 11.99 7.28 12.01 7.33 11.96 C 7.8 11.44 8.32 10.96 8.84 10.52 C 8.87 10.5 8.88 10.46 8.88 10.43 C 8.72 9.01 8.44 7.89 8.18 6.89 C 7.78 5.33 7.46 4.05 7.79 2.33 C 7.81 2.22 7.67 2.16 7.6 2.24 C 5.96 4.46 5.23 6.74 4.98 8.67 C 4.97 8.77 5.1 8.82 5.16 8.74 L 5.18 8.74" transform="matrix(1 0 0 1 0 0)" fill="#974156" stroke="none" />
  <path d="M 20.83 14.62 C 20.06 15.31 19.61 15.4 19.15 15.5 C 18.65 15.6 18.13 15.71 17.15 16.55 C 18.16 15.56 21.92 10.81 19.39 6.87 C 19.34 6.79 19.21 6.82 19.2 6.92 C 19.05 11.68 15.5 14.9 12.76 17.38 C 12.58 17.54 12.4 17.7 12.23 17.86 C 12.14 17.94 11.99 17.82 12.06 17.72 C 12.67 16.82 12.99 16.19 13.02 14.76 C 13.02 14.67 12.91 14.62 12.84 14.69 C 12.05 15.43 11.34 15.8 10.72 16.12 C 10.04 16.48 9.48 16.77 9.08 17.43 C 9.02 17.53 8.7 17.48 8.68 17.37 C 8.49 16.46 7.96 15.55 7.4 14.6 C 6.55 13.15 5.63 11.59 5.78 9.77 C 5.78 9.67 5.67 9.62 5.6 9.69 C 4.52 10.88 4.17 12.34 3.93 13.36 C 3.87 13.61 3.82 13.84 3.76 14.03 C 3.96 12.87 3.78 11.86 3.6 10.83 C 3.32 9.24 3.03 7.6 4.09 5.3 C 4.13 5.2 4.01 5.11 3.93 5.18 C -1.36 10.46 0.7 16.03 8.51 20.83 C 8.77 21 9.09 21.05 9.4 20.96 C 9.58 20.91 9.8 20.85 10.04 20.79 C 13.12 19.99 20.65 18.03 21 14.69 C 21 14.6 20.9 14.55 20.84 14.61 L 20.83 14.62" transform="matrix(1 0 0 1 0 0)" fill="#974156" stroke="none" />
</svg>
