<?xml version="1.0" encoding="UTF-8"?>
<!-- Reconstructed from Amplitude.Graphics.Svg.SvgAsset and recolored from static UIMapper.Color metadata for EWShop; not original source SVG. Live UI state/material colors are not included. -->
<svg xmlns="http://www.w3.org/2000/svg" width="22" height="22" viewBox="0 0 22 22">
  <path d="M 11.3 20.091 C 11.3 20.181 11.3 20.291 11.3 20.401 C 11.26 21.491 12.49 20.841 12.92 20.481 C 13.04 20.381 13.17 20.271 13.33 20.141 C 14.52 19.181 11.16 18.241 11.29 20.091 L 11.3 20.091" transform="matrix(1 0 0 1 0 0)" fill="#93A6CB" stroke="none" />
  <path d="M 5.04 19.961 C 5.2 20.091 5.34 20.201 5.45 20.301 C 5.98 20.741 7.11 21.241 7.07 20.221 C 7.07 20.111 7.07 20.001 7.07 19.911 C 7.21 18.071 3.84 19.001 5.03 19.961 L 5.04 19.961" transform="matrix(1 0 0 1 0 0)" fill="#93A6CB" stroke="none" />
  <path d="M 18.3 14.763 C 18.42 14.763 18.47 14.493 18.35 14.453 C 17.15 14.063 15.41 13.434 14.59 12.794 C 13.58 12.004 12.26 10.895 12.26 10.895 C 14.37 10.835 16.1 10.235 17.31 9.016 C 17.66 8.666 17.06 8.186 16.64 8.516 C 15.85 9.376 14.35 9.506 12.91 9.626 C 12.87 9.626 12.82 9.626 12.78 9.636 C 11.41 9.746 10.72 9.805 9.5 9.216 C 10.3 8.916 10.84 8.386 11.46 7.797 C 11.5 7.757 11.54 7.717 11.58 7.687 C 11.74 7.537 11.87 7.527 12.06 7.617 C 13.61 8.426 16.33 7.377 16.62 5.638 C 17.34 5.877 18.8 5.907 19.14 5.638 C 19.16 5.628 19.18 5.608 19.2 5.588 C 19.39 5.438 19.75 5.168 19.72 4.808 C 19.69 4.548 19.6 4.588 19.38 4.718 C 19.01 4.918 18.26 5.338 16.77 4.808 C 16.68 4.768 16.6 4.738 16.62 4.608 C 16.62 4.608 17.38 3.978 17.63 3.579 C 17.76 3.369 17.63 2.549 17.13 3.069 C 17.04 3.269 16.74 3.489 16.44 3.729 C 16.06 4.028 15.66 4.328 15.62 4.608 C 15.41 4.608 15.2 4.518 14.96 4.418 C 14.61 4.268 14.2 4.098 13.61 4.098 C 13.03 4.098 12.65 4.368 12.28 4.628 C 11.93 4.878 11.59 5.118 11.1 5.118 C 11.03 5.118 10.96 5.118 10.89 5.118 C 10.4 5.118 9.78 5.128 9.37 4.888 C 8.59 4.088 9.09 3.579 9.09 3.579 C 9.89 2.589 11.3 2.969 12.27 3.229 C 12.38 3.259 12.48 3.289 12.57 3.309 C 13.15 3.409 13.46 2.649 12.94 2.549 C 12.79 2.499 12.53 2.419 12.27 2.329 C 12.01 2.239 11.76 2.159 11.6 2.109 C 12.61 1.6 15.22 1.969 15.63 2.029 C 16.07 2.099 16.53 1.66 16.2 1.46 C 15.63 1.13 13.74 0.96 13.12 1 C 12.76 1.03 12.32 1.05 11.86 1.06 C 11.03 1.09 10.13 1.12 9.5 1.25 C 8.39 1.48 8.01 1.919 7.55 3.049 C 7.45 3.309 7.12 3.129 6.93 3.019 C 6.92 3.019 6.91 3.009 6.9 2.999 C 6.67 2.829 6.47 2.689 6.26 2.539 C 6.03 2.379 5.8 2.219 5.54 2.019 C 5 1.61 4.21 1.869 4.03 2.529 C 3.85 3.149 3.99 3.858 4.11 4.488 C 4.12 4.538 4.13 4.598 4.14 4.648 C 4.16 4.778 4.12 4.838 3.98 4.878 C 3.62 4.968 3.25 5.068 2.9 5.178 C 2.55 5.278 2.54 5.768 2.59 6.207 C 2.36 6.267 1.62 6.597 1.51 7.137 C 1.42 7.587 1.69 7.856 1.91 8.056 C 1.95 8.096 1.99 8.126 2.02 8.166 C 3.01 9.176 3.55 10.075 4.23 11.235 C 4.33 11.405 4.43 11.575 4.53 11.745 C 5.09 12.684 6.18 14.563 5.15 15.403 C 4.84 15.663 4.17 15.843 3.49 16.022 C 2.82 16.202 2.14 16.382 1.75 16.652 C 1.61 16.752 1.63 16.942 1.77 17.042 L 2.84 17.862 C 3.24 18.171 3.81 18.131 4.24 17.862 C 5.1 17.332 6.47 16.792 7.57 17.362 C 8.36 17.772 8.54 19.391 8.57 20.15 C 8.57 20.29 8.72 20.39 8.85 20.34 C 9.16 20.23 9.65 20.05 9.93 19.97 C 10.02 19.94 10.09 19.851 10.09 19.761 C 10.09 19.641 10.08 19.531 10.07 19.411 C 10.02 18.611 9.98 17.931 11.1 17.362 C 12.51 16.642 14.24 17.632 14.57 18.211 C 14.62 18.301 14.7 18.391 14.81 18.401 C 14.93 18.401 15.09 18.421 15.26 18.411 C 15.42 18.411 15.5 18.201 15.44 18.051 C 15.14 17.282 15.21 15.743 15.63 15.303 C 16.12 14.803 17.35 14.713 18.33 14.713 L 18.3 14.763 M 13.59 5.108 C 13.98 4.898 14.33 5.068 14.77 5.288 C 15.01 5.408 15.28 5.538 15.6 5.618 C 15.57 6.977 13.02 7.117 12.08 6.647 C 12.08 6.647 12.93 5.458 13.59 5.108 M 6.45 5.058 C 6.12 5.198 5.8 5.338 5.54 5.448 C 5.49 5.268 5.44 5.098 5.39 4.928 C 5.08 3.898 4.83 3.039 6.04 3.759 C 6.21 3.858 6.41 3.968 6.63 4.078 C 6.91 4.228 7.22 4.388 7.55 4.588 C 7.22 4.718 6.83 4.888 6.45 5.058 M 8.56 8.166 C 8.56 8.166 8.06 7.147 8.56 6.637 C 9.11 6.797 9.62 6.727 10.06 6.677 C 10.25 6.657 10.42 6.637 10.57 6.637 C 10.07 7.147 9.01 8.006 8.56 8.166" transform="matrix(1 0 0 1 0 0)" fill="#93A6CB" stroke="none" />
  <path d="M 16.73 17.053 C 16.73 17.873 16.75 17.873 17.31 17.893 C 17.4 17.893 17.5 17.893 17.61 17.913 C 17.89 17.933 19.17 17.863 20.2 17.123 C 21.74 16.023 16.72 15.163 16.73 17.053" transform="matrix(1 0 0 1 0 0)" fill="#93A6CB" stroke="none" />
</svg>
