<?xml version="1.0" encoding="UTF-8"?>
<!-- Reconstructed from Amplitude.Graphics.Svg.SvgAsset and recolored from static UIMapper.Color metadata for EWShop; not original source SVG. Live UI state/material colors are not included. -->
<svg xmlns="http://www.w3.org/2000/svg" width="22" height="22" viewBox="0 0 22 22">
  <path d="M 1.42 3.733 C 1.58 3.893 1.74 4.042 1.77 4.212 C 1 4.721 0.75 9.03 2 9.03 C 2.44 7.863 3.74 7.823 4.5 8.032 C 4.52 8.032 4.54 8.042 4.57 8.062 C 4.84 8.162 5.55 8.431 6 7.534 C 5.59 6.207 7.5 5.539 9 6.007 C 7.87 3.035 6.66 3.055 5.37 3.065 C 4.94 3.065 4.5 3.075 4.06 2.965 C 3.8 2.905 3.39 2.726 2.96 2.546 C 2.39 2.297 1.79 2.047 1.5 2.047 C 1 2.047 1 2.546 1 3.045 C 1 3.324 1.22 3.534 1.42 3.733" transform="matrix(1 0 0 1 0 0)" fill="#896596" stroke="none" />
  <path d="M 11.5 5.539 C 11.69 5.918 11.95 5.648 12.42 5.18 C 13.19 4.401 14.52 3.045 17 3.045 C 16.91 2.736 16.82 2.466 16.74 2.227 C 16.41 1.299 14.93 1.958 14.08 2.337 C 13.79 2.466 13.58 2.556 13.51 2.546 C 13.51 2.546 14.18 1.658 14.16 1.608 C 13.93 1 11.93 1 11.41 1.1 C 11.28 1.13 11.14 1.199 11 1.279 C 10.54 1.519 9.96 1.818 9 1.1 C 8.62 0.81 8.43 1.199 8.39 1.459 C 8.35 1.718 8.53 2.217 8.73 2.347 C 9.21 2.656 11.13 4.621 11.5 5.529 L 11.5 5.539" transform="matrix(1 0 0 1 0 0)" fill="#896596" stroke="none" />
  <path d="M 4 16.012 C 5.2 15.274 3.46 15.344 3 15.514 C 2.82 14.556 3 14.017 4 13.519 C 1 12.521 -0.5 19.504 3.5 19.504 C 3.83 19.504 5 18.506 4.97 17.968 C 4.45 18.107 4.28 18.117 3.68 18.117 C 2.3 18.067 3.5 16.302 4 16.012" transform="matrix(1 0 0 1 0 0)" fill="#896596" stroke="none" />
  <path d="M 13.12 16.94 C 12.84 16.691 12.53 16.412 12.27 16.013 C 12.07 15.703 12.19 14.426 12.27 14.087 C 12.33 13.838 12.4 13.569 12.48 13.269 C 12.77 12.212 13.11 10.935 12.99 10.027 C 12.85 8.751 11.7 7.155 10.18 7.564 C 8.58 7.963 6.59 9.199 5.44 10.377 C 5.29 10.516 4.9 10.456 4.58 10.397 C 4.43 10.367 4.3 10.347 4.21 10.347 C 3.78 10.347 2.81 10.586 3.03 11.145 C 3.19 11.524 3.38 11.873 3.86 11.733 C 3.97 11.703 4.12 11.733 4.2 11.783 C 4.96 12.372 5.71 12.392 6.44 12.421 C 7.18 12.451 7.88 12.481 8.54 13.08 C 8.75 13.269 8.83 13.279 9 13.03 C 9.06 12.94 9.35 12.621 9.66 12.262 C 10.07 11.803 10.53 11.284 10.61 11.145 C 10.88 11.933 10.8 12.521 10.72 13.16 C 10.58 14.257 10.42 15.484 12 18.017 C 11.42 19.344 10.3 17.988 9.7 17.259 C 9.62 17.17 9.55 17.08 9.5 17.02 C 9.5 19.205 6.5 20.122 6.5 17.519 C 5.5 19.015 6.5 21.01 7 21.01 C 8.06 21.01 13.32 19.823 13.74 18.586 C 14.04 17.778 13.64 17.419 13.12 16.95 L 13.12 16.94" transform="matrix(1 0 0 1 0 0)" fill="#896596" stroke="none" />
  <path d="M 7.92 15.833 C 8.1 15.723 8.29 15.614 8.5 15.514 C 8.95 15.294 8.43 14.357 8 14.018 C 7.57 13.678 6 13.02 6 14.516 C 5.5 15.514 5.57 15.673 6 16.013 C 6.68 16.551 7.23 16.232 7.92 15.833" transform="matrix(1 0 0 1 0 0)" fill="#896596" stroke="none" />
  <path d="M 20.5 8.531 C 20.09 8.441 19.85 8.102 19.6 7.733 C 19.43 7.484 19.25 7.234 19 7.035 C 18.89 6.945 18.24 7.035 18.24 8.182 C 17.93 7.783 17.67 7.354 17.42 6.925 C 17.01 6.237 16.61 5.559 15.98 5.03 C 15.82 4.9 15.62 4.801 15.43 4.791 C 14.87 4.741 14.43 5.12 14.01 5.529 C 13.86 5.678 13.9 5.818 14.03 6.008 C 14.71 6.955 15.39 9.229 15.5 10.526 C 15.58 11.484 15.16 12.352 14.74 13.22 C 14.46 13.798 14.17 14.387 14.03 15.015 C 13.86 15.773 14.53 16.312 14.94 15.663 C 15.55 15.284 15.8 16.202 16.06 17.09 C 16.24 17.738 16.42 18.377 16.73 18.506 C 17.19 18.686 17.46 18.556 17.59 17.958 C 17.68 17.569 17.92 17.329 18.13 17.12 C 18.46 16.801 18.7 16.571 18.09 15.963 C 17.68 15.155 18.03 15.095 18.32 15.055 C 18.39 15.045 18.45 15.035 18.5 15.015 C 18.98 14.885 20.81 14.237 21 13.519 L 21 10.028 C 21 9.748 21 8.531 20.5 8.531" transform="matrix(1 0 0 1 0 0)" fill="#896596" stroke="none" />
</svg>
