<?xml version="1.0" encoding="UTF-8"?>
<!-- Reconstructed from Amplitude.Graphics.Svg.SvgAsset and recolored from static UIMapper.Color metadata for EWShop; not original source SVG. Live UI state/material colors are not included. -->
<svg xmlns="http://www.w3.org/2000/svg" width="22" height="22" viewBox="0 0 22 22">
  <path d="M 8.88 18.46 C 8.13 18.31 8.13 17.76 8.13 17.76 C 7.89 17.29 8.32 16.78 8.58 16.54 C 8.69 16.44 8.76 16.3 8.76 16.15 C 8.76 15.82 8.44 15.61 8.17 15.79 C 7.65 16.15 6.96 16.81 6.96 17.76 C 6.96 18.71 7.24 18.98 7.89 19.39 C 7.63 19.89 6.5 19.8 6.5 19.8 C 5.39 19.84 5.33 17.49 5.33 17.49 C 5.75 16.81 6.33 16.06 6.92 15.31 C 7.69 14.33 8.46 13.33 8.9 12.44 C 8.96 12.32 8.96 12.18 8.9 12.06 C 8.74 11.73 8.26 11.73 8.06 12.05 C 7.61 12.79 7.02 13.42 6.44 14.07 C 6.06 14.48 5.69 14.9 5.34 15.34 C 5.48 11.4 8.72 9.08 9.69 8.48 C 9.86 8.38 9.97 8.2 9.97 8 C 9.98 7.59 9.57 7.31 9.23 7.52 C 5.96 9.48 4.01 13.39 4.01 16.38 C 4.01 19.6 5.32 21.01 6.77 21.01 C 8.06 21.01 9.19 19.82 9.41 19.57 C 9.44 19.54 9.46 19.5 9.48 19.47 C 9.69 19.05 9.33 18.56 8.88 18.47 L 8.88 18.46" transform="matrix(1 0 0 1 0 0)" fill="#BB9566" stroke="none" />
  <path d="M 10.67 2.1 C 12.93 2.89 15.8 4.89 13.99 8.13 C 13.35 6.31 12.66 5.04 11.63 4.6 C 11.39 4.5 11.13 4.65 11.03 4.9 C 10.97 5.06 10.98 5.24 11.05 5.4 C 11.12 5.57 11.24 5.72 11.38 5.83 C 12.13 6.45 12.63 7.87 12.74 9.24 C 13.7 9.43 14.54 9.97 15.13 10.73 C 17.2 4.94 14.72 2.01 10.92 1.02 C 10.67 0.96 10.42 1.09 10.32 1.33 C 10.19 1.64 10.36 1.99 10.67 2.1" transform="matrix(1 0 0 1 0 0)" fill="#BB9566" stroke="none" />
  <path d="M 4.56 9.19 C 4.76 8.91 4.69 8.48 4.39 8.32 C 4.17 8.21 3.91 8.27 3.77 8.48 C 3.35 9.11 2.52 10.45 2.52 11.22 C 2.52 11.22 1.6 6.46 6.41 1.97 C 6.69 1.71 6.64 1.24 6.3 1.07 C 6.12 0.98 5.91 1 5.76 1.14 C 4.75 2.05 1.01 5.8 1.01 10.7 C 0.87 14.91 2.01 17.28 3.01 18.43 C 3.01 18.43 2.51 16.88 3.01 15.37 C 2.56 13.96 3.32 10.92 4.56 9.19" transform="matrix(1 0 0 1 0 0)" fill="#BB9566" stroke="none" />
  <path d="M 20.99 10.7 C 20.99 5.8 17.25 2.05 16.24 1.13 C 16.21 1.1 16.18 1.08 16.14 1.06 C 16.1 1.04 16.05 1.02 16 1.01 C 15.96 1.01 15.93 1.01 15.89 1.01 C 15.82 1.01 15.76 1.03 15.7 1.06 C 15.37 1.23 15.32 1.7 15.59 1.96 C 20.45 6.6 19.95 13.33 18.99 14.81 C 19.12 12 18.14 9.5 17.7 8.54 C 17.59 8.3 17.32 8.21 17.09 8.33 C 16.95 8.4 16.86 8.54 16.82 8.7 C 16.78 8.86 16.81 9.04 16.89 9.18 C 17.99 11.22 17.95 15.96 17.5 17.39 L 20 16.36 C 20 16.36 21.14 14.91 21 10.69 L 20.99 10.7" transform="matrix(1 0 0 1 0 0)" fill="#BB9566" stroke="none" />
  <path d="M 12 10.18 C 11.33 10.18 10.69 10.35 10.14 10.65 C 10.41 11.76 10.54 13.42 9.51 13.78 C 10.24 14.68 11.23 16.62 10.1 17.92 C 10.67 18.24 11.31 18.42 12 18.42 C 14.21 18.42 16 16.58 16 14.3 C 16 12.02 14.21 10.18 12 10.18 M 13 17.39 L 13 16.36 L 12.5 14.82 L 13.5 14.3 L 13 12.24 C 13.83 12.24 15 13 15 14.3 C 15 15.85 14 16.88 13 17.39" transform="matrix(1 0 0 1 0 0)" fill="#BB9566" stroke="none" />
</svg>
