<?xml version="1.0" encoding="UTF-8"?>
<!-- Reconstructed from Amplitude.Graphics.Svg.SvgAsset and recolored from static UIMapper.Color metadata for EWShop; not original source SVG. Live UI state/material colors are not included. -->
<svg xmlns="http://www.w3.org/2000/svg" width="22" height="22" viewBox="0 0 22 22">
  <path d="M 11.927 13.939 C 14.589 13.528 16.615 11.241 16.615 8.482 C 16.615 6.848 15.899 5.373 14.76 4.36 C 16.161 8.322 13.772 12.364 11.927 13.929 L 11.927 13.939" transform="matrix(1 0 0 1 0 0)" fill="#DFD4CC" stroke="none" />
  <path d="M 9.629 3.156 C 12.915 6.757 12.441 11.281 11.585 13.798 C 15.204 8.593 13.954 4.912 12.119 3.066 C 11.786 3.006 11.433 2.966 11.081 2.966 C 10.577 2.966 10.093 3.036 9.639 3.156 L 9.629 3.156" transform="matrix(1 0 0 1 0 0)" fill="#DFD4CC" stroke="none" />
  <path d="M 20.748 8.061 L 18.843 8.442 C 18.722 8.462 18.621 8.382 18.601 8.272 C 18.51 7.409 18.228 4.21 18.55 2.735 C 18.581 2.605 18.48 2.474 18.349 2.504 C 17.754 2.635 16.827 3.096 15.849 3.668 C 15.738 3.738 15.718 3.889 15.809 3.989 C 16.927 5.162 17.623 6.747 17.623 8.492 C 17.623 9.405 17.432 10.278 17.089 11.07 C 17.069 11.12 17.069 11.181 17.089 11.231 C 17.663 12.605 17.411 14.801 17.24 15.875 C 17.21 16.065 16.897 16.115 16.776 15.965 C 16.252 15.303 15.042 14.35 12.673 14.982 C 12.613 15.002 12.563 15.042 12.542 15.092 L 11.242 18.121 C 11.171 18.282 10.95 18.282 10.879 18.131 L 9.206 14.801 C 9.206 14.801 9.135 14.711 9.085 14.701 C 8.308 14.46 7.603 14.069 6.988 13.578 C 6.948 13.548 6.897 13.528 6.847 13.538 C 6.262 13.588 5.345 13.688 4.276 13.939 C 4.145 13.969 4.024 13.869 4.034 13.738 C 4.105 12.615 4.659 11.832 5.073 11.401 C 5.133 11.341 5.143 11.251 5.113 11.171 C 4.74 10.348 4.528 9.445 4.528 8.482 C 4.528 6.597 5.335 4.902 6.615 3.708 C 6.696 3.638 6.706 3.507 6.635 3.427 C 6.202 2.876 5.667 2.153 5.214 1.311 C 5.133 1.17 4.921 1.17 4.851 1.311 C 3.823 3.598 3.903 5.824 3.974 6.637 C 3.984 6.787 3.843 6.908 3.692 6.858 L 2.663 6.517 C 2.573 6.486 2.462 6.527 2.431 6.627 C 2.2 7.319 2.573 8.192 2.815 8.653 C 2.885 8.793 2.784 8.974 2.623 8.974 L 1.202 8.974 C 1.091 8.974 1 9.064 1 9.174 C 1.081 10.799 2.079 12.374 2.401 12.846 C 2.462 12.926 2.452 13.036 2.381 13.106 L 1.131 14.35 C 1.05 14.43 1.05 14.561 1.131 14.631 C 2.119 15.493 3.268 15.373 3.944 15.193 C 4.135 15.142 4.427 15.393 4.427 15.584 C 4.448 16.105 4.629 16.988 5.405 18.312 C 5.466 18.412 5.607 18.442 5.698 18.372 C 7.26 17.289 8.177 17.74 8.45 17.931 C 8.51 17.971 8.53 18.041 8.51 18.111 L 8.056 19.897 C 8.036 19.967 8.056 20.037 8.107 20.087 L 8.954 20.93 C 8.954 20.93 9.075 21 9.145 20.98 L 12.946 20.037 C 13.016 20.017 13.077 19.957 13.097 19.887 L 13.51 17.82 C 13.54 17.68 13.712 17.61 13.833 17.7 L 15.506 18.944 C 15.557 18.984 15.637 18.994 15.698 18.974 L 19.498 17.56 C 19.579 17.53 19.629 17.459 19.629 17.369 L 19.629 16.677 C 19.629 16.246 19.478 15.824 19.256 15.453 C 18.883 14.862 18.47 13.999 19.125 13.999 L 20.657 13.999 C 20.839 13.999 20.94 13.778 20.829 13.638 C 20.496 13.227 19.982 12.494 19.659 11.562 C 19.649 11.522 19.649 11.481 19.659 11.431 C 19.76 11.15 20.194 9.937 20.97 8.352 C 21.04 8.202 20.909 8.031 20.748 8.061" transform="matrix(1 0 0 1 0 0)" fill="#DFD4CC" stroke="none" />
  <path d="M 8.187 2.404 C 8.238 2.505 8.359 2.555 8.46 2.505 C 9.256 2.154 10.143 1.963 11.07 1.963 C 11.121 1.963 11.131 1.893 11.091 1.873 C 9.81 1.321 8.49 1.09 7.885 1 C 7.734 0.98 7.623 1.13 7.683 1.271 L 8.187 2.394 L 8.187 2.404" transform="matrix(1 0 0 1 0 0)" fill="#DFD4CC" stroke="none" />
  <path d="M 11.081 13.999 C 11.081 13.999 11.141 13.999 11.171 13.999 C 11.595 7.901 9.397 5.263 7.31 4.44 C 6.222 5.443 5.536 6.888 5.536 8.483 C 5.536 11.532 8.016 13.999 11.081 13.999" transform="matrix(1 0 0 1 0 0)" fill="#DFD4CC" stroke="none" />
</svg>
