<?xml version="1.0" encoding="UTF-8"?>
<!-- Reconstructed from Amplitude.Graphics.Svg.SvgAsset and recolored from static UIMapper.Color metadata for EWShop; not original source SVG. Live UI state/material colors are not included. -->
<svg xmlns="http://www.w3.org/2000/svg" width="22" height="22" viewBox="0 0 22 22">
  <path d="M 16.5 13.5 C 16.5 13.5 14.39 13.52 14 15 C 14 15 14.09 16.68 13.5 17 C 13.5 17 12.29 18.25 9 18 C 9 18 5.12 17.93 5.33 15.9 C 5.33 15.9 5.51 15 6.5 15 C 6.5 15 6.28 13.43 5.5 13.5 C 4.72 13.57 4 14.5 4 14.5 C 4 14.5 4.12 15.8 3.5 15.5 C 3.5 15.5 2.66 15.63 3 16.5 C 3 16.5 2.93 16.93 2.5 17 C 2.3 17.36 4 18.5 4.5 18 C 4.69 18.19 5.17 18.34 5.67 18.5 C 6.49 18.76 7.35 19.04 7 19.5 C 6.43 20.24 8 21 8.5 21 C 8.5 21 8.5 20.5 9.5 20 C 10.01 19.77 10.89 19.61 11.88 19.43 C 14.45 18.97 17.78 18.36 17.49 16 C 17.49 16 16.12 15.53 16.49 13.5 L 16.5 13.5" transform="matrix(1 0 0 1 0 0)" fill="#63AE93" stroke="none" />
  <path d="M 16.98 1.03 C 16.04 0.87 15 1.5 15 1.5 C 14 1 13 1.5 13 1.5 C 12.32 1.8 12.18 2.17 12.04 2.55 C 11.83 3.12 11.61 3.7 9.5 4 C 10.71 3.32 10.88 2.75 11.02 2.3 C 11.08 2.09 11.14 1.91 11.29 1.75 C 10.29 0.75 8.87 1.14 7.51 2.24 C 6.01 1.14 5.51 1.75 5.51 1.75 C 2.76 2 2.97 4.35 2.97 4.35 C 2.68 6.56 5.02 6.73 5.02 6.73 C 6.22 6.55 7.44 5.83 8.02 4.49 C 8.52 5.49 9.52 6.49 10.28 6.73 C 8.92 6.98 8.02 5.99 8.02 5.99 C 6.76 7.25 7.39 8.03 7.96 8.73 C 8.3 9.14 8.61 9.54 8.52 9.99 C 7.02 8.49 5.52 8.99 5.52 8.99 C 3.13 9.76 4.26 11.57 4.26 11.57 C 5.52 12.78 6.52 11.99 6.52 11.99 C 8.04 11 9.02 12.49 9.02 12.49 C 7.89 12.27 7.27 12.27 7.02 12.99 C 7.07 12.99 7.13 12.99 7.19 12.99 C 7.71 12.97 8.49 12.95 9.02 13.99 C 9.52 14.99 8.26 16.18 8.26 16.18 C 8.97 16.83 10.52 16.49 10.52 16.49 C 10.44 15.71 10.63 15.48 10.84 15.22 C 11.06 14.95 11.31 14.64 11.31 13.62 C 11.31 13.17 11.66 12.93 12.02 12.69 C 12.36 12.46 12.7 12.22 12.74 11.81 L 12.74 10.99 C 12.53 11.22 11.53 11.28 11.53 11.28 C 11.45 11.09 11.78 10.79 12.18 10.43 C 12.83 9.84 13.65 9.1 13.03 8.48 C 12.03 7.48 12.03 6.98 12.74 6.18 C 12.74 7.86 14.97 7.87 16.03 7.68 C 17.53 7.42 18.03 6.18 18.03 6.18 C 19.53 5.86 19.53 2.98 19.53 2.98 C 19.5 1 16.98 1.03 16.98 1.03" transform="matrix(1 0 0 1 0 0)" fill="#63AE93" stroke="none" />
</svg>
