<?xml version="1.0" encoding="UTF-8"?>
<!-- Reconstructed from Amplitude.Graphics.Svg.SvgAsset and recolored from static UIMapper.Color metadata for EWShop; not original source SVG. Live UI state/material colors are not included. -->
<svg xmlns="http://www.w3.org/2000/svg" width="22" height="22" viewBox="0 0 22 22">
  <path d="M 5.96 15.03 L 5.5 12 C 5.5 12 5.44 11.98 5.37 11.96 C 5.21 11.91 4.98 11.84 4.97 11.82 L 3.27 8.08 C 3.21 7.94 2.99 8 3 8.15 L 3.41 16.46 L 1.16 15.02 C 1.06 14.96 0.96 15.08 1.02 15.19 L 1.8 16.49 C 1.8 16.49 1.82 16.53 1.82 16.55 L 1.82 18.2 C 1.82 18.2 1.84 18.27 1.86 18.29 L 3.87 19.97 C 3.87 19.97 3.91 19.99 3.93 19.99 L 6.9 19.99 C 6.96 19.99 7 19.94 7 19.87 L 7 17.73 C 7 17.73 6.98 17.65 6.95 17.63 L 5.96 15.01 L 5.96 15.03" transform="matrix(1 0 0 1 0 0)" fill="#E76EC5" stroke="none" />
  <path d="M 20.86 13.08 L 14.94 15.49 C 14.85 15.53 14.76 15.42 14.82 15.33 L 16.49 13.54 C 16.49 13.54 16.5 13.52 16.5 13.51 L 16.93 11.69 C 16.95 11.59 16.84 11.51 16.76 11.58 L 12.59 15.06 C 12.59 15.06 12.57 15.09 12.56 15.1 L 11.56 17.74 C 11.56 17.74 11.52 17.79 11.49 17.8 L 8.06 18.84 C 8 18.86 7.97 18.93 8 18.99 L 8.92 20.94 C 8.95 21 9.02 21.02 9.07 20.98 L 10.47 19.99 C 10.47 19.99 10.53 19.97 10.56 19.98 L 13.46 21 C 13.53 21.02 13.6 20.97 13.6 20.9 L 13.6 20.07 C 13.6 20.01 13.65 19.96 13.7 19.96 L 15.73 19.96 C 15.84 19.96 15.87 19.81 15.78 19.75 L 14.35 18.99 C 14.27 18.95 14.28 18.82 14.37 18.79 L 18.59 17.45 C 18.7 17.41 18.68 17.24 18.56 17.24 L 16.68 17.24 C 16.57 17.24 16.54 17.08 16.64 17.03 L 19.71 15.64 C 19.71 15.64 19.77 15.58 19.77 15.54 L 19.77 14.57 C 19.77 14.57 19.78 14.51 19.8 14.49 L 20.97 13.25 C 21.05 13.17 20.97 13.03 20.86 13.07 L 20.86 13.08" transform="matrix(1 0 0 1 0 0)" fill="#E76EC5" stroke="none" />
  <path d="M 8.62 17 L 10.45 16.54 C 10.45 16.54 10.51 16.51 10.52 16.47 L 11 15.04 C 11 15.04 11.01 15.01 11.02 15 L 13.01 13.01 L 15.58 10.37 C 15.58 10.37 15.61 10.31 15.6 10.28 L 15.18 9.02 C 15.15 8.94 15.05 8.93 15 9 L 13.61 10.36 C 13.57 10.42 13.47 10.42 13.44 10.35 L 13.03 9.53 C 13.03 9.53 13.02 9.49 13.03 9.47 L 14.02 5 C 14.02 5 14.02 4.95 14 4.93 L 13.03 3.04 C 13.03 3.04 13.02 3.01 13.01 3 L 12.12 1.08 C 12.1 0.97 11.94 0.97 11.92 1.08 L 11.05 6.75 C 11.04 6.84 10.92 6.87 10.87 6.79 L 9.19 4.94 C 9.13 4.86 9 4.91 9.01 5.01 L 10.01 9.47 C 10.01 9.47 10.01 9.5 10.01 9.51 L 9.61 10.71 C 9.58 10.8 9.45 10.8 9.42 10.71 L 7.21 6.98 C 7.18 6.88 7.03 6.89 7.02 7 L 7.02 10.49 C 7.02 10.49 7.02 10.51 7.02 10.52 L 7.52 14.49 L 8.52 16.89 C 8.52 16.96 8.58 17 8.64 16.99 L 8.62 17" transform="matrix(1 0 0 1 0 0)" fill="#E76EC5" stroke="none" />
</svg>
