<?xml version="1.0" encoding="UTF-8"?>
<!-- Reconstructed from Amplitude.Graphics.Svg.SvgAsset and recolored from static UIMapper.Color metadata for EWShop; not original source SVG. Live UI state/material colors are not included. -->
<svg xmlns="http://www.w3.org/2000/svg" width="22" height="22" viewBox="0 0 22 22">
  <path d="M 1.67 10.587 C 2.95 9.429 3.39 8.533 3.85 7.586 C 4.18 6.911 4.52 6.217 5.18 5.381 C 5.25 5.29 5.15 5.169 5.05 5.22 C 3.72 5.894 2.87 6.348 2.12 6.952 C 1.71 7.284 1.5 7.808 1.5 8.341 L 1.5 10.517 C 1.5 10.607 1.6 10.648 1.67 10.587" transform="matrix(1 0 0 1 0 0)" fill="#BE6259" stroke="none" />
  <path d="M 10.5 10.023 C 10.49 9.912 10.46 9.802 10.41 9.711 C 10.1 9.711 9.72 9.741 9.5 10.023 C 9.3 10.285 9.43 11.352 9.56 12.47 C 9.77 14.202 9.98 16.045 9 15.058 C 8.56 14.615 8.13 13.83 7.81 13.024 C 7.58 13.739 7.37 14.454 7.18 15.139 C 6.89 16.136 6.62 17.073 6.32 17.858 C 6.15 18.291 6.25 18.795 6.61 19.097 L 8.6 20.758 C 8.85 20.97 9.2 21.04 9.51 20.95 L 10.14 20.768 C 10.12 20.426 10.04 20.084 9.83 19.822 C 9.45 19.338 8.74 19.137 8.16 18.976 C 7.52 18.795 7.06 18.664 7.48 18.251 C 8.67 16.992 10.39 15.955 11.19 16.992 C 11.68 17.626 11.77 19.127 11.5 20.386 L 11.98 20.245 C 12.3 20.154 12.57 19.912 12.58 19.58 C 12.6 18.976 12.38 18.241 12.05 17.193 C 11.58 15.673 10.91 13.477 10.49 10.033 L 10.5 10.023" transform="matrix(1 0 0 1 0 0)" fill="#BE6259" stroke="none" />
  <path d="M 15.5 3.981 C 14.85 2.208 13 0.96 11.75 1 C 8.82 1 7.68 3.336 6.21 6.368 C 5.16 8.513 3.95 11 1.81 13.256 C 1.4 13.689 1.4 14.394 1.86 14.787 C 1.9 14.706 1.95 14.625 2 14.555 C 2.24 14.253 2.44 13.8 2.63 13.367 C 3.04 12.45 3.42 11.574 4.11 12.118 C 5.12 12.913 4.84 14.625 4.11 15.572 C 3.94 15.784 3.86 16.055 3.81 16.347 C 4.29 16.468 4.82 16.217 5.01 15.713 C 6.73 11.201 9.21 6.116 11.23 4.202 C 12.51 2.984 14.2 2.853 15.51 3.991 L 15.5 3.981" transform="matrix(1 0 0 1 0 0)" fill="#BE6259" stroke="none" />
  <path d="M 18.27 15.743 C 18.05 16.559 17.62 17.324 17.06 17.767 C 16.42 18.271 16.49 17.667 16.6 16.811 C 16.7 15.985 16.82 14.917 16.38 14.353 C 16.15 14.061 15.87 13.8 15.6 13.548 C 14.85 12.853 14.22 12.269 15.29 11.463 C 14.69 10.446 14.09 9.298 13.5 8.019 C 12.17 5.129 16.62 7.203 18 8.019 C 17.62 6.196 15.03 4.081 13.5 4.494 C 9.83 5.491 11.82 10.708 12.42 12.259 L 12.42 12.289 C 12.62 12.782 12.87 13.518 13.15 14.343 C 13.61 15.703 14.15 17.294 14.63 18.372 C 14.82 18.805 15.31 18.996 15.77 18.845 C 16.37 18.654 17.24 18.372 18.13 18.11 C 18.91 17.878 19.18 16.811 18.65 16.196 C 18.53 16.055 18.4 15.914 18.27 15.753 L 18.27 15.743" transform="matrix(1 0 0 1 0 0)" fill="#BE6259" stroke="none" />
  <path d="M 19 10.023 C 18 9.52 17 9.016 15.86 8.553 C 15.5 8.412 15.4 8.744 15.5 9.016 C 15.72 9.59 18.77 13.739 20.33 15.391 C 20.39 15.451 20.5 15.411 20.5 15.32 C 20.5 13.326 20.44 10.708 19 10.023" transform="matrix(1 0 0 1 0 0)" fill="#BE6259" stroke="none" />
</svg>
