<?xml version="1.0" encoding="UTF-8"?>
<!-- Reconstructed from Amplitude.Graphics.Svg.SvgAsset and recolored from static UIMapper.Color metadata for EWShop; not original source SVG. Live UI state/material colors are not included. -->
<svg xmlns="http://www.w3.org/2000/svg" width="22" height="22" viewBox="0 0 22 22">
  <path d="M 1.86 12.84 C 1.85 12.63 1.54 12.54 1.46 12.73 C 0.62 14.54 1.03 16.43 1.92 17.68 C 1.75 17.92 1.58 18.17 1.42 18.43 C 1.39 18.48 1.38 18.53 1.4 18.59 C 1.88 20.26 3.76 20.85 4.27 20.98 C 4.35 21 4.43 20.96 4.48 20.9 C 4.74 20.53 4.99 20.18 5.24 19.86 C 4.52 18.54 3.96 16.81 3.55 15.15 C 2.25 14.97 1.93 13.72 1.87 12.85 L 1.86 12.84" transform="matrix(1 0 0 1 0 0)" fill="#BF7A64" stroke="none" />
  <path d="M 13.37 10.22 C 13.55 10.14 13.54 9.85 13.35 9.81 C 11.33 9.34 10.08 10.09 9.39 11.31 C 9.2 12.72 9.25 14.44 9.6 16.07 C 10.58 15.75 11.5 15.86 12.39 16.3 C 13.23 15.29 13.8 13.73 14.08 12.28 C 13.28 12.01 12.47 11.88 11.66 11.86 C 11.93 11.02 12.77 10.49 13.36 10.22 L 13.37 10.22" transform="matrix(1 0 0 1 0 0)" fill="#BF7A64" stroke="none" />
  <path d="M 18.83 10.02 C 19.25 10.42 19.56 10.92 19.79 11.43 C 19.87 11.61 20.13 11.6 20.16 11.41 C 20.63 8.9 19.13 6.62 18.16 5.65 C 19.02 5.55 19.84 5.83 20.41 6.12 C 20.59 6.21 20.81 6.02 20.7 5.85 C 19.72 4.24 17.88 3.62 16.56 3.27 C 17.49 2.76 18.65 2.51 19.51 2.76 C 19.62 2.79 19.74 2.64 19.66 2.56 C 17.41 0.08 13.9 1.7 12.44 2.64 C 12.29 2.64 12.14 2.64 11.99 2.64 C 12.21 2.1 12.64 1.67 13 1.35 C 13.14 1.23 13.06 0.99 12.87 1.01 C 10.4 1.19 8.95 2.55 8.28 3.91 C 8.14 4.01 8.01 4.11 7.87 4.22 C 7.72 3.21 7.75 2.21 7.82 1.56 C 7.84 1.37 7.61 1.24 7.47 1.37 C 5.66 3.1 5.1 5.65 5.42 7.29 C 5.4 7.32 5.39 7.35 5.37 7.38 C 4.36 6.67 3.6 5.8 3.19 5.16 C 3.08 4.99 2.74 5.02 2.71 5.22 C 2.42 7.38 3.47 9.61 4.36 10.57 C 3.75 14.93 5.99 19.1 7.4 21 L 10.42 20.5 C 6.39 16 7.57 6.15 12.94 7.49 C 17.48 8.62 15.46 16 11.93 18 C 11.93 19 12.77 20.5 13.44 21 C 18.1 16.76 18.95 13.38 18.81 10.02 L 18.83 10.02" transform="matrix(1 0 0 1 0 0)" fill="#BF7A64" stroke="none" />
  <path d="M 20.98 19.39 C 20.44 18.23 19.85 17.22 19.23 16.34 C 18.53 17.5 17.49 18.61 16.16 19.88 C 16.42 20.21 16.67 20.55 16.94 20.91 C 16.98 20.96 17.04 20.99 17.11 20.99 C 19.62 20.96 20.7 19.89 20.97 19.58 C 21.01 19.53 21.02 19.45 20.99 19.39 L 20.98 19.39" transform="matrix(1 0 0 1 0 0)" fill="#BF7A64" stroke="none" />
</svg>
