<?xml version="1.0" encoding="UTF-8"?>
<!-- Reconstructed from Amplitude.Graphics.Svg.SvgAsset and recolored from static UIMapper.Color metadata for EWShop; not original source SVG. Live UI state/material colors are not included. -->
<svg xmlns="http://www.w3.org/2000/svg" width="22" height="22" viewBox="0 0 22 22">
  <path d="M 11.505 18.961 C 10.335 18.567 10.025 17.376 9.714 16.184 C 9.644 15.932 9.584 15.68 9.504 15.427 C 8.764 12.035 7.123 7.835 5.002 7.855 C 1.13 7.815 1 14.418 1 17.446 C 1.5 17.951 2.801 18.961 2.801 18.961 C 2.801 17.901 3.501 16.942 4.512 16.578 C 3.831 17.759 3.921 18.971 3.981 19.637 C 3.992 19.778 4.002 19.89 4.002 19.98 C 4.502 20.485 5.202 20.99 5.202 20.99 C 5.202 20.485 5.382 18.92 6.393 17.911 C 6.073 17.295 5.962 16.366 5.842 15.407 C 5.582 13.317 5.292 11.056 2.891 11.409 C 3.391 9.895 4.902 10.339 4.902 10.339 C 6.253 10.914 6.813 13.236 7.283 15.215 C 7.373 15.599 7.463 15.962 7.553 16.305 C 7.733 16.992 7.883 17.578 8.024 17.911 C 8.594 19.294 10.115 21.273 11.525 20.99 C 14.027 20.485 14.527 18.466 14.527 18.466 C 14.527 18.466 13.026 19.476 11.525 18.971 L 11.505 18.961 M 4.512 13.913 C 4.512 13.913 2.761 14.407 2.501 16.931 C 2.501 16.931 1.34 14.741 2.761 13.549 C 2.761 13.549 3.821 12.944 4.512 13.913" transform="matrix(1 0 0 1 0 0)" fill="#F3E884" stroke="none" />
  <path d="M 16.007 1.293 C 11.195 -0.09 9.004 3.817 8.003 6.845 C 8.053 6.916 8.113 6.997 8.194 7.098 C 8.684 7.774 9.654 9.087 10.004 9.874 C 10.505 7.35 12.316 3.231 15.507 3.817 C 19.819 4.604 21.01 12.903 18.008 16.295 C 19.009 10.743 16.818 6.674 15.007 6.341 C 13.006 6.341 11.505 9.369 10.925 12.398 C 14.507 8.36 15.747 9.369 16.508 11.399 C 17.698 14.569 16.007 18.961 16.007 18.961 C 19.509 16.941 21 13.559 21 11.399 C 21 7.855 19.509 2.302 16.007 1.293" transform="matrix(1 0 0 1 0 0)" fill="#F3E884" stroke="none" />
  <path d="M 13.506 11.894 L 12.005 13.408 C 15.507 13.408 13.006 16.942 13.006 16.942 C 17.008 14.418 16.007 12.398 13.506 11.894" transform="matrix(1 0 0 1 0 0)" fill="#F3E884" stroke="none" />
</svg>
