<?xml version="1.0" encoding="UTF-8"?>
<!-- Reconstructed from Amplitude.Graphics.Svg.SvgAsset and recolored from static UIMapper.Color metadata for EWShop; not original source SVG. Live UI state/material colors are not included. -->
<svg xmlns="http://www.w3.org/2000/svg" width="22" height="22" viewBox="0 0 22 22">
  <path d="M 7.5 10.5 L 7.5 9.27 C 5.09 10.55 3.72 12.85 4.93 16.43 C 4.93 13.78 6.14 12.18 7.71 11.48 C 7.58 11.18 7.51 10.84 7.51 10.49 L 7.5 10.5" transform="matrix(1 0 0 1 0 0)" fill="#A89476" stroke="none" />
  <path d="M 20.11 7.76 C 18.11 3.84 14.22 2.37 13.39 2.2 C 12.56 2.03 5.93 1.07 2.41 5.53 C 2.41 5.53 -0.4 8.38 1.91 13.46 C 1.91 13.46 1 8.64 6 5.99 L 6 7 C 6 7.55 6.45 8 7 8 C 7.55 8 8 7.55 8 7 L 8 5.17 C 8.07 5.15 8.13 5.13 8.2 5.11 C 8.28 5.09 8.36 5.06 8.44 5.04 C 8.62 4.99 8.81 4.95 9 4.92 C 9 4.95 9 4.97 9 5 L 9 9 C 9 9.55 9.45 10 10 10 C 10.55 10 11 9.55 11 9 L 11 5 C 11 5 11 4.96 11 4.94 C 14.63 5.48 18.98 8.65 16.98 14.95 C 16.98 14.95 17.15 9.45 12.5 8.51 L 12.5 10.51 C 12.5 10.94 12.39 11.35 12.19 11.71 C 12.31 11.77 12.43 11.84 12.54 11.92 C 12.64 11.98 12.74 12.05 12.83 12.12 C 13.58 12.72 13.97 13.31 13.97 14.46 C 13.97 15.13 13.73 15.68 13.39 16.09 C 12.76 15.43 11.7 15.01 10.5 15.01 C 8.57 15.01 7 16.13 7 17.51 C 7 18.89 8.57 20.01 10.5 20.01 C 12.84 20.01 15.17 19.77 17.23 18.53 C 20.87 16.34 21.98 11.44 20.11 7.77 L 20.11 7.76" transform="matrix(1 0 0 1 0 0)" fill="#A89476" stroke="none" />
</svg>
