<?xml version="1.0" encoding="UTF-8"?>
<!-- Reconstructed from Amplitude.Graphics.Svg.SvgAsset and recolored from static UIMapper.Color metadata for EWShop; not original source SVG. Live UI state/material colors are not included. -->
<svg xmlns="http://www.w3.org/2000/svg" width="22" height="22" viewBox="0 0 22 22">
  <path d="M 18.18 7.71 C 18.42 8.46 18.6 9 19 9 C 19.45 9 19.52 8.54 19.67 7.54 C 19.74 7.06 19.83 6.46 19.99 5.72 C 20.47 3.51 18.99 3.01 18.63 3.02 C 18.6 3.02 18.55 3.02 18.48 3.02 C 17.83 2.98 15.81 2.84 17.49 6.02 C 17.81 6.62 18.01 7.23 18.17 7.73 L 18.18 7.71" transform="matrix(1 0 0 1 0 0)" fill="#D8A66A" stroke="none" />
  <path d="M 20.56 14.23 C 20.16 14.59 19.41 15.28 18 13.69 C 18 13.69 18 10.02 16 10.02 C 15.85 9.63 15.81 9.24 15.78 8.88 C 15.68 7.9 15.6 7.12 13.51 7.12 C 12.94 5.91 13.18 5.55 13.5 5.1 C 13.74 4.76 14.01 4.36 14.01 3.5 C 14 1.5 12.76 1 11.5 1 C 10.41 1 9.46 1.73 9.5 3.5 C 9.52 4.26 10.08 4.76 10.56 5.19 C 10.92 5.51 11.24 5.8 11.26 6.13 C 11.26 6.23 11.26 6.32 11.28 6.42 C 11.32 7.05 11.35 7.58 10.74 8.7 C 10.24 9.61 10.32 9.84 10.41 10.15 C 10.45 10.27 10.49 10.41 10.5 10.61 C 10.53 11.29 10.29 11.92 10.02 12.03 C 9.84 12.11 9.82 11.94 9.77 11.67 C 9.71 11.3 9.62 10.74 9.08 10.36 C 8 10.05 8 8.71 8 8.71 C 8.02 8.59 8.07 8.42 8.14 8.22 C 8.46 7.24 9.01 5.52 6.41 5.52 C 3.26 5.52 5.13 9.49 6.15 10.35 C 7.51 11.52 6.91 13.02 6.15 13.52 C 5.84 13.72 5.66 13.43 5.42 13.04 C 5.08 12.48 4.63 11.73 3.51 12.04 C 1.88 12.85 2.53 13.81 3.06 14.59 C 3.5 15.24 3.85 15.76 2.69 15.94 C 0.13 16.34 1.27 17.08 1.27 17.08 C 1.59 17.47 2.16 17.92 2.56 18.21 C 2.84 18.41 3.21 18.44 3.52 18.3 C 4.05 18.08 4.91 17.75 5.66 17.6 C 5.31 17.03 5.01 16.51 5.01 16.16 C 5.01 15.53 5.68 14.52 6.51 14.52 C 7.34 14.52 8.01 15.53 8.01 16.16 C 8.01 16.55 7.64 17.15 7.23 17.8 C 7.59 18.12 7.59 18.65 7.59 18.89 L 7.59 18.91 C 7.59 19.25 6.91 19.48 6.91 19.48 C 6.91 19.48 5.94 19.82 5.94 20.13 C 5.94 20.44 6.38 20.95 8.47 21.01 C 10.56 21.07 12.64 20.13 12.64 20.13 C 12.92 20.08 12.91 19.68 12.88 19.18 C 12.85 18.47 12.81 17.53 13.6 17.03 C 13.64 16.38 13.32 15.84 13.01 15.34 C 12.74 14.9 12.49 14.48 12.5 14.02 C 12.56 12.33 13.72 12.04 14.36 12.03 C 15 12.03 16.76 12.23 16 15.02 C 15.93 15.29 15.77 15.5 15.61 15.72 C 15.41 15.99 15.19 16.29 15.08 16.77 C 15.73 16.92 16.27 17.4 16.74 17.81 C 17.21 18.22 17.61 18.58 18 18.51 C 20.91 18.14 21 17.26 21 16.83 C 21 13.84 20.96 13.88 20.56 14.24 L 20.56 14.23" transform="matrix(1 0 0 1 0 0)" fill="#D8A66A" stroke="none" />
</svg>
