<?xml version="1.0" encoding="UTF-8"?>
<!-- Reconstructed from Amplitude.Graphics.Svg.SvgAsset and recolored from static UIMapper.Color metadata for EWShop; not original source SVG. Live UI state/material colors are not included. -->
<svg xmlns="http://www.w3.org/2000/svg" width="22" height="22" viewBox="0 0 22 22">
  <path d="M 6.64 13.05 C 6.843 13.65 7.319 14.12 7.916 14.31 L 8.99 14.66 C 9.04 14.44 9.132 14.23 9.263 14.03 L 9.547 13.6 C 10.063 12.82 9.962 11.79 9.304 11.12 L 8.706 10.51 C 8.251 10.04 8.048 9.38 8.17 8.74 L 8.99 4.49 C 7.157 5.52 5.851 6.72 4.919 7.96 C 4.939 8.01 4.959 8.07 4.98 8.12 L 6.64 13.04 L 6.64 13.05" transform="matrix(1 0 0 1 0 0)" fill="#736865" stroke="none" />
  <path d="M 18.104 2.82 C 18.104 2.82 17.78 4.87 16.544 6.45 C 15.997 7.16 15.663 8.08 15.967 8.92 L 16.494 10.4 C 16.615 10.74 16.453 11.11 16.119 11.26 C 15.805 11.4 15.43 11.29 15.248 11 L 13.8 8.7 C 13.324 7.94 13.213 7.01 13.597 6.2 C 14.185 5 15.278 3.09 17.091 1 C 17.091 1 13.537 1.18 12.028 3 L 11.147 7.77 C 11.056 8.24 11.147 8.73 11.39 9.14 L 12.392 10.82 C 12.747 11.41 12.767 12.14 12.443 12.75 L 11.592 14.38 C 11.258 15.03 11.44 15.82 12.028 16.25 L 12.615 16.68 C 12.858 16.86 12.939 17.19 12.797 17.46 C 12.646 17.76 12.281 17.89 11.977 17.75 L 10.144 16.94 C 10.033 16.89 9.921 16.83 9.82 16.76 L 8.99 16.49 L 5.83 15.78 C 5.273 15.66 4.797 15.3 4.514 14.81 L 3.005 12.18 C 2.57 14.24 2.802 16.01 2.964 16.89 C 2.964 16.89 2.964 16.91 2.964 16.92 L 1.061 18.83 C 0.97 18.92 0.99 19.07 1.091 19.14 L 2.326 19.95 C 2.326 19.95 2.438 19.99 2.499 19.98 L 5.04 19.26 C 6.033 20.18 7.096 21 7.552 21 C 7.552 21 11.015 20 14.053 19 C 18.083 15 19.116 8 19.116 6 C 19.116 4 18.104 2.82 18.104 2.82" transform="matrix(1 0 0 1 0 0)" fill="#736865" stroke="none" />
  <path d="M 20.939 18.8 L 18.762 16.65 C 18.478 16.37 17.972 16.51 17.81 16.87 C 17.648 17.25 17.415 17.67 17.091 17.99 C 16.757 18.32 16.423 18.55 16.149 18.71 C 15.977 18.81 15.997 19.11 16.19 19.16 L 19.045 19.96 C 19.045 19.96 19.147 19.96 19.187 19.95 L 20.888 19.11 C 21.01 19.05 21.04 18.89 20.939 18.79 L 20.939 18.8" transform="matrix(1 0 0 1 0 0)" fill="#736865" stroke="none" />
</svg>
