<?xml version="1.0" encoding="UTF-8"?>
<!-- Reconstructed from Amplitude.Graphics.Svg.SvgAsset and recolored from static UIMapper.Color metadata for EWShop; not original source SVG. Live UI state/material colors are not included. -->
<svg xmlns="http://www.w3.org/2000/svg" width="22" height="22" viewBox="0 0 22 22">
  <path d="M 1.02 20.74 C 0.96 20.86 1.06 21 1.19 21 L 5.92 21 C 4.42 20 2.91 18.5 2.91 18.5 C 1.79 19.25 1.22 20.27 1.01 20.74 L 1.02 20.74" transform="matrix(1 0 0 1 0 0)" fill="#71AFBD" stroke="none" />
  <path d="M 17.44 16 C 16.79 16 16.2 16.25 15.76 16.65 C 15.83 17.67 16.48 18.83 18.72 18.24 C 18.83 18.21 18.91 18.36 18.81 18.42 C 16.84 19.57 15.59 19.03 14.95 18.26 C 14.95 18.34 14.94 18.42 14.94 18.51 C 14.94 19.89 15.44 21.51 17.95 20.51 C 20.45 19.51 19.95 18.51 19.95 18.51 C 19.95 17.13 18.83 16.01 17.45 16.01 L 17.44 16" transform="matrix(1 0 0 1 0 0)" fill="#71AFBD" stroke="none" />
  <path d="M 19.95 6.5 C 19.45 6.83 18.45 7.2 18.45 6 C 18.45 4.8 17.95 3.5 16.95 2.5 C 15.95 1.5 13.94 3 13.94 3 C 13.94 3 12.94 1.5 10.43 1 C 9.43 1.5 6.92 2.5 6.92 2.5 C 6.92 2.5 5.92 2 4.92 1 C 4.07 1.85 4.02 2.37 3.96 3.03 C 3.93 3.36 3.89 3.71 3.76 4.16 C 3.68 4.41 3.58 4.69 3.42 5 C 0.91 9.5 1.25 13.17 1.91 15 C 1.91 15 3.91 17 8.92 21 C 11.42 20.5 12.93 19.5 12.93 19.5 C 13.43 14 17.94 14 18.94 15 C 19.4 14.77 19.44 14.44 19.49 14 C 19.55 13.48 19.63 12.81 20.44 12 C 21.64 10.8 20.61 7.83 19.94 6.5 L 19.95 6.5 M 18.44 10 C 18.11 9.5 17.24 8.9 16.44 10.5 C 16.31 10.75 16.2 10.98 16.1 11.19 L 16.07 11.24 C 15.96 11.47 15.87 11.67 15.8 11.82 C 15.65 12.16 15.58 12.33 15.44 12.41 C 15.31 12.5 15.11 12.5 14.73 12.49 C 14.64 12.49 14.54 12.49 14.43 12.49 C 13.23 12.49 12.93 12.82 12.93 12.99 C 13.43 14.99 11.65 18.81 8.92 17.99 C 6.73 17.33 6.67 15.5 6.6 13.39 C 6.58 12.61 6.55 11.8 6.41 10.99 C 6.19 9.66 5.17 11.2 4.28 12.55 C 3.63 13.53 3.05 14.41 2.9 13.99 C 1.9 11.16 3.62 5.12 7.41 3.99 C 9.08 3.49 12.72 2.99 13.92 4.99 C 14.59 6.1 16.24 7.21 17.56 8.1 C 19.23 9.22 20.38 9.99 18.43 9.99 L 18.44 10" transform="matrix(1 0 0 1 0 0)" fill="#71AFBD" stroke="none" />
  <path d="M 9.93 14 C 11.035 14 11.93 12.657 11.93 11 C 11.93 9.343 11.035 8 9.93 8 C 8.826 8 7.93 9.343 7.93 11 C 7.93 12.657 8.826 14 9.93 14" transform="matrix(1 0 0 1 0 0)" fill="#71AFBD" stroke="none" />
</svg>
