<?xml version="1.0" encoding="UTF-8"?>
<!-- Reconstructed from Amplitude.Graphics.Svg.SvgAsset and recolored from static UIMapper.Color metadata for EWShop; not original source SVG. Live UI state/material colors are not included. -->
<svg xmlns="http://www.w3.org/2000/svg" width="22" height="22" viewBox="0 0 22 22">
  <path d="M 18.9 17.7 L 21 7.77 L 13.63 1.16 L 12.84 1 L 7.31 2.8 C 6.89 3.39 6.1 4.64 6.03 5.76 L 6.03 5.81 L 5.65 6.32 L 5.46 6 C 5.43 5.94 4.76 4.77 5.01 3.54 L 2.42 4.38 L 2.27 4.56 L 1.75 8.51 C 1.75 8.51 1.79 8.51 1.81 8.51 C 1.88 8.51 3.81 8.32 4.06 9.51 L 4.06 10.82 C 4.06 11.01 3.82 11.1 3.69 10.96 C 3.29 10.54 2.67 9.96 2.32 10.01 C 1.92 10.07 1.77 10.36 1.52 10.87 C 1.49 10.93 1.46 10.99 1.42 11.06 L 0.98 14.38 L 6.6 12.34 L 8.04 12.7 L 1.33 15 L 8.79 20.78 L 9.52 21 L 18.46 18.25 L 13.02 13.51 L 14.43 13.84 L 18.89 17.7 L 18.9 17.7 M 16.32 11.91 C 17.33 10.65 17.05 8.87 17.05 8.85 L 17.05 8.82 C 17.05 8.82 17.03 8.56 17.2 8.36 C 17.37 8.16 17.65 8.06 18.04 8.08 C 18.31 8.09 18.53 8.21 18.68 8.42 C 18.97 8.83 18.89 9.44 18.88 9.51 L 18.88 9.54 L 18.87 9.57 C 17.93 12.24 16.57 12.36 16.51 12.37 L 15.93 12.41 L 16.32 11.92 L 16.32 11.91 M 7.86 8.72 C 7.37 9.18 6.62 9.44 5.98 8.77 C 5.77 8.55 5.66 8.3 5.68 8.03 C 5.7 7.52 6.14 7.12 6.18 7.09 C 6.71 6.59 7.37 6.6 7.85 7.1 C 8.36 7.63 8.15 8.45 7.86 8.71 L 7.86 8.72 M 11.68 14.86 C 11.64 14.93 10.7 16.59 8.91 16.63 L 8.03 16.59 L 6.99 15.7 L 7.29 15.05 L 7.43 15.05 C 7.43 15.05 9.79 15.26 11.15 14.55 L 11.2 14.53 L 11.85 14.56 L 11.68 14.87 L 11.68 14.86 M 12.5 12.25 C 11.6 12.21 10.65 11.74 10.7 10.54 C 10.72 10.13 10.86 9.81 11.13 9.57 C 11.65 9.12 12.43 9.17 12.5 9.17 C 13.48 9.21 14.09 9.83 14.05 10.75 C 14.01 11.71 13.02 12.26 12.5 12.24 L 12.5 12.25 M 12.57 6.37 L 12.49 6.5 L 12.33 6.45 C 12.33 6.45 11.6 6.21 11.32 6.63 L 10.98 7.13 L 10.95 6.55 C 10.95 6.55 10.95 6.49 10.95 6.44 C 10.97 6 11.19 4.36 13.41 4.13 C 13.49 4.13 15.34 3.99 15.63 5.18 L 15.76 5.74 L 15.29 5.34 C 15.29 5.34 14.84 4.96 14.22 5.04 C 13.63 5.11 13.07 5.57 12.56 6.38 L 12.57 6.37" transform="matrix(1 0 0 1 0 0)" fill="#8581BB" stroke="none" />
</svg>
