<?xml version="1.0" encoding="UTF-8"?>
<!-- Reconstructed from Amplitude.Graphics.Svg.SvgAsset and recolored from static UIMapper.Color metadata for EWShop; not original source SVG. Live UI state/material colors are not included. -->
<svg xmlns="http://www.w3.org/2000/svg" width="22" height="22" viewBox="0 0 22 22">
  <path d="M 18.52 12.51 C 20.97 9.65 20.99 6.66 20.99 6.66 C 21.12 2.93 20.27 1.29 20.27 1.29 C 20.27 2.43 20.27 5.5 19.45 7.48 C 18.63 9.46 16.67 10.39 16.67 10.39 C 16.13 10.79 15.72 10.52 15.72 10.52 C 15.36 10.12 14.12 9.83 14.12 9.83 C 13.44 4.47 9.89 1 9.89 1 C 10.41 1.87 11.37 4.88 11.37 4.88 C 12.05 8.21 11.04 10.22 11.04 10.22 C 11.04 10.22 8.76 9.84 8.76 7.48 C 6.85 9.33 8.76 11.87 8.76 11.87 C 3 11.5 2.25 9.2 1 7 C 1 7 0.86 8.91 2.5 11.5 C 4.15 14.09 8.11 14.36 8.11 14.36 C 8.06 15.66 6.85 16.27 6.85 16.27 C 4.43 17.41 1 15.4 1 15.4 C 4.22 19.13 7.5 19 7.5 19 C 8.89 17.55 9.89 18.45 9.89 18.45 C 9.89 20 11.5 21 11.5 21 C 12 18 18 19 18 19 C 11.5 16.5 11.37 13.5 11.37 13.5 C 14.5 16.27 19 16 19 16 C 17 13.5 18.51 12.51 18.51 12.51 L 18.52 12.51" transform="matrix(1 0 0 1 0 0)" fill="#9B887D" stroke="none" />
</svg>
