<?xml version="1.0" encoding="UTF-8"?>
<!-- Reconstructed from Amplitude.Graphics.Svg.SvgAsset and recolored from static UIMapper.Color metadata for EWShop; not original source SVG. Live UI state/material colors are not included. -->
<svg xmlns="http://www.w3.org/2000/svg" width="25" height="25" viewBox="0 0 25 25">
  <path d="M 9.728 4.243 C 10.327 4.208 10.906 4.19 11.464 4.19 C 19.661 4.19 24.085 7.945 24.085 11.479 L 24.085 15.922 C 24.085 17.579 21.145 20.137 17.239 20.137 C 13.718 20.137 12.01 19.735 10.714 18.6 C 10.005 17.979 9.526 17.478 9.104 17.037 L 9.078 17.009 C 8.338 16.232 7.848 15.718 6.659 15.124 C 6.074 14.832 5.25 14.697 4.453 14.568 L 4.446 14.567 C 2.817 14.302 0.976 14.002 0.976 12.164 L 0.976 7.932 C 0.976 6.063 4.575 4.546 9.728 4.243 M 9.779 5.101 C 4.873 5.389 1.835 6.795 1.835 7.932 L 1.835 8.396 C 1.835 9.403 3.28 9.811 3.723 9.912 L 4.212 10.023 C 5.523 10.315 7.153 10.68 8.031 11.175 C 8.978 11.71 9.64 12.4 10.223 13.008 L 10.23 13.015 L 10.231 13.017 C 10.686 13.492 11.115 13.941 11.615 14.246 C 12.078 14.53 13.82 15.456 16.776 15.456 C 20.452 15.456 23.225 13.746 23.225 11.479 C 23.225 8.992 20.031 5.05 11.464 5.05 C 10.922 5.05 10.359 5.067 9.779 5.101 M 6.099 6.426 C 7.604 6.462 7.997 7.036 7.604 8.182 C 7.113 9.612 3.376 9.508 3.053 8.182 C 2.898 7.546 4.594 6.39 6.099 6.426 M 11.724 8.253 C 13.372 8.504 14.805 9.215 16.597 11.622 C 18.633 14.358 19.211 14.309 21.038 13.27 C 22.394 12.5 22.758 10.798 20.823 8.648 C 18.889 6.498 15.092 5.925 12.726 5.746 C 10.361 5.567 8.967 6.596 9.179 7.358 C 9.333 7.912 9.884 7.99 11.082 8.16 C 11.278 8.188 11.492 8.218 11.724 8.253 M 10.522 11.81 C 10.511 11.798 10.499 11.786 10.488 11.774 C 10.056 11.332 9.592 10.99 9.195 10.699 C 8.597 10.258 8.153 9.932 8.212 9.544 C 8.322 8.827 10.3 8.432 12.181 9.215 C 14.061 10 16.292 11.641 14.975 13.387 C 13.704 15.072 11.608 12.923 10.522 11.81" transform="matrix(1 0 0 1 0 0)" fill="#88C03F" stroke="none" />
</svg>
