<?xml version="1.0" encoding="UTF-8"?>
<!-- Reconstructed from Amplitude.Graphics.Svg.SvgAsset and recolored from static UIMapper.Color metadata for EWShop; not original source SVG. Live UI state/material colors are not included. -->
<svg xmlns="http://www.w3.org/2000/svg" width="32" height="32" viewBox="0 0 32 32">
  <path d="M 15.929 7.36 C 14.871 7.36 14.023 8.203 14.023 9.257 C 14.023 9.819 14.306 10.38 14.729 10.732 L 11.2 16.211 L 6.541 14.103 C 6.612 13.963 6.682 13.752 6.682 13.541 C 6.682 12.769 6.047 12.207 5.341 12.207 C 4.635 12.207 4 12.839 4 13.541 C 4 14.103 4.353 14.595 4.847 14.806 L 8.094 22.252 L 8.094 24.359 C 8.094 24.499 8.235 24.64 8.376 24.64 L 23.623 24.64 C 23.765 24.64 23.906 24.499 23.906 24.359 L 23.906 22.252 L 27.153 14.806 C 27.647 14.595 28 14.103 28 13.541 C 28 12.769 27.365 12.207 26.659 12.207 C 25.882 12.207 25.318 12.839 25.318 13.541 C 25.318 13.752 25.388 13.893 25.459 14.103 L 20.8 16.211 L 17.271 10.732 C 17.694 10.38 17.977 9.819 17.977 9.257 C 17.835 8.203 16.988 7.36 15.929 7.36" transform="matrix(1 0 0 1 0 0)" fill="none" stroke="none" />
</svg>
