<?xml version="1.0" encoding="UTF-8"?>
<!-- Reconstructed from Amplitude.Graphics.Svg.SvgAsset and recolored from static UIMapper.Color metadata for EWShop; not original source SVG. Live UI state/material colors are not included. -->
<svg xmlns="http://www.w3.org/2000/svg" width="38" height="34" viewBox="0 0 38 34">
  <path d="M 8.864 6.191 C 8.215 6.819 7.829 7.558 7.705 8.407 C 7.675 8.608 7.661 8.815 7.661 9.028 C 7.661 9.281 7.683 9.528 7.726 9.769 C 7.808 10.219 7.965 10.648 8.198 11.055 C 8.369 11.331 8.563 11.581 8.779 11.805 C 9.039 12.074 9.332 12.305 9.658 12.499 C 8.516 12.778 7.442 13.266 6.438 13.964 L 6.425 13.973 C 6.158 14.159 5.896 14.36 5.638 14.576 C 4.546 15.471 4 16.814 4 18.604 L 4 24 L 9 24 L 9 22.604 C 9 20.393 9.693 18.41 11.362 17.037 C 11.661 16.786 11.967 16.551 12.282 16.332 L 12.293 16.325 L 12.296 16.322 C 12.617 16.099 12.945 15.893 13.28 15.705 C 13.034 15.205 12.858 14.677 12.758 14.125 C 12.693 13.763 12.661 13.397 12.661 13.028 C 12.661 12.723 12.682 12.419 12.726 12.117 C 12.917 10.811 13.521 9.678 14.465 8.762 C 14.834 8.398 15.232 8.088 15.655 7.836 C 15.466 7.222 15.123 6.674 14.624 6.191 C 13.839 5.397 12.883 5 11.757 5 C 10.63 5 9.666 5.397 8.864 6.191" transform="matrix(1 0 0 1 0 0)" fill="#EBEBEB" stroke="none" />
  <path d="M 12.638 18.576 C 11.546 19.471 11 20.814 11 22.604 L 11 28 L 27 28 L 27 23.161 C 27 22.199 26.812 21.295 26.437 20.451 C 26.061 19.589 25.507 18.897 24.773 18.373 C 24.557 18.219 24.341 18.073 24.124 17.935 L 24.09 17.913 C 23.736 17.69 23.382 17.49 23.026 17.311 C 22.299 16.947 21.567 16.676 20.83 16.499 C 20.95 16.428 21.064 16.352 21.174 16.271 C 21.365 16.13 21.542 15.974 21.704 15.802 C 21.915 15.579 22.102 15.33 22.264 15.055 C 22.301 14.993 22.336 14.931 22.37 14.868 C 22.558 14.516 22.688 14.148 22.76 13.764 C 22.805 13.525 22.827 13.28 22.827 13.028 C 22.827 12.933 22.824 12.839 22.818 12.746 C 22.812 12.637 22.801 12.529 22.786 12.423 C 22.743 12.12 22.666 11.831 22.557 11.556 C 22.412 11.193 22.209 10.854 21.948 10.54 C 21.849 10.42 21.741 10.304 21.624 10.191 C 20.839 9.397 19.883 9 18.757 9 C 17.63 9 16.666 9.397 15.864 10.191 C 15.736 10.315 15.619 10.443 15.511 10.575 C 15.272 10.87 15.083 11.186 14.945 11.523 C 14.83 11.803 14.75 12.097 14.705 12.407 C 14.689 12.517 14.677 12.628 14.67 12.742 C 14.664 12.836 14.661 12.931 14.661 13.028 C 14.661 13.281 14.683 13.528 14.726 13.769 C 14.796 14.154 14.921 14.524 15.102 14.877 C 15.133 14.937 15.165 14.996 15.198 15.055 C 15.369 15.331 15.563 15.581 15.779 15.805 C 15.955 15.987 16.147 16.153 16.353 16.3 C 16.451 16.37 16.553 16.436 16.658 16.499 C 15.9 16.684 15.173 16.961 14.476 17.331 C 14.122 17.518 13.776 17.729 13.438 17.964 L 13.425 17.973 C 13.158 18.159 12.896 18.36 12.638 18.576" transform="matrix(1 0 0 1 0 0)" fill="#EBEBEB" stroke="none" />
  <path d="M 34 24 L 29 24 L 29 23.161 C 29 21.933 28.759 20.754 28.267 19.645 C 27.754 18.469 26.975 17.488 25.936 16.746 C 25.692 16.571 25.445 16.405 25.197 16.247 L 25.157 16.222 C 24.844 16.024 24.527 15.84 24.206 15.67 C 24.449 15.185 24.624 14.672 24.725 14.134 C 24.794 13.769 24.827 13.4 24.827 13.028 C 24.827 12.731 24.807 12.436 24.766 12.143 C 24.58 10.83 23.977 9.691 23.031 8.769 C 22.662 8.398 22.262 8.084 21.835 7.829 C 22.024 7.218 22.367 6.672 22.864 6.191 C 23.666 5.397 24.63 5 25.757 5 C 26.883 5 27.839 5.397 28.624 6.191 C 29.277 6.823 29.664 7.567 29.786 8.423 C 29.813 8.619 29.827 8.821 29.827 9.028 C 29.827 9.28 29.805 9.525 29.76 9.764 C 29.675 10.216 29.509 10.646 29.264 11.055 C 29.102 11.33 28.915 11.579 28.704 11.802 C 28.449 12.072 28.158 12.305 27.83 12.499 C 28.929 12.763 30.015 13.235 31.09 13.913 L 31.124 13.935 C 31.341 14.073 31.557 14.219 31.773 14.373 C 32.507 14.897 33.061 15.589 33.437 16.451 C 33.812 17.295 34 18.199 34 19.161 L 34 24" transform="matrix(1 0 0 1 0 0)" fill="#EBEBEB" stroke="none" />
</svg>
