<?xml version="1.0" encoding="UTF-8"?>
<!-- Reconstructed from Amplitude.Graphics.Svg.SvgAsset and recolored from static UIMapper.Color metadata for EWShop; not original source SVG. Live UI state/material colors are not included. -->
<svg xmlns="http://www.w3.org/2000/svg" width="58" height="58" viewBox="0 0 58 58">
  <path d="M 50.229 8.15 C 49.473 7.041 48.331 6.294 47.011 6.044 C 46.701 5.986 46.387 5.957 46.074 5.957 C 44.951 5.957 43.909 6.342 43.063 6.981 C 42.918 6.565 42.739 6.161 42.484 5.787 C 41.727 4.678 40.585 3.931 39.267 3.683 C 38.957 3.624 38.642 3.595 38.329 3.595 C 37.248 3.595 36.244 3.956 35.414 4.552 C 34.882 2.828 33.458 1.439 31.567 1.082 C 30.249 0.833 28.912 1.112 27.803 1.868 C 27.382 2.156 27.032 2.514 26.722 2.901 C 26.701 2.869 26.689 2.833 26.667 2.801 C 25.911 1.693 24.769 0.945 23.451 0.696 C 22.131 0.446 20.795 0.725 19.686 1.482 C 18.578 2.238 17.83 3.381 17.582 4.699 L 15.879 13.71 C 15.615 13.885 15.365 14.083 15.141 14.319 L 8.124 21.708 C 6.013 23.937 6.613 27.283 9.773 30.889 L 18.506 40.821 L 15.926 55.748 C 15.832 56.292 16.197 56.81 16.741 56.903 C 16.799 56.913 16.856 56.918 16.912 56.918 C 17.39 56.918 17.812 56.575 17.896 56.088 L 20.558 40.691 C 20.61 40.393 20.523 40.087 20.324 39.861 L 11.276 29.571 C 10.143 28.278 7.708 25.056 9.575 23.085 L 16.591 15.697 C 17.908 14.31 20.882 14.907 23.071 16.985 L 32.699 26.535 C 32.707 26.544 33.498 27.437 33.292 28.257 C 33.124 28.924 32.311 29.531 30.899 30.028 C 30.863 30.038 27.196 31.281 20.468 24.469 C 20.079 24.076 19.447 24.072 19.054 24.46 C 18.661 24.848 18.657 25.481 19.045 25.874 C 24.138 31.03 27.797 32.073 29.817 32.142 C 29.955 33.488 30.177 37.367 28.613 40.305 C 28.354 40.792 28.538 41.398 29.026 41.658 C 29.175 41.738 29.337 41.775 29.495 41.775 C 29.853 41.775 30.199 41.583 30.379 41.245 C 32.262 37.708 31.96 33.272 31.796 31.824 C 33.749 31.097 34.91 30.057 35.236 28.725 C 35.698 26.835 34.224 25.238 34.136 25.146 L 31.18 22.214 C 31.387 22.073 31.582 21.921 31.765 21.752 C 31.871 21.97 31.977 22.19 32.117 22.394 C 32.873 23.503 34.015 24.25 35.334 24.498 C 35.643 24.557 35.958 24.586 36.271 24.586 C 37.959 24.586 39.468 23.731 40.383 22.411 C 41.14 23.474 42.252 24.196 43.536 24.437 C 43.846 24.496 44.16 24.525 44.473 24.525 C 45.161 24.525 45.814 24.372 46.416 24.117 C 46.785 27.417 47.316 36.866 41.841 40.17 C 41.482 40.388 41.295 40.806 41.376 41.219 L 44.291 56.112 C 44.385 56.589 44.803 56.92 45.271 56.92 C 45.334 56.92 45.399 56.914 45.464 56.901 C 46.006 56.795 46.36 56.269 46.253 55.727 L 43.467 41.494 C 50.224 36.688 48.528 24.468 48.26 22.793 C 48.827 22.139 49.234 21.334 49.404 20.434 L 51.011 11.917 C 51.265 10.596 50.986 9.259 50.229 8.15 M 18.057 12.965 L 19.549 5.069 C 19.698 4.276 20.148 3.589 20.815 3.133 C 21.482 2.678 22.286 2.511 23.081 2.66 C 23.874 2.81 24.562 3.26 25.017 3.927 C 25.472 4.594 25.64 5.398 25.49 6.192 L 25.034 8.607 L 23.828 14.991 C 21.982 13.489 19.873 12.792 18.057 12.965 M 25.556 16.628 L 27 8.977 L 27.665 5.456 C 27.815 4.663 28.265 3.975 28.933 3.519 C 29.599 3.064 30.404 2.896 31.199 3.045 C 32.836 3.355 33.918 4.94 33.61 6.578 L 33.405 7.665 C 33.403 7.672 33.4 7.678 33.399 7.685 L 31.334 18.627 C 31.159 19.555 30.552 20.328 29.714 20.752 L 25.556 16.628 M 35.708 22.53 C 34.915 22.381 34.228 21.931 33.771 21.264 C 33.316 20.597 33.148 19.792 33.297 18.999 L 35.366 8.042 C 35.643 6.623 36.887 5.594 38.33 5.594 C 38.518 5.594 38.709 5.612 38.896 5.648 C 39.689 5.797 40.376 6.247 40.832 6.914 C 41.288 7.581 41.456 8.386 41.307 9.179 L 40.918 11.236 L 39.533 18.567 C 39.532 18.571 39.533 18.575 39.532 18.579 L 39.241 20.12 C 38.937 21.732 37.343 22.838 35.708 22.53 M 49.05 11.542 L 47.443 20.06 C 47.138 21.671 45.549 22.779 43.911 22.469 C 43.117 22.32 42.43 21.87 41.973 21.202 C 41.521 20.538 41.353 19.74 41.498 18.951 L 42.845 11.816 L 43.109 10.42 C 43.379 8.993 44.627 7.957 46.076 7.957 C 46.264 7.957 46.455 7.975 46.641 8.01 C 47.434 8.16 48.122 8.611 48.578 9.278 C 49.034 9.945 49.2 10.749 49.05 11.542" transform="matrix(1 0 0 1 0 0)" fill="none" stroke="none" />
</svg>
