<?xml version="1.0" encoding="UTF-8"?>
<!-- Reconstructed from Amplitude.Graphics.Svg.SvgAsset and recolored from static UIMapper.Color metadata for EWShop; not original source SVG. Live UI state/material colors are not included. -->
<svg xmlns="http://www.w3.org/2000/svg" width="45" height="45" viewBox="0 0 45 45">
  <path d="M 29.364 2 L 36.636 2 L 36.636 8.364 L 43 8.364 L 43 15.636 L 36.636 15.636 L 36.636 22 L 29.364 22 L 29.364 15.636 L 23 15.636 L 23 8.364 L 29.364 8.364 L 29.364 2" transform="matrix(1 0 0 1 0 0)" fill="none" stroke="none" />
  <path d="M 19.333 28.375 L 19.333 38.125 L 10.667 43 L 2 38.125 L 2 28.375 L 10.667 23.5 L 19.333 28.375 M 41 28.375 L 41 38.125 L 32.333 43 L 23.667 38.125 L 23.667 28.375 L 29.667 25 L 35 25 L 41 28.375 M 19.955 18.5 L 25.955 18.5 L 25.98 22.063 L 21.5 24.583 L 12.833 19.708 L 12.833 9.958 L 19.993 5.93 L 19.955 18.5" transform="matrix(1 0 0 1 0 0)" fill="none" stroke="none" />
</svg>
