<?xml version="1.0" encoding="UTF-8"?>
<!-- Reconstructed from Amplitude.Graphics.Svg.SvgAsset and recolored from static UIMapper.Color metadata for EWShop; not original source SVG. Live UI state/material colors are not included. -->
<svg xmlns="http://www.w3.org/2000/svg" width="45" height="45" viewBox="0 0 45 45">
  <path d="M 19.333 28.375 L 19.333 38.125 L 10.667 43 L 2 38.125 L 2 28.375 L 10.667 23.5 L 19.333 28.375 M 41 28.375 L 41 38.125 L 32.333 43 L 23.667 38.125 L 23.667 28.375 L 32.333 23.5 L 41 28.375" transform="matrix(1 0 0 1 0 0)" fill="none" stroke="none" />
  <path d="M 18.399 6.826 C 18.129 7.316 17.882 7.823 17.66 8.344 L 17.485 8.771 C 17.196 9.508 17.207 10.364 17.516 11.118 C 16.932 11.619 16.546 12.321 16.432 13.031 L 16.412 13.177 L 16.411 13.183 C 16.363 13.634 16.333 14.091 16.32 14.553 L 16.315 15.017 C 16.315 15.637 16.348 16.25 16.411 16.852 L 16.412 16.858 C 16.575 18.365 17.981 19.895 19.934 19.605 L 24.53 19.012 C 25.099 20.029 25.885 20.91 26.829 21.584 L 21.499 24.583 L 12.832 19.708 L 12.832 9.958 L 18.399 6.826 M 30.999 12.5 C 32.656 12.5 33.999 13.843 33.999 15.5 C 33.999 17.157 32.656 18.5 30.999 18.5 C 29.342 18.5 27.999 17.157 27.999 15.5 C 27.999 13.843 29.342 12.5 30.999 12.5 M 25.649 14.22 C 25.552 14.631 25.499 15.059 25.499 15.5 C 25.499 15.611 25.502 15.721 25.509 15.83 L 19.203 16.634 C 19.144 16.646 19.087 16.601 19.08 16.536 C 19.027 16.038 18.999 15.53 18.999 15.017 C 18.999 14.503 19.027 13.996 19.08 13.498 C 19.087 13.433 19.144 13.389 19.203 13.4 L 25.649 14.22 M 42.796 13.4 C 42.855 13.389 42.911 13.434 42.918 13.498 C 42.971 13.996 42.999 14.503 42.999 15.017 C 42.999 15.53 42.971 16.038 42.918 16.536 C 42.911 16.601 42.855 16.645 42.796 16.634 L 36.488 15.83 C 36.495 15.721 36.499 15.611 36.499 15.5 C 36.499 15.059 36.446 14.631 36.348 14.22 L 42.796 13.4 M 40.471 7.219 C 40.517 7.177 40.585 7.185 40.621 7.237 C 41.178 8.046 41.65 8.928 42.023 9.866 C 42.047 9.926 42.019 9.995 41.963 10.018 L 35.891 12.987 C 35.67 12.56 35.397 12.164 35.077 11.811 L 40.471 7.219 M 21.378 7.237 C 21.414 7.185 21.483 7.177 21.529 7.219 L 26.92 11.81 C 26.6 12.163 26.327 12.559 26.106 12.986 L 20.037 10.018 C 19.981 9.996 19.952 9.926 19.976 9.866 C 20.349 8.928 20.821 8.046 21.378 7.237 M 26.253 3.059 C 26.308 3.033 26.37 3.063 26.391 3.124 L 29.353 10.25 C 28.938 10.38 28.544 10.558 28.178 10.777 L 23.811 4.744 C 23.772 4.694 23.779 4.619 23.827 4.58 C 24.573 3.976 25.388 3.463 26.253 3.059 M 35.746 3.059 C 36.611 3.463 37.425 3.976 38.171 4.58 C 38.219 4.619 38.226 4.694 38.188 4.744 L 33.818 10.777 C 33.452 10.558 33.059 10.38 32.644 10.25 L 35.607 3.124 C 35.628 3.063 35.691 3.033 35.746 3.059 M 31 2 C 31.473 2 31.941 2.03 32.399 2.088 C 32.459 2.096 32.501 2.157 32.49 2.221 L 31.643 10.038 C 31.431 10.014 31.217 10 30.999 10 C 30.781 10 30.565 10.013 30.354 10.038 L 29.509 2.221 C 29.498 2.156 29.54 2.095 29.6 2.088 C 30.059 2.03 30.527 2 31 2" transform="matrix(1 0 0 1 0 0)" fill="none" stroke="none" />
</svg>
