<?xml version="1.0" encoding="UTF-8"?>
<!-- Reconstructed from Amplitude.Graphics.Svg.SvgAsset and recolored from static UIMapper.Color metadata for EWShop; not original source SVG. Live UI state/material colors are not included. -->
<svg xmlns="http://www.w3.org/2000/svg" width="45" height="45" viewBox="0 0 45 45">
  <path d="M 31.286 8.579 C 31.402 8.579 31.507 8.637 31.588 8.741 C 32.575 10.01 33.531 11.275 34.483 12.562 C 34.622 12.748 34.622 13.014 34.483 13.187 C 32.168 16.081 29.887 19.008 27.592 21.919 C 27.43 22.127 27.153 22.127 26.99 21.919 L 20.1 13.176 C 19.973 12.99 19.961 12.724 20.1 12.551 L 22.984 8.741 C 23.053 8.637 23.169 8.579 23.284 8.579 L 31.286 8.579 M 35.074 2.305 C 35.396 1.92 36.04 1.876 36.398 2.305 L 42.507 9.881 C 42.762 10.202 42.761 10.66 42.507 10.981 C 40.461 13.498 38.448 16.057 36.42 18.557 C 36.085 18.973 35.387 18.973 35.052 18.557 C 34.96 18.444 34.868 18.33 34.777 18.217 C 35.62 17.148 36.451 16.071 37.249 14.972 C 38.158 13.607 38.042 11.859 37.143 10.628 C 35.925 8.952 34.349 6.362 32.456 5.546 L 35.074 2.305" transform="matrix(1 0 0 1 0 0)" fill="none" stroke="none" />
  <path d="M 19.333 28.375 L 19.333 38.125 L 10.667 43 L 2 38.125 L 2 28.375 L 10.667 23.5 L 19.333 28.375 M 41 28.375 L 41 38.125 L 32.333 43 L 23.667 38.125 L 23.667 28.375 L 32.333 23.5 L 41 28.375 M 22.301 5.533 C 21.526 5.732 20.818 6.184 20.314 6.849 L 20.313 6.847 L 17.457 10.564 L 17.46 10.565 C 16.326 12.025 16.598 13.822 17.37 14.928 L 17.43 15.015 L 17.496 15.096 L 23.975 23.19 L 21.5 24.583 L 12.833 19.708 L 12.833 9.958 L 21.5 5.083 L 22.301 5.533" transform="matrix(1 0 0 1 0 0)" fill="none" stroke="none" />
</svg>
