<?xml version="1.0" encoding="UTF-8"?>
<!-- Reconstructed from Amplitude.Graphics.Svg.SvgAsset and recolored from static UIMapper.Color metadata for EWShop; not original source SVG. Live UI state/material colors are not included. -->
<svg xmlns="http://www.w3.org/2000/svg" width="45" height="45" viewBox="0 0 45 45">
  <path d="M 35.996 26.065 C 35.996 26.12 35.952 26.165 35.896 26.165 L 29.106 26.165 C 29.05 26.165 29.006 26.12 29.006 26.065 L 29.006 14.236 C 29.006 14.175 28.95 14.128 28.889 14.138 L 22.263 15.247 C 22.172 15.263 22.111 15.157 22.169 15.085 L 32.801 2.098 C 32.842 2.048 32.919 2.05 32.958 2.101 L 42.847 15.089 C 42.902 15.162 42.84 15.264 42.751 15.248 L 36.113 14.11 C 36.052 14.099 35.996 14.146 35.996 14.208 L 35.996 26.065" transform="matrix(1 0 0 1 0 0)" fill="none" stroke="none" />
  <path d="M 19.333 28.375 L 19.333 38.125 L 10.667 43 L 2 38.125 L 2 28.375 L 10.667 23.5 L 19.333 28.375 M 26.146 26.98 C 26.536 28.244 27.711 29.164 29.105 29.164 L 35.896 29.164 C 37.23 29.164 38.363 28.32 38.8 27.138 L 41 28.375 L 41 38.125 L 32.333 43 L 23.667 38.125 L 23.667 28.375 L 26.146 26.98 M 24.909 7 L 19.848 13.185 C 18.035 15.399 19.935 18.679 22.758 18.206 L 26.005 17.662 L 26.005 22.049 L 21.5 24.583 L 12.833 19.708 L 12.833 9.958 L 21.5 5.083 L 24.909 7" transform="matrix(1 0 0 1 0 0)" fill="none" stroke="none" />
</svg>
