<?xml version="1.0" encoding="UTF-8"?>
<!-- Reconstructed from Amplitude.Graphics.Svg.SvgAsset and recolored from static UIMapper.Color metadata for EWShop; not original source SVG. Live UI state/material colors are not included. -->
<svg xmlns="http://www.w3.org/2000/svg" width="30" height="30" viewBox="0 0 30 30">
  <path d="M 4.26 17.95 C 4.42 18.63 4.65 19.29 4.95 19.91 C 5.1 20.23 5.19 20.58 5.22 20.93 L 7.34 18.87 C 7.32 18.8 7.29 18.73 7.27 18.66 L 5.11 16.5 C 4.23 15.62 4.23 14.2 5.11 13.32 C 5.7 12.73 6.53 12.54 7.28 12.74 C 8.48 9.29 11.79 7.41 14.75 7.35 C 15.15 7.35 15.54 7.38 15.93 7.43 L 18.01 5.37 C 17.67 5.15 17.34 4.91 17 4.62 C 16.46 4.17 14.76 0.99 14.76 0.99 C 14.76 0.99 13.09 4.1 12.5 4.62 C 11.29 5.68 10.32 6.19 8.76 7.12 C 8.17 7.47 7.47 7.59 6.83 7.35 L 2.5 5.72 L 4.73 9.43 C 5.13 10.1 5.12 10.94 4.81 11.66 C 4.61 12.14 4.44 12.64 4.31 13.15 C 4.12 13.93 3.61 14.61 2.87 14.87 L 1.03 15.52 L 2.86 16.19 C 3.6 16.46 4.1 17.15 4.28 17.93 L 4.26 17.95" transform="matrix(1 0 0 1 0 0)" fill="#FFFFFF" stroke="none" />
  <path d="M 25.75 17.95 C 25.94 17.17 26.44 16.48 27.17 16.21 L 29 15.54 L 27.16 14.89 C 26.42 14.63 25.91 13.95 25.72 13.17 C 25.67 12.96 25.6 12.74 25.54 12.54 L 25.08 12.45 L 23.12 14.39 C 23.17 14.77 23.2 15.17 23.21 15.57 C 23.23 19.65 20.85 22.33 17.76 23.35 C 17.89 24.05 17.68 24.8 17.14 25.34 C 16.26 26.22 14.84 26.22 13.96 25.34 L 11.97 23.35 C 11.82 23.3 11.67 23.25 11.52 23.19 L 9.94 24.72 C 12.13 25.73 13.7 25.89 14.77 29 C 15.02 28.24 15.54 27.03 16.35 26.41 C 17.81 25.27 19.93 24.88 21.08 24.24 C 21.65 23.92 22.32 23.82 22.92 24.04 L 27.17 25.58 L 25.13 22.27 C 24.7 21.57 24.73 20.67 25.08 19.92 C 25.37 19.3 25.6 18.64 25.77 17.96 L 25.75 17.95" transform="matrix(1 0 0 1 0 0)" fill="#FFFFFF" stroke="none" />
  <path d="M 14.39 24.19 C 14.79 24.62 15.45 24.68 15.91 24.34 L 16.24 23.96 C 16.52 23.51 16.46 22.91 16.07 22.51 C 15.73 22.17 15.24 22.06 14.81 22.22 C 14 21.65 12.37 19.8 12.88 17.46 C 10.55 17.94 8.68 16.26 8.15 15.43 C 8.29 15 8.23 14.5 7.88 14.15 L 7.92 14.15 C 7.54 13.76 6.96 13.7 6.51 13.93 L 6.12 14.27 C 5.78 14.75 5.8 15.42 6.22 15.83 C 6.58 16.21 7.12 16.28 7.56 16.08 L 14.17 22.81 C 13.96 23.26 14.02 23.82 14.39 24.18 L 14.39 24.19" transform="matrix(1 0 0 1 0 0)" fill="#FFFFFF" stroke="none" />
  <path d="M 27.69 3.3 L 13.96 17 C 13.38 17.96 14.42 19.88 14.66 19.65 L 27.37 6.98 L 27.7 3.3 L 27.69 3.3" transform="matrix(1 0 0 1 0 0)" fill="#FFFFFF" stroke="none" />
  <path d="M 13.29 16.33 L 27.03 2.63 L 23.35 2.96 L 10.64 15.63 C 10.4 15.87 12.33 16.91 13.29 16.33" transform="matrix(1 0 0 1 0 0)" fill="#FFFFFF" stroke="none" />
  <path d="M 10.42 21.93 C 10.9 22.05 11.47 22.19 11.8 21.87 L 8.51 18.58 C 8.18 18.89 8.31 19.42 8.43 19.88 C 8.46 20 8.49 20.12 8.51 20.22 L 4.99 23.74 C 4.47 23.67 3.99 23.92 3.58 24.33 C 2.9 25.01 3.08 25.48 3.99 26.39 C 4.9 27.3 5.36 27.48 6.05 26.8 C 6.46 26.39 6.71 25.91 6.64 25.39 L 10.16 21.87 C 10.24 21.89 10.33 21.91 10.42 21.93" transform="matrix(1 0 0 1 0 0)" fill="#FFFFFF" stroke="none" />
</svg>
