<?xml version="1.0" encoding="UTF-8"?>
<!-- Reconstructed from Amplitude.Graphics.Svg.SvgAsset and recolored from static UIMapper.Color metadata for EWShop; not original source SVG. Live UI state/material colors are not included. -->
<svg xmlns="http://www.w3.org/2000/svg" width="32" height="32" viewBox="0 0 32 32">
  <path d="M 19 1 L 8.5 8.5 L 13 1 L 19 1" transform="matrix(1 0 0 1 0 0)" fill="#F27A60" stroke="none" />
  <path d="M 28.727 7.515 L 15.999 5.394 L 24.485 3.272 L 28.727 7.515" transform="matrix(1 0 0 1 0 0)" fill="#F27A60" stroke="none" />
  <path d="M 23.5 8.5 L 31 19 L 31 13 L 23.5 8.5" transform="matrix(1 0 0 1 0 0)" fill="#F27A60" stroke="none" />
  <path d="M 24.485 28.728 L 26.607 16 L 28.728 24.485 L 24.485 28.728" transform="matrix(1 0 0 1 0 0)" fill="#F27A60" stroke="none" />
  <path d="M 23.5 23.5 L 13 31 L 19 31 L 23.5 23.5" transform="matrix(1 0 0 1 0 0)" fill="#F27A60" stroke="none" />
  <path d="M 3.273 24.485 L 16.001 26.607 L 7.515 28.728 L 3.273 24.485" transform="matrix(1 0 0 1 0 0)" fill="#F27A60" stroke="none" />
  <path d="M 8.5 23.5 L 1 13 L 1 19 L 8.5 23.5" transform="matrix(1 0 0 1 0 0)" fill="#F27A60" stroke="none" />
  <path d="M 7.515 3.272 L 5.394 16 L 3.272 7.515 L 7.515 3.272" transform="matrix(1 0 0 1 0 0)" fill="#F27A60" stroke="none" />
  <path d="M 10.905 14.41 C 11.081 13.846 11.35 13.322 11.691 12.856 L 9.513 11.315 C 9.983 10.665 10.55 10.087 11.191 9.605 L 12.822 11.715 C 13.289 11.368 13.815 11.097 14.382 10.917 L 13.511 8.394 C 14.294 8.138 15.13 8 15.999 8 L 15.999 10.667 C 16.527 10.667 17.566 10.901 17.566 10.901 L 18.351 8.352 C 19.163 8.601 19.919 8.976 20.598 9.454 C 20.465 9.643 19.07 11.641 19.057 11.632 C 19.519 11.956 19.928 12.35 20.267 12.801 C 20.265 12.799 20.264 12.797 20.263 12.796 L 22.395 11.194 C 22.935 11.912 23.357 12.724 23.632 13.601 L 21.088 14.4 C 21.088 14.4 21.332 15.659 21.332 16 L 21.333 16 L 23.999 16 C 23.999 16.965 23.828 17.891 23.514 18.748 C 23.269 18.647 21.025 17.785 21.055 17.696 C 20.88 18.218 20.628 18.703 20.31 19.138 L 22.386 20.817 C 21.881 21.485 21.275 22.071 20.588 22.553 L 19.11 20.33 C 18.673 20.645 18.186 20.896 17.663 21.067 L 18.447 23.617 C 17.675 23.865 16.853 24 15.999 24 C 15.941 24 15.883 23.999 15.826 23.997 L 15.88 21.33 C 15.341 21.319 14.822 21.227 14.333 21.067 L 13.55 23.618 C 12.701 23.345 11.914 22.935 11.214 22.413 L 12.784 20.255 C 12.378 19.948 12.018 19.585 11.714 19.177 L 9.629 20.841 C 9.08 20.12 8.651 19.303 8.371 18.42 L 10.887 17.523 C 10.723 16.972 10.65 16.398 10.669 15.823 L 7.999 15.908 C 8.008 15.118 8.131 14.355 8.353 13.636 L 10.905 14.41 M 15.999 13.333 C 14.526 13.333 13.332 14.527 13.332 16 C 13.332 17.473 14.526 18.667 15.999 18.667 C 17.471 18.667 18.665 17.473 18.665 16 C 18.665 14.527 17.471 13.333 15.999 13.333" transform="matrix(1 0 0 1 0 0)" fill="#F27A60" stroke="none" />
</svg>
