<?xml version="1.0" encoding="UTF-8"?>
<!-- Reconstructed from Amplitude.Graphics.Svg.SvgAsset and recolored from static UIMapper.Color metadata for EWShop; not original source SVG. Live UI state/material colors are not included. -->
<svg xmlns="http://www.w3.org/2000/svg" width="36" height="36" viewBox="0 0 36 36">
  <path d="M 10.573 2.659 C 11.031 2.659 11.402 2.287 11.402 1.829 C 11.402 1.371 11.031 1 10.573 1 C 10.115 1 9.743 1.371 9.743 1.829 C 9.743 2.287 10.115 2.659 10.573 2.659" transform="matrix(1 0 0 1 0 0)" fill="#FFFFFF" stroke="none" />
  <path d="M 8.728 11.171 C 9.05 6.416 13.009 2.659 17.846 2.659 C 19.6 2.659 21.238 3.153 22.63 4.009 C 22.608 4.108 22.597 4.211 22.597 4.317 C 22.597 5.119 23.247 5.768 24.048 5.768 C 24.249 5.768 24.439 5.728 24.613 5.654 C 26.087 7.277 26.985 9.433 26.985 11.798 C 26.985 13.847 26.311 15.739 25.172 17.263 L 25.62 18.039 C 26.993 16.33 27.815 14.16 27.815 11.798 C 27.815 9.232 26.845 6.893 25.253 5.126 C 25.409 4.895 25.5 4.617 25.5 4.317 C 25.5 3.516 24.85 2.866 24.048 2.866 C 23.652 2.866 23.293 3.025 23.031 3.282 C 21.52 2.36 19.745 1.829 17.846 1.829 C 12.525 1.829 8.177 5.999 7.892 11.249 C 7.044 11.508 6.426 12.298 6.426 13.232 C 6.426 14.377 7.355 15.305 8.5 15.305 L 8.512 15.305 C 9.006 16.619 9.769 17.8 10.734 18.783 L 11.166 18.035 C 10.385 17.199 9.758 16.215 9.333 15.13 C 10.063 14.809 10.573 14.08 10.573 13.232 C 10.573 12.164 9.765 11.285 8.728 11.171" transform="matrix(1 0 0 1 0 0)" fill="#FFFFFF" stroke="none" />
  <path d="M 16.79 6.726 C 17.189 6.627 17.606 6.575 18.035 6.575 C 20.888 6.575 23.2 8.887 23.2 11.74 C 23.2 12.499 23.036 13.22 22.742 13.869 L 23.258 14.684 C 23.749 13.814 24.029 12.81 24.029 11.74 C 24.029 8.429 21.346 5.746 18.035 5.746 C 17.507 5.746 16.995 5.814 16.508 5.942 C 16.243 5.585 15.819 5.354 15.341 5.354 C 14.54 5.354 13.89 6.003 13.89 6.805 C 13.89 6.987 13.923 7.161 13.984 7.321 C 12.79 8.417 12.041 9.991 12.041 11.74 C 12.041 12.962 12.407 14.099 13.035 15.046 L 13.529 14.265 C 13.109 13.519 12.87 12.657 12.87 11.74 C 12.87 10.259 13.493 8.924 14.492 7.982 C 14.731 8.154 15.024 8.256 15.341 8.256 C 16.143 8.256 16.792 7.606 16.792 6.805 C 16.792 6.778 16.792 6.752 16.79 6.726" transform="matrix(1 0 0 1 0 0)" fill="#FFFFFF" stroke="none" />
  <path d="M 6.426 8.049 C 6.426 8.507 6.055 8.878 5.597 8.878 C 5.139 8.878 4.768 8.507 4.768 8.049 C 4.768 7.591 5.139 7.22 5.597 7.22 C 6.055 7.22 6.426 7.591 6.426 8.049" transform="matrix(1 0 0 1 0 0)" fill="#FFFFFF" stroke="none" />
  <path d="M 30.475 16.756 C 30.475 17.214 30.104 17.585 29.646 17.585 C 29.188 17.585 28.817 17.214 28.817 16.756 C 28.817 16.298 29.188 15.927 29.646 15.927 C 30.104 15.927 30.475 16.298 30.475 16.756" transform="matrix(1 0 0 1 0 0)" fill="#FFFFFF" stroke="none" />
  <path d="M 29.024 5.561 C 29.367 5.561 29.646 5.283 29.646 4.939 C 29.646 4.596 29.367 4.317 29.024 4.317 C 28.68 4.317 28.402 4.596 28.402 4.939 C 28.402 5.283 28.68 5.561 29.024 5.561" transform="matrix(1 0 0 1 0 0)" fill="#FFFFFF" stroke="none" />
  <path d="M 5.597 27.844 L 18.036 31.683 L 18.036 18 L 14.097 16.756 L 5.597 27.844" transform="matrix(1 0 0 1 0 0)" fill="#FFFFFF" stroke="none" />
  <path d="M 18.01 16.756 L 18.01 10.951 L 21.715 15.613 L 18.01 16.756" transform="matrix(1 0 0 1 0 0)" fill="#FFFFFF" stroke="none" />
  <path d="M 18.01 16.756 L 18.01 10.951 L 14.304 15.613 L 18.01 16.756" transform="matrix(1 0 0 1 0 0)" fill="#FFFFFF" stroke="none" />
  <path d="M 5.597 30.718 L 5.597 28.781 L 18.036 32.757 L 18.036 35 L 5.597 30.718" transform="matrix(1 0 0 1 0 0)" fill="#FFFFFF" stroke="none" />
  <path d="M 30.89 30.718 L 30.89 28.781 L 18.036 32.757 L 18.036 35 L 30.89 30.718" transform="matrix(1 0 0 1 0 0)" fill="#FFFFFF" stroke="none" />
  <path d="M 18.036 31.683 L 30.475 27.844 L 21.975 16.756 L 18.036 18 L 18.036 31.683 M 19.073 21.524 L 19.073 30.024 L 27.158 27.744 L 20.731 27.744 L 19.073 21.524" transform="matrix(1 0 0 1 0 0)" fill="#FFFFFF" stroke="none" />
</svg>
