<?xml version="1.0" encoding="UTF-8"?>
<!-- Reconstructed from Amplitude.Graphics.Svg.SvgAsset and recolored from static UIMapper.Color metadata for EWShop; not original source SVG. Live UI state/material colors are not included. -->
<svg xmlns="http://www.w3.org/2000/svg" width="25" height="25" viewBox="0 0 25 25">
  <path d="M 21.058 10.959 L 21.821 10.113 C 21.998 9.914 21.998 9.611 21.821 9.412 L 21.058 8.566 C 19.291 6.611 16.96 5.294 14.42 4.782 L 12.674 1.29 C 12.486 0.903 11.932 0.903 11.744 1.29 L 10.029 4.708 C 7.541 5.126 5.221 6.287 3.423 8.095 L 2.126 9.391 C 1.917 9.6 1.917 9.925 2.126 10.134 L 3.423 11.43 C 5.095 13.102 7.207 14.231 9.486 14.712 L 11.702 23.869 C 11.827 24.402 12.59 24.402 12.716 23.869 L 14.963 14.608 C 17.294 14.022 19.427 12.778 21.058 10.959 M 19.009 9.276 L 19.113 9.371 C 19.333 9.58 19.333 9.925 19.113 10.134 L 19.009 10.228 C 17.995 11.169 16.761 12.036 15.444 12.622 L 16.354 8.89 C 16.385 8.775 16.364 8.639 16.312 8.534 L 15.455 6.82 C 16.772 7.437 18.005 8.325 19.019 9.266 L 19.009 9.276 M 10.238 9.402 L 11.67 6.538 C 11.859 6.151 12.413 6.151 12.601 6.538 L 14.033 9.402 C 14.106 9.548 14.106 9.715 14.033 9.862 L 12.601 12.904 C 12.413 13.301 11.848 13.301 11.66 12.904 L 10.228 9.862 C 10.155 9.715 10.165 9.548 10.228 9.402 L 10.238 9.402 M 5.879 10.583 L 5.377 10.155 C 5.127 9.945 5.127 9.559 5.377 9.35 L 5.879 8.921 C 6.82 8.137 7.855 7.363 8.973 6.809 L 8.116 8.524 C 8.064 8.639 8.043 8.764 8.074 8.879 L 8.984 12.622 C 7.865 12.088 6.83 11.357 5.879 10.562 L 5.879 10.583" transform="matrix(1 0 0 1 0 0)" fill="#FFFFFF" stroke="none" />
  <path d="M 6.287 15.371 C 6.015 15.172 5.639 15.277 5.503 15.58 L 3.088 20.943 C 2.858 21.455 3.485 21.925 3.914 21.549 L 8.315 17.65 C 8.566 17.43 8.545 17.033 8.273 16.834 L 6.287 15.371" transform="matrix(1 0 0 1 0 0)" fill="#FFFFFF" stroke="none" />
  <path d="M 18.758 15.371 C 19.019 15.172 19.406 15.277 19.542 15.58 L 21.956 20.943 C 22.186 21.455 21.549 21.925 21.131 21.549 L 16.73 17.65 C 16.489 17.43 16.5 17.033 16.772 16.834 L 18.758 15.371" transform="matrix(1 0 0 1 0 0)" fill="#FFFFFF" stroke="none" />
  <path d="M 4.102 13.991 L 2.931 13.123 C 2.774 13.008 2.544 13.061 2.461 13.249 L 1.029 16.416 C 0.893 16.719 1.269 17.002 1.52 16.782 L 4.123 14.472 C 4.269 14.336 4.259 14.106 4.102 13.981 L 4.102 13.991" transform="matrix(1 0 0 1 0 0)" fill="#FFFFFF" stroke="none" />
  <path d="M 22.594 13.249 L 24.026 16.416 L 24.026 16.427 C 24.173 16.74 23.786 17.012 23.535 16.793 L 20.932 14.482 C 20.786 14.346 20.796 14.106 20.953 13.991 L 22.124 13.123 C 22.28 13.008 22.51 13.071 22.594 13.249" transform="matrix(1 0 0 1 0 0)" fill="#FFFFFF" stroke="none" />
</svg>
