<?xml version="1.0" encoding="UTF-8"?>
<!-- Reconstructed from Amplitude.Graphics.Svg.SvgAsset and recolored from static UIMapper.Color metadata for EWShop; not original source SVG. Live UI state/material colors are not included. -->
<svg xmlns="http://www.w3.org/2000/svg" width="24" height="24" viewBox="0 0 24 24">
  <path d="M 15.7 2.35 C 16.032 2.101 16.099 1.631 15.85 1.3 C 15.601 0.969 15.131 0.902 14.8 1.15 L 12.359 2.982 L 10.904 0.384 C 10.702 0.022 10.245 -0.107 9.884 0.096 C 9.522 0.298 9.393 0.755 9.596 1.117 L 11.858 5.157 C 12.266 5.884 12.494 6.698 12.524 7.531 L 12.562 8.562 C 11.936 8.275 11.27 8.079 10.709 7.945 C 10.191 7.822 9.721 7.742 9.38 7.693 L 9.366 7.691 L 8.317 2.861 C 8.229 2.456 7.83 2.199 7.425 2.287 C 7.02 2.375 6.763 2.774 6.851 3.179 L 7.758 7.353 C 6.948 7.101 6.21 6.656 5.608 6.053 L 3.778 4.224 C 3.485 3.931 3.011 3.931 2.718 4.224 C 2.425 4.517 2.425 4.992 2.718 5.284 L 4.547 7.114 C 4.971 7.537 5.446 7.901 5.961 8.196 C 5.64 8.324 5.316 8.478 4.998 8.66 C 3.588 9.473 2.289 10.879 2.004 13.157 C 1.953 13.568 2.244 13.943 2.655 13.994 C 3.066 14.046 3.441 13.754 3.492 13.343 C 3.708 11.621 4.659 10.587 5.747 9.96 C 6.845 9.328 8.062 9.127 8.712 9.121 C 8.733 9.123 8.764 9.126 8.803 9.13 C 8.888 9.14 9.012 9.155 9.165 9.177 C 9.474 9.222 9.898 9.294 10.361 9.405 C 11.328 9.635 12.311 9.997 12.849 10.504 C 13.248 10.879 13.547 11.246 13.787 11.605 C 13.151 11.375 12.465 11.25 11.75 11.25 C 9.047 11.25 6.755 13.041 6.007 15.5 C 3.782 15.514 2.275 16.124 1.516 17.115 C 0.712 18.166 0.899 19.46 1.72 20.281 C 2.416 20.977 3.847 21.772 5.775 22.394 C 7.731 23.024 10.272 23.5 13.25 23.5 C 15.769 23.5 18.097 23.156 19.958 22.619 C 20.356 22.504 20.586 22.088 20.471 21.691 C 20.356 21.293 19.94 21.063 19.542 21.178 C 17.827 21.673 15.64 22 13.25 22 C 10.429 22 8.044 21.549 6.235 20.966 C 4.399 20.374 3.23 19.67 2.78 19.22 C 2.454 18.894 2.392 18.439 2.707 18.026 C 2.92 17.749 3.351 17.433 4.111 17.227 C 4.041 17.4 4 17.589 4 17.794 C 4 18.51 4.497 19.029 4.995 19.369 C 5.518 19.726 6.225 20.018 7.031 20.251 C 8.655 20.72 10.853 21 13.25 21 C 15.647 21 17.846 20.72 19.469 20.251 C 20.275 20.018 20.982 19.726 21.505 19.369 C 22.003 19.029 22.5 18.51 22.5 17.794 C 22.5 17.175 22.125 16.702 21.718 16.376 C 21.302 16.043 20.744 15.769 20.113 15.544 C 19.723 15.405 19.294 15.608 19.155 15.998 C 19.016 16.388 19.219 16.817 19.609 16.957 C 20.16 17.153 20.546 17.359 20.78 17.546 C 20.952 17.684 20.991 17.769 20.999 17.793 C 20.99 17.82 20.939 17.94 20.659 18.131 C 20.322 18.361 19.784 18.599 19.052 18.81 C 17.599 19.23 15.547 19.5 13.25 19.5 C 10.953 19.5 8.901 19.23 7.448 18.81 C 6.716 18.599 6.179 18.361 5.841 18.131 C 5.561 17.94 5.51 17.82 5.502 17.793 C 5.51 17.769 5.548 17.684 5.721 17.546 C 5.803 17.48 5.905 17.412 6.026 17.342 L 6.374 17.458 C 9.864 18.621 13.636 18.621 17.126 17.458 L 17.74 17.254 C 17.746 17.252 17.75 17.246 17.75 17.239 C 17.75 15.836 17.265 14.545 16.455 13.524 L 17.566 11.903 L 21.674 10.676 C 22.071 10.557 22.296 10.14 22.178 9.743 C 22.059 9.346 21.641 9.12 21.245 9.239 L 18.374 10.096 C 18.488 9.485 18.466 8.849 18.298 8.235 L 17.413 4.99 C 17.304 4.591 16.892 4.355 16.492 4.464 C 16.093 4.573 15.857 4.985 15.966 5.385 L 16.851 8.63 C 17.057 9.385 16.921 10.192 16.478 10.837 L 15.704 11.966 C 15.37 11.273 14.895 10.44 14.102 9.631 L 14.023 7.476 C 13.984 6.405 13.691 5.359 13.167 4.424 L 13.099 4.302 L 15.7 2.35" transform="matrix(1 0 0 1 0 0)" fill="#FFFFFF" stroke="none" />
</svg>
