<?xml version="1.0" encoding="UTF-8"?>
<!-- Reconstructed from Amplitude.Graphics.Svg.SvgAsset and recolored from static UIMapper.Color metadata for EWShop; not original source SVG. Live UI state/material colors are not included. -->
<svg xmlns="http://www.w3.org/2000/svg" width="25" height="25" viewBox="0 0 25 25">
  <path d="M 5.068 13.944 L 6.418 14.694 L 7.518 14.794 L 10.068 14.694 L 11.518 13.744 L 13.318 15.394 L 12.668 16.894 L 13.368 17.594 L 14.468 18.194 L 15.718 17.544 L 17.018 17.844 L 18.168 15.894 L 18.418 16.894 L 20.068 14.044 L 20.368 12.794 L 21.627 13.091 L 22.118 11.194 C 22.118 11.194 22.335 10.661 22.368 10.594 C 22.401 10.528 22.435 10.444 22.468 10.344 C 22.568 9.911 22.651 9.627 22.718 9.494 L 22.768 9.394 C 22.801 9.327 22.818 9.277 22.818 9.244 L 23.318 9.094 L 23.368 9.094 C 23.435 9.094 23.501 9.127 23.568 9.194 C 23.635 9.227 23.685 9.294 23.718 9.394 L 23.718 9.494 C 23.718 9.627 23.668 9.777 23.568 9.944 C 23.535 9.977 23.518 10.011 23.518 10.044 C 23.451 10.111 23.418 10.161 23.418 10.194 L 23.368 10.144 L 23.368 10.194 L 23.368 10.244 L 23.368 10.544 L 23.368 10.894 C 23.368 10.928 23.418 10.944 23.518 10.944 C 23.585 10.978 23.635 10.994 23.668 10.994 C 23.701 10.961 23.751 10.894 23.818 10.794 L 23.868 10.744 L 24.218 10.944 L 24.218 11.044 L 24.268 11.094 L 24.318 11.244 L 24.218 11.344 C 24.051 11.478 23.851 11.611 23.618 11.744 L 23.618 11.794 L 23.468 11.844 C 23.135 12.011 22.968 12.111 22.968 12.144 L 22.868 12.594 L 22.818 12.694 L 22.818 12.794 L 22.768 12.844 L 22.768 12.894 C 22.668 13.028 22.601 13.111 22.568 13.144 C 22.568 13.178 22.585 13.194 22.618 13.194 L 22.668 13.294 L 22.268 13.794 L 22.268 14.844 L 22.168 15.594 L 22.218 16.294 L 22.268 17.094 L 22.218 17.794 L 22.218 18.694 L 20.468 19.094 L 18.968 19.494 L 17.418 19.894 L 15.918 20.294 L 14.268 20.544 L 12.668 21.044 L 11.318 20.644 L 11.168 20.644 C 10.701 20.778 10.451 20.861 10.418 20.894 C 10.251 20.994 10.001 21.244 9.668 21.644 C 9.635 21.678 9.551 21.828 9.418 22.094 C 9.351 22.261 9.301 22.378 9.268 22.444 C 9.235 22.511 9.185 22.561 9.118 22.594 L 8.568 23.144 L 8.518 23.194 C 8.485 23.194 8.451 23.211 8.418 23.244 L 8.168 23.394 C 8.168 23.428 8.135 23.478 8.068 23.544 L 7.968 23.694 L 7.818 23.644 L 7.718 23.644 C 7.685 23.611 7.635 23.578 7.568 23.544 C 7.501 23.544 7.401 23.528 7.268 23.494 L 7.268 23.444 L 6.818 23.344 C 6.718 23.378 6.535 23.428 6.268 23.494 C 6.101 23.561 5.968 23.611 5.868 23.644 L 5.568 23.744 L 5.568 23.444 L 5.568 23.294 L 5.418 23.194 L 5.218 23.144 L 5.368 22.794 L 5.418 22.744 C 5.551 22.644 5.685 22.594 5.818 22.594 L 6.718 22.594 C 6.818 22.594 6.951 22.611 7.118 22.644 L 7.168 22.644 L 7.418 22.744 L 7.718 22.794 L 7.768 22.794 C 7.968 22.828 8.085 22.844 8.118 22.844 L 8.118 22.794 L 8.118 22.544 C 8.118 22.378 8.101 22.278 8.068 22.244 C 7.868 22.111 7.685 22.028 7.518 21.994 L 7.418 21.944 L 7.118 21.444 L 7.218 21.044 L 7.418 21.044 C 7.751 21.078 8.018 21.094 8.218 21.094 C 8.618 21.161 8.851 21.178 8.918 21.144 C 8.985 21.144 9.151 20.994 9.418 20.694 L 9.518 20.494 L 9.668 20.294 L 9.468 20.294 L 8.118 19.844 L 6.218 20.844 L 6.468 19.494 L 4.818 19.144 L 3.068 18.744 L 3.018 17.844 L 3.068 17.044 L 3.368 16.294 L 3.168 15.644 L 3.118 14.844 L 3.068 13.244 L 3.468 12.444 L 3.918 11.844 L 3.818 11.694 L 3.868 11.594 L 3.818 11.444 L 4.018 11.094 L 4.068 10.844 C 4.201 10.478 4.268 10.261 4.268 10.194 C 4.235 10.128 4.101 9.944 3.868 9.644 L 3.868 9.594 C 3.668 9.361 3.518 9.144 3.418 8.944 L 3.318 8.794 L 3.418 8.694 C 3.451 8.661 3.501 8.627 3.568 8.594 C 3.701 8.427 3.768 8.327 3.768 8.294 L 3.968 8.344 L 4.018 8.344 L 4.168 8.294 C 4.235 8.461 4.268 8.561 4.268 8.594 L 4.318 8.644 C 4.318 8.677 4.468 8.777 4.768 8.944 C 4.835 8.944 4.935 8.911 5.068 8.844 L 5.268 8.694 L 5.268 8.644 C 5.268 8.644 4.84 8.116 4.668 7.944 C 4.635 7.877 4.601 7.827 4.568 7.794 L 4.518 7.794 L 4.418 7.594 C 4.185 7.227 4.035 6.961 3.968 6.794 C 3.901 6.694 3.868 6.561 3.868 6.394 L 3.868 6.294 L 4.118 6.044 L 4.268 6.144 C 4.368 6.177 4.418 6.211 4.418 6.244 C 4.451 6.244 4.501 6.211 4.568 6.144 L 4.818 5.994 L 4.868 6.294 C 4.868 6.394 4.885 6.544 4.918 6.744 C 5.018 7.011 5.068 7.194 5.068 7.294 L 5.418 7.594 C 5.518 7.727 5.601 7.794 5.668 7.794 L 5.818 7.944 L 5.868 8.044 L 5.968 8.144 L 5.918 8.244 L 5.818 8.394 L 5.818 8.694 C 5.818 8.694 5.701 9.361 5.618 9.694 C 5.618 9.727 5.585 9.777 5.518 9.844 C 5.485 9.911 5.418 10.028 5.318 10.194 C 5.151 10.428 5.068 10.561 5.068 10.594 C 4.868 11.094 4.768 11.444 4.768 11.644 C 4.768 11.678 4.835 11.928 4.968 12.394 C 5.001 12.494 5.018 12.578 5.018 12.644 L 5.068 12.744 L 5.068 12.944 L 5.468 13.294 L 5.068 13.944" transform="matrix(1 0 0 1 0 0)" fill="#FFFFFF" stroke="none" />
  <path d="M 12.69 5.017 L 13.151 4.22 L 13.229 4.069 L 13.413 3.75 L 19.14 1.935 L 20.439 7.79 L 19.703 9.066 L 18.404 3.211 L 12.69 5.017" transform="matrix(1 0 0 1 0 0)" fill="#FFFFFF" stroke="none" />
  <path d="M 7.823 9.013 L 8.559 7.737 L 13.592 6.388 L 13.96 5.75 L 15.813 5.119 L 16.264 5.735 L 16.023 6.941 L 17.045 5.959 L 16.74 4.803 L 17.667 4.487 L 18.427 8.329 L 18.058 8.967 L 19.407 13.999 L 18.685 15.25 L 17.321 10.243 L 16.585 11.519 L 17.663 15.545 L 16.771 17.09 L 15.688 16.836 L 14.501 17.459 L 13.818 17.065 L 13.539 16.795 L 14.194 15.661 C 14.394 15.314 14.479 14.931 14.47 14.555 L 14.863 12.89 L 16.308 12.359 L 14.378 12.155 L 13.827 13.108 C 13.606 12.856 13.342 12.625 13.062 12.463 C 12.449 12.109 11.507 11.974 10.997 12.105 C 10.487 12.253 10.018 12.578 9.727 13.082 L 9.216 13.967 L 7.55 14.128 L 6.67 14.076 L 5.981 13.677 L 8.105 10.027 L 12.118 8.941 L 12.855 7.665 L 7.823 9.013 M 14.05 10.575 C 14.886 11.058 15.966 10.779 16.448 9.943 C 16.931 9.107 16.636 8.027 15.8 7.544 C 14.964 7.062 13.897 7.348 13.411 8.19 C 12.925 9.032 13.214 10.093 14.05 10.575" transform="matrix(1 0 0 1 0 0)" fill="#FFFFFF" stroke="none" />
</svg>
