<?xml version="1.0" encoding="UTF-8"?>
<!-- Reconstructed from Amplitude.Graphics.Svg.SvgAsset and recolored from static UIMapper.Color metadata for EWShop; not original source SVG. Live UI state/material colors are not included. -->
<svg xmlns="http://www.w3.org/2000/svg" width="25" height="25" viewBox="0 0 25 25">
  <path d="M 13.896 19.289 L 22.599 19.679 C 23.329 19.679 23.91 19.089 23.91 18.379 L 23.91 5.071 C 23.91 4.891 23.87 4.731 23.82 4.601 C 23.619 4.201 23.179 3.961 22.599 3.77 L 22.459 3.73 L 20.748 3 L 23.7 3 C 24.42 3 25 3.59 25 4.301 L 25 19.699 C 25 20.42 24.41 21 23.7 21 L 12.535 20.49 L 12.465 20.49 L 1.301 21 C 0.58 21 0 20.41 0 19.699 L 0 4.311 C 0 3.59 0.59 3.01 1.301 3.01 L 4.252 3.01 L 2.541 3.74 L 2.401 3.78 C 1.821 3.971 1.381 4.211 1.18 4.611 C 1.12 4.751 1.09 4.911 1.09 5.081 L 1.09 18.389 C 1.09 19.109 1.681 19.689 2.401 19.689 L 11.104 19.299 C 11.104 19.299 12.105 19.869 12.495 19.869 C 12.885 19.869 13.896 19.299 13.896 19.299 L 13.896 19.289" transform="matrix(1 0 0 1 0 0)" fill="#FFFFFF" stroke="none" />
  <path d="M 21.848 5.641 L 21.828 16.448 C 21.828 17.028 21.358 17.508 20.768 17.508 L 13.615 17.288 C 13.615 17.288 12.844 16.858 12.484 16.858 C 12.124 16.858 11.354 17.308 11.354 17.308 L 4.211 17.528 C 3.611 17.528 3.14 17.058 3.14 16.468 L 3.12 5.661 C 3.12 5.661 5.691 4.321 6.612 4.011 C 6.712 3.981 6.812 3.941 6.922 3.921 L 6.922 12.775 L 9.693 9.424 L 12.474 12.775 L 12.474 4.631 C 12.524 4.561 12.764 4.271 13.204 3.991 C 13.625 3.72 14.235 3.47 15.035 3.48 C 15.745 3.48 17.126 3.59 18.347 3.991 C 19.257 4.301 21.828 5.641 21.828 5.641 L 21.848 5.641" transform="matrix(1 0 0 1 0 0)" fill="#FFFFFF" stroke="none" />
  <path d="M 12.494 4.501 C 11.694 3.7 7.992 2.5 3.49 5.501 C 2.657 6.335 4.891 6.302 6.492 5.501 C 8.092 4.701 9.993 4.501 12.994 5.501 C 13.494 6.002 13.294 5.301 12.494 4.501" transform="matrix(1 0 0 1 0 0)" fill="#FFFFFF" stroke="none" />
</svg>
