<?xml version="1.0" encoding="UTF-8"?>
<!-- Reconstructed from Amplitude.Graphics.Svg.SvgAsset and recolored from static UIMapper.Color metadata for EWShop; not original source SVG. Live UI state/material colors are not included. -->
<svg xmlns="http://www.w3.org/2000/svg" width="28" height="28" viewBox="0 0 28 28">
  <path d="M 5.903 20.448 L 3.22 22.562 L 1.342 20.617 C 1.221 20.488 1 20.577 1 20.757 L 1 26.811 C 1 26.811 1 26.88 1.02 26.9 C 1.05 26.96 1.121 27.01 1.201 27.01 L 7.299 27.01 C 7.48 27.01 7.57 26.791 7.44 26.671 L 5.38 24.706 L 7.912 22.951 C 7.41 21.455 5.903 20.458 5.903 20.458 L 5.903 20.448" transform="matrix(1 0 0 1 0 0)" fill="#FFFFFF" stroke="none" />
  <path d="M 19.968 13.496 C 19.957 12.928 19.887 8.759 17.818 6.804 C 17.757 6.745 15.105 8.869 15.105 8.869 L 15.808 4.59 C 15.808 4.59 14.824 4.002 13.94 4.002 C 12.815 4.002 12.091 4.59 12.091 4.59 L 12.784 8.869 L 12.202 8.41 C 11.94 8.201 11.629 7.951 11.318 7.712 C 10.916 7.403 10.524 7.104 10.293 6.934 C 10.243 6.904 10.202 6.874 10.172 6.854 C 10.122 6.824 10.092 6.804 10.082 6.804 C 8.042 8.999 7.942 12.768 7.922 13.476 L 7.922 13.566 C 10.212 16.279 8.203 19.241 8.073 19.43 C 8.073 19.43 9.65 20.358 11.277 23.938 L 11.277 20.966 C 11.277 20.966 10.434 19.64 10.333 19.131 L 10.333 19.101 C 10.283 18.832 10.172 18.074 10.946 17.386 C 11.016 17.326 11.227 17.177 11.247 17.077 C 11.247 17.047 11.257 16.957 11.267 16.857 L 11.287 16.518 L 11.287 16.289 L 11.298 16.269 C 11.328 15.97 10.092 14.374 9.559 13.696 L 9.419 13.496 C 9.077 13.018 9.529 11.951 9.921 12.05 C 9.921 12.05 13.056 12.719 13.126 12.788 C 13.699 13.417 13.247 16.089 13.186 16.439 L 13.186 16.468 L 13.94 17.436 L 14.713 16.468 C 14.673 16.309 14.161 13.447 14.764 12.788 C 14.814 12.748 17.526 11.961 18.139 12.07 C 18.471 12.24 18.802 13.088 18.471 13.486 L 18.43 13.546 C 18.139 13.945 16.582 16.07 16.582 16.219 C 16.582 16.289 16.582 16.369 16.582 16.458 L 16.582 16.538 L 16.602 16.698 C 16.612 16.867 16.632 17.007 16.642 17.057 C 16.642 17.127 16.702 17.196 16.773 17.246 C 16.823 17.286 16.873 17.326 16.913 17.346 L 16.954 17.376 C 17.747 18.064 17.617 18.892 17.566 19.121 C 17.486 19.42 17.205 20.109 16.632 20.956 L 16.632 23.928 C 18.41 20.408 19.837 19.43 19.837 19.43 C 19.726 19.221 18.209 16.568 19.978 13.536 L 19.978 13.486 L 19.968 13.496" transform="matrix(1 0 0 1 0 0)" fill="#FFFFFF" stroke="none" />
  <path d="M 1.342 7.433 L 3.22 5.488 L 6.405 8.48 C 6.907 6.984 8.414 5.488 8.414 5.488 L 5.38 3.344 L 7.44 1.389 C 7.57 1.269 7.48 1.05 7.299 1.05 L 1.201 1.05 C 1.09 1.04 1 1.13 1 1.24 L 1 7.293 C 1 7.473 1.221 7.563 1.342 7.433" transform="matrix(1 0 0 1 0 0)" fill="#FFFFFF" stroke="none" />
  <path d="M 26.99 1.13 C 26.99 1.13 26.97 1.08 26.95 1.07 C 26.91 1.03 26.86 1 26.799 1 L 20.701 1 C 20.52 1 20.43 1.219 20.56 1.339 L 22.62 3.304 L 19.586 5.448 C 19.586 5.448 21.093 6.944 21.595 8.44 L 24.78 5.448 L 26.659 7.393 C 26.779 7.522 27 7.433 27 7.253 L 27 1.199 C 27 1.199 27 1.15 26.99 1.13" transform="matrix(1 0 0 1 0 0)" fill="#FFFFFF" stroke="none" />
  <path d="M 26.658 20.537 L 24.78 22.482 L 22.097 20.368 C 22.097 20.368 20.59 21.365 20.088 22.861 L 22.62 24.616 L 20.56 26.581 C 20.43 26.701 20.52 26.92 20.701 26.92 L 26.799 26.92 C 26.859 26.92 26.909 26.9 26.94 26.86 C 26.95 26.85 26.96 26.83 26.97 26.82 C 26.99 26.79 26.99 26.761 26.99 26.721 L 26.99 20.667 C 26.99 20.597 26.96 20.547 26.909 20.507 C 26.829 20.448 26.719 20.448 26.638 20.527 L 26.658 20.537" transform="matrix(1 0 0 1 0 0)" fill="#FFFFFF" stroke="none" />
</svg>
