<?xml version="1.0" encoding="UTF-8"?>
<!-- Reconstructed from Amplitude.Graphics.Svg.SvgAsset and recolored from static UIMapper.Color metadata for EWShop; not original source SVG. Live UI state/material colors are not included. -->
<svg xmlns="http://www.w3.org/2000/svg" width="28" height="28" viewBox="0 0 28 28">
  <path d="M 16.99 7.33 L 16.99 7.18 C 16.99 6.8 16.68 6.5 16.31 6.5 L 3.7 6.5 C 3.32 6.5 3.02 6.8 3.02 7.18 L 3.02 7.33 C 3.02 7.53 3.11 7.71 3.24 7.83 C 3.36 7.94 3.52 8.01 3.7 8.01 L 16.31 8.01 C 16.69 8.01 16.99 7.71 16.99 7.33" transform="matrix(1 0 0 1 0 0)" fill="#FFFFFF" stroke="none" />
  <path d="M 18 4.48 L 18 3.74 C 18 3.44 17.8 3.17 17.5 3.09 L 10.19 1.03 C 10.07 1 9.94 1 9.82 1.03 L 2.5 3.08 C 2.21 3.16 2 3.43 2 3.73 L 2 4.47 C 2 4.85 2.31 5.15 2.68 5.15 L 17.31 5.15 C 17.69 5.15 17.99 4.85 17.99 4.47 L 18 4.48" transform="matrix(1 0 0 1 0 0)" fill="#FFFFFF" stroke="none" />
  <path d="M 14.13 9.36 C 13.75 9.36 13.45 9.66 13.45 10.04 L 13.45 13.59 L 15.6 13.59 L 15.6 10.04 C 15.6 9.66 15.29 9.36 14.92 9.36 L 14.13 9.36" transform="matrix(1 0 0 1 0 0)" fill="#FFFFFF" stroke="none" />
  <path d="M 11.08 12.5 L 11.08 10.04 C 11.08 9.88 11.02 9.73 10.93 9.62 C 10.81 9.46 10.61 9.36 10.4 9.36 L 9.61 9.36 C 9.23 9.36 8.93 9.66 8.93 10.04 L 8.93 12.5 L 11.08 12.5" transform="matrix(1 0 0 1 0 0)" fill="#FFFFFF" stroke="none" />
  <path d="M 5.09 9.36 L 5.88 9.36 C 6.26 9.36 6.56 9.66 6.56 10.04 L 6.56 15.83 C 6.56 16.21 6.25 16.51 5.88 16.51 L 5.09 16.51 C 4.71 16.51 4.41 16.2 4.41 15.83 L 4.41 10.04 C 4.41 9.66 4.72 9.36 5.09 9.36" transform="matrix(1 0 0 1 0 0)" fill="#FFFFFF" stroke="none" />
  <path d="M 25.5 14 C 25.41 14.11 25.2 14.53 24.94 15.08 C 24.03 16.95 22.39 20.32 22 18 L 21.5 15 L 21 15 L 18 18.5 L 15 15 L 14.5 15 L 14 18 C 13.5 21 10.4 14 10.4 14 L 10 14 L 11.03 23.92 C 11.08 24.18 11.26 24.39 11.5 24.49 L 11.51 24.49 L 18 26.99 L 24.53 24.56 C 24.78 24.46 24.96 24.24 25 23.99 L 26 13.99 L 25.5 13.99 L 25.5 14 M 18 25 L 15.5 22.5 L 18 20 L 20.5 22.5 L 18 25" transform="matrix(1 0 0 1 0 0)" fill="#FFFFFF" stroke="none" />
  <path d="M 3.7 17.85 C 3.32 17.85 3.02 18.15 3.02 18.53 L 3.02 19.32 C 3.02 19.7 3.33 20 3.7 20 L 9.16 20 L 8.93 17.85 L 3.7 17.85" transform="matrix(1 0 0 1 0 0)" fill="#FFFFFF" stroke="none" />
</svg>
