<?xml version="1.0" encoding="UTF-8"?>
<!-- Reconstructed from Amplitude.Graphics.Svg.SvgAsset and recolored from static UIMapper.Color metadata for EWShop; not original source SVG. Live UI state/material colors are not included. -->
<svg xmlns="http://www.w3.org/2000/svg" width="28" height="28" viewBox="0 0 28 28">
  <path d="M 12.527 17.781 L 8.843 13.924 L 8.833 13.924 C 8.529 13.599 8.258 13.242 8.562 12.993 C 8.583 12.993 8.713 12.884 8.768 12.841 C 8.8 12.808 8.898 12.483 8.898 12.256 C 8.898 12.256 7.912 10.143 7.771 9.905 C 7.587 9.591 7.977 8.8 7.998 8.768 C 8.085 8.703 8.15 8.681 8.226 8.703 C 8.226 8.703 11.823 9.374 11.844 9.396 C 12.31 10.328 11.823 12.364 11.823 12.364 L 12.527 13.144 L 13.22 12.364 C 13.22 12.364 13.22 12.353 13.22 12.332 C 13.166 12.072 12.743 10.187 13.274 9.32 L 16.828 8.703 C 16.903 8.681 16.979 8.703 17.044 8.768 C 17.077 8.789 17.467 9.591 17.283 9.905 C 17.142 10.143 16.156 12.256 16.156 12.256 C 16.156 12.483 16.253 12.808 16.286 12.841 C 16.329 12.884 16.47 12.982 16.492 12.993 C 16.6 13.079 16.633 13.177 16.622 13.285 C 16.817 13.155 17.012 13.036 17.207 12.928 C 17.174 12.7 17.163 12.473 17.163 12.223 C 17.163 11.584 17.911 10.089 18.041 9.938 C 18.041 9.938 18.117 5.637 15.636 4.001 L 13.588 6.048 L 14.228 1.488 C 14.228 1.488 13.513 1 12.538 1 C 11.563 1 10.837 1.477 10.837 1.477 L 11.476 6.059 L 9.418 4.001 C 9.266 4.12 7.023 5.81 7.023 9.938 C 7.023 9.981 7.078 10.068 7.164 10.198 C 7.392 10.533 7.782 11.129 7.771 11.909 C 7.749 12.733 7.63 13.469 7.533 13.913 L 1 13.913 L 2.842 15.419 L 8.378 15.419 L 5.615 16.318 L 6.081 17.521 L 8.388 17.521 L 9.309 19.319 L 11.151 19.319 L 12.538 21.28 L 13.253 20.273 C 13.242 20.067 13.231 19.861 13.231 19.655 C 13.231 18.409 13.523 17.228 14.054 16.188 L 12.538 17.77 L 12.527 17.781" transform="matrix(1 0 0 1 0 0)" fill="#FFFFFF" stroke="none" />
  <path d="M 21.258 12.917 L 15.083 14.401 L 15.083 20.424 C 15.083 23.598 19.124 26.328 21.258 26.989 C 25.689 25.137 27 22.569 27 20.424 L 27 14.401 L 21.258 12.917 M 21.204 25.743 C 19.611 25.212 16.578 22.905 16.578 20.37 L 16.578 15.365 L 21.204 14.173 L 21.204 25.743" transform="matrix(1 0 0 1 0 0)" fill="#FFFFFF" stroke="none" />
</svg>
