<?xml version="1.0" encoding="UTF-8"?>
<!-- Reconstructed from Amplitude.Graphics.Svg.SvgAsset and recolored from static UIMapper.Color metadata for EWShop; not original source SVG. Live UI state/material colors are not included. -->
<svg xmlns="http://www.w3.org/2000/svg" width="28" height="28" viewBox="0 0 28 28">
  <path d="M 17.09 5.91 C 16.79 5.75 16.54 5.51 16.36 5.2 L 13.99 1 L 11.65 5.19 C 11.48 5.5 11.22 5.75 10.92 5.91 L 7.01 7.95 L 10.94 10.09 C 11.24 10.25 11.48 10.49 11.65 10.8 L 14 15 L 16.38 10.79 C 16.55 10.49 16.79 10.25 17.08 10.09 L 21.01 7.95 L 17.1 5.91 L 17.09 5.91" transform="matrix(1 0 0 1 0 0)" fill="#FFFFFF" stroke="none" />
  <path d="M 9.25 16.65 C 8.71 16.65 8.51 18.04 8.37 19.08 C 8.25 20.03 8.12 21.02 7.87 21.69 C 7.76 21.23 7.66 20.85 7.56 20.52 C 7.12 18.94 6.96 18.39 8.25 15.71 C 8.71 14.76 9.25 13.34 9.25 12.42 C 9.25 12.42 9.43 11.01 7.87 11.01 C 7.87 11.01 7.76 13.14 6.67 14.76 C 5.74 16.14 5.09 16.92 4.66 17.42 C 4.2 17.96 4 18.2 4 18.54 C 4 19.01 4.05 19.43 4.11 19.85 C 4.22 20.73 4.34 21.66 4 23.24 C 4.9 24.6 7.26 26.23 8.75 27 C 8.75 26.06 9.06 25.35 9.37 24.65 C 9.68 23.94 9.99 23.24 9.99 22.3 L 9.99 20.75 C 9.99 20.75 10.02 18.97 9.99 17.89 C 9.99 17.89 10.08 16.66 9.25 16.66 L 9.25 16.65" transform="matrix(1 0 0 1 0 0)" fill="#FFFFFF" stroke="none" />
  <path d="M 23.89 19.84 C 23.94 19.42 24 19 24 18.53 C 24 18.19 23.8 17.96 23.34 17.41 C 22.91 16.9 22.26 16.12 21.33 14.75 C 20.24 13.13 20.13 11 20.13 11 C 18.57 11 18.75 12.41 18.75 12.41 C 18.75 13.34 19.29 14.75 19.75 15.7 C 21.04 18.37 20.88 18.93 20.44 20.51 C 20.35 20.84 20.24 21.23 20.13 21.68 C 19.88 21.02 19.75 20.02 19.63 19.07 C 19.49 18.03 19.29 16.64 18.75 16.64 C 17.92 16.64 18.01 17.87 18.01 17.87 C 17.98 18.95 18.01 20.73 18.01 20.73 L 18.01 22.28 C 18.01 23.22 18.32 23.93 18.63 24.63 C 18.94 25.34 19.25 26.04 19.25 26.98 C 20.74 26.2 23.1 24.58 24 23.22 C 23.66 21.63 23.78 20.71 23.89 19.83 L 23.89 19.84" transform="matrix(1 0 0 1 0 0)" fill="#FFFFFF" stroke="none" />
</svg>
