<?xml version="1.0" encoding="UTF-8"?>
<!-- Reconstructed from Amplitude.Graphics.Svg.SvgAsset and recolored from static UIMapper.Color metadata for EWShop; not original source SVG. Live UI state/material colors are not included. -->
<svg xmlns="http://www.w3.org/2000/svg" width="28" height="28" viewBox="0 0 28 28">
  <path d="M 9.566 3 L 4.023 9 L 4.023 11 L 9.566 5 L 9.566 3" transform="matrix(1 0 0 1 0 0)" fill="#FFFFFF" stroke="none" />
  <path d="M 13.093 16 L 11.985 14.9 C 11.702 15.89 10.775 16.61 9.687 16.61 C 8.367 16.61 7.278 15.55 7.278 14.24 C 7.278 12.93 8.296 11.93 9.566 11.86 L 9.566 7 L 6.039 11 L 6.039 12 L 1 17 L 1 18.96 L 6.039 14 L 6.039 16 L 2.008 20 L 2.008 26 L 6.039 26 L 6.039 22.49 C 6.039 21.71 6.371 21 6.875 20.48 C 7.399 19.98 8.558 19.5 9.566 19.5 C 10.574 19.5 11.743 19.98 12.257 20.48 C 12.761 21 13.093 21.7 13.093 22.49 L 13.093 26 L 17.124 26 L 17.104 20 L 13.093 16" transform="matrix(1 0 0 1 0 0)" fill="#FFFFFF" stroke="none" />
  <path d="M 19.139 12 L 19.643 12.7 C 20.147 12.4 20.55 12 20.852 11.5 L 20.147 11 L 19.442 10.5 C 19.643 10.2 19.845 9.9 19.945 9.5 L 20.852 9.8 L 21.759 10.1 C 21.961 9.6 22.062 9 22.062 8.4 L 20.147 8.4 C 20.147 8 20.046 7.6 19.945 7.3 L 20.852 7 L 21.759 6.7 C 21.739 6.64 21.709 6.58 21.689 6.51 C 21.507 6.05 21.306 5.55 20.953 5.2 L 20.147 5.7 L 19.442 6.2 C 19.311 6 19.139 5.85 18.948 5.68 C 18.847 5.59 18.746 5.5 18.635 5.4 L 19.139 4.7 L 19.643 4 C 19.24 3.7 18.736 3.4 18.131 3.2 L 17.93 4.1 L 17.628 4.9 C 17.224 4.8 16.922 4.8 16.519 4.8 L 16.519 3 C 15.914 3 15.411 3.1 14.806 3.3 L 15.108 4.1 L 15.411 5 C 15.007 5.1 14.705 5.3 14.403 5.5 L 13.798 4.7 L 13.294 4 C 12.891 4.3 12.488 4.7 12.085 5.2 L 12.79 5.7 L 13.496 6.2 C 13.445 6.35 13.375 6.53 13.294 6.7 C 13.214 6.87 13.143 7.05 13.093 7.2 L 12.186 7 L 11.38 6.7 C 11.178 7.2 11.077 7.8 11.077 8.3 L 12.891 8.3 C 12.891 8.7 12.992 9.1 13.093 9.4 L 12.186 9.7 L 11.38 10 C 11.581 10.5 11.783 11 12.186 11.5 L 12.891 11 L 13.597 10.5 C 13.798 10.8 14.1 11 14.403 11.2 L 13.798 12 L 13.294 12.7 C 13.798 13 14.302 13.3 14.806 13.5 L 15.108 12.6 L 15.411 11.8 C 15.713 11.9 16.116 11.9 16.519 11.9 L 16.519 13.7 C 17.124 13.7 17.628 13.6 18.232 13.4 L 17.93 12.6 L 17.628 11.8 C 18.031 11.7 18.333 11.5 18.635 11.3 L 19.139 12 M 18.293 8.57 C 18.262 8.67 18.232 8.78 18.232 8.9 C 18.182 9 18.131 9.07 18.081 9.15 C 18.031 9.22 17.98 9.3 17.93 9.4 C 17.9 9.43 17.869 9.47 17.839 9.51 C 17.759 9.61 17.668 9.73 17.527 9.8 C 17.426 9.9 17.224 10 17.023 10 C 16.922 10.1 16.721 10.1 16.519 10.1 C 16.318 10.1 16.116 10.1 15.914 10 C 15.763 10 15.673 9.95 15.552 9.88 C 15.552 9.88 15.461 9.83 15.411 9.8 L 15.007 9.4 C 14.977 9.35 14.957 9.3 14.927 9.26 C 14.856 9.14 14.806 9.05 14.806 8.9 C 14.705 8.7 14.705 8.5 14.705 8.3 C 14.705 8.1 14.705 7.9 14.806 7.7 C 14.836 7.65 14.856 7.6 14.866 7.56 C 14.917 7.44 14.957 7.35 15.108 7.2 C 15.108 7.13 15.199 7.07 15.29 7 C 15.33 6.97 15.38 6.93 15.411 6.9 C 15.511 6.85 15.582 6.8 15.662 6.75 C 15.743 6.7 15.814 6.65 15.914 6.6 L 16.519 6.6 C 16.721 6.6 16.922 6.6 17.124 6.7 C 17.224 6.7 17.426 6.8 17.527 6.9 C 17.728 7 17.829 7.1 17.93 7.3 C 18.031 7.4 18.131 7.6 18.232 7.8 C 18.333 8 18.333 8.2 18.333 8.4 C 18.333 8.44 18.313 8.5 18.293 8.57" transform="matrix(1 0 0 1 0 0)" fill="#FFFFFF" stroke="none" />
  <path d="M 25.689 15.2 C 25.71 15.14 25.73 15.08 25.75 15.02 C 25.831 14.81 25.891 14.63 25.891 14.4 C 25.891 14.1 25.891 13.8 25.79 13.6 L 26.496 13.4 L 27 13.5 C 26.798 12.7 26.294 11.9 25.689 11.4 C 25.689 11.4 25.367 11.62 25.186 11.8 C 25.004 11.98 24.783 12.3 24.783 12.3 C 24.379 11.9 23.876 11.7 23.271 11.7 L 23.372 11 L 23.472 10.3 C 22.565 10.2 21.759 10.4 21.054 10.9 L 21.356 11.5 L 21.658 12.1 C 21.054 12.4 20.752 12.8 20.449 13.3 L 19.845 13 L 19.24 12.8 C 19.038 13.2 18.938 13.6 18.938 14 C 18.938 14.4 18.938 14.9 19.038 15.3 L 19.744 15.1 L 20.449 14.9 C 20.55 15.5 20.852 16 21.356 16.3 L 20.953 16.8 L 20.55 17.3 C 21.155 17.8 21.961 18.2 22.868 18.3 L 22.969 17.6 L 23.069 16.9 C 23.674 16.9 24.279 16.8 24.682 16.5 L 24.984 17.1 L 25.286 17.7 C 25.992 17.3 26.596 16.6 26.899 15.8 L 26.294 15.5 L 25.689 15.2 M 24.379 14.5 C 24.379 14.5 24.349 14.62 24.329 14.7 C 24.309 14.78 24.279 14.85 24.279 14.9 C 24.178 15.2 23.976 15.4 23.775 15.5 C 23.573 15.6 23.271 15.7 22.969 15.7 C 22.666 15.7 22.364 15.6 22.162 15.4 C 21.961 15.2 21.759 15 21.759 14.7 L 21.759 14.3 C 21.759 14.2 21.759 14 21.86 13.9 C 21.961 13.6 22.162 13.4 22.364 13.3 C 22.565 13.2 22.868 13.1 23.17 13.1 C 23.472 13.1 23.775 13.2 23.976 13.4 C 24.178 13.6 24.379 13.8 24.379 14.1 L 24.379 14.5" transform="matrix(1 0 0 1 0 0)" fill="#FFFFFF" stroke="none" />
</svg>
