<?xml version="1.0" encoding="UTF-8"?>
<!-- Reconstructed from Amplitude.Graphics.Svg.SvgAsset and recolored from static UIMapper.Color metadata for EWShop; not original source SVG. Live UI state/material colors are not included. -->
<svg xmlns="http://www.w3.org/2000/svg" width="28" height="28" viewBox="0 0 28 28">
  <path d="M 19.61 22.65 L 22.04 20.22 L 18.49 20.22 L 16.16 22.65 L 19.61 22.65" transform="matrix(1 0 0 1 0 0)" fill="none" stroke="none" />
  <path d="M 27 11 L 23.05 12.22 L 22.14 15.86 L 25.68 14.95 L 27 11" transform="matrix(1 0 0 1 0 0)" fill="none" stroke="none" />
  <path d="M 23.05 19.2 L 25.48 16.77 L 21.94 16.77 L 19.61 19.2 L 23.05 19.2" transform="matrix(1 0 0 1 0 0)" fill="none" stroke="none" />
  <path d="M 17.68 15.96 L 15.35 18.29 L 15.35 21.84 L 17.78 19.41 L 17.68 15.96" transform="matrix(1 0 0 1 0 0)" fill="none" stroke="none" />
  <path d="M 21.13 12.52 L 18.8 14.85 L 18.8 18.39 L 21.23 15.96 L 21.13 12.52" transform="matrix(1 0 0 1 0 0)" fill="none" stroke="none" />
  <path d="M 14.54 12.01 L 13.63 19.91 L 11 26.19 L 14.54 22.65 L 14.54 12.01" transform="matrix(1 0 0 1 0 0)" fill="none" stroke="none" />
  <path d="M 11.71 27 L 18.09 24.37 L 25.89 23.46 L 15.25 23.46 L 11.71 27" transform="matrix(1 0 0 1 0 0)" fill="none" stroke="none" />
  <path d="M 5.61 9.65 C 6.4 10.3 7.41 10.69 8.5 10.69 C 9.59 10.69 10.58 10.31 11.37 9.65 C 11.81 9.29 12.18 8.85 12.48 8.34 C 12.92 7.61 13.19 6.76 13.19 5.83 C 13.19 3.16 11.09 1 8.5 1 C 5.91 1 3.81 3.16 3.81 5.83 C 3.81 6.76 4.07 7.61 4.5 8.34 C 4.8 8.85 5.19 9.3 5.61 9.65" transform="matrix(1 0 0 1 0 0)" fill="none" stroke="none" />
  <path d="M 12.48 12.83 C 11.43 13.78 10.04 14.34 8.51 14.34 C 6.68 14.34 5.06 13.54 3.94 12.23 C 2.28 13.52 1.17 15.52 1 17.79 C 3.15 19.21 5.74 20.01 8.51 20.01 C 9.56 20.01 10.58 19.89 11.57 19.67 C 11.71 18.22 12.09 15.31 12.48 12.84 L 12.48 12.83" transform="matrix(1 0 0 1 0 0)" fill="none" stroke="none" />
</svg>
