<?xml version="1.0" encoding="UTF-8"?>
<!-- Reconstructed from Amplitude.Graphics.Svg.SvgAsset and recolored from static UIMapper.Color metadata for EWShop; not original source SVG. Live UI state/material colors are not included. -->
<svg xmlns="http://www.w3.org/2000/svg" width="30" height="30" viewBox="0 0 30 30">
  <path d="M 15.118 23.875 C 15.864 23.875 16.858 24.25 17.231 24.625 C 17.605 25 17.854 25.5 17.854 26.125 L 17.854 28.75 L 13.626 28.75 C 13.129 28.75 12.631 28.625 12.134 28.625 L 12.134 26.125 C 12.134 25.5 12.383 25 12.756 24.625 C 13.129 24.25 14.123 23.875 14.869 23.875 L 15.118 23.875 M 11.388 1.25 C 19.843 6.375 18.973 8.375 18.476 9.75 C 18.351 10.25 18.103 10.75 18.476 11.25 C 18.709 11.563 19.097 11.75 19.47 11.75 C 19.963 11.75 22.171 11.135 22.205 11.125 C 21.832 13.625 22.703 14.875 23.697 16.25 C 24.319 17.125 25.066 18.125 25.315 19.375 C 25.936 22 25.066 24.25 23.076 26.125 C 22.455 26.625 21.833 27.125 21.087 27.5 L 21.087 24.125 L 17.854 21.125 L 17.854 19.625 L 21.832 23.375 L 21.832 21.875 L 17.854 18.125 L 17.854 17.375 L 14.994 14.375 L 12.134 17.375 L 12.134 18.125 L 8.155 21.875 L 8.155 23.375 L 12.134 19.625 L 12.134 21.125 L 8.901 24.125 L 8.901 27.375 C 6.788 26.25 5.295 24.5 4.673 22.375 C 4.424 21.375 4.3 20.375 4.425 19.25 C 4.674 16.875 6.663 14.5 8.528 12.125 C 11.388 8.375 14.372 4.875 11.388 1.25 M 14.994 18.125 C 15.989 18.125 16.859 18.875 16.859 19.875 C 16.859 20.875 15.989 21.625 14.994 21.625 C 13.999 21.625 13.129 20.875 13.129 19.875 C 13.129 18.875 13.999 18.125 14.994 18.125 M 10.518 15.375 L 10.518 16.875 L 14.869 12.375 L 19.222 16.875 L 19.222 15.375 L 14.869 10.875 L 10.518 15.375" transform="matrix(1 0 0 1 0 0)" fill="#FFFFFF" stroke="none" />
</svg>
