<?xml version="1.0" encoding="UTF-8"?>
<!-- Reconstructed from Amplitude.Graphics.Svg.SvgAsset and recolored from static UIMapper.Color metadata for EWShop; not original source SVG. Live UI state/material colors are not included. -->
<svg xmlns="http://www.w3.org/2000/svg" width="25" height="25" viewBox="0 0 25 25">
  <path d="M 4.68 7.56 C 4.38 7.73 4.07 7.91 3.76 8.11 L 3.76 19.22 L 11.12 18.76 C 11.12 18.76 12.11 17.83 12.5 17.83 C 12.89 17.83 13.88 18.76 13.88 18.76 L 21.24 19.22 L 21.24 8.11 C 20.94 7.88 20.63 7.67 20.32 7.49 C 20.32 11.83 16.82 15.35 12.5 15.35 C 8.18 15.35 4.73 11.87 4.68 7.56" transform="matrix(1 0 0 1 0 0)" fill="#C17B53" fill-opacity="0.8" stroke="none" />
  <path d="M 19.57 4.11 C 19.83 4.66 20.03 5.25 20.16 5.86 L 22.63 7.02 L 22.63 20.61 L 21.25 20.61 L 13.89 20.15 L 13.02 19.57 C 12.71 19.36 12.31 19.36 12 19.57 L 11.13 20.15 L 3.77 20.61 L 2.39 20.61 L 2.39 7.02 L 4.86 5.86 C 4.99 5.25 5.19 4.66 5.45 4.11 L 1 6.09 L 1 22 L 3.76 22 L 11.12 21.54 L 11.99 20.96 C 12.3 20.75 12.7 20.75 13.01 20.96 L 13.88 21.54 L 21.24 22 L 24 22 L 24 6.09 L 19.57 4.11" transform="matrix(1 0 0 1 0 0)" fill="#C17B53" fill-opacity="0.8" stroke="none" />
  <path d="M 12.5 13.96 C 16.06 13.96 18.94 11.06 18.94 7.48 C 18.94 3.9 16.06 1 12.5 1 C 8.94 1 6.06 3.9 6.06 7.48 C 6.06 11.06 8.94 13.96 12.5 13.96 M 14.66 3.35 L 15.03 3.18 C 16.44 4.02 17.4 5.55 17.47 7.3 L 15.49 9.12 L 15.05 8.54 L 16 6.77 L 15.97 5.7 L 15.05 6.32 L 14.77 5.25 L 14.35 4.49 L 14.67 3.36 L 14.66 3.35 M 14.35 9.54 L 13.41 10.64 L 12.96 12.28 L 11.58 11.46 L 10.84 11.06 L 10.46 10.65 L 10.08 9.76 L 10.57 8.66 L 11.15 9.13 L 12.26 9.55 L 14.13 8.4 L 14.36 9.55 L 14.35 9.54 M 7.82 9.12 L 7.82 9.08 C 7.65 8.58 7.54 8.05 7.54 7.48 C 7.54 5.55 8.62 3.88 10.21 3.04 L 10.45 3.34 L 10.14 4.07 L 10.56 4.64 L 11.88 4.7 L 13.41 4.79 L 12.39 5.5 L 11.34 5.71 L 11.88 6.47 L 12.06 6.76 L 11.57 7.48 L 10.83 7.27 L 10.19 7.53 L 9.96 8.01 L 8.96 8.01 L 8.55 7.5 L 8.06 7.7 L 7.81 8.12 L 7.81 9.07 C 7.81 9.07 7.82 9.11 7.83 9.12 L 8.56 9.53 L 9.04 10.63 L 9.04 11.06 C 8.49 10.53 8.09 9.86 7.83 9.12 L 7.81 9.12 L 7.82 9.12" transform="matrix(1 0 0 1 0 0)" fill="#C17B53" fill-opacity="0.8" stroke="none" />
</svg>
