<?xml version="1.0" encoding="UTF-8"?>
<!-- Reconstructed from Amplitude.Graphics.Svg.SvgAsset and recolored from static UIMapper.Color metadata for EWShop; not original source SVG. Live UI state/material colors are not included. -->
<svg xmlns="http://www.w3.org/2000/svg" width="25" height="25" viewBox="0 0 25 25">
  <path d="M 7.22 11.195 L 12.49 13.506 L 17.8 11.265 C 18 11.175 18.15 10.975 18.18 10.735 L 19.49 1 L 18.58 1 C 18.51 1.1 18.34 1.49 18.12 1.99 C 17.38 3.721 16.05 6.833 15.73 4.692 L 15.32 1.92 L 14.91 1.92 L 12.47 5.152 L 10.03 1.92 L 9.62 1.92 L 9.21 4.692 C 8.84 7.463 6.33 1 6.33 1 L 6.41 1 L 5.5 1 L 6.84 10.665 C 6.88 10.905 7.02 11.095 7.22 11.195 M 12.5 7.003 L 14.53 8.854 L 12.5 10.705 L 10.47 8.854 L 12.5 7.003" transform="matrix(1 0 0 1 0 0)" fill="#3E84AA" stroke="none" />
  <path d="M 3.76 19.279 L 11.12 18.828 C 11.12 18.828 12.11 17.918 12.5 17.918 C 12.89 17.918 13.88 18.828 13.88 18.828 L 21.24 19.279 L 21.24 8.413 C 20.9 8.163 20.56 7.943 20.22 7.743 L 19.48 11.855 C 19.43 12.145 19.23 12.395 18.96 12.515 L 12.88 15.317 C 12.63 15.427 12.35 15.427 12.1 15.317 L 6.01 12.515 C 5.74 12.395 5.55 12.155 5.5 11.865 L 4.72 7.843 C 4.4 8.013 4.08 8.203 3.75 8.403 L 3.75 19.279 L 3.76 19.279" transform="matrix(1 0 0 1 0 0)" fill="#3E84AA" stroke="none" />
  <path d="M 20.71 5.002 L 20.47 6.363 L 22.62 7.353 L 22.62 20.659 L 21.24 20.659 L 13.88 20.209 L 13.01 19.639 C 12.7 19.439 12.3 19.439 11.99 19.639 L 11.12 20.209 L 3.76 20.659 L 2.38 20.659 L 2.38 7.343 L 4.44 6.393 L 4.18 5.042 L 1 6.433 L 1 22 L 3.76 22 L 11.12 21.55 L 11.99 20.98 C 12.3 20.78 12.7 20.78 13.01 20.98 L 13.88 21.55 L 21.24 22 L 24 22 L 24 6.443 L 20.71 5.002" transform="matrix(1 0 0 1 0 0)" fill="#3E84AA" stroke="none" />
</svg>
