<?xml version="1.0" encoding="UTF-8"?>
<!-- Reconstructed from Amplitude.Graphics.Svg.SvgAsset and recolored from static UIMapper.Color metadata for EWShop; not original source SVG. Live UI state/material colors are not included. -->
<svg xmlns="http://www.w3.org/2000/svg" width="32" height="32" viewBox="0 0 32 32">
  <path d="M 29.882 3.047 C 30.272 2.557 29.642 1.917 29.142 2.287 L 16.452 11.497 C 16.262 11.637 16.002 11.637 15.812 11.497 L 2.862 2.107 C 2.362 1.747 1.742 2.367 2.112 2.857 L 11.832 15.677 C 11.972 15.867 11.972 16.127 11.832 16.317 L 2.112 29.137 C 1.742 29.627 2.362 30.247 2.862 29.887 L 15.782 20.517 C 15.982 20.377 16.252 20.377 16.442 20.537 L 27.692 29.677 C 28.172 30.067 28.832 29.477 28.482 28.967 L 19.812 16.327 C 19.682 16.137 19.692 15.877 19.832 15.697 L 29.882 3.047" transform="matrix(1 0 0 1 0 0)" fill="#FF8585" stroke="none" />
</svg>
