<?xml version="1.0" encoding="UTF-8"?>
<!-- Reconstructed from Amplitude.Graphics.Svg.SvgAsset and recolored from static UIMapper.Color metadata for EWShop; not original source SVG. Live UI state/material colors are not included. -->
<svg xmlns="http://www.w3.org/2000/svg" width="24" height="24" viewBox="0 0 24 24">
  <path d="M 5.8 11.671 C 5.297 12.009 4.695 12.202 4.043 12.202 C 3.056 12.202 2.183 11.761 1.585 11.039 C 0.693 11.751 0.095 12.853 0 14.107 C 1.158 14.888 2.553 15.33 4.043 15.33 C 4.17 15.33 4.296 15.326 4.421 15.32 C 4.579 13.951 5.069 12.698 5.8 11.671" transform="matrix(1 0 0 1 0 0)" fill="#FFFFFF" stroke="none" />
  <path d="M 17.871 18.207 C 16.187 19.344 14.173 20 12.006 20 C 9.84 20 7.811 19.359 6.128 18.222 C 6.266 16.4 7.135 14.796 8.432 13.761 C 9.302 14.811 10.571 15.452 12.006 15.452 C 13.441 15.452 14.711 14.811 15.566 13.761 C 16.863 14.796 17.747 16.4 17.871 18.207" transform="matrix(1 0 0 1 0 0)" fill="#FFFFFF" stroke="none" />
  <path d="M 15.667 7.877 C 15.667 8.621 15.46 9.306 15.115 9.889 C 14.88 10.297 14.59 10.647 14.245 10.939 C 13.624 11.463 12.852 11.769 11.996 11.769 C 11.141 11.769 10.354 11.463 9.733 10.939 C 9.402 10.662 9.098 10.297 8.864 9.889 C 8.533 9.306 8.326 8.621 8.326 7.877 C 8.326 5.735 9.968 4 11.996 4 C 14.025 4 15.667 5.735 15.667 7.877" transform="matrix(1 0 0 1 0 0)" fill="#FFFFFF" stroke="none" />
  <path d="M 5.898 4.861 C 5.436 4.331 4.775 4 4.04 4 C 2.645 4 1.515 5.193 1.515 6.667 C 1.515 7.178 1.657 7.649 1.885 8.05 C 2.047 8.331 2.255 8.582 2.483 8.772 C 2.91 9.133 3.451 9.344 4.04 9.344 C 4.487 9.344 4.901 9.222 5.261 9.005 C 5.196 8.64 5.16 8.262 5.16 7.874 C 5.16 6.78 5.428 5.753 5.898 4.861" transform="matrix(1 0 0 1 0 0)" fill="#FFFFFF" stroke="none" />
  <path d="M 18.214 11.675 C 18.949 12.704 19.442 13.958 19.59 15.32 C 19.715 15.326 19.84 15.33 19.967 15.33 C 21.457 15.33 22.842 14.878 24 14.096 C 23.915 12.853 23.307 11.751 22.415 11.039 C 21.827 11.761 20.954 12.202 19.967 12.202 C 19.318 12.202 18.718 12.011 18.214 11.675" transform="matrix(1 0 0 1 0 0)" fill="#FFFFFF" stroke="none" />
  <path d="M 18.742 9.011 C 18.809 8.643 18.845 8.264 18.845 7.874 C 18.845 6.779 18.577 5.751 18.106 4.859 C 18.568 4.331 19.229 4 19.963 4 C 21.358 4 22.487 5.193 22.487 6.667 C 22.487 7.178 22.345 7.649 22.108 8.05 C 21.947 8.331 21.747 8.572 21.51 8.772 C 21.083 9.133 20.551 9.344 19.963 9.344 C 19.52 9.344 19.103 9.224 18.742 9.011" transform="matrix(1 0 0 1 0 0)" fill="#FFFFFF" stroke="none" />
</svg>
