<?xml version="1.0" encoding="UTF-8"?>
<!-- Reconstructed from Amplitude.Graphics.Svg.SvgAsset and recolored from static UIMapper.Color metadata for EWShop; not original source SVG. Live UI state/material colors are not included. -->
<svg xmlns="http://www.w3.org/2000/svg" width="24" height="24" viewBox="0 0 24 24">
  <path d="M 20.363 9.306 C 20.372 9.287 20.372 9.278 20.372 9.278 L 20.382 9.278 C 22.088 2.915 11.927 -0.42 10.537 5.855 C 7.536 -2.974 -10.477 7.571 10.575 18.532 C 10.933 18.718 11.016 18.676 10.824 18.406 C 10.46 17.539 10.259 16.594 10.259 15.601 C 10.259 11.659 13.345 8.535 17.218 8.545 C 18.359 8.545 19.423 8.815 20.363 9.306 M 2.416 9.402 C 1.457 5.856 4.334 4.418 6.251 4.418 C 4.778 5.646 3.99 7.596 3.478 8.862 C 2.991 10.068 2.754 10.654 2.416 9.402" transform="matrix(1 0 0 1 0 0)" fill="#FFFFFF" stroke="none" />
  <path d="M 17.325 10.515 C 20.007 10.515 22.123 12.624 22.123 15.287 C 22.123 18.014 20.029 20.134 17.314 20.134 C 14.621 20.134 12.452 17.982 12.452 15.308 C 12.452 12.635 14.621 10.494 17.325 10.504 L 17.325 10.515 M 20.52 15.372 C 20.531 13.562 19.11 12.113 17.314 12.102 C 15.572 12.102 14.098 13.54 14.066 15.277 C 14.034 17.034 15.53 18.536 17.304 18.547 C 19.067 18.547 20.52 17.119 20.531 15.372 L 20.52 15.372" transform="matrix(1 0 0 1 0 0)" fill="#FFFFFF" stroke="none" />
  <path d="M 23.256 14.946 C 23.812 16.821 23.438 18.515 22.091 19.91 C 20.702 21.359 18.981 21.828 17.015 21.284 C 18.736 21.188 20.285 20.677 21.514 19.41 C 22.722 18.163 23.235 16.651 23.256 14.946" transform="matrix(1 0 0 1 0 0)" fill="#FFFFFF" stroke="none" />
  <path d="M 19.387 15.341 C 19.387 16.438 18.426 17.386 17.325 17.397 C 16.16 17.397 15.241 16.481 15.252 15.298 C 15.252 14.159 16.182 13.242 17.293 13.242 C 18.447 13.242 19.398 14.191 19.387 15.341" transform="matrix(1 0 0 1 0 0)" fill="#FFFFFF" stroke="none" />
</svg>
