<?xml version="1.0" encoding="UTF-8"?>
<!-- Reconstructed from Amplitude.Graphics.Svg.SvgAsset and recolored from static UIMapper.Color metadata for EWShop; not original source SVG. Live UI state/material colors are not included. -->
<svg xmlns="http://www.w3.org/2000/svg" width="20" height="20" viewBox="0 0 20 20">
  <path d="M 1 6.5 C 1.336 6.5 1.671 6.469 2 6.408 L 2 2 L 6.408 2 C 6.469 1.671 6.5 1.336 6.5 1 L 7.5 1 C 7.5 1.854 7.332 2.699 7.005 3.487 C 6.679 4.276 6.2 4.993 5.596 5.596 C 4.993 6.2 4.276 6.679 3.487 7.005 C 2.699 7.332 1.854 7.5 1 7.5 L 1 6.5 M 3.105 6.081 C 3.07 6.096 3.035 6.11 3 6.123 L 3 3 L 6.123 3 C 6.11 3.035 6.096 3.07 6.081 3.105 C 5.805 3.772 5.4 4.378 4.889 4.889 C 4.378 5.4 3.772 5.805 3.105 6.081" transform="matrix(1 0 0 1 0 0)" fill="#FFFFFF" stroke="none" />
  <path d="M 1 13.5 C 1.336 13.5 1.671 13.531 2 13.592 L 2 18 L 6.408 18 C 6.469 18.329 6.5 18.664 6.5 19 L 7.5 19 C 7.5 18.146 7.332 17.301 7.005 16.513 C 6.679 15.724 6.2 15.007 5.596 14.404 C 4.993 13.8 4.276 13.321 3.487 12.995 C 2.699 12.668 1.854 12.5 1 12.5 L 1 13.5 M 3.105 13.919 C 3.07 13.904 3.035 13.89 3 13.877 L 3 17 L 6.123 17 C 6.11 16.965 6.096 16.93 6.081 16.895 C 5.805 16.228 5.4 15.622 4.889 15.111 C 4.378 14.6 3.772 14.195 3.105 13.919" transform="matrix(1 0 0 1 0 0)" fill="#FFFFFF" stroke="none" />
  <path d="M 18 6.408 C 18.329 6.469 18.664 6.5 19 6.5 L 19 7.5 C 18.146 7.5 17.301 7.332 16.513 7.005 C 15.724 6.679 15.007 6.2 14.404 5.596 C 13.8 4.993 13.321 4.276 12.995 3.487 C 12.668 2.699 12.5 1.854 12.5 1 L 13.5 1 C 13.5 1.336 13.531 1.671 13.592 2 L 18 2 L 18 6.408 M 17 6.123 C 16.965 6.11 16.93 6.096 16.895 6.081 C 16.228 5.805 15.622 5.4 15.111 4.889 C 14.6 4.378 14.195 3.772 13.919 3.105 C 13.904 3.07 13.89 3.035 13.877 3 L 17 3 L 17 6.123" transform="matrix(1 0 0 1 0 0)" fill="#FFFFFF" stroke="none" />
  <path d="M 19 13.5 C 18.664 13.5 18.329 13.531 18 13.592 L 18 18 L 13.592 18 C 13.531 18.329 13.5 18.664 13.5 19 L 12.5 19 C 12.5 18.146 12.668 17.301 12.995 16.513 C 13.321 15.724 13.8 15.007 14.404 14.404 C 15.007 13.8 15.724 13.321 16.513 12.995 C 17.301 12.668 18.146 12.5 19 12.5 L 19 13.5 M 16.895 13.919 C 16.93 13.904 16.965 13.89 17 13.877 L 17 17 L 13.877 17 C 13.89 16.965 13.904 16.93 13.919 16.895 C 14.195 16.228 14.6 15.622 15.111 15.111 C 15.622 14.6 16.228 14.195 16.895 13.919" transform="matrix(1 0 0 1 0 0)" fill="#FFFFFF" stroke="none" />
  <path d="M 2 2 L 3.929 2 L 3.929 3 L 3 3 L 3 3.929 L 2 3.929 L 2 2" transform="matrix(1 0 0 1 0 0)" fill="#FFFFFF" stroke="none" />
  <path d="M 2 18 L 3.929 18 L 3.929 17 L 3 17 L 3 16.071 L 2 16.071 L 2 18" transform="matrix(1 0 0 1 0 0)" fill="#FFFFFF" stroke="none" />
  <path d="M 16.071 2 L 18 2 L 18 3.929 L 17 3.929 L 17 3 L 16.071 3 L 16.071 2" transform="matrix(1 0 0 1 0 0)" fill="#FFFFFF" stroke="none" />
  <path d="M 18 18 L 16.071 18 L 16.071 17 L 17 17 L 17 16.071 L 18 16.071 L 18 18" transform="matrix(1 0 0 1 0 0)" fill="#FFFFFF" stroke="none" />
  <path d="M 18 10 C 13.812 9.489 10.511 6.188 10 2 C 9.489 6.188 6.188 9.489 2 10 C 6.188 10.511 9.489 13.812 10 18 C 10.511 13.812 13.812 10.511 18 10" transform="matrix(1 0 0 1 0 0)" fill="#FFFFFF" stroke="none" />
</svg>
