<?xml version="1.0" encoding="UTF-8"?>
<!-- Reconstructed from Amplitude.Graphics.Svg.SvgAsset and recolored from static UIMapper.Color metadata for EWShop; not original source SVG. Live UI state/material colors are not included. -->
<svg xmlns="http://www.w3.org/2000/svg" width="20" height="20" viewBox="0 0 20 20">
  <path d="M 11.728 4.007 C 11.901 3.712 12 3.367 12 3 C 12 1.895 11.105 1 10 1 C 8.895 1 8 1.895 8 3 C 8 3.012 8 3.024 8 3.035 C 6.304 3.278 5 4.737 5 6.5 C 5 7.257 5.24 7.957 5.648 8.529 C 4.658 9.148 4 10.247 4 11.5 C 4 13.433 5.567 15 7.5 15 C 8.037 15 8.545 14.879 9 14.663 L 9 19 L 11 19 L 11 14.663 C 11.455 14.879 11.963 15 12.5 15 C 14.433 15 16 13.433 16 11.5 C 16 10.421 15.512 9.457 14.745 8.815 C 14.909 8.409 15 7.965 15 7.5 C 15 5.644 13.555 4.125 11.728 4.007" transform="matrix(1 0 0 1 0 0)" fill="#FFFFFF" stroke="none" />
  <path d="M 1 19 L 9.45 19 C 9.218 17.859 8.209 17 7 17 C 6.533 17 6.095 17.128 5.721 17.351 C 5.305 16.549 4.467 16 3.5 16 C 2.119 16 1 17.119 1 18.5 C 1 18.589 1.005 18.677 1.014 18.764 C 1.005 18.841 1 18.92 1 19" transform="matrix(1 0 0 1 0 0)" fill="#FFFFFF" stroke="none" />
  <path d="M 11 19 L 18.95 19 C 18.718 17.859 17.71 17 16.5 17 C 16.415 17 16.33 17.004 16.247 17.013 C 15.698 16.392 14.895 16 14 16 C 12.343 16 11 17.343 11 19" transform="matrix(1 0 0 1 0 0)" fill="#FFFFFF" stroke="none" />
</svg>
