<?xml version="1.0" encoding="UTF-8"?>
<!-- Reconstructed from Amplitude.Graphics.Svg.SvgAsset and recolored from static UIMapper.Color metadata for EWShop; not original source SVG. Live UI state/material colors are not included. -->
<svg xmlns="http://www.w3.org/2000/svg" width="25" height="24" viewBox="0 0 25 24">
  <path d="M 11.621 0.294 C 12.011 -0.096 12.644 -0.096 13.035 0.294 C 14.532 1.792 15.376 3.696 15.565 5.651 C 14.994 4.866 14.146 4.297 13.164 4.089 C 12.834 3.221 12.32 2.407 11.621 1.708 C 11.23 1.318 11.23 0.685 11.621 0.294" transform="matrix(1 0 0 1 0 0)" fill="#FFFFFF" stroke="none" />
  <path d="M 17.662 11.251 C 17.352 10.652 16.945 10.112 16.461 9.651 C 18.199 8.378 19.328 6.321 19.328 4.001 C 19.328 3.449 19.776 3.001 20.328 3.001 C 20.88 3.001 21.328 3.449 21.328 4.001 C 21.328 6.975 19.885 9.612 17.662 11.251" transform="matrix(1 0 0 1 0 0)" fill="#FFFFFF" stroke="none" />
  <path d="M 15.926 12.253 C 15.694 11.774 15.368 11.349 14.974 11.001 C 14.268 10.379 13.342 10.001 12.328 10.001 C 13.319 10.001 14.142 9.279 14.3 8.333 C 14.318 8.225 14.328 8.114 14.328 8.001 C 14.328 7.382 14.047 6.83 13.606 6.463 C 13.259 6.174 12.814 6.001 12.328 6.001 C 11.946 6.001 11.59 6.108 11.287 6.293 C 10.712 6.644 10.328 7.278 10.328 8.001 C 10.328 8.114 10.337 8.225 10.355 8.333 C 10.364 8.389 10.376 8.444 10.39 8.499 C 10.462 8.778 10.592 9.034 10.768 9.253 C 11.134 9.709 11.697 10.001 12.328 10.001 C 11.313 10.001 10.387 10.379 9.682 11.001 C 9.595 11.077 9.512 11.158 9.432 11.241 C 9.33 11.349 9.233 11.462 9.143 11.581 C 8.631 12.253 8.328 13.092 8.328 14.001 L 8.328 16.001 L 16.328 16.001 L 16.328 14.001 C 16.328 13.687 16.291 13.381 16.223 13.087 C 16.155 12.796 16.055 12.516 15.926 12.253" transform="matrix(1 0 0 1 0 0)" fill="#FFFFFF" stroke="none" />
  <path d="M 9.829 4.877 C 9.304 5.297 8.888 5.847 8.628 6.477 C 7.441 5.552 5.949 5.001 4.328 5.001 C 3.776 5.001 3.328 4.553 3.328 4.001 C 3.328 3.449 3.776 3.001 4.328 3.001 C 6.4 3.001 8.308 3.701 9.829 4.877" transform="matrix(1 0 0 1 0 0)" fill="#FFFFFF" stroke="none" />
  <path d="M 8.555 9.335 C 8.502 9.183 8.457 9.027 8.422 8.868 C 5.679 8.364 2.743 9.173 0.622 11.294 C 0.231 11.684 0.231 12.318 0.622 12.708 C 1.012 13.099 1.645 13.099 2.036 12.708 C 3.477 11.267 5.406 10.61 7.291 10.739 C 7.637 10.207 8.064 9.733 8.555 9.335" transform="matrix(1 0 0 1 0 0)" fill="#FFFFFF" stroke="none" />
  <path d="M 3.328 20.001 C 3.328 17.313 4.506 14.901 6.374 13.252 C 6.343 13.497 6.328 13.747 6.328 14.001 L 6.328 16.394 C 5.693 17.447 5.328 18.681 5.328 20.001 C 5.328 20.553 4.88 21.001 4.328 21.001 C 3.776 21.001 3.328 20.553 3.328 20.001" transform="matrix(1 0 0 1 0 0)" fill="#FFFFFF" stroke="none" />
  <path d="M 11.621 23.708 C 10.034 22.121 9.182 20.078 9.064 18.001 L 11.068 18.001 C 11.183 19.565 11.839 21.097 13.035 22.293 C 13.425 22.684 13.425 23.317 13.035 23.708 C 12.644 24.098 12.011 24.098 11.621 23.708" transform="matrix(1 0 0 1 0 0)" fill="#FFFFFF" stroke="none" />
  <path d="M 20.328 21.001 C 17.662 21.001 15.268 19.842 13.62 18.001 L 16.72 18.001 C 17.774 18.636 19.008 19.001 20.328 19.001 C 20.88 19.001 21.328 19.449 21.328 20.001 C 21.328 20.553 20.88 21.001 20.328 21.001" transform="matrix(1 0 0 1 0 0)" fill="#FFFFFF" stroke="none" />
  <path d="M 24.035 12.708 C 22.448 14.295 20.405 15.147 18.328 15.265 L 18.328 14.001 C 18.328 13.751 18.312 13.505 18.283 13.264 C 19.863 13.158 21.413 12.502 22.621 11.294 C 23.011 10.903 23.644 10.903 24.035 11.294 C 24.426 11.684 24.426 12.318 24.035 12.708" transform="matrix(1 0 0 1 0 0)" fill="#FFFFFF" stroke="none" />
</svg>
