<?xml version="1.0" encoding="UTF-8"?>
<!-- Reconstructed from Amplitude.Graphics.Svg.SvgAsset and recolored from static UIMapper.Color metadata for EWShop; not original source SVG. Live UI state/material colors are not included. -->
<svg xmlns="http://www.w3.org/2000/svg" width="26" height="26" viewBox="0 0 26 26">
  <path d="M 13.989 21.411 C 13.989 21.411 13.909 21.501 13.869 21.541 C 13.349 22.041 12.529 22.081 11.989 21.611 C 11.729 21.391 11.509 21.121 11.229 20.841 C 11.389 20.691 11.569 20.551 11.729 20.391 C 11.969 20.151 12.159 19.871 12.289 19.571 L 13.929 21.351 L 13.989 21.411" transform="matrix(1 0 0 1 0 0)" fill="none" stroke="none" />
  <path d="M 19.3 18.09 L 19.26 18.05 L 16.19 14.71 L 16.12 14.78 L 15.68 15.19 L 15.52 15.34 L 18.99 19.13 L 19.14 19.29 C 19.1 19.6 18.94 19.87 18.67 20.1 C 18.4 20.33 18.03 20.49 17.59 20.42 L 17.45 20.27 L 14.17 16.71 L 14.07 16.81 L 13.64 17.21 L 13.51 17.34 L 16.48 20.57 L 16.5 20.59 C 16.32 20.84 16.05 21 15.71 21.07 C 15.38 21.14 15.09 21.1 14.81 20.96 L 12.5 18.44 C 12.48 17.49 11.97 16.57 11.05 16.08 C 10.96 16.03 10.86 15.95 10.82 15.85 C 10.48 15.15 9.96 14.63 9.23 14.33 C 9.16 14.3 9.08 14.22 9.05 14.15 C 8.2 12.43 6.12 12.03 4.7 13.33 C 4.52 13.5 4.37 13.7 4.2 13.91 C 3 12.77 1.86 11.69 0.74 10.64 C 2.94 8.44 5.12 6.26 7.33 4.06 C 7.67 4.37 8.06 4.72 8.45 5.07 C 8.55 5.16 8.67 5.25 8.76 5.35 C 9.13 5.84 9.71 5.75 10.21 5.84 C 10.53 5.9 10.86 5.94 11.24 5.99 C 9.64 7.51 8.07 9.01 6.49 10.51 C 7.22 11.3 7.84 12.17 8.87 12.59 C 10.28 13.16 11.59 12.95 12.77 12.03 C 13.07 11.8 13.35 11.69 13.72 11.71 C 14.11 11.74 14.5 11.71 14.89 11.72 C 15 11.73 15.14 11.78 15.21 11.85 C 16.74 13.37 18.25 14.89 19.77 16.4 C 20.28 16.92 19.92 17.89 19.3 18.09" transform="matrix(1 0 0 1 0 0)" fill="none" stroke="none" />
  <path d="M 21.179 14.79 C 21.179 14.79 21.099 14.66 21.039 14.6 C 19.479 13.03 17.909 11.22 16.349 9.65 C 16.229 9.53 16.119 9.47 15.939 9.48 C 15.019 9.48 13.409 9.74 12.489 9.75 C 12.379 9.75 12.249 9.82 12.179 9.89 C 11.779 10.3 11.339 10.91 10.779 11.08 C 9.959 11.33 9.169 11.25 8.609 10.59 C 8.799 10.39 8.979 10.19 9.169 10.01 C 10.239 8.99 11.309 7.97 12.379 6.96 C 12.469 6.87 12.599 6.81 12.719 6.78 C 13.649 6.55 14.589 6.34 15.519 6.11 C 15.629 6.08 15.749 6.01 15.829 5.93 C 16.719 5.05 17.599 4.17 18.479 3.28 C 18.539 3.22 18.589 3.14 18.619 3.1 C 21.009 5.5 23.379 7.86 25.729 10.22 C 24.099 11.85 22.899 13.05 21.169 14.77 L 21.179 14.79" transform="matrix(1 0 0 1 0 0)" fill="none" stroke="none" />
  <path d="M 5.761 18.726 C 5.544 18.652 5.304 18.619 5.119 18.503 C 4.67 18.212 4.614 17.582 4.983 17.192 C 5.28 16.877 5.592 16.57 5.905 16.272 C 6.186 16.006 6.595 15.957 6.923 16.139 C 7.26 16.322 7.436 16.678 7.372 17.06 C 7.372 17.101 7.356 17.151 7.348 17.209 C 7.717 17.134 8.054 17.176 8.334 17.424 C 8.615 17.673 8.719 17.997 8.679 18.362 C 8.832 18.386 8.984 18.386 9.12 18.428 C 9.746 18.619 9.946 19.398 9.497 19.863 C 9.208 20.161 8.912 20.451 8.615 20.75 C 8.35 21.015 8.038 21.098 7.685 20.974 C 7.332 20.849 7.148 20.592 7.1 20.219 C 7.1 20.194 7.092 20.161 7.084 20.136 C 6.081 20.402 5.424 19.498 5.753 18.726 L 5.761 18.726" transform="matrix(1 0 0 1 0 0)" fill="none" stroke="none" />
</svg>
