<?xml version="1.0" encoding="UTF-8"?>
<!-- Reconstructed from Amplitude.Graphics.Svg.SvgAsset and recolored from static UIMapper.Color metadata for EWShop; not original source SVG. Live UI state/material colors are not included. -->
<svg xmlns="http://www.w3.org/2000/svg" width="26" height="26" viewBox="0 0 26 26">
  <path d="M 24.023 16.32 L 24.323 16.598 C 24.594 16.981 24.554 17.514 24.209 17.852 C 23.905 18.15 23.457 18.204 23.097 18.025 L 17.663 23.351 C 17.835 23.714 17.772 24.162 17.468 24.459 C 17.121 24.799 16.585 24.826 16.208 24.545 L 15.934 24.23 C 15.731 23.858 15.789 23.382 16.107 23.07 C 16.389 22.794 16.797 22.726 17.142 22.861 C 17.816 22.423 19.28 20.92 18.887 19.003 C 20.792 19.433 22.166 18.159 22.618 17.495 C 22.49 17.147 22.566 16.74 22.848 16.464 C 23.169 16.149 23.653 16.102 24.023 16.32 M 1.534 1.294 C 1.562 1.267 1.596 1.256 1.632 1.268 C 5.126 2.435 21.107 17.964 21.107 17.964 C 21.205 18.238 19.391 18.753 18.782 18.278 C 18.782 18.278 8.629 8.107 5.724 5.442 C 5.454 5.194 5.35 5.295 5.593 5.571 C 8.198 8.529 18.156 18.892 18.156 18.892 C 18.623 19.687 17.828 21.561 17.644 21.358 C 17.644 21.358 2.597 4.912 1.503 1.394 C 1.492 1.356 1.505 1.321 1.534 1.294 M 23.53 22.429 C 23.249 22.739 22.298 23.681 21.993 23.967 C 21.67 23.57 21.247 23.151 20.708 22.803 C 20.295 22.88 19.852 22.755 19.536 22.433 L 22.063 19.956 C 22.379 20.279 22.494 20.724 22.41 21.136 C 22.741 21.674 23.144 22.101 23.53 22.429 M 1.676 16.598 L 1.977 16.32 C 2.347 16.102 2.83 16.149 3.152 16.464 C 3.434 16.74 3.51 17.147 3.381 17.495 C 3.833 18.159 5.208 19.433 7.113 19.003 C 6.72 20.92 8.184 22.423 8.858 22.861 C 9.203 22.726 9.611 22.794 9.893 23.07 C 10.21 23.382 10.269 23.858 10.066 24.23 L 9.792 24.545 C 9.415 24.826 8.879 24.799 8.532 24.459 C 8.228 24.162 8.165 23.714 8.337 23.351 L 2.903 18.025 C 2.542 18.204 2.094 18.15 1.791 17.852 C 1.445 17.514 1.406 16.981 1.676 16.598 M 24.368 1.268 C 24.404 1.256 24.438 1.267 24.466 1.294 C 24.495 1.321 24.508 1.356 24.496 1.394 C 23.984 3.043 20.407 7.53 16.75 11.834 L 15.607 10.747 C 17.618 8.618 19.479 6.624 20.407 5.571 C 20.65 5.295 20.546 5.194 20.275 5.442 C 19.24 6.392 17.283 8.297 15.193 10.354 L 14.117 9.332 C 18.322 5.54 22.725 1.817 24.368 1.268 M 10.703 15.906 L 11.994 17.307 C 9.88 19.692 8.355 21.358 8.355 21.358 C 8.171 21.561 7.377 19.687 7.844 18.892 C 7.844 18.892 9.036 17.651 10.703 15.906 M 8.995 14.055 L 10.171 15.33 C 8.446 17.047 7.218 18.278 7.218 18.278 C 6.609 18.753 4.795 18.238 4.893 17.964 C 4.893 17.964 6.588 16.317 8.995 14.055 M 4.007 23.967 C 3.702 23.681 2.751 22.739 2.47 22.429 C 2.855 22.101 3.258 21.674 3.59 21.136 C 3.505 20.724 3.621 20.279 3.937 19.956 L 6.464 22.433 C 6.148 22.755 5.705 22.88 5.292 22.803 C 4.753 23.151 4.329 23.57 4.007 23.967" transform="matrix(1 0 0 1 0 0)" fill="#FFFFFF" stroke="none" />
</svg>
