<?xml version="1.0" encoding="UTF-8"?>
<!-- Reconstructed from Amplitude.Graphics.Svg.SvgAsset and recolored from static UIMapper.Color metadata for EWShop; not original source SVG. Live UI state/material colors are not included. -->
<svg xmlns="http://www.w3.org/2000/svg" width="26" height="26" viewBox="0 0 26 26">
  <path d="M 13.45 7.142 C 13.791 7.142 14.054 6.841 14.006 6.503 L 13.252 1.161 C 13.222 0.946 12.912 0.946 12.882 1.161 L 12.129 6.503 C 12.081 6.841 12.343 7.142 12.684 7.142 L 13.45 7.142" transform="matrix(1 0 0 1 0 0)" fill="#FFFFFF" stroke="none" />
  <path d="M 7.175 12.465 C 7.175 12.124 6.873 11.861 6.535 11.909 L 1.193 12.663 C 0.979 12.693 0.979 13.003 1.193 13.033 L 6.535 13.786 C 6.873 13.834 7.175 13.572 7.175 13.231 L 7.175 12.465" transform="matrix(1 0 0 1 0 0)" fill="#FFFFFF" stroke="none" />
  <path d="M 19.412 12.097 C 19.075 12.049 18.773 12.311 18.773 12.652 L 18.773 13.418 C 18.773 13.759 19.075 14.021 19.412 13.974 L 24.754 13.22 C 24.969 13.19 24.969 12.88 24.754 12.85 L 19.412 12.097" transform="matrix(1 0 0 1 0 0)" fill="#FFFFFF" stroke="none" />
  <path d="M 8.978 7.996 C 9.106 8.328 9.505 8.46 9.805 8.268 L 10.243 7.988 C 10.509 7.818 10.582 7.461 10.405 7.2 L 7.335 2.681 C 7.21 2.497 6.926 2.646 7.005 2.853 L 8.978 7.996" transform="matrix(1 0 0 1 0 0)" fill="#FFFFFF" stroke="none" />
  <path d="M 7.89 10.5 C 7.722 10.8 7.327 10.88 7.055 10.669 L 2.751 7.318 C 2.577 7.183 2.739 6.911 2.941 6.999 L 7.919 9.187 C 8.222 9.32 8.344 9.686 8.183 9.975 L 7.89 10.5" transform="matrix(1 0 0 1 0 0)" fill="#FFFFFF" stroke="none" />
  <path d="M 18.057 10.499 C 18.225 10.8 18.621 10.88 18.892 10.669 L 23.197 7.318 C 23.37 7.183 23.208 6.911 23.006 6.999 L 18.028 9.187 C 17.725 9.32 17.603 9.686 17.764 9.975 L 18.057 10.499" transform="matrix(1 0 0 1 0 0)" fill="#FFFFFF" stroke="none" />
  <path d="M 16.346 8.109 L 15.924 7.853 C 15.644 7.684 15.568 7.312 15.758 7.046 L 18.794 2.807 C 18.923 2.627 19.203 2.781 19.12 2.986 L 17.157 7.84 C 17.027 8.16 16.641 8.289 16.346 8.109" transform="matrix(1 0 0 1 0 0)" fill="#FFFFFF" stroke="none" />
  <path d="M 18.928 20.007 L 18.928 18.581 L 15.362 15.015 L 15.362 14.301 L 12.866 11.448 L 10.37 14.301 L 10.37 15.015 L 6.803 18.581 L 6.803 19.979 L 10.37 16.441 L 10.37 17.868 L 7.517 20.721 L 7.517 25 L 10.37 25 L 10.37 22.497 C 10.37 21.94 10.605 21.434 10.962 21.063 C 11.332 20.706 12.153 20.364 12.866 20.364 C 13.551 20.364 14.407 20.706 14.77 21.063 C 15.127 21.434 15.362 21.933 15.362 22.497 L 15.362 25 L 18.215 25 L 18.201 20.721 L 15.362 17.868 L 15.362 16.441 L 18.928 20.007 M 12.952 18.303 C 12.017 18.303 11.247 17.547 11.247 16.612 C 11.247 15.678 12.017 14.915 12.952 14.915 C 13.886 14.915 14.642 15.671 14.642 16.612 C 14.642 17.554 13.886 18.303 12.952 18.303" transform="matrix(1 0 0 1 0 0)" fill="#FFFFFF" stroke="none" />
  <path d="M 16.782 14.302 L 16.782 13.41 L 16.789 13.246 L 16.789 12.889 L 12.866 8.596 L 8.943 12.875 L 8.943 14.302 L 12.866 10.022 L 16.782 14.302" transform="matrix(1 0 0 1 0 0)" fill="#FFFFFF" stroke="none" />
</svg>
