<?xml version="1.0" encoding="UTF-8"?>
<!-- Reconstructed from Amplitude.Graphics.Svg.SvgAsset and recolored from static UIMapper.Color metadata for EWShop; not original source SVG. Live UI state/material colors are not included. -->
<svg xmlns="http://www.w3.org/2000/svg" width="24" height="23" viewBox="0 0 24 23">
  <path d="M 11.741 1.058 C 11.807 0.981 11.927 0.981 11.994 1.058 L 14.479 3.969 C 14.572 4.077 14.495 4.244 14.353 4.244 L 12.701 4.244 L 12.701 6.856 C 12.701 6.948 12.626 7.022 12.534 7.022 L 11.2 7.022 C 11.108 7.022 11.034 6.948 11.034 6.856 L 11.034 4.244 L 9.382 4.244 C 9.24 4.244 9.163 4.077 9.255 3.969 L 11.741 1.058" transform="matrix(1 0 0 1 0 0)" fill="#FFFFFF" stroke="none" />
  <path d="M 20.99 5.59 C 21.093 5.582 21.178 5.667 21.17 5.769 L 20.869 9.585 C 20.858 9.727 20.686 9.79 20.585 9.69 L 19.417 8.521 L 17.57 10.368 C 17.505 10.433 17.4 10.433 17.335 10.368 L 16.391 9.425 C 16.326 9.36 16.326 9.255 16.391 9.19 L 18.238 7.343 L 17.07 6.175 C 16.969 6.074 17.033 5.902 17.175 5.891 L 20.99 5.59" transform="matrix(1 0 0 1 0 0)" fill="#FFFFFF" stroke="none" />
  <path d="M 3.18 5.59 C 3.078 5.582 2.992 5.667 3.001 5.769 L 3.301 9.585 C 3.312 9.727 3.485 9.79 3.585 9.69 L 4.753 8.522 L 6.6 10.368 C 6.665 10.434 6.77 10.434 6.835 10.368 L 7.779 9.425 C 7.844 9.36 7.844 9.255 7.779 9.19 L 5.932 7.343 L 7.1 6.175 C 7.201 6.074 7.137 5.902 6.996 5.891 L 3.18 5.59" transform="matrix(1 0 0 1 0 0)" fill="#FFFFFF" stroke="none" />
  <path d="M 17.217 14.731 C 17.237 14.733 17.258 14.736 17.279 14.738 L 17.247 14.707 C 17.317 14.715 17.39 14.723 17.469 14.732 C 17.643 14.752 17.844 14.775 18.096 14.801 C 18.315 14.82 18.472 15.002 18.472 15.216 C 18.472 15.329 18.428 15.436 18.353 15.511 C 18.284 15.58 18.196 15.618 18.096 15.63 C 17.848 15.652 17.646 15.677 17.47 15.698 C 17.391 15.708 17.317 15.717 17.247 15.725 C 17.227 15.727 17.206 15.73 17.186 15.732 C 16.758 15.785 16.423 15.826 15.721 15.856 C 14.929 15.894 14.113 15.919 13.246 15.932 L 13.264 15.95 C 13.522 16.221 13.786 16.497 14.037 16.774 C 14.339 17.113 14.421 17.22 14.527 17.377 C 14.597 17.483 14.684 17.609 14.879 17.842 C 14.986 17.973 14.98 18.244 14.86 18.363 C 14.697 18.526 14.49 18.532 14.333 18.401 C 14.155 18.26 14.039 18.175 13.951 18.11 C 13.92 18.088 13.893 18.068 13.868 18.049 C 13.717 17.948 13.598 17.867 13.271 17.565 C 12.995 17.313 12.718 17.049 12.448 16.791 L 12.429 16.774 C 12.417 17.615 12.398 18.451 12.36 19.255 C 12.329 19.977 12.291 20.304 12.235 20.763 C 12.229 20.816 12.222 20.872 12.216 20.931 C 12.194 21.121 12.169 21.345 12.14 21.623 C 12.122 21.843 11.939 22 11.726 22 C 11.512 22 11.336 21.837 11.311 21.623 C 11.289 21.376 11.265 21.174 11.243 20.998 C 11.234 20.919 11.225 20.845 11.217 20.775 C 11.16 20.317 11.129 19.984 11.091 19.255 C 11.06 18.445 11.035 17.615 11.022 16.774 L 11.004 16.791 C 10.733 17.049 10.457 17.313 10.18 17.565 C 9.847 17.86 9.741 17.942 9.584 18.049 C 9.477 18.118 9.351 18.206 9.119 18.401 C 8.987 18.507 8.717 18.501 8.597 18.382 C 8.447 18.244 8.428 18.011 8.56 17.854 C 8.7 17.676 8.785 17.561 8.85 17.472 C 8.872 17.442 8.892 17.415 8.911 17.389 C 9.012 17.238 9.094 17.119 9.395 16.792 C 9.647 16.516 9.911 16.24 10.169 15.969 L 10.187 15.951 C 9.351 15.944 8.522 15.919 7.705 15.882 C 6.983 15.85 6.656 15.812 6.198 15.756 C 6.144 15.75 6.089 15.744 6.03 15.737 C 5.839 15.716 5.615 15.691 5.337 15.662 C 5.117 15.643 4.96 15.461 4.96 15.247 C 4.96 15.034 5.117 14.851 5.343 14.839 C 5.591 14.817 5.793 14.792 5.969 14.771 C 6.048 14.761 6.122 14.752 6.191 14.745 C 6.65 14.688 6.977 14.65 7.705 14.613 C 8.528 14.581 9.357 14.556 10.187 14.544 L 10.169 14.525 C 9.911 14.255 9.647 13.978 9.395 13.702 C 9.094 13.363 9.012 13.256 8.905 13.099 C 8.836 12.992 8.742 12.873 8.553 12.634 C 8.447 12.502 8.453 12.232 8.572 12.113 C 8.698 11.962 8.943 11.943 9.1 12.075 C 9.278 12.215 9.393 12.3 9.482 12.365 C 9.512 12.388 9.539 12.407 9.565 12.427 C 9.722 12.533 9.841 12.615 10.168 12.917 C 10.312 13.054 10.455 13.188 10.598 13.321 C 10.736 13.45 10.874 13.578 11.01 13.708 C 11.028 12.847 11.047 12.037 11.085 11.233 C 11.115 10.531 11.156 10.196 11.209 9.768 C 11.212 9.748 11.214 9.727 11.217 9.707 C 11.226 9.624 11.236 9.537 11.247 9.442 C 11.266 9.279 11.287 9.094 11.311 8.871 L 11.311 8.858 C 11.324 8.645 11.512 8.482 11.726 8.482 C 11.939 8.482 12.115 8.645 12.14 8.858 C 12.172 9.229 12.203 9.487 12.235 9.719 C 12.237 9.74 12.24 9.762 12.242 9.782 C 12.295 10.21 12.337 10.544 12.367 11.233 C 12.404 12.037 12.429 12.854 12.442 13.708 C 12.725 13.438 13.001 13.174 13.284 12.917 C 13.623 12.615 13.73 12.533 13.887 12.427 C 13.993 12.358 14.113 12.263 14.352 12.075 C 14.483 11.968 14.754 11.974 14.873 12.094 C 15.024 12.232 15.043 12.464 14.911 12.621 C 14.722 12.86 14.628 12.979 14.559 13.086 C 14.452 13.243 14.37 13.363 14.069 13.689 C 13.932 13.833 13.797 13.977 13.664 14.12 C 13.535 14.258 13.407 14.395 13.277 14.531 C 14.144 14.544 14.961 14.569 15.752 14.606 C 16.454 14.636 16.789 14.678 17.217 14.731" transform="matrix(1 0 0 1 0 0)" fill="#FFFFFF" stroke="none" />
</svg>
