<?xml version="1.0" encoding="UTF-8"?>
<!-- Reconstructed from Amplitude.Graphics.Svg.SvgAsset and recolored from static UIMapper.Color metadata for EWShop; not original source SVG. Live UI state/material colors are not included. -->
<svg xmlns="http://www.w3.org/2000/svg" width="21" height="21" viewBox="0 0 21 21">
  <path d="M 2.201 10.5 L 13.364 10.5 L 13.364 12.059 L 2.201 12.059 L 2.201 10.5 M 4.241 14.565 L 13.364 14.565 L 13.364 16.124 L 4.241 16.124 L 4.241 14.565 M 13.364 18.63 L 2.201 18.63 L 2.201 20.189 L 13.364 20.189 L 13.364 18.63" transform="matrix(1 0 0 1 0 0)" fill="none" stroke="none" />
  <path d="M 18.056 18.576 C 16.567 18.185 15.404 17.742 15.001 16.459 L 14.987 16.418 C 14.571 15.093 13.304 11.072 14.147 10.244 C 14.634 9.417 15.884 7.583 16.908 6.078 C 17.678 4.95 18.321 4.007 18.424 3.806 C 18.669 3.338 18.669 3.041 18.424 2.837 C 18.058 2.612 13.803 0.198 13.353 0.691 C 13.114 0.951 12.974 1.396 12.974 1.396 C 12.201 3.243 10.223 7.272 8.497 8.61 C 6.339 10.283 6.002 11.56 7.176 12.792 C 8.425 14.103 10.307 16.29 10.79 18.185 C 11.277 20.1 12.382 20.37 14.999 20.37 C 15.526 20.37 15.952 20.372 16.297 20.374 C 17.723 20.379 17.774 20.379 18.054 20.248 C 18.401 20.085 19.541 18.968 18.056 18.576" transform="matrix(1 0 0 1 0 0)" fill="none" stroke="none" />
</svg>
