<?xml version="1.0" encoding="UTF-8"?>
<!-- Reconstructed from Amplitude.Graphics.Svg.SvgAsset and recolored from static UIMapper.Color metadata for EWShop; not original source SVG. Live UI state/material colors are not included. -->
<svg xmlns="http://www.w3.org/2000/svg" width="19" height="20" viewBox="0 0 19 20">
  <path d="M 9.559 2.324 C 5.259 2.324 2.229 4.511 2.229 8.811 C 2.209 9.551 3.288 9.47 3.229 8.811 C 3.229 5.111 5.859 3.324 9.559 3.324 C 12.959 3.324 15.387 5.386 15.787 8.686 L 14.688 7.586 C 14.488 7.386 14.186 7.386 13.986 7.586 C 13.786 7.786 13.786 8.085 13.986 8.285 L 15.887 10.186 C 15.987 10.286 16.087 10.285 16.287 10.285 C 16.387 10.285 16.488 10.286 16.588 10.186 L 18.588 8.285 C 18.688 8.085 18.788 7.786 18.588 7.586 C 18.388 7.386 18.087 7.386 17.887 7.586 L 16.787 8.586 C 16.287 4.886 13.459 2.324 9.559 2.324 M 2.713 9.715 C 2.613 9.715 2.512 9.714 2.412 9.814 L 0.412 11.715 C 0.312 11.915 0.212 12.214 0.412 12.414 C 0.612 12.614 0.913 12.614 1.113 12.414 L 2.213 11.414 C 2.713 15.114 5.541 17.676 9.441 17.676 C 13.741 17.676 16.77 15.491 16.77 11.191 C 16.789 10.451 15.71 10.532 15.77 11.191 C 15.77 14.891 13.141 16.676 9.441 16.676 C 6.041 16.676 3.613 14.615 3.213 11.315 L 4.312 12.414 C 4.512 12.614 4.812 12.614 5.012 12.414 C 5.212 12.214 5.212 11.915 5.012 11.715 L 3.113 9.814 C 3.013 9.714 2.913 9.715 2.713 9.715" transform="matrix(1 0 0 1 0 0)" fill="#EBEBEB" stroke="none" />
</svg>
