<?xml version="1.0" encoding="UTF-8"?>
<!-- Reconstructed from Amplitude.Graphics.Svg.SvgAsset and recolored from static UIMapper.Color metadata for EWShop; not original source SVG. Live UI state/material colors are not included. -->
<svg xmlns="http://www.w3.org/2000/svg" width="30" height="31" viewBox="0 0 30 31">
  <path d="M 17.5 3 L 25.5 3 C 26.3 3 27 3.7 27 4.5 L 27 26.5 C 27 27.3 26.3 28 25.5 28 L 17.5 28 C 17.2 28 17 27.8 17 27.5 C 17 27.2 17.2 27 17.5 27 L 25.5 27 C 25.8 27 26 26.8 26 26.5 L 26 4.5 C 26 4.2 25.8 4 25.5 4 L 17.5 4 C 17.2 4 17 3.8 17 3.5 C 17 3.2 17.2 3 17.5 3 M 15.8 10.2 L 21.6 15 C 22 15.2 22 15.8 21.6 16.1 L 15.8 20.9 C 15.6 21 15.3 21 15.1 20.8 C 15 20.6 15 20.3 15.2 20.1 L 20.1 16 L 3.5 16 C 3.2 16 3 15.8 3 15.5 C 3 15.2 3.2 15 3.5 15 L 20.1 15 L 15.2 10.9 C 15 10.7 14.9 10.5 15.1 10.3 C 15.3 10.1 15.6 10 15.8 10.2" transform="matrix(1 0 0 1 0 0)" fill="#EBEBEB" stroke="none" />
</svg>
