<?xml version="1.0" encoding="UTF-8"?>
<!-- Reconstructed from Amplitude.Graphics.Svg.SvgAsset and recolored from static UIMapper.Color metadata for EWShop; not original source SVG. Live UI state/material colors are not included. -->
<svg xmlns="http://www.w3.org/2000/svg" width="26" height="26" viewBox="0 0 26 26">
  <path d="M 13.241 18.991 C 15.148 19.084 17.014 18.419 18.309 17.15 C 19.588 15.896 20.286 14.203 19.889 12.433 C 19.688 11.535 19.261 10.917 18.843 10.313 C 18.214 9.401 17.606 8.522 17.831 6.76 C 17.16 6.941 16.842 7.057 16.638 7.131 C 16.394 7.22 16.315 7.249 15.991 7.258 C 15.723 7.265 15.442 7.176 15.302 6.948 C 15.083 6.591 15.2 6.275 15.337 5.906 C 15.705 4.914 16.213 3.544 10.684 0 C 12.631 2.467 10.71 4.963 8.777 7.477 C 7.521 9.109 6.26 10.749 6.048 12.392 C 5.95 13.156 6.006 13.885 6.191 14.564 C 6.866 17.035 9.285 18.799 12.1 18.936 L 13.241 18.991 M 13.813 6.62 C 14.376 7.462 14.537 8.946 13.825 9.417 C 13.114 9.888 12.318 9.462 11.755 8.62 C 11.193 7.778 11.077 6.838 11.787 6.367 C 12.498 5.897 13.251 5.778 13.813 6.62 M 14.339 10.676 C 14.747 10.664 15.159 10.652 15.52 10.83 C 15.659 10.899 15.765 10.987 15.772 11.098 C 15.86 12.464 17.167 14.948 17.167 14.948 C 17.248 15.051 17.356 15.151 17.463 15.251 C 17.725 15.495 17.99 15.741 17.881 16.04 C 17.863 16.092 17.829 16.144 17.775 16.196 C 17.16 16.807 16.302 15.805 15.76 15.128 C 15.5 14.803 15.249 14.42 15.109 14.022 L 15.065 14.285 C 14.952 14.951 14.966 15.187 15.109 15.846 C 14.373 19.524 11.208 17.746 11.354 15.995 C 11.489 15.371 11.511 15.174 11.416 14.543 L 11.308 13.82 C 10.979 14.704 9.782 15.837 9.48 16.113 C 9.435 16.155 9.382 16.188 9.324 16.212 L 9.167 16.278 C 8.732 16.461 8.305 16.003 8.517 15.582 C 8.532 15.392 8.966 15.07 9.134 14.967 C 9.552 14.726 10.602 12.144 10.691 10.778 C 10.713 10.442 11.449 10.421 11.787 10.442 C 11.964 10.476 12.157 10.51 12.361 10.541 C 12.361 10.541 13.655 10.647 14.083 10.682 C 14.168 10.681 14.253 10.679 14.339 10.676" transform="matrix(1 0 0 1 0 0)" fill="#FFFFFF" stroke="none" />
  <path d="M 11.717 25.869 C 9.986 25.667 7.029 23.517 5.455 22.116 C 5.667 21.435 6.127 21.248 6.56 21.125 C 12.595 25.555 14.22 23.262 14.793 22.454 C 14.844 22.382 14.886 22.323 14.923 22.28 C 12.754 22.633 10.183 22.403 9.387 21.95 C 9.326 21.509 9.409 20.943 9.893 20.795 C 11.06 20.769 13.497 20.685 13.908 20.555 C 14.423 20.393 15.592 20.113 16.135 20.022 C 16.685 19.93 17.375 20.138 18.192 20.383 C 18.913 20.599 19.732 20.845 20.64 20.941 C 20.943 22.404 20.405 23.602 19.801 24.377 C 19.704 24.377 19.673 24.38 19.63 24.383 C 19.54 24.39 19.397 24.402 18.528 24.411 C 17.546 24.421 16.043 25.028 14.964 25.548 C 14.379 25.83 13.774 26.035 13.132 25.995 C 12.78 25.974 12.317 25.935 11.717 25.869" transform="matrix(1 0 0 1 0 0)" fill="#FFFFFF" stroke="none" />
</svg>
