<?xml version="1.0" encoding="UTF-8"?>
<!-- Reconstructed from Amplitude.Graphics.Svg.SvgAsset and recolored from static UIMapper.Color metadata for EWShop; not original source SVG. Live UI state/material colors are not included. -->
<svg xmlns="http://www.w3.org/2000/svg" width="26" height="26" viewBox="0 0 26 26">
  <path d="M 17.603 18.477 C 18.977 17.167 19.833 15.32 19.833 13.272 C 19.833 11.224 18.977 9.377 17.602 8.067 C 22.123 9.811 25.291 13.272 25.291 13.272 C 25.291 13.272 22.123 16.733 17.603 18.477 M 7.688 18.476 C 3.168 16.733 0 13.272 0 13.272 C 0 13.272 3.168 9.811 7.688 8.068 C 6.314 9.377 5.458 11.225 5.458 13.272 C 5.458 15.32 6.314 17.167 7.688 18.476" transform="matrix(1 0 0 1 0 0)" fill="#FFFFFF" stroke="none" />
  <path d="M 12.645 16.322 C 14.329 16.322 15.695 14.957 15.695 13.272 C 15.695 11.588 14.329 10.222 12.645 10.222 C 10.96 10.222 9.595 11.588 9.595 13.272 C 9.595 14.957 10.96 16.322 12.645 16.322 M 12.645 18.822 C 15.71 18.822 18.195 16.338 18.195 13.272 C 18.195 10.207 15.71 7.722 12.645 7.722 C 9.58 7.722 7.095 10.207 7.095 13.272 C 7.095 16.338 9.58 18.822 12.645 18.822" transform="matrix(1 0 0 1 0 0)" fill="#FFFFFF" stroke="none" />
  <path d="M 11.65 1 L 11.65 4.5 L 13.45 4.5 L 13.45 1 L 11.65 1 M 11.661 25.544 L 11.661 22.044 L 13.461 22.044 L 13.461 25.544 L 11.661 25.544 M 19.254 5.454 L 21.004 2.423 L 22.563 3.323 L 20.813 6.354 L 19.254 5.454 M 21.014 24.121 L 19.264 21.09 L 20.823 20.19 L 22.573 23.221 L 21.014 24.121 M 6.029 5.454 L 4.279 2.423 L 2.72 3.323 L 4.47 6.354 L 6.029 5.454 M 4.288 24.121 L 6.038 21.09 L 4.479 20.19 L 2.729 23.221 L 4.288 24.121" transform="matrix(1 0 0 1 0 0)" fill="#FFFFFF" stroke="none" />
</svg>
