<?xml version="1.0" encoding="UTF-8"?>
<!-- Reconstructed from Amplitude.Graphics.Svg.SvgAsset and recolored from static UIMapper.Color metadata for EWShop; not original source SVG. Live UI state/material colors are not included. -->
<svg xmlns="http://www.w3.org/2000/svg" width="32" height="32" viewBox="0 0 32 32">
  <path d="M 9.043 31.804 C 9.043 31.782 9.553 29.603 10.176 26.961 C 10.799 24.319 11.291 22.139 11.268 22.117 C 11.245 22.094 10.641 22.465 9.924 22.942 C 9.207 23.419 8.611 23.799 8.599 23.787 C 8.587 23.775 8.855 22.935 9.194 21.919 C 9.533 20.904 9.798 20.073 9.782 20.073 C 9.767 20.073 8.188 20.391 6.274 20.779 C 4.361 21.168 2.758 21.473 2.714 21.458 C 2.669 21.444 3.802 20.661 5.232 19.719 L 7.832 18.007 L 7.444 17.987 C 7.23 17.976 5.704 17.995 4.054 18.028 C 2.403 18.062 1.045 18.087 1.035 18.083 C 1.026 18.08 1.04 15.999 1.067 13.459 L 1.117 8.841 L 1.358 8.893 C 1.49 8.921 1.609 8.953 1.621 8.965 C 1.634 8.976 1.762 9.956 1.904 11.142 C 2.047 12.328 2.177 13.31 2.193 13.324 C 2.312 13.426 4.208 13.989 5.925 14.43 L 7.99 14.962 L 9.316 15.813 C 10.045 16.281 10.652 16.673 10.665 16.684 C 10.776 16.776 13.018 22.059 13.018 22.229 C 13.018 22.351 12.807 24.503 12.55 27.011 C 12.293 29.519 12.083 31.632 12.083 31.708 C 12.083 31.833 11.96 31.844 10.563 31.844 C 9.727 31.844 9.043 31.826 9.043 31.804 M 5.814 11.744 L 3.559 11.3 L 3.175 10.147 C 2.963 9.513 2.803 8.983 2.818 8.969 C 2.833 8.956 3.897 9.096 5.183 9.281 C 6.468 9.466 7.535 9.602 7.553 9.584 C 7.596 9.541 7.581 9.523 5.667 7.461 C 4.775 6.499 4.059 5.698 4.077 5.681 C 4.094 5.663 5.33 6.14 6.823 6.741 C 8.317 7.341 9.546 7.824 9.555 7.814 C 9.564 7.804 9.35 7.007 9.078 6.043 C 8.806 5.08 8.597 4.279 8.613 4.263 C 8.638 4.237 9.951 5.408 10.815 6.226 C 10.996 6.398 11.161 6.522 11.181 6.502 C 11.201 6.482 11.36 5.432 11.534 4.168 C 11.709 2.905 11.869 1.794 11.89 1.699 C 11.925 1.54 12.074 1.615 13.869 2.693 C 14.936 3.334 15.857 3.858 15.915 3.857 C 15.972 3.856 16.984 3.331 18.163 2.69 L 20.307 1.525 L 20.328 4.095 C 20.341 5.755 20.376 6.665 20.427 6.665 C 20.47 6.665 21.123 6.296 21.879 5.845 C 22.634 5.393 23.268 5.04 23.288 5.06 C 23.308 5.08 23.11 5.664 22.848 6.358 C 22.392 7.568 22.315 7.834 22.421 7.834 C 22.448 7.834 23.697 7.447 25.198 6.973 C 26.698 6.5 27.94 6.126 27.957 6.142 C 27.973 6.159 27.215 6.934 26.271 7.864 C 25.328 8.794 24.556 9.571 24.556 9.591 C 24.556 9.611 24.866 9.627 25.245 9.627 C 25.624 9.627 26.461 9.65 27.106 9.678 L 28.278 9.729 L 28.013 10.516 C 27.868 10.949 27.717 11.354 27.679 11.415 C 27.632 11.489 26.984 11.637 25.751 11.855 L 23.893 12.185 L 20.931 11.293 C 19.302 10.803 17.922 10.386 17.864 10.365 C 17.793 10.34 17.879 10.197 18.129 9.919 C 18.332 9.695 18.55 9.388 18.613 9.238 C 18.93 8.488 18.863 7.108 18.472 6.302 C 18.026 5.384 17.262 4.937 16.05 4.886 C 14.498 4.821 13.551 5.399 13.122 6.67 C 13.017 6.983 12.979 7.328 12.979 7.99 C 12.979 9.043 13.083 9.341 13.677 9.998 C 13.88 10.223 14.027 10.407 14.003 10.407 C 13.979 10.407 12.673 10.796 11.101 11.271 C 9.528 11.746 8.202 12.147 8.155 12.161 C 8.107 12.176 7.054 11.988 5.814 11.744 M 20.077 31.591 C 20.053 31.452 19.825 29.252 19.57 26.703 L 19.106 22.067 L 20.278 19.373 L 21.449 16.679 L 22.788 15.811 L 24.127 14.942 L 26.388 14.349 C 27.631 14.023 28.928 13.656 29.27 13.534 L 29.892 13.311 L 30.147 11.145 C 30.287 9.953 30.413 8.967 30.427 8.953 C 30.441 8.939 30.564 8.905 30.7 8.878 L 30.948 8.828 L 30.948 11.04 C 30.948 12.257 30.971 14.335 31 15.659 L 31.051 18.065 L 27.667 18.009 C 25.449 17.972 24.31 17.979 24.361 18.029 C 24.404 18.071 25.579 18.864 26.972 19.791 C 28.365 20.718 29.464 21.476 29.414 21.476 C 29.364 21.476 27.773 21.159 25.878 20.771 C 23.983 20.383 22.412 20.086 22.386 20.112 C 22.351 20.147 23.224 22.915 23.526 23.726 C 23.548 23.784 22.957 23.426 22.213 22.929 C 21.469 22.433 20.85 22.038 20.837 22.051 C 20.824 22.064 21.322 24.245 21.944 26.898 C 22.566 29.551 23.074 31.749 23.074 31.783 C 23.074 31.817 22.41 31.844 21.597 31.844 L 20.119 31.844 L 20.077 31.591 M 9.043 31.803 C 9.043 31.781 9.551 29.611 10.173 26.981 C 10.795 24.352 11.303 22.16 11.303 22.111 C 11.303 22.061 10.7 22.423 9.963 22.915 C 9.225 23.408 8.611 23.799 8.597 23.785 C 8.583 23.771 8.851 22.94 9.194 21.939 C 9.536 20.938 9.805 20.108 9.792 20.095 C 9.779 20.081 8.199 20.389 6.281 20.778 C 4.364 21.167 2.759 21.474 2.716 21.459 C 2.672 21.445 3.806 20.662 5.235 19.72 L 7.833 18.007 L 7.444 17.987 C 7.23 17.976 5.704 17.995 4.054 18.028 C 2.403 18.062 1.045 18.087 1.036 18.084 C 1.027 18.081 1.041 16 1.068 13.46 L 1.117 8.841 L 1.358 8.893 C 1.49 8.921 1.609 8.954 1.623 8.966 C 1.636 8.978 1.762 9.956 1.901 11.139 C 2.041 12.322 2.17 13.304 2.189 13.321 C 2.302 13.429 4.157 13.981 5.919 14.432 L 7.979 14.959 L 8.881 15.538 C 9.377 15.857 9.984 16.243 10.229 16.398 L 10.674 16.678 L 11.846 19.342 C 12.491 20.806 13.018 22.098 13.018 22.212 C 13.018 22.325 12.808 24.476 12.551 26.992 C 12.293 29.507 12.083 31.628 12.083 31.704 C 12.083 31.834 11.973 31.844 10.563 31.844 C 9.727 31.844 9.043 31.826 9.043 31.803 M 20.077 31.591 C 20.053 31.452 19.826 29.253 19.571 26.704 L 19.108 22.071 L 20.28 19.376 L 21.451 16.68 L 22.789 15.812 L 24.127 14.943 L 26.388 14.35 C 27.631 14.024 28.928 13.657 29.27 13.534 L 29.892 13.311 L 30.147 11.145 C 30.287 9.953 30.413 8.967 30.427 8.953 C 30.441 8.939 30.564 8.905 30.7 8.878 L 30.948 8.828 L 30.948 11.04 C 30.948 12.257 30.971 14.335 31 15.659 L 31.051 18.065 L 27.667 18.009 C 25.449 17.972 24.31 17.979 24.361 18.029 C 24.404 18.071 25.579 18.864 26.972 19.791 C 28.365 20.718 29.465 21.476 29.415 21.476 C 29.366 21.476 27.788 21.161 25.908 20.775 C 24.028 20.389 22.449 20.073 22.398 20.073 C 22.343 20.073 22.551 20.806 22.924 21.923 C 23.264 22.94 23.542 23.784 23.542 23.798 C 23.542 23.812 22.941 23.417 22.206 22.92 C 21.472 22.424 20.858 22.03 20.842 22.046 C 20.826 22.062 21.322 24.247 21.944 26.901 C 22.566 29.556 23.074 31.754 23.074 31.786 C 23.074 31.818 22.41 31.844 21.597 31.844 L 20.119 31.844 L 20.077 31.591 M 5.814 11.744 L 3.559 11.3 L 3.175 10.147 C 2.963 9.513 2.803 8.983 2.818 8.969 C 2.833 8.956 3.898 9.097 5.184 9.283 C 6.47 9.47 7.552 9.613 7.589 9.603 C 7.625 9.592 6.843 8.712 5.85 7.648 C 4.857 6.584 4.058 5.7 4.074 5.684 C 4.09 5.668 5.326 6.144 6.821 6.743 C 8.316 7.342 9.547 7.823 9.558 7.813 C 9.568 7.803 9.353 7.007 9.079 6.044 C 8.806 5.082 8.595 4.281 8.611 4.264 C 8.636 4.239 9.785 5.265 10.854 6.266 C 11.014 6.415 11.161 6.522 11.181 6.502 C 11.201 6.482 11.36 5.432 11.535 4.168 C 11.71 2.905 11.87 1.794 11.891 1.699 C 11.925 1.54 12.076 1.616 13.869 2.693 C 14.936 3.334 15.857 3.858 15.915 3.858 C 15.972 3.858 16.984 3.332 18.163 2.69 L 20.307 1.524 L 20.328 4.094 C 20.342 5.883 20.374 6.665 20.433 6.665 C 20.48 6.665 21.133 6.295 21.884 5.844 C 22.635 5.392 23.267 5.038 23.287 5.058 C 23.306 5.078 23.095 5.702 22.816 6.445 C 22.537 7.188 22.339 7.807 22.377 7.82 C 22.414 7.834 23.678 7.455 25.185 6.978 C 26.692 6.502 27.94 6.126 27.958 6.144 C 27.976 6.162 27.218 6.932 26.273 7.855 C 25.328 8.779 24.556 9.555 24.556 9.581 C 24.556 9.606 24.866 9.627 25.245 9.627 C 25.624 9.627 26.461 9.65 27.106 9.678 L 28.278 9.729 L 28.013 10.516 C 27.868 10.949 27.717 11.353 27.679 11.414 C 27.633 11.487 26.975 11.637 25.751 11.854 L 23.893 12.183 L 20.931 11.293 C 19.302 10.803 17.921 10.386 17.864 10.365 C 17.793 10.34 17.885 10.19 18.149 9.901 C 18.657 9.345 18.815 8.881 18.811 7.95 C 18.805 6.37 18.135 5.351 16.857 4.98 C 16.177 4.782 14.98 4.857 14.405 5.134 C 13.843 5.405 13.403 5.899 13.164 6.529 C 13.007 6.943 12.979 7.156 12.979 7.951 C 12.979 9.043 13.078 9.336 13.666 9.986 L 14.026 10.384 L 11.15 11.253 C 9.568 11.731 8.228 12.137 8.171 12.155 C 8.115 12.173 7.054 11.988 5.814 11.744 M 2.197 13.292 L 3.573 13.777 L 8.052 14.939 L 10.722 16.67 L 13.093 22.067 L 12.091 31.893 L 8.968 31.893 L 11.286 22.084 L 8.475 23.971 L 9.763 20.112 L 2.245 21.637 L 7.75 17.999 L 0.992 18.126 L 1.067 8.77 L 1.682 8.93 L 2.197 13.292 M 29.857 13.273 L 28.495 13.759 L 24.058 14.921 L 21.414 16.651 L 19.065 22.049 L 20.058 31.874 L 23.151 31.874 L 20.855 22.066 L 23.639 23.952 L 22.364 20.094 L 29.81 21.619 L 24.357 17.981 L 31.051 18.107 L 30.977 8.752 L 30.367 8.912 L 29.857 13.273 M 11.878 1.448 L 11.176 6.488 L 8.463 4.022 L 9.522 7.775 L 3.736 5.453 L 7.588 9.585 L 2.708 8.883 L 3.527 11.333 L 8.092 12.224 L 14.129 10.4 C 13.423 9.658 12.967 9.336 12.967 8.007 C 12.967 5.762 14.233 4.876 15.842 4.876 C 17.452 4.876 18.795 5.762 18.795 8.007 C 18.795 9.31 18.356 9.611 17.672 10.355 L 23.862 12.224 L 27.697 11.549 L 28.359 9.663 L 24.575 9.585 L 28.272 5.959 L 22.342 7.827 L 23.46 4.845 L 20.419 6.665 L 20.419 1.409 L 15.903 3.865 L 11.878 1.448" transform="matrix(1 0 0 1 0 0)" fill="#FFFFFF" stroke="none" />
</svg>
