<?xml version="1.0" encoding="UTF-8"?>
<!-- Reconstructed from Amplitude.Graphics.Svg.SvgAsset and recolored from static UIMapper.Color metadata for EWShop; not original source SVG. Live UI state/material colors are not included. -->
<svg xmlns="http://www.w3.org/2000/svg" width="57" height="57" viewBox="0 0 57 57">
  <path d="M 54.003 24.818 C 51.185 27.539 45.918 29.427 43.18 32.861 L 39.502 33.615 L 43.869 29.317 C 43.869 29.317 44.259 29.056 43.409 29.156 C 42.4 29.367 38.152 30.07 38.132 30.391 C 37.203 31.666 35.154 33.846 34.085 35.081 C 33.565 35.251 32.686 36.306 32.366 36.718 L 32.945 37.31 C 33.525 36.808 35.214 36.657 35.944 36.627 C 35.944 36.627 33.005 39.811 32.366 40.353 L 33.045 40.975 C 33.045 40.975 33.665 40.785 33.995 40.453 L 35.884 40.222 C 35.884 40.222 34.345 42.813 33.045 44.48 C 33.195 44.922 32.696 48.567 32.556 49.16 L 31.836 50.003 L 31.386 49.782 C 31.676 49.833 30.827 46.408 30.737 46.448 C 31.236 44.45 29.138 46.669 29.927 44.962 C 29.907 44.882 29.857 44.811 29.817 44.741 C 29.028 46.127 28.778 46.248 28.698 44.5 C 28.668 44.48 28.638 44.45 28.618 44.43 C 28.228 46.017 27.539 46.589 27.329 44.54 C 27.299 44.53 27.259 44.53 27.229 44.53 C 27.089 45.053 27.019 46.82 26.369 45.314 C 23.851 55.054 25.73 47.131 20.623 41.257 C 21.402 41.056 22.372 41.327 23.071 41.709 C 25.8 42.06 20.603 37.792 20.003 37.159 C 20.013 37.129 20.033 37.089 20.053 37.059 C 21.162 37.23 22.342 37.139 23.281 37.812 C 23.561 37.872 23.871 37.571 24.011 37.36 C 22.242 35.141 19.973 33.173 18.284 30.873 C 9.619 28.433 13.217 30.05 17.274 34.589 C 11.328 33.956 8.39 27.73 2.873 25.661 C -0.795 22.639 8.24 26.595 8.959 27.449 C 11.658 28.433 14.406 25.932 12.547 23.342 C 11.988 21.725 9.179 20.731 9.429 19.104 C 12.367 19.566 15.875 25.691 19.043 22.297 C 20.083 19.716 16.805 17.417 17.254 15.177 C 19.363 16.071 24.71 25.762 25.879 19.536 C 25.999 15.931 26.739 -1.563 28.098 12.205 C 29.737 32.56 37.883 11.964 39.032 15.72 C 37.173 18.311 34.654 23.944 40.211 22.98 C 42.53 22.297 44.279 18.973 46.618 19.014 C 47.167 20.66 38.322 24.527 42.3 27.78 C 44.759 29.226 53.044 22.97 54.003 24.818" transform="matrix(1 0 0 1 0 0)" fill="#FFE68B" stroke="none" />
</svg>
