<?xml version="1.0" encoding="UTF-8"?>
<!-- Reconstructed from Amplitude.Graphics.Svg.SvgAsset and recolored from static UIMapper.Color metadata for EWShop; not original source SVG. Live UI state/material colors are not included. -->
<svg xmlns="http://www.w3.org/2000/svg" width="57" height="57" viewBox="0 0 57 57">
  <path d="M 33.162 34.119 C 32.692 34.884 31.502 34.139 31.242 35.155 C 30.813 36.473 28.404 36.946 29.533 35.095 C 29.903 34.733 29.273 34.421 29.313 33.948 C 29.273 32.148 33.172 32.289 33.162 34.119" transform="matrix(1 0 0 1 0 0)" fill="#F16599" stroke="none" />
  <path d="M 28.404 32.339 C 27.324 32.108 26.125 34.431 25.215 33.043 C 25.415 32.681 26.055 32.681 25.965 32.077 C 26.235 31.424 25.825 30.498 26.835 30.599 C 27.664 30.689 28.344 30.197 29.153 30.106 C 29.743 30.186 28.994 31.041 29.493 31.414 C 29.673 31.705 29.253 31.725 29.163 31.886 C 29.003 32.279 28.724 32.399 28.404 32.329 L 28.404 32.339" transform="matrix(1 0 0 1 0 0)" fill="#F16599" stroke="none" />
  <path d="M 34.111 37.459 C 34.211 36.362 34.671 35.215 34.521 34.129 C 34.271 33.817 35.181 32.932 35.421 33.194 C 36.161 34.28 36.701 36.171 35.581 37.167 C 34.891 37.67 34.351 39.47 34.111 37.448 L 34.111 37.459" transform="matrix(1 0 0 1 0 0)" fill="#F16599" stroke="none" />
  <path d="M 25.615 28.738 C 26.195 27.652 27.774 26.586 28.964 27.149 C 30.003 27.712 29.983 29.482 28.614 29.543 C 28.194 28.99 27.974 28.889 27.764 29.1 C 27.044 28.859 26.275 28.979 25.615 28.738" transform="matrix(1 0 0 1 0 0)" fill="#F16599" stroke="none" />
  <path d="M 32.692 25.227 C 31.472 23.819 35.391 24.161 35.041 25.127 C 34.231 26.243 33.222 27.36 31.972 27.953 C 31.542 27.108 32.542 26.465 32.512 25.791 C 32.462 25.61 32.602 25.409 32.682 25.227 L 32.692 25.227" transform="matrix(1 0 0 1 0 0)" fill="#F16599" stroke="none" />
  <path d="M 31.752 30.388 C 32.362 30.247 32.272 30.247 32.372 29.482 C 32.972 28.869 33.911 30.207 34.731 29.905 C 35.411 30.116 35.011 31.102 34.601 31.404 C 34.251 32.138 33.691 31.353 33.162 31.575 C 31.902 31.514 31.093 32.078 31.762 30.378 L 31.752 30.388" transform="matrix(1 0 0 1 0 0)" fill="#F16599" stroke="none" />
  <path d="M 32.712 39.239 C 32.152 39.37 31.123 39.501 30.903 38.786 C 30.813 38.475 30.673 38.404 30.353 38.495 C 29.853 38.666 29.413 38.766 29.163 38.153 C 30.353 37.549 31.752 38.324 32.732 39.138 C 32.732 39.169 32.712 39.209 32.702 39.239 L 32.712 39.239" transform="matrix(1 0 0 1 0 0)" fill="#F16599" stroke="none" />
  <path d="M 35.401 26.656 C 35.431 25.821 36.811 26.032 37.041 26.565 C 37.041 28.306 35.711 27.762 35.401 26.656" transform="matrix(1 0 0 1 0 0)" fill="#F16599" stroke="none" />
  <path d="M 27.055 21.888 C 26.515 21.868 26.525 21.365 26.445 20.953 C 26.365 20.339 27.135 20.55 27.455 20.731 C 28.005 20.912 27.425 21.828 27.055 21.888" transform="matrix(1 0 0 1 0 0)" fill="#F16599" stroke="none" />
  <path d="M 49.344 23.93 L 47.385 23.93 C 47.535 24.825 47.665 25.68 47.815 26.585 C 47.045 26.464 46.146 26.806 45.606 26.384 C 45.126 22.783 43.547 19.554 41.118 16.869 L 44.066 16.869 L 45.036 18.267 L 47.225 18.267 C 44.426 12.875 38.829 8.762 32.922 7.474 C 32.792 8.057 32.912 8.892 32.862 9.466 C 36.3 10.15 39.379 11.94 41.897 14.374 C 37.42 15.139 34.111 11.397 29.623 11.417 L 29.623 8.933 C 30.233 8.993 30.803 9.053 31.402 9.114 L 31.402 7.213 C 29.343 6.931 27.294 6.921 25.255 7.233 L 25.255 9.144 C 25.885 9.073 26.505 9.013 27.144 8.943 L 27.144 11.457 C 22.686 11.528 19.438 15.169 14.95 14.364 C 17.449 11.95 20.457 10.29 23.796 9.466 L 23.796 7.504 C 17.769 8.832 12.591 12.765 9.642 18.227 C 14.13 18.619 10.222 16.295 16 16.869 C 13.481 19.645 11.991 22.864 11.502 26.545 L 9.033 26.545 C 9.173 25.66 9.313 24.795 9.453 23.93 L 7.503 23.93 C 4.655 36.503 14.26 49.358 27.094 49.951 C 27.294 48.442 26.655 46.602 27.414 45.264 C 27.754 44.771 27.164 44.057 26.665 43.876 C 26.165 43.644 25.805 43.041 25.265 42.85 C 24.606 42.699 25.045 42.206 24.686 41.894 C 23.986 42.055 22.347 41.824 23.096 42.97 C 22.566 43.212 21.547 42.991 21.077 42.618 C 20.517 42.065 19.608 42.538 19.098 41.854 C 19.218 41.713 19.318 41.613 19.408 41.502 C 19.418 41.532 19.418 41.552 19.428 41.572 C 20.038 41.693 20.228 41.029 20.697 40.778 C 21.547 40.043 19.428 40.053 19.378 39.259 C 19.008 39.601 18.928 40.788 18.318 39.993 C 17.949 39.47 17.289 40.174 16.929 39.46 C 17.519 39.229 17.399 38.706 17.379 38.193 C 15.47 38.525 15.8 37.227 14.91 36.241 C 14.18 35.598 15.04 32.661 16.08 33.184 C 16.569 33.878 16.729 35.115 17.829 34.843 C 18.059 34.793 18.239 34.853 18.298 35.085 C 18.598 35.668 19.288 34.813 19.788 35.286 C 19.598 35.427 19.438 35.537 19.278 35.648 C 19.378 35.93 19.378 35.96 19.118 36.131 C 17.339 37.69 18.608 38.162 20.318 37.458 C 20.977 37.871 21.167 38.323 22.127 37.991 C 22.137 38.464 21.757 38.545 21.457 38.756 C 21.187 39.742 22.826 39.309 23.386 39.269 C 24.156 39.229 24.076 38.344 24.466 37.951 C 25.025 37.207 23.756 37.468 23.416 37.438 C 23.586 37.187 24.066 36.955 23.946 36.634 C 23.456 36.463 24.036 34.793 24.416 34.551 C 24.226 34.25 23.926 34.421 23.636 34.411 C 23.026 34.411 22.676 33.827 22.057 34.3 C 21.277 34.662 20.767 34.391 21.457 33.626 C 21.797 33.013 20.577 32.288 20.028 32.5 C 19.768 32.63 19.488 32.469 19.328 32.198 C 19.218 32.007 19.168 31.856 19.448 31.785 C 19.748 31.594 19.648 30.991 19.658 30.679 C 19.638 28.949 20.797 31.282 21.467 31.413 C 22.616 31.464 22.237 30.649 21.517 30.236 L 21.577 30.146 C 22.067 30.287 22.097 29.583 22.576 29.844 C 24.196 29.673 22.237 28.235 22.067 27.541 C 22.277 26.283 24.306 26.756 24.775 25.579 C 25.515 25.117 24.795 26.957 26.085 27.028 C 27.064 27.028 27.334 25.931 26.685 25.338 C 26.335 25.207 26.235 24.805 26.455 24.513 C 26.884 23.819 26.385 22.129 25.415 22.582 C 24.745 22.823 25.295 23.769 24.486 23.849 C 23.396 25.117 23.826 23.517 23.996 22.773 C 23.946 22.019 22.776 21.828 22.337 21.214 C 21.997 20.671 23.186 20.299 23.626 20.651 C 24.086 20.882 24.416 21.415 24.985 21.315 C 25.005 20.339 25.255 18.921 24.476 18.589 C 23.676 18.066 24.845 17.633 25.355 17.724 C 25.445 17.704 25.585 17.593 25.585 17.553 C 25.365 17.07 26.315 16.889 26.525 17.1 C 26.575 17.543 25.945 17.643 26.575 18.146 C 27.754 18.579 28.734 17.251 28.384 19.605 C 28.524 20.862 28.424 21.284 29.583 21.807 C 29.833 22.652 29.173 23.749 29.743 24.453 C 30.483 24.825 31.093 24.483 31.452 23.759 C 30.643 23.085 30.053 21.727 30.743 20.822 C 31.672 21.898 32.192 25.217 33.711 22.632 C 33.781 21.858 32.542 22.341 32.082 22.059 C 31.302 21.717 32.062 19.745 32.912 20.52 C 32.992 21.737 35.301 21.093 34.791 22.632 C 34.691 23.206 34.791 23.447 35.281 23.729 C 36.35 25.529 40.108 23.095 38.319 26.122 C 37.899 26.495 38.719 26.736 38.289 27.118 C 37.739 27.581 37.47 28.305 37.53 28.979 C 38.039 29.15 38.739 28.335 39.019 29.05 C 39.269 30.065 38.319 30.086 37.759 30.518 C 38.319 31.353 42.217 31.433 40.338 32.791 C 39.968 32.892 39.159 32.701 39.249 33.314 C 39.249 33.515 39.009 33.857 39.219 34.059 C 40.378 37.328 40.428 34.632 42.217 36.211 C 42.977 37.851 42.307 37.941 41.318 39.239 C 40.568 40.617 40.028 38.776 40.018 37.991 L 39.918 37.991 C 39.389 38.545 40.098 40.235 38.989 39.963 C 38.819 40.084 38.669 40.194 38.539 40.295 C 38.359 40.053 38.219 39.872 38.059 39.661 C 38.059 38.937 38.699 36.825 37.48 37.046 C 37.32 38.082 36.49 39.983 36.96 40.727 C 37.52 40.637 37.639 41.17 37.44 41.602 C 37.55 42.347 36.54 41.884 36.31 42.488 C 35.45 43.443 34.551 42.105 34.381 41.22 C 34.201 40.818 33.671 40.878 33.381 40.577 C 32.322 39.953 32.282 40.858 32.972 41.482 C 33.601 41.572 34.471 42.186 34.061 42.89 C 34.021 43.634 32.592 44.851 32.152 43.916 C 32.132 43.926 32.112 43.946 32.092 43.966 C 32.162 43.835 32.232 43.705 32.282 43.624 C 31.382 41.784 31.172 43.514 30.043 43.383 C 29.543 43.091 28.964 42.598 28.314 42.92 C 27.544 43.423 27.324 42.256 26.575 42.337 C 26.705 43.001 27.284 43.373 27.834 43.715 C 30.433 44.59 29.533 47.819 29.683 50.001 C 43.067 50.132 52.662 33.737 49.344 23.93 M 16.439 40.868 C 18.648 43.101 21.297 44.59 24.336 45.364 C 25.015 45.747 24.476 46.964 24.646 47.718 C 15.83 46.018 9.153 38.062 8.953 29.05 L 11.362 29.05 C 11.582 33.546 13.221 37.69 16.439 40.868 M 42.097 42.427 C 39.309 45.183 35.99 46.944 32.122 47.728 C 31.113 43.735 39.409 45.566 43.357 37.328 C 43.377 37.328 43.377 37.318 43.377 37.308 C 44.216 35.95 45.576 33.143 45.676 29.05 L 47.855 29.05 C 47.825 32.882 46.365 38.193 42.097 42.427" transform="matrix(1 0 0 1 0 0)" fill="#F16599" stroke="none" />
</svg>
