<?xml version="1.0" encoding="UTF-8"?>
<!-- Reconstructed from Amplitude.Graphics.Svg.SvgAsset and recolored from static UIMapper.Color metadata for EWShop; not original source SVG. Live UI state/material colors are not included. -->
<svg xmlns="http://www.w3.org/2000/svg" width="24" height="24" viewBox="0 0 24 24">
  <path d="M 15 21.888 C 15.52 20.798 17.621 19.092 21.864 20.995 C 20.928 22.284 18.245 24.266 15 21.888 M 22.887 17.167 C 22.724 17.973 22.203 19.136 21.174 19.93 C 19.548 19.316 18.271 19.258 17.303 19.472 C 17.903 18.33 19.465 17.089 22.887 17.167 M 22.97 13 C 23.084 13.926 22.906 15.427 21.882 16.545 C 20.245 16.642 19.119 17.075 18.363 17.629 C 18.191 16.364 18.898 14.128 22.97 13" transform="matrix(1 0 0 1 0 0)" fill="#FFFFFF" stroke="none" />
  <path d="M 9 21.888 C 8.48 20.798 6.379 19.092 2.136 20.995 C 3.072 22.284 5.755 24.266 9 21.888 M 1.113 17.167 C 1.276 17.973 1.797 19.135 2.826 19.929 C 4.451 19.315 5.729 19.257 6.697 19.471 C 6.097 18.33 4.534 17.089 1.113 17.167 M 1.03 13 C 0.916 13.926 1.094 15.426 2.117 16.544 C 3.755 16.641 4.881 17.075 5.637 17.629 C 5.809 16.364 5.102 14.128 1.03 13" transform="matrix(1 0 0 1 0 0)" fill="#FFFFFF" stroke="none" />
  <path d="M 14.456 8.544 L 13.749 6.344 L 12 1 L 10.271 6.344 L 9.544 8.544 L 1 11 L 9.544 13.456 L 12 23 L 14.456 13.456 L 23 11 L 14.456 8.544" transform="matrix(1 0 0 1 0 0)" fill="#FFFFFF" stroke="none" />
</svg>
