<?xml version="1.0" encoding="UTF-8"?>
<!-- Reconstructed from Amplitude.Graphics.Svg.SvgAsset and recolored from static UIMapper.Color metadata for EWShop; not original source SVG. Live UI state/material colors are not included. -->
<svg xmlns="http://www.w3.org/2000/svg" width="36" height="36" viewBox="0 0 36 36">
  <path d="M 18.512 26.732 C 16.962 27.629 15.162 28.143 13.242 28.143 C 7.42 28.143 2.701 23.423 2.701 17.602 C 2.701 11.781 7.42 7.061 13.242 7.061 C 15.162 7.061 16.962 7.575 18.512 8.471 C 20.062 7.575 21.862 7.061 23.782 7.061 C 29.604 7.061 34.323 11.781 34.323 17.602 C 34.323 23.423 29.604 28.143 23.782 28.143 C 21.862 28.143 20.062 27.629 18.512 26.732 M 17.187 25.825 C 15.993 26.399 14.655 26.72 13.242 26.72 C 8.206 26.72 4.124 22.638 4.124 17.602 C 4.124 12.566 8.206 8.484 13.242 8.484 C 14.655 8.484 15.993 8.805 17.187 9.379 C 14.781 11.311 13.242 14.277 13.242 17.602 C 13.242 20.927 14.781 23.893 17.187 25.825 M 14.665 17.484 L 21.353 13.432 C 21.16 13.059 20.943 12.7 20.702 12.358 L 14.832 15.852 C 14.729 16.381 14.672 16.926 14.665 17.484 M 21.779 14.394 C 21.937 14.814 22.065 15.248 22.16 15.695 L 14.993 20.037 C 14.861 19.559 14.766 19.064 14.714 18.557 L 14.766 18.643 L 21.779 14.394 M 15.338 21.048 L 22.326 16.814 C 22.348 17.074 22.36 17.337 22.36 17.602 C 22.36 17.876 22.348 18.148 22.324 18.416 L 15.952 22.277 C 15.718 21.885 15.512 21.475 15.338 21.048 M 16.539 23.141 C 17.097 23.87 17.763 24.512 18.512 25.043 C 20.274 23.794 21.572 21.934 22.1 19.772 L 16.539 23.141 M 18.512 10.16 C 17.04 11.205 15.891 12.675 15.246 14.392 L 20.048 11.534 C 19.59 11.021 19.074 10.559 18.512 10.16 M 19.837 9.379 C 21.031 8.805 22.369 8.484 23.782 8.484 C 28.818 8.484 32.9 12.566 32.9 17.602 C 32.9 22.638 28.818 26.72 23.782 26.72 C 22.369 26.72 21.031 26.399 19.837 25.825 C 22.243 23.893 23.782 20.927 23.782 17.602 C 23.782 14.277 22.243 11.311 19.837 9.379" transform="matrix(1 0 0 1 0 0)" fill="#FFFFFF" stroke="none" />
</svg>
