<?xml version="1.0" encoding="UTF-8"?>
<!-- Reconstructed from Amplitude.Graphics.Svg.SvgAsset and recolored from static UIMapper.Color metadata for EWShop; not original source SVG. Live UI state/material colors are not included. -->
<svg xmlns="http://www.w3.org/2000/svg" width="24" height="24" viewBox="0 0 24 24">
  <path d="M 2.96 1 C 4.8 7.13 7.38 9.44 10.66 9.97 C 10.67 10.05 10.68 10.14 10.7 10.22 L 11.29 12.96 C 11.07 13.43 10.95 13.95 10.95 14.5 C 10.95 15.56 11.4 16.51 12.11 17.15 C 12.18 17.301 12.281 17.561 12.4 17.9 C 12.55 18.34 12.71 18.861 12.86 19.36 C 13 19.86 13.131 20.33 13.231 20.68 C 13.28 20.859 13.31 21 13.34 21.1 L 13.38 21.21 L 13.38 21.24 L 13.481 21.64 L 14.99 22.54 C 9.95 23.31 5.65 23.55 4.87 19.481 C 7.731 20.47 8.7 19.01 8.72 18.981 C 8.55 18.951 8.37 18.91 8.19 18.88 C 4.77 18.22 2 17.68 2 11.85 C 5.36 14.99 8.73 14.99 8.73 14.99 C 8.41 14.74 8.05 14.49 7.67 14.21 C 4.74 12.09 0.41 8.96 2.96 1" transform="matrix(1 0 0 1 0 0)" fill="#00CAFF" fill-opacity="0.871" stroke="none" />
  <path d="M 15.84 8.52 C 17.19 8.43 18.82 8.6 20.99 9.34 C 21.26 9.58 21.38 9.98 21.28 10.36 L 20.79 12.14 L 20.79 12.32 C 21.51 12.75 22 13.56 22 14.49 C 22 15.2 21.72 15.84 21.26 16.3 C 21.23 16.64 21.25 17.08 21.27 17.5 C 21.28 17.77 21.29 18.03 21.29 18.27 C 21.29 18.67 21.07 18.821 20.86 18.981 C 20.69 19.101 20.51 19.23 20.44 19.49 C 20.199 20.36 19.72 21.15 19.27 21.87 C 19.23 21.94 19.19 22 19.15 22.07 C 18.85 22.56 18.23 22.74 17.75 22.46 L 15.27 20.99 C 15.27 20.99 14.32 17.351 13.83 16.49 C 13.25 16.03 12.87 15.31 12.87 14.49 C 12.87 13.98 13.02 13.51 13.27 13.11 L 12.6 9.99 C 12.54 9.72 12.59 9.45 12.73 9.23 C 13.7 8.89 14.68 8.6 15.84 8.52 M 15.94 15.99 L 16.9 15.99 L 16.9 12.99 L 15.94 12.99 L 15.94 15.99 M 17.87 15.99 L 18.83 15.99 L 18.83 12.99 L 17.87 12.99 L 17.87 15.99 M 19.79 15.99 C 20.5 15.89 21.04 15.26 21.04 14.5 C 21.04 13.74 20.5 13.11 19.79 13.01 L 19.79 15.99 M 14.98 13.02 C 14.33 13.16 13.83 13.76 13.83 14.49 C 13.83 15.22 14.32 15.82 14.98 15.96 L 14.98 13.02" transform="matrix(1 0 0 1 0 0)" fill="#00CAFF" fill-opacity="0.871" stroke="none" />
  <path d="M 16.2 4.93 C 16.91 4.88 17.77 4.96 18.88 5.29 C 19.27 5.46 19.53 5.941 19.47 6.391 L 19.44 6.641 L 20 7.99 C 18.34 7.55 16.98 7.431 15.78 7.521 C 15.13 7.571 14.54 7.671 13.98 7.811 L 13.98 7.8 C 14.019 7.66 14.05 7.53 14.09 7.391 L 13.95 6.38 C 13.88 5.88 14.34 5.31 14.82 5.19 C 15.25 5.06 15.69 4.97 16.2 4.93" transform="matrix(1 0 0 1 0 0)" fill="#00CAFF" fill-opacity="0.871" stroke="none" />
  <path d="M 16.19 2.32 C 16.57 1.68 17.44 1.8 17.72 2.49 L 18.4 4.13 L 18.39 4.13 C 17.53 3.93 16.79 3.88 16.13 3.93 C 15.83 3.95 15.55 3.99 15.29 4.04 C 15.57 3.44 15.87 2.86 16.19 2.32" transform="matrix(1 0 0 1 0 0)" fill="#00CAFF" fill-opacity="0.871" stroke="none" />
</svg>
