<?xml version="1.0" encoding="UTF-8"?>
<!-- Reconstructed from Amplitude.Graphics.Svg.SvgAsset and recolored from static UIMapper.Color metadata for EWShop; not original source SVG. Live UI state/material colors are not included. -->
<svg xmlns="http://www.w3.org/2000/svg" width="24" height="24" viewBox="0 0 24 24">
  <path d="M 1.17 18.18 C 1.63 18.86 2.27 19.51 3.1 19.8 C 4.09 21.04 5.65 21.79 7.25 21.41 L 7.27 21.41 L 7.4 21.37 C 7.97 21.18 8.83 20.67 9.56 19.741 C 9.869 19.791 10.19 19.83 10.52 19.87 C 11.31 20.57 12.37 21 13.5 21 C 14.63 21 15.67 20.58 16.46 19.89 C 17.12 19.82 17.8 19.73 18.49 19.6 C 18.97 19.85 19.49 20 20 20 L 20.01 20 C 21.04 20 22.14 19.39 22.83 18.47 C 22.89 18.45 22.95 18.43 23.01 18.41 L 22.02 22.17 C 21.94 22.185 11.554 24.043 2.16 22.17 C 2.16 22.17 0.51 20.58 1.17 18.18" transform="matrix(1 0 0 1 0 0)" fill="#000000" fill-opacity="0.871" stroke="none" />
  <path d="M 9.4 12.5 C 10.13 14.05 10.27 16.29 9.28 17.29 C 9.22 18.77 8.39 20.04 7.11 20.4 C 5.85 20.75 4.51 20.12 3.68 18.92 L 3.68 18.93 C 2.27 18.67 1.19 16.63 1 14.88 C 1.75 15.71 2.43 16.28 2.89 16.65 C 2.78 14.97 3.65 13.46 5.06 13.07 C 6.45 12.68 7.94 13.48 8.72 14.92 C 8.93 14.36 9.2 13.55 9.4 12.5 M 5.35 17.19 C 5.3 16.75 4.949 16.7 4.52 16.75 C 4.08 16.8 3.75 16.92 3.79 17.36 C 3.84 17.79 4.19 18.03 4.62 17.98 C 5.06 17.93 5.4 17.62 5.35 17.19 M 7.99 15.93 C 7.77 15.56 7.42 15.66 7.06 15.89 C 6.69 16.12 6.44 16.38 6.66 16.75 C 6.88 17.11 7.34 17.16 7.71 16.93 C 8.08 16.71 8.21 16.3 7.99 15.93" transform="matrix(1 0 0 1 0 0)" fill="#000000" fill-opacity="0.871" stroke="none" />
  <path d="M 13.43 13.56 C 14.65 13.57 15.67 14.59 15.95 15.97 C 15.95 15.97 16.21 16.86 15.82 17.97 C 15.42 19.11 14.48 19.9 13.38 19.9 C 12.27 19.88 11.33 19.04 10.96 17.86 C 10.513 16.826 10.886 15.842 10.891 15.83 C 11.211 14.5 12.24 13.53 13.44 13.55 L 13.43 13.56 M 15.41 16.73 C 15.34 16.37 15.05 16.35 14.69 16.4 C 14.331 16.45 14.06 16.57 14.11 16.93 C 14.17 17.29 14.51 17.46 14.87 17.41 C 15.23 17.36 15.45 17.09 15.4 16.73 L 15.41 16.73 M 12.45 16.26 C 12.11 16.15 11.81 16.151 11.71 16.491 C 11.61 16.83 11.811 17.13 12.15 17.23 C 12.5 17.33 12.86 17.19 12.96 16.85 L 12.96 16.86 C 13.06 16.52 12.79 16.36 12.45 16.26" transform="matrix(1 0 0 1 0 0)" fill="#000000" fill-opacity="0.871" stroke="none" />
  <path d="M 20.061 12.959 C 21.2 12.94 22.181 13.86 22.481 15.119 C 22.481 15.119 22.85 16.06 22.42 17.05 C 22.07 18.17 21.17 18.97 20.12 18.98 C 19.08 18.99 18.19 18.24 17.8 17.15 C 17.42 16.1 17.67 15.249 17.67 15.249 C 17.93 13.94 18.901 12.969 20.061 12.959 M 18.9 15.65 C 18.56 15.6 18.28 15.63 18.22 15.97 C 18.17 16.31 18.38 16.569 18.72 16.619 C 19.06 16.669 19.39 16.5 19.44 16.16 C 19.49 15.82 19.23 15.7 18.89 15.65 L 18.9 15.65 M 21.71 15.74 C 21.62 15.41 21.33 15.42 21.01 15.52 L 21 15.52 C 20.67 15.61 20.431 15.76 20.521 16.09 C 20.621 16.42 20.96 16.55 21.29 16.45 C 21.62 16.35 21.8 16.07 21.71 15.74" transform="matrix(1 0 0 1 0 0)" fill="#000000" fill-opacity="0.871" stroke="none" />
  <path d="M 13.15 5.991 C 13.36 7.04 13.62 7.861 13.83 8.41 C 14.61 6.97 16.1 6.17 17.49 6.56 C 18.9 6.96 19.77 8.46 19.66 10.14 C 20.13 9.78 20.81 9.2 21.56 8.37 C 21.37 10.12 20.29 12.16 18.88 12.42 L 18.87 12.41 C 18.05 13.61 16.71 14.24 15.44 13.89 C 14.161 13.53 13.34 12.26 13.27 10.781 C 12.28 9.781 12.42 7.541 13.15 5.991 M 18.04 10.25 C 17.61 10.2 17.26 10.26 17.21 10.69 C 17.16 11.12 17.51 11.43 17.94 11.48 C 18.38 11.53 18.719 11.29 18.77 10.861 C 18.81 10.421 18.47 10.3 18.04 10.25 M 15.49 9.39 C 15.13 9.16 14.78 9.06 14.56 9.43 C 14.34 9.8 14.47 10.21 14.84 10.43 C 15.2 10.67 15.67 10.62 15.89 10.25 C 16.11 9.88 15.86 9.61 15.49 9.39" transform="matrix(1 0 0 1 0 0)" fill="#000000" fill-opacity="0.871" stroke="none" />
  <path d="M 5.49 7.69 C 6.36 7.27 7.44 7.62 8.13 8.48 C 8.13 8.48 8.75 9.081 8.78 9.991 C 8.91 10.98 8.52 11.92 7.71 12.31 C 6.91 12.69 5.95 12.441 5.26 11.741 C 4.599 11.07 4.473 10.34 4.47 10.321 C 4.2 9.231 4.59 8.13 5.48 7.7 L 5.49 7.69 M 6.15 10.4 C 6.07 10.12 5.83 10.13 5.55 10.21 C 5.27 10.29 5.06 10.411 5.14 10.701 C 5.22 10.98 5.48 11.09 5.76 11.01 C 6.04 10.93 6.23 10.68 6.15 10.4 M 7.75 9.25 C 7.56 9.03 7.34 9.13 7.13 9.33 C 6.92 9.52 6.78 9.72 6.97 9.94 C 7.16 10.16 7.47 10.14 7.69 9.94 C 7.9 9.75 7.94 9.47 7.75 9.25" transform="matrix(1 0 0 1 0 0)" fill="#000000" fill-opacity="0.871" stroke="none" />
  <path d="M 8.51 2.13 C 11.31 0.93 13.31 0.53 14.11 1.73 C 14.56 2.4 15.69 3.77 16.65 4.89 C 18.78 4.51 20.931 3.93 23.021 3 C 23.02 6.09 21.47 7.26 20.61 7.48 C 19.78 6.28 18.48 5.5 17.021 5.5 C 15.861 5.5 14.81 5.98 14.01 6.78 C 13.753 5.823 13.575 5.021 13.57 5 C 12.321 5.94 12.051 6.919 12.021 7.619 L 12 7.619 C 11.94 9.699 11.62 11 10.01 11 C 10.01 9.03 9 7.26 7.54 6.69 C 4.75 6.13 2.34 8.22 3.43 10.6 C 3.38 10.57 3.3 10.52 3.3 10.52 L 3.311 10.53 C 1.581 9.46 -0.849 6.77 3.311 6.13 C 4.35 5.97 5.49 5.87 6.71 5.79 C 6.51 4.61 6.7 2.91 8.51 2.13" transform="matrix(1 0 0 1 0 0)" fill="#000000" fill-opacity="0.871" stroke="none" />
</svg>
