<?xml version="1.0" encoding="UTF-8"?>
<!-- Reconstructed from Amplitude.Graphics.Svg.SvgAsset and recolored from static UIMapper.Color metadata for EWShop; not original source SVG. Live UI state/material colors are not included. -->
<svg xmlns="http://www.w3.org/2000/svg" width="24" height="24" viewBox="0 0 24 24">
  <path d="M 15.35 9.78 C 15.44 9.87 15.5 10 15.5 10.14 L 15.5 15.5 L 17.5 17.5 L 12 23 L 6.5 17.5 L 8.5 15.5 L 8.5 10.14 C 8.5 10 8.55 9.87 8.65 9.78 L 10.5 8 L 10.5 13.5 L 12 12 L 13.5 13.5 L 13.5 8 L 15.35 9.78 M 7.5 17.5 L 9.5 19.5 L 8.5 17.5 L 9.5 15.5 L 7.5 17.5 M 15.5 17.5 L 14.5 19.5 L 16.5 17.5 L 14.5 15.5 L 15.5 17.5 M 13.17 16.58 C 12.57 16.11 11.3 16.11 10.7 16.58 L 9.71 17.5 L 10.731 18.42 C 11.321 18.87 12.59 18.87 13.18 18.42 L 13.17 18.42 L 14.29 17.5 L 13.17 16.58" transform="matrix(1 0 0 1 0 0)" fill="#767676" fill-opacity="0.871" stroke="none" />
  <path d="M 22.24 18.44 L 23 20.04 C 22.65 20.42 21.26 21.04 20.96 21.16 C 19.28 21.85 16.66 22.29 15 22 L 17.5 19.5 C 20 19.5 21.5 19.001 22.24 18.431 L 22.24 18.44" transform="matrix(1 0 0 1 0 0)" fill="#767676" fill-opacity="0.871" stroke="none" />
  <path d="M 1.76 18.391 C 2.5 18.961 4 19.46 6.5 19.46 L 9 22 C 7.34 22.29 4.71 21.81 3.04 21.12 C 2.74 21 1.36 20.38 1 20 L 1.76 18.4 L 1.76 18.391" transform="matrix(1 0 0 1 0 0)" fill="#767676" fill-opacity="0.871" stroke="none" />
  <path d="M 14.8 5.17 C 14.86 5.18 14.921 5.2 14.981 5.2 C 15.04 5.2 15.1 5.22 15.16 5.22 L 17 2 L 17.97 5.87 L 20 3.5 L 20 6.99 C 20.04 7.01 20.12 7.07 20.12 7.07 L 22 5.5 L 22 9.03 C 23 10.58 23 12 23 12 L 19.5 17.5 L 16.5 14.5 L 16.5 9.5 L 12.5 6 L 12.5 11 L 11.5 11 L 11.5 6 L 7.5 9.5 L 7.5 14.5 L 4 17.5 L 1 12 C 1 12 1 10.59 2 9.03 L 2 5.5 L 3.88 7.07 C 3.919 7.041 3.997 6.992 4 6.99 L 4 3.5 L 6.03 5.87 L 7 2 L 8.84 5.22 C 8.9 5.22 8.96 5.2 9.02 5.2 C 9.08 5.19 9.14 5.18 9.2 5.17 L 10.2 1 L 11.64 5 L 12.36 5 L 13.8 1 L 14.8 5.17 M 4.5 14.7 C 4.22 14.7 4 14.92 4 15.2 C 4 15.48 4.22 15.7 4.5 15.7 C 4.78 15.7 5 15.48 5 15.2 C 5 14.92 4.78 14.7 4.5 14.7 M 19.5 14.7 C 19.22 14.7 19 14.92 19 15.2 C 19 15.48 19.22 15.7 19.5 15.7 C 19.78 15.7 20 15.48 20 15.2 C 20 14.92 19.78 14.7 19.5 14.7 M 6 13.2 C 5.72 13.2 5.5 13.42 5.5 13.7 C 5.5 13.98 5.72 14.2 6 14.2 C 6.28 14.2 6.5 13.98 6.5 13.7 C 6.5 13.42 6.28 13.2 6 13.2 M 18 13.2 C 17.72 13.2 17.5 13.42 17.5 13.7 C 17.5 13.98 17.72 14.2 18 14.2 C 18.28 14.2 18.5 13.98 18.5 13.7 C 18.5 13.42 18.28 13.2 18 13.2 M 3.5 12.7 C 3.22 12.7 3 12.92 3 13.2 C 3 13.48 3.22 13.7 3.5 13.7 C 3.78 13.7 4 13.48 4 13.2 C 4 12.92 3.78 12.7 3.5 12.7 M 20.5 12.7 C 20.22 12.7 20 12.92 20 13.2 C 20 13.48 20.22 13.7 20.5 13.7 C 20.78 13.7 21 13.48 21 13.2 C 21 12.92 20.78 12.7 20.5 12.7 M 5 11.2 C 4.72 11.2 4.5 11.42 4.5 11.7 C 4.5 11.98 4.72 12.2 5 12.2 C 5.28 12.2 5.5 11.98 5.5 11.7 C 5.5 11.42 5.28 11.2 5 11.2 M 19 11.2 C 18.72 11.2 18.5 11.42 18.5 11.7 C 18.5 11.98 18.72 12.2 19 12.2 C 19.28 12.2 19.5 11.98 19.5 11.7 C 19.5 11.42 19.28 11.2 19 11.2 M 2.5 10.7 C 2.22 10.7 2 10.92 2 11.2 C 2 11.48 2.22 11.7 2.5 11.7 C 2.78 11.7 3 11.48 3 11.2 C 3 10.92 2.78 10.7 2.5 10.7 M 21.5 10.7 C 21.22 10.7 21 10.92 21 11.2 C 21 11.48 21.22 11.7 21.5 11.7 C 21.78 11.7 22 11.48 22 11.2 C 22 10.92 21.78 10.7 21.5 10.7 M 4 9.2 C 3.72 9.2 3.5 9.42 3.5 9.7 C 3.5 9.98 3.72 10.2 4 10.2 C 4.28 10.2 4.5 9.98 4.5 9.7 C 4.5 9.42 4.28 9.2 4 9.2 M 20 9.2 C 19.72 9.2 19.5 9.42 19.5 9.7 C 19.5 9.98 19.72 10.2 20 10.2 C 20.28 10.2 20.5 9.98 20.5 9.7 C 20.5 9.42 20.28 9.2 20 9.2" transform="matrix(1 0 0 1 0 0)" fill="#767676" fill-opacity="0.871" stroke="none" />
</svg>
