<?xml version="1.0" encoding="UTF-8"?>
<!-- Reconstructed from Amplitude.Graphics.Svg.SvgAsset and recolored from static UIMapper.Color metadata for EWShop; not original source SVG. Live UI state/material colors are not included. -->
<svg xmlns="http://www.w3.org/2000/svg" width="24" height="24" viewBox="0 0 24 24">
  <path d="M 12 9 C 18 9 18 16.07 18 16.07 L 18 23 L 15 23 L 15 21.5 C 15 21.5 13.5 22.5 12 22.5 C 10.5 22.5 9 21.5 9 21.5 L 9 23 L 6 23 L 6 16.07 C 6 16.07 6 9 12 9 M 13 17 C 13 16.5 12 15.5 12 15.5 C 12 15.5 11 16.5 11 17 L 9.96 15.231 C 8.66 16.211 9.5 18 9.5 18 C 8.64 17.57 8.18 17.05 7.97 16.54 C 7.83 16.81 7.8 17 7.8 17 L 7.8 19.5 C 8.19 19.29 8.74 19.11 9.5 19 C 9.5 19 9 20.5 10 20.5 C 10 20.5 10 19.5 11 19 C 11 19.5 12 20.5 12 20.5 C 12 20.5 13 19.5 13 19 C 14 19.5 14 20.5 14 20.5 C 15 20.5 14.5 19 14.5 19 C 15.28 19.25 15.82 19.55 16.2 19.84 L 16.2 17 L 16.19 17 C 16.19 17 16.18 16.94 16.15 16.84 C 16.13 16.77 16.09 16.66 16.03 16.54 C 15.82 17.05 15.36 17.57 14.5 18 C 14.5 18 15.33 16.211 14.04 15.231 L 13 17" transform="matrix(1 0 0 1 0 0)" fill="#FFFFFF" fill-opacity="0.871" stroke="none" />
  <path d="M 11.99 0.99 C 13.44 0.99 15.66 1.44 16.99 1.99 C 16.99 2.99 16.1 4.25 16.1 4.25 C 16.1 4.25 18.49 3.21 18.99 1.99 C 20.03 2.51 20.53 3.71 21.05 4.95 C 21.53 6.1 22.03 7.3 22.99 8.04 C 22.17 9.35 20.31 9.69 20.31 9.69 C 20.31 9.69 20.996 10.495 22.795 9.993 C 22.852 10.293 22.901 10.601 22.93 10.91 C 22.96 11.26 22.981 11.621 22.981 11.971 C 22.971 11.985 21.966 13.473 18.981 13.971 C 18.981 11.471 18.14 10.181 17.43 9.471 C 17.37 9.411 17.31 9.36 17.25 9.3 C 17.22 9.27 17.18 9.23 17.14 9.2 C 17.79 7.28 18.99 6.84 18.99 6.84 C 18.99 6.84 16.99 6.981 15.4 8.021 C 15.181 7.931 14.91 7.821 14.61 7.721 C 14.03 7.531 13.37 7.34 12.91 7.28 C 11.995 6.484 12.902 4.499 12.91 4.48 C 12.91 4.48 10.99 5.48 11.07 7.28 C 10.69 7.33 10 7.611 9.34 7.891 C 9.09 8.001 8.84 8.11 8.62 8.21 L 8.59 8.23 C 8.44 8.3 8.31 8.36 8.19 8.41 C 8.111 8.44 8.05 8.47 7.99 8.49 C 6.554 8.411 5.794 6.879 5.78 6.851 C 5.775 6.87 5.5 7.993 6.62 9.41 L 6.56 9.471 C 5.86 10.181 4.99 11.041 4.99 12.99 C 4.99 12.99 2.99 13.99 0.99 11.99 C 0.99 11.3 1.05 10.611 1.18 9.931 C 1.99 10.491 2.99 9.99 2.99 9.99 C 2.99 9.99 1.18 9.05 0.99 7.78 C 1.65 6.56 2.31 6.061 2.92 5.601 C 3.71 5.001 4.43 4.46 4.99 2.49 C 6.598 2.262 7.831 4.22 7.85 4.25 C 7.854 4.235 8.256 2.776 7.52 1.94 C 8.86 1.39 10.54 0.99 11.99 0.99" transform="matrix(1 0 0 1 0 0)" fill="#FFFFFF" fill-opacity="0.871" stroke="none" />
  <path d="M 22.81 9.99 C 22.805 9.992 22.8 9.992 22.795 9.993 C 22.793 9.982 22.792 9.971 22.79 9.96 L 22.81 9.99" transform="matrix(1 0 0 1 0 0)" fill="#FFFFFF" fill-opacity="0.871" stroke="none" />
</svg>
