<?xml version="1.0" encoding="UTF-8"?>
<!-- Reconstructed from Amplitude.Graphics.Svg.SvgAsset and recolored from static UIMapper.Color metadata for EWShop; not original source SVG. Live UI state/material colors are not included. -->
<svg xmlns="http://www.w3.org/2000/svg" width="24" height="24" viewBox="0 0 24 24">
  <path d="M 17.52 18.11 C 16.719 20.12 13.68 22.13 12.49 22.86 C 12.19 23.04 11.83 23.04 11.53 22.86 C 10.34 22.13 7.3 20.12 6.5 18.11 L 9 16.101 C 9.008 16.133 9.45 17.844 11.5 19.29 C 11.8 19.5 12.21 19.5 12.51 19.29 L 12.52 19.29 C 14.568 17.855 15.011 16.136 15.02 16.101 L 17.52 18.11" transform="matrix(1 0 0 1 0 0)" fill="#288E6D" fill-opacity="0.871" stroke="none" />
  <path d="M 2.97 1 C 2.47 2.46 2.49 7.04 4.979 7.04 C 7.319 7.04 9.65 7.92 11.17 9.67 C 11.38 9.91 11.67 10.06 11.99 10.06 C 12.31 10.06 12.6 9.91 12.81 9.67 C 14.33 7.92 16.66 7.04 19 7.04 C 21.74 7.04 21.53 2.492 21.034 1.016 C 24.027 3.94 23.494 9.67 19.99 9.67 C 17.55 9.67 16.48 10.08 14.99 11.57 C 14.97 11.59 14.959 11.6 14.939 11.62 C 14.459 12.1 13.6 12.96 13.5 15.18 C 13.49 15.45 13.39 15.7 13.2 15.89 L 11.99 17.11 L 10.8 15.99 C 10.6 15.8 10.49 15.53 10.48 15.26 C 10.379 12.971 9.46 12.04 8.99 11.57 C 7.72 10.29 6.44 9.67 3.99 9.67 C 0.48 9.67 -0.04 3.92 2.97 1" transform="matrix(1 0 0 1 0 0)" fill="#288E6D" fill-opacity="0.871" stroke="none" />
  <path d="M 3.99 11.57 C 4.29 11.57 4.77 11.63 5.28 11.7 L 5.27 11.7 C 6.68 11.9 7.86 12.82 8.49 14.09 L 4.99 16.1 L 4.73 15.45 C 4.241 14.22 3.99 12.9 3.99 11.57" transform="matrix(1 0 0 1 0 0)" fill="#288E6D" fill-opacity="0.871" stroke="none" />
  <path d="M 20 11.57 C 20 12.9 19.75 14.21 19.26 15.45 L 19 16.1 L 15.5 14.09 L 15.49 14.09 C 16.12 12.82 17.31 11.9 18.71 11.7 C 19.22 11.62 19.7 11.57 20 11.57" transform="matrix(1 0 0 1 0 0)" fill="#288E6D" fill-opacity="0.871" stroke="none" />
  <path d="M 12.01 4.521 C 12.81 4.521 14.7 4.66 15.96 5.03 C 16.37 5.15 16.3 5.63 15.9 5.78 C 14.84 6.18 13.69 6.87 12.78 7.63 C 12.33 8 11.66 8 11.22 7.63 C 10.3 6.87 9.159 6.18 8.1 5.78 L 8.11 5.78 C 7.71 5.63 7.64 5.15 8.05 5.03 C 9.32 4.67 11.21 4.521 12.01 4.521" transform="matrix(1 0 0 1 0 0)" fill="#288E6D" fill-opacity="0.871" stroke="none" />
  <path d="M 21.034 1.016 C 21.029 1.011 21.025 1.005 21.02 1 L 21.03 1 C 21.032 1.005 21.032 1.011 21.034 1.016" transform="matrix(1 0 0 1 0 0)" fill="#288E6D" fill-opacity="0.871" stroke="none" />
</svg>
