<?xml version="1.0" encoding="UTF-8"?>
<!-- Reconstructed from Amplitude.Graphics.Svg.SvgAsset and recolored from static UIMapper.Color metadata for EWShop; not original source SVG. Live UI state/material colors are not included. -->
<svg xmlns="http://www.w3.org/2000/svg" width="24" height="24" viewBox="0 0 24 24">
  <path d="M 11.17 12.919 C 13.31 12.539 16.45 13.06 17.93 13.589 C 17.97 13.599 18 13.679 18 13.679 L 18 20.932 L 16.54 20.492 L 16.54 23 L 15 21.982 L 15 19.933 L 13.96 18.525 L 13.96 14.758 L 12.23 14.758 L 12.23 16.776 L 11.08 18.525 L 9.74 16.776 L 9.74 21.661 L 7.98 22.941 L 7.98 14.808 C 8.46 13.559 10.319 13.11 11.02 12.94 C 11.079 12.92 11.167 12.9 11.17 12.9 L 11.17 12.919" transform="matrix(1 0 0 1 0 0)" fill="#B7FF00" fill-opacity="0.871" stroke="none" />
  <path d="M 1 12.949 C 1 12.949 1.86 15.018 6 15.188 C 6 15.937 7 17.925 7 17.925 C 4 17.925 1.5 16.926 1 12.949" transform="matrix(1 0 0 1 0 0)" fill="#B7FF00" fill-opacity="0.871" stroke="none" />
  <path d="M 23 7.974 C 23 7.974 23 14.938 19 15.937 L 19.94 12.659 C 19.97 12.53 19.92 12.4 19.811 12.34 C 19.341 12.09 18.02 11.511 16.181 11.7 C 16.191 11.678 16.995 9.952 16.181 8.474 C 16.611 8.564 17.031 8.663 17.431 8.773 L 17.47 8.773 C 19.36 9.232 20.95 9.612 23 7.974" transform="matrix(1 0 0 1 0 0)" fill="#B7FF00" fill-opacity="0.871" stroke="none" />
  <path d="M 10.34 8.474 C 10.325 8.51 9.518 10.473 10.34 11.7 C 10.314 11.704 8.503 11.97 7.51 13.448 C 7.499 13.428 7.124 12.708 6.76 11.91 C 6.23 10.771 6.74 9.552 7.91 9.093 C 8.75 8.763 9.68 8.474 10.33 8.474 L 10.34 8.474" transform="matrix(1 0 0 1 0 0)" fill="#B7FF00" fill-opacity="0.871" stroke="none" />
  <path d="M 15.87 4.007 C 16.69 4.007 17.57 4.017 18.5 4.007 C 21.15 3.967 23.29 4.257 22.02 6.575 C 21.58 7.384 20.93 7.974 19.99 7.974 C 12.99 5.986 1.99 6.975 5.99 12.949 C 5.988 12.952 5.485 13.448 3.49 12.949 C 2.051 12.59 1.39 11.711 1.13 11.251 C 1.02 11.071 1 10.851 1 10.641 C 1 8.203 3.57 5.316 11 4.207 C 12.46 3.987 14.04 3.997 15.87 4.007" transform="matrix(1 0 0 1 0 0)" fill="#B7FF00" fill-opacity="0.871" stroke="none" />
  <path d="M 13 8.474 C 13.64 8.474 13.98 8.623 14.5 8.973 C 15.04 9.332 15.2 10.261 15.2 10.491 C 15.2 10.991 14.97 11.591 14.22 11.861 C 13.64 12.07 13.01 12.06 12.49 11.88 C 11.7 11.62 11.28 11.001 11.28 10.491 C 11.28 9.982 11.28 9.213 11.5 8.973 C 12 8.473 12.4 8.474 13 8.474" transform="matrix(1 0 0 1 0 0)" fill="#B7FF00" fill-opacity="0.871" stroke="none" />
  <path d="M 6.27 1.21 C 10.04 0.91 11.53 0.95 15.72 1.21 C 20.53 1.51 21.67 3.008 20 3.008 C 19.27 3.008 18.42 2.968 17.5 2.918 C 14.67 2.778 11.15 2.609 8 3.508 C 4.5 4.507 2.68 5.726 1.5 6.505 C 0 7.504 2.5 1.51 6.27 1.21" transform="matrix(1 0 0 1 0 0)" fill="#B7FF00" fill-opacity="0.871" stroke="none" />
</svg>
