<?xml version="1.0" encoding="UTF-8"?>
<!-- Reconstructed from Amplitude.Graphics.Svg.SvgAsset and recolored from static UIMapper.Color metadata for EWShop; not original source SVG. Live UI state/material colors are not included. -->
<svg xmlns="http://www.w3.org/2000/svg" width="24" height="24" viewBox="0 0 24 24">
  <path d="M 5.63 8.37 C 6.25 8.37 6.76 8.88 6.76 9.5 C 6.76 10.12 6.25 10.63 5.63 10.63 C 5.01 10.63 4.5 10.12 4.5 9.5 C 4.5 8.88 5 8.37 5.63 8.37" transform="matrix(1 0 0 1 0 0)" fill="#FDCD0D" fill-opacity="0.871" stroke="none" />
  <path d="M 18.15 8.37 C 18.77 8.37 19.28 8.88 19.28 9.5 C 19.28 10.12 18.77 10.63 18.15 10.63 C 17.53 10.63 17.021 10.12 17.021 9.5 C 17.021 8.88 17.52 8.37 18.15 8.37" transform="matrix(1 0 0 1 0 0)" fill="#FDCD0D" fill-opacity="0.871" stroke="none" />
  <path d="M 9.6 6 C 10.257 6 10.79 6.533 10.79 7.19 C 10.79 7.847 10.257 8.38 9.6 8.38 C 8.943 8.38 8.41 7.847 8.41 7.19 C 8.41 6.533 8.943 6 9.6 6" transform="matrix(1 0 0 1 0 0)" fill="#FDCD0D" fill-opacity="0.871" stroke="none" />
  <path d="M 14.3 6 C 14.957 6 15.49 6.533 15.49 7.19 C 15.49 7.847 14.957 8.38 14.3 8.38 C 13.643 8.38 13.111 7.847 13.11 7.19 C 13.11 6.533 13.643 6 14.3 6" transform="matrix(1 0 0 1 0 0)" fill="#FDCD0D" fill-opacity="0.871" stroke="none" />
  <path d="M 4.67 1 C 4.02 3.92 4.64 5.58 5.84 6.67 L 5.84 6.63 C 5.96 6.26 6.1 5.87 6.29 5.79 C 6.83 5.41 7.34 5.57 7.77 5.76 C 8.399 3.85 7.7 2.06 7 1.01 C 9.38 1.69 11.52 3.29 11.72 5.81 C 11.99 5.8 12.3 5.68 12.62 5.53 C 13.09 2.48 15.64 0.08 21 1.51 C 17.76 2.32 16.02 3.48 16.39 6.28 C 16.48 6.35 16.57 6.41 16.68 6.48 C 17.49 4.67 19.24 3.09 23 2.51 C 21.23 3.98 20.51 5.73 20.21 7.27 C 21.02 7.73 20.99 8.64 20.74 9.44 C 21.58 9.18 22.42 8.38 23 7.5 C 23 9.45 22.53 10.8 21.81 11.74 C 22.36 13.01 23 14.65 23 15.5 L 22.99 15.49 C 22.99 16.13 22.72 16.78 22.44 17.42 C 22.07 18.28 21.7 19.13 21.99 19.99 L 22.55 21.67 C 22.76 22.32 22.28 22.99 21.6 22.99 L 13.99 22.99 C 16.42 20.911 17.16 19.32 17.39 18.53 C 17.66 18.63 17.96 18.68 18.26 18.68 C 19.61 18.68 20.76 17.61 20.76 16.231 C 20.76 14.851 19.61 13.78 18.26 13.78 C 16.91 13.78 15.76 14.851 15.76 16.231 C 15.76 17.08 16.19 17.81 16.84 18.25 C 15.32 20.17 12.91 21.49 11.85 21.49 C 10.789 21.49 8.519 19.87 7.1 18.11 C 7.65 17.67 8 17 8 16.231 C 8 14.851 6.85 13.78 5.5 13.78 C 4.15 13.78 3 14.851 3 16.231 C 3 17.61 4.15 18.68 5.5 18.68 C 5.89 18.68 6.25 18.59 6.58 18.44 C 6.78 19.191 7.48 20.831 10 22.99 L 2.39 22.99 C 1.71 22.99 1.22 22.32 1.44 21.67 L 2 19.99 C 2.28 19.13 1.92 18.28 1.55 17.42 C 1.28 16.78 1 16.13 1 15.49 C 1 14.39 2.07 11.961 2.64 10.731 C 2.21 10.581 1.67 10.49 1 10.49 C 1.69 9.81 2.29 9.34 2.84 9.06 C 1.53 7.2 1.26 4.58 4.67 1 M 13.67 18.82 C 12.61 18.48 11.46 18.47 10.39 18.81 L 10.31 18.84 C 10.17 18.88 10.05 18.98 10.01 19.12 C 10 19.15 10 19.18 10 19.21 C 10 19.4 10.23 19.48 10.41 19.42 L 10.59 19.36 C 11.53 19.05 12.55 19.06 13.49 19.36 L 13.64 19.41 L 13.63 19.42 C 13.79 19.47 13.99 19.38 13.99 19.21 L 13.99 19.17 C 13.97 19 13.83 18.87 13.67 18.82 M 13 14.79 C 12.88 14.79 12.75 14.8 12.6 14.84 C 12.31 14.931 12.171 16.329 12.82 15.56 C 12.86 15.51 12.901 15.46 12.94 15.41 C 13.02 15.31 13.1 15.21 13.16 15.14 L 13.16 15.15 C 13.3 14.98 13.22 14.79 13 14.79 M 10.95 14.72 C 10.74 14.73 10.65 14.92 10.79 15.08 C 10.85 15.15 10.93 15.25 11.01 15.35 C 11.049 15.399 11.128 15.497 11.13 15.5 L 11.13 15.49 C 11.78 16.26 11.64 14.85 11.35 14.77 C 11.2 14.73 11.07 14.72 10.95 14.72 M 9.45 11.69 C 8.88 10.99 8.39 11.08 8.15 11.57 C 7.91 12.06 8.1 13.29 8.83 13.5 L 8.82 13.5 C 9.4 13.67 9.95 13.65 10.32 13.6 C 10.59 13.569 10.72 13.3 10.57 13.07 C 10.49 12.94 10.37 12.78 10.21 12.6 L 10.19 12.57 C 9.981 12.32 9.72 12.02 9.45 11.69 M 15.731 11.57 C 15.501 11.08 15 10.99 14.43 11.69 C 14.16 12.02 13.9 12.32 13.69 12.57 L 13.67 12.6 C 13.51 12.78 13.39 12.95 13.3 13.08 C 13.16 13.3 13.28 13.56 13.55 13.6 C 13.9 13.65 14.43 13.66 15 13.5 C 15.73 13.29 15.96 12.061 15.731 11.57 M 5.63 7.58 C 4.57 7.58 3.7 8.45 3.7 9.51 C 3.7 10.57 4.56 11.44 5.63 11.44 C 6.69 11.44 7.56 10.57 7.56 9.51 C 7.559 8.45 6.69 7.58 5.63 7.58 M 18.15 7.58 C 17.091 7.58 16.22 8.45 16.22 9.51 C 16.22 10.57 17.08 11.44 18.15 11.44 C 19.21 11.44 20.08 10.57 20.08 9.51 C 20.08 8.45 19.21 7.58 18.15 7.58 M 9.6 5.2 C 8.5 5.2 7.61 6.091 7.61 7.19 C 7.611 8.29 8.5 9.179 9.6 9.18 C 10.7 9.18 11.59 8.29 11.59 7.19 C 11.59 6.09 10.7 5.2 9.6 5.2 M 14.3 5.2 C 13.2 5.2 12.31 6.09 12.31 7.19 C 12.31 8.29 13.2 9.18 14.3 9.18 C 15.4 9.18 16.29 8.29 16.29 7.19 C 16.29 6.09 15.4 5.2 14.3 5.2" transform="matrix(1 0 0 1 0 0)" fill="#FDCD0D" fill-opacity="0.871" stroke="none" />
  <path d="M 5.5 14.771 C 6.09 14.771 6.61 15.11 6.85 15.59 C 6.95 15.78 7 16.001 7 16.231 C 7 17.54 5.83 17.68 5.5 17.68 C 4.67 17.68 4 17.03 4 16.231 C 4 15.431 4.67 14.78 5.5 14.78 L 5.5 14.771" transform="matrix(1 0 0 1 0 0)" fill="#FDCD0D" fill-opacity="0.871" stroke="none" />
  <path d="M 18.3 14.75 C 19.13 14.75 19.8 15.4 19.8 16.2 C 19.8 17.01 19.13 17.66 18.3 17.66 C 17.47 17.66 16.8 17 16.8 16.2 C 16.8 15.4 17.47 14.75 18.3 14.75" transform="matrix(1 0 0 1 0 0)" fill="#FDCD0D" fill-opacity="0.871" stroke="none" />
</svg>
