<?xml version="1.0" encoding="UTF-8"?>
<!-- Reconstructed from Amplitude.Graphics.Svg.SvgAsset and recolored from static UIMapper.Color metadata for EWShop; not original source SVG. Live UI state/material colors are not included. -->
<svg xmlns="http://www.w3.org/2000/svg" width="24" height="24" viewBox="0 0 24 24">
  <path d="M 2.923 3 C 3.924 10.5 7.318 9.831 9.491 10.5 C 7.889 12.9 7.489 15.001 8.991 19 C 6.503 17.012 6.487 15.518 6.487 15.5 L 5.486 18.5 C 4.489 17.504 3.988 13.531 3.984 13.5 C 3.053 15.81 2.512 18.98 2.432 23 L 2.202 23 C -0.866 9.246 2.909 3.024 2.923 3" transform="matrix(1 0 0 1 0 0)" fill="#FF00BC" fill-opacity="0.871" stroke="none" />
  <path d="M 14.168 1.241 C 15.62 0.701 17.773 1.001 19.476 2.871 C 21.608 5.23 22.689 8.02 21.548 8.96 C 21.017 9.39 20.657 9.89 20.427 10.3 C 21.038 11.13 21.508 12.32 21.508 14 L 21.498 14 C 22.499 14.5 23 16 23 19.5 C 22.95 19.39 22.9 19.281 22.84 19.161 C 22.379 18.191 21.788 16.95 20.006 16.5 C 20.006 16.5 20.507 17.5 20.006 18.5 C 19.004 17 17.012 17 17.012 17 C 17.012 17 18.014 17.5 18.014 18.5 C 16.782 18.001 16.281 18.36 16.091 18.85 C 15.83 19.52 16.451 20.16 17.162 20.21 C 17.613 20.24 18.114 20.21 18.524 20 C 18.524 20.992 18.032 21 18.023 21 C 20.016 21 21.519 20 21.519 20 C 21.519 21 20.757 23 19.525 23 C 13.037 23 10.483 22 9.481 17.5 C 9.101 15.261 9.041 12.741 10.693 10.361 C 10.253 9.591 9.491 8.51 8.38 7.75 C 6.538 6.49 6.648 5.07 8.38 2.871 C 9.942 0.891 11.925 0.821 12.727 1.241 C 12.066 1.451 10.673 2.46 10.333 3.46 C 9.912 4.72 9.912 5.351 10.764 5.661 C 10.834 5.681 10.914 5.711 10.994 5.741 C 11.855 6.051 13.317 6.561 14.038 8.281 L 14.118 8.31 C 14.909 8.63 15.91 9.031 17.242 8.741 C 17.452 8.251 17.813 7.66 18.434 7.39 C 19.365 6.97 16.441 1.551 14.168 1.241 M 12.105 11.56 C 12.226 12.33 12.696 14.4 14.018 15 C 15.619 15.73 15.58 14.001 15.41 13.451 C 14.569 13.171 12.927 12.44 12.105 11.56" transform="matrix(1 0 0 1 0 0)" fill="#FF00BC" fill-opacity="0.871" stroke="none" />
</svg>
