<?xml version="1.0" encoding="UTF-8"?>
<!-- Reconstructed from Amplitude.Graphics.Svg.SvgAsset and recolored from static UIMapper.Color metadata for EWShop; not original source SVG. Live UI state/material colors are not included. -->
<svg xmlns="http://www.w3.org/2000/svg" width="24" height="24" viewBox="0 0 24 24">
  <path d="M 20.97 9.68 C 20.07 9.68 19.42 9.93 18.55 10.53 C 18.29 10.71 18.05 10.48 17.7 10.14 C 17.14 9.6 16.3 8.79 14.62 8.96 C 16.03 8.49 18.41 6.06 18.41 4.92 C 17.4 5.42 15.9 5.42 15.9 5.42 C 16.4 4.92 16.4 3.42 15.9 2.42 C 15.4 3.42 14.89 4.41 13.89 4.41 C 13.99 3.46 13.36 1.45 11.91 0.99 C 12.21 1.94 11.14 3.79 10.87 3.92 C 10.78 3.78 10.69 3.62 10.59 3.46 C 10 2.4 9.19 0.94 4.84 1 C 5.52 1.43 6.85 2.43 6.35 4.43 C 5.34 4.44 4.84 4.43 3.84 3.43 C 3.34 4.43 4.34 6.43 5.85 6.93 C 5.35 8.77 4.62 10.33 3.87 11.93 C 2.69 14.42 1.48 17.01 1.01 20.9 C 0.82 22.44 2.51 23.41 3.86 22.61 L 5.3 21.75 C 5.63 21.55 6.05 21.56 6.38 21.78 L 7.71 22.66 C 8.4 23.12 9.31 23.11 9.99 22.62 L 11.39 21.63 C 11.69 21.42 12.08 21.38 12.41 21.54 L 14.54 22.56 C 16.08 23.3 17.78 21.92 17.37 20.27 L 15.9 14.42 C 16.71 14.7 19.24 14.52 20.93 12.92 L 22.79 15.08 C 23.09 13.56 23.45 9.92 20.98 9.67 L 20.97 9.68 M 5.08 19.82 C 4.71 20.86 3.77 21.48 2.98 21.2 C 2.2 20.92 1.86 19.85 2.24 18.81 C 2.61 17.77 3.55 17.15 4.34 17.43 C 5.12 17.71 5.46 18.78 5.08 19.82 M 8.86 21.43 C 8.03 21.43 7.35 20.53 7.35 19.43 C 7.35 18.33 8.03 17.43 8.86 17.43 C 9.69 17.43 10.37 18.33 10.37 19.43 C 10.37 20.53 9.69 21.43 8.86 21.43 M 11.88 11.93 L 8.86 9.98 L 8.86 8.93 L 12.38 8.93 C 12.38 8.93 13.63 10.36 11.88 11.93 M 15.16 21.2 C 14.38 21.48 13.44 20.86 13.06 19.82 C 12.69 18.78 13.02 17.71 13.8 17.43 C 14.58 17.15 15.52 17.77 15.9 18.81 C 16.27 19.85 15.94 20.92 15.16 21.2" transform="matrix(1 0 0 1 0 0)" fill="#6D00FF" fill-opacity="0.871" stroke="none" />
</svg>
