<?xml version="1.0" encoding="UTF-8"?>
<!-- Reconstructed from Amplitude.Graphics.Svg.SvgAsset and recolored from static UIMapper.Color metadata for EWShop; not original source SVG. Live UI state/material colors are not included. -->
<svg xmlns="http://www.w3.org/2000/svg" width="24" height="24" viewBox="0 0 24 24">
  <path d="M 10.14 16.63 C 11.4 16.23 12.75 16.24 14.01 16.64 L 14 16.64 C 14.2 16.7 14.36 16.85 14.38 17.05 L 14.38 17.1 C 14.38 17.31 14.15 17.41 13.95 17.35 L 13.78 17.29 C 12.67 16.93 11.47 16.93 10.36 17.28 L 10.149 17.35 C 9.94 17.41 9.67 17.32 9.67 17.1 C 9.67 17.07 9.689 17.03 9.689 16.99 C 9.739 16.82 9.89 16.71 10.05 16.66 L 10.14 16.63" transform="matrix(1 0 0 1 0 0)" fill="#00FF11" fill-opacity="0.871" stroke="none" />
  <path d="M 13.09 13.57 C 13.25 13.45 13.47 13.49 13.59 13.65 C 13.71 13.81 13.67 14.03 13.51 14.15 L 12.13 15.09 L 12.14 15.09 C 12.02 15.18 11.85 15.18 11.72 15.09 L 10.37 14.15 C 10.21 14.04 10.17 13.81 10.29 13.65 C 10.4 13.49 10.63 13.45 10.79 13.57 L 11.93 14.04 L 13.09 13.57" transform="matrix(1 0 0 1 0 0)" fill="#00FF11" fill-opacity="0.871" stroke="none" />
  <path d="M 14.63 11.03 C 15.18 11.03 15.86 11.21 15.86 11.69 C 15.86 12.17 15.18 12.739 14.63 12.739 C 14.29 12.739 14.18 12.32 14 12 C 13.45 11.9 12.36 11.8 11.81 11.8 C 11.26 11.8 10.55 11.91 10 12 C 9.83 12.32 9.64 12.739 9.3 12.739 C 8.75 12.739 8.113 12.16 8.112 11.69 C 8.112 11.22 8.75 11.03 9.3 11.03 L 14.63 11.03" transform="matrix(1 0 0 1 0 0)" fill="#00FF11" fill-opacity="0.871" stroke="none" />
  <path d="M 7.1 2.7 C 7.75 1.8 10.66 0.78 14.36 1.05 C 14.68 1.07 14.88 1.39 14.78 1.69 L 14.7 1.93 C 14.591 2.25 14.84 2.59 15.189 2.61 C 16.819 2.71 18.499 3.4 20.479 6.27 C 20.669 6.56 20.42 6.93 20.08 6.86 C 19.67 6.78 19.35 7.38 19.61 7.71 L 19.62 7.7 C 21.44 10.04 22.63 13.95 21.67 16.17 C 21.6 16.32 21.39 16.32 21.32 16.17 C 21.22 15.98 20.93 16.03 20.89 16.24 C 20.55 18.14 19.46 21.189 16.99 22.719 C 16.73 22.879 16.4 22.75 16.3 22.46 L 16.2 22.17 C 16.09 21.84 15.689 21.71 15.399 21.89 C 14.659 22.34 13.309 23.01 11.97 23.01 C 10.54 23.009 8.86 22.25 8.01 21.81 C 7.73 21.66 7.369 21.8 7.269 22.1 L 7.189 22.35 C 7.089 22.68 6.7 22.8 6.45 22.56 C 4.61 20.8 2.1 16.71 2.689 14.6 C 2.759 14.35 2.58 14.03 2.32 14.03 C 2.12 14.03 1.98 13.86 2 13.67 C 2.36 10.86 3.13 9.5 3.89 8.63 C 4.169 8.31 3.899 7.82 3.479 7.92 C 3.21 7.979 2.96 7.779 3 7.509 C 3.29 5.75 4.89 3.8 6.59 3.17 C 6.81 3.09 6.97 2.89 7.1 2.7 M 13.2 10.05 L 10.75 10.05 L 8.97 8.05 L 8.97 10.14 C 8.11 10.32 7.34 10.8 7.07 11.63 C 6.99 11.85 6.96 12.06 6.96 12.27 C 7 13.299 8.124 13.858 8.149 13.87 C 8.149 13.87 8.76 14.1 9.06 14.48 C 8.41 15.21 8 16.09 7.96 16.8 C 5.73 17.07 4.83 14.49 4.25 12.83 C 4.15 12.52 4.05 12.25 3.96 12.03 C 3.96 19.26 6.48 19.63 8.67 18.57 C 9.39 19.4 10.6 20.009 11.97 20.01 C 13.34 20.01 14.55 19.4 15.27 18.57 L 15.28 18.58 C 17.47 19.64 19.99 19.27 19.99 12.04 C 19.9 12.26 19.81 12.53 19.7 12.84 C 19.12 14.5 18.22 17.08 15.99 16.81 C 15.95 16.04 15.46 15.06 14.71 14.3 C 15.046 13.994 15.586 13.873 15.6 13.87 C 15.6 13.87 16.909 13.39 16.979 12.27 C 16.989 12.06 16.95 11.83 16.87 11.6 C 16.6 10.78 15.839 10.31 14.979 10.13 L 14.979 8.05 L 13.2 10.05" transform="matrix(1 0 0 1 0 0)" fill="#00FF11" fill-opacity="0.871" stroke="none" />
</svg>
