<?xml version="1.0" encoding="UTF-8"?>
<!-- Reconstructed from Amplitude.Graphics.Svg.SvgAsset and recolored from static UIMapper.Color metadata for EWShop; not original source SVG. Live UI state/material colors are not included. -->
<svg xmlns="http://www.w3.org/2000/svg" width="24" height="24" viewBox="0 0 24 24">
  <path d="M 1.56 16.23 C 5.559 14.78 9.52 20.069 11 22.899 C 8.41 23.109 6 23.06 4.5 22.48 C 4.2 22.36 3.77 22.14 3.31 21.91 C 2.45 21.47 1.48 20.98 1 20.98 C 1.45 18.55 2.3 18.05 2.67 18.05 L 1.56 16.23" transform="matrix(1 0 0 1 0 0)" fill="#FF6500" fill-opacity="0.871" stroke="none" />
  <path d="M 13 22.89 C 14.48 20.06 18.441 14.77 22.44 16.22 L 21.33 18.04 C 21.7 18.04 22.56 18.55 23 20.97 C 22.51 20.97 21.55 21.46 20.69 21.9 C 20.231 22.14 19.8 22.35 19.5 22.47 C 18 23.04 15.59 23.09 13 22.89" transform="matrix(1 0 0 1 0 0)" fill="#FF6500" fill-opacity="0.871" stroke="none" />
  <path d="M 17.64 7.02 C 17.87 7.47 18.039 7.9 18.149 8.23 L 23 7.98 L 18 10.99 L 17.98 14.88 C 16.42 15.98 14.3 17.86 13 19.7 L 13 13.68 C 13.033 13.674 15.905 13.171 16.76 11.49 C 16.95 11.12 16.509 10.86 16.149 11.08 C 15.199 11.67 13.61 12.49 12 12.49 C 10.39 12.49 8.79 11.67 7.85 11.08 L 7.859 11.07 C 7.509 10.851 7.06 11.111 7.25 11.481 C 8.119 13.168 11.003 13.669 11.01 13.67 L 11.01 19.69 C 9.71 17.851 7.57 15.96 6.01 14.86 L 6.01 10.981 L 1.01 7.97 L 5.569 8.22 C 5.599 8.11 5.68 7.889 5.729 7.77 C 5.819 7.55 5.92 7.32 6.05 7.07 L 2 1 L 7 4.5 C 8.03 3.47 9.8 4.06 10 5.5 L 10.42 8.48 L 10.42 1.99 C 10.99 0.67 12.85 0.67 13.42 1.99 L 13.42 8.48 L 13.92 5.48 C 14.16 4.02 15.95 3.45 17 4.49 L 21 1 L 17.64 7.02" transform="matrix(1 0 0 1 0 0)" fill="#FF6500" fill-opacity="0.871" stroke="none" />
</svg>
