<?xml version="1.0" encoding="UTF-8"?>
<!-- Reconstructed from Amplitude.Graphics.Svg.SvgAsset and recolored from static UIMapper.Color metadata for EWShop; not original source SVG. Live UI state/material colors are not included. -->
<svg xmlns="http://www.w3.org/2000/svg" width="24" height="24" viewBox="0 0 24 24">
  <path d="M 3 18.01 L 3.49 21.01 L 4.96 23 L 3 22.01 L 1 18.01 L 1.12 17.641 L 3 18.01" transform="matrix(1 0 0 1 0 0)" fill="#FF0002" fill-opacity="0.871" stroke="none" />
  <path d="M 22.95 18 L 20.96 22 L 18.99 22.99 L 20.46 21 L 20.96 18 L 22.83 17.63 L 22.95 18" transform="matrix(1 0 0 1 0 0)" fill="#FF0002" fill-opacity="0.871" stroke="none" />
  <path d="M 6.99 17 L 6.49 20.01 L 6.99 22.01 L 5.63 22.69 L 4.49 21.01 L 3.99 17.51 L 5.81 15.83 L 6.99 17" transform="matrix(1 0 0 1 0 0)" fill="#FF0002" fill-opacity="0.871" stroke="none" />
  <path d="M 19.96 17.5 L 19.46 21 L 18.32 22.68 L 16.97 22 L 17.46 20 L 16.97 17 L 18.14 15.82 L 19.96 17.5" transform="matrix(1 0 0 1 0 0)" fill="#FF0002" fill-opacity="0.871" stroke="none" />
  <path d="M 5.17 15.18 L 3 17 L 1.4 16.8 L 2 15 L 3.99 14 L 5.17 15.18" transform="matrix(1 0 0 1 0 0)" fill="#FF0002" fill-opacity="0.871" stroke="none" />
  <path d="M 20.85 5.23 L 22 6 L 19.85 8.23 L 23 9 L 20.26 10.59 L 20.63 12.8 L 18.01 12.75 L 18.01 14 L 15.021 17 L 9.03 17 L 6.04 14 L 5.04 13 L 3.04 13 L 3.04 11.5 L 3.7 11.12 L 1.05 8.5 L 2.04 8 L 3.04 8.5 L 2.04 3 L 4.04 1 L 6.26 3 L 6.26 7.78 L 9.03 5 L 13.99 5 L 15.01 1 L 16.25 4.8 L 22 1 L 20.85 5.23 M 10.03 15 L 10.04 15 L 10.04 13.5 L 8.54 12 L 7.04 12 L 10.03 15 M 14.021 13.5 L 14.021 15 L 14.03 15 L 17.021 12 L 15.521 12 L 14.021 13.5 M 9.03 11 L 12.021 14 L 15.01 11 L 12.021 8 L 9.03 11 M 7.03 10 L 8.53 10 L 10.03 8.5 L 10.03 7 L 10.021 7 L 7.03 10 M 14.021 8.5 L 15.521 10 L 17.01 10 L 14.021 7 L 14.021 8.5" transform="matrix(1 0 0 1 0 0)" fill="#FF0002" fill-opacity="0.871" stroke="none" />
  <path d="M 21.96 15 L 22.55 16.8 L 20.96 17 L 18.78 15.18 L 19.96 14 L 21.96 15" transform="matrix(1 0 0 1 0 0)" fill="#FF0002" fill-opacity="0.871" stroke="none" />
</svg>
