<?xml version="1.0" encoding="UTF-8"?>
<!-- Reconstructed from Amplitude.Graphics.Svg.SvgAsset and recolored from static UIMapper.Color metadata for EWShop; not original source SVG. Live UI state/material colors are not included. -->
<svg xmlns="http://www.w3.org/2000/svg" width="24" height="24" viewBox="0 0 24 24">
  <path d="M 6 10 C 6.23 9.62 8.21 9.56 9 10 C 9.79 10.44 10.73 12.12 10.5 12.5 C 10.27 12.88 8.79 13.44 8 13 C 7.21 12.56 5.77 10.38 6 10" transform="matrix(1 0 0 1 0 0)" fill="#A700FF" fill-opacity="0.871" stroke="none" />
  <path d="M 15 10 C 15.79 9.56 17.77 9.62 18 10 C 18.229 10.381 16.79 12.56 16 13 C 15.21 13.44 13.73 12.88 13.5 12.5 C 13.27 12.12 14.21 10.44 15 10" transform="matrix(1 0 0 1 0 0)" fill="#A700FF" fill-opacity="0.871" stroke="none" />
  <path d="M 10.25 4.6 C 13.67 4.21 17.48 4.61 21.16 6.61 C 22.38 9.45 22.5 12.75 22.5 14.95 L 22.49 14.96 C 22.8 16.37 22.99 17.95 22.99 19.71 C 22.99 21.792 19.022 22.99 18.99 23 L 18.99 16.31 C 16.847 20.317 12.021 22.983 11.99 23 C 11.99 23 9.99 22 7.99 18.5 C 7.99 18.5 7.49 19.5 7.99 21 C 7.99 21 6.17 19.86 4.99 17.29 L 4.99 23 C 4.99 23 0.99 21.8 0.99 19.71 C 0.99 17.94 1.19 16.35 1.5 14.93 C 1.53 12.75 1.71 9.51 2.93 6.71 C 4.87 5.78 7.42 4.92 10.25 4.6 M 18.96 7.62 C 17.06 7.42 14.5 7.51 14 9.5 C 14 10 12.7 10 12.7 9.5 C 12.7 8.57 11.35 8.6 11.3 9.53 C 11.279 10 10 10 10 9.5 C 10 7.26 6.3 7.57 5 7.74 L 5 13.91 C 7.03 15.65 11 15.83 11 14.6 C 11 14.1 11.2 13.6 12 13.6 C 12.8 13.6 13 14.1 13 14.6 C 13 15.82 16.97 15.71 19 13.99 L 19 7.67 L 18.96 7.62" transform="matrix(1 0 0 1 0 0)" fill="#A700FF" fill-opacity="0.871" stroke="none" />
  <path d="M 12 1 C 15.8 1 18.22 2.34 19.77 4.26 L 19.76 4.26 C 16.47 2.93 13.15 2.68 10.14 3.02 C 7.96 3.27 5.95 3.821 4.22 4.48 C 5.77 2.45 8.2 1 12 1" transform="matrix(1 0 0 1 0 0)" fill="#A700FF" fill-opacity="0.871" stroke="none" />
</svg>
