<?xml version="1.0" encoding="UTF-8"?>
<!-- Reconstructed from Amplitude.Graphics.Svg.SvgAsset and recolored from static UIMapper.Color metadata for EWShop; not original source SVG. Live UI state/material colors are not included. -->
<svg xmlns="http://www.w3.org/2000/svg" width="24" height="24" viewBox="0 0 24 24">
  <path d="M 15 6.7 C 15.08 8.35 16.21 10.01 18 10.01 C 19.3 10.01 20.26 9.13 20.71 8.01 L 23 8.01 L 19.72 10.74 C 19.98 10.92 20.17 11.16 20.24 11.46 L 20.231 11.47 C 20.31 11.76 20.26 12.06 20.12 12.34 C 21.15 14.93 22.99 19.581 22.99 21.021 C 22.49 22.02 19.49 23.02 17.99 23.021 C 19.2 19.811 19.11 16.82 19.03 14.03 C 19.02 13.78 19.01 13.54 19.01 13.3 C 18.9 13.34 18.78 13.38 18.66 13.41 C 18.63 13.42 18.59 13.431 18.56 13.431 C 18.589 16.26 17.27 18.99 14.91 20.71 C 14.65 20.9 14.31 20.93 14.02 20.8 L 8.64 18.311 C 8.25 18.131 8.02 17.73 8.06 17.311 L 8.38 14 C 8.77 13.72 9.08 13.32 9.22 12.811 C 9.43 12.041 9.19 11.3 8.77 10.75 C 8.35 10.2 7.72 9.79 7 9.59 C 6.28 9.39 5.53 9.41 4.89 9.66 C 4.67 9.75 4.45 9.871 4.25 10.021 C 2.62 8.897 1.019 7.863 1 7.851 L 7.69 7.65 L 13.24 7.271 C 13.8 7.111 14.39 6.92 15 6.7 M 14.47 16.79 C 14.28 16.76 14.06 16.84 14.03 17.03 C 14 17.22 14.18 17.37 14.37 17.4 L 15.62 17.61 L 16.84 17.82 L 16.84 17.811 C 17.02 17.841 17.22 17.75 17.25 17.57 C 17.28 17.39 17.12 17.24 16.94 17.21 L 15.72 17 L 14.47 16.79 M 17.4 14.061 C 17.28 14.061 17.15 14.07 17 14.11 C 16.71 14.201 16.57 15.6 17.22 14.83 C 17.26 14.78 17.3 14.731 17.34 14.681 C 17.42 14.581 17.5 14.48 17.56 14.41 L 17.56 14.42 C 17.7 14.25 17.62 14.061 17.4 14.061 M 15.36 13.99 C 15.15 14 15.06 14.191 15.2 14.351 C 15.26 14.421 15.34 14.52 15.42 14.62 C 15.46 14.67 15.5 14.721 15.54 14.771 C 16.19 15.54 16.05 14.13 15.76 14.05 C 15.61 14.01 15.48 14 15.36 14 L 15.36 13.99 M 11 11.2 L 10.99 11.2 L 13.99 13 L 14.5 11.78 C 14.76 11.18 14.37 10.51 13.731 10.41 L 11 10 L 11 11.2 M 18 11.2 C 17.45 11.2 17 11.65 17 12.2 L 17 13 L 18.69 12.2 L 18.69 11.2 L 18 11.2" transform="matrix(1 0 0 1 0 0)" fill="#A89696" fill-opacity="0.871" stroke="none" />
  <path d="M 5.14 10.64 C 5.55 10.45 6.07 10.4 6.61 10.52 L 6.64 10.52 C 6.66 10.53 6.68 10.54 6.7 10.54 L 6.74 10.54 C 7.8 10.83 8.479 11.72 8.26 12.52 L 8.25 12.53 L 8.25 12.56 C 8.14 12.92 7.85 13.21 7.46 13.37 C 7.28 16.68 6.52 21.06 6 23.01 C 3.5 23.01 1.5 21.01 1 19.51 C 3.57 17.79 4.67 15.14 5.06 13.01 C 4.52 12.59 4.25 12 4.4 11.45 C 4.51 11.09 4.78 10.81 5.14 10.64" transform="matrix(1 0 0 1 0 0)" fill="#A89696" fill-opacity="0.871" stroke="none" />
  <path d="M 18 4 C 18.21 4 18.4 4.04 18.59 4.11 C 19.4 4.42 20 5.37 20 6.5 C 20 7.06 19.85 7.58 19.6 8 C 19.24 8.61 18.65 9 18 9 C 16.9 9 16 7.88 16 6.5 C 16 5.12 16.9 4 18 4" transform="matrix(1 0 0 1 0 0)" fill="#A89696" fill-opacity="0.871" stroke="none" />
  <path d="M 16.97 1 C 18.44 1 18.83 1.92 18.75 3.1 C 18.52 3.04 18.27 3 18 3 C 16.78 3 15.87 3.77 15.39 4.78 C 13.12 5.73 8.6 6.84 3.66 5.54 C 3.16 5.12 2.85 4.61 3 4 C 6.24 3.75 8.45 3.01 10.49 2.32 C 12.54 1.63 14.41 1 16.97 1" transform="matrix(1 0 0 1 0 0)" fill="#A89696" fill-opacity="0.871" stroke="none" />
</svg>
