<?xml version="1.0" encoding="UTF-8"?>
<!-- Reconstructed from Amplitude.Graphics.Svg.SvgAsset and recolored from static UIMapper.Color metadata for EWShop; not original source SVG. Live UI state/material colors are not included. -->
<svg xmlns="http://www.w3.org/2000/svg" width="21" height="21" viewBox="0 0 21 21">
  <path d="M 3.974 0.625 L 17.042 0.625 L 19.97 16.734 C 19.318 16.69 18.618 16.438 17.852 16.146 L 17.75 16.107 C 16.933 15.796 16.04 15.455 15.021 15.455 C 14.989 15.455 14.957 15.455 14.925 15.456 L 14.925 7.532 C 14.925 5.095 12.944 3.119 10.508 3.115 C 8.068 3.115 6.091 5.093 6.091 7.532 L 6.091 15.643 C 5.661 15.53 5.209 15.455 4.729 15.455 C 3.445 15.517 2.253 15.856 1.147 16.177 L 3.974 0.625" transform="matrix(1 0 0 1 0 0)" fill="#FFFFFF" stroke="none" />
  <path d="M 1.03 18.398 C 2.169 18.068 3.399 17.706 4.729 17.642 C 5.789 17.642 6.715 18.012 7.559 18.333 C 8.404 18.655 9.168 18.928 9.875 18.928 C 10.583 18.928 11.347 18.655 12.191 18.333 C 13.035 18.012 13.96 17.642 15.021 17.642 C 16.083 17.642 17.007 18.012 17.852 18.333 C 18.696 18.655 19.126 18.572 19.833 18.572 L 19.833 20.019 C 18.772 20.019 18.181 20.006 17.337 19.684 C 16.493 19.363 15.729 19.089 15.021 19.089 C 14.314 19.089 13.55 19.363 12.705 19.684 C 11.861 20.006 10.937 20.376 9.875 20.376 C 8.814 20.376 7.889 20.006 7.045 19.684 C 6.2 19.363 5.438 19.089 4.729 19.089 C 4.02 19.089 2.741 19.387 1.702 19.7 C 1.464 19.773 1.239 19.845 1.03 19.909 L 1.03 18.398" transform="matrix(1 0 0 1 0 0)" fill="#FFFFFF" stroke="none" />
  <path d="M 7.648 4.165 L 7.648 8.911 L 9.148 8.911 L 9.148 3.328 C 8.592 3.508 8.084 3.795 7.648 4.165 M 7.648 11.463 L 9.148 11.463 L 9.148 16.665 C 8.685 16.545 8.196 16.349 7.678 16.133 L 7.648 16.121 L 7.648 11.463 M 12.558 15.773 C 12.764 15.687 12.976 15.599 13.192 15.515 L 13.192 14.613 L 11.692 14.613 L 11.692 16.121 C 11.94 16.029 12.194 15.925 12.457 15.816 L 12.558 15.773 M 13.192 6.708 L 11.692 6.708 L 11.692 12.46 L 13.192 12.46 L 13.192 6.708" transform="matrix(1 0 0 1 0 0)" fill="#FFFFFF" stroke="none" />
</svg>
