<?xml version="1.0" encoding="UTF-8"?>
<!-- Reconstructed from Amplitude.Graphics.Svg.SvgAsset and recolored from static UIMapper.Color metadata for EWShop; not original source SVG. Live UI state/material colors are not included. -->
<svg xmlns="http://www.w3.org/2000/svg" width="28" height="28" viewBox="0 0 28 28">
  <path d="M 8.03 10.09 C 7.69 10.09 7.35 9.98 7.07 9.78 L 5.62 8.73 L 6.96 7.75 C 7.31 7.5 7.72 7.36 8.15 7.36 L 11.52 7.36 C 11.95 7.36 12.37 7.5 12.71 7.75 L 14.05 8.73 L 12.6 9.78 C 12.32 9.98 11.99 10.09 11.64 10.09 C 11.42 10.09 11.23 10.27 11.23 10.49 L 11.23 16 C 11.23 16.35 11.58 16.59 11.91 16.47 L 13.41 15.91 L 15.95 11.47 C 15.93 11.24 15.91 11 15.91 10.76 L 15.91 6.9 C 15.93 2.95 11.54 1.55 9.98 1.05 L 9.83 1 L 9.68 1.05 C 8.13 1.55 3.75 2.95 3.75 6.91 L 3.75 10.77 C 3.75 12.16 3.32 13.44 3.04 14.12 C 2.93 14.4 3.06 14.73 3.34 14.83 L 7.75 16.48 C 8.08 16.6 8.43 16.36 8.43 16.01 L 8.43 10.5 C 8.43 10.28 8.25 10.1 8.02 10.1 L 8.03 10.09" transform="matrix(1 0 0 1 0 0)" fill="#F5EBE1" stroke="none" />
  <path d="M 24.99 7.67 L 24.27 4.81 C 24.22 4.63 24.03 4.52 23.86 4.59 L 21.12 5.54 C 21.05 5.56 20.95 5.68 20.95 5.68 L 12.58 20.35 L 11.19 19.55 C 10.81 19.33 10.34 19.46 10.12 19.84 L 9.9 20.25 C 9.68 20.62 9.81 21.11 10.19 21.33 L 12.59 22.73 L 12.6 22.73 L 10.97 25.59 C 10.75 25.96 10.88 26.45 11.26 26.67 L 11.66 26.91 C 12.04 27.13 12.51 27 12.73 26.62 L 14.36 23.76 L 16.76 25.16 C 17.14 25.38 17.61 25.25 17.83 24.87 L 18.05 24.46 C 18.27 24.09 18.14 23.6 17.76 23.38 L 16.53 22.66 L 24.96 7.9 C 25 7.83 25.01 7.74 24.99 7.67" transform="matrix(1 0 0 1 0 0)" fill="#F5EBE1" stroke="none" />
</svg>
