<?xml version="1.0" encoding="UTF-8"?>
<!-- Reconstructed from Amplitude.Graphics.Svg.SvgAsset and recolored from static UIMapper.Color metadata for EWShop; not original source SVG. Live UI state/material colors are not included. -->
<svg xmlns="http://www.w3.org/2000/svg" width="24" height="24" viewBox="0 0 24 24">
  <path d="M 17.316 2.385 C 14.035 2.719 11.514 2 11.514 2 L 11.514 7.2 L 3.877 10.655 L 0 20.606 L 0.609 20.606 L 4.206 11.179 C 7 17 2 20.5 2 20.5 C 2 20.5 5.098 21.779 8.467 22 C 9.683 19.452 11.999 14.354 11.999 11.65 C 11.999 14.354 14.316 19.452 15.532 22 C 18.901 21.779 22 20.5 22 20.5 C 22 20.5 17 17 19.794 11.178 L 23.5 20.606 L 24 20.606 L 20.123 10.655 L 12.49 7.202 L 12.485 7.191 L 12.485 5.396 C 14.005 5.653 16.771 6.011 16.771 5.216 C 15.891 4.802 16.423 4.093 16.423 4.093 C 16.423 4.093 17.444 3.137 17.316 2.385 M 11.194 7.871 L 4.468 10.914 C 8.119 12.161 11 11 11.194 7.871 M 19.536 10.916 L 12.829 7.881 C 13 11 15.94 12.178 19.536 10.916" transform="matrix(1 0 0 1 0 0)" fill="#FFFFFF" stroke="none" />
</svg>
