<?xml version="1.0" encoding="UTF-8"?>
<!-- Reconstructed from Amplitude.Graphics.Svg.SvgAsset and recolored from static UIMapper.Color metadata for EWShop; not original source SVG. Live UI state/material colors are not included. -->
<svg xmlns="http://www.w3.org/2000/svg" width="26" height="25" viewBox="0 0 26 25">
  <path d="M 15.615 15.813 C 15.615 15.194 16.337 13.748 16.462 13.608 C 16.462 13.608 16.533 9.451 14.136 7.865 L 12.157 9.843 L 12.772 5.434 C 12.772 5.434 12.077 4.963 11.141 4.963 C 10.205 4.963 9.501 5.425 9.501 5.425 L 10.116 9.852 L 8.128 7.865 C 8.128 7.865 8.125 7.868 8.121 7.871 C 7.974 7.982 5.811 9.618 5.811 13.608 C 5.811 13.652 5.868 13.738 5.95 13.861 C 6.165 14.185 6.552 14.766 6.533 15.517 C 6.516 16.315 6.396 17.02 6.298 17.452 L 0 17.452 L 1.783 18.907 L 7.13 18.907 L 4.456 19.778 L 4.902 20.938 L 7.13 20.938 L 8.022 22.681 L 9.804 22.681 L 11.141 24.572 L 12.478 22.681 L 14.261 22.681 L 15.152 20.938 L 17.38 20.938 L 17.826 19.778 L 15.152 18.907 L 20.5 18.907 L 22.282 17.452 L 15.896 17.452 C 15.716 16.977 15.615 16.418 15.615 15.813 M 14.68 17.48 C 14.98 17.156 15.265 16.8 14.965 16.554 C 14.947 16.545 14.813 16.449 14.768 16.406 C 14.742 16.371 14.644 16.057 14.644 15.839 C 14.644 15.839 15.597 13.8 15.731 13.565 C 15.909 13.26 15.535 12.493 15.499 12.467 C 15.428 12.406 15.357 12.38 15.285 12.406 L 11.854 12.998 C 11.338 13.844 11.746 15.66 11.803 15.914 C 11.807 15.933 11.809 15.944 11.809 15.944 L 11.141 16.693 L 10.463 15.944 C 10.463 15.944 10.927 13.974 10.481 13.077 C 10.463 13.051 6.987 12.406 6.987 12.406 C 6.916 12.38 6.845 12.406 6.765 12.467 C 6.738 12.493 6.363 13.26 6.542 13.565 C 6.675 13.8 7.629 15.831 7.629 15.839 C 7.629 16.057 7.531 16.371 7.504 16.406 C 7.46 16.449 7.326 16.545 7.308 16.554 C 7.011 16.792 7.273 17.136 7.565 17.452 L 7.576 17.452 L 11.141 21.182 L 14.68 17.48" transform="matrix(1 0 0 1 0 0)" fill="#FFFFFF" stroke="none" />
  <path d="M 16.72 1.489 C 16.72 1.047 17.078 0.689 17.52 0.689 L 24.427 0.689 C 24.869 0.689 25.227 1.047 25.227 1.489 C 25.227 1.931 24.869 2.289 24.427 2.289 L 17.52 2.289 C 17.078 2.289 16.72 1.931 16.72 1.489 M 16.72 4.842 C 16.72 4.4 17.078 4.042 17.52 4.042 L 24.427 4.042 C 24.869 4.042 25.227 4.4 25.227 4.842 C 25.227 5.284 24.869 5.642 24.427 5.642 L 17.52 5.642 C 17.078 5.642 16.72 5.284 16.72 4.842 M 17.52 7.395 C 17.078 7.395 16.72 7.753 16.72 8.195 C 16.72 8.637 17.078 8.995 17.52 8.995 L 24.427 8.995 C 24.869 8.995 25.227 8.637 25.227 8.195 C 25.227 7.753 24.869 7.395 24.427 7.395 L 17.52 7.395" transform="matrix(1 0 0 1 0 0)" fill="#FFFFFF" stroke="none" />
</svg>
