<?xml version="1.0" encoding="UTF-8"?>
<!-- Reconstructed from Amplitude.Graphics.Svg.SvgAsset and recolored from static UIMapper.Color metadata for EWShop; not original source SVG. Live UI state/material colors are not included. -->
<svg xmlns="http://www.w3.org/2000/svg" width="25" height="25" viewBox="0 0 25 25">
  <path d="M 16.35 20.256 C 15.501 18.544 14.981 17.473 13.592 17.132 C 13.492 17.192 13.372 17.233 13.252 17.273 C 12.602 17.503 11.713 17.823 11.223 20.917 C 10.813 18.754 10.953 17.473 11.663 16.472 C 11.813 15.671 11.993 15 11.993 15 L 10.993 15.4 L 9.994 15 L 8.994 15.4 L 7.995 15 C 7.995 15 8.614 16.121 8.884 17.182 C 7.775 17.313 7.385 18.254 7.135 19.785 C 6.735 22.248 7.135 24 9.514 24 L 13.882 24 C 15.341 24 17.929 23.369 16.66 20.837 C 16.56 20.626 16.46 20.436 16.37 20.246 L 16.35 20.256" transform="matrix(1 0 0 1 0 0)" fill="#FFFFFF" stroke="none" />
  <path d="M 13.462 9.615 C 12.959 10.571 14.49 12.862 15.638 13.18 C 15.638 10.352 15.024 6.269 12.203 6.707 C 12.052 6.727 11.921 6.767 11.82 6.806 C 13.764 7.085 14.278 9.207 13.462 9.615" transform="matrix(1 0 0 1 0 0)" fill="#FFFFFF" stroke="none" />
  <path d="M 23.98 11.945 C 23.104 10.76 21.764 8.629 21.28 7.015 C 21.179 6.687 20.958 6.408 20.635 6.278 C 19.164 5.661 16.978 4.625 16.001 3.808 C 15.648 3.519 15.195 3.241 14.732 3.251 C 12.767 3.29 9.775 3.071 9.191 1.966 C 9.1 1.806 8.989 1.637 8.808 1.587 C 7.8 1.289 4.315 0.402 1.061 1.637 C 1 1.657 0.98 1.737 1.02 1.787 L 1.04 1.816 C 2.703 3.888 5.826 7.762 4.274 10.362 C 4.063 10.72 3.982 11.168 4.033 11.587 C 4.123 12.403 3.922 13.558 3.509 14.823 C 3.488 14.883 3.539 14.953 3.599 14.953 C 4.365 14.893 6.591 14.305 7.327 9.306 C 7.337 9.226 7.357 9.156 7.387 9.087 C 8.677 6.159 15.9 3.968 19.366 8.579 C 19.386 8.599 19.386 8.629 19.386 8.658 C 19.084 10.222 22.469 12.304 23.92 12.104 C 23.99 12.094 24.02 12.015 23.98 11.955 L 23.98 11.945" transform="matrix(1 0 0 1 0 0)" fill="#FFFFFF" stroke="none" />
  <path d="M 14.903 7.175 C 16.958 7.673 17.16 9.416 16.545 9.814 C 16.545 11.587 18.852 13.36 19.9 13.2 C 19.95 13.2 19.98 13.141 19.97 13.081 C 18.711 8.868 16.535 6.657 14.913 7.175 L 14.903 7.175" transform="matrix(1 0 0 1 0 0)" fill="#FFFFFF" stroke="none" />
</svg>
