<?xml version="1.0" encoding="UTF-8"?>
<!-- Reconstructed from Amplitude.Graphics.Svg.SvgAsset and recolored from static UIMapper.Color metadata for EWShop; not original source SVG. Live UI state/material colors are not included. -->
<svg xmlns="http://www.w3.org/2000/svg" width="32" height="32" viewBox="0 0 32 32">
  <path d="M 19.617 26.416 L 12.962 26.416 C 12.684 26.416 12.459 26.642 12.459 26.922 C 12.459 27.201 12.684 27.428 12.962 27.428 L 19.617 27.428 C 19.894 27.428 20.119 27.201 20.119 26.922 C 20.119 26.642 19.894 26.416 19.617 26.416" transform="matrix(1 0 0 1 0 0)" fill="#FFFFFF" stroke="none" />
  <path d="M 17.757 22.795 L 7.509 22.795 C 7.231 22.795 7.006 23.022 7.006 23.302 C 7.006 23.581 7.231 23.808 7.509 23.808 L 17.757 23.808 C 18.035 23.808 18.26 23.581 18.26 23.302 C 18.26 23.022 18.035 22.795 17.757 22.795" transform="matrix(1 0 0 1 0 0)" fill="#FFFFFF" stroke="none" />
  <path d="M 24.459 22.795 L 21.093 22.795 C 20.816 22.795 20.591 23.022 20.591 23.302 C 20.591 23.581 20.816 23.808 21.093 23.808 L 24.459 23.808 C 24.736 23.808 24.961 23.581 24.961 23.302 C 24.961 23.022 24.736 22.795 24.459 22.795" transform="matrix(1 0 0 1 0 0)" fill="#FFFFFF" stroke="none" />
  <path d="M 27.414 19.59 C 27.414 19.867 27.201 20.081 26.911 20.081 L 5.074 20.081 C 4.8 20.081 4.572 19.867 4.572 19.59 C 4.572 19.314 4.8 19.084 5.074 19.084 L 7.42 19.084 C 9.414 17.182 12.506 15.955 15.993 15.955 C 19.48 15.955 22.587 17.182 24.581 19.084 L 26.927 19.084 C 27.216 19.084 27.429 19.299 27.429 19.59 L 27.414 19.59" transform="matrix(1 0 0 1 0 0)" fill="#FFFFFF" stroke="none" />
  <path d="M 21.203 9.465 C 21.203 11.721 19.117 12.273 16.544 12.288 L 16.544 7.533 L 15.447 7.533 L 15.447 11.644 C 14 11.644 12.737 11.092 12.006 10.279 C 11.61 9.834 11.381 9.297 11.381 8.729 C 11.381 7.701 12.112 6.796 13.224 6.275 C 13.665 5.277 14.731 4.572 15.98 4.572 C 17.549 4.572 18.828 5.676 18.95 7.072 C 20.305 7.563 21.203 8.453 21.203 9.481 L 21.203 9.465" transform="matrix(1 0 0 1 0 0)" fill="#FFFFFF" stroke="none" />
  <path d="M 16.544 7.056 L 15.447 7.056 L 15.447 19.467 L 16.544 19.467 L 16.544 7.056" transform="matrix(1 0 0 1 0 0)" fill="#FFFFFF" stroke="none" />
</svg>
