<?xml version="1.0" encoding="UTF-8"?>
<!-- Reconstructed from Amplitude.Graphics.Svg.SvgAsset and recolored from static UIMapper.Color metadata for EWShop; not original source SVG. Live UI state/material colors are not included. -->
<svg xmlns="http://www.w3.org/2000/svg" width="25" height="25" viewBox="0 0 25 25">
  <path d="M 19.5 12.72 C 19.5 12.43 19.5 7.61 17.01 5.4 C 16.94 5.33 13.86 7.64 13.86 7.64 L 14.67 1.64 C 14.67 1.64 13.53 1 12.5 1 C 11.19 1 10.35 1.64 10.35 1.64 L 11.16 7.64 C 11.16 7.64 8.16 5.4 8.02 5.4 C 5.5 7.92 5.52 12.39 5.5 12.74 C 8.25 15.78 5.69 19.1 5.68 19.12 C 5.68 19.12 7.51 20.11 9.4 24 L 9.4 20.77 C 9.4 20.77 8.42 19.33 8.3 18.78 C 8.26 18.52 8.07 17.66 9.02 16.88 C 9.1 16.81 9.34 16.65 9.37 16.54 C 9.39 16.44 9.42 15.97 9.44 15.67 C 9.48 15.31 7.68 13.19 7.25 12.66 C 6.86 12.14 7.38 10.98 7.83 11.09 C 7.83 11.09 11.47 11.82 11.55 11.89 C 12.25 12.61 11.65 15.72 11.62 15.88 L 12.5 16.93 L 13.39 15.88 C 13.34 15.71 12.75 12.6 13.45 11.89 C 13.51 11.85 16.66 11 17.37 11.12 C 17.75 11.31 18.14 12.22 17.75 12.66 C 17.6 12.85 15.56 15.45 15.56 15.62 C 15.56 15.92 15.62 16.43 15.64 16.53 C 15.66 16.69 15.91 16.82 15.99 16.88 C 16.91 17.63 16.77 18.53 16.7 18.78 C 16.61 19.11 16.28 19.85 15.61 20.77 L 15.61 24 C 17.67 20.17 19.33 19.12 19.33 19.12 C 19.33 19.12 17.36 16.14 19.49 12.72 L 19.5 12.72" transform="matrix(1 0 0 1 0 0)" fill="#FFFFFF" stroke="none" />
</svg>
