<?xml version="1.0" encoding="UTF-8"?>
<!-- Reconstructed from Amplitude.Graphics.Svg.SvgAsset and recolored from static UIMapper.Color metadata for EWShop; not original source SVG. Live UI state/material colors are not included. -->
<svg xmlns="http://www.w3.org/2000/svg" width="22" height="22" viewBox="0 0 22 22">
  <path d="M 8.333 13.623 C 8.212 12.873 8.253 12.201 8.455 11.605 C 8.677 11.01 8.98 10.472 9.364 9.991 C 9.748 9.511 10.141 9.069 10.546 8.666 C 10.97 8.262 11.323 7.878 11.606 7.513 C 11.889 7.148 12.03 6.783 12.03 6.418 C 12.03 5.899 11.859 5.534 11.515 5.323 C 11.192 5.092 10.798 4.977 10.333 4.977 C 9.828 4.977 9.384 5.092 9 5.323 C 8.636 5.553 8.253 5.842 7.849 6.187 L 5 3.709 C 5.748 2.902 6.626 2.249 7.636 1.749 C 8.667 1.25 9.788 1 11 1 C 12.111 1 13.121 1.173 14.03 1.519 C 14.939 1.845 15.657 2.383 16.182 3.133 C 16.727 3.882 17 4.862 17 6.072 C 17 6.764 16.849 7.369 16.546 7.888 C 16.263 8.406 15.899 8.887 15.455 9.329 C 15.03 9.751 14.606 10.174 14.182 10.597 C 13.778 11.019 13.444 11.471 13.182 11.951 C 12.919 12.431 12.818 12.989 12.879 13.623 L 8.333 13.623 M 10.576 21 C 9.707 21 8.98 20.712 8.394 20.135 C 7.828 19.54 7.546 18.829 7.546 18.003 C 7.546 17.158 7.828 16.447 8.394 15.87 C 8.98 15.294 9.707 15.006 10.576 15.006 C 11.465 15.006 12.192 15.294 12.758 15.87 C 13.323 16.447 13.606 17.158 13.606 18.003 C 13.606 18.829 13.323 19.54 12.758 20.135 C 12.192 20.712 11.465 21 10.576 21" transform="matrix(1 0 0 1 0 0)" fill="#FFFFFF" stroke="none" />
</svg>
