<?xml version="1.0" encoding="UTF-8"?>
<!-- Reconstructed from Amplitude.Graphics.Svg.SvgAsset and recolored from static UIMapper.Color metadata for EWShop; not original source SVG. Live UI state/material colors are not included. -->
<svg xmlns="http://www.w3.org/2000/svg" width="21" height="21" viewBox="0 0 21 21">
  <path d="M 11.551 8.612 C 12.875 8.612 13.948 7.539 13.948 6.216 C 13.948 4.892 12.875 3.82 11.551 3.82 C 10.228 3.82 9.155 4.892 9.155 6.216 C 9.155 7.539 10.228 8.612 11.551 8.612" transform="matrix(1 0 0 1 0 0)" fill="#FFFFFF" stroke="none" />
  <path d="M 5.96 6.216 C 5.96 3.117 8.452 0.625 11.551 0.625 C 14.65 0.625 17.143 3.117 17.143 6.216 C 17.143 9.315 14.65 11.807 11.551 11.807 C 8.452 11.807 5.96 9.315 5.96 6.216 M 7.824 6.216 C 7.824 4.15 9.485 2.488 11.551 2.488 C 13.617 2.488 15.279 4.15 15.279 6.216 C 15.279 8.282 13.617 9.943 11.551 9.943 C 9.485 9.943 7.824 8.282 7.824 6.216" transform="matrix(1 0 0 1 0 0)" fill="#FFFFFF" stroke="none" />
  <path d="M 12.292 20.205 C 14.55 19.941 18.408 17.137 20.461 15.31 C 20.184 14.422 19.584 14.177 19.02 14.017 C 11.148 19.795 9.028 16.804 8.281 15.751 L 8.281 15.751 C 8.215 15.657 8.159 15.579 8.112 15.524 C 10.941 15.985 14.294 15.685 15.332 15.093 C 15.411 14.518 15.303 13.779 14.672 13.587 C 13.15 13.553 9.972 13.443 9.434 13.274 C 8.763 13.062 7.239 12.697 6.53 12.579 L 3.848 13.049 C 2.907 13.331 1.838 13.652 0.654 13.777 C 0.259 15.685 0.96 17.248 1.749 18.258 C 1.875 18.259 1.915 18.263 1.972 18.267 C 2.089 18.276 2.275 18.291 3.409 18.303 C 4.689 18.317 6.651 19.107 8.057 19.786 C 8.82 20.154 9.61 20.421 10.447 20.37 C 10.906 20.341 11.511 20.29 12.292 20.205" transform="matrix(1 0 0 1 0 0)" fill="#FFFFFF" stroke="none" />
</svg>
