<?xml version="1.0" encoding="UTF-8"?>
<!-- Reconstructed from Amplitude.Graphics.Svg.SvgAsset and recolored from static UIMapper.Color metadata for EWShop; not original source SVG. Live UI state/material colors are not included. -->
<svg xmlns="http://www.w3.org/2000/svg" width="25" height="25" viewBox="0 0 25 25">
  <path d="M 7.38 9.48 L 5.76 9.66 C 5.51 9.68 5.32 9.92 5.35 10.18 C 5.37 10.44 5.6 10.63 5.85 10.61 L 7.42 10.45 C 7.43 10.25 7.42 10.04 7.4 9.86 C 7.39 9.72 7.38 9.59 7.38 9.49 L 7.38 9.48" transform="matrix(1 0 0 1 0 0)" fill="#FFFFFF" stroke="none" />
  <path d="M 12.5 1 L 2.5 6.75 L 2.5 18.25 L 4.75 19.54 L 4.75 18.29 L 3.59 17.62 L 3.59 7.38 L 12.5 2.25 L 21.41 7.38 L 21.41 17.62 L 19.54 18.7 L 19.59 19.92 L 22.5 18.25 L 22.5 6.75 L 12.5 1" transform="matrix(1 0 0 1 0 0)" fill="#FFFFFF" stroke="none" />
  <path d="M 12.47 20.2 C 12.32 20.1 12.12 20.2 12.12 20.38 L 12.12 23.54 C 12.12 23.79 12.33 24 12.58 24 C 12.83 24 13.04 23.79 13.04 23.54 L 13.04 20.9 C 13.04 20.71 12.95 20.55 12.8 20.44 L 12.46 20.2 L 12.47 20.2" transform="matrix(1 0 0 1 0 0)" fill="#FFFFFF" stroke="none" />
  <path d="M 19 8.3 L 17.23 8.48 C 17.23 8.31 17.25 8.21 17.25 8.2 C 17.25 8.2 17.25 8.18 17.23 8.16 C 17.19 8.07 17.12 8.02 17.04 8.02 C 17.02 8.02 16.99 8.02 16.97 8.02 L 16.88 8.02 C 16.82 8.02 16.76 8.03 16.7 8.04 L 14.05 8.31 C 13.93 8.32 13.84 8.42 13.84 8.55 C 13.84 8.55 13.84 9.32 13.59 10.08 C 13.36 10.79 13.01 11.24 12.54 11.42 L 12.54 10.41 C 12.54 10.41 12.53 10.41 12.52 10.43 L 12.52 9.92 L 13.16 9.86 C 13.25 9.49 13.3 9.14 13.32 8.9 L 12.52 8.98 L 12.51 7.69 C 12.76 7.53 12.92 7.25 12.92 6.93 C 12.92 6.46 12.56 6.07 12.11 6.04 C 11.6 6 11.18 6.42 11.18 6.94 C 11.18 7.26 11.34 7.54 11.59 7.7 L 11.59 9.08 L 10.96 9.14 L 9.97 9.23 C 9.95 9.1 9.94 9.03 9.94 9.02 C 9.94 8.96 9.91 8.9 9.86 8.86 C 9.81 8.82 9.75 8.8 9.69 8.81 L 7.9 9 C 7.79 9.01 7.7 9.11 7.69 9.23 C 7.67 9.7 7.69 10.31 7.72 10.82 C 7.74 11.29 7.76 11.67 7.73 11.8 L 7.83 16.65 L 7.83 16.6 L 7.86 18.06 L 7.94 21.76 C 7.94 22.04 8.26 22.18 8.46 22 L 9.46 21.16 C 9.55 21.12 9.65 21.06 9.73 20.99 L 11.8 19.21 C 11.99 19.05 12.27 19.03 12.47 19.17 L 15.63 21.34 C 15.74 21.42 15.86 21.47 15.98 21.5 L 16.83 22.09 C 17.04 22.25 17.33 22.09 17.33 21.82 L 17.31 20.58 C 17.31 20.58 17.31 20.5 17.31 20.45 C 17.29 17.27 17.2 11.91 17.16 9.49 L 19.07 9.3 C 19.32 9.28 19.51 9.04 19.48 8.78 C 19.46 8.52 19.25 8.28 19 8.3 M 11.61 11.47 C 11.03 11.35 10.59 10.96 10.28 10.28 C 10.26 10.23 10.24 10.18 10.21 10.13 L 11.58 9.99 L 11.6 11.47 L 11.61 11.47" transform="matrix(1 0 0 1 0 0)" fill="#FFFFFF" stroke="none" />
</svg>
