<?xml version="1.0" encoding="UTF-8"?>
<!-- Reconstructed from Amplitude.Graphics.Svg.SvgAsset and recolored from static UIMapper.Color metadata for EWShop; not original source SVG. Live UI state/material colors are not included. -->
<svg xmlns="http://www.w3.org/2000/svg" width="25" height="25" viewBox="0 0 25 25">
  <path d="M 22.011 0 L 19.321 0 C 18.881 0 18.532 0.19 18.402 0.33 C 17.702 0.97 16.972 1.611 16.312 2.221 C 16.182 2.371 16.032 2.421 15.832 2.421 C 13.682 2.421 12.192 2.411 10.152 2.421 C 9.951 2.421 9.801 2.371 9.671 2.221 C 9.011 1.611 8.281 0.97 7.581 0.33 C 7.451 0.19 7.101 0 6.661 0 L 3.971 0 C 3.161 0 2.981 0.46 3.001 1.151 C 3.001 1.181 3.001 1.221 3.011 1.261 C 3.011 1.331 3.011 1.401 3.031 1.481 C 3.121 2.141 3.211 2.801 3.301 3.462 C 3.341 3.782 3.391 4.102 3.431 4.422 C 3.521 5.063 3.611 5.713 3.701 6.353 C 3.701 6.403 3.701 6.453 3.731 6.503 C 3.761 6.723 3.791 6.953 3.841 7.174 C 3.841 7.264 3.861 7.364 3.891 7.454 C 3.931 7.644 3.971 7.824 4.021 7.994 C 4.051 8.114 4.081 8.224 4.121 8.344 C 4.171 8.514 4.231 8.674 4.291 8.834 C 4.321 8.934 4.361 9.025 4.411 9.115 C 4.481 9.295 4.561 9.465 4.641 9.625 C 4.681 9.705 4.721 9.775 4.771 9.855 C 4.831 9.995 4.911 10.135 5.001 10.265 C 5.111 10.435 5.221 10.595 5.341 10.755 C 5.371 10.805 5.411 10.855 5.451 10.906 C 5.601 11.106 5.771 11.306 5.961 11.496 C 5.961 11.506 5.971 11.516 5.991 11.536 C 6.381 11.946 6.821 12.326 7.311 12.666 C 7.441 12.756 7.571 12.846 7.701 12.917 C 7.761 12.967 7.831 13.007 7.901 13.047 C 7.921 13.067 7.951 13.077 7.971 13.107 C 8.021 13.137 8.061 13.167 8.101 13.197 C 8.181 13.287 8.251 13.377 8.311 13.487 C 8.831 14.447 9.461 15.308 10.221 16.068 C 10.471 16.328 10.742 16.568 11.022 16.798 C 11.062 16.838 11.101 16.868 11.141 16.909 C 11.141 16.939 11.162 16.959 11.172 16.989 C 11.202 17.099 11.242 17.249 11.262 17.439 C 11.282 17.509 11.302 17.589 11.302 17.679 C 11.342 17.909 11.371 18.169 11.391 18.419 C 11.431 18.839 11.432 19.23 11.382 19.43 C 11.372 19.46 11.362 19.49 11.342 19.52 C 11.322 19.56 11.302 19.61 11.272 19.65 C 11.242 19.69 11.211 19.72 11.181 19.73 C 11.171 19.74 11.172 19.75 11.162 19.75 C 11.132 19.76 11.102 19.78 11.072 19.79 C 10.952 19.85 10.831 19.91 10.721 19.97 C 10.591 20.05 10.462 20.14 10.342 20.22 C 10.212 20.31 10.092 20.41 9.981 20.51 C 9.891 20.59 9.801 20.67 9.721 20.76 C 9.381 21.101 9.111 21.501 8.891 21.971 C 8.871 22.031 8.851 22.101 8.821 22.161 C 8.791 22.261 8.761 22.351 8.711 22.421 C 8.711 22.431 8.711 22.441 8.711 22.451 C 8.701 22.471 8.691 22.491 8.661 22.511 C 8.661 22.531 8.631 22.551 8.611 22.551 C 8.581 22.571 8.551 22.581 8.521 22.581 C 8.501 22.581 8.481 22.581 8.461 22.581 L 8.421 22.581 C 8.251 22.621 8.041 22.581 7.851 22.581 L 7.811 22.581 C 7.691 22.581 7.571 22.581 7.451 22.581 C 7.131 22.581 7.011 22.671 6.931 22.962 C 6.811 23.442 6.691 23.912 6.581 24.392 C 6.571 24.412 6.571 24.432 6.571 24.442 C 6.521 24.722 6.601 24.892 6.811 24.963 C 6.851 24.983 6.901 24.983 6.951 24.983 C 6.981 24.993 7.011 24.993 7.051 24.993 C 11.032 25.003 15.002 25.003 18.992 24.993 C 19.012 24.993 19.031 24.993 19.051 24.983 C 19.101 24.983 19.152 24.983 19.192 24.963 C 19.402 24.892 19.481 24.722 19.431 24.442 C 19.431 24.432 19.431 24.412 19.421 24.392 C 19.311 23.912 19.191 23.442 19.071 22.962 C 18.991 22.671 18.871 22.581 18.551 22.581 C 18.431 22.581 18.312 22.581 18.192 22.581 L 18.152 22.581 C 17.962 22.581 17.752 22.631 17.582 22.581 L 17.541 22.581 C 17.541 22.581 17.502 22.581 17.482 22.581 C 17.452 22.581 17.421 22.571 17.391 22.551 C 17.371 22.551 17.342 22.531 17.342 22.511 C 17.312 22.491 17.301 22.471 17.291 22.451 C 17.281 22.441 17.282 22.431 17.282 22.421 C 17.232 22.351 17.202 22.261 17.172 22.161 C 17.142 22.101 17.122 22.031 17.102 21.971 C 17.092 21.941 17.072 21.911 17.062 21.881 C 16.852 21.461 16.592 21.081 16.272 20.76 C 16.192 20.67 16.102 20.59 16.012 20.51 C 15.902 20.41 15.782 20.31 15.652 20.22 C 15.532 20.14 15.402 20.05 15.272 19.97 C 15.152 19.9 15.042 19.84 14.922 19.79 C 14.892 19.78 14.862 19.76 14.832 19.75 C 14.822 19.75 14.822 19.74 14.812 19.73 C 14.782 19.72 14.751 19.69 14.721 19.65 C 14.691 19.61 14.672 19.57 14.652 19.52 C 14.632 19.49 14.622 19.46 14.612 19.43 C 14.562 19.23 14.561 18.839 14.601 18.419 C 14.621 18.169 14.662 17.909 14.692 17.679 C 14.692 17.589 14.712 17.509 14.732 17.439 C 14.752 17.249 14.792 17.099 14.822 16.989 C 14.832 16.959 14.841 16.939 14.851 16.909 C 14.891 16.868 14.931 16.838 14.971 16.798 C 15.251 16.568 15.522 16.328 15.772 16.068 C 16.572 15.258 17.232 14.357 17.772 13.337 C 17.802 13.287 17.841 13.247 17.891 13.197 C 17.931 13.167 17.972 13.137 18.022 13.107 C 18.042 13.077 18.072 13.067 18.092 13.047 C 18.162 13.007 18.231 12.967 18.291 12.917 C 18.421 12.846 18.552 12.756 18.682 12.666 C 19.172 12.326 19.611 11.946 20.001 11.536 C 20.021 11.526 20.042 11.506 20.032 11.496 C 20.222 11.306 20.391 11.106 20.541 10.906 C 20.591 10.855 20.621 10.805 20.651 10.755 C 20.771 10.595 20.881 10.435 20.991 10.265 C 21.081 10.135 21.161 9.995 21.231 9.855 C 21.271 9.785 21.311 9.705 21.351 9.625 C 21.431 9.465 21.511 9.295 21.581 9.115 C 21.631 9.025 21.671 8.934 21.701 8.834 C 21.761 8.674 21.821 8.514 21.871 8.344 C 21.911 8.224 21.941 8.114 21.971 7.994 C 22.021 7.824 22.061 7.644 22.101 7.454 C 22.111 7.414 22.121 7.364 22.131 7.314 C 22.141 7.264 22.151 7.224 22.151 7.174 C 22.201 6.953 22.231 6.723 22.261 6.503 C 22.281 6.453 22.291 6.403 22.291 6.353 C 22.381 5.713 22.471 5.063 22.561 4.422 C 22.601 4.102 22.652 3.782 22.692 3.462 C 22.772 2.871 22.862 2.281 22.942 1.691 C 22.952 1.621 22.961 1.551 22.961 1.481 C 22.981 1.401 22.981 1.331 22.981 1.261 C 22.981 1.221 22.991 1.191 22.991 1.151 C 23.011 0.46 22.832 0 22.022 0 L 22.011 0 M 7.381 2.431 C 7.231 2.441 7.121 2.471 7.061 2.541 C 7.041 2.551 7.031 2.561 7.031 2.581 C 7.001 2.601 6.991 2.621 6.991 2.641 C 6.981 2.661 6.971 2.691 6.961 2.721 C 6.961 2.801 6.941 2.901 6.941 3.022 L 6.941 4.452 C 6.941 5.743 6.941 7.044 6.971 8.334 C 7.011 9.045 7.111 9.755 7.211 10.455 C 7.221 10.545 7.241 10.635 7.261 10.725 C 7.291 10.855 7.321 10.986 7.361 11.106 L 7.351 11.106 C 6.701 10.805 5.861 8.494 5.471 6.853 C 5.081 5.173 4.971 3.622 4.741 1.951 C 4.731 1.851 4.711 1.741 4.711 1.641 C 4.711 1.361 4.841 1.191 5.121 1.191 L 6.251 1.251 C 6.311 1.251 6.381 1.271 6.421 1.321 C 6.921 1.801 7.051 1.931 7.421 2.421 C 7.411 2.421 7.391 2.421 7.381 2.431 M 18.201 8.524 C 18.071 11.686 16.742 14.257 14.351 16.258 C 14.111 16.468 13.861 16.658 13.601 16.848 C 13.501 16.919 13.402 16.989 13.302 17.059 C 13.202 17.129 13.102 17.199 13.012 17.269 C 13.002 17.269 13.002 17.259 12.992 17.259 C 12.982 17.259 12.981 17.269 12.971 17.269 C 12.881 17.199 12.781 17.129 12.681 17.059 C 12.581 16.989 12.482 16.919 12.382 16.848 C 12.192 16.698 11.992 16.558 11.802 16.398 C 11.742 16.348 11.692 16.308 11.632 16.258 C 11.862 16.078 12.112 15.908 12.332 15.728 C 12.562 15.538 12.782 15.338 12.992 15.138 C 14.362 13.777 15.122 12.106 15.212 10.105 C 15.262 8.894 15.232 8.254 15.232 7.044 C 15.232 7.004 15.231 7.054 15.221 7.004 L 7.741 7.004 L 7.741 4.023 L 18.201 4.023 L 18.242 6.003 C 18.242 7.544 18.271 7.004 18.201 8.524 M 21.241 1.951 C 21.011 3.622 20.901 5.173 20.511 6.853 C 20.121 8.494 19.281 10.805 18.631 11.096 L 18.621 11.096 C 18.661 10.986 18.691 10.855 18.721 10.725 C 18.741 10.635 18.762 10.545 18.772 10.455 C 18.872 9.755 18.971 9.045 19.011 8.334 C 19.041 7.024 19.041 5.713 19.041 4.402 C 19.051 4.242 19.051 4.092 19.041 3.942 L 19.041 3.022 C 19.041 2.901 19.032 2.801 19.022 2.721 C 19.022 2.691 19.002 2.661 18.992 2.641 C 18.992 2.621 18.981 2.601 18.951 2.581 C 18.951 2.561 18.942 2.551 18.922 2.541 C 18.852 2.471 18.742 2.431 18.602 2.431 C 18.592 2.421 18.572 2.421 18.562 2.421 C 18.932 1.931 19.061 1.801 19.561 1.321 C 19.601 1.271 19.671 1.251 19.731 1.251 L 20.862 1.191 C 21.142 1.191 21.282 1.361 21.272 1.641 C 21.272 1.741 21.251 1.851 21.241 1.951" transform="matrix(1 0 0 1 0 0)" fill="#FFFFFF" stroke="none" />
</svg>
