<?xml version="1.0" encoding="UTF-8"?>
<!-- Reconstructed from Amplitude.Graphics.Svg.SvgAsset and recolored from static UIMapper.Color metadata for EWShop; not original source SVG. Live UI state/material colors are not included. -->
<svg xmlns="http://www.w3.org/2000/svg" width="24" height="24" viewBox="0 0 24 24">
  <path d="M 5.063 15.31 L 5.403 14.969 C 5.398 16.092 4.636 16.989 4.495 17.245 C 4.349 17.512 4.318 17.826 4.409 18.116 C 4.5 18.406 4.706 18.645 4.978 18.78 C 4.98 18.782 4.983 18.783 4.986 18.785 C 5.014 18.801 5.065 18.834 5.137 18.884 C 5.281 18.985 5.511 19.162 5.799 19.44 C 5.868 19.507 5.939 19.58 6.015 19.658 L 2.68 22.998 L 0.999 21.325 L 4.351 17.961 L 1.417 15.024 L 3.098 13.352 L 5.063 15.31 M 22.571 15.024 L 22.581 15.024 L 19.647 17.961 L 22.999 21.316 L 21.318 22.998 L 18.027 19.704 C 18.115 19.609 18.198 19.522 18.276 19.443 C 18.563 19.155 18.787 18.968 18.927 18.86 C 18.997 18.807 19.047 18.772 19.073 18.754 C 19.086 18.746 19.094 18.741 19.096 18.739 C 19.096 18.739 19.094 18.739 19.092 18.74 C 19.36 18.582 19.55 18.319 19.615 18.014 C 19.681 17.708 19.615 17.388 19.434 17.134 L 19.431 17.13 L 19.432 17.131 L 19.429 17.126 C 19.423 17.117 19.412 17.1 19.398 17.076 C 19.366 17.025 19.316 16.942 19.261 16.83 C 19.149 16.605 19.013 16.275 18.929 15.875 C 18.887 15.679 18.857 15.464 18.849 15.232 L 18.926 15.31 L 20.891 13.343 L 22.571 15.024 M 5.302 12.208 C 5.314 12.005 5.311 10.241 5.996 8.433 C 6 8.422 6.004 8.411 6.008 8.4 C 6.015 8.381 6.025 8.362 6.032 8.342 C 6.387 7.436 6.916 6.524 7.711 5.798 C 7.844 5.798 10.683 7.734 10.713 7.754 L 9.938 2.514 C 9.948 2.507 10.749 1.955 11.994 1.955 C 12.979 1.955 14.069 2.514 14.069 2.514 L 13.294 7.754 C 13.294 7.754 16.232 5.742 16.306 5.798 C 18.685 7.727 18.687 11.932 18.687 12.19 L 18.677 12.19 C 16.64 15.177 18.524 17.78 18.524 17.78 C 18.524 17.78 16.937 18.697 14.968 22.042 L 14.968 19.222 C 15.608 18.418 15.924 17.772 16.01 17.483 C 16.077 17.265 16.21 16.479 15.331 15.824 C 15.255 15.772 15.015 15.658 14.996 15.519 C 14.977 15.431 14.92 14.986 14.92 14.724 C 14.92 14.575 16.87 12.305 17.014 12.139 C 17.386 11.755 17.014 10.96 16.65 10.794 C 15.972 10.689 12.96 11.431 12.902 11.466 C 12.233 12.086 12.797 14.803 12.845 14.951 L 11.994 15.868 L 11.152 14.951 C 11.181 14.811 11.755 12.095 11.086 11.466 C 11.008 11.405 7.544 10.77 7.529 10.768 C 7.099 10.672 6.602 11.685 6.975 12.139 C 7.386 12.602 9.107 14.453 9.068 14.768 C 9.049 15.03 9.021 15.44 9.002 15.527 C 8.973 15.623 8.743 15.763 8.667 15.824 C 7.759 16.505 7.94 17.256 7.979 17.483 C 8.093 17.964 9.03 19.222 9.03 19.222 L 9.03 22.042 C 8.917 21.83 8.804 21.627 8.692 21.435 L 8.358 20.884 C 6.813 18.443 5.474 17.78 5.474 17.78 C 5.489 17.756 7.928 14.86 5.302 12.208 M 4.911 1.292 L 8.688 5.07 C 8.598 5.014 8.515 4.961 8.443 4.919 C 8.391 4.888 8.329 4.854 8.271 4.824 C 8.242 4.81 8.196 4.787 8.143 4.766 C 8.136 4.763 7.949 4.682 7.711 4.682 C 7.433 4.682 7.164 4.786 6.958 4.974 C 6.764 5.15 6.585 5.336 6.418 5.527 L 4 3.107 L 2.879 3.003 L 3.031 4.077 L 5.608 6.657 C 5.221 7.316 4.943 7.999 4.743 8.642 L 1.065 4.961 L 0.999 0.998 L 4.911 1.292 M 22.932 4.961 L 19.277 8.611 C 19.096 8 18.845 7.351 18.495 6.73 L 21.052 4.172 L 21.109 3.003 L 19.922 3.041 L 17.541 5.424 C 17.376 5.251 17.199 5.085 17.009 4.931 L 17.007 4.933 C 16.699 4.683 16.369 4.679 16.28 4.681 C 16.149 4.683 16.046 4.709 16.002 4.721 C 15.907 4.746 15.832 4.779 15.802 4.793 C 15.729 4.826 15.658 4.865 15.606 4.894 C 15.509 4.949 15.39 5.022 15.264 5.102 L 19.077 1.292 L 22.989 0.997 L 22.932 4.961" transform="matrix(1 0 0 1 0 0)" fill="#FFFFFF" stroke="none" />
</svg>
