<?xml version="1.0" encoding="UTF-8"?>
<!-- Reconstructed from Amplitude.Graphics.Svg.SvgAsset and recolored from static UIMapper.Color metadata for EWShop; not original source SVG. Live UI state/material colors are not included. -->
<svg xmlns="http://www.w3.org/2000/svg" width="25" height="25" viewBox="0 0 25 25">
  <path d="M 20.173 8.075 L 12.508 3.65 L 4.844 8.075 L 4.844 16.925 L 12.508 21.35 L 20.173 16.925 L 20.173 8.075 M 12.5 7.716 L 13.046 8.134 L 17.243 11.339 L 16.15 12.77 L 12.5 9.981 L 8.85 12.77 L 7.757 11.339 L 11.954 8.134 L 12.5 7.716 M 12.5 11.813 L 13.046 12.23 L 17.243 15.436 L 16.15 16.866 L 12.5 14.078 L 8.85 16.866 L 7.757 15.436 L 11.954 12.23 L 12.5 11.813" transform="matrix(1 0 0 1 0 0)" fill="#FFFFFF" stroke="none" />
  <path d="M 2.873 6.942 L 12.5 1.383 L 22.128 6.942 L 22.128 18.058 L 12.5 23.617 L 2.873 18.058 L 2.873 6.942" transform="matrix(1 0 0 1 0 0)" fill="none" stroke="#FFFFFF" stroke-width="1.3" />
</svg>
