<?xml version="1.0" encoding="UTF-8"?>
<!-- Reconstructed from Amplitude.Graphics.Svg.SvgAsset and recolored from static UIMapper.Color metadata for EWShop; not original source SVG. Live UI state/material colors are not included. -->
<svg xmlns="http://www.w3.org/2000/svg" width="21" height="21" viewBox="0 0 21 21">
  <path d="M 0.932 6.826 L 0.932 2.569 L 2.845 2.569 L 2.845 5.12 L 5.237 5.12 L 5.237 2.569 L 7.151 2.569 L 7.151 5.12 L 9.543 5.12 L 9.543 2.569 L 11.457 2.569 L 11.457 5.12 L 13.849 5.12 L 13.849 2.569 L 15.763 2.569 L 15.763 5.12 L 18.155 5.12 L 18.155 2.569 L 20.069 2.569 L 20.069 6.826 L 20.069 12.137 L 20.069 14.011 C 19.361 14.011 18.597 13.737 17.753 13.416 C 17.719 13.403 17.685 13.39 17.651 13.377 C 17.516 13.325 17.378 13.272 17.237 13.221 C 16.866 9.821 13.992 6.826 10.5 6.826 C 7.154 6.826 4.374 9.577 3.822 12.799 C 2.82 12.933 1.877 13.206 0.989 13.463 L 0.932 13.48 L 0.932 12.137 L 0.932 6.826" transform="matrix(1 0 0 1 0 0)" fill="#FFFFFF" stroke="none" />
  <path d="M 0.932 13.48 C 2.07 13.15 3.3 12.788 4.63 12.724 C 5.69 12.724 6.616 13.094 7.461 13.416 C 8.305 13.737 9.069 14.011 9.776 14.011 C 10.484 14.011 11.248 13.737 12.092 13.416 C 12.937 13.094 13.861 12.724 14.923 12.724 C 15.984 12.724 16.909 13.094 17.753 13.416 C 18.597 13.737 19.361 14.011 20.069 14.011 L 20.069 15.458 C 19.007 15.458 18.083 15.088 17.238 14.767 C 16.394 14.445 15.63 14.172 14.923 14.172 C 14.215 14.172 13.451 14.445 12.607 14.767 C 11.763 15.088 10.838 15.458 9.776 15.458 C 8.715 15.458 7.79 15.088 6.946 14.767 C 6.102 14.445 5.34 14.172 4.63 14.172 C 3.921 14.172 2.642 14.469 1.603 14.783 C 1.365 14.855 1.14 14.927 0.932 14.992 L 0.932 13.48" transform="matrix(1 0 0 1 0 0)" fill="#FFFFFF" stroke="none" />
  <path d="M 0.932 16.454 C 2.07 16.124 3.3 15.762 4.63 15.698 C 5.69 15.698 6.616 16.068 7.461 16.389 C 8.305 16.711 9.069 16.984 9.776 16.984 C 10.484 16.984 11.248 16.711 12.092 16.389 C 12.937 16.068 13.861 15.698 14.923 15.698 C 15.984 15.698 16.909 16.068 17.753 16.389 C 18.597 16.711 19.361 16.984 20.069 16.984 L 20.069 18.432 C 19.007 18.432 18.083 18.062 17.238 17.74 C 16.394 17.419 15.63 17.145 14.923 17.145 C 14.215 17.145 13.451 17.419 12.607 17.74 C 11.763 18.062 10.838 18.432 9.776 18.432 C 8.715 18.432 7.79 18.062 6.946 17.74 C 6.102 17.419 5.34 17.145 4.63 17.145 C 3.921 17.145 2.642 17.443 1.603 17.756 C 1.365 17.829 1.14 17.901 0.932 17.965 L 0.932 16.454" transform="matrix(1 0 0 1 0 0)" fill="#FFFFFF" stroke="none" />
</svg>
