<?xml version="1.0" encoding="UTF-8"?>
<!-- Reconstructed from Amplitude.Graphics.Svg.SvgAsset and recolored from static UIMapper.Color metadata for EWShop; not original source SVG. Live UI state/material colors are not included. -->
<svg xmlns="http://www.w3.org/2000/svg" width="25" height="25" viewBox="0 0 25 25">
  <path d="M 23.99 11.12 C 23.68 11 23.2 10.91 22.69 10.81 C 21.9 10.66 21.05 10.5 20.68 10.19 C 20.57 10.1 20.39 9.74 20.22 9.4 C 20.09 9.15 19.97 8.91 19.88 8.78 C 19.81 8.68 19.68 8.51 19.52 8.31 C 19.16 7.86 18.69 7.27 18.69 7.11 L 19.37 3.76 L 16.87 6.53 C 16.77 6.56 16.38 6.28 15.96 5.99 C 15.56 5.71 15.15 5.42 14.96 5.37 C 14.76 5.32 14.57 5.82 14.57 5.82 L 13.82 7.26 L 12.45 1.5 L 11.16 7.3 L 10.44 5.73 C 10.44 5.73 10.17 5.33 9.96 5.4 C 9.59 5.53 9.14 5.86 8.72 6.17 C 8.53 6.31 8.34 6.44 8.18 6.55 L 5.62 3.75 L 6.27 7.29 C 5.51 8.11 4.85 9.08 4.31 10.18 L 1.01 11.12 C 0.98 11.38 1.01 11.38 1.06 11.39 C 1.06 11.39 1.11 11.39 1.15 11.42 C 1.54 11.67 2 11.86 2.45 12.04 C 2.78 12.18 3.11 12.31 3.41 12.47 L 4.83 13.01 L 4.83 18.21 C 4.83 18.51 4.95 18.79 5.17 18.98 L 8.66 22.12 C 8.66 22.12 10.58 23.5 12.49 23.5 C 14.4 23.5 16.32 22.12 16.32 22.12 L 19.81 18.98 C 20.03 18.78 20.15 18.5 20.15 18.21 L 20.15 13.32 C 20.38 13.19 20.61 13.06 20.8 12.94 C 21.16 12.71 21.5 12.51 21.71 12.4 C 22.02 12.24 22.35 12.1 22.67 11.96 C 23.06 11.79 23.45 11.62 23.82 11.42 C 23.86 11.4 23.89 11.4 23.91 11.4 C 23.97 11.4 23.99 11.4 23.97 11.13 L 23.99 11.12 M 14.55 11.6 L 16.76 9 C 17.44 8.71 17.64 12.12 16.05 12.51 C 15.65 12.61 14.21 12.47 14.56 11.61 L 14.55 11.6 M 8.14 8.99 L 10.35 11.59 C 10.59 12.17 10.01 12.42 9.49 12.49 L 8.87 12.49 C 7.28 12.1 7.48 8.7 8.16 8.98 L 8.14 8.99 M 17.87 19.83 C 17.38 19.43 16.69 19.02 15.7 18.67 C 15.7 18.67 16.34 20.74 15.06 20.74 C 15.06 20.74 15.06 19.36 13.78 18.67 C 13.78 19.36 12.5 20.74 12.5 20.74 C 12.5 20.74 11.22 19.36 11.22 18.67 C 9.94 19.36 9.94 20.74 9.94 20.74 C 8.66 20.74 9.3 18.67 9.3 18.67 C 8.33 18.82 7.63 19.07 7.13 19.36 L 7.13 15.91 C 7.13 15.91 7.17 15.65 7.35 15.27 C 7.62 15.97 8.21 16.69 9.31 17.29 C 9.31 17.29 8.24 14.82 9.9 13.47 L 11.23 15.91 C 11.23 15.22 12.51 13.84 12.51 13.84 C 12.51 13.84 13.79 15.22 13.79 15.91 L 15.12 13.47 C 16.77 14.82 15.71 17.29 15.71 17.29 C 16.81 16.7 17.4 15.98 17.67 15.27 C 17.75 15.44 17.8 15.59 17.82 15.68 C 17.86 15.82 17.87 15.9 17.87 15.9 L 17.88 15.9 L 17.88 19.82 L 17.87 19.83" transform="matrix(1 0 0 1 0 0)" fill="#FFFFFF" stroke="none" />
</svg>
