<?xml version="1.0" encoding="UTF-8"?>
<!-- Reconstructed from Amplitude.Graphics.Svg.SvgAsset and recolored from static UIMapper.Color metadata for EWShop; not original source SVG. Live UI state/material colors are not included. -->
<svg xmlns="http://www.w3.org/2000/svg" width="24" height="24" viewBox="0 0 24 24">
  <path d="M 15.16 19.173 L 16.854 17.453 C 17.12 17.186 17.12 16.746 16.854 16.479 L 16.574 16.186 C 16.307 15.919 15.88 15.919 15.614 16.186 L 14.627 17.173 L 4.307 6.706 C 4.307 6.706 4.2 6.626 4.134 6.626 L 1.627 6.439 C 1.467 6.426 1.334 6.559 1.334 6.719 L 1.374 9.293 C 1.374 9.359 1.4 9.426 1.454 9.479 L 11.84 20.013 L 10.974 20.893 C 10.707 21.159 10.707 21.599 10.974 21.866 L 11.254 22.159 C 11.52 22.426 11.947 22.426 12.214 22.159 L 13.907 20.439 L 15.92 22.479 C 16.187 22.746 16.614 22.746 16.88 22.479 L 17.16 22.186 C 17.427 21.919 17.427 21.479 17.16 21.213 L 15.147 19.173 L 15.16 19.173" transform="matrix(1 0 0 1 0 0)" fill="#FFFFFF" stroke="none" />
  <path d="M 22.56 7.613 L 19.24 6.8 C 18.253 6.56 17.493 5.787 17.24 4.8 L 16.413 1.44 C 16.373 1.307 16.186 1.307 16.146 1.44 L 15.333 4.787 C 15.093 5.787 14.32 6.56 13.333 6.8 L 10.026 7.613 C 9.893 7.653 9.893 7.84 10.026 7.88 L 13.373 8.76 C 14.346 9.013 15.093 9.787 15.333 10.773 L 16.16 14.16 C 16.2 14.293 16.386 14.293 16.426 14.16 L 17.266 10.773 C 17.506 9.8 18.266 9.027 19.226 8.787 L 22.573 7.907 C 22.706 7.867 22.706 7.667 22.573 7.64 L 22.56 7.613" transform="matrix(1 0 0 1 0 0)" fill="#FFFFFF" stroke="none" />
</svg>
