<?xml version="1.0" encoding="UTF-8"?>
<!-- Reconstructed from Amplitude.Graphics.Svg.SvgAsset and recolored from static UIMapper.Color metadata for EWShop; not original source SVG. Live UI state/material colors are not included. -->
<svg xmlns="http://www.w3.org/2000/svg" width="21" height="21" viewBox="0 0 21 21">
  <path d="M 8.245 3.034 C 8.137 2.963 7.989 3.004 7.95 3.135 L 7.566 4.232 C 7.566 4.232 7.537 4.292 7.517 4.313 L 6.119 5.622 C 6.119 5.622 6.07 5.682 6.06 5.712 L 5.115 9.035 C 5.105 9.085 5.066 9.126 5.016 9.156 L 2.683 10.465 C 2.683 10.465 2.614 10.515 2.595 10.565 L 1.266 13.687 C 1.206 13.818 1.305 13.969 1.443 13.969 L 3.077 13.969 C 3.077 13.969 3.116 13.969 3.126 13.949 C 3.146 13.928 3.156 13.908 3.146 13.888 L 3.008 12.64 C 2.969 12.066 3.323 11.633 3.717 11.472 C 4.111 11.311 4.603 11.371 4.957 11.733 L 5.075 11.854 C 5.154 11.935 5.272 11.935 5.351 11.854 L 6.02 11.22 C 6.02 11.22 6.05 11.18 6.06 11.159 L 7.989 7.082 C 7.989 7.082 8.009 7.021 8.009 6.991 L 8.009 5.722 C 8.009 5.722 8.019 5.642 8.048 5.601 L 8.491 4.987 C 8.491 4.987 8.511 4.957 8.521 4.937 L 8.954 3.729 C 8.984 3.638 8.954 3.547 8.885 3.497 L 8.235 3.044 L 8.245 3.034" transform="matrix(1 0 0 1 0 0)" fill="#FFFFFF" stroke="none" />
  <path d="M 13.887 13.908 L 16.013 11.734 C 16.367 11.371 16.869 11.311 17.253 11.472 C 17.657 11.633 18.011 12.066 17.962 12.64 L 17.844 13.747 C 17.834 13.868 17.923 13.969 18.041 13.969 L 19.508 13.969 C 19.655 13.969 19.754 13.808 19.685 13.667 L 17.805 10.163 C 17.805 10.163 17.765 10.102 17.736 10.082 L 15.275 8.612 C 15.275 8.612 15.196 8.542 15.186 8.491 L 14.192 4.786 C 14.192 4.786 14.152 4.705 14.123 4.675 L 12.193 3.235 C 12.193 3.235 12.115 3.145 12.115 3.084 L 11.996 1.181 C 11.996 1.03 11.829 0.95 11.711 1.02 L 10.648 1.604 C 10.648 1.604 10.569 1.665 10.559 1.715 L 9.575 4.655 C 9.575 4.655 9.565 4.746 9.575 4.786 L 10.047 6.206 C 10.047 6.206 10.057 6.276 10.047 6.316 L 9.043 10.827 C 9.043 10.827 9.043 10.898 9.043 10.938 L 10.008 13.828 C 10.037 13.908 10.106 13.969 10.195 13.969 L 13.749 13.969 C 13.798 13.969 13.847 13.949 13.887 13.908" transform="matrix(1 0 0 1 0 0)" fill="#FFFFFF" stroke="none" />
  <path d="M 4.288 12.438 C 4.179 12.328 4.002 12.408 4.012 12.549 L 4.268 14.895 C 4.278 15.016 4.189 15.117 4.071 15.117 L 1.403 15.117 C 1.334 15.117 1.265 15.157 1.236 15.227 C 1.098 15.54 0.773 16.486 1.236 17.322 C 1.265 17.382 1.334 17.412 1.403 17.412 L 4.091 17.412 C 4.199 17.412 4.298 17.513 4.288 17.624 L 4.179 19.809 C 4.179 19.96 4.357 20.04 4.465 19.94 L 7.94 16.385 C 7.94 16.385 7.989 16.275 7.979 16.214 C 7.979 16.194 7.94 16.154 7.94 16.154 L 4.307 12.438 L 4.288 12.438" transform="matrix(1 0 0 1 0 0)" fill="#FFFFFF" stroke="none" />
  <path d="M 19.764 15.238 C 19.734 15.167 19.665 15.127 19.596 15.127 L 16.938 15.127 C 16.82 15.127 16.732 15.026 16.741 14.905 L 16.997 12.559 C 17.007 12.408 16.82 12.338 16.722 12.448 L 13.089 16.164 C 13.089 16.164 13.05 16.204 13.05 16.224 C 13.03 16.285 13.05 16.345 13.089 16.395 L 16.564 19.95 C 16.663 20.05 16.85 19.97 16.85 19.819 L 16.741 17.634 C 16.741 17.523 16.83 17.422 16.938 17.422 L 19.626 17.422 C 19.695 17.422 19.754 17.392 19.793 17.332 C 20.246 16.496 19.921 15.55 19.793 15.238 L 19.764 15.238" transform="matrix(1 0 0 1 0 0)" fill="#FFFFFF" stroke="none" />
</svg>
