<?xml version="1.0" encoding="UTF-8"?>
<!-- Reconstructed from Amplitude.Graphics.Svg.SvgAsset and recolored from static UIMapper.Color metadata for EWShop; not original source SVG. Live UI state/material colors are not included. -->
<svg xmlns="http://www.w3.org/2000/svg" width="25" height="25" viewBox="0 0 25 25">
  <path d="M 17.569 9.045 C 19.654 10.578 21 12.958 21 15.626 C 21 20.256 16.973 24 12 24 C 7.027 24 3 20.256 3 15.626 C 3 10.996 7.027 7.253 12 7.253" transform="matrix(1 0 0 1 0 0)" fill="none" stroke="#EBEBEB" stroke-width="1" />
  <path d="M 18.348 4.266 C 18.523 4.385 18.79 4.515 18.934 4.664 C 20.321 6.008 19.067 5.829 19.191 6.376 C 19.314 6.924 20.228 8.378 16.406 7.362" transform="matrix(1 0 0 1 0 0)" fill="none" stroke="#EBEBEB" stroke-width="1" />
  <path d="M 10.541 7.362 C 12.103 7.183 12.349 7.392 12.596 6.715 C 12.842 6.038 11.743 5.669 11.743 5.669 C 11.743 5.669 11.055 5.63 11.116 4.913 C 11.178 4.196 11.671 4.475 11.599 4.007 C 11.517 3.459 11.445 3.15 13.027 3.061" transform="matrix(1 0 0 1 0 0)" fill="none" stroke="#EBEBEB" stroke-width="1" />
  <path d="M 17.588 7.611 C 17.588 7.611 16.756 8.457 17.66 9.125" transform="matrix(1 0 0 1 0 0)" fill="none" stroke="#EBEBEB" stroke-width="1" />
  <path d="M 18.862 2.653 C 18.913 2.294 16.725 1.259 16.078 1.149 C 15.317 1.01 12.708 0.831 12.851 1.329 C 13.006 1.886 12.954 4.077 12.954 4.077 C 12.954 4.077 13.314 4.455 13.468 4.545 C 14.228 4.983 15.749 5.271 16.92 5.311 C 17.608 5.331 17.804 5.122 17.804 5.122 C 17.896 5.062 18.862 2.653 18.862 2.653" transform="matrix(1 0 0 1 0 0)" fill="#EBEBEB" stroke="none" />
  <path d="M 18.984 15.427 C 18.984 15.576 18.984 15.746 18.984 15.925 C 18.984 19.191 15.871 21.829 12.019 21.829 C 8.166 21.829 5.012 19.061 5.012 15.795 C 5.012 15.666 5.012 15.537 5.032 15.407 C 5.032 15.407 5.032 15.387 5.053 15.367 C 5.063 15.427 5.114 15.517 5.217 15.646 C 5.515 16.014 5.947 16.263 6.132 15.995 C 6.132 15.995 6.717 13.844 8.217 14.232 C 8.258 14.242 8.31 14.262 8.351 14.272 C 9.019 14.471 9.327 14.859 9.491 15.218 C 9.789 15.905 10.251 16.512 10.919 16.891 C 11.32 17.12 11.793 17.339 12.347 17.498 C 12.347 17.498 12.347 17.498 12.358 17.498 C 12.789 17.617 13.272 17.697 13.786 17.717 C 13.899 17.717 14.022 17.717 14.156 17.717 C 14.156 17.717 14.156 17.717 14.166 17.717 C 14.793 17.687 15.471 17.548 16.18 17.259 C 16.19 17.259 16.21 17.259 16.221 17.249 C 16.406 17.179 16.632 17.07 17.197 16.791 C 17.782 16.502 18.049 16.283 18.162 16.104 L 18.183 16.064 C 18.265 15.925 18.255 15.815 18.255 15.726 C 18.029 15.795 17.782 15.875 17.546 15.925 C 16.909 16.074 16.251 16.154 15.563 16.154 C 13.981 16.154 12.512 15.726 11.258 14.989 C 13.323 13.924 16.673 13.047 16.673 13.047 C 19.056 12.778 18.964 14.62 18.954 14.76 C 18.974 14.979 18.974 15.198 18.974 15.447 L 18.984 15.427" transform="matrix(1 0 0 1 0 0)" fill="#EBEBEB" stroke="none" />
</svg>
