<?xml version="1.0" encoding="UTF-8"?>
<!-- Reconstructed from Amplitude.Graphics.Svg.SvgAsset and recolored from static UIMapper.Color metadata for EWShop; not original source SVG. Live UI state/material colors are not included. -->
<svg xmlns="http://www.w3.org/2000/svg" width="20" height="20" viewBox="0 0 20 20">
  <path d="M 9.563 1 C 13.629 1 16.946 3.78 17.802 7.843 L 18.446 7.202 C 18.767 6.881 19.408 6.881 19.73 7.202 C 19.944 7.309 20.157 7.736 19.836 8.378 L 19.73 8.484 L 17.589 10.516 C 17.375 10.73 17.161 10.729 17.054 10.729 C 16.84 10.729 16.626 10.729 16.412 10.516 L 13.95 8.699 C 13.736 8.485 13.63 8.27 13.63 8.056 C 13.63 7.842 13.736 7.629 13.95 7.415 C 14.164 7.201 14.485 6.988 15.127 7.309 L 16.09 7.843 C 15.448 4.849 12.773 2.818 9.669 2.818 C 5.816 2.818 2.928 5.812 2.928 9.554 C 2.928 13.296 5.923 16.183 9.669 16.29 C 10.097 16.29 10.525 16.716 10.525 17.144 C 10.525 17.571 10.097 18 9.563 18 C 4.854 18 1 14.258 1 9.554 C 1 4.743 4.746 1 9.563 1 M 10 5 C 10.552 5 11 5.448 11 6 L 11 11 L 6 11 C 5.448 11 5 10.552 5 10 C 5 9.448 5.448 9 6 9 L 9 9 L 9 6 C 9 5.448 9.448 5 10 5" transform="matrix(1 0 0 1 0 0)" fill="#FFFFFF" stroke="none" />
</svg>
