<?xml version="1.0" encoding="UTF-8"?>
<!-- Reconstructed from Amplitude.Graphics.Svg.SvgAsset and recolored from static UIMapper.Color metadata for EWShop; not original source SVG. Live UI state/material colors are not included. -->
<svg xmlns="http://www.w3.org/2000/svg" width="28" height="28" viewBox="0 0 28 28">
  <path d="M 20.314 8 C 20.233 8.383 20.168 8.769 20.118 9.158 L 20 9 L 18.5 11 L 20 11 L 20 13 C 20 14.438 19.241 15.698 18.102 16.402 C 17.404 16.834 16.76 17.439 16.625 18.248 L 16.193 20.836 C 16.092 21.445 16.563 22 17.181 22 L 18 22 L 20 26 L 8 26 L 10 22 L 10.819 22 C 11.437 22 11.907 21.445 11.806 20.836 L 11.375 18.247 C 11.24 17.439 10.595 16.833 9.898 16.402 C 8.759 15.698 8 14.438 8 13 L 8 11 L 9.5 11 L 8 9 L 7.881 9.158 C 7.831 8.769 7.767 8.383 7.687 8 L 20.314 8 M 11 24 L 17 24 L 17 23 L 11 23 L 11 24 M 5.05 4 C 6.325 6.112 7 8.532 7 11 L 7 12.92 C 2.587 12.206 1.155 6.798 1 4 L 5.05 4 M 27 4 C 26.845 6.798 25.413 12.206 21 12.92 L 21 11 C 21 8.532 21.675 6.112 22.95 4 L 27 4 M 11 11 L 12.5 9 L 9.5 9 L 11 11 M 12.5 11 L 15.5 11 L 14 9 L 12.5 11 M 17 11 L 18.5 9 L 15.5 9 L 17 11 M 20.888 6 C 20.767 6.329 20.658 6.663 20.562 7 L 7.438 7 C 7.342 6.663 7.233 6.329 7.112 6 L 20.888 6 M 22.14 3.406 C 21.825 3.921 21.545 4.454 21.298 5 L 6.702 5 C 6.455 4.454 6.175 3.921 5.86 3.406 L 5 2 L 23 2 L 22.14 3.406" transform="matrix(1 0 0 1 0 0)" fill="#FFFFFF" stroke="none" />
  <path d="M 21.808 21.463 C 21.639 20.844 21.156 20.361 20.537 20.192 L 18 19.5 L 20.537 18.808 C 21.156 18.639 21.639 18.156 21.808 17.537 L 22.5 15 L 23.192 17.537 C 23.361 18.156 23.844 18.639 24.463 18.808 L 27 19.5 L 24.463 20.192 C 23.844 20.361 23.361 20.844 23.192 21.463 L 22.5 24 L 21.808 21.463" transform="matrix(1 0 0 1 0 0)" fill="#FFFFFF" stroke="none" />
  <path d="M 4.808 21.463 C 4.639 20.844 4.156 20.361 3.537 20.192 L 1 19.5 L 3.537 18.808 C 4.156 18.639 4.639 18.156 4.808 17.537 L 5.5 15 L 6.192 17.537 C 6.361 18.156 6.844 18.639 7.463 18.808 L 10 19.5 L 7.463 20.192 C 6.844 20.361 6.361 20.844 6.192 21.463 L 5.5 24 L 4.808 21.463" transform="matrix(1 0 0 1 0 0)" fill="#FFFFFF" stroke="none" />
  <path d="M 1 15.354 L 1.873 16.226 L 1 17.099 L 1.354 17.452 L 2.226 16.58 L 3.099 17.452 L 3.452 17.099 L 2.58 16.226 L 3.452 15.354 L 3.099 15 L 2.226 15.873 L 1.354 15 L 1 15.354" transform="matrix(1 0 0 1 0 0)" fill="#FFFFFF" stroke="none" />
</svg>
