<?xml version="1.0" encoding="UTF-8"?>
<!-- Reconstructed from Amplitude.Graphics.Svg.SvgAsset and recolored from static UIMapper.Color metadata for EWShop; not original source SVG. Live UI state/material colors are not included. -->
<svg xmlns="http://www.w3.org/2000/svg" width="26" height="26" viewBox="0 0 26 26">
  <path d="M 17.16 8.32 L 15.777 8.32 C 15.485 8.32 15.257 8.549 15.257 8.84 L 15.257 10.701 L 13.634 10.701 L 13.634 8.84 C 13.634 8.549 13.405 8.32 13.114 8.32 L 11.731 8.32 C 11.44 8.32 11.211 8.549 11.211 8.84 L 11.211 10.701 L 9.589 10.701 L 9.589 8.84 C 9.589 8.549 9.36 8.32 9.069 8.32 L 7.685 8.32 C 7.394 8.32 7.165 8.549 7.165 8.84 L 7.165 10.701 L 5.543 10.701 L 5.543 8.84 C 5.543 8.549 5.314 8.32 5.023 8.32 L 3.64 8.32 C 3.349 8.32 3.12 8.549 3.12 8.84 L 3.12 14.217 C 3.12 14.497 3.234 14.768 3.432 14.955 L 4.43 15.933 C 4.628 16.13 4.742 16.401 4.742 16.671 L 4.742 21.341 C 4.742 21.621 4.628 21.892 4.43 22.079 L 3.432 23.057 C 3.234 23.254 3.12 23.525 3.12 23.795 L 3.12 24.419 C 3.12 24.71 3.349 24.939 3.64 24.939 L 17.16 24.939 C 17.451 24.939 17.68 24.71 17.68 24.419 L 17.68 23.795 C 17.68 23.514 17.565 23.244 17.368 23.057 L 16.369 22.079 C 16.172 21.881 16.057 21.611 16.057 21.341 L 16.057 16.671 C 16.057 16.39 16.172 16.12 16.369 15.933 L 17.368 14.955 C 17.565 14.757 17.68 14.487 17.68 14.217 L 17.68 8.84 C 17.68 8.549 17.451 8.32 17.16 8.32 M 12.823 21.788 L 7.966 21.788 L 7.966 16.245 C 7.966 14.934 9.048 13.863 10.389 13.863 C 11.731 13.863 12.813 14.924 12.813 16.245 L 12.813 21.788 L 12.823 21.788" transform="matrix(1 0 0 1 0 0)" fill="#FFFFFF" stroke="none" />
  <path d="M 21.84 10.4 C 21.84 10.4 27.04 4.68 20.8 1.04 C 21.32 3.64 18.72 5.2 17.16 5.2 C 14.04 4.68 13 2.08 14.56 1.04 C 10.421 1.726 9.256 4.701 8.944 6.635 C 9.318 6.178 10.712 4.607 12.48 4.16 C 12.48 5.689 14.487 6.718 16.037 6.76 C 17.753 6.76 20.883 6.625 21.84 5.2 C 21.84 7.55 20.332 9.142 19.24 9.901 C 19.25 11.45 20.81 11.96 22.88 11.96 C 22.412 13.842 20.238 16.994 17.909 18.741 C 19.042 18.678 20.425 18.294 21.84 17.16 C 24.44 15.08 24.96 11.679 24.96 9.36 C 24.117 10.639 21.84 10.4 21.84 10.4" transform="matrix(1 0 0 1 0 0)" fill="#FFFFFF" stroke="none" />
</svg>
