<?xml version="1.0" encoding="UTF-8"?>
<!-- Reconstructed from Amplitude.Graphics.Svg.SvgAsset and recolored from static UIMapper.Color metadata for EWShop; not original source SVG. Live UI state/material colors are not included. -->
<svg xmlns="http://www.w3.org/2000/svg" width="26" height="26" viewBox="0 0 26 26">
  <path d="M 13.525 6.744 C 13.189 5.536 13.244 3.643 14.569 1.149 C 14.722 0.862 15.164 1.022 15.138 1.347 C 15.015 2.872 15.137 4.636 16.03 5.263 C 19.924 3.689 21.19 3.555 24.088 3.25 C 24.287 3.229 24.495 3.208 24.711 3.184 C 24.827 3.172 24.871 3.325 24.766 3.377 C 23.179 4.165 21.142 5.241 19.333 6.337 C 19.041 6.504 18.812 6.727 18.644 6.988 C 19.009 7.092 19.354 7.206 19.677 7.329 C 24.52 9.169 25.963 16.918 22.654 20.904 C 22.111 21.559 21.405 22.062 20.559 22.419 C 20.479 22.453 20.488 22.244 20.538 22.173 C 22.011 20.09 22.394 17.222 21.389 14.878 C 20.731 13.345 19.258 13.36 18.496 13.943 C 18.23 15.629 17.623 16.671 16.994 17.253 C 16.534 17.679 16.165 18.341 16.369 18.933 L 16.81 20.211 C 16.941 20.592 16.845 21.018 16.551 21.294 C 11.822 25.733 6.74 25.947 3.959 25.325 C 3.292 25.176 2.885 24.531 2.952 23.852 C 3.053 22.815 3.214 21.823 3.428 20.873 C 2.599 20.13 1.673 18.386 2.114 15.274 C 2.16 14.952 2.631 14.955 2.717 15.269 C 3.026 16.395 3.53 17.585 4.251 18.073 C 4.59 17.149 4.983 16.271 5.423 15.438 C 4.532 14.59 3.578 12.73 3.934 9.517 C 3.985 9.054 4.663 9.052 4.8 9.497 C 5.28 11.045 6.083 12.561 7.249 12.558 C 7.68 11.983 8.135 11.435 8.61 10.912 C 7.512 9.766 6.355 6.931 7.94 2.128 C 8.042 1.819 8.534 1.891 8.576 2.214 C 8.894 4.619 9.918 7.801 11.718 8.04 C 12.306 7.581 12.91 7.149 13.525 6.744 M 14.188 10.465 C 7.406 12.749 6.052 19.883 5.704 22.889 C 5.666 23.22 5.947 23.495 6.273 23.431 C 7.818 23.129 9.857 22.226 9.05 20.292 C 7.893 17.52 12.684 13.545 13.075 14.068 C 13.796 14.271 14.618 15.239 12.143 17.484 C 11.545 18.334 10.772 19.94 11.382 20.881 C 11.755 21.457 12.585 21.306 13.197 20.995 L 13.555 20.813 C 13.779 20.698 13.888 20.442 13.845 20.193 C 13.586 18.673 14.285 17.518 14.702 17.104 C 16.598 15.098 16.357 12.7 15.773 11.163 C 15.534 10.532 14.828 10.25 14.188 10.465" transform="matrix(1 0 0 1 0 0)" fill="#FFFFFF" stroke="none" />
</svg>
