<?xml version="1.0" encoding="UTF-8"?>
<!-- Reconstructed from Amplitude.Graphics.Svg.SvgAsset and recolored from static UIMapper.Color metadata for EWShop; not original source SVG. Live UI state/material colors are not included. -->
<svg xmlns="http://www.w3.org/2000/svg" width="25" height="25" viewBox="0 0 25 25">
  <path d="M 18 18.105 L 18 16.421 L 13.882 12.211 L 13.882 11.368 L 11 8 L 8.118 11.368 L 8.118 12.211 L 4 16.421 L 4 18.072 L 8.118 13.895 L 8.118 15.579 L 4.824 18.947 L 4.824 24 L 8.118 24 L 8.118 21.044 C 8.118 20.387 8.389 19.79 8.801 19.352 C 9.229 18.931 10.177 18.526 11 18.526 C 11.791 18.526 12.779 18.931 13.199 19.352 C 13.611 19.79 13.882 20.379 13.882 21.044 L 13.882 24 L 17.177 24 L 17.16 18.947 L 13.882 15.579 L 13.882 13.895 L 18 18.105 M 11.099 16.093 C 10.02 16.093 9.131 15.2 9.131 14.097 C 9.131 12.994 10.02 12.093 11.099 12.093 C 12.178 12.093 13.051 12.985 13.051 14.097 C 13.051 15.209 12.178 16.093 11.099 16.093" transform="matrix(1 0 0 1 0 0)" fill="#FFFFFF" stroke="none" />
  <path d="M 20.078 1 C 20.992 7.111 15.98 5.325 13.628 9.387 C 12.162 7.807 14.164 5.22 15.652 4.543 C 13.285 4.137 11.112 5.283 9.764 8.383 C 9.132 9.835 9 10.731 9 12.568 C 9.487 11.178 10.253 9.948 11.197 9.127 C 10.932 12.092 16.285 11.101 18.487 9.127 C 15.652 11.668 17.601 16.471 20.722 14.703 C 19.923 16.465 18.707 17.995 17.474 19 C 18.73 18.657 19.945 17.855 20.972 16.471 C 22.119 14.925 23.539 12.287 22.792 10.304 C 22.246 12.383 20.59 12.634 18.601 12.275 C 21.96 10.515 23.393 4.469 20.078 1" transform="matrix(1 0 0 1 0 0)" fill="#FFFFFF" stroke="none" />
</svg>
