<?xml version="1.0" encoding="UTF-8"?>
<!-- Reconstructed from Amplitude.Graphics.Svg.SvgAsset and recolored from static UIMapper.Color metadata for EWShop; not original source SVG. Live UI state/material colors are not included. -->
<svg xmlns="http://www.w3.org/2000/svg" width="24" height="24" viewBox="0 0 24 24">
  <path d="M 19.556 2 L 17.778 2 C 17.529 2 17.333 2.209 17.333 2.476 L 17.333 5 L 15.556 5 L 15.556 2.476 C 15.556 2.209 15.36 2 15.111 2 L 13.333 2 C 13.085 2 12.889 2.209 12.889 2.476 L 12.889 5 L 11.111 5 L 11.111 2.476 C 11.111 2.209 10.916 2 10.667 2 L 8.889 2 C 8.64 2 8.444 2.209 8.444 2.476 L 8.444 5 L 6.667 5 L 6.667 2.476 C 6.667 2.209 6.471 2 6.222 2 L 4.444 2 C 4.196 2 4 2.209 4 2.476 L 4 9.225 C 4 9.482 4.098 9.72 4.258 9.901 C 4.635 10.305 6 11.307 6 11.919 L 6 17.793 C 6 18.402 4.633 19.409 4.258 19.811 C 4.089 19.992 4 20.229 4 20.487 L 4 21.524 C 4 21.791 4.196 22 4.444 22 L 19.556 22 C 19.805 22 20 21.791 20 21.524 L 20 20.487 C 20 20.229 19.902 19.992 19.742 19.811 C 19.365 19.407 18 18.405 18 17.793 L 18 11.919 C 18 11.31 19.367 10.303 19.742 9.901 C 19.911 9.72 20 9.482 20 9.225 L 20 2.476 C 20 2.209 19.805 2 19.556 2 M 14.667 18 L 9.333 18 L 9.333 11.519 C 9.333 9.939 10.525 8.664 12 8.664 C 13.476 8.664 14.667 9.939 14.667 11.519 L 14.667 18" transform="matrix(1 0 0 1 0 0)" fill="#C73849" stroke="none" />
</svg>
