<?xml version="1.0" encoding="UTF-8"?>
<!-- Reconstructed from Amplitude.Graphics.Svg.SvgAsset and recolored from static UIMapper.Color metadata for EWShop; not original source SVG. Live UI state/material colors are not included. -->
<svg xmlns="http://www.w3.org/2000/svg" width="20" height="20" viewBox="0 0 20 20">
  <path d="M 9.879 9 C 10.442 9 10.92 9.209 11.313 9.627 C 11.519 9.838 11.673 10.073 11.773 10.331 C 11.867 10.573 11.914 10.837 11.914 11.12 C 11.914 11.368 11.874 11.605 11.795 11.83 C 11.752 11.952 11.698 12.071 11.632 12.187 C 11.492 12.436 11.316 12.645 11.104 12.814 C 11.044 12.861 10.981 12.905 10.915 12.946 C 11.26 13.034 11.602 13.165 11.942 13.338 C 12.05 13.393 12.158 13.452 12.265 13.516 C 12.473 13.639 12.68 13.778 12.887 13.934 C 13.254 14.209 13.531 14.573 13.719 15.026 C 13.806 15.233 13.872 15.447 13.919 15.667 C 13.973 15.92 14 16.182 14 16.453 L 14 19 L 6 19 L 6 16.16 C 6 15.988 6.009 15.823 6.027 15.667 C 6.109 14.968 6.373 14.425 6.819 14.04 C 7.036 13.849 7.26 13.679 7.491 13.532 C 7.494 13.53 7.497 13.528 7.5 13.526 C 7.528 13.509 7.556 13.491 7.584 13.474 C 7.979 13.234 8.394 13.058 8.829 12.946 C 8.763 12.905 8.7 12.861 8.64 12.814 C 8.426 12.645 8.246 12.436 8.1 12.187 C 8.037 12.072 7.985 11.955 7.944 11.834 C 7.868 11.608 7.83 11.369 7.83 11.12 C 7.83 10.826 7.881 10.553 7.982 10.304 C 8.083 10.056 8.232 9.83 8.432 9.627 C 8.833 9.209 9.316 9 9.879 9" transform="matrix(1 0 0 1 0 0)" fill="#FFFFFF" stroke="none" />
  <path d="M 12 8 L 5 8 L 5 11 L 2 8 L 0 8 L 0 0 L 12 0 L 12 8 M 3 3 C 2.448 3 2 3.448 2 4 C 2 4.552 2.448 5 3 5 C 3.552 5 4 4.552 4 4 C 4 3.448 3.552 3 3 3 M 6 3 C 5.448 3 5 3.448 5 4 C 5 4.552 5.448 5 6 5 C 6.552 5 7 4.552 7 4 C 7 3.448 6.552 3 6 3 M 9 3 C 8.448 3 8 3.448 8 4 C 8 4.552 8.448 5 9 5 C 9.552 5 10 4.552 10 4 C 10 3.448 9.552 3 9 3" transform="matrix(1 0 0 1 0 0)" fill="#FFFFFF" stroke="none" />
  <path d="M 16 10 L 13 10 L 13 6 L 19 6 L 19 10 L 18 10 L 16 12 L 16 10" transform="matrix(1 0 0 1 0 0)" fill="#FFFFFF" stroke="none" />
</svg>
