<?xml version="1.0" encoding="UTF-8"?>
<!-- Reconstructed from Amplitude.Graphics.Svg.SvgAsset and recolored from static UIMapper.Color metadata for EWShop; not original source SVG. Live UI state/material colors are not included. -->
<svg xmlns="http://www.w3.org/2000/svg" width="25" height="25" viewBox="0 0 25 25">
  <path d="M 13.255 21.39 C 13.255 21.39 13.175 21.48 13.135 21.52 C 12.615 22.02 11.795 22.06 11.255 21.59 C 10.995 21.37 10.775 21.1 10.495 20.82 C 10.655 20.67 10.835 20.53 10.995 20.37 C 11.235 20.13 11.425 19.85 11.555 19.55 L 13.195 21.33 L 13.255 21.39" transform="matrix(1 0 0 1 0 0)" fill="#FFFFFF" stroke="none" />
  <path d="M 18.565 18.07 L 18.525 18.03 L 15.455 14.69 L 15.385 14.76 L 14.945 15.17 L 14.785 15.32 L 18.255 19.11 L 18.405 19.27 C 18.365 19.58 18.205 19.85 17.935 20.08 C 17.665 20.31 17.295 20.47 16.855 20.4 L 16.715 20.25 L 13.435 16.69 L 13.335 16.79 L 12.905 17.19 L 12.775 17.32 L 15.745 20.55 L 15.765 20.57 C 15.585 20.82 15.315 20.98 14.975 21.05 C 14.645 21.12 14.355 21.08 14.075 20.94 L 11.765 18.42 C 11.745 17.47 11.235 16.55 10.315 16.06 C 10.225 16.01 10.125 15.93 10.085 15.83 C 9.745 15.13 9.225 14.61 8.495 14.31 C 8.425 14.28 8.345 14.2 8.315 14.13 C 7.465 12.41 5.385 12.01 3.965 13.31 C 3.785 13.48 3.635 13.68 3.465 13.89 C 2.265 12.75 1.125 11.67 0.005 10.62 C 2.205 8.42 4.385 6.24 6.595 4.04 C 6.935 4.35 7.325 4.7 7.715 5.05 C 7.815 5.14 7.935 5.23 8.025 5.33 C 8.395 5.82 8.975 5.73 9.475 5.82 C 9.795 5.88 10.125 5.92 10.505 5.97 C 8.905 7.49 7.335 8.99 5.755 10.49 C 6.485 11.28 7.105 12.15 8.135 12.57 C 9.545 13.14 10.855 12.93 12.035 12.01 C 12.335 11.78 12.615 11.67 12.985 11.69 C 13.375 11.72 13.765 11.69 14.155 11.7 C 14.265 11.71 14.405 11.76 14.475 11.83 C 16.005 13.35 17.515 14.87 19.035 16.38 C 19.545 16.9 19.185 17.87 18.565 18.07" transform="matrix(1 0 0 1 0 0)" fill="#FFFFFF" stroke="none" />
  <path d="M 20.445 14.77 C 20.445 14.77 20.365 14.64 20.305 14.58 C 18.745 13.01 17.175 11.2 15.615 9.63 C 15.495 9.51 15.385 9.45 15.205 9.46 C 14.285 9.46 12.675 9.72 11.755 9.73 C 11.645 9.73 11.515 9.8 11.445 9.87 C 11.045 10.28 10.605 10.89 10.045 11.06 C 9.225 11.31 8.435 11.23 7.875 10.57 C 8.065 10.37 8.245 10.17 8.435 9.99 C 9.505 8.97 10.575 7.95 11.645 6.94 C 11.735 6.85 11.865 6.79 11.985 6.76 C 12.915 6.53 13.855 6.32 14.785 6.09 C 14.895 6.06 15.015 5.99 15.095 5.91 C 15.985 5.03 16.865 4.15 17.745 3.26 C 17.805 3.2 17.855 3.12 17.885 3.08 C 20.275 5.48 22.645 7.84 24.995 10.2 C 23.365 11.83 22.165 13.03 20.435 14.75 L 20.445 14.77" transform="matrix(1 0 0 1 0 0)" fill="#FFFFFF" stroke="none" />
  <path d="M 5.025 18.706 C 4.809 18.631 4.568 18.598 4.384 18.482 C 3.935 18.192 3.879 17.562 4.248 17.172 C 4.544 16.857 4.857 16.55 5.17 16.251 C 5.45 15.986 5.859 15.936 6.188 16.119 C 6.525 16.301 6.701 16.658 6.637 17.039 C 6.637 17.081 6.621 17.13 6.613 17.188 C 6.982 17.114 7.319 17.155 7.599 17.404 C 7.88 17.653 7.984 17.976 7.944 18.341 C 8.096 18.366 8.249 18.366 8.385 18.408 C 9.01 18.598 9.211 19.378 8.762 19.842 C 8.473 20.141 8.177 20.431 7.88 20.73 C 7.615 20.995 7.303 21.078 6.95 20.953 C 6.597 20.829 6.413 20.572 6.364 20.199 C 6.364 20.174 6.356 20.141 6.348 20.116 C 5.346 20.381 4.689 19.477 5.017 18.706 L 5.025 18.706" transform="matrix(1 0 0 1 0 0)" fill="#FFFFFF" stroke="none" />
</svg>
