<?xml version="1.0" encoding="UTF-8"?>
<!-- Reconstructed from Amplitude.Graphics.Svg.SvgAsset and recolored from static UIMapper.Color metadata for EWShop; not original source SVG. Live UI state/material colors are not included. -->
<svg xmlns="http://www.w3.org/2000/svg" width="20" height="20" viewBox="0 0 20 20">
  <path d="M 18 6.44 L 19.13 5.714 L 17.826 4 L 16.557 4.934 L 12.174 3.083 L 11 4.429 L 11 1 L 8 1 L 8 2.5 L 3.435 4.934 L 2.174 4 L 0.87 5.714 L 2 6.357 L 2 12 L 0 12 L 0 14 L 5 14 L 2 16 L 2 17 L 0 17 L 0 19 L 5 19 L 5 14 L 5 9 L 6 7 L 9 5 L 11 5 L 14 7 L 15 8.286 L 15 12 L 18 10 L 18 6.44" transform="matrix(1 0 0 1 0 0)" fill="#F5EBE1" stroke="none" />
  <path d="M 20 12 L 20 14 L 17 14 L 17 17 L 20 17 L 20 19 L 15 19 L 15 12 L 20 12" transform="matrix(1 0 0 1 0 0)" fill="#F5EBE1" stroke="none" />
  <path d="M 7 10 L 7 19 L 13 19 L 13 9 L 11 7 L 10 7 L 9 7 L 7.5 8 L 7 10" transform="matrix(1 0 0 1 0 0)" fill="#F5EBE1" stroke="none" />
</svg>
