<?xml version="1.0" encoding="UTF-8"?>
<!-- Reconstructed from Amplitude.Graphics.Svg.SvgAsset and recolored from static UIMapper.Color metadata for EWShop; not original source SVG. Live UI state/material colors are not included. -->
<svg xmlns="http://www.w3.org/2000/svg" width="33" height="33" viewBox="0 0 33 33">
  <path d="M 14.997 4.206 C 17.754 5.002 20.698 7.263 22.998 10.682 C 23.379 11.248 23.744 11.847 24.088 12.479 C 24.09 12.482 24.093 12.484 24.096 12.487 C 26.102 14.515 27.811 17.057 29.059 19.319 C 28.447 14.31 26.52 10.454 24.224 7.828 C 21.498 4.711 18.335 3.404 16.231 3.766 C 15.708 3.856 15.306 4.012 14.997 4.206" transform="matrix(1 0 0 1 0 0)" fill="none" stroke="none" />
  <path d="M 3.256 9.48 C 2.965 10.788 3.183 12.328 3.529 13.505 C 8.173 12.453 12.063 15.308 14.978 19.1 C 17.326 22.154 19.134 25.921 20.314 29.108 C 20.583 22.294 18.772 16.853 16.211 13.047 C 13.295 8.712 9.476 6.579 6.672 6.758 C 5.539 6.831 4.776 7.174 4.259 7.64 C 3.739 8.108 3.42 8.743 3.256 9.48" transform="matrix(1 0 0 1 0 0)" fill="none" stroke="none" />
  <path d="M 9.843 6.183 C 12.39 7.137 15.034 9.296 17.138 12.424 C 17.631 13.156 18.096 13.944 18.525 14.785 C 19.352 15.557 20.124 16.429 20.838 17.357 C 23.186 20.411 24.994 24.179 26.174 27.365 C 26.443 20.551 24.632 15.111 22.071 11.305 C 19.155 6.97 15.336 4.837 12.532 5.016 C 11.399 5.088 10.636 5.432 10.119 5.897 C 10.02 5.986 9.928 6.082 9.843 6.183" transform="matrix(1 0 0 1 0 0)" fill="none" stroke="none" />
</svg>
