<?xml version="1.0" encoding="UTF-8"?>
<!-- Reconstructed from Amplitude.Graphics.Svg.SvgAsset and recolored from static UIMapper.Color metadata for EWShop; not original source SVG. Live UI state/material colors are not included. -->
<svg xmlns="http://www.w3.org/2000/svg" width="33" height="33" viewBox="0 0 33 33">
  <path d="M 3.166 16.33 C 2.402 15.79 1.795 15.211 1.48 14.613 C 5.262 12.71 11.599 7.933 6.689 4.051 C 14.853 7.648 20.177 6.454 21.818 5.407 C 23.449 6.182 24.885 7.803 25.816 9.117 C 24.844 10.228 21.748 10.175 19.286 9.873 C 18.596 9.789 17.956 9.685 17.427 9.581 C 18.651 10.409 19.756 10.945 20.743 11.26 C 21.359 11.458 21.93 11.569 22.454 11.612 C 24.735 11.8 26.149 10.697 26.72 9.749 C 27.236 9.146 27.312 8.247 26.973 7.15 C 31.113 12.242 30.983 19.438 30.4 22.399 C 28.111 21.636 26.379 21.894 25.09 22.674 C 25.22 19.92 23.588 14.445 15.973 9.17 C 17.143 10.161 18.819 11.812 20.411 13.818 C 22.488 16.435 24.422 19.655 24.899 22.796 C 22.828 24.178 21.968 26.934 21.797 28.764 C 16.9 26.759 6.674 22.063 4.94 19.321 C 8.864 18.081 15.561 14.557 14.947 9.482 C 13.235 8.022 10.018 5.513 6.959 4.215 C 9 5.272 13.291 8.371 14.71 10.935 C 11.722 14.823 7.533 16.673 3.166 16.33" transform="matrix(1 0 0 1 0 0)" fill="none" stroke="none" />
</svg>
