<?xml version="1.0" encoding="UTF-8"?>
<!-- Reconstructed from Amplitude.Graphics.Svg.SvgAsset and recolored from static UIMapper.Color metadata for EWShop; not original source SVG. Live UI state/material colors are not included. -->
<svg xmlns="http://www.w3.org/2000/svg" width="24" height="24" viewBox="0 0 24 24">
  <path d="M 7.778 17.216 C 8.983 17.874 10.58 18.373 12.663 18.373 C 14.611 18.373 16.048 17.937 17.11 17.334 C 17.184 17.677 17.271 18.017 16.894 18.263 C 15.992 18.866 14.148 19.19 12.679 19.27 L 12.424 19.27 C 12.336 19.27 12.248 19.27 12.168 19.262 C 10.7 19.198 8.855 18.874 7.953 18.271 C 7.698 18.104 7.642 17.874 7.682 17.652 C 7.706 17.541 7.73 17.437 7.754 17.326 C 7.762 17.287 7.77 17.255 7.778 17.216 M 12.432 5.001 C 14.938 4.938 15.784 5.866 15.888 6.358 L 17.58 6.524 C 17.972 6.69 18.794 7.595 18.93 9.879 C 19.09 12.536 17.78 15.051 17.19 16.058 C 17.118 16.185 17.062 16.312 17.03 16.454 C 16.112 17.049 14.794 17.541 12.903 17.58 L 13.206 8.617 C 14.459 8.308 15.385 7.238 15.385 6.691 C 15.385 6.04 14.1 5.517 12.512 5.517 C 10.924 5.517 9.638 6.04 9.638 6.691 C 9.638 7.254 10.62 8.372 11.921 8.642 L 12.224 17.572 C 10.276 17.501 8.823 16.954 7.778 16.304 L 7.778 16.295 C 7.754 16.208 7.714 16.129 7.666 16.05 C 7.076 15.043 5.767 12.528 5.926 9.871 C 6.062 7.588 6.883 6.683 7.275 6.516 L 8.967 6.349 C 9.079 5.865 9.926 4.938 12.432 5.001 M 7.498 7.547 C 7.091 7.524 6.693 8.626 6.605 10.014 C 6.517 11.401 6.772 12.551 7.179 12.575 C 7.586 12.599 7.986 11.497 8.074 10.109 C 8.161 8.721 7.905 7.571 7.498 7.547 M 17.365 7.547 C 16.966 7.572 16.718 8.713 16.806 10.101 C 16.894 11.488 17.285 12.591 17.684 12.568 C 18.083 12.544 18.331 11.402 18.244 10.014 C 18.156 8.626 17.764 7.523 17.365 7.547" transform="matrix(1 0 0 1 0 0)" fill="#FFFFFF" stroke="none" />
  <path d="M 1.46 15.11 C 1.81 14.9 2.27 14.94 2.58 15.24 C 2.85 15.5 2.92 15.88 2.8 16.21 C 3.214 16.807 4.455 17.933 6.174 17.656 C 6.159 17.918 6.19 18.216 6.308 18.522 C 6.315 18.54 6.322 18.557 6.33 18.575 C 6.492 19.908 7.518 20.906 8.04 21.24 L 8.04 21.231 C 8.37 21.111 8.759 21.17 9.029 21.43 C 9.339 21.72 9.39 22.171 9.2 22.521 L 8.939 22.82 C 8.569 23.08 8.059 23.06 7.729 22.74 C 7.44 22.46 7.38 22.04 7.54 21.7 L 2.34 16.71 C 2 16.88 1.569 16.83 1.279 16.55 C 0.95 16.23 0.91 15.73 1.17 15.37 L 1.46 15.11 M 18.71 20.14 C 18.8 20.25 18.84 20.39 18.83 20.53 L 18.66 22.66 C 18.65 22.75 18.53 22.79 18.47 22.72 L 16.859 20.8 L 16.91 20.15 L 16.45 20.113 C 16.901 19.958 17.339 19.765 17.713 19.518 L 17.714 19.52 C 17.818 19.451 17.911 19.374 17.999 19.294 L 18.71 20.14 M 5.75 20.84 C 5.45 21.15 5.03 21.26 4.63 21.19 C 4.11 21.52 3.709 21.91 3.399 22.28 C 3.109 22.01 2.2 21.13 1.93 20.84 C 2.3 20.53 2.68 20.13 3 19.63 C 2.92 19.24 3.03 18.821 3.33 18.521 L 5.75 20.84 M 19.239 18.36 L 19.979 20.39 L 18.382 18.834 C 18.538 18.575 18.633 18.287 18.664 17.985 C 18.671 17.92 18.672 17.855 18.673 17.791 L 19.239 18.36 M 19.279 15.33 L 20.069 16.11 L 19.13 16.43 L 20.72 16.75 L 20.72 16.76 L 22.5 18.521 C 22.569 18.581 22.519 18.7 22.43 18.7 L 20.319 18.72 C 20.18 18.72 20.039 18.67 19.939 18.57 L 18.625 17.269 C 18.603 17.142 18.583 17.051 18.576 17.018 L 18.518 16.754 C 18.713 16.419 18.982 15.925 19.26 15.313 C 19.266 15.318 19.273 15.324 19.279 15.33 M 5.622 15.361 C 5.863 15.887 6.097 16.322 6.278 16.641 L 6.278 17.04 C 5.581 17.299 4.169 16.886 4.25 16.65 C 4.257 16.644 4.77 16.16 5.622 15.361 M 7.3 3.64 C 6.901 4.042 6.869 4.536 7.031 5.032 L 6.898 5.046 L 6.686 5.136 C 6.436 5.243 6.205 5.401 5.994 5.595 L 3.319 3.35 L 5.587 6.047 C 5.43 6.254 5.289 6.481 5.168 6.719 C 5.045 6.961 4.933 7.23 4.835 7.526 C 4.275 7.368 3.761 7.335 3.43 7.36 L 1.269 1 L 7.3 3.64 M 22.88 1.01 C 22.91 0.99 22.94 1.01 22.97 1.03 C 23 1.05 23.01 1.08 23 1.12 C 22.698 2.069 21.293 4.016 19.446 6.312 C 19.234 5.983 18.984 5.692 18.699 5.467 C 18.843 5.31 18.974 5.168 19.09 5.04 C 19.32 4.78 19.22 4.69 18.96 4.92 C 18.825 5.041 18.674 5.178 18.509 5.33 C 18.399 5.258 18.286 5.194 18.168 5.144 L 17.956 5.054 L 17.727 5.031 L 17.239 4.983 C 19.716 2.934 21.855 1.343 22.88 1.01" transform="matrix(1 0 0 1 0 0)" fill="#FFFFFF" stroke="none" />
</svg>
