<?xml version="1.0" encoding="UTF-8"?>
<!-- Reconstructed from Amplitude.Graphics.Svg.SvgAsset and recolored from static UIMapper.Color metadata for EWShop; not original source SVG. Live UI state/material colors are not included. -->
<svg xmlns="http://www.w3.org/2000/svg" width="24" height="24" viewBox="0 0 24 24">
  <path d="M 7.09 9.15 L 7.38 8.18 L 3.32 3.35 L 7.3 6.69 L 8.62 7.1 C 7.74 6.39 6.25 4.7 7.3 3.64 L 1.27 1 L 3.43 7.36 C 4.23 7.3 6.09 7.57 7.09 9.15" transform="matrix(1 0 0 1 0 0)" fill="#FFFFFF" stroke="none" />
  <path d="M 7.8 8.54 L 9.24 9.94 L 10.12 9.19 L 8.62 7.68 L 7.78 7.54 L 7.8 8.54" transform="matrix(1 0 0 1 0 0)" fill="#FFFFFF" stroke="none" />
  <path d="M 6.47 16.95 C 6.47 16.95 16.18 7.41 18.96 4.92 C 19.22 4.69 19.32 4.78 19.09 5.04 C 16.6 7.81 7.07 17.52 7.07 17.52 C 6.62 18.27 7.38 20.02 7.56 19.83 C 7.56 19.83 21.95 4.42 23 1.12 C 23.01 1.08 23 1.05 22.97 1.03 C 22.94 1.01 22.91 0.99 22.88 1.01 C 19.53 2.1 4.25 16.65 4.25 16.65 C 4.16 16.91 5.89 17.39 6.47 16.94 L 6.47 16.95" transform="matrix(1 0 0 1 0 0)" fill="#FFFFFF" stroke="none" />
  <path d="M 3 19.63 C 2.68 20.13 2.3 20.53 1.93 20.84 C 2.2 21.13 3.11 22.01 3.4 22.28 C 3.71 21.91 4.11 21.52 4.63 21.19 C 5.03 21.26 5.45 21.15 5.75 20.84 L 3.33 18.52 C 3.03 18.82 2.92 19.24 3 19.63" transform="matrix(1 0 0 1 0 0)" fill="#FFFFFF" stroke="none" />
  <path d="M 20.72 16.75 L 19.13 16.43 L 20.07 16.11 L 19.28 15.33 C 19.16 15.21 18.99 15.16 18.83 15.18 L 17.04 15.46 C 16.95 15.47 16.92 15.58 16.98 15.64 L 19.94 18.57 C 20.04 18.67 20.18 18.72 20.32 18.72 L 22.43 18.7 C 22.52 18.7 22.57 18.58 22.5 18.52 L 20.72 16.76 L 20.72 16.75" transform="matrix(1 0 0 1 0 0)" fill="#FFFFFF" stroke="none" />
  <path d="M 15.13 14.23 L 14.33 14.89 L 19.98 20.39 L 19.24 18.36 L 15.13 14.23" transform="matrix(1 0 0 1 0 0)" fill="#FFFFFF" stroke="none" />
  <path d="M 8.04 21.24 C 7.4 20.83 6 19.42 6.37 17.62 C 4.55 18.02 3.23 16.83 2.8 16.21 C 2.92 15.88 2.85 15.5 2.58 15.24 C 2.27 14.94 1.81 14.9 1.46 15.11 L 1.17 15.37 C 0.91 15.73 0.95 16.23 1.28 16.55 C 1.57 16.83 2 16.88 2.34 16.71 L 7.54 21.7 C 7.38 22.04 7.44 22.46 7.73 22.74 C 8.06 23.06 8.57 23.08 8.94 22.82 L 9.2 22.52 C 9.39 22.17 9.34 21.72 9.03 21.43 C 8.76 21.17 8.37 21.11 8.04 21.23 L 8.04 21.24" transform="matrix(1 0 0 1 0 0)" fill="#FFFFFF" stroke="none" />
  <path d="M 16.02 16.96 C 15.96 16.89 15.86 16.92 15.84 17.01 L 15.44 18.79 C 15.4 18.95 15.44 19.13 15.55 19.25 L 16.27 20.1 L 16.91 20.15 L 16.86 20.8 L 18.47 22.72 C 18.53 22.79 18.65 22.75 18.66 22.66 L 18.83 20.53 C 18.84 20.39 18.8 20.25 18.71 20.14 L 16.03 16.95 L 16.02 16.96" transform="matrix(1 0 0 1 0 0)" fill="#FFFFFF" stroke="none" />
</svg>
