<?xml version="1.0" encoding="UTF-8"?>
<!-- Reconstructed from Amplitude.Graphics.Svg.SvgAsset and recolored from static UIMapper.Color metadata for EWShop; not original source SVG. Live UI state/material colors are not included. -->
<svg xmlns="http://www.w3.org/2000/svg" width="24" height="24" viewBox="0 0 24 24">
  <path d="M 21.5 12 C 21.074 12.852 20.648 13.995 20.618 15.231 C 21.175 14.681 21.956 14.209 23 14 C 22.651 14.698 22.303 15.397 22.294 16.266 C 22.75 16.65 23 17.065 23 17.5 C 23 19.433 18.075 21 12 21 C 11.316 21 10.647 20.978 9.998 20.94 C 9.066 19.87 7.394 18.704 4.625 18 C 5.205 18.758 5.442 19.538 5.446 20.311 C 2.748 19.673 1 18.652 1 17.5 C 1 17.065 1.25 16.65 1.705 16.266 C 1.697 15.397 1.349 14.698 1 14 C 2.044 14.209 2.824 14.682 3.381 15.231 C 3.351 13.996 2.926 12.853 2.5 12 C 4.179 12.336 5.497 13.394 6.357 14.495 C 6.372 14.492 6.387 14.49 6.401 14.487 C 6.44 14.545 6.479 14.603 6.52 14.66 C 7.628 16.208 9.443 17.5 12.061 17.5 C 14.835 17.5 16.639 16.132 17.686 14.513 C 17.746 14.42 17.803 14.326 17.858 14.231 C 18.717 13.229 19.955 12.309 21.5 12" transform="matrix(1 0 0 1 0 0)" fill="#FFFFFF" stroke="none" />
  <path d="M 12.061 2 C 16.11 2 17.579 7.397 17.497 10.172 C 17.497 11.806 16.454 16 12.061 16 C 7.95 16 6.5 12.04 6.5 10.172 C 6.5 7.397 8.012 2 12.061 2 M 12.817 3.117 C 12.726 3.08 12.648 3.187 12.708 3.267 C 14.469 5.58 15.413 8.311 15.918 11.457 C 15.936 11.567 16.089 11.57 16.108 11.461 C 16.848 7.381 15.488 4.205 12.817 3.117" transform="matrix(1 0 0 1 0 0)" fill="#FFFFFF" stroke="none" />
</svg>
