<?xml version="1.0" encoding="UTF-8"?>
<!-- Reconstructed from Amplitude.Graphics.Svg.SvgAsset and recolored from static UIMapper.Color metadata for EWShop; not original source SVG. Live UI state/material colors are not included. -->
<svg xmlns="http://www.w3.org/2000/svg" width="28" height="28" viewBox="0 0 28 28">
  <path d="M 11.11 7.18 C 10.72 7.05 10.3 6.98 9.87 6.98 C 7.77 6.98 6.07 8.65 6.07 10.71 C 6.07 11.64 6.42 12.49 6.99 13.15 C 7.7 10.76 9.17 8.68 11.12 7.18 L 11.11 7.18" transform="matrix(1 0 0 1 0 0)" fill="#F0B761" stroke="none" />
  <path d="M 6.55 15.53 C 4.98 14.49 3.96 12.72 3.96 10.71 C 3.96 7.49 6.59 4.9 9.88 4.9 C 11.12 4.9 12.26 5.27 13.21 5.9 C 14.22 5.41 15.32 5.06 16.47 4.87 C 14.85 3.11 12.5 2 9.88 2 C 4.95 2 1 5.88 1 10.71 C 1 14.47 3.39 17.65 6.77 18.88 C 6.6 18.09 6.51 17.27 6.51 16.43 C 6.51 16.12 6.52 15.82 6.55 15.52 L 6.55 15.53" transform="matrix(1 0 0 1 0 0)" fill="#F0B761" stroke="none" />
  <path d="M 18.13 7.57 C 13.22 7.57 9.26 11.45 9.26 16.28 C 9.26 21.11 13.21 24.99 18.13 24.99 C 23.05 24.99 27 21.11 27 16.28 C 27 11.45 23.05 7.57 18.13 7.57 M 18.13 22.1 C 14.85 22.1 12.21 19.51 12.21 16.29 C 12.21 13.07 14.84 10.48 18.13 10.48 C 21.42 10.48 24.05 13.07 24.05 16.29 C 24.05 19.51 21.42 22.1 18.13 22.1" transform="matrix(1 0 0 1 0 0)" fill="#F0B761" stroke="none" />
  <path d="M 18.13 12.55 C 16.03 12.55 14.33 14.22 14.33 16.28 C 14.33 18.34 16.03 20.01 18.13 20.01 C 20.23 20.01 21.93 18.34 21.93 16.28 C 21.93 14.22 20.23 12.55 18.13 12.55" transform="matrix(1 0 0 1 0 0)" fill="#F0B761" stroke="none" />
</svg>
