<?xml version="1.0" encoding="UTF-8"?>
<!-- Reconstructed from Amplitude.Graphics.Svg.SvgAsset and recolored from static UIMapper.Color metadata for EWShop; not original source SVG. Live UI state/material colors are not included. -->
<svg xmlns="http://www.w3.org/2000/svg" width="28" height="29" viewBox="0 0 28 29">
  <path d="M 9.212 9.808 C 9.212 7.153 11.359 5 14.009 5 C 16.658 5 18.806 7.153 18.806 9.808 L 18.806 11.326 C 20.068 11.84 21 13.077 21 14.473 L 21 20.599 C 21 22.554 19.374 24 17.525 24 L 10.475 24 C 8.626 24 7 22.554 7 20.599 L 7 14.473 C 7 13.071 7.941 11.829 9.212 11.319 L 9.212 9.808 M 9.993 11.072 L 18.024 11.072 L 18.024 9.808 C 18.024 7.585 16.226 5.784 14.009 5.784 C 11.791 5.784 9.993 7.585 9.993 9.808 L 9.993 11.072 M 10.475 11.856 C 9.029 11.856 7.782 13.087 7.782 14.473 L 7.782 20.599 C 7.782 22.083 9.019 23.217 10.475 23.217 L 17.525 23.217 C 18.981 23.217 20.218 22.083 20.218 20.599 L 20.218 14.473 C 20.218 13.087 18.971 11.856 17.525 11.856 L 10.475 11.856 M 14 15.72 C 13.121 15.72 12.408 16.434 12.408 17.315 C 12.408 18.196 13.121 18.911 14 18.911 C 14.879 18.911 15.592 18.196 15.592 17.315 C 15.592 16.434 14.879 15.72 14 15.72 M 11.627 17.315 C 11.627 16.001 12.689 14.936 14 14.936 C 15.311 14.936 16.374 16.001 16.374 17.315 C 16.374 18.496 15.516 19.475 14.391 19.662 L 14.391 20.407 C 14.391 20.623 14.216 20.798 14 20.798 C 13.784 20.798 13.609 20.623 13.609 20.407 L 13.609 19.662 C 12.484 19.475 11.627 18.496 11.627 17.315" transform="matrix(1 0 0 1 0 0)" fill="none" stroke="none" />
</svg>
