<?xml version="1.0" encoding="UTF-8"?>
<!-- Reconstructed from Amplitude.Graphics.Svg.SvgAsset and recolored from static UIMapper.Color metadata for EWShop; not original source SVG. Live UI state/material colors are not included. -->
<svg xmlns="http://www.w3.org/2000/svg" width="28" height="28" viewBox="0 0 28 28">
  <path d="M 10.093 12.772 C 9.529 12.772 9.007 12.642 8.526 12.382 C 8.058 12.122 7.687 11.771 7.412 11.329 C 7.137 10.887 7 10.399 7 9.866 C 7 9.346 7.137 8.865 7.412 8.423 C 7.687 7.981 8.058 7.637 8.526 7.39 C 9.007 7.13 9.529 7 10.093 7 C 10.643 7 11.151 7.13 11.619 7.39 C 12.086 7.65 12.457 8.001 12.732 8.443 C 13.007 8.872 13.144 9.346 13.144 9.866 C 13.144 10.399 13.007 10.887 12.732 11.329 C 12.457 11.771 12.086 12.122 11.619 12.382 C 11.151 12.642 10.643 12.772 10.093 12.772 M 9.495 20.825 C 9.412 20.825 9.357 20.805 9.33 20.766 C 9.302 20.714 9.309 20.656 9.351 20.591 L 17.144 7.312 C 17.199 7.221 17.282 7.175 17.392 7.175 L 18.402 7.175 C 18.485 7.175 18.54 7.201 18.567 7.253 C 18.595 7.292 18.588 7.344 18.546 7.409 L 10.753 20.688 C 10.711 20.779 10.629 20.825 10.505 20.825 L 9.495 20.825 M 10.093 11.621 C 10.601 11.621 11.028 11.452 11.371 11.114 C 11.715 10.776 11.887 10.36 11.887 9.866 C 11.887 9.385 11.708 8.982 11.351 8.657 C 11.007 8.319 10.588 8.15 10.093 8.15 C 9.584 8.15 9.151 8.319 8.794 8.657 C 8.436 8.982 8.258 9.385 8.258 9.866 C 8.258 10.36 8.436 10.776 8.794 11.114 C 9.151 11.452 9.584 11.621 10.093 11.621 M 17.949 21 C 17.385 21 16.863 20.87 16.381 20.61 C 15.914 20.35 15.543 19.999 15.268 19.557 C 14.993 19.115 14.856 18.634 14.856 18.114 C 14.856 17.594 14.993 17.113 15.268 16.671 C 15.543 16.229 15.914 15.878 16.381 15.618 C 16.863 15.358 17.385 15.228 17.949 15.228 C 18.498 15.228 19.007 15.358 19.474 15.618 C 19.942 15.878 20.313 16.229 20.588 16.671 C 20.863 17.113 21 17.594 21 18.114 C 21 18.634 20.863 19.115 20.588 19.557 C 20.313 19.999 19.942 20.35 19.474 20.61 C 19.007 20.87 18.498 21 17.949 21 M 17.949 19.85 C 18.457 19.85 18.883 19.681 19.227 19.343 C 19.57 19.005 19.742 18.595 19.742 18.114 C 19.742 17.633 19.564 17.224 19.206 16.886 C 18.863 16.548 18.443 16.379 17.949 16.379 C 17.44 16.379 17.007 16.548 16.65 16.886 C 16.292 17.224 16.113 17.633 16.113 18.114 C 16.113 18.595 16.292 19.005 16.65 19.343 C 17.007 19.681 17.44 19.85 17.949 19.85" transform="matrix(1 0 0 1 0 0)" fill="none" stroke="none" />
</svg>
