<?xml version="1.0" encoding="UTF-8"?>
<!-- Reconstructed from Amplitude.Graphics.Svg.SvgAsset and recolored from static UIMapper.Color metadata for EWShop; not original source SVG. Live UI state/material colors are not included. -->
<svg xmlns="http://www.w3.org/2000/svg" width="28" height="29" viewBox="0 0 28 29">
  <path d="M 14.043 4 C 16.425 4 18.356 5.931 18.356 8.313 L 18.356 11.161 L 18.473 11.161 C 19.916 11.161 21.085 12.33 21.085 13.773 L 21.085 21.463 C 21.085 22.906 19.916 24.076 18.473 24.076 L 9.613 24.076 C 8.17 24.076 7 22.906 7 21.463 L 7 13.773 C 7 12.33 8.17 11.161 9.613 11.161 L 17.485 11.161 L 17.485 8.313 C 17.485 6.412 15.944 4.871 14.043 4.871 C 12.142 4.871 10.601 6.412 10.601 8.313 L 10.601 8.595 C 10.601 8.835 10.406 9.03 10.165 9.03 C 9.925 9.03 9.73 8.835 9.73 8.595 L 9.73 8.313 C 9.73 5.931 11.661 4 14.043 4 M 18.473 12.032 L 9.613 12.032 C 8.651 12.032 7.871 12.811 7.871 13.773 L 7.871 21.463 C 7.871 22.425 8.651 23.205 9.613 23.205 L 18.473 23.205 C 19.435 23.205 20.215 22.425 20.215 21.463 L 20.215 13.773 C 20.215 12.811 19.435 12.032 18.473 12.032 M 16.11 17.191 C 16.11 18.333 15.185 19.259 14.043 19.259 C 12.901 19.259 11.975 18.333 11.975 17.191 C 11.975 16.049 12.901 15.123 14.043 15.123 C 15.185 15.123 16.11 16.049 16.11 17.191 M 14.481 20.097 C 15.896 19.886 16.981 18.665 16.981 17.191 C 16.981 15.568 15.666 14.252 14.043 14.252 C 12.42 14.252 11.104 15.568 11.104 17.191 C 11.104 18.667 12.192 19.889 13.61 20.098 L 13.61 21.304 C 13.61 21.545 13.805 21.74 14.045 21.74 C 14.286 21.74 14.481 21.545 14.481 21.304 L 14.481 20.097" transform="matrix(1 0 0 1 0 0)" fill="#FFFFFF" stroke="none" />
</svg>
