<?xml version="1.0" encoding="UTF-8"?>
<!-- Reconstructed from Amplitude.Graphics.Svg.SvgAsset and recolored from static UIMapper.Color metadata for EWShop; not original source SVG. Live UI state/material colors are not included. -->
<svg xmlns="http://www.w3.org/2000/svg" width="24" height="24" viewBox="0 0 24 24">
  <path d="M 9.559 5.252 C 10.663 4.634 11.944 4.468 13.145 4.75 C 13.081 5.088 13.047 5.435 13.047 5.792 C 13.047 8.259 14.638 10.337 16.856 11.065 L 16.856 14.198 L 17.207 14.198 C 17.759 14.198 18.207 14.646 18.207 15.198 L 18.207 18 L 18.725 18 C 19.277 18 19.724 18.448 19.725 19 L 19.725 21.801 L 4.276 21.801 L 4.276 19 C 4.277 18.447 4.724 18 5.276 18 L 5.794 18 L 5.794 15.198 C 5.794 14.646 6.241 14.198 6.793 14.198 L 7.146 14.198 L 7.146 8.362 C 7.146 7.276 7.733 6.274 8.681 5.744 L 9.559 5.252 M 12 10.718 C 11.025 10.718 10.234 11.509 10.234 12.484 L 10.234 16.703 L 13.766 16.703 L 13.766 12.484 C 13.766 11.509 12.975 10.718 12 10.718" transform="matrix(1 0 0 1 0 0)" fill="#FFFFFF" stroke="none" />
  <path d="M 18.599 3.874 C 19.658 3.874 20.517 4.732 20.518 5.792 C 20.518 6.851 19.658 7.71 18.599 7.71 C 17.539 7.71 16.681 6.851 16.681 5.792 C 16.681 4.732 17.54 3.874 18.599 3.874" transform="matrix(1 0 0 1 0 0)" fill="#FFFFFF" stroke="none" />
  <path d="M 18.599 1.316 C 21.079 1.316 23.075 3.311 23.075 5.792 C 23.075 8.272 21.079 10.268 18.599 10.268 C 16.118 10.268 14.123 8.272 14.123 5.792 C 14.123 3.311 16.118 1.316 18.599 1.316 M 18.599 2.808 C 16.945 2.808 15.616 4.138 15.615 5.792 C 15.615 7.445 16.945 8.776 18.599 8.776 C 20.252 8.776 21.583 7.445 21.583 5.792 C 21.583 4.138 20.252 2.808 18.599 2.808" transform="matrix(1 0 0 1 0 0)" fill="#FFFFFF" stroke="none" />
</svg>
