<?xml version="1.0" encoding="UTF-8"?>
<!-- Reconstructed from Amplitude.Graphics.Svg.SvgAsset and recolored from static UIMapper.Color metadata for EWShop; not original source SVG. Live UI state/material colors are not included. -->
<svg xmlns="http://www.w3.org/2000/svg" width="20" height="20" viewBox="0 0 20 20">
  <path d="M 20 5 C 20 7.761 17.761 10 15 10 C 12.239 10 10 7.761 10 5 C 10 2.239 12.239 0 15 0 C 17.761 0 20 2.239 20 5 M 16 4 L 19 4 L 19 6 L 16 6 L 16 9 L 14 9 L 14 6 L 11 6 L 11 4 L 14 4 L 14 1 L 16 1 L 16 4" transform="matrix(1 0 0 1 0 0)" fill="#53BEEC" stroke="none" />
  <path d="M 8.243 3.167 C 7.639 3.774 6.987 4.566 6.667 5.362 C 5.693 4.522 4.807 3.993 4.01 4.189 C 3.479 4.284 2.859 4.689 2.417 5.406 L 3.745 5.424 C 3.833 5.322 4.01 5.222 4.099 5.223 C 5.161 4.515 6.224 5.149 7.286 6.301 C 7.375 6.405 7.463 6.484 7.552 6.563 L 7.552 6.563 L 7.552 6.563 C 7.64 6.641 7.729 6.72 7.818 6.825 L 8.26 7.347 C 6.755 7.326 5.161 7.407 4.01 7.597 C 2.859 7.684 2.062 7.88 1.797 7.979 C 1.354 8.18 1.089 8.486 1 8.691 C 1.028 8.725 1.048 8.79 1.072 8.873 C 1.125 9.05 1.202 9.31 1.443 9.524 C 1.708 9.837 2.859 10.887 4.099 11.524 L 4.099 11.524 C 4.453 11.735 4.807 11.947 5.073 12.054 C 4.63 11.635 4.276 11.216 4.099 11.007 L 4.099 11.007 L 3.745 10.589 C 3.479 10.172 3.391 9.758 3.479 9.449 C 3.568 9.141 3.745 8.833 4.099 8.528 C 4.536 8.127 6.437 7.545 8.444 7.458 C 8.373 7.269 8.31 7.076 8.255 6.88 C 8.227 6.863 8.2 6.846 8.172 6.83 C 8.083 6.725 7.973 6.62 7.862 6.515 L 7.862 6.515 C 7.751 6.41 7.64 6.306 7.552 6.201 C 7.286 5.887 7.021 5.574 6.755 5.363 C 6.924 5.218 7.082 5.079 7.229 4.949 L 7.229 4.949 C 7.56 4.659 7.833 4.418 8.037 4.274 C 8.076 3.895 8.146 3.525 8.243 3.167 M 9.602 9.456 C 9.448 10.34 9.285 11.212 9.057 12.007 C 9.013 12.109 8.969 12.238 8.924 12.366 C 8.88 12.495 8.836 12.623 8.791 12.726 C 8.172 14.68 7.286 16.217 5.958 15.992 L 5.073 16.702 C 6.489 17.652 7.64 16.222 8.526 13.962 C 8.969 14.278 9.5 14.492 10.12 14.707 C 11.271 14.93 12.422 14.946 12.687 14.847 C 13.219 14.751 13.484 14.548 13.661 14.241 C 13.838 13.933 13.838 13.52 13.661 12.898 C 13.543 12.666 13.196 12.205 12.682 11.607 C 11.975 11.359 11.32 11.001 10.738 10.553 C 11.198 11.202 11.475 11.722 11.536 11.938 C 11.625 12.25 11.536 12.558 11.448 12.763 C 11.448 12.815 11.426 12.866 11.403 12.918 C 11.381 12.969 11.359 13.02 11.359 13.072 C 11.182 13.38 10.828 13.684 10.297 13.884 L 10.12 13.881 C 9.854 13.981 9.234 13.972 8.614 13.86 C 8.791 13.449 8.88 13.141 8.969 12.729 C 9.013 12.574 9.079 12.394 9.146 12.215 L 9.146 12.215 C 9.212 12.035 9.278 11.855 9.323 11.701 C 9.541 11.11 9.699 10.449 9.847 9.832 L 9.847 9.832 L 9.847 9.832 L 9.847 9.832 C 9.853 9.807 9.859 9.782 9.865 9.757 C 9.774 9.66 9.687 9.559 9.602 9.456 M 8.037 8.173 L 9.235 9.478 L 8.836 11.297 L 7.139 11.703 L 5.941 10.398 L 6.44 8.58 L 8.037 8.173" transform="matrix(1 0 0 1 0 0)" fill="#53BEEC" stroke="none" />
</svg>
