<?xml version="1.0" encoding="UTF-8"?>
<!-- Reconstructed from Amplitude.Graphics.Svg.SvgAsset and recolored from static UIMapper.Color metadata for EWShop; not original source SVG. Live UI state/material colors are not included. -->
<svg xmlns="http://www.w3.org/2000/svg" width="20" height="20" viewBox="0 0 20 20">
  <path d="M 20 5 C 20 7.761 17.761 10 15 10 C 12.239 10 10 7.761 10 5 C 10 2.239 12.239 0 15 0 C 17.761 0 20 2.239 20 5 M 16 4 L 19 4 L 19 6 L 16 6 L 16 9 L 14 9 L 14 6 L 11 6 L 11 4 L 14 4 L 14 1 L 16 1 L 16 4" transform="matrix(1 0 0 1 0 0)" fill="#F04698" stroke="none" />
  <path d="M 8.008 4.67 L 6.5 4 L 2 6 L 2 7 L 8.29 7 C 8.101 6.366 8 5.695 8 5 C 8 4.89 8.003 4.779 8.008 4.67 M 8.674 8 L 2 8 L 2 9 L 9.255 9 C 9.035 8.685 8.84 8.35 8.674 8 M 10.843 10.633 C 10.865 11.129 11.14 11.559 11.542 11.798 C 10.982 11.935 10.501 12.218 10.125 12.533 C 9.715 12.878 9.557 13.418 9.557 13.954 L 9.557 17.131 C 9.557 17.588 9.927 17.959 10.384 17.959 L 14.344 17.959 C 14.801 17.959 15.172 17.588 15.172 17.131 L 15.172 14.157 C 15.172 13.499 14.926 12.843 14.39 12.46 C 13.908 12.115 13.442 11.906 13.001 11.799 C 13.033 11.78 13.064 11.759 13.095 11.738 C 12.273 11.506 11.512 11.128 10.843 10.633 M 4 14 L 3 14 L 3 10 L 4 10 L 4 14 M 6 10 L 6 14 L 7 14 L 7 10 L 6 10 M 10 12 L 9 12 L 9 10 L 10 10 L 10 12 M 2 16 L 8 16 L 8 15 L 2 15 L 2 16" transform="matrix(1 0 0 1 0 0)" fill="#F04698" stroke="none" />
</svg>
