<?xml version="1.0" encoding="UTF-8"?>
<!-- Reconstructed from Amplitude.Graphics.Svg.SvgAsset and recolored from static UIMapper.Color metadata for EWShop; not original source SVG. Live UI state/material colors are not included. -->
<svg xmlns="http://www.w3.org/2000/svg" width="26" height="28" viewBox="0 0 26 28">
  <path d="M 21.66 7 L 13 2 L 4.34 7 L 4.34 17 L 13 22 L 21.66 17 L 21.66 7 M 9.706 12.232 L 10.907 11.03 C 11.2 10.737 11.675 10.737 11.968 11.03 C 12.261 11.323 12.261 11.798 11.968 12.091 L 9.286 14.773 C 8.993 15.066 8.518 15.066 8.225 14.773 L 5.543 12.091 C 5.251 11.798 5.251 11.323 5.543 11.03 C 5.836 10.737 6.311 10.737 6.604 11.03 L 7.706 12.132 L 7.706 12 C 7.706 8.686 10.392 6 13.706 6 L 13.706 8 C 11.496 8 9.706 9.791 9.706 12 L 9.706 12.232 M 15.093 13.357 L 16.295 12.155 L 16.295 12.387 C 16.295 14.596 14.504 16.387 12.295 16.387 L 12.295 18.387 C 15.608 18.387 18.295 15.7 18.295 12.387 L 18.295 12.255 L 19.396 13.357 C 19.689 13.649 20.164 13.649 20.457 13.357 C 20.75 13.064 20.75 12.589 20.457 12.296 L 17.775 9.614 C 17.482 9.321 17.007 9.321 16.714 9.614 L 14.032 12.296 C 13.739 12.589 13.739 13.064 14.032 13.357 C 14.325 13.649 14.8 13.649 15.093 13.357" transform="matrix(1 0 0 1 0 0)" fill="#EBEBEB" stroke="none" />
</svg>
