<?xml version="1.0" encoding="UTF-8"?>
<!-- Reconstructed from Amplitude.Graphics.Svg.SvgAsset and recolored from static UIMapper.Color metadata for EWShop; not original source SVG. Live UI state/material colors are not included. -->
<svg xmlns="http://www.w3.org/2000/svg" width="20" height="20" viewBox="0 0 20 20">
  <path d="M 9.5 3.297 L 14.5 0.57 L 19.5 3.297 L 19.5 8.703 L 14.5 11.431 L 9.5 8.703 L 9.5 3.297" transform="matrix(1 0 0 1 0 0)" fill="none" stroke="#53BEEC" stroke-width="1" />
  <path d="M 14.5 3 L 17 4.2 L 17 7.8 L 14.5 9 L 12 7.8 L 12 4.2 L 14.5 3" transform="matrix(1 0 0 1 0 0)" fill="#53BEEC" stroke="none" />
  <path d="M 7 4.707 C 6.869 4.922 6.755 5.142 6.667 5.362 C 5.693 4.522 4.807 3.993 4.01 4.189 C 3.479 4.284 2.859 4.689 2.417 5.406 L 3.745 5.424 C 3.833 5.322 4.01 5.222 4.099 5.223 C 5.066 4.578 6.033 5.046 7 6.003 L 7 5.584 C 6.918 5.502 6.837 5.428 6.755 5.363 C 6.839 5.291 6.921 5.22 7 5.151 L 7 4.707 M 7 7.353 C 5.906 7.379 4.842 7.46 4.01 7.597 C 2.859 7.684 2.062 7.88 1.797 7.979 C 1.354 8.18 1.089 8.486 1 8.691 C 1.028 8.725 1.048 8.789 1.072 8.873 C 1.125 9.05 1.202 9.309 1.443 9.524 C 1.708 9.837 2.859 10.887 4.099 11.524 L 4.099 11.524 C 4.453 11.735 4.807 11.947 5.073 12.054 C 4.63 11.635 4.276 11.216 4.099 11.007 L 4.099 11.007 L 3.745 10.589 C 3.479 10.172 3.391 9.758 3.479 9.449 C 3.568 9.14 3.745 8.833 4.099 8.528 C 4.428 8.226 5.589 7.821 7 7.602 L 7 7.353 M 7 8.437 L 7 10 L 8.898 11.013 L 8.836 11.297 L 7.139 11.703 L 5.941 10.398 L 6.44 8.58 L 7 8.437 M 9.261 11.206 L 9.456 11.31 C 9.414 11.443 9.37 11.573 9.323 11.701 C 9.278 11.855 9.212 12.035 9.146 12.215 L 9.146 12.215 C 9.079 12.394 9.013 12.574 8.969 12.729 C 8.88 13.14 8.791 13.449 8.614 13.86 C 9.234 13.972 9.854 13.981 10.12 13.881 L 10.297 13.883 C 10.828 13.684 11.182 13.379 11.359 13.072 C 11.359 13.02 11.381 12.969 11.403 12.918 C 11.426 12.866 11.448 12.815 11.448 12.763 C 11.488 12.67 11.528 12.555 11.552 12.428 L 13.793 13.623 C 13.802 13.872 13.758 14.072 13.661 14.241 C 13.484 14.548 13.219 14.751 12.687 14.847 C 12.422 14.946 11.271 14.93 10.12 14.707 C 9.5 14.492 8.969 14.278 8.526 13.962 C 7.64 16.222 6.489 17.652 5.073 16.702 L 5.958 15.992 C 7.286 16.217 8.172 14.68 8.791 12.726 C 8.836 12.623 8.88 12.495 8.924 12.366 C 8.969 12.238 9.013 12.109 9.057 12.007 C 9.132 11.747 9.199 11.48 9.261 11.206" transform="matrix(1 0 0 1 0 0)" fill="#53BEEC" stroke="none" />
</svg>
