<?xml version="1.0" encoding="UTF-8"?>
<!-- Reconstructed from Amplitude.Graphics.Svg.SvgAsset and recolored from static UIMapper.Color metadata for EWShop; not original source SVG. Live UI state/material colors are not included. -->
<svg xmlns="http://www.w3.org/2000/svg" width="20" height="20" viewBox="0 0 20 20">
  <path d="M 5.521 10.741 L 7 10.728 L 8.479 10.741 C 8.856 10.741 9.217 10.867 9.524 11.092 L 10.701 11.977 L 9.427 12.924 C 9.181 13.105 8.883 13.204 8.584 13.204 L 8.594 13.214 C 8.392 13.214 8.234 13.376 8.234 13.574 L 8.234 18.547 C 8.234 18.863 8.541 19.08 8.83 18.972 L 12.702 17.483 C 12.948 17.393 13.062 17.094 12.966 16.842 C 12.72 16.228 12.342 15.072 12.342 13.818 L 12.342 10.334 C 12.342 6.772 8.522 5.506 7.15 5.05 L 7.136 5.046 L 7 5.001 L 6.995 5 L 6.864 5.046 L 6.85 5.05 C 5.478 5.506 1.658 6.772 1.658 10.334 L 1.658 13.818 C 1.658 15.072 1.28 16.228 1.034 16.842 C 0.938 17.094 1.052 17.393 1.298 17.483 L 5.17 18.972 C 5.459 19.08 5.766 18.863 5.766 18.547 L 5.766 13.574 C 5.766 13.376 5.608 13.214 5.406 13.214 L 5.416 13.204 C 5.117 13.204 4.818 13.105 4.572 12.924 L 3.299 11.977 L 4.476 11.092 C 4.783 10.867 5.144 10.741 5.521 10.741" transform="matrix(1 0 0 1 0 0)" fill="#C73849" stroke="none" />
  <path d="M 19.411 4.856 L 16.807 4.226 C 16.032 4.04 15.436 3.442 15.237 2.678 L 14.589 0.077 C 14.558 -0.026 14.411 -0.026 14.38 0.077 L 13.742 2.668 C 13.553 3.442 12.947 4.04 12.173 4.226 L 9.578 4.856 C 9.474 4.886 9.474 5.031 9.578 5.062 L 12.204 5.743 C 12.968 5.939 13.553 6.538 13.742 7.301 L 14.39 9.923 C 14.422 10.026 14.568 10.026 14.599 9.923 L 15.258 7.301 C 15.447 6.548 16.043 5.949 16.796 5.764 L 19.422 5.083 C 19.526 5.052 19.526 4.897 19.422 4.876 L 19.411 4.856" transform="matrix(1 0 0 1 0 0)" fill="#C73849" stroke="none" />
</svg>
