<?xml version="1.0" encoding="UTF-8"?>
<!-- Reconstructed from Amplitude.Graphics.Svg.SvgAsset and recolored from static UIMapper.Color metadata for EWShop; not original source SVG. Live UI state/material colors are not included. -->
<svg xmlns="http://www.w3.org/2000/svg" width="24" height="24" viewBox="0 0 24 24">
  <path d="M 16.583 12 L 13.772 12 L 13.772 16.26 L 13.772 19.304 L 15.957 17.055 C 17.763 17.937 20.135 19.688 20.799 22.956 C 21.15 18.758 19.941 15.93 18.73 14.201 L 20.868 12 L 16.583 12 M 11.407 1.043 C 6.819 1.043 3.129 4.842 3.129 9.565 C 3.129 14.288 6.819 18.086 11.407 18.086 L 11.407 15.246 C 8.349 15.246 5.888 12.713 5.888 9.565 C 5.888 6.416 8.349 3.884 11.407 3.884 C 14.466 3.884 16.926 6.416 16.926 9.565 L 19.685 9.565 C 19.685 4.842 15.995 1.043 11.407 1.043 M 14.955 9.565 C 14.955 7.548 13.367 5.913 11.407 5.913 C 9.448 5.913 7.859 7.548 7.859 9.565 C 7.859 11.582 9.448 13.217 11.407 13.217 L 11.407 9.565 L 14.955 9.565" transform="matrix(1 0 0 1 0 0)" fill="#FFFFFF" stroke="none" />
</svg>
