<?xml version="1.0" encoding="UTF-8"?>
<!-- Reconstructed from Amplitude.Graphics.Svg.SvgAsset and recolored from static UIMapper.Color metadata for EWShop; not original source SVG. Live UI state/material colors are not included. -->
<svg xmlns="http://www.w3.org/2000/svg" width="20" height="20" viewBox="0 0 20 20">
  <path d="M 20 5 C 20 7.761 17.761 10 15 10 C 12.239 10 10 7.761 10 5 C 10 2.239 12.239 0 15 0 C 17.761 0 20 2.239 20 5 M 16 4 L 19 4 L 19 6 L 16 6 L 16 9 L 14 9 L 14 6 L 11 6 L 11 4 L 14 4 L 14 1 L 16 1 L 16 4" transform="matrix(1 0 0 1 0 0)" fill="#F27A60" stroke="none" />
  <path d="M 8.087 6.106 C 7.821 5.938 7.514 5.782 7.167 5.667 L 7.001 6.417 L 6.751 7.083 C 6.417 7 6.167 7 5.834 7 L 5.834 6.25 L 5.834 5.5 C 5.334 5.5 4.917 5.583 4.417 5.75 L 4.667 6.417 L 4.917 7.167 C 4.584 7.25 4.334 7.417 4.084 7.583 L 3.584 6.917 L 3.167 6.333 C 2.834 6.583 2.501 6.917 2.167 7.333 L 2.751 7.75 L 3.334 8.167 C 3.292 8.292 3.23 8.438 3.167 8.583 C 3.105 8.729 3.042 8.875 3.001 9 L 2.251 8.833 L 1.584 8.583 C 1.417 9 1.334 9.5 1.334 9.917 L 2.084 9.917 L 2.834 9.917 C 2.834 10.25 2.917 10.583 3.001 10.833 L 2.251 11.083 L 1.584 11.333 C 1.751 11.75 1.917 12.167 2.251 12.583 L 2.834 12.167 L 3.417 11.75 C 3.584 12 3.834 12.167 4.084 12.333 L 3.584 13 L 3.167 13.583 C 3.584 13.833 4.001 14.083 4.417 14.25 L 4.667 13.5 L 4.917 12.833 C 5.167 12.917 5.501 12.917 5.834 12.917 L 5.834 13.667 L 5.834 14.417 C 6.334 14.417 6.751 14.333 7.251 14.167 L 7.001 13.5 L 6.751 12.833 C 7.084 12.75 7.334 12.583 7.584 12.417 L 8.001 13 L 8.417 13.583 C 8.834 13.333 9.167 13 9.417 12.583 L 8.834 12.167 L 8.251 11.75 C 8.417 11.5 8.584 11.25 8.667 10.917 L 9.417 11.167 L 10.167 11.417 C 10.302 11.079 10.383 10.686 10.408 10.284 C 10.303 10.192 10.201 10.098 10.101 10 L 9.584 10 L 8.834 10 C 8.834 9.667 8.751 9.333 8.667 9.083 L 9.192 8.908 C 8.977 8.589 8.788 8.252 8.627 7.898 L 8.251 8.167 C 8.142 8.003 7.997 7.876 7.841 7.737 C 7.757 7.663 7.671 7.587 7.584 7.5 L 8.001 6.917 L 8.195 6.645 C 8.152 6.468 8.116 6.288 8.087 6.106 M 7.126 10.625 L 7.126 10.625 C 7.167 10.563 7.209 10.5 7.251 10.417 C 7.251 10.319 7.279 10.221 7.303 10.141 L 7.303 10.141 C 7.32 10.083 7.334 10.035 7.334 10 C 7.334 9.833 7.334 9.667 7.251 9.5 C 7.167 9.333 7.084 9.167 7.001 9.083 C 6.917 8.917 6.834 8.833 6.667 8.75 C 6.584 8.667 6.417 8.583 6.334 8.583 C 6.167 8.5 6.001 8.5 5.834 8.5 L 5.334 8.5 C 5.251 8.542 5.188 8.583 5.126 8.625 C 5.063 8.667 5.001 8.708 4.917 8.75 C 4.89 8.778 4.853 8.806 4.815 8.833 C 4.741 8.889 4.667 8.944 4.667 9 C 4.545 9.122 4.513 9.199 4.471 9.297 C 4.456 9.333 4.44 9.372 4.417 9.417 C 4.334 9.583 4.334 9.75 4.334 9.917 C 4.334 10.083 4.334 10.25 4.417 10.417 C 4.417 10.539 4.462 10.616 4.519 10.714 L 4.519 10.714 C 4.539 10.75 4.562 10.789 4.584 10.833 L 4.917 11.167 C 4.962 11.189 5.001 11.211 5.037 11.232 C 5.135 11.289 5.212 11.333 5.334 11.333 C 5.501 11.417 5.667 11.417 5.834 11.417 C 6.001 11.417 6.167 11.417 6.251 11.333 C 6.417 11.333 6.584 11.25 6.667 11.167 C 6.784 11.109 6.859 11.01 6.923 10.927 C 6.95 10.891 6.975 10.859 7.001 10.833 C 7.042 10.75 7.084 10.688 7.126 10.625 M 13.417 12.5 C 13.917 12.917 14.334 13.583 14.501 14.25 L 14.084 14.167 L 13.501 14.333 C 13.584 14.5 13.584 14.75 13.584 15 C 13.584 15.198 13.532 15.344 13.469 15.52 C 13.452 15.566 13.435 15.615 13.417 15.667 L 13.917 15.917 L 14.417 16.167 C 14.167 16.833 13.667 17.417 13.084 17.75 L 12.834 17.25 L 12.584 16.75 C 12.251 17 11.751 17.083 11.251 17.083 L 11.167 17.667 L 11.084 18.25 C 10.334 18.167 9.667 17.833 9.167 17.417 L 9.5 17 L 9.834 16.583 C 9.417 16.333 9.167 15.917 9.084 15.417 L 8.5 15.583 L 7.917 15.75 C 7.834 15.417 7.834 15 7.834 14.667 C 7.834 14.333 7.917 14 8.084 13.667 L 8.584 13.833 L 9.084 14.083 C 9.334 13.667 9.584 13.333 10.084 13.083 L 9.834 12.583 L 9.584 12.083 C 10.167 11.667 10.834 11.5 11.584 11.583 L 11.501 12.167 L 11.417 12.75 C 11.917 12.75 12.334 12.917 12.667 13.25 C 12.667 13.25 12.853 12.981 13.001 12.833 C 13.148 12.686 13.417 12.5 13.417 12.5 M 11.834 15.917 C 12.001 15.833 12.167 15.667 12.251 15.417 C 12.251 15.375 12.271 15.313 12.292 15.25 C 12.313 15.188 12.334 15.125 12.334 15.083 L 12.334 14.75 C 12.334 14.5 12.167 14.333 12.001 14.167 C 11.834 14 11.584 13.917 11.334 13.917 C 11.084 13.917 10.834 14 10.667 14.083 C 10.501 14.167 10.334 14.333 10.251 14.583 C 10.167 14.667 10.167 14.833 10.167 14.917 L 10.167 15.25 C 10.167 15.5 10.334 15.667 10.501 15.833 C 10.667 16 10.917 16.083 11.167 16.083 C 11.417 16.083 11.667 16 11.834 15.917" transform="matrix(1 0 0 1 0 0)" fill="#F27A60" stroke="none" />
</svg>
