<?xml version="1.0" encoding="UTF-8"?>
<!-- Reconstructed from Amplitude.Graphics.Svg.SvgAsset and recolored from static UIMapper.Color metadata for EWShop; not original source SVG. Live UI state/material colors are not included. -->
<svg xmlns="http://www.w3.org/2000/svg" width="20" height="20" viewBox="0 0 20 20">
  <path d="M 1.036 17.541 C 1.024 17.545 1.012 17.549 1 17.553 L 1 18.659 C 1.053 18.64 1.107 18.62 1.163 18.599 C 1.246 18.569 1.332 18.538 1.421 18.506 C 2.072 18.277 2.875 18.059 3.319 18.059 C 3.764 18.059 4.242 18.259 4.771 18.494 C 4.793 18.504 4.814 18.513 4.835 18.522 C 5.347 18.751 5.907 19 6.546 19 C 7.185 19 7.745 18.751 8.257 18.522 C 8.279 18.513 8.3 18.504 8.321 18.494 C 8.85 18.259 9.329 18.059 9.773 18.059 C 10.217 18.059 10.696 18.259 11.225 18.494 C 11.246 18.504 11.268 18.513 11.289 18.522 C 11.801 18.751 12.361 19 13 19 L 13 17.941 C 12.556 17.941 12.077 17.741 11.548 17.506 C 11.527 17.497 11.506 17.487 11.484 17.478 C 10.972 17.249 10.412 17 9.773 17 C 9.134 17 8.574 17.249 8.062 17.478 C 8.041 17.487 8.019 17.497 7.998 17.506 C 7.469 17.741 6.99 17.941 6.546 17.941 C 6.103 17.941 5.624 17.741 5.094 17.506 C 5.074 17.497 5.053 17.488 5.032 17.478 C 4.52 17.25 3.958 17 3.319 17 C 2.499 17.046 1.74 17.303 1.036 17.541" transform="matrix(1 0 0 1 0 0)" fill="#EBEBEB" stroke="none" />
  <path d="M 9.5 3.297 L 14.5 0.57 L 19.5 3.297 L 19.5 8.703 L 14.5 11.431 L 9.5 8.703 L 9.5 3.297" transform="matrix(1 0 0 1 0 0)" fill="none" stroke="#EBEBEB" stroke-width="1" />
  <path d="M 14.5 3 L 17 4.2 L 17 7.8 L 14.5 9 L 12 7.8 L 12 4.2 L 14.5 3" transform="matrix(1 0 0 1 0 0)" fill="#EBEBEB" stroke="none" />
  <path d="M 7 8 L 7 10 L 6 10 L 6 8 L 4 8 L 4 10 L 3 10 L 3 8 L 1 8 L 1 9.297 L 1 16.656 L 1.036 16.645 C 1.593 16.479 2.184 16.302 2.812 16.215 C 3.159 14.128 4.902 12.345 7 12.345 C 9.189 12.345 10.992 14.286 11.225 16.488 C 11.313 16.522 11.399 16.556 11.484 16.589 L 11.548 16.615 C 12.077 16.823 12.556 17 13 17 L 13 15.786 L 13 13.2 L 7 10 L 7 8" transform="matrix(1 0 0 1 0 0)" fill="#EBEBEB" stroke="none" />
</svg>
