<?xml version="1.0" encoding="UTF-8"?>
<!-- Reconstructed from Amplitude.Graphics.Svg.SvgAsset and recolored from static UIMapper.Color metadata for EWShop; not original source SVG. Live UI state/material colors are not included. -->
<svg xmlns="http://www.w3.org/2000/svg" width="24" height="24" viewBox="0 0 24 24">
  <path d="M 17.972 5.658 L 17.972 12.368 C 17.972 14.763 16.646 17.62 12.197 19.683 C 10.058 18.946 5.993 15.905 5.993 12.368 L 5.993 5.658 L 12.197 4 L 17.972 5.658 M 12.143 5.4 L 12.143 18.283 C 10.539 17.694 7.49 15.124 7.49 12.295 L 7.49 6.726 L 12.143 5.4" transform="matrix(1 0 0 1 0 0)" fill="#FFFFFF" stroke="none" />
  <path d="M 21.965 5.289 L 21.965 2.842 L 19.559 2.132 L 18.994 4.05 L 19.969 4.338 L 19.969 5.289 L 21.965 5.289 M 14.746 0.711 L 14.181 2.629 L 12.32 2.079 L 10.283 2.639 L 9.754 0.711 L 12.339 0 L 14.746 0.711 M 4.585 2.132 L 5.113 4.06 L 3.997 4.367 L 3.997 5.289 L 2 5.289 L 2 2.842 L 4.585 2.132 M 2 10.184 L 3.997 10.184 C 3.997 11.492 3.861 12.871 4.189 14.152 L 2.255 14.649 C 1.883 13.196 2 11.67 2 10.184 M 4.087 18.255 L 5.662 17.026 C 6.366 17.932 7.247 18.759 8.207 19.486 L 7.003 21.081 C 5.937 20.273 4.921 19.328 4.087 18.255 M 10.467 23.205 L 11.343 21.408 C 11.658 21.562 11.961 21.699 12.246 21.819 C 12.558 21.661 12.859 21.504 13.148 21.346 L 14.101 23.104 C 13.549 23.404 12.963 23.703 12.339 24 C 11.781 23.802 11.144 23.536 10.467 23.205 M 17.418 20.974 L 16.198 19.391 C 17.255 18.574 18.022 17.778 18.576 17.011 L 20.194 18.183 C 19.51 19.131 18.6 20.06 17.418 20.974 M 21.965 10.184 L 19.969 10.184 C 19.969 11.513 20.082 12.894 19.821 14.205 L 21.779 14.596 C 22.067 13.151 21.965 11.649 21.965 10.184" transform="matrix(1 0 0 1 0 0)" fill="#FFFFFF" stroke="none" />
</svg>
