<?xml version="1.0" encoding="UTF-8"?>
<!-- Reconstructed from Amplitude.Graphics.Svg.SvgAsset and recolored from static UIMapper.Color metadata for EWShop; not original source SVG. Live UI state/material colors are not included. -->
<svg xmlns="http://www.w3.org/2000/svg" width="25" height="25" viewBox="0 0 25 25">
  <path d="M 19.582 17.239 L 23.499 20.854 L 21.611 20.854 L 19.582 19.115 L 17.553 20.854 L 15.789 20.854 L 19.582 17.239" transform="matrix(1 0 0 1 0 0)" fill="#FFFFFF" stroke="none" />
  <path d="M 19.582 13.624 L 23.499 17.239 L 21.611 17.239 L 19.582 15.5 L 17.553 17.239 L 15.789 17.239 L 19.582 13.624" transform="matrix(1 0 0 1 0 0)" fill="#FFFFFF" stroke="none" />
  <path d="M 15.511 5.424 C 15.698 4.893 15.849 4.347 15.996 3.804 L 17.114 5.635 C 17.633 6.087 18.361 5.543 18.103 4.924 C 17.801 4.462 17.527 3.956 17.254 3.451 C 16.953 2.893 16.652 2.335 16.311 1.837 C 16.044 1.445 15.822 1.289 15.355 1.519 C 14.912 1.876 14.398 2.198 13.886 2.52 C 13.334 2.866 12.784 3.212 12.321 3.601 C 11.661 4.154 12.293 4.983 12.958 4.651 C 13.27 4.496 13.58 4.263 13.888 4.032 C 14.159 3.829 14.429 3.626 14.697 3.479 C 14.706 3.474 14.714 3.469 14.723 3.463 C 14.753 3.443 14.787 3.422 14.823 3.439 C 14.194 5.871 13.137 8.166 11.538 10.117 C 9.35 12.787 6.398 14.358 3.02 14.895 C 2.895 14.915 2.661 14.937 2.398 14.961 C 1.9 15.006 1.302 15.061 1.165 15.132 C 0.702 15.372 0.727 16.023 1.21 16.249 C 1.444 16.358 2.042 16.282 2.404 16.236 C 2.456 16.229 2.504 16.223 2.545 16.218 C 8.92 15.476 13.395 11.457 15.511 5.424" transform="matrix(1 0 0 1 0 0)" fill="#FFFFFF" stroke="none" />
  <path d="M 4.51 1.519 C 4.642 1.582 4.764 1.74 4.825 1.871 L 5.561 4.409 C 5.622 4.458 6.402 4.216 7.076 4.007 C 7.502 3.874 7.885 3.755 8.016 3.732 C 8.868 3.579 9.22 4.422 8.531 4.888 L 5.939 5.648 L 6.655 8.275 C 6.718 8.976 5.816 9.253 5.484 8.611 L 4.726 5.991 L 2.07 6.731 C 1.324 6.744 1.135 5.848 1.786 5.532 L 4.378 4.777 L 3.626 2.033 C 3.662 1.606 4.127 1.333 4.51 1.519" transform="matrix(1 0 0 1 0 0)" fill="#FFFFFF" stroke="none" />
  <path d="M 20.725 6.059 C 20.789 5.884 20.914 5.772 21.092 5.712 L 21.093 5.712 C 21.386 5.614 21.713 5.894 21.714 6.196 L 21.112 8.369 L 23.255 8.99 C 23.702 9.31 23.495 9.942 22.941 9.914 L 20.838 9.341 C 20.793 9.377 20.651 9.914 20.518 10.42 C 20.417 10.804 20.321 11.17 20.275 11.283 C 20.164 11.56 19.982 11.776 19.644 11.69 C 19.306 11.605 19.249 11.302 19.303 11.004 C 19.321 10.899 19.417 10.592 19.523 10.25 C 19.691 9.711 19.885 9.087 19.845 9.038 L 17.792 8.44 C 17.262 8.17 17.464 7.464 18.04 7.491 L 20.14 8.091 L 20.725 6.059" transform="matrix(1 0 0 1 0 0)" fill="#FFFFFF" stroke="none" />
  <path d="M 9.494 21.654 C 10.512 21.654 11.337 20.828 11.337 19.81 C 11.337 18.792 10.512 17.967 9.494 17.967 C 8.476 17.967 7.651 18.792 7.651 19.81 C 7.651 20.828 8.476 21.654 9.494 21.654 M 9.494 22.754 C 11.12 22.754 12.437 21.436 12.437 19.81 C 12.437 18.185 11.12 16.867 9.494 16.867 C 7.869 16.867 6.551 18.185 6.551 19.81 C 6.551 21.436 7.869 22.754 9.494 22.754" transform="matrix(1 0 0 1 0 0)" fill="#FFFFFF" stroke="none" />
</svg>
