<?xml version="1.0" encoding="UTF-8"?>
<!-- Reconstructed from Amplitude.Graphics.Svg.SvgAsset and recolored from static UIMapper.Color metadata for EWShop; not original source SVG. Live UI state/material colors are not included. -->
<svg xmlns="http://www.w3.org/2000/svg" width="33" height="33" viewBox="0 0 33 33">
  <path d="M 12.168 4.371 C 10.243 3.849 8.91 3.178 8.17 2.656 C 7.8 2.357 7.133 2.432 6.763 2.73 C 5.653 3.625 3.95 4.222 2.691 4.446 C 2.321 4.521 2.099 4.819 2.099 5.192 L 2.099 9.145 C 2.099 11.01 3.284 12.502 3.876 12.949 L 6.985 15.635 C 7.281 15.858 7.652 15.858 7.948 15.635 C 8.836 14.963 10.243 13.77 11.279 12.949 C 12.464 11.905 12.834 9.966 12.834 9.145 L 12.834 5.117 C 12.76 4.819 12.538 4.521 12.168 4.371" transform="matrix(1 0 0 1 0 0)" fill="#FFFFFF" stroke="none" />
  <path d="M 22.725 26.694 C 20.97 26.231 19.596 25.706 19.121 24.186 L 19.104 24.138 C 18.613 22.568 17.118 17.805 18.113 16.825 C 18.688 15.845 20.162 13.673 21.373 11.89 C 22.279 10.555 23.038 9.437 23.162 9.2 C 23.45 8.645 23.45 8.293 23.162 8.052 C 22.728 7.786 17.709 4.926 17.179 5.51 C 16.896 5.818 16.732 6.345 16.732 6.345 C 15.82 8.533 13.487 13.304 11.451 14.889 C 8.905 16.871 8.507 18.384 9.892 19.842 C 11.366 21.396 13.586 23.986 14.156 26.231 C 14.73 28.499 16.034 28.819 19.121 28.819 C 19.743 28.819 20.245 28.821 20.653 28.823 C 22.335 28.829 22.396 28.829 22.725 28.674 C 23.133 28.482 24.479 27.159 22.725 26.694" transform="matrix(1 0 0 1 0 0)" fill="#FFFFFF" stroke="none" />
  <path d="M 27.238 1.346 L 30.912 4.737 L 29.141 4.737 L 27.238 3.105 L 25.334 4.737 L 23.68 4.737 L 27.238 1.346" transform="matrix(1 0 0 1 0 0)" fill="#FFFFFF" stroke="none" />
</svg>
