<?xml version="1.0" encoding="UTF-8"?>
<!-- Reconstructed from Amplitude.Graphics.Svg.SvgAsset and recolored from static UIMapper.Color metadata for EWShop; not original source SVG. Live UI state/material colors are not included. -->
<svg xmlns="http://www.w3.org/2000/svg" width="28" height="28" viewBox="0 0 28 28">
  <path d="M 14.06 7.891 L 9.801 7.891 L 9.801 1.5 L 5.26 1.5 L 5.26 7.891 L 1 7.891 L 7.53 15.636 L 14.06 7.891" transform="matrix(1 0 0 1 0 0)" fill="#FFFFFF" stroke="none" />
  <path d="M 26.116 24.339 C 24.338 23.865 22.941 23.34 22.459 21.795 L 22.439 21.744 C 21.937 20.149 20.43 15.313 21.434 14.323 C 22.017 13.324 23.514 11.122 24.74 9.315 C 25.664 7.962 26.427 6.821 26.558 6.579 C 26.849 6.013 26.849 5.66 26.558 5.418 C 26.116 5.145 21.033 2.247 20.49 2.833 C 20.209 3.146 20.038 3.681 20.038 3.681 C 19.114 5.902 16.743 10.749 14.683 12.354 C 12.101 14.364 11.7 15.898 13.106 17.383 C 13.669 17.968 14.322 18.705 14.965 19.513 C 15.196 19.796 15.417 20.089 15.628 20.391 C 15.688 20.482 15.748 20.563 15.808 20.654 C 15.959 20.866 16.1 21.088 16.24 21.3 C 16.261 21.33 16.281 21.351 16.291 21.381 C 16.803 22.209 17.225 23.057 17.426 23.865 C 17.486 24.097 17.557 24.299 17.637 24.501 C 17.697 24.652 17.757 24.784 17.828 24.905 C 17.878 24.996 17.918 25.087 17.978 25.167 C 18.059 25.288 18.149 25.389 18.25 25.49 C 18.31 25.551 18.36 25.622 18.421 25.672 C 18.541 25.773 18.682 25.854 18.822 25.935 C 18.873 25.965 18.923 26.005 18.983 26.036 C 19.194 26.137 19.415 26.207 19.666 26.278 C 20.39 26.45 21.304 26.5 22.469 26.5 C 23.102 26.5 23.615 26.5 24.026 26.5 C 25.734 26.5 25.795 26.5 26.126 26.349 C 26.538 26.157 27.904 24.814 26.126 24.339 L 26.116 24.339" transform="matrix(1 0 0 1 0 0)" fill="#FFFFFF" stroke="none" />
  <path d="M 18.812 25.935 C 18.672 25.854 18.531 25.773 18.41 25.672 C 18.35 25.622 18.3 25.551 18.24 25.49 C 18.149 25.389 18.049 25.288 17.968 25.167 C 17.918 25.087 17.868 24.996 17.818 24.905 C 17.747 24.774 17.677 24.642 17.627 24.501 C 17.617 24.461 17.597 24.44 17.577 24.4 L 7.148 24.4 L 7.148 26.278 L 19.666 26.278 C 19.666 26.278 19.666 26.278 19.656 26.278 C 19.405 26.217 19.174 26.137 18.973 26.036 C 18.913 26.005 18.873 25.965 18.812 25.935" transform="matrix(1 0 0 1 0 0)" fill="#FFFFFF" stroke="none" />
  <path d="M 15.809 20.664 C 15.748 20.573 15.688 20.482 15.628 20.401 C 15.417 20.099 15.186 19.806 14.965 19.523 L 9.59 19.523 L 9.59 21.401 L 16.291 21.401 C 16.291 21.401 16.261 21.351 16.241 21.32 C 16.1 21.098 15.959 20.886 15.809 20.674 L 15.809 20.664" transform="matrix(1 0 0 1 0 0)" fill="#FFFFFF" stroke="none" />
</svg>
