<?xml version="1.0" encoding="UTF-8"?>
<!-- Reconstructed from Amplitude.Graphics.Svg.SvgAsset and recolored from static UIMapper.Color metadata for EWShop; not original source SVG. Live UI state/material colors are not included. -->
<svg xmlns="http://www.w3.org/2000/svg" width="25" height="25" viewBox="0 0 25 25">
  <path d="M 19.582 17.479 L 23.499 21.094 L 21.611 21.094 L 19.582 19.355 L 17.553 21.094 L 15.789 21.094 L 19.582 17.479" transform="matrix(1 0 0 1 0 0)" fill="#FFFFFF" stroke="none" />
  <path d="M 19.582 13.864 L 23.499 17.479 L 21.611 17.479 L 19.582 15.74 L 17.553 17.479 L 15.789 17.479 L 19.582 13.864" transform="matrix(1 0 0 1 0 0)" fill="#FFFFFF" stroke="none" />
  <path d="M 11.355 6.463 C 11.824 6.56 12.268 6.724 12.678 6.945 L 12.993 4.02 L 11.355 6.463 M 12.937 7.095 C 13.338 7.344 13.702 7.649 14.015 8 L 15.312 5.359 L 12.937 7.095 M 14.207 8.229 C 14.497 8.596 14.736 9.006 14.912 9.448 L 17.033 7.41 L 14.207 8.229 M 15.015 9.729 C 15.159 10.168 15.243 10.633 15.258 11.116 L 17.949 9.927 L 15.015 9.729 M 15.258 11.415 C 15.243 11.898 15.159 12.364 15.015 12.802 L 17.949 12.604 L 15.258 11.415 M 14.912 13.083 C 14.736 13.525 14.497 13.935 14.207 14.302 L 17.033 15.121 L 14.912 13.083 M 14.015 14.531 C 13.702 14.882 13.338 15.187 12.937 15.437 L 15.312 17.172 L 14.015 14.531 M 12.678 15.586 C 12.268 15.807 11.824 15.971 11.355 16.068 L 12.993 18.511 L 12.678 15.586 M 11.06 16.119 C 10.83 16.153 10.595 16.17 10.356 16.17 C 10.117 16.17 9.882 16.153 9.652 16.119 L 10.356 18.976 L 11.06 16.119 M 9.357 16.068 C 8.888 15.971 8.444 15.807 8.034 15.586 L 7.719 18.511 L 9.357 16.068 M 7.775 15.437 C 7.373 15.187 7.01 14.882 6.697 14.531 L 5.4 17.172 L 7.775 15.437 M 6.505 14.302 C 6.215 13.935 5.976 13.525 5.8 13.083 L 3.679 15.121 L 6.505 14.302 M 5.697 12.802 C 5.553 12.364 5.468 11.898 5.454 11.415 L 2.763 12.604 L 5.697 12.802 M 5.454 11.116 C 5.468 10.633 5.553 10.168 5.697 9.729 L 2.763 9.927 L 5.454 11.116 M 5.8 9.448 C 5.976 9.006 6.215 8.596 6.505 8.229 L 3.679 7.41 L 5.8 9.448 M 6.697 8 L 5.4 5.359 L 7.775 7.095 C 7.373 7.344 7.01 7.649 6.697 8 M 8.034 6.945 L 7.719 4.02 L 9.357 6.463 C 8.888 6.56 8.444 6.724 8.034 6.945 M 9.652 6.412 C 9.882 6.379 10.117 6.361 10.356 6.361 C 10.595 6.361 10.83 6.379 11.06 6.412 L 10.356 3.555 L 9.652 6.412" transform="matrix(1 0 0 1 0 0)" fill="#FFFFFF" stroke="none" />
  <path d="M 11.075 9.29 L 10.355 1.157 L 9.636 9.29 L 3.858 3.522 L 8.534 10.215 L 0.4 9.51 L 8.285 11.631 L 1.601 16.32 L 9.004 12.876 L 6.898 20.765 L 10.355 13.368 L 13.813 20.765 L 11.707 12.876 L 19.11 16.32 L 12.426 11.631 L 20.31 9.51 L 12.176 10.215 L 16.853 3.522 L 11.075 9.29 M 10.355 12.334 C 10.945 12.334 11.423 11.856 11.423 11.266 C 11.423 10.676 10.945 10.198 10.355 10.198 C 9.766 10.198 9.288 10.676 9.288 11.266 C 9.288 11.856 9.766 12.334 10.355 12.334" transform="matrix(1 0 0 1 0 0)" fill="#FFFFFF" stroke="none" />
</svg>
