<?xml version="1.0" encoding="UTF-8"?>
<!-- Reconstructed from Amplitude.Graphics.Svg.SvgAsset and recolored from static UIMapper.Color metadata for EWShop; not original source SVG. Live UI state/material colors are not included. -->
<svg xmlns="http://www.w3.org/2000/svg" width="25" height="24" viewBox="0 0 25 24">
  <path d="M 9.139 9.96 C 8.962 9.96 8.785 9.903 8.639 9.799 L 7.884 9.252 L 8.582 8.742 C 8.764 8.612 8.977 8.539 9.201 8.539 L 10.956 8.539 C 11.18 8.539 11.398 8.612 11.575 8.742 L 12.273 9.252 L 11.518 9.799 C 11.372 9.903 11.2 9.96 11.018 9.96 C 10.904 9.96 10.805 10.054 10.805 10.168 L 10.805 13.037 C 10.805 13.219 10.987 13.344 11.159 13.282 L 11.94 12.99 L 13.262 10.679 C 13.252 10.559 13.241 10.434 13.241 10.309 L 13.241 8.299 C 13.252 6.243 10.966 5.514 10.154 5.254 L 10.076 5.228 L 9.998 5.254 C 9.191 5.514 6.91 6.243 6.91 8.304 L 6.91 10.314 C 6.91 11.038 6.687 11.704 6.541 12.058 C 6.484 12.204 6.551 12.376 6.697 12.428 L 8.993 13.287 C 9.165 13.349 9.347 13.224 9.347 13.042 L 9.347 10.174 C 9.347 10.059 9.253 9.965 9.134 9.965 L 9.139 9.96" transform="matrix(1 0 0 1 0 0)" fill="#FFFFFF" stroke="none" />
  <path d="M 17.969 8.7 L 17.594 7.211 C 17.568 7.117 17.469 7.06 17.38 7.097 L 15.954 7.591 C 15.917 7.602 15.865 7.664 15.865 7.664 L 11.508 15.302 L 10.784 14.885 C 10.586 14.771 10.341 14.838 10.227 15.036 L 10.112 15.25 C 9.998 15.442 10.066 15.697 10.263 15.812 L 11.513 16.541 L 11.518 16.541 L 10.669 18.03 C 10.555 18.222 10.623 18.477 10.82 18.592 L 11.029 18.717 C 11.227 18.831 11.471 18.764 11.586 18.566 L 12.434 17.077 L 13.684 17.806 C 13.882 17.92 14.126 17.853 14.241 17.655 L 14.356 17.441 C 14.47 17.249 14.402 16.994 14.205 16.879 L 13.564 16.504 L 17.953 8.82 C 17.974 8.783 17.979 8.737 17.969 8.7" transform="matrix(1 0 0 1 0 0)" fill="#FFFFFF" stroke="none" />
  <path d="M 11.549 3.342 L 12.944 3.342 L 12.944 0.658 L 11.549 0.658 L 11.549 3.342 M 9.875 1.672 C 6.042 2.548 3.001 5.504 2.002 9.289 L 3.249 9.289 C 4.188 6.168 6.707 3.732 9.875 2.907 L 9.875 1.672 M 14.618 2.907 L 14.618 1.672 C 18.451 2.548 21.492 5.504 22.491 9.289 L 21.244 9.289 C 20.305 6.168 17.787 3.732 14.618 2.907 M 14.618 21.093 C 17.787 20.269 20.305 17.832 21.244 14.712 L 22.491 14.712 C 21.492 18.496 18.451 21.452 14.618 22.328 L 14.618 21.093 M 3.249 14.712 C 4.188 17.832 6.707 20.269 9.875 21.093 L 9.875 22.328 C 6.042 21.452 3.001 18.496 2.002 14.712 L 3.249 14.712 M 23.589 11.303 L 23.589 12.697 L 20.905 12.697 L 20.905 11.303 L 23.589 11.303 M 3.589 12.697 L 3.589 11.303 L 0.904 11.303 L 0.904 12.697 L 3.589 12.697 M 12.944 23.342 L 11.549 23.342 L 11.549 20.658 L 12.944 20.658 L 12.944 23.342" transform="matrix(1 0 0 1 0 0)" fill="#FFFFFF" stroke="none" />
</svg>
