<?xml version="1.0" encoding="UTF-8"?>
<!-- Reconstructed from Amplitude.Graphics.Svg.SvgAsset and recolored from static UIMapper.Color metadata for EWShop; not original source SVG. Live UI state/material colors are not included. -->
<svg xmlns="http://www.w3.org/2000/svg" width="25" height="25" viewBox="0 0 25 25">
  <path d="M 11.224 23.427 C 11.729 23.487 12.235 23.559 12.801 23.559 C 13.21 23.559 13.487 23.318 14.149 22.765 C 14.763 22.247 15.703 21.464 17.352 20.345 C 19.303 19.032 21.867 18.9 21.867 18.9 C 21.867 17.021 20.17 17.238 20.17 17.238 C 19.05 17.238 17.352 17.888 16.208 18.442 C 12.994 19.995 12.319 19.803 10.417 19.273 C 10.02 19.165 9.55 19.032 9.008 18.9 C 9.803 18.599 11.007 18.442 12.151 18.298 C 13.403 18.129 15.077 17.888 15.077 17.238 C 15.077 16.239 13.596 16.347 13.596 16.347 C 12.295 16.311 10.152 16.347 10.152 16.347 L 8.286 16.347 C 7.154 16.347 6.299 16.72 5.456 17.094 C 4.601 17.467 3.759 17.84 2.627 17.84 C 3.566 19.634 5.517 22.476 7.154 23.559 C 9.068 23.15 10.176 23.294 11.236 23.427 L 11.224 23.427" transform="matrix(1 0 0 1 0 0)" fill="#FFFFFF" stroke="none" />
  <path d="M 14.091 1.801 L 10.404 1.801 L 10.404 6 L 6.204 6 L 6.204 9.688 L 10.404 9.688 L 10.404 13.887 L 14.091 13.887 L 14.091 9.688 L 18.291 9.688 L 18.291 6 L 14.091 6 L 14.091 1.801" transform="matrix(1 0 0 1 0 0)" fill="#FFFFFF" stroke="none" />
</svg>
