<?xml version="1.0" encoding="UTF-8"?>
<!-- Reconstructed from Amplitude.Graphics.Svg.SvgAsset and recolored from static UIMapper.Color metadata for EWShop; not original source SVG. Live UI state/material colors are not included. -->
<svg xmlns="http://www.w3.org/2000/svg" width="25" height="25" viewBox="0 0 25 25">
  <path d="M 19.582 16.799 L 23.499 20.414 L 21.611 20.414 L 19.582 18.675 L 17.553 20.414 L 15.789 20.414 L 19.582 16.799" transform="matrix(1 0 0 1 0 0)" fill="#FFFFFF" stroke="none" />
  <path d="M 15.511 4.984 C 15.698 4.453 15.849 3.907 15.996 3.365 L 17.114 5.195 C 17.633 5.647 18.361 5.103 18.103 4.484 C 17.801 4.022 17.527 3.516 17.254 3.011 C 16.953 2.453 16.652 1.895 16.311 1.397 C 16.044 1.005 15.822 0.849 15.355 1.079 C 14.912 1.436 14.398 1.758 13.886 2.08 C 13.334 2.426 12.784 2.772 12.321 3.161 C 11.661 3.715 12.293 4.543 12.958 4.211 C 13.27 4.056 13.58 3.823 13.888 3.592 C 14.159 3.389 14.429 3.186 14.697 3.039 C 14.706 3.034 14.714 3.029 14.723 3.023 C 14.753 3.003 14.787 2.982 14.823 2.999 C 14.194 5.431 13.137 7.726 11.538 9.677 C 9.35 12.347 6.398 13.918 3.02 14.455 C 2.895 14.475 2.661 14.497 2.398 14.521 C 1.9 14.567 1.302 14.621 1.165 14.692 C 0.702 14.932 0.727 15.583 1.21 15.809 C 1.444 15.918 2.042 15.842 2.404 15.796 C 2.456 15.789 2.504 15.783 2.545 15.778 C 8.92 15.036 13.395 11.017 15.511 4.984" transform="matrix(1 0 0 1 0 0)" fill="#FFFFFF" stroke="none" />
  <path d="M 4.51 1.079 C 4.642 1.142 4.764 1.3 4.825 1.431 L 5.561 3.969 C 5.622 4.018 6.402 3.776 7.076 3.567 C 7.502 3.434 7.885 3.315 8.016 3.292 C 8.868 3.139 9.22 3.982 8.531 4.448 L 5.939 5.208 L 6.655 7.835 C 6.718 8.536 5.816 8.814 5.484 8.171 L 4.726 5.551 L 2.07 6.291 C 1.324 6.304 1.135 5.408 1.786 5.092 L 4.378 4.337 L 3.626 1.593 C 3.662 1.166 4.127 0.893 4.51 1.079" transform="matrix(1 0 0 1 0 0)" fill="#FFFFFF" stroke="none" />
  <path d="M 20.725 5.619 C 20.789 5.444 20.914 5.332 21.092 5.272 L 21.093 5.272 C 21.386 5.174 21.713 5.454 21.714 5.756 L 21.112 7.929 L 23.255 8.55 C 23.702 8.87 23.495 9.502 22.941 9.474 L 20.838 8.901 C 20.793 8.937 20.651 9.474 20.518 9.98 C 20.417 10.364 20.321 10.73 20.275 10.843 C 20.164 11.12 19.982 11.336 19.644 11.25 C 19.306 11.165 19.249 10.862 19.303 10.564 C 19.321 10.459 19.417 10.152 19.523 9.81 C 19.691 9.271 19.885 8.647 19.845 8.598 L 17.792 8 C 17.262 7.73 17.464 7.024 18.04 7.051 L 20.14 7.651 L 20.725 5.619" transform="matrix(1 0 0 1 0 0)" fill="#FFFFFF" stroke="none" />
  <path d="M 9.494 21.214 C 10.512 21.214 11.337 20.388 11.337 19.371 C 11.337 18.353 10.512 17.527 9.494 17.527 C 8.476 17.527 7.651 18.353 7.651 19.371 C 7.651 20.388 8.476 21.214 9.494 21.214 M 9.494 22.314 C 11.12 22.314 12.437 20.996 12.437 19.371 C 12.437 17.745 11.12 16.427 9.494 16.427 C 7.869 16.427 6.551 17.745 6.551 19.371 C 6.551 20.996 7.869 22.314 9.494 22.314" transform="matrix(1 0 0 1 0 0)" fill="#FFFFFF" stroke="none" />
</svg>
