<?xml version="1.0" encoding="UTF-8"?>
<!-- Reconstructed from Amplitude.Graphics.Svg.SvgAsset and recolored from static UIMapper.Color metadata for EWShop; not original source SVG. Live UI state/material colors are not included. -->
<svg xmlns="http://www.w3.org/2000/svg" width="25" height="25" viewBox="0 0 25 25">
  <path d="M 19.582 16.919 L 23.499 20.534 L 21.611 20.534 L 19.582 18.795 L 17.553 20.534 L 15.789 20.534 L 19.582 16.919" transform="matrix(1 0 0 1 0 0)" fill="#FFFFFF" stroke="none" />
  <path d="M 11.355 5.903 C 11.824 6 12.268 6.164 12.678 6.385 L 12.993 3.46 L 11.355 5.903 M 12.937 6.534 C 13.338 6.784 13.702 7.089 14.015 7.44 L 15.312 4.799 L 12.937 6.534 M 14.207 7.669 C 14.497 8.036 14.736 8.446 14.912 8.888 L 17.033 6.85 L 14.207 7.669 M 15.015 9.169 C 15.159 9.607 15.243 10.073 15.258 10.556 L 17.949 9.367 L 15.015 9.169 M 15.258 10.855 C 15.243 11.338 15.159 11.803 15.015 12.242 L 17.949 12.044 L 15.258 10.855 M 14.912 12.523 C 14.736 12.965 14.497 13.375 14.207 13.742 L 17.033 14.561 L 14.912 12.523 M 14.015 13.971 C 13.702 14.322 13.338 14.627 12.937 14.876 L 15.312 16.612 L 14.015 13.971 M 12.678 15.026 C 12.268 15.247 11.824 15.411 11.355 15.508 L 12.993 17.951 L 12.678 15.026 M 11.06 15.559 C 10.83 15.592 10.595 15.61 10.356 15.61 C 10.117 15.61 9.882 15.592 9.652 15.559 L 10.356 18.416 L 11.06 15.559 M 9.357 15.508 C 8.888 15.411 8.444 15.247 8.034 15.026 L 7.719 17.951 L 9.357 15.508 M 7.775 14.876 C 7.373 14.627 7.01 14.322 6.697 13.971 L 5.4 16.612 L 7.775 14.876 M 6.505 13.742 C 6.215 13.375 5.976 12.965 5.8 12.523 L 3.679 14.561 L 6.505 13.742 M 5.697 12.242 C 5.553 11.803 5.468 11.338 5.454 10.855 L 2.763 12.044 L 5.697 12.242 M 5.454 10.556 C 5.468 10.073 5.553 9.607 5.697 9.169 L 2.763 9.367 L 5.454 10.556 M 5.8 8.888 C 5.976 8.446 6.215 8.036 6.505 7.669 L 3.679 6.85 L 5.8 8.888 M 6.697 7.44 L 5.4 4.799 L 7.775 6.534 C 7.373 6.784 7.01 7.089 6.697 7.44 M 8.034 6.385 L 7.719 3.46 L 9.357 5.903 C 8.888 6 8.444 6.164 8.034 6.385 M 9.652 5.852 C 9.882 5.818 10.117 5.801 10.356 5.801 C 10.595 5.801 10.83 5.818 11.06 5.852 L 10.356 2.995 L 9.652 5.852" transform="matrix(1 0 0 1 0 0)" fill="#FFFFFF" stroke="none" />
  <path d="M 11.075 8.73 L 10.355 0.597 L 9.636 8.73 L 3.858 2.962 L 8.534 9.654 L 0.4 8.95 L 8.285 11.071 L 1.601 15.76 L 9.004 12.316 L 6.898 20.205 L 10.355 12.808 L 13.813 20.205 L 11.707 12.316 L 19.11 15.76 L 12.426 11.071 L 20.31 8.95 L 12.176 9.654 L 16.853 2.962 L 11.075 8.73 M 10.355 11.774 C 10.945 11.774 11.423 11.295 11.423 10.706 C 11.423 10.116 10.945 9.638 10.355 9.638 C 9.766 9.638 9.288 10.116 9.288 10.706 C 9.288 11.295 9.766 11.774 10.355 11.774" transform="matrix(1 0 0 1 0 0)" fill="#FFFFFF" stroke="none" />
</svg>
