<?xml version="1.0" encoding="UTF-8"?>
<!-- Reconstructed from Amplitude.Graphics.Svg.SvgAsset and recolored from static UIMapper.Color metadata for EWShop; not original source SVG. Live UI state/material colors are not included. -->
<svg xmlns="http://www.w3.org/2000/svg" width="25" height="25" viewBox="0 0 25 25">
  <path d="M 9.602 6.402 C 9.615 6.574 9.636 6.744 9.663 6.91 C 9.188 7.069 8.777 7.293 8.429 7.587 C 7.831 8.091 7.506 8.723 7.312 9.341 C 7.131 9.918 7.046 10.54 6.974 11.075 L 6.966 11.132 C 6.887 11.714 6.815 12.214 6.674 12.673 C 6.593 12.938 6.446 13.194 6.23 13.534 C 6.206 13.571 6.181 13.61 6.155 13.651 C 5.966 13.944 5.723 14.322 5.554 14.731 C 5.397 15.111 5.12 16.015 4.884 16.85 C 4.831 17.037 4.778 17.229 4.726 17.418 C 4.276 17.485 2.942 17.155 2.739 16.991 C 2.54 16.829 2.586 16.374 2.617 16.08 C 2.621 16.043 2.624 16.008 2.627 15.977 C 2.705 15.13 2.913 14.222 3.123 13.303 C 3.353 12.297 3.586 11.278 3.654 10.316 C 3.684 9.891 3.665 9.502 3.524 9.1 L 2.716 10.805 C 2.738 11.338 2.408 11.895 2.102 12.409 C 1.876 12.79 1.663 13.149 1.618 13.458 C 1.594 13.629 1.657 13.769 1.722 13.912 C 1.812 14.11 1.904 14.313 1.762 14.613 C 1.705 14.735 1.14 15.273 0.996 15.248 C 0.951 15.211 0.907 15.175 0.865 15.14 C 0.44 14.79 0.171 14.569 0.266 13.919 C 0.346 13.381 0.989 11.121 1.203 10.603 C 1.312 10.34 1.468 10.096 1.627 9.849 C 1.829 9.534 2.035 9.213 2.15 8.839 C 2.291 8.381 2.356 7.897 2.421 7.424 C 2.61 6.029 2.787 4.729 4.831 4.479 C 4.38 3.36 4.368 0.962 6.144 1.324 C 7.242 1.548 7.18 2.712 7.129 3.68 C 7.113 3.977 7.098 4.255 7.118 4.482 C 7.351 4.648 7.657 4.772 7.971 4.899 C 8.473 5.102 8.994 5.313 9.258 5.717 C 9.387 5.913 9.499 6.145 9.602 6.402" transform="matrix(1 0 0 1 0 0)" fill="#FFFFFF" stroke="none" />
  <path d="M 15.141 6.402 C 15.127 6.574 15.106 6.744 15.08 6.91 C 15.554 7.069 15.965 7.293 16.314 7.587 C 16.912 8.091 17.236 8.723 17.43 9.341 C 17.612 9.918 17.696 10.54 17.769 11.075 L 17.776 11.132 C 17.855 11.714 17.927 12.214 18.068 12.673 C 18.15 12.938 18.296 13.194 18.512 13.534 C 18.536 13.571 18.561 13.61 18.587 13.651 C 18.776 13.944 19.019 14.322 19.189 14.731 C 19.345 15.111 19.622 16.015 19.858 16.85 C 19.911 17.037 19.965 17.229 20.016 17.418 C 20.466 17.485 21.801 17.155 22.003 16.991 C 22.203 16.829 22.156 16.374 22.126 16.08 C 22.122 16.043 22.118 16.008 22.115 15.977 C 22.037 15.13 21.83 14.222 21.62 13.303 C 21.389 12.297 21.156 11.278 21.089 10.316 C 21.058 9.891 21.077 9.502 21.218 9.1 L 22.027 10.805 C 22.004 11.338 22.334 11.895 22.64 12.409 C 22.867 12.79 23.079 13.149 23.124 13.458 C 23.148 13.629 23.085 13.769 23.02 13.912 C 22.93 14.11 22.838 14.313 22.98 14.613 C 23.038 14.735 23.602 15.273 23.746 15.248 C 23.791 15.211 23.835 15.175 23.877 15.14 C 24.302 14.79 24.571 14.569 24.476 13.919 C 24.396 13.381 23.754 11.121 23.539 10.603 C 23.43 10.34 23.274 10.096 23.116 9.849 C 22.913 9.534 22.707 9.213 22.592 8.839 C 22.452 8.381 22.386 7.897 22.322 7.424 C 22.132 6.029 21.955 4.729 19.911 4.479 C 20.362 3.36 20.374 0.962 18.599 1.324 C 17.501 1.548 17.562 2.712 17.613 3.68 C 17.629 3.977 17.644 4.255 17.624 4.482 C 17.391 4.648 17.085 4.772 16.772 4.899 C 16.269 5.102 15.748 5.313 15.484 5.717 C 15.355 5.913 15.243 6.145 15.141 6.402" transform="matrix(1 0 0 1 0 0)" fill="#FFFFFF" stroke="none" />
  <path d="M 15.505 12.972 C 15.228 12.934 15.355 13.328 15.347 13.515 C 15.228 16.716 16.083 19.651 16.444 22.793 L 13.776 23.413 L 12.622 20.485 L 11.787 20.456 L 10.904 23.363 C 10.591 23.58 8.621 23.11 8.348 22.888 C 8.074 22.667 8.181 21.994 8.211 21.655 C 8.41 19.494 9.303 17.005 9.461 14.764 C 9.497 14.247 9.475 13.774 9.303 13.284 L 8.319 15.359 C 8.367 16.491 7.111 17.706 6.983 18.588 C 6.912 19.089 7.456 19.367 7.158 19.995 C 7.088 20.143 6.401 20.798 6.227 20.768 C 5.619 20.259 5.21 20.02 5.338 19.15 C 5.435 18.494 6.217 15.745 6.478 15.114 C 6.78 14.385 7.381 13.777 7.631 12.967 C 8.306 10.767 7.562 8.067 10.893 7.66 C 10.345 6.298 10.33 3.38 12.491 3.82 C 14.237 4.176 13.574 6.486 13.678 7.664 C 14.415 8.191 15.761 8.369 16.282 9.166 C 17.203 10.573 17.451 13.484 18.39 15.059 C 18.487 16.411 18.963 17.881 19.155 19.149 C 19.454 21.116 16.983 21.638 17.268 19.464 C 17.304 19.183 17.583 19.057 17.551 18.713 C 17.524 18.421 16.837 16.085 16.695 15.631 C 16.406 14.706 15.867 13.865 15.505 12.973 L 15.505 12.972" transform="matrix(1 0 0 1 0 0)" fill="#FFFFFF" stroke="none" />
</svg>
