<?xml version="1.0" encoding="UTF-8"?>
<!-- Reconstructed from Amplitude.Graphics.Svg.SvgAsset and recolored from static UIMapper.Color metadata for EWShop; not original source SVG. Live UI state/material colors are not included. -->
<svg xmlns="http://www.w3.org/2000/svg" width="24" height="24" viewBox="0 0 24 24">
  <path d="M 6.183 15.25 C 7.501 16.07 9.333 16.76 11.789 16.85 L 11.406 5.59 C 9.766 5.25 8.528 3.84 8.528 3.13 C 8.528 2.31 10.148 1.65 12.151 1.65 C 14.154 1.65 15.774 2.31 15.774 3.13 C 15.774 3.82 14.606 5.17 13.026 5.56 L 12.644 16.86 C 15.029 16.81 16.69 16.19 17.847 15.44 C 17.887 15.26 17.958 15.1 18.048 14.94 C 18.793 13.67 20.444 10.5 20.242 7.15 C 20.071 4.27 19.035 3.13 18.541 2.92 L 16.408 2.71 C 16.277 2.09 15.21 0.92 12.05 1 C 8.89 0.92 7.823 2.09 7.682 2.7 L 5.549 2.91 C 5.056 3.12 4.019 4.26 3.848 7.14 C 3.647 10.49 5.297 13.66 6.042 14.93 C 6.102 15.03 6.153 15.13 6.183 15.24 L 6.183 15.25 M 18.27 4.21 C 18.773 4.18 19.266 5.57 19.377 7.32 C 19.488 9.07 19.176 10.51 18.672 10.54 C 18.169 10.57 17.676 9.18 17.565 7.43 C 17.455 5.68 17.767 4.24 18.27 4.21 M 5.428 10.55 C 4.915 10.52 4.593 9.07 4.703 7.32 C 4.814 5.57 5.317 4.18 5.831 4.21 C 6.344 4.24 6.666 5.69 6.555 7.44 C 6.444 9.19 5.941 10.58 5.428 10.55" transform="matrix(1 0 0 1 0 0)" fill="#FFFFFF" stroke="none" />
  <path d="M 18.028 16.95 C 18.008 16.82 17.978 16.69 17.948 16.55 C 16.609 17.31 14.798 17.86 12.342 17.86 C 9.715 17.86 7.703 17.23 6.183 16.4 C 6.173 16.45 6.163 16.49 6.153 16.54 C 6.122 16.68 6.092 16.81 6.062 16.95 C 6.012 17.23 6.082 17.52 6.404 17.73 C 7.541 18.49 9.866 18.9 11.718 18.98 C 11.819 18.99 11.929 18.99 12.04 18.99 C 12.151 18.99 12.252 18.99 12.362 18.99 C 14.214 18.89 16.539 18.48 17.676 17.72 C 17.998 17.51 18.069 17.22 18.018 16.94 L 18.028 16.95" transform="matrix(1 0 0 1 0 0)" fill="#FFFFFF" stroke="none" />
  <path d="M 21.913 2 L 17.103 2 C 19.619 2 20.625 3.64 20.625 5 L 22.648 5.96 C 23.534 3.17 22.527 2.49 21.903 2 L 21.913 2" transform="matrix(1 0 0 1 0 0)" fill="#FFFFFF" stroke="none" />
  <path d="M 6.898 2 L 2.087 2 C 1.473 2.49 0.457 3.17 1.342 5.96 L 3.365 5 C 3.365 3.64 4.372 2 6.888 2 L 6.898 2" transform="matrix(1 0 0 1 0 0)" fill="#FFFFFF" stroke="none" />
  <path d="M 19.115 18 C 18.572 18.67 16.348 19.6 13.077 20 L 15.12 23 C 17.847 22.17 22.708 20 19.115 18" transform="matrix(1 0 0 1 0 0)" fill="#FFFFFF" stroke="none" />
  <path d="M 9.293 23 L 11.336 20 C 8.065 19.6 5.841 18.67 5.298 18 C 1.705 20 6.576 22.17 9.293 23" transform="matrix(1 0 0 1 0 0)" fill="#FFFFFF" stroke="none" />
</svg>
