<?xml version="1.0" encoding="UTF-8"?>
<!-- Reconstructed from Amplitude.Graphics.Svg.SvgAsset and recolored from static UIMapper.Color metadata for EWShop; not original source SVG. Live UI state/material colors are not included. -->
<svg xmlns="http://www.w3.org/2000/svg" width="24" height="24" viewBox="0 0 24 24">
  <path d="M 12.53 3.74 L 12.52 3.74 C 13.66 3.75 14.11 3.43 14.11 2.46 L 14.11 1.97 C 14.15 1.24 14.15 1 13.32 1 L 11.41 1 C 10.77 1 10.77 1.37 10.77 2.07 L 10.77 2.19 C 10.81 2.97 10.86 3.74 12.53 3.74" transform="matrix(1 0 0 1 0 0)" fill="#FFFFFF" stroke="none" />
  <path d="M 14.11 6.01 C 14.43 6.01 15.09 5.79 15.22 4.89 C 15.34 4.05 14.91 3.74 14.52 3.6 C 14.47 3.58 14.41 3.62 14.38 3.67 C 14.23 3.96 13.65 4.41 12.52 4.41 C 11.39 4.41 10.74 3.9 10.58 3.5 C 10.56 3.46 10.52 3.43 10.48 3.43 C 10.17 3.45 9.78 3.59 9.66 4.42 C 9.53 5.33 10.32 5.69 10.69 5.85 C 9.55 10.36 5.7 11.85 4 11.96 L 4 12.19 C 4 13.74 4 16.59 5 18.92 C 6.5 22.4 10 23.89 15.07 22.5 C 19.81 21.2 20 15.94 20 12.64 C 16.69 11.86 14.69 7.9 14.11 6.02 L 14.11 6.01 M 19.03 16.06 C 18.72 19.19 16.57 21.23 13.76 21.84 C 13.75 21.84 13.74 21.86 13.73 21.87 C 13.49 21.92 13.24 21.96 12.99 21.99 L 12.96 21.99 C 12.02 22.11 11.03 22.07 10.01 21.87 C 9.64 21.79 9.29 21.69 8.97 21.56 C 8.87 21.52 8.79 21.46 8.69 21.42 C 8.47 21.32 8.26 21.22 8.06 21.1 C 7.95 21.03 7.86 20.94 7.76 20.87 C 7.6 20.75 7.43 20.64 7.29 20.5 C 7.19 20.41 7.1 20.3 7.01 20.2 C 6.88 20.06 6.75 19.93 6.64 19.79 C 6.55 19.68 6.48 19.55 6.4 19.43 C 6.3 19.28 6.19 19.14 6.1 18.98 C 6.03 18.85 5.96 18.71 5.9 18.57 C 5.82 18.41 5.74 18.25 5.67 18.09 C 5.61 17.95 5.56 17.79 5.51 17.65 C 5.45 17.48 5.38 17.32 5.33 17.14 C 5.28 16.99 5.25 16.83 5.2 16.67 C 5.16 16.52 5.11 16.38 5.08 16.23 C 5.07 16.18 5.05 16.14 5.04 16.09 C 4.78 14.88 4.69 13.61 4.69 12.44 C 7.46 11.96 9.98 9.64 10.65 8.49 C 10.32 9.65 9.45 10.77 8.58 11.65 C 8.64 11.83 8.71 12 8.78 12.17 C 8.83 12.3 8.88 12.44 8.93 12.57 C 9 12.74 9.08 12.89 9.15 13.05 C 9.21 13.17 9.26 13.3 9.32 13.42 C 9.4 13.58 9.49 13.72 9.58 13.87 C 9.64 13.98 9.7 14.09 9.77 14.19 C 9.87 14.34 9.98 14.48 10.09 14.62 C 10.16 14.71 10.22 14.8 10.29 14.89 C 10.42 15.04 10.56 15.17 10.7 15.31 C 10.77 15.38 10.83 15.45 10.9 15.51 C 11.07 15.66 11.26 15.79 11.45 15.92 C 11.5 15.96 11.55 16 11.61 16.04 C 12.12 16.36 12.72 16.63 13.41 16.83 C 13.83 16.95 14.28 17.05 14.79 17.12 C 14.82 17.12 14.83 17.12 14.83 17.11 C 14.82 17.07 14.66 16.95 14.42 16.77 L 14.33 16.7 C 13.83 16.33 13.05 15.73 12.37 15.04 C 12.29 14.96 12.24 14.88 12.23 14.8 C 12.18 14.58 12.41 14.42 12.68 14.5 C 12.9 14.59 13.12 14.68 13.33 14.77 C 13.74 14.94 14.16 15.11 14.57 15.27 C 14.61 15.29 14.66 15.31 14.7 15.32 C 14.86 15.38 15.02 15.44 15.18 15.49 C 15.25 15.51 15.32 15.54 15.39 15.56 C 15.54 15.61 15.69 15.65 15.85 15.7 C 15.93 15.72 16.01 15.75 16.09 15.77 C 16.24 15.81 16.39 15.84 16.54 15.88 C 16.62 15.9 16.71 15.92 16.79 15.94 C 16.96 15.97 17.13 16 17.3 16.02 C 17.37 16.02 17.43 16.04 17.5 16.05 C 17.71 16.07 17.92 16.09 18.14 16.09 C 18.17 16.09 18.2 16.09 18.24 16.09 C 18.49 16.09 18.74 16.09 19 16.07 L 19.06 16.07 L 19.03 16.06" transform="matrix(1 0 0 1 0 0)" fill="#FFFFFF" stroke="none" />
  <path d="M 18.98 16.06 C 18.72 16.08 18.47 16.09 18.22 16.08 C 18.19 16.08 18.16 16.08 18.12 16.08 C 17.91 16.08 17.69 16.06 17.48 16.04 C 17.41 16.04 17.34 16.02 17.28 16.01 C 17.11 15.99 16.94 15.96 16.77 15.93 C 16.69 15.91 16.6 15.89 16.52 15.87 C 16.37 15.84 16.22 15.8 16.07 15.76 C 15.99 15.74 15.91 15.71 15.83 15.69 C 15.68 15.64 15.53 15.6 15.37 15.55 C 15.3 15.53 15.23 15.5 15.16 15.48 C 15 15.42 14.84 15.37 14.68 15.31 C 14.64 15.29 14.59 15.28 14.55 15.26 C 14.15 15.1 13.74 14.94 13.34 14.77 L 13.31 14.77 C 13.1 14.67 12.88 14.58 12.66 14.49 C 12.38 14.41 12.16 14.57 12.21 14.79 C 12.23 14.86 12.27 14.95 12.35 15.03 C 13.03 15.72 13.81 16.32 14.31 16.69 L 14.4 16.76 C 14.64 16.94 14.8 17.06 14.81 17.1 C 14.81 17.11 14.81 17.12 14.77 17.11 C 14.26 17.04 13.81 16.94 13.39 16.82 C 12.7 16.62 12.1 16.36 11.59 16.03 C 11.53 15.99 11.49 15.95 11.43 15.91 C 11.24 15.78 11.05 15.65 10.88 15.5 C 10.81 15.44 10.75 15.37 10.68 15.3 C 10.54 15.16 10.4 15.03 10.27 14.88 C 10.2 14.8 10.14 14.7 10.07 14.61 C 9.96 14.47 9.85 14.33 9.75 14.18 C 9.68 14.08 9.63 13.97 9.56 13.86 C 9.47 13.71 9.38 13.56 9.3 13.41 C 9.24 13.29 9.19 13.16 9.13 13.04 C 9.06 12.88 8.98 12.73 8.91 12.56 C 8.86 12.43 8.81 12.29 8.76 12.16 C 8.7 11.99 8.63 11.83 8.57 11.66 C 7.31 12.65 5.94 13.69 5.94 13.69 C 5.94 13.69 5.33 15.29 5.06 16.22 C 5.09 16.37 5.14 16.52 5.18 16.67 C 5.22 16.83 5.26 16.98 5.31 17.14 C 5.36 17.31 5.43 17.48 5.49 17.65 C 5.54 17.8 5.59 17.95 5.65 18.09 C 5.72 18.26 5.81 18.41 5.88 18.57 C 5.95 18.71 6.01 18.85 6.08 18.98 C 6.17 19.14 6.28 19.28 6.38 19.43 C 6.46 19.55 6.53 19.68 6.62 19.79 C 6.73 19.94 6.87 20.07 6.99 20.2 C 7.08 20.3 7.17 20.41 7.27 20.5 C 7.41 20.63 7.58 20.75 7.74 20.87 C 7.84 20.95 7.93 21.03 8.04 21.1 C 8.23 21.22 8.45 21.32 8.67 21.42 C 8.76 21.46 8.85 21.52 8.95 21.56 C 9.27 21.69 9.62 21.79 9.99 21.87 C 11.01 22.07 12 22.11 12.94 22 L 12.97 22 C 13.24 21.96 13.49 21.9 13.74 21.84 C 15.46 20.52 17.9 17.98 18.95 16.06 L 18.98 16.06" transform="matrix(1 0 0 1 0 0)" fill="#FFFFFF" stroke="none" />
</svg>
