<?xml version="1.0" encoding="UTF-8"?>
<!-- Reconstructed from Amplitude.Graphics.Svg.SvgAsset and recolored from static UIMapper.Color metadata for EWShop; not original source SVG. Live UI state/material colors are not included. -->
<svg xmlns="http://www.w3.org/2000/svg" width="24" height="24" viewBox="0 0 24 24">
  <path d="M 14.25 13 L 10.75 13 L 9 14.75 L 9 18.25 L 10.75 20 L 14.25 20 L 16 18.25 L 16 14.75 L 14.25 13 M 9.707 17 L 9.707 15 L 11 13.707 L 13 13.707 L 11.5 14.5 L 10.5 15.5 L 9.707 17 M 15.293 18 L 15.293 16 L 14.501 17.5 L 13.501 18.5 L 12 19.293 L 14.001 19.293 L 15.293 18" transform="matrix(1 0 0 1 0 0)" fill="#FFFFFF" stroke="none" />
  <path d="M 14 7 L 11 7 L 11.375 10 L 9.675 10 L 10.367 11.848 L 9.028 10.222 L 6.251 12.999 L 7.75 14.233 L 6 13.578 L 6 19.423 L 7.75 18.768 L 6.251 20.001 L 9.051 22.801 L 10.367 21.202 L 9.693 23 L 15.424 23 L 14.75 21.202 L 16.014 22.737 L 18.749 20.001 L 17.25 18.768 L 19 19.423 L 19 13.578 L 17.25 14.233 L 18.749 12.999 L 16.036 10.286 L 14.75 11.848 L 15.442 10 L 13.625 10 L 14 7 M 10.336 12 L 14.664 12 L 17 14.336 L 17 18.664 L 14.664 21 L 10.336 21 L 8 18.664 L 8 14.336 L 10.336 12" transform="matrix(1 0 0 1 0 0)" fill="#FFFFFF" stroke="none" />
  <path d="M 10 9 L 9.5 7 C 8 7 4 5 4 1 L 2 1 C 2 5 5.2 9 10 9" transform="matrix(1 0 0 1 0 0)" fill="#FFFFFF" stroke="none" />
  <path d="M 15 9 L 15.5 7 C 17 7 21 5 21 1 L 23 1 C 23 5 19.8 9 15 9" transform="matrix(1 0 0 1 0 0)" fill="#FFFFFF" stroke="none" />
</svg>
