<?xml version="1.0" encoding="UTF-8"?>
<!-- Reconstructed from Amplitude.Graphics.Svg.SvgAsset and recolored from static UIMapper.Color metadata for EWShop; not original source SVG. Live UI state/material colors are not included. -->
<svg xmlns="http://www.w3.org/2000/svg" width="512" height="512" viewBox="0 0 512 512">
  <path d="M 375.04 37.43 L 339.957 80.816 L 314.95 37.92 L 310.895 84.004 C 374.681 102.446 377.537 184.82 338.605 216.694 L 424.095 203.691 L 380.773 189.131 L 458.461 143.784 L 383.087 147.334 L 444.815 68.036 L 366.317 103.038 L 375.042 37.431 L 375.04 37.43" transform="matrix(1 0 0 1 0 0)" fill="#FFFFFF" stroke="none" />
  <path d="M 70.296 58.395 C 55.073 58.425 39.18 63.921 21.751 75.33 L 21.751 122.465 C 64.911 83.975 112.545 100.731 155.511 147.025 C 179.081 176.985 204.003 211.948 253.849 225.191 C 291.535 235.205 331.109 216.496 341.175 179.251 C 345.025 165.006 345.66 149.291 341.282 134.917 C 336.906 120.545 326.806 107.405 310.697 101.233 L 310.695 101.233 C 300.137 97.189 288.387 97.01 277.807 100.679 C 267.225 104.347 257.609 112.375 253.457 124.265 C 250.841 131.757 250.971 139.919 253.867 147.337 C 256.764 154.757 263.01 161.587 271.877 164.157 L 271.879 164.157 C 277.209 165.701 282.751 165.441 287.979 163.261 C 292.782 161.257 297.494 156.989 299.389 151.095 C 287.897 161.399 270.959 156.553 270.419 136.767 C 270.214 134.595 270.439 132.322 271.099 130.427 L 271.099 130.425 C 273.216 124.365 277.739 120.481 283.929 118.335 C 290.117 116.189 297.769 116.295 304.009 118.685 L 304.012 118.685 C 314.574 122.731 320.326 130.248 323.406 140.362 C 326.486 150.478 326.186 163.08 323.136 174.377 C 315.842 201.361 287.901 214.905 258.648 207.133 C 226.198 198.513 206.238 179.713 188.275 158.148 L 188.425 157.925 C 143.74 93.958 109.2 58.32 70.296 58.395" transform="matrix(1 0 0 1 0 0)" fill="#FFFFFF" stroke="none" />
  <path d="M 298.733 149.258 L 299.743 149.834 C 299.77 149.722 299.803 149.614 299.829 149.502 L 298.733 149.258" transform="matrix(1 0 0 1 0 0)" fill="#FFFFFF" stroke="none" />
  <path d="M 456.603 214.162 C 438.719 214.068 417.746 223.22 400.661 240.305 C 395.348 245.618 390.813 251.309 387.073 257.165 C 293.33 200.703 57.168 333.477 208.099 446.922 L 208.097 446.924 L 88.78 446.924 L 62.328 494.664 L 319.492 494.664 L 231.014 391.414 C 255.284 364.706 298.467 347.708 328.01 346.35 C 341.803 391.447 364.26 459.847 399.744 494.662 L 460.611 494.662 C 417.541 448.114 384.074 385.568 378.675 314.812 C 380.29 318.042 382.367 321.002 384.958 323.594 C 403.622 342.257 440.911 335.226 468.248 307.891 C 495.583 280.556 502.612 243.268 483.948 224.605 C 476.948 217.605 467.333 214.22 456.603 214.163 L 456.603 214.162" transform="matrix(1 0 0 1 0 0)" fill="#FFFFFF" stroke="none" />
  <path d="M 64.247 491.81 C 64.989 490.483 70.884 479.855 77.347 468.193 L 89.097 446.988 L 148.7 446.859 L 208.303 446.73 L 202.845 442.413 C 195.691 436.755 184.012 425.191 178.917 418.723 C 165.85 402.131 159.444 385.501 159.379 368 C 159.333 355.8 162.165 344.283 168.092 332.556 C 182.031 304.978 212.661 278.925 250.667 262.319 C 299.874 240.82 349.975 238.134 382.906 255.229 C 386.656 257.176 387.339 257.385 387.72 256.703 C 389.317 253.851 396.705 244.821 400.763 240.762 C 414.781 226.741 431.707 217.601 448.254 215.118 C 454.703 214.15 458.419 214.152 464.017 215.128 C 475.627 217.153 484.579 223.453 489.624 233.151 C 492.887 239.423 493.855 243.768 493.865 252.19 C 493.878 262.695 491.894 270.751 486.608 281.651 C 474.66 306.291 451.25 325.827 426.189 332.069 C 421.595 333.213 419.696 333.409 412.952 333.433 C 406.192 333.456 404.509 333.295 401.045 332.292 C 392.148 329.716 384.18 323.903 380.424 317.248 C 379.529 315.663 378.697 314.467 378.575 314.589 C 378.168 314.997 379.94 330.113 381.433 338.965 C 389.055 384.163 408.057 427.589 437.699 467.556 C 443 474.702 450.68 484.125 456.019 490.032 L 459.808 494.222 L 429.813 494.222 L 399.818 494.222 L 395.207 489.27 C 372.928 465.34 352.356 422.838 332.455 359.619 L 328.218 346.159 L 324.998 346.327 C 323.227 346.42 318.578 347.037 314.667 347.7 C 285.238 352.683 252.91 368.755 234.272 387.666 L 230.575 391.417 L 273.891 441.965 C 297.714 469.767 317.52 492.898 317.904 493.368 C 318.556 494.168 310.483 494.222 190.749 494.222 L 62.897 494.222 L 64.247 491.81" transform="matrix(1 0 0 1 0 0)" fill="#FFFFFF" stroke="none" />
  <path d="M 264.381 226.975 C 253.243 225.558 238.455 220.535 225.524 213.776 C 204.251 202.657 187.252 186.915 162.528 155.439 C 140.841 127.829 113.563 108.445 88.127 102.569 C 81.542 101.048 69.02 100.675 61.976 101.791 C 49.635 103.746 35.816 110.29 25.016 119.295 L 21.841 121.942 L 21.841 98.799 L 21.841 75.657 L 25.016 73.631 C 33.718 68.076 45.742 62.798 54.493 60.691 C 88.95 52.394 120.177 70.151 160.764 121.12 C 167.541 129.632 177.745 143.329 184.619 153.143 C 199.952 175.035 220.582 192.487 241.938 201.636 C 254.588 207.055 264.427 209.336 275.048 209.31 C 289.594 209.275 301.066 205.004 310.49 196.114 C 321.241 185.972 326.066 172.317 325.456 153.759 C 325.157 144.675 324.135 140.113 320.938 133.587 C 317.189 125.936 309.657 119.763 301.414 117.586 C 297.408 116.528 289.108 116.547 285.46 117.623 C 275.954 120.425 270.678 126.447 270.305 134.919 C 269.859 145.061 274.299 153.325 281.476 155.709 C 285.433 157.023 290.559 156.577 294.619 154.565 C 296.413 153.676 297.969 153.037 298.077 153.146 C 298.776 153.845 294.047 159.187 290.794 161.372 C 285.5 164.928 277.494 165.756 270.874 163.432 C 253.931 157.484 246.942 136.836 255.986 119.451 C 261.282 109.272 271.748 101.844 284.407 99.279 C 290.202 98.105 300.852 98.474 306.24 100.037 C 326.422 105.889 340.098 122.883 343.405 146.222 C 344.277 152.371 343.727 166.509 342.37 172.845 C 340.845 179.961 339.01 185.507 336.499 190.583 C 325.109 213.612 300.897 227.805 273.537 227.491 C 270.457 227.456 266.337 227.224 264.381 226.975 L 264.381 226.975" transform="matrix(1 0 0 1 0 0)" fill="#FFFFFF" stroke="none" />
  <path d="M 344.019 211.864 C 353.301 202.235 359.561 189.723 362.758 174.409 C 364.326 166.899 364.448 149.788 362.989 141.968 C 358.569 118.272 344.71 99.213 324.55 89.105 C 321.909 87.781 317.919 86.058 315.683 85.277 C 313.301 84.445 311.552 83.538 311.458 83.085 C 311.326 82.457 314.67 42.219 315.069 39.627 C 315.133 39.212 320.53 48.07 327.061 59.31 C 333.593 70.551 339.191 80.085 339.5 80.497 C 339.957 81.104 343.269 77.274 357.076 60.168 C 366.433 48.576 374.163 39.313 374.253 39.584 C 374.343 39.855 372.547 54.157 370.261 71.366 C 367.975 88.575 366.23 102.78 366.383 102.934 C 366.536 103.087 383.868 95.542 404.898 86.167 C 425.927 76.793 443.186 69.176 443.251 69.24 C 443.315 69.305 429.781 86.819 413.176 108.161 C 396.57 129.504 382.984 147.098 382.984 147.261 C 382.984 147.423 384.069 147.499 385.397 147.429 C 402.734 146.522 455.313 144.222 455.895 144.345 C 456.319 144.435 439.892 154.287 419.39 166.24 C 398.888 178.193 381.699 188.276 381.191 188.647 C 380.381 189.239 382.852 190.182 401.407 196.361 C 413.034 200.233 422.479 203.468 422.397 203.55 C 422.315 203.632 404.213 206.437 382.171 209.783 C 360.13 213.129 341.532 215.998 340.845 216.16 C 339.89 216.385 340.641 215.369 344.019 211.864 L 344.019 211.864" transform="matrix(1 0 0 1 0 0)" fill="#FFFFFF" stroke="none" />
  <path d="M 64.131 492.538 C 64.678 491.63 70.439 481.287 76.935 469.553 C 83.43 457.82 88.956 447.992 89.214 447.712 C 89.519 447.382 110.481 447.115 149.131 446.95 L 208.578 446.696 L 202.017 441.255 C 193.768 434.415 182.197 422.577 177.214 415.881 C 167.958 403.445 162.513 391.166 160.472 378.125 C 159.431 371.481 159.69 359.613 161.009 353.49 C 165.24 333.849 176.752 315.436 195.72 297.974 C 237.133 259.848 304.286 237.775 353.506 246.11 C 363.928 247.875 371.701 250.307 381.411 254.839 C 387.071 257.481 387.51 257.607 388.014 256.734 C 388.311 256.22 390.367 253.494 392.583 250.676 C 403.928 236.252 418.651 225.042 433.699 219.371 C 442.53 216.043 447.261 215.143 456.109 215.108 C 464.834 215.073 469.016 215.974 475.388 219.265 C 480.493 221.9 486.962 228.497 489.462 233.617 C 492.75 240.35 493.07 241.765 493.313 250.633 C 493.502 257.552 493.373 259.548 492.444 264.059 C 488.055 285.388 470.795 308.788 450.138 321.417 C 441.513 326.689 431.231 330.869 423.024 332.44 C 418.172 333.368 407.344 333.372 403.03 332.447 C 394.175 330.548 384.668 323.947 380.47 316.784 C 377.752 312.146 377.703 312.898 379.704 328.493 C 387.069 385.889 413.978 443.353 454.961 489.201 C 457.129 491.626 458.903 493.74 458.903 493.899 C 458.903 494.058 445.678 494.188 429.514 494.188 L 400.125 494.188 L 396.07 489.744 C 378.118 470.065 363.582 443.827 347.315 401.744 C 344.126 393.494 330.695 353.912 329.046 347.903 L 328.558 346.125 L 324.562 346.275 C 322.363 346.357 317.462 346.991 313.67 347.683 C 284.355 353.037 254.751 367.598 235.719 386.025 L 230.182 391.386 L 273.558 442.044 C 297.415 469.906 316.998 492.885 317.076 493.108 C 317.307 493.769 254.662 494.188 155.794 494.188 L 63.138 494.188 L 64.131 492.538" transform="matrix(1 0 0 1 0 0)" fill="#FFFFFF" stroke="none" />
</svg>
