<?xml version="1.0" encoding="UTF-8"?>
<!-- Reconstructed from Amplitude.Graphics.Svg.SvgAsset and recolored from static UIMapper.Color metadata for EWShop; not original source SVG. Live UI state/material colors are not included. -->
<svg xmlns="http://www.w3.org/2000/svg" width="24" height="24" viewBox="0 0 24 24">
  <path d="M 23 23 L 21.112 23 L 19.084 21.261 L 17.055 23 L 15.291 23 L 19.084 19.385 L 23 23" transform="matrix(1 0 0 1 0 0)" fill="#FFFFFF" stroke="none" />
  <path d="M 15.554 2.01 C 15.676 2.026 15.835 2.218 15.98 2.394 L 16.104 2.54 C 16.143 2.584 16.179 2.622 16.211 2.648 L 16.19 3.782 C 16.151 3.877 15.882 4.092 15.77 4.183 L 15.753 4.196 C 15.59 4.328 14.824 4.894 14.68 4.945 C 14.575 4.983 14.49 4.927 14.404 4.871 C 14.328 4.821 14.249 4.769 14.155 4.784 L 15.038 6.865 L 15.429 7.727 L 15.397 8.578 L 14.367 9.115 L 21.023 9.115 L 19.897 7.817 L 23.606 9.534 L 19.897 11.252 L 20.998 9.982 L 11.15 9.982 L 14.278 12.674 L 14.717 13.899 L 14.682 14.009 L 8.106 18.074 L 7.796 18.555 L 7.398 18.521 C 7.554 17.66 7.952 16.905 8.353 16.146 C 8.416 16.025 8.48 15.903 8.543 15.781 C 8.62 15.775 8.723 15.728 8.824 15.682 C 8.935 15.631 9.044 15.581 9.119 15.584 C 9.186 15.587 9.342 15.668 9.498 15.75 C 9.681 15.846 9.865 15.943 9.908 15.915 L 10.699 14.438 L 12.011 13.565 L 9.244 12.659 L 7.194 16.679 L 1.276 19.936 L 0.844 20.729 C 0.762 20.763 0.483 20.723 0.487 20.614 C 0.544 20.428 0.573 20.224 0.603 20.021 C 0.631 19.827 0.658 19.635 0.709 19.459 C 0.786 19.193 0.928 18.913 1.069 18.632 C 1.203 18.366 1.339 18.1 1.42 17.843 C 1.536 17.838 1.674 17.785 1.809 17.735 C 1.936 17.686 2.061 17.639 2.162 17.634 C 2.242 17.63 2.381 17.669 2.523 17.709 L 2.78 17.775 C 2.856 17.789 2.917 17.792 2.947 17.774 L 4.497 15.741 L 5.962 15.243 L 6.984 10.236 L 8.526 9.026 L 10.066 5.194 L 8.957 4.33 L 6.648 5.653 L 6.914 6.745 L 6.51 6.907 L 6.408 6.665 C 6.355 6.701 6.288 6.802 6.219 6.907 L 6.084 7.101 C 6.04 7.154 5.999 7.19 5.964 7.191 L 5.135 6.865 C 5.102 6.828 5.315 5.995 5.356 5.897 C 5.412 5.763 5.522 5.627 5.634 5.49 C 5.737 5.364 5.841 5.236 5.902 5.108 L 8.533 2.678 C 8.595 2.651 8.89 2.722 9.072 2.766 C 9.121 2.777 9.161 2.787 9.188 2.792 C 9.493 2.856 9.82 2.941 10.155 3.027 L 10.859 3.205 C 11.571 3.375 12.29 3.502 12.922 3.428 C 13.017 3.416 13.168 3.395 13.248 3.349 L 14.522 2.032 C 14.605 1.996 15.425 1.993 15.554 2.01" transform="matrix(1 0 0 1 0 0)" fill="#FFFFFF" stroke="none" />
  <path d="M 23 19.385 L 21.112 19.385 L 19.084 17.647 L 17.055 19.385 L 15.291 19.385 L 19.084 15.771 L 23 19.385" transform="matrix(1 0 0 1 0 0)" fill="#FFFFFF" stroke="none" />
  <path d="M 10.564 12.636 L 0.963 12.636 L 0.963 11.436 L 10.564 11.436 L 10.564 12.636" transform="matrix(1 0 0 1 0 0)" fill="#FFFFFF" stroke="none" />
  <path d="M 10.564 9.436 L 3.364 9.436 L 3.364 8.235 L 10.564 8.235 L 10.564 9.436" transform="matrix(1 0 0 1 0 0)" fill="#FFFFFF" stroke="none" />
  <path d="M 10.564 6.235 L 0.963 6.235 L 0.963 5.035 L 10.564 5.035 L 10.564 6.235" transform="matrix(1 0 0 1 0 0)" fill="#FFFFFF" stroke="none" />
</svg>
