<?xml version="1.0" encoding="UTF-8"?>
<!-- Reconstructed from Amplitude.Graphics.Svg.SvgAsset and recolored from static UIMapper.Color metadata for EWShop; not original source SVG. Live UI state/material colors are not included. -->
<svg xmlns="http://www.w3.org/2000/svg" width="24" height="24" viewBox="0 0 24 24">
  <path d="M 9.67 2.447 L 7 2.239 L 7.043 5.08 L 16.662 15.19 L 15.423 16.497 L 16.567 17.699 L 18.569 15.595 L 20.856 18 L 22 16.797 L 19.712 14.393 L 21.714 12.289 L 20.57 11.087 L 19.227 12.493 L 15.191 8.25 C 15.191 8.25 17.159 6.494 18.595 5.625 C 19.856 4.862 22 4 22 4 C 22 4 19.301 4.193 17.627 4.607 C 15.861 5.043 13.254 6.214 13.254 6.214 L 12.656 5.586 C 12.656 5.586 14.801 4.017 16.328 3.293 C 17.702 2.642 20 2 20 2 C 20 2 17.023 1.833 15.133 2.037 C 13.202 2.246 10.267 3.075 10.267 3.075 L 9.67 2.447 M 18.387 13.32 L 9.164 3.626 L 8.281 3.678 L 8.232 4.606 L 17.455 14.3 L 18.387 13.32" transform="matrix(1 0 0 1 0 0)" fill="#FFFFFF" stroke="none" />
  <path d="M 7.94 14.375 C 8.603 14.178 9.943 13.814 10.32 13.861 C 10.595 13.981 10.885 14.598 10.623 14.908 C 10.618 14.914 10.61 14.925 10.6 14.939 C 10.391 15.215 9.13 16.886 9.133 16.996 C 9.139 17.201 9.191 17.554 9.207 17.621 C 9.222 17.714 9.353 17.788 9.43 17.831 C 9.444 17.839 9.455 17.845 9.464 17.851 C 10.133 18.338 10.047 18.962 10.003 19.135 C 9.947 19.362 9.726 19.882 9.272 20.526 L 9.338 22.742 C 10.72 20.064 11.873 19.298 11.873 19.298 C 11.873 19.298 11.871 19.295 11.867 19.289 C 11.77 19.145 10.468 17.216 11.854 14.904 C 11.854 14.896 11.853 14.883 11.852 14.865 C 11.831 14.444 11.678 11.341 9.94 9.944 C 9.906 9.913 8.883 10.69 8.249 11.178 L 7.94 14.375" transform="matrix(1 0 0 1 0 0)" fill="#FFFFFF" stroke="none" />
  <path d="M 7.224 17.258 L 7.24 17.363 L 6.856 18.193 L 6.849 18.195 L 6.044 17.679 C 6.044 17.675 6.043 17.668 6.042 17.657 C 6.016 17.4 5.813 15.384 5.224 15.066 C 5.155 15.029 2.537 15.281 2.537 15.281 C 2.209 15.299 2.08 16.168 2.447 16.43 C 2.486 16.455 2.537 16.488 2.597 16.527 C 3.148 16.886 4.481 17.753 4.519 17.972 L 4.522 17.986 C 4.569 18.192 4.636 18.493 4.642 18.561 C 4.643 18.619 4.566 18.721 4.511 18.794 C 4.493 18.818 4.477 18.839 4.467 18.854 C 3.997 19.522 4.246 20.038 4.336 20.223 C 4.34 20.231 4.343 20.239 4.347 20.246 C 4.533 20.582 5.462 21.324 5.479 21.333 L 6.105 23.457 C 4.064 21.281 2.629 20.993 2.629 20.993 C 2.629 20.993 2.63 20.99 2.632 20.985 C 2.694 20.819 3.66 18.239 1.274 16.832 C 1.271 16.818 1.265 16.795 1.257 16.764 C 1.124 16.256 0.412 13.536 1.562 11.498 C 1.655 11.471 4.132 12.34 4.132 12.34 L 2.422 8.553 C 2.422 8.553 2.873 7.966 3.761 7.704 C 4.462 7.498 5.36 7.688 5.36 7.688 L 5.968 11.8 C 5.968 11.8 6.094 11.636 6.278 11.401 L 6.782 14.521 C 6.629 14.613 6.533 14.674 6.526 14.682 C 6.219 15.241 7.032 16.902 7.224 17.258" transform="matrix(1 0 0 1 0 0)" fill="#FFFFFF" stroke="none" />
</svg>
