<?xml version="1.0" encoding="UTF-8"?>
<!-- Reconstructed from Amplitude.Graphics.Svg.SvgAsset and recolored from static UIMapper.Color metadata for EWShop; not original source SVG. Live UI state/material colors are not included. -->
<svg xmlns="http://www.w3.org/2000/svg" width="24" height="24" viewBox="0 0 24 24">
  <path d="M 13.398 13.201 C 13.5 13.727 13.312 14.271 12.898 14.62 L 12.379 15.059 C 12.157 15.246 12.027 15.521 12.023 15.812 C 12.021 16.024 12.087 16.23 12.208 16.4 L 10.568 16.871 L 8.597 19.518 L 6.655 23.202 L 7.285 18.551 L 9.5 14.303 C 11.004 15.021 11.509 13.503 12.971 13.268 L 13.398 13.201" transform="matrix(1 0 0 1 0 0)" fill="#FFFFFF" stroke="none" />
  <path d="M 20.216 14.662 C 20.217 14.669 20.22 14.676 20.221 14.683 L 20.261 14.959 C 20.299 15.221 20.439 15.45 20.642 15.606 C 20.782 15.867 21.025 16.026 21.5 16.026 L 21.937 22.356 L 19.679 19.266 L 19.075 16.816 C 19.398 16.732 19.687 16.623 19.814 16.356 C 20.093 16.149 20.245 15.811 20.213 15.464 L 20.135 14.628 L 20.216 14.662" transform="matrix(1 0 0 1 0 0)" fill="#FFFFFF" stroke="none" />
  <path d="M 8.014 10.501 C 8.056 10.566 8.105 10.626 8.16 10.678 C 8.295 10.905 8.45 11.024 8.644 11.096 L 7.929 12.018 C 7.743 12.257 7.675 12.567 7.745 12.861 C 7.794 13.067 7.907 13.248 8.063 13.384 C 8.073 13.475 8.091 13.57 8.123 13.668 L 6.37 14.101 L 1.978 17.821 L 3.112 14.02 L 5.797 11.4 L 8.014 10.501" transform="matrix(1 0 0 1 0 0)" fill="#FFFFFF" stroke="none" />
  <path d="M 20.452 6.354 L 21.751 14.251 L 21.25 14.816 L 21.21 14.54 C 21.14 14.052 20.821 13.636 20.368 13.441 L 20.118 13.335 C 19.941 13.259 19.741 13.254 19.561 13.322 C 19.248 13.441 19.053 13.754 19.083 14.087 L 19.217 15.555 L 18.402 15.221 L 17 15.5 L 15.073 15.351 L 13.4 16.157 L 13.023 15.823 L 13.544 15.385 C 14.283 14.761 14.592 13.766 14.338 12.833 C 14.19 12.29 13.657 11.945 13.101 12.033 L 12.944 12.058 C 12.789 12.082 12.639 12.135 12.503 12.214 L 10.398 13.431 L 8.718 12.631 L 9.607 11.486 C 9.801 11.237 9.856 10.907 9.753 10.608 L 9.685 10.409 C 9.566 10.065 9.204 9.869 8.851 9.956 L 9.707 8.932 L 12.122 8.295 L 14.147 5.192 L 17.037 2.555 L 18.483 1.834 L 21.747 1.512 L 20.452 6.354" transform="matrix(1 0 0 1 0 0)" fill="#FFFFFF" stroke="none" />
  <path d="M 18.286 18.62 C 18.493 19.889 16.984 20.67 16.068 19.834 L 15.91 19.676 C 15.836 19.607 15.753 19.547 15.665 19.496 L 14.973 19.101 C 14.183 18.649 13.187 18.787 12.551 19.438 L 12.44 19.551 C 12.154 19.843 11.964 20.216 11.897 20.62 L 11.711 21.735 C 11.6 22.399 10.923 22.808 10.284 22.595 C 9.488 22.329 9.274 21.303 9.897 20.741 L 10.338 20.345 C 10.784 19.943 10.789 19.246 10.35 18.838 L 11.169 17.738 L 13.062 17.195 L 13.232 17.349 L 13.836 17.058 L 14.84 16.572 L 17.889 16.177 L 18.286 18.62" transform="matrix(1 0 0 1 0 0)" fill="#FFFFFF" stroke="none" />
  <path d="M 5 5 C 6.105 5 7 5.895 7 7 C 7 8.105 6.105 9 5 9 C 3.896 9 3 8.105 3 7 C 3 5.896 3.896 5 5 5" transform="matrix(1 0 0 1 0 0)" fill="#FFFFFF" stroke="none" />
  <path d="M 9 4 C 9.552 4 10 4.448 10 5 C 10 5.552 9.552 6 9 6 C 8.448 6 8 5.552 8 5 C 8 4.448 8.448 4 9 4" transform="matrix(1 0 0 1 0 0)" fill="#FFFFFF" stroke="none" />
  <path d="M 6 1 C 6.552 1 7 1.448 7 2 C 7 2.552 6.552 3 6 3 C 5.448 3 5 2.552 5 2 C 5 1.448 5.448 1 6 1" transform="matrix(1 0 0 1 0 0)" fill="#FFFFFF" stroke="none" />
</svg>
