<?xml version="1.0" encoding="UTF-8"?>
<!-- Reconstructed from Amplitude.Graphics.Svg.SvgAsset and recolored from static UIMapper.Color metadata for EWShop; not original source SVG. Live UI state/material colors are not included. -->
<svg xmlns="http://www.w3.org/2000/svg" width="24" height="25" viewBox="0 0 24 25">
  <path d="M 9.899 10.932 L 9.045 13.861 C 8.956 14.167 9.017 14.496 9.21 14.749 L 10.525 16.468 L 11.061 18.969 C 11.12 19.245 11.237 19.506 11.404 19.733 L 13.445 22.516 L 13.028 24.027 L 18.868 24.027 C 18.701 23.694 18.103 23.698 17.616 22.516 C 18.078 21.659 18.714 19.839 17.782 19.084 C 18.696 19.805 18.66 21.69 18.322 22.567 L 20.289 23.353 C 20.69 23.513 21.148 23.398 21.425 23.069 L 23.954 20.065 L 23.954 18.52 L 20.199 21.107 C 19.758 17.73 18.557 17.515 17.71 17.363 C 17.603 17.344 17.501 17.326 17.408 17.303 C 16.74 17.136 16.584 16.38 16.654 15.893 C 17.948 15.342 17.218 13.855 16.79 12.985 C 16.693 12.787 16.612 12.622 16.573 12.506 C 16.365 11.88 15.611 11.514 14.36 12.139 C 13.108 12.765 13.317 14.642 13.942 15.476 C 14.079 15.604 13.93 15.817 13.769 16.047 C 13.717 16.121 13.664 16.197 13.619 16.272 C 13.395 16.11 13.194 15.964 13.028 15.842 L 11.197 13.93 L 11.151 10.932 L 11.567 9.682 C 11.697 9.293 11.613 8.864 11.346 8.553 C 10.903 8.036 10.114 8.006 9.633 8.487 C 9.291 8.829 9.195 9.347 9.391 9.788 L 9.899 10.932" transform="matrix(1 0 0 1 0 0)" fill="#FFFFFF" stroke="none" />
  <path d="M 9.432 5.301 C 9.285 5.321 9.139 5.348 8.995 5.381 L 8.137 3.132 L 8.457 5.533 C 8.328 5.578 8.202 5.627 8.077 5.681 L 4.664 0.5 L 6.991 6.316 C 6.876 6.404 6.764 6.496 6.657 6.593 L 4.821 5.158 L 6.257 6.993 C 6.175 7.084 6.097 7.178 6.021 7.274 L 0.664 5 L 5.36 8.378 C 5.3 8.514 5.246 8.652 5.197 8.794 L 2.795 8.473 L 5.044 9.331 C 5.012 9.475 4.985 9.621 4.964 9.769 L 0.164 10.5 L 4.964 11.231 C 4.985 11.379 5.012 11.525 5.044 11.669 L 2.795 12.527 L 5.197 12.207 C 5.246 12.348 5.3 12.486 5.36 12.622 L 0.664 16 L 6.021 13.726 C 6.097 13.822 6.175 13.916 6.257 14.007 L 4.821 15.842 L 6.657 14.407 C 6.764 14.504 6.876 14.596 6.991 14.684 L 4.164 20.5 L 7.719 16.056 L 8.164 16.5 L 8.164 19 L 9.164 16.5 L 8.164 15.5 L 8.077 14.407 L 8.703 11.053 L 8.361 10.282 C 7.977 9.42 8.165 8.41 8.832 7.742 C 9.772 6.803 11.313 6.861 12.178 7.87 C 12.699 8.479 12.863 9.316 12.61 10.076 L 12.253 11.146 L 12.29 13.518 L 12.332 13.562 C 12.406 12.7 12.804 11.708 13.848 11.186 C 14.614 10.803 15.395 10.638 16.111 10.815 C 16.323 10.867 16.516 10.946 16.69 11.048 L 20.664 10.5 L 15.363 9.769 C 15.342 9.621 15.316 9.475 15.283 9.331 L 17.532 8.473 L 15.13 8.793 C 15.081 8.652 15.027 8.514 14.967 8.378 L 19.664 5 L 14.306 7.274 C 14.231 7.178 14.152 7.084 14.07 6.993 L 15.506 5.158 L 13.671 6.593 C 13.563 6.496 13.451 6.404 13.336 6.316 L 15.664 1 L 12.25 5.681 C 12.126 5.627 11.999 5.578 11.87 5.533 L 12.19 3.132 L 11.332 5.381 C 11.189 5.348 11.043 5.321 10.895 5.301 L 10.164 0 L 9.432 5.301" transform="matrix(1 0 0 1 0 0)" fill="#FFFFFF" stroke="none" />
</svg>
