<?xml version="1.0" encoding="UTF-8"?>
<!-- Reconstructed from Amplitude.Graphics.Svg.SvgAsset and recolored from static UIMapper.Color metadata for EWShop; not original source SVG. Live UI state/material colors are not included. -->
<svg xmlns="http://www.w3.org/2000/svg" width="24" height="24" viewBox="0 0 24 24">
  <path d="M 20.232 17.272 L 18.432 16.196 L 15.365 20.581 L 20.232 17.272" transform="matrix(1 0 0 1 0 0)" fill="#FFFFFF" stroke="none" />
  <path d="M 21.661 19.057 L 23.654 20.947 L 14 22.113 L 21.661 19.057" transform="matrix(1 0 0 1 0 0)" fill="#FFFFFF" stroke="none" />
  <path d="M 14.626 13.093 L 16.651 10.561 C 16.592 10.142 16.551 9.664 16.508 9.171 C 16.428 8.237 16.343 7.251 16.121 6.515 C 14.679 1.707 10.155 -1.407 6.331 3.413 C 4.775 5.375 4.64 6.852 4.465 8.764 C 4.416 9.293 4.364 9.855 4.279 10.47 C 4.094 11.788 3.077 12.42 2.029 13.07 C 1.266 13.544 0.486 14.028 0 14.795 C 1.292 15.068 2.292 15.919 3.301 16.777 C 4.225 17.563 5.155 18.354 6.324 18.715 C 5.511 15.855 6.265 8.408 9.605 7.444 C 12.312 6.663 14.004 9.812 14.626 13.093" transform="matrix(1 0 0 1 0 0)" fill="#FFFFFF" stroke="none" />
  <path d="M 9.715 11.736 C 9.667 11.621 9.62 11.508 9.547 11.442 L 9.547 11.445 C 9.325 11.24 7.736 10.741 7.591 10.873 C 7.629 11.822 8.75 12.214 9.525 12.356 C 9.886 12.422 9.955 12.414 9.861 12.014 C 9.8 11.94 9.757 11.837 9.715 11.736" transform="matrix(1 0 0 1 0 0)" fill="#FFFFFF" stroke="none" />
  <path d="M 11.405 12.281 C 12.274 12.119 13.191 11.947 13.156 10.873 C 12.073 10.873 11.217 11.331 10.881 12.389 C 11.048 12.348 11.225 12.315 11.405 12.281" transform="matrix(1 0 0 1 0 0)" fill="#FFFFFF" stroke="none" />
  <path d="M 18.455 7.767 L 18.975 9.081 C 19 9.144 19.087 9.152 19.122 9.094 L 20.813 6.337 C 20.871 6.244 20.888 6.131 20.863 6.025 L 20.479 4.421 C 20.461 4.35 20.366 4.335 20.328 4.397 L 19.312 6.053 L 19.43 6.544 L 18.939 6.662 L 18.487 7.399 C 18.419 7.51 18.407 7.646 18.455 7.767" transform="matrix(1 0 0 1 0 0)" fill="#FFFFFF" stroke="none" />
  <path d="M 13.783 16.5 L 13.889 17.267 L 14.52 17.057 L 21.444 7.64 L 21.772 6.003 L 13.783 16.5" transform="matrix(1 0 0 1 0 0)" fill="#FFFFFF" stroke="none" />
  <path d="M 10.55 17.925 L 9.643 23.04 L 13.978 20.297 C 13.041 19.617 13.994 18.15 14.588 17.501 L 13.617 17.969 L 10.944 20.998 L 13.502 16.828 L 13.162 16.121 C 12.582 17.445 11.179 17.875 10.55 17.925" transform="matrix(1 0 0 1 0 0)" fill="#FFFFFF" stroke="none" />
  <path d="M 21.509 10.121 L 20.095 10.126 C 20.027 10.126 19.988 10.048 20.029 9.994 L 21.961 7.401 C 22.026 7.313 22.124 7.255 22.232 7.239 L 23.864 7 C 23.937 6.99 23.986 7.072 23.942 7.131 L 22.781 8.689 L 21.59 9.128 L 22.355 9.262 L 21.838 9.955 C 21.761 10.059 21.639 10.121 21.509 10.121" transform="matrix(1 0 0 1 0 0)" fill="#FFFFFF" stroke="none" />
</svg>
