<?xml version="1.0" encoding="UTF-8"?>
<!-- Reconstructed from Amplitude.Graphics.Svg.SvgAsset and recolored from static UIMapper.Color metadata for EWShop; not original source SVG. Live UI state/material colors are not included. -->
<svg xmlns="http://www.w3.org/2000/svg" width="24" height="24" viewBox="0 0 24 24">
  <path d="M 5.225 5.262 L 4.434 4.932 C 4.413 4.908 4.493 4.539 4.561 4.258 L 0 4.258 L 0 3.042 L 5.278 3.042 L 7.676 0.687 C 7.735 0.66 8.016 0.732 8.19 0.776 C 8.236 0.788 8.275 0.798 8.3 0.803 C 8.592 0.868 8.903 0.954 9.223 1.042 C 10.107 1.285 11.059 1.548 11.862 1.447 C 11.953 1.436 12.097 1.415 12.173 1.368 L 13.388 0.033 C 13.464 -0.004 14.251 -0.007 14.373 0.01 C 14.49 0.026 14.641 0.222 14.779 0.399 C 14.861 0.505 14.938 0.605 15 0.656 L 14.979 1.807 C 14.942 1.902 14.686 2.122 14.579 2.213 L 14.563 2.226 C 14.408 2.36 13.677 2.934 13.539 2.986 C 13.439 3.024 13.358 2.968 13.276 2.911 C 13.203 2.86 13.129 2.808 13.039 2.823 L 13.881 4.932 L 14.254 5.806 L 14.222 6.669 L 13.241 7.214 L 10.171 8.092 L 13.156 10.822 L 13.574 12.064 L 13.541 12.175 L 7.267 16.297 L 6.972 16.784 L 6.593 16.75 C 6.742 15.877 7.121 15.112 7.503 14.342 C 7.564 14.219 7.625 14.096 7.685 13.973 C 7.759 13.966 7.857 13.919 7.953 13.871 C 8.059 13.82 8.163 13.769 8.234 13.772 C 8.297 13.775 8.446 13.858 8.596 13.941 C 8.77 14.038 8.946 14.136 8.987 14.108 L 9.742 12.61 L 10.993 11.724 L 8.353 10.807 L 6.398 14.882 L 0.754 18.184 L 0.34 18.988 C 0.263 19.023 -0.004 18.983 0 18.873 C 0.054 18.683 0.082 18.476 0.11 18.27 C 0.137 18.074 0.164 17.879 0.212 17.701 C 0.286 17.431 0.421 17.147 0.556 16.863 C 0.684 16.593 0.812 16.323 0.89 16.062 C 1.001 16.057 1.132 16.004 1.261 15.952 C 1.383 15.903 1.502 15.855 1.598 15.85 C 1.674 15.846 1.807 15.886 1.942 15.927 C 2.115 15.978 2.289 16.031 2.347 15.992 L 3.826 13.932 L 5.223 13.427 L 5.738 10.747 L 0 10.747 L 0 9.531 L 5.972 9.531 L 6.198 8.351 L 7.215 7.503 L 2.29 7.503 L 2.29 6.286 L 7.986 6.286 L 8.752 4.258 L 6.004 4.258 L 6.131 4.811 L 5.745 4.975 L 5.648 4.73 C 5.597 4.766 5.533 4.869 5.468 4.976 C 5.381 5.116 5.292 5.261 5.225 5.262 M 6.965 3.042 L 8.9 3.042 L 8.08 2.362 L 6.965 3.042" transform="matrix(1 0 0 1 0 0)" fill="#FFFFFF" stroke="none" />
  <path d="M 8.234 10.239 L 7.429 9.923 C 7.408 9.9 7.485 9.561 7.554 9.294 C 7.593 9.144 7.629 9.016 7.643 8.982 C 7.697 8.852 7.805 8.72 7.913 8.588 C 8.014 8.464 8.115 8.34 8.174 8.216 L 10.73 5.856 C 10.761 5.842 10.853 5.854 10.958 5.875 C 11.057 5.894 11.168 5.92 11.253 5.941 C 11.301 5.952 11.34 5.962 11.366 5.967 C 11.663 6.029 11.979 6.111 12.305 6.196 C 13.205 6.429 14.175 6.68 14.992 6.584 C 15.052 6.577 15.134 6.566 15.206 6.547 C 15.245 6.537 15.281 6.524 15.309 6.508 L 16.546 5.229 C 16.624 5.194 17.425 5.19 17.549 5.207 C 17.668 5.222 17.822 5.41 17.962 5.58 C 18.046 5.681 18.124 5.776 18.188 5.826 L 18.166 6.928 C 18.144 6.982 18.046 7.075 17.947 7.162 C 17.876 7.223 17.804 7.281 17.759 7.318 L 17.743 7.33 C 17.639 7.414 17.281 7.682 17.008 7.869 C 16.867 7.966 16.748 8.041 16.7 8.058 C 16.637 8.081 16.582 8.069 16.529 8.043 C 16.496 8.028 16.464 8.007 16.432 7.986 C 16.395 7.961 16.358 7.937 16.318 7.92 C 16.278 7.903 16.237 7.895 16.191 7.902 L 17.048 9.923 L 17.428 10.76 L 17.396 11.587 L 16.605 12 L 21.071 12 L 20 11 L 24 12.5 L 20 14 L 21.071 13 L 13.329 13 L 16.31 15.565 L 16.736 16.755 L 16.702 16.862 L 10.314 20.811 L 10.014 21.278 L 9.628 21.245 C 9.779 20.408 10.165 19.676 10.554 18.938 L 10.57 18.909 C 10.626 18.801 10.683 18.693 10.739 18.584 C 10.815 18.578 10.914 18.532 11.013 18.487 C 11.12 18.438 11.226 18.389 11.298 18.392 C 11.363 18.395 11.514 18.474 11.666 18.554 C 11.844 18.647 12.023 18.741 12.065 18.713 L 12.834 17.278 L 14.108 16.43 L 11.42 15.551 L 9.429 19.455 L 3.681 22.618 L 3.261 23.389 C 3.182 23.422 2.91 23.384 2.914 23.278 C 2.969 23.098 2.997 22.901 3.026 22.705 L 3.026 22.701 C 3.054 22.514 3.081 22.327 3.13 22.156 C 3.205 21.898 3.342 21.626 3.48 21.353 L 3.481 21.351 C 3.611 21.093 3.741 20.835 3.82 20.586 C 3.933 20.581 4.067 20.53 4.198 20.481 C 4.322 20.434 4.443 20.388 4.541 20.383 C 4.618 20.379 4.754 20.418 4.892 20.456 C 5.067 20.506 5.245 20.556 5.304 20.519 L 6.809 18.545 L 8.232 18.061 L 9.226 13.198 L 10.723 12.023 L 12.218 8.3 L 11.141 7.46 L 8.899 8.746 L 9.157 9.806 L 8.764 9.964 L 8.665 9.729 C 8.614 9.763 8.549 9.861 8.483 9.962 L 8.481 9.964 C 8.393 10.099 8.302 10.238 8.234 10.239" transform="matrix(1 0 0 1 0 0)" fill="#FFFFFF" stroke="none" />
</svg>
