<?xml version="1.0" encoding="UTF-8"?>
<!-- Reconstructed from Amplitude.Graphics.Svg.SvgAsset and recolored from static UIMapper.Color metadata for EWShop; not original source SVG. Live UI state/material colors are not included. -->
<svg xmlns="http://www.w3.org/2000/svg" width="24" height="24" viewBox="0 0 24 24">
  <path d="M 13.16 6.17 L 12 1 L 10.84 6.17 L 12 7.1 L 13.16 6.17" transform="matrix(1 0 0 1 0 0)" fill="#FFFFFF" stroke="none" />
  <path d="M 15.27 14.44 L 17.55 16.23 C 17.67 16.32 17.74 16.47 17.74 16.62 L 17.74 17.09 C 17.74 17.29 17.85 17.46 18.03 17.54 L 18.92 17.95 C 19.17 18.06 19.46 17.95 19.58 17.72 L 20.1 16.68 C 20.16 16.57 20.17 16.44 20.13 16.32 L 18.81 11.74 L 21.01 9.08 L 21.01 8.25 L 17.74 9.9 L 16.92 9.07 L 15.28 14.43 L 15.27 14.44 M 17.58 11.68 L 18.13 13.2 L 17.72 14.03 L 17 12.85 L 17.58 11.68" transform="matrix(1 0 0 1 0 0)" fill="#FFFFFF" stroke="none" />
  <path d="M 21.69 17.11 L 21 17.28 C 24.73 20.32 14.67 21.51 11.82 21.49 C 8.97 21.47 -0.43 20.51 3.2 17.28 L 2.48 16.99 C 1.52 17.6 1.01 18.29 1 18.98 C 0.99 19.68 1.48 20.36 2.42 20.97 C 3.36 21.58 4.73 22.08 6.38 22.44 C 8.03 22.8 9.9 22.99 11.82 23 C 13.74 23.01 15.63 22.84 17.31 22.5 C 18.99 22.16 20.4 21.67 21.39 21.08 C 22.38 20.49 22.94 19.81 22.99 19.11 C 23.04 18.41 22.59 17.72 21.69 17.11" transform="matrix(1 0 0 1 0 0)" fill="#FFFFFF" stroke="none" />
  <path d="M 3.87 16.32 C 3.84 16.44 3.85 16.57 3.9 16.68 L 4.42 17.72 C 4.54 17.96 4.83 18.06 5.08 17.95 L 5.97 17.54 C 6.15 17.46 6.26 17.28 6.26 17.09 L 6.26 16.62 C 6.26 16.47 6.33 16.32 6.45 16.23 L 8.73 14.44 L 7.09 9.08 L 6.27 9.91 L 3 8.26 L 3 9.09 L 5.2 11.75 L 3.88 16.33 L 3.87 16.32 M 6.42 11.68 L 7 12.85 L 6.28 14.03 L 5.87 13.2 L 6.42 11.68" transform="matrix(1 0 0 1 0 0)" fill="#FFFFFF" stroke="none" />
  <path d="M 7.91 8.15 L 9.97 14.39 C 10 14.48 10 14.57 9.98 14.66 L 9.6 16.22 C 9.56 16.39 9.6 16.57 9.73 16.69 L 10.86 17.84 C 10.95 17.94 11.08 17.99 11.22 17.99 L 12.76 17.99 C 12.89 17.99 13.02 17.94 13.12 17.84 L 14.25 16.69 C 14.37 16.57 14.42 16.39 14.38 16.22 L 13.99 14.66 C 13.97 14.57 13.97 14.47 14 14.38 L 16.05 8.23 L 16.9 6.33 C 16.9 6.33 16.49 3.72 14.45 1.65 L 14.45 4.51 L 13.35 3.68 L 13.7 6.36 L 11.99 7.73 L 10.3 6.37 L 10.63 3.79 L 9.57 4.53 L 9.57 1.65 C 7.52 3.71 7.12 6.33 7.12 6.33 L 7.87 8.02 C 7.87 8.02 7.89 8.11 7.9 8.15 L 7.91 8.15 M 12.82 9.9 L 14.46 8.25 L 14.46 9.9 L 12.82 10.73 L 12.82 9.9 M 9.55 8.25 L 11.19 9.9 L 11.19 10.73 L 9.55 9.9 L 9.55 8.25" transform="matrix(1 0 0 1 0 0)" fill="#FFFFFF" stroke="none" />
</svg>
