<?xml version="1.0" encoding="UTF-8"?>
<!-- Reconstructed from Amplitude.Graphics.Svg.SvgAsset and recolored from static UIMapper.Color metadata for EWShop; not original source SVG. Live UI state/material colors are not included. -->
<svg xmlns="http://www.w3.org/2000/svg" width="24" height="24" viewBox="0 0 24 24">
  <path d="M 11.063 1 C 12.7 1 14.104 1.991 14.697 3.399 L 10.865 8 L 14.273 8 C 14.057 8.454 13.803 8.886 13.523 9.294 C 13.305 9.215 13.115 9.151 12.963 9.101 L 12.852 9.061 L 12.843 9.058 C 12.719 9.016 12.6 9 12.494 9 C 12.427 9 12.338 9.007 12.239 9.03 L 12.137 9.06 L 12.132 9.062 L 12.041 9.094 L 11.442 9.301 C 10.736 9.559 9.748 9.981 8.848 10.64 C 8.005 11.257 7.192 12.12 6.773 13.283 C 4.766 11.995 1 9.031 1 4.9 C 1 2.746 2.763 1 4.938 1 L 5.168 1.007 C 6.311 1.072 7.323 1.62 8 2.448 C 8.722 1.565 9.826 1 11.063 1" transform="matrix(1 0 0 1 0 0)" fill="#FFFFFF" stroke="none" />
  <path d="M 12.52 10.004 L 12.631 10.043 C 13.898 10.462 17.518 11.706 17.505 15.018 L 17.505 17.533 C 17.505 17.533 17.504 19.044 17.654 20.057 C 17.655 20.062 17.657 20.067 17.658 20.071 C 17.754 20.401 17.85 20.702 17.932 20.932 C 17.945 20.96 17.959 20.975 17.973 21.004 C 18 21.062 18 21.135 18 21.192 C 18 21.276 17.974 21.359 17.936 21.416 C 17.933 21.421 17.93 21.426 17.928 21.431 C 17.801 21.673 17.487 21.873 17.215 21.959 L 15.412 22.508 L 14.2 22.971 C 14.2 22.971 14.164 22.981 14.144 22.984 C 14.135 22.986 14.127 22.986 14.119 22.988 C 13.862 23.051 13.622 22.851 13.622 22.58 L 13.622 17.954 C 13.622 17.783 13.742 17.654 13.903 17.622 C 13.909 17.621 13.914 17.62 13.919 17.62 L 13.952 17.62 C 14.228 17.62 14.503 17.519 14.724 17.36 L 15.776 16.566 C 15.833 16.523 15.833 16.432 15.776 16.389 L 14.806 15.653 C 14.517 15.437 14.187 15.321 13.843 15.321 L 11.157 15.321 C 10.813 15.321 10.483 15.437 10.194 15.653 L 9.224 16.389 C 9.167 16.432 9.167 16.523 9.224 16.566 L 10.276 17.36 C 10.497 17.534 10.773 17.62 11.048 17.62 L 11.081 17.62 C 11.086 17.62 11.092 17.621 11.097 17.622 C 11.258 17.654 11.378 17.783 11.378 17.954 L 11.378 22.58 C 11.378 22.85 11.126 23.05 10.882 22.988 C 10.873 22.986 10.864 22.986 10.856 22.985 C 10.842 22.985 10.83 22.984 10.819 22.981 C 10.805 22.978 10.793 22.968 10.779 22.963 L 9.588 22.508 L 7.785 21.959 C 7.496 21.872 7.192 21.67 7.068 21.424 C 7.027 21.352 7 21.265 7 21.192 C 7 21.137 7 21.067 7.024 21.011 C 7.026 21.006 7.028 21.001 7.028 20.996 C 7.032 20.974 7.05 20.953 7.063 20.939 C 7.065 20.936 7.063 20.932 7.061 20.932 C 7.058 20.932 7.056 20.929 7.057 20.927 C 7.139 20.696 7.248 20.409 7.33 20.065 C 7.482 19.052 7.481 17.533 7.481 17.533 L 7.481 15.018 C 7.468 11.706 11.089 10.462 12.356 10.043 L 12.466 10.004 C 12.475 10.001 12.484 10 12.493 10 C 12.502 10 12.511 10.001 12.52 10.004" transform="matrix(1 0 0 1 0 0)" fill="#FFFFFF" stroke="none" />
  <path d="M 23 7 L 20 7 L 20 11 L 16.593 11 C 16.444 10.872 16.292 10.752 16.139 10.64 C 16.093 10.606 16.046 10.573 16 10.541 L 16 7 L 13 7 L 18 1 L 23 7" transform="matrix(1 0 0 1 0 0)" fill="#FFFFFF" stroke="none" />
</svg>
