<?xml version="1.0" encoding="UTF-8"?>
<!-- Reconstructed from Amplitude.Graphics.Svg.SvgAsset and recolored from static UIMapper.Color metadata for EWShop; not original source SVG. Live UI state/material colors are not included. -->
<svg xmlns="http://www.w3.org/2000/svg" width="24" height="24" viewBox="0 0 24 24">
  <path d="M 6.182 2.31 L 10 1 L 8.636 2.571 L 9.727 5.19 L 7.545 6.5 L 8.636 8.595 L 5.909 9.643 L 6.182 12 L 4 9.119 L 6.182 8.071 L 4.273 5.19 L 7.273 4.405 L 6.182 2.31" transform="matrix(1 0 0 1 0 0)" fill="#FFFFFF" stroke="none" />
  <path d="M 0.474 10.406 L 2.286 8.205 L 2.054 9.685 L 3.697 10.937 L 2.873 12.547 L 4.319 13.47 L 3.067 15.113 L 4.118 16.496 L 1.718 15.473 L 2.641 14.027 L 0.406 12.906 L 1.92 11.329 L 0.474 10.406" transform="matrix(1 0 0 1 0 0)" fill="#FFFFFF" stroke="none" />
  <path d="M 4.539 15.286 L 7.677 15.51 L 7.315 17.368 L 9.728 17.355 L 8.925 19.995 L 10.783 20.356 L 9.777 23.052 L 9.47 21.161 L 7.204 20.913 L 7.565 19.055 L 5.651 18.49 L 5.899 16.225 L 4.539 15.286" transform="matrix(1 0 0 1 0 0)" fill="#FFFFFF" stroke="none" />
  <path d="M 23.504 18.312 L 16.197 21.897 L 14.338 18.957 C 14.31 18.61 14.771 18.153 15.285 17.644 C 15.804 17.13 16.376 16.562 16.557 16 C 15.068 17.47 12.88 18.211 10.833 17.69 C 10.435 17.588 10.186 17.215 10.14 16.808 C 10.094 16.399 10.02 15.98 9.928 15.564 C 10.99 15.328 11.589 16.042 11.757 16.435 C 13.404 16.435 12.901 15.52 12.444 15.063 C 11.758 14.001 9.902 13.772 9.501 14 C 9.406 13.705 9.307 13.422 9.209 13.159 C 9.209 13.159 8.313 12.579 8.327 12.02 C 8.369 11.548 8.663 11.209 8.957 10.872 C 9.213 10.577 9.469 10.282 9.555 9.9 C 9.664 9.419 9.651 8.916 9.638 8.399 C 9.624 7.858 9.609 7.3 9.734 6.733 C 10.804 1.93 16.513 1.011 20.389 3.032 C 22.287 4.02 23.707 7.121 23.504 9.183 C 23.419 10.045 22.914 11.105 22.429 12.123 C 21.935 13.159 21.461 14.151 21.473 14.847 C 21.483 15.398 22.169 16.284 22.744 17.028 C 23.219 17.641 23.619 18.158 23.504 18.312 M 14.538 9.824 C 13.135 9.702 11.984 8.771 11.408 8.123 C 11.314 8.018 11.136 8.053 11.111 8.191 C 10.942 9.122 11.345 9.692 11.744 9.978 C 11.943 10.12 12.167 10.226 12.388 10.331 L 12.463 10.366 C 13.512 10.865 14.27 10.483 14.656 10.079 C 14.749 9.982 14.672 9.836 14.538 9.824" transform="matrix(1 0 0 1 0 0)" fill="#FFFFFF" stroke="none" />
</svg>
