<?xml version="1.0" encoding="UTF-8"?>
<!-- Reconstructed from Amplitude.Graphics.Svg.SvgAsset and recolored from static UIMapper.Color metadata for EWShop; not original source SVG. Live UI state/material colors are not included. -->
<svg xmlns="http://www.w3.org/2000/svg" width="24" height="24" viewBox="0 0 24 24">
  <path d="M 5.8 12.13 C 5.8 8.7 8.58 5.93 12 5.93 C 12.05 5.93 12.1 5.93 12.15 5.93 L 12.65 5.16 C 12.44 5.14 12.22 5.13 12 5.13 C 8.13 5.13 5 8.27 5 12.13 C 5 13.33 5.3 14.47 5.84 15.46 L 6.29 14.56 C 5.97 13.82 5.8 13 5.8 12.14 L 5.8 12.13" transform="matrix(1 0 0 1 0 0)" fill="#FFFFFF" stroke="none" />
  <path d="M 9.02 18.48 C 9.02 18.48 9.07 18.48 9.09 18.48 C 9.41 18.45 9.66 18.22 9.73 17.9 C 9.81 17.59 9.68 17.26 9.4 17.08 C 9.09 16.89 8.78 16.7 8.46 16.52 C 8.07 16.3 7.57 16.49 7.43 16.92 C 7.39 17.04 7.39 17.17 7.39 17.31 C 7.39 17.38 7.39 17.44 7.39 17.51 C 6.7 17.4 6.11 18.15 6.54 18.92 C 6.52 18.93 6.5 18.95 6.48 18.95 C 6.19 19.07 6.02 19.28 6 19.6 C 5.98 19.92 6.11 20.16 6.38 20.32 C 6.48 20.38 6.58 20.44 6.69 20.5 C 6.89 20.62 7.09 20.74 7.29 20.85 C 7.76 21.12 8.35 20.78 8.36 20.22 C 8.36 20.14 8.36 20.06 8.34 19.98 C 8.34 19.98 8.33 19.89 8.32 19.84 C 8.62 19.79 8.86 19.63 9 19.35 C 9.14 19.07 9.1 18.77 8.96 18.48 C 8.98 18.48 9 18.48 9.02 18.48" transform="matrix(1 0 0 1 0 0)" fill="#FFFFFF" stroke="none" />
  <path d="M 12 2.38 C 12.89 2.38 13.76 2.51 14.58 2.76 L 16.21 1.92 C 14.91 1.33 13.49 1 12 1 C 5.92 1 1 6.42 1 13.1 C 1 15.18 1.48 17.14 2.32 18.84 L 3.03 17.28 C 2.53 15.99 2.26 14.58 2.26 13.1 C 2.26 7.18 6.62 2.38 12 2.38" transform="matrix(1 0 0 1 0 0)" fill="#FFFFFF" stroke="none" />
  <path d="M 15.36 19.43 C 14.73 19.07 14.09 18.69 13.52 18.35 C 13.44 18.3 13.36 18.22 13.31 18.13 C 13.12 17.77 12.93 17.41 12.74 17.04 C 12.55 16.68 12.36 16.31 12.17 15.95 C 12.12 15.86 12.04 15.76 11.95 15.71 C 10.91 15.05 9.85 14.39 8.8 13.72 C 8.66 13.63 8.52 13.55 8.37 13.47 C 8.32 13.44 8.27 13.41 8.21 13.38 C 7.8 13.99 7.91 14.66 8.28 15.29 C 8.49 15.64 9.26 16.06 9.75 16.33 C 9.86 16.39 9.96 16.44 10.04 16.49 C 10.11 16.53 10.22 16.72 10.22 16.72 C 10.32 17.09 10.46 17.4 10.59 17.7 C 10.73 18.01 10.87 18.32 10.97 18.71 C 11.02 18.86 10.99 18.96 10.92 19.09 L 9.3 21.99 C 10.19 22.52 10.91 22.52 11.62 22.52 C 12.31 22.52 12.99 22.52 13.81 23.01 C 13.81 23.01 14.98 22.56 16.39 20.04 C 16.06 19.85 15.71 19.64 15.35 19.44 L 15.36 19.43" transform="matrix(1 0 0 1 0 0)" fill="#FFFFFF" stroke="none" />
  <path d="M 20.64 20.58 C 22.12 18.52 23 15.92 23 13.1 C 23 8.95 21.1 5.29 18.2 3.11 L 18.38 5.01 C 20.43 6.97 21.73 9.87 21.73 13.1 C 21.73 14.89 21.33 16.57 20.63 18.05 L 20.63 20.58 L 20.64 20.58" transform="matrix(1 0 0 1 0 0)" fill="#FFFFFF" stroke="none" />
  <path d="M 17.18 3.48 C 17.18 3.48 17.03 2.94 16.5 3.09 L 14.36 4.35 C 14.29 4.37 14.18 4.5 14.18 4.5 L 10.09 11.8 L 8.5 10.86 C 8.1 10.62 7.69 10.75 7.46 11.17 C 7.23 11.57 7.35 12.02 7.75 12.26 L 9.75 13.45 L 13.85 15.89 C 14.25 16.13 14.68 16.02 14.91 15.6 C 15.14 15.2 15.03 14.74 14.62 14.5 L 13.06 13.57 L 17.15 6.27 C 17.19 6.19 17.2 6.1 17.18 6.02 L 17.18 3.48" transform="matrix(1 0 0 1 0 0)" fill="#FFFFFF" stroke="none" />
  <path d="M 17.15 8.67 C 17.82 9.66 18.2 10.85 18.2 12.13 C 18.2 13.16 17.95 14.14 17.5 15 L 17.5 16.47 C 18.44 15.28 19 13.77 19 12.14 C 19 10.51 18.47 9.07 17.57 7.89 L 17.15 8.67" transform="matrix(1 0 0 1 0 0)" fill="#FFFFFF" stroke="none" />
</svg>
