<?xml version="1.0" encoding="UTF-8"?>
<!-- Reconstructed from Amplitude.Graphics.Svg.SvgAsset and recolored from static UIMapper.Color metadata for EWShop; not original source SVG. Live UI state/material colors are not included. -->
<svg xmlns="http://www.w3.org/2000/svg" width="24" height="24" viewBox="0 0 24 24">
  <path d="M 12.435 0.916 L 14.262 1.7 L 12.5 6.501 L 12.435 0.916" transform="matrix(1 0 0 1 0 0)" fill="#FFFFFF" stroke="none" />
  <path d="M 19.599 11.075 L 20.221 8.536 L 12.779 11.744 L 19.599 11.075" transform="matrix(1 0 0 1 0 0)" fill="#FFFFFF" stroke="none" />
  <path d="M 19.229 13.055 L 18.344 14.835 L 13.65 12.807 L 19.229 13.055" transform="matrix(1 0 0 1 0 0)" fill="#FFFFFF" stroke="none" />
  <path d="M 15.186 16.545 L 13.598 17.741 L 12.652 13.132 L 15.186 16.545" transform="matrix(1 0 0 1 0 0)" fill="#FFFFFF" stroke="none" />
  <path d="M 4.292 6.028 C 4.75 7.308 5.398 9.117 6.458 10.527 C 4.768 11.189 4.183 13.7 4.037 14.756 C 3.513 15.552 2.896 16.339 2.329 16.712 C 1.02 17.575 0.806 18.244 1.5 18.901 C 2.239 19.601 3.35 20.766 3.624 21.767 C 3.899 22.778 4.56 22.928 6.131 22.949 C 6.447 22.953 6.702 22.958 6.91 22.961 C 7.765 22.975 7.796 22.976 7.965 22.909 C 8.175 22.826 8.868 22.248 7.98 22.03 C 7.09 21.813 6.396 21.57 6.165 20.892 L 6.157 20.871 L 6.155 20.863 C 5.914 20.156 5.195 18.044 5.706 17.617 C 5.997 17.197 6.732 16.279 7.35 15.507 L 10.662 12.665 C 10.698 12.63 10.738 12.597 10.781 12.562 C 10.972 12.403 11.211 12.206 11.284 11.655 L 11.031 11.83 C 10.43 12.247 9.605 12.107 9.175 11.515 C 8.732 10.904 8.877 10.048 9.498 9.618 L 10.996 8.579 C 10.714 6.482 10.283 3.61 9.877 2.294 C 9.777 1.969 9.561 1.693 9.277 1.499 C 7.896 0.554 6.012 0.787 4.905 2.041 L 4.224 2.812 C 3.72 3.383 3.529 4.177 3.845 4.864 C 3.975 5.145 4.12 5.55 4.292 6.028" transform="matrix(1 0 0 1 0 0)" fill="#FFFFFF" stroke="none" />
  <path d="M 15.532 5.689 L 15.493 4.027 C 15.49 3.874 15.558 3.729 15.678 3.634 L 16.477 3.005 L 16.659 3.9 L 17.137 2.486 L 18.933 1.073 C 19.001 1.019 19.1 1.075 19.089 1.161 L 18.86 3.087 C 18.85 3.169 18.744 3.704 18.644 4.092 L 19.385 3.551 L 21.3 3.114 L 19.009 4.868 C 19.715 4.71 20.909 4.48 21 4.5 L 22.956 4.877 C 23.041 4.895 23.062 5.007 22.989 5.054 L 21.074 6.3 L 19.623 6.3 L 20.37 6.758 L 19.518 7.312 C 19.39 7.395 19.23 7.413 19.086 7.361 L 17 7 C 16.955 6.983 16.763 6.825 16.629 6.691 L 10.614 11.297 L 10.487 11.282 C 10.083 11.237 9.819 10.836 9.936 10.447 L 15.794 6.172 C 15.677 6.008 15.533 5.741 15.532 5.689" transform="matrix(1 0 0 1 0 0)" fill="#FFFFFF" stroke="none" />
  <path d="M 23.001 19.385 L 19.084 15.771 L 15.291 19.385 L 17.055 19.385 L 19.084 17.646 L 21.113 19.385 L 23.001 19.385" transform="matrix(1 0 0 1 0 0)" fill="#FFFFFF" stroke="none" />
  <path d="M 23.001 23 L 19.084 19.385 L 15.291 23 L 17.055 23 L 19.084 21.261 L 21.113 23 L 23.001 23" transform="matrix(1 0 0 1 0 0)" fill="#FFFFFF" stroke="none" />
</svg>
