<?xml version="1.0" encoding="UTF-8"?>
<!-- Reconstructed from Amplitude.Graphics.Svg.SvgAsset and recolored from static UIMapper.Color metadata for EWShop; not original source SVG. Live UI state/material colors are not included. -->
<svg xmlns="http://www.w3.org/2000/svg" width="24" height="24" viewBox="0 0 24 24">
  <path d="M 23 22.999 L 21.112 22.999 L 19.084 21.261 L 17.054 22.999 L 15.291 22.999 L 19.084 19.385 L 23 22.999" transform="matrix(1 0 0 1 0 0)" fill="#FFFFFF" stroke="none" />
  <path d="M 17.42 2.823 C 19.557 1.001 21.429 2.709 20.865 6.095 C 22.928 7.577 23.532 10.778 22.519 13.198 C 22.105 14.187 21.469 15.151 20.643 15.849 L 19.762 15.035 C 19.374 14.678 18.775 14.683 18.393 15.046 L 16.452 16.896 C 16.071 16.851 15.683 16.824 15.34 16.87 C 15.002 16.916 14.492 16.964 14.272 17.107 C 13.903 17.346 13.75 18.458 13.192 18.951 C 12.75 19.342 11.534 19.745 11.241 20.016 C 10.948 20.287 10.027 22.069 9.882 22.081 L 6.771 20.016 C 6.786 20.007 7.491 19.587 8.026 19.471 C 8.18 19.438 9.235 20.078 9.354 20.016 C 9.641 19.864 9.945 19.854 10.257 19.643 C 11.124 19.058 11.882 17.429 12.212 16.443 C 11.594 16.492 10.717 16.467 10.091 16.501 C 9.136 16.553 8.545 16.49 7.621 16.87 C 7.241 17.027 6.928 17.528 6.532 17.585 C 6.39 17.574 4.43 16.027 4.251 15.822 L 4.249 15.818 C 4.091 15.635 3.977 15.376 4.005 15.124 C 4.217 14.912 6.181 15.89 6.532 15.943 C 6.772 15.978 8.373 15.722 8.746 15.673 C 10.268 15.477 12.032 14.097 13.467 13.85 C 14.722 13.636 16.364 14.459 17.108 13.746 C 17.422 13.238 18.435 12.242 18.753 11.657 C 19.088 11.036 18.913 10.801 18.929 10.12 C 17.805 10.342 16.666 10.723 15.515 10.834 C 14.365 10.945 13.341 10.474 12.202 10.397 C 11.579 10.354 10.76 11.48 10.196 10.454 C 10.718 9.326 11.397 9.85 12.185 9.825 C 13.071 9.797 14.404 9.7 15.137 9.569 C 15.521 9.499 16.026 9.386 16.479 9.248 C 16.896 9.122 16.844 8.874 16.842 8.862 C 14.333 8.873 13.157 8.767 10.673 8.377 C 9.949 8.264 9.574 7.643 8.705 8.386 L 8.153 8.449 L 7.956 8.102 L 8.696 7.149 C 9.843 7.346 11.002 7.203 12.154 7.259 C 12.797 7.291 13.719 7.605 14.364 7.574 C 15.742 7.506 17.341 6.529 18.775 6.695 C 19.558 5.962 17.385 6.069 17.283 5.897 C 17.228 5.814 17.214 5.46 17.108 5.049 C 16.929 4.357 17.241 3.168 17.42 2.823" transform="matrix(1 0 0 1 0 0)" fill="#FFFFFF" stroke="none" />
  <path d="M 23 19.385 L 21.112 19.385 L 19.084 17.646 L 17.054 19.385 L 15.291 19.385 L 19.084 15.77 L 23 19.385" transform="matrix(1 0 0 1 0 0)" fill="#FFFFFF" stroke="none" />
  <path d="M 5.878 20.467 C 5.955 20.619 6.071 20.752 6.218 20.85 L 7.535 21.724 L 1.268 21 L 5.878 20.467" transform="matrix(1 0 0 1 0 0)" fill="#FFFFFF" stroke="none" />
  <path d="M 10.564 17.704 C 10.255 18.253 9.954 18.625 9.725 18.793 L 8.843 18.713 C 8.789 18.687 8.737 18.66 8.687 18.638 C 8.614 18.606 8.523 18.567 8.43 18.537 C 8.384 18.522 8.316 18.502 8.236 18.488 C 8.177 18.478 8.01 18.451 7.81 18.495 C 7.698 18.519 7.586 18.552 7.477 18.588 L 6.87 18.533 C 7.065 18.479 7.226 18.394 7.35 18.316 C 7.509 18.216 7.645 18.101 7.737 18.021 C 7.849 17.924 7.901 17.876 7.964 17.826 C 7.992 17.804 8.008 17.794 8.014 17.79 L 8.257 17.699 C 8.662 17.564 8.974 17.546 9.461 17.528 L 10.145 17.5 C 10.305 17.491 10.484 17.487 10.679 17.483 C 10.64 17.557 10.604 17.632 10.564 17.704" transform="matrix(1 0 0 1 0 0)" fill="#FFFFFF" stroke="none" />
  <path d="M 4.895 17.646 C 5.129 17.827 5.361 18.004 5.553 18.143 C 5.661 18.221 5.767 18.296 5.856 18.354 C 5.9 18.381 5.953 18.415 6.009 18.445 C 6.016 18.449 6.025 18.452 6.034 18.457 L 1 18 L 4.895 17.646" transform="matrix(1 0 0 1 0 0)" fill="#FFFFFF" stroke="none" />
  <path d="M 17.149 12.103 C 16.912 12.378 16.608 12.723 16.392 13.022 C 16.372 13.026 16.345 13.035 16.307 13.038 C 16.151 13.053 15.934 13.039 15.614 12.995 C 15.341 12.958 14.921 12.887 14.565 12.85 C 14.186 12.81 13.743 12.789 13.298 12.865 C 12.639 12.979 11.949 13.275 11.329 13.573 L 1 13 L 17.149 12.103" transform="matrix(1 0 0 1 0 0)" fill="#FFFFFF" stroke="none" />
  <path d="M 7.118 7.559 C 6.966 7.793 6.92 8.076 6.985 8.342 L 1 8 C 2.035 7.869 4.426 7.711 7.118 7.559" transform="matrix(1 0 0 1 0 0)" fill="#FFFFFF" stroke="none" />
  <path d="M 16.278 3.053 C 16.227 3.238 16.181 3.434 16.146 3.626 C 16.08 3.987 16.026 4.457 16.073 4.913 L 1 4 C 3.06 3.813 12.775 3.231 16.278 3.053" transform="matrix(1 0 0 1 0 0)" fill="#FFFFFF" stroke="none" />
</svg>
