<?xml version="1.0" encoding="UTF-8"?>
<!-- Reconstructed from Amplitude.Graphics.Svg.SvgAsset and recolored from static UIMapper.Color metadata for EWShop; not original source SVG. Live UI state/material colors are not included. -->
<svg xmlns="http://www.w3.org/2000/svg" width="24" height="24" viewBox="0 0 24 24">
  <path d="M 6.022 10.936 L 4.391 12.591 C 4.543 12.591 5.533 12.591 6.739 12.612 C 9.62 12.634 11.946 14.954 11.946 17.801 L 11.946 22.345 C 11.946 22.699 11.652 22.989 11.294 22.989 C 10.935 22.989 10.641 22.699 10.641 22.345 L 10.641 17.962 C 10.641 15.76 8.848 13.966 6.63 13.933 L 4.467 13.901 C 4.793 14.159 5.924 15.212 6.174 15.491 C 6.707 16.082 6.022 16.963 5.261 16.436 C 4.228 15.727 2.25 13.89 2.25 13.89 C 1.88 13.472 1.978 13.203 2.315 12.816 C 2.315 12.816 4.196 11.044 5.022 10.12 C 5.598 9.69 6.359 10.281 6.033 10.936 L 6.022 10.936" transform="matrix(1 0 0 1 0 0)" fill="#FFFFFF" stroke="none" />
  <path d="M 12.229 7.733 C 11.814 7.733 11.43 7.4 11.493 6.956 C 11.513 6.833 11.534 6.722 11.576 6.611 C 11.679 6.289 11.835 5.989 12.022 5.722 C 12.219 5.456 12.427 5.2 12.644 4.956 C 12.852 4.711 13.039 4.478 13.174 4.244 C 13.319 4.011 13.392 3.767 13.392 3.511 C 13.392 3.167 13.288 2.889 13.07 2.678 C 12.873 2.467 12.582 2.356 12.219 2.356 C 11.918 2.356 11.648 2.422 11.41 2.556 C 11.306 2.611 11.202 2.678 11.109 2.756 C 10.87 2.933 10.559 2.989 10.299 2.833 C 9.926 2.6 9.895 2.056 10.247 1.8 C 10.486 1.633 10.745 1.467 10.943 1.356 C 11.389 1.111 11.877 1 12.416 1 C 13.163 1 13.776 1.2 14.263 1.6 C 14.751 2 15 2.6 15 3.389 C 15 3.756 14.927 4.078 14.772 4.367 C 14.626 4.656 14.45 4.922 14.222 5.178 L 13.589 5.922 C 13.381 6.167 13.205 6.444 13.08 6.733 C 13.06 6.789 13.028 6.856 13.008 6.911 C 12.831 7.333 12.665 7.733 12.229 7.733 M 12.24 11 C 11.939 11 11.69 10.889 11.472 10.678 C 11.275 10.467 11.171 10.2 11.171 9.867 C 11.171 9.533 11.275 9.267 11.472 9.056 C 11.679 8.844 11.939 8.733 12.24 8.733 C 12.541 8.733 12.8 8.844 13.008 9.056 C 13.215 9.267 13.329 9.533 13.329 9.867 C 13.329 10.2 13.226 10.467 13.008 10.678 C 12.811 10.889 12.551 11 12.24 11" transform="matrix(1 0 0 1 0 0)" fill="#FFFFFF" stroke="none" />
  <path d="M 14.087 15.298 C 14.837 14.342 15.989 13.73 17.304 13.708 L 19.5 13.676 C 19.174 13.934 18.011 15.008 17.761 15.287 C 17.217 15.889 17.913 16.78 18.696 16.243 C 19.739 15.524 21.75 13.654 21.75 13.654 C 22.13 13.235 22.022 12.956 21.685 12.569 C 21.685 12.569 19.772 10.765 18.935 9.83 C 18.348 9.39 17.576 9.991 17.902 10.668 L 19.565 12.355 C 19.413 12.355 18.413 12.355 17.185 12.376 C 15.696 12.387 14.359 12.999 13.402 13.977 C 13.685 14.385 13.913 14.825 14.098 15.298 L 14.087 15.298" transform="matrix(1 0 0 1 0 0)" fill="#FFFFFF" stroke="none" />
</svg>
