<?xml version="1.0" encoding="UTF-8"?>
<!-- Reconstructed from Amplitude.Graphics.Svg.SvgAsset and recolored from static UIMapper.Color metadata for EWShop; not original source SVG. Live UI state/material colors are not included. -->
<svg xmlns="http://www.w3.org/2000/svg" width="24" height="24" viewBox="0 0 24 24">
  <path d="M 12.028 4.429 C 12.132 4.319 12.241 4.213 12.356 4.111 L 11.332 1.302 L 13.605 3.275 C 13.743 3.208 13.883 3.147 14.025 3.093 L 14.195 1 L 14.543 2.998 L 14.784 3.716 C 14.423 3.84 13.785 4.175 13.452 4.397 C 11.387 5.779 10.833 8.572 12.215 10.637 C 12.381 10.886 12.558 11.189 12.762 11.393 L 6.981 14.138 L 11.092 10.483 C 11.025 10.345 10.965 10.205 10.91 10.063 L 8.498 10.616 L 10.734 9.517 C 10.695 9.368 10.662 9.219 10.636 9.069 L 4.672 8.806 L 10.569 7.747 C 10.579 7.622 10.592 7.497 10.61 7.372 L 8.334 6.625 L 10.723 6.802 C 10.76 6.658 10.802 6.515 10.851 6.374 L 5.17 2.561 L 11.415 5.21 C 11.491 5.093 11.571 4.979 11.656 4.867 L 10.009 2.998 L 12.028 4.429" transform="matrix(1 0 0 1 0 0)" fill="#FFFFFF" stroke="none" />
  <path d="M 2.22 4.727 C 2.501 6.903 3.889 14.785 3.889 14.785 L 3.884 14.782 C 3.909 15.213 3.1 15.891 3.004 15.76 C 3.004 15.76 1.043 3.512 1.631 1.526 C 1.631 1.519 1.633 1.513 1.637 1.508 C 1.645 1.499 1.658 1.494 1.671 1.489 C 1.69 1.481 1.708 1.486 1.724 1.504 C 2.973 3.112 5.647 15.217 5.647 15.217 C 5.68 15.367 4.579 15.152 4.365 14.684 C 4.365 14.684 2.834 6.833 2.321 4.704 C 2.272 4.506 2.195 4.525 2.22 4.727" transform="matrix(1 0 0 1 0 0)" fill="#FFFFFF" stroke="none" />
  <path d="M 6.49 15.454 C 6.079 15.627 4.929 15.835 4.18 15.057 C 3.768 16.071 2.752 16.314 2.308 16.316 C 2.188 16.148 1.981 16.055 1.765 16.1 C 1.516 16.15 1.344 16.359 1.329 16.599 L 1.358 16.826 C 1.446 17.072 1.702 17.219 1.967 17.166 C 2.199 17.118 2.366 16.927 2.397 16.706 L 6.547 15.849 C 6.658 16.04 6.882 16.151 7.114 16.104 C 7.379 16.05 7.559 15.81 7.556 15.544 L 7.497 15.318 C 7.391 15.11 7.156 14.984 6.912 15.037 C 6.696 15.082 6.537 15.25 6.486 15.45 L 6.49 15.454" transform="matrix(1 0 0 1 0 0)" fill="#FFFFFF" stroke="none" />
  <path d="M 4.277 18.336 C 4.168 17.844 4.074 17.459 4.031 17.358 C 3.816 17.267 3.649 17.074 3.604 16.829 L 5.534 16.43 C 5.584 16.678 5.497 16.918 5.33 17.089 C 5.326 17.212 5.399 17.675 5.501 18.241 C 5.547 18.267 5.595 18.295 5.644 18.323 C 5.731 18.339 5.914 18.391 6.153 18.458 C 6.84 18.651 7.992 18.976 8.679 18.976 C 8.679 18.976 10.07 19.044 10.166 18.976 C 10.229 18.93 10.246 18.82 10.277 18.617 C 10.317 18.351 10.382 17.926 10.608 17.28 C 10.754 16.861 10.886 16.265 11.022 15.645 C 11.243 14.644 11.478 13.58 11.812 13.093 C 12.093 12.682 12.767 12.399 13.387 12.139 C 13.959 11.899 14.484 11.679 14.612 11.395 C 15.072 10.368 14.694 10.103 14.283 9.816 C 14.083 9.676 13.875 9.53 13.752 9.288 C 13.22 8.24 14.61 5.235 15.631 4.707 C 16.987 4.006 18.566 4.91 18.937 6.306 C 19.217 7.358 18.644 8.154 18.114 8.89 C 17.651 9.534 17.221 10.131 17.424 10.813 C 17.591 11.378 18.351 11.798 19.049 12.184 C 19.545 12.457 20.009 12.714 20.207 12.992 C 20.644 13.605 20.856 14.512 21.082 15.477 C 21.34 16.583 21.617 17.765 22.269 18.671 C 22.344 18.777 22.534 19.001 22.789 19.288 L 21.481 21 C 21.082 20.613 21.218 20.584 21.082 20.433 C 20.686 19.997 20.397 19.805 20.14 19.243 C 19.804 18.506 19.466 17.764 18.806 17.287 C 18.619 18.366 18.485 18.789 18.155 19.756 C 18.155 21.392 18.197 21.476 18.558 22.208 C 18.606 22.305 18.66 22.414 18.72 22.54 C 18.791 22.688 18.864 22.841 18.937 23 L 11.473 23 C 11.555 22.554 11.658 22.112 11.76 21.669 C 11.831 21.367 11.94 21.032 12.06 20.664 C 12.448 19.472 12.949 17.936 12.595 16.049 L 11.413 20.64 C 10.938 21.542 10.74 21.396 10.185 20.986 C 8.424 20.943 7.171 20.427 6.57 20.177 L 6.107 20.64 L 5.976 20.672 C 6.01 20.833 6.036 20.946 6.047 20.988 C 6 20.998 5.931 21.013 5.849 21.03 C 5.613 21.079 5.272 21.147 5.041 21.189 L 4.998 21.197 L 4.94 21.207 L 4.892 21.215 L 4.86 21.22 C 4.855 21.167 4.828 21.011 4.786 20.789 L 4.254 19.713 L 4.127 18.386 L 4.277 18.336" transform="matrix(1 0 0 1 0 0)" fill="#FFFFFF" stroke="none" />
</svg>
