<?xml version="1.0" encoding="UTF-8"?>
<!-- Reconstructed from Amplitude.Graphics.Svg.SvgAsset and recolored from static UIMapper.Color metadata for EWShop; not original source SVG. Live UI state/material colors are not included. -->
<svg xmlns="http://www.w3.org/2000/svg" width="24" height="24" viewBox="0 0 24 24">
  <path d="M 8.535 1.19 L 11.855 1.566 L 13.061 7.475 L 8.535 1.19" transform="matrix(1 0 0 1 0 0)" fill="#FFFFFF" stroke="none" />
  <path d="M 1.28 10 L 1.065 12.54 L 5.305 14.326 L 1.28 10" transform="matrix(1 0 0 1 0 0)" fill="#FFFFFF" stroke="none" />
  <path d="M 2.491 15.195 L 1.732 14.03 L 4.914 14.543 L 2.491 15.195" transform="matrix(1 0 0 1 0 0)" fill="#FFFFFF" stroke="none" />
  <path d="M 15.302 3.382 L 13.608 4.054 L 13.819 7.337 L 15.302 3.382" transform="matrix(1 0 0 1 0 0)" fill="#FFFFFF" stroke="none" />
  <path d="M 16.374 11.401 C 15.651 11.366 14.926 11.331 14.308 11.071 L 14.336 11.029 L 14.274 10.675 C 14.24 10.482 14.191 10.289 14.121 10.1 C 14.416 9.92 14.685 9.702 14.954 9.483 C 15.295 9.207 15.634 8.932 16.019 8.739 C 16.054 8.721 16.092 8.702 16.131 8.682 C 16.467 8.506 16.895 8.283 17.109 8.657 C 17.307 9.001 16.841 9.266 16.39 9.522 C 16.088 9.694 15.793 9.862 15.707 10.047 C 15.824 10.634 16.954 10.025 17.283 9.797 C 17.877 9.383 18.391 8.637 18.894 7.904 C 19.253 7.383 19.607 6.868 19.982 6.486 C 20.408 6.051 21.404 5.195 21.553 6.165 C 21.586 6.379 21.052 6.832 20.668 7.157 C 20.527 7.276 20.407 7.378 20.343 7.445 C 20.023 7.774 18.691 9.229 19.493 9.522 C 19.813 9.639 20.453 9.104 20.963 8.677 C 21.176 8.498 21.367 8.339 21.502 8.254 C 21.807 8.065 22.672 7.544 22.709 8.181 C 22.719 8.365 22.391 8.582 22.027 8.822 C 21.539 9.144 20.986 9.509 21.094 9.899 C 21.23 10.392 22 10.318 22.604 10.26 C 22.931 10.229 23.209 10.202 23.314 10.272 C 23.435 10.352 23.404 10.639 23.329 10.733 C 22.952 11.21 21.45 11.076 20.917 10.95 C 20.693 10.897 20.454 10.794 20.208 10.689 C 19.624 10.437 19.003 10.171 18.461 10.516 C 18.411 10.704 18.75 10.9 19.125 11.118 C 19.613 11.401 20.164 11.721 20.01 12.107 C 19.559 12.485 19.24 12.257 18.902 12.014 C 18.783 11.929 18.662 11.842 18.533 11.779 C 17.902 11.476 17.139 11.439 16.374 11.401" transform="matrix(1 0 0 1 0 0)" fill="#FFFFFF" stroke="none" />
  <path d="M 13.764 11.9 C 13.585 13.028 14.341 13.892 15.083 14.739 C 15.58 15.307 16.07 15.867 16.27 16.495 C 16.299 16.589 16.318 16.728 16.34 16.881 C 16.399 17.311 16.475 17.863 16.852 17.911 C 16.977 17.927 17.271 17.842 17.337 17.751 L 17.336 17.753 C 17.419 17.636 17.326 17.195 17.229 16.735 C 17.112 16.179 16.989 15.596 17.164 15.523 C 17.816 15.695 18.038 16.321 18.249 16.917 C 18.329 17.144 18.408 17.367 18.509 17.559 C 18.874 18.25 19.66 19.295 20.565 19.179 C 20.948 18.932 20.564 18.597 20.135 18.222 C 19.696 17.839 19.21 17.414 19.447 16.998 C 19.677 16.596 20.226 16.704 20.757 16.807 C 21.097 16.873 21.429 16.938 21.664 16.867 C 22.201 16.705 22.067 16.318 21.649 16.096 L 18.882 15.76 C 18.005 14.766 20.056 14.556 20.762 14.518 C 20.891 14.511 21.066 14.524 21.26 14.539 C 21.791 14.579 22.459 14.629 22.683 14.302 C 22.817 13.865 22.565 13.657 22.178 13.575 C 21.407 13.412 20.438 13.606 19.454 13.804 C 18.046 14.086 16.607 14.375 15.671 13.633 C 15.388 13.409 15.558 13.138 15.893 13.109 C 15.945 13.104 16.083 13.143 16.259 13.191 C 16.794 13.339 17.685 13.586 17.649 13.043 C 17.606 12.389 16.579 12.287 15.581 12.187 C 14.862 12.116 14.157 12.045 13.849 11.771 L 13.764 11.9" transform="matrix(1 0 0 1 0 0)" fill="#FFFFFF" stroke="none" />
  <path d="M 11.617 15.171 C 11.594 15.436 11.581 15.705 11.569 15.974 C 11.54 16.609 11.51 17.246 11.334 17.832 C 11.256 18.091 11.101 18.32 10.95 18.542 C 10.656 18.976 10.379 19.385 10.731 19.942 C 11.265 19.838 11.484 19.436 11.706 19.03 C 11.897 18.679 12.091 18.325 12.49 18.157 C 12.968 18.282 12.474 19.615 12.136 20.528 C 12.004 20.886 11.895 21.18 11.878 21.311 C 11.804 21.878 11.742 23.503 12.564 23.428 C 12.818 23.323 12.775 22.901 12.727 22.432 C 12.665 21.833 12.596 21.157 13.128 20.962 C 13.224 20.927 13.407 20.906 13.5 20.948 L 13.5 20.949 C 13.734 21.054 13.936 21.388 14.143 21.731 C 14.489 22.302 14.849 22.897 15.393 22.483 C 15.418 21.832 14.856 21.236 14.347 20.698 C 14.028 20.361 13.731 20.046 13.613 19.754 C 13.5 19.475 13.659 19.041 13.977 19.006 C 14.659 18.931 15.394 19.731 16.028 20.421 C 16.413 20.84 16.761 21.219 17.038 21.339 C 17.773 21.656 17.842 20.859 17.456 20.317 C 17.417 20.262 16.654 19.568 16.495 19.428 C 16.22 19.187 15.835 18.922 15.416 18.634 C 14.219 17.809 12.744 16.793 12.77 15.6 C 12.792 14.603 13.47 15.695 13.851 16.309 C 13.971 16.502 14.062 16.648 14.093 16.667 C 14.393 16.847 14.812 16.709 14.768 16.314 C 14.704 15.73 14.112 14.954 13.574 14.248 C 13.301 13.889 13.041 13.548 12.871 13.26 L 11.617 15.171" transform="matrix(1 0 0 1 0 0)" fill="#FFFFFF" stroke="none" />
  <path d="M 10.06 15.004 C 10.28 14.928 10.473 14.809 10.638 14.658 C 10.631 14.72 10.624 14.782 10.618 14.845 C 10.578 15.222 10.539 15.593 10.464 15.918 C 10.446 15.993 10.431 16.067 10.416 16.14 C 10.334 16.544 10.26 16.906 9.844 17.157 C 9.223 17.065 9.387 16.521 9.543 16 C 9.654 15.628 9.762 15.268 9.58 15.091 C 9.736 15.086 9.897 15.06 10.06 15.004" transform="matrix(1 0 0 1 0 0)" fill="#FFFFFF" stroke="none" />
  <path d="M 9.121 15.046 C 9.144 15.051 9.167 15.056 9.191 15.06 C 8.761 15.398 8.606 16.971 8.631 17.312 C 8.651 17.577 8.738 18.014 8.839 18.52 C 9.097 19.82 9.447 21.579 8.99 22.078 C 8.692 22.403 8.353 22.184 8.211 21.836 C 8.124 21.62 8.148 21.152 8.172 20.656 C 8.196 20.177 8.221 19.671 8.149 19.34 C 8.048 18.87 7.871 18.377 7.466 18.091 C 6.844 18.181 6.867 18.533 6.891 18.902 C 6.899 19.021 6.906 19.142 6.893 19.257 L 6.894 19.257 C 6.886 19.322 6.871 19.417 6.854 19.519 C 6.839 19.614 6.822 19.716 6.809 19.807 L 6.808 19.814 C 6.768 20.105 6.497 22.08 5.924 21.413 C 5.706 21.121 5.804 20.681 5.901 20.244 C 6.02 19.713 6.137 19.186 5.686 18.933 C 5.265 18.697 4.794 19.232 4.39 19.692 C 4.074 20.05 3.799 20.362 3.621 20.226 C 3.064 19.487 4.466 18.413 5.081 18.076 C 5.181 18.022 5.359 17.952 5.571 17.868 C 6.281 17.589 7.375 17.158 7.187 16.661 L 6.995 16.454 C 6.941 16.466 6.853 16.492 6.741 16.524 C 6.159 16.693 4.953 17.042 4.851 16.612 C 4.725 16.081 5.435 15.937 6.044 15.813 C 6.309 15.76 6.556 15.71 6.706 15.633 C 7.078 15.443 7.5 15.046 7.927 14.644 L 8.053 14.526 C 8.362 14.753 8.726 14.958 9.121 15.046" transform="matrix(1 0 0 1 0 0)" fill="#FFFFFF" stroke="none" />
  <path d="M 11.552 13.352 C 11.197 13.633 10.697 13.64 10.334 13.368 L 9.395 12.667 C 9.192 12.515 9.05 12.284 9.062 12.031 C 9.107 11.088 9.765 10.834 10.681 10.52 L 9.877 9.969 C 8.024 10.61 8.281 12.623 9.656 13.672 C 8.653 15.016 6.506 12.332 6.043 11.373 C 5.506 10.267 5.933 9.395 5.663 8.307 L 1 7.589 C -0.087 6.378 1.217 2.136 2.604 2.5 C 3.287 2.681 7.319 4.49 7.953 4.894 C 8.713 5.381 12.031 8.408 12.72 9.152 C 13.029 9.476 13.19 9.86 13.266 10.299 L 12.888 11.775 C 12.779 12.199 12.534 12.576 12.191 12.847 L 11.552 13.352" transform="matrix(1 0 0 1 0 0)" fill="#FFFFFF" stroke="none" />
</svg>
