<?xml version="1.0" encoding="UTF-8"?>
<!-- Reconstructed from Amplitude.Graphics.Svg.SvgAsset and recolored from static UIMapper.Color metadata for EWShop; not original source SVG. Live UI state/material colors are not included. -->
<svg xmlns="http://www.w3.org/2000/svg" width="24" height="24" viewBox="0 0 24 24">
  <path d="M 3.906 12.146 L 4.113 11.231 C 4.153 11.059 4.358 10.985 4.498 11.093 C 4.669 11.226 4.915 11.084 4.886 10.869 L 4.732 9.729 C 4.724 9.671 4.724 9.612 4.73 9.554 L 4.902 8.032 C 4.944 7.665 5.019 7.303 5.127 6.95 L 5.633 5.298 C 5.881 4.485 6.299 3.735 6.859 3.097 L 7.474 2.397 C 7.659 2.185 7.861 1.989 8.078 1.811 C 8.887 1.146 9.879 0.741 10.922 0.65 L 11.597 0.592 C 12.213 0.538 12.834 0.58 13.437 0.717 L 14.339 0.92 C 15.278 1.132 16.152 1.567 16.887 2.187 L 17.355 2.582 C 17.781 2.942 18.154 3.361 18.462 3.827 C 18.914 4.513 19.217 5.287 19.35 6.097 L 19.811 8.914 C 19.833 9.048 19.816 9.185 19.762 9.309 L 19.314 10.331 C 19.199 10.591 19.475 10.851 19.728 10.722 C 19.869 10.651 20.04 10.699 20.123 10.833 L 20.408 11.294 C 20.473 11.399 20.516 11.518 20.533 11.641 L 20.618 12.257 C 20.727 13.049 20.586 13.856 20.214 14.564 L 19.115 16.656 C 19.028 16.822 18.857 16.925 18.67 16.925 C 18.408 16.925 18.19 17.126 18.168 17.386 L 18.046 18.837 C 18.014 19.205 17.886 19.559 17.673 19.862 L 16.849 21.034 C 16.145 22.035 15.152 22.796 14.003 23.217 L 13.715 23.322 C 12.521 23.76 11.209 23.757 10.016 23.315 C 9.193 23.009 8.458 22.506 7.875 21.85 L 6.525 20.329 C 6.193 19.955 6.01 19.472 6.01 18.971 L 6.01 17.292 C 6.01 17.089 5.846 16.925 5.644 16.925 C 5.505 16.925 5.378 16.847 5.316 16.723 L 4.379 14.849 C 4.262 14.614 4.231 14.346 4.292 14.091 C 4.344 13.871 4.328 13.641 4.247 13.431 L 3.941 12.634 C 3.881 12.478 3.869 12.308 3.906 12.146 M 18.541 11.405 C 18.553 10.822 18.269 7.23 18.162 6.62 C 17.244 1.45 11.971 0.46 8.647 2.635 C 8.372 2.815 8.108 3.06 7.861 3.354 C 7.861 3.354 7.273 3.727 6.285 5.909 C 5.298 8.092 6.285 11.739 6.285 11.739 C 6.285 11.739 7.427 12.958 11.862 12.958 C 16.297 12.958 18.541 11.405 18.541 11.405 M 12 13.576 L 10.253 16.318 L 12 17.858 L 12 13.576" transform="matrix(1 0 0 1 0 0)" fill="#FFFFFF" stroke="none" />
  <path d="M 11.18 5.152 C 11.335 5.553 11.646 5.618 12.047 5.479 C 12.398 5.356 12.406 4.874 12.406 4.449 C 12.406 4.302 12.406 4.171 12.422 4.057 C 12.428 3.971 12.454 3.88 12.48 3.789 C 12.491 3.75 12.503 3.711 12.512 3.672 C 12.627 3.28 12.741 2.888 12.267 2.643 C 11.94 2.479 11.581 2.593 11.327 2.847 C 11.008 3.166 11.025 4.735 11.188 5.16 L 11.18 5.152" transform="matrix(1 0 0 1 0 0)" fill="#FFFFFF" stroke="none" />
  <path d="M 10.477 5.364 C 10.459 5.296 10.445 5.223 10.432 5.156 C 10.428 5.135 10.424 5.114 10.42 5.094 C 10.338 4.767 10.265 4.465 10.265 4.105 C 10.265 4.017 10.284 3.891 10.304 3.76 C 10.31 3.72 10.316 3.679 10.322 3.639 C 10.363 3.418 10.395 3.206 10.371 3.1 C 10.224 2.462 9.128 2.887 8.924 3.402 C 8.801 3.705 8.949 4.702 9.096 4.996 C 9.357 5.536 10.003 5.854 10.461 5.364 L 10.477 5.364" transform="matrix(1 0 0 1 0 0)" fill="#FFFFFF" stroke="none" />
  <path d="M 13.184 5.176 C 13.355 5.658 14.132 5.667 14.418 5.282 C 14.622 4.996 14.859 3.517 14.761 3.19 C 14.63 2.732 13.699 2.748 13.429 3.116 C 13.224 3.402 13.061 4.825 13.175 5.168 L 13.184 5.176" transform="matrix(1 0 0 1 0 0)" fill="#FFFFFF" stroke="none" />
  <path d="M 14.818 6.173 C 14.818 6.173 14.978 6.668 15.519 6.668 C 16.06 6.668 16.273 6.049 16.273 6.049 C 16.273 6.049 16.665 4.512 16.019 4.193 C 15.059 3.718 14.919 4.811 14.821 5.578 L 14.818 5.608 C 14.805 5.743 14.818 6.173 14.818 6.173" transform="matrix(1 0 0 1 0 0)" fill="#FFFFFF" stroke="none" />
  <path d="M 16.224 10.784 C 16.224 10.784 16.703 9.378 16.597 8.192 L 16.589 8.119 L 16.588 8.111 C 16.556 7.702 16.504 7.057 15.976 7.113 C 15.338 7.179 13.826 7.923 13.36 8.356 C 13.041 8.642 12.943 9.378 12.87 10.007 C 12.867 10.025 12.848 10.113 12.827 10.208 C 12.801 10.328 12.772 10.459 12.774 10.466 L 12.512 10.466 C 12.236 9.536 11.868 9.174 11.251 8.566 C 11.173 8.489 11.092 8.409 11.006 8.323 C 11.799 8.25 13.36 7.718 13.679 6.958 C 13.883 6.476 13.368 6.353 12.984 6.263 L 12.943 6.255 C 11.848 5.977 10.197 6.173 9.109 6.459 C 7.79 6.801 7.81 6.876 8.06 7.854 L 8.063 7.865 C 8.085 7.939 8.104 8.02 8.125 8.106 C 8.143 8.183 8.163 8.263 8.186 8.348 C 8.374 9.173 8.635 9.991 8.938 10.784 L 9.147 11.249 C 9.295 11.275 9.453 11.3 9.622 11.322 C 9.826 11.344 10.084 11.372 10.368 11.4 C 10.807 11.435 11.303 11.455 11.862 11.455 C 13.302 11.455 14.475 11.277 15.381 11.054 C 15.874 10.906 16.224 10.784 16.224 10.784" transform="matrix(1 0 0 1 0 0)" fill="#FFFFFF" stroke="none" />
</svg>
