<?xml version="1.0" encoding="UTF-8"?>
<!-- Reconstructed from Amplitude.Graphics.Svg.SvgAsset and recolored from static UIMapper.Color metadata for EWShop; not original source SVG. Live UI state/material colors are not included. -->
<svg xmlns="http://www.w3.org/2000/svg" width="24" height="24" viewBox="0 0 24 24">
  <path d="M 15.099 9.162 C 16.157 10.994 15.529 13.338 13.696 14.396 C 11.864 15.454 9.52 14.826 8.462 12.993 C 7.404 11.161 8.032 8.817 9.865 7.759 C 11.697 6.701 14.041 7.329 15.099 9.162" transform="matrix(1 0 0 1 0 0)" fill="none" stroke="#FFFFFF" stroke-width="1" />
  <path d="M 14.7 9.39 C 15.631 11.003 15.078 13.065 13.466 13.996 C 11.853 14.927 9.791 14.374 8.86 12.762 C 7.929 11.149 8.482 9.087 10.094 8.156 C 11.707 7.225 13.769 7.778 14.7 9.39 M 12.753 10.514 C 13.064 11.052 12.88 11.739 12.342 12.049 C 11.805 12.36 11.117 12.175 10.807 11.638 C 10.497 11.1 10.681 10.413 11.218 10.103 C 11.756 9.792 12.443 9.977 12.753 10.514" transform="matrix(1 0 0 1 0 0)" fill="#FFFFFF" stroke="none" />
  <path d="M 1.343 14.61 L 3.198 15.677 L 4.576 13.201 L 6.658 14.097 L 4.986 14.678 L 3.608 17.154 L 1.433 15.903 L 1.207 16.335 C 5.48 19.588 10.315 19.96 14.221 18.312 L 20.475 12.303 L 19.231 9.804 L 17.303 8.705 L 19.869 8.554 L 21.047 10.92 C 21.486 9.622 21.733 8.204 21.75 6.69 L 20.663 8.076 L 18.26 7.11 L 16.46 7.502 L 18.33 5.49 L 20.304 6.325 L 21.344 5 L 21.687 5.132 C 21.659 4.831 21.623 4.528 21.578 4.221 C 12.748 1.37 4.006 5.986 1.343 14.61 M 16.47 8.369 C 17.965 10.959 17.078 14.27 14.488 15.765 C 11.899 17.26 8.587 16.373 7.092 13.783 C 5.597 11.194 6.484 7.882 9.074 6.387 C 11.664 4.892 14.975 5.779 16.47 8.369" transform="matrix(1 0 0 1 0 0)" fill="#FFFFFF" stroke="none" />
  <path d="M 23.001 19.385 L 19.084 15.771 L 15.291 19.385 L 17.055 19.385 L 19.084 17.646 L 21.113 19.385 L 23.001 19.385" transform="matrix(1 0 0 1 0 0)" fill="#FFFFFF" stroke="none" />
  <path d="M 23.001 23 L 19.084 19.385 L 15.291 23 L 17.055 23 L 19.084 21.261 L 21.113 23 L 23.001 23" transform="matrix(1 0 0 1 0 0)" fill="#FFFFFF" stroke="none" />
</svg>
