<?xml version="1.0" encoding="UTF-8"?>
<!-- Reconstructed from Amplitude.Graphics.Svg.SvgAsset and recolored from static UIMapper.Color metadata for EWShop; not original source SVG. Live UI state/material colors are not included. -->
<svg xmlns="http://www.w3.org/2000/svg" width="24" height="24" viewBox="0 0 24 24">
  <path d="M 17.426 12.713 C 17.455 12.722 17.484 12.736 17.514 12.761 C 17.552 12.793 17.614 12.859 17.674 12.996 C 18.228 14.272 18.024 15.885 17.182 17.06 C 17.065 17.223 17.019 17.384 17 17.466 C 16.977 17.563 16.965 17.671 16.968 17.781 C 16.97 17.855 16.979 18.091 17.128 18.33 C 17.214 18.469 17.382 18.661 17.665 18.759 C 17.956 18.859 18.22 18.808 18.394 18.735 C 18.805 18.564 19.186 18.347 19.531 18.083 L 23.001 17 L 18.501 21 L 23 23 L 15.474 20.526 L 16.001 23 L 11.685 21.154 L 9.001 23 L 8.526 21.474 L 1 23 L 6.583 21.154 L 1 18.445 L 4.701 18.445 L 4.672 18.705 C 4.581 19.62 5.14 20.574 6.157 20.799 C 8.378 21.289 12.289 21.093 15.879 17.769 C 16.388 17.297 16.543 16.58 16.325 15.956 L 16.045 15.155 C 16.055 15.136 16.069 15.112 16.089 15.084 C 16.116 15.047 16.149 15.011 16.185 14.979 C 16.728 14.483 17.171 13.733 17.426 12.713" transform="matrix(1 0 0 1 0 0)" fill="#FFFFFF" stroke="none" />
  <path d="M 11.77 19.26 C 11.67 19.301 11.571 19.338 11.472 19.375 L 11.77 19.26" transform="matrix(1 0 0 1 0 0)" fill="#FFFFFF" stroke="none" />
  <path d="M 4.032 14.584 C 4.134 15.645 4.476 16.46 4.918 17.035 C 4.876 17.251 4.838 17.469 4.803 17.69 L 1 12 L 4.032 14.584" transform="matrix(1 0 0 1 0 0)" fill="#FFFFFF" stroke="none" />
  <path d="M 19.171 17.086 L 19.002 17.231 C 19.118 17.137 19.227 17.037 19.329 16.931 C 19.278 16.984 19.226 17.036 19.171 17.086" transform="matrix(1 0 0 1 0 0)" fill="#FFFFFF" stroke="none" />
  <path d="M 8.917 16.439 C 8.945 16.536 8.979 16.634 9.021 16.731 C 9.056 16.816 9.067 16.871 9.069 16.899 C 9.072 16.926 9.069 16.937 9.067 16.941 C 9.066 16.947 9.05 16.996 8.949 17.08 C 8.894 17.126 8.826 17.17 8.749 17.213 C 8.795 16.966 8.85 16.707 8.917 16.439" transform="matrix(1 0 0 1 0 0)" fill="#FFFFFF" stroke="none" />
  <path d="M 20.193 15.623 L 20.043 15.927 C 20.134 15.756 20.214 15.579 20.287 15.398 C 20.257 15.473 20.227 15.549 20.193 15.623" transform="matrix(1 0 0 1 0 0)" fill="#FFFFFF" stroke="none" />
  <path d="M 8.119 15.568 C 8.122 15.56 8.123 15.551 8.126 15.542 L 8.224 15.234 C 8.187 15.347 8.152 15.458 8.119 15.568" transform="matrix(1 0 0 1 0 0)" fill="#FFFFFF" stroke="none" />
  <path d="M 21.687 13.83 C 21.715 13.56 21.729 13.288 21.73 13.017 L 23.001 12 L 21.687 13.83" transform="matrix(1 0 0 1 0 0)" fill="#FFFFFF" stroke="none" />
  <path d="M 5.623 13.258 C 5.612 13.226 5.6 13.194 5.59 13.161 L 5.503 12.868 C 5.539 12.998 5.579 13.128 5.623 13.258" transform="matrix(1 0 0 1 0 0)" fill="#FFFFFF" stroke="none" />
  <path d="M 12.952 12.116 L 13.039 12.175 C 13.011 12.153 12.983 12.134 12.952 12.116 L 12.858 12.07 C 12.89 12.083 12.922 12.099 12.952 12.116" transform="matrix(1 0 0 1 0 0)" fill="#FFFFFF" stroke="none" />
  <path d="M 5.589 8.177 C 5.496 8.306 5.424 8.459 5.385 8.639 L 5.361 8.779 C 5.229 9.957 5.329 10.942 5.564 11.742 C 5.467 11.719 5.37 11.705 5.277 11.705 C 5.173 11.705 5.062 11.722 4.95 11.754 L 3 3 L 5.589 8.177" transform="matrix(1 0 0 1 0 0)" fill="#FFFFFF" stroke="none" />
  <path d="M 13.771 10.526 C 13.888 10.874 13.963 11.269 13.947 11.68 C 13.74 11.415 13.466 11.24 13.217 11.139 C 13.017 11.032 12.817 11.008 12.686 11.007 C 13.019 10.823 13.38 10.662 13.771 10.526" transform="matrix(1 0 0 1 0 0)" fill="#FFFFFF" stroke="none" />
  <path d="M 7.69 7.812 C 7.712 7.965 7.738 8.113 7.769 8.256 C 7.74 8.212 7.708 8.171 7.676 8.132 L 7.69 7.812" transform="matrix(1 0 0 1 0 0)" fill="#FFFFFF" stroke="none" />
  <path d="M 11.957 6.087 C 11.958 6.231 11.966 6.371 11.98 6.507 C 11.883 6.574 11.786 6.643 11.69 6.712 C 11.564 6.585 11.402 6.365 11.227 5.991 C 11.026 5.564 10.866 5.052 10.75 4.536 L 11.957 6.087" transform="matrix(1 0 0 1 0 0)" fill="#FFFFFF" stroke="none" />
  <path d="M 9.283 2.65 C 8.913 2.678 8.477 2.865 8.264 3.339 L 8.216 3.463 C 8.046 3.971 7.916 4.454 7.822 4.914 L 8 1 L 9.283 2.65" transform="matrix(1 0 0 1 0 0)" fill="#FFFFFF" stroke="none" />
  <path d="M 9.932 15.006 C 9.943 14.969 9.957 14.933 9.97 14.897 C 9.946 14.964 9.924 15.031 9.905 15.098 C 9.914 15.067 9.922 15.036 9.932 15.006" transform="matrix(1 0 0 1 0 0)" fill="#FFFFFF" stroke="none" />
  <path d="M 13.811 3.104 C 13.917 2.905 14.227 3.015 14.209 3.239 C 14.123 4.294 14.208 5.515 14.834 5.948 C 15.443 5.705 15.96 5.513 16.419 5.357 L 16.504 5.5 L 14.587 8.735 C 14.407 9.039 14.349 9.366 14.387 9.675 C 14.158 9.501 13.841 9.447 13.543 9.546 C 8.789 11.125 7.841 16.059 7.597 18.138 C 7.57 18.366 7.766 18.557 7.995 18.513 C 9.078 18.304 10.507 17.679 9.941 16.342 C 9.131 14.426 12.486 11.678 12.763 12.037 C 13.268 12.177 13.844 12.847 12.109 14.4 C 11.69 14.988 11.149 16.099 11.576 16.749 C 11.838 17.147 12.42 17.043 12.849 16.827 L 13.099 16.702 C 13.256 16.623 13.332 16.445 13.303 16.273 C 13.121 15.223 13.611 14.424 13.903 14.138 C 15.026 12.966 15.078 11.601 14.821 10.565 C 15.086 10.829 15.452 11 15.878 11 L 20.446 11 C 21.016 12.971 20.746 15.256 19.478 16.765 C 19.096 17.218 18.602 17.566 18.009 17.813 C 17.953 17.835 17.959 17.692 17.994 17.643 C 19.027 16.202 19.295 14.219 18.591 12.598 C 18.13 11.538 17.098 11.547 16.564 11.95 C 16.377 13.116 15.951 13.838 15.51 14.24 C 15.188 14.534 14.929 14.993 15.072 15.402 L 15.381 16.286 C 15.473 16.55 15.405 16.843 15.199 17.034 C 11.884 20.104 8.323 20.252 6.373 19.822 C 5.906 19.719 5.621 19.274 5.667 18.804 C 5.738 18.087 5.85 17.4 6 16.743 C 5.419 16.229 4.77 15.023 5.079 12.872 C 5.111 12.65 5.441 12.651 5.502 12.867 C 5.718 13.646 6.072 14.47 6.577 14.808 C 6.815 14.168 7.091 13.561 7.399 12.984 C 6.775 12.398 6.107 11.112 6.355 8.891 C 6.391 8.571 6.866 8.568 6.963 8.876 C 7.299 9.946 7.862 10.995 8.68 10.993 C 8.982 10.596 9.3 10.216 9.633 9.854 C 8.863 9.061 8.053 7.101 9.164 3.779 C 9.236 3.566 9.579 3.616 9.609 3.839 C 9.832 5.502 10.55 7.703 11.812 7.868 C 12.224 7.551 12.647 7.253 13.078 6.973 C 12.843 6.137 12.882 4.828 13.811 3.104" transform="matrix(1 0 0 1 0 0)" fill="#FFFFFF" stroke="none" />
  <path d="M 22.123 1 C 22.51 1 22.75 1.422 22.553 1.755 L 20.635 4.99 C 20.449 5.305 20.449 5.696 20.635 6.01 L 22.553 9.245 C 22.75 9.578 22.51 10 22.123 10 L 15.878 10 C 15.491 10 15.25 9.578 15.447 9.245 L 17.364 6.01 C 17.551 5.695 17.551 5.305 17.364 4.99 L 15.447 1.755 C 15.25 1.422 15.491 1 15.878 1 L 22.123 1 M 19.447 5.895 C 19.263 5.526 18.737 5.526 18.553 5.895 L 17.362 8.276 C 17.196 8.609 17.438 9 17.81 9 L 20.191 9 C 20.563 9 20.805 8.609 20.639 8.276 L 19.447 5.895" transform="matrix(1 0 0 1 0 0)" fill="#FFFFFF" stroke="none" />
</svg>
