<?xml version="1.0" encoding="UTF-8"?>
<!-- Reconstructed from Amplitude.Graphics.Svg.SvgAsset and recolored from static UIMapper.Color metadata for EWShop; not original source SVG. Live UI state/material colors are not included. -->
<svg xmlns="http://www.w3.org/2000/svg" width="24" height="24" viewBox="0 0 24 24">
  <path d="M 15.235 19.384 L 15.245 19.384 L 16.986 17.614 C 17.262 17.338 17.262 16.882 16.986 16.615 L 16.701 16.311 C 16.425 16.035 15.987 16.035 15.711 16.311 L 14.693 17.329 L 4.064 6.529 C 4.064 6.529 3.95 6.443 3.883 6.443 L 1.295 6.253 C 1.133 6.243 0.99 6.376 0.99 6.538 L 1.029 9.193 C 1.029 9.26 1.057 9.326 1.114 9.383 L 11.819 20.241 L 10.925 21.145 C 10.649 21.42 10.649 21.877 10.925 22.144 L 11.21 22.448 C 11.486 22.724 11.924 22.724 12.2 22.448 L 13.941 20.678 L 16.016 22.781 C 16.292 23.057 16.729 23.057 17.005 22.781 L 17.291 22.477 C 17.567 22.201 17.567 21.744 17.291 21.478 L 15.216 19.375 L 15.235 19.384" transform="matrix(1 0 0 1 0 0)" fill="#FFFFFF" stroke="none" />
  <path d="M 22.895 7.499 L 22.895 7.471 L 19.46 6.633 C 18.442 6.386 17.662 5.587 17.395 4.568 L 16.539 1.105 C 16.501 0.971 16.301 0.971 16.263 1.105 L 15.426 4.559 C 15.178 5.587 14.379 6.386 13.361 6.633 L 9.954 7.471 C 9.821 7.509 9.821 7.708 9.954 7.747 L 13.408 8.651 C 14.407 8.907 15.178 9.707 15.426 10.725 L 16.282 14.217 C 16.32 14.35 16.52 14.35 16.558 14.217 L 17.424 10.725 C 17.671 9.726 18.452 8.926 19.441 8.679 L 22.895 7.775 C 23.029 7.737 23.029 7.528 22.895 7.499" transform="matrix(1 0 0 1 0 0)" fill="#FFFFFF" stroke="none" />
</svg>
