<?xml version="1.0" encoding="UTF-8"?>
<!-- Reconstructed from Amplitude.Graphics.Svg.SvgAsset and recolored from static UIMapper.Color metadata for EWShop; not original source SVG. Live UI state/material colors are not included. -->
<svg xmlns="http://www.w3.org/2000/svg" width="24" height="24" viewBox="0 0 24 24">
  <path d="M 6.371 16.95 C 6.371 16.95 15.901 7.42 18.621 4.92 C 18.871 4.69 18.971 4.78 18.741 5.04 C 16.301 7.81 6.951 17.52 6.951 17.52 C 6.511 18.27 7.261 20.02 7.431 19.83 C 7.431 19.83 21.551 4.42 22.581 1.13 C 22.591 1.09 22.581 1.06 22.551 1.04 C 22.521 1.02 22.491 1 22.461 1.02 C 19.181 2.11 4.191 16.66 4.191 16.66 C 4.101 16.92 5.801 17.4 6.371 16.95" transform="matrix(1 0 0 1 0 0)" fill="#FFFFFF" stroke="none" />
  <path d="M 2.96 19.63 C 2.65 20.13 2.27 20.53 1.91 20.84 C 2.17 21.13 3.07 22.01 3.35 22.28 C 3.65 21.91 4.05 21.52 4.56 21.19 C 4.95 21.26 5.36 21.15 5.66 20.84 L 3.29 18.52 C 2.99 18.82 2.88 19.24 2.96 19.63" transform="matrix(1 0 0 1 0 0)" fill="#FFFFFF" stroke="none" />
  <path d="M 7.91 21.24 C 7.28 20.83 5.9 19.42 6.27 17.63 C 4.48 18.03 3.19 16.84 2.77 16.22 C 2.89 15.89 2.82 15.51 2.55 15.25 C 2.25 14.96 1.79 14.91 1.45 15.12 C 1.36 15.21 1.26 15.29 1.17 15.38 C 0.92 15.74 0.95 16.24 1.28 16.55 C 1.57 16.83 1.99 16.88 2.32 16.71 L 7.42 21.7 C 7.26 22.04 7.32 22.46 7.6 22.74 C 7.93 23.06 8.43 23.08 8.78 22.82 C 8.87 22.72 8.95 22.62 9.04 22.52 C 9.23 22.17 9.18 21.73 8.88 21.43 C 8.62 21.17 8.23 21.11 7.91 21.23 L 7.91 21.24" transform="matrix(1 0 0 1 0 0)" fill="#FFFFFF" stroke="none" />
  <path d="M 15.289 19.39 L 17.049 19.39 L 19.079 17.65 L 21.109 19.39 L 22.999 19.39 L 19.079 15.77 L 15.289 19.39" transform="matrix(1 0 0 1 0 0)" fill="#FFFFFF" stroke="none" />
  <path d="M 15.289 23 L 17.049 23 L 19.079 21.26 L 21.109 23 L 22.999 23 L 19.079 19.39 L 15.289 23" transform="matrix(1 0 0 1 0 0)" fill="#FFFFFF" stroke="none" />
  <path d="M 19.079 14.26 L 21.109 16 L 22.999 16 L 19.079 12.39 L 15.289 16 L 17.049 16 L 19.079 14.26" transform="matrix(1 0 0 1 0 0)" fill="#FFFFFF" stroke="none" />
  <path d="M 12.33 16.09 L 13.4 16.42 L 15.22 14.68 L 15.9 13.72 L 16.12 13.83 L 17.41 12.6 L 16.75 12.28 C 16.93 11.81 17.03 11.32 17.06 10.83 L 12.33 16.1 L 12.33 16.09" transform="matrix(1 0 0 1 0 0)" fill="#FFFFFF" stroke="none" />
  <path d="M 5.169 13.41 C 5.249 13.64 5.339 13.86 5.439 14.08 L 6.479 13.15 C 6.409 13 6.349 12.84 6.289 12.68 L 4.839 8.42 C 4.689 7.99 4.839 7.5 5.209 7.23 L 5.539 6.98 C 6.769 6.06 7.789 4.91 8.559 3.59 L 8.879 4.52 C 8.109 5.7 7.129 6.74 5.999 7.59 L 5.669 7.84 C 5.559 7.92 5.519 8.06 5.559 8.18 L 7.009 12.44 C 7.029 12.5 7.049 12.56 7.079 12.62 L 15.459 5.13 L 15.369 4.86 C 15.329 4.74 15.209 4.65 15.079 4.65 L 14.669 4.65 C 13.239 4.67 11.819 4.43 10.469 3.96 L 10.149 3.03 C 11.579 3.62 13.109 3.92 14.659 3.9 L 15.069 3.9 C 15.519 3.89 15.919 4.17 16.079 4.58 L 17.379 3.42 L 17.239 3.01 C 17.109 2.64 16.759 2.39 16.369 2.39 L 15.819 2.39 C 13.589 2.42 11.379 1.97 9.339 1.08 C 8.969 0.92 8.529 1.06 8.339 1.42 C 7.269 3.37 5.789 5.07 4.009 6.41 L 3.569 6.74 C 3.259 6.98 3.129 7.39 3.249 7.76 L 5.179 13.43 L 5.169 13.41" transform="matrix(1 0 0 1 0 0)" fill="#FFFFFF" stroke="none" />
  <path d="M 19.07 11.01 L 19.49 11.4 C 19.57 10.49 19.46 9.55 19.16 8.66 L 19.11 8.53 L 17.78 10.01 C 17.88 10.87 17.76 11.75 17.44 12.56 L 19.06 11.02 L 19.07 11.01" transform="matrix(1 0 0 1 0 0)" fill="#FFFFFF" stroke="none" />
  <path d="M 14.511 17 L 14.451 17.08 C 14.291 17.3 14.011 17.4 13.751 17.32 L 11.781 16.71 L 10.631 17.99 L 14.161 19.08 L 16.351 16.99 L 14.521 16.99 L 14.511 17" transform="matrix(1 0 0 1 0 0)" fill="#FFFFFF" stroke="none" />
</svg>
