<?xml version="1.0" encoding="UTF-8"?>
<!-- Reconstructed from Amplitude.Graphics.Svg.SvgAsset and recolored from static UIMapper.Color metadata for EWShop; not original source SVG. Live UI state/material colors are not included. -->
<svg xmlns="http://www.w3.org/2000/svg" width="24" height="24" viewBox="0 0 24 24">
  <path d="M 11.153 2.699 C 13.564 2.59 17.662 1.946 19.338 0.078 C 19.483 -0.084 19.865 0.023 19.863 0.241 L 19.801 12.106 L 19.279 12.693 L 19.279 2.267 C 19.279 2.065 19.158 1.882 18.971 1.805 C 18.784 1.727 18.569 1.77 18.426 1.913 C 16.643 3.696 14.901 3.724 12.414 3.763 L 12.181 3.767 C 11.913 3.771 11.697 3.985 11.689 4.253 L 11.679 4.629 L 10.662 4.502 L 10.662 3.206 C 10.662 2.933 10.88 2.711 11.153 2.699" transform="matrix(1 0 0 1 0 0)" fill="#FFFFFF" stroke="none" />
  <path d="M 18.279 13.818 L 16.784 15.5 L 14.784 15 L 15.621 17.79 C 14.922 18.021 14.008 18.187 12.779 18.244 L 12.779 4.767 L 12.717 4.759 C 14.732 4.727 16.534 4.658 18.279 3.361 L 18.279 13.818" transform="matrix(1 0 0 1 0 0)" fill="#FFFFFF" stroke="none" />
  <path d="M 15.909 18.748 L 16.159 19.582 C 15.197 19.996 14.067 20.26 12.779 20.237 L 12.779 19.246 C 14.079 19.187 15.095 19.013 15.909 18.748" transform="matrix(1 0 0 1 0 0)" fill="#FFFFFF" stroke="none" />
  <path d="M 21.151 13.73 L 22.004 14.911 L 18 15.759 L 21.151 13.73" transform="matrix(1 0 0 1 0 0)" fill="#FFFFFF" stroke="none" />
  <path d="M 20.21 22.979 L 20.966 20.809 L 15.957 16.131 L 20.21 22.979" transform="matrix(1 0 0 1 0 0)" fill="#FFFFFF" stroke="none" />
  <path d="M 22.037 17.366 L 21.838 19.101 L 17.607 16.615 L 22.037 17.366" transform="matrix(1 0 0 1 0 0)" fill="#FFFFFF" stroke="none" />
  <path d="M 7.241 6.913 L 7.784 8 L 6.37 7.537 L 6.37 17.552 L 6.817 18.25 C 7.133 18.729 7.505 19.171 7.974 19.5 C 8.411 19.807 9.035 20.192 9.779 20.501 L 9.779 7.767 C 9.51 7.7 9.258 7.664 9.019 7.63 C 8.57 7.565 8.166 7.507 7.779 7.267 C 7.596 7.153 7.421 7.043 7.241 6.913" transform="matrix(1 0 0 1 0 0)" fill="#FFFFFF" stroke="none" />
  <path d="M 5.37 8.459 L 4.817 8.404 L 4.869 18.451 C 4.87 18.486 4.879 18.52 4.896 18.55 C 5.011 18.752 5.125 18.974 5.246 19.208 C 6.108 20.878 7.285 23.161 11.354 23.234 C 11.464 23.236 11.557 23.146 11.557 23.036 L 11.557 6.198 C 11.557 6.087 11.467 5.998 11.357 5.994 C 9.139 5.901 6.571 4.293 5.232 2.128 C 5.146 1.989 4.883 2.394 4.784 2.5 L 5.903 4.237 L 6.167 4.375 C 6.228 4.407 6.283 4.452 6.326 4.506 C 7.225 5.615 7.709 5.914 8.187 6.21 L 8.279 6.267 C 8.631 6.485 9.009 6.569 9.533 6.685 C 9.716 6.725 9.917 6.77 10.14 6.825 L 10.401 6.89 C 10.623 6.946 10.779 7.146 10.779 7.375 L 10.779 21.236 C 10.779 21.4 10.699 21.553 10.564 21.647 C 10.429 21.74 10.257 21.762 10.104 21.704 C 8.072 20.942 7.106 20.28 6.538 19.626 C 6.26 19.306 6.091 19.003 5.949 18.748 C 5.784 18.5 5.784 18.5 5.5 18.072 C 5.416 17.98 5.37 17.86 5.37 17.736 L 5.37 8.459" transform="matrix(1 0 0 1 0 0)" fill="#FFFFFF" stroke="none" />
  <path d="M 1.067 5.384 L 1 7.129 L 5.474 7.541 L 1.067 5.384" transform="matrix(1 0 0 1 0 0)" fill="#FFFFFF" stroke="none" />
  <path d="M 1.806 3.614 L 2.395 1.394 L 6.784 7 L 1.806 3.614" transform="matrix(1 0 0 1 0 0)" fill="#FFFFFF" stroke="none" />
</svg>
