<?xml version="1.0" encoding="UTF-8"?>
<!-- Reconstructed from Amplitude.Graphics.Svg.SvgAsset and recolored from static UIMapper.Color metadata for EWShop; not original source SVG. Live UI state/material colors are not included. -->
<svg xmlns="http://www.w3.org/2000/svg" width="24" height="24" viewBox="0 0 24 24">
  <path d="M 5 12.356 L 5 6.838 C 5 6.203 5.437 6.103 6 5.908 L 6.454 5.751 C 8.216 5.14 9.835 4.138 11.201 2.81 C 11.683 2.342 12.422 2.342 12.904 2.81 C 14.27 4.138 15.888 5.14 17.65 5.751 L 18.105 5.908 C 18.668 6.103 19 6.203 19 6.838 L 19 12.356 C 19 14.535 18.03 16.225 16.37 17.505 L 12.527 20.467 C 12.221 20.703 11.808 20.703 11.501 20.467 L 7.659 17.505 C 5.998 16.225 5 14.535 5 12.356 M 5.583 6.838 L 5.583 12.356 C 5.583 14.334 6.491 15.837 8 17 L 11.843 19.962 C 11.945 20.041 12.084 20.041 12.186 19.962 L 16.029 17 C 17.538 15.837 18.417 14.334 18.417 12.356 L 18.417 6.838 C 18.417 6.475 18.249 6.613 17.925 6.501 L 17.47 6.343 C 15.63 5.705 13.939 4.658 12.511 3.271 C 12.252 3.019 11.853 3.019 11.593 3.271 C 10.166 4.658 8.475 5.705 6.634 6.343 L 6.18 6.501 C 5.855 6.613 5.583 6.475 5.583 6.838" transform="matrix(1 0 0 1 0 0)" fill="#FFFFFF" stroke="none" />
  <path d="M 3.5 5.986 C 3.5 5.878 3.518 5.773 3.553 5.674 L 2.609 5.343 C 2.538 5.546 2.5 5.763 2.5 5.986 L 2.5 6.801 L 3.5 6.801 L 3.5 5.986" transform="matrix(1 0 0 1 0 0)" fill="#FFFFFF" stroke="none" />
  <path d="M 7.02 2.918 L 7.458 3.818 C 8.026 3.541 8.578 3.236 9.112 2.905 L 8.584 2.055 C 8.079 2.369 7.557 2.657 7.02 2.918" transform="matrix(1 0 0 1 0 0)" fill="#FFFFFF" stroke="none" />
  <path d="M 15.416 2.055 L 14.888 2.905 C 15.422 3.236 15.974 3.541 16.542 3.818 L 16.98 2.918 C 16.443 2.657 15.921 2.369 15.416 2.055" transform="matrix(1 0 0 1 0 0)" fill="#FFFFFF" stroke="none" />
  <path d="M 21.5 11.697 L 20.5 11.697 L 20.5 12.513 C 20.5 12.806 20.481 13.097 20.445 13.384 L 21.437 13.51 C 21.479 13.181 21.5 12.848 21.5 12.513 L 21.5 11.697" transform="matrix(1 0 0 1 0 0)" fill="#FFFFFF" stroke="none" />
  <path d="M 20.942 15.439 L 20.012 15.071 C 19.799 15.611 19.519 16.125 19.179 16.602 L 19.994 17.182 C 20.38 16.64 20.699 16.054 20.942 15.439" transform="matrix(1 0 0 1 0 0)" fill="#FFFFFF" stroke="none" />
  <path d="M 18.665 18.646 L 18.008 17.892 C 17.79 18.082 17.56 18.26 17.318 18.427 L 16.681 18.865 L 17.248 19.689 L 17.885 19.251 C 18.158 19.063 18.418 18.861 18.665 18.646" transform="matrix(1 0 0 1 0 0)" fill="#FFFFFF" stroke="none" />
  <path d="M 15.976 20.565 L 15.409 19.741 L 14.136 20.617 L 14.703 21.441 L 15.976 20.565" transform="matrix(1 0 0 1 0 0)" fill="#FFFFFF" stroke="none" />
  <path d="M 9.297 21.441 L 9.864 20.617 L 8.591 19.741 L 8.024 20.565 L 9.297 21.441" transform="matrix(1 0 0 1 0 0)" fill="#FFFFFF" stroke="none" />
  <path d="M 6.752 19.689 L 7.319 18.865 L 6.682 18.427 C 6.44 18.26 6.21 18.082 5.992 17.892 L 5.335 18.646 C 5.582 18.861 5.842 19.063 6.115 19.251 L 6.752 19.689" transform="matrix(1 0 0 1 0 0)" fill="#FFFFFF" stroke="none" />
  <path d="M 4.006 17.182 L 4.821 16.602 C 4.481 16.125 4.201 15.611 3.988 15.071 L 3.058 15.439 C 3.301 16.054 3.62 16.64 4.006 17.182" transform="matrix(1 0 0 1 0 0)" fill="#FFFFFF" stroke="none" />
  <path d="M 2.5 8.433 L 3.5 8.433 L 3.5 10.065 L 2.5 10.065 L 2.5 8.433" transform="matrix(1 0 0 1 0 0)" fill="#FFFFFF" stroke="none" />
  <path d="M 2.5 11.697 L 3.5 11.697 L 3.5 12.513 C 3.5 12.806 3.519 13.097 3.555 13.384 L 2.563 13.51 C 2.521 13.181 2.5 12.848 2.5 12.513 L 2.5 11.697" transform="matrix(1 0 0 1 0 0)" fill="#FFFFFF" stroke="none" />
  <path d="M 10.57 22.316 L 11.136 21.493 L 11.773 21.931 C 11.908 22.024 12.092 22.024 12.227 21.931 L 12.864 21.493 L 13.431 22.316 L 12.794 22.754 C 12.317 23.083 11.683 23.083 11.206 22.754 L 10.57 22.316" transform="matrix(1 0 0 1 0 0)" fill="#FFFFFF" stroke="none" />
  <path d="M 21.5 10.065 L 20.5 10.065 L 20.5 8.433 L 21.5 8.433 L 21.5 10.065" transform="matrix(1 0 0 1 0 0)" fill="#FFFFFF" stroke="none" />
  <path d="M 21.5 6.801 L 20.5 6.801 L 20.5 5.986 C 20.5 5.878 20.482 5.773 20.447 5.674 L 21.391 5.343 C 21.462 5.546 21.5 5.763 21.5 5.986 L 21.5 6.801" transform="matrix(1 0 0 1 0 0)" fill="#FFFFFF" stroke="none" />
  <path d="M 18 4.375 C 18.104 4.407 19.697 4.942 19.783 5 L 20.345 4.173 C 20.177 4.059 18.542 3.497 18.344 3.436 L 18 4.375" transform="matrix(1 0 0 1 0 0)" fill="#FFFFFF" stroke="none" />
  <path d="M 14.285 1.386 L 13.671 2.175 C 13.422 1.981 13.179 1.781 12.941 1.575 C 12.856 1.501 12.759 1.445 12.657 1.408 L 13 0.469 C 13.213 0.546 13.416 0.663 13.596 0.819 C 13.821 1.014 14.05 1.203 14.285 1.386" transform="matrix(1 0 0 1 0 0)" fill="#FFFFFF" stroke="none" />
  <path d="M 11.059 1.575 C 11.145 1.501 11.241 1.446 11.343 1.408 L 11 0.469 C 10.788 0.547 10.584 0.663 10.404 0.82 C 10.18 1.015 9.95 1.203 9.715 1.386 L 10.329 2.175 C 10.578 1.982 10.821 1.782 11.059 1.575" transform="matrix(1 0 0 1 0 0)" fill="#FFFFFF" stroke="none" />
  <path d="M 5.796 3.436 L 6.14 4.375 L 4.643 4.863 C 4.539 4.895 4.443 4.942 4.357 5 L 3.795 4.173 C 3.963 4.059 4.148 3.969 4.347 3.908 L 5.796 3.436" transform="matrix(1 0 0 1 0 0)" fill="#FFFFFF" stroke="none" />
  <path d="M 6.692 12.174 L 6.692 7.818 C 6.692 7.532 6.876 7.278 7.148 7.19 L 7.528 7.065 C 9.068 6.562 10.482 5.735 11.677 4.64 C 11.894 4.441 12.227 4.441 12.445 4.64 C 13.639 5.735 15.053 6.562 16.593 7.065 L 16.973 7.19 C 17.245 7.278 17.429 7.532 17.429 7.818 L 17.429 12.174 C 17.429 13.735 16.682 15.202 15.419 16.12 L 12.204 18.458 C 12.118 18.521 12.003 18.521 11.917 18.458 L 8.702 16.12 C 7.439 15.202 6.692 13.735 6.692 12.174 M 11.328 5.702 C 10.408 6.518 9.33 7.137 8.16 7.52 L 7.849 7.621 C 7.505 7.734 7.272 8.055 7.272 8.418 L 7.272 11.971 C 7.272 12.884 7.564 13.76 8.086 14.482 L 8.515 14.053 C 8.1 13.448 7.869 12.724 7.869 11.971 L 7.869 8.418 C 7.869 8.314 7.936 8.221 8.035 8.189 L 8.345 8.088 C 9.429 7.733 10.439 7.189 11.328 6.482 L 11.328 5.702 M 9.362 14.932 L 8.936 15.358 C 8.968 15.383 9.001 15.408 9.035 15.432 L 11.657 17.339 C 11.832 17.466 12.068 17.466 12.242 17.339 L 14.672 15.572 L 14.245 15.145 L 11.95 16.814 L 9.386 14.949 L 9.362 14.932 M 16.627 11.971 C 16.627 13.007 16.252 13.996 15.59 14.765 L 15.166 14.341 C 15.718 13.684 16.03 12.847 16.03 11.971 L 16.03 8.418 C 16.03 8.314 15.963 8.221 15.865 8.189 L 15.554 8.088 C 14.461 7.73 13.443 7.179 12.548 6.463 L 12.548 5.681 C 13.473 6.508 14.56 7.134 15.74 7.52 L 16.05 7.621 C 16.394 7.734 16.627 8.055 16.627 8.418 L 16.627 11.971" transform="matrix(1 0 0 1 0 0)" fill="#FFFFFF" stroke="none" />
</svg>
