<?xml version="1.0" encoding="UTF-8"?>
<!-- Reconstructed from Amplitude.Graphics.Svg.SvgAsset and recolored from static UIMapper.Color metadata for EWShop; not original source SVG. Live UI state/material colors are not included. -->
<svg xmlns="http://www.w3.org/2000/svg" width="24" height="24" viewBox="0 0 24 24">
  <path d="M 11.042 0.445 C 10.792 0.567 10.582 1.054 10.508 1.283 C 10.552 1.985 10.641 3.471 10.641 3.793 C 10.641 4.116 10.374 6.007 10.252 6.798 L 7.402 8.989 L 8.172 10.109 L 7.896 11.927 L 6.286 16.718 L 5.868 17.797 L 6.724 19.088 L 7.227 18.665 L 6.95 17.421 L 9.507 12.528 C 9.109 13.665 8.581 16.497 8.513 16.718 C 8.445 16.94 8.257 20.829 8.172 22.52 L 9.374 23.421 L 11.797 23.661 L 13.795 23.421 L 15.402 22.867 C 15.402 22.427 15.145 20.413 15.145 19.084 C 14.939 17.174 14.546 15.355 14.376 14.684 L 13.795 12.845 L 15.145 14.488 L 19.868 11.256 L 20.171 10.775 L 18.897 10.682 L 18.447 11.256 L 16.034 12.528 L 15.402 10.109 L 16.251 8.989 L 13.795 7.779 C 13.663 7.424 13.376 6.685 13.29 6.569 C 13.181 6.425 12.475 1.718 12.559 1.444 C 12.643 1.169 12.315 0.575 12.109 0.445 C 11.903 0.315 11.354 0.292 11.042 0.445" transform="matrix(1 0 0 1 0 0)" fill="#FFFFFF" stroke="none" />
  <path d="M 6.193 8.997 C 5.625 10.76 5.655 12.885 6.006 13.509 C 5.681 12.946 5.078 12.763 4.646 12.631 C 4.564 12.606 4.489 12.583 4.422 12.56 C 4.409 12.629 4.392 12.706 4.372 12.789 C 4.27 13.229 4.128 13.843 4.453 14.406 C 4.076 13.77 2.14 12.629 0.272 12.275 C -0.034 12.349 1.225 14.4 3.788 14.955 C 3.68 14.942 2.644 14.999 2.121 15.03 C 2.131 15.138 2.176 15.605 2.28 16.62 C 2.385 17.634 2.382 18.381 2.374 18.46 L 2.956 19.247 C 2.861 18.942 2.691 18.311 2.775 18.229 C 2.879 18.126 3.56 18.255 3.557 18.281 C 3.555 18.302 3.591 18.63 3.609 18.791 L 3.747 17.989 L 3.11 17.665 C 2.975 17.314 2.797 16.063 2.806 15.906 C 3.325 16.02 4.365 16.096 4.868 15.668 L 4.453 18.139 L 6.293 19.247 L 5.297 18.019 L 5.511 17.391 L 5.403 17.189 L 5.2 16.809 L 5.338 16.4 L 6.92 11.691 L 7.059 10.779 C 7.031 10.525 6.987 10.289 6.935 10.074 L 6.578 9.556 L 6.193 8.997 M 20.03 10.256 L 20.012 10.151 L 20.692 9.804 C 20.837 9.429 21.027 8.092 21.018 7.925 C 20.463 8.047 19.352 8.128 18.815 7.671 L 19.012 10.256 L 18.447 10.256 L 18.295 10.256 L 18.356 10.182 L 17.937 8.953 C 17.77 9.233 17.286 9.875 16.679 10.202 C 16.626 10.231 16.573 10.259 16.521 10.288 L 17.048 9.593 L 17.78 8.627 L 16.693 8.092 L 14.956 7.236 L 16.652 6.422 C 15.987 6.185 15.502 5.182 15.33 4.641 C 15.293 4.66 15.254 4.705 15.197 4.77 C 15.048 4.942 14.775 5.24 14.103 5.576 C 14.065 5.355 14.023 5.099 13.98 4.825 C 14.11 4.735 14.247 4.639 14.389 4.536 C 14.884 4.178 15.23 3.929 15.455 3.768 C 15.63 3.643 15.873 3.688 15.991 3.868 C 16.305 4.348 16.699 4.956 16.736 5.042 C 15.88 2.374 17.105 0.113 17.336 0.357 C 18.007 2.274 17.985 4.675 17.599 5.364 C 17.946 4.762 18.59 4.566 19.052 4.425 C 19.139 4.399 19.219 4.374 19.29 4.349 C 19.304 4.423 19.323 4.505 19.344 4.594 C 19.453 5.065 19.605 5.72 19.258 6.322 C 19.661 5.642 21.729 4.423 23.725 4.045 C 24.052 4.124 22.707 6.315 19.968 6.908 C 20.084 6.895 21.19 6.956 21.75 6.989 C 21.739 7.104 21.691 7.603 21.579 8.687 C 21.511 9.349 21.486 9.904 21.478 10.256 L 20.03 10.256" transform="matrix(1 0 0 1 0 0)" fill="#FFFFFF" stroke="none" />
</svg>
