<?xml version="1.0" encoding="UTF-8"?>
<!-- Reconstructed from Amplitude.Graphics.Svg.SvgAsset and recolored from static UIMapper.Color metadata for EWShop; not original source SVG. Live UI state/material colors are not included. -->
<svg xmlns="http://www.w3.org/2000/svg" width="24" height="24" viewBox="0 0 24 24">
  <path d="M 11.573 3.712 C 11.815 3.504 12.185 3.504 12.427 3.712 C 13.754 4.859 15.327 5.726 17.039 6.254 L 17.462 6.385 C 17.764 6.478 17.969 6.743 17.969 7.043 L 17.969 11.609 C 17.969 13.246 17.138 14.784 15.734 15.747 L 12.159 18.198 C 12.064 18.263 11.936 18.263 11.841 18.198 L 8.266 15.747 C 6.862 14.784 6.031 13.246 6.031 11.609 L 6.031 7.043 C 6.031 6.743 6.236 6.478 6.538 6.385 L 6.961 6.254 C 8.673 5.726 10.246 4.859 11.573 3.712 M 8.586 14.771 C 8.675 14.842 8.767 14.91 8.861 14.975 L 11.648 16.886 C 11.858 17.03 12.142 17.029 12.352 16.886 L 15.097 15.004 L 14.543 14.481 L 12 16.226 L 9.316 14.385 C 9.254 14.342 9.194 14.299 9.135 14.253 L 8.586 14.771 M 12.64 6.021 C 13.586 6.726 14.659 7.269 15.81 7.624 L 16.139 7.726 C 16.215 7.749 16.267 7.817 16.268 7.893 L 16.268 11.453 C 16.268 12.245 15.993 13.005 15.502 13.624 L 16.054 14.144 C 16.686 13.385 17.041 12.44 17.041 11.453 L 17.041 7.893 C 17.041 7.501 16.773 7.155 16.379 7.033 L 16.05 6.932 C 14.787 6.542 13.625 5.906 12.64 5.065 L 12.64 6.021 M 11.318 5.102 C 10.343 5.924 9.196 6.548 7.951 6.932 L 7.621 7.033 C 7.227 7.155 6.96 7.501 6.96 7.893 L 6.96 11.453 C 6.96 12.31 7.227 13.134 7.711 13.833 L 8.271 13.305 C 7.924 12.752 7.733 12.114 7.733 11.453 L 7.733 7.893 C 7.734 7.817 7.785 7.749 7.861 7.726 L 8.191 7.624 C 9.325 7.275 10.383 6.742 11.318 6.052 L 11.318 5.102" transform="matrix(1 0 0 1 0 0)" fill="#FFFFFF" stroke="none" />
  <path d="M 7.092 4.074 C 6.492 4.326 5.877 4.549 5.246 4.736 L 4.68 4.906 C 4.275 5.027 4 5.37 4 5.757 L 4 6 L 3 6 L 3 5.757 L 3.009 5.579 C 3.015 5.521 3.023 5.462 3.034 5.405 L 3.212 4.511 L 3.302 4.438 C 4.385 3.925 5.57 3.587 6.767 3.16 L 7.092 4.074" transform="matrix(1 0 0 1 0 0)" fill="#FFFFFF" stroke="none" />
  <path d="M 17.325 3.16 C 18.522 3.587 19.707 3.925 20.79 4.438 L 20.88 4.511 L 21.058 5.405 C 21.069 5.462 21.077 5.521 21.083 5.579 L 21.092 5.757 L 21.092 6 L 20.092 6 L 20.092 5.757 C 20.092 5.37 19.817 5.027 19.412 4.906 L 18.846 4.736 C 18.215 4.549 17.599 4.326 17 4.074 L 17.325 3.16" transform="matrix(1 0 0 1 0 0)" fill="#FFFFFF" stroke="none" />
  <path d="M 12.028 0 C 13.022 0.536 13.816 1.16 14.727 1.834 L 14.149 2.612 C 13.6 2.254 13.073 1.867 12.572 1.449 C 12.249 1.18 11.751 1.18 11.428 1.449 C 10.927 1.867 10.399 2.254 9.85 2.612 L 9.273 1.834 C 10.178 1.165 10.982 0.534 11.972 0 L 12.028 0" transform="matrix(1 0 0 1 0 0)" fill="#FFFFFF" stroke="none" />
  <path d="M 4.883 11.133 L 4.883 13.889 L 1.209 12.07 C 1.268 10.49 1.621 8.793 2.334 7 L 4.883 11.133" transform="matrix(1 0 0 1 0 0)" fill="#FFFFFF" stroke="none" />
  <path d="M 8.649 19.142 C 8.637 19.141 6.812 17.305 6.812 17.305 L 2.793 18.022 C 3.623 19.462 4.74 20.674 6.026 21.593 L 8.649 19.142" transform="matrix(1 0 0 1 0 0)" fill="#FFFFFF" stroke="none" />
  <path d="M 22.724 11.688 C 22.629 10.218 22.276 8.653 21.622 7 L 19.05 11.133 L 19.05 13.889 L 22.724 11.688" transform="matrix(1 0 0 1 0 0)" fill="#FFFFFF" stroke="none" />
  <path d="M 1 13.235 L 5.089 14.808 L 6.063 16.645 L 1.874 17.104 C 1.478 16.127 1.11 14.374 1 13.235" transform="matrix(1 0 0 1 0 0)" fill="#FFFFFF" stroke="none" />
  <path d="M 9.491 19.399 L 7.205 22.177 C 8.557 22.905 10.034 23.338 11.519 23.441 L 11.519 20.777 L 9.491 19.399" transform="matrix(1 0 0 1 0 0)" fill="#FFFFFF" stroke="none" />
  <path d="M 16.751 22.177 L 14.465 19.399 L 12.437 20.777 L 12.437 23.441 C 13.922 23.338 15.399 22.905 16.751 22.177" transform="matrix(1 0 0 1 0 0)" fill="#FFFFFF" stroke="none" />
  <path d="M 18.867 14.807 L 17.948 16.645 L 22.082 17.104 C 22.515 16.024 22.912 14.147 23 12.868 L 18.867 14.807" transform="matrix(1 0 0 1 0 0)" fill="#FFFFFF" stroke="none" />
  <path d="M 17.893 21.623 L 15.292 19.143 L 17.129 17.306 L 21.163 18.022 C 20.333 19.484 19.194 20.697 17.893 21.623" transform="matrix(1 0 0 1 0 0)" fill="#FFFFFF" stroke="none" />
</svg>
