<?xml version="1.0" encoding="UTF-8"?>
<!-- Reconstructed from Amplitude.Graphics.Svg.SvgAsset and recolored from static UIMapper.Color metadata for EWShop; not original source SVG. Live UI state/material colors are not included. -->
<svg xmlns="http://www.w3.org/2000/svg" width="24" height="24" viewBox="0 0 24 24">
  <path d="M 5.878 20.467 C 5.955 20.619 6.071 20.752 6.218 20.85 L 7.535 21.724 L 1.268 21 L 5.878 20.467" transform="matrix(1 0 0 1 0 0)" fill="#FFFFFF" stroke="none" />
  <path d="M 10.564 17.704 C 10.255 18.253 9.954 18.625 9.725 18.793 L 8.843 18.713 C 8.789 18.687 8.737 18.66 8.687 18.638 C 8.614 18.606 8.523 18.567 8.43 18.537 C 8.384 18.522 8.316 18.502 8.236 18.488 C 8.177 18.478 8.01 18.451 7.81 18.495 C 7.698 18.519 7.586 18.552 7.477 18.588 L 6.87 18.533 C 7.065 18.479 7.226 18.394 7.35 18.316 C 7.509 18.216 7.645 18.101 7.737 18.021 C 7.849 17.924 7.901 17.876 7.964 17.826 C 7.992 17.804 8.008 17.794 8.014 17.79 L 8.257 17.699 C 8.662 17.564 8.974 17.546 9.461 17.528 L 10.145 17.5 C 10.305 17.491 10.484 17.487 10.679 17.483 C 10.64 17.557 10.604 17.632 10.564 17.704" transform="matrix(1 0 0 1 0 0)" fill="#FFFFFF" stroke="none" />
  <path d="M 4.895 17.646 C 5.129 17.827 5.361 18.004 5.553 18.143 C 5.661 18.221 5.767 18.296 5.856 18.354 C 5.9 18.381 5.953 18.415 6.009 18.445 C 6.016 18.449 6.025 18.452 6.034 18.457 L 1 18 L 4.895 17.646" transform="matrix(1 0 0 1 0 0)" fill="#FFFFFF" stroke="none" />
  <path d="M 17.149 12.103 C 16.912 12.378 16.608 12.723 16.392 13.022 C 16.372 13.026 16.345 13.035 16.307 13.038 C 16.151 13.053 15.934 13.039 15.614 12.995 C 15.341 12.958 14.921 12.887 14.565 12.85 C 14.186 12.81 13.743 12.789 13.298 12.865 C 12.639 12.979 11.949 13.275 11.329 13.573 L 1 13 L 17.149 12.103" transform="matrix(1 0 0 1 0 0)" fill="#FFFFFF" stroke="none" />
  <path d="M 7.118 7.559 C 6.966 7.793 6.92 8.076 6.985 8.342 L 1 8 C 2.035 7.869 4.426 7.711 7.118 7.559" transform="matrix(1 0 0 1 0 0)" fill="#FFFFFF" stroke="none" />
  <path d="M 16.278 3.053 C 16.227 3.238 16.181 3.434 16.146 3.626 C 16.08 3.987 16.026 4.457 16.073 4.913 L 1 4 C 3.06 3.813 12.775 3.231 16.278 3.053" transform="matrix(1 0 0 1 0 0)" fill="#FFFFFF" stroke="none" />
  <path d="M 23 23.001 L 21.112 23.001 L 19.084 21.262 L 17.054 23.001 L 15.291 23.001 L 19.084 19.386 L 23 23.001" transform="matrix(1 0 0 1 0 0)" fill="#FFFFFF" stroke="none" />
  <path d="M 17.419 2.822 C 19.556 1.001 21.427 2.709 20.864 6.096 C 22.927 7.577 23.532 10.777 22.519 13.197 C 21.933 14.598 20.906 15.953 19.516 16.566 C 18.873 16.849 18.265 16.973 18.08 17.014 C 17.477 17.146 16.253 16.746 15.339 16.87 C 15.002 16.915 14.492 16.965 14.272 17.108 C 13.903 17.347 13.75 18.458 13.192 18.951 C 12.75 19.343 11.533 19.746 11.24 20.017 C 10.947 20.289 10.025 22.073 9.881 22.082 L 6.77 20.017 C 6.77 20.017 7.485 19.589 8.026 19.472 C 8.179 19.438 9.231 20.077 9.353 20.017 C 9.64 19.864 9.945 19.854 10.256 19.644 C 11.124 19.059 11.881 17.429 12.212 16.444 C 11.594 16.492 10.717 16.468 10.09 16.502 C 9.136 16.554 8.545 16.49 7.621 16.87 C 7.241 17.027 6.928 17.527 6.532 17.585 C 6.39 17.574 4.428 16.026 4.251 15.822 L 4.249 15.819 C 4.09 15.636 3.977 15.376 4.004 15.124 C 4.219 14.913 6.181 15.891 6.532 15.944 C 6.772 15.979 8.373 15.723 8.746 15.674 C 10.268 15.478 12.032 14.097 13.466 13.851 C 14.722 13.636 16.364 14.46 17.108 13.747 C 17.422 13.239 18.435 12.242 18.753 11.657 C 19.088 11.037 18.912 10.801 18.928 10.12 C 17.804 10.342 16.665 10.724 15.514 10.835 C 14.364 10.946 13.34 10.475 12.201 10.398 C 11.578 10.355 10.759 11.482 10.195 10.455 C 10.717 9.326 11.396 9.851 12.185 9.826 C 13.071 9.798 14.402 9.701 15.135 9.569 C 15.52 9.5 16.026 9.387 16.479 9.249 C 16.899 9.121 16.843 8.87 16.841 8.862 C 14.333 8.874 13.157 8.768 10.673 8.378 C 9.949 8.265 9.574 7.644 8.705 8.387 L 8.153 8.449 L 7.955 8.103 L 8.696 7.15 C 9.843 7.347 11.001 7.203 12.154 7.26 C 12.797 7.292 13.719 7.606 14.364 7.574 C 15.742 7.507 17.341 6.53 18.775 6.695 C 19.559 5.962 17.382 6.071 17.283 5.898 C 17.228 5.816 17.214 5.461 17.108 5.05 C 16.929 4.357 17.239 3.167 17.419 2.822" transform="matrix(1 0 0 1 0 0)" fill="#FFFFFF" stroke="none" />
</svg>
