<?xml version="1.0" encoding="UTF-8"?>
<!-- Reconstructed from Amplitude.Graphics.Svg.SvgAsset and recolored from static UIMapper.Color metadata for EWShop; not original source SVG. Live UI state/material colors are not included. -->
<svg xmlns="http://www.w3.org/2000/svg" width="24" height="24" viewBox="0 0 24 24">
  <path d="M 8.38 17.813 L 5.13 17.813 C 4.86 17.442 4.67 16.8 4.48 16.148 C 4.37 15.757 4.25 15.366 4.12 15.024 C 4.09 15.145 4.07 15.275 4.06 15.396 C 3.95 16.278 4.01 17.131 4.22 17.914 C 4.99 20.783 7.76 22.829 10.97 22.99 L 11.01 22.99 C 10.56 22.318 10.05 21.174 9.58 20.131 C 9.1 19.047 8.66 18.054 8.38 17.803 L 8.38 17.813" transform="matrix(1 0 0 1 0 0)" fill="#FFFFFF" stroke="none" />
  <path d="M 19.871 15.446 C 19.871 15.446 19.851 15.366 19.841 15.326 C 19.821 15.356 19.801 15.396 19.781 15.426 C 19.451 15.978 19.141 16.489 18.691 16.66 C 18.011 16.911 17.231 16.8 16.471 16.68 C 16.011 16.61 15.561 16.54 15.131 16.56 C 14.761 16.79 15.891 21.475 16.491 22.067 C 16.481 22.087 16.471 22.097 16.461 22.117 C 17.051 21.796 17.591 21.395 18.061 20.924 C 19.521 19.469 20.321 17.503 19.871 15.446" transform="matrix(1 0 0 1 0 0)" fill="#FFFFFF" stroke="none" />
  <path d="M 17.62 14.874 C 17.76 14.854 18.61 14.272 19.22 13.831 C 19.05 13.53 18.86 13.259 18.67 12.978 C 17.95 11.915 17.26 10.902 17.51 8.855 C 16.74 9.066 16.38 9.196 16.15 9.286 C 15.87 9.387 15.78 9.427 15.41 9.437 C 15.1 9.437 14.78 9.337 14.62 9.076 C 14.37 8.664 14.5 8.293 14.66 7.862 C 15.08 6.708 15.66 5.113 9.34 1 C 11.56 3.869 9.37 6.768 7.16 9.688 C 6.61 10.41 6.06 11.142 5.58 11.875 L 5.61 11.945 C 5.64 12.156 5.5 12.346 5.35 12.557 C 5.01 13.028 4.61 13.6 5.84 14.684 C 5.91 14.774 5.99 14.964 6.07 15.175 C 6.21 15.506 6.35 15.867 6.5 15.897 C 6.71 15.928 7 15.727 7.34 15.496 C 7.85 15.145 8.45 14.734 9.01 14.975 C 9.07 14.423 8.78 13.761 8.49 13.099 C 7.94 11.835 7.38 10.571 9.3 10.049 C 11.7 9.898 12.59 12.015 12.15 13.7 L 11.21 14.162 C 10.84 14.353 11.4 14.463 11.54 14.463 C 12.03 14.463 12.18 14.373 12.33 14.262 C 12.45 14.182 12.58 14.092 12.88 14.052 C 13.75 13.941 14.51 14.212 15.26 14.483 C 16.02 14.754 16.77 15.025 17.6 14.884 L 17.62 14.874" transform="matrix(1 0 0 1 0 0)" fill="#FFFFFF" stroke="none" />
</svg>
