<?xml version="1.0" encoding="UTF-8"?>
<!-- Reconstructed from Amplitude.Graphics.Svg.SvgAsset and recolored from static UIMapper.Color metadata for EWShop; not original source SVG. Live UI state/material colors are not included. -->
<svg xmlns="http://www.w3.org/2000/svg" width="24" height="24" viewBox="0 0 24 24">
  <path d="M 9 12.32 L 12.88 10.88 L 14.5 6.5 L 16.12 10.88 L 16.66 11.06 L 19 11.06 L 19 5.06 L 15 5.06 L 15 1 L 9 1 L 9 5.06 L 5 5.06 L 5 11.06 L 9 11.06 L 9 12.32" transform="matrix(1 0 0 1 0 0)" fill="#FFFFFF" stroke="none" />
  <path d="M 13.8 14.37 L 14.5 16.5 L 15.2 14.37 L 15.48 13.48 L 16.37 13.2 L 18.5 12.5 L 16.37 11.8 L 15.48 11.52 L 15.2 10.63 L 14.5 8.5 L 13.8 10.63 L 13.52 11.52 L 12.63 11.8 L 10.5 12.5 L 12.63 13.2 L 13.52 13.48 L 13.8 14.37" transform="matrix(1 0 0 1 0 0)" fill="#FFFFFF" stroke="none" />
  <path d="M 17.8 19.3 C 17.33 18.28 15.76 16.56 13.2 17.78 C 12.58 17.53 11.17 17.08 9.87 16.95 C 9.44 16.91 9.03 17.1 8.72 17.43 L 8.4 17.77 C 8.35 17.82 8.4 17.93 8.48 17.92 C 9.28 17.77 10.75 18.03 12.82 19.62 C 13 19.76 12.99 20.05 12.8 20.17 C 12.4 19.66 11.08 19.04 9 20.61 C 8.6 20.75 7.56 20.74 6.6 19.52 C 5.73 18.87 3.8 18 3 19.74 C 4.03 19.81 6.34 20.39 7.65 22.14 C 7.74 22.26 7.89 22.31 8.03 22.26 C 10.38 21.41 15.01 20.47 16.4 23 C 17.93 22.64 21 21.61 21 20.39 C 20.4 20.46 18.92 20.35 17.8 19.3" transform="matrix(1 0 0 1 0 0)" fill="#FFFFFF" stroke="none" />
  <path d="M 9 15 L 13.17 15 L 12.88 14.12 L 9 12.68 L 9 15" transform="matrix(1 0 0 1 0 0)" fill="#FFFFFF" stroke="none" />
  <path d="M 7 19.08 C 6.8 17.92 6 15.69 4.4 16.03 C 4.8 16.54 5.6 17.73 5.6 18.42 C 5.93 18.49 6.68 18.72 7 19.07 L 7 19.08" transform="matrix(1 0 0 1 0 0)" fill="#FFFFFF" stroke="none" />
</svg>
