<?xml version="1.0" encoding="UTF-8"?>
<!-- Reconstructed from Amplitude.Graphics.Svg.SvgAsset and recolored from static UIMapper.Color metadata for EWShop; not original source SVG. Live UI state/material colors are not included. -->
<svg xmlns="http://www.w3.org/2000/svg" width="24" height="24" viewBox="0 0 24 24">
  <path d="M 11.951 15.36 C 12.794 16.447 13.951 18.591 12.152 19.852 C 10.621 20.921 10.875 22.234 11.196 22.754 C 9.277 23.203 7.684 22.937 7.122 22.754 L 7.122 21.749 C 7.795 20.946 9.319 20.892 9.998 20.969 C 9.516 20.343 7.881 20.561 7.122 20.744 C 6.258 20.118 6.042 18.996 6.042 18.511 C 6.758 17.837 7.955 18.511 8.436 19.179 C 8.535 18.074 9.992 17.506 11.431 17.618 C 10.85 17.264 10.869 16.95 10.949 16.838 C 10.532 16.946 10.195 16.99 9.925 16.991 L 11.951 15.36 M 16.295 15.67 L 17.169 14.013 C 17.546 16.796 16.843 19.815 15.042 21.737 C 15.178 20.839 14.708 19.828 14.048 18.848 C 14.054 18.83 14.066 18.806 14.066 18.788 C 14.239 18.174 14.189 17.565 14.054 17.027 C 13.887 16.371 13.572 15.762 13.251 15.26 C 13.118 15.053 12.971 14.855 12.82 14.661 L 15.041 12.876 L 16.295 15.67 M 10.863 9.494 L 9.029 11.1 L 11.81 11.1 L 11.619 11.604 C 11.17 11.288 10.508 11.258 10.005 11.483 C 9.678 11.631 9.393 11.886 9.221 12.24 C 8.752 12.282 7.782 12.588 7.356 12.754 C 6.887 12.937 6.548 13.328 6.388 13.795 C 5.999 13.836 5.683 14.019 5.461 14.256 C 5.221 14.516 5.103 14.822 5.054 15.047 C 4.844 15.927 4.77 16.536 5.072 17.098 C 3.838 17.742 2.937 18.788 2.758 20.496 C 1.523 19.314 -0.329 13.995 2.449 9.858 C 2.147 11.294 4.091 12.588 6.196 11.146 C 6.966 10.409 7.969 8.623 7.123 7.404 L 10.863 9.494 M 6.516 14.835 C 6.837 15.58 7.281 17.133 6.516 17.399 C 6.121 17.399 5.418 16.997 5.801 15.39 C 5.838 15.171 6.035 14.747 6.516 14.835 M 9.591 16.965 C 9.024 16.869 8.888 16.523 8.912 16.282 L 8.918 16.282 L 10.01 15.857 L 9.591 16.965 M 7.356 16.063 C 6.585 14.185 7.356 13.493 8.072 13.718 C 8.362 14.787 8.35 15.874 8.313 16.282 L 8.313 16.288 C 8.029 17.091 7.554 16.471 7.356 16.063 M 9.269 13.274 C 9.763 14.474 9.603 14.758 9.535 14.882 C 9.523 14.905 9.511 14.947 9.511 14.947 C 8.937 15.396 8.634 14.687 8.554 14.279 C 8.554 13.387 9.029 13.239 9.269 13.274 M 9.869 13.718 C 9.48 12.199 10.863 12.187 11.011 12.589 C 11.052 12.701 11.088 12.808 11.125 12.91 L 10.445 14.707 C 10.12 14.488 9.869 14.06 9.869 13.718" transform="matrix(1 0 0 1 0 0)" fill="#FFFFFF" stroke="none" />
  <path d="M 15.787 4.722 L 16.96 2.072 L 17.7 5.315 L 21.252 3.267 L 19.35 6.551 L 23 6.951 L 19.132 9.285 L 22.392 11.388 L 18.677 10.82 L 20.37 15.215 L 17.091 12.102 L 16.112 13.953 L 15.113 11.724 L 11.398 14.668 L 12.68 10.252 L 10.659 10.546 L 12.072 9.517 L 7.987 7.203 L 12.202 7.393 L 11.094 5.121 L 13.744 5.794 L 12.81 1 L 15.787 4.722 M 14.86 7.303 L 13.9 7.06 L 14.302 7.882 L 12.775 7.813 L 14.255 8.651 L 13.743 9.024 L 14.475 8.918 L 14.011 10.517 L 15.356 9.45 L 15.718 10.257 L 16.072 9.587 L 17.276 10.753 L 16.647 9.123 L 17.992 9.328 L 16.811 8.567 L 18.212 7.722 L 16.89 7.577 L 17.236 6.07 L 16.308 7.06 L 16.024 5.955 L 15.6 6.915 L 14.522 5.567 L 14.86 7.303" transform="matrix(1 0 0 1 0 0)" fill="#FFFFFF" stroke="none" />
</svg>
