<?xml version="1.0" encoding="UTF-8"?>
<!-- Reconstructed from Amplitude.Graphics.Svg.SvgAsset and recolored from static UIMapper.Color metadata for EWShop; not original source SVG. Live UI state/material colors are not included. -->
<svg xmlns="http://www.w3.org/2000/svg" width="24" height="24" viewBox="0 0 24 24">
  <path d="M 15.73 17.868 L 14.52 17.958 C 13.66 18.028 12.89 17.416 12.74 16.562 L 12.71 16.401 C 12.63 15.939 12.03 15.828 11.79 16.23 C 11.35 16.963 10.39 17.184 9.68 16.702 L 9.45 16.542 C 8.64 15.999 8.42 14.904 8.96 14.09 L 9.55 13.196 C 9.8 12.825 9.75 12.322 9.43 12.001 L 9.21 11.78 C 9.06 11.629 8.86 11.529 8.64 11.499 L 7.31 11.308 C 6.25 11.157 5.47 10.253 5.47 9.178 L 5.47 9.078 C 5.47 7.942 6.39 7.028 7.51 7.028 C 8.09 7.028 8.4 6.355 8.03 5.903 L 7.6 5.391 C 7.1 4.788 7.02 3.954 7.34 3.281 C 5.2 3.824 3.42 5.27 2.86 7.762 C 2.74 8.334 2.75 8.887 2.76 9.439 C 2.77 9.962 2.79 10.464 2.68 10.946 C 2.59 11.328 2.34 11.629 2.08 11.921 C 1.84 12.262 1.54 12.604 1.5 13.076 C 1.49 13.638 2.38 14.221 2.38 14.221 C 2.48 14.482 2.58 14.774 2.67 15.065 L 3.1 16.632 C 3.19 17.054 3.27 17.476 3.31 17.878 C 3.36 18.29 3.61 18.661 4 18.762 C 6.05 19.284 8.24 18.541 9.72 17.064 C 9.54 17.627 8.97 18.199 8.45 18.711 C 7.94 19.224 7.48 19.686 7.5 20.027 L 9.36 22.981 L 16.67 19.374 C 16.78 19.224 16.38 18.701 15.91 18.089 C 15.85 18.008 15.79 17.928 15.73 17.848 L 15.73 17.868" transform="matrix(1 0 0 1 0 0)" fill="#FFFFFF" stroke="none" />
  <path d="M 19.03 5.29 C 19.13 4.858 19.23 4.395 19.68 3.994 C 20.23 3.491 20.78 3.28 21.24 3.11 C 21.56 2.989 21.84 2.889 22.03 2.708 C 22.5 2.276 22.5 1 22.5 1 C 22.5 1 22.03 1.854 20.62 1.854 C 19.21 1.854 18.38 2.175 17.8 2.708 C 17.52 2.959 17.46 3.21 17.39 3.471 C 17.32 3.763 17.24 4.074 16.86 4.416 C 16.14 5.079 14.51 4.868 14.51 4.868 C 14.33 4.837 14.14 4.817 13.95 4.797 L 13.95 2.567 C 14.23 2.447 14.43 2.155 14.43 1.814 C 14.43 1.362 14.08 1 13.64 1 C 13.2 1 12.85 1.362 12.85 1.814 C 12.85 2.155 13.05 2.437 13.33 2.567 L 13.33 4.807 C 12.46 4.868 11.66 5.209 11.02 5.742 L 9.78 4.385 C 9.9 4.094 9.86 3.742 9.63 3.501 C 9.33 3.17 8.83 3.16 8.51 3.461 C 8.19 3.773 8.18 4.285 8.48 4.616 C 8.7 4.858 9.04 4.928 9.33 4.817 L 10.56 6.174 C 9.93 6.877 9.52 7.781 9.45 8.795 L 8 8.795 C 7.88 8.504 7.6 8.293 7.27 8.293 C 6.83 8.293 6.48 8.655 6.48 9.107 C 6.48 9.559 6.83 9.921 7.27 9.921 C 7.6 9.921 7.88 9.72 8 9.418 L 9.45 9.418 C 9.55 10.835 10.31 12.07 11.42 12.774 L 10.75 14.1 C 10.44 14.069 10.14 14.24 9.99 14.532 C 9.79 14.933 9.94 15.426 10.33 15.627 C 10.72 15.837 11.19 15.677 11.39 15.275 C 11.54 14.974 11.49 14.622 11.3 14.381 L 11.97 13.055 C 12.48 13.276 13.04 13.406 13.62 13.406 C 13.66 13.406 13.7 13.406 13.74 13.406 C 13.78 13.406 13.82 13.406 13.87 13.406 L 14.05 15.516 C 13.78 15.667 13.6 15.968 13.63 16.31 C 13.67 16.762 14.05 17.093 14.48 17.053 C 14.91 17.013 15.24 16.621 15.2 16.169 C 15.17 15.837 14.95 15.566 14.66 15.466 L 14.48 13.326 C 15.64 13.075 16.63 12.332 17.22 11.307 L 18.5 12 C 18.48 12.311 18.64 12.613 18.92 12.764 C 19.31 12.974 19.78 12.814 19.98 12.412 C 20.18 12.01 20.03 11.518 19.64 11.317 C 19.34 11.156 18.99 11.216 18.76 11.427 L 17.48 10.744 C 17.65 10.332 17.75 9.88 17.78 9.418 L 19.95 9.418 C 20.07 9.71 20.35 9.921 20.68 9.921 C 21.12 9.921 21.47 9.559 21.47 9.107 C 21.47 8.655 21.12 8.293 20.68 8.293 C 20.35 8.293 20.07 8.494 19.95 8.795 L 17.78 8.795 C 17.73 8.122 17.53 7.479 17.22 6.927 C 17.58 6.857 17.93 6.746 18.23 6.565 C 18.79 6.224 18.89 5.772 19 5.29 L 19.03 5.29 M 11.62 10.011 C 10.96 10.011 10.42 9.458 10.42 8.775 C 10.42 8.092 10.96 7.54 11.62 7.54 C 12.28 7.54 12.82 8.092 12.82 8.775 C 12.82 9.458 12.28 10.011 11.62 10.011 M 13.07 7.359 C 12.69 7.359 12.38 7.037 12.38 6.646 C 12.38 6.254 12.69 5.932 13.07 5.932 C 13.45 5.932 13.76 6.254 13.76 6.646 C 13.76 7.037 13.45 7.359 13.07 7.359" transform="matrix(1 0 0 1 0 0)" fill="#FFFFFF" stroke="none" />
</svg>
