<?xml version="1.0" encoding="UTF-8"?>
<!-- Reconstructed from Amplitude.Graphics.Svg.SvgAsset and recolored from static UIMapper.Color metadata for EWShop; not original source SVG. Live UI state/material colors are not included. -->
<svg xmlns="http://www.w3.org/2000/svg" width="24" height="24" viewBox="0 0 24 24">
  <path d="M 21.274 19.269 C 19.821 18.893 18.685 18.466 18.291 17.232 L 18.278 17.193 C 17.871 15.919 16.635 12.05 17.457 11.254 C 17.933 10.458 19.153 8.694 20.154 7.246 C 20.905 6.161 21.533 5.254 21.634 5.061 C 21.873 4.61 21.873 4.324 21.634 4.128 C 21.277 3.912 17.122 1.589 16.682 2.064 C 16.449 2.314 16.313 2.742 16.313 2.742 C 15.558 4.519 13.627 8.394 11.942 9.682 C 9.834 11.291 9.505 12.52 10.651 13.704 C 11.871 14.966 13.708 17.07 14.18 18.893 C 14.656 20.735 15.735 20.995 18.289 20.995 C 18.804 20.995 19.22 20.997 19.557 20.999 C 20.95 21.004 20.999 21.004 21.272 20.877 C 21.611 20.721 22.724 19.647 21.274 19.269" transform="matrix(1 0 0 1 0 0)" fill="#FFFFFF" stroke="none" />
  <path d="M 6.012 7.054 C 6.192 6.836 7.208 7.325 8.135 7.841 C 7.488 8.967 6.829 9.909 6.275 10.398 C 5.399 11.126 4.452 11.913 4.112 13.049 C 3.798 14.103 4.172 15.032 4.866 15.773 L 4.867 15.772 C 5.411 16.353 6.078 17.115 6.656 17.927 C 7.001 18.412 7.045 19.22 7.208 19.795 L 7.219 19.828 C 7.376 20.379 7.69 20.739 8.113 21.003 C 8.433 21.746 8.993 22.332 9.747 22.634 C 9.64 22.762 9.525 22.86 9.454 22.897 C 9.25 23.003 9.211 23.003 8.168 22.999 C 7.915 22.997 7.603 22.997 7.217 22.997 C 5.301 22.997 4.491 22.777 4.135 21.226 C 3.781 19.691 2.403 17.92 1.488 16.857 C 0.629 15.86 0.876 14.825 2.456 13.469 C 3.719 12.386 5.168 9.123 5.734 7.626 C 5.734 7.626 5.837 7.266 6.012 7.054" transform="matrix(1 0 0 1 0 0)" fill="#FFFFFF" stroke="none" />
  <path d="M 11.125 4.061 C 11.367 3.791 12.839 4.48 14.047 5.116 C 13.907 5.374 13.762 5.636 13.612 5.893 C 12.875 7.158 12.107 8.233 11.462 8.785 L 11.334 8.887 C 10.245 9.719 9.42 10.59 9.121 11.558 C 8.78 12.664 9.188 13.632 9.933 14.401 L 9.934 14.4 C 10.528 15.015 11.257 15.821 11.891 16.681 C 12.005 16.837 12.113 16.993 12.217 17.146 C 12.36 17.657 12.497 18.099 12.588 18.394 L 12.601 18.431 C 12.742 18.89 12.99 19.231 13.318 19.498 C 13.625 20.433 14.146 21.138 15.041 21.546 C 15.201 21.619 15.371 21.68 15.547 21.731 C 15.464 21.803 15.388 21.858 15.333 21.884 C 15.083 22.004 15.036 22.004 13.761 22 C 13.452 21.998 13.071 21.996 12.599 21.996 C 10.257 21.996 9.268 21.749 8.832 20.005 C 8.495 18.658 7.395 17.152 6.398 15.987 L 5.984 15.513 C 5.596 15.079 5.136 14.664 5.025 14.064 C 4.847 13.104 5.613 12.299 6.275 11.704 C 6.429 11.565 6.597 11.423 6.78 11.278 C 8.325 10.058 10.095 6.388 10.787 4.704 C 10.789 4.699 10.913 4.297 11.125 4.061" transform="matrix(1 0 0 1 0 0)" fill="#FFFFFF" stroke="none" />
</svg>
