<?xml version="1.0" encoding="UTF-8"?>
<!-- Reconstructed from Amplitude.Graphics.Svg.SvgAsset and recolored from static UIMapper.Color metadata for EWShop; not original source SVG. Live UI state/material colors are not included. -->
<svg xmlns="http://www.w3.org/2000/svg" width="24" height="24" viewBox="0 0 24 24">
  <path d="M 22.827 1 C 22.923 1 23 1.077 23 1.173 L 23 2.921 C 23 2.972 22.981 3.021 22.946 3.058 C 18.807 7.474 14.717 11.65 12.933 12.4 C 12.926 12.406 12.918 12.409 12.911 12.41 C 12.908 12.411 12.906 12.411 12.903 12.411 C 12.884 12.411 12.863 12.399 12.843 12.388 C 12.812 12.371 12.799 12.342 12.806 12.302 C 13.218 10.495 16.21 5.846 19.751 1.081 C 19.788 1.03 19.848 1 19.911 1 L 21.453 1 C 21.622 1 21.715 1.197 21.608 1.328 C 19.243 4.226 17.441 6.654 16.322 8.13 C 16.118 8.404 16.224 8.484 16.46 8.237 C 17.834 6.782 20.063 4.095 22.697 1.06 C 22.73 1.022 22.777 1 22.827 1" transform="matrix(1 0 0 1 0 0)" fill="#FFFFFF" stroke="none" />
  <path d="M 9.453 12.567 C 8.206 10.496 9.05 4.015 18.229 2.004 C 18.335 1.981 18.359 2.075 18.255 2.106 C 9.8 4.608 9.447 10.257 9.639 12.497 C 9.65 12.626 9.519 12.678 9.453 12.567" transform="matrix(1 0 0 1 0 0)" fill="#FFFFFF" stroke="none" />
  <path d="M 10.452 4.381 C 1.392 15.2 14 17.5 22.816 8.727 C 22.869 8.62 23.032 8.686 22.995 8.798 C 21.475 13.292 16.429 16.255 14 17 C 13.822 17.055 13.884 17.316 14.068 17.286 C 14.81 17.269 15.597 17.106 16.385 16.828 C 16.488 16.792 16.575 16.925 16.498 17.003 L 14.196 19.304 C 14.1 19.4 14.126 19.563 14.248 19.624 L 16.487 20.744 C 16.564 20.782 16.56 20.895 16.482 20.931 C 15.882 21.208 15.466 21.518 14 21.5 C 6.593 21.408 4.221 18.35 2.493 15.851 C 2.4 15.716 2.308 15.582 2.216 15.452 C 2.147 15.258 1.944 15.349 1.995 15.549 C 3.989 21.708 6.968 21.997 11.986 22.484 L 12.067 22.492 C 12.214 22.487 12.242 22.696 12.099 22.728 C 6.234 23.78 2.893 22.126 1.5 19 C 0 15.5 -0.5 9 3 5.5 C 5.243 2.536 9.533 1.296 15.727 1 C 15.795 0.997 15.808 1.094 15.742 1.108 C 13.109 1.672 4.012 4.184 3.66 12.035 C 3.44 16.92 8.468 18.764 10.946 19.204 C 11.077 19.228 11.127 19.043 11 19 C 8.825 18.266 7.277 16.426 6.245 14.565 C 5.088 12.478 5.302 9.905 6.619 7.915 C 8.091 5.687 9.416 4.74 10.367 4.275 C 10.435 4.242 10.5 4.323 10.452 4.381 M 12.5 19.5 C 12.226 19.487 12.193 19.131 12.502 19.121 C 12.83 19.124 12.791 19.478 12.5 19.5" transform="matrix(1 0 0 1 0 0)" fill="#FFFFFF" stroke="none" />
  <path d="M 20.667 16 C 21.877 14.795 22.688 13.329 22.773 11.641 C 22.811 11.518 22.631 11.451 22.575 11.567 C 21.955 12.846 20.88 14.065 19.607 15.047 L 20.667 16" transform="matrix(1 0 0 1 0 0)" fill="#FFFFFF" stroke="none" />
  <path d="M 11.127 3.267 C 10.692 3.905 11.485 4.317 11.872 3.686 C 12.324 3.086 11.458 2.722 11.127 3.267" transform="matrix(1 0 0 1 0 0)" fill="#FFFFFF" stroke="none" />
  <path d="M 19.084 19.385 L 23 23 L 21.112 23 L 19.084 21.261 L 17.055 23 L 15.291 23 L 19.084 19.385" transform="matrix(1 0 0 1 0 0)" fill="#FFFFFF" stroke="none" />
  <path d="M 19.084 15.77 L 23 19.384 L 21.112 19.384 L 19.084 17.645 L 17.055 19.384 L 15.291 19.384 L 19.084 15.77" transform="matrix(1 0 0 1 0 0)" fill="#FFFFFF" stroke="none" />
</svg>
