<?xml version="1.0" encoding="UTF-8"?>
<!-- Reconstructed from Amplitude.Graphics.Svg.SvgAsset and recolored from static UIMapper.Color metadata for EWShop; not original source SVG. Live UI state/material colors are not included. -->
<svg xmlns="http://www.w3.org/2000/svg" width="25" height="24" viewBox="0 0 25 24">
  <path d="M 3.417 15.807 L 4.114 12.491 L 4.064 12.043 L 6.721 12.718 L 4.765 10.306 L 6.093 9.203 L 6.399 6.862 L 6.433 6.829 L 11.729 3.526 L 9.672 3.526 L 11.109 1.288 L 13.422 0.759 L 16.376 4.604 L 18.18 6.666 L 15.924 9.265 L 19.307 7.98 L 19.971 12.491 L 21.643 15.807 L 21.567 17.441 L 19.602 19.278 L 21.434 20.341 L 21.301 23.241 L 16.717 23.241 C 16.708 23.17 16.699 23.098 16.689 23.027 C 16.89 23.063 17.094 23.06 17.288 23.023 C 18.32 22.825 18.988 21.773 18.807 20.581 C 18.741 20.151 18.636 19.689 18.539 19.262 C 18.517 19.163 18.495 19.067 18.474 18.973 C 18.356 18.444 18.261 17.967 18.23 17.529 L 18.213 17.293 L 18.091 17.089 C 17.819 16.632 17.625 15.93 17.386 15.038 L 17.366 14.965 C 17.159 14.191 16.901 13.223 16.455 12.542 C 16.074 11.959 15.45 11.676 15.075 11.517 C 14.979 11.476 14.882 11.437 14.795 11.402 L 14.773 11.393 C 14.722 11.372 14.674 11.353 14.629 11.334 L 14.636 11.19 C 14.651 10.9 14.67 10.52 14.639 10.148 C 14.607 9.78 14.52 9.317 14.25 8.901 C 13.955 8.446 13.5 8.136 12.917 8.018 C 12.275 7.887 11.649 7.987 11.148 8.384 C 10.681 8.754 10.458 9.275 10.354 9.722 C 10.242 10.198 10.233 10.72 10.293 11.208 C 9.98 11.332 9.701 11.495 9.456 11.701 C 8.954 12.124 8.686 12.652 8.529 13.153 C 8.384 13.614 8.317 14.108 8.262 14.514 L 8.255 14.563 C 8.194 15.011 8.141 15.375 8.04 15.705 C 7.988 15.875 7.891 16.048 7.726 16.307 C 7.709 16.334 7.69 16.364 7.67 16.394 C 7.527 16.617 7.328 16.925 7.19 17.26 C 7.063 17.565 6.848 18.272 6.668 18.908 C 6.489 19.539 6.3 20.258 6.251 20.586 L 6.251 20.588 C 6.174 21.115 6.25 21.598 6.55 22.028 C 6.741 22.301 7.029 22.534 7.201 22.674 C 7.231 22.698 7.257 22.719 7.279 22.737 L 7.487 22.911 L 7.754 22.957 C 8.069 23.01 8.319 22.903 8.382 22.875 C 8.394 22.871 8.405 22.865 8.416 22.86 C 8.409 22.959 8.404 23.068 8.405 23.171 C 8.406 23.193 8.406 23.217 8.407 23.241 L 4.114 23.241 L 3.766 18.756 L 3.417 15.807" transform="matrix(1 0 0 1 0 0)" fill="#FFFFFF" stroke="none" />
  <path d="M 11.719 23.241 L 9.409 23.241 C 9.397 23.076 9.416 22.89 9.431 22.745 C 9.434 22.711 9.438 22.678 9.44 22.65 C 9.467 22.356 9.511 22.054 9.565 21.747 C 9.606 21.518 9.652 21.286 9.702 21.052 C 9.765 20.757 9.834 20.458 9.902 20.159 C 9.962 19.896 10.022 19.633 10.079 19.371 C 10.165 18.978 10.243 18.586 10.302 18.2 C 10.323 18.064 10.341 17.929 10.357 17.795 C 10.374 17.654 10.387 17.514 10.397 17.375 C 10.425 16.979 10.408 16.617 10.276 16.242 L 9.76 17.33 L 9.523 17.83 C 9.539 18.222 9.352 18.626 9.133 19.014 C 9.074 19.119 9.012 19.223 8.952 19.325 C 8.74 19.68 8.542 20.014 8.5 20.302 C 8.478 20.462 8.537 20.593 8.597 20.725 C 8.636 20.811 8.675 20.897 8.693 20.992 C 8.714 21.104 8.706 21.228 8.634 21.379 C 8.63 21.389 8.621 21.403 8.609 21.419 C 8.489 21.579 8.043 21.991 7.921 21.971 C 7.879 21.935 7.838 21.902 7.799 21.869 C 7.403 21.544 7.152 21.338 7.241 20.732 C 7.315 20.23 7.914 18.126 8.113 17.643 C 8.215 17.398 8.361 17.17 8.508 16.94 C 8.697 16.646 8.889 16.347 8.996 15.999 C 9.127 15.573 9.188 15.122 9.248 14.681 C 9.388 13.649 9.521 12.672 10.523 12.197 C 10.783 12.074 11.101 11.984 11.494 11.936 C 11.385 11.668 11.304 11.32 11.272 10.957 C 11.179 9.913 11.489 8.747 12.717 8.997 C 13.74 9.206 13.682 10.291 13.635 11.193 C 13.62 11.469 13.606 11.728 13.625 11.94 C 13.842 12.095 14.127 12.21 14.419 12.328 C 14.887 12.517 15.373 12.714 15.619 13.09 C 15.975 13.635 16.2 14.475 16.428 15.328 C 16.651 16.16 16.877 17.005 17.233 17.601 C 17.277 18.219 17.425 18.869 17.568 19.499 C 17.664 19.924 17.759 20.34 17.818 20.731 C 17.994 21.89 16.914 22.394 16.506 21.805 C 16.387 21.633 16.326 21.368 16.37 20.999 L 16.373 20.973 C 16.385 20.88 16.432 20.809 16.479 20.737 C 16.541 20.643 16.604 20.547 16.59 20.398 C 16.57 20.182 16.08 18.51 15.948 18.08 L 15.935 18.038 C 15.81 17.639 15.624 17.26 15.436 16.883 L 15.409 16.829 C 15.343 16.697 15.277 16.565 15.214 16.432 L 15.213 16.43 C 15.146 16.289 15.082 16.147 15.023 16.004 L 15.023 16.003 C 15.004 16 14.987 16 14.973 16.003 C 14.943 16.009 14.918 16.028 14.906 16.052 C 14.876 16.109 14.886 16.206 14.895 16.295 C 14.9 16.341 14.904 16.384 14.903 16.419 C 14.896 16.599 14.893 16.777 14.894 16.955 L 14.895 16.994 C 14.898 17.427 14.923 17.854 14.962 18.278 C 15.047 19.209 15.204 20.122 15.362 21.041 L 15.372 21.095 C 15.431 21.443 15.491 21.79 15.548 22.14 C 15.607 22.505 15.662 22.871 15.709 23.241 L 13.403 23.241 L 13.042 22.326 L 12.893 21.949 L 12.817 21.754 L 12.178 21.732 L 12.083 22.044 L 11.984 22.369 L 11.719 23.241" transform="matrix(1 0 0 1 0 0)" fill="#FFFFFF" stroke="none" />
</svg>
