<?xml version="1.0" encoding="UTF-8"?>
<!-- Reconstructed from Amplitude.Graphics.Svg.SvgAsset and recolored from static UIMapper.Color metadata for EWShop; not original source SVG. Live UI state/material colors are not included. -->
<svg xmlns="http://www.w3.org/2000/svg" width="24" height="24" viewBox="0 0 24 24">
  <path d="M 13.75 7 L 10.15 7 L 10.15 10.15 L 7 10.15 L 7 13.75 L 10.15 13.75 L 10.15 16.9 L 13.75 16.9 L 13.75 13.75 L 16.9 13.75 L 16.9 10.15 L 13.75 10.15 L 13.75 7" transform="matrix(1 0 0 1 0 0)" fill="#FFFFFF" stroke="none" />
  <path d="M 16.758 18.338 C 20.242 14.976 21.367 8.142 14.965 4.36 C 14.772 4.246 14.859 3.967 15.076 4.019 C 16.342 4.317 18.169 4.988 19.578 6.395 C 19.742 6.558 19.949 6.431 19.813 6.244 C 18.132 3.937 13.807 1.259 7.961 3.146 C 7.751 3.214 7.797 3.448 8.017 3.432 C 8.859 3.37 9.975 3.3 10.581 3.376 C 10.749 3.397 10.727 3.532 10.561 3.561 C 7.631 4.074 4.016 6.508 4.626 10.851 C 4.649 11.012 4.496 11.12 4.378 11.009 C 4.193 10.834 3.978 10.564 3.792 10.176 C 3.703 9.991 3.424 10.006 3.403 10.21 C 3.202 12.198 3.888 15.546 7.626 18.037 C 7.826 18.17 7.717 18.423 7.501 18.316 C 4.726 16.94 1.508 13.77 2.759 8.059 C 2.984 6.756 3.97 4.67 6.223 3.1 C 10.252 0.293 16.237 0.614 19.802 3.99 C 21.293 5.402 22.401 7.388 22.471 10.115 C 22.473 10.216 22.476 10.317 22.479 10.418 C 22.49 10.827 22.501 11.237 22.5 11.645 C 22.496 13.105 22.102 15.661 19.973 17.529 C 19.824 17.66 19.644 17.521 19.728 17.342 C 19.792 17.206 19.863 17.055 19.939 16.895 C 20.212 16.316 20.539 15.622 20.753 15.127 C 20.832 14.944 20.713 14.884 20.593 15.043 C 19.883 15.99 18.412 17.757 16.919 18.604 C 16.728 18.712 16.6 18.49 16.758 18.338" transform="matrix(1 0 0 1 0 0)" fill="#FFFFFF" stroke="none" />
  <path d="M 4.21 20.928 C 7.065 21.895 12.161 21.806 15.437 21.563 L 14.048 22.952 C 13.307 22.972 12.628 22.97 12.068 22.952 C 4.434 23.26 1.553 22.02 1.067 21.41 C 0.528 19.867 3.387 19.161 4.883 19 C 2.728 19.771 3.536 20.606 4.21 20.928" transform="matrix(1 0 0 1 0 0)" fill="#FFFFFF" stroke="none" />
  <path d="M 19.084 19.385 L 23.001 23 L 21.113 23 L 19.084 21.261 L 17.055 23 L 15.291 23 L 19.084 19.385" transform="matrix(1 0 0 1 0 0)" fill="#FFFFFF" stroke="none" />
</svg>
