<?xml version="1.0" encoding="UTF-8"?>
<!-- Reconstructed from Amplitude.Graphics.Svg.SvgAsset and recolored from static UIMapper.Color metadata for EWShop; not original source SVG. Live UI state/material colors are not included. -->
<svg xmlns="http://www.w3.org/2000/svg" width="24" height="24" viewBox="0 0 24 24">
  <path d="M 13.536 12.069 C 12.846 10.922 12.28 9.686 12.012 8.37 C 11.986 8.368 11.986 8.369 11.986 8.377 C 11.986 8.38 11.986 8.385 11.984 8.391 C 11.581 10.129 10.877 11.444 9.92 12.93 C 9.713 13.252 9.497 13.563 9.284 13.871 C 8.544 14.937 7.83 15.967 7.561 17.313 C 6.993 20.166 9.228 22.985 12.225 22.851 C 14.555 22.747 16.419 20.706 16.522 18.446 C 16.605 16.618 15.666 15.257 14.707 13.867 C 14.494 13.558 14.28 13.247 14.076 12.93 C 13.893 12.646 13.71 12.359 13.536 12.069 M 10.266 14.287 C 10.675 13.651 11.029 13.053 11.311 12.412 L 11.107 14.879 C 11.019 15.01 10.929 15.14 10.84 15.268 C 10.319 16.018 9.816 16.743 9.627 17.691 C 9.264 19.514 10.528 21.317 12.342 21.563 C 12.219 21.584 12.093 21.598 11.965 21.603 C 9.755 21.702 8.107 19.623 8.526 17.52 C 8.724 16.527 9.251 15.767 9.796 14.981 C 9.954 14.754 10.113 14.525 10.266 14.287" transform="matrix(1 0 0 1 0 0)" fill="#FFFFFF" stroke="none" />
  <path d="M 6.108 19.048 L 6.197 19.07 L 6.197 19.071 C 6.495 18.315 6.191 17.5 5.9 16.723 C 5.8 16.456 5.702 16.193 5.631 15.938 C 5.335 14.884 5.186 13.873 5.416 12.785 C 5.657 11.65 6.459 10.828 7.263 10.003 C 7.759 9.495 8.256 8.986 8.623 8.402 C 10.134 5.997 9.17 3.71 7.489 1.747 L 7.456 1.709 C 7.327 1.558 7.008 1.183 6.932 1.149 C 6.909 1.139 6.856 1.141 6.866 1.171 C 6.973 1.436 7.092 1.709 7.214 1.988 C 7.784 3.293 8.41 4.728 8.138 6.107 C 7.916 7.236 7.045 8.114 6.183 8.983 L 6.183 8.983 C 5.622 9.549 5.064 10.111 4.69 10.738 C 3.606 12.557 3.927 14.7 4.897 16.489 C 4.993 16.665 5.151 16.904 5.324 17.165 L 5.324 17.165 C 5.685 17.709 6.108 18.346 6.15 18.698 C 6.164 18.822 6.155 18.932 6.108 19.048 M 17.892 19.048 L 17.803 19.07 L 17.803 19.071 C 17.505 18.315 17.809 17.5 18.1 16.723 C 18.2 16.456 18.298 16.193 18.369 15.938 C 18.665 14.884 18.815 13.873 18.584 12.785 C 18.343 11.65 17.541 10.828 16.737 10.003 C 16.241 9.495 15.744 8.986 15.377 8.402 C 13.867 5.997 14.83 3.71 16.511 1.747 L 16.544 1.709 C 16.673 1.558 16.992 1.183 17.068 1.149 C 17.092 1.139 17.144 1.141 17.134 1.171 C 17.027 1.436 16.908 1.709 16.786 1.988 L 16.786 1.988 L 16.786 1.988 C 16.216 3.293 15.59 4.728 15.862 6.107 C 16.085 7.236 16.955 8.114 17.817 8.983 C 18.378 9.549 18.936 10.111 19.31 10.738 C 20.394 12.557 20.073 14.7 19.103 16.489 C 19.008 16.665 18.849 16.904 18.676 17.165 L 18.676 17.165 L 18.676 17.165 L 18.676 17.165 C 18.315 17.709 17.892 18.346 17.851 18.698 C 17.836 18.822 17.845 18.932 17.892 19.048 M 3.839 9.559 L 3.192 10.531 C 2.112 12.555 2.21 14.791 3.598 16.635 C 3.764 16.856 3.966 17.064 4.167 17.27 C 4.385 17.494 4.601 17.717 4.767 17.951 C 4.898 18.137 5.017 18.35 4.997 18.585 L 4.688 18.34 C 2.79 17.723 1.336 16.435 1.037 14.398 C 0.745 12.404 1.76 10.079 3.839 9.559 M 20.809 10.531 L 20.161 9.559 C 22.241 10.079 23.255 12.404 22.963 14.398 C 22.664 16.435 21.21 17.723 19.312 18.34 L 19.003 18.585 C 18.983 18.35 19.102 18.137 19.233 17.951 C 19.399 17.717 19.615 17.494 19.833 17.27 C 20.034 17.064 20.236 16.856 20.403 16.635 C 21.79 14.791 21.888 12.555 20.809 10.531" transform="matrix(1 0 0 1 0 0)" fill="#FFFFFF" stroke="none" />
</svg>
