<?xml version="1.0" encoding="UTF-8"?>
<!-- Reconstructed from Amplitude.Graphics.Svg.SvgAsset and recolored from static UIMapper.Color metadata for EWShop; not original source SVG. Live UI state/material colors are not included. -->
<svg xmlns="http://www.w3.org/2000/svg" width="24" height="24" viewBox="0 0 24 24">
  <path d="M 6.13 14.95 L 9.12 12.61 C 10.3 11.69 10.99 10.23 10.99 8.67 L 10.99 4.32 C 10.99 4.03 10.82 3.78 10.57 3.69 L 10.22 3.57 C 8.79 3.07 7.47 2.24 6.36 1.15 C 6.16 0.95 5.85 0.95 5.64 1.15 C 4.53 2.24 3.21 3.07 1.78 3.57 L 1.43 3.69 C 1.18 3.78 1.01 4.03 1.01 4.32 L 1.01 8.67 C 1.01 10.23 1.71 11.7 2.88 12.61 L 5.87 14.95 C 5.95 15.01 6.06 15.01 6.14 14.95 L 6.13 14.95 M 6.54 2.44 C 7.37 3.24 8.34 3.85 9.4 4.22 L 9.68 4.32 C 10.01 4.44 10.23 4.77 10.23 5.14 L 10.23 8.53 C 10.23 9.47 9.93 10.37 9.4 11.09 L 8.94 10.59 C 9.35 10 9.58 9.28 9.58 8.52 L 9.58 5.13 C 9.58 5.06 9.54 4.99 9.47 4.97 L 9.19 4.87 C 8.23 4.53 7.33 4.01 6.53 3.34 L 6.53 2.43 L 6.54 2.44 M 2.41 10.79 C 2 10.12 1.78 9.34 1.78 8.52 L 1.78 5.13 C 1.78 4.76 2 4.43 2.33 4.31 L 2.61 4.21 C 3.65 3.84 4.61 3.25 5.43 2.47 L 5.43 3.38 C 4.65 4.04 3.76 4.55 2.81 4.88 L 2.53 4.98 C 2.47 5 2.42 5.07 2.42 5.14 L 2.42 8.53 C 2.42 9.16 2.58 9.77 2.87 10.29 L 2.4 10.79 L 2.41 10.79 M 3.37 11.88 C 3.29 11.82 3.21 11.75 3.14 11.69 L 3.6 11.2 C 3.6 11.2 3.7 11.29 3.75 11.33 L 6 13.08 L 8.13 11.42 L 8.59 11.92 L 6.29 13.71 C 6.11 13.85 5.88 13.85 5.7 13.71 L 3.37 11.89 L 3.37 11.88" transform="matrix(1 0 0 1 0 0)" fill="#FFFFFF" stroke="none" />
  <path d="M 22.33 21.45 C 21 21.11 19.96 20.73 19.6 19.63 L 19.6 19.6 C 19.22 18.46 18.08 15 18.84 14.29 C 19.28 13.58 20.39 12 21.31 10.7 C 22 9.73 22.57 8.92 22.67 8.75 C 22.89 8.35 22.89 8.09 22.67 7.92 C 22.34 7.73 18.53 5.65 18.13 6.07 C 17.92 6.29 17.79 6.68 17.79 6.68 C 17.44 7.49 16.8 8.79 16.06 10.02 C 15.9 10.29 15.73 10.56 15.56 10.82 C 15.52 10.88 15.48 10.93 15.44 10.99 C 15.32 11.17 15.19 11.36 15.06 11.53 C 14.63 12.1 14.2 12.59 13.78 12.9 C 12.39 13.94 11.85 14.8 12.05 15.6 C 12.08 15.71 12.12 15.81 12.17 15.91 C 12.19 15.96 12.21 16.01 12.24 16.05 C 12.33 16.2 12.45 16.35 12.59 16.49 C 12.74 16.64 12.9 16.81 13.06 16.98 C 13.07 16.99 13.08 17 13.1 17.02 C 13.77 17.73 14.51 18.61 15.08 19.52 C 15.08 19.52 15.13 19.61 15.16 19.66 C 15.25 19.81 15.33 19.96 15.41 20.11 C 15.46 20.2 15.5 20.29 15.54 20.37 C 15.61 20.53 15.67 20.68 15.72 20.84 C 15.74 20.9 15.77 20.96 15.79 21.02 C 15.79 21.02 15.82 21.1 15.83 21.13 C 16.27 22.78 17.25 23.01 19.6 23.01 C 20.07 23.01 20.45 23.01 20.76 23.01 C 22.04 23.01 22.08 23.01 22.33 22.9 C 22.64 22.76 23.66 21.8 22.33 21.46 L 22.33 21.45" transform="matrix(1 0 0 1 0 0)" fill="#FFFFFF" stroke="none" />
  <path d="M 12.6 16.47 C 12.45 16.32 12.34 16.17 12.25 16.03 C 12.22 15.98 12.2 15.93 12.18 15.89 C 12.13 15.79 12.08 15.68 12.06 15.58 C 12.06 15.56 12.04 15.53 12.03 15.51 L 8.01 15.51 L 8.01 17.01 L 13.11 17.01 C 13.11 17.01 13.09 16.98 13.08 16.97 C 12.92 16.8 12.76 16.63 12.61 16.48 L 12.6 16.47" transform="matrix(1 0 0 1 0 0)" fill="#FFFFFF" stroke="none" />
  <path d="M 15.56 10.8 C 15.73 10.54 15.9 10.27 16.06 10 L 12.5 10 L 12.5 11.5 L 15.06 11.5 C 15.19 11.33 15.32 11.15 15.44 10.96 C 15.48 10.9 15.52 10.85 15.56 10.79 L 15.56 10.8" transform="matrix(1 0 0 1 0 0)" fill="#FFFFFF" stroke="none" />
  <path d="M 15.54 20.35 C 15.5 20.26 15.45 20.17 15.41 20.09 C 15.33 19.94 15.25 19.79 15.16 19.64 C 15.13 19.59 15.1 19.55 15.08 19.5 L 5 19.5 L 5 21 L 15.79 21 C 15.77 20.94 15.75 20.88 15.73 20.82 C 15.68 20.66 15.62 20.51 15.55 20.35 L 15.54 20.35" transform="matrix(1 0 0 1 0 0)" fill="#FFFFFF" stroke="none" />
</svg>
