<?xml version="1.0" encoding="UTF-8"?>
<!-- Reconstructed from Amplitude.Graphics.Svg.SvgAsset and recolored from static UIMapper.Color metadata for EWShop; not original source SVG. Live UI state/material colors are not included. -->
<svg xmlns="http://www.w3.org/2000/svg" width="24" height="24" viewBox="0 0 24 24">
  <path d="M 15.937 4.764 L 17.086 2.084 L 17.81 5.363 L 21.288 3.293 L 19.426 6.613 L 23.001 7.017 L 19.213 9.377 L 22.404 11.503 L 18.767 10.929 L 20.425 15.373 L 17.214 12.226 L 16.256 14.097 L 15.277 11.844 L 11.64 14.82 L 12.895 10.355 L 10.916 10.652 L 12.299 9.611 L 8.3 7.272 L 12.427 7.464 L 11.342 5.167 L 13.937 5.848 L 13.022 1 L 15.937 4.764 M 15.03 7.374 L 14.09 7.127 L 14.483 7.958 L 12.988 7.889 L 14.437 8.736 L 13.936 9.114 L 14.653 9.006 L 14.198 10.622 L 15.515 9.544 L 15.869 10.36 L 16.217 9.683 L 17.395 10.861 L 16.779 9.214 L 18.096 9.421 L 16.94 8.651 L 18.312 7.797 L 17.018 7.65 L 17.357 6.126 L 16.447 7.127 L 16.17 6.01 L 15.754 6.981 L 14.699 5.618 L 15.03 7.374" transform="matrix(1 0 0 1 0 0)" fill="#FFFFFF" stroke="none" />
  <path d="M 4.632 13.946 C 4.601 14.181 4.583 14.429 4.576 14.677 C 4.564 17.206 6.035 18.867 7.944 19.499 C 7.863 19.933 7.993 20.397 8.327 20.732 C 8.87 21.277 9.747 21.277 10.291 20.732 L 11.52 19.499 C 11.613 19.468 11.706 19.437 11.799 19.4 L 12.775 20.347 C 11.422 20.973 10.452 21.073 9.791 23 C 9.636 22.529 9.315 21.78 8.814 21.395 C 7.913 20.689 6.603 20.447 5.893 20.051 C 5.541 19.852 5.127 19.79 4.756 19.926 L 2.13 20.881 L 3.391 18.829 C 3.656 18.396 3.638 17.838 3.421 17.373 C 3.242 16.989 3.1 16.58 2.995 16.158 L 3.008 16.152 C 2.89 15.668 2.581 15.241 2.13 15.074 L 1 14.659 L 2.137 14.255 C 2.594 14.094 2.908 13.673 3.026 13.19 C 3.057 13.06 3.1 12.922 3.137 12.799 L 3.421 12.744 L 4.632 13.946 M 13.658 16.543 C 13.862 16.735 13.781 17.063 13.707 17.348 C 13.689 17.422 13.671 17.497 13.658 17.559 L 15.833 19.741 C 16.154 19.697 16.451 19.852 16.704 20.106 C 17.124 20.527 17.012 20.819 16.45 21.383 C 15.888 21.947 15.604 22.058 15.178 21.637 C 14.925 21.383 14.77 21.086 14.813 20.764 L 12.639 18.582 C 12.589 18.594 12.534 18.606 12.478 18.618 C 12.182 18.693 11.83 18.78 11.626 18.582 L 13.658 16.543 M 14.377 13.598 C 14.55 13.558 14.735 13.579 14.894 13.661 L 15.135 13.872 C 15.345 14.169 15.332 14.584 15.073 14.838 C 14.85 15.073 14.517 15.117 14.245 14.993 L 10.162 19.164 C 10.291 19.442 10.254 19.79 10.025 20.013 L 10.025 20.019 C 9.778 20.285 9.37 20.323 9.086 20.112 L 8.883 19.876 C 8.71 19.598 8.746 19.225 8.987 18.978 C 9.197 18.767 9.5 18.699 9.766 18.799 C 10.208 18.487 11.042 17.557 11.016 16.347 L 11.568 15.895 C 12.717 15.85 13.6 15.03 13.88 14.59 C 13.815 14.39 13.82 14.165 13.918 13.974 L 14.377 13.598 M 17.143 14.243 L 18.279 14.646 L 17.149 15.061 C 16.692 15.228 16.383 15.656 16.272 16.139 L 16.284 16.152 C 16.185 16.573 16.043 16.982 15.858 17.366 C 15.765 17.564 15.709 17.782 15.691 17.999 L 14.381 16.722 C 14.394 16.679 14.412 16.635 14.425 16.592 L 15.759 15.253 C 15.793 15.219 15.824 15.183 15.853 15.147 L 16.197 15.938 L 17.077 14.214 C 17.099 14.224 17.12 14.235 17.143 14.243 M 1.809 7.072 L 10.291 15.563 C 10.649 16.158 10.007 17.348 9.859 17.205 L 2.007 9.353 L 1.803 7.072 L 1.809 7.072 M 4.49 6.861 L 11.177 13.55 L 10.726 15.157 C 10.719 15.154 10.712 15.152 10.705 15.148 L 2.216 6.657 L 4.49 6.861 M 10.878 9.694 L 10.842 9.72 C 10.495 9.635 10.145 9.589 9.803 9.582 C 9.556 9.582 9.315 9.6 9.075 9.631 L 7.79 8.355 C 7.912 8.276 8.031 8.19 8.151 8.099 L 10.878 9.694 M 9.798 5.641 C 9.805 5.655 10.039 6.088 10.32 6.575 L 9.303 6.528 C 9.572 6.057 9.794 5.648 9.798 5.641" transform="matrix(1 0 0 1 0 0)" fill="#FFFFFF" stroke="none" />
</svg>
