<?xml version="1.0" encoding="UTF-8"?>
<!-- Reconstructed from Amplitude.Graphics.Svg.SvgAsset and recolored from static UIMapper.Color metadata for EWShop; not original source SVG. Live UI state/material colors are not included. -->
<svg xmlns="http://www.w3.org/2000/svg" width="24" height="24" viewBox="0 0 24 24">
  <path d="M 20.082 3.388 C 20.126 3.121 20.026 2.852 19.82 2.678 L 18.863 1.878 L 20.094 2.082 C 20.36 2.126 20.63 2.026 20.803 1.819 L 21.604 0.862 L 21.399 2.093 C 21.355 2.359 21.455 2.629 21.662 2.802 L 22.619 3.603 L 21.388 3.399 C 21.122 3.355 20.852 3.455 20.679 3.662 L 19.878 4.619 L 20.082 3.388" transform="matrix(1 0 0 1 0 0)" fill="#FFFFFF" stroke="none" />
  <path d="M 1.656 12.314 C 1.232 13.439 1 14.657 1 15.93 C 1 19.117 2.454 21.964 4.734 23.845 C 3.504 22.144 2.78 20.054 2.78 17.795 C 2.78 16.498 3.018 15.257 3.454 14.113 L 1.656 12.314" transform="matrix(1 0 0 1 0 0)" fill="#FFFFFF" stroke="none" />
  <path d="M 5.168 15.826 C 5.094 16.248 5.055 16.682 5.055 17.125 C 5.055 19.442 6.112 21.513 7.771 22.881 C 6.876 21.644 6.349 20.124 6.349 18.481 C 6.349 18.019 6.391 17.568 6.471 17.129 L 5.168 15.826" transform="matrix(1 0 0 1 0 0)" fill="#FFFFFF" stroke="none" />
  <path d="M 18.584 11.431 C 18.789 11.781 18.794 12.212 18.598 12.566 L 17.521 14.503 L 19.432 13.381 C 19.781 13.176 20.213 13.171 20.566 13.368 L 22.503 14.445 L 21.381 12.533 C 21.176 12.184 21.171 11.753 21.368 11.399 L 22.445 9.462 L 20.534 10.584 C 20.185 10.789 19.753 10.794 19.399 10.597 L 17.462 9.52 L 18.584 11.431" transform="matrix(1 0 0 1 0 0)" fill="#FFFFFF" stroke="none" />
  <path d="M 10.523 7.21 C 11.383 7.444 12.054 8.116 12.288 8.975 L 13.249 12.498 L 14.21 8.975 C 14.444 8.116 15.116 7.444 15.975 7.21 L 19.498 6.249 L 15.975 5.288 C 15.116 5.054 14.444 4.383 14.21 3.523 L 13.249 0 L 12.288 3.523 C 12.054 4.383 11.383 5.054 10.523 5.288 L 7 6.249 L 10.523 7.21" transform="matrix(1 0 0 1 0 0)" fill="#FFFFFF" stroke="none" />
  <path d="M 2.319 7 L 5.318 7.222 L 16.055 17.959 L 17.563 16.456 L 18.848 17.741 L 16.6 19.99 L 19.169 22.559 L 17.884 23.844 L 15.315 21.274 L 13.066 23.523 L 11.781 22.238 L 13.172 20.842 L 2.367 10.036 L 2.319 7 M 4.75 8.483 L 15.11 18.843 L 14.064 19.89 L 3.703 9.529 L 3.758 8.538 L 4.75 8.483" transform="matrix(1 0 0 1 0 0)" fill="#FFFFFF" stroke="none" />
</svg>
