<?xml version="1.0" encoding="UTF-8"?>
<!-- Reconstructed from Amplitude.Graphics.Svg.SvgAsset and recolored from static UIMapper.Color metadata for EWShop; not original source SVG. Live UI state/material colors are not included. -->
<svg xmlns="http://www.w3.org/2000/svg" width="24" height="24" viewBox="0 0 24 24">
  <path d="M 9.864 7.759 C 11.639 6.734 13.895 7.291 14.996 8.993 L 15.098 9.161 C 16.156 10.994 15.529 13.337 13.696 14.395 C 11.921 15.42 9.666 14.863 8.565 13.161 L 8.462 12.993 C 7.404 11.161 8.032 8.817 9.864 7.759" transform="matrix(1 0 0 1 0 0)" fill="none" stroke="#FFFFFF" stroke-width="1" />
  <path d="M 14.7 9.391 C 15.631 11.003 15.078 13.065 13.466 13.996 C 11.853 14.927 9.791 14.375 8.86 12.762 C 7.929 11.15 8.482 9.088 10.094 8.157 C 11.707 7.226 13.769 7.778 14.7 9.391 M 12.753 10.515 C 13.064 11.052 12.88 11.739 12.342 12.05 C 11.805 12.36 11.117 12.176 10.807 11.638 C 10.497 11.101 10.681 10.414 11.218 10.103 C 11.756 9.793 12.443 9.977 12.753 10.515" transform="matrix(1 0 0 1 0 0)" fill="#FFFFFF" stroke="none" />
  <path d="M 1.343 14.611 L 3.198 15.678 L 4.576 13.201 L 6.658 14.098 L 4.986 14.678 L 3.608 17.155 L 1.433 15.904 L 1.207 16.336 C 5.48 19.588 10.315 19.96 14.221 18.313 L 20.475 12.303 L 19.231 9.804 L 17.303 8.706 L 19.869 8.555 L 21.047 10.921 C 21.486 9.623 21.733 8.205 21.75 6.69 L 20.663 8.077 L 18.26 7.11 L 16.46 7.503 L 18.33 5.49 L 20.304 6.326 L 21.344 5 L 21.687 5.132 C 21.659 4.832 21.623 4.528 21.578 4.221 C 12.748 1.371 4.006 5.987 1.343 14.611 M 16.47 8.369 C 17.965 10.959 17.078 14.271 14.488 15.766 C 11.899 17.261 8.587 16.374 7.092 13.784 C 5.597 11.194 6.484 7.883 9.074 6.388 C 11.664 4.893 14.975 5.78 16.47 8.369" transform="matrix(1 0 0 1 0 0)" fill="#FFFFFF" stroke="none" />
  <path d="M 23.001 19.386 L 19.084 15.771 L 15.291 19.386 L 17.055 19.386 L 19.084 17.647 L 21.113 19.386 L 23.001 19.386" transform="matrix(1 0 0 1 0 0)" fill="#FFFFFF" stroke="none" />
  <path d="M 23.001 23.001 L 19.084 19.386 L 15.291 23.001 L 17.055 23.001 L 19.084 21.262 L 21.113 23.001 L 23.001 23.001" transform="matrix(1 0 0 1 0 0)" fill="#FFFFFF" stroke="none" />
</svg>
