<?xml version="1.0" encoding="UTF-8"?>
<!-- Reconstructed from Amplitude.Graphics.Svg.SvgAsset and recolored from static UIMapper.Color metadata for EWShop; not original source SVG. Live UI state/material colors are not included. -->
<svg xmlns="http://www.w3.org/2000/svg" width="24" height="24" viewBox="0 0 24 24">
  <path d="M 13.1 10.957 L 16.114 10.957 L 16.557 13.57 L 15.835 13.57 L 15.721 13.918 L 15.03 13.745 L 13.71 13.918 L 12.901 17.24 L 13.276 19.283 L 13.71 20.274 L 13.276 20.84 L 10.036 21.512 L 8.054 20.84 L 7.901 18.089 L 7.683 18.329 L 6.035 15.142 L 4.441 15.393 L 4.015 15.142 L 3.819 15.24 L 3.72 15.753 L 2.891 16.233 L 3.011 16.441 L 2.705 16.976 L 2.705 17.2 L 3.229 17.872 L 2.651 17.826 L 2.705 18.746 L 1.788 19.082 L 1.352 18.417 L 1.09 17.958 L 1.166 16.703 L 1.166 16.561 L 1.723 15.24 L 1.428 14.4 L 1.788 13.57 L 2.487 13.374 L 3.284 13.745 L 3.72 13.122 L 5.194 12.74 L 5.947 11.201 L 7.999 11.201 L 7.639 10.957 L 7.323 10.317 L 6.974 9.28 L 7.094 8.352 L 7.443 7.774 L 7.999 7.435 L 8.938 7.271 L 9.681 7.544 L 10.216 7.959 L 10.718 9.28 L 11.165 9.924 L 10.903 10.743 L 10.903 11.027 L 11.165 11.027 L 11.253 10.47 L 12.901 10.557 L 13.1 10.957" transform="matrix(1 0 0 1 0 0)" fill="#FFFFFF" stroke="none" />
  <path d="M 0.086 10.785 L 6.131 8.92 L 3.774 8.496 L 6.278 7.596 L 4.379 5.582 L 7.119 6.914 L 7.087 4.362 L 8.22 6.711 L 8.649 4.293 L 9.084 6.147 L 10.628 1.297 L 7.951 3.469 L 6.463 0.003 L 6.151 4.124 L 1.615 2 L 3.275 5.785 L 0.469 6.448 L 2.944 7.987 L 0.086 10.785" transform="matrix(1 0 0 1 0 0)" fill="#FFFFFF" stroke="none" />
  <path d="M 21.436 21.555 L 23.001 23 L 21.114 23 L 19.085 21.261 L 17.056 23 L 15.292 23 L 17.829 20.582 L 17.829 20.581 L 19.084 19.385 L 21.375 21.499 L 21.436 21.555" transform="matrix(1 0 0 1 0 0)" fill="#FFFFFF" stroke="none" />
  <path d="M 17.187 17.578 L 17.187 17.579 L 15.292 19.385 L 17.056 19.385 L 19.085 17.646 L 21.114 19.385 L 23.001 19.385 L 19.084 15.77 L 18.733 16.105 L 18.733 16.106 L 17.878 16.92 L 17.878 16.919 L 17.187 17.578" transform="matrix(1 0 0 1 0 0)" fill="#FFFFFF" stroke="none" />
  <path d="M 18.379 14.37 L 19.068 13.713 L 23.032 17.372 L 20.269 3.609 L 16.48 4.293 L 16.364 4.494 L 18.379 14.37" transform="matrix(1 0 0 1 0 0)" fill="#FFFFFF" stroke="none" />
  <path d="M 23.003 20.885 L 22.921 20.885 L 22.947 20.908 L 23.003 20.885" transform="matrix(1 0 0 1 0 0)" fill="#FFFFFF" stroke="none" />
  <path d="M 17.524 15.184 L 16.818 15.857 L 14.243 3.814 L 14.686 2.618 L 19.924 1.888 L 20.072 2.628 L 15.845 3.391 L 15.308 4.322 L 17.524 15.184" transform="matrix(1 0 0 1 0 0)" fill="#FFFFFF" stroke="none" />
</svg>
