<?xml version="1.0" encoding="UTF-8"?>
<!-- Reconstructed from Amplitude.Graphics.Svg.SvgAsset and recolored from static UIMapper.Color metadata for EWShop; not original source SVG. Live UI state/material colors are not included. -->
<svg xmlns="http://www.w3.org/2000/svg" width="24" height="24" viewBox="0 0 24 24">
  <path d="M 14.887 1.462 L 16.722 2.494 L 18.145 3.852 L 18.463 5.604 L 15.687 3.461 L 13.488 2.41 L 10.424 2.41 L 8.107 3.461 L 7.024 4.839 L 6.12 6.805 L 7.024 8.41 L 9.157 8.909 L 11.213 9.172 L 13.208 8.686 L 15.005 8.082 L 16.473 7.831 L 15.005 10.197 L 11.976 11.413 L 15.107 12.926 L 16.998 13.413 L 17.357 14.852 L 17.973 16.113 L 20 19.1 L 16.326 21.153 L 11.976 23 L 9.913 19.757 L 11.115 19.1 L 12.61 16.113 L 9.687 18.079 L 9 18.198 L 9 17.5 C 9 16.672 8.328 16 7.5 16 C 6.672 16 6 16.672 6 17.5 L 6 18.201 L 4.995 17.444 L 4.836 15.086 L 4.088 13.317 L 3 12.297 L 4.836 9.583 L 4.651 6.568 L 6.559 2.494 L 10.57 1 L 12.903 1 L 14.887 1.462" transform="matrix(1 0 0 1 0 0)" fill="#FFFFFF" stroke="none" />
  <path d="M 7.5 17 C 7.776 17 8 17.224 8 17.5 L 8 21.5 C 8 21.776 7.776 22 7.5 22 C 7.224 22 7 21.776 7 21.5 L 7 17.5 C 7 17.224 7.224 17 7.5 17" transform="matrix(1 0 0 1 0 0)" fill="#FFFFFF" stroke="none" />
  <path d="M 21.5 11 C 21.776 11 22 11.224 22 11.5 L 22 15.5 C 22 15.776 21.776 16 21.5 16 C 21.224 16 21 15.776 21 15.5 L 21 11.5 C 21 11.224 21.224 11 21.5 11" transform="matrix(1 0 0 1 0 0)" fill="#FFFFFF" stroke="none" />
  <path d="M 2.5 1 C 2.776 1 3 1.224 3 1.5 L 3 5.5 C 3 5.776 2.776 6 2.5 6 C 2.224 6 2 5.776 2 5.5 L 2 1.5 C 2 1.224 2.224 1 2.5 1" transform="matrix(1 0 0 1 0 0)" fill="#FFFFFF" stroke="none" />
  <path d="M 4 18.5 C 4 18.776 3.776 19 3.5 19 C 3.224 19 3 18.776 3 18.5 L 3 17.5 C 3 17.224 3.224 17 3.5 17 C 3.776 17 4 17.224 4 17.5 L 4 18.5" transform="matrix(1 0 0 1 0 0)" fill="#FFFFFF" stroke="none" />
  <path d="M 19 9.5 C 19 9.776 18.776 10 18.5 10 C 18.224 10 18 9.776 18 9.5 L 18 7.5 C 18 7.224 18.224 7 18.5 7 C 18.776 7 19 7.224 19 7.5 L 19 9.5" transform="matrix(1 0 0 1 0 0)" fill="#FFFFFF" stroke="none" />
  <path d="M 21 2.5 C 21 2.776 20.776 3 20.5 3 C 20.224 3 20 2.776 20 2.5 L 20 1.5 C 20 1.224 20.224 1 20.5 1 C 20.776 1 21 1.224 21 1.5 L 21 2.5" transform="matrix(1 0 0 1 0 0)" fill="#FFFFFF" stroke="none" />
</svg>
