<?xml version="1.0" encoding="UTF-8"?>
<!-- Reconstructed from Amplitude.Graphics.Svg.SvgAsset and recolored from static UIMapper.Color metadata for EWShop; not original source SVG. Live UI state/material colors are not included. -->
<svg xmlns="http://www.w3.org/2000/svg" width="24" height="24" viewBox="0 0 24 24">
  <path d="M 14.003 19.784 C 13.953 19.685 13.904 19.577 13.845 19.468 C 13.746 19.281 13.648 19.103 13.539 18.916 C 13.5 18.857 13.44 18.748 13.44 18.748 C 13.44 18.748 13.431 18.728 13.421 18.718 L 5.242 18.718 L 5.242 20.544 L 14.299 20.544 C 14.279 20.474 14.249 20.415 14.23 20.346 C 14.17 20.149 14.092 19.971 14.013 19.774 L 14.003 19.784" transform="matrix(1 0 0 1 0 0)" fill="#FFFFFF" stroke="none" />
  <path d="M 17.13 2.332 C 17.613 1.819 22.211 4.364 22.606 4.591 C 22.872 4.798 22.872 5.124 22.606 5.607 C 22.487 5.815 21.796 6.801 20.968 7.984 C 19.853 9.573 18.521 11.497 17.988 12.365 C 17.071 13.234 18.453 17.446 18.906 18.837 L 18.906 18.876 C 19.34 20.218 20.593 20.681 22.201 21.106 L 22.211 21.086 C 23.818 21.5 22.586 22.674 22.211 22.842 C 21.905 22.98 21.855 22.981 20.316 22.981 L 18.916 22.981 C 16.085 22.981 14.901 22.704 14.368 20.691 C 14.359 20.653 14.321 20.56 14.318 20.554 C 14.309 20.544 14.309 20.523 14.309 20.523 L 14.318 20.523 C 14.299 20.454 14.269 20.376 14.249 20.307 C 14.19 20.109 14.121 19.932 14.032 19.734 L 14.023 19.734 C 13.973 19.626 13.914 19.518 13.864 19.419 C 13.766 19.232 13.667 19.054 13.559 18.866 C 13.519 18.807 13.48 18.757 13.46 18.698 L 13.44 18.698 C 12.76 17.603 11.871 16.538 11.072 15.68 C 11.043 15.66 11.033 15.641 11.023 15.631 C 10.826 15.424 10.629 15.216 10.451 15.028 C 10.333 14.92 10.234 14.792 10.146 14.674 C 13.036 13.668 15.107 10.924 15.107 7.688 C 15.107 7.284 15.068 6.88 15.009 6.495 C 15.739 5.203 16.351 3.92 16.716 3.071 C 16.728 3.054 16.885 2.596 17.13 2.332" transform="matrix(1 0 0 1 0 0)" fill="#FFFFFF" stroke="none" />
  <path d="M 7.215 1 C 10.648 1 13.43 3.782 13.431 7.215 C 13.431 10.648 10.648 13.431 7.215 13.431 C 3.782 13.43 1 10.648 1 7.215 C 1 3.782 3.782 1 7.215 1 M 4.324 11.093 C 5.133 11.695 6.13 12.05 7.215 12.05 C 9.888 12.05 12.05 9.888 12.05 7.215 C 12.05 6.13 11.704 5.133 11.093 4.324 L 4.324 11.093 M 7.215 2.381 C 4.542 2.381 2.381 4.542 2.381 7.215 C 2.381 8.3 2.726 9.297 3.338 10.106 L 10.106 3.338 C 9.297 2.736 8.3 2.381 7.215 2.381" transform="matrix(1 0 0 1 0 0)" fill="#FFFFFF" stroke="none" />
</svg>
