<?xml version="1.0" encoding="UTF-8"?>
<!-- Reconstructed from Amplitude.Graphics.Svg.SvgAsset and recolored from static UIMapper.Color metadata for EWShop; not original source SVG. Live UI state/material colors are not included. -->
<svg xmlns="http://www.w3.org/2000/svg" width="24" height="24" viewBox="0 0 24 24">
  <path d="M 18.185 19.343 C 17.71 18.572 17.415 17.477 17.121 16.4 C 16.817 15.295 16.522 14.209 16.047 13.495 C 15.895 13.263 15.667 13.086 15.411 12.938 C 15.24 12.845 15.059 12.752 14.879 12.678 C 14.736 12.622 14.594 12.566 14.451 12.511 C 14.318 12.455 14.176 12.399 14.052 12.344 C 13.862 12.26 13.672 12.177 13.51 12.074 C 13.472 12.047 13.434 12.028 13.396 12 C 13.368 11.722 13.396 11.387 13.406 11.035 C 13.463 10.051 13.52 8.909 12.741 8.408 C 12.703 8.389 12.674 8.361 12.636 8.343 C 12.513 8.278 12.361 8.222 12.19 8.194 C 10.575 7.869 10.157 9.355 10.271 10.701 C 10.309 11.183 10.423 11.647 10.565 12 C 10.033 12.065 9.596 12.186 9.244 12.353 C 8.598 12.659 8.237 13.123 8.009 13.671 C 7.99 13.717 7.971 13.764 7.952 13.81 C 7.772 14.302 7.686 14.868 7.601 15.444 L 7.582 15.565 C 7.515 16.047 7.449 16.53 7.325 17.004 C 7.325 17.004 7.325 17.004 7.316 17.004 C 7.287 17.096 7.268 17.189 7.24 17.282 C 7.202 17.412 7.154 17.533 7.097 17.653 C 6.955 17.96 6.774 18.229 6.603 18.498 C 6.404 18.795 6.213 19.092 6.08 19.408 C 5.852 19.946 5.244 22.007 5.007 23.009 L 6.594 23.009 C 6.594 22.963 6.594 22.907 6.594 22.861 C 6.651 22.49 6.907 22.053 7.192 21.598 C 7.572 20.977 7.981 20.308 7.952 19.658 L 8.95 17.598 C 9.035 17.82 9.083 18.043 9.102 18.266 L 9.092 18.266 C 9.121 18.517 9.121 18.786 9.092 19.064 L 9.102 19.064 C 9.016 20.234 8.731 21.459 8.446 22.675 C 8.418 22.787 8.399 22.898 8.37 23.009 L 15.553 23.009 C 15.259 21.311 15.021 19.603 15.088 17.82 C 15.088 17.774 15.088 17.718 15.078 17.663 C 15.059 17.477 15.031 17.254 15.249 17.282 C 15.325 17.468 15.411 17.653 15.496 17.83 C 15.582 18.006 15.667 18.173 15.753 18.35 L 15.791 18.424 C 16.038 18.906 16.285 19.398 16.456 19.918 C 16.598 20.373 17.301 22.685 17.32 22.982 C 17.32 22.991 17.32 23 17.32 23.009 L 18.879 23.009 C 18.803 22.62 18.708 22.22 18.613 21.812 C 18.423 20.995 18.223 20.15 18.166 19.352 L 18.185 19.343" transform="matrix(1 0 0 1 0 0)" fill="#FFFFFF" stroke="none" />
  <path d="M 16.988 12.52 C 17.055 12.603 17.121 12.687 17.178 12.771 C 17.349 13.021 17.501 13.309 17.634 13.615 C 17.881 13.003 18.005 12.344 18.005 11.675 L 18.005 6.922 C 18.005 6.607 17.796 6.338 17.492 6.235 L 17.064 6.096 C 15.344 5.549 13.758 4.648 12.427 3.451 C 12.18 3.237 11.81 3.237 11.572 3.451 C 10.233 4.648 8.655 5.549 6.936 6.096 L 6.508 6.235 C 6.204 6.328 5.995 6.607 5.995 6.922 L 5.995 11.675 C 5.995 12.455 6.166 13.216 6.499 13.903 C 6.527 13.792 6.556 13.68 6.594 13.578 C 6.67 13.346 6.755 13.114 6.879 12.882 C 6.727 12.427 6.651 11.944 6.651 11.452 L 6.651 7.572 C 6.651 7.173 6.907 6.83 7.297 6.7 L 7.639 6.588 C 8.95 6.17 10.157 5.493 11.183 4.602 L 11.183 5.456 C 10.185 6.226 9.064 6.82 7.848 7.21 L 7.506 7.322 C 7.392 7.359 7.316 7.461 7.316 7.572 L 7.316 11.452 C 7.316 11.684 7.335 11.907 7.373 12.13 C 7.506 11.972 7.658 11.824 7.829 11.675 C 8.152 11.406 8.513 11.202 8.921 11.035 C 8.845 10.403 8.855 9.735 9.007 9.122 C 9.15 8.538 9.444 7.86 10.071 7.368 C 10.746 6.848 11.591 6.718 12.446 6.885 C 13.226 7.043 13.843 7.452 14.242 8.046 C 14.603 8.593 14.717 9.197 14.765 9.679 C 14.803 10.162 14.784 10.663 14.765 11.035 L 14.765 11.202 C 14.765 11.202 14.869 11.248 14.926 11.267 L 14.955 11.267 C 15.069 11.322 15.202 11.378 15.325 11.425 C 15.61 11.545 16.009 11.722 16.399 11.991 C 16.427 11.814 16.437 11.629 16.437 11.443 L 16.437 7.563 C 16.437 7.452 16.361 7.349 16.247 7.312 L 15.905 7.201 C 14.679 6.811 13.549 6.208 12.541 5.428 L 12.541 4.574 C 13.577 5.474 14.793 6.161 16.104 6.579 L 16.446 6.69 C 16.836 6.811 17.093 7.164 17.093 7.563 L 17.093 11.443 C 17.093 11.805 17.045 12.167 16.969 12.511 L 16.988 12.52" transform="matrix(1 0 0 1 0 0)" fill="#FFFFFF" stroke="none" />
  <path d="M 18.917 4.611 L 18.394 4.444 C 16.38 3.804 14.527 2.755 12.969 1.371 C 12.418 0.879 11.572 0.879 11.021 1.371 C 9.463 2.755 7.61 3.804 5.596 4.444 L 5.073 4.611 C 4.427 4.815 3.99 5.4 3.99 6.059 L 3.99 11.833 C 3.99 13.662 4.712 15.407 5.985 16.716 C 6.052 16.465 6.1 16.205 6.147 15.908 C 5.197 14.766 4.655 13.337 4.655 11.833 L 4.655 6.059 C 4.655 5.679 4.902 5.344 5.273 5.224 L 5.795 5.057 C 7.895 4.388 9.833 3.293 11.468 1.845 C 11.762 1.585 12.218 1.585 12.513 1.845 C 14.147 3.293 16.076 4.388 18.185 5.057 L 18.708 5.224 C 19.078 5.344 19.325 5.679 19.325 6.059 L 19.325 11.833 C 19.325 13.114 18.936 14.349 18.223 15.388 C 18.271 15.574 18.328 15.75 18.375 15.927 L 18.404 16.029 L 18.451 16.205 C 19.439 14.971 19.99 13.439 19.99 11.842 L 19.99 6.068 C 19.99 5.409 19.553 4.825 18.907 4.62 L 18.917 4.611" transform="matrix(1 0 0 1 0 0)" fill="#FFFFFF" stroke="none" />
</svg>
