<?xml version="1.0" encoding="UTF-8"?>
<!-- Reconstructed from Amplitude.Graphics.Svg.SvgAsset and recolored from static UIMapper.Color metadata for EWShop; not original source SVG. Live UI state/material colors are not included. -->
<svg xmlns="http://www.w3.org/2000/svg" width="24" height="24" viewBox="0 0 24 24">
  <path d="M 2.832 11.808 C 1.773 10.407 2.265 5.592 3.01 7.134 C 4.78 10.812 8.15 13.943 10.81 16.584 L 10.823 16.584 C 10.666 17.129 10.577 17.695 10.577 18.288 C 10.577 19.884 11.206 21.338 12.232 22.422 C 10.399 22.874 7.672 23.049 5.908 22.989 C 4.466 22.941 1.759 20.375 3.147 20.671 C 4.849 21.035 6.558 21.17 8.198 21.183 C 8.103 21.089 8.02 20.995 7.939 20.894 C 6.291 20.679 4.767 20.442 3.728 20.085 C 2.094 19.52 0.037 15.654 1.506 16.475 C 3.488 17.58 5.519 18.361 7.515 18.967 C 7.522 18.961 7.528 18.948 7.528 18.934 C 7.535 18.907 7.549 18.887 7.556 18.867 C 7.576 18.813 7.604 18.765 7.631 18.718 C 5.553 17.688 3.454 16.644 2.381 15.816 C 1.041 14.785 0.487 10.508 1.581 11.741 C 3.7 14.125 6.038 15.694 8.588 17.324 C 8.677 17.304 8.766 17.284 8.861 17.27 C 8.171 16.651 7.836 16.428 7.057 15.775 C 5.375 14.361 3.68 12.94 2.832 11.808 M 5.772 9.269 C 5.635 8.144 5.874 7.013 6.318 7.693 C 7.241 9.094 8.335 10.3 9.483 11.377 C 9.497 11.371 9.504 11.357 9.511 11.357 C 9.531 11.344 9.545 11.336 9.559 11.323 C 9.599 11.303 9.634 11.277 9.675 11.256 C 8.661 9.892 7.649 8.506 7.236 7.596 L 10.308 9.544 C 10.343 9.608 10.38 9.672 10.416 9.737 L 9.677 11.169 L 10.8 11.169 C 10.226 11.618 9.735 12.164 9.354 12.785 C 8.164 11.687 6.688 10.205 5.772 9.269 M 7.117 6.817 C 7.187 5.5 8.187 3.653 8.39 4.622 C 8.553 5.399 8.739 6.063 8.957 6.676 L 7.117 6.817 M 9.244 5.093 C 9.101 3.814 11.493 0.83 11.357 2.089 L 11.357 2.083 C 11.269 2.895 11.263 3.701 11.312 4.497 L 10.07 4.143 L 11.254 6.5 L 9.55 6.63 C 9.416 6.155 9.308 5.653 9.244 5.093" transform="matrix(1 0 0 1 0 0)" fill="#FFFFFF" stroke="none" />
  <path d="M 15.916 4.748 L 17.069 2.08 L 17.795 5.345 L 21.283 3.283 L 19.415 6.59 L 23 6.992 L 19.202 9.342 L 22.403 11.459 L 18.754 10.888 L 20.417 15.313 L 17.197 12.179 L 16.236 14.042 L 15.255 11.799 L 11.606 14.762 L 12.865 10.316 L 10.881 10.612 L 12.268 9.575 L 8.257 7.246 L 12.396 7.437 L 11.307 5.15 L 13.91 5.828 L 12.993 1 L 15.916 4.748 M 15.007 7.347 L 14.064 7.101 L 14.458 7.929 L 12.959 7.86 L 14.412 8.704 L 13.91 9.08 L 14.628 8.972 L 14.172 10.582 L 15.493 9.509 L 15.849 10.321 L 16.197 9.647 L 17.378 10.82 L 16.761 9.18 L 18.082 9.386 L 16.922 8.619 L 18.298 7.768 L 17 7.623 L 17.34 6.105 L 16.428 7.101 L 16.15 5.99 L 15.733 6.956 L 14.675 5.599 L 15.007 7.347" transform="matrix(1 0 0 1 0 0)" fill="#FFFFFF" stroke="none" />
</svg>
