<?xml version="1.0" encoding="UTF-8"?>
<!-- Reconstructed from Amplitude.Graphics.Svg.SvgAsset and recolored from static UIMapper.Color metadata for EWShop; not original source SVG. Live UI state/material colors are not included. -->
<svg xmlns="http://www.w3.org/2000/svg" width="24" height="24" viewBox="0 0 24 24">
  <path d="M 2.136 20.995 C 6.379 19.092 8.48 20.798 9 21.888 C 5.755 24.266 3.072 22.284 2.136 20.995" transform="matrix(1 0 0 1 0 0)" fill="#FFFFFF" stroke="none" />
  <path d="M 15 21.888 C 15.52 20.798 17.621 19.092 21.864 20.995 C 20.928 22.284 18.245 24.266 15 21.888" transform="matrix(1 0 0 1 0 0)" fill="#FFFFFF" stroke="none" />
  <path d="M 1.113 17.167 C 4.534 17.089 6.097 18.33 6.697 19.471 C 5.729 19.257 4.452 19.315 2.826 19.929 C 1.797 19.135 1.276 17.973 1.113 17.167" transform="matrix(1 0 0 1 0 0)" fill="#FFFFFF" stroke="none" />
  <path d="M 22.887 17.167 C 22.724 17.973 22.203 19.135 21.174 19.929 C 19.549 19.315 18.271 19.257 17.303 19.471 C 17.903 18.33 19.466 17.089 22.887 17.167" transform="matrix(1 0 0 1 0 0)" fill="#FFFFFF" stroke="none" />
  <path d="M 1.03 13 C 5.102 14.128 5.809 16.364 5.637 17.629 C 4.881 17.075 3.755 16.642 2.118 16.545 C 1.094 15.427 0.916 13.926 1.03 13" transform="matrix(1 0 0 1 0 0)" fill="#FFFFFF" stroke="none" />
  <path d="M 22.97 13 C 23.084 13.926 22.906 15.426 21.883 16.544 C 20.245 16.641 19.119 17.075 18.363 17.629 C 18.191 16.364 18.898 14.128 22.97 13" transform="matrix(1 0 0 1 0 0)" fill="#FFFFFF" stroke="none" />
  <path d="M 13.789 1.398 L 15.3 2.29 L 16.472 3.463 L 16.734 4.977 L 14.447 3.125 L 12.637 2.218 L 10.113 2.218 L 8.206 3.125 L 7.314 4.315 L 6.569 6.013 L 7.314 7.399 L 9.07 7.83 L 10.764 8.058 L 12.406 7.638 L 13.886 7.116 L 15.095 6.899 L 13.886 8.943 L 11.392 9.993 L 13.971 11.3 L 15.527 11.721 L 15.824 12.963 L 16.331 14.053 L 17.566 15.962 C 17.441 16.323 17.373 16.677 17.35 17.012 L 14.975 18.404 L 11.392 20 L 9.693 17.199 L 10.684 16.632 L 11.915 14.053 L 9.507 15.75 L 6.931 16.221 L 6.361 15.771 C 6.212 15.398 6.002 15.021 5.716 14.651 C 5.678 14.603 5.638 14.555 5.598 14.507 L 5.512 13.165 L 4.896 11.638 L 4 10.756 L 5.512 8.412 L 5.36 5.809 L 6.931 2.29 L 10.234 1 L 12.156 1 L 13.789 1.398" transform="matrix(1 0 0 1 0 0)" fill="#FFFFFF" stroke="none" />
</svg>
