<?xml version="1.0" encoding="UTF-8"?>
<!-- Reconstructed from Amplitude.Graphics.Svg.SvgAsset and recolored from static UIMapper.Color metadata for EWShop; not original source SVG. Live UI state/material colors are not included. -->
<svg xmlns="http://www.w3.org/2000/svg" width="24" height="24" viewBox="0 0 24 24">
  <path d="M 12.305 1.721 L 13.374 10.732 L 22.385 11.801 L 13.374 12.87 L 12.305 21.881 L 11.236 12.87 L 2.225 11.801 L 11.236 10.732 L 12.305 1.721" transform="matrix(1 0 0 1 0 0)" fill="#FFFFFF" stroke="none" />
  <path d="M 11.931 4.867 C 12.17 4.789 12.41 4.717 12.652 4.65 L 12.843 6.254 C 12.487 6.219 12.126 6.218 11.767 6.254 L 11.931 4.867" transform="matrix(1 0 0 1 0 0)" fill="#FFFFFF" stroke="none" />
  <path d="M 13.907 4.352 L 14.168 6.555 C 15.34 6.978 16.375 7.802 17.047 8.966 C 17.227 9.278 17.373 9.6 17.486 9.929 L 21.988 10.463 C 22.235 9.456 22.373 8.388 22.385 7.268 L 22.321 5.693 C 22.293 5.389 22.256 5.082 22.211 4.772 C 19.54 3.91 16.652 3.804 13.907 4.352" transform="matrix(1 0 0 1 0 0)" fill="#FFFFFF" stroke="none" />
  <path d="M 17.742 12.352 C 17.785 11.989 17.793 11.62 17.763 11.252 L 21.607 11.708 L 21.529 11.902 L 17.742 12.352" transform="matrix(1 0 0 1 0 0)" fill="#FFFFFF" stroke="none" />
  <path d="M 17.41 13.681 L 20.951 13.261 C 19.45 16.2 16.898 18.346 13.895 19.35 L 14.193 16.842 C 14.482 16.736 14.767 16.603 15.043 16.443 C 16.168 15.794 16.975 14.805 17.41 13.681" transform="matrix(1 0 0 1 0 0)" fill="#FFFFFF" stroke="none" />
  <path d="M 12.059 19.81 C 12.227 19.781 12.395 19.749 12.562 19.714 L 12.866 17.149 C 12.491 17.188 12.114 17.187 11.743 17.148 L 12.059 19.81" transform="matrix(1 0 0 1 0 0)" fill="#FFFFFF" stroke="none" />
  <path d="M 10.786 19.959 L 10.416 16.84 C 9.255 16.414 8.232 15.594 7.565 14.44 C 7.423 14.193 7.301 13.939 7.201 13.681 L 2.534 13.128 C 2.043 14.327 1.725 15.628 1.615 17.02 C 4.567 19.267 7.784 20.154 10.786 19.959" transform="matrix(1 0 0 1 0 0)" fill="#FFFFFF" stroke="none" />
  <path d="M 6.85 11.252 C 6.82 11.616 6.825 11.985 6.869 12.352 L 3.111 11.906 C 3.152 11.83 3.193 11.755 3.235 11.681 L 6.85 11.252" transform="matrix(1 0 0 1 0 0)" fill="#FFFFFF" stroke="none" />
  <path d="M 7.127 9.929 L 4.146 10.282 C 5.766 8.107 8.029 6.434 10.582 5.366 L 10.441 6.555 C 10.144 6.663 9.852 6.799 9.569 6.962 C 8.376 7.651 7.541 8.72 7.127 9.929" transform="matrix(1 0 0 1 0 0)" fill="#FFFFFF" stroke="none" />
  <path d="M 16.097 9.514 C 17.307 11.608 16.589 14.287 14.495 15.496 C 12.4 16.705 9.722 15.988 8.512 13.893 C 7.303 11.798 8.021 9.12 10.115 7.911 C 12.21 6.701 14.888 7.419 16.097 9.514" transform="matrix(1 0 0 1 0 0)" fill="#FFFFFF" stroke="none" />
</svg>
