<?xml version="1.0" encoding="UTF-8"?>
<!-- Reconstructed from Amplitude.Graphics.Svg.SvgAsset and recolored from static UIMapper.Color metadata for EWShop; not original source SVG. Live UI state/material colors are not included. -->
<svg xmlns="http://www.w3.org/2000/svg" width="24" height="24" viewBox="0 0 24 24">
  <path d="M 12.242 11.152 C 12.796 11.82 13.246 12.196 14.027 12.536 C 15.17 13.032 15.788 13.225 16.992 12.881 C 18.109 12.562 19.037 12.121 19.768 11.153 L 20.252 12.091 C 20.251 12.353 18.714 13.967 18.399 14.159 C 17.981 14.415 16.368 15.023 15.924 14.999 C 15.522 14.978 14.317 14.531 13.919 14.33 C 12.973 13.854 12.399 12.985 11.736 12.168 L 12.242 11.152" transform="matrix(1 0 0 1 0 0)" fill="#FFFFFF" stroke="none" />
  <path d="M 15.935 7.579 L 16.056 7.623 L 16.177 7.578 L 20.577 5.926 C 20.451 6.171 20.294 6.417 20.135 6.667 C 19.768 7.241 19.389 8.701 19.342 9.354 C 19.333 9.47 19.352 9.684 19.369 9.88 C 19.387 10.078 19.403 10.258 19.388 10.303 C 19.367 10.36 18.739 11.096 18.642 11.19 C 18.209 11.605 16.634 12.275 16.063 12.323 C 15.322 12.385 13.623 11.482 13.089 10.892 C 12.61 10.364 12.619 10.275 12.651 9.966 C 12.664 9.844 12.681 9.688 12.673 9.457 C 12.65 8.799 12.167 7.178 11.751 6.527 C 11.612 6.31 11.48 6.104 11.375 5.917 L 15.935 7.579" transform="matrix(1 0 0 1 0 0)" fill="#FFFFFF" stroke="none" />
  <path d="M 14.293 2.222 C 14.324 2.293 14.536 2.354 14.56 2.397 L 15.69 2.753 L 15.69 6.678 L 11.611 5.191 C 11.719 4.942 11.827 4.691 11.871 4.396 C 12.018 3.429 11.757 2.574 11.486 1.688 C 11.44 1.537 11.395 1.384 11.35 1.229 L 12.49 1.031 L 14.293 2.222" transform="matrix(1 0 0 1 0 0)" fill="#FFFFFF" stroke="none" />
  <path d="M 19.545 1 C 20.059 1.106 20.561 1.232 20.575 1.289 C 20.182 2.623 19.844 3.925 20.328 5.206 L 16.419 6.673 L 16.419 2.674 L 17.43 2.397 L 17.634 2.262 L 19.545 1" transform="matrix(1 0 0 1 0 0)" fill="#FFFFFF" stroke="none" />
  <path d="M 10.689 1.722 C 11.1 3.054 11.531 4.43 10.456 5.567 C 10.214 5.241 9.017 4.802 9.001 4.444 C 8.973 3.81 10.021 1.968 10.689 1.722" transform="matrix(1 0 0 1 0 0)" fill="#FFFFFF" stroke="none" />
  <path d="M 21.321 1.722 C 22.214 2.376 22.704 3.384 23 4.46 C 23.012 4.695 21.71 5.374 21.46 5.564 C 20.532 4.386 20.819 3.021 21.321 1.722" transform="matrix(1 0 0 1 0 0)" fill="#FFFFFF" stroke="none" />
  <path d="M 14 15.5 C 14.261 15.619 14.251 15.558 14.592 15.677 C 14.806 15.751 15.03 15.823 15.234 15.879 C 15.238 15.88 15.241 15.88 15.244 15.881 L 15.043 17.631 L 15.869 20.315 L 10.5 23 L 12 19.5 C 13.639 18.978 14.275 17.023 14 15.5 M 10.5 8.296 C 9.379 10.7 7.265 13.295 7 16 C 6.862 17.372 7.845 19.024 9.107 19.5 L 10.5 23 L 5.131 20.315 L 5.957 17.631 L 5.131 10.474 L 3.192 12.12 L 1 9.442 L 5.131 6 L 10.5 8.296 M 9.729 11.885 C 12.137 13.192 10.778 14.006 11.032 14.381 C 11.275 14.738 11.917 14.27 12.112 14.184 C 12.12 14.191 12.127 14.199 12.134 14.206 C 12.062 14.781 12.188 15.13 12.399 15.451 C 13.36 16.933 12.149 18.423 10.452 18.423 C 9.208 18.423 8.086 17.473 8.218 16.165 C 8.272 15.601 8.703 15.035 9.107 14.471 C 9.728 13.579 10.376 12.747 9.729 11.885 M 11.295 7.955 C 11.331 8.06 11.369 8.17 11.404 8.284 C 11.575 8.837 11.667 9.303 11.674 9.493 C 11.679 9.651 11.669 9.751 11.657 9.86 C 11.652 9.915 11.642 10.004 11.641 10.116 L 11.489 10.419 L 10.5 8.296 L 11.295 7.955" transform="matrix(1 0 0 1 0 0)" fill="#FFFFFF" stroke="none" />
</svg>
