<?xml version="1.0" encoding="UTF-8"?>
<!-- Reconstructed from Amplitude.Graphics.Svg.SvgAsset and recolored from static UIMapper.Color metadata for EWShop; not original source SVG. Live UI state/material colors are not included. -->
<svg xmlns="http://www.w3.org/2000/svg" width="24" height="24" viewBox="0 0 24 24">
  <path d="M 15.3 2.058 C 15.236 2.135 14.881 2.591 14.558 3.004 C 14.319 3.31 14.099 3.593 14.028 3.681 C 12.871 5.274 11.247 7.763 10.486 9.927 C 10.512 9.63 10.499 9.303 10.448 8.952 C 10.355 8.313 10.129 7.531 9.717 6.585 C 10.642 4.92 11.859 3.187 12.776 1.999 C 12.879 1.874 13.089 1.587 13.287 1.316 C 13.474 1.061 13.651 0.819 13.718 0.741 C 13.858 0.579 14.061 0.491 14.276 0.5 C 14.49 0.509 15.202 1.027 15.329 1.201 C 15.517 1.46 15.505 1.812 15.3 2.058" transform="matrix(1 0 0 1 0 0)" fill="#FFFFFF" stroke="none" />
  <path d="M 12.276 13.729 C 11.932 12.733 11.408 11.83 10.937 11.152 C 11.832 11.374 13.17 11.289 15.062 11.021 C 16.185 10.862 18.661 10.288 19.739 10.029 L 19.899 9.984 C 20.124 9.92 20.462 9.825 20.579 9.79 C 21.056 9.648 21.557 9.905 21.721 10.375 L 21.912 10.927 C 22.079 11.406 21.826 11.935 21.348 12.106 C 21.271 12.133 21.191 12.162 21.108 12.191 L 21.074 12.204 C 21.03 12.22 20.88 12.272 20.738 12.323 L 20.735 12.324 C 20.613 12.367 20.496 12.408 20.456 12.423 C 18.632 12.975 15.487 13.806 12.276 13.729" transform="matrix(1 0 0 1 0 0)" fill="#FFFFFF" stroke="none" />
  <path d="M 14.99 10.384 C 14.456 7.438 14.329 5.644 14.317 4.774 C 14.316 4.683 14.302 4.591 14.276 4.499 C 14.505 4.187 14.721 3.902 14.917 3.649 C 14.949 3.729 14.972 3.813 14.985 3.9 C 15.112 4.749 15.504 7.096 16.226 10.181 C 15.812 10.258 15.398 10.326 14.99 10.384" transform="matrix(1 0 0 1 0 0)" fill="#FFFFFF" stroke="none" />
  <path d="M 17.177 13.899 C 17.392 14.616 17.696 15.073 17.977 15.497 C 18.149 15.756 18.313 16.003 18.444 16.29 C 18.057 16.292 17.714 16.39 17.451 16.499 C 17.262 16.578 17.087 16.68 16.93 16.801 C 16.794 16.417 16.623 16.094 16.449 15.764 C 16.202 15.297 15.948 14.818 15.78 14.135 C 16.269 14.069 16.734 13.988 17.177 13.899" transform="matrix(1 0 0 1 0 0)" fill="#FFFFFF" stroke="none" />
  <path d="M 20.776 22.499 L 20.498 22.168 L 20.549 22.088 C 20.614 21.986 20.655 21.923 20.69 21.857 C 20.747 21.751 20.791 21.638 20.906 21.343 L 20.917 21.314 C 21.204 20.573 21.349 19.795 21.348 19.001 C 21.344 17.267 20.737 15.439 20.312 14.158 C 20.173 13.741 20.054 13.382 19.981 13.104 C 20.385 12.971 20.749 12.842 21.074 12.726 C 21.095 12.8 21.151 12.947 21.228 13.151 C 21.596 14.117 22.455 16.377 22.459 18.417 C 22.46 19.1 22.335 19.771 22.088 20.409 C 21.741 21.302 21.129 22.243 20.776 22.499" transform="matrix(1 0 0 1 0 0)" fill="#FFFFFF" stroke="none" />
  <path d="M 18.825 23.029 C 18.998 22.992 20.302 19.985 20.291 19.809 C 20.283 19.675 19.12 17.604 18.993 17.449 C 18.877 17.309 18.804 17.227 18.608 17.213 C 18.452 17.202 15.866 18.193 15.67 18.324 C 15.177 18.654 14.539 19.345 14.29 19.886 C 14.286 20.083 16.614 22.158 16.978 22.382 C 17.334 22.601 17.666 22.681 18 22.761 C 18.269 22.826 18.54 22.891 18.825 23.029 M 16.739 19.047 C 17.63 19.417 18.245 19.844 18.595 20.762 C 18.477 20.978 17.525 20.504 17.385 20.409 C 17.169 20.263 16.814 20.169 16.448 20.073 C 15.964 19.945 15.461 19.812 15.239 19.547 C 15.172 19.468 15.452 19.414 15.791 19.35 C 16.163 19.279 16.607 19.194 16.739 19.047" transform="matrix(1 0 0 1 0 0)" fill="#FFFFFF" stroke="none" />
  <path d="M 7.801 6.141 C 7.183 6.253 6.081 7.051 6.621 9.344 C 6.621 10.356 7.97 11.873 8.813 10.524 C 9.094 10.243 9.285 8.973 7.801 6.141" transform="matrix(1 0 0 1 0 0)" fill="#FFFFFF" stroke="none" />
  <path d="M 4.766 10.187 C 4.766 8.838 5.441 8.613 5.778 8.669 C 6.474 10.48 6.25 10.91 6.151 11.1 C 6.13 11.14 6.115 11.169 6.115 11.198 C 5.306 11.873 4.879 10.805 4.766 10.187" transform="matrix(1 0 0 1 0 0)" fill="#FFFFFF" stroke="none" />
  <path d="M 4.092 9.343 C 3.08 9.006 2.001 10.052 3.08 12.884 C 3.361 13.502 4.025 14.435 4.429 13.221 C 4.485 12.603 4.497 10.962 4.092 9.343" transform="matrix(1 0 0 1 0 0)" fill="#FFFFFF" stroke="none" />
  <path d="M 1.9 14.908 C 2.979 14.503 2.35 12.154 1.9 11.03 C 1.226 10.895 0.945 11.536 0.889 11.873 C 0.349 14.301 1.338 14.908 1.9 14.908" transform="matrix(1 0 0 1 0 0)" fill="#FFFFFF" stroke="none" />
  <path d="M 2.743 19.965 C 1.529 19.021 1.226 17.324 1.226 16.593 C 2.237 15.582 3.923 16.593 4.598 17.605 C 4.733 15.936 6.79 15.076 8.813 15.245 C 8.003 14.705 8.026 14.233 8.138 14.064 C 5.711 14.739 5.216 13.783 5.272 13.221 L 9.318 11.535 C 10.499 13.053 12.522 16.593 9.824 18.617 C 7.666 20.235 8.026 22.213 8.476 23 C 5.778 23.674 3.53 23.281 2.743 23 L 2.743 21.483 C 3.687 20.269 5.834 20.19 6.79 20.302 C 6.115 19.358 3.811 19.684 2.743 19.965" transform="matrix(1 0 0 1 0 0)" fill="#FFFFFF" stroke="none" />
</svg>
