<?xml version="1.0" encoding="UTF-8"?>
<!-- Reconstructed from Amplitude.Graphics.Svg.SvgAsset and recolored from static UIMapper.Color metadata for EWShop; not original source SVG. Live UI state/material colors are not included. -->
<svg xmlns="http://www.w3.org/2000/svg" width="24" height="24" viewBox="0 0 24 24">
  <path d="M 13.082 18.473 C 13.082 18.27 13.143 18.018 13.153 17.806 L 14.419 16.472 L 15.419 15.592 L 15.949 14.107 C 15.715 13.976 16.551 12.925 16.653 12.753 C 16.653 12.743 16.674 12.722 16.684 12.722 L 17.623 12.106 C 17.623 12.106 17.664 12.086 17.684 12.086 L 20.266 12.055 C 20.398 12.055 20.429 11.874 20.296 11.833 L 16.97 10.772 C 16.97 10.772 16.888 10.772 16.857 10.792 L 14.296 13.046 C 14.296 13.046 14.276 13.066 14.266 13.076 L 13.888 13.824 C 13.888 13.824 13.857 13.864 13.837 13.874 L 12.521 14.602 L 10.602 15.411 C 10.602 15.411 10.561 15.431 10.551 15.451 L 10.184 15.987 C 9.786 16.704 9.347 18.755 11.317 20.746 L 13.061 22.697 C 13.061 22.697 13.102 22.727 13.123 22.737 L 14.592 23.01 C 14.704 23.03 14.776 22.899 14.694 22.818 L 13.204 21.363 C 13.204 21.363 13.174 21.312 13.174 21.282 L 13.092 18.907 L 13.072 18.473 L 13.082 18.473" transform="matrix(1 0 0 1 0 0)" fill="#FFFFFF" stroke="none" />
  <path d="M 21.98 16.098 L 20.582 14.127 C 20.582 14.127 20.541 14.087 20.51 14.077 L 18.469 13.733 C 18.469 13.733 18.429 13.733 18.418 13.733 C 18.133 13.814 16.714 14.097 15.959 14.117 L 15.439 15.582 L 14.439 16.461 L 13.173 17.795 C 13.173 17.886 13.153 17.977 13.133 18.078 C 13.112 18.21 13.092 18.351 13.092 18.462 L 13.112 18.897 L 14.561 18.897 C 14.561 18.897 14.582 18.897 14.592 18.887 L 15.286 18.493 C 15.286 18.493 15.337 18.473 15.357 18.483 L 17.225 18.705 C 17.276 18.705 17.316 18.755 17.327 18.806 L 17.531 20.706 C 17.541 20.837 17.735 20.847 17.755 20.706 L 18.163 18.27 C 18.163 18.22 18.143 18.159 18.092 18.139 L 17.214 17.836 C 17.092 17.795 17.122 17.614 17.255 17.614 L 18.735 17.614 C 18.735 17.614 18.827 17.654 18.837 17.694 L 19.582 19.614 C 19.633 19.736 19.806 19.695 19.806 19.564 L 19.694 16.936 C 19.694 16.936 19.663 16.845 19.612 16.835 L 17.092 16.047 C 17.01 16.017 16.98 15.916 17.051 15.855 L 17.622 15.35 C 17.622 15.35 17.663 15.32 17.684 15.32 L 19.878 15.107 C 19.878 15.107 19.929 15.107 19.949 15.128 L 21.847 16.259 C 21.949 16.32 22.071 16.199 22 16.098 L 21.98 16.098" transform="matrix(1 0 0 1 0 0)" fill="#FFFFFF" stroke="none" />
  <path d="M 11.082 9.863 L 13.704 8.428 L 16.122 7.811 L 15.112 7.397 L 18.143 5.962 L 17.337 5.548 L 19.357 4.315 C 17.255 4.477 14.714 2.415 13.102 1.859 C 6.959 -0.253 3.347 2.011 2 3.304 C 2.602 4.325 2.806 8.014 2.408 9.853 C 2.082 11.328 3.082 12.238 3.622 12.511 C 4.051 16.654 5.582 16.149 7.112 22.212 C 9.153 16.654 6.602 13.117 11.092 9.853 L 11.082 9.863" transform="matrix(1 0 0 1 0 0)" fill="#FFFFFF" stroke="none" />
</svg>
