<?xml version="1.0" encoding="UTF-8"?>
<!-- Reconstructed from Amplitude.Graphics.Svg.SvgAsset and recolored from static UIMapper.Color metadata for EWShop; not original source SVG. Live UI state/material colors are not included. -->
<svg xmlns="http://www.w3.org/2000/svg" width="24" height="24" viewBox="0 0 24 24">
  <path d="M 9.07 7.46 C 9.01 7.55 8.98 7.66 8.98 7.76 L 9.21 12.8 C 9.21 12.86 9.26 12.9 9.32 12.9 L 9.74 12.86 C 9.79 12.86 9.83 12.81 9.83 12.76 L 9.88 6.59 C 9.88 6.49 9.75 6.45 9.7 6.53 L 9.07 7.47 L 9.07 7.46" transform="matrix(1 0 0 1 0 0)" fill="#FFFFFF" stroke="none" />
  <path d="M 17.101 15.83 L 16.311 15.02 C 16.231 14.94 16.141 14.89 16.031 14.88 L 11.051 14.1 C 10.991 14.1 10.941 14.13 10.931 14.19 L 10.891 14.61 C 10.891 14.66 10.921 14.71 10.971 14.72 L 17.011 16 C 17.111 16.02 17.171 15.9 17.101 15.83" transform="matrix(1 0 0 1 0 0)" fill="#FFFFFF" stroke="none" />
  <path d="M 17.049 19.39 L 19.079 17.65 L 21.109 19.39 L 22.999 19.39 L 19.079 15.77 L 15.289 19.39 L 17.049 19.39" transform="matrix(1 0 0 1 0 0)" fill="#FFFFFF" stroke="none" />
  <path d="M 15.289 23 L 17.049 23 L 19.079 21.26 L 21.109 23 L 22.999 23 L 19.079 19.39 L 15.289 23" transform="matrix(1 0 0 1 0 0)" fill="#FFFFFF" stroke="none" />
  <path d="M 20.479 3.08 L 17.159 7.35 L 17.449 8.17 C 18.249 6.79 19.839 6.49 20.539 6.51 L 22.159 1 L 17.059 3.49 C 18.009 4.35 16.779 5.85 16.049 6.49 L 17.169 6.09 L 20.479 3.09 L 20.479 3.08" transform="matrix(1 0 0 1 0 0)" fill="#FFFFFF" stroke="none" />
  <path d="M 17.04 9.38 L 15.51 10.76 C 16.61 12.36 17.32 14.08 17.64 15.77 L 19.07 14.4 L 19.21 14.53 C 18.89 12.8 18.17 11.02 17.03 9.38 L 17.04 9.38" transform="matrix(1 0 0 1 0 0)" fill="#FFFFFF" stroke="none" />
  <path d="M 10.199 15.2 C 10.179 15.13 10.089 15.11 10.039 15.17 L 7.849 17.99 C 7.779 18.09 7.739 18.21 7.759 18.33 L 7.989 20.14 C 7.999 20.22 8.099 20.25 8.149 20.18 L 9.469 18.48 L 9.399 17.93 L 9.949 17.86 L 10.539 17.11 C 10.629 17 10.659 16.85 10.619 16.71 L 10.209 15.2 L 10.199 15.2" transform="matrix(1 0 0 1 0 0)" fill="#FFFFFF" stroke="none" />
  <path d="M 9.101 13.92 L 7.551 13.75 C 7.411 13.73 7.271 13.79 7.171 13.89 L 6.521 14.59 L 7.341 14.83 L 5.981 15.17 L 4.521 16.74 C 4.461 16.8 4.511 16.9 4.591 16.89 L 6.411 16.83 C 6.531 16.83 6.651 16.77 6.731 16.68 L 9.171 14.07 C 9.221 14.02 9.191 13.92 9.111 13.92 L 9.101 13.92" transform="matrix(1 0 0 1 0 0)" fill="#FFFFFF" stroke="none" />
  <path d="M 16.79 6.83 L 16.07 6.98 L 7.31 16.48 L 6.75 18.24 L 16.81 7.68 L 16.79 6.83" transform="matrix(1 0 0 1 0 0)" fill="#FFFFFF" stroke="none" />
  <path d="M 13.48 8.38 L 14.84 6.86 C 10.82 3.18 5.43 2.37 2.16 5.17 C 1.9 5.4 1.65 5.64 1.43 5.9 C 4.79 3.82 9.77 4.85 13.48 8.39 L 13.48 8.38" transform="matrix(1 0 0 1 0 0)" fill="#FFFFFF" stroke="none" />
</svg>
