<?xml version="1.0" encoding="UTF-8"?>
<!-- Reconstructed from Amplitude.Graphics.Svg.SvgAsset and recolored from static UIMapper.Color metadata for EWShop; not original source SVG. Live UI state/material colors are not included. -->
<svg xmlns="http://www.w3.org/2000/svg" width="24" height="24" viewBox="0 0 24 24">
  <path d="M 17 13 L 16 18.5 L 13.5 13 L 13 12 L 17.515 9.291 C 17.816 9.111 18 8.785 18 8.434 L 18 7.618 C 18 7.239 17.786 6.893 17.447 6.724 L 17.415 6.707 C 17.152 6.576 16.844 6.567 16.574 6.683 L 10 9.5 L 10 8.414 C 10 8.149 9.895 7.895 9.707 7.707 L 9.51 7.51 C 9.205 7.205 8.74 7.13 8.355 7.322 L 7.298 7.851 C 7.105 7.948 6.948 8.105 6.851 8.298 L 6.222 9.556 L 1 9 L 9 6 L 5.5 1 L 12 4 L 11.512 1 L 14.216 3.26 L 17 1 L 17 4 L 23 1 L 19 6 L 23 6 L 20 8 L 23 12 L 19 11 L 23 17 L 17 13" transform="matrix(1 0 0 1 0 0)" fill="#FFFFFF" stroke="none" />
  <path d="M 1.406 3.093 L 1.399 1 L 6.587 4.896 L 1.406 3.093" transform="matrix(1 0 0 1 0 0)" fill="#FFFFFF" stroke="none" />
  <path d="M 1.174 4.826 L 1.528 6.377 L 5.562 5.682 L 1.174 4.826" transform="matrix(1 0 0 1 0 0)" fill="#FFFFFF" stroke="none" />
  <path d="M 13.711 8.736 C 13.686 8.749 13.661 8.763 13.636 8.776 L 13.647 8.78 L 11.244 10.216 C 11.111 10.298 10.982 10.388 10.853 10.478 C 10.554 10.688 10.254 10.897 9.898 11.017 C 9.47 11.164 9.052 11.341 8.636 11.518 C 8.451 11.595 8.269 11.679 8.088 11.763 C 7.917 11.842 7.746 11.921 7.573 11.994 C 7.461 12.042 7.345 12.076 7.229 12.111 C 7.178 12.126 7.127 12.142 7.076 12.158 C 7.074 12.155 7.072 12.152 7.071 12.149 C 7.069 12.146 7.068 12.144 7.067 12.142 C 7.062 12.133 7.057 12.125 7.053 12.116 C 7.1 12.068 7.146 12.021 7.193 11.973 C 7.24 11.926 7.287 11.879 7.334 11.831 C 7.882 11.279 8.291 10.629 8.699 9.979 C 8.754 9.892 8.809 9.805 8.864 9.719 C 8.925 9.622 8.937 9.479 8.931 9.36 C 8.924 9.253 8.905 9.146 8.886 9.039 C 8.869 8.944 8.852 8.848 8.844 8.752 L 8.842 8.73 C 8.803 8.269 8.803 8.261 8.334 8.214 C 8.244 8.206 8.104 8.255 8.057 8.324 C 7.852 8.625 7.657 8.932 7.462 9.239 C 7.339 9.432 7.216 9.625 7.091 9.816 L 7.071 9.847 C 6.976 9.993 6.878 10.143 6.753 10.258 C 6.558 10.436 6.351 10.6 6.144 10.764 C 6.073 10.821 6.002 10.878 5.931 10.935 C 5.514 11.27 5.177 11.672 5.005 12.176 C 4.684 13.111 4.219 13.97 3.676 14.79 C 3.448 15.132 3.304 15.488 3.325 15.906 C 3.333 16.06 3.321 16.215 3.309 16.369 C 3.305 16.421 3.3 16.472 3.297 16.523 C 3.287 16.668 3.275 16.813 3.263 16.958 C 3.257 17.04 3.25 17.122 3.244 17.204 C 3.179 17.159 3.15 17.107 3.126 17.052 C 3.083 16.95 3.039 16.848 2.995 16.745 C 2.907 16.541 2.818 16.336 2.735 16.13 C 2.677 15.988 2.605 15.948 2.453 16.009 C 2.232 16.097 2.01 16.182 1.787 16.266 C 1.545 16.358 1.302 16.451 1.061 16.548 C 1.01 16.568 0.955 16.658 0.957 16.715 C 0.966 16.93 0.981 17.144 0.995 17.359 C 1.011 17.592 1.026 17.824 1.035 18.057 C 1.069 18.942 1.099 19.826 1.129 20.711 C 1.146 21.23 1.164 21.749 1.182 22.268 C 1.187 22.396 1.194 22.523 1.202 22.65 C 1.206 22.721 1.21 22.793 1.213 22.864 C 1.221 23.009 1.282 23.025 1.4 22.952 C 1.473 22.906 1.545 22.86 1.618 22.815 C 1.912 22.629 2.206 22.444 2.507 22.273 C 2.791 22.112 3.057 21.922 3.323 21.731 C 3.73 21.44 4.136 21.149 4.61 20.962 C 4.736 20.911 4.845 20.82 4.955 20.728 C 5.007 20.685 5.059 20.642 5.112 20.603 C 4.564 20.491 4.022 19.016 4.022 19.016 C 4.022 19.016 5.685 20.223 6.197 20.159 C 6.834 19.997 7.602 19.721 8.362 19.448 C 9.043 19.203 9.718 18.961 10.287 18.805 C 10.806 18.662 11.318 18.517 11.685 18.048 C 11.913 17.757 12.03 17.511 11.911 17.147 C 11.795 16.794 11.807 16.44 12.104 16.147 C 12.186 16.067 12.257 15.967 12.303 15.863 C 12.339 15.78 12.361 15.666 12.332 15.586 C 12.222 15.284 12.093 14.99 11.964 14.697 C 11.908 14.569 11.942 14.494 12.059 14.429 L 12.131 14.39 C 12.277 14.309 12.423 14.229 12.558 14.131 C 12.627 14.082 12.693 13.985 12.701 13.904 C 12.718 13.746 12.723 13.587 12.728 13.428 C 12.732 13.324 12.735 13.219 12.742 13.115 C 12.753 12.944 12.683 12.848 12.52 12.78 C 12.189 12.643 11.862 12.489 11.539 12.33 C 11.487 12.303 11.419 12.194 11.434 12.162 C 11.461 12.109 11.487 12.054 11.513 11.999 C 11.634 11.747 11.755 11.493 12.027 11.35 C 12.17 11.275 12.313 11.2 12.457 11.125 C 12.892 10.898 13.327 10.671 13.76 10.439 C 14.05 10.284 14.333 10.117 14.616 9.948 C 14.764 9.859 14.91 9.768 15.056 9.677 C 15.293 9.529 15.531 9.381 15.775 9.245 C 16.059 9.087 16.35 8.94 16.642 8.794 C 16.801 8.714 16.96 8.635 17.117 8.553 C 17.209 8.505 17.278 8.436 17.222 8.32 C 17.2 8.275 17.179 8.23 17.157 8.185 C 17.082 8.027 17.007 7.869 16.921 7.719 C 16.891 7.669 16.795 7.626 16.736 7.634 C 16.339 7.686 15.946 7.743 15.574 7.918 C 15.2 8.093 14.818 8.254 14.437 8.415 C 14.247 8.495 14.056 8.576 13.867 8.658 C 13.814 8.68 13.763 8.708 13.711 8.736" transform="matrix(1 0 0 1 0 0)" fill="#FFFFFF" stroke="none" />
  <path d="M 9 22.256 L 11.052 22.67 L 13.859 17.956 L 9 22.256" transform="matrix(1 0 0 1 0 0)" fill="#FFFFFF" stroke="none" />
  <path d="M 14.294 23.21 L 12.703 23.245 L 14.423 19.118 L 14.294 23.21" transform="matrix(1 0 0 1 0 0)" fill="#FFFFFF" stroke="none" />
  <path d="M 21.015 21.511 L 19.637 23.532 L 17.215 16.349 L 21.015 21.511" transform="matrix(1 0 0 1 0 0)" fill="#FFFFFF" stroke="none" />
  <path d="M 22.161 20.726 L 22.846 18.997 L 18.5 17 L 22.161 20.726" transform="matrix(1 0 0 1 0 0)" fill="#FFFFFF" stroke="none" />
</svg>
