<?xml version="1.0" encoding="UTF-8"?>
<!-- Reconstructed from Amplitude.Graphics.Svg.SvgAsset and recolored from static UIMapper.Color metadata for EWShop; not original source SVG. Live UI state/material colors are not included. -->
<svg xmlns="http://www.w3.org/2000/svg" width="24" height="24" viewBox="0 0 24 24">
  <path d="M 17.5 16.365 C 17.947 15.508 18.2 14.533 18.2 13.5 C 18.2 10.076 15.424 7.3 12 7.3 C 8.576 7.3 5.8 10.076 5.8 13.5 C 5.8 14.359 5.975 15.176 6.29 15.92 L 5.838 16.824 C 5.303 15.835 5 14.703 5 13.5 C 5 9.634 8.134 6.5 12 6.5 C 15.866 6.5 19 9.634 19 13.5 C 19 15.135 18.439 16.639 17.5 17.831 L 17.5 16.365" transform="matrix(1 0 0 1 0 0)" fill="#FFFFFF" stroke="none" />
  <path d="M 11.686 1 L 12.371 1 L 12.937 3.543 C 17.729 3.988 21.541 7.816 21.961 12.616 L 24 13.156 L 24 13.842 L 21.962 14.383 C 21.724 17.1 20.4 19.505 18.427 21.162 L 17.867 19.856 C 19.388 18.452 20.404 16.508 20.611 14.329 L 18.643 13.842 L 18.643 13.156 L 20.611 12.67 C 20.22 8.571 16.97 5.306 12.878 4.894 L 12.371 7.171 L 11.686 7.171 L 11.178 4.889 C 7.05 5.277 3.766 8.567 3.387 12.698 L 5.357 13.186 L 5.357 13.871 L 3.392 14.358 C 3.667 17.155 5.275 19.561 7.572 20.932 L 7.85 22.601 C 4.661 21.145 2.371 18.061 2.041 14.413 L 0 13.871 L 0 13.186 L 2.036 12.646 C 2.445 7.812 6.292 3.958 11.122 3.538 L 11.686 1 M 12.212 23.436 L 17.051 20.921 C 17.127 20.814 16.862 20.451 16.548 20.021 C 16.167 19.499 15.713 18.878 15.706 18.491 C 15.698 18.004 16.012 17.308 16.339 16.581 C 16.66 15.867 16.995 15.124 17.051 14.519 C 17.185 13.073 16.245 10.899 14.988 10.206 C 12.421 8.789 8.64 9.433 7.932 12.802 C 7.849 13.199 7.859 13.59 7.868 13.97 C 7.877 14.333 7.886 14.685 7.813 15.022 C 7.756 15.29 7.587 15.497 7.417 15.704 C 7.223 15.94 7.028 16.178 7 16.509 C 6.991 16.901 7.584 17.308 7.584 17.308 C 7.701 17.641 7.82 18.018 7.923 18.412 C 8.224 19.564 8.978 20.75 10.152 20.55 C 11.01 20.404 11.824 19.955 12.451 19.3 C 12.331 19.695 11.952 20.093 11.608 20.453 C 11.268 20.81 10.963 21.131 10.981 21.374 L 12.212 23.436" transform="matrix(1 0 0 1 0 0)" fill="#FFFFFF" stroke="none" />
</svg>
