<?xml version="1.0" encoding="UTF-8"?>
<!-- Reconstructed from Amplitude.Graphics.Svg.SvgAsset and recolored from static UIMapper.Color metadata for EWShop; not original source SVG. Live UI state/material colors are not included. -->
<svg xmlns="http://www.w3.org/2000/svg" width="24" height="24" viewBox="0 0 24 24">
  <path d="M 6.059 1.014 C 5.963 1.019 5.933 1.147 6.016 1.196 C 7.263 1.937 8.512 2.304 9.733 2.663 C 10.5 2.888 11.257 3.11 11.996 3.42 L 12.961 2.994 C 10.591 1.657 8.216 0.886 6.059 1.014" transform="matrix(1 0 0 1 0 0)" fill="#FFFFFF" stroke="none" />
  <path d="M 1.801 1.713 C 3.059 1.982 6.505 2.816 9.655 4.453 L 8.269 5.064 C 8.205 5.092 8.145 5.127 8.089 5.167 C 7.51 4.916 6.918 4.695 6.321 4.503 C 5.862 4.355 5.432 4.131 5.049 3.842 C 4.216 3.215 2.546 2.284 1.749 1.851 C 1.673 1.81 1.716 1.695 1.801 1.713" transform="matrix(1 0 0 1 0 0)" fill="#FFFFFF" stroke="none" />
  <path d="M 11.79 7.39 C 11.536 7.18 11.273 6.98 11.004 6.788 L 11.833 6.719 L 12.423 7.082 L 12.171 7.39 L 11.79 7.39" transform="matrix(1 0 0 1 0 0)" fill="#FFFFFF" stroke="none" />
  <path d="M 8.557 8.438 C 6.432 7.041 3.966 5.716 1.108 4.555 C 1.033 4.525 0.966 4.612 1.019 4.673 L 3.062 7.025 C 3.483 7.509 4.009 7.897 4.604 8.156 C 5.101 8.373 5.572 8.63 5.938 9.024 C 6.073 9.17 6.211 9.31 6.351 9.445 C 6.453 9.324 6.586 9.226 6.741 9.164 L 8.557 8.438" transform="matrix(1 0 0 1 0 0)" fill="#FFFFFF" stroke="none" />
  <path d="M 14.079 14.088 C 15.713 15.684 17.782 18.329 19.706 22.608 C 19.813 22.846 20.055 23.001 20.323 23.001 L 20.732 23.001 C 20.828 23.001 20.895 22.909 20.863 22.821 C 20.305 21.318 18.394 16.955 13.654 12.462 L 13.388 12.828 C 13.408 12.85 13.427 12.873 13.445 12.897 L 13.87 13.465 C 13.978 13.609 14.046 13.78 14.065 13.959 L 14.079 14.088" transform="matrix(1 0 0 1 0 0)" fill="#FFFFFF" stroke="none" />
  <path d="M 22.859 22.251 C 20.059 16.737 17.84 14.019 15.805 12.165 L 17.328 12.613 C 17.694 12.72 18.088 12.61 18.345 12.331 C 20.459 15.367 22.276 18.789 22.998 22.204 C 23.016 22.288 22.898 22.328 22.859 22.251" transform="matrix(1 0 0 1 0 0)" fill="#FFFFFF" stroke="none" />
  <path d="M 22.873 16.577 C 21.694 14.36 18.95 10.7 17.405 8.697 L 17.423 8.681 L 18.745 8.681 C 18.826 8.681 18.908 8.671 18.987 8.651 L 19.896 8.424 C 20.856 9.385 21.769 10.392 22.616 11.415 C 22.844 11.691 23 12.02 23 12.38 L 23 12.939 C 23 13.023 22.895 13.059 22.844 12.992 C 22.392 12.393 21.627 11.431 19.5 9.5 C 19.427 9.433 19.321 9.532 19.381 9.611 C 20.382 10.937 21.962 13.095 22.862 14.602 C 22.953 14.753 23 14.927 23 15.103 L 23 16.545 C 23 16.616 22.906 16.64 22.873 16.577" transform="matrix(1 0 0 1 0 0)" fill="#FFFFFF" stroke="none" />
  <path d="M 1 22.5 L 4.114 18.679 L 3.972 18.253 L 6.242 15.983 L 7.093 15.983 L 8.765 14 L 7.481 13.5 L 6.981 13 L 5.107 12.93 L 6.384 12.079 L 8.512 11.937 L 9.221 11.937 L 10.356 10.802 L 8.937 10.093 L 7.093 10.093 L 11.349 8.39 L 12.626 8.39 L 13.902 6.83 L 12.058 5.695 L 8.654 5.979 L 13.477 3.851 L 14.328 3.709 L 16.03 3.142 L 19.009 3 L 21.846 3.993 L 22.981 5.412 L 22.555 7.965 L 20.995 7.114 L 18.725 7.681 L 17.023 7.681 L 15.746 8.816 L 16.456 9.383 L 17.59 11.653 L 15.179 10.944 L 13.193 11.37 L 12.058 12.93 L 12.626 13.497 L 13.051 14.065 L 13.193 15.395 L 11.736 14.774 L 10.981 15 L 10.289 14.774 L 8.5 17 L 8.59 17.764 L 6.242 20 L 5.67 20 L 1.609 23.264 L 1 22.5 M 17.307 3.71 L 18.867 3.426 L 20.427 3.993 L 20.427 4.419 L 18.867 4.561 L 17.307 3.993 L 17.307 3.71" transform="matrix(1 0 0 1 0 0)" fill="#FFFFFF" stroke="none" />
</svg>
