<?xml version="1.0" encoding="UTF-8"?>
<!-- Reconstructed from Amplitude.Graphics.Svg.SvgAsset and recolored from static UIMapper.Color metadata for EWShop; not original source SVG. Live UI state/material colors are not included. -->
<svg xmlns="http://www.w3.org/2000/svg" width="24" height="24" viewBox="0 0 24 24">
  <path d="M 15.131 18.215 L 15.097 21.026 L 16.088 21.537 L 17.065 23 L 17.14 21.161 L 18.454 22.47 L 19.404 21.524 L 18.056 20.182 L 19.93 20.148 L 18.467 19.168 L 17.955 18.182 L 15.131 18.215 M 6.549 21.061 L 5.12 22.489 L 14.793 22.148 L 13.466 20.825 L 6.549 21.061 M 6.078 11.102 C 5.128 12.048 3.9 13.679 2.707 12.968 L 2.229 13.913 L 1.049 13.551 C 0.725 16.161 2.027 19.41 4.406 21.778 L 5.842 20.349 C 4.494 19.034 2.984 16.551 3.698 15.37 L 3.691 15.37 C 5.363 14.659 6.55 13.471 7.507 12.524 L 6.078 11.102 M 11.718 15.771 L 14.416 18.457 L 14.416 17.504 L 15.373 17.504 L 12.772 14.915 L 11.718 15.771 M 17.753 16.558 L 19.081 17.88 L 19.187 14.876 L 17.856 13.58 L 17.753 16.558 M 6.313 10.391 L 10.93 14.986 L 11.351 13.501 L 7.264 9.438 L 6.313 9.438 L 6.313 10.391 M 8.922 8.298 C 8.601 8.615 8.265 8.919 7.984 9.196 L 9.414 10.618 C 9.806 10.228 10.237 9.796 10.66 9.308 L 8.922 8.298 M 2.7 8.686 C 3.273 8.632 4.385 9.042 5.106 10.136 L 5.113 10.143 L 5.585 9.189 L 2.942 6.082 L 6.063 8.713 L 7.021 8.243 C 6.387 7.753 5.329 6.559 5.564 5.848 L 1.291 4.438 L 2.7 8.686" transform="matrix(1 0 0 1 0 0)" fill="#FFFFFF" stroke="none" />
  <path d="M 15.914 4.747 L 17.067 2.08 L 17.793 5.344 L 21.282 3.283 L 19.413 6.589 L 22.999 6.991 L 19.2 9.341 L 22.401 11.458 L 18.752 10.887 L 20.416 15.311 L 17.194 12.178 L 16.234 14.041 L 15.252 11.797 L 11.603 14.761 L 12.862 10.315 L 10.877 10.611 L 12.265 9.574 L 8.253 7.245 L 12.393 7.436 L 11.304 5.149 L 13.908 5.827 L 12.99 1 L 15.914 4.747 M 15.004 7.346 L 14.061 7.101 L 14.455 7.929 L 12.956 7.86 L 14.409 8.703 L 13.907 9.079 L 14.626 8.971 L 14.17 10.581 L 15.491 9.508 L 15.846 10.32 L 16.194 9.646 L 17.376 10.819 L 16.758 9.179 L 18.08 9.385 L 16.92 8.618 L 18.296 7.767 L 16.998 7.622 L 17.338 6.104 L 16.426 7.101 L 16.147 5.989 L 15.731 6.955 L 14.672 5.598 L 15.004 7.346" transform="matrix(1 0 0 1 0 0)" fill="#FFFFFF" stroke="none" />
</svg>
