<?xml version="1.0" encoding="UTF-8"?>
<!-- Reconstructed from Amplitude.Graphics.Svg.SvgAsset and recolored from static UIMapper.Color metadata for EWShop; not original source SVG. Live UI state/material colors are not included. -->
<svg xmlns="http://www.w3.org/2000/svg" width="24" height="24" viewBox="0 0 24 24">
  <path d="M 13.375 6.255 L 11.949 2 L 10.605 6.284 L 9.852 5.128 C 9.852 5.128 9.575 4.833 9.356 4.888 C 8.974 4.984 8.498 5.23 8.062 5.454 C 7.861 5.558 7.668 5.658 7.498 5.735 L 4.83 3.671 L 5.512 6.286 C 4.723 6.889 4.029 7.606 3.466 8.423 L 0.013 9.105 C -0.017 9.296 0.008 9.298 0.069 9.303 C 0.093 9.305 0.124 9.307 0.16 9.323 C 0.563 9.505 1.043 9.645 1.517 9.783 C 1.866 9.884 2.211 9.985 2.521 10.101 C 4.601 10.878 6.552 11.622 7.744 13.629 L 6 16.5 L 7.659 15.426 L 8 14.2 L 8 14.199 L 8 14.197 L 8 14.194 L 8 14.183 L 8 14.146 C 8 14.115 8.001 14.072 8.003 14.018 C 8.007 13.911 8.015 13.759 8.033 13.578 C 8.068 13.218 8.142 12.727 8.302 12.217 C 8.56 11.39 9.096 10.376 10.176 9.951 C 10.086 9.46 10.073 8.904 10.188 8.412 C 10.277 8.032 10.46 7.617 10.824 7.329 C 11.211 7.023 11.701 6.936 12.232 7.045 C 12.703 7.14 13.058 7.386 13.288 7.74 C 13.502 8.07 13.577 8.446 13.604 8.767 C 13.631 9.092 13.615 9.426 13.601 9.698 L 13.6 9.718 C 13.593 9.838 13.588 9.942 13.585 10.035 C 13.61 10.046 13.636 10.058 13.664 10.07 C 13.741 10.103 13.821 10.136 13.91 10.172 L 13.93 10.18 C 14.011 10.213 14.099 10.248 14.186 10.285 C 14.536 10.434 15.04 10.67 15.342 11.132 C 15.751 11.757 15.936 12.61 16.027 13.233 C 16.075 13.558 16.1 13.848 16.114 14.058 L 16.127 14.308 L 16.908 15.822 L 18.124 16.5 L 16.4 13.629 L 18.124 11.558 L 18.862 11.146 C 18.862 11.146 19.987 10.75 20.68 10.445 C 21.059 10.279 21.407 10.126 21.631 10.043 C 21.959 9.923 22.297 9.819 22.634 9.716 C 23.039 9.592 23.444 9.468 23.832 9.314 C 23.87 9.299 23.903 9.301 23.929 9.302 C 23.99 9.304 24.018 9.306 23.988 9.105 L 23.986 9.104 C 23.668 9.014 23.165 8.947 22.634 8.875 C 21.814 8.765 20.925 8.646 20.535 8.421 C 20.421 8.354 20.233 8.091 20.05 7.836 C 19.919 7.654 19.792 7.475 19.697 7.377 C 19.627 7.305 19.485 7.178 19.32 7.031 C 18.945 6.697 18.456 6.261 18.458 6.146 L 19.169 3.67 L 16.562 5.712 C 16.459 5.735 16.046 5.53 15.613 5.315 C 15.198 5.108 14.763 4.892 14.565 4.859 C 14.356 4.824 14.156 5.192 14.156 5.192 L 13.375 6.255 M 7.196 10.123 C 5.536 9.838 5.744 7.321 6.45 7.533 L 8.752 9.457 C 9.12 10.091 7.615 10.196 7.196 10.123 M 17.442 7.533 C 18.148 7.321 18.356 9.838 16.696 10.123 C 16.277 10.196 14.772 10.091 15.14 9.457 L 17.442 7.533" transform="matrix(1 0 0 1 0 0)" fill="#FFFFFF" stroke="none" />
  <path d="M 0.64 11.925 L 1.474 11.556 C 3.507 11.195 5.496 12.187 6.41 12.909 L 6.607 13.179 C 6.074 12.922 5.518 12.67 4.959 12.474 C 4.9 12.453 4.806 12.419 4.691 12.377 C 3.786 12.046 2.82 11.925 1.856 11.925 L 0.64 11.925" transform="matrix(1 0 0 1 0 0)" fill="#FFFFFF" stroke="none" />
  <path d="M 23.077 11.936 C 23.208 11.947 23.381 11.963 23.359 11.823 C 21.35 11.029 19.047 11.626 17.497 13.074 C 17.71 12.99 17.921 12.904 18.129 12.819 C 19.146 12.404 20.12 12.007 21.256 11.891 C 21.618 11.854 21.983 11.877 22.348 11.901 C 22.563 11.915 22.777 11.929 22.992 11.93 C 23.015 11.93 23.045 11.933 23.077 11.936" transform="matrix(1 0 0 1 0 0)" fill="#FFFFFF" stroke="none" />
  <path d="M 6.608 13.909 L 6.353 13.932 C 5.224 14.035 4.132 14.384 3.153 14.954 C 3.716 13.807 5.234 13.441 6.257 13.686 C 6.257 13.686 6.582 13.761 6.608 13.909" transform="matrix(1 0 0 1 0 0)" fill="#FFFFFF" stroke="none" />
  <path d="M 18.081 13.605 C 17.926 13.624 17.453 13.734 17.392 13.91 L 17.527 13.91 C 18.441 13.91 19.388 14.008 20.156 14.503 C 20.378 14.646 20.583 14.778 20.741 14.851 C 20.853 14.74 20.213 14.143 20.114 14.066 C 19.459 13.549 18.91 13.509 18.081 13.605" transform="matrix(1 0 0 1 0 0)" fill="#FFFFFF" stroke="none" />
  <path d="M 14.263 14.554 C 14.065 14.528 14.156 14.808 14.15 14.942 C 14.065 17.223 14.675 19.315 14.932 21.554 L 13.031 21.996 L 12.208 19.909 L 11.613 19.888 L 10.984 21.96 C 10.761 22.115 9.357 21.78 9.162 21.622 C 8.967 21.464 9.043 20.984 9.064 20.743 C 9.206 19.203 9.843 17.429 9.955 15.832 C 9.981 15.463 9.965 15.126 9.843 14.777 L 9.141 16.256 C 9.175 17.063 8.28 17.928 8.189 18.557 C 8.138 18.914 8.526 19.112 8.314 19.56 C 8.264 19.666 7.775 20.132 7.65 20.111 C 7.217 19.748 6.926 19.578 7.017 18.958 C 7.086 18.49 7.643 16.531 7.829 16.081 C 8.044 15.561 8.473 15.129 8.651 14.551 C 9.132 12.983 8.602 11.059 10.976 10.768 C 10.585 9.798 10.575 7.718 12.115 8.032 C 13.359 8.286 12.887 9.932 12.96 10.772 C 13.486 11.147 14.445 11.274 14.817 11.842 C 15.473 12.845 15.65 14.919 16.319 16.042 C 16.389 17.006 16.727 18.053 16.864 18.957 C 17.078 20.359 15.316 20.731 15.519 19.181 C 15.545 18.981 15.744 18.891 15.721 18.646 C 15.702 18.438 15.212 16.773 15.111 16.449 C 14.905 15.791 14.521 15.191 14.263 14.555 L 14.263 14.554" transform="matrix(1 0 0 1 0 0)" fill="#FFFFFF" stroke="none" />
</svg>
