<?xml version="1.0" encoding="UTF-8"?>
<!-- Reconstructed from Amplitude.Graphics.Svg.SvgAsset and recolored from static UIMapper.Color metadata for EWShop; not original source SVG. Live UI state/material colors are not included. -->
<svg xmlns="http://www.w3.org/2000/svg" width="24" height="24" viewBox="0 0 24 24">
  <path d="M 17.064 3.929 C 16.99 4.334 16.904 4.736 16.809 5.135 C 15.447 4.382 14.186 3.477 12.939 2.412 C 12.512 2.047 11.856 2.047 11.429 2.412 C 10.106 3.542 8.757 4.492 7.289 5.271 C 7.191 4.875 7.103 4.476 7.027 4.074 C 8.32 3.361 9.517 2.506 10.694 1.5 C 11.547 0.771 12.82 0.771 13.673 1.5 C 14.772 2.438 15.878 3.246 17.064 3.929" transform="matrix(1 0 0 1 0 0)" fill="#FFFFFF" stroke="none" />
  <path d="M 23.5 15.456 C 23.5 18.521 21 21.771 17.601 23.271 C 20 21.771 22.349 18.315 22.349 15.456 L 22.349 15.177 C 22.689 14.932 22.963 14.619 23.163 14.355 C 23.283 14.198 23.395 14.032 23.5 13.864 L 23.5 15.456" transform="matrix(1 0 0 1 0 0)" fill="#FFFFFF" stroke="none" />
  <path d="M 0.833 15.456 C 0.833 18.521 3 22.271 6.5 23.271 C 4.019 21.589 1.984 18.315 1.984 15.456 L 1.984 15.346 C 1.517 15.092 1.152 14.685 0.901 14.355 C 0.878 14.325 0.855 14.294 0.833 14.263 L 0.833 15.456" transform="matrix(1 0 0 1 0 0)" fill="#FFFFFF" stroke="none" />
  <path d="M 7.797 6.393 C 7.887 6.677 7.98 6.96 8.076 7.241 C 9.347 6.618 10.493 5.834 11.614 4.876 C 11.934 4.603 12.425 4.603 12.746 4.876 C 13.796 5.773 14.859 6.519 16.028 7.122 C 16.124 6.839 16.216 6.556 16.305 6.27 C 15.237 5.708 14.263 5.018 13.297 4.193 C 12.657 3.646 11.702 3.646 11.063 4.193 C 10.025 5.079 8.969 5.809 7.797 6.393" transform="matrix(1 0 0 1 0 0)" fill="#FFFFFF" stroke="none" />
  <path d="M 10.388 22.727 C 6.769 22.333 3.53 19.309 3.309 15.346 L 4.53 15.809 C 4.53 18.81 7.658 21.489 10.388 22.727" transform="matrix(1 0 0 1 0 0)" fill="#FFFFFF" stroke="none" />
  <path d="M 14 22.727 C 17.619 22.333 20.858 19.309 21.079 15.346 L 19.858 15.809 C 19.858 18.81 16.73 21.489 14 22.727" transform="matrix(1 0 0 1 0 0)" fill="#FFFFFF" stroke="none" />
  <path d="M 5.554 0.965 C 5.494 -0.479 3.606 3.209 3.94 4.635 C 4.21 5.786 5.009 7.417 5.804 9.039 C 6.171 9.788 6.538 10.536 6.851 11.233 C 6.777 11.217 6.704 11.205 6.631 11.196 C 5.261 9.148 3.847 6.737 3.035 4.218 C 2.615 2.915 1.67 6.485 2.334 7.7 C 2.865 8.674 4.756 10.788 5.966 12.221 L 5.804 12.384 C 4.521 11.316 2.591 9.431 1.478 7.966 C 0.651 6.876 0.948 10.565 1.976 11.491 C 2.63 12.08 4.652 13.046 5.804 13.704 L 5.905 14.009 C 4.696 13.514 2.506 12.574 1.363 11.783 C 0.43 11.137 1.618 13.978 2.667 14.442 C 3.427 14.778 4.698 15.031 6 15.285 L 6 15.361 C 6 17.135 6.847 18.801 8.278 19.844 L 11.923 22.499 C 12.02 22.57 12.152 22.57 12.249 22.499 L 15.893 19.844 C 17.325 18.801 18.172 17.135 18.172 15.361 L 18.172 15.277 C 19.459 15.026 20.711 14.774 21.464 14.442 C 22.513 13.978 23.701 11.138 22.768 11.783 C 21.625 12.574 19.217 13.446 18.008 13.941 L 18.109 13.636 C 19.261 12.979 21.501 12.08 22.154 11.492 C 23.183 10.565 23.48 6.876 22.653 7.966 C 21.54 9.431 19.454 11.316 18.172 12.384 L 18.008 12.22 C 19.219 10.787 21.265 8.674 21.797 7.7 C 22.461 6.485 21.515 2.915 21.096 4.218 C 20.284 6.737 18.87 9.148 17.5 11.196 C 17.427 11.205 17.354 11.217 17.28 11.233 C 17.593 10.536 17.959 9.788 18.326 9.039 C 19.122 7.417 19.921 5.786 20.19 4.636 C 20.525 3.209 18.637 -0.479 18.576 0.965 C 18.451 3.96 17.543 6.771 16.586 9.332 C 15.087 8.752 13.708 7.896 12.521 6.805 C 12.275 6.579 11.897 6.579 11.65 6.805 C 10.454 7.904 9.062 8.765 7.55 9.345 C 6.591 6.781 5.68 3.965 5.554 0.965 M 7.915 10.307 C 7.992 10.505 8.068 10.703 8.143 10.898 C 8.162 10.947 8.181 10.996 8.2 11.044 L 8.202 11.044 C 9.358 10.665 10.436 10.088 11.391 9.34 L 11.391 8.311 C 10.396 9.202 9.226 9.877 7.957 10.293 L 7.915 10.307 M 7.75 15.532 C 7.496 15.562 7.226 15.542 6.955 15.474 C 7.004 16.3 7.269 17.09 7.712 17.77 L 8.284 17.197 C 7.986 16.694 7.801 16.125 7.75 15.532 M 16.215 10.293 L 16.22 10.295 C 16.142 10.498 16.064 10.699 15.987 10.898 L 15.936 11.032 C 14.776 10.648 13.694 10.063 12.738 9.306 L 12.738 8.272 C 13.743 9.182 14.927 9.871 16.215 10.293 M 15.657 17.544 C 16.09 16.963 16.358 16.269 16.422 15.536 C 16.671 15.561 16.936 15.537 17.201 15.467 L 17.218 15.464 C 17.162 16.434 16.809 17.355 16.219 18.107 L 15.657 17.544 M 15.243 19.038 L 14.679 18.473 L 12.086 20.362 L 9.349 18.368 C 9.286 18.322 9.224 18.274 9.164 18.225 L 8.605 18.785 C 8.695 18.862 8.789 18.936 8.885 19.007 L 11.727 21.077 C 11.941 21.233 12.231 21.233 12.445 21.077 L 15.243 19.038" transform="matrix(1 0 0 1 0 0)" fill="#FFFFFF" stroke="none" />
</svg>
