<?xml version="1.0" encoding="UTF-8"?>
<!-- Reconstructed from Amplitude.Graphics.Svg.SvgAsset and recolored from static UIMapper.Color metadata for EWShop; not original source SVG. Live UI state/material colors are not included. -->
<svg xmlns="http://www.w3.org/2000/svg" width="24" height="24" viewBox="0 0 24 24">
  <path d="M 23.916 5.366 L 23.916 5.343 L 21.041 4.651 C 20.189 4.446 19.536 3.786 19.313 2.945 L 18.596 0.083 C 18.564 -0.028 18.397 -0.028 18.365 0.083 L 17.664 2.937 C 17.457 3.786 16.788 4.446 15.935 4.651 L 13.084 5.343 C 12.972 5.374 12.972 5.539 13.084 5.571 L 15.975 6.318 C 16.811 6.53 17.457 7.19 17.664 8.032 L 18.381 10.917 C 18.412 11.028 18.58 11.028 18.612 10.917 L 19.336 8.032 C 19.543 7.206 20.197 6.546 21.025 6.341 L 23.916 5.594 C 24.028 5.563 24.028 5.39 23.916 5.366" transform="matrix(1 0 0 1 0 0)" fill="#FFFFFF" stroke="none" />
  <path d="M 3.175 4.325 C 5.448 3.609 7.92 4.092 9.776 5.613 L 11 6.616 L 12.042 5.761 C 12.136 6.108 12.391 6.414 12.813 6.533 L 12.834 6.539 L 15.725 7.286 L 15.729 7.287 C 16.199 7.407 16.572 7.78 16.692 8.271 L 16.693 8.272 L 17.41 11.158 L 17.42 11.195 C 17.585 11.766 18.1 12 18.496 12 C 18.601 12 18.713 11.982 18.825 11.947 L 18.825 17.494 C 16.552 16.778 14.081 17.261 12.224 18.782 L 11 19.785 L 9.776 18.782 C 7.919 17.261 5.448 16.778 3.175 17.494 L 3.175 7.175 C 2.78 7.219 2.385 7.293 1.995 7.397 L 1.995 18.902 C 4.728 18.258 7.615 18.921 9.824 20.732 L 11 21.694 L 12.176 20.732 C 14.385 18.921 17.272 18.258 20.005 18.902 L 20.005 9.475 L 20.307 8.275 L 20.362 8.103 C 20.484 7.801 20.715 7.554 21 7.411 L 21 20.257 L 20.356 20.054 C 17.754 19.234 14.923 19.785 12.797 21.527 L 11 23 L 9.203 21.527 C 7.077 19.785 4.246 19.234 1.644 20.054 L 1 20.257 L 1 6.635 L 1.352 6.523 C 1.951 6.334 2.562 6.211 3.175 6.15 L 3.175 4.325 M 17.503 7.579 L 17.566 7.726 C 17.536 7.649 17.501 7.576 17.464 7.504 C 17.477 7.529 17.491 7.554 17.503 7.579 M 16.942 6.831 C 17.02 6.9 17.093 6.975 17.161 7.054 C 17.127 7.014 17.092 6.976 17.056 6.939 L 16.942 6.831 M 16.13 6.362 L 16.279 6.418 C 16.23 6.398 16.18 6.379 16.129 6.362 L 15.975 6.317 C 16.027 6.331 16.079 6.346 16.13 6.362 M 16.2 4.569 C 16.114 4.601 16.026 4.63 15.936 4.651 L 13.354 5.277 L 15.936 4.65 C 16.026 4.629 16.114 4.601 16.2 4.569" transform="matrix(1 0 0 1 0 0)" fill="#FFFFFF" stroke="none" />
</svg>
