<?xml version="1.0" encoding="UTF-8"?>
<!-- Reconstructed from Amplitude.Graphics.Svg.SvgAsset and recolored from static UIMapper.Color metadata for EWShop; not original source SVG. Live UI state/material colors are not included. -->
<svg xmlns="http://www.w3.org/2000/svg" width="24" height="24" viewBox="0 0 24 24">
  <path d="M 15.491 15.5 C 15.993 15.26 16.638 15.323 17.065 15.689 L 18.231 16.689 C 18.631 17.032 18.721 17.54 18.5 17.957 L 19.444 18.87 C 19.961 18.451 20.776 18.459 21.283 18.893 L 22.449 19.893 C 22.902 20.281 22.957 20.882 22.615 21.322 L 23 21.912 L 23 23 L 22.449 23 L 21.843 22 C 21.326 22.334 20.588 22.299 20.117 21.895 L 18.951 20.895 C 18.537 20.54 18.455 20.008 18.705 19.583 L 17.774 18.683 L 17.765 18.69 C 17.25 19.133 16.415 19.132 15.899 18.69 L 14.733 17.69 C 14.235 17.264 14.217 16.581 14.68 16.136 L 15.491 15.5 M 20.7 19.593 C 20.507 19.427 20.193 19.428 20 19.594 L 19.767 19.794 C 19.574 19.96 19.574 20.228 19.767 20.394 L 20.7 21.194 C 20.894 21.36 21.207 21.36 21.4 21.194 L 21.633 20.994 C 21.826 20.829 21.826 20.56 21.633 20.394 L 20.7 19.593 M 16.481 16.389 C 16.288 16.223 15.975 16.223 15.782 16.389 L 15.549 16.59 C 15.356 16.756 15.355 17.024 15.549 17.19 L 16.482 17.99 C 16.676 18.156 16.989 18.156 17.182 17.99 L 17.415 17.79 C 17.608 17.624 17.608 17.355 17.415 17.189 L 16.481 16.389" transform="matrix(1 0 0 1 0 0)" fill="#FFFFFF" stroke="none" />
  <path d="M 8.509 15.5 C 8.007 15.26 7.362 15.323 6.935 15.689 L 5.769 16.689 C 5.369 17.032 5.279 17.54 5.5 17.957 L 4.556 18.87 C 4.039 18.451 3.224 18.459 2.717 18.893 L 1.551 19.893 C 1.098 20.281 1.043 20.882 1.385 21.322 L 1 21.912 L 1 23 L 1.551 23 L 2.157 22 C 2.674 22.334 3.412 22.299 3.883 21.895 L 5.049 20.895 C 5.463 20.54 5.545 20.008 5.295 19.583 L 6.227 18.683 L 6.235 18.69 C 6.75 19.133 7.586 19.132 8.101 18.69 L 9.267 17.69 C 9.765 17.264 9.783 16.581 9.32 16.136 L 8.509 15.5 M 3.3 19.593 C 3.493 19.427 3.807 19.428 4 19.594 L 4.233 19.794 C 4.426 19.96 4.426 20.228 4.233 20.394 L 3.3 21.194 C 3.106 21.36 2.793 21.36 2.6 21.194 L 2.367 20.994 C 2.174 20.829 2.174 20.56 2.367 20.394 L 3.3 19.593 M 7.519 16.389 C 7.712 16.223 8.025 16.223 8.218 16.389 L 8.451 16.59 C 8.645 16.756 8.645 17.024 8.451 17.19 L 7.518 17.99 C 7.324 18.156 7.011 18.156 6.818 17.99 L 6.585 17.79 C 6.392 17.624 6.392 17.355 6.585 17.189 L 7.519 16.389" transform="matrix(1 0 0 1 0 0)" fill="#FFFFFF" stroke="none" />
  <path d="M 17.84 1.013 C 17.908 0.977 17.991 1.025 17.991 1.102 L 17.991 10.191 L 23 12.014 L 18 12.012 L 20.5 15.514 L 16 13.512 L 15.672 13.708 L 13.454 15.165 L 12 20.014 L 10.547 15.17 L 8.203 13.63 L 3.5 15.514 L 6 12.014 L 1 12.014 L 6.003 10.195 L 6.003 1.102 C 6.003 1.025 6.087 0.976 6.155 1.013 C 6.834 1.379 7.507 1.552 8.252 1.813 C 9.193 2.142 10.505 2.469 11.997 2.469 C 13.49 2.469 14.802 2.142 15.742 1.813 C 16.483 1.554 17.165 1.377 17.84 1.013 M 16.823 2.495 C 16.609 2.587 16.36 2.686 16.081 2.783 C 15.065 3.139 13.636 3.497 11.997 3.497 C 10.359 3.497 8.93 3.139 7.913 2.783 C 7.634 2.686 7.385 2.587 7.171 2.495 C 7.105 2.467 7.03 2.516 7.03 2.588 L 7.03 11.498 C 7.03 11.531 7.047 11.563 7.074 11.581 L 11.94 14.933 C 11.975 14.956 12.02 14.956 12.054 14.933 L 16.921 11.581 C 16.948 11.563 16.964 11.531 16.964 11.498 L 16.964 2.588 C 16.964 2.516 16.89 2.467 16.823 2.495 M 17.991 11.018 L 18 11.012 L 17.991 10.994 L 17.991 11.018" transform="matrix(1 0 0 1 0 0)" fill="#FFFFFF" stroke="none" />
  <path d="M 16.108 11.201 L 16.108 3.772 C 16.108 3.723 16.058 3.688 16.012 3.706 C 15.628 3.853 14.116 4.375 11.997 4.375 C 9.878 4.375 8.366 3.853 7.982 3.706 C 7.936 3.688 7.887 3.723 7.887 3.772 L 7.887 11.201 L 11.997 13.944 L 16.108 11.201" transform="matrix(1 0 0 1 0 0)" fill="#FFFFFF" stroke="none" />
</svg>
