<?xml version="1.0" encoding="UTF-8"?>
<!-- Reconstructed from Amplitude.Graphics.Svg.SvgAsset and recolored from static UIMapper.Color metadata for EWShop; not original source SVG. Live UI state/material colors are not included. -->
<svg xmlns="http://www.w3.org/2000/svg" width="24" height="24" viewBox="0 0 24 24">
  <path d="M 9 9.226 C 8.977 9.072 8.96 8.914 8.948 8.754 C 8.861 8.515 8.766 8.299 8.656 8.117 C 8.432 7.741 7.99 7.546 7.562 7.357 C 7.296 7.239 7.036 7.124 6.838 6.97 C 6.821 6.759 6.834 6.5 6.847 6.224 C 6.891 5.324 6.943 4.242 6.01 4.034 C 4.502 3.698 4.512 5.926 4.895 6.966 C 3.158 7.199 3.008 8.407 2.847 9.704 C 2.792 10.143 2.736 10.593 2.617 11.019 C 2.519 11.366 2.344 11.664 2.172 11.958 C 2.038 12.187 1.905 12.414 1.812 12.658 C 1.63 13.14 1.084 15.24 1.016 15.74 C 0.935 16.344 1.164 16.55 1.525 16.875 C 1.561 16.907 1.598 16.941 1.637 16.976 C 1.759 16.998 2.238 16.499 2.287 16.386 C 2.408 16.106 2.33 15.918 2.253 15.733 C 2.198 15.601 2.144 15.471 2.165 15.311 C 2.203 15.024 2.384 14.691 2.576 14.336 C 2.836 13.859 3.117 13.342 3.098 12.846 L 3.785 11.261 C 3.904 11.635 3.92 11.997 3.894 12.391 C 3.837 13.286 3.639 14.233 3.443 15.168 C 3.265 16.021 3.088 16.866 3.022 17.653 C 3.02 17.682 3.017 17.714 3.013 17.748 C 2.988 18.022 2.948 18.445 3.117 18.595 C 3.29 18.747 4.423 19.054 4.806 18.992 C 4.849 18.816 4.895 18.638 4.94 18.465 C 5.141 17.689 5.376 16.848 5.509 16.495 C 5.653 16.115 5.859 15.763 6.02 15.491 C 6.042 15.453 6.063 15.417 6.083 15.382 C 6.267 15.067 6.392 14.829 6.461 14.582 C 6.581 14.156 6.642 13.69 6.709 13.15 L 6.715 13.097 C 6.777 12.6 6.849 12.021 7.003 11.486 C 7.168 10.911 7.443 10.323 7.952 9.855 C 8.248 9.582 8.597 9.374 9 9.226" transform="matrix(1 0 0 1 0 0)" fill="#FFFFFF" stroke="none" />
  <path d="M 15 9.226 C 15.023 9.072 15.04 8.914 15.052 8.754 C 15.139 8.515 15.234 8.299 15.344 8.117 C 15.568 7.741 16.01 7.546 16.438 7.357 C 16.704 7.239 16.964 7.124 17.162 6.97 C 17.179 6.759 17.166 6.5 17.153 6.224 C 17.109 5.324 17.057 4.242 17.99 4.034 C 19.498 3.698 19.488 5.926 19.105 6.966 C 20.842 7.199 20.992 8.407 21.153 9.704 C 21.208 10.143 21.264 10.593 21.383 11.019 C 21.481 11.366 21.656 11.664 21.828 11.958 C 21.962 12.187 22.095 12.414 22.188 12.658 C 22.37 13.14 22.916 15.24 22.984 15.74 C 23.065 16.344 22.836 16.55 22.475 16.875 C 22.439 16.907 22.402 16.941 22.363 16.976 C 22.241 16.998 21.762 16.499 21.713 16.386 C 21.592 16.106 21.67 15.918 21.747 15.733 C 21.802 15.601 21.856 15.471 21.835 15.311 C 21.797 15.024 21.616 14.691 21.424 14.336 C 21.164 13.859 20.883 13.342 20.903 12.846 L 20.215 11.261 C 20.096 11.635 20.08 11.997 20.106 12.391 C 20.163 13.286 20.361 14.233 20.557 15.168 C 20.735 16.021 20.912 16.866 20.978 17.653 C 20.98 17.682 20.983 17.714 20.987 17.748 C 21.012 18.022 21.052 18.445 20.883 18.595 C 20.711 18.747 19.577 19.054 19.194 18.992 C 19.151 18.816 19.105 18.638 19.06 18.465 C 18.859 17.689 18.624 16.848 18.491 16.495 C 18.347 16.115 18.141 15.763 17.98 15.491 C 17.958 15.453 17.937 15.417 17.917 15.382 C 17.733 15.067 17.608 14.829 17.539 14.582 C 17.419 14.156 17.359 13.69 17.291 13.15 L 17.285 13.097 C 17.223 12.6 17.151 12.021 16.997 11.486 C 16.832 10.911 16.557 10.323 16.049 9.855 C 15.752 9.582 15.403 9.374 15 9.226" transform="matrix(1 0 0 1 0 0)" fill="#FFFFFF" stroke="none" />
  <path d="M 10.769 0 C 9.227 1.22 7.676 2.224 5.915 3.009 C 5.393 2.962 4.894 3.098 4.491 3.448 C 4.418 3.511 4.352 3.578 4.292 3.647 C 4.005 3.746 3.712 3.84 3.412 3.929 L 2.633 4.159 C 2.077 4.324 1.7 4.794 1.7 5.325 L 1.7 10.567 C 1.686 10.628 1.671 10.688 1.654 10.748 C 1.597 10.952 1.49 11.143 1.309 11.451 L 1.295 11.475 C 1.17 11.69 0.999 11.98 0.877 12.304 C 0.785 12.547 0.64 13.05 0.501 13.568 C 0.5 13.514 0.5 13.46 0.5 13.406 L 0.5 5.325 C 0.5 4.197 1.292 3.305 2.293 3.009 L 3.072 2.778 C 3.44 2.669 3.854 2.552 4.296 2.427 C 6.481 1.809 9.346 1 10.769 0" transform="matrix(1 0 0 1 0 0)" fill="#FFFFFF" stroke="none" />
  <path d="M 5.818 20.728 C 5.473 20.501 5.146 20.255 4.84 19.994 C 4.628 20.01 4.418 19.988 4.269 19.968 C 4.062 19.939 3.843 19.894 3.641 19.844 C 3.439 19.793 3.236 19.733 3.061 19.67 C 2.974 19.639 2.882 19.603 2.795 19.561 C 2.773 19.551 2.741 19.535 2.703 19.515 C 3.386 20.358 4.211 21.107 5.158 21.731 L 8.316 24 L 11 24 L 11.602 21.285 L 12.324 21.312 L 13.5 24 L 15.761 24 L 18.842 21.5 C 19.648 20.969 20.366 20.347 20.982 19.654 L 20.939 19.67 C 20.764 19.733 20.561 19.793 20.359 19.844 C 20.157 19.894 19.938 19.939 19.732 19.968 C 19.552 19.992 19.285 20.019 19.034 19.979 L 18.922 19.96 C 18.686 20.149 18.439 20.328 18.182 20.498 L 17.978 20.663 C 18.006 20.49 18.009 20.298 17.978 20.087 C 17.911 19.619 17.804 19.121 17.695 18.613 C 17.533 17.858 17.367 17.08 17.316 16.34 C 16.915 15.627 16.659 14.616 16.407 13.619 C 16.149 12.598 15.895 11.593 15.492 10.94 C 15.214 10.49 14.665 10.255 14.135 10.028 C 13.805 9.887 13.483 9.749 13.238 9.564 C 13.217 9.31 13.232 9 13.249 8.669 C 13.303 7.589 13.368 6.291 12.211 6.041 C 10.341 5.638 10.353 8.312 10.828 9.559 C 8.675 9.838 8.489 11.288 8.29 12.844 C 8.222 13.372 8.153 13.912 8.004 14.423 C 7.883 14.839 7.666 15.197 7.453 15.549 C 7.286 15.825 7.122 16.097 7.007 16.39 C 6.781 16.968 6.104 19.488 6.02 20.089 C 5.961 20.52 6.037 20.782 6.202 21.005 L 5.818 20.728 M 6.922 21.523 L 8.482 22.647 C 8.487 22.595 8.491 22.545 8.496 22.498 C 8.5 22.457 8.504 22.418 8.507 22.384 C 8.589 21.439 8.808 20.426 9.029 19.402 C 9.272 18.279 9.517 17.143 9.588 16.069 C 9.62 15.596 9.601 15.162 9.452 14.713 L 8.6 16.615 C 8.624 17.21 8.276 17.83 7.954 18.404 C 7.716 18.829 7.491 19.229 7.444 19.573 C 7.419 19.765 7.485 19.921 7.554 20.08 C 7.649 20.301 7.746 20.528 7.596 20.863 C 7.547 20.972 7.153 21.381 6.922 21.523 M 16.793 21.625 C 16.482 21.499 16.255 21.101 16.345 20.376 C 16.359 20.265 16.411 20.18 16.464 20.095 C 16.534 19.982 16.605 19.867 16.59 19.688 C 16.566 19.42 15.972 17.28 15.849 16.864 C 15.702 16.363 15.478 15.889 15.255 15.416 C 15.101 15.089 14.947 14.763 14.819 14.428 L 14.819 14.427 C 14.637 14.401 14.657 14.603 14.674 14.776 C 14.679 14.831 14.684 14.884 14.683 14.925 C 14.615 16.855 14.912 18.68 15.212 20.523 C 15.327 21.225 15.442 21.93 15.537 22.644 L 16.793 21.625" transform="matrix(1 0 0 1 0 0)" fill="#FFFFFF" stroke="none" />
  <path d="M 23.493 13.546 C 23.498 13.423 23.5 13.299 23.5 13.175 L 23.5 5.094 C 23.5 3.966 22.708 3.074 21.707 2.778 L 20.928 2.547 C 20.474 2.413 19.958 2.272 19.411 2.122 C 17.356 1.559 14.874 0.88 13.629 0 C 15.281 1.316 16.785 2.279 18.678 3.039 C 18.876 3.079 19.066 3.151 19.242 3.255 C 19.668 3.411 20.115 3.558 20.588 3.698 L 21.367 3.929 C 21.923 4.093 22.3 4.564 22.3 5.094 L 22.3 10.566 C 22.314 10.628 22.329 10.688 22.346 10.748 C 22.403 10.952 22.51 11.143 22.691 11.451 L 22.705 11.475 C 22.831 11.69 23.001 11.98 23.123 12.304 C 23.214 12.544 23.356 13.035 23.493 13.546" transform="matrix(1 0 0 1 0 0)" fill="#FFFFFF" stroke="none" />
  <path d="M 7.726 4.483 C 9.054 3.828 10.29 3.015 11.404 2.063 C 11.741 1.774 12.259 1.774 12.596 2.063 C 13.709 3.015 14.946 3.828 16.274 4.483 C 16.349 4.236 16.467 3.973 16.661 3.733 C 15.385 3.106 14.199 2.328 13.133 1.416 C 12.485 0.861 11.514 0.861 10.867 1.416 C 9.801 2.328 8.615 3.106 7.339 3.733 C 7.533 3.973 7.651 4.236 7.726 4.483" transform="matrix(1 0 0 1 0 0)" fill="#FFFFFF" stroke="none" />
  <path d="M 3.706 5.138 C 3.19 5.451 2.833 6.009 2.833 6.667 L 2.833 6.869 C 3.076 6.617 3.369 6.412 3.714 6.259 C 3.672 5.894 3.664 5.508 3.706 5.138" transform="matrix(1 0 0 1 0 0)" fill="#FFFFFF" stroke="none" />
  <path d="M 20.286 6.259 C 20.631 6.412 20.924 6.617 21.166 6.868 L 21.166 6.667 C 21.166 6.01 20.81 5.452 20.294 5.138 C 20.336 5.508 20.329 5.894 20.286 6.259" transform="matrix(1 0 0 1 0 0)" fill="#FFFFFF" stroke="none" />
</svg>
