<?xml version="1.0" encoding="UTF-8"?>
<!-- Reconstructed from Amplitude.Graphics.Svg.SvgAsset and recolored from static UIMapper.Color metadata for EWShop; not original source SVG. Live UI state/material colors are not included. -->
<svg xmlns="http://www.w3.org/2000/svg" width="24" height="24" viewBox="0 0 24 24">
  <path d="M 7.41 6.79 C 7.78 6.34 8.22 5.89 8.71 5.47 C 5.51 4.04 2.36 4.91 1 5.67 C 4.58 5.13 6.48 5.83 7.41 6.78 L 7.41 6.79" transform="matrix(1 0 0 1 0 0)" fill="#FFFFFF" stroke="none" />
  <path d="M 10.31 4.36 C 11.32 3.8 12.5 3.34 13.9 3.07 C 8.48 -0.77 3.47 1.59 1.58 3.33 C 5.59 1.08 8.6 2.57 10.31 4.36" transform="matrix(1 0 0 1 0 0)" fill="#FFFFFF" stroke="none" />
  <path d="M 6.331 8.39 C 4.811 7.85 3.321 8.32 2.631 8.71 C 4.071 8.69 5.111 9.22 5.731 9.73 C 5.881 9.31 6.081 8.85 6.331 8.39" transform="matrix(1 0 0 1 0 0)" fill="#FFFFFF" stroke="none" />
  <path d="M 15.289 19.39 L 17.049 19.39 L 19.079 17.65 L 21.109 19.39 L 22.999 19.39 L 19.079 15.77 L 15.289 19.39" transform="matrix(1 0 0 1 0 0)" fill="#FFFFFF" stroke="none" />
  <path d="M 15.289 23 L 17.049 23 L 19.079 21.26 L 21.109 23 L 22.999 23 L 19.079 19.39 L 15.289 23" transform="matrix(1 0 0 1 0 0)" fill="#FFFFFF" stroke="none" />
  <path d="M 15.289 16 L 17.049 16 L 19.079 14.26 L 21.109 16 L 22.999 16 L 19.079 12.39 L 15.289 16" transform="matrix(1 0 0 1 0 0)" fill="#FFFFFF" stroke="none" />
  <path d="M 18.839 11.23 C 18.739 11.12 18.659 11.01 18.589 10.93 L 19.479 10.14 L 18.039 8.51 L 17.339 9.04 C 16.729 8.33 15.609 6.52 15.509 4.68 C 15.379 2.27 4.159 6.52 6.859 13.19 C 8.599 11.58 12.409 9.05 13.769 11.76 L 9.369 15.12 C 8.359 17.07 4.609 19.78 2.869 20.89 L 3.919 22.07 C 5.039 22.14 7.489 20.05 8.579 18.99 C 11.579 15.7 14.229 14.25 15.179 13.93 C 15.339 14.05 15.479 14.18 15.589 14.31 L 18.829 11.22 L 18.839 11.23 M 7.619 11.34 C 7.529 11.66 7.429 12.01 7.299 12.41 C 6.369 10.87 7.159 7.74 11.649 5.91 C 8.259 9.04 8.039 9.83 7.619 11.34" transform="matrix(1 0 0 1 0 0)" fill="#FFFFFF" stroke="none" />
</svg>
