<?xml version="1.0" encoding="UTF-8"?>
<!-- Reconstructed from Amplitude.Graphics.Svg.SvgAsset and recolored from static UIMapper.Color metadata for EWShop; not original source SVG. Live UI state/material colors are not included. -->
<svg xmlns="http://www.w3.org/2000/svg" width="24" height="24" viewBox="0 0 24 24">
  <path d="M 13.636 0 L 10.364 0 L 10.364 2.864 L 7.5 2.864 L 7.5 6.136 L 10.364 6.136 L 10.364 9 L 13.636 9 L 13.636 6.136 L 16.5 6.136 L 16.5 2.864 L 13.636 2.864 L 13.636 0" transform="matrix(1 0 0 1 0 0)" fill="#FFFFFF" stroke="none" />
  <path d="M 1.981 14.156 L 2.013 14.076 C 2.174 14.155 2.354 14.2 2.545 14.2 L 5.455 14.2 C 6.117 14.2 6.655 13.663 6.655 13 L 6.655 11.654 L 8 11.654 C 8.625 11.654 9.138 11.177 9.195 10.568 C 9.957 10.33 10.682 10.113 11.363 10 C 11.172 10.101 10.981 10.209 10.795 10.327 C 10.213 10.695 9.659 11.165 9.331 11.784 L 9.329 11.789 L 9.326 11.794 C 9.126 12.213 9.016 12.495 8.954 12.722 C 8.892 12.953 8.882 13.119 8.872 13.29 L 8.871 13.294 C 8.863 13.439 8.854 13.595 8.813 13.826 C 8.634 14.215 8.49 14.567 8.404 14.876 C 8.318 15.187 8.28 15.49 8.36 15.752 C 8.447 16.038 8.658 16.232 8.963 16.335 C 9.251 16.432 9.628 16.451 10.089 16.414 L 10.097 16.414 L 10.105 16.413 C 10.755 16.325 11.625 15.822 12.062 14.636 C 12.336 14.554 12.654 14.418 12.95 14.275 C 13.254 14.129 13.55 13.968 13.776 13.833 C 14.655 14.132 16.038 14.893 17.325 15.742 C 17.995 16.184 18.63 16.644 19.145 17.065 C 19.631 17.464 19.991 17.813 20.178 18.071 C 20.217 18.616 20.115 18.864 20.009 18.968 C 19.91 19.065 19.73 19.112 19.398 19.037 C 19.073 18.964 18.681 18.789 18.259 18.561 C 17.84 18.336 17.411 18.068 17.012 17.819 L 16.995 17.809 C 16.584 17.552 16.193 17.308 15.9 17.172 C 15.326 16.819 14.911 16.613 14.642 16.525 C 14.573 16.503 14.505 16.486 14.443 16.477 C 14.386 16.47 14.303 16.465 14.22 16.494 C 14.117 16.53 14.023 16.619 14.004 16.751 C 13.989 16.853 14.025 16.938 14.05 16.984 C 14.102 17.085 14.195 17.186 14.298 17.281 C 14.406 17.381 14.546 17.491 14.712 17.606 C 15.042 17.835 15.489 18.093 16.032 18.337 L 18.258 19.603 C 18.321 19.702 18.332 19.801 18.31 19.898 C 18.284 20.016 18.205 20.144 18.076 20.256 C 17.813 20.486 17.427 20.582 17.116 20.441 L 17.059 20.415 L 17.035 20.415 C 17.024 20.41 17.009 20.403 16.989 20.393 C 16.928 20.364 16.845 20.318 16.74 20.259 C 16.531 20.141 16.254 19.976 15.94 19.788 L 15.935 19.785 C 15.337 19.429 14.612 18.997 14.013 18.686 C 13.715 18.53 13.436 18.399 13.216 18.323 C 13.107 18.286 12.995 18.255 12.893 18.249 C 12.813 18.244 12.639 18.248 12.528 18.39 C 12.475 18.45 12.446 18.526 12.445 18.608 C 12.445 18.69 12.475 18.758 12.501 18.803 C 12.551 18.891 12.632 18.969 12.709 19.034 C 12.87 19.169 13.109 19.325 13.377 19.484 C 13.917 19.803 14.629 20.169 15.21 20.468 L 15.215 20.47 C 15.513 20.624 15.775 20.759 15.966 20.862 C 16.027 20.895 16.078 20.924 16.121 20.948 C 16.145 20.963 16.166 20.975 16.185 20.987 L 16.202 20.998 L 16.21 21.016 L 16.278 21.06 C 16.441 21.164 16.471 21.257 16.473 21.315 C 16.475 21.386 16.44 21.484 16.339 21.59 C 16.131 21.808 15.782 21.921 15.536 21.842 L 12.384 20.263 C 12.077 19.65 11.374 19.285 10.682 19.383 C 10.67 19.342 10.658 19.295 10.644 19.239 L 10.641 19.229 C 10.606 19.091 10.558 18.905 10.477 18.738 C 10.398 18.575 10.271 18.397 10.058 18.299 C 9.716 18.046 9.302 17.956 8.901 17.992 C 8.86 17.614 8.72 17.302 8.501 17.067 C 8.222 16.766 7.839 16.615 7.444 16.591 C 6.835 16.554 6.17 16.818 5.732 17.348 C 5.594 17.1 5.416 16.908 5.204 16.776 C 4.856 16.559 4.454 16.526 4.072 16.608 C 3.415 16.748 2.768 17.236 2.38 17.855 C 1.901 17.558 1.488 17.339 1 17.22 C 1.01 17.073 1.058 16.839 1.144 16.531 C 1.32 15.897 1.633 15.026 1.981 14.156" transform="matrix(1 0 0 1 0 0)" fill="#FFFFFF" stroke="none" />
  <path d="M 14.81 10.025 C 13.946 10.034 13.067 10.202 12.289 10.535 C 10.849 11.149 9.782 12.306 9.747 14.033 L 9.746 14.091 L 9.721 14.143 C 9.584 14.429 9.468 14.691 9.394 14.917 C 9.318 15.152 9.3 15.309 9.319 15.4 C 9.327 15.439 9.339 15.455 9.348 15.464 C 9.357 15.473 9.381 15.491 9.441 15.504 C 9.572 15.532 9.814 15.521 10.222 15.409 L 10.263 15.397 L 10.306 15.399 C 10.472 15.404 10.659 15.268 10.857 14.873 C 11.043 14.501 11.179 14.017 11.302 13.579 L 11.303 13.575 C 11.35 13.406 11.396 13.243 11.44 13.104 C 11.484 12.967 11.533 12.832 11.592 12.731 C 11.62 12.681 11.662 12.619 11.722 12.571 C 11.787 12.517 11.89 12.468 12.017 12.49 C 12.131 12.51 12.208 12.579 12.253 12.631 C 12.301 12.685 12.34 12.752 12.373 12.82 L 12.404 12.883 L 12.399 12.954 C 12.387 13.144 12.365 13.332 12.337 13.517 C 12.757 13.326 13.204 13.095 13.446 12.924 L 13.529 12.865 L 13.63 12.873 C 14.058 12.905 14.646 13.128 15.278 13.437 C 15.921 13.751 16.647 14.172 17.363 14.634 C 18.746 15.526 20.125 16.591 20.809 17.35 C 21.154 17.424 21.63 17.401 22.074 17.276 C 22.507 17.155 22.839 16.958 23 16.734 C 22.65 15.614 22.398 14.695 22.21 13.941 C 22.005 14.103 21.746 14.2 21.465 14.2 L 18.556 14.2 C 17.893 14.2 17.356 13.663 17.356 13 L 17.356 11.654 L 16.01 11.654 C 15.348 11.654 14.81 11.117 14.81 10.454 L 14.81 10.025" transform="matrix(1 0 0 1 0 0)" fill="#FFFFFF" stroke="none" />
  <path d="M 12.574 21.378 C 12.555 21.367 12.539 21.358 12.523 21.35 L 12.522 21.353 C 12.508 21.378 12.492 21.408 12.473 21.444 L 12.467 21.455 L 12.464 21.459 C 12.373 21.631 12.238 21.883 11.998 22.22 C 12.589 22.434 13.336 22.643 13.894 22.69 C 14.059 22.704 14.197 22.703 14.304 22.687 C 14.414 22.672 14.466 22.643 14.484 22.628 C 14.489 22.624 14.497 22.617 14.496 22.581 C 14.494 22.539 14.478 22.469 14.426 22.364 L 14.415 22.342 C 13.768 22.052 13.324 21.813 13.015 21.635 C 12.911 21.576 12.823 21.524 12.747 21.479 C 12.675 21.436 12.619 21.403 12.574 21.378" transform="matrix(1 0 0 1 0 0)" fill="#FFFFFF" stroke="none" />
  <path d="M 6.726 17.733 L 4.635 20.366 L 4.634 20.367 L 4.633 20.369 C 4.488 20.546 4.461 20.717 4.492 20.866 C 4.524 21.022 4.626 21.174 4.773 21.286 C 4.921 21.398 5.097 21.457 5.26 21.449 C 5.414 21.442 5.577 21.373 5.717 21.192 L 5.718 21.191 L 7.809 18.557 L 7.81 18.555 C 7.954 18.378 7.982 18.207 7.951 18.059 C 7.919 17.902 7.818 17.75 7.67 17.637 C 7.523 17.525 7.348 17.466 7.185 17.474 C 7.031 17.482 6.868 17.55 6.727 17.732 L 6.726 17.733" transform="matrix(1 0 0 1 0 0)" fill="#FFFFFF" stroke="none" />
  <path d="M 4.81 18.583 C 4.961 18.345 5.002 18.19 4.986 18.103 C 4.84 17.745 4.679 17.574 4.545 17.5 C 4.42 17.431 4.278 17.425 4.107 17.492 C 3.738 17.636 3.322 18.088 3.033 18.627 C 2.893 18.89 2.793 19.156 2.746 19.389 C 2.698 19.629 2.714 19.797 2.76 19.892 C 2.78 19.934 2.805 19.96 2.835 19.978 C 2.867 19.997 2.919 20.016 3.008 20.017 C 3.185 20.02 3.467 19.952 3.881 19.747 C 3.973 19.615 4.106 19.461 4.235 19.311 L 4.249 19.295 C 4.45 19.062 4.661 18.817 4.81 18.583" transform="matrix(1 0 0 1 0 0)" fill="#FFFFFF" stroke="none" />
  <path d="M 8.548 19.161 C 8.494 19.254 8.41 19.365 8.318 19.477 C 8.218 19.6 8.096 19.742 7.968 19.892 L 7.966 19.894 C 7.678 20.228 7.358 20.602 7.123 20.942 C 7.006 21.112 6.918 21.264 6.867 21.389 C 6.817 21.511 6.816 21.572 6.82 21.593 C 6.993 22.031 7.169 22.183 7.291 22.227 C 7.404 22.268 7.562 22.248 7.791 22.098 C 8.016 21.951 8.258 21.711 8.504 21.424 C 8.747 21.14 8.98 20.826 9.192 20.539 L 9.199 20.53 C 9.369 20.3 9.531 20.082 9.667 19.925 C 9.779 19.753 9.792 19.592 9.752 19.453 C 9.71 19.303 9.603 19.162 9.454 19.061 C 9.305 18.959 9.132 18.909 8.973 18.922 C 8.825 18.934 8.675 19 8.548 19.161" transform="matrix(1 0 0 1 0 0)" fill="#FFFFFF" stroke="none" />
  <path d="M 9.384 21.815 C 9.717 21.363 10.16 20.764 10.601 20.463 C 10.82 20.314 10.986 20.275 11.109 20.302 C 11.226 20.328 11.395 20.434 11.572 20.797 C 11.631 20.922 11.608 21.107 11.447 21.382 C 11.291 21.649 11.051 21.925 10.818 22.192 L 10.802 22.211 C 10.639 22.398 10.469 22.592 10.368 22.757 C 10.133 23.055 9.768 23.061 9.472 22.871 C 9.177 22.68 9.04 22.35 9.231 22.022 C 9.278 21.96 9.33 21.889 9.384 21.815" transform="matrix(1 0 0 1 0 0)" fill="#FFFFFF" stroke="none" />
  <path d="M 5.273 6 L 2.727 6 L 2.727 8.227 L 0.5 8.227 L 0.5 10.773 L 2.727 10.773 L 2.727 13 L 5.273 13 L 5.273 10.773 L 7.5 10.773 L 7.5 8.227 L 5.273 8.227 L 5.273 6" transform="matrix(1 0 0 1 0 0)" fill="#FFFFFF" stroke="none" />
  <path d="M 21.273 6 L 18.727 6 L 18.727 8.227 L 16.5 8.227 L 16.5 10.773 L 18.727 10.773 L 18.727 13 L 21.273 13 L 21.273 10.773 L 23.5 10.773 L 23.5 8.227 L 21.273 8.227 L 21.273 6" transform="matrix(1 0 0 1 0 0)" fill="#FFFFFF" stroke="none" />
</svg>
