<?xml version="1.0" encoding="UTF-8"?>
<!-- Reconstructed from Amplitude.Graphics.Svg.SvgAsset and recolored from static UIMapper.Color metadata for EWShop; not original source SVG. Live UI state/material colors are not included. -->
<svg xmlns="http://www.w3.org/2000/svg" width="24" height="24" viewBox="0 0 24 24">
  <path d="M 12.06 12.62 L 15.35 14.96 C 15.44 15.02 15.56 15.02 15.64 14.96 L 17.37 13.73 L 16.94 13.3 C 16.86 13.22 16.8 13.14 16.74 13.06 L 15.82 13.71 C 15.63 13.85 15.36 13.85 15.17 13.71 L 12.6 11.89 C 12.51 11.83 12.43 11.76 12.35 11.7 L 12.86 11.21 C 12.91 11.25 12.97 11.3 13.03 11.34 L 15.5 13.09 L 16.48 12.39 C 16.4 11.89 16.56 11.35 16.95 10.96 C 17.43 10.48 18.14 10.35 18.74 10.59 C 19.19 10 19.44 9.28 19.44 8.53 L 19.44 5.14 C 19.44 5.07 19.39 5 19.32 4.98 L 19.02 4.88 C 17.96 4.54 16.97 4.02 16.1 3.35 L 16.1 2.44 C 17.01 3.24 18.08 3.85 19.24 4.22 L 19.54 4.32 C 19.9 4.44 20.15 4.77 20.15 5.14 L 20.15 8.53 C 20.15 9.42 19.86 10.28 19.33 10.98 L 19.98 11.63 C 20.64 10.79 21 9.75 21 8.67 L 21 4.32 C 21 4.03 20.81 3.78 20.53 3.69 L 20.14 3.57 C 18.56 3.07 17.11 2.24 15.89 1.15 C 15.67 0.95 15.33 0.95 15.1 1.15 C 13.88 2.24 12.43 3.07 10.85 3.57 L 10.46 3.69 C 10.18 3.78 9.99 4.03 9.99 4.32 L 9.99 8.67 C 9.99 10.23 10.76 11.7 12.05 12.61 L 12.06 12.62 M 10.86 8.53 L 10.86 5.14 C 10.86 4.77 11.11 4.44 11.47 4.32 L 11.77 4.22 C 12.92 3.85 13.97 3.26 14.87 2.48 L 14.87 3.39 C 14.01 4.05 13.03 4.56 11.99 4.89 L 11.69 4.99 C 11.62 5.01 11.57 5.08 11.57 5.15 L 11.57 8.54 C 11.57 9.17 11.75 9.78 12.07 10.3 L 11.55 10.8 C 11.1 10.13 10.86 9.35 10.86 8.53" transform="matrix(1 0 0 1 0 0)" fill="#FFFFFF" stroke="none" />
  <path d="M 16.58 16.46 C 16.03 16.87 15.28 17.37 15.16 17.39 C 14.41 17.51 13.73 17.27 13.05 17.03 C 12.37 16.79 11.69 16.54 10.91 16.64 C 10.64 16.68 10.52 16.75 10.41 16.83 C 10.27 16.93 10.14 17.02 9.7 17.01 C 9.58 17.01 9.07 16.9 9.41 16.73 L 10.26 16.31 C 10.66 14.78 9.86 12.86 7.7 13 C 5.98 13.47 6.47 14.61 6.97 15.76 C 7.23 16.36 7.49 16.96 7.44 17.46 C 6.94 17.25 6.39 17.62 5.93 17.94 C 5.63 18.15 5.36 18.33 5.17 18.3 C 5.04 18.28 4.91 17.95 4.78 17.65 C 4.7 17.46 4.63 17.29 4.57 17.21 C 3.46 16.23 3.83 15.71 4.13 15.28 C 4.26 15.09 4.39 14.92 4.36 14.73 L 4.08 14.11 C 3.75 13.39 2.77 13.22 2.19 13.77 L 2.17 13.87 C 1.97 14.7 1.78 15.54 2.76 17.01 C 3 17.38 3.17 17.96 3.34 18.54 C 3.51 19.13 3.68 19.72 3.93 20.05 L 6.85 20.05 C 7.1 20.27 7.32 20.69 7.54 21.13 C 7.89 21.8 8.25 22.5 8.77 22.57 C 9 22.6 9.3 22.67 9.63 22.74 C 10.35 22.9 11.17 23.08 11.39 22.95 C 11.39 22.95 12.2 22.57 13.14 21.2 C 12.6 20.66 12.6 19.13 12.93 18.92 C 13.31 18.91 13.72 18.97 14.13 19.03 C 14.82 19.13 15.52 19.24 16.13 19.01 C 16.53 18.86 16.81 18.39 17.11 17.89 C 17.22 17.71 17.33 17.53 17.45 17.35 C 17.27 17.27 17.11 17.16 16.96 17.01 C 16.8 16.85 16.68 16.66 16.59 16.46 L 16.58 16.46" transform="matrix(1 0 0 1 0 0)" fill="#FFFFFF" stroke="none" />
  <path d="M 20.91 13.98 L 22.3 12.59 C 22.56 12.33 22.56 11.92 22.3 11.66 C 22.04 11.4 21.63 11.4 21.37 11.66 L 19.98 13.05 L 18.59 11.66 C 18.33 11.4 17.92 11.4 17.66 11.66 C 17.4 11.92 17.4 12.33 17.66 12.59 L 19.05 13.98 L 17.66 15.37 C 17.4 15.63 17.4 16.04 17.66 16.3 C 17.92 16.56 18.33 16.56 18.59 16.3 L 19.98 14.91 L 21.37 16.3 C 21.63 16.56 22.04 16.56 22.3 16.3 C 22.56 16.04 22.56 15.63 22.3 15.37 L 20.91 13.98" transform="matrix(1 0 0 1 0 0)" fill="#FFFFFF" stroke="none" />
</svg>
