<?xml version="1.0" encoding="UTF-8"?>
<!-- Reconstructed from Amplitude.Graphics.Svg.SvgAsset and recolored from static UIMapper.Color metadata for EWShop; not original source SVG. Live UI state/material colors are not included. -->
<svg xmlns="http://www.w3.org/2000/svg" width="24" height="24" viewBox="0 0 24 24">
  <path d="M 4.199 13.801 L 5.642 15.628 C 5.533 15.743 5.453 15.882 5.408 16.032 L 5.375 16.189 L 5.368 16.241 L 1 13.365 L 4.199 13.801 M 7.027 6.714 L 6.947 6.909 C 6.785 7.3 6.887 7.75 7.2 8.034 L 9.84 10.425 L 9.665 10.378 L 9.998 11.101 L 9.503 11.615 L 8.018 11.545 L 9.003 12.135 L 8.166 13.005 L 4.245 10.746 C 3.83 10.507 3.304 10.597 2.99 10.959 C 2.82 11.156 2.742 11.403 2.75 11.648 L 1 10.601 L 5.998 10.155 L 2.118 3.237 L 7.027 6.714" transform="matrix(1 0 0 1 0 0)" fill="#FFFFFF" stroke="none" />
  <path d="M 14.389 11.149 L 2.911 23.305 L 0.7 21.999 L 2.117 22.386 L 2.569 20.258 L 5.102 17.629 L 6.131 18.465 L 5.827 17.097 L 7 15.733 L 3.747 11.612 L 8.501 14.098 L 12.698 9.741 L 13.987 9.649 L 14.389 11.149" transform="matrix(1 0 0 1 0 0)" fill="#FFFFFF" stroke="none" />
  <path d="M 23 23 L 21.112 23 L 19.083 21.261 L 17.055 23 L 15.291 23 L 19.083 19.386 L 23 23" transform="matrix(1 0 0 1 0 0)" fill="#FFFFFF" stroke="none" />
  <path d="M 19.015 14.486 L 19.045 14.513 L 18.246 15.643 L 17.261 15.506 L 14.015 12.653 L 14.979 11.013 L 19.015 14.486" transform="matrix(1 0 0 1 0 0)" fill="#FFFFFF" stroke="none" />
  <path d="M 10.459 2.862 L 12.363 0.907 L 22.859 9.845 L 19.667 13.73 L 8.9 4.463 L 9.372 3.977 L 5.271 0.711 L 10.459 2.862" transform="matrix(1 0 0 1 0 0)" fill="#FFFFFF" stroke="none" />
  <path d="M 12.559 8.93 L 11.292 10.391 L 7.871 7.293 L 8.604 5.525 L 12.559 8.93" transform="matrix(1 0 0 1 0 0)" fill="#FFFFFF" stroke="none" />
</svg>
