<?xml version="1.0" encoding="UTF-8"?>
<!-- Reconstructed from Amplitude.Graphics.Svg.SvgAsset and recolored from static UIMapper.Color metadata for EWShop; not original source SVG. Live UI state/material colors are not included. -->
<svg xmlns="http://www.w3.org/2000/svg" width="24" height="24" viewBox="0 0 24 24">
  <path d="M 22.138 21.34 C 20.831 20.997 19.81 20.607 19.456 19.481 L 19.444 19.445 C 19.078 18.282 17.966 14.751 18.706 14.024 C 19.134 13.298 20.231 11.688 21.131 10.366 C 21.806 9.376 22.371 8.548 22.462 8.372 C 22.676 7.961 22.676 7.7 22.462 7.521 C 22.14 7.324 18.404 5.204 18.009 5.637 C 17.799 5.866 17.677 6.256 17.677 6.256 C 16.998 7.878 15.261 11.415 13.746 12.59 C 11.851 14.058 11.555 15.18 12.586 16.261 C 13.682 17.412 15.335 19.332 15.759 20.997 C 16.187 22.678 17.157 22.915 19.454 22.915 C 19.917 22.915 20.291 22.917 20.594 22.918 C 21.846 22.923 21.891 22.923 22.137 22.808 C 22.441 22.665 23.442 21.684 22.138 21.34" transform="matrix(1 0 0 1 0 0)" fill="#FFFFFF" stroke="none" />
  <path d="M 16.748 3.132 C 16.935 3.03 17.048 2.87 17.087 2.657 L 17.087 2.658 C 17.181 2.139 16.734 1.876 16.515 1.837 C 16.512 1.837 16.509 1.835 16.509 1.835 L 16.503 1.835 C 15.655 1.645 12.03 0.936 11.276 1.005 C 10.506 1.074 7.32 2.064 6.534 2.324 C 6.002 2.499 4.13 3.649 3.453 4.077 C 3.423 4.096 3.389 4.109 3.353 4.116 C 3.01 4.176 1.712 4.416 1.082 4.532 L 1 4.547 L 1.657 8.983 L 3.53 8.725 L 3.532 8.725 C 3.551 8.723 3.57 8.721 3.588 8.723 C 3.928 8.745 4.797 8.72 6.807 8.298 C 7.379 8.179 9.636 8.893 10.016 9.034 C 10.128 9.071 10.325 9.087 10.522 9.015 C 10.722 8.941 10.858 8.799 10.927 8.595 C 11.096 8.094 10.692 7.771 10.481 7.699 L 10.478 7.698 L 10.474 7.696 C 10.462 7.691 10.45 7.686 10.438 7.68 C 10.436 7.679 10.434 7.677 10.431 7.676 C 10.429 7.675 10.427 7.674 10.424 7.672 C 10.422 7.672 10.421 7.671 10.418 7.669 C 9.811 7.273 7.875 6.306 7.855 6.297 C 7.745 6.242 7.685 6.121 7.706 5.999 L 7.959 4.581 C 7.975 4.497 8.027 4.424 8.102 4.385 C 9.075 3.866 11.376 2.655 11.752 2.605 C 12.051 2.565 13.37 2.762 15.7 3.138 L 15.9 3.17 C 16.026 3.19 16.141 3.209 16.243 3.224 L 16.25 3.224 C 16.365 3.246 16.563 3.233 16.748 3.132" transform="matrix(1 0 0 1 0 0)" fill="#FFFFFF" stroke="none" />
  <path d="M 11.23 4.049 C 11.455 4.328 11.855 4.825 11.955 5.017 C 11.892 5.129 11.688 5.407 11.219 5.924 C 10.834 6.351 10.472 6.716 10.417 6.763 C 10.354 6.814 10.282 6.864 10.221 6.904 C 9.865 6.703 9.43 6.474 9.044 6.275 C 9.075 6.11 9.153 5.966 9.233 5.882 C 9.239 5.876 9.245 5.869 9.251 5.862 L 9.259 5.853 L 9.736 5.228 C 9.817 5.122 9.811 4.975 9.723 4.875 C 9.658 4.801 9.53 4.654 9.405 4.509 L 9.296 4.384 C 9.868 4.086 10.42 3.804 10.864 3.587 C 10.963 3.716 11.089 3.876 11.23 4.049" transform="matrix(1 0 0 1 0 0)" fill="#FFFFFF" stroke="none" />
  <path d="M 14 16 L 5 16 L 5 15 L 14 15 L 14 16" transform="matrix(1 0 0 1 0 0)" fill="#FFFFFF" stroke="none" />
  <path d="M 9 19 L 18 19 L 18 18 L 9 18 L 9 19" transform="matrix(1 0 0 1 0 0)" fill="#FFFFFF" stroke="none" />
  <path d="M 17 22 L 8 22 L 8 21 L 17 21 L 17 22" transform="matrix(1 0 0 1 0 0)" fill="#FFFFFF" stroke="none" />
</svg>
