<?xml version="1.0" encoding="UTF-8"?>
<!-- Reconstructed from Amplitude.Graphics.Svg.SvgAsset and recolored from static UIMapper.Color metadata for EWShop; not original source SVG. Live UI state/material colors are not included. -->
<svg xmlns="http://www.w3.org/2000/svg" width="24" height="24" viewBox="0 0 24 24">
  <path d="M 9.031 15.45 L 10.41 10.34 L 10.852 8.69 C 10.873 8.61 10.883 8.52 10.873 8.44 C 10.842 8.2 10.661 7.99 10.41 7.92 L 3.606 6.11 C 3.274 6.02 2.932 6.22 2.841 6.55 L 1.02 13.31 C 0.929 13.64 1.13 13.98 1.463 14.07 L 8.266 15.88 C 8.598 15.97 8.94 15.77 9.031 15.44 L 9.031 15.45 M 7.863 9.15 C 7.994 8.66 8.497 8.37 8.991 8.51 C 9.484 8.64 9.765 9.14 9.635 9.63 C 9.504 10.12 9.001 10.41 8.507 10.27 C 8.014 10.14 7.732 9.64 7.863 9.15 M 4.019 12.85 C 3.888 13.34 3.385 13.63 2.892 13.49 C 2.399 13.36 2.117 12.86 2.248 12.37 C 2.378 11.88 2.882 11.59 3.375 11.73 C 3.868 11.86 4.15 12.36 4.019 12.85 M 4.079 9.09 C 3.586 8.96 3.304 8.46 3.435 7.97 C 3.566 7.48 4.069 7.19 4.562 7.33 C 5.055 7.46 5.337 7.96 5.206 8.45 C 5.076 8.94 4.572 9.23 4.079 9.09 M 5.7 11.88 C 5.206 11.75 4.925 11.25 5.055 10.76 C 5.186 10.27 5.689 9.98 6.183 10.12 C 6.676 10.25 6.958 10.75 6.827 11.24 C 6.696 11.73 6.193 12.02 5.7 11.88 M 7.32 14.67 C 6.827 14.54 6.545 14.04 6.676 13.55 C 6.807 13.06 7.31 12.77 7.803 12.91 C 8.296 13.04 8.578 13.54 8.447 14.03 C 8.316 14.52 7.813 14.81 7.32 14.67" transform="matrix(1 0 0 1 0 0)" fill="#FFFFFF" stroke="none" />
  <path d="M 10.853 8.68 L 10.41 10.33 L 15.493 8.98 C 15.825 8.89 16.026 8.55 15.935 8.22 L 14.114 1.46 C 14.023 1.13 13.681 0.93 13.349 1.02 L 6.546 2.83 C 6.213 2.92 6.012 3.26 6.103 3.59 L 7.029 7.01 L 10.42 7.91 C 10.672 7.98 10.843 8.19 10.883 8.43 C 10.893 8.51 10.883 8.59 10.863 8.68 L 10.853 8.68 M 13.59 6.64 C 14.084 6.51 14.587 6.8 14.718 7.28 C 14.848 7.76 14.557 8.27 14.074 8.4 C 13.58 8.53 13.077 8.24 12.946 7.76 C 12.816 7.27 13.107 6.77 13.59 6.64 M 8.448 5.18 C 7.955 5.31 7.451 5.02 7.321 4.54 C 7.19 4.05 7.482 3.55 7.965 3.42 C 8.458 3.29 8.961 3.58 9.092 4.06 C 9.223 4.55 8.931 5.05 8.448 5.18 M 10.128 6.14 C 9.998 5.65 10.289 5.15 10.773 5.02 C 11.266 4.89 11.769 5.18 11.9 5.66 C 12.031 6.14 11.739 6.65 11.256 6.78 C 10.762 6.91 10.259 6.62 10.128 6.14" transform="matrix(1 0 0 1 0 0)" fill="#FFFFFF" stroke="none" />
  <path d="M 22.407 21.63 C 21.229 21.32 20.303 20.99 19.981 20.02 L 19.981 19.99 C 19.639 18.98 18.633 15.93 19.307 15.3 C 19.699 14.67 20.686 13.28 21.501 12.13 C 22.115 11.27 22.618 10.56 22.709 10.41 C 22.9 10.06 22.9 9.83 22.709 9.68 C 22.417 9.51 19.035 7.68 18.673 8.05 C 18.482 8.24 18.371 8.59 18.371 8.59 C 18.059 9.3 17.495 10.45 16.831 11.54 C 16.69 11.78 16.539 12.02 16.388 12.25 C 16.348 12.3 16.318 12.35 16.278 12.4 C 16.167 12.56 16.056 12.73 15.936 12.88 C 15.553 13.38 15.171 13.82 14.798 14.09 C 13.591 14.98 13.118 15.73 13.258 16.42 C 13.258 16.43 13.279 16.45 13.279 16.46 C 13.299 16.55 13.339 16.65 13.389 16.73 C 13.409 16.77 13.43 16.81 13.45 16.85 C 13.53 16.97 13.631 17.11 13.762 17.24 C 13.893 17.38 14.033 17.53 14.174 17.68 L 14.205 17.72 L 14.184 17.72 C 14.778 18.35 15.422 19.12 15.925 19.92 L 15.936 19.92 C 15.936 19.92 15.976 20 16.006 20.04 C 16.086 20.17 16.157 20.3 16.227 20.44 C 16.268 20.51 16.308 20.59 16.338 20.67 C 16.398 20.81 16.449 20.94 16.499 21.08 C 16.519 21.13 16.539 21.19 16.549 21.24 C 16.549 21.24 16.549 21.25 16.549 21.26 C 16.549 21.26 16.58 21.33 16.59 21.36 C 16.982 22.82 17.848 23.02 19.941 23.02 L 20.968 23.02 C 22.105 23.02 22.135 23.02 22.366 22.92 C 22.638 22.8 23.544 21.95 22.366 21.65 L 22.407 21.63" transform="matrix(1 0 0 1 0 0)" fill="#FFFFFF" stroke="none" />
  <path d="M 13.751 17.24 C 13.631 17.12 13.52 16.98 13.439 16.85 C 13.409 16.81 13.399 16.77 13.379 16.73 C 13.339 16.64 13.299 16.55 13.268 16.46 C 13.268 16.44 13.268 16.42 13.268 16.41 C 13.268 16.41 13.268 16.39 13.258 16.39 L 9.686 16.39 L 9.686 17.71 L 14.194 17.71 C 14.194 17.71 14.174 17.69 14.164 17.68 C 14.023 17.53 13.882 17.38 13.751 17.25 L 13.751 17.24" transform="matrix(1 0 0 1 0 0)" fill="#FFFFFF" stroke="none" />
  <path d="M 16.841 11.52 L 13.681 11.52 L 13.681 12.84 L 15.955 12.84 C 16.066 12.69 16.187 12.53 16.297 12.36 C 16.338 12.31 16.368 12.26 16.408 12.21 C 16.559 11.99 16.71 11.75 16.851 11.51 L 16.841 11.52" transform="matrix(1 0 0 1 0 0)" fill="#FFFFFF" stroke="none" />
  <path d="M 16.378 20.67 C 16.338 20.6 16.308 20.52 16.267 20.44 C 16.197 20.31 16.127 20.18 16.046 20.04 C 16.016 20 15.976 19.92 15.976 19.92 C 15.976 19.92 15.976 19.91 15.966 19.9 L 7.019 19.9 L 7.019 21.22 L 16.59 21.22 C 16.59 21.22 16.549 21.13 16.529 21.08 C 16.489 20.94 16.428 20.81 16.368 20.67 L 16.378 20.67" transform="matrix(1 0 0 1 0 0)" fill="#FFFFFF" stroke="none" />
</svg>
