<?xml version="1.0" encoding="UTF-8"?>
<!-- Reconstructed from Amplitude.Graphics.Svg.SvgAsset and recolored from static UIMapper.Color metadata for EWShop; not original source SVG. Live UI state/material colors are not included. -->
<svg xmlns="http://www.w3.org/2000/svg" width="24" height="24" viewBox="0 0 24 24">
  <path d="M 7.783 15 C 8.129 15.399 8.492 15.754 8.842 16.06 C 8.894 16.105 8.948 16.149 9 16.193 L 9 21.546 L 6.818 19.363 L 3.182 23 L 1 20.818 L 4.637 17.182 L 2.454 15 L 7.783 15 M 19.363 17.182 L 23 20.818 L 20.818 23 L 17.182 19.363 L 15 21.546 L 15 16.193 C 15.052 16.149 15.106 16.105 15.158 16.06 C 15.509 15.754 15.872 15.399 16.218 15 L 21.546 15 L 19.363 17.182 M 6.818 4.637 L 9 2.454 L 9 7.1 C 8.855 7.132 8.712 7.172 8.572 7.219 C 7.694 7.516 6.886 8.132 6.418 9 L 2.454 9 L 4.637 6.818 L 1 3.182 L 3.182 1 L 6.818 4.637 M 23 3.182 L 19.363 6.818 L 21.546 9 L 17.586 9 C 17.118 8.13 16.307 7.514 15.428 7.217 C 15.288 7.17 15.146 7.13 15 7.098 L 15 2.454 L 17.182 4.637 L 20.818 1 L 23 3.182 M 15.253 8.218 C 15.277 8.227 15.301 8.237 15.324 8.247 C 15.301 8.237 15.277 8.227 15.253 8.218 M 15.073 8.153 C 15.102 8.163 15.131 8.172 15.159 8.183 C 15.131 8.172 15.102 8.163 15.073 8.153" transform="matrix(1 0 0 1 0 0)" fill="#FFFFFF" stroke="none" />
  <path d="M 17 10.676 C 17 14.591 12 17 12 17 C 12 17 7 14.591 7 10.676 C 7 8.182 10.381 7.045 12 8.973 C 13.619 7.044 17 8.177 17 10.676" transform="matrix(1 0 0 1 0 0)" fill="#FFFFFF" stroke="none" />
</svg>
