<?xml version="1.0" encoding="UTF-8"?>
<!-- Reconstructed from Amplitude.Graphics.Svg.SvgAsset and recolored from static UIMapper.Color metadata for EWShop; not original source SVG. Live UI state/material colors are not included. -->
<svg xmlns="http://www.w3.org/2000/svg" width="24" height="24" viewBox="0 0 24 24">
  <path d="M 14.049 9.973 L 16.885 9.973 L 17.79 12.8 L 17.009 12.8 L 16.885 13.176 L 16.138 12.989 L 14.709 13.176 L 13.834 16.772 L 14.24 18.982 L 14.709 20.054 L 14.24 20.667 L 10.734 21.394 L 8.589 20.667 L 8.424 17.69 L 8.188 17.95 L 6.404 14.501 L 4.679 14.773 L 4.219 14.501 L 4.006 14.607 L 3.9 15.163 L 3.002 15.682 L 3.132 15.907 L 2.801 16.486 L 2.801 16.728 L 3.368 17.455 L 2.742 17.406 L 2.801 18.401 L 1.809 18.764 L 1.337 18.045 L 1.053 17.549 L 1.136 16.19 L 1.136 16.037 L 1.738 14.607 L 1.419 13.698 L 1.809 12.8 L 2.565 12.588 L 3.427 12.989 L 3.9 12.316 L 5.495 11.903 L 6.309 10.237 L 8.53 10.237 L 8.14 9.973 L 7.798 9.28 L 7.42 8.158 L 7.55 7.154 L 7.928 6.528 L 8.53 6.162 L 9.546 5.985 L 10.349 6.28 L 10.928 6.729 L 11.471 8.158 L 11.956 8.856 L 11.672 9.741 L 11.672 10.049 L 11.956 10.049 L 12.05 9.446 L 13.834 9.54 L 14.049 9.973" transform="matrix(1 0 0 1 0 0)" fill="#FFFFFF" stroke="none" />
  <path d="M 16.714 19.147 L 16.54 18.333 L 11.5 18.333 L 15.851 15.111 L 13.373 3.522 L 13.852 2.228 L 19.519 1.438 L 19.688 2.279 L 15.132 3.102 L 14.568 4.079 L 17.91 20.462 L 18.89 20.262 L 15.623 4.251 L 15.766 4.004 L 19.885 3.26 L 23.583 21.68 L 18.788 23.733 L 17.599 23.284 L 17.544 23.029 L 8 23.626 L 16.714 19.147" transform="matrix(1 0 0 1 0 0)" fill="#FFFFFF" stroke="none" />
</svg>
