<?xml version="1.0" encoding="UTF-8"?>
<!-- Reconstructed from Amplitude.Graphics.Svg.SvgAsset and recolored from static UIMapper.Color metadata for EWShop; not original source SVG. Live UI state/material colors are not included. -->
<svg xmlns="http://www.w3.org/2000/svg" width="24" height="24" viewBox="0 0 24 24">
  <path d="M 7.539 7.639 C 7.687 6.416 7.699 6.323 9.35 6.519 C 10.712 6.675 12.677 7.183 13.799 7.984 L 13.842 8.012 C 14.239 8.284 14.769 8.652 14.323 9.109 C 13.624 9.832 11.614 9.745 10.68 9.478 C 11.213 10.691 11.476 11.886 11.365 13.213 L 11.561 13.235 C 11.565 13.141 11.57 13.046 11.617 12.979 C 11.741 12.77 11.9 12.5 12.053 12.218 C 12.415 11.535 12.853 10.742 13.342 10.558 C 14.063 10.272 16.112 10.096 16.866 10.304 C 17.492 10.473 17.264 11.23 17.12 11.71 L 17.117 11.718 L 17.095 11.806 C 16.69 13.2 14.585 15.964 13.482 16.26 C 12.962 16.4 9.026 22.956 9 23 L 8.836 22.18 C 8.94 21.976 9 21.745 9 21.5 L 9 17.5 C 9 16.672 8.328 16 7.5 16 C 6.672 16 6 16.672 6 17.5 L 6 20.884 L 2 21.5 L 7.422 13.328 L 7.239 11.358 C 7.247 10.323 7.311 9.278 7.463 8.256 C 7.474 8.15 7.488 8.05 7.501 7.955 C 7.516 7.848 7.529 7.747 7.537 7.653 L 7.539 7.639" transform="matrix(1 0 0 1 0 0)" fill="#FFFFFF" stroke="none" />
  <path d="M 7.5 17 C 7.776 17 8 17.224 8 17.5 L 8 21.5 C 8 21.776 7.776 22 7.5 22 C 7.224 22 7 21.776 7 21.5 L 7 17.5 C 7 17.224 7.224 17 7.5 17" transform="matrix(1 0 0 1 0 0)" fill="#FFFFFF" stroke="none" />
  <path d="M 21.5 11 C 21.776 11 22 11.224 22 11.5 L 22 15.5 C 22 15.776 21.776 16 21.5 16 C 21.224 16 21 15.776 21 15.5 L 21 11.5 C 21 11.224 21.224 11 21.5 11" transform="matrix(1 0 0 1 0 0)" fill="#FFFFFF" stroke="none" />
  <path d="M 16.247 7.813 C 16.683 6.828 17.305 5.426 18.397 6.443 C 19.127 7.123 18.005 9.003 17.995 9.019 C 17.995 9.019 17.465 9.76 16.744 9.545 C 16.024 9.33 16.005 8.608 16.005 8.604 C 16.005 8.604 16.16 8.026 16.231 7.851 L 16.247 7.813" transform="matrix(1 0 0 1 0 0)" fill="#FFFFFF" stroke="none" />
  <path d="M 15.549 3.985 C 16.055 3.602 17.305 3.952 17.297 4.614 C 17.297 5.09 16.391 6.968 16.005 7.269 C 15.47 7.666 14.438 7.346 14.401 6.635 L 14.394 6.621 C 14.378 6.118 15.162 4.286 15.549 3.985" transform="matrix(1 0 0 1 0 0)" fill="#FFFFFF" stroke="none" />
  <path d="M 13.229 2.397 C 13.667 2.16 14.193 2.152 14.564 2.5 C 15.098 3.016 14.789 3.493 14.481 3.971 C 14.452 4.019 14.422 4.067 14.392 4.114 C 14.32 4.225 14.25 4.335 14.208 4.447 C 14.141 4.593 14.088 4.769 14.029 4.965 C 13.86 5.532 13.657 6.171 13.14 6.194 C 12.55 6.22 12.162 6.01 12.114 5.414 L 12.122 5.428 C 12.073 4.796 12.676 2.696 13.229 2.397" transform="matrix(1 0 0 1 0 0)" fill="#FFFFFF" stroke="none" />
  <path d="M 2.5 1 C 2.776 1 3 1.224 3 1.5 L 3 5.5 C 3 5.776 2.776 6 2.5 6 C 2.224 6 2 5.776 2 5.5 L 2 1.5 C 2 1.224 2.224 1 2.5 1" transform="matrix(1 0 0 1 0 0)" fill="#FFFFFF" stroke="none" />
  <path d="M 10.166 1.515 C 10.644 0.909 12.275 0.78 12.217 1.688 C 12.159 2.593 11.24 5.386 10.5 5 C 9.76 4.614 9.895 4.533 9.761 3.709 C 9.682 3.257 9.882 1.869 10.166 1.515" transform="matrix(1 0 0 1 0 0)" fill="#FFFFFF" stroke="none" />
  <path d="M 4 14.5 C 4 14.776 3.776 15 3.5 15 C 3.224 15 3 14.776 3 14.5 L 3 13.5 C 3 13.224 3.224 13 3.5 13 C 3.776 13 4 13.224 4 13.5 L 4 14.5" transform="matrix(1 0 0 1 0 0)" fill="#FFFFFF" stroke="none" />
  <path d="M 19 20.5 C 19 20.776 18.776 21 18.5 21 C 18.224 21 18 20.776 18 20.5 L 18 18.5 C 18 18.224 18.224 18 18.5 18 C 18.776 18 19 18.224 19 18.5 L 19 20.5" transform="matrix(1 0 0 1 0 0)" fill="#FFFFFF" stroke="none" />
  <path d="M 21 2.5 C 21 2.776 20.776 3 20.5 3 C 20.224 3 20 2.776 20 2.5 L 20 1.5 C 20 1.224 20.224 1 20.5 1 C 20.776 1 21 1.224 21 1.5 L 21 2.5" transform="matrix(1 0 0 1 0 0)" fill="#FFFFFF" stroke="none" />
</svg>
