<?xml version="1.0" encoding="UTF-8"?>
<!-- Reconstructed from Amplitude.Graphics.Svg.SvgAsset and recolored from static UIMapper.Color metadata for EWShop; not original source SVG. Live UI state/material colors are not included. -->
<svg xmlns="http://www.w3.org/2000/svg" width="24" height="24" viewBox="0 0 24 24">
  <path d="M 14.167 7.056 C 14.338 7.103 14.471 7.236 14.518 7.407 L 15.031 9.29 L 15.545 7.407 C 15.591 7.236 15.725 7.103 15.895 7.056 L 17.779 6.543 L 15.895 6.029 C 15.725 5.983 15.591 5.849 15.545 5.679 L 15.031 3.795 L 14.518 5.679 C 14.471 5.849 14.338 5.983 14.167 6.029 L 12.284 6.543 L 14.167 7.056" transform="matrix(1 0 0 1 0 0)" fill="#FFFFFF" stroke="none" />
  <path d="M 23.41 6.896 C 21.725 3.644 17.741 1.759 13.983 2.025 C 10.707 2.257 7.713 4.035 6.03 6.705 L 6 6.828 C 9.812 13.139 19.524 13.153 23.41 6.896 M 13.518 3.197 C 16.062 2.257 18.832 3.949 18.832 6.546 C 18.832 9.713 14.854 11.53 12.353 9.438 C 10.181 7.622 10.83 4.19 13.518 3.197" transform="matrix(1 0 0 1 0 0)" fill="#FFFFFF" stroke="none" />
  <path d="M 6.534 4.389 C 4.522 4.879 2.829 6.228 2.309 8.558 C 2.194 9.086 2.207 9.605 2.22 10.109 C 2.233 10.591 2.245 11.058 2.143 11.506 C 2.063 11.862 1.825 12.136 1.586 12.411 C 1.313 12.725 1.039 13.04 1 13.48 C 0.987 14 1.821 14.54 1.821 14.54 C 2.185 15.516 2.556 16.776 2.688 17.936 C 2.731 18.316 2.962 18.663 3.333 18.757 C 5.238 19.243 7.275 18.553 8.661 17.184 C 8.493 17.708 7.96 18.236 7.477 18.715 C 6.999 19.189 6.57 19.614 6.595 19.937 L 8.326 22.674 L 15.128 19.336 C 15.235 19.194 14.863 18.712 14.421 18.142 C 13.885 17.449 13.246 16.624 13.238 16.111 C 13.226 15.463 13.667 14.54 14.127 13.575 C 14.241 13.335 14.357 13.092 14.468 12.85 C 10.534 12.584 6.719 10.618 4.502 6.947 L 4.54 6.793 C 5.097 5.908 5.77 5.102 6.534 4.389" transform="matrix(1 0 0 1 0 0)" fill="#FFFFFF" stroke="none" />
</svg>
