<?xml version="1.0" encoding="UTF-8"?>
<!-- Reconstructed from Amplitude.Graphics.Svg.SvgAsset and recolored from static UIMapper.Color metadata for EWShop; not original source SVG. Live UI state/material colors are not included. -->
<svg xmlns="http://www.w3.org/2000/svg" width="24" height="24" viewBox="0 0 24 24">
  <path d="M 3 16.744 C 3.302 16.979 3.646 17.209 4 17.407 L 4 21 C 4 21.276 3.776 21.5 3.5 21.5 C 3.224 21.5 3.001 21.276 3 21 L 3 16.744" transform="matrix(1 0 0 1 0 0)" fill="#FFFFFF" stroke="none" />
  <path d="M 19 20 C 19 20.276 18.776 20.5 18.5 20.5 C 18.224 20.5 18.001 20.276 18 20 L 18 17.992 C 18.076 17.99 18.151 17.991 18.223 17.989 L 18.224 17.99 C 18.485 17.982 18.747 17.927 19 17.848 L 19 20" transform="matrix(1 0 0 1 0 0)" fill="#FFFFFF" stroke="none" />
  <path d="M 14.5 4.5 C 14.776 4.501 15 4.724 15 5 L 15 8.16 C 14.667 8.48 14.332 8.795 14 9.107 L 14 5 C 14 4.724 14.224 4.5 14.5 4.5" transform="matrix(1 0 0 1 0 0)" fill="#FFFFFF" stroke="none" />
  <path d="M 5.5 1.5 C 5.776 1.501 6 1.724 6 2 L 6 4.994 C 5.648 4.568 5.313 4.135 5 3.693 L 5 2 C 5 1.724 5.224 1.5 5.5 1.5" transform="matrix(1 0 0 1 0 0)" fill="#FFFFFF" stroke="none" />
  <path d="M 10.5 19.5 C 10.776 19.5 11 19.724 11 20 L 11 21 C 11 21.276 10.776 21.5 10.5 21.5 C 10.224 21.5 10 21.276 10 21 L 10 20 C 10 19.724 10.224 19.5 10.5 19.5" transform="matrix(1 0 0 1 0 0)" fill="#FFFFFF" stroke="none" />
  <path d="M 21.5 18.5 C 21.776 18.5 22 18.724 22 19 L 22 21 L 21.99 21.101 C 21.944 21.328 21.741 21.5 21.5 21.5 C 21.259 21.5 21.057 21.328 21.01 21.101 L 21 21 L 21 19 C 21 18.724 21.224 18.5 21.5 18.5" transform="matrix(1 0 0 1 0 0)" fill="#FFFFFF" stroke="none" />
  <path d="M 19 20 C 19 20.276 18.776 20.5 18.5 20.5 C 18.224 20.5 18 20.276 18 20 L 18 17.991 C 18.076 17.99 18.15 17.991 18.223 17.988 L 18.224 17.989 C 18.484 17.981 18.747 17.926 19 17.848 L 19 20" transform="matrix(1 0 0 1 0 0)" fill="#FFFFFF" stroke="none" />
  <path d="M 2.794 6.616 C 1.756 5.316 2.238 0.849 2.968 2.279 C 4.702 5.691 8.003 8.597 10.607 11.047 L 10.621 11.047 C 10.467 11.553 10.38 12.078 10.38 12.628 C 10.38 14.109 10.996 15.458 12 16.464 C 10.206 16.883 7.534 17.045 5.807 16.989 C 4.394 16.945 1.744 14.565 3.103 14.84 C 4.769 15.177 6.443 15.302 8.05 15.314 C 7.956 15.227 7.875 15.14 7.795 15.046 C 6.182 14.846 4.688 14.627 3.671 14.296 C 2.071 13.771 0.056 10.185 1.495 10.946 C 3.437 11.971 5.425 12.696 7.38 13.259 L 7.421 13.165 C 7.441 13.115 7.467 13.071 7.494 13.027 C 5.459 12.071 3.404 11.103 2.353 10.334 C 1.04 9.378 0.498 5.41 1.569 6.554 C 3.645 8.766 5.935 10.222 8.432 11.734 C 8.519 11.716 8.606 11.696 8.699 11.684 C 8.023 11.109 7.695 10.903 6.932 10.297 C 5.285 8.985 3.624 7.666 2.794 6.616" transform="matrix(1 0 0 1 0 0)" fill="#FFFFFF" stroke="none" />
  <path d="M 21.031 2.279 C 21.761 0.849 22.243 5.316 21.205 6.616 C 20.375 7.666 18.715 8.985 17.068 10.297 C 16.305 10.903 15.977 11.109 15.301 11.684 C 15.394 11.696 15.482 11.716 15.568 11.734 C 18.066 10.222 20.355 8.766 22.431 6.554 C 23.502 5.411 22.959 9.377 21.648 10.334 C 20.596 11.103 18.541 12.071 16.506 13.027 C 16.533 13.071 16.559 13.115 16.579 13.165 C 16.586 13.184 16.6 13.203 16.607 13.228 C 16.607 13.24 16.613 13.253 16.619 13.259 C 18.574 12.696 20.563 11.971 22.504 10.946 C 23.943 10.184 21.928 13.771 20.328 14.296 C 19.311 14.627 17.817 14.846 16.204 15.046 C 16.124 15.139 16.044 15.227 15.95 15.314 C 17.557 15.302 19.231 15.177 20.898 14.84 C 22.256 14.565 19.605 16.945 18.192 16.989 C 16.465 17.045 13.794 16.882 12 16.464 C 13.004 15.458 13.62 14.109 13.62 12.628 C 13.62 12.078 13.533 11.553 13.379 11.047 L 13.393 11.047 C 15.997 8.597 19.297 5.691 21.031 2.279" transform="matrix(1 0 0 1 0 0)" fill="#FFFFFF" stroke="none" />
  <path d="M 10.5 4.5 C 10.776 4.5 11 4.724 11 5 L 11 7 C 11 7.276 10.776 7.5 10.5 7.5 C 10.224 7.5 10 7.276 10 7 L 10 5 C 10 4.724 10.224 4.5 10.5 4.5" transform="matrix(1 0 0 1 0 0)" fill="#FFFFFF" stroke="none" />
</svg>
