<?xml version="1.0" encoding="UTF-8"?>
<!-- Reconstructed from Amplitude.Graphics.Svg.SvgAsset and recolored from static UIMapper.Color metadata for EWShop; not original source SVG. Live UI state/material colors are not included. -->
<svg xmlns="http://www.w3.org/2000/svg" width="24" height="24" viewBox="0 0 24 24">
  <path d="M 19.084 19.385 L 23.001 23 L 21.113 23 L 19.084 21.261 L 17.055 23 L 15.291 23 L 19.084 19.385" transform="matrix(1 0 0 1 0 0)" fill="#FFFFFF" stroke="none" />
  <path d="M 7.817 13.065 L 7.817 9.635 C 7.817 9.409 7.962 9.21 8.176 9.14 L 8.476 9.042 C 9.688 8.646 10.802 7.994 11.743 7.132 C 11.914 6.975 12.177 6.975 12.348 7.132 C 13.288 7.994 14.402 8.646 15.615 9.042 L 15.914 9.14 C 16.128 9.21 16.273 9.409 16.273 9.635 L 16.273 13.065 C 16.273 14.295 15.685 15.45 14.69 16.174 L 12.158 18.015 C 12.091 18.064 12 18.064 11.932 18.015 L 9.4 16.174 C 8.406 15.45 7.817 14.295 7.817 13.065 M 11.562 8.176 C 10.871 8.794 10.059 9.262 9.177 9.551 L 8.943 9.627 C 8.664 9.718 8.475 9.979 8.475 10.273 L 8.475 12.948 C 8.475 13.591 8.664 14.211 9.007 14.736 L 9.404 14.338 C 9.158 13.923 9.023 13.444 9.023 12.948 L 9.023 10.273 C 9.023 10.216 9.059 10.165 9.114 10.148 L 9.347 10.071 C 10.15 9.809 10.899 9.408 11.562 8.89 L 11.562 8.176 M 12.498 8.866 C 13.169 9.396 13.929 9.805 14.744 10.071 L 14.977 10.148 C 15.031 10.165 15.068 10.216 15.068 10.273 L 15.068 12.948 C 15.068 13.543 14.874 14.113 14.526 14.579 L 14.917 14.969 C 15.364 14.399 15.616 13.69 15.616 12.948 L 15.616 10.273 C 15.616 9.979 15.427 9.718 15.147 9.627 L 14.914 9.551 C 14.019 9.258 13.196 8.781 12.498 8.149 L 12.498 8.866 M 14.239 15.615 L 13.847 15.223 L 12.045 16.533 L 10.144 15.15 C 10.1 15.118 10.057 15.085 10.016 15.051 L 9.627 15.439 C 9.69 15.493 9.755 15.544 9.822 15.593 L 11.796 17.029 C 11.945 17.137 12.146 17.137 12.295 17.029 L 14.239 15.615" transform="matrix(1 0 0 1 0 0)" fill="#FFFFFF" stroke="none" />
  <path d="M 1.107 1.106 L 7.825 1.61 L 5.797 3.637 L 10 7.5 C 9.684 8.051 9.137 8.432 8.51 8.538 L 8.468 8.545 C 8.048 8.616 7.657 8.806 7.343 9.093 L 7.129 9.288 L 3.638 5.797 L 1.611 7.824 L 1.107 1.106" transform="matrix(1 0 0 1 0 0)" fill="#FFFFFF" stroke="none" />
  <path d="M 1.108 23.426 L 7.825 22.923 L 5.798 20.895 L 9.501 17 L 8.931 16.62 C 8.321 16.213 7.828 15.655 7.501 15 L 3.638 18.736 L 1.611 16.709 L 1.108 23.426" transform="matrix(1 0 0 1 0 0)" fill="#FFFFFF" stroke="none" />
  <path d="M 16.219 1.61 L 22.936 1.106 L 22.433 7.824 L 20.406 5.797 L 16.914 9.288 C 16.654 8.791 16.176 8.445 15.623 8.352 L 15.451 8.323 C 15.043 8.254 14.663 8.068 14.357 7.788 L 14.043 7.5 L 18.246 3.637 L 16.219 1.61" transform="matrix(1 0 0 1 0 0)" fill="#FFFFFF" stroke="none" />
  <path d="M 15.408 5 L 12.001 2 L 8.473 5 L 10.412 5 L 12.001 3.828 L 13.469 5 L 15.408 5" transform="matrix(1 0 0 1 0 0)" fill="#FFFFFF" stroke="none" />
  <path d="M 15.608 19 L 12.001 22 L 8.565 19 L 10.505 19 L 12.001 20.172 L 13.561 19 L 15.608 19" transform="matrix(1 0 0 1 0 0)" fill="#FFFFFF" stroke="none" />
  <path d="M 2 11.999 L 5 8.5 L 5 10.439 L 3.828 11.999 L 5 13.5 L 5 15.439 L 2 11.999" transform="matrix(1 0 0 1 0 0)" fill="#FFFFFF" stroke="none" />
  <path d="M 22.001 11.999 L 19.001 8.499 L 19.001 10.439 L 20.172 11.999 L 19.001 13.528 L 19.001 15.499 L 22.001 11.999" transform="matrix(1 0 0 1 0 0)" fill="#FFFFFF" stroke="none" />
</svg>
