<?xml version="1.0" encoding="UTF-8"?>
<!-- Reconstructed from Amplitude.Graphics.Svg.SvgAsset and recolored from static UIMapper.Color metadata for EWShop; not original source SVG. Live UI state/material colors are not included. -->
<svg xmlns="http://www.w3.org/2000/svg" width="24" height="24" viewBox="0 0 24 24">
  <path d="M 5.751 5.666 L 1.575 2.973 L 3.458 1 L 5.751 5.666" transform="matrix(1 0 0 1 0 0)" fill="#FFFFFF" stroke="none" />
  <path d="M 4.854 13.629 L 1 15.752 L 2.11 17.15 L 4.854 13.629" transform="matrix(1 0 0 1 0 0)" fill="#FFFFFF" stroke="none" />
  <path d="M 6.533 1.735 L 7.585 7.31 L 4.602 6.527 L 5.849 9.168 L 1.106 8.948 L 5.702 11.637 L 4.113 12.835 L 6.387 12.493 L 4.944 17.627 L 9.125 14.205 L 9.386 14.807 L 10 14.5 L 10.226 12.464 L 9.789 13.332 L 9.323 12.243 L 7.59 13.682 L 8.188 11.523 L 7.246 11.667 L 7.905 11.163 L 6 10.033 L 7.965 10.125 L 7.449 9.015 L 8.685 9.344 L 8.249 7 L 9.637 8.82 L 10.083 7.764 L 9.725 7.704 C 9.096 7.599 8.724 6.939 8.961 6.346 L 9.35 5.375 L 6.533 1.735" transform="matrix(1 0 0 1 0 0)" fill="#FFFFFF" stroke="none" />
  <path d="M 11.931 6.277 L 11.724 7.104 C 11.598 7.61 11.104 7.934 10.589 7.848 L 10.249 7.792 L 10.549 9.015 L 11.744 7.679 L 11.38 9.34 L 12.5 8.5 L 13.342 5.975 L 12.036 6.753 L 11.931 6.277" transform="matrix(1 0 0 1 0 0)" fill="#FFFFFF" stroke="none" />
  <path d="M 10.374 7.262 L 9.561 6.932 C 9.528 6.895 9.738 6.048 9.777 5.95 C 9.832 5.815 9.941 5.677 10.05 5.539 C 10.152 5.41 10.254 5.28 10.314 5.151 L 12.896 2.687 C 12.956 2.66 13.245 2.732 13.424 2.776 C 13.472 2.788 13.512 2.798 13.538 2.803 C 13.838 2.868 14.158 2.954 14.487 3.042 C 15.396 3.285 16.375 3.548 17.201 3.447 C 17.295 3.436 17.443 3.415 17.521 3.368 L 18.771 2.033 C 18.849 1.996 19.659 1.993 19.784 2.01 C 19.904 2.026 20.06 2.222 20.202 2.399 C 20.286 2.505 20.365 2.605 20.429 2.656 L 20.407 3.807 C 20.37 3.902 20.106 4.122 19.996 4.213 C 19.99 4.218 19.985 4.222 19.98 4.226 C 19.82 4.36 19.068 4.934 18.927 4.986 C 18.824 5.024 18.74 4.968 18.656 4.911 C 18.581 4.86 18.505 4.808 18.412 4.823 L 19.807 7.669 L 21.65 7.059 C 21.623 6.92 21.546 6.793 21.47 6.668 C 21.34 6.453 21.213 6.245 21.353 5.993 L 21.819 6.066 L 22.124 5.592 L 23 5.99 C 22.959 6.122 22.926 6.274 22.893 6.428 C 22.844 6.651 22.794 6.877 22.72 7.058 C 22.674 7.171 22.1 8.04 22.024 8.103 L 19.656 9.513 L 17.565 7.678 L 15.442 10.074 L 18.532 12.822 L 18.963 14.064 L 18.929 14.175 L 12.475 18.297 L 12.172 18.784 L 11.782 18.75 C 11.935 17.877 12.325 17.112 12.718 16.342 C 12.781 16.219 12.843 16.096 12.905 15.973 C 12.981 15.966 13.081 15.919 13.181 15.871 C 13.289 15.82 13.396 15.769 13.47 15.772 C 13.535 15.775 13.688 15.858 13.842 15.941 C 14.021 16.038 14.202 16.136 14.244 16.108 L 15.021 14.61 L 16.308 13.724 L 13.593 12.807 L 11.581 16.882 L 5.775 20.184 L 5.35 20.988 C 5.27 21.023 4.996 20.983 5 20.873 C 5.056 20.683 5.085 20.476 5.114 20.27 C 5.141 20.074 5.168 19.879 5.218 19.701 C 5.294 19.431 5.433 19.147 5.572 18.863 C 5.703 18.593 5.836 18.323 5.915 18.062 C 6.029 18.057 6.165 18.004 6.297 17.952 C 6.422 17.903 6.544 17.855 6.643 17.85 C 6.721 17.846 6.859 17.886 6.998 17.927 C 7.175 17.978 7.355 18.031 7.414 17.992 L 8.935 15.932 L 10.372 15.427 L 11.376 10.351 L 12.889 9.124 L 14.399 5.239 L 13.311 4.362 L 11.046 5.704 L 11.306 6.811 L 10.91 6.975 L 10.81 6.73 C 10.757 6.766 10.692 6.869 10.624 6.976 C 10.535 7.116 10.443 7.261 10.374 7.262" transform="matrix(1 0 0 1 0 0)" fill="#FFFFFF" stroke="none" />
  <path d="M 23 23.001 L 19.084 19.386 L 15.291 23.001 L 17.055 23.001 L 19.084 21.262 L 21.112 23.001 L 23 23.001" transform="matrix(1 0 0 1 0 0)" fill="#FFFFFF" stroke="none" />
</svg>
