<?xml version="1.0" encoding="UTF-8"?>
<!-- Reconstructed from Amplitude.Graphics.Svg.SvgAsset and recolored from static UIMapper.Color metadata for EWShop; not original source SVG. Live UI state/material colors are not included. -->
<svg xmlns="http://www.w3.org/2000/svg" width="24" height="24" viewBox="0 0 24 24">
  <path d="M 11.943 6.69 L 6.116 0.979 L 8.624 7.701 C 9.057 7.47 9.506 7.268 9.969 7.097 L 10.594 6.866 C 10.908 6.75 11.24 6.69 11.576 6.69 L 11.943 6.69" transform="matrix(1 0 0 1 0 0)" fill="#FFFFFF" stroke="none" />
  <path d="M 21.215 5 L 22.062 1.983 L 16.09 6.872 L 18.086 7.104 L 20.174 6.481 L 20.336 6.319 L 20.995 5 L 21.215 5" transform="matrix(1 0 0 1 0 0)" fill="#FFFFFF" stroke="none" />
  <path d="M 19.659 18.527 L 23 19 L 20.634 15.343 L 23 14 L 20.865 11.443 L 23.375 9.551 L 19.784 10.091 L 19.907 9.653 L 19.41 9.927 C 19.776 10.278 20.06 10.752 20.136 11.36 C 20.222 12.038 20.032 12.755 19.642 13.496 L 19.519 13.73 L 19.296 13.873 C 18.775 14.206 18.164 14.396 17.412 14.253 C 16.906 14.156 16.386 13.917 15.825 13.563 L 15.694 14.505 L 16.534 16.786 L 17.586 16.786 L 18.088 17.288 C 18.399 17.599 18.518 17.989 18.486 18.361 L 18.62 18.38 L 19 18 L 19.659 18.527" transform="matrix(1 0 0 1 0 0)" fill="#FFFFFF" stroke="none" />
  <path d="M 17.408 19.592 C 17.317 19.611 17.221 19.621 17.122 19.621 L 16.449 19.621 L 15.345 19.498 C 14.749 19.432 14.216 19.09 13.909 18.57 C 13.586 18.023 13.182 17.331 12.857 16.759 C 12.696 16.475 12.55 16.213 12.443 16.012 C 12.391 15.912 12.342 15.817 12.304 15.736 C 12.286 15.697 12.263 15.647 12.243 15.595 C 12.233 15.569 12.219 15.53 12.206 15.482 C 12.199 15.457 12.178 15.381 12.17 15.278 C 12.168 15.266 12.165 15.246 12.161 15.219 C 12.149 15.15 12.132 15.054 12.11 14.932 C 12.066 14.689 12.004 14.363 11.935 14.004 C 11.861 13.622 11.779 13.204 11.702 12.813 L 11.077 12.899 L 10.56 13.319 L 12.136 16.776 C 12.473 17.514 12.316 18.383 11.743 18.956 C 11.516 19.182 11.242 19.345 10.946 19.437 L 12 23 L 14.263 20.246 L 15.563 21.438 L 17.408 19.592" transform="matrix(1 0 0 1 0 0)" fill="#FFFFFF" stroke="none" />
  <path d="M 13.683 3.296 L 15.19 6.768 L 14.609 6.7 C 14.53 6.694 14.452 6.69 14.373 6.69 L 11.947 6.69 L 13.683 3.296" transform="matrix(1 0 0 1 0 0)" fill="#FFFFFF" stroke="none" />
  <path d="M 1.443 6.693 L 7.343 8.502 C 7.051 8.713 6.77 8.938 6.5 9.177 C 6.233 9.413 5.977 9.662 5.734 9.923 L 1.443 6.693" transform="matrix(1 0 0 1 0 0)" fill="#FFFFFF" stroke="none" />
  <path d="M 4.76 11.126 L 2 10.091 L 1 14 L 3.962 12.969 C 3.998 12.542 4.13 12.117 4.366 11.729 C 4.491 11.524 4.622 11.323 4.76 11.126" transform="matrix(1 0 0 1 0 0)" fill="#FFFFFF" stroke="none" />
  <path d="M 4.14 14.227 L 1 16 L 2.104 16.141 L 2.306 15.819 C 2.652 15.269 3.264 14.945 3.913 14.968 L 4.577 14.991 C 4.391 14.759 4.244 14.5 4.14 14.227" transform="matrix(1 0 0 1 0 0)" fill="#FFFFFF" stroke="none" />
  <path d="M 4 23 L 6.749 18.724 L 9.922 19.473 C 10.02 19.496 10.118 19.511 10.216 19.519 L 4 23" transform="matrix(1 0 0 1 0 0)" fill="#FFFFFF" stroke="none" />
  <path d="M 19 1.983 L 16 5.5 L 16 0.979 L 19 1.983" transform="matrix(1 0 0 1 0 0)" fill="#FFFFFF" stroke="none" />
  <path d="M 6.818 7.045 L 1 4 L 4 1.009 L 6.818 7.045" transform="matrix(1 0 0 1 0 0)" fill="#FFFFFF" stroke="none" />
  <path d="M 14.502 7.681 L 14.526 7.697 C 14.475 7.693 14.424 7.69 14.373 7.69 L 11.576 7.69 C 11.359 7.69 11.144 7.729 10.941 7.804 L 10.316 8.035 C 8.198 8.818 6.393 10.318 5.221 12.248 C 4.687 13.128 4.975 14.287 5.867 14.799 L 8.161 16.117 L 3.878 15.967 C 3.585 15.957 3.309 16.103 3.153 16.351 L 2.085 18.051 C 1.861 18.407 2.117 18.871 2.538 18.871 C 2.667 18.871 2.791 18.824 2.889 18.74 L 4.657 17.202 L 10.153 18.5 C 10.471 18.575 10.805 18.48 11.036 18.249 C 11.314 17.971 11.39 17.549 11.227 17.191 L 9.329 13.03 L 10.664 11.946 L 12.5 11.695 C 12.722 12.808 13.167 15.066 13.167 15.2 C 13.167 15.318 14.126 16.97 14.771 18.062 C 14.917 18.309 15.171 18.472 15.456 18.504 L 16.505 18.621 L 17.122 18.621 C 17.448 18.621 17.612 18.226 17.381 17.995 L 17.172 17.786 L 16.476 17.786 C 16.092 17.786 15.749 17.547 15.616 17.187 L 14.669 14.616 L 15.17 11.028 L 16.004 11.278 L 15.837 12.363 C 17.339 13.448 18.062 13.475 18.757 13.03 C 20.092 10.494 17.756 9.999 16.505 9.86 L 16.287 9.347 L 18.674 9.192 L 21.158 7.822 L 21.832 7.784 L 22.524 7.367 L 22.524 7.089 L 22.021 7.186 L 22.524 6 L 21.613 6 L 21.158 6.911 L 20.702 7.367 L 18.173 8.122 L 14.502 7.681" transform="matrix(1 0 0 1 0 0)" fill="#FFFFFF" stroke="none" />
  <path d="M 23.001 23 L 19.084 19.385 L 15.291 23 L 17.055 23 L 19.084 21.261 L 21.113 23 L 23.001 23" transform="matrix(1 0 0 1 0 0)" fill="#FFFFFF" stroke="none" />
</svg>
