<?xml version="1.0" encoding="UTF-8"?>
<!-- Reconstructed from Amplitude.Graphics.Svg.SvgAsset and recolored from static UIMapper.Color metadata for EWShop; not original source SVG. Live UI state/material colors are not included. -->
<svg xmlns="http://www.w3.org/2000/svg" width="24" height="24" viewBox="0 0 24 24">
  <path d="M 16 12 L 12 20 L 9 20 L 9 19.914 L 13.199 17.319 L 13.288 17.034 L 13.332 16.898 L 13.412 16.64 L 12.703 14.656 L 10.855 13.066 L 14.222 12.16 L 14.206 11.53 L 14.133 8.266 L 16 12" transform="matrix(1 0 0 1 0 0)" fill="#FFFFFF" stroke="none" />
  <path d="M 19.5 12 L 18 15 L 14 19 L 17.5 12 L 14.162 5.325 C 14.247 5.261 14.318 5.208 14.363 5.172 C 14.421 5.126 14.56 5.014 14.691 4.897 C 14.757 4.84 14.832 4.77 14.899 4.698 C 14.942 4.653 15.072 4.516 15.147 4.332 L 15.203 4.194 L 15.206 4.045 L 15.207 4 L 15.5 4 L 19.5 12" transform="matrix(1 0 0 1 0 0)" fill="#FFFFFF" stroke="none" />
  <path d="M 12.691 5.383 C 12.614 5.432 12.554 5.468 12.52 5.48 C 12.271 5.569 11.786 4.889 11.535 5.48 L 13.305 7.201 L 13.403 11.548 L 9.179 12.686 L 12.018 15.128 L 12.565 16.656 L 12.522 16.793 L 9 18.97 L 9 16.362 L 9.188 16.238 L 9 16.177 L 9 10.864 C 9.124 11.12 9.31 11.533 9.316 11.548 L 11.763 10.575 L 10.786 8.795 L 9 10.744 L 9 4 L 12 4 L 12.691 5.383" transform="matrix(1 0 0 1 0 0)" fill="#FFFFFF" stroke="none" />
  <path d="M 23 12 L 21.068 15.861 L 19.69 14.62 L 21 12 L 17 4 L 19 4 L 23 12" transform="matrix(1 0 0 1 0 0)" fill="#FFFFFF" stroke="none" />
  <path d="M 14.402 4.029 C 14.351 4.153 13.983 4.445 13.858 4.546 C 13.842 4.559 13.821 4.574 13.796 4.593 L 13.5 4 L 14.403 4 L 14.402 4.029" transform="matrix(1 0 0 1 0 0)" fill="#FFFFFF" stroke="none" />
  <path d="M 23.001 19.385 L 19.084 15.771 L 15.291 19.385 L 17.055 19.385 L 19.084 17.646 L 21.113 19.385 L 23.001 19.385" transform="matrix(1 0 0 1 0 0)" fill="#FFFFFF" stroke="none" />
  <path d="M 23.001 23 L 19.084 19.385 L 15.291 23 L 17.055 23 L 19.084 21.261 L 21.113 23 L 23.001 23" transform="matrix(1 0 0 1 0 0)" fill="#FFFFFF" stroke="none" />
  <path d="M 13.611 1.816 C 13.854 1.849 14.213 2.44 14.43 2.612 L 14.403 4.028 C 14.352 4.152 13.984 4.444 13.859 4.544 C 13.656 4.708 12.701 5.415 12.52 5.48 C 12.271 5.569 11.787 4.887 11.536 5.48 L 13.306 7.201 L 13.404 11.547 L 9.179 12.684 L 12.017 15.126 L 12.565 16.656 L 12.522 16.792 L 4.313 21.868 L 3.927 22.467 L 3.431 22.424 C 3.656 21.178 4.288 20.111 4.86 19.005 C 5.061 18.989 5.398 18.751 5.578 18.758 C 5.757 18.766 6.464 19.238 6.564 19.172 L 7.55 17.328 L 9.188 16.238 L 5.734 15.108 L 3.175 20.124 L 1 21.321 L 1 18.549 L 1.638 18.333 L 2.915 12.084 L 4.838 10.574 L 6.76 5.79 L 5.376 4.712 L 2.495 6.364 L 2.827 7.726 L 2.321 7.929 L 2.195 7.626 C 2.04 7.729 1.795 8.278 1.64 8.282 L 0.606 7.876 C 0.565 7.83 0.829 6.791 0.88 6.667 C 1.015 6.346 1.405 6.013 1.564 5.683 L 4.848 2.65 C 4.946 2.608 5.51 2.76 5.665 2.792 C 7.099 3.093 8.893 3.753 10.325 3.585 C 10.443 3.571 10.632 3.546 10.732 3.488 L 12.321 1.845 C 12.421 1.8 13.451 1.795 13.611 1.816 M 8.963 10.785 C 9.084 11.024 9.314 11.541 9.317 11.547 L 11.764 10.574 L 10.787 8.794 L 8.963 10.785" transform="matrix(1 0 0 1 0 0)" fill="#FFFFFF" stroke="none" />
</svg>
