<?xml version="1.0" encoding="UTF-8"?>
<!-- Reconstructed from Amplitude.Graphics.Svg.SvgAsset and recolored from static UIMapper.Color metadata for EWShop; not original source SVG. Live UI state/material colors are not included. -->
<svg xmlns="http://www.w3.org/2000/svg" width="24" height="24" viewBox="0 0 24 24">
  <path d="M 15.606 3.5 C 15.73 3.489 15.854 3.558 15.904 3.684 C 15.919 3.724 15.92 3.808 15.92 3.811 L 15.842 5.231 C 15.842 5.678 15.83 6.07 15.857 6.612 L 16 18.037 C 16.005 18.361 15.635 18.551 15.372 18.36 L 12.034 14.577 C 11.883 14.467 11.676 14.477 11.537 14.601 L 8.419 18.055 C 8.168 18.278 7.769 18.105 7.761 17.771 L 7.551 7.812 C 7.625 7.491 7.44 5.791 7.497 4.722 C 7.505 4.579 7.618 4.463 7.761 4.449 L 8.691 4.328 C 8.768 4.321 8.845 4.344 8.905 4.394 C 8.964 4.443 9 4.515 9.006 4.592 C 9.007 4.596 9.009 4.619 9.013 4.658 L 9.001 4.658 C 9.181 5.913 9.674 6.674 9.898 6.898 C 10.148 7.177 10.463 7.376 10.793 7.494 C 11.167 7.644 12.048 7.883 12.585 7.346 L 12.585 7.34 C 13.018 7.061 13.353 6.575 13.585 5.887 C 13.889 4.986 13.896 4.075 13.896 4.046 C 13.896 3.899 14.009 3.776 14.156 3.761 L 15.606 3.5" transform="matrix(1 0 0 1 0 0)" fill="#FFFFFF" stroke="none" />
  <path d="M 11.402 15.441 C 11.403 15.294 11.578 15.218 11.686 15.318 L 12.429 16.011 C 12.514 16.091 12.562 16.203 12.563 16.319 L 12.563 22.663 C 12.562 22.879 12.387 23.054 12.171 23.054 L 11.794 23.054 C 11.578 23.054 11.403 22.879 11.402 22.663 L 11.402 15.441" transform="matrix(1 0 0 1 0 0)" fill="#FFFFFF" stroke="none" />
  <path d="M 17.001 21.703 C 15.892 22.29 14.703 22.679 13.5 22.855 L 13.5 20.823 C 13.894 20.724 14.279 20.589 14.647 20.419 L 14.654 20.419 C 14.874 20.316 15.095 20.199 15.3 20.067 L 17.001 21.703" transform="matrix(1 0 0 1 0 0)" fill="#FFFFFF" stroke="none" />
  <path d="M 8.642 20.075 C 8.839 20.199 9.052 20.309 9.265 20.412 C 9.659 20.6 10.074 20.745 10.5 20.845 L 10.5 22.85 C 9.282 22.671 8.083 22.273 6.97 21.674 L 8.642 20.075" transform="matrix(1 0 0 1 0 0)" fill="#FFFFFF" stroke="none" />
  <path d="M 21.525 17.325 C 20.697 18.784 19.56 19.995 18.262 20.919 L 16.422 19.151 C 16.546 19.026 16.664 18.894 16.773 18.755 L 16.766 18.755 C 17.118 18.315 17.397 17.831 17.595 17.325 L 21.525 17.325" transform="matrix(1 0 0 1 0 0)" fill="#FFFFFF" stroke="none" />
  <path d="M 6.323 17.325 C 6.521 17.831 6.8 18.315 7.145 18.748 L 7.152 18.748 C 7.27 18.894 7.387 19.034 7.519 19.166 L 5.715 20.889 C 4.432 19.973 3.317 18.762 2.488 17.325 L 6.323 17.325" transform="matrix(1 0 0 1 0 0)" fill="#FFFFFF" stroke="none" />
  <path d="M 5.958 15.251 L 5.958 15.257 C 5.958 15.477 5.965 15.706 5.987 15.925 L 1.807 15.925 C 1.411 14.95 1.155 13.886 1.045 12.75 L 5.958 15.251" transform="matrix(1 0 0 1 0 0)" fill="#FFFFFF" stroke="none" />
  <path d="M 23 12.382 C 22.912 13.658 22.641 14.839 22.208 15.917 L 17.94 15.917 C 17.97 15.712 17.97 15.506 17.97 15.301 L 23 12.382" transform="matrix(1 0 0 1 0 0)" fill="#FFFFFF" stroke="none" />
  <path d="M 21.899 6.069 C 22.552 7.719 22.905 9.281 23 10.748 L 17.734 13.791 L 21.899 6.069" transform="matrix(1 0 0 1 0 0)" fill="#FFFFFF" stroke="none" />
  <path d="M 6.199 13.784 L 1 11.129 C 1.059 9.552 1.411 7.858 2.122 6.069 L 6.199 13.784" transform="matrix(1 0 0 1 0 0)" fill="#FFFFFF" stroke="none" />
  <path d="M 11.658 1.003 C 12.222 1.041 12.67 1.516 12.672 2.077 C 12.673 2.466 12.467 2.806 12.156 2.998 L 12.171 4.544 L 12.176 4.548 L 13.186 4.449 C 13.188 4.449 13.19 4.452 13.19 4.455 C 13.166 4.746 13.111 5.164 12.995 5.609 L 12.992 5.612 L 12.19 5.689 L 12.186 5.694 L 12.202 7.056 C 11.87 7.183 11.429 7.265 11.056 7.108 L 11.039 5.804 L 11.034 5.8 L 9.852 5.913 C 9.705 5.457 9.643 5.049 9.627 4.791 L 11.021 4.659 L 11.024 4.654 L 11.009 2.998 C 10.699 2.807 10.492 2.47 10.492 2.082 C 10.492 1.459 11.022 0.96 11.658 1.003" transform="matrix(1 0 0 1 0 0)" fill="#FFFFFF" stroke="none" />
  <path d="M 6.847 5.052 C 6.83 5.338 6.92 5.766 6.89 6.204 L 4.922 6.398 C 4.606 6.427 4.326 6.198 4.296 5.884 C 4.267 5.571 4.498 5.294 4.813 5.264 L 6.847 5.052" transform="matrix(1 0 0 1 0 0)" fill="#FFFFFF" stroke="none" />
  <path d="M 18.376 3.707 C 18.691 3.678 18.971 3.907 19.001 4.219 C 19.031 4.532 18.8 4.81 18.484 4.84 L 16.451 5.052 C 16.468 4.766 16.378 4.339 16.408 3.901 L 18.376 3.707" transform="matrix(1 0 0 1 0 0)" fill="#FFFFFF" stroke="none" />
</svg>
