<?xml version="1.0" encoding="UTF-8"?>
<!-- Reconstructed from Amplitude.Graphics.Svg.SvgAsset and recolored from static UIMapper.Color metadata for EWShop; not original source SVG. Live UI state/material colors are not included. -->
<svg xmlns="http://www.w3.org/2000/svg" width="24" height="24" viewBox="0 0 24 24">
  <path d="M 11.5 3.191 C 11.783 2.936 12.217 2.936 12.501 3.191 C 14.058 4.597 15.902 5.659 17.91 6.306 L 18.406 6.466 C 18.76 6.58 19 6.906 19 7.273 L 19 12.868 C 19 14.873 18.026 16.758 16.38 17.937 L 12.187 20.94 C 12.075 21.02 11.925 21.02 11.813 20.94 L 7.62 17.937 C 5.974 16.758 5 14.873 5 12.868 L 5 7.273 C 5 6.906 5.24 6.58 5.594 6.466 L 6.09 6.306 C 8.098 5.659 9.942 4.597 11.5 3.191 M 7.996 16.741 C 8.1 16.828 8.208 16.911 8.319 16.991 L 11.588 19.332 C 11.834 19.508 12.166 19.508 12.412 19.332 L 15.632 17.027 L 14.982 16.386 L 12 18.523 L 8.853 16.268 C 8.78 16.216 8.709 16.162 8.64 16.106 L 7.996 16.741 M 12.75 6.02 C 13.86 6.885 15.119 7.55 16.468 7.985 L 16.854 8.109 C 16.943 8.138 17.005 8.221 17.005 8.314 L 17.005 12.676 C 17.005 13.646 16.683 14.577 16.107 15.336 L 16.754 15.972 C 17.495 15.043 17.912 13.885 17.912 12.676 L 17.912 8.314 C 17.912 7.834 17.598 7.41 17.136 7.261 L 16.75 7.136 C 15.268 6.659 13.905 5.879 12.75 4.85 L 12.75 6.02 M 11.201 4.894 C 10.056 5.902 8.712 6.666 7.252 7.136 L 6.865 7.261 C 6.402 7.41 6.089 7.834 6.089 8.314 L 6.089 12.676 C 6.089 13.725 6.403 14.736 6.97 15.592 L 7.627 14.945 C 7.219 14.268 6.996 13.485 6.996 12.676 L 6.996 8.314 C 6.996 8.221 7.057 8.138 7.146 8.109 L 7.533 7.985 C 8.862 7.557 10.103 6.904 11.201 6.058 L 11.201 4.894" transform="matrix(1 0 0 1 0 0)" fill="#FFFFFF" stroke="none" />
  <path d="M 16.481 3.545 C 17.102 3.87 17.75 4.145 18.42 4.367 L 22.5 1.501 L 20.736 6.084 C 20.904 6.447 21 6.849 21 7.271 L 21 8.671 L 23.5 9.5 L 21 11 L 21 12.867 C 21 13.748 20.854 14.609 20.586 15.425 L 21.484 16.797 L 20.153 16.487 C 19.61 17.589 19.5 17.5 18.712 18.75 L 20 22 L 17.01 19.944 L 13.351 22.565 C 12.595 23.106 11.593 23.143 10.805 22.669 L 9.862 22.002 L 8 23.5 L 8.469 21.004 L 6.456 19.563 C 6.231 19.401 6.016 19.228 5.811 19.047 L 2 20.001 L 4.021 16.82 C 3.384 15.663 3.024 14.356 3.002 13 L 1 11.979 L 3 10.384 L 3 8 L 1 6.096 L 3.07 6.648 C 3.276 5.734 3.925 4.977 4.797 4.629 L 3 1 L 6.951 3.824 C 7.932 3.37 8.852 2.795 9.687 2.112 L 9.5 1 L 10.336 1.562 C 11.377 0.769 12.853 0.816 13.84 1.706 C 14.233 2.061 14.648 2.391 15.081 2.693 L 17 1 L 16.481 3.545 M 13.17 2.449 C 12.514 1.858 11.517 1.851 10.854 2.428 L 10.855 2.429 C 10.847 2.436 10.838 2.442 10.83 2.449 C 10.325 2.89 9.804 3.307 9.246 3.68 L 9.246 3.676 C 8.042 4.481 4.322 5.403 4.033 6.932 C 4.012 7.042 4 7.156 4 7.271 L 4 12.867 C 4 13.122 4.016 13.375 4.043 13.625 C 4.129 14.432 4.349 15.211 4.689 15.935 C 5.209 17.037 6.007 18.008 7.028 18.742 C 7.032 18.745 7.034 18.747 7.038 18.75 L 11.231 21.754 C 11.662 22.062 12.233 22.08 12.681 21.811 L 16.134 19.342 C 17.347 18.475 18.416 17.628 19.148 16.255 C 19.475 15.644 19.712 14.987 19.852 14.303 C 19.92 13.966 19.969 13.623 19.988 13.275 L 20 12.867 L 20 7.272 C 20 7.106 19.976 6.937 19.931 6.776 C 19.765 6.186 19.31 5.707 18.712 5.515 L 18.218 5.354 L 18.216 5.354 L 17.866 5.236 C 17.863 5.235 17.86 5.234 17.856 5.232 C 17.71 5.181 17.565 5.127 17.421 5.07 L 17.423 5.068 C 17.032 4.916 16.649 4.746 16.274 4.56 L 16.274 4.563 C 16.254 4.552 16.234 4.541 16.213 4.53 C 16.106 4.476 16 4.42 15.895 4.363 C 15.454 4.127 15.026 3.866 14.613 3.583 C 14.209 3.306 13.82 3.011 13.445 2.69 L 13.17 2.449" transform="matrix(1 0 0 1 0 0)" fill="#FFFFFF" stroke="none" />
</svg>
