<?xml version="1.0" encoding="UTF-8"?>
<!-- Reconstructed from Amplitude.Graphics.Svg.SvgAsset and recolored from static UIMapper.Color metadata for EWShop; not original source SVG. Live UI state/material colors are not included. -->
<svg xmlns="http://www.w3.org/2000/svg" width="24" height="24" viewBox="0 0 24 24">
  <path d="M 19.079 19.39 L 15.289 23 L 17.049 23 L 19.079 21.26 L 21.109 23 L 22.999 23 L 19.079 19.39" transform="matrix(1 0 0 1 0 0)" fill="#FFFFFF" stroke="none" />
  <path d="M 5.169 13.41 C 5.249 13.64 5.339 13.86 5.439 14.07 L 6.479 13.14 C 6.409 12.99 6.349 12.83 6.289 12.67 L 4.839 8.41 C 4.689 7.98 4.839 7.5 5.209 7.22 L 5.539 6.97 C 6.769 6.05 7.789 4.9 8.559 3.58 L 8.879 4.51 C 8.109 5.69 7.129 6.73 5.999 7.58 L 5.669 7.83 C 5.559 7.91 5.519 8.05 5.559 8.17 L 7.009 12.43 C 7.029 12.49 7.049 12.55 7.079 12.61 L 15.459 5.12 L 15.369 4.85 C 15.329 4.73 15.209 4.64 15.079 4.64 L 14.669 4.64 C 13.239 4.66 11.819 4.42 10.469 3.95 L 10.149 3.02 C 11.579 3.61 13.109 3.91 14.659 3.89 L 15.069 3.89 C 15.519 3.89 15.919 4.16 16.079 4.57 L 17.379 3.41 L 17.239 3 C 17.109 2.63 16.759 2.38 16.369 2.38 L 15.819 2.38 C 13.589 2.41 11.379 1.96 9.339 1.06 C 8.969 0.9 8.529 1.04 8.339 1.4 C 7.269 3.35 5.789 5.05 4.009 6.39 L 3.569 6.72 C 3.259 6.96 3.129 7.37 3.249 7.74 L 5.179 13.41 L 5.169 13.41" transform="matrix(1 0 0 1 0 0)" fill="#FFFFFF" stroke="none" />
  <path d="M 19.161 8.66 L 19.111 8.53 L 17.781 10.01 C 17.881 10.89 17.761 11.79 17.431 12.61 L 16.751 12.27 C 16.931 11.8 17.031 11.31 17.061 10.82 L 12.331 16.09 L 13.891 16.57 L 15.901 13.72 L 16.591 14.06 L 14.461 17.08 C 14.301 17.3 14.021 17.4 13.761 17.32 L 11.791 16.71 L 10.641 17.99 L 14.771 19.27 C 14.911 19.31 15.061 19.27 15.141 19.14 L 18.291 14.68 C 19.531 12.93 19.851 10.69 19.161 8.66" transform="matrix(1 0 0 1 0 0)" fill="#FFFFFF" stroke="none" />
  <path d="M 2.96 19.63 C 2.65 20.13 2.27 20.53 1.91 20.84 C 2.17 21.13 3.07 22.01 3.35 22.28 C 3.65 21.91 4.05 21.52 4.56 21.19 C 4.95 21.26 5.36 21.15 5.66 20.84 L 3.29 18.52 C 2.99 18.82 2.88 19.24 2.96 19.63" transform="matrix(1 0 0 1 0 0)" fill="#FFFFFF" stroke="none" />
  <path d="M 6.371 16.95 C 6.371 16.95 15.901 7.42 18.621 4.92 C 18.871 4.69 18.971 4.78 18.741 5.04 C 16.301 7.81 6.951 17.52 6.951 17.52 C 6.511 18.27 7.261 20.02 7.431 19.83 C 7.431 19.83 21.551 4.42 22.581 1.13 C 22.591 1.09 22.581 1.06 22.551 1.04 C 22.521 1.02 22.491 1 22.461 1.02 C 19.181 2.11 4.191 16.66 4.191 16.66 C 4.101 16.92 5.801 17.4 6.371 16.95" transform="matrix(1 0 0 1 0 0)" fill="#FFFFFF" stroke="none" />
  <path d="M 7.91 21.24 C 7.28 20.83 5.9 19.42 6.27 17.63 C 4.48 18.03 3.19 16.84 2.77 16.22 C 2.89 15.89 2.82 15.51 2.55 15.25 C 2.25 14.96 1.79 14.91 1.45 15.12 C 1.36 15.21 1.26 15.29 1.17 15.38 C 0.92 15.74 0.95 16.24 1.28 16.55 C 1.57 16.83 1.99 16.88 2.32 16.71 L 7.42 21.7 C 7.26 22.04 7.32 22.46 7.6 22.74 C 7.93 23.06 8.43 23.08 8.78 22.82 C 8.87 22.72 8.95 22.62 9.04 22.52 C 9.23 22.17 9.18 21.73 8.88 21.43 C 8.62 21.17 8.23 21.11 7.91 21.23 L 7.91 21.24" transform="matrix(1 0 0 1 0 0)" fill="#FFFFFF" stroke="none" />
</svg>
