<?xml version="1.0" encoding="UTF-8"?>
<!-- Reconstructed from Amplitude.Graphics.Svg.SvgAsset and recolored from static UIMapper.Color metadata for EWShop; not original source SVG. Live UI state/material colors are not included. -->
<svg xmlns="http://www.w3.org/2000/svg" width="24" height="24" viewBox="0 0 24 24">
  <path d="M 11.573 5.712 C 11.815 5.504 12.185 5.504 12.427 5.712 C 13.754 6.859 15.327 7.726 17.039 8.254 L 17.462 8.385 C 17.764 8.478 17.969 8.743 17.969 9.043 L 17.969 13.609 C 17.969 15.246 17.138 16.784 15.734 17.747 L 12.159 20.198 C 12.064 20.263 11.936 20.263 11.841 20.198 L 8.266 17.747 C 6.862 16.784 6.031 15.246 6.031 13.609 L 6.031 9.043 C 6.031 8.743 6.236 8.478 6.538 8.385 L 6.961 8.254 C 8.673 7.726 10.246 6.859 11.573 5.712 M 8.586 16.771 C 8.675 16.842 8.766 16.91 8.861 16.975 L 11.648 18.886 C 11.858 19.03 12.142 19.029 12.352 18.886 L 15.097 17.004 L 14.543 16.482 L 12 18.226 L 9.316 16.385 C 9.254 16.342 9.194 16.299 9.135 16.253 L 8.586 16.771 M 12.64 8.021 C 13.586 8.726 14.659 9.269 15.81 9.624 L 16.139 9.726 C 16.215 9.749 16.267 9.817 16.268 9.893 L 16.268 13.453 C 16.268 14.245 15.993 15.005 15.502 15.624 L 16.054 16.144 C 16.686 15.385 17.041 14.44 17.041 13.453 L 17.041 9.893 C 17.041 9.501 16.773 9.155 16.379 9.033 L 16.05 8.932 C 14.787 8.542 13.625 7.906 12.64 7.065 L 12.64 8.021 M 11.318 7.102 C 10.343 7.924 9.196 8.548 7.951 8.932 L 7.621 9.033 C 7.227 9.155 6.96 9.501 6.96 9.893 L 6.96 13.453 C 6.96 14.31 7.227 15.134 7.711 15.833 L 8.271 15.305 C 7.923 14.752 7.733 14.114 7.733 13.453 L 7.733 9.893 C 7.734 9.817 7.785 9.749 7.861 9.726 L 8.191 9.624 C 9.325 9.275 10.383 8.742 11.318 8.052 L 11.318 7.102" transform="matrix(1 0 0 1 0 0)" fill="#FFFFFF" stroke="none" />
  <path d="M 14.253 22.034 L 13.419 22.586 C 12.94 22.902 12.519 23.148 12 23.379 L 10.581 22.586 L 9.747 22.034 L 10.299 21.199 L 11.787 22.184 C 11.914 22.268 12.086 22.268 12.213 22.184 L 13.7 21.199 L 14.253 22.034" transform="matrix(1 0 0 1 0 0)" fill="#FFFFFF" stroke="none" />
  <path d="M 5.587 17.783 C 5.99 18.243 6.46 18.66 6.995 19.014 L 8.482 19.997 L 7.931 20.832 L 6.443 19.848 C 6.234 19.709 6.032 19.563 5.84 19.408 L 5.65 19.251 L 4.889 18.603 L 5.587 17.783" transform="matrix(1 0 0 1 0 0)" fill="#FFFFFF" stroke="none" />
  <path d="M 19.111 18.603 L 18.35 19.251 C 18.1 19.464 17.836 19.663 17.558 19.848 L 16.069 20.832 L 15.517 19.997 L 17.005 19.014 C 17.54 18.66 18.009 18.243 18.412 17.783 L 19.111 18.603" transform="matrix(1 0 0 1 0 0)" fill="#FFFFFF" stroke="none" />
  <path d="M 4 13.663 L 4.013 14.058 C 4.045 14.553 4.14 15.039 4.29 15.508 L 3.217 15.665 L 3.073 14.675 L 3.041 14.424 C 3.023 14.256 3.011 14.088 3.005 13.918 L 3 13.663 L 3 11.857 L 4 11.857 L 4 13.663" transform="matrix(1 0 0 1 0 0)" fill="#FFFFFF" stroke="none" />
  <path d="M 21 13.663 C 21 14.004 20.975 14.342 20.927 14.675 L 20.783 15.665 L 19.709 15.508 C 19.859 15.039 19.955 14.553 19.987 14.058 L 20 13.663 L 20 11.857 L 21 11.857 L 21 13.663" transform="matrix(1 0 0 1 0 0)" fill="#FFFFFF" stroke="none" />
  <path d="M 18.903 2.326 C 18.924 2.221 19.076 2.221 19.097 2.326 L 19.706 5.464 C 19.714 5.503 19.744 5.533 19.783 5.541 L 22.921 6.15 C 23.027 6.171 23.027 6.323 22.921 6.344 L 19.783 6.953 C 19.744 6.961 19.714 6.991 19.706 7.03 L 19.097 10.168 C 19.076 10.274 18.924 10.274 18.903 10.168 L 18.294 7.03 C 18.286 6.991 18.256 6.961 18.217 6.953 L 15.079 6.344 C 14.974 6.323 14.974 6.171 15.079 6.15 L 18.217 5.541 C 18.256 5.533 18.286 5.503 18.294 5.464 L 18.903 2.326" transform="matrix(1 0 0 1 0 0)" fill="#FFFFFF" stroke="none" />
  <path d="M 7.092 6.074 C 6.492 6.326 5.877 6.549 5.246 6.736 L 4.68 6.906 C 4.275 7.027 4 7.37 4 7.757 L 4 9.563 L 3 9.563 L 3 7.757 L 3.009 7.579 C 3.015 7.521 3.023 7.462 3.034 7.405 L 3.212 6.511 L 3.302 6.438 C 4.385 5.925 5.57 5.587 6.767 5.16 L 7.092 6.074" transform="matrix(1 0 0 1 0 0)" fill="#FFFFFF" stroke="none" />
  <path d="M 12.028 2 C 13.022 2.536 13.816 3.16 14.727 3.834 L 14.149 4.612 C 13.6 4.254 13.073 3.867 12.572 3.449 C 12.249 3.18 11.751 3.18 11.428 3.449 C 10.927 3.867 10.399 4.254 9.85 4.612 L 9.273 3.834 C 10.178 3.165 10.982 2.534 11.972 2 L 12.028 2" transform="matrix(1 0 0 1 0 0)" fill="#FFFFFF" stroke="none" />
</svg>
