<?xml version="1.0" encoding="UTF-8"?>
<!-- Reconstructed from Amplitude.Graphics.Svg.SvgAsset and recolored from static UIMapper.Color metadata for EWShop; not original source SVG. Live UI state/material colors are not included. -->
<svg xmlns="http://www.w3.org/2000/svg" width="24" height="24" viewBox="0 0 24 24">
  <path d="M 19 10.368 L 19 11.211 L 23 15.421 L 23 17.106 L 19 13.015 L 19 14.699 L 21.983 17.947 L 22 23 L 19 23 L 19 20.044 C 19 19.379 18.611 18.789 18.199 18.352 C 17.779 17.931 16.791 17.526 16 17.526 C 15.177 17.526 14.229 17.931 13.801 18.352 C 13.389 18.789 13 19.387 13 20.044 L 13 23 L 10 23 L 10 17.947 L 13.006 14.699 L 13.006 13.015 L 9.543 16.521 L 9 15.974 L 9 15.609 L 16.757 7.85 L 19 10.368 M 16.099 11.093 C 15.02 11.093 14.131 11.994 14.131 13.097 C 14.131 14.2 15.02 15.093 16.099 15.093 C 17.178 15.093 18.051 14.208 18.051 13.097 C 18.051 11.985 17.177 11.093 16.099 11.093" transform="matrix(1 0 0 1 0 0)" fill="#FFFFFF" stroke="none" />
  <path d="M 18.948 4.244 L 7.406 15.791 L 8.893 17.283 L 7.52 18.657 L 5.118 16.254 L 2.373 19 L 1 17.627 L 3.745 14.881 L 1.343 12.478 L 2.716 11.105 L 4.327 12.711 L 15.797 1.237 L 19 1 L 18.948 4.244 M 5.336 13.655 L 6.454 14.774 L 17.522 3.703 L 17.463 2.644 L 16.403 2.584 L 5.336 13.655" transform="matrix(1 0 0 1 0 0)" fill="#FFFFFF" stroke="none" />
  <path d="M 8.133 5.166 C 8.91 5.166 9.662 5.274 10.373 5.476 L 8.974 6.839 C 8.247 6.629 7.477 6.517 6.681 6.517 C 4.92 6.517 3.291 7.067 1.965 8 C 3.431 6.269 5.649 5.166 8.133 5.166" transform="matrix(1 0 0 1 0 0)" fill="#FFFFFF" stroke="none" />
  <path d="M 9.481 1 C 11.092 1 12.622 1.337 14 1.943 L 12.07 3.823 C 10.673 3.203 9.119 2.857 7.483 2.857 C 5.063 2.857 2.823 3.613 1 4.896 C 3.016 2.517 6.067 1 9.481 1" transform="matrix(1 0 0 1 0 0)" fill="#FFFFFF" stroke="none" />
</svg>
