<?xml version="1.0" encoding="UTF-8"?>
<!-- Reconstructed from Amplitude.Graphics.Svg.SvgAsset and recolored from static UIMapper.Color metadata for EWShop; not original source SVG. Live UI state/material colors are not included. -->
<svg xmlns="http://www.w3.org/2000/svg" width="24" height="24" viewBox="0 0 24 24">
  <path d="M 13.272 11.499 L 13.462 9.815 L 5.584 0 L 3.287 0 L 11.879 11.077 L 13.272 11.499" transform="matrix(1 0 0 1 0 0)" fill="#FFFFFF" stroke="none" />
  <path d="M 10.868 24 L 3.106 16.788 L 3.974 19.028 L 9.15 24 L 10.868 24" transform="matrix(1 0 0 1 0 0)" fill="#FFFFFF" stroke="none" />
  <path d="M 20.622 12.751 L 22.895 23.9 L 13.249 18.139 C 15.262 16.598 13.092 13.438 11.755 12.051 L 13.908 13.021 L 19.932 19.504 L 14.095 10.516 L 14.801 8.95 C 16.146 11.817 19.242 12.679 20.622 12.751" transform="matrix(1 0 0 1 0 0)" fill="#FFFFFF" stroke="none" />
  <path d="M 8.241 18.473 L 7.826 20.463 C 7.806 20.559 7.686 20.591 7.621 20.518 L 4.548 17.026 C 4.443 16.908 4.391 16.753 4.401 16.596 L 4.552 14.228 C 4.558 14.123 4.689 14.078 4.759 14.157 L 6.605 16.255 L 6.559 16.98 L 7.284 17.026 L 8.106 17.959 C 8.229 18.1 8.279 18.29 8.241 18.473" transform="matrix(1 0 0 1 0 0)" fill="#FFFFFF" stroke="none" />
  <path d="M 6.496 22.219 L 4.491 22.56 C 4.307 22.591 4.119 22.534 3.983 22.405 L 3.081 21.55 L 4.131 21.172 L 2.336 20.843 L 0.308 18.92 C 0.231 18.847 0.281 18.718 0.387 18.715 L 2.758 18.652 C 2.915 18.648 3.068 18.707 3.182 18.815 L 6.557 22.016 C 6.628 22.083 6.592 22.203 6.496 22.219" transform="matrix(1 0 0 1 0 0)" fill="#FFFFFF" stroke="none" />
  <path d="M 2.706 6.925 L 2.755 6.126 L 0 3.031 L 0 4.392 L 2.038 6.759 L 2.706 6.925" transform="matrix(1 0 0 1 0 0)" fill="#FFFFFF" stroke="none" />
  <path d="M 24 11.033 L 17.117 2.458 L 17.591 4.515 L 24 12.777 L 24 11.033" transform="matrix(1 0 0 1 0 0)" fill="#FFFFFF" stroke="none" />
  <path d="M 6.206 7.339 L 7.549 12.549 L 2.855 10.061 C 3.768 9.285 2.668 7.845 2.003 7.222 L 3.043 7.629 L 6.044 10.544 L 3.071 6.441 L 3.366 5.685 C 4.07 7.006 5.553 7.338 6.206 7.339" transform="matrix(1 0 0 1 0 0)" fill="#FFFFFF" stroke="none" />
  <path d="M 21.332 4.552 L 20.732 6.235 C 20.703 6.316 20.595 6.329 20.549 6.257 L 18.329 2.841 C 18.253 2.725 18.227 2.584 18.255 2.448 L 18.673 0.403 C 18.692 0.312 18.81 0.289 18.861 0.367 L 20.195 2.42 L 20.066 3.045 L 20.685 3.174 L 21.278 4.087 C 21.368 4.225 21.388 4.397 21.332 4.552" transform="matrix(1 0 0 1 0 0)" fill="#FFFFFF" stroke="none" />
  <path d="M 19.372 7.603 L 17.605 7.656 C 17.442 7.661 17.287 7.588 17.186 7.459 L 16.514 6.604 L 17.464 6.402 L 15.958 5.897 L 14.447 3.975 C 14.39 3.902 14.448 3.795 14.54 3.806 L 16.589 4.04 C 16.725 4.055 16.85 4.125 16.935 4.233 L 19.45 7.434 C 19.503 7.501 19.457 7.601 19.372 7.603" transform="matrix(1 0 0 1 0 0)" fill="#FFFFFF" stroke="none" />
</svg>
