<?xml version="1.0" encoding="UTF-8"?>
<!-- Reconstructed from Amplitude.Graphics.Svg.SvgAsset and recolored from static UIMapper.Color metadata for EWShop; not original source SVG. Live UI state/material colors are not included. -->
<svg xmlns="http://www.w3.org/2000/svg" width="24" height="24" viewBox="0 0 24 24">
  <path d="M 18.803 0.469 C 20.036 0.65 22.825 1.957 23.333 5.045 C 22.786 7.352 17.851 8.481 14.027 6.56 C 13.725 6.408 13.69 6.001 13.946 5.78 L 15.729 4.233 L 18.803 0.469" transform="matrix(1 0 0 1 0 0)" fill="#FFFFFF" stroke="none" />
  <path d="M 3.903 12.701 C 6.019 12.071 7.496 8.999 7.993 7.442 C 6.51 7.22 4.355 8.338 3 9.224 C 2.525 9.535 2.222 10.039 2.122 10.598 L 1.062 16.544 C 1.011 16.83 1.244 17.091 1.525 17.021 C 3.301 16.581 3.602 14.591 3.499 13.264 C 3.479 13.009 3.657 12.775 3.903 12.701" transform="matrix(1 0 0 1 0 0)" fill="#FFFFFF" stroke="none" />
  <path d="M 11.962 12.187 L 12.923 16.299 C 12.967 16.487 12.908 16.685 12.768 16.819 L 12.75 16.836 C 12.48 17.093 12.114 17.224 11.741 17.195 C 11.528 17.178 11.345 17.033 11.282 16.828 L 10.019 12.774 C 9.932 12.497 10.005 12.196 10.209 11.989 L 10.228 11.97 C 10.527 11.665 10.961 11.533 11.379 11.619 C 11.667 11.679 11.895 11.901 11.962 12.187" transform="matrix(1 0 0 1 0 0)" fill="#FFFFFF" stroke="none" />
  <path d="M 9.467 14.038 L 11.019 18.313 C 11.135 18.635 11.016 18.994 10.731 19.182 L 10.65 19.235 C 10.346 19.436 9.988 19.542 9.624 19.54 L 9.268 19.538 C 9.093 19.537 8.929 19.474 8.801 19.368 L 8.971 19.788 C 9.079 20.054 9.022 20.359 8.824 20.568 L 8.764 20.631 C 8.385 21.033 7.831 21.221 7.285 21.133 C 7.207 21.12 7.133 21.095 7.066 21.058 C 7.058 21.087 7.048 21.116 7.035 21.144 L 6.998 21.226 C 6.831 21.6 6.507 21.881 6.114 21.996 C 5.85 22.073 5.569 21.947 5.452 21.698 L 3.739 18.067 C 3.692 17.967 3.705 17.849 3.774 17.762 L 3.797 17.733 C 4.021 17.448 4.349 17.264 4.709 17.221 C 4.814 17.208 4.916 17.257 4.973 17.346 L 6.591 19.909 L 5.541 14.844 C 5.523 14.759 5.554 14.671 5.619 14.615 C 5.874 14.398 6.208 14.298 6.54 14.34 L 6.616 14.35 C 6.714 14.362 6.797 14.426 6.834 14.517 L 8.418 18.424 L 7.393 14.293 C 7.314 13.975 7.459 13.644 7.747 13.488 C 7.996 13.352 8.285 13.309 8.563 13.366 L 8.729 13.4 C 9.069 13.47 9.349 13.711 9.467 14.038" transform="matrix(1 0 0 1 0 0)" fill="#FFFFFF" stroke="none" />
  <path d="M 14.914 3.937 L 13.259 3.753 C 12.577 3.677 11.898 3.917 11.415 4.404 L 9.082 6.759 L 8.797 7.651 C 8.526 8.499 7.992 9.75 7.231 10.877 C 6.542 11.898 5.581 12.945 4.353 13.384 C 4.384 14.087 4.313 14.945 4.005 15.729 C 3.635 16.668 2.9 17.538 1.614 17.807 C 0.714 17.995 0.129 17.165 0.255 16.457 L 0.27 16.374 L 0.089 16.5 L 0.089 20.5 C 0.089 21.88 1.208 23 2.589 23 L 4.5 21.522 L 3.016 18.375 C 2.836 17.994 2.887 17.543 3.148 17.212 L 3.171 17.182 C 3.53 16.726 4.055 16.431 4.632 16.362 C 4.775 16.345 4.917 16.356 5.052 16.393 L 4.756 14.969 C 4.678 14.59 4.812 14.199 5.106 13.948 C 5.536 13.58 6.102 13.411 6.664 13.482 L 6.688 13.485 C 6.82 13.169 7.056 12.897 7.373 12.724 C 7.793 12.495 8.28 12.422 8.749 12.518 L 8.915 12.553 C 9.008 12.572 9.099 12.598 9.186 12.631 C 9.148 12.17 9.31 11.708 9.643 11.37 L 9.662 11.351 C 10.157 10.848 10.873 10.63 11.565 10.772 C 12.168 10.896 12.643 11.359 12.783 11.958 L 13.736 16.036 L 18.388 16.192 C 18.453 16.194 18.516 16.168 18.56 16.12 L 18.884 15.772 C 19.007 15.64 19.039 15.446 18.964 15.281 L 18.912 15.166 C 18.763 14.836 18.826 14.449 19.073 14.184 L 19.241 14.004 C 19.255 13.988 19.272 13.975 19.29 13.964 L 19.772 13.677 C 19.92 13.589 20.004 13.424 19.99 13.253 L 19.94 12.661 C 19.938 12.647 19.939 12.632 19.94 12.617 L 19.968 12.367 C 20.009 12.003 20.266 11.7 20.619 11.602 L 20.648 11.594 C 20.824 11.544 20.953 11.393 20.973 11.211 L 21.106 10.016 C 21.147 9.652 21.404 9.349 21.757 9.25 L 21.892 9.212 C 22.011 9.179 22.11 9.099 22.168 8.991 L 22.452 8.455 C 22.494 8.376 22.485 8.28 22.43 8.21 L 21.876 7.51 C 21.314 7.771 20.679 7.962 20.009 8.082 C 18.06 8.432 15.676 8.2 13.598 7.118 C 13.14 6.879 12.949 6.417 13.005 5.981 L 12.936 5.947 L 13.027 5.86 C 13.081 5.634 13.203 5.421 13.39 5.259 L 14.914 3.937" transform="matrix(1 0 0 1 0 0)" fill="#FFFFFF" stroke="none" />
</svg>
