<?xml version="1.0" encoding="UTF-8"?>
<!-- Reconstructed from Amplitude.Graphics.Svg.SvgAsset and recolored from static UIMapper.Color metadata for EWShop; not original source SVG. Live UI state/material colors are not included. -->
<svg xmlns="http://www.w3.org/2000/svg" width="24" height="24" viewBox="0 0 24 24">
  <path d="M 22.919 19.159 C 22.234 20.62 21.365 21.441 19.972 21.299 C 19.614 21.297 19.23 21.263 18.822 21.198 C 18.23 21.193 17.624 21.082 17.066 20.893 C 16.534 21.445 15.824 21.898 14.955 22.26 C 13.93 22.687 12.77 22.93 11.486 22.999 L 11.472 23 L 11.355 23 C 9.934 23 8.693 22.793 7.651 22.359 C 6.91 22.059 6.302 21.646 5.843 21.119 C 4.401 21.714 2.929 21.341 1.956 20.278 C 2.448 20.582 3.086 20.682 3.782 20.62 C 4.476 20.558 5.186 20.337 5.772 20.053 L 6.178 19.855 L 6.43 20.223 C 6.775 20.725 7.304 21.135 8.053 21.438 L 8.058 21.44 C 8.938 21.807 10.032 22 11.355 22 L 11.443 22 C 12.623 21.935 13.656 21.712 14.548 21.341 C 15.455 20.963 16.095 20.508 16.507 19.993 L 16.75 19.688 L 17.116 19.841 C 17.662 20.068 18.284 20.2 18.868 20.2 L 18.911 20.2 L 18.954 20.207 C 19.343 20.27 19.692 20.3 20.001 20.3 L 20.029 20.3 L 20.058 20.303 C 21.108 20.416 22.052 20.061 22.919 19.159" transform="matrix(1 0 0 1 0 0)" fill="#FFFFFF" stroke="none" />
  <path d="M 10.755 3.379 C 11.751 2.902 12.787 2.878 13.822 3.287 L 14.029 3.374 L 14.041 3.379 L 14.052 3.385 C 15.03 3.885 15.671 4.653 15.938 5.668 C 16.173 6.513 16.044 7.361 15.606 8.195 C 15.954 8.443 16.237 8.689 16.441 8.933 L 16.45 8.944 L 16.458 8.956 C 16.808 9.425 17.082 10.192 17.312 11.178 L 17.434 11.625 C 17.538 11.986 17.623 12.224 17.685 12.355 C 18.035 12.791 18.325 13.123 18.556 13.357 C 18.676 13.478 18.774 13.567 18.852 13.629 C 18.89 13.659 18.921 13.68 18.944 13.694 L 18.974 13.711 L 19.018 13.727 C 19.038 13.73 19.068 13.736 19.11 13.74 C 19.244 13.752 19.447 13.759 19.727 13.759 L 19.747 13.759 L 19.766 13.76 C 20.513 13.815 21.135 13.928 21.533 14.156 C 21.877 14.354 22.16 14.609 22.33 14.935 C 22.351 14.976 22.369 15.005 22.383 15.025 C 22.396 15.043 22.404 15.053 22.404 15.053 C 22.676 15.313 22.856 15.63 22.946 15.989 L 22.979 16.146 L 22.983 16.174 C 23.048 16.736 22.929 17.251 22.6 17.682 C 22.521 17.98 22.388 18.256 22.195 18.503 L 22.181 18.52 L 22.165 18.537 C 21.858 18.864 21.5 19.103 21.089 19.216 C 20.734 19.313 20.369 19.307 20.005 19.218 C 19.716 19.302 19.418 19.286 19.129 19.193 L 18.842 19.193 L 18.814 19.19 C 18.281 19.134 17.829 19.045 17.481 18.912 L 17.474 18.909 C 17.052 18.741 16.652 18.549 16.269 18.34 C 16.202 18.64 16.075 18.925 15.883 19.187 C 15.507 19.702 14.919 20.093 14.18 20.388 L 14.179 20.387 C 13.369 20.742 12.424 20.942 11.355 20.999 L 11.341 21 L 11.327 21 C 10.202 21 9.243 20.859 8.473 20.552 L 8.466 20.549 L 8.458 20.546 C 7.732 20.23 7.182 19.742 6.838 19.083 C 6.785 18.981 6.742 18.876 6.708 18.768 C 6.565 18.803 6.418 18.834 6.266 18.858 C 5.992 18.902 5.556 19.044 4.937 19.313 L 4.894 19.332 L 4.849 19.343 C 4.632 19.395 4.503 19.439 4.439 19.47 L 4.331 19.521 L 4.109 19.521 C 3.519 19.685 2.945 19.688 2.454 19.414 C 1.944 19.129 1.645 18.612 1.484 17.995 L 1.485 17.994 C 1.296 17.42 1.352 16.847 1.627 16.3 C 1.524 15.786 1.606 15.288 1.88 14.829 C 2.175 14.335 2.624 14.011 3.194 13.865 L 3.45 13.783 C 3.897 13.64 4.354 13.64 4.801 13.783 C 4.923 13.822 5.002 13.834 5.046 13.838 C 5.82 13.342 6.309 12.744 6.552 12.045 L 6.564 12.011 L 6.581 11.979 C 6.581 11.979 6.584 11.973 6.587 11.965 C 6.592 11.954 6.598 11.94 6.604 11.922 C 6.618 11.884 6.635 11.835 6.655 11.772 C 6.693 11.649 6.739 11.485 6.793 11.279 C 6.91 10.75 7.029 10.3 7.151 9.936 C 7.27 9.579 7.402 9.273 7.557 9.05 L 7.569 9.033 L 7.583 9.015 C 7.794 8.762 8.074 8.523 8.409 8.295 C 8.226 7.509 8.381 6.627 8.795 5.685 C 9.276 4.59 9.914 3.782 10.755 3.379 M 13.585 4.277 C 12.751 3.904 11.975 3.911 11.212 4.277 C 10.682 4.531 10.176 5.092 9.742 6.078 C 9.313 7.055 9.275 7.786 9.492 8.328 L 9.648 8.716 L 9.282 8.935 C 8.864 9.186 8.577 9.419 8.397 9.63 C 8.325 9.74 8.233 9.936 8.13 10.245 C 8.023 10.565 7.913 10.978 7.801 11.488 L 7.799 11.498 L 7.796 11.507 C 7.699 11.878 7.608 12.181 7.528 12.364 L 7.529 12.365 C 7.205 13.297 6.561 14.058 5.64 14.654 C 5.46 14.8 5.245 14.841 5.068 14.841 C 4.877 14.841 4.676 14.796 4.479 14.733 C 4.241 14.657 4.01 14.657 3.772 14.733 L 3.516 14.815 L 3.496 14.821 L 3.477 14.826 C 3.151 14.904 2.927 15.069 2.771 15.33 C 2.612 15.598 2.572 15.874 2.654 16.188 L 2.669 16.249 L 2.669 16.524 L 2.602 16.639 C 2.409 16.972 2.361 17.279 2.432 17.582 L 2.47 17.712 L 2.477 17.73 L 2.482 17.749 C 2.606 18.227 2.793 18.449 2.968 18.547 C 3.141 18.643 3.42 18.685 3.887 18.544 L 3.961 18.521 L 4.105 18.521 C 4.235 18.47 4.387 18.427 4.553 18.386 C 5.174 18.117 5.696 17.935 6.099 17.871 C 6.411 17.821 6.69 17.748 6.937 17.653 L 7.641 17.384 L 7.641 18.118 C 7.641 18.322 7.683 18.491 7.757 18.632 C 7.984 19.066 8.347 19.4 8.875 19.631 C 9.474 19.868 10.279 19.998 11.315 19.999 C 12.288 19.946 13.103 19.765 13.771 19.47 L 13.78 19.466 L 13.788 19.463 C 14.42 19.21 14.819 18.916 15.043 18.609 C 15.258 18.315 15.343 17.969 15.275 17.536 L 15.096 16.392 L 16.077 17.05 C 16.614 17.41 17.208 17.721 17.859 17.981 L 18.05 18.044 C 18.262 18.103 18.543 18.154 18.903 18.193 L 19.311 18.193 L 19.402 18.228 C 19.583 18.298 19.686 18.279 19.757 18.245 L 19.945 18.154 L 20.146 18.219 C 20.407 18.302 20.623 18.304 20.809 18.253 C 20.993 18.203 21.185 18.089 21.386 17.881 C 21.503 17.727 21.583 17.556 21.623 17.362 L 21.649 17.236 L 21.735 17.139 C 21.912 16.934 22 16.671 21.96 16.3 C 21.918 16.074 21.824 15.901 21.68 15.764 C 21.568 15.656 21.48 15.521 21.411 15.388 C 21.353 15.276 21.235 15.148 21.009 15.017 C 20.836 14.918 20.433 14.812 19.704 14.758 C 19.424 14.757 19.192 14.751 19.017 14.736 C 18.928 14.728 18.84 14.717 18.762 14.7 C 18.722 14.691 18.673 14.679 18.624 14.659 C 18.601 14.65 18.569 14.635 18.532 14.613 C 18.294 14.503 18.048 14.288 17.813 14.051 C 17.538 13.772 17.211 13.393 16.834 12.922 L 16.804 12.885 L 16.782 12.842 C 16.638 12.566 16.483 12.075 16.313 11.425 L 16.31 11.412 C 16.086 10.446 15.849 9.851 15.632 9.552 C 15.45 9.339 15.131 9.074 14.644 8.762 L 14.221 8.493 L 14.492 8.078 C 15.004 7.292 15.127 6.586 14.945 5.929 L 14.943 5.921 C 14.752 5.193 14.311 4.652 13.585 4.277" transform="matrix(1 0 0 1 0 0)" fill="#FFFFFF" stroke="none" />
  <path d="M 9.803 1.544 C 11.432 0.825 13.108 0.821 14.794 1.517 C 16.098 2.055 17.431 3.664 17.834 4.873 L 17.925 5.168 L 17.927 5.178 C 18.131 5.974 18.148 6.795 17.986 7.635 C 18.8 8.426 19.019 9.61 19.26 10.658 C 19.384 11.016 19.47 11.237 19.522 11.346 C 20.325 12.391 20.94 11.5 21.992 13.324 C 21.547 13.054 20.858 12.864 19.875 12.8 L 19.314 12.8 L 19.161 12.577 C 18.743 11.968 18.521 11.669 18.277 10.958 L 18.269 10.933 L 18.263 10.908 C 17.991 9.719 17.704 8.773 16.862 7.958 L 16.926 7.687 C 17.115 6.891 17.113 6.138 16.928 5.42 C 16.553 4.094 15.756 3.146 14.521 2.546 C 13.192 1.903 11.659 1.828 10.247 2.446 C 9.285 2.979 8.467 3.907 7.818 5.286 C 7.493 6.175 7.341 6.944 7.341 7.599 L 7.341 7.806 L 7.19 7.953 C 6.374 8.745 6.021 9.916 5.786 11.003 L 5.78 11.031 L 5.77 11.057 C 5.738 11.151 5.717 11.222 5.704 11.271 C 5.698 11.295 5.695 11.311 5.693 11.319 C 5.693 11.315 5.693 11.308 5.693 11.3 C 5.693 11.478 5.619 11.656 5.552 11.79 C 5.449 12.071 5.263 12.325 5.028 12.553 L 4.85 12.726 L 4.6 12.696 C 4.139 12.64 3.673 12.695 3.198 12.868 L 3.11 12.9 L 2.886 12.9 C 2.017 13.139 1.4 13.615 1 14.337 C 1.371 12.696 1.371 12.5 2.929 11.9 C 3.43 11.73 3.937 11.655 4.447 11.68 C 5.411 10.45 4.976 8.5 6.316 7.393 C 6.345 6.642 6.529 5.819 6.855 4.931 L 6.862 4.912 L 6.871 4.893 C 7.588 3.36 8.544 2.23 9.764 1.564 L 9.783 1.553 L 9.803 1.544" transform="matrix(1 0 0 1 0 0)" fill="#FFFFFF" stroke="none" />
  <path d="M 19.781 15.867 C 19.849 15.905 19.93 16.231 20.081 16.297 L 19.67 16.363 L 19.807 16.885 C 19.704 17 18.69 15.833 18.442 16.491 L 18.987 16.885 C 18.62 16.799 18.093 16.815 17.765 16.684 C 17.507 16.58 14.937 14.678 14.735 14.459 C 14.21 13.895 14.115 12.962 13.446 12.489 C 13.714 13.052 13.158 13.388 12.968 13.93 C 12.444 15.432 13.359 15.718 13.681 17.041 C 14.252 18.55 7.946 18.855 8.99 17.113 C 9.006 15.809 9.684 14.598 9.483 13.273 L 9.195 14.369 C 8.708 15.27 7.017 16.478 6 16.679 C 5.287 16.819 4.626 17.101 3.961 17.339 C 3.845 16.928 4.608 16.511 4.656 16.303 L 4.132 15.845 L 4.361 15.781 C 5.227 16.07 5.713 16.12 6.497 15.585 C 7.461 14.928 8.353 13.54 8.732 12.485 C 8.952 11.872 9.113 10.58 9.424 10.138 C 9.735 9.695 10.881 9.517 11.034 9.186 C 11.428 8.329 10.756 8.419 10.54 8.005 C 10.234 7.417 11.033 5.732 11.62 5.436 C 12.4 5.043 13.308 5.55 13.521 6.333 C 13.823 7.438 12.401 8.04 12.651 8.86 C 12.815 9.4 13.977 9.705 14.252 10.081 C 14.79 10.818 14.735 12.314 15.437 13.265 C 15.635 13.535 17.286 15.391 17.5 15.5 C 18.075 15.791 19.497 15.71 19.783 15.865 L 19.781 15.867" transform="matrix(1 0 0 1 0 0)" fill="#FFFFFF" stroke="none" />
</svg>
