<?xml version="1.0" encoding="UTF-8"?>
<!-- Reconstructed from Amplitude.Graphics.Svg.SvgAsset and recolored from static UIMapper.Color metadata for EWShop; not original source SVG. Live UI state/material colors are not included. -->
<svg xmlns="http://www.w3.org/2000/svg" width="24" height="24" viewBox="0 0 24 24">
  <path d="M 2.977 18.291 L 2.977 18.298 C 2.886 19.877 4.003 21.305 5.55 21.568 L 6.161 21.674 C 4.484 23.365 2.482 23.358 1.501 22.114 C 0.513 20.857 0.969 18.857 3.016 17.574 L 2.977 18.291 M 15.553 17.574 C 17.599 18.851 18.054 20.851 17.066 22.107 C 16.085 23.351 14.09 23.358 12.406 21.667 L 13.018 21.561 C 14.558 21.298 15.682 19.877 15.591 18.291 L 15.553 17.574 M 4.12 17.021 C 5.283 16.561 6.778 16.298 8.617 16.37 C 8.273 18.212 7.675 19.64 6.967 20.686 L 6.005 20.18 C 5.219 19.772 4.633 19.028 4.412 18.159 L 4.12 17.021 M 9.956 16.37 C 11.795 16.298 13.291 16.561 14.454 17.021 L 14.161 18.159 C 13.94 19.028 13.356 19.765 12.569 20.18 L 11.607 20.686 C 10.899 19.64 10.301 18.219 9.956 16.37 M 8.059 11.264 C 8.871 10.895 9.801 10.895 10.613 11.264 L 11.607 11.711 C 11.244 12.928 10.509 14.284 9.3 15.712 C 8.098 14.297 7.37 12.947 6.999 11.743 L 8.059 11.264 M 10.86 9.641 L 10.852 9.649 C 9.72 9.012 8.27 9.142 7.272 10.046 L 6.739 10.526 C 6.587 9.233 6.879 8.171 7.424 7.464 L 10.86 9.641" transform="matrix(1 0 0 1 0 0)" fill="#FFFFFF" stroke="none" />
  <path d="M 15.916 4.747 L 17.068 2.079 L 17.795 5.343 L 21.283 3.282 L 19.415 6.588 L 23 6.99 L 19.201 9.339 L 22.402 11.456 L 18.754 10.884 L 20.417 15.308 L 17.196 12.175 L 16.235 14.038 L 15.254 11.795 L 11.606 14.758 L 12.864 10.313 L 10.88 10.609 L 12.267 9.573 L 8.256 7.244 L 12.395 7.435 L 11.307 5.149 L 13.91 5.826 L 12.992 1 L 15.916 4.747 M 15.006 7.345 L 14.063 7.099 L 14.457 7.927 L 12.958 7.858 L 14.411 8.701 L 13.909 9.077 L 14.628 8.97 L 14.172 10.579 L 15.493 9.506 L 15.848 10.318 L 16.196 9.644 L 17.378 10.817 L 16.76 9.177 L 18.081 9.383 L 16.922 8.617 L 18.298 7.766 L 17 7.62 L 17.339 6.103 L 16.427 7.099 L 16.149 5.988 L 15.732 6.954 L 14.674 5.597 L 15.006 7.345" transform="matrix(1 0 0 1 0 0)" fill="#FFFFFF" stroke="none" />
</svg>
