<?xml version="1.0" encoding="UTF-8"?>
<!-- Reconstructed from Amplitude.Graphics.Svg.SvgAsset and recolored from static UIMapper.Color metadata for EWShop; not original source SVG. Live UI state/material colors are not included. -->
<svg xmlns="http://www.w3.org/2000/svg" width="24" height="24" viewBox="0 0 24 24">
  <path d="M 17.523 17.517 L 17.482 20.856 L 18.654 21.462 L 19.811 23.2 L 19.898 21.016 L 21.453 22.57 L 22.578 21.446 L 20.983 19.853 L 23.2 19.812 L 21.47 18.648 L 20.863 17.477 L 17.523 17.517 M 7.371 20.896 L 5.681 22.595 L 17.123 22.187 L 15.553 20.617 L 7.371 20.896 M 6.813 9.066 C 5.688 10.19 4.237 12.127 2.825 11.282 L 2.26 12.406 L 0.864 11.977 C 0.482 15.077 2.02 18.935 4.835 21.749 L 6.533 20.052 C 4.938 18.489 3.153 15.54 3.998 14.137 L 3.99 14.137 C 5.968 13.292 7.371 11.881 8.503 10.757 L 6.813 9.066 M 7.092 8.222 L 16.677 17.804 L 16.677 16.672 L 17.81 16.672 L 8.216 7.09 L 7.092 7.09 L 7.092 8.222 M 21 8 L 21 12 L 20.745 12 L 20.624 15.548 L 22.195 17.118 L 22.513 8 L 21 8 M 16.356 1.41 C 14.853 0.891 13.344 0.687 11.981 0.855 L 12.411 2.251 L 11.286 2.817 C 12.131 4.228 10.202 5.679 9.069 6.803 L 10.76 8.492 C 10.918 8.334 11.081 8.17 11.248 8 L 10.865 8 L 12.231 6.359 L 14.056 4.17 C 14.084 4.107 14.114 4.044 14.142 3.98 L 14.142 3.988 C 14.18 3.966 14.219 3.946 14.259 3.927 L 16.356 1.41 M 2.817 6.197 C 3.495 6.133 4.811 6.62 5.664 7.919 L 5.672 7.927 L 6.23 6.795 L 3.104 3.103 L 6.797 6.228 L 7.929 5.671 C 7.179 5.089 5.928 3.67 6.207 2.825 L 1.15 1.15 L 2.817 6.197" transform="matrix(1 0 0 1 0 0)" fill="#FFFFFF" stroke="none" />
  <path d="M 13 7 L 18 1 L 23 7 L 20 7 L 20 11 L 16 11 L 16 7 L 13 7" transform="matrix(1 0 0 1 0 0)" fill="#FFFFFF" stroke="none" />
</svg>
