<?xml version="1.0" encoding="UTF-8"?>
<!-- Reconstructed from Amplitude.Graphics.Svg.SvgAsset and recolored from static UIMapper.Color metadata for EWShop; not original source SVG. Live UI state/material colors are not included. -->
<svg xmlns="http://www.w3.org/2000/svg" width="24" height="24" viewBox="0 0 24 24">
  <path d="M 12.467 2.817 C 12.763 2.591 12.883 2.223 12.883 1.808 C 12.883 1.12 12.554 0.978 11.637 0.978 C 10.719 0.978 10.391 1.12 10.391 1.808 C 10.391 2.223 10.51 2.591 10.806 2.817 L 10.806 6.377 C 10.755 6.41 10.699 6.443 10.641 6.479 C 10.339 6.66 9.975 6.878 9.975 7.207 L 13.298 7.207 C 13.308 6.885 12.974 6.686 12.68 6.51 C 12.605 6.465 12.531 6.421 12.467 6.377 L 12.467 2.817" transform="matrix(1 0 0 1 0 0)" fill="#FFFFFF" stroke="none" />
  <path d="M 15.792 9.199 C 15.444 9.199 15.156 8.973 15.011 8.687 C 14.327 8.532 12.477 8.532 11.541 9.949 C 10.616 8.508 8.971 8.425 8.274 8.544 C 8.142 8.842 7.842 9.032 7.493 9.032 C 7.097 9.032 6.761 8.758 6.677 8.389 L 6.653 8.032 C 6.713 7.627 7.073 7.329 7.493 7.341 C 7.866 7.341 8.178 7.591 8.298 7.925 L 14.975 8.056 C 15.095 7.734 15.408 7.496 15.78 7.508 C 16.2 7.508 16.549 7.829 16.621 8.246 L 16.597 8.615 C 16.489 8.961 16.164 9.223 15.768 9.211 L 15.792 9.199" transform="matrix(1 0 0 1 0 0)" fill="#FFFFFF" stroke="none" />
  <path d="M 12.016 18 L 13.585 15.828 C 13.741 12.149 13.799 9.283 13.799 9.283 C 13.799 9.045 12.154 9.688 11.961 10.462 C 11.961 10.462 12.003 14.18 12.016 18" transform="matrix(1 0 0 1 0 0)" fill="#FFFFFF" stroke="none" />
  <path d="M 11.437 18 L 9.927 15.626 C 9.694 11.862 9.536 9.188 9.536 9.188 C 9.644 8.961 11.097 9.771 11.181 10.438 L 11.181 10.462 C 11.181 10.462 11.299 14.12 11.437 18" transform="matrix(1 0 0 1 0 0)" fill="#FFFFFF" stroke="none" />
  <path d="M 1 16 L 5.307 17.445 L 1 11 L 5.945 15.215 L 2 7 L 11.681 19.995 L 21 7 L 17.736 15.215 L 23 11 L 19.904 15.314 L 19 14.5 L 13 20.5 L 16.5 20.5 L 15.384 21.616 L 14.231 21.668 L 11.681 23.182 L 9.132 21.668 L 1 21.27 L 6.582 20.154 L 1 16" transform="matrix(1 0 0 1 0 0)" fill="#FFFFFF" stroke="none" />
  <path d="M 21.661 16.895 L 23 16 L 21.268 16.541 L 21.661 16.895" transform="matrix(1 0 0 1 0 0)" fill="#FFFFFF" stroke="none" />
  <path d="M 23 19.385 L 19.084 15.771 L 15.291 19.385 L 17.055 19.385 L 19.084 17.646 L 21.112 19.385 L 23 19.385" transform="matrix(1 0 0 1 0 0)" fill="#FFFFFF" stroke="none" />
  <path d="M 23 23 L 19.084 19.385 L 15.291 23 L 17.055 23 L 19.084 21.261 L 21.112 23 L 23 23" transform="matrix(1 0 0 1 0 0)" fill="#FFFFFF" stroke="none" />
</svg>
