<?xml version="1.0" encoding="UTF-8"?>
<!-- Reconstructed from Amplitude.Graphics.Svg.SvgAsset and recolored from static UIMapper.Color metadata for EWShop; not original source SVG. Live UI state/material colors are not included. -->
<svg xmlns="http://www.w3.org/2000/svg" width="24" height="24" viewBox="0 0 24 24">
  <path d="M 18.626 1.034 C 19.159 0.891 19.708 1.208 19.851 1.741 L 22.499 11.63 C 22.642 12.163 22.325 12.712 21.792 12.855 L 11.908 15.504 C 11.374 15.647 10.826 15.331 10.683 14.797 L 8.034 4.909 C 7.891 4.375 8.208 3.827 8.741 3.684 L 18.626 1.034 M 12.525 11.107 C 11.803 11.3 11.375 12.043 11.568 12.765 C 11.762 13.486 12.504 13.915 13.226 13.722 C 13.947 13.528 14.375 12.786 14.182 12.064 C 13.988 11.342 13.247 10.914 12.525 11.107 M 19.06 9.355 C 18.338 9.548 17.91 10.291 18.103 11.013 C 18.297 11.735 19.039 12.163 19.761 11.97 C 20.482 11.776 20.91 11.034 20.717 10.312 C 20.523 9.59 19.782 9.162 19.06 9.355 M 14.916 6.962 C 14.194 7.155 13.767 7.897 13.96 8.619 C 14.153 9.341 14.895 9.77 15.616 9.576 C 16.338 9.383 16.767 8.641 16.574 7.919 C 16.38 7.197 15.638 6.768 14.916 6.962 M 10.773 4.569 C 10.051 4.762 9.623 5.505 9.816 6.227 C 10.009 6.949 10.752 7.377 11.473 7.184 C 12.195 6.99 12.623 6.248 12.43 5.526 C 12.236 4.804 11.495 4.375 10.773 4.569 M 17.309 2.817 C 16.587 3.01 16.159 3.753 16.352 4.475 C 16.545 5.197 17.288 5.625 18.009 5.432 C 18.731 5.238 19.159 4.496 18.966 3.774 C 18.772 3.052 18.031 2.624 17.309 2.817" transform="matrix(1 0 0 1 0 0)" fill="#FFFFFF" stroke="none" />
  <path d="M 6.061 7.008 C 6.627 7.041 7.167 7.174 7.663 7.388 L 9.717 15.056 L 9.78 15.251 C 10.14 16.198 11.167 16.739 12.167 16.471 L 17.352 15.08 C 15.367 20.054 9.5 23 9.5 23 C 9.5 23 1 18.732 1 11.8 C 1 9.149 3.141 7 5.781 7 L 6.061 7.008" transform="matrix(1 0 0 1 0 0)" fill="#FFFFFF" stroke="none" />
  <path d="M 10.804 15.073 L 10.859 15.153 C 10.812 15.092 10.772 15.025 10.739 14.952 C 10.759 14.994 10.78 15.035 10.804 15.073" transform="matrix(1 0 0 1 0 0)" fill="#FFFFFF" stroke="none" />
</svg>
