<?xml version="1.0" encoding="UTF-8"?>
<!-- Reconstructed from Amplitude.Graphics.Svg.SvgAsset and recolored from static UIMapper.Color metadata for EWShop; not original source SVG. Live UI state/material colors are not included. -->
<svg xmlns="http://www.w3.org/2000/svg" width="24" height="24" viewBox="0 0 24 24">
  <path d="M 22.89 2.955 C 23.002 2.944 23.044 3.081 22.943 3.128 C 21.413 3.833 19.45 4.795 17.706 5.776 C 17.425 5.926 17.204 6.125 17.042 6.358 C 17.394 6.452 17.726 6.554 18.038 6.664 C 22.706 8.311 24.097 15.246 20.907 18.814 C 20.383 19.4 19.703 19.85 18.889 20.169 C 18.811 20.199 18.82 20.013 18.868 19.949 C 20.288 18.085 20.656 15.518 19.688 13.42 C 19.054 12.049 17.635 12.061 16.9 12.583 C 16.644 14.092 16.058 15.025 15.452 15.546 C 15.009 15.927 14.653 16.52 14.85 17.05 L 15.274 18.193 C 15.401 18.535 15.309 18.915 15.025 19.162 C 10.467 23.135 5.568 23.327 2.888 22.771 C 2.246 22.637 1.854 22.059 1.918 21.451 C 2.016 20.524 2.17 19.635 2.376 18.785 C 1.578 18.12 0.685 16.56 1.11 13.775 C 1.154 13.487 1.608 13.489 1.691 13.77 C 1.989 14.778 2.476 15.843 3.17 16.28 C 3.394 15.714 3.643 15.167 3.914 14.639 C 4.312 14.936 4.738 15.197 5.19 15.414 C 4.972 15.716 4.939 16.114 5.105 16.447 C 5.183 16.602 5.299 16.729 5.437 16.823 C 4.917 18.298 4.686 19.664 4.57 20.591 C 4.534 20.887 4.804 21.132 5.119 21.075 C 6.608 20.805 8.573 19.997 7.795 18.266 C 7.615 17.865 7.586 17.436 7.663 17 L 10.064 17 C 9.808 17.634 9.706 18.311 10.043 18.793 C 10.403 19.308 11.202 19.173 11.792 18.895 L 12.137 18.731 C 12.353 18.629 12.458 18.4 12.417 18.178 C 12.167 16.818 12.841 15.783 13.243 15.413 C 13.959 14.71 14.357 13.952 14.545 13.209 C 14.882 12.777 15.175 12.308 15.414 11.809 C 15.716 12.027 16.114 12.061 16.447 11.895 C 16.786 11.725 17 11.379 17 11 L 17 6 C 17 5.621 16.786 5.275 16.447 5.105 C 16.114 4.939 15.716 4.972 15.414 5.19 C 15.318 4.989 15.213 4.793 15.1 4.602 C 18.41 3.393 19.644 3.272 22.289 3.014 C 22.481 2.995 22.681 2.976 22.89 2.955" transform="matrix(1 0 0 1 0 0)" fill="#FFFFFF" stroke="none" />
  <path d="M 10.208 2.056 C 12.517 2.666 14.333 4.483 14.943 6.792 L 16 6 L 16 11 L 14.943 10.208 C 14.333 12.517 12.516 14.333 10.207 14.943 L 11 16 L 6 16 L 6.792 14.943 C 4.483 14.333 2.666 12.516 2.056 10.207 L 1 11 L 1 6 L 2.055 6.791 C 2.665 4.483 4.483 2.665 6.791 2.055 L 6 1 L 11 1 L 10.208 2.056 M 8.5 4.333 L 7.448 2.932 C 5.162 3.361 3.361 5.162 2.932 7.448 L 4.333 8.5 L 2.932 9.551 C 3.361 11.837 5.163 13.637 7.449 14.066 L 8.5 12.667 L 9.55 14.066 C 11.837 13.638 13.638 11.837 14.066 9.55 L 12.667 8.5 L 14.066 7.449 C 13.637 5.163 11.837 3.361 9.551 2.932 L 8.5 4.333" transform="matrix(1 0 0 1 0 0)" fill="#FFFFFF" stroke="none" />
  <path d="M 13.115 1.134 C 13.262 0.877 13.688 1.02 13.663 1.31 C 13.62 1.806 13.609 2.332 13.652 2.826 C 13.339 2.541 13.002 2.281 12.644 2.051 C 12.778 1.756 12.934 1.45 13.115 1.134" transform="matrix(1 0 0 1 0 0)" fill="#FFFFFF" stroke="none" />
  <path d="M 8.5 6 C 8.776 6 9 6.224 9 6.5 L 9 8 L 10.5 8 C 10.776 8 11 8.224 11 8.5 C 11 8.776 10.776 9 10.5 9 L 9 9 L 9 10.5 C 9 10.776 8.776 11 8.5 11 C 8.224 11 8 10.776 8 10.5 L 8 9 L 6.5 9 C 6.224 9 6 8.776 6 8.5 C 6 8.224 6.224 8 6.5 8 L 8 8 L 8 6.5 C 8 6.224 8.224 6 8.5 6" transform="matrix(1 0 0 1 0 0)" fill="#FFFFFF" stroke="none" />
</svg>
