<?xml version="1.0" encoding="UTF-8"?>
<!-- Reconstructed from Amplitude.Graphics.Svg.SvgAsset and recolored from static UIMapper.Color metadata for EWShop; not original source SVG. Live UI state/material colors are not included. -->
<svg xmlns="http://www.w3.org/2000/svg" width="24" height="24" viewBox="0 0 24 24">
  <path d="M 11.165 6.058 C 10.995 6.081 10.829 6.112 10.664 6.149 L 9.684 3.579 L 10.05 6.324 C 9.903 6.375 9.758 6.431 9.616 6.492 L 5.5 0.5 L 8.374 7.219 C 8.243 7.319 8.115 7.424 7.992 7.535 L 5.895 5.895 L 7.535 7.992 C 7.442 8.096 7.352 8.203 7.266 8.313 L 1 5 L 6.51 9.575 C 6.496 9.608 6.481 9.642 6.467 9.675 C 7.774 8.839 8.5 9 8.5 9 C 9.5 9 9.167 10.667 9 11.5 L 15 8 C 16 7.5 18 10 16 11 L 12.5 13 C 13 13 13 15 13 15.5 C 13 15.9 12.667 16.333 12.5 16.5 C 12.333 16.667 12.1 17.2 12.5 18 C 12.818 18.635 12.105 19.523 11.464 20.112 L 12 24 L 12.836 17.942 C 13.005 17.919 13.171 17.888 13.336 17.851 L 14.316 20.421 L 13.95 17.676 C 14.097 17.625 14.242 17.569 14.384 17.508 L 18.5 23.5 L 15.626 16.781 C 15.757 16.681 15.885 16.576 16.008 16.465 L 18.105 18.106 L 16.465 16.008 C 16.558 15.904 16.648 15.797 16.734 15.687 L 23.5 19 L 17.49 14.425 C 17.558 14.27 17.62 14.112 17.676 13.95 L 20.421 14.316 L 17.851 13.336 C 17.888 13.172 17.919 13.005 17.942 12.835 L 24 12 L 17.942 11.164 C 17.919 10.995 17.888 10.828 17.851 10.664 L 20.421 9.684 L 17.676 10.05 C 17.62 9.888 17.558 9.73 17.49 9.575 L 23.5 5 L 16.734 8.313 C 16.648 8.203 16.558 8.096 16.465 7.992 L 18.105 5.895 L 16.008 7.535 C 15.885 7.424 15.757 7.319 15.626 7.219 L 18.5 0.5 L 14.384 6.492 C 14.242 6.431 14.097 6.375 13.95 6.324 L 14.316 3.579 L 13.336 6.149 C 13.171 6.112 13.005 6.081 12.836 6.058 L 12 0 L 11.165 6.058" transform="matrix(1 0 0 1 0 0)" fill="#FFFFFF" stroke="none" />
  <path d="M 4.195 12.578 L 5.092 11.297 L 0 12 L 4.195 12.578" transform="matrix(1 0 0 1 0 0)" fill="#FFFFFF" stroke="none" />
  <path d="M 5.665 10.479 L 5.996 10.006 L 3.579 9.684 L 5.665 10.479" transform="matrix(1 0 0 1 0 0)" fill="#FFFFFF" stroke="none" />
  <path d="M 12.517 10.245 C 12.589 10.205 12.659 10.159 12.733 10.125 C 13.267 9.873 13.809 9.635 14.336 9.369 C 14.685 9.191 15.057 9.125 15.433 9.063 C 15.489 9.053 15.582 9.092 15.612 9.138 C 15.724 9.319 15.818 9.511 15.917 9.701 C 15.974 9.81 15.91 9.878 15.824 9.926 C 15.405 10.161 14.978 10.38 14.568 10.627 C 14.199 10.847 13.848 11.098 13.486 11.33 C 13.222 11.5 12.957 11.668 12.686 11.824 C 12.148 12.135 11.605 12.438 11.063 12.744 C 10.753 12.92 10.661 13.245 10.524 13.535 C 10.51 13.566 10.578 13.668 10.629 13.692 C 10.942 13.833 11.257 13.97 11.577 14.091 C 11.734 14.15 11.803 14.24 11.798 14.403 C 11.79 14.654 11.801 14.906 11.783 15.155 C 11.777 15.233 11.718 15.327 11.654 15.376 C 11.508 15.489 11.347 15.58 11.187 15.675 C 11.078 15.74 11.048 15.812 11.105 15.932 C 11.237 16.208 11.368 16.484 11.483 16.767 C 11.513 16.843 11.495 16.952 11.463 17.032 C 11.423 17.132 11.358 17.23 11.283 17.309 C 11.009 17.597 11.009 17.934 11.13 18.266 C 11.254 18.609 11.15 18.848 10.942 19.131 C 10.606 19.589 10.124 19.742 9.634 19.894 C 8.499 20.245 7.361 20.583 6.219 20.912 C 6.005 20.974 5.771 20.968 5.547 21 C 5.336 21.032 5.126 21.075 4.914 21.109 C 4.429 21.186 3.942 21.26 3.457 21.335 C 3.358 21.35 3.259 21.366 3.16 21.383 C 3.16 21.402 3.161 21.423 3.16 21.443 C 3.685 21.533 4.208 21.623 4.734 21.714 C 4.742 21.731 4.752 21.747 4.762 21.764 C 4.606 21.885 4.469 22.044 4.294 22.12 C 3.559 22.439 2.947 22.446 2.275 22.856 C 1.924 23.07 1.5 23 1.5 23 L 1.279 23 L 1.014 22.891 C 0.924 21.557 0.896 20.798 0.803 19.464 C 0.773 19.038 0.72 18.614 0.688 18.188 C 0.684 18.134 0.734 18.047 0.782 18.026 C 1.216 17.835 1.656 17.661 2.091 17.471 C 2.234 17.408 2.303 17.444 2.363 17.577 C 2.491 17.868 2.63 18.155 2.763 18.443 C 2.788 18.495 2.817 18.544 2.88 18.584 C 2.89 18.368 2.902 18.151 2.91 17.934 C 2.916 17.74 2.934 17.541 2.918 17.347 C 2.885 16.949 3.011 16.606 3.217 16.273 C 3.71 15.476 4.127 14.644 4.403 13.745 C 4.552 13.259 4.86 12.866 5.247 12.534 C 5.504 12.313 5.767 12.1 6.009 11.865 C 6.133 11.744 6.226 11.586 6.318 11.434 C 6.611 10.952 6.89 10.462 7.192 9.984 C 7.234 9.917 7.366 9.866 7.452 9.871 C 7.907 9.902 7.901 9.909 7.954 10.368 C 7.976 10.561 8.038 10.751 8.055 10.944 C 8.065 11.057 8.058 11.194 8.003 11.287 C 7.581 12.001 7.183 12.73 6.61 13.345 C 6.524 13.439 6.437 13.531 6.351 13.624 C 6.357 13.638 6.366 13.65 6.375 13.664 C 6.531 13.608 6.691 13.563 6.843 13.493 C 7.179 13.337 7.503 13.161 7.84 13.007 C 8.231 12.826 8.624 12.644 9.027 12.492 C 9.506 12.313 9.87 11.964 10.283 11.688 L 12.528 10.248 L 12.517 10.245" transform="matrix(1 0 0 1 0 0)" fill="#FFFFFF" stroke="none" />
</svg>
