<?xml version="1.0" encoding="UTF-8"?>
<!-- Reconstructed from Amplitude.Graphics.Svg.SvgAsset and recolored from static UIMapper.Color metadata for EWShop; not original source SVG. Live UI state/material colors are not included. -->
<svg xmlns="http://www.w3.org/2000/svg" width="24" height="24" viewBox="0 0 24 24">
  <path d="M 15.128 5.64 L 15.324 6.622 C 16.295 6.392 17.207 6.256 18.033 6.212 C 19.131 6.153 20.026 6.261 20.684 6.49 C 21.337 6.717 21.691 7.038 21.862 7.38 C 22.033 7.722 22.075 8.199 21.864 8.856 C 21.65 9.52 21.197 10.299 20.489 11.14 C 20.144 11.55 19.746 11.966 19.3 12.381 C 19.552 12.524 19.935 12.66 20.332 12.777 C 22.506 10.635 23.513 8.452 22.757 6.934 C 21.879 5.173 18.854 4.767 15.128 5.64" transform="matrix(1 0 0 1 0 0)" fill="#FFFFFF" stroke="none" />
  <path d="M 1.315 17.618 C 0.218 15.416 2.833 11.811 7.339 8.968 L 7.115 10.312 C 5.835 11.189 4.754 12.117 3.922 13.026 L 3.184 13.272 C 2.775 13.408 2.5 13.79 2.5 14.221 L 2.5 14.293 C 2.5 14.426 2.447 14.553 2.354 14.646 L 2.08 14.92 C 1.743 15.257 1.69 15.786 1.955 16.182 L 2.071 16.357 C 2.046 16.689 2.103 16.957 2.21 17.172 C 2.38 17.515 2.735 17.835 3.387 18.063 C 4.046 18.292 4.94 18.399 6.039 18.34 C 8.231 18.223 11.037 17.456 13.905 16.027 C 15.071 15.446 16.144 14.807 17.102 14.141 L 17.942 14.771 C 16.872 15.538 15.665 16.268 14.351 16.922 C 8.43 19.873 2.593 20.184 1.315 17.618" transform="matrix(1 0 0 1 0 0)" fill="#FFFFFF" stroke="none" />
  <path d="M 18.5 16.75 C 18.5 16.336 18.835 16 19.25 16 C 19.664 16 20 16.336 20 16.75 C 20 17.164 19.664 17.5 19.25 17.5 C 18.835 17.5 18.5 17.164 18.5 16.75" transform="matrix(1 0 0 1 0 0)" fill="#FFFFFF" stroke="none" />
  <path d="M 7.75 20 C 7.593 20 7.447 20.078 7.361 20.208 L 7.213 20.43 C 6.781 21.078 6.781 21.922 7.213 22.57 L 7.361 22.792 C 7.447 22.922 7.593 23 7.75 23 C 7.906 23 8.052 22.922 8.138 22.792 L 8.286 22.57 C 8.718 21.922 8.718 21.078 8.286 20.43 L 8.138 20.208 C 8.052 20.078 7.906 20 7.75 20" transform="matrix(1 0 0 1 0 0)" fill="#FFFFFF" stroke="none" />
  <path d="M 13.75 22 C 13.335 22 13 22.336 13 22.75 C 13 23.164 13.335 23.5 13.75 23.5 C 14.164 23.5 14.5 23.164 14.5 22.75 C 14.5 22.336 14.164 22 13.75 22" transform="matrix(1 0 0 1 0 0)" fill="#FFFFFF" stroke="none" />
  <path d="M 22.156 13.981 C 22.16 13.979 22.457 14.432 22.5 14.523 L 21.623 14.304 L 22.156 15.277 C 22.115 15.325 21.954 15.201 21.746 15.04 C 21.308 14.702 20.659 14.2 20.449 14.772 L 21.121 15.352 C 21.251 15.464 21.172 15.678 20.999 15.678 C 20.806 15.658 20.208 15.155 19.71 14.736 C 19.381 14.458 19.095 14.217 18.999 14.178 C 18.924 14.147 18.702 14.068 18.402 13.961 C 17.42 13.612 15.608 12.967 15.414 12.752 C 15.13 12.438 14.946 12.036 14.761 11.631 C 14.744 11.593 14.726 11.552 14.706 11.508 C 14.443 10.928 13.941 9.819 13.5 9.5 C 13.648 9.818 13.62 10.011 13.571 10.351 C 13.546 10.52 13.517 10.725 13.5 11 C 13.5 11 13.285 11.836 13.204 12.073 C 12.782 13.313 13.105 13.907 13.497 14.625 C 13.53 14.685 13.563 14.745 13.596 14.807 C 12.437 15.538 9.781 16.453 8.256 16.922 C 8.235 16.667 8.224 16.412 8.227 16.157 C 8.236 15.437 8.398 14.74 8.559 14.043 C 8.773 13.12 8.987 12.199 8.844 11.23 L 8.483 12.636 C 7.875 13.792 6.273 14.243 5 14.5 C 4.818 14.537 4.551 14.764 4.283 14.992 C 3.988 15.244 3.69 15.497 3.5 15.5 C 3.038 15.645 2.777 15.551 2.553 15.471 C 2.377 15.407 2.225 15.353 2.016 15.429 C 1.952 15.199 2.349 15.129 2.678 15.071 C 2.806 15.049 2.924 15.028 3 15 C 3.177 14.936 3.477 14.605 3.5 14.5 L 3.003 14.359 C 2.825 14.309 2.764 14.088 2.891 13.954 C 3.891 14.298 4.254 14.248 5.173 13.75 C 6.379 12.906 7.431 11.573 7.904 10.219 C 8.01 9.918 8.104 9.489 8.203 9.042 C 8.361 8.323 8.53 7.557 8.77 7.207 C 8.973 6.911 9.458 6.708 9.903 6.521 C 10.315 6.348 10.693 6.189 10.785 5.985 C 11.116 5.247 10.844 5.056 10.548 4.849 C 10.404 4.749 10.255 4.644 10.166 4.47 C 9.784 3.716 10.783 1.554 11.518 1.174 C 12.493 0.671 13.629 1.321 13.896 2.325 C 14.097 3.081 13.685 3.654 13.304 4.184 C 12.971 4.647 12.662 5.077 12.807 5.567 C 12.927 5.973 13.475 6.275 13.977 6.553 C 14.333 6.75 14.667 6.934 14.81 7.134 C 15.124 7.575 15.276 8.228 15.439 8.922 C 15.625 9.717 15.824 10.568 16.293 11.22 C 16.54 11.566 19.002 13.361 19.271 13.5 C 19.685 13.715 20.45 13.771 21.094 13.819 C 21.568 13.854 22.004 13.896 22.156 13.981" transform="matrix(1 0 0 1 0 0)" fill="#FFFFFF" stroke="none" />
  <path d="M 16.75 17 C 16.6 17 16.468 17.096 16.421 17.237 L 15.98 18.559 C 15.668 19.494 15.668 20.506 15.98 21.442 L 16.421 22.763 C 16.468 22.905 16.6 23 16.75 23 C 16.899 23 17.031 22.905 17.079 22.763 L 17.519 21.442 C 17.831 20.506 17.831 19.494 17.519 18.559 L 17.079 17.237 C 17.031 17.096 16.899 17 16.75 17" transform="matrix(1 0 0 1 0 0)" fill="#FFFFFF" stroke="none" />
  <path d="M 13.361 18.208 C 13.448 18.078 13.593 18 13.75 18 C 13.906 18 14.052 18.078 14.138 18.208 L 14.286 18.43 C 14.718 19.078 14.718 19.922 14.286 20.57 L 14.138 20.792 C 14.052 20.922 13.906 21 13.75 21 C 13.593 21 13.448 20.922 13.361 20.792 L 13.213 20.57 C 12.781 19.922 12.781 19.078 13.213 18.43 L 13.361 18.208" transform="matrix(1 0 0 1 0 0)" fill="#FFFFFF" stroke="none" />
  <path d="M 10.75 19 C 10.596 19 10.456 19.087 10.388 19.224 L 10.118 19.764 C 9.728 20.542 9.728 21.458 10.118 22.236 L 10.388 22.776 C 10.456 22.913 10.596 23 10.75 23 C 10.903 23 11.043 22.913 11.111 22.776 L 11.382 22.236 C 11.771 21.458 11.771 20.542 11.382 19.764 L 11.111 19.224 C 11.043 19.087 10.903 19 10.75 19" transform="matrix(1 0 0 1 0 0)" fill="#FFFFFF" stroke="none" />
  <path d="M 4.759 20.5 C 4.598 20.5 4.449 20.585 4.366 20.723 L 4.259 20.901 C 3.946 21.424 3.946 22.076 4.259 22.599 L 4.366 22.777 C 4.449 22.915 4.598 23 4.759 23 C 4.91 23 5.051 22.926 5.136 22.803 L 5.237 22.658 C 5.616 22.112 5.616 21.388 5.237 20.842 L 5.136 20.697 C 5.051 20.574 4.91 20.5 4.759 20.5" transform="matrix(1 0 0 1 0 0)" fill="#FFFFFF" stroke="none" />
  <path d="M 19.398 18.729 C 19.46 18.59 19.597 18.5 19.749 18.5 C 19.901 18.5 20.039 18.59 20.101 18.728 L 20.422 19.45 C 20.79 20.278 20.79 21.222 20.422 22.05 L 20.101 22.772 C 20.039 22.911 19.901 23 19.749 23 C 19.597 23 19.46 22.911 19.398 22.772 L 19.077 22.05 C 18.709 21.222 18.709 20.278 19.077 19.45 L 19.398 18.729" transform="matrix(1 0 0 1 0 0)" fill="#FFFFFF" stroke="none" />
</svg>
