<?xml version="1.0" encoding="UTF-8"?>
<!-- Reconstructed from Amplitude.Graphics.Svg.SvgAsset and recolored from static UIMapper.Color metadata for EWShop; not original source SVG. Live UI state/material colors are not included. -->
<svg xmlns="http://www.w3.org/2000/svg" width="24" height="24" viewBox="0 0 24 24">
  <path d="M 23.001 19.385 L 19.084 15.771 L 15.291 19.385 L 17.055 19.385 L 19.084 17.646 L 21.113 19.385 L 23.001 19.385" transform="matrix(1 0 0 1 0 0)" fill="#FFFFFF" stroke="none" />
  <path d="M 23.001 23 L 19.084 19.385 L 15.291 23 L 17.055 23 L 19.084 21.261 L 21.113 23 L 23.001 23" transform="matrix(1 0 0 1 0 0)" fill="#FFFFFF" stroke="none" />
  <path d="M 7.924 13.065 L 7.924 9.635 C 7.924 9.409 8.069 9.21 8.283 9.14 L 8.582 9.042 C 9.795 8.646 10.909 7.994 11.849 7.132 C 12.02 6.975 12.283 6.975 12.454 7.132 C 13.395 7.994 14.509 8.646 15.721 9.042 L 16.021 9.14 C 16.235 9.21 16.379 9.409 16.379 9.635 L 16.379 13.065 C 16.379 14.295 15.791 15.45 14.797 16.174 L 12.265 18.015 C 12.197 18.064 12.106 18.064 12.039 18.015 L 9.507 16.174 C 8.512 15.45 7.924 14.295 7.924 13.065 M 11.669 8.176 C 10.978 8.794 10.165 9.262 9.283 9.551 L 9.05 9.627 C 8.77 9.718 8.581 9.979 8.581 10.273 L 8.581 12.948 C 8.581 13.591 8.771 14.211 9.113 14.736 L 9.511 14.338 C 9.264 13.923 9.129 13.444 9.129 12.948 L 9.129 10.273 C 9.129 10.216 9.166 10.165 9.22 10.148 L 9.453 10.071 C 10.256 9.809 11.006 9.408 11.669 8.89 L 11.669 8.176 M 12.605 8.866 C 13.275 9.396 14.035 9.805 14.85 10.071 L 15.084 10.148 C 15.138 10.165 15.175 10.216 15.175 10.273 L 15.175 12.948 C 15.175 13.543 14.98 14.113 14.632 14.579 L 15.023 14.969 C 15.471 14.399 15.722 13.69 15.722 12.948 L 15.722 10.273 C 15.722 9.979 15.533 9.718 15.254 9.627 L 15.02 9.551 C 14.126 9.258 13.303 8.781 12.605 8.149 L 12.605 8.866 M 14.345 15.615 L 13.953 15.223 L 12.152 16.533 L 10.251 15.15 C 10.207 15.118 10.164 15.085 10.122 15.051 L 9.733 15.439 C 9.796 15.493 9.861 15.544 9.928 15.593 L 11.903 17.029 C 12.051 17.137 12.252 17.137 12.401 17.029 L 14.345 15.615" transform="matrix(1 0 0 1 0 0)" fill="#FFFFFF" stroke="none" />
  <path d="M 1.107 1.106 L 7.825 1.61 L 5.797 3.637 L 10 7.5 C 9.684 8.051 9.137 8.432 8.51 8.538 L 8.468 8.545 C 8.048 8.616 7.657 8.806 7.343 9.093 L 7.129 9.288 L 3.638 5.797 L 1.611 7.824 L 1.107 1.106" transform="matrix(1 0 0 1 0 0)" fill="#FFFFFF" stroke="none" />
  <path d="M 1.108 23.426 L 7.825 22.923 L 5.798 20.895 L 9.501 17 L 8.931 16.62 C 8.321 16.213 7.828 15.655 7.501 15 L 3.638 18.736 L 1.611 16.709 L 1.108 23.426" transform="matrix(1 0 0 1 0 0)" fill="#FFFFFF" stroke="none" />
  <path d="M 16.219 1.61 L 22.936 1.106 L 22.433 7.824 L 20.406 5.797 L 16.914 9.288 C 16.654 8.791 16.176 8.445 15.623 8.352 L 15.451 8.323 C 15.043 8.254 14.663 8.068 14.357 7.788 L 14.043 7.5 L 18.246 3.637 L 16.219 1.61" transform="matrix(1 0 0 1 0 0)" fill="#FFFFFF" stroke="none" />
  <path d="M 15.44 5 L 12.032 2 L 8.504 5 L 10.444 5 L 12.032 3.828 L 13.5 5 L 15.44 5" transform="matrix(1 0 0 1 0 0)" fill="#FFFFFF" stroke="none" />
  <path d="M 15 19.499 L 12 21.999 L 8.564 19 L 10.504 19 L 12 20.171 L 13.56 19 L 15 19 L 15 19.499" transform="matrix(1 0 0 1 0 0)" fill="#FFFFFF" stroke="none" />
  <path d="M 2 11.999 L 5 8.5 L 5 10.439 L 3.828 11.999 L 5 13.5 L 5 15.439 L 2 11.999" transform="matrix(1 0 0 1 0 0)" fill="#FFFFFF" stroke="none" />
  <path d="M 22.001 11.999 L 19.001 8.5 L 19.001 10.44 L 20.172 11.999 L 19.001 13.528 L 19.001 15 L 19.275 15 L 22.001 11.999" transform="matrix(1 0 0 1 0 0)" fill="#FFFFFF" stroke="none" />
</svg>
