<?xml version="1.0" encoding="UTF-8"?>
<!-- Reconstructed from Amplitude.Graphics.Svg.SvgAsset and recolored from static UIMapper.Color metadata for EWShop; not original source SVG. Live UI state/material colors are not included. -->
<svg xmlns="http://www.w3.org/2000/svg" width="24" height="24" viewBox="0 0 24 24">
  <path d="M 10.452 4.381 C 1.392 15.2 14 17.5 22.816 8.727 C 22.869 8.62 23.032 8.686 22.995 8.798 C 21.475 13.292 16.429 16.255 14 17 C 13.822 17.055 13.884 17.316 14.068 17.286 C 17.203 17.211 21.13 14.55 22.575 11.567 C 22.631 11.451 22.811 11.518 22.773 11.641 C 22.575 15.549 18.494 18.263 14.564 19.321 C 14.484 19.342 14.451 19.435 14.5 19.5 C 14.525 19.533 14.565 19.55 14.606 19.546 C 15.715 19.577 16.563 19.427 17.236 19.183 C 17.351 19.142 17.511 19.374 17.422 19.457 L 16.893 19.945 L 16.444 20.359 C 15.831 20.926 15.087 21.347 14.26 21.465 C 14.175 21.477 14.088 21.489 14 21.5 C 6.593 21.408 4.221 18.35 2.493 15.851 C 2.4 15.716 2.308 15.582 2.216 15.452 C 2.147 15.258 1.944 15.349 1.995 15.549 C 3.989 21.708 6.968 21.997 11.986 22.484 L 12.067 22.492 C 12.214 22.487 12.242 22.696 12.099 22.728 C 6.234 23.78 2.893 22.126 1.5 19 C 0 15.5 -0.5 9 3 5.5 C 5.243 2.536 9.533 1.296 15.727 1 C 15.795 0.997 15.808 1.094 15.742 1.108 C 13.109 1.672 4.012 4.184 3.66 12.035 C 3.44 16.92 8.468 18.764 10.946 19.204 C 11.077 19.228 11.127 19.043 11 19 C 8.825 18.266 7.277 16.426 6.245 14.565 C 5.088 12.478 5.302 9.905 6.619 7.915 C 8.091 5.687 9.416 4.74 10.367 4.275 C 10.435 4.242 10.5 4.323 10.452 4.381 M 12.5 19.5 C 12.226 19.487 12.193 19.131 12.502 19.121 C 12.83 19.124 12.791 19.478 12.5 19.5" transform="matrix(1 0 0 1 0 0)" fill="#FFFFFF" stroke="none" />
  <path d="M 11.127 3.267 C 10.692 3.905 11.485 4.317 11.872 3.686 C 12.324 3.086 11.458 2.722 11.127 3.267" transform="matrix(1 0 0 1 0 0)" fill="#FFFFFF" stroke="none" />
  <path d="M 22.827 1 C 22.923 1 23 1.077 23 1.173 L 23 2.921 C 23 2.972 22.981 3.021 22.946 3.058 C 18.807 7.474 14.717 11.649 12.933 12.399 C 12.923 12.407 12.913 12.41 12.903 12.41 C 12.884 12.41 12.863 12.399 12.843 12.387 C 12.812 12.37 12.799 12.341 12.806 12.301 C 13.218 10.494 16.21 5.845 19.751 1.081 C 19.788 1.03 19.848 1 19.911 1 L 21.453 1 C 21.622 1 21.715 1.197 21.608 1.328 C 19.243 4.226 17.441 6.653 16.322 8.129 C 16.118 8.403 16.224 8.484 16.46 8.236 C 17.834 6.781 20.063 4.094 22.697 1.06 C 22.73 1.022 22.777 1 22.827 1" transform="matrix(1 0 0 1 0 0)" fill="#FFFFFF" stroke="none" />
  <path d="M 9.453 12.567 C 8.206 10.495 9.05 4.014 18.229 2.003 C 18.335 1.98 18.359 2.074 18.255 2.105 C 9.8 4.607 9.447 10.256 9.639 12.496 C 9.65 12.625 9.519 12.677 9.453 12.567" transform="matrix(1 0 0 1 0 0)" fill="#FFFFFF" stroke="none" />
  <path d="M 19.084 19.385 L 23 23 L 21.112 23 L 19.084 21.261 L 17.055 23 L 15.291 23 L 19.084 19.385" transform="matrix(1 0 0 1 0 0)" fill="#FFFFFF" stroke="none" />
</svg>
