<?xml version="1.0" encoding="UTF-8"?>
<!-- Reconstructed from Amplitude.Graphics.Svg.SvgAsset and recolored from static UIMapper.Color metadata for EWShop; not original source SVG. Live UI state/material colors are not included. -->
<svg xmlns="http://www.w3.org/2000/svg" width="24" height="25" viewBox="0 0 24 25">
  <path d="M 10.136 12.973 C 10 13.479 10.258 13.768 10.752 13.92 C 11.186 14.054 11.543 13.585 11.85 13.167 C 11.956 13.023 12.05 12.894 12.149 12.793 C 12.217 12.713 12.307 12.643 12.399 12.572 C 12.438 12.542 12.477 12.512 12.515 12.48 C 12.911 12.177 13.307 11.874 13.017 11.29 C 12.814 10.893 12.377 10.746 11.945 10.812 C 11.402 10.896 10.284 12.451 10.138 12.987 L 10.136 12.973" transform="matrix(1 0 0 1 0 0)" fill="#FFFFFF" stroke="none" />
  <path d="M 9.292 12.674 C 9.323 12.594 9.361 12.512 9.397 12.437 C 9.409 12.413 9.42 12.39 9.43 12.368 C 9.586 11.987 9.732 11.637 9.992 11.283 C 10.055 11.197 10.165 11.086 10.28 10.972 C 10.314 10.937 10.35 10.901 10.384 10.866 C 10.584 10.678 10.77 10.493 10.822 10.371 C 11.138 9.637 9.754 9.265 9.181 9.623 C 8.842 9.832 8.266 10.919 8.199 11.315 C 8.066 12.035 8.471 12.814 9.276 12.663 L 9.292 12.674" transform="matrix(1 0 0 1 0 0)" fill="#FFFFFF" stroke="none" />
  <path d="M 13.226 15.44 C 12.668 15.611 11.91 15.042 12.089 14.444 L 12.087 14.43 C 12.222 14.01 13.41 12.729 13.818 12.595 C 14.349 12.428 15.277 13.085 15.075 13.63 C 14.935 14.022 13.634 15.306 13.226 15.44" transform="matrix(1 0 0 1 0 0)" fill="#FFFFFF" stroke="none" />
  <path d="M 12.977 16.605 C 12.977 16.605 12.777 17.208 13.309 17.598 C 13.841 17.989 14.497 17.533 14.497 17.533 C 14.497 17.533 15.993 16.305 15.588 15.525 C 14.987 14.364 14.06 15.338 13.41 16.022 L 13.385 16.048 C 13.275 16.172 12.977 16.605 12.977 16.605" transform="matrix(1 0 0 1 0 0)" fill="#FFFFFF" stroke="none" />
  <path d="M 13.268 19.876 C 12.516 21.118 9.767 23.244 8.626 23.244 C 7.485 23.244 6.683 22.631 5.276 21.361 C 3.87 20.091 3.531 18.843 3.531 18.843 L 3.864 16.893 C 4.139 15.895 4.472 14.902 4.883 13.955 C 4.921 13.855 4.961 13.762 4.998 13.673 C 5.04 13.573 5.079 13.48 5.111 13.392 L 5.116 13.378 C 5.576 12.235 5.611 12.149 7.155 12.765 C 8.431 13.268 10.197 14.268 11.073 15.332 L 11.107 15.369 C 11.42 15.735 11.838 16.228 11.289 16.555 C 10.427 17.072 8.507 16.467 7.674 15.967 C 7.875 17.277 7.82 18.499 7.37 19.752 L 7.552 19.824 C 7.581 19.734 7.61 19.644 7.673 19.592 C 7.847 19.422 8.07 19.202 8.291 18.969 C 8.818 18.403 9.446 17.75 9.966 17.699 C 10.737 17.609 12.762 17.97 13.436 18.366 C 13.996 18.691 13.581 19.364 13.318 19.79 L 13.313 19.797 L 13.268 19.876" transform="matrix(1 0 0 1 0 0)" fill="#FFFFFF" stroke="none" />
  <path d="M 19.219 5.887 L 21.156 1.001 L 24 2.439 L 19.219 5.887" transform="matrix(1 0 0 1 0 0)" fill="#FFFFFF" stroke="none" />
  <path d="M 18.402 19.504 L 21.544 25 L 23.614 23.417 L 18.402 19.504" transform="matrix(1 0 0 1 0 0)" fill="#FFFFFF" stroke="none" />
  <path d="M 1.811 1.477 L 6.086 6.979 L 1.169 5.001 L 1.811 1.477" transform="matrix(1 0 0 1 0 0)" fill="#FFFFFF" stroke="none" />
  <path d="M 4.531 11.424 C 4.713 11.252 4.947 11.093 5.249 10.991 C 5.81 10.801 6.332 10.909 6.636 10.99 C 6.667 10.999 6.697 11.007 6.729 11.016 C 6.779 10.755 6.878 10.501 6.954 10.323 C 7.046 10.108 7.159 9.881 7.28 9.666 C 7.399 9.453 7.54 9.226 7.692 9.023 C 7.745 8.952 7.821 8.854 7.918 8.748 L 0.563 7.35 L 4.531 11.424" transform="matrix(1 0 0 1 0 0)" fill="#FFFFFF" stroke="none" />
  <path d="M 15.208 18.925 L 18.317 21.376 L 16.977 16.735 C 16.814 17.154 16.566 17.507 16.366 17.758 C 16.148 18.031 15.923 18.26 15.758 18.416 L 15.214 18.853 C 15.214 18.853 15.212 18.881 15.208 18.925" transform="matrix(1 0 0 1 0 0)" fill="#FFFFFF" stroke="none" />
  <path d="M 17.137 16.119 L 23.4 16.364 L 18.137 13.052 L 22.947 9.683 L 15.674 9.251 L 18.591 3.711 L 13.822 7.373 L 12.463 0.92 L 10.582 6.723 L 7.748 4.786 L 8.086 8.58 C 8.176 8.499 8.277 8.419 8.389 8.35 C 8.838 8.07 9.326 7.993 9.694 7.986 C 10.082 7.978 10.486 8.044 10.856 8.181 C 11.203 8.31 11.669 8.557 12.002 9.024 C 12.064 9.112 12.119 9.204 12.166 9.299 C 12.957 9.31 13.865 9.656 14.352 10.606 L 14.357 10.615 L 14.362 10.624 C 14.439 10.782 14.505 10.952 14.551 11.134 C 14.599 11.145 14.646 11.158 14.69 11.171 C 15.041 11.274 15.367 11.448 15.639 11.659 C 15.907 11.866 16.191 12.161 16.384 12.551 C 16.635 13.059 16.676 13.655 16.468 14.186 C 16.659 14.39 16.806 14.616 16.92 14.836 C 17.155 15.29 17.187 15.739 17.137 16.119" transform="matrix(1 0 0 1 0 0)" fill="#FFFFFF" stroke="none" />
</svg>
