<?xml version="1.0" encoding="UTF-8"?>
<!-- Reconstructed from Amplitude.Graphics.Svg.SvgAsset and recolored from static UIMapper.Color metadata for EWShop; not original source SVG. Live UI state/material colors are not included. -->
<svg xmlns="http://www.w3.org/2000/svg" width="24" height="24" viewBox="0 0 24 24">
  <path d="M 9.864 7.759 C 11.639 6.734 13.895 7.291 14.996 8.993 L 15.099 9.161 C 16.157 10.994 15.529 13.338 13.696 14.396 C 11.921 15.421 9.666 14.863 8.565 13.161 L 8.462 12.993 C 7.404 11.161 8.032 8.817 9.864 7.759" transform="matrix(1 0 0 1 0 0)" fill="none" stroke="#FFFFFF" stroke-width="1" />
  <path d="M 14.7 9.391 C 15.631 11.004 15.078 13.066 13.466 13.997 C 11.853 14.928 9.791 14.375 8.86 12.763 C 7.929 11.15 8.482 9.088 10.094 8.157 C 11.707 7.226 13.769 7.779 14.7 9.391 M 12.753 10.515 C 13.064 11.053 12.88 11.74 12.342 12.05 C 11.805 12.361 11.117 12.176 10.807 11.639 C 10.497 11.101 10.681 10.414 11.218 10.104 C 11.756 9.793 12.443 9.978 12.753 10.515" transform="matrix(1 0 0 1 0 0)" fill="#FFFFFF" stroke="none" />
  <path d="M 3.198 15.678 L 1.343 14.611 C 4.006 5.987 12.748 1.371 21.578 4.222 C 21.623 4.529 21.659 4.832 21.687 5.133 L 21.344 5.001 L 20.304 6.326 L 18.33 5.491 L 16.46 7.503 L 18.26 7.111 L 20.663 8.077 L 21.75 6.691 C 21.733 8.205 21.486 9.623 21.047 10.921 L 19.869 8.555 L 17.303 8.706 L 19.231 9.805 L 20.481 12.316 C 17.243 19.106 8.423 21.829 1.207 16.336 L 1.433 15.904 L 3.608 17.155 L 4.986 14.679 L 6.658 14.098 L 4.576 13.202 L 3.198 15.678 M 14.488 15.766 C 17.078 14.271 17.965 10.96 16.47 8.37 C 14.975 5.78 11.664 4.893 9.074 6.388 C 6.484 7.883 5.597 11.195 7.092 13.784 C 8.587 16.374 11.899 17.261 14.488 15.766" transform="matrix(1 0 0 1 0 0)" fill="#FFFFFF" stroke="none" />
  <path d="M 19.084 19.385 L 23.001 23 L 21.113 23 L 19.084 21.261 L 17.055 23 L 15.291 23 L 19.084 19.385" transform="matrix(1 0 0 1 0 0)" fill="#FFFFFF" stroke="none" />
</svg>
