<?xml version="1.0" encoding="UTF-8"?>
<!-- Reconstructed from Amplitude.Graphics.Svg.SvgAsset and recolored from static UIMapper.Color metadata for EWShop; not original source SVG. Live UI state/material colors are not included. -->
<svg xmlns="http://www.w3.org/2000/svg" width="24" height="24" viewBox="0 0 24 24">
  <path d="M 6.5 13 C 6.776 13 7 13.224 7 13.5 L 7 17.5 C 7 17.776 6.776 18 6.5 18 C 6.224 18 6 17.776 6 17.5 L 6 13.5 C 6 13.224 6.224 13 6.5 13" transform="matrix(1 0 0 1 0 0)" fill="#FFFFFF" stroke="none" />
  <path d="M 21.5 12 C 21.776 12 22 12.224 22 12.5 L 22 16.5 C 22 16.776 21.776 17 21.5 17 C 21.224 17 21 16.776 21 16.5 L 21 12.5 C 21 12.224 21.224 12 21.5 12" transform="matrix(1 0 0 1 0 0)" fill="#FFFFFF" stroke="none" />
  <path d="M 2.5 1 C 2.776 1 3 1.224 3 1.5 L 3 5.5 C 3 5.776 2.776 6 2.5 6 C 2.224 6 2 5.776 2 5.5 L 2 1.5 C 2 1.224 2.224 1 2.5 1" transform="matrix(1 0 0 1 0 0)" fill="#FFFFFF" stroke="none" />
  <path d="M 23 7.05 L 20.576 10.2 L 18.435 8.263 L 17.522 16.684 L 18.435 19.842 L 12.5 23 L 14 19 C 15.553 18.474 16.586 16.397 16.5 14.843 C 16.327 11.722 13.722 8.49 12.5 5.7 L 18.435 3 L 23 7.05 M 12.5 5.7 C 11.251 8.551 9.188 11.675 8.896 14.843 C 8.751 16.383 9.54 18.414 11 19 L 12.5 23 L 6.565 19.842 L 6.818 18.965 C 7.494 18.819 8 18.219 8 17.5 L 8 13.5 C 8 12.839 7.572 12.279 6.979 12.079 L 6.565 8.263 L 4.424 10.2 L 2 7.05 L 2.114 6.948 C 2.237 6.981 2.366 7 2.5 7 C 3.328 7 4 6.328 4 5.5 L 4 5.275 L 6.565 3 L 12.5 5.7 M 11.894 9.808 C 14.556 11.346 13.052 12.304 13.334 12.745 C 13.616 13.186 14.385 12.556 14.557 12.5 C 14.467 13.199 14.608 13.619 14.846 14.003 C 15.908 15.746 14.569 17.5 12.694 17.5 C 11.318 17.5 10.078 16.382 10.224 14.843 C 10.284 14.179 10.76 13.515 11.207 12.851 C 11.893 11.802 12.609 10.822 11.894 9.808" transform="matrix(1 0 0 1 0 0)" fill="#FFFFFF" stroke="none" />
  <path d="M 21 2.5 C 21 2.776 20.776 3 20.5 3 C 20.224 3 20 2.776 20 2.5 L 20 1.5 C 20 1.224 20.224 1 20.5 1 C 20.776 1 21 1.224 21 1.5 L 21 2.5" transform="matrix(1 0 0 1 0 0)" fill="#FFFFFF" stroke="none" />
</svg>
