<?xml version="1.0" encoding="UTF-8"?>
<!-- Reconstructed from Amplitude.Graphics.Svg.SvgAsset and recolored from static UIMapper.Color metadata for EWShop; not original source SVG. Live UI state/material colors are not included. -->
<svg xmlns="http://www.w3.org/2000/svg" width="24" height="24" viewBox="0 0 24 24">
  <path d="M 6.094 16.953 C 6.965 18.003 7.672 18.595 8.9 19.129 C 10.696 19.908 11.668 20.21 13.56 19.669 C 15.315 19.168 16.772 18.475 17.921 16.955 L 18.682 18.428 C 18.681 18.84 16.264 21.378 15.768 21.679 C 15.112 22.081 12.578 23.036 11.88 22.999 C 11.249 22.966 9.355 22.263 8.73 21.948 C 7.243 21.199 6.341 19.834 5.3 18.55 L 6.094 16.953" transform="matrix(1 0 0 1 0 0)" fill="#FFFFFF" stroke="none" />
  <path d="M 11.897 11.339 L 12.088 11.408 L 12.278 11.337 L 19.193 8.741 C 18.995 9.126 18.748 9.513 18.497 9.905 C 17.921 10.807 17.324 13.103 17.251 14.128 C 17.237 14.311 17.268 14.646 17.295 14.954 C 17.323 15.266 17.348 15.55 17.324 15.619 C 17.29 15.709 16.304 16.866 16.151 17.012 C 15.471 17.664 12.996 18.717 12.099 18.793 C 10.935 18.891 8.265 17.472 7.425 16.544 C 6.672 15.714 6.687 15.575 6.738 15.089 C 6.758 14.897 6.784 14.652 6.771 14.29 C 6.735 13.255 5.977 10.708 5.323 9.685 C 5.104 9.344 4.897 9.02 4.732 8.726 L 11.897 11.339" transform="matrix(1 0 0 1 0 0)" fill="#FFFFFF" stroke="none" />
  <path d="M 9.317 2.919 C 9.366 3.032 9.701 3.128 9.736 3.197 L 11.512 3.754 L 11.512 9.923 L 5.104 7.587 C 5.273 7.195 5.442 6.8 5.511 6.337 C 5.742 4.816 5.332 3.473 4.908 2.081 C 4.835 1.843 4.762 1.603 4.692 1.361 L 6.484 1.048 L 9.317 2.919" transform="matrix(1 0 0 1 0 0)" fill="#FFFFFF" stroke="none" />
  <path d="M 17.57 1 C 18.379 1.167 19.17 1.365 19.189 1.455 C 18.572 3.551 18.04 5.596 18.801 7.609 L 12.658 9.915 L 12.658 3.63 L 14.246 3.197 L 14.568 2.983 L 17.57 1" transform="matrix(1 0 0 1 0 0)" fill="#FFFFFF" stroke="none" />
  <path d="M 3.653 2.134 C 4.299 4.227 4.977 6.39 3.287 8.177 C 2.908 7.665 1.026 6.974 1.001 6.412 C 0.957 5.415 2.603 2.52 3.653 2.134" transform="matrix(1 0 0 1 0 0)" fill="#FFFFFF" stroke="none" />
  <path d="M 20.363 2.134 C 21.765 3.162 22.534 4.746 23 6.437 C 23.019 6.807 20.973 7.873 20.58 8.173 C 19.121 6.321 19.573 4.176 20.363 2.134" transform="matrix(1 0 0 1 0 0)" fill="#FFFFFF" stroke="none" />
</svg>
