<?xml version="1.0" encoding="UTF-8"?>
<!-- Reconstructed from Amplitude.Graphics.Svg.SvgAsset and recolored from static UIMapper.Color metadata for EWShop; not original source SVG. Live UI state/material colors are not included. -->
<svg xmlns="http://www.w3.org/2000/svg" width="24" height="24" viewBox="0 0 24 24">
  <path d="M 13.099 10.957 L 16.113 10.957 L 16.556 13.57 L 15.834 13.57 L 15.72 13.918 L 15.029 13.745 L 13.709 13.918 L 12.9 17.24 L 13.275 19.283 L 13.709 20.274 L 13.275 20.84 L 10.035 21.512 L 8.053 20.84 L 7.9 18.089 L 7.682 18.329 L 6.034 15.142 L 4.44 15.393 L 4.014 15.142 L 3.818 15.24 L 3.719 15.753 L 2.89 16.233 L 3.01 16.441 L 2.704 16.976 L 2.704 17.2 L 3.228 17.872 L 2.65 17.826 L 2.704 18.746 L 1.787 19.082 L 1.351 18.417 L 1.089 17.958 L 1.165 16.703 L 1.165 16.561 L 1.722 15.24 L 1.427 14.4 L 1.787 13.57 L 2.486 13.374 L 3.283 13.745 L 3.719 13.122 L 5.193 12.74 L 5.946 11.201 L 7.998 11.201 L 7.638 10.957 L 7.322 10.317 L 6.973 9.28 L 7.093 8.352 L 7.442 7.774 L 7.998 7.435 L 8.937 7.271 L 9.68 7.544 L 10.215 7.959 L 10.717 9.28 L 11.164 9.924 L 10.902 10.743 L 10.902 11.027 L 11.164 11.027 L 11.252 10.47 L 12.9 10.557 L 13.099 10.957" transform="matrix(1 0 0 1 0 0)" fill="#FFFFFF" stroke="none" />
  <path d="M 6.129 8.92 L 0.084 10.785 L 2.942 7.987 L 0.467 6.448 L 3.273 5.785 L 1.613 2 L 6.149 4.124 L 6.461 0.003 L 7.949 3.469 L 10.626 1.297 L 9.082 6.147 L 8.647 4.293 L 8.219 6.711 L 7.085 4.362 L 7.117 6.914 L 4.377 5.582 L 6.276 7.596 L 3.772 8.496 L 6.129 8.92" transform="matrix(1 0 0 1 0 0)" fill="#FFFFFF" stroke="none" />
  <path d="M 19.084 21.261 L 17.055 23 L 15.291 23 L 19.083 19.384 L 23 23 L 21.113 23 L 19.084 21.261" transform="matrix(1 0 0 1 0 0)" fill="#FFFFFF" stroke="none" />
  <path d="M 17.46 18.86 L 18.14 18.211 L 15.307 4.323 L 15.844 3.392 L 20.071 2.628 L 19.923 1.888 L 14.685 2.618 L 14.242 3.814 L 17.46 18.86" transform="matrix(1 0 0 1 0 0)" fill="#FFFFFF" stroke="none" />
  <path d="M 18.995 17.396 L 19.067 17.328 L 22.946 20.908 L 23.678 20.595 L 20.268 3.609 L 16.478 4.293 L 16.362 4.494 L 18.995 17.396" transform="matrix(1 0 0 1 0 0)" fill="#FFFFFF" stroke="none" />
</svg>
