<?xml version="1.0" encoding="UTF-8"?>
<!-- Reconstructed from Amplitude.Graphics.Svg.SvgAsset and recolored from static UIMapper.Color metadata for EWShop; not original source SVG. Live UI state/material colors are not included. -->
<svg xmlns="http://www.w3.org/2000/svg" width="24" height="24" viewBox="0 0 24 24">
  <path d="M 15.063 6 C 17.237 6 19 7.746 19 9.9 C 19 15.533 12 19 12 19 C 12 19 5 15.533 5 9.9 C 5 7.746 6.763 6 8.938 6 L 9.168 6.007 C 10.311 6.072 11.323 6.62 12 7.449 C 12.722 6.565 13.826 6 15.063 6" transform="matrix(1 0 0 1 0 0)" fill="#FFFFFF" stroke="none" />
  <path d="M 21.211 5.917 C 21.961 7.059 22.4 8.425 22.4 9.9 C 22.4 13.112 20.912 15.677 19.321 17.518 L 22 22 L 16.859 19.86 C 16.132 20.439 15.451 20.904 14.904 21.248 C 13.963 21.841 12.997 22.3 12 22.794 C 11.002 22.3 10.038 21.842 9.095 21.248 C 8.958 21.162 8.814 21.066 8.661 20.965 L 5.5 23 L 6.567 19.389 C 6.455 19.292 6.342 19.194 6.229 19.093 C 5.345 18.3 4.342 17.249 3.496 15.957 L 1 16.213 L 2.544 14.228 C 1.972 12.954 1.6 11.508 1.6 9.9 C 1.6 8.255 2.144 6.744 3.059 5.529 L 1 1 L 6.151 3.146 C 8.027 2.379 10.16 2.424 12.002 3.268 C 12.935 2.841 13.971 2.6 15.063 2.6 C 16.221 2.6 17.32 2.869 18.299 3.349 L 23 1 L 21.211 5.917 M 3 9.9 L 3.007 10.241 C 3.141 13.741 5.323 16.398 7.164 18.051 C 8.145 18.931 9.117 19.607 9.841 20.063 C 10.548 20.508 11.255 20.863 12 21.231 C 12.744 20.863 13.453 20.508 14.159 20.064 C 14.883 19.608 15.855 18.931 16.836 18.051 C 18.737 16.345 21 13.569 21 9.9 C 21 5.286 15.786 2.578 12 4.848 C 8.248 2.599 3 5.197 3 9.9" transform="matrix(1 0 0 1 0 0)" fill="#FFFFFF" stroke="none" />
</svg>
