<?xml version="1.0" encoding="UTF-8"?>
<!-- Reconstructed from Amplitude.Graphics.Svg.SvgAsset and recolored from static UIMapper.Color metadata for EWShop; not original source SVG. Live UI state/material colors are not included. -->
<svg xmlns="http://www.w3.org/2000/svg" width="24" height="24" viewBox="0 0 24 24">
  <path d="M 19.613 8.598 C 18.494 8.777 17.48 8.419 16.466 8.061 L 16.389 8.034 C 15.401 7.685 14.408 7.334 13.275 7.479 C 12.872 7.539 12.693 7.643 12.529 7.763 C 12.32 7.912 12.126 8.046 11.47 8.031 C 11.291 8.031 10.531 7.867 11.038 7.614 L 12.305 6.987 C 12.902 4.705 11.709 1.842 8.487 2.051 C 5.922 2.752 6.653 4.452 7.399 6.167 C 7.786 7.062 8.174 7.957 8.1 8.702 C 7.354 8.389 6.534 8.941 5.848 9.418 C 5.4 9.731 4.998 10 4.714 9.955 C 4.537 9.928 4.361 9.516 4.184 9.105 L 4.133 8.986 L 4.113 8.94 C 4.002 8.675 3.904 8.442 3.819 8.329 C 3.488 7.888 3.175 7.506 2.9 7.171 C 2.12 6.223 1.654 5.655 1.985 5.181 C 2.105 5.005 2.2 4.848 2.288 4.703 C 2.502 4.35 2.678 4.06 3.089 3.706 C 2.596 2.632 1.135 2.379 0.27 3.199 L 0.24 3.348 C -0.058 4.586 -0.341 5.839 1.12 8.031 C 1.478 8.583 1.732 9.448 1.985 10.313 C 2.239 11.193 2.492 12.073 2.865 12.565 L 7.22 12.565 C 7.593 12.893 7.921 13.519 8.249 14.176 L 8.267 14.21 C 8.783 15.199 9.316 16.22 10.083 16.323 C 10.355 16.359 10.693 16.432 11.067 16.512 C 11.164 16.533 11.264 16.555 11.366 16.577 C 12.284 16.781 13.311 17.007 13.795 16.947 L 10.347 12.491 L 10.749 8.841 L 14.445 9.761 L 15.972 11.71 C 16.016 11.301 16.125 10.983 16.287 10.88 C 16.854 10.865 17.465 10.954 18.077 11.044 L 18.155 11.055 C 19.159 11.201 20.173 11.348 21.06 11.014 C 21.652 10.792 22.068 10.098 22.513 9.358 L 22.521 9.344 C 22.581 9.246 22.642 9.157 22.704 9.067 C 22.813 8.91 22.924 8.75 23.028 8.538 C 23.483 7.615 23.63 6.751 23.46 5.939 C 23.46 5.939 21.466 4.871 21.4 5.301 C 21.375 5.462 21.471 5.661 21.58 5.889 C 21.762 6.266 21.982 6.722 21.746 7.211 C 21.623 7.688 20.352 8.475 19.613 8.598" transform="matrix(1 0 0 1 0 0)" fill="#FFFFFF" stroke="none" />
  <path d="M 11.437 9.948 L 13.701 10.332 L 21.095 19.267 L 22.35 18.232 L 23.235 19.301 L 21.364 20.849 L 23.134 22.988 L 22.064 23.873 L 20.295 21.734 L 18.423 23.283 L 17.539 22.213 L 18.697 21.251 L 11.256 12.26 L 11.437 9.948 M 13.066 11.342 L 20.201 19.963 L 19.586 20.473 L 12.451 11.851 L 12.421 11.22 L 13.066 11.342" transform="matrix(1 0 0 1 0 0)" fill="#FFFFFF" stroke="none" />
  <path d="M 15.636 6.731 C 14.973 6.54 14.229 6.4 13.417 6.46 C 13.482 5.883 13.459 5.288 13.34 4.712 L 18.147 0 L 15.636 6.731" transform="matrix(1 0 0 1 0 0)" fill="#FFFFFF" stroke="none" />
  <path d="M 16.829 13.088 L 16.956 11.907 C 17.416 11.95 17.873 12.026 18.33 12.091 L 22.711 14.823 L 18.684 15.093 L 16.829 13.088" transform="matrix(1 0 0 1 0 0)" fill="#FFFFFF" stroke="none" />
  <path d="M 3.545 2.602 C 3.349 2.386 3.123 2.209 2.877 2.071 L 2.571 0.981 L 5.712 3.553 C 5.559 5.048 6.488 6.353 6.942 7.71 C 6.353 7.875 5.831 8.212 5.333 8.558 C 5.059 7.914 4.668 7.406 4.223 6.862 L 3.744 5.156 C 3.977 4.808 4.227 4.68 4.541 4.41 C 4.253 3.782 4.122 3.028 3.545 2.602" transform="matrix(1 0 0 1 0 0)" fill="#FFFFFF" stroke="none" />
  <path d="M 4.167 13.565 L 6.766 13.565 C 7.346 14.401 7.665 15.377 8.281 16.198 C 8.619 16.65 9.156 17.207 9.949 17.314 L 9.954 17.315 C 10.936 17.443 11.89 17.752 12.871 17.894 L 12.226 22.488 L 10.189 18.821 L 6.188 22.488 L 6.644 16.898 L 2.042 18.105 L 4.167 13.565" transform="matrix(1 0 0 1 0 0)" fill="#FFFFFF" stroke="none" />
</svg>
