<?xml version="1.0" encoding="UTF-8"?>
<!-- Reconstructed from Amplitude.Graphics.Svg.SvgAsset and recolored from static UIMapper.Color metadata for EWShop; not original source SVG. Live UI state/material colors are not included. -->
<svg xmlns="http://www.w3.org/2000/svg" width="24" height="24" viewBox="0 0 24 24">
  <path d="M 5.713 11.375 C 4.823 11.992 4.128 12.936 4.128 14.33 C 4.128 17.908 5.419 20.359 6.155 21.303 L 4.683 23 C 3.457 21.617 1 17.909 1 14.141 C 1 10.551 2.926 8.278 5.713 7.394 L 5.713 11.375 M 14.822 13.084 C 14.9 13.114 14.978 13.132 15.057 13.136 L 16.205 15.77 L 16.901 14.411 C 16.789 18.085 14.422 21.65 13.226 23 L 11.752 21.303 C 12.488 20.359 13.779 17.908 13.779 14.33 C 13.779 14.2 13.771 14.074 13.759 13.951 L 14.822 13.084 M 3.062 17.065 C 2.555 17.066 2.29 17.766 2.29 18.288 C 2.29 18.81 2.85 19.439 3.356 19.44 C 3.863 19.439 4.128 18.81 4.128 18.288 C 4.128 17.766 3.568 17.066 3.062 17.065 M 14.846 17.065 C 14.339 17.065 13.78 17.766 13.779 18.288 C 13.779 18.81 14.044 19.439 14.551 19.44 C 15.057 19.439 15.617 18.81 15.617 18.288 C 15.617 17.766 15.352 17.066 14.846 17.065 M 3.356 10.538 C 2.868 10.408 2.231 11.191 2.102 11.695 C 1.966 12.2 2.19 12.988 2.679 13.119 C 3.174 13.25 3.751 12.674 3.881 12.17 C 4.01 11.671 3.845 10.669 3.356 10.538 M 10.892 9.553 L 9.855 10.801 L 9.767 10.775 C 9.236 10.621 8.677 10.621 8.146 10.775 L 6.968 11.114 C 6.927 11.12 6.892 11.096 6.892 11.055 L 6.892 7.228 L 10.892 9.553" transform="matrix(1 0 0 1 0 0)" fill="#FFFFFF" stroke="none" />
  <path d="M 15.945 4.747 L 17.093 2.08 L 17.816 5.344 L 21.29 3.283 L 19.43 6.589 L 23.001 6.991 L 19.217 9.341 L 22.405 11.458 L 18.771 10.887 L 20.428 15.312 L 17.22 12.178 L 16.263 14.041 L 15.286 11.797 L 11.652 14.761 L 12.905 10.315 L 10.929 10.611 L 12.311 9.575 L 8.315 7.245 L 12.438 7.436 L 11.354 5.15 L 13.947 5.827 L 13.033 1 L 15.945 4.747 M 15.039 7.346 L 14.099 7.101 L 14.492 7.929 L 12.999 7.86 L 14.446 8.703 L 13.946 9.079 L 14.662 8.971 L 14.208 10.581 L 15.523 9.508 L 15.877 10.32 L 16.224 9.646 L 17.401 10.819 L 16.786 9.179 L 18.102 9.385 L 16.947 8.619 L 18.317 7.768 L 17.024 7.622 L 17.363 6.104 L 16.454 7.101 L 16.177 5.989 L 15.762 6.955 L 14.708 5.598 L 15.039 7.346" transform="matrix(1 0 0 1 0 0)" fill="#FFFFFF" stroke="none" />
</svg>
