<?xml version="1.0" encoding="UTF-8"?>
<!-- Reconstructed from Amplitude.Graphics.Svg.SvgAsset and recolored from static UIMapper.Color metadata for EWShop; not original source SVG. Live UI state/material colors are not included. -->
<svg xmlns="http://www.w3.org/2000/svg" width="24" height="24" viewBox="0 0 24 24">
  <path d="M 13.4 16.128 C 13.429 16.126 14.941 16.034 14.941 16.977 C 14.941 17.596 13.212 17.826 11.906 17.986 C 10.718 18.124 9.471 18.274 8.647 18.561 L 9.686 18.811 C 9.831 18.847 9.971 18.883 10.106 18.916 L 10.122 18.92 C 12.086 19.422 12.785 19.6 16.117 18.124 C 17.305 17.596 19.082 16.977 20.235 16.977 C 20.252 16.975 22 16.779 22 18.561 C 21.993 18.561 19.338 18.688 17.317 19.937 C 15.6 21.003 14.624 21.75 13.988 22.243 L 13.976 22.252 C 13.302 22.773 13.009 23 12.588 23 C 12.084 23 11.632 22.949 11.18 22.898 C 11.104 22.89 11.029 22.882 10.953 22.874 L 10.921 22.87 C 9.825 22.745 8.675 22.614 6.706 23 C 5 21.968 2.976 19.26 2 17.551 C 3.176 17.551 4.059 17.196 4.941 16.84 C 5.824 16.484 6.706 16.128 7.883 16.128 L 9.823 16.128 C 9.823 16.128 12.047 16.094 13.4 16.128" transform="matrix(1 0 0 1 0 0)" fill="#FFFFFF" stroke="none" />
  <path d="M 21.5 11 C 21.776 11 22 11.224 22 11.5 L 22 15.5 C 22 15.776 21.776 16 21.5 16 C 21.224 16 21 15.776 21 15.5 L 21 11.5 C 21 11.224 21.224 11 21.5 11" transform="matrix(1 0 0 1 0 0)" fill="#FFFFFF" stroke="none" />
  <path d="M 13.821 6.441 L 19.4 8.217 L 13.821 9.992 L 12 15.434 L 10.179 9.992 L 4.6 8.217 L 10.179 6.441 L 12 1 L 13.821 6.441 M 11.264 7.499 L 9.008 8.217 L 11.264 8.935 L 12 11.135 L 12.736 8.935 L 14.992 8.217 L 12.736 7.499 L 12 5.299 L 11.264 7.499" transform="matrix(1 0 0 1 0 0)" fill="#FFFFFF" stroke="none" />
  <path d="M 6.5 10 C 6.776 10 7 10.224 7 10.5 L 7 14.5 C 7 14.776 6.776 15 6.5 15 C 6.224 15 6 14.776 6 14.5 L 6 10.5 C 6 10.224 6.224 10 6.5 10" transform="matrix(1 0 0 1 0 0)" fill="#FFFFFF" stroke="none" />
  <path d="M 2.5 1 C 2.776 1 3 1.224 3 1.5 L 3 5.5 C 3 5.776 2.776 6 2.5 6 C 2.224 6 2 5.776 2 5.5 L 2 1.5 C 2 1.224 2.224 1 2.5 1" transform="matrix(1 0 0 1 0 0)" fill="#FFFFFF" stroke="none" />
  <path d="M 4 14.5 C 4 14.776 3.776 15 3.5 15 C 3.224 15 3 14.776 3 14.5 L 3 13.5 C 3 13.224 3.224 13 3.5 13 C 3.776 13 4 13.224 4 13.5 L 4 14.5" transform="matrix(1 0 0 1 0 0)" fill="#FFFFFF" stroke="none" />
  <path d="M 17 4.5 C 17 4.776 16.776 5 16.5 5 C 16.224 5 16 4.776 16 4.5 L 16 2.5 C 16 2.224 16.224 2 16.5 2 C 16.776 2 17 2.224 17 2.5 L 17 4.5" transform="matrix(1 0 0 1 0 0)" fill="#FFFFFF" stroke="none" />
  <path d="M 21 2.5 C 21 2.776 20.776 3 20.5 3 C 20.224 3 20 2.776 20 2.5 L 20 1.5 C 20 1.224 20.224 1 20.5 1 C 20.776 1 21 1.224 21 1.5 L 21 2.5" transform="matrix(1 0 0 1 0 0)" fill="#FFFFFF" stroke="none" />
</svg>
