<?xml version="1.0" encoding="UTF-8"?>
<!-- Reconstructed from Amplitude.Graphics.Svg.SvgAsset and recolored from static UIMapper.Color metadata for EWShop; not original source SVG. Live UI state/material colors are not included. -->
<svg xmlns="http://www.w3.org/2000/svg" width="24" height="24" viewBox="0 0 24 24">
  <path d="M 10.706 4.253 L 12 4 L 13.294 4.253 L 13.772 5.332 L 13.575 6.922 L 15.163 7.76 L 16.779 7.76 L 20.066 10.01 L 21.309 13.93 L 23 15.99 L 23 20.564 C 23 20.604 21.873 22.11 21.309 22.859 L 19.734 22.272 L 20.215 20.178 L 21.193 20.178 L 21.309 18.805 L 19.601 17.95 L 19.319 15.337 L 16.667 13.93 L 14.464 15.76 L 15.163 18.805 L 14.036 19.276 C 13.68 19.425 13.341 19.613 13.027 19.836 L 12 20.564 L 11.532 20.179 C 10.987 19.731 10.357 19.398 9.68 19.199 L 9 19 L 9.536 15.76 L 7.333 13.93 L 4.681 15.337 L 4.399 17.95 L 2.691 18.805 L 2.807 20.178 L 3.785 20.178 L 4.266 22.272 L 2.691 22.859 C 2.127 22.11 1 20.604 1 20.564 L 1 15.99 L 2.691 13.93 L 3.934 10.01 L 7.221 7.76 L 8.837 7.76 L 10.425 6.922 L 10.228 5.332 L 10.706 4.253" transform="matrix(1 0 0 1 0 0)" fill="#FFFFFF" stroke="none" />
  <path d="M 2.74 2.793 C 4.852 2.149 8 1 8 1 L 10.448 0 C 8.265 1.699 5.753 2.998 3.045 3.825 L 2.294 4.054 C 1.757 4.218 1.394 4.685 1.394 5.212 L 1.394 13.246 C 1.394 13.367 1.397 13.488 1.402 13.609 L 0.455 14.763 C 0.375 14.265 0.333 13.759 0.333 13.246 L 0.333 5.212 C 0.333 4.16 1.052 3.308 1.989 3.023 L 2.74 2.793" transform="matrix(1 0 0 1 0 0)" fill="#FFFFFF" stroke="none" />
  <path d="M 20.955 3.825 C 18.247 2.998 15.736 1.699 13.552 0 L 16 1 C 16 1 19.149 2.149 21.261 2.793 L 22.012 3.023 C 22.948 3.308 23.667 4.16 23.667 5.212 L 23.667 13.246 C 23.667 13.759 23.626 14.265 23.545 14.763 L 22.598 13.609 C 22.604 13.488 22.606 13.367 22.606 13.246 L 22.606 5.212 C 22.606 4.685 22.243 4.218 21.706 4.054 L 20.955 3.825" transform="matrix(1 0 0 1 0 0)" fill="#FFFFFF" stroke="none" />
  <path d="M 18.956 20.297 L 18.601 21.844 L 16 23.5 L 13.517 24 L 18.635 20.525 C 18.744 20.451 18.851 20.375 18.956 20.297" transform="matrix(1 0 0 1 0 0)" fill="#FFFFFF" stroke="none" />
  <path d="M 8.5 23.5 L 5.399 21.844 L 5.044 20.297 C 5.149 20.375 5.256 20.451 5.365 20.525 L 10.484 24 L 8.5 23.5" transform="matrix(1 0 0 1 0 0)" fill="#FFFFFF" stroke="none" />
  <path d="M 2.916 9.253 L 2.834 9.512 L 2.834 6.667 C 2.834 5.84 3.398 5.171 4.134 4.946 L 4.724 4.766 C 7.009 4.069 9.103 2.925 10.867 1.416 C 11.515 0.861 12.486 0.861 13.133 1.416 C 14.898 2.925 16.992 4.069 19.276 4.766 L 19.866 4.946 C 20.602 5.171 21.167 5.84 21.167 6.667 L 21.167 9.512 L 21.085 9.253 L 20.334 8.739 L 20.334 6.667 C 20.334 6.253 20.048 5.885 19.627 5.757 L 19.036 5.577 C 16.646 4.847 14.45 3.649 12.596 2.063 C 12.259 1.774 11.741 1.774 11.404 2.063 C 9.55 3.649 7.354 4.847 4.964 5.577 L 4.374 5.757 C 3.952 5.885 3.667 6.253 3.667 6.667 L 3.667 8.739 L 2.916 9.253" transform="matrix(1 0 0 1 0 0)" fill="#FFFFFF" stroke="none" />
  <path d="M 18.479 18.73 L 18.371 17.729 C 18.025 18.085 17.638 18.41 17.214 18.698 L 12.223 22.086 C 12.09 22.176 11.91 22.176 11.777 22.086 L 6.787 18.698 C 6.362 18.41 5.975 18.085 5.63 17.729 L 5.522 18.73 L 5.484 18.749 C 5.747 18.982 6.027 19.2 6.324 19.402 L 11.314 22.79 C 11.727 23.07 12.273 23.07 12.686 22.79 L 17.677 19.402 C 17.973 19.2 18.254 18.982 18.517 18.749 L 18.479 18.73" transform="matrix(1 0 0 1 0 0)" fill="#FFFFFF" stroke="none" />
</svg>
