<?xml version="1.0" encoding="UTF-8"?>
<!-- Reconstructed from Amplitude.Graphics.Svg.SvgAsset and recolored from static UIMapper.Color metadata for EWShop; not original source SVG. Live UI state/material colors are not included. -->
<svg xmlns="http://www.w3.org/2000/svg" width="24" height="24" viewBox="0 0 24 24">
  <path d="M 22.406 16.97 C 23.456 14.009 23.537 9.95 19.878 6.279 C 19.786 6.186 19.625 6.259 19.632 6.39 C 19.696 7.574 19.518 9.214 18.189 9.546 C 16.817 9.889 15.445 9.899 3.099 0.862 C 2.961 0.761 2.791 0.947 2.906 1.074 C 6.509 5.044 10.128 9.31 9.35 10.607 C 8.662 11.752 7.465 10.578 6.47 9.526 C 6.359 9.408 6.19 9.534 6.268 9.676 C 6.745 10.542 7.18 11.289 7.567 11.952 C 9.236 14.82 10.001 16.134 9.35 18.739 C 8.289 19.092 7.087 18.597 6.521 18.032 C 5.89 17.4 8.926 24.952 17.397 21.779 C 19.657 20.932 21.6 19.244 22.406 16.97 M 19.109 11.239 C 20.847 12.639 23 17.5 17.999 19.499 C 16 20.5 12 20.5 10.5 15 C 10.538 15.026 10.579 15.054 10.624 15.085 C 11.362 15.593 13.045 16.751 14.93 15.278 C 14.91 15.221 14.891 15.162 14.871 15.104 C 14.454 13.852 13.942 12.316 12 12 C 13.249 11.021 16.112 12.105 17.318 12.971 C 17.318 12.971 18.755 13.879 19.109 11.239" transform="matrix(1 0 0 1 0 0)" fill="#FFFFFF" stroke="none" />
  <path d="M 16.636 0.296 L 16.631 5.377 L 17.087 4.574 L 17.895 8.007 L 18.994 2.857 L 17.511 3.083 L 17.934 1.84 L 16.636 0.296" transform="matrix(1 0 0 1 0 0)" fill="#FFFFFF" stroke="none" />
  <path d="M 0.514 8.717 L 3.997 11.699 L 3.823 10.211 L 5.546 13.389 L 8.003 16.17 L 1.51 11.781 L 2.886 11.984 L 0.514 8.717" transform="matrix(1 0 0 1 0 0)" fill="#FFFFFF" stroke="none" />
  <path d="M 2.691 7.411 L 7.646 8.53 L 6.428 6.923 L 5.122 7.06 L 5.671 5.664 L 4.034 5.999 L 1.034 4.999 L 3.574 7.144 L 2.691 7.411" transform="matrix(1 0 0 1 0 0)" fill="#FFFFFF" stroke="none" />
  <path d="M 14.451 5.198 C 13.777 4.16 12.96 2.902 12.605 2.288 L 9.979 0.813 L 11.715 3.977 L 12.011 3.083 L 13.007 5.066 L 15.48 6.813 C 15.41 6.674 14.973 6.002 14.451 5.198" transform="matrix(1 0 0 1 0 0)" fill="#FFFFFF" stroke="none" />
</svg>
