<?xml version="1.0" encoding="UTF-8"?>
<!-- Reconstructed from Amplitude.Graphics.Svg.SvgAsset and recolored from static UIMapper.Color metadata for EWShop; not original source SVG. Live UI state/material colors are not included. -->
<svg xmlns="http://www.w3.org/2000/svg" width="24" height="24" viewBox="0 0 24 24">
  <path d="M 13 7 L 18 1 L 23 7 L 20 7 L 20 11 L 16 11 L 16 7 L 13 7" transform="matrix(1 0 0 1 0 0)" fill="#FFFFFF" stroke="none" />
  <path d="M 11.049 3.006 L 11.21 3.061 C 11.859 3.265 12.933 3.612 14.051 4.175 L 12.231 6.359 L 10.865 8 L 15 8 L 15 11.294 L 14.355 10.828 C 13.934 10.528 13.453 10.368 12.952 10.368 L 9.048 10.368 C 8.547 10.368 8.066 10.528 7.646 10.828 L 6.234 11.847 C 6.152 11.907 6.152 12.033 6.235 12.093 L 7.766 13.191 C 8.086 13.412 8.487 13.552 8.888 13.552 L 8.936 13.552 C 8.943 13.552 8.951 13.552 8.959 13.554 C 9.193 13.598 9.368 13.776 9.368 14.012 L 9.368 20.419 C 9.368 20.794 9.018 21.071 8.645 20.984 C 8.633 20.982 8.62 20.98 8.608 20.978 C 8.579 20.973 8.532 20.961 8.527 20.96 L 6.765 20.319 L 4.142 19.558 C 3.745 19.439 3.289 19.163 3.105 18.827 C 3.102 18.82 3.097 18.814 3.093 18.808 C 3.037 18.728 3 18.612 3 18.497 C 3 18.417 3 18.316 3.04 18.236 C 3.06 18.197 3.08 18.177 3.1 18.137 C 3.219 17.819 3.358 17.402 3.497 16.945 C 3.499 16.939 3.501 16.932 3.502 16.925 C 3.719 15.533 3.721 13.46 3.721 13.432 L 3.721 9.947 C 3.701 5.363 8.967 3.641 10.81 3.061 L 10.971 3.006 C 10.983 3.002 10.997 3 11.01 3 C 11.023 3 11.036 3.002 11.049 3.006 M 18.299 13.432 C 18.299 13.46 18.301 15.544 18.52 16.936 C 18.639 17.412 18.797 17.81 18.917 18.129 C 18.918 18.132 18.916 18.137 18.912 18.137 C 18.908 18.137 18.906 18.142 18.909 18.146 C 18.928 18.165 18.954 18.195 18.959 18.226 C 18.96 18.233 18.962 18.24 18.965 18.246 C 19 18.324 19 18.42 19 18.497 C 19 18.597 18.96 18.717 18.9 18.817 C 18.72 19.158 18.279 19.438 17.858 19.558 L 15.235 20.319 L 13.503 20.948 C 13.483 20.955 13.466 20.969 13.445 20.975 C 13.43 20.979 13.412 20.979 13.393 20.98 C 13.38 20.98 13.367 20.981 13.355 20.984 C 13 21.07 12.632 20.793 12.632 20.419 L 12.632 14.012 C 12.632 13.776 12.807 13.598 13.041 13.554 C 13.049 13.552 13.057 13.552 13.065 13.552 L 13.112 13.552 C 13.513 13.552 13.914 13.432 14.234 13.191 L 15.765 12.093 C 15.797 12.07 15.816 12.036 15.823 12 L 18.299 12 L 18.299 13.432" transform="matrix(1 0 0 1 0 0)" fill="#FFFFFF" stroke="none" />
</svg>
