<?xml version="1.0" encoding="UTF-8"?>
<!-- Reconstructed from Amplitude.Graphics.Svg.SvgAsset and recolored from static UIMapper.Color metadata for EWShop; not original source SVG. Live UI state/material colors are not included. -->
<svg xmlns="http://www.w3.org/2000/svg" width="24" height="24" viewBox="0 0 24 24">
  <path d="M 17.491 11.34 L 18.447 14.567 C 18.699 13.613 18.814 12.765 18.825 12.01 C 18.846 10.963 18.762 9.957 18.583 8.993 L 17.407 10.376 C 17.449 10.732 17.47 11.057 17.491 11.34" transform="matrix(1 0 0 1 0 0)" fill="#FFFFFF" stroke="none" />
  <path d="M 19.434 5.054 L 14.383 7.537 L 13.113 6.29 L 12.766 6.772 C 11.968 7.904 11.38 9.14 11.002 10.429 L 14.026 10.429 L 14.142 10.209 L 14.992 12.503 L 14.362 13.749 L 13.249 11.969 L 13.302 11.864 L 13.092 11.476 L 10.845 11.047 C 10.603 12.115 10.509 13.226 10.572 14.336 C 10.572 14.357 10.572 14.368 10.593 14.378 L 14.089 17.06 C 14.278 17.196 14.383 17.427 14.383 17.647 L 14.383 18.359 C 14.383 18.642 14.551 18.914 14.835 19.04 L 16.21 19.658 C 16.599 19.826 17.04 19.669 17.229 19.312 L 18.027 17.741 C 18.1 17.573 18.121 17.374 18.069 17.196 L 18.058 17.196 L 16.021 10.313 L 19.413 6.301 L 19.413 5.054 L 19.434 5.054" transform="matrix(1 0 0 1 0 0)" fill="#FFFFFF" stroke="none" />
  <path d="M 18.458 19.333 L 18.237 19.763 C 17.786 20.643 16.694 20.999 15.77 20.601 L 14.394 19.983 C 14.352 19.962 14.321 19.951 14.279 19.931 C 13.428 20.538 12.473 20.915 11.633 20.915 C 8.535 20.915 5.732 15.782 5.732 12 C 5.732 9.025 7.401 6.469 10.257 5.735 C 8.882 5.306 7.034 6.542 6.74 6.919 C 7.475 4.845 9.795 3.085 11.612 3.085 C 13.691 3.085 15.045 4.174 15.927 5.599 L 17.198 4.97 C 15.864 2.55 13.848 1 11.622 1 C 8.399 1 5.018 1.608 3.128 3.996 C 1.679 5.819 1.49 7.705 1.5 10.083 C 3.317 3.2 7.244 3.891 6.257 5.62 C 4.976 8.302 4.451 10.324 4.419 12 C 4.346 17.992 7.643 23 11.612 23 C 16.484 23 19.508 20.915 20.778 18.988 C 21.744 16.997 22.511 15.373 22.49 13.006 C 21.692 15.95 19.823 18.328 18.447 19.333 L 18.458 19.333" transform="matrix(1 0 0 1 0 0)" fill="#FFFFFF" stroke="none" />
  <path d="M 10.709 15.803 C 10.541 15.855 10.352 15.876 10.163 15.866 C 9.176 15.803 8.556 13.729 8.966 10.974 C 9.186 9.549 9.596 8.281 10.079 7.391 C 10.016 7.464 9.942 7.548 9.879 7.632 C 9.165 8.47 8.063 9.79 7.811 11.466 C 7.391 14.211 8.105 16.652 9.564 16.756 C 10.247 16.798 10.73 16.505 11.108 16.086 L 10.73 15.793 L 10.709 15.803" transform="matrix(1 0 0 1 0 0)" fill="#FFFFFF" stroke="none" />
</svg>
