<?xml version="1.0" encoding="UTF-8"?>
<!-- Reconstructed from Amplitude.Graphics.Svg.SvgAsset and recolored from static UIMapper.Color metadata for EWShop; not original source SVG. Live UI state/material colors are not included. -->
<svg xmlns="http://www.w3.org/2000/svg" width="24" height="24" viewBox="0 0 24 24">
  <path d="M 9.554 15.228 L 9.554 9.682 C 9.554 9.318 9.788 8.996 10.134 8.882 L 10.618 8.724 C 12.578 8.083 14.379 7.031 15.899 5.637 C 16.176 5.383 16.6 5.383 16.877 5.637 C 18.398 7.031 20.198 8.083 22.159 8.724 L 22.643 8.882 C 22.989 8.996 23.223 9.318 23.223 9.682 L 23.223 15.228 C 23.223 17.216 22.272 19.083 20.664 20.253 L 16.571 23.229 C 16.462 23.309 16.314 23.309 16.205 23.229 L 12.113 20.253 C 10.505 19.083 9.554 17.216 9.554 15.228 M 15.608 7.324 C 14.49 8.323 13.177 9.08 11.751 9.546 L 11.374 9.67 C 10.922 9.817 10.617 10.239 10.617 10.714 L 10.617 15.038 C 10.617 16.078 10.923 17.08 11.477 17.928 L 12.119 17.286 C 11.721 16.615 11.502 15.84 11.502 15.038 L 11.502 10.714 C 11.502 10.622 11.561 10.54 11.649 10.511 L 12.027 10.388 C 13.324 9.963 14.536 9.316 15.608 8.478 L 15.608 7.324 M 17.121 8.44 C 18.204 9.297 19.433 9.957 20.75 10.388 L 21.128 10.511 C 21.215 10.54 21.275 10.622 21.275 10.714 L 21.275 15.038 C 21.275 16 20.96 16.922 20.398 17.674 L 21.03 18.306 C 21.754 17.385 22.16 16.237 22.16 15.038 L 22.16 10.714 C 22.16 10.239 21.855 9.817 21.403 9.67 L 21.025 9.546 C 19.579 9.073 18.249 8.301 17.121 7.281 L 17.121 8.44 M 19.934 19.349 L 19.3 18.716 L 16.388 20.833 L 13.315 18.598 C 13.244 18.546 13.175 18.493 13.107 18.437 L 12.479 19.066 C 12.58 19.152 12.685 19.235 12.794 19.314 L 15.986 21.635 C 16.226 21.81 16.551 21.81 16.791 21.635 L 19.934 19.349" transform="matrix(1 0 0 1 0 0)" fill="#FFFFFF" stroke="none" />
  <path d="M 6.644 0.712 L 7.414 4.677 L 11.378 5.447 L 7.414 6.217 L 6.644 10.182 L 5.873 6.217 L 1.909 5.447 L 5.873 4.677 L 6.644 0.712" transform="matrix(1 0 0 1 0 0)" fill="#FFFFFF" stroke="none" />
  <path d="M 4.133 7.924 L 4.679 10.734 L 7.488 11.279 L 4.679 11.825 L 4.133 14.635 L 3.587 11.825 L 0.777 11.279 L 3.587 10.734 L 4.133 7.924" transform="matrix(1 0 0 1 0 0)" fill="#FFFFFF" stroke="none" />
</svg>
