<?xml version="1.0" encoding="UTF-8"?>
<!-- Reconstructed from Amplitude.Graphics.Svg.SvgAsset and recolored from static UIMapper.Color metadata for EWShop; not original source SVG. Live UI state/material colors are not included. -->
<svg xmlns="http://www.w3.org/2000/svg" width="24" height="24" viewBox="0 0 24 24">
  <path d="M 1 4 C 3.444 3.778 13.162 3 14 3 L 14 5 L 1 4" transform="matrix(1 0 0 1 0 0)" fill="#FFFFFF" stroke="none" />
  <path d="M 1 8 C 1.854 7.892 3.159 7.651 4.342 7.433 C 5.585 7.204 6.693 7 7 7 L 7 9 L 1 8" transform="matrix(1 0 0 1 0 0)" fill="#FFFFFF" stroke="none" />
  <path d="M 6.822 12.402 C 4.984 12.612 2.858 12.855 1 13 L 11 14 L 11 12 C 10.337 12 8.735 12.183 6.822 12.402" transform="matrix(1 0 0 1 0 0)" fill="#FFFFFF" stroke="none" />
  <path d="M 1 18.5 C 1.416 18.46 2.119 18.386 2.87 18.306 C 4.228 18.161 5.743 18 6 18 L 6 19 L 1 18.5" transform="matrix(1 0 0 1 0 0)" fill="#FFFFFF" stroke="none" />
  <path d="M 4.925 22.173 C 3.747 22.292 2.292 22.439 1 22.5 L 7 23 L 7 22 C 6.643 22 5.874 22.078 4.925 22.173" transform="matrix(1 0 0 1 0 0)" fill="#FFFFFF" stroke="none" />
  <path d="M 4.25 15.822 C 4.428 16.026 6.39 17.574 6.532 17.585 C 6.928 17.528 7.24 17.027 7.62 16.871 C 8.545 16.49 9.136 16.553 10.09 16.501 C 10.717 16.468 11.594 16.492 12.211 16.443 C 11.881 17.429 11.124 19.059 10.256 19.644 C 9.945 19.854 9.641 19.864 9.354 20.016 C 9.234 20.078 8.179 19.438 8.026 19.472 C 7.485 19.589 6.771 20.016 6.771 20.016 L 9.882 22.082 C 10.025 22.073 10.948 20.287 11.24 20.016 C 11.533 19.745 12.75 19.342 13.192 18.951 C 13.75 18.458 13.903 17.346 14.272 17.107 C 14.492 16.964 15.002 16.916 15.339 16.871 C 16.253 16.746 17.477 17.145 18.079 17.014 C 18.264 16.973 18.873 16.849 19.516 16.566 C 20.906 15.953 21.933 14.599 22.519 13.198 C 23.532 10.777 22.928 7.576 20.864 6.095 C 21.428 2.709 19.557 1.001 17.419 2.823 C 17.24 3.168 16.928 4.357 17.108 5.049 C 17.214 5.461 17.228 5.815 17.283 5.897 C 17.382 6.07 19.559 5.962 18.775 6.695 C 17.341 6.53 15.742 7.506 14.364 7.574 C 13.719 7.606 12.797 7.292 12.154 7.26 C 11.001 7.203 9.843 7.346 8.696 7.149 L 7.955 8.103 L 8.153 8.449 L 8.705 8.387 C 9.574 7.644 9.949 8.265 10.673 8.377 C 13.157 8.767 14.333 8.873 16.841 8.862 C 16.841 8.862 16.906 9.119 16.479 9.249 C 16.026 9.386 15.52 9.5 15.136 9.569 C 14.403 9.701 13.071 9.798 12.185 9.826 C 11.396 9.851 10.718 9.326 10.195 10.455 C 10.759 11.482 11.578 10.354 12.201 10.398 C 13.341 10.475 14.364 10.946 15.515 10.835 C 16.666 10.724 17.804 10.342 18.929 10.12 C 18.912 10.802 19.089 11.036 18.753 11.657 C 18.436 12.242 17.421 13.239 17.108 13.747 C 16.363 14.46 14.722 13.636 13.466 13.851 C 12.032 14.097 10.268 15.478 8.746 15.674 C 8.373 15.723 6.77 15.979 6.532 15.943 C 6.181 15.891 4.217 14.912 4.004 15.124 C 3.976 15.376 4.09 15.636 4.249 15.819 L 4.25 15.822" transform="matrix(1 0 0 1 0 0)" fill="#FFFFFF" stroke="none" />
</svg>
