<?xml version="1.0" encoding="UTF-8"?>
<!-- Reconstructed from Amplitude.Graphics.Svg.SvgAsset and recolored from static UIMapper.Color metadata for EWShop; not original source SVG. Live UI state/material colors are not included. -->
<svg xmlns="http://www.w3.org/2000/svg" width="24" height="24" viewBox="0 0 24 24">
  <path d="M 19.802 17.656 L 21.851 17.097 L 21.508 19.192 L 22.673 20.967 L 20.574 21.289 L 19.246 22.945 L 18.292 21.049 L 16.306 20.298 L 17.815 18.804 L 17.915 16.683 L 19.802 17.656" transform="matrix(1 0 0 1 0 0)" fill="#FFFFFF" stroke="none" />
  <path d="M 4.413 2.888 L 5.869 2.49 L 5.625 3.979 L 6.453 5.241 L 4.962 5.47 L 4.018 6.647 L 3.34 5.299 L 1.928 4.766 L 3 3.704 L 3.072 2.196 L 4.413 2.888" transform="matrix(1 0 0 1 0 0)" fill="#FFFFFF" stroke="none" />
  <path d="M 11.821 17.258 L 13.906 19.323 L 11.161 20.361 L 9.842 22.982 L 8.006 20.692 L 5.106 20.248 L 6.716 17.795 L 6.242 14.898 L 9.073 15.672 L 11.682 14.326 L 11.821 17.258" transform="matrix(1 0 0 1 0 0)" fill="#FFFFFF" stroke="none" />
  <path d="M 10.589 7.368 L 10.781 7.94 C 10.643 8.023 10.506 8.106 10.368 8.191 C 7.642 9.889 5.507 11.875 4.247 13.673 C 3.616 14.574 3.233 15.387 3.078 16.061 C 2.926 16.728 3.011 17.185 3.204 17.495 C 3.397 17.805 3.77 18.084 4.437 18.241 C 4.654 18.292 4.895 18.326 5.157 18.346 L 4.49 19.362 C 3.018 19.334 1.9 18.9 1.355 18.024 C -0.137 15.628 3.215 10.846 8.84 7.343 L 9.367 7.022 C 9.464 6.965 9.562 6.91 9.659 6.854 L 10.589 7.368" transform="matrix(1 0 0 1 0 0)" fill="#FFFFFF" stroke="none" />
  <path d="M 18.912 4.011 C 20.72 3.906 22.101 4.331 22.728 5.337 L 22.794 5.451 C 24.115 7.882 20.781 12.571 15.243 16.02 L 14.716 16.34 C 14.201 16.646 13.684 16.927 13.172 17.189 L 12.801 16.82 L 12.749 15.744 C 13.07 15.562 13.393 15.371 13.715 15.171 C 16.441 13.473 18.575 11.488 19.835 9.689 C 20.466 8.789 20.849 7.976 21.003 7.303 C 21.156 6.635 21.072 6.176 20.879 5.866 C 20.686 5.556 20.312 5.279 19.646 5.121 C 19.425 5.069 19.179 5.034 18.911 5.015 C 18.621 5.033 18.313 5.066 17.988 5.116 C 17.597 5.177 17.189 5.26 16.766 5.366 L 16.583 4.975 L 16.851 4.127 C 17.597 4.012 18.29 3.972 18.912 4.011" transform="matrix(1 0 0 1 0 0)" fill="#FFFFFF" stroke="none" />
  <path d="M 13.769 2.949 L 16.273 2.64 L 15.513 5.046 L 16.581 7.332 L 14.058 7.353 L 12.214 9.075 L 11.414 6.682 L 9.206 5.461 L 11.236 3.961 L 11.715 1.483 L 13.769 2.949" transform="matrix(1 0 0 1 0 0)" fill="#FFFFFF" stroke="none" />
</svg>
