<?xml version="1.0" encoding="UTF-8"?>
<!-- Reconstructed from Amplitude.Graphics.Svg.SvgAsset and recolored from static UIMapper.Color metadata for EWShop; not original source SVG. Live UI state/material colors are not included. -->
<svg xmlns="http://www.w3.org/2000/svg" width="24" height="24" viewBox="0 0 24 24">
  <path d="M 11.5 15.12 C 11.5 14.69 11.43 11.54 9.72 10.07 C 9.67 10.02 7.47 11.62 7.47 11.62 L 8.05 7.45 C 8.05 7.45 7.24 7.01 6.5 7.01 C 5.57 7.01 4.96 7.45 4.96 7.45 L 5.54 11.62 C 5.54 11.62 3.39 10.07 3.3 10.07 C 1.6 11.72 1.52 14.57 1.5 15.1 C 1.5 15.13 1.5 15.16 1.5 15.17 C 3.41 17.22 1.74 19.46 1.63 19.6 C 1.63 19.6 2.93 20.3 4.29 23 L 4.29 20.75 C 4.29 20.75 3.59 19.75 3.5 19.37 L 3.5 19.34 C 3.46 19.13 3.37 18.56 4.01 18.05 C 4.02 18.04 4.05 18.02 4.07 18 C 4.14 17.94 4.25 17.87 4.26 17.81 C 4.27 17.74 4.29 17.43 4.31 17.22 C 4.34 16.98 3.29 15.76 2.86 15.25 C 2.81 15.19 2.77 15.15 2.74 15.11 C 2.46 14.75 2.83 13.94 3.15 14.02 C 3.15 14.02 5.75 14.52 5.81 14.58 C 6.29 15.06 5.91 17.08 5.86 17.34 L 5.86 17.36 L 6.49 18.09 L 7.13 17.36 C 7.09 17.24 6.67 15.08 7.17 14.58 C 7.21 14.55 9.46 13.96 9.97 14.04 C 10.24 14.17 10.52 14.81 10.24 15.11 L 10.22 15.14 C 10 15.41 8.68 17.06 8.68 17.17 C 8.68 17.38 8.72 17.74 8.74 17.81 C 8.75 17.9 8.88 17.98 8.96 18.03 L 8.98 18.03 L 9 18.05 C 9.66 18.57 9.55 19.2 9.5 19.37 C 9.44 19.6 9.2 20.12 8.72 20.75 L 8.72 23 C 10.19 20.34 11.37 19.6 11.37 19.6 C 11.28 19.45 10.02 17.45 11.49 15.16 L 11.49 15.12 L 11.5 15.12" transform="matrix(1 0 0 1 0 0)" fill="#FFFFFF" stroke="none" />
  <path d="M 20.31 4.64 L 20.31 9.38 L 22.5 9.02 L 19.33 13 L 15.93 9.02 L 18.12 9.37 L 18.12 4.64 L 20.31 4.64" transform="matrix(1 0 0 1 0 0)" fill="#FFFFFF" stroke="none" />
  <path d="M 14.28 1.01 C 16.09 1.01 17.671 2 18.481 3.47 L 16.5 3.47 C 15.93 2.92 15.15 2.59 14.29 2.59 C 12.52 2.59 11.1 4 11.1 5.75 C 11.1 7.5 12.52 8.91 14.29 8.91 L 14.28 8.92 C 14.47 8.92 14.65 8.9 14.83 8.87 L 15.9 10.22 C 15.391 10.4 14.85 10.49 14.28 10.49 C 11.63 10.49 9.49 8.38 9.49 5.75 C 9.49 3.12 11.62 1.01 14.28 1.01" transform="matrix(1 0 0 1 0 0)" fill="#FFFFFF" stroke="none" />
  <path d="M 14.29 3.72 C 15.42 3.72 16.34 4.63 16.34 5.75 C 16.34 6.87 15.42 7.78 14.29 7.78 C 13.16 7.78 12.24 6.87 12.24 5.75 C 12.24 4.63 13.16 3.72 14.29 3.72" transform="matrix(1 0 0 1 0 0)" fill="#FFFFFF" stroke="none" />
</svg>
