<?xml version="1.0" encoding="UTF-8"?>
<!-- Reconstructed from Amplitude.Graphics.Svg.SvgAsset and recolored from static UIMapper.Color metadata for EWShop; not original source SVG. Live UI state/material colors are not included. -->
<svg xmlns="http://www.w3.org/2000/svg" width="24" height="24" viewBox="0 0 24 24">
  <path d="M 12.031 4.004 L 12.132 4.037 C 13.284 4.392 16.574 5.444 16.562 8.246 L 16.562 10.375 C 16.562 10.388 16.565 10.859 16.596 11.417 C 16.014 11.639 15.316 11.955 14.666 12.398 C 14.055 12.814 13.445 13.374 13.02 14.102 L 13.02 10.73 C 13.021 10.585 13.129 10.476 13.275 10.449 C 13.28 10.448 13.285 10.448 13.29 10.448 L 13.32 10.448 C 13.571 10.448 13.821 10.374 14.021 10.228 L 14.979 9.557 C 15.03 9.52 15.03 9.443 14.979 9.406 L 14.097 8.784 C 13.834 8.601 13.533 8.503 13.221 8.503 L 10.78 8.503 C 10.467 8.503 10.166 8.601 9.903 8.784 L 9.021 9.406 C 8.97 9.443 8.97 9.52 9.021 9.557 L 9.978 10.228 C 10.179 10.362 10.429 10.448 10.68 10.448 L 10.71 10.448 C 10.715 10.448 10.72 10.448 10.725 10.449 C 10.871 10.476 10.98 10.585 10.98 10.73 L 10.98 14.084 C 10.556 13.365 9.952 12.81 9.347 12.398 C 8.697 11.955 7.998 11.639 7.416 11.417 C 7.447 10.859 7.45 10.388 7.45 10.375 L 7.45 8.246 C 7.438 5.444 10.729 4.392 11.881 4.037 L 11.981 4.004 C 11.989 4.001 11.998 4 12.006 4 C 12.014 4 12.023 4.001 12.031 4.004" transform="matrix(1 0 0 1 0 0)" fill="#FFFFFF" stroke="none" />
  <path d="M 6.03 12.004 L 6.132 12.037 C 7.284 12.392 10.574 13.445 10.562 16.246 L 10.562 18.375 C 10.562 18.397 10.563 19.667 10.699 20.516 C 10.774 20.807 10.873 21.051 10.948 21.246 C 10.949 21.248 10.947 21.25 10.945 21.25 C 10.943 21.25 10.941 21.254 10.943 21.256 C 10.955 21.268 10.972 21.286 10.975 21.305 C 10.975 21.309 10.976 21.314 10.978 21.317 C 11 21.365 11 21.424 11 21.471 C 11 21.532 10.975 21.605 10.938 21.666 C 10.825 21.874 10.55 22.046 10.287 22.119 L 8.647 22.584 L 7.564 22.969 C 7.552 22.973 7.541 22.981 7.528 22.984 C 7.519 22.987 7.507 22.987 7.495 22.987 C 7.487 22.987 7.479 22.989 7.472 22.99 C 7.25 23.043 7.02 22.873 7.02 22.645 L 7.02 18.73 C 7.02 18.585 7.129 18.476 7.275 18.449 C 7.28 18.448 7.285 18.448 7.29 18.448 L 7.32 18.448 C 7.571 18.448 7.821 18.374 8.021 18.228 L 8.979 17.557 C 9.03 17.52 9.03 17.443 8.979 17.406 L 8.097 16.784 C 7.834 16.601 7.533 16.503 7.221 16.503 L 4.779 16.503 C 4.467 16.503 4.166 16.601 3.903 16.784 L 3.021 17.406 C 2.97 17.443 2.97 17.52 3.021 17.557 L 3.979 18.228 C 4.179 18.362 4.429 18.448 4.68 18.448 L 4.71 18.448 C 4.715 18.448 4.72 18.448 4.725 18.449 C 4.871 18.476 4.98 18.585 4.98 18.73 L 4.98 22.645 C 4.98 22.873 4.762 23.043 4.528 22.99 C 4.521 22.989 4.513 22.988 4.506 22.986 C 4.487 22.983 4.454 22.976 4.454 22.976 L 3.353 22.584 L 1.713 22.119 C 1.465 22.047 1.182 21.878 1.066 21.673 C 1.064 21.669 1.061 21.664 1.059 21.66 C 1.023 21.612 1 21.541 1 21.471 C 1 21.422 1 21.361 1.025 21.312 C 1.038 21.287 1.05 21.275 1.063 21.25 C 1.137 21.056 1.224 20.801 1.311 20.523 C 1.312 20.518 1.313 20.514 1.313 20.51 C 1.449 19.661 1.45 18.397 1.45 18.375 L 1.45 16.246 C 1.438 13.444 4.729 12.392 5.881 12.037 L 5.981 12.004 C 5.989 12.001 5.998 12 6.006 12 C 6.014 12 6.022 12.001 6.03 12.004" transform="matrix(1 0 0 1 0 0)" fill="#FFFFFF" stroke="none" />
  <path d="M 18.03 12.004 L 18.132 12.037 C 19.284 12.392 22.574 13.445 22.562 16.246 L 22.562 18.375 C 22.562 18.397 22.563 19.667 22.699 20.516 C 22.774 20.807 22.873 21.051 22.948 21.246 C 22.949 21.248 22.947 21.25 22.945 21.25 C 22.943 21.25 22.941 21.254 22.943 21.256 C 22.955 21.268 22.972 21.286 22.975 21.305 C 22.975 21.309 22.976 21.314 22.978 21.317 C 23 21.365 23 21.424 23 21.471 C 23 21.532 22.975 21.605 22.938 21.666 C 22.825 21.874 22.55 22.046 22.287 22.119 L 20.648 22.584 L 19.565 22.969 C 19.552 22.973 19.541 22.981 19.528 22.984 C 19.519 22.987 19.507 22.987 19.495 22.987 C 19.487 22.987 19.479 22.989 19.472 22.99 C 19.25 23.043 19.02 22.873 19.02 22.645 L 19.02 18.73 C 19.02 18.585 19.129 18.476 19.275 18.449 C 19.28 18.448 19.285 18.448 19.29 18.448 L 19.32 18.448 C 19.571 18.448 19.821 18.374 20.022 18.228 L 20.979 17.557 C 21.03 17.52 21.03 17.443 20.979 17.406 L 20.097 16.784 C 19.834 16.601 19.534 16.503 19.221 16.503 L 16.779 16.503 C 16.467 16.503 16.166 16.601 15.903 16.784 L 15.022 17.406 C 14.97 17.443 14.97 17.52 15.022 17.557 L 15.979 18.228 C 16.179 18.362 16.429 18.448 16.68 18.448 L 16.71 18.448 C 16.715 18.448 16.72 18.448 16.725 18.449 C 16.871 18.476 16.98 18.585 16.981 18.73 L 16.981 22.645 C 16.981 22.873 16.762 23.043 16.528 22.99 C 16.521 22.989 16.513 22.988 16.506 22.986 C 16.487 22.983 16.454 22.976 16.454 22.976 L 15.353 22.584 L 13.713 22.119 C 13.465 22.047 13.182 21.878 13.066 21.673 C 13.064 21.669 13.061 21.664 13.059 21.66 C 13.024 21.612 13 21.541 13 21.471 C 13 21.422 13 21.361 13.025 21.312 C 13.038 21.287 13.05 21.275 13.063 21.25 C 13.137 21.056 13.224 20.801 13.311 20.523 C 13.312 20.518 13.313 20.514 13.314 20.51 C 13.449 19.661 13.45 18.397 13.45 18.375 L 13.45 16.246 C 13.438 13.444 16.729 12.392 17.881 12.037 L 17.981 12.004 C 17.989 12.001 17.998 12 18.006 12 C 18.014 12 18.023 12.001 18.03 12.004" transform="matrix(1 0 0 1 0 0)" fill="#FFFFFF" stroke="none" />
  <path d="M 7.116 2.003 L 7.198 2.03 C 7.825 2.224 9.228 2.67 10.093 3.623 C 9.634 3.823 9.137 4.077 8.666 4.397 C 8.177 4.73 7.689 5.155 7.296 5.684 L 6.093 5.684 C 5.837 5.684 5.591 5.764 5.376 5.914 L 4.654 6.423 C 4.612 6.453 4.612 6.516 4.654 6.546 L 5.438 7.096 C 5.601 7.206 5.806 7.275 6.011 7.275 L 6.035 7.275 C 6.039 7.275 6.043 7.276 6.047 7.276 C 6.167 7.298 6.257 7.388 6.257 7.506 L 6.257 10.709 C 6.257 10.896 6.078 11.036 5.887 10.992 C 5.881 10.991 5.874 10.989 5.868 10.988 C 5.852 10.986 5.826 10.98 5.826 10.98 L 4.925 10.659 L 3.584 10.279 C 3.381 10.22 3.148 10.082 3.054 9.914 C 3.052 9.911 3.05 9.907 3.048 9.903 C 3.019 9.863 3 9.806 3 9.748 C 3 9.708 3 9.658 3.021 9.618 C 3.031 9.598 3.041 9.588 3.051 9.568 C 3.112 9.409 3.183 9.201 3.254 8.973 C 3.255 8.969 3.256 8.965 3.257 8.962 C 3.368 8.266 3.368 7.23 3.368 7.216 L 3.368 5.474 C 3.358 3.182 6.051 2.321 6.993 2.03 L 7.076 2.003 C 7.082 2.001 7.089 2 7.096 2 C 7.102 2 7.11 2.001 7.116 2.003" transform="matrix(1 0 0 1 0 0)" fill="#FFFFFF" stroke="none" />
  <path d="M 16.935 2.003 L 17.017 2.03 C 17.959 2.321 20.652 3.181 20.642 5.474 L 20.642 7.216 C 20.642 7.23 20.642 8.272 20.754 8.968 C 20.815 9.206 20.897 9.405 20.958 9.564 L 20.955 9.568 C 20.953 9.568 20.953 9.572 20.953 9.572 C 20.963 9.582 20.977 9.598 20.98 9.613 C 20.98 9.617 20.98 9.62 20.981 9.623 C 21 9.662 21 9.71 21 9.748 C 21 9.798 20.98 9.858 20.949 9.908 C 20.857 10.078 20.631 10.219 20.416 10.279 L 19.075 10.659 L 18.19 10.975 C 18.179 10.978 18.17 10.985 18.159 10.987 C 18.152 10.989 18.142 10.989 18.133 10.989 C 18.127 10.989 18.12 10.991 18.113 10.992 C 17.932 11.035 17.743 10.896 17.743 10.709 L 17.743 7.506 C 17.743 7.388 17.833 7.298 17.953 7.276 C 17.957 7.276 17.961 7.275 17.965 7.275 L 17.989 7.275 C 18.194 7.275 18.399 7.216 18.563 7.096 L 19.346 6.546 C 19.388 6.516 19.388 6.453 19.346 6.423 L 18.624 5.914 C 18.409 5.764 18.163 5.684 17.907 5.684 L 16.717 5.684 C 16.324 5.155 15.835 4.73 15.347 4.397 C 14.875 4.076 14.377 3.822 13.917 3.622 C 14.782 2.67 16.184 2.224 16.812 2.03 L 16.895 2.003 C 16.901 2.001 16.908 2 16.914 2 C 16.921 2 16.928 2.001 16.935 2.003" transform="matrix(1 0 0 1 0 0)" fill="#FFFFFF" stroke="none" />
  <path d="M 11.127 9.531 C 11.102 9.522 11.078 9.511 11.053 9.503 L 11.116 9.503 C 11.12 9.512 11.123 9.522 11.127 9.531" transform="matrix(1 0 0 1 0 0)" fill="#FFFFFF" stroke="none" />
  <path d="M 12.884 9.527 C 12.887 9.519 12.89 9.511 12.893 9.503 L 12.947 9.503 C 12.926 9.51 12.905 9.52 12.884 9.527" transform="matrix(1 0 0 1 0 0)" fill="#FFFFFF" stroke="none" />
  <path d="M 13.996 8.72 L 14.097 8.784 C 14.048 8.75 13.997 8.72 13.946 8.692 C 13.963 8.701 13.98 8.71 13.996 8.72" transform="matrix(1 0 0 1 0 0)" fill="#FFFFFF" stroke="none" />
  <path d="M 10.486 8.532 C 10.507 8.528 10.527 8.524 10.548 8.521 L 10.663 8.507 C 10.604 8.512 10.545 8.52 10.486 8.532" transform="matrix(1 0 0 1 0 0)" fill="#FFFFFF" stroke="none" />
  <path d="M 9.19 5.251 C 9.203 5.242 9.216 5.232 9.229 5.224 L 9.288 5.186 C 9.256 5.207 9.223 5.229 9.19 5.251" transform="matrix(1 0 0 1 0 0)" fill="#FFFFFF" stroke="none" />
</svg>
