<?xml version="1.0" encoding="UTF-8"?>
<!-- Reconstructed from Amplitude.Graphics.Svg.SvgAsset and recolored from static UIMapper.Color metadata for EWShop; not original source SVG. Live UI state/material colors are not included. -->
<svg xmlns="http://www.w3.org/2000/svg" width="24" height="24" viewBox="0 0 24 24">
  <path d="M 20 17.841 L 18.629 17 C 14.608 19.654 9.392 19.654 5.371 17 L 4 17.841 C 8.885 20.932 15.115 20.932 20 17.841" transform="matrix(1 0 0 1 0 0)" fill="#FFFFFF" stroke="none" />
  <path d="M 3.465 18.686 C 8.677 21.984 15.323 21.984 20.535 18.686 L 21.009 18.385 L 22.07 21.67 L 23 22.8 L 23 23 L 19.54 23 L 17.02 21.67 L 15.41 23 L 8.49 23 L 6.88 21.67 L 4.36 23 L 1 23 L 1 22.68 L 1.84 21.67 L 2.909 18.334 L 3.465 18.686 M 13.36 11.27 L 13.88 12.43 L 13.66 14.14 L 15.39 15.04 L 17.14 15.04 L 18.442 15.923 L 18.078 16.165 C 14.392 18.598 9.608 18.598 5.922 16.165 L 5.506 15.89 L 6.76 15.04 L 8.51 15.04 L 10.24 14.14 L 10.03 12.43 L 10.54 11.27 L 11.95 11 L 13.36 11.27" transform="matrix(1 0 0 1 0 0)" fill="#FFFFFF" stroke="none" />
  <path d="M 4.75 12.33 L 4.75 15.194 L 4.519 15.352 C 4.054 15.666 3.63 16.03 3.25 16.433 L 3.25 11.848 L 4.75 12.33 M 20.75 16.278 L 19.25 15.262 L 19.25 12.33 L 20.75 11.847 L 20.75 16.278 M 4.75 10.75 L 3.25 10.25 L 3.25 8.75 L 4.75 8.25 L 4.75 10.75 M 20.75 8.75 L 20.75 10.25 L 19.25 10.75 L 19.25 8.25 L 20.75 8.75 M 20.75 7.152 L 19.25 6.669 L 19.25 3.2 C 18.894 3.356 18.461 3.533 17.962 3.708 C 16.478 4.227 14.392 4.75 12 4.75 C 9.608 4.75 7.522 4.227 6.038 3.708 C 5.539 3.533 5.106 3.356 4.75 3.2 L 4.75 6.669 L 3.25 7.152 L 3.25 1 C 4.316 1.621 5.365 1.883 6.533 2.292 C 7.906 2.773 9.821 3.25 12 3.25 C 14.179 3.25 16.094 2.773 17.467 2.292 C 18.629 1.885 19.692 1.618 20.75 1 L 20.75 7.152" transform="matrix(1 0 0 1 0 0)" fill="#FFFFFF" stroke="none" />
  <path d="M 17.86 5.056 C 17.927 5.03 18 5.08 18 5.152 L 18 7.833 L 23 9.5 L 18 11.166 L 18 14.437 C 17.521 14.178 16.985 14.04 16.438 14.04 L 15.895 14.04 C 15.723 14.04 15.554 13.999 15.402 13.92 C 15.005 13.713 14.778 13.279 14.836 12.835 L 14.872 12.559 C 14.896 12.375 14.868 12.189 14.793 12.021 L 14.273 10.861 C 14.139 10.563 13.869 10.35 13.548 10.288 L 12.516 10.09 C 12.142 10.018 11.758 10.018 11.385 10.09 L 10.352 10.288 C 10.029 10.35 9.757 10.566 9.625 10.867 L 9.114 12.027 C 9.042 12.192 9.015 12.374 9.037 12.553 L 9.071 12.833 C 9.126 13.278 8.899 13.711 8.501 13.918 C 8.347 13.998 8.176 14.04 8.003 14.04 L 7.462 14.04 C 6.953 14.04 6.453 14.16 6 14.385 L 6 11.166 L 1 9.5 L 6 7.833 L 6 5.152 C 6 5.08 6.073 5.03 6.14 5.056 C 6.7 5.27 8.907 6.032 12 6.032 C 15.093 6.032 17.3 5.27 17.86 5.056" transform="matrix(1 0 0 1 0 0)" fill="#FFFFFF" stroke="none" />
</svg>
