<?xml version="1.0" encoding="UTF-8"?>
<!-- Reconstructed from Amplitude.Graphics.Svg.SvgAsset and recolored from static UIMapper.Color metadata for EWShop; not original source SVG. Live UI state/material colors are not included. -->
<svg xmlns="http://www.w3.org/2000/svg" width="24" height="24" viewBox="0 0 24 24">
  <path d="M 22.89 14.957 C 22.94 14.484 23 14.011 23 13.482 C 23 13.099 22.8 12.84 22.34 12.22 C 21.911 11.646 21.261 10.767 20.332 9.224 C 19.242 7.399 19.132 5 19.132 5 C 17.573 5 17.753 6.588 17.753 6.588 C 17.753 7.636 18.293 9.224 18.752 10.294 C 20.042 13.302 19.882 13.932 19.442 15.712 C 19.352 16.084 19.242 16.523 19.132 17.03 C 18.882 16.287 18.752 15.16 18.632 14.09 C 18.493 12.919 18.293 11.353 17.753 11.353 C 16.923 11.353 17.013 12.738 17.013 12.738 C 16.983 13.955 17.013 15.96 17.013 15.96 L 17.013 17.706 C 17.013 18.765 17.323 19.565 17.633 20.353 C 17.943 21.153 18.253 21.941 18.253 23 C 19.742 22.121 22.101 20.297 23 18.765 C 22.66 16.974 22.78 15.937 22.89 14.946 L 22.89 14.957" transform="matrix(1 0 0 1 0 0)" fill="#FFFFFF" stroke="none" />
  <path d="M 1.11 14.957 C 1.06 14.484 1 14.011 1 13.482 C 1 13.099 1.2 12.84 1.66 12.22 C 2.089 11.646 2.739 10.767 3.669 9.224 C 4.758 7.399 4.868 5 4.868 5 C 6.427 5 6.247 6.588 6.247 6.588 C 6.247 7.636 5.707 9.224 5.248 10.294 C 3.958 13.302 4.118 13.932 4.558 15.712 C 4.648 16.084 4.758 16.523 4.868 17.03 C 5.118 16.287 5.248 15.16 5.368 14.09 C 5.508 12.919 5.707 11.353 6.247 11.353 C 7.077 11.353 6.987 12.738 6.987 12.738 C 7.017 13.955 6.987 15.96 6.987 15.96 L 6.987 17.706 C 6.987 18.765 6.677 19.565 6.367 20.353 C 6.057 21.153 5.747 21.941 5.747 23 C 4.258 22.121 1.9 20.297 1 18.765 C 1.34 16.974 1.22 15.937 1.11 14.946 L 1.11 14.957" transform="matrix(1 0 0 1 0 0)" fill="#FFFFFF" stroke="none" />
  <path d="M 17 4.374 C 16.733 4.664 16.561 4.981 16.454 5.265 C 16.307 5.654 16.263 6.018 16.251 6.265 C 16.245 6.393 16.246 6.502 16.25 6.585 C 16.252 6.625 16.254 6.659 16.256 6.688 C 16.271 7.398 16.443 8.177 16.64 8.852 C 16.748 9.223 16.872 9.592 17 9.941 L 17 9.989 C 16.649 10.123 16.356 10.344 16.135 10.609 C 15.816 10.993 15.678 11.421 15.611 11.703 C 15.541 12.004 15.519 12.283 15.513 12.47 C 15.509 12.567 15.51 12.65 15.512 12.712 C 15.512 12.729 15.512 12.744 15.513 12.758 C 15.499 13.382 15.498 14.178 15.502 14.815 C 15.504 15.144 15.506 15.436 15.509 15.645 C 15.51 15.749 15.512 15.834 15.513 15.892 C 15.513 15.92 15.513 15.943 15.513 15.958 C 15.513 15.963 15.514 15.968 15.514 15.972 L 15.514 17.706 C 15.514 17.938 15.526 18.16 15.547 18.373 L 12 16.843 L 8.452 18.373 C 8.473 18.16 8.486 17.938 8.486 17.706 L 8.486 15.972 C 8.486 15.968 8.487 15.963 8.487 15.958 C 8.488 15.943 8.487 15.92 8.487 15.892 C 8.488 15.834 8.49 15.749 8.491 15.645 C 8.494 15.436 8.496 15.144 8.498 14.815 C 8.502 14.178 8.502 13.382 8.487 12.758 C 8.488 12.744 8.488 12.729 8.488 12.712 C 8.49 12.65 8.491 12.567 8.487 12.47 C 8.481 12.283 8.459 12.004 8.389 11.703 C 8.322 11.421 8.184 10.993 7.865 10.609 C 7.644 10.344 7.351 10.123 7 9.989 L 7 9.941 C 7.128 9.592 7.252 9.223 7.36 8.852 C 7.557 8.177 7.729 7.398 7.744 6.688 C 7.746 6.659 7.748 6.625 7.75 6.585 C 7.754 6.502 7.755 6.393 7.749 6.265 C 7.737 6.018 7.693 5.654 7.546 5.265 C 7.439 4.981 7.267 4.664 7 4.374 L 7 4 L 17 4 L 17 4.374 M 14.931 6.004 C 14.651 6.119 13.547 6.526 12 6.526 C 10.454 6.526 9.35 6.119 9.069 6.004 C 9.036 5.99 9 6.017 9 6.055 L 9 11.857 L 12 14 L 15 11.857 L 15 6.055 C 15 6.017 14.964 5.99 14.931 6.004" transform="matrix(1 0 0 1 0 0)" fill="#FFFFFF" stroke="none" />
  <path d="M 18 1 L 19 1 L 19 3 L 18 3 L 18 1" transform="matrix(1 0 0 1 0 0)" fill="#FFFFFF" stroke="none" />
  <path d="M 5 1 L 5 3 L 4 3 C 3.448 3 3 2.552 3 2 C 3 1.448 3.448 1 4 1 L 5 1 M 20 1 C 20.552 1 21 1.448 21 2 C 21 2.552 20.552 3 20 3 L 19 3 L 19 1 L 20 1 M 18 3 L 6 3 L 6 1 L 18 1 L 18 3" transform="matrix(1 0 0 1 0 0)" fill="#FFFFFF" stroke="none" />
</svg>
