<?xml version="1.0" encoding="UTF-8"?>
<!-- Reconstructed from Amplitude.Graphics.Svg.SvgAsset and recolored from static UIMapper.Color metadata for EWShop; not original source SVG. Live UI state/material colors are not included. -->
<svg xmlns="http://www.w3.org/2000/svg" width="24" height="24" viewBox="0 0 24 24">
  <path d="M 6 21.01 L 6 19.826 C 4.04 19.19 2.18 18.195 1 17.03 C 1.61 18.533 3.75 20.035 6 21.01" transform="matrix(1 0 0 1 0 0)" fill="#FFFFFF" stroke="none" />
  <path d="M 10 2.104 C 7.2 2.104 2 4.592 1 7.08 C 3 5.09 7 3.597 10 3.597 L 10 2.104" transform="matrix(1 0 0 1 0 0)" fill="#FFFFFF" stroke="none" />
  <path d="M 14 2.104 L 14 3.597 C 17 3.597 21 5.09 23 7.08 C 22 4.592 16.8 2.104 14 2.104" transform="matrix(1 0 0 1 0 0)" fill="#FFFFFF" stroke="none" />
  <path d="M 18 21.01 C 20.25 20.035 22.39 18.533 23 17.03 C 21.82 18.185 19.96 19.18 18 19.826 L 18 21.01" transform="matrix(1 0 0 1 0 0)" fill="#FFFFFF" stroke="none" />
  <path d="M 11.02 21.756 C 11.12 22.204 11.13 22.622 11.1 22.99 L 12.69 22.99 C 12.66 22.622 12.66 22.174 12.77 21.716 C 13.03 21.537 13.21 21.308 13.2 20.97 L 10.71 21 C 10.71 21.328 10.77 21.587 11.03 21.756 L 11.02 21.756" transform="matrix(1 0 0 1 0 0)" fill="#FFFFFF" stroke="none" />
  <path d="M 15.29 19.468 C 15 19.468 14.76 19.657 14.64 19.896 C 14.07 20.025 12.53 20.025 11.75 18.841 C 10.98 20.045 9.61 20.115 9.03 20.015 C 8.92 19.766 8.67 19.607 8.38 19.607 C 8.05 19.607 7.77 19.836 7.7 20.144 L 7.68 20.443 C 7.73 20.781 8.03 21.03 8.38 21.02 C 8.69 21.02 8.95 20.811 9.05 20.532 L 14.61 20.423 C 14.71 20.692 14.97 20.891 15.28 20.881 C 15.63 20.881 15.92 20.612 15.98 20.264 L 15.96 19.955 C 15.87 19.667 15.6 19.448 15.27 19.458 L 15.29 19.468" transform="matrix(1 0 0 1 0 0)" fill="#FFFFFF" stroke="none" />
  <path d="M 11.45 18.413 C 11.45 18.413 11.78 8.144 11.94 5.288 C 11.96 5.02 12.06 5.02 12.08 5.288 C 12.23 8.144 12.1 18.413 12.1 18.413 C 12.26 19.059 13.63 19.597 13.63 19.398 C 13.63 19.398 13.31 3.398 12.08 1.039 C 12.06 1.01 12.04 1 12.01 1.01 C 11.98 1.01 11.96 1.02 11.95 1.049 C 10.72 3.457 10.08 19.477 10.08 19.477 C 10.17 19.666 11.38 18.99 11.45 18.433 L 11.45 18.413" transform="matrix(1 0 0 1 0 0)" fill="#FFFFFF" stroke="none" />
  <path d="M 8.43 17.557 L 8.74 15.1 C 6.57 13 7.09 9.508 9.63 7.985 L 9.85 6.254 C 6.21 6.861 2.95 8.95 1.04 11.945 L 1 12.095 C 2.74 14.931 5.45 16.751 8.43 17.547 L 8.43 17.557" transform="matrix(1 0 0 1 0 0)" fill="#FFFFFF" stroke="none" />
  <path d="M 14.52 6.323 L 14.67 7.786 C 16.16 8.522 17.21 9.965 17.21 11.746 C 17.21 13.239 16.49 14.493 15.43 15.328 L 15.65 17.527 C 18.59 16.731 21.26 14.94 23 12.174 C 21.38 9.1 18.09 7 14.52 6.313 L 14.52 6.323" transform="matrix(1 0 0 1 0 0)" fill="#FFFFFF" stroke="none" />
</svg>
