<?xml version="1.0" encoding="UTF-8"?>
<!-- Reconstructed from Amplitude.Graphics.Svg.SvgAsset and recolored from static UIMapper.Color metadata for EWShop; not original source SVG. Live UI state/material colors are not included. -->
<svg xmlns="http://www.w3.org/2000/svg" width="24" height="24" viewBox="0 0 24 24">
  <path d="M 14.909 1 L 14.909 6.091 L 20 6.091 L 20 11.909 L 14.909 11.909 L 14.909 13.42 L 14.505 13.322 L 14.503 13.322 C 14.221 13.254 13.989 13.053 13.878 12.781 L 13.837 12.66 L 13.213 10.155 L 13.206 10.127 L 13.197 10.099 L 13.159 9.989 C 12.742 8.936 11.227 8.936 10.81 9.989 L 10.773 10.099 L 10.764 10.128 L 10.756 10.158 L 10.138 12.665 L 10.137 12.668 C 10.068 12.949 9.868 13.178 9.597 13.284 L 9.477 13.322 L 9.474 13.322 L 9.091 13.415 L 9.091 11.909 L 4 11.909 L 4 6.091 L 9.091 6.091 L 9.091 1 L 14.909 1" transform="matrix(1 0 0 1 0 0)" fill="#FFFFFF" stroke="none" />
  <path d="M 5.416 16.054 C 5.438 15.982 5.54 15.982 5.563 16.054 L 6.017 17.875 C 6.156 18.409 6.573 18.828 7.114 18.958 L 8.938 19.398 L 8.945 19.413 C 9.018 19.428 9.018 19.536 8.945 19.558 L 7.107 20.034 C 6.58 20.164 6.163 20.584 6.031 21.111 L 5.569 22.946 C 5.547 23.018 5.445 23.018 5.423 22.946 L 4.969 21.111 C 4.837 20.577 4.427 20.158 3.893 20.021 L 2.055 19.543 C 1.982 19.521 1.982 19.42 2.055 19.398 L 3.871 18.958 C 4.413 18.828 4.837 18.409 4.969 17.867 L 5.416 16.054 M 18.416 16.054 C 18.438 15.982 18.54 15.982 18.563 16.054 L 19.017 17.875 C 19.156 18.409 19.573 18.828 20.114 18.958 L 21.938 19.398 L 21.945 19.413 C 22.018 19.428 22.018 19.536 21.945 19.558 L 20.107 20.034 C 19.58 20.164 19.163 20.584 19.031 21.111 L 18.569 22.946 C 18.547 23.018 18.445 23.018 18.423 22.946 L 17.969 21.111 C 17.837 20.577 17.427 20.158 16.893 20.021 L 15.055 19.543 C 14.982 19.521 14.982 19.42 15.055 19.398 L 16.871 18.958 C 17.413 18.828 17.837 18.409 17.969 17.867 L 18.416 16.054 M 11.88 11.069 C 11.912 10.977 12.057 10.977 12.089 11.069 L 12.737 13.41 C 12.936 14.098 13.533 14.637 14.307 14.804 L 16.911 15.37 L 16.922 15.389 C 17.026 15.408 17.026 15.546 16.922 15.574 L 14.296 16.188 C 13.543 16.355 12.947 16.893 12.759 17.571 L 12.1 19.931 C 12.068 20.023 11.922 20.023 11.891 19.931 L 11.241 17.571 C 11.053 16.884 10.468 16.345 9.704 16.169 L 7.078 15.556 C 6.974 15.528 6.974 15.398 7.078 15.37 L 9.673 14.804 C 10.447 14.637 11.053 14.098 11.241 13.401 L 11.88 11.069" transform="matrix(1 0 0 1 0 0)" fill="#FFFFFF" stroke="none" />
</svg>
