<?xml version="1.0" encoding="UTF-8"?>
<!-- Reconstructed from Amplitude.Graphics.Svg.SvgAsset and recolored from static UIMapper.Color metadata for EWShop; not original source SVG. Live UI state/material colors are not included. -->
<svg xmlns="http://www.w3.org/2000/svg" width="24" height="24" viewBox="0 0 24 24">
  <path d="M 16.74 15.126 C 16.65 14.689 16.585 14.207 16.585 13.702 L 16.585 10.512 C 16.585 8.842 15.717 7.722 14.71 6.97 L 14.042 8.599 L 13.116 6.344 L 12.979 6.009 C 12.619 5.859 12.301 5.748 12.066 5.667 L 11.958 5.631 L 11.849 5.667 C 11.659 5.733 11.414 5.818 11.137 5.928 L 10.966 6.344 L 10.041 8.599 L 9.336 6.88 C 8.279 7.631 7.342 8.773 7.342 10.512 L 7.342 13.702 C 7.342 14.111 7.301 14.504 7.239 14.867 L 7.324 15.23 C 7.995 15.968 8.629 16.679 9.231 17.375 L 10.041 15.401 L 10.894 17.481 L 10.894 13.436 C 10.894 13.267 10.761 13.134 10.592 13.134 C 10.326 13.134 10.061 13.049 9.855 12.88 L 8.756 12.01 L 9.602 11.346 C 9.976 11.044 10.435 10.887 10.918 10.887 L 13.009 10.887 C 13.48 10.887 13.951 11.044 14.326 11.346 L 15.171 12.01 L 14.072 12.88 C 13.867 13.049 13.601 13.134 13.335 13.134 C 13.166 13.134 13.033 13.267 13.033 13.436 L 13.033 17.822 C 13.033 17.834 13.033 17.845 13.034 17.857 L 13.116 17.656 L 14.042 15.401 L 14.723 17.062 C 15.349 16.548 15.987 16.039 16.646 15.527 L 16.74 15.126" transform="matrix(1 0 0 1 0 0)" fill="#FFFFFF" stroke="none" />
  <path d="M 11.969 0.484 C 8.624 0.484 6.093 1.254 3.994 2.526 L 3.988 2.526 L 3.988 2.529 C 2.958 3.154 2.032 3.898 1.166 4.733 C 1.893 4.413 2.687 4.135 3.531 3.898 L 5.874 10.573 L 7.625 3.103 C 8.019 3.056 8.417 3.016 8.817 2.982 L 10.041 5.964 L 11.315 2.857 C 11.558 2.853 11.8 2.852 12.043 2.853 L 12.043 2.853 C 12.285 2.854 12.527 2.857 12.769 2.862 L 14.042 5.964 L 15.256 3.002 C 15.648 3.038 16.036 3.079 16.42 3.127 L 18.166 10.573 L 19.993 3.79 C 21.02 4.051 21.977 4.366 22.834 4.733 C 22.012 3.906 21.089 3.165 20.048 2.543 L 20.052 2.526 L 20.019 2.526 C 17.882 1.255 15.25 0.484 11.969 0.484 L 11.969 0.484 M 11.969 23.516 C 8.624 23.516 6.093 22.746 3.994 21.474 L 3.988 21.474 L 3.988 21.471 C 2.958 20.847 2.032 20.102 1.166 19.267 C 1.893 19.587 2.687 19.865 3.531 20.102 L 5.874 13.427 L 7.625 20.897 C 8.019 20.944 8.417 20.985 8.817 21.018 L 10.041 18.036 L 11.315 21.143 C 11.558 21.147 11.8 21.148 12.043 21.147 C 12.285 21.147 12.527 21.143 12.769 21.138 L 14.042 18.036 L 15.256 20.998 C 15.648 20.962 16.036 20.921 16.42 20.873 L 18.166 13.427 L 19.993 20.211 C 21.02 19.949 21.977 19.634 22.834 19.267 C 22.012 20.094 21.089 20.835 20.048 21.457 L 20.052 21.474 L 20.019 21.474 C 17.882 22.745 15.25 23.516 11.969 23.516" transform="matrix(1 0 0 1 0 0)" fill="#FFFFFF" stroke="none" />
</svg>
