<?xml version="1.0" encoding="UTF-8"?>
<!-- Reconstructed from Amplitude.Graphics.Svg.SvgAsset and recolored from static UIMapper.Color metadata for EWShop; not original source SVG. Live UI state/material colors are not included. -->
<svg xmlns="http://www.w3.org/2000/svg" width="24" height="24" viewBox="0 0 24 24">
  <path d="M 21.998 0 L 17 0 C 17 2.761 14.761 5 12 5 C 9.239 5 7 2.761 7 0 L 2.002 0 L 6.058 0.835 C 6.081 1.003 6.112 1.169 6.149 1.333 L 4.38 1.974 L 3 2.5 L 4.474 2.304 L 6.327 1.96 C 6.381 2.115 6.44 2.266 6.506 2.415 L 3.376 4.605 L 1 6.5 L 3.737 5.268 L 7.266 3.687 C 7.352 3.797 7.442 3.904 7.535 4.008 L 5.895 6.105 L 7.992 4.465 C 8.113 4.574 8.238 4.677 8.367 4.776 L 6.164 9.553 L 5 12.5 L 6.789 9.941 L 9.62 5.51 C 9.761 5.57 9.904 5.626 10.05 5.676 L 9.747 7.906 L 9.551 9.38 L 10.077 8 L 10.682 5.855 C 10.842 5.891 11.004 5.92 11.168 5.943 L 11.579 7.947 L 12 11 L 12.421 7.947 L 12.832 5.943 C 13.001 5.919 13.168 5.889 13.332 5.852 L 13.923 7.5 L 14.449 8.88 L 14.253 7.406 L 13.957 5.674 C 14.102 5.624 14.245 5.568 14.385 5.507 L 16.5 8.5 L 18.289 11.059 L 17.125 8.111 L 15.632 4.777 C 15.761 4.678 15.887 4.574 16.008 4.465 L 18.105 6.105 L 16.465 4.008 C 16.558 3.905 16.647 3.798 16.732 3.689 L 20.5 5.5 L 23.237 6.732 L 20.861 4.838 L 17.493 2.417 C 17.561 2.265 17.621 2.109 17.676 1.95 L 20.421 2.316 L 17.851 1.336 C 17.888 1.172 17.919 1.005 17.942 0.835 L 21.998 0" transform="matrix(1 0 0 1 0 0)" fill="#FFFFFF" stroke="none" />
  <path d="M 14.524 11.697 C 14.516 11.691 14.508 11.686 14.5 11.681 L 18.171 12.122 L 20.7 11.367 L 21.156 10.911 L 21.611 10 L 22.522 10 L 22.019 11.186 L 22.522 11.089 L 22.522 11.367 L 21.83 11.784 L 21.156 11.822 L 18.672 13.192 L 16.286 13.347 L 16.503 13.86 C 17.754 13.999 20.09 14.494 18.755 17.03 C 18.06 17.475 17.337 17.448 15.835 16.363 L 16.002 15.278 L 15.168 15.028 L 14.667 18.616 L 15.614 21.187 C 15.747 21.547 16.09 21.786 16.474 21.786 L 17.17 21.786 L 17.379 21.995 C 17.61 22.226 17.446 22.621 17.12 22.621 L 16.503 22.621 L 15.454 22.504 C 15.169 22.472 14.915 22.309 14.769 22.062 C 14.124 20.97 13.165 19.318 13.165 19.2 C 13.165 19.066 12.72 16.808 12.498 15.695 L 10.662 15.946 L 9.327 17.03 L 11.225 21.191 C 11.388 21.549 11.312 21.971 11.034 22.249 C 10.803 22.48 10.469 22.575 10.151 22.5 L 4.655 21.202 L 2.887 22.74 C 2.789 22.824 2.665 22.871 2.536 22.871 C 2.115 22.871 1.859 22.407 2.083 22.051 L 3.151 20.351 C 3.307 20.103 3.584 19.957 3.876 19.967 L 8.159 20.117 L 5.865 18.799 C 4.973 18.287 4.685 17.128 5.219 16.248 C 6.391 14.318 8.196 12.818 10.314 12.035 L 10.939 11.804 C 11.142 11.729 11.357 11.691 11.574 11.691 L 14.371 11.691 C 14.422 11.691 14.473 11.693 14.524 11.697" transform="matrix(1 0 0 1 0 0)" fill="#FFFFFF" stroke="none" />
</svg>
