<?xml version="1.0" encoding="UTF-8"?>
<!-- Reconstructed from Amplitude.Graphics.Svg.SvgAsset and recolored from static UIMapper.Color metadata for EWShop; not original source SVG. Live UI state/material colors are not included. -->
<svg xmlns="http://www.w3.org/2000/svg" width="24" height="24" viewBox="0 0 24 24">
  <path d="M 21.111 2.407 C 21.094 2.52 20.982 2.476 20.884 2.437 C 20.853 2.425 20.824 2.413 20.799 2.407 C 20.513 2.339 20.22 2.262 19.924 2.184 C 19.403 2.047 18.875 1.909 18.37 1.814 C 14.561 1.096 8.479 1.522 5.204 3.743 C 5.13 3.793 5.059 3.841 4.989 3.888 C 3.401 4.96 2.755 5.397 4.5 6.696 C 5.865 7.712 8.145 8.381 10.275 8.562 C 9.974 8.831 9.708 9.122 9.5 9.4 L 9.365 9.58 C 8.561 9.516 7.837 9.421 7.295 9.319 C 1.128 8.16 -2.169 5.071 5.553 2.248 C 7.799 1.427 10.635 1.043 13.026 1 C 15.734 0.951 18.641 1.239 21.111 2.407" transform="matrix(1 0 0 1 0 0)" fill="#FFFFFF" stroke="none" />
  <path d="M 15.709 8.818 C 15.405 8.44 14.987 8.155 14.535 7.949 C 15.078 7.528 14.834 6.984 13.587 6.526 C 13.461 6.349 14.743 6.487 14.885 6.527 C 16.124 6.876 17.103 7.956 15.735 8.85 C 15.727 8.839 15.718 8.828 15.709 8.818" transform="matrix(1 0 0 1 0 0)" fill="#FFFFFF" stroke="none" />
  <path d="M 16.766 12.294 C 16.883 11.882 16.945 11.428 16.908 10.937 C 17.109 10.882 17.307 10.824 17.5 10.763 C 17.676 10.708 17.852 10.655 18.025 10.602 C 19.852 10.048 21.384 9.584 20.167 7.693 C 18.765 5.21 12.001 4.053 9.534 5.268 C 8.257 5.897 9.273 6.427 10.075 6.846 L 10.115 6.867 C 10.287 7.163 8.717 6.754 8.589 6.708 C 7.021 6.147 6.934 5.032 8.456 4.341 C 11.746 2.85 20.103 3.995 22.344 6.96 C 23.982 9.13 22.858 10.11 21 11.03 C 19.809 11.619 18.314 12.025 16.766 12.294" transform="matrix(1 0 0 1 0 0)" fill="#FFFFFF" stroke="none" />
  <path d="M 3.648 10.902 L 4.731 11.03 C 5.751 11.319 6.891 11.517 8.084 11.628 C 8.01 11.874 7.948 12.121 7.9 12.365 C 6.415 12.036 4.954 11.523 3.648 10.902" transform="matrix(1 0 0 1 0 0)" fill="#FFFFFF" stroke="none" />
  <path d="M 19.084 15.771 L 23.001 19.385 L 21.113 19.385 L 19.084 17.646 L 17.055 19.385 L 15.291 19.385 L 19.084 15.771" transform="matrix(1 0 0 1 0 0)" fill="#FFFFFF" stroke="none" />
  <path d="M 19.084 19.385 L 23.001 23 L 21.113 23 L 19.084 21.261 L 17.055 23 L 15.291 23 L 19.084 19.385" transform="matrix(1 0 0 1 0 0)" fill="#FFFFFF" stroke="none" />
  <path d="M 8.967 17.328 C 8.251 17.629 7.473 17.955 7.147 18.429 L 8.967 23 L 14 23 L 15.822 20 L 13.5 20 L 15.902 17.599 C 15.775 17.526 15.643 17.453 15.509 17.379 C 14.702 16.934 13.824 16.449 13.631 15.797 C 13.397 15.009 13.894 14.319 14.429 13.576 C 15.041 12.726 15.702 11.806 15.379 10.592 C 14.951 8.98 13.126 7.936 11.56 8.745 C 10.38 9.354 8.775 12.825 9.389 14.036 C 9.531 14.315 9.771 14.483 10.002 14.645 C 10.477 14.977 10.914 15.282 10.382 16.469 C 10.235 16.796 9.628 17.051 8.967 17.328" transform="matrix(1 0 0 1 0 0)" fill="#FFFFFF" stroke="none" />
</svg>
