<?xml version="1.0" encoding="UTF-8"?>
<!-- Reconstructed from Amplitude.Graphics.Svg.SvgAsset and recolored from static UIMapper.Color metadata for EWShop; not original source SVG. Live UI state/material colors are not included. -->
<svg xmlns="http://www.w3.org/2000/svg" width="24" height="24" viewBox="0 0 24 24">
  <path d="M 17.275 4.957 L 16 1 L 14.725 4.957 L 10.819 6.249 L 14.725 7.54 L 16 11.497 L 17.275 7.54 L 21.181 6.249 L 17.275 4.957 M 12.294 17 C 13.672 16.719 14.477 16.815 15.245 16.906 L 15.267 16.908 C 15.32 16.914 15.373 16.92 15.426 16.926 C 15.742 16.963 16.059 17 16.412 17 C 16.707 17 16.912 16.835 17.383 16.456 L 17.392 16.449 C 17.837 16.091 18.52 15.548 19.722 14.772 C 21.139 13.863 23 13.771 23 13.771 C 23 12.47 21.765 12.62 21.765 12.62 C 20.958 12.62 19.714 13.07 18.882 13.454 C 16.55 14.527 16.06 14.398 14.685 14.033 L 14.674 14.03 C 14.58 14.006 14.482 13.98 14.38 13.954 C 14.161 13.896 13.922 13.834 13.653 13.771 C 14.229 13.563 15.102 13.454 15.934 13.354 C 16.848 13.237 18.059 13.07 18.059 12.62 C 18.059 11.927 16.98 12.002 16.98 12.002 C 16.033 11.977 14.477 12.002 14.477 12.002 L 13.118 12.002 C 12.294 12.002 11.677 12.261 11.059 12.52 C 10.441 12.778 9.824 13.037 9 13.037 C 9.684 14.28 11.1 16.249 12.294 17" transform="matrix(1 0 0 1 0 0)" fill="#FFFFFF" stroke="none" />
  <path d="M 11.251 5.052 L 11.018 5.129 L 10.254 5.218 L 7.551 5.218 L 5.507 6.125 L 4.551 7.315 L 3.753 9.013 L 4.551 10.399 L 6.433 10.83 L 8.247 11.058 L 9.177 10.835 L 9.686 11.76 L 9.782 11.927 C 9.532 11.996 9.283 12.037 9 12.037 L 7.309 12.037 L 8.124 13.519 L 8.435 14.053 C 8.776 14.612 9.206 15.237 9.673 15.825 C 10.282 16.592 11.019 17.379 11.762 17.847 L 12.102 18.06 L 12.494 17.98 C 13.519 17.771 14.164 17.796 14.772 17.859 L 16 19.632 L 12.759 21.404 L 8.92 23 L 7.1 20.199 L 8.16 19.632 L 9.48 17.053 L 6.9 18.75 L 4.14 19.221 L 2.76 18.202 L 2.62 16.165 L 1.96 14.638 L 1 13.756 L 2.62 11.412 L 2.457 8.809 L 4.14 5.29 L 7.68 4 L 8.795 4 L 11.251 5.052" transform="matrix(1 0 0 1 0 0)" fill="#FFFFFF" stroke="none" />
</svg>
