<?xml version="1.0" encoding="UTF-8"?>
<!-- Reconstructed from Amplitude.Graphics.Svg.SvgAsset and recolored from static UIMapper.Color metadata for EWShop; not original source SVG. Live UI state/material colors are not included. -->
<svg xmlns="http://www.w3.org/2000/svg" width="24" height="24" viewBox="0 0 24 24">
  <path d="M 23 14.696 L 23 7.477 L 21.564 7.24 L 19.975 7.24 L 18.928 7.783 L 19.703 9.392 L 17.612 8.745 L 16.076 8.587 L 14.439 9.067 L 11.775 10.909 L 11.293 10.707 L 11.406 10.305 L 12.656 8.9 L 13.554 5.309 L 13.85 4.226 L 15.008 3.355 L 16.229 3.85 L 17.006 3.202 L 17.374 3.85 L 18.541 3.355 L 18.276 2.718 L 18.772 1.895 L 17.006 1 L 15.274 1.406 L 12.75 2.718 L 10.661 4.942 L 8.513 8.745 L 8 11.692 L 9.301 13.175 L 10.779 14.202 L 13.756 14.867 L 15.037 14.867 L 17.934 13.745 L 19.176 14.696 L 20.891 15 L 23 14.696" transform="matrix(1 0 0 1 0 0)" fill="#FFFFFF" stroke="none" />
  <path d="M 15.043 17.631 L 15.869 20.315 L 10.5 23 L 12 19.5 C 13.42 19.048 13.98 17.289 13.87 15.867 L 15.224 15.867 L 15.247 15.857 L 15.043 17.631 M 8.178 7.303 L 7.557 8.403 L 7.527 8.573 L 6.933 11.992 L 8.136 13.363 C 7.728 14.24 7.096 15.019 7 16 C 6.862 17.372 7.845 19.024 9.107 19.5 L 10.5 23 L 5.131 20.315 L 5.957 17.631 L 5.131 10.474 L 3.192 12.12 L 1 9.442 L 5.131 6 L 8.178 7.303 M 10.209 15.023 L 10.37 15.135 L 12.493 15.609 C 13.273 17.037 12.089 18.423 10.452 18.423 C 9.208 18.423 8.086 17.473 8.218 16.165 C 8.272 15.601 8.703 15.035 9.107 14.471 C 9.141 14.423 9.174 14.375 9.207 14.327 L 10.209 15.023 M 17.691 7.519 L 17.808 7.76 L 17.714 7.75 L 16.178 7.592 L 15.982 7.572 L 15.794 7.627 L 14.157 8.106 L 14.003 8.152 L 13.87 8.244 L 13.847 8.26 L 14.237 6.697 L 15.869 6 L 17.691 7.519" transform="matrix(1 0 0 1 0 0)" fill="#FFFFFF" stroke="none" />
</svg>
