<?xml version="1.0" encoding="UTF-8"?>
<!-- Reconstructed from Amplitude.Graphics.Svg.SvgAsset and recolored from static UIMapper.Color metadata for EWShop; not original source SVG. Live UI state/material colors are not included. -->
<svg xmlns="http://www.w3.org/2000/svg" width="24" height="24" viewBox="0 0 24 24">
  <path d="M 12.73 14.233 L 13.846 17.654 L 16.381 18.481 L 16.382 18.481 L 17.081 18.71 L 17.267 18.771 L 19.5 19.5 L 17.267 20.23 L 13.846 21.346 L 13 23 L 11 23 L 10.154 21.346 L 6.733 20.23 L 4.5 19.5 L 6.114 18.973 L 7.617 18.481 L 10.154 17.654 L 11.271 14.233 L 12 12 L 12.73 14.233 M 11.472 18.085 L 11.254 18.754 L 10.584 18.973 L 8.968 19.5 L 10.584 20.027 L 11.254 20.246 L 11.472 20.915 L 12 22.532 L 12.434 21.2 L 12.435 21.199 L 12.527 20.915 L 12.746 20.246 L 13.415 20.027 L 14.786 19.579 L 14.788 19.579 L 15.032 19.5 L 13.415 18.973 L 12.746 18.754 L 12.527 18.085 L 12 16.468 L 11.472 18.085 M 4.75 13.628 L 4.75 16.507 L 6.582 17.769 L 4.698 18.383 L 3.25 17.432 L 3.25 12.577 L 4.75 13.628 M 20.75 17.432 L 19.301 18.383 L 17.417 17.769 L 19.25 16.507 L 19.25 13.628 L 20.75 12.576 L 20.75 17.432 M 3.25 1 C 4.316 1.621 5.365 1.883 6.533 2.292 C 7.855 2.755 9.679 3.212 11.757 3.246 L 11.549 4.743 C 9.346 4.683 7.428 4.194 6.038 3.708 C 5.539 3.533 5.106 3.356 4.75 3.2 L 4.75 12.218 L 3.25 11.731 L 3.25 1 M 20.75 11.731 L 19.25 12.218 L 19.25 3.2 C 18.894 3.356 18.461 3.533 17.962 3.708 C 16.572 4.195 14.654 4.683 12.45 4.743 L 12.242 3.246 C 14.321 3.213 16.145 2.755 17.467 2.292 C 18.629 1.885 19.692 1.618 20.75 1 L 20.75 11.731" transform="matrix(1 0 0 1 0 0)" fill="#FFFFFF" stroke="none" />
  <path d="M 9.361 16.861 L 7.975 17.313 L 6 15.996 L 6 14.505 L 9.361 16.861 M 18 15.996 L 16.024 17.313 L 14.638 16.861 L 18 14.504 L 18 15.996 M 6.14 5.056 C 6.662 5.256 8.61 5.928 11.372 6.02 L 10.681 11 L 10.351 12.465 L 7.5 10 L 7.766 13.198 L 6 12.623 L 6 5.152 C 6 5.08 6.073 5.03 6.14 5.056 M 17.86 5.056 C 17.927 5.03 18 5.08 18 5.152 L 18 12.623 L 16.233 13.198 L 16.5 10 L 13.648 12.465 L 13.319 11 L 12.627 6.02 C 15.389 5.928 17.338 5.256 17.86 5.056" transform="matrix(1 0 0 1 0 0)" fill="#FFFFFF" stroke="none" />
</svg>
