<?xml version="1.0" encoding="UTF-8"?>
<!-- Reconstructed from Amplitude.Graphics.Svg.SvgAsset and recolored from static UIMapper.Color metadata for EWShop; not original source SVG. Live UI state/material colors are not included. -->
<svg xmlns="http://www.w3.org/2000/svg" width="24" height="24" viewBox="0 0 24 24">
  <path d="M 12 7.5 L 12 17.452 L 14 19.182 L 14 20.362 L 13.048 19.608 C 12.831 19.437 12.517 19.473 12.346 19.69 C 12.174 19.906 12.211 20.22 12.428 20.392 L 13.69 21.392 C 13.781 21.464 13.891 21.497 14 21.497 L 14 23 L 11.523 21.168 L 9 23 L 9 21.497 C 9.111 21.497 9.222 21.464 9.314 21.389 L 10.552 20.389 C 10.767 20.215 10.8 19.9 10.627 19.686 C 10.475 19.498 10.215 19.449 10.009 19.556 L 9.924 19.611 L 9 20.356 L 9 19.182 L 11 17.419 L 11 7.503 L 11.5 7 L 12 7.5 M 23 23 L 21.112 23 L 19.083 21.261 L 17.055 23 L 15.291 23 L 19.083 19.386 L 23 23 M 14 6.143 L 14 8 L 11.917 6.286 L 11.5 3.286 L 11.084 6.286 L 9 8 L 9 6.143 L 11.5 1 L 14 6.143" transform="matrix(1 0 0 1 0 0)" fill="#FFFFFF" stroke="none" />
  <path d="M 7 14.336 C 7.211 14.436 7.411 14.557 7.597 14.696 L 8.328 13.965 L 9.035 14.672 L 8.304 15.403 C 8.443 15.589 8.563 15.789 8.663 16 L 10 16 L 10 16.967 L 8.339 18.432 C 8.124 18.622 8 18.895 8 19.182 L 8 20.356 C 8 20.527 8.047 20.689 8.126 20.833 L 7.597 20.303 C 7.411 20.442 7.211 20.563 7 20.663 L 7 22 L 4 22 L 4 20.663 C 3.789 20.563 3.59 20.442 3.404 20.303 L 2.672 21.035 L 1.965 20.328 L 2.697 19.596 C 2.558 19.41 2.437 19.211 2.337 19 L 1 19 L 1 16 L 2.337 16 C 2.437 15.789 2.558 15.589 2.697 15.403 L 1.965 14.672 L 2.672 13.965 L 3.404 14.696 C 3.59 14.558 3.789 14.436 4 14.336 L 4 13 L 7 13 L 7 14.336 M 5.5 16 C 4.672 16 4 16.672 4 17.5 C 4 18.328 4.672 19 5.5 19 C 6.328 19 7 18.328 7 17.5 C 7 16.672 6.328 16 5.5 16 M 18.999 5.126 C 19.366 5.22 19.712 5.367 20.03 5.555 L 20.827 4.758 L 22.242 6.172 L 21.444 6.97 C 21.632 7.288 21.779 7.633 21.873 8 L 22.999 8 L 22.999 10 L 21.873 10 C 21.779 10.367 21.633 10.714 21.444 11.032 L 22.241 11.828 L 20.827 13.243 L 20.029 12.446 C 19.711 12.634 19.365 12.78 18.999 12.874 L 18.999 14 L 16.999 14 L 16.999 12.874 C 16.632 12.78 16.285 12.634 15.967 12.446 L 15.171 13.242 L 13.756 11.828 L 14.553 11.031 C 14.365 10.713 14.219 10.367 14.125 10 L 13 10 L 13 8.473 L 13.364 8.772 C 13.663 9.018 14.077 9.069 14.427 8.904 C 14.733 8.76 14.942 8.472 14.989 8.144 L 15 8 L 15 6.143 C 15 5.991 14.966 5.841 14.899 5.705 L 14.678 5.249 L 15.171 4.757 L 15.968 5.555 C 16.286 5.367 16.632 5.22 16.999 5.126 L 16.999 4 L 18.999 4 L 18.999 5.126 M 17.999 6 C 16.342 6 14.999 7.343 14.999 9 C 14.999 10.657 16.342 12 17.999 12 C 19.656 12 20.999 10.657 20.999 9 C 20.999 7.343 19.656 6 17.999 6 M 17.999 7 C 19.104 7 19.999 7.895 19.999 9 C 19.999 10.105 19.104 11 17.999 11 C 16.895 11 15.999 10.104 15.999 9 C 15.999 7.896 16.895 7 17.999 7" transform="matrix(1 0 0 1 0 0)" fill="#FFFFFF" stroke="none" />
</svg>
