<?xml version="1.0" encoding="UTF-8"?>
<!-- Reconstructed from Amplitude.Graphics.Svg.SvgAsset and recolored from static UIMapper.Color metadata for EWShop; not original source SVG. Live UI state/material colors are not included. -->
<svg xmlns="http://www.w3.org/2000/svg" width="24" height="24" viewBox="0 0 24 24">
  <path d="M 19.364 6.27 C 21.582 6.851 23.001 7.742 23.001 8.724 C 23.001 9.605 21.855 10.641 20.01 11.449 L 20.01 11.459 C 21.855 12.268 23.001 13.303 23.001 14.185 C 23.001 15.175 21.582 16.057 19.364 16.639 L 19.364 21 L 18.455 19.791 L 17.546 17.974 L 17.546 16.047 C 19.136 15.72 20.146 15.23 20.147 14.676 C 20.146 13.779 17.479 13.05 14.001 12.932 L 11.386 9.948 C 11.905 9.978 12.445 9.996 13.001 9.996 C 16.955 9.996 20.147 9.223 20.147 8.232 C 20.146 7.669 19.136 7.179 17.546 6.861 L 17.546 4.534 L 18.455 2.417 L 19.364 1 L 19.364 6.27 M 13.508 14.679 C 14.772 14.917 15.728 16.024 15.728 17.356 C 15.727 18.862 14.507 20.082 13.001 20.082 C 11.833 20.082 10.839 19.348 10.45 18.316 L 13.508 14.679 M 6.238 13.374 L 4.66 15.365 L 3.119 13.663 C 3.414 13.007 4.242 12.31 5.444 11.707 L 6.238 13.374 M 5.117 11.021 C 3.792 10.294 3 9.456 3 8.724 C 3 8.363 3.189 8.018 3.534 7.695 L 5.117 11.021 M 13.001 1.908 C 14.507 1.908 15.728 3.129 15.728 4.635 C 15.727 6.14 14.507 7.36 13.001 7.36 C 11.495 7.36 10.274 6.14 10.273 4.635 C 10.273 3.129 11.495 1.908 13.001 1.908 M 7.546 2.417 L 8.455 4.534 L 8.455 6.606 L 6.637 4.533 L 6.637 1 L 7.546 2.417" transform="matrix(1 0 0 1 0 0)" fill="#FFFFFF" stroke="none" />
  <path d="M 12.916 13.698 L 7.413 19.674 L 9.907 21.88 L 1 23 L 2.971 14.767 L 4.945 16.947 L 7.723 13.44 L 1.8 1 L 1.838 1 L 12.916 13.698" transform="matrix(1 0 0 1 0 0)" fill="#FFFFFF" stroke="none" />
</svg>
