<?xml version="1.0" encoding="UTF-8"?>
<!-- Reconstructed from Amplitude.Graphics.Svg.SvgAsset and recolored from static UIMapper.Color metadata for EWShop; not original source SVG. Live UI state/material colors are not included. -->
<svg xmlns="http://www.w3.org/2000/svg" width="24" height="24" viewBox="0 0 24 24">
  <path d="M 13.092 1 C 13.252 2.024 13.4 3.054 13.524 3.967 C 13.889 5.425 14.08 6.408 13.889 7.821 C 13.82 8.339 13.633 8.608 13.441 8.793 L 13.252 8.957 C 13.198 9.001 13.146 9.043 13.101 9.087 L 8.905 12.648 C 8.122 13.616 7.19 14.765 6.82 15.292 C 6.173 15.828 7.084 18.474 7.389 19.36 L 7.392 19.369 L 7.402 19.397 C 7.695 20.246 8.575 20.55 9.703 20.822 C 10.827 21.095 9.949 21.82 9.683 21.924 C 9.469 22.008 9.43 22.007 8.346 21.989 C 8.084 21.985 7.76 21.98 7.359 21.975 C 5.369 21.949 4.532 21.759 4.182 20.492 C 3.835 19.238 2.428 17.778 1.492 16.901 C 0.613 16.078 0.883 15.239 2.542 14.158 C 3.26 13.69 4.043 12.704 4.706 11.706 C 4.891 10.382 5.632 7.237 7.773 6.408 C 6.766 5.082 6.052 3.475 5.513 2.078 L 5.114 1 L 13.092 1" transform="matrix(1 0 0 1 0 0)" fill="#FFFFFF" stroke="none" />
  <path d="M 16 10 C 17.209 13.006 17.504 15.567 19.801 18.088 C 20.394 18.776 21.279 19.274 22.323 19.121 C 23.364 18.97 22.94 19.963 22.763 20.157 C 22.586 20.351 21.836 20.618 20.91 20.618 C 19.214 20.618 18.595 20.617 17.592 20.277 C 16.617 19.947 15.563 20.652 14.428 20.171 C 13.361 19.72 13.238 18.837 14.163 17.227 C 15.232 15.363 12.62 12.379 12.576 12.329 L 16 10 M 16.716 6.019 C 17.082 6.097 17.456 6.207 17.808 6.356 C 19.704 7.119 20.912 8.269 21.488 10.075 C 20.773 8.946 19.843 8.395 18.495 7.855 C 18.118 7.704 17.733 7.588 17.352 7.514 L 16.716 6.019 M 15 2 C 16.059 2.028 17.134 2.237 18.17 2.649 C 20.78 3.692 22.143 5.102 22.926 7.585 C 21.943 6.022 20.952 5.464 19.111 4.72 C 18.055 4.296 16.961 4.075 15.88 4.062 L 15 2" transform="matrix(1 0 0 1 0 0)" fill="#FFFFFF" stroke="none" />
</svg>
