<?xml version="1.0" encoding="UTF-8"?>
<!-- Reconstructed from Amplitude.Graphics.Svg.SvgAsset and recolored from static UIMapper.Color metadata for EWShop; not original source SVG. Live UI state/material colors are not included. -->
<svg xmlns="http://www.w3.org/2000/svg" width="24" height="24" viewBox="0 0 24 24">
  <path d="M 19.752 1 L 15.379 1 L 14.428 1.255 C 16.617 0.668 17.878 1.874 18.198 3.068 L 20.184 3.439 C 20.237 2.205 20.042 1.466 19.752 1" transform="matrix(1 0 0 1 0 0)" fill="#FFFFFF" stroke="none" />
  <path d="M 1 7.609 L 1 5.059 C 1.05 4.986 1.101 4.918 1.149 4.854 L 1.188 4.802 L 5.364 3.683 C 3.175 4.27 2.685 5.944 3.005 7.138 L 1.471 8.453 C 1.276 8.146 1.121 7.866 1 7.609" transform="matrix(1 0 0 1 0 0)" fill="#FFFFFF" stroke="none" />
  <path d="M 12.622 20.885 L 15.336 20.885 L 13.519 22.617 L 12.622 20.885" transform="matrix(1 0 0 1 0 0)" fill="#FFFFFF" stroke="none" />
  <path d="M 23 9.481 L 23 10.261 L 16 10.166 L 22.131 8.298 L 23 9.481" transform="matrix(1 0 0 1 0 0)" fill="#FFFFFF" stroke="none" />
  <path d="M 10.857 20.301 L 8.714 22.796 C 6.37 21.764 2.241 19.297 5.665 17.866 C 6.081 18.527 7.973 19.599 10.857 20.301" transform="matrix(1 0 0 1 0 0)" fill="#FFFFFF" stroke="none" />
  <path d="M 21.595 6.919 L 20.192 5.698 L 16.864 9.133 L 21.595 6.919" transform="matrix(1 0 0 1 0 0)" fill="#FFFFFF" stroke="none" />
  <path d="M 8.382 10.871 L 7.358 12.138 L 8.741 11.359 L 9.486 12.818 L 12.095 11.411 L 11.593 17.503 C 9.405 17.166 7.839 16.353 6.746 15.475 L 6.747 15.466 C 6.732 15.364 6.697 15.268 6.654 15.171 C 6.504 14.827 6.306 14.34 6.11 13.75 L 5.963 12.923 L 6.074 12.861 L 4.825 10.842 C 4.339 10.021 4.339 10.018 4.186 9.249 C 4.164 9.137 4.138 9.008 4.107 8.857 C 3.579 6.289 4.212 5.046 4.592 4.747 L 6.398 4.065 C 6.377 3.497 7.03 2.221 9.798 1.554 C 12.529 0.748 13.732 1.526 13.992 2.04 L 15.897 1.727 C 16.375 1.796 17.545 2.556 18.372 5.044 C 18.486 5.386 18.576 5.732 18.647 6.078 L 17.978 6.589 C 17.906 6.219 17.799 5.814 17.659 5.395 C 17.151 3.885 16.395 2.779 15.964 2.923 C 15.533 3.067 15.601 4.404 16.109 5.914 C 16.313 6.522 16.558 7.064 16.805 7.486 L 14.529 9.224 L 13.18 7.703 L 12.469 8.551 L 11.72 5.33 C 13.003 4.62 13.701 3.162 13.539 2.557 C 13.346 1.837 11.781 1.635 10.039 2.102 C 8.296 2.569 7.042 3.526 7.235 4.246 C 7.402 4.869 8.811 5.818 10.318 5.734 L 11.519 9.682 L 9.613 11.953 L 8.382 10.871" transform="matrix(1 0 0 1 0 0)" fill="#FFFFFF" stroke="none" />
  <path d="M 20.05 10.689 C 19.852 11.805 19.464 12.849 19.029 13.75 L 15.063 17.53 C 14.287 17.66 13.391 17.7 12.357 17.602 L 13.395 10.71 L 14.369 10.184 L 15.062 12.095 L 17.819 11.318 C 17.929 12.036 18.143 12.509 18.414 12.524 C 18.742 12.542 19.058 11.885 19.24 10.918 L 20.05 10.689" transform="matrix(1 0 0 1 0 0)" fill="#FFFFFF" stroke="none" />
  <path d="M 11.98 18.474 C 12.705 18.558 13.373 18.581 13.988 18.555 L 12.967 19.528 C 12.593 19.529 12.227 19.518 11.88 19.496 L 11.592 19.463 C 11.493 19.451 11.394 19.44 11.305 19.42 C 9.656 19.155 7.62 18.543 6.682 17.738 C 6.416 17.515 6.384 17.246 6.458 16.998 C 6.479 16.937 6.5 16.877 6.52 16.818 C 6.541 16.758 6.561 16.699 6.582 16.637 C 6.589 16.615 6.596 16.596 6.603 16.576 C 6.61 16.556 6.617 16.536 6.624 16.514 C 7.896 17.422 9.631 18.2 11.98 18.474" transform="matrix(1 0 0 1 0 0)" fill="#FFFFFF" stroke="none" />
  <path d="M 15.339 19.34 L 15.291 19.385 L 17.055 19.385 L 19.084 17.646 L 21.113 19.385 L 23.001 19.385 L 19.084 15.771 L 16.695 18.047 C 16.696 18.047 16.695 18.047 16.695 18.047 L 15.339 19.34 C 15.339 19.34 15.339 19.34 15.339 19.34" transform="matrix(1 0 0 1 0 0)" fill="#FFFFFF" stroke="none" />
  <path d="M 19.084 19.385 L 23.001 23 L 21.113 23 L 19.084 21.261 L 17.055 23 L 15.291 23 L 19.084 19.385" transform="matrix(1 0 0 1 0 0)" fill="#FFFFFF" stroke="none" />
</svg>
