<?xml version="1.0" encoding="UTF-8"?>
<!-- Reconstructed from Amplitude.Graphics.Svg.SvgAsset and recolored from static UIMapper.Color metadata for EWShop; not original source SVG. Live UI state/material colors are not included. -->
<svg xmlns="http://www.w3.org/2000/svg" width="24" height="24" viewBox="0 0 24 24">
  <path d="M 11.577 10.89 L 11.577 18.98 C 11.717 19.15 11.806 19.32 11.895 19.47 C 11.995 19.66 12.084 19.82 12.233 19.99 C 12.492 20.28 12.949 20.64 14.012 21.07 L 14.012 12.32 C 13.456 12.18 13.028 12.07 12.601 11.81 C 12.273 11.61 11.955 11.32 11.567 10.89 L 11.577 10.89" transform="matrix(1 0 0 1 0 0)" fill="#FFFFFF" stroke="none" />
  <path d="M 5.972 1 L 1.5 6.59 L 4.422 6.59 L 4.422 12 L 7.523 12 L 7.523 6.59 L 10.445 6.59 L 5.972 1" transform="matrix(1 0 0 1 0 0)" fill="#FFFFFF" stroke="none" />
  <path d="M 22.053 3.07 C 20.602 4.7 17.054 5.26 14.966 5.35 C 14.728 5.36 14.539 5.55 14.539 5.79 L 14.539 9.33 C 14.788 9.4 15.056 9.45 15.354 9.47 L 15.434 6.7 C 15.434 6.47 15.632 6.28 15.861 6.28 L 16.06 6.28 C 18.216 6.24 19.717 6.22 21.267 4.67 C 21.387 4.55 21.576 4.51 21.735 4.58 C 21.894 4.65 22.003 4.81 22.003 4.98 L 22.003 16.74 C 22.003 16.83 21.973 16.91 21.933 16.98 L 21.933 17 C 21.496 17.65 21.009 18.38 20.055 18.92 C 19.24 19.38 18.107 19.69 16.417 19.77 L 16.417 20.64 C 19.488 20.68 21.516 18.82 22.321 17.59 C 22.4 17.46 22.44 17.31 22.44 17.16 L 22.51 3.23 C 22.51 3.04 22.182 2.95 22.053 3.09 L 22.053 3.07" transform="matrix(1 0 0 1 0 0)" fill="#FFFFFF" stroke="none" />
  <path d="M 21.129 16.6 L 21.129 5.93 C 19.648 7.04 18.108 7.12 16.408 7.15 L 16.408 18.9 C 17.988 18.82 18.962 18.53 19.618 18.16 C 20.344 17.75 20.722 17.22 21.129 16.61 L 21.129 16.6" transform="matrix(1 0 0 1 0 0)" fill="#FFFFFF" stroke="none" />
  <path d="M 15.145 10.8 C 13.535 10.71 11.717 9.6 10.762 8.07 C 10.683 7.94 10.444 8 10.444 8.15 L 10.504 19.61 C 10.504 19.61 10.504 19.66 10.524 19.68 C 10.603 19.82 10.693 19.98 10.772 20.14 C 11.389 21.32 12.233 22.94 15.145 22.99 C 15.225 22.99 15.294 22.93 15.294 22.85 L 15.294 10.94 C 15.294 10.86 15.235 10.8 15.155 10.8 L 15.145 10.8 M 14.728 21.59 C 14.728 21.71 14.668 21.81 14.579 21.88 C 14.479 21.95 14.36 21.96 14.251 21.92 C 12.8 21.38 12.104 20.91 11.697 20.45 C 11.498 20.22 11.379 20.01 11.279 19.83 C 11.18 19.64 11.09 19.5 10.961 19.35 C 10.902 19.28 10.872 19.2 10.872 19.11 L 10.872 9.92 C 10.872 9.77 10.971 9.64 11.11 9.59 C 11.249 9.54 11.408 9.59 11.508 9.7 C 12.223 10.58 12.621 10.98 12.999 11.21 C 13.336 11.42 13.674 11.5 14.291 11.65 L 14.479 11.7 C 14.638 11.74 14.748 11.88 14.748 12.04 L 14.748 21.59 L 14.728 21.59" transform="matrix(1 0 0 1 0 0)" fill="#FFFFFF" stroke="none" />
</svg>
