<?xml version="1.0" encoding="UTF-8"?>
<!-- Reconstructed from Amplitude.Graphics.Svg.SvgAsset and recolored from static UIMapper.Color metadata for EWShop; not original source SVG. Live UI state/material colors are not included. -->
<svg xmlns="http://www.w3.org/2000/svg" width="24" height="24" viewBox="0 0 24 24">
  <path d="M 21.135 10.444 L 21.569 11.305 L 23 13.341 L 20.407 14.741 L 17.336 16 L 15.88 13.789 L 16.728 13.341 L 17.784 11.305 L 15.72 12.645 L 13.512 13.016 L 12.408 12.212 L 12.296 10.604 L 11.768 9.398 L 11 8.702 L 12.296 6.852 L 12.166 4.796 L 13.512 2.019 L 16.344 1 L 17.991 1 L 19.391 1.315 L 20.686 2.019 L 21.69 2.944 L 21.915 4.139 L 19.955 2.678 L 18.403 1.961 L 16.24 1.961 L 14.605 2.678 L 13.841 3.618 L 13.203 4.958 L 13.841 6.052 L 15.346 6.392 L 16.798 6.572 L 18.206 6.24 L 19.474 5.829 L 20.51 5.658 L 19.474 7.271 L 17.336 8.1 L 19.547 9.132 L 20.881 9.464 L 21.135 10.444" transform="matrix(1 0 0 1 0 0)" fill="#FFFFFF" stroke="none" />
  <path d="M 11.83 16.128 C 11.843 16.127 13.293 16.029 13.294 16.977 C 13.294 17.596 11.651 17.826 10.41 17.986 C 9.281 18.124 8.097 18.274 7.314 18.561 C 7.68 18.647 8.004 18.732 8.301 18.811 C 8.439 18.847 8.572 18.883 8.7 18.916 L 8.716 18.92 C 10.582 19.422 11.247 19.6 14.412 18.124 C 15.541 17.596 17.228 16.977 18.323 16.977 C 18.323 16.977 20 16.771 20 18.561 C 19.993 18.561 17.471 18.688 15.552 19.937 C 13.92 21.003 12.992 21.75 12.389 22.243 L 12.377 22.252 C 11.737 22.773 11.459 23 11.059 23 C 10.58 23 10.15 22.949 9.721 22.898 C 9.649 22.89 9.577 22.882 9.505 22.874 L 9.475 22.87 C 8.433 22.745 7.341 22.614 5.471 23 C 3.85 21.968 1.928 19.26 1 17.551 C 2.118 17.551 2.956 17.195 3.794 16.84 C 4.632 16.484 5.47 16.128 6.588 16.128 L 8.433 16.128 C 8.46 16.128 10.553 16.094 11.83 16.128" transform="matrix(1 0 0 1 0 0)" fill="#FFFFFF" stroke="none" />
  <path d="M 11.016 6.92 L 10.5 5.299 L 10.005 6.854 L 9.801 7.499 L 7.657 8.217 L 9.801 8.935 L 10.005 9.579 L 10.5 11.135 L 10.995 9.579 L 11.751 11.5 L 10.5 15.434 L 8.77 9.992 L 3.469 8.217 L 8.77 6.441 L 10.5 1 L 11.549 4.299 L 11.016 6.92" transform="matrix(1 0 0 1 0 0)" fill="#FFFFFF" stroke="none" />
</svg>
