<?xml version="1.0" encoding="UTF-8"?>
<!-- Reconstructed from Amplitude.Graphics.Svg.SvgAsset and recolored from static UIMapper.Color metadata for EWShop; not original source SVG. Live UI state/material colors are not included. -->
<svg xmlns="http://www.w3.org/2000/svg" width="24" height="24" viewBox="0 0 24 24">
  <path d="M 5.336 3.438 C 5 3.537 4.738 3.483 4.623 3.141 C 4.504 2.786 4.545 1.467 4.825 1.212 C 5.042 1.013 5.352 0.926 5.618 1.074 C 6.007 1.291 5.895 1.619 5.786 1.939 C 5.749 2.048 5.712 2.157 5.695 2.26 C 5.68 2.354 5.675 2.468 5.67 2.587 C 5.654 2.944 5.636 3.35 5.336 3.438" transform="matrix(1 0 0 1 0 0)" fill="#FFFFFF" stroke="none" />
  <path d="M 4.027 3.294 C 3.619 3.689 3.097 3.404 2.893 2.945 C 2.782 2.694 2.695 1.853 2.805 1.602 C 2.992 1.176 3.925 0.863 4.024 1.395 C 4.041 1.482 4 1.662 3.959 1.843 C 3.927 1.987 3.894 2.132 3.89 2.231 C 3.877 2.531 3.928 2.789 3.983 3.065 C 3.997 3.14 4.012 3.215 4.027 3.294" transform="matrix(1 0 0 1 0 0)" fill="#FFFFFF" stroke="none" />
  <path d="M 5.998 8.013 L 5.867 8.044 C 5.645 7.162 5.204 6.444 4.596 5.778 C 5.263 5.738 6.587 5.349 6.884 4.718 C 7.07 4.324 6.647 4.2 6.332 4.107 L 6.297 4.097 C 5.389 3.829 4.001 3.943 3.083 4.144 C 1.967 4.389 1.982 4.457 2.159 5.291 C 2.185 5.411 2.214 5.546 2.243 5.7 C 2.375 6.394 2.564 7.092 2.785 7.763 L 2.795 7.794 C 2.915 8.158 3.307 9.346 3.49 9.487 C 3.583 9.559 4.265 9.545 4.773 9.533 C 4.991 9.529 5.177 9.525 5.27 9.529 C 5.708 9.547 6.157 9.59 6.591 9.647 C 6.685 9.66 6.82 9.69 6.971 9.724 C 7.378 9.816 7.905 9.935 8.074 9.804 C 8.162 9.736 8.426 9.328 8.501 9.204 C 9.013 8.36 9.328 6.846 9.286 5.855 L 9.283 5.792 C 9.27 5.451 9.25 4.9 8.807 4.927 C 8.266 4.96 6.982 5.54 6.57 5.883 C 6.292 6.115 6.188 6.72 6.098 7.248 C 6.06 7.469 6.024 7.677 5.979 7.838 C 5.964 7.893 5.979 7.959 5.998 8.013" transform="matrix(1 0 0 1 0 0)" fill="#FFFFFF" stroke="none" />
  <path d="M 7.984 4.19 C 8.154 4.697 9.044 4.187 9.216 3.891 C 9.228 3.69 9.303 3.442 9.382 3.182 C 9.566 2.578 9.769 1.909 9.234 1.619 C 8.439 1.188 8.286 2.128 8.182 2.762 C 8.17 2.838 8.158 2.91 8.146 2.975 L 8.135 3.034 C 8.081 3.315 7.94 4.061 7.984 4.19" transform="matrix(1 0 0 1 0 0)" fill="#FFFFFF" stroke="none" />
  <path d="M 7.324 3.352 C 7.071 3.669 6.416 3.638 6.292 3.226 C 6.205 2.935 6.39 1.748 6.576 1.515 C 6.816 1.213 7.59 1.228 7.689 1.614 C 7.76 1.89 7.504 3.125 7.324 3.352" transform="matrix(1 0 0 1 0 0)" fill="#FFFFFF" stroke="none" />
  <path d="M 17.908 3.438 C 18.244 3.537 18.505 3.483 18.62 3.141 C 18.739 2.786 18.699 1.467 18.419 1.212 C 18.202 1.013 17.892 0.926 17.626 1.074 C 17.237 1.291 17.348 1.619 17.457 1.939 C 17.495 2.048 17.532 2.157 17.548 2.26 C 17.564 2.354 17.569 2.468 17.574 2.587 C 17.59 2.944 17.608 3.35 17.908 3.438" transform="matrix(1 0 0 1 0 0)" fill="#FFFFFF" stroke="none" />
  <path d="M 19.217 3.294 C 19.625 3.689 20.147 3.404 20.35 2.945 C 20.462 2.694 20.549 1.853 20.439 1.602 C 20.252 1.176 19.319 0.863 19.219 1.395 C 19.203 1.482 19.244 1.662 19.284 1.843 C 19.317 1.987 19.349 2.132 19.354 2.231 C 19.367 2.531 19.316 2.789 19.261 3.065 C 19.246 3.139 19.231 3.215 19.217 3.294" transform="matrix(1 0 0 1 0 0)" fill="#FFFFFF" stroke="none" />
  <path d="M 17.246 8.013 L 17.377 8.044 C 17.599 7.162 18.04 6.444 18.647 5.778 C 17.98 5.738 16.657 5.349 16.359 4.718 C 16.174 4.324 16.597 4.2 16.912 4.107 L 16.947 4.097 C 17.855 3.829 19.243 3.943 20.161 4.144 C 21.276 4.389 21.262 4.457 21.084 5.291 C 21.059 5.411 21.03 5.546 21.001 5.7 C 20.869 6.394 20.68 7.092 20.459 7.763 L 20.449 7.794 C 20.329 8.158 19.937 9.346 19.754 9.487 C 19.661 9.559 18.979 9.545 18.471 9.533 C 18.253 9.529 18.067 9.525 17.974 9.529 C 17.536 9.547 17.087 9.59 16.652 9.647 C 16.559 9.66 16.424 9.69 16.273 9.724 C 15.866 9.816 15.339 9.935 15.169 9.804 C 15.082 9.736 14.818 9.328 14.743 9.204 C 14.231 8.36 13.915 6.846 13.958 5.855 L 13.961 5.792 C 13.973 5.451 13.994 4.9 14.437 4.927 C 14.977 4.96 16.262 5.54 16.673 5.883 C 16.952 6.115 17.056 6.72 17.146 7.248 C 17.184 7.469 17.219 7.677 17.264 7.838 C 17.28 7.893 17.265 7.959 17.246 8.013" transform="matrix(1 0 0 1 0 0)" fill="#FFFFFF" stroke="none" />
  <path d="M 15.26 4.19 C 15.089 4.697 14.199 4.187 14.028 3.891 C 14.016 3.69 13.941 3.442 13.862 3.182 C 13.678 2.578 13.475 1.909 14.01 1.619 C 14.804 1.188 14.958 2.128 15.062 2.762 C 15.074 2.838 15.086 2.911 15.098 2.975 L 15.109 3.034 C 15.162 3.315 15.303 4.061 15.26 4.19" transform="matrix(1 0 0 1 0 0)" fill="#FFFFFF" stroke="none" />
  <path d="M 15.92 3.352 C 16.172 3.669 16.828 3.638 16.951 3.226 C 17.039 2.935 16.854 1.748 16.668 1.515 C 16.428 1.213 15.654 1.228 15.555 1.614 C 15.484 1.89 15.74 3.125 15.92 3.352" transform="matrix(1 0 0 1 0 0)" fill="#FFFFFF" stroke="none" />
  <path d="M 6.602 23.392 L 7.104 22.094 L 7.308 20.937 C 7.314 20.301 7.411 19.649 7.509 18.993 C 7.682 17.836 7.857 16.668 7.532 15.55 C 7.521 15.514 7.513 15.481 7.505 15.45 C 7.464 15.294 7.44 15.197 7.253 15.097 C 6.954 14.938 5.514 15.018 5.101 15.053 C 4.795 15.078 3.411 15.227 3.27 15.422 C 3.194 15.527 3.093 16.121 3.003 16.643 C 2.948 16.962 2.898 17.254 2.861 17.394 C 2.754 17.796 2.611 18.205 2.467 18.614 C 2.295 19.107 2.121 19.601 2.011 20.087 C 1.956 20.329 2.124 21.024 2.124 21.024 L 6.602 23.392" transform="matrix(1 0 0 1 0 0)" fill="#FFFFFF" stroke="none" />
  <path d="M 16.14 22.094 L 16.642 23.392 L 21.12 21.024 C 21.12 21.024 21.288 20.329 21.233 20.087 C 21.122 19.601 20.949 19.107 20.776 18.614 C 20.633 18.205 20.489 17.796 20.383 17.394 C 20.346 17.254 20.296 16.962 20.241 16.643 C 20.151 16.121 20.049 15.527 19.973 15.422 C 19.833 15.227 18.448 15.078 18.143 15.053 C 17.73 15.018 16.29 14.938 15.991 15.097 C 15.804 15.197 15.779 15.294 15.739 15.45 C 15.731 15.481 15.723 15.514 15.712 15.55 C 15.386 16.668 15.561 17.836 15.734 18.993 C 15.833 19.649 15.93 20.301 15.935 20.937 L 16.14 22.094" transform="matrix(1 0 0 1 0 0)" fill="#FFFFFF" stroke="none" />
  <path d="M 8.514 13.254 C 8.522 13.429 8.532 13.602 8.545 13.772 C 8.563 14.014 8.373 14.224 8.13 14.222 L 3.136 14.171 C 2.919 14.169 2.743 13.996 2.733 13.779 C 2.722 13.521 2.706 13.234 2.689 12.929 L 2.626 11.915 C 2.609 11.641 2.59 11.362 2.571 11.084 C 2.555 10.849 2.743 10.65 2.98 10.652 L 8.116 10.704 C 8.347 10.706 8.529 10.9 8.519 11.131 L 8.514 11.25 C 8.513 11.296 8.511 11.343 8.509 11.39 C 8.507 11.461 8.505 11.533 8.503 11.605 C 8.5 11.741 8.497 11.878 8.495 12.015 L 9.981 11.981 C 10.11 11.513 10.541 11.171 11.05 11.178 L 12.415 11.195 C 12.952 11.202 13.394 11.595 13.479 12.107 L 14.876 12.167 L 14.861 11.915 C 14.843 11.641 14.824 11.362 14.805 11.084 C 14.79 10.849 14.978 10.65 15.214 10.652 L 20.35 10.704 C 20.581 10.706 20.763 10.9 20.753 11.131 L 20.749 11.25 C 20.747 11.296 20.745 11.343 20.744 11.39 C 20.741 11.461 20.739 11.533 20.737 11.605 C 20.732 11.815 20.729 12.027 20.728 12.239 L 20.748 13.254 C 20.756 13.429 20.766 13.602 20.779 13.772 C 20.797 14.014 20.607 14.224 20.364 14.222 L 15.37 14.171 C 15.153 14.169 14.977 13.996 14.967 13.779 C 14.958 13.564 14.945 13.328 14.932 13.079 L 13.472 13.017 C 13.384 13.539 12.926 13.934 12.38 13.927 L 11.014 13.909 C 10.44 13.902 9.975 13.453 9.938 12.89 L 8.507 12.922 L 8.514 13.254 M 11.162 13.092 C 10.935 13.089 10.754 12.903 10.757 12.677 L 10.761 12.403 C 10.763 12.177 10.949 11.996 11.176 11.999 L 12.268 12.013 C 12.494 12.016 12.676 12.202 12.673 12.428 L 12.669 12.701 C 12.666 12.927 12.48 13.109 12.254 13.106 L 11.162 13.092" transform="matrix(1 0 0 1 0 0)" fill="#FFFFFF" stroke="none" />
</svg>
