<?xml version="1.0" encoding="UTF-8"?>
<!-- Reconstructed from Amplitude.Graphics.Svg.SvgAsset and recolored from static UIMapper.Color metadata for EWShop; not original source SVG. Live UI state/material colors are not included. -->
<svg xmlns="http://www.w3.org/2000/svg" width="24" height="24" viewBox="0 0 24 24">
  <path d="M 19.078 5.473 C 19.623 5.654 20.114 5.953 20.47 6.418 C 20.846 6.91 21 7.495 21 8.1 L 21 8.889 L 23 10 L 21 11 L 21 13.4 C 21 14.038 20.933 14.644 20.804 15.219 L 23 16.5 L 21.509 16.648 L 19.764 15.038 C 19.797 14.915 19.83 14.791 19.856 14.666 L 19.891 14.686 C 19.938 14.413 19.972 14.133 19.988 13.844 L 20 13.4 L 20 8.1 C 20 7.287 19.619 6.738 18.857 6.453 L 18.7 6.4 L 18.2 6.3 C 16.334 5.7 14.633 4.767 13.1 3.5 C 12.366 2.834 11.634 2.834 10.9 3.5 C 9.367 4.767 7.666 5.7 5.8 6.3 L 5.3 6.4 L 5.143 6.453 C 4.739 6.604 4.443 6.83 4.253 7.129 C 4.174 7.26 4.111 7.402 4.068 7.553 C 4.023 7.719 4 7.902 4 8.1 L 4 13.4 L 4.002 13.497 L 4.005 13.496 C 4.027 14.303 4.197 15.087 4.498 15.817 L 4.412 15.81 C 4.681 16.529 5.083 17.18 5.617 17.763 L 5.655 17.688 C 6.033 18.123 6.468 18.518 6.954 18.859 L 6.928 18.883 C 6.985 18.922 7.041 18.962 7.1 19 L 9 20.312 L 9 20.247 L 10.12 21.005 L 10.08 21.058 L 11.3 21.9 C 11.766 22.234 12.234 22.234 12.7 21.9 L 14.118 20.921 L 14.075 20.872 L 14.909 20.307 C 14.924 20.313 14.94 20.32 14.955 20.325 L 14.959 20.34 L 14.971 20.331 C 15.072 20.366 15.18 20.386 15.291 20.386 L 16.585 20.386 L 16.406 20.555 L 15.219 21.376 L 15.281 21.628 L 14.984 21.911 L 14.78 21.678 L 13.269 22.723 L 13.268 22.722 C 12.907 22.976 12.48 23.15 12 23.15 C 11.52 23.15 11.092 22.977 10.731 22.722 L 9.479 21.858 L 9 22.5 L 9 21.526 L 6.532 19.823 C 6.408 19.742 6.287 19.657 6.169 19.572 L 3.5 22 L 5.145 18.709 C 4.277 17.85 3.665 16.849 3.324 15.71 L 1 15.5 L 3.034 14.143 C 3.014 13.9 3 13.653 3 13.4 L 3 11.563 L 1.5 11 L 3 10.666 L 3 8.1 C 3 7.7 3.069 7.308 3.224 6.946 L 1 4.5 L 4.768 5.526 C 4.846 5.496 4.925 5.469 5.006 5.444 L 5.055 5.43 L 5.104 5.419 L 5.542 5.331 C 5.833 5.236 6.119 5.132 6.401 5.02 L 6 1 L 8.635 3.898 C 9.198 3.55 9.74 3.161 10.263 2.729 C 10.742 2.305 11.325 2 12 2 C 12.34 2 12.657 2.077 12.949 2.208 L 13.5 1 L 13.916 2.874 L 14.008 2.948 C 14.639 3.445 15.299 3.881 15.987 4.26 L 20.5 0.5 L 19.078 5.473" transform="matrix(1 0 0 1 0 0)" fill="#FFFFFF" stroke="none" />
  <path d="M 17.893 13.565 C 17.891 13.588 17.886 13.611 17.884 13.634 C 17.887 13.606 17.891 13.579 17.894 13.551 L 17.893 13.565" transform="matrix(1 0 0 1 0 0)" fill="#FFFFFF" stroke="none" />
  <path d="M 15.197 6.005 C 15.144 5.977 15.089 5.95 15.036 5.921 L 14.699 5.731 C 14.863 5.826 15.03 5.916 15.197 6.005" transform="matrix(1 0 0 1 0 0)" fill="#FFFFFF" stroke="none" />
  <path d="M 8.964 5.92 C 8.944 5.931 8.924 5.94 8.904 5.95 C 9.038 5.879 9.17 5.807 9.301 5.731 L 8.964 5.92" transform="matrix(1 0 0 1 0 0)" fill="#FFFFFF" stroke="none" />
  <path d="M 13.721 5.114 L 14.041 5.328 C 13.933 5.258 13.826 5.187 13.721 5.114 L 13.406 4.893 C 13.51 4.968 13.615 5.042 13.721 5.114" transform="matrix(1 0 0 1 0 0)" fill="#FFFFFF" stroke="none" />
  <path d="M 23 23 L 21.112 23 L 19.083 21.261 L 17.055 23 L 15.291 23 L 19.083 19.386 L 23 23" transform="matrix(1 0 0 1 0 0)" fill="#FFFFFF" stroke="none" />
  <path d="M 11.499 4.181 C 11.782 3.94 12.218 3.94 12.501 4.181 C 14.058 5.509 15.903 6.512 17.91 7.122 L 18.405 7.274 C 18.759 7.381 19 7.689 19 8.035 L 19 13.32 C 19 13.83 18.927 14.332 18.791 14.815 C 18.647 14.859 18.51 14.936 18.394 15.047 L 14.602 18.661 C 14.368 18.884 14.261 19.202 14.301 19.513 L 12.187 20.944 C 12.075 21.019 11.925 21.019 11.814 20.944 L 7.62 18.108 C 5.974 16.994 5 15.213 5 13.32 L 5 8.035 C 5 7.689 5.241 7.381 5.595 7.274 L 6.09 7.122 C 8.097 6.512 9.942 5.509 11.499 4.181 M 7.996 16.978 C 8.1 17.06 8.208 17.139 8.319 17.214 L 11.588 19.425 C 11.834 19.591 12.166 19.591 12.412 19.425 L 15.632 17.247 L 14.982 16.643 L 12 18.661 L 8.853 16.531 C 8.78 16.482 8.708 16.432 8.64 16.379 L 7.996 16.978 M 12.75 6.853 C 13.86 7.669 15.119 8.298 16.468 8.708 L 16.854 8.825 C 16.943 8.853 17.005 8.931 17.005 9.019 L 17.005 13.139 C 17.005 14.055 16.683 14.934 16.107 15.651 L 16.754 16.252 C 17.495 15.375 17.912 14.281 17.912 13.139 L 17.912 9.019 C 17.912 8.566 17.598 8.165 17.136 8.025 L 16.749 7.906 C 15.268 7.456 13.905 6.72 12.75 5.747 L 12.75 6.853 M 11.2 5.789 C 10.056 6.741 8.712 7.462 7.252 7.906 L 6.864 8.025 C 6.402 8.165 6.089 8.566 6.089 9.019 L 6.089 13.139 C 6.089 14.13 6.403 15.084 6.97 15.893 L 7.627 15.281 C 7.219 14.642 6.996 13.903 6.996 13.139 L 6.996 9.019 C 6.996 8.931 7.057 8.853 7.146 8.825 L 7.533 8.708 C 8.862 8.304 10.103 7.687 11.2 6.889 L 11.2 5.789" transform="matrix(1 0 0 1 0 0)" fill="#FFFFFF" stroke="none" />
  <path d="M 23 19.386 L 21.112 19.386 L 19.083 17.647 L 17.055 19.386 L 15.291 19.386 L 19.083 15.771 L 23 19.386" transform="matrix(1 0 0 1 0 0)" fill="#FFFFFF" stroke="none" />
</svg>
