<?xml version="1.0" encoding="UTF-8"?>
<!-- Reconstructed from Amplitude.Graphics.Svg.SvgAsset and recolored from static UIMapper.Color metadata for EWShop; not original source SVG. Live UI state/material colors are not included. -->
<svg xmlns="http://www.w3.org/2000/svg" width="24" height="24" viewBox="0 0 24 24">
  <path d="M 20.294 4.312 C 20.334 4.158 20.289 3.995 20.176 3.883 L 18.685 2.398 L 20.724 2.92 C 20.878 2.96 21.041 2.915 21.152 2.802 L 22.638 1.311 L 22.115 3.35 C 22.076 3.504 22.121 3.666 22.233 3.778 L 23.725 5.264 L 21.686 4.741 C 21.532 4.702 21.369 4.747 21.257 4.859 L 19.772 6.351 L 20.294 4.312 M 12.555 5.098 C 12.572 4.993 12.533 4.888 12.452 4.82 L 11.558 4.072 L 12.708 4.262 C 12.812 4.28 12.918 4.241 12.985 4.16 L 13.734 3.265 L 13.543 4.416 C 13.526 4.52 13.565 4.625 13.646 4.693 L 14.54 5.441 L 13.39 5.251 C 13.286 5.233 13.18 5.273 13.112 5.354 L 12.364 6.248 L 12.555 5.098 M 20.847 13.729 C 20.949 13.757 21.028 13.836 21.056 13.938 L 21.539 15.708 L 22.021 13.938 C 22.049 13.836 22.129 13.757 22.231 13.729 L 24 13.246 L 22.231 12.764 C 22.129 12.736 22.049 12.656 22.021 12.555 L 21.539 10.785 L 21.056 12.555 C 21.028 12.656 20.949 12.736 20.847 12.764 L 19.077 13.246 L 20.847 13.729" transform="matrix(1 0 0 1 0 0)" fill="#FFFFFF" stroke="none" />
  <path d="M 9.618 23.881 L 18.356 19.594 C 18.493 19.41 18.014 18.792 17.447 18.059 L 17.447 18.059 C 17.167 17.697 16.865 17.307 16.605 16.927 L 16.001 16.323 L 14.155 12.016 L 8.538 9.87 C 8.215 9.747 8.001 9.437 8.001 9.091 C 8.001 8.751 8.207 8.445 8.522 8.317 L 11.918 6.938 C 11.873 6.914 11.829 6.889 11.784 6.863 C 11.118 6.47 10.196 6.414 9.55 6.841 C 7.861 7.958 5.447 8.47 3.996 7.038 C 3.061 6.115 3.332 4.57 4.258 3.639 C 6.235 1.652 9.883 -0.006 14.823 2.983 C 15.021 3.1 15.194 3.225 15.341 3.365 L 15.727 2.121 C 15.382 1.795 15.015 1.522 14.631 1.322 C 9.995 -1.094 3.169 0.005 1.889 5.749 C 1.74 6.426 1.758 7.093 1.774 7.741 C 1.79 8.359 1.806 8.96 1.676 9.535 C 1.573 9.992 1.267 10.344 0.96 10.697 C 0.609 11.101 0.258 11.505 0.207 12.07 C 0.191 12.739 1.262 13.432 1.262 13.432 C 1.729 14.687 2.206 16.304 2.375 17.795 C 2.43 18.283 2.728 18.729 3.203 18.85 C 5.651 19.474 8.268 18.588 10.049 16.829 C 9.832 17.502 9.147 18.181 8.527 18.795 C 7.913 19.404 7.362 19.95 7.394 20.365 L 9.618 23.881 M 15.232 10.128 C 15.626 10.235 15.935 10.544 16.043 10.939 L 17.231 15.297 L 18.42 10.939 C 18.528 10.544 18.836 10.235 19.231 10.128 L 23.59 8.939 L 19.231 7.75 C 18.836 7.642 18.528 7.334 18.42 6.939 L 17.231 2.58 L 16.043 6.939 C 15.935 7.334 15.626 7.642 15.232 7.75 L 10.873 8.939 L 15.232 10.128" transform="matrix(1 0 0 1 0 0)" fill="#FFFFFF" stroke="none" />
</svg>
