<?xml version="1.0" encoding="UTF-8"?>
<!-- Reconstructed from Amplitude.Graphics.Svg.SvgAsset and recolored from static UIMapper.Color metadata for EWShop; not original source SVG. Live UI state/material colors are not included. -->
<svg xmlns="http://www.w3.org/2000/svg" width="24" height="24" viewBox="0 0 24 24">
  <path d="M 5.753 16.987 C 6.674 18.044 7.421 18.641 8.721 19.179 C 10.621 19.964 11.649 20.267 13.65 19.723 C 15.507 19.218 17.049 18.52 18.264 16.989 L 19.069 18.474 C 19.067 18.889 16.511 21.443 15.987 21.747 C 15.293 22.152 12.613 23.114 11.874 23.076 C 11.206 23.043 9.203 22.335 8.541 22.018 C 6.968 21.264 6.014 19.889 4.913 18.596 L 5.753 16.987" transform="matrix(1 0 0 1 0 0)" fill="#FFFFFF" stroke="none" />
  <path d="M 11.892 11.333 L 12.093 11.403 L 12.294 11.331 L 19.61 8.717 C 19.401 9.105 19.138 9.494 18.873 9.89 C 18.264 10.797 17.633 13.111 17.556 14.143 C 17.542 14.327 17.573 14.665 17.602 14.975 C 17.631 15.288 17.657 15.573 17.632 15.644 C 17.599 15.731 16.553 16.899 16.392 17.047 C 15.672 17.704 13.055 18.764 12.105 18.841 C 10.875 18.939 8.049 17.51 7.16 16.576 C 6.364 15.741 6.379 15.6 6.434 15.11 C 6.455 14.918 6.482 14.67 6.469 14.306 C 6.43 13.264 5.628 10.698 4.936 9.669 C 4.705 9.325 4.486 8.998 4.311 8.702 L 11.892 11.333" transform="matrix(1 0 0 1 0 0)" fill="#FFFFFF" stroke="none" />
  <path d="M 9.162 2.855 C 9.213 2.969 9.566 3.065 9.605 3.134 L 11.484 3.696 L 11.484 9.908 L 4.706 7.556 C 4.885 7.161 5.063 6.762 5.137 6.296 C 5.381 4.765 4.946 3.412 4.497 2.012 C 4.42 1.772 4.343 1.529 4.268 1.285 L 6.165 0.971 L 9.162 2.855" transform="matrix(1 0 0 1 0 0)" fill="#FFFFFF" stroke="none" />
  <path d="M 16.498 4.222 L 15.5 5.221 L 15.5 8.5 L 16.615 8.5 L 12.696 9.9 L 12.696 3.571 L 14.376 3.134 L 14.718 2.92 L 14.967 2.763 L 16.498 4.222" transform="matrix(1 0 0 1 0 0)" fill="#FFFFFF" stroke="none" />
  <path d="M 3.17 2.064 C 3.853 4.173 4.57 6.349 2.783 8.149 C 2.38 7.633 0.391 6.939 0.364 6.373 C 0.318 5.369 2.06 2.454 3.17 2.064" transform="matrix(1 0 0 1 0 0)" fill="#FFFFFF" stroke="none" />
  <path d="M 18.67 6.292 L 17.963 7 L 17 7 L 17 5.842 L 17.584 5.257 L 18.67 6.292" transform="matrix(1 0 0 1 0 0)" fill="#FFFFFF" stroke="none" />
  <path d="M 23 1.963 L 21.012 3.951 L 23 5.939 L 23 7 L 21.94 7 L 19.951 5.012 L 17.963 7 L 17 7 L 17 5.842 L 18.891 3.951 L 17 2.061 L 17 1 L 18.061 1 L 19.951 2.891 L 21.842 1 L 23 1 L 23 1.963" transform="matrix(1 0 0 1 0 0)" fill="#FFFFFF" stroke="none" />
</svg>
