<?xml version="1.0" encoding="UTF-8"?>
<!-- Reconstructed from Amplitude.Graphics.Svg.SvgAsset and recolored from static UIMapper.Color metadata for EWShop; not original source SVG. Live UI state/material colors are not included. -->
<svg xmlns="http://www.w3.org/2000/svg" width="24" height="24" viewBox="0 0 24 24">
  <path d="M 8.382 10.871 L 7.357 12.139 L 8.742 11.359 L 9.487 12.818 L 12.096 11.411 L 11.594 17.503 C 9.406 17.166 7.84 16.353 6.747 15.475 L 6.748 15.466 C 6.733 15.364 6.698 15.268 6.655 15.171 C 6.505 14.827 6.307 14.34 6.111 13.75 L 5.964 12.923 L 6.074 12.861 L 4.825 10.842 C 4.339 10.021 4.339 10.018 4.186 9.249 C 4.164 9.137 4.138 9.008 4.107 8.857 C 3.579 6.289 4.212 5.046 4.592 4.747 L 6.398 4.065 C 6.377 3.497 7.03 2.221 9.798 1.554 C 12.529 0.748 13.732 1.526 13.992 2.04 L 15.897 1.727 C 16.375 1.796 17.545 2.556 18.372 5.044 C 18.486 5.386 18.576 5.732 18.647 6.078 L 17.978 6.589 C 17.906 6.219 17.799 5.814 17.659 5.395 C 17.151 3.885 16.395 2.779 15.964 2.923 C 15.533 3.067 15.601 4.404 16.109 5.914 C 16.313 6.522 16.558 7.064 16.805 7.486 L 14.529 9.224 L 13.18 7.703 L 12.469 8.551 L 11.72 5.33 C 13.003 4.62 13.701 3.162 13.539 2.557 C 13.346 1.837 11.781 1.635 10.039 2.102 C 8.296 2.569 7.042 3.526 7.235 4.246 C 7.402 4.869 8.811 5.818 10.318 5.734 L 11.519 9.682 L 9.613 11.953 L 8.382 10.871" transform="matrix(1 0 0 1 0 0)" fill="#FFFFFF" stroke="none" />
  <path d="M 17.141 17.944 C 17.151 18.048 17.16 18.147 17.164 18.245 L 17.156 18.235 C 17.172 18.493 17.078 18.747 16.768 18.903 C 15.671 19.471 13.548 19.599 11.881 19.496 L 11.593 19.463 C 11.494 19.451 11.395 19.44 11.306 19.42 C 9.657 19.155 7.621 18.543 6.683 17.738 C 6.417 17.515 6.385 17.246 6.459 16.998 C 6.48 16.937 6.501 16.877 6.521 16.818 C 6.542 16.758 6.562 16.699 6.583 16.637 C 6.59 16.615 6.597 16.596 6.604 16.576 C 6.611 16.556 6.618 16.536 6.625 16.514 C 7.897 17.422 9.632 18.2 11.981 18.474 C 14.178 18.73 15.857 18.422 17.134 17.875 L 17.141 17.944" transform="matrix(1 0 0 1 0 0)" fill="#FFFFFF" stroke="none" />
  <path d="M 13.396 10.71 L 12.358 17.602 C 14.497 17.805 16.048 17.418 17.162 16.862 C 17.217 16.703 17.297 16.566 17.395 16.431 C 18.1 15.488 19.591 13.285 20.051 10.689 L 19.241 10.918 C 19.059 11.885 18.743 12.542 18.415 12.524 C 18.144 12.509 17.93 12.036 17.819 11.318 L 15.063 12.095 L 14.37 10.184 L 13.396 10.71" transform="matrix(1 0 0 1 0 0)" fill="#FFFFFF" stroke="none" />
  <path d="M 23.001 23 L 19.084 19.385 L 15.291 23 L 17.055 23 L 19.084 21.261 L 21.113 23 L 23.001 23" transform="matrix(1 0 0 1 0 0)" fill="#FFFFFF" stroke="none" />
  <path d="M 19.751 1 L 15.378 1 L 14.427 1.255 C 16.616 0.668 17.877 1.874 18.197 3.068 L 20.183 3.439 C 20.236 2.205 20.041 1.466 19.751 1" transform="matrix(1 0 0 1 0 0)" fill="#FFFFFF" stroke="none" />
  <path d="M 1 7.609 L 1 5.059 C 1.05 4.986 1.101 4.918 1.149 4.854 L 1.188 4.802 L 5.364 3.683 C 3.175 4.27 2.685 5.944 3.005 7.138 L 1.471 8.453 C 1.276 8.146 1.121 7.866 1 7.609" transform="matrix(1 0 0 1 0 0)" fill="#FFFFFF" stroke="none" />
  <path d="M 16.184 20.077 L 13.519 22.617 L 12.413 20.481 C 13.929 20.471 15.215 20.307 16.184 20.077" transform="matrix(1 0 0 1 0 0)" fill="#FFFFFF" stroke="none" />
  <path d="M 23 9.481 L 23 10.261 L 16 10.166 L 22.131 8.298 L 23 9.481" transform="matrix(1 0 0 1 0 0)" fill="#FFFFFF" stroke="none" />
  <path d="M 8.714 22.795 L 10.857 20.3 C 7.973 19.598 6.081 18.527 5.665 17.865 C 2.241 19.296 6.37 21.763 8.714 22.795" transform="matrix(1 0 0 1 0 0)" fill="#FFFFFF" stroke="none" />
  <path d="M 20.192 5.698 L 21.595 6.919 L 16.864 9.133 L 20.192 5.698" transform="matrix(1 0 0 1 0 0)" fill="#FFFFFF" stroke="none" />
</svg>
