<?xml version="1.0" encoding="UTF-8"?>
<!-- Reconstructed from Amplitude.Graphics.Svg.SvgAsset and recolored from static UIMapper.Color metadata for EWShop; not original source SVG. Live UI state/material colors are not included. -->
<svg xmlns="http://www.w3.org/2000/svg" width="24" height="24" viewBox="0 0 24 24">
  <path d="M 20.171 10.806 C 20.062 11.013 20 11.249 20 11.5 L 20 15.5 C 20 16.328 20.672 17 21.5 17 C 22.328 17 23 16.328 23 15.5 L 23 22.523 L 19.907 23 L 17.392 22.523 L 15.57 21.028 L 11.32 22.791 L 9.441 22.791 L 8.543 22.575 C 8.824 22.303 9 21.922 9 21.5 L 9 17.5 C 9 16.672 8.328 16 7.5 16 C 7.426 16 7.353 16.006 7.282 16.017 L 10.443 13.676 L 12.845 12.922 L 15.097 13.171 L 18.164 14.187 L 17.028 11.658 L 18.564 10.806 L 20.171 10.806" transform="matrix(1 0 0 1 0 0)" fill="#FFFFFF" stroke="none" />
  <path d="M 7.5 17 C 7.776 17 8 17.224 8 17.5 L 8 21.5 C 8 21.776 7.776 22 7.5 22 C 7.224 22 7 21.776 7 21.5 L 7 17.5 C 7 17.224 7.224 17 7.5 17" transform="matrix(1 0 0 1 0 0)" fill="#FFFFFF" stroke="none" />
  <path d="M 16.799 2.406 L 16.071 3.699 L 16.459 4.701 L 14.749 5.479 L 14.208 4.46 L 13.069 5.479 L 11.278 4.701 L 9.58 6.069 L 9.146 7.771 L 7.829 13.415 L 5.995 15.622 L 5.83 16.254 L 6.383 16.501 C 6.145 16.766 6 17.116 6 17.5 L 6 21.5 C 6 21.67 6.03 21.833 6.082 21.985 L 5.076 21.745 L 2.908 20.132 L 1 17.802 L 1.752 13.171 L 4.903 7.195 L 7.967 3.699 L 11.668 1.638 L 14.208 1 L 16.799 2.406" transform="matrix(1 0 0 1 0 0)" fill="#FFFFFF" stroke="none" />
  <path d="M 21.5 11 C 21.776 11 22 11.224 22 11.5 L 22 15.5 C 22 15.776 21.776 16 21.5 16 C 21.224 16 21 15.776 21 15.5 L 21 11.5 C 21 11.224 21.224 11 21.5 11" transform="matrix(1 0 0 1 0 0)" fill="#FFFFFF" stroke="none" />
  <path d="M 23 11.178 L 23 11.5 C 23 11.387 22.987 11.277 22.963 11.171 L 23 11.178" transform="matrix(1 0 0 1 0 0)" fill="#FFFFFF" stroke="none" />
  <path d="M 2.5 1 C 2.776 1 3 1.224 3 1.5 L 3 5.5 C 3 5.776 2.776 6 2.5 6 C 2.224 6 2 5.776 2 5.5 L 2 1.5 C 2 1.224 2.224 1 2.5 1" transform="matrix(1 0 0 1 0 0)" fill="#FFFFFF" stroke="none" />
  <path d="M 19 9.5 C 19 9.776 18.776 10 18.5 10 C 18.224 10 18 9.776 18 9.5 L 18 7.5 C 18 7.224 18.224 7 18.5 7 C 18.776 7 19 7.224 19 7.5 L 19 9.5" transform="matrix(1 0 0 1 0 0)" fill="#FFFFFF" stroke="none" />
  <path d="M 21 2.5 C 21 2.776 20.776 3 20.5 3 C 20.224 3 20 2.776 20 2.5 L 20 1.5 C 20 1.224 20.224 1 20.5 1 C 20.776 1 21 1.224 21 1.5 L 21 2.5" transform="matrix(1 0 0 1 0 0)" fill="#FFFFFF" stroke="none" />
</svg>
