<?xml version="1.0" encoding="UTF-8"?>
<!-- Reconstructed from Amplitude.Graphics.Svg.SvgAsset and recolored from static UIMapper.Color metadata for EWShop; not original source SVG. Live UI state/material colors are not included. -->
<svg xmlns="http://www.w3.org/2000/svg" width="24" height="24" viewBox="0 0 24 24">
  <path d="M 2.742 8.666 C 3.8 8.355 5.517 6.986 3.924 4 C 4.236 5.016 4.435 7.372 2.742 8.666" transform="matrix(1 0 0 1 0 0)" fill="#FFFFFF" stroke="none" />
  <path d="M 0.563 18.864 C 2.119 18.406 4.645 16.393 2.302 11.999 C 2.759 13.494 3.052 16.96 0.563 18.864" transform="matrix(1 0 0 1 0 0)" fill="#FFFFFF" stroke="none" />
  <path d="M 16.149 14.71 C 16.966 14.664 17.687 14.577 18.316 14.502 C 19.975 14.303 20.99 14.181 21.424 15.076 C 22.195 16.668 19.427 16.85 19.179 15.987 C 19.36 16.7 20.19 17.604 22.176 15.79 C 24.201 13.941 20.913 13.704 19.015 13.816 C 18.947 13.82 18.882 13.824 18.821 13.827 C 18.073 13.867 17.771 13.883 16.149 14.71" transform="matrix(1 0 0 1 0 0)" fill="#FFFFFF" stroke="none" />
  <path d="M 8.822 5.323 C 8.906 5.95 9.002 6.67 9.161 7.472 C 9.557 5.696 9.497 5.399 9.349 4.665 C 9.337 4.605 9.324 4.542 9.311 4.474 C 8.947 2.609 7.897 -0.517 6.611 1.905 C 5.35 4.281 6.432 4.86 7.168 4.857 C 6.271 4.832 5.757 2.106 7.491 2.456 C 8.465 2.653 8.601 3.666 8.822 5.323" transform="matrix(1 0 0 1 0 0)" fill="#FFFFFF" stroke="none" />
  <path d="M 4.343 22.841 C 4.822 21.214 6.927 18.573 11.521 21.022 C 9.958 20.544 6.334 20.238 4.343 22.841" transform="matrix(1 0 0 1 0 0)" fill="#FFFFFF" stroke="none" />
  <path d="M 15.223 20.147 C 15.534 19.089 16.903 17.372 19.89 18.965 C 18.874 18.654 16.517 18.455 15.223 20.147" transform="matrix(1 0 0 1 0 0)" fill="#FFFFFF" stroke="none" />
  <path d="M 0.976 20.733 C 3.901 17.809 9.314 11.524 7.572 9.782 C 5.436 7.646 3.18 11.137 4.21 12.27 C 3.331 11.364 2.776 9.352 7.198 8.04 C 11.728 6.696 9.127 11.753 7.261 14.449 C 6.369 15.797 3.863 18.941 0.976 20.733" transform="matrix(1 0 0 1 0 0)" fill="#FFFFFF" stroke="none" />
  <path d="M 4.274 12.333 C 4.252 12.313 4.231 12.291 4.21 12.27 C 4.23 12.292 4.251 12.313 4.274 12.333" transform="matrix(1 0 0 1 0 0)" fill="#FFFFFF" stroke="none" />
  <path d="M 9.156 12.676 C 10.634 10.79 13.308 6.795 12.177 5.909 C 10.79 4.822 9.738 6.989 10.414 7.573 C 9.842 7.11 9.376 5.987 11.836 4.929 C 14.355 3.845 13.217 6.94 12.333 8.622 C 11.915 9.461 10.694 11.446 9.156 12.676" transform="matrix(1 0 0 1 0 0)" fill="#FFFFFF" stroke="none" />
  <path d="M 17.051 10.782 C 16.164 9.651 12.17 12.325 10.283 13.803 C 11.514 12.265 13.499 11.044 14.337 10.626 C 16.02 9.742 19.115 8.604 18.031 11.123 C 16.972 13.582 15.849 13.117 15.387 12.545 C 15.97 13.221 18.138 12.169 17.051 10.782" transform="matrix(1 0 0 1 0 0)" fill="#FFFFFF" stroke="none" />
  <path d="M 2.541 22.298 C 5.465 19.374 11.75 13.96 13.492 15.702 C 15.628 17.838 12.138 20.094 11.005 19.064 C 10.983 19.043 10.962 19.022 10.941 19 C 10.961 19.023 10.983 19.044 11.005 19.064 C 11.91 19.943 13.922 20.498 15.234 16.076 C 16.578 11.546 11.522 14.147 8.825 16.014 C 7.477 16.905 4.333 19.411 2.541 22.298" transform="matrix(1 0 0 1 0 0)" fill="#FFFFFF" stroke="none" />
  <path d="M 7.062 15.868 L 18.122 4.601 C 17.615 4.504 15.982 4.794 13.509 6.731 L 15.986 4.547 C 16.322 4.297 16.809 3.787 16.071 3.754 L 23.088 1.03 L 18.941 7.605 C 18.988 7.058 18.719 6.398 17.262 8.133 C 17.722 7.561 18.631 6.17 18.578 5.182 L 7.062 15.868" transform="matrix(1 0 0 1 0 0)" fill="#FFFFFF" stroke="none" />
</svg>
