<?xml version="1.0" encoding="UTF-8"?>
<!-- Reconstructed from Amplitude.Graphics.Svg.SvgAsset and recolored from static UIMapper.Color metadata for EWShop; not original source SVG. Live UI state/material colors are not included. -->
<svg xmlns="http://www.w3.org/2000/svg" width="24" height="24" viewBox="0 0 24 24">
  <path d="M 11.045 14.335 L 9.996 14.879 C 9.585 15.1 10.21 15.236 10.361 15.239 C 11.346 15.258 11.09 14.861 11.86 14.757 C 13.804 14.491 15.273 16.058 17.13 15.738 C 17.365 15.698 19.412 14.156 19.639 13.901 C 20.264 13.198 20.23 12.577 21.13 12.016 L 21.275 11.871 C 21.502 11.644 21.811 11.518 22.132 11.517 C 22.177 11.517 22.224 11.517 22.276 11.517 C 22.503 11.516 22.72 11.606 22.88 11.766 C 23.04 11.926 23.13 12.144 23.13 12.37 L 23.13 12.516 C 23.13 12.836 23.003 13.144 22.777 13.37 L 22.63 13.516 L 22.961 13.627 C 23.176 13.698 23.129 14.104 22.905 14.142 C 22.099 14.277 21.224 14.508 20.815 14.757 C 19.711 15.432 19.306 17.455 18.326 17.842 C 17.114 18.322 15.61 17.679 14.36 17.726 C 13.949 18 13.949 20 14.622 20.709 C 13.449 22.5 12.449 23 12.449 23 C 12.052 23.253 10.094 22.639 9.197 22.5 C 8.137 22.336 7.592 19.934 6.816 19.209 L 3.19 19.209 C 2.587 18.353 2.36 16.208 1.745 15.239 C 0.475 13.239 0.794 12.127 1.043 11 C 1.763 10.28 2.982 10.513 3.386 11.447 L 3.737 12.257 C 3.843 13.059 2.011 13.646 4 15.5 C 4.201 15.771 4.478 16.884 4.74 16.929 C 5.333 17.028 6.507 15.371 7.545 15.835 C 7.741 13.914 4.618 10.942 7.87 10.009 C 10.545 9.836 11.545 12.335 11.045 14.335" transform="matrix(1 0 0 1 0 0)" fill="#FFFFFF" stroke="none" />
  <path d="M 7.586 4.73 C 7.699 4.655 8.059 4.697 8.188 4.776 C 8.58 5.015 8.414 5.697 8.285 6.23 C 8.239 6.42 8.198 6.591 8.188 6.716 C 8.131 7.449 8.345 8.229 8.594 9.023 C 8.342 8.998 8.078 8.993 7.803 9.01 L 7.693 9.01 L 7.593 9.05 C 7.267 9.144 6.967 9.263 6.699 9.412 C 5.855 8.827 4.664 8.578 3.491 8.334 C 2.325 8.09 1.177 7.851 0.407 7.287 C 0.02 7.006 -0.162 6.64 0.182 6.193 C 0.574 5.917 1.283 6.299 1.845 6.601 C 2.051 6.712 2.237 6.812 2.381 6.866 C 3.171 7.162 5.51 7.905 4.998 6.317 L 2.121 4.589 C 1.764 4.127 1.792 3.609 2.452 3.679 C 2.742 3.709 3.076 3.945 3.418 4.186 C 3.952 4.564 4.505 4.954 4.937 4.594 C 5.384 4.222 5.043 3.489 4.736 2.828 C 4.435 2.182 4.166 1.605 4.696 1.5 C 5.739 1.801 6.129 3.404 6.216 4.39 C 6.24 4.663 6.227 4.962 6.212 5.268 C 6.175 6.067 6.136 6.908 6.771 7.423 C 6.996 7.423 7.124 6.68 7.246 5.973 C 7.347 5.387 7.444 4.825 7.587 4.728 L 7.586 4.73" transform="matrix(1 0 0 1 0 0)" fill="#FFFFFF" stroke="none" />
  <path d="M 5.944 10.016 C 5.58 9.798 5.242 9.718 5.123 10.095 C 5.015 10.438 5.159 10.748 5.442 11.039 C 5.467 10.923 5.5 10.806 5.543 10.69 C 5.64 10.437 5.775 10.213 5.944 10.016" transform="matrix(1 0 0 1 0 0)" fill="#FFFFFF" stroke="none" />
  <path d="M 1.426 17.623 C 0.974 17.555 0.596 17.567 0.377 17.722 C 0.001 17.988 0.156 18.365 0.475 18.554 C 0.672 18.671 1.139 18.706 1.634 18.744 C 1.701 18.749 1.769 18.754 1.837 18.759 C 1.829 18.739 1.821 18.72 1.813 18.7 C 1.682 18.359 1.55 17.986 1.426 17.623" transform="matrix(1 0 0 1 0 0)" fill="#FFFFFF" stroke="none" />
  <path d="M 3.804 20.21 C 3.614 20.379 3.378 20.333 3.135 20.285 C 3.019 20.261 2.9 20.238 2.785 20.238 L 2.784 20.236 C 2.719 20.236 2.623 20.24 2.519 20.244 C 2.422 20.249 2.318 20.253 2.226 20.254 L 2.219 20.254 C 1.924 20.259 -0.079 20.29 0.476 20.964 C 0.726 21.225 1.179 21.18 1.628 21.134 C 2.175 21.079 2.717 21.025 2.885 21.521 C 3.042 21.985 2.427 22.403 1.899 22.761 C 1.488 23.041 1.129 23.285 1.231 23.486 C 1.861 24.153 3.178 22.844 3.622 22.253 C 3.694 22.157 3.795 21.982 3.917 21.774 C 4.322 21.078 4.947 20.006 5.404 20.262 L 5.574 20.486 C 5.552 20.539 5.511 20.627 5.459 20.738 C 5.186 21.316 4.621 22.515 5.027 22.674 C 5.53 22.87 5.801 22.158 6.034 21.546 C 6.136 21.279 6.23 21.032 6.333 20.887 C 6.394 20.801 6.467 20.714 6.55 20.625 C 6.529 20.587 6.509 20.548 6.488 20.508 L 6.473 20.48 C 6.437 20.4 6.395 20.33 6.359 20.27 C 6.346 20.249 6.334 20.229 6.323 20.21 L 3.804 20.21" transform="matrix(1 0 0 1 0 0)" fill="#FFFFFF" stroke="none" />
  <path d="M 15.145 18.791 C 15.427 19.107 15.823 19.432 16.215 19.753 C 16.69 20.142 17.16 20.527 17.415 20.887 C 17.518 21.032 17.613 21.279 17.714 21.546 C 17.947 22.158 18.218 22.87 18.721 22.674 C 19.127 22.515 18.562 21.316 18.289 20.738 C 18.237 20.627 18.196 20.539 18.174 20.486 L 18.344 20.262 C 18.802 20.006 19.426 21.078 19.831 21.774 C 19.953 21.982 20.054 22.157 20.126 22.253 C 20.571 22.844 21.887 24.153 22.517 23.486 C 22.619 23.285 22.26 23.041 21.849 22.761 C 21.321 22.403 20.706 21.985 20.863 21.521 C 21.031 21.025 21.573 21.079 22.12 21.134 C 22.57 21.18 23.022 21.225 23.272 20.964 C 23.827 20.29 21.824 20.259 21.529 20.254 L 21.523 20.254 C 21.431 20.253 21.327 20.249 21.23 20.244 C 21.126 20.24 21.029 20.236 20.964 20.236 L 20.964 20.238 C 20.848 20.238 20.73 20.261 20.613 20.285 C 20.253 20.356 19.909 20.424 19.707 19.794 C 19.915 19.341 20.371 19.096 20.817 18.933 C 21.131 18.817 21.636 18.779 22.114 18.744 C 22.609 18.706 23.076 18.671 23.273 18.554 C 23.592 18.365 23.747 17.988 23.371 17.722 C 22.794 17.314 21.119 17.896 19.881 18.326 C 19.55 18.441 19.249 18.545 19.01 18.617 C 18.906 18.682 18.794 18.741 18.674 18.79 C 17.814 19.13 16.904 19.05 16.204 18.95 C 15.984 18.92 15.774 18.89 15.594 18.86 C 15.557 18.855 15.522 18.849 15.487 18.843 C 15.367 18.824 15.252 18.806 15.145 18.791" transform="matrix(1 0 0 1 0 0)" fill="#FFFFFF" stroke="none" />
  <path d="M 20.012 11.645 C 19.526 11.525 18.921 11.464 18.531 11.424 C 18.385 11.409 18.269 11.398 18.2 11.387 L 18.075 11.073 C 18.095 10.445 19.584 10.466 20.551 10.48 C 20.84 10.484 21.082 10.488 21.225 10.473 C 22.107 10.382 24.268 9.839 23.972 8.779 C 23.829 8.549 23.356 8.767 22.814 9.017 C 22.118 9.338 21.308 9.712 20.929 9.263 C 20.523 8.783 20.915 8.259 21.309 7.732 C 21.634 7.297 21.961 6.86 21.847 6.442 C 21.497 5.454 20.226 7.494 20.039 7.794 L 20.035 7.801 C 19.976 7.895 19.908 7.999 19.843 8.096 C 19.774 8.2 19.711 8.297 19.67 8.364 L 19.672 8.365 C 19.6 8.485 19.551 8.621 19.503 8.755 C 19.353 9.169 19.21 9.565 18.438 9.382 C 18.101 8.888 18.132 8.268 18.239 7.709 C 18.315 7.314 18.589 6.772 18.848 6.258 C 19.116 5.726 19.369 5.224 19.371 4.949 C 19.373 4.504 19.081 4.112 18.575 4.333 C 17.799 4.674 17.36 6.756 17.036 8.295 C 16.91 8.894 16.801 9.411 16.697 9.711 C 16.531 10.183 15.151 12.567 14.554 11.779 C 14.338 11.494 14.661 11.121 14.996 10.736 C 15.431 10.236 15.884 9.714 15.201 9.333 C 14.593 9.421 14.332 9.784 14.041 10.189 C 13.988 10.262 13.935 10.336 13.878 10.411 C 13.634 10.732 13.409 11.121 13.18 11.516 C 12.971 11.877 12.758 12.245 12.524 12.572 C 12.456 12.667 12.355 12.749 12.253 12.831 C 12.226 12.852 12.199 12.874 12.173 12.896 C 12.183 13.02 12.189 13.145 12.19 13.269 C 12.702 13.512 14.093 13.525 14.416 13.48 C 14.951 13.405 15.596 13.175 16.235 12.947 C 16.929 12.7 17.615 12.455 18.143 12.415 C 18.356 12.399 18.669 12.455 19.005 12.516 C 19.115 12.536 19.227 12.556 19.34 12.574 C 19.349 12.558 19.358 12.542 19.368 12.525 C 19.389 12.489 19.411 12.451 19.434 12.41 C 19.576 12.164 19.753 11.901 20.012 11.645" transform="matrix(1 0 0 1 0 0)" fill="#FFFFFF" stroke="none" />
  <path d="M 11.858 11.52 C 12.294 11.01 12.605 10.398 12.916 9.787 C 13.24 9.15 13.565 8.513 14.031 7.987 C 14.236 7.756 14.513 7.587 14.783 7.424 C 15.31 7.104 15.806 6.803 15.67 6.087 C 15.027 5.968 14.598 6.286 14.165 6.608 C 13.791 6.886 13.413 7.167 12.891 7.17 C 12.416 6.842 13.577 5.688 14.373 4.897 C 14.684 4.587 14.94 4.333 15.019 4.206 C 15.362 3.658 16.176 2.024 15.226 1.756 C 14.895 1.756 14.749 2.205 14.588 2.704 C 14.381 3.342 14.148 4.061 13.467 4.037 C 13.344 4.032 13.13 3.976 13.046 3.895 L 13.047 3.893 C 12.834 3.688 12.762 3.262 12.688 2.825 C 12.564 2.095 12.436 1.337 11.64 1.531 C 11.314 2.185 11.668 3.03 11.987 3.794 C 12.187 4.272 12.374 4.719 12.372 5.067 C 12.37 5.399 11.994 5.775 11.624 5.678 C 10.829 5.467 10.377 4.342 9.987 3.37 C 9.75 2.78 9.536 2.247 9.282 2.008 C 8.609 1.374 8.167 2.16 8.349 2.876 C 8.367 2.948 8.898 3.978 9.012 4.188 C 9.207 4.549 9.514 4.982 9.849 5.453 C 10.805 6.798 11.983 8.457 11.406 9.664 C 10.925 10.673 10.67 9.272 10.527 8.485 C 10.482 8.237 10.448 8.05 10.421 8.018 C 10.17 7.707 9.64 7.672 9.507 8.094 C 9.413 8.393 9.434 8.788 9.511 9.222 C 10.383 9.521 11.062 10.104 11.524 10.85 C 11.655 11.064 11.766 11.288 11.858 11.52" transform="matrix(1 0 0 1 0 0)" fill="#FFFFFF" stroke="none" />
</svg>
