<?xml version="1.0" encoding="UTF-8"?>
<!-- Reconstructed from Amplitude.Graphics.Svg.SvgAsset and recolored from static UIMapper.Color metadata for EWShop; not original source SVG. Live UI state/material colors are not included. -->
<svg xmlns="http://www.w3.org/2000/svg" width="24" height="24" viewBox="0 0 24 24">
  <path d="M 9.754 5.46 C 10.606 5.693 11.271 6.358 11.504 7.21 L 11.982 8.964 L 12.46 7.21 C 12.693 6.358 13.358 5.693 14.21 5.46 L 15.964 4.982 L 14.21 4.504 C 13.358 4.271 12.693 3.606 12.46 2.754 L 11.982 1 L 11.504 2.754 C 11.271 3.606 10.606 4.271 9.754 4.504 L 8 4.982 L 9.754 5.46" transform="matrix(1 0 0 1 0 0)" fill="#FFFFFF" stroke="none" />
  <path d="M 9.762 17.606 C 9.988 17.768 10.264 17.857 10.539 17.857 L 10.531 17.865 C 10.717 17.865 10.862 18.011 10.862 18.189 L 10.862 22.648 C 10.862 22.932 10.579 23.126 10.312 23.029 L 6.743 21.693 C 6.516 21.612 6.411 21.345 6.5 21.119 C 6.727 20.568 7.075 19.532 7.075 18.407 L 7.075 15.283 C 7.075 12.087 10.72 10.911 11.985 10.503 L 11.996 10.5 C 13.258 10.905 16.815 12.086 16.799 15.283 L 16.799 18.407 C 16.799 18.485 16.81 18.727 16.824 18.989 C 16.854 19.534 16.997 20.068 17.242 20.556 L 17.407 20.887 C 17.555 21.182 17.42 21.541 17.114 21.665 L 14.893 22.567 L 13.679 23.021 C 13.412 23.118 13.129 22.924 13.129 22.64 L 13.129 18.181 C 13.129 18.003 13.282 17.857 13.46 17.857 C 13.744 17.857 14.011 17.768 14.237 17.606 L 15.411 16.756 L 14.326 15.963 C 14.051 15.761 13.711 15.648 13.363 15.648 L 10.636 15.648 C 10.288 15.648 9.956 15.761 9.673 15.963 L 8.588 16.756 L 9.762 17.606" transform="matrix(1 0 0 1 0 0)" fill="#FFFFFF" stroke="none" />
  <path d="M 6.424 2.392 C 6.353 0.672 4.104 5.065 4.502 6.764 C 4.823 8.134 5.774 10.075 6.721 12.007 C 6.864 12.298 7.006 12.589 7.147 12.878 C 7.52 12.315 7.989 11.855 8.474 11.484 C 7.459 8.672 6.559 5.622 6.424 2.392" transform="matrix(1 0 0 1 0 0)" fill="#FFFFFF" stroke="none" />
  <path d="M 3.423 6.266 C 4.228 8.764 5.531 11.173 6.886 13.317 C 6.553 13.952 6.343 14.7 6.343 15.572 L 6.343 18.559 C 6.343 18.816 6.319 19.071 6.279 19.314 C 4.975 19.055 3.759 18.785 2.986 18.443 C 1.736 17.89 0.321 14.508 1.432 15.277 C 2.793 16.218 4.246 16.944 5.686 17.534 C 5.638 17.413 5.598 17.291 5.566 17.17 C 4.194 16.387 2.941 15.63 2.163 14.929 C 0.938 13.826 0.584 9.432 1.57 10.73 C 2.895 12.475 4.39 13.929 5.918 15.201 C 5.926 15.191 5.935 15.181 5.943 15.17 C 5.958 15.152 5.973 15.133 5.99 15.116 C 6.028 15.077 6.07 15.041 6.111 15.006 L 6.113 15.005 C 4.671 13.299 3.222 11.573 2.588 10.414 C 1.798 8.966 2.924 4.715 3.423 6.266" transform="matrix(1 0 0 1 0 0)" fill="#FFFFFF" stroke="none" />
  <path d="M 17.55 2.5 C 17.622 0.779 19.87 5.172 19.472 6.871 C 19.151 8.241 18.2 10.183 17.253 12.115 C 17.11 12.406 16.968 12.697 16.828 12.985 C 16.454 12.423 15.985 11.962 15.5 11.592 C 16.516 8.78 17.415 5.729 17.55 2.5" transform="matrix(1 0 0 1 0 0)" fill="#FFFFFF" stroke="none" />
  <path d="M 20.551 6.374 C 19.746 8.872 18.443 11.281 17.088 13.425 C 17.421 14.06 17.631 14.807 17.631 15.68 L 17.631 18.666 C 17.631 18.924 17.655 19.179 17.695 19.422 C 18.999 19.162 20.216 18.892 20.988 18.55 C 22.238 17.998 23.653 14.615 22.542 15.384 C 21.181 16.326 19.728 17.051 18.288 17.641 C 18.336 17.52 18.376 17.399 18.408 17.277 C 19.78 16.494 21.033 15.737 21.811 15.037 C 23.036 13.934 23.39 9.54 22.404 10.838 C 21.079 12.583 19.584 14.037 18.056 15.308 C 18.048 15.298 18.039 15.288 18.031 15.278 C 18.016 15.259 18.001 15.241 17.985 15.224 C 17.946 15.184 17.905 15.149 17.863 15.114 L 17.861 15.112 C 19.303 13.406 20.752 11.681 21.386 10.521 C 22.176 9.073 21.05 4.823 20.551 6.374" transform="matrix(1 0 0 1 0 0)" fill="#FFFFFF" stroke="none" />
</svg>
