<?xml version="1.0" encoding="UTF-8"?>
<!-- Reconstructed from Amplitude.Graphics.Svg.SvgAsset and recolored from static UIMapper.Color metadata for EWShop; not original source SVG. Live UI state/material colors are not included. -->
<svg xmlns="http://www.w3.org/2000/svg" width="24" height="24" viewBox="0 0 24 24">
  <path d="M 23 4.037 L 21.038 6.4 L 19.304 4.947 L 18.565 11.263 L 19.304 13.632 L 14.5 16 L 15.5 13 C 16.698 12.624 17.573 11.028 17.5 9.812 C 17.359 7.46 15.478 5.094 14.5 3.025 L 19.304 1 L 23 4.037 M 14.5 3.025 C 13.499 5.143 11.622 7.422 11.385 9.812 C 11.26 11.032 12.38 12.583 13.5 13 L 14.5 16 L 9.696 13.632 L 10.435 11.263 L 9.696 4.947 L 7.962 6.4 L 6 4.037 L 9.696 1 L 14.5 3.025 M 13.81 6.192 C 15.966 7.346 14.748 8.064 14.976 8.395 C 15.205 8.726 15.827 8.253 15.966 8.212 C 15.893 8.736 16.007 9.051 16.2 9.339 C 17.059 10.646 15.976 11.961 14.457 11.962 C 13.344 11.962 12.34 11.123 12.458 9.969 C 12.506 9.471 12.892 8.972 13.254 8.474 C 13.81 7.687 14.389 6.953 13.81 6.192" transform="matrix(1 0 0 1 0 0)" fill="#FFFFFF" stroke="none" />
  <path d="M 9.167 9.043 L 8.02 9.918 L 7.665 11.232 L 6.587 15.593 L 5.087 17.299 L 4.952 17.787 L 5.53 18.032 L 8.727 15.795 L 10.659 15.222 L 14.058 16.897 L 14.5 17.115 L 14.942 16.897 L 19 14.896 L 19 22.631 L 16.47 23 L 14.411 22.631 L 12.921 21.477 L 9.444 22.839 L 7.907 22.839 L 4.335 22.03 L 2.562 20.783 L 1 18.983 L 1.615 15.404 L 4.193 10.787 L 6.7 8.086 L 8.918 6.919 L 9.167 9.043" transform="matrix(1 0 0 1 0 0)" fill="#FFFFFF" stroke="none" />
</svg>
