<?xml version="1.0" encoding="UTF-8"?>
<!-- Reconstructed from Amplitude.Graphics.Svg.SvgAsset and recolored from static UIMapper.Color metadata for EWShop; not original source SVG. Live UI state/material colors are not included. -->
<svg xmlns="http://www.w3.org/2000/svg" width="24" height="24" viewBox="0 0 24 24">
  <path d="M 15.796 9.402 C 15.657 10.691 16.274 12.464 17.269 12.578 C 18.264 12.691 18.861 11.732 19 10.444 C 19.139 9.155 18.761 8.021 17.766 7.907 C 16.771 7.794 15.925 8.114 15.786 9.402 L 15.796 9.402" transform="matrix(1 0 0 1 0 0)" fill="#FFFFFF" stroke="none" />
  <path d="M 9.02 8.722 C 9.119 8.794 9.298 8.856 9.507 8.835 C 9.716 8.814 9.885 8.711 10.005 8.526 C 10.293 8.072 9.995 7.639 9.806 7.515 C 9.796 7.515 9.786 7.495 9.776 7.495 C 9.298 6.938 7.686 5.464 7.666 5.443 C 7.577 5.361 7.547 5.227 7.597 5.103 L 8.204 3.763 C 8.244 3.68 8.313 3.629 8.393 3.608 C 9.458 3.35 11.985 2.763 12.363 2.814 C 12.662 2.856 13.875 3.402 16.025 4.402 L 16.204 4.484 C 16.323 4.536 16.423 4.588 16.522 4.629 C 16.632 4.68 16.821 4.722 17.03 4.67 C 17.239 4.618 17.388 4.495 17.477 4.289 C 17.696 3.794 17.338 3.412 17.139 3.319 C 16.343 2.866 13.04 1.196 12.303 1.062 C 11.547 0.928 8.234 1.062 7.408 1.113 C 6.851 1.144 4.761 1.794 3.995 2.041 C 3.965 2.051 3.925 2.051 3.885 2.051 C 3.537 2.02 2.234 1.917 1.597 1.856 L 1.517 1.856 L 1.01 6.443 L 2.88 6.691 C 2.88 6.691 2.92 6.691 2.93 6.701 C 3.249 6.814 4.094 7.02 6.134 7.134 C 6.711 7.165 8.701 8.484 9.03 8.722 L 9.02 8.722" transform="matrix(1 0 0 1 0 0)" fill="#FFFFFF" stroke="none" />
  <path d="M 9.109 5.351 C 9.109 5.351 9.099 5.371 9.089 5.371 C 8.99 5.433 8.88 5.557 8.811 5.712 C 9.129 6.01 9.487 6.361 9.776 6.65 C 9.845 6.629 9.925 6.598 10.005 6.557 C 10.074 6.526 10.512 6.258 10.99 5.938 C 11.577 5.547 11.845 5.33 11.935 5.227 C 11.885 5.01 11.627 4.402 11.487 4.072 C 11.398 3.866 11.318 3.67 11.258 3.516 C 10.771 3.608 10.174 3.742 9.547 3.887 L 9.617 4.041 C 9.696 4.217 9.786 4.402 9.825 4.495 C 9.885 4.619 9.855 4.763 9.746 4.846 L 9.129 5.34 L 9.109 5.351" transform="matrix(1 0 0 1 0 0)" fill="#FFFFFF" stroke="none" />
  <path d="M 13.408 18.279 C 13.378 18.072 13.348 17.877 13.318 17.701 L 12.751 17.134 L 12.333 17.969 L 11.905 16.969 L 10.174 18.155 L 10.751 16.227 L 8.831 14.938 L 10.652 15.021 L 10.174 14 L 11.219 14.279 C 11.089 13.691 11.079 13.041 11.079 12.413 L 11.079 10.598 L 9.985 12.433 L 6.821 11.598 L 8.144 14.423 L 3.119 14.186 L 7.995 17.062 L 6.313 18.34 L 8.721 17.969 L 7.248 23.011 L 11.627 19.804 L 12.821 22.578 L 13.856 20.536 C 13.647 19.753 13.527 18.959 13.428 18.299 L 13.408 18.279" transform="matrix(1 0 0 1 0 0)" fill="#FFFFFF" stroke="none" />
  <path d="M 21.955 7.536 C 21.378 7.536 20.911 8.01 20.911 8.598 L 20.911 11 C 20.911 11.835 20.612 12.65 20.065 13.278 L 19.906 13.454 C 19.657 13.742 19.368 13.979 19.05 14.165 C 18.095 14.701 16.94 14.722 15.975 14.217 L 15.916 14.186 C 15.538 13.99 15.209 13.722 14.931 13.402 L 14.821 13.278 C 14.274 12.65 13.975 11.835 13.975 11 L 13.975 8.516 C 13.975 7.969 13.547 7.536 13.01 7.536 C 12.473 7.536 12.045 7.979 12.045 8.516 L 12.045 12.402 C 12.045 13.351 12.463 14.237 13.189 14.835 C 13.707 15.258 14.065 15.835 14.234 16.485 L 14.642 18.114 C 14.732 18.485 14.781 18.856 14.781 19.237 L 14.781 20.227 C 14.781 21.227 15.309 22.144 16.164 22.639 C 17.01 23.124 18.035 23.124 18.881 22.639 C 19.737 22.144 20.264 21.227 20.264 20.227 L 20.264 19.144 C 20.264 18.825 20.294 18.516 20.363 18.196 L 20.692 16.608 C 20.841 15.887 21.239 15.248 21.816 14.804 C 22.562 14.237 23.01 13.34 23.01 12.392 L 23.01 8.608 C 23.01 8.021 22.542 7.546 21.965 7.546 L 21.955 7.536" transform="matrix(1 0 0 1 0 0)" fill="#FFFFFF" stroke="none" />
</svg>
