<?xml version="1.0" encoding="UTF-8"?>
<!-- Reconstructed from Amplitude.Graphics.Svg.SvgAsset and recolored from static UIMapper.Color metadata for EWShop; not original source SVG. Live UI state/material colors are not included. -->
<svg xmlns="http://www.w3.org/2000/svg" width="24" height="24" viewBox="0 0 24 24">
  <path d="M 6.52 11.004 L 6.631 11.04 C 7.07 11.174 7.792 11.402 8.548 11.768 C 8.563 11.807 8.576 11.847 8.592 11.888 C 8.886 12.659 9.305 13.656 9.854 14.743 C 9.221 15.157 8.65 15.567 8.152 15.942 C 8.051 15.923 7.948 15.912 7.843 15.912 L 5.157 15.912 C 4.813 15.912 4.483 16.019 4.194 16.219 L 3.224 16.898 C 3.167 16.937 3.167 17.022 3.224 17.062 L 4.276 17.794 C 4.497 17.954 4.772 18.034 5.048 18.034 L 5.081 18.034 C 5.086 18.034 5.091 18.035 5.097 18.036 C 5.258 18.065 5.378 18.184 5.378 18.342 L 5.378 22.612 C 5.378 22.862 5.126 23.046 4.882 22.989 C 4.873 22.987 4.864 22.986 4.855 22.986 C 4.842 22.986 4.83 22.985 4.819 22.982 C 4.805 22.979 4.793 22.971 4.779 22.966 L 3.588 22.546 L 1.785 22.039 C 1.496 21.959 1.192 21.772 1.068 21.545 C 1.027 21.478 1 21.398 1 21.331 C 1 21.28 1 21.216 1.024 21.164 C 1.026 21.16 1.028 21.155 1.028 21.15 C 1.032 21.13 1.05 21.11 1.063 21.097 C 1.065 21.095 1.063 21.091 1.061 21.091 C 1.058 21.091 1.056 21.088 1.057 21.086 C 1.139 20.873 1.248 20.608 1.33 20.29 C 1.482 19.356 1.481 17.954 1.481 17.954 L 1.481 15.632 C 1.468 12.575 5.089 11.427 6.355 11.04 L 6.466 11.004 C 6.475 11.001 6.484 11 6.493 11 C 6.502 11 6.511 11.001 6.52 11.004" transform="matrix(1 0 0 1 0 0)" fill="#FFFFFF" stroke="none" />
  <path d="M 11.505 17.954 C 11.505 17.954 11.504 19.349 11.654 20.283 C 11.655 20.288 11.657 20.292 11.658 20.297 C 11.754 20.601 11.85 20.879 11.932 21.091 C 11.945 21.117 11.959 21.131 11.973 21.157 C 12 21.211 12 21.278 12 21.331 C 12 21.408 11.974 21.485 11.936 21.538 C 11.933 21.542 11.93 21.547 11.928 21.552 C 11.801 21.776 11.487 21.96 11.215 22.039 L 9.412 22.546 L 8.2 22.973 C 8.2 22.973 8.165 22.982 8.144 22.985 C 8.135 22.987 8.127 22.988 8.119 22.989 C 7.862 23.047 7.622 22.862 7.622 22.612 L 7.622 19.189 C 7.885 19.101 8.221 18.987 8.612 18.84 C 9.394 18.547 10.403 18.129 11.505 17.582 L 11.505 17.954" transform="matrix(1 0 0 1 0 0)" fill="#FFFFFF" stroke="none" />
  <path d="M 9 10 C 9.015 10.016 10.745 11.788 12.366 14.408 C 15.104 12.936 17.506 12.258 17.506 12.258 C 17.506 12.258 15.713 13.98 13.058 15.594 C 14.543 18.307 15.227 20.687 15.227 20.687 C 15.227 20.687 13.489 18.91 11.86 16.279 C 9.123 17.75 6.721 18.428 6.721 18.428 C 6.729 18.42 8.52 16.703 11.169 15.093 C 9.691 12.394 9.007 10.025 9 10" transform="matrix(1 0 0 1 0 0)" fill="#FFFFFF" stroke="none" />
  <path d="M 14.428 1.213 C 14.751 0.929 15.249 0.929 15.572 1.213 C 17.352 2.775 19.46 3.955 21.754 4.673 L 22.32 4.852 C 22.725 4.979 23 5.34 23 5.747 L 23 11.964 C 23 14.192 21.886 16.286 20.005 17.597 L 16.578 19.982 C 16.561 19.929 16.543 19.87 16.522 19.804 C 16.432 19.532 16.3 19.151 16.125 18.691 L 19.15 16.585 L 18.408 15.874 L 15.741 17.731 C 15.535 17.238 15.294 16.693 15.015 16.118 C 15.895 15.524 16.646 14.953 17.222 14.487 C 17.632 14.154 17.957 13.873 18.182 13.673 C 18.294 13.573 18.382 13.492 18.443 13.436 C 18.974 12.944 19.189 12.178 18.808 11.513 C 18.426 10.846 17.655 10.646 16.964 10.855 C 16.884 10.879 16.77 10.914 16.627 10.96 C 16.34 11.053 15.931 11.192 15.436 11.377 C 14.735 11.64 13.853 12.001 12.886 12.464 C 12.282 11.585 11.703 10.837 11.23 10.263 C 10.894 9.856 10.61 9.534 10.408 9.311 C 10.307 9.199 10.226 9.113 10.169 9.052 C 10.141 9.022 10.118 8.999 10.102 8.982 C 10.094 8.973 10.087 8.966 10.082 8.961 C 10.08 8.959 10.077 8.957 10.075 8.955 L 10.073 8.952 L 10.072 8.951 C 9.852 8.726 9.574 8.584 9.281 8.528 L 9.281 6.905 C 9.281 6.801 9.351 6.709 9.453 6.677 L 9.896 6.538 C 11.414 6.063 12.832 5.337 14.086 4.398 L 14.086 3.105 C 12.778 4.224 11.242 5.073 9.573 5.596 L 9.131 5.735 C 8.603 5.9 8.245 6.372 8.245 6.905 L 8.245 8.703 C 7.692 9.025 7.408 9.66 7.525 10.279 C 7.326 10.211 7.148 10.154 7 10.109 L 7 5.747 C 7 5.34 7.275 4.979 7.68 4.852 L 8.246 4.673 C 10.54 3.955 12.648 2.775 14.428 1.213 M 15.857 4.356 C 17.126 5.316 18.565 6.056 20.106 6.538 L 20.547 6.677 C 20.649 6.709 20.72 6.801 20.72 6.905 L 20.72 11.751 C 20.72 12.829 20.351 13.864 19.693 14.706 L 20.434 15.414 C 21.281 14.382 21.757 13.095 21.757 11.751 L 21.757 6.905 C 21.757 6.372 21.398 5.9 20.869 5.735 L 20.428 5.596 C 18.735 5.066 17.178 4.2 15.857 3.056 L 15.857 4.356" transform="matrix(1 0 0 1 0 0)" fill="#FFFFFF" stroke="none" />
</svg>
