<?xml version="1.0" encoding="UTF-8"?>
<!-- Reconstructed from Amplitude.Graphics.Svg.SvgAsset and recolored from static UIMapper.Color metadata for EWShop; not original source SVG. Live UI state/material colors are not included. -->
<svg xmlns="http://www.w3.org/2000/svg" width="24" height="24" viewBox="0 0 24 24">
  <path d="M 17.46 5.63 C 17.31 5.97 17.46 6.2 17.79 6.36 C 18.08 6.5 18.38 6.21 18.64 5.95 C 18.73 5.86 18.81 5.78 18.89 5.72 C 18.97 5.65 19.08 5.6 19.18 5.54 C 19.49 5.37 19.8 5.2 19.66 4.76 C 19.56 4.46 19.27 4.31 18.96 4.31 C 18.57 4.31 17.62 5.28 17.46 5.64 L 17.46 5.63" transform="matrix(1 0 0 1 0 0)" fill="#FFFFFF" stroke="none" />
  <path d="M 16.9 5.33 C 16.94 5.26 16.99 5.19 17.03 5.13 C 17.18 4.88 17.32 4.65 17.54 4.43 C 17.61 4.36 17.74 4.27 17.86 4.18 C 18.02 4.07 18.17 3.96 18.22 3.88 C 18.52 3.4 17.59 2.99 17.15 3.18 C 16.89 3.29 16.37 3.99 16.28 4.26 C 16.11 4.75 16.31 5.34 16.89 5.32 L 16.9 5.33" transform="matrix(1 0 0 1 0 0)" fill="#FFFFFF" stroke="none" />
  <path d="M 16.72 16.37 L 21.52 15.28 L 20.47 13.88 L 16.72 16.37" transform="matrix(1 0 0 1 0 0)" fill="#FFFFFF" stroke="none" />
  <path d="M 23 19.21 L 22.06 17.12 L 16.04 17.62 L 23 19.21" transform="matrix(1 0 0 1 0 0)" fill="#FFFFFF" stroke="none" />
  <path d="M 18.67 6.87 C 18.48 7.27 18.95 7.75 19.36 7.69 C 19.66 7.64 20.71 6.88 20.85 6.62 C 21.05 6.26 20.47 5.7 20.08 5.76 C 19.78 5.81 18.81 6.58 18.67 6.86 L 18.67 6.87" transform="matrix(1 0 0 1 0 0)" fill="#FFFFFF" stroke="none" />
  <path d="M 20.25 7.98 L 20.2 8.02 C 19.96 8.2 19.33 8.66 19.28 8.79 C 19.06 9.3 20.09 9.53 20.42 9.43 C 20.57 9.29 20.8 9.15 21.04 9.01 C 21.6 8.68 22.22 8.31 22.02 7.72 C 21.72 6.83 20.95 7.44 20.42 7.85 C 20.36 7.9 20.3 7.95 20.24 7.99 L 20.25 7.98" transform="matrix(1 0 0 1 0 0)" fill="#FFFFFF" stroke="none" />
  <path d="M 7.13 1.99 L 5.61 2.86 L 7.65 6.87 L 7.13 1.99" transform="matrix(1 0 0 1 0 0)" fill="#FFFFFF" stroke="none" />
  <path d="M 8.31 14 C 8.1 13.94 8.01 14 7.87 14.09 C 7.84 14.11 7.81 14.13 7.78 14.15 C 6.75 14.77 6.07 15.78 5.39 16.78 C 5.01 17.35 4.62 17.91 4.18 18.4 L 3.53 19.42 L 3 20.76 L 8.05 22.1 C 8.05 22.1 8.66 21.69 8.79 21.47 C 9.05 21.02 9.26 20.53 9.47 20.03 C 9.65 19.62 9.82 19.21 10.03 18.83 C 10.1 18.7 10.27 18.44 10.45 18.16 C 10.75 17.7 11.09 17.18 11.1 17.04 C 11.13 16.79 10.18 15.71 9.97 15.47 C 9.68 15.15 8.65 14.08 8.31 13.99 L 8.31 14" transform="matrix(1 0 0 1 0 0)" fill="#FFFFFF" stroke="none" />
  <path d="M 14.39 15.26 C 14.52 15.13 14.62 15.03 14.64 15.02 C 14.7 14.97 14.75 14.92 14.81 14.87 C 14.85 14.84 14.88 14.8 14.92 14.77 L 15.01 14.69 C 15.19 14.53 15.21 14.25 15.04 14.07 L 11.31 10.13 C 11.14 9.95 10.85 9.95 10.68 10.13 C 10.59 10.23 10.27 10.58 9.98 10.9 L 9.09 9.85 L 8.51 11.13 L 9.12 11.84 C 8.99 11.98 8.86 12.11 8.75 12.24 C 8.59 12.41 8.59 12.67 8.75 12.83 L 12.37 16.66 C 12.55 16.85 12.85 16.84 13.02 16.64 C 13.14 16.51 13.26 16.37 13.39 16.24 L 13.55 16.08 L 14.51 17.22 L 15.03 16.13 L 14.38 15.27 L 14.39 15.26" transform="matrix(1 0 0 1 0 0)" fill="#FFFFFF" stroke="none" />
  <path d="M 13.1 10.6 C 13.27 10.75 13.41 10.88 13.48 10.95 C 13.8 11.27 14.11 11.62 14.4 11.97 C 14.46 12.05 14.54 12.16 14.63 12.3 C 14.87 12.66 15.19 13.12 15.41 13.14 C 15.52 13.14 16.01 13.02 16.15 12.98 C 17.13 12.7 18.43 11.77 19.09 10.98 L 19.13 10.93 C 19.36 10.66 19.73 10.23 19.37 9.94 C 18.94 9.59 17.56 9.12 17.01 9.1 C 16.64 9.08 16.13 9.47 15.7 9.81 C 15.52 9.95 15.34 10.08 15.2 10.18 C 15.15 10.21 15.12 10.27 15.09 10.33 L 14.97 10.26 C 15.42 9.43 15.59 8.58 15.59 7.64 C 16.12 8.08 17.4 8.71 18.06 8.44 C 18.48 8.27 18.24 7.88 18.06 7.59 L 18.04 7.56 C 17.54 6.72 16.41 5.83 15.57 5.34 C 14.55 4.74 14.52 4.8 14.07 5.56 C 14.01 5.67 13.93 5.79 13.85 5.93 C 13.46 6.55 13.12 7.21 12.82 7.88 L 12.82 7.91 C 12.64 8.27 12.11 9.45 12.15 9.69 C 12.17 9.81 12.7 10.28 13.09 10.63 L 13.1 10.6" transform="matrix(1 0 0 1 0 0)" fill="#FFFFFF" stroke="none" />
  <path d="M 17.81 19.58 C 17.52 19.05 16.88 18.82 16.33 19.02 L 16 18.37 L 14.67 17.99 L 15.45 19.52 C 15 19.88 14.86 20.53 15.15 21.05 L 15.89 22.38 C 16.16 22.87 16.74 23.1 17.26 22.97 L 18.16 22.52 C 18.69 22.18 18.87 21.48 18.55 20.92 L 17.81 19.59 L 17.81 19.58 M 17.49 21.83 L 17.22 21.98 C 17 22.1 16.72 22.02 16.6 21.8 L 16.01 20.74 C 15.89 20.52 15.97 20.24 16.19 20.12 L 16.46 19.97 C 16.68 19.85 16.96 19.93 17.08 20.15 L 17.67 21.21 C 17.79 21.43 17.71 21.71 17.49 21.83" transform="matrix(1 0 0 1 0 0)" fill="#FFFFFF" stroke="none" />
  <path d="M 9.03 1.68 L 8.24 8.48 L 11.23 1 L 9.03 1.68" transform="matrix(1 0 0 1 0 0)" fill="#FFFFFF" stroke="none" />
  <path d="M 4.96 11.06 L 6.17 12.28 L 6.23 10.9 L 5.71 10.38 C 6.08 9.92 6.06 9.25 5.65 8.8 L 4.62 7.68 C 4.29 7.32 3.79 7.2 3.35 7.35 L 3.04 5.92 C 3.62 5.82 4.06 5.32 4.06 4.71 L 4.06 3.19 C 4.05 2.55 3.55 2.03 2.92 1.99 L 1.91 2.04 C 1.38 2.18 1 2.65 1 3.22 L 1 4.74 C 1.01 5.34 1.45 5.83 2.02 5.93 L 2.36 8.15 L 2.25 8.26 C 1.96 8.71 1.99 9.33 2.38 9.74 L 3.41 10.86 C 3.82 11.3 4.47 11.37 4.96 11.06 M 2.69 5.02 L 2.39 5.02 C 2.14 5.02 1.93 4.82 1.93 4.57 L 1.93 3.36 C 1.93 3.11 2.12 2.9 2.38 2.9 L 2.68 2.9 C 2.93 2.9 3.14 3.1 3.14 3.35 L 3.14 4.56 C 3.14 4.81 2.95 5.02 2.69 5.02 M 3.18 8.59 L 3.4 8.38 C 3.59 8.21 3.87 8.22 4.04 8.41 L 4.86 9.31 C 5.03 9.5 5.02 9.78 4.83 9.95 L 4.61 10.16 C 4.42 10.33 4.14 10.32 3.97 10.13 L 3.15 9.23 C 2.98 9.04 2.99 8.76 3.18 8.59" transform="matrix(1 0 0 1 0 0)" fill="#FFFFFF" stroke="none" />
</svg>
