<?xml version="1.0" encoding="UTF-8"?>
<!-- Reconstructed from Amplitude.Graphics.Svg.SvgAsset and recolored from static UIMapper.Color metadata for EWShop; not original source SVG. Live UI state/material colors are not included. -->
<svg xmlns="http://www.w3.org/2000/svg" width="24" height="24" viewBox="0 0 24 24">
  <path d="M 17.011 1.05 C 17.341 0.676 20.458 2.51 20.726 2.68 C 20.904 2.835 20.904 3.061 20.726 3.416 C 20.65 3.569 20.178 4.285 19.615 5.141 C 18.865 6.285 17.949 7.678 17.593 8.306 C 16.976 8.935 17.903 11.988 18.208 12.995 L 18.218 13.026 C 18.513 14 19.365 14.337 20.455 14.634 C 21.542 14.932 20.709 15.779 20.454 15.903 C 20.249 16.003 20.212 16.002 19.168 15.999 C 18.915 15.997 18.603 15.997 18.217 15.997 C 16.301 15.997 15.491 15.791 15.135 14.336 C 14.789 12.931 13.466 11.315 12.553 10.313 C 12.832 9.908 13.115 9.495 13.388 9.099 L 13.387 9.098 C 13.761 8.558 14.11 8.056 14.377 7.665 C 14.61 7.323 14.856 6.957 14.959 6.762 L 14.96 6.763 C 15.121 6.458 15.312 6.014 15.313 5.499 C 15.313 5.244 15.263 5.004 15.178 4.784 C 15.844 3.627 16.423 2.357 16.734 1.586 C 16.734 1.586 16.836 1.248 17.011 1.05" transform="matrix(1 0 0 1 0 0)" fill="#FFFFFF" stroke="none" />
  <path d="M 8.682 3.063 C 9.123 2.59 13.277 4.913 13.634 5.129 C 13.873 5.325 13.873 5.611 13.634 6.062 C 13.533 6.255 12.904 7.162 12.154 8.246 C 11.153 9.694 9.933 11.458 9.458 12.254 C 8.635 13.051 9.872 16.919 10.278 18.193 L 10.292 18.232 C 10.685 19.466 11.821 19.893 13.274 20.27 C 14.724 20.647 13.612 21.722 13.273 21.878 C 13 22.004 12.95 22.004 11.557 21.999 C 11.22 21.997 10.804 21.995 10.29 21.995 C 7.735 21.995 6.656 21.736 6.18 19.894 C 5.708 18.07 3.871 15.967 2.651 14.705 C 1.505 13.521 1.835 12.291 3.942 10.682 C 5.627 9.394 7.558 5.519 8.313 3.742 C 8.316 3.732 8.452 3.311 8.682 3.063" transform="matrix(1 0 0 1 0 0)" fill="#FFFFFF" stroke="none" />
</svg>
