<?xml version="1.0" encoding="UTF-8"?>
<!-- Reconstructed from Amplitude.Graphics.Svg.SvgAsset and recolored from static UIMapper.Color metadata for EWShop; not original source SVG. Live UI state/material colors are not included. -->
<svg xmlns="http://www.w3.org/2000/svg" width="24" height="24" viewBox="0 0 24 24">
  <path d="M 11.554 9.287 C 13.317 9.15 16.989 8.979 19.618 11.448 C 19.589 10.817 18.51 9.086 18.51 9.086 C 18.51 9.086 21.919 10.731 22.86 18.478 C 23.157 19.085 23.378 19.4 23.5 20.071 L 21.029 18.031 C 20.972 17.579 20.731 16.986 20.226 16.354 C 19.495 17.022 17.771 16.927 15.874 16.288 C 17.515 16.489 19.424 15.97 19.649 15.731 C 19.284 15.386 18.837 15.038 18.294 14.705 C 18.071 15.44 16.824 15.41 16.638 15.391 C 15.874 15.314 15.249 14.705 15.249 14.705 C 15.232 14.69 14.587 14.104 14.636 13.194 C 14.071 13.041 13.46 12.903 12.801 12.785 C 12.798 13.323 12.717 14.08 14.555 15.865 C 12.798 15.017 11.593 14.174 11.554 12.593 C 11.027 12.524 9.865 12.096 9.283 12.052 C 9.245 14.825 13.237 17.56 18.51 18.831 C 15.874 18.831 8.982 18.878 6.5 10.071 C 13.801 10.22 17.523 12.698 20.504 15.435 C 19.831 13.333 17.698 10.036 11.554 9.287" transform="matrix(1 0 0 1 0 0)" fill="#FFFFFF" stroke="none" />
  <path d="M 4.548 4.603 C 7.285 2.99 10.763 3.282 13.192 5.329 L 15.511 4.168 L 16 4.746 L 14.105 7.337 L 11.234 8.773 L 10.745 8.195 L 11.801 6.754 C 10.058 5.364 7.633 5.161 5.683 6.24 L 6.482 7.838 L 5.904 8.326 L 4.395 7.223 C 2.713 8.945 2.36 11.546 3.451 13.637 L 5.546 12.589 L 6.034 13.168 L 4.596 15.135 C 5.736 16.195 6.99 16.71 8.469 16.616 C 8.756 17.135 9.221 17.756 9.929 18.39 C 7.095 18.699 4.893 18.292 2.985 16.336 L 1.268 17.195 L 0.779 16.616 L 1.951 15.015 C 0.152 12.093 0.565 8.277 3.001 5.809 L 1.876 3.56 L 2.454 3.071 L 4.548 4.603" transform="matrix(1 0 0 1 0 0)" fill="#FFFFFF" stroke="none" />
</svg>
