<?xml version="1.0" encoding="UTF-8"?>
<!-- Reconstructed from Amplitude.Graphics.Svg.SvgAsset and recolored from static UIMapper.Color metadata for EWShop; not original source SVG. Live UI state/material colors are not included. -->
<svg xmlns="http://www.w3.org/2000/svg" width="24" height="24" viewBox="0 0 24 24">
  <path d="M 21.141 11.262 L 23.402 11.701 L 21.141 12.141 L 20.701 14.402 L 20.262 12.141 L 18 11.701 L 20.262 11.262 L 20.701 9 L 21.141 11.262" transform="matrix(1 0 0 1 0 0)" fill="#FFFFFF" stroke="none" />
  <path d="M 17.643 4.714 L 21.394 5.678 L 17.643 6.643 L 16.678 10.395 L 15.714 6.643 L 12 5.678 L 15.714 4.714 L 16.678 1 L 17.643 4.714" transform="matrix(1 0 0 1 0 0)" fill="#FFFFFF" stroke="none" />
  <path d="M 5.234 4.05 L 8.284 4.643 L 5.234 5.234 L 4.642 8.284 L 4.05 5.234 L 1 4.643 L 4.05 4.05 L 4.642 1 L 5.234 4.05" transform="matrix(1 0 0 1 0 0)" fill="#FFFFFF" stroke="none" />
  <path d="M 8.881 5.008 C 9.137 4.984 9.384 5.031 9.613 5.147 C 10.172 5.428 10.511 6.028 10.592 6.647 C 10.599 6.704 10.611 7.109 10.611 7.109 C 10.609 7.121 10.5 8.257 10.421 8.387 C 10.349 8.533 10.333 8.709 10.265 8.861 C 10.227 8.945 9.94 9.409 9.935 9.426 C 9.932 9.442 9.935 9.459 9.936 9.475 C 9.967 9.548 10.042 9.598 10.104 9.642 C 10.306 9.784 10.535 9.899 10.747 10.025 C 11.075 10.219 11.408 10.435 11.749 10.601 C 12.017 10.731 12.295 10.772 12.538 10.964 C 13.418 11.663 13.556 13.766 13.658 14.836 C 13.697 15.227 13.742 15.618 13.792 16.007 C 14.029 16.238 14.301 16.43 14.563 16.629 C 14.91 16.893 15.258 17.146 15.615 17.385 L 14.687 18.315 C 14.007 18.077 12.782 17.574 12.612 17.269 C 12.534 17.128 12.49 16.952 12.441 16.797 C 12.349 16.522 12.267 16.242 12.193 15.961 C 12.118 15.68 12.053 15.397 11.996 15.112 C 11.974 15.003 11.923 14.516 11.874 14.46 C 11.122 15.786 11.222 17.577 11.672 18.533 C 11.673 18.537 11.766 18.898 11.989 18.898 C 12.654 18.707 13.502 18.595 14.193 18.506 C 14.306 18.491 14.421 18.478 14.535 18.465 L 14 19.001 L 16.5 20.001 L 13.527 22.974 C 13.228 22.969 12.924 22.939 12.638 22.91 C 11.805 22.825 10.979 22.699 10.151 22.58 C 9.8 22.529 9.447 22.456 9.095 22.428 C 8.832 22.389 8.424 22.508 8.154 22.554 L 7.002 22.746 C 6.483 22.826 5.962 22.889 5.44 22.935 C 5.173 22.96 4.904 22.994 4.637 23 C 4.306 23.008 3.733 22.986 3.492 22.735 C 3.423 22.663 3.377 22.565 3.378 22.462 C 3.381 22.199 3.652 22.037 3.815 21.874 C 3.068 21.64 2.238 21.397 1.597 20.923 C 1.231 20.653 1.086 20.293 1.018 19.847 C 0.963 19.492 1.034 19.26 1.237 18.972 L 1.682 17.896 C 1.985 17.782 2.555 17.321 2.839 17.111 C 3.285 16.781 3.731 16.449 4.193 16.144 C 4.238 15.85 4.248 15.543 4.274 15.247 C 4.376 14.05 4.512 11.86 5.432 11.039 C 5.635 10.858 5.919 10.765 6.16 10.65 C 6.28 10.593 6.394 10.525 6.508 10.456 C 6.9 10.222 7.74 9.787 8.015 9.464 L 8.03 9.446 C 7.94 9.269 7.814 9.113 7.729 8.932 C 7.647 8.757 7.614 8.567 7.55 8.386 L 7.355 6.947 C 7.371 6.458 7.492 6.005 7.796 5.619 C 8.077 5.26 8.436 5.054 8.881 5.008 M 6.109 14.462 C 5.957 15.218 5.775 16.568 5.412 17.216 C 5.333 17.357 5.234 17.472 5.102 17.562 C 4.705 17.832 3.692 18.161 3.204 18.324 C 3.071 18.368 2.939 18.424 2.804 18.461 C 3.072 18.489 3.343 18.489 3.611 18.505 C 3.928 18.524 4.246 18.544 4.56 18.587 C 5.051 18.655 5.534 18.76 6.023 18.843 C 6.176 18.807 6.401 18.322 6.405 18.313 C 6.535 17.847 6.93 16.445 6.109 14.462" transform="matrix(1 0 0 1 0 0)" fill="#FFFFFF" stroke="none" />
  <path d="M 23.001 18.885 L 19.084 15.271 L 15.291 18.885 L 17.055 18.885 L 19.084 17.146 L 21.113 18.885 L 23.001 18.885" transform="matrix(1 0 0 1 0 0)" fill="#FFFFFF" stroke="none" />
  <path d="M 23.001 22.5 L 19.084 18.885 L 15.291 22.5 L 17.055 22.5 L 19.084 20.761 L 21.113 22.5 L 23.001 22.5" transform="matrix(1 0 0 1 0 0)" fill="#FFFFFF" stroke="none" />
</svg>
