<?xml version="1.0" encoding="UTF-8"?>
<!-- Reconstructed from Amplitude.Graphics.Svg.SvgAsset and recolored from static UIMapper.Color metadata for EWShop; not original source SVG. Live UI state/material colors are not included. -->
<svg xmlns="http://www.w3.org/2000/svg" width="24" height="24" viewBox="0 0 24 24">
  <path d="M 15 22 L 11.188 19.36 L 10 23 L 8.863 18.024 L 3 23 L 6.719 16.482 C 10.263 18.891 14.639 19.433 18.509 18.838 L 18.912 18.783 L 20 22 L 14.999 19.36 L 15 22" transform="matrix(1 0 0 1 0 0)" fill="#FFFFFF" stroke="none" />
  <path d="M 19.895 18.65 L 22.999 21.065 L 21.382 18.436 L 21 18.5 L 19.895 18.65" transform="matrix(1 0 0 1 0 0)" fill="#FFFFFF" stroke="none" />
  <path d="M 20.797 11.985 C 19.025 10.405 16.931 9.417 15.639 8.807 C 15.395 8.691 15.179 8.59 15 8.5 L 8 6.5 L 3.59 5.859 L 2 2 L 6.999 5.564 L 8 2 L 10.503 6.567 L 12.58 0.958 L 14.011 7.13 L 20 2 L 16.102 8.764 L 23 7 L 19.5 10.5 L 23 11 L 20.797 11.985" transform="matrix(1 0 0 1 0 0)" fill="#FFFFFF" stroke="none" />
  <path d="M 2.61 12.109 L 1 13 L 3.3 13.151 C 3.06 12.82 2.83 12.473 2.61 12.109" transform="matrix(1 0 0 1 0 0)" fill="#FFFFFF" stroke="none" />
  <path d="M 4.484 14.581 L 1 17 L 6.609 16.407 C 5.858 15.886 5.146 15.279 4.484 14.581" transform="matrix(1 0 0 1 0 0)" fill="#FFFFFF" stroke="none" />
  <path d="M 22.813 17.573 L 19.698 15.125 C 19.573 14.602 19.221 13.939 18.564 13.264 C 17.828 14.143 16.509 15.338 14.277 14.838 C 16.16 14.859 17.606 12.919 17.828 12.609 C 17.368 12.252 16.815 11.904 16.155 11.584 C 16.182 11.702 16.172 11.831 16.119 11.973 C 15.892 12.583 15.039 13.535 14.172 13.461 C 14.047 13.461 13.931 13.455 13.822 13.442 C 12.847 13.334 12.012 12.534 11.789 11.579 C 11.681 11.116 11.68 10.649 11.789 10.357 C 11.798 10.334 11.807 10.311 11.817 10.29 C 11.157 10.185 10.448 10.103 9.686 10.051 C 9.71 11.103 9.509 11.338 11.009 13.838 C 9.606 13.059 8.509 11.838 8.25 9.989 C 7.646 9.978 7.012 9.983 6.349 10.008 C 6.682 13.264 11.064 17.403 17.828 17.937 C 14.194 18.382 5.009 17.338 1.009 7.338 L 7.009 7.838 C 11.236 8.06 20.855 10.987 22.813 17.573" transform="matrix(1 0 0 1 0 0)" fill="#FFFFFF" stroke="none" />
</svg>
