<?xml version="1.0" encoding="UTF-8"?>
<!-- Reconstructed from Amplitude.Graphics.Svg.SvgAsset and recolored from static UIMapper.Color metadata for EWShop; not original source SVG. Live UI state/material colors are not included. -->
<svg xmlns="http://www.w3.org/2000/svg" width="24" height="24" viewBox="0 0 24 24">
  <path d="M 19.084 19.385 L 23.001 23 L 21.113 23 L 19.084 21.261 L 17.055 23 L 15.291 23 L 19.084 19.385" transform="matrix(1 0 0 1 0 0)" fill="#FFFFFF" stroke="none" />
  <path d="M 1.873 4.148 C 2.266 4.299 2.83 3.785 3.133 3 C 3.436 2.215 3.364 1.455 2.971 1.304 C 2.578 1.152 2.014 1.666 1.711 2.451 C 1.408 3.237 1.481 3.996 1.873 4.148" transform="matrix(1 0 0 1 0 0)" fill="#FFFFFF" stroke="none" />
  <path d="M 10.182 7 L 13.818 7 L 13.818 10.182 L 17 10.182 L 17 13.818 L 13.818 13.818 L 13.818 17 L 10.182 17 L 10.182 13.818 L 7 13.818 L 7 10.182 L 10.182 10.182 L 10.182 7" transform="matrix(1 0 0 1 0 0)" fill="#FFFFFF" stroke="none" />
  <path d="M 3.018 21.88 C 2.744 22.589 1.996 22.705 1.642 22.568 C 1.287 22.431 1.222 21.746 1.495 21.036 C 1.769 20.327 2.278 19.863 2.633 20 C 2.988 20.137 3.018 21.036 3.018 21.88" transform="matrix(1 0 0 1 0 0)" fill="#FFFFFF" stroke="none" />
  <path d="M 21.912 7.902 C 21.902 7.738 21.887 7.502 21.984 7.25 C 22.183 6.734 22.242 6.393 21.984 6.293 C 21.727 6.194 21.357 6.531 21.158 7.046 C 20.959 7.562 21.54 8.014 21.798 8.113 C 21.929 8.164 21.923 8.072 21.912 7.902" transform="matrix(1 0 0 1 0 0)" fill="#FFFFFF" stroke="none" />
  <path d="M 2.672 16.717 C 2.899 17.02 2.777 17.323 2.649 17.639 C 2.611 17.735 2.572 17.831 2.542 17.929 C 2.201 18.184 2.154 18.12 1.912 17.793 C 1.894 17.768 1.874 17.741 1.853 17.712 C 1.833 17.686 1.813 17.659 1.792 17.631 C 1.501 17.245 1.129 16.753 1.472 16.497 C 1.839 16.223 2.376 16.321 2.672 16.717" transform="matrix(1 0 0 1 0 0)" fill="#FFFFFF" stroke="none" />
  <path d="M 21.771 3.714 C 21.853 3.571 21.94 3.419 22.037 3.267 C 22.136 3.112 22.236 2.969 22.329 2.838 C 22.669 2.355 22.901 2.025 22.541 1.795 C 22.516 1.78 22.491 1.764 22.466 1.747 C 22.02 1.46 21.474 1.109 21.037 1.795 C 20.575 2.521 20.409 4.131 20.867 4.423 C 21.23 4.653 21.461 4.251 21.771 3.714" transform="matrix(1 0 0 1 0 0)" fill="#FFFFFF" stroke="none" />
  <path d="M 9.671 3.02 C 9.291 3.575 9.359 4.436 9.812 3.917 C 11.518 1.965 15.098 2.615 16.06 5.971 C 16.282 6.745 16.85 7.219 17.63 7.426 C 18.409 7.622 19.87 6.858 19.784 5.473 C 19.616 1.379 12.163 -0.625 9.671 3.02 M 18.001 4.997 C 18.267 4.949 18.448 4.74 18.573 4.596 C 18.703 4.446 18.774 4.365 18.818 4.606 C 18.904 5.08 18.914 6.328 18.371 6.427 C 17.827 6.525 17.317 6.221 17.231 5.748 C 17.145 5.274 17.458 5.096 18.001 4.997" transform="matrix(1 0 0 1 0 0)" fill="#FFFFFF" stroke="none" />
  <path d="M 13.633 21.5 C 14.078 20.995 14.116 20.133 13.603 20.592 C 11.67 22.319 8.197 21.233 7.656 17.784 C 7.531 16.988 7.026 16.448 6.277 16.146 C 5.529 15.856 3.985 16.434 3.899 17.819 C 3.562 21.902 10.71 24.81 13.633 21.5 M 6.153 18.59 C 5.932 19.162 5.439 19.504 5.05 19.354 C 4.662 19.204 4.526 18.619 4.747 18.047 C 4.968 17.475 5.462 17.133 5.85 17.282 C 6.238 17.432 6.374 18.018 6.153 18.59" transform="matrix(1 0 0 1 0 0)" fill="#FFFFFF" stroke="none" />
  <path d="M 3.333 13.701 C 3.766 14.236 2.907 14.155 2.425 13.686 C -0.738 10.604 2.517 3.607 6.579 4.145 C 7.958 4.298 8.459 5.868 8.133 6.602 C 7.795 7.334 7.23 7.813 6.429 7.898 C 2.958 8.27 1.703 11.685 3.333 13.701 M 4.49 6.552 C 4.404 6.18 4.322 5.824 4.639 5.4 C 5.051 4.849 5.683 4.624 6.05 4.899 C 6.392 5.155 5.875 5.841 5.47 6.38 C 5.441 6.419 5.413 6.456 5.385 6.493 C 5.356 6.533 5.328 6.57 5.302 6.605 C 4.965 7.06 4.898 7.15 4.557 6.896 C 4.542 6.778 4.516 6.664 4.49 6.552" transform="matrix(1 0 0 1 0 0)" fill="#FFFFFF" stroke="none" />
  <path d="M 20.633 9.782 C 20.152 9.289 21.015 9.29 21.539 9.712 C 24 12.5 23.344 17.556 20.332 19.086 L 19 18.047 L 17.5 19.5 C 16.456 19.178 16.288 17.959 16.513 17.296 C 16.781 16.535 17.299 16.006 18.088 15.846 C 21.51 15.155 22.443 11.638 20.633 9.782" transform="matrix(1 0 0 1 0 0)" fill="#FFFFFF" stroke="none" />
</svg>
