<?xml version="1.0" encoding="UTF-8"?>
<!-- Reconstructed from Amplitude.Graphics.Svg.SvgAsset and recolored from static UIMapper.Color metadata for EWShop; not original source SVG. Live UI state/material colors are not included. -->
<svg xmlns="http://www.w3.org/2000/svg" width="24" height="24" viewBox="0 0 24 24">
  <path d="M 21.043 15.996 L 20.634 15.364 L 23 14.022 L 20.865 11.464 L 23.375 9.572 L 19.784 10.113 L 19.907 9.675 L 19.41 9.949 C 19.776 10.3 20.06 10.773 20.136 11.381 C 20.222 12.06 20.032 12.777 19.642 13.518 L 19.519 13.752 L 19.296 13.894 C 18.775 14.228 18.164 14.417 17.412 14.274 C 16.906 14.178 16.386 13.938 15.825 13.585 L 15.694 14.527 L 16.534 16.808 L 16.693 16.808 L 19 14.5 L 21.043 15.996" transform="matrix(1 0 0 1 0 0)" fill="#FFFFFF" stroke="none" />
  <path d="M 21.215 5.021 L 22.062 2.004 L 16.09 6.894 L 18.086 7.126 L 20.174 6.502 L 20.336 6.34 L 20.995 5.021 L 21.215 5.021" transform="matrix(1 0 0 1 0 0)" fill="#FFFFFF" stroke="none" />
  <path d="M 15.19 6.789 L 13.683 3.317 L 11.947 6.712 L 14.373 6.712 C 14.452 6.712 14.53 6.715 14.609 6.722 L 15.19 6.789" transform="matrix(1 0 0 1 0 0)" fill="#FFFFFF" stroke="none" />
  <path d="M 11.943 6.712 L 6.116 1 L 8.624 7.722 C 9.057 7.492 9.506 7.29 9.969 7.119 L 10.594 6.888 C 10.908 6.771 11.24 6.712 11.576 6.712 L 11.943 6.712" transform="matrix(1 0 0 1 0 0)" fill="#FFFFFF" stroke="none" />
  <path d="M 7.343 8.523 L 1.443 6.715 L 5.734 9.945 C 5.977 9.684 6.233 9.435 6.5 9.199 C 6.77 8.96 7.051 8.735 7.343 8.523" transform="matrix(1 0 0 1 0 0)" fill="#FFFFFF" stroke="none" />
  <path d="M 4.76 11.148 L 2 10.113 L 1 14.022 L 3.962 12.99 C 3.998 12.563 4.13 12.139 4.366 11.751 C 4.491 11.545 4.622 11.344 4.76 11.148" transform="matrix(1 0 0 1 0 0)" fill="#FFFFFF" stroke="none" />
  <path d="M 4.14 14.248 L 1 16.022 L 2.104 16.163 L 2.306 15.841 C 2.652 15.291 3.264 14.967 3.913 14.989 L 4.577 15.013 C 4.391 14.78 4.244 14.522 4.14 14.248" transform="matrix(1 0 0 1 0 0)" fill="#FFFFFF" stroke="none" />
  <path d="M 6.749 18.745 L 4 23.022 L 10.216 19.54 C 10.118 19.533 10.02 19.517 9.922 19.494 L 6.749 18.745" transform="matrix(1 0 0 1 0 0)" fill="#FFFFFF" stroke="none" />
  <path d="M 10.946 19.459 L 12 23.022 L 14.263 20.268 L 15.551 21.449 L 17 20 L 13.5 20 L 14.376 19.124 C 14.191 18.98 14.032 18.8 13.909 18.592 C 13.586 18.044 13.182 17.352 12.857 16.781 C 12.696 16.496 12.55 16.235 12.443 16.033 C 12.391 15.934 12.342 15.839 12.304 15.758 C 12.286 15.719 12.263 15.669 12.243 15.617 C 12.233 15.591 12.219 15.551 12.206 15.503 C 12.199 15.479 12.178 15.402 12.17 15.3 C 12.168 15.287 12.165 15.268 12.161 15.24 C 12.149 15.172 12.132 15.075 12.11 14.953 C 12.066 14.71 12.004 14.385 11.935 14.026 C 11.861 13.643 11.779 13.226 11.702 12.835 L 11.077 12.92 L 10.56 13.34 L 12.136 16.797 C 12.473 17.535 12.316 18.404 11.743 18.977 C 11.516 19.204 11.242 19.367 10.946 19.459" transform="matrix(1 0 0 1 0 0)" fill="#FFFFFF" stroke="none" />
  <path d="M 19 2.004 L 16 5.521 L 16 1 L 19 2.004" transform="matrix(1 0 0 1 0 0)" fill="#FFFFFF" stroke="none" />
  <path d="M 1 4.022 L 6.818 7.066 L 4 1.031 L 1 4.022" transform="matrix(1 0 0 1 0 0)" fill="#FFFFFF" stroke="none" />
  <path d="M 14.526 7.718 L 14.502 7.702 L 18.173 8.143 L 20.702 7.388 L 21.158 6.933 L 21.613 6.021 L 22.524 6.021 L 22.021 7.207 L 22.524 7.111 L 22.524 7.388 L 21.832 7.805 L 21.158 7.844 L 18.674 9.213 L 16.287 9.368 L 16.505 9.881 C 17.756 10.02 20.092 10.515 18.757 13.052 C 18.062 13.497 17.339 13.469 15.837 12.384 L 16.004 11.3 L 15.17 11.049 L 14.669 14.637 L 15.616 17.208 C 15.675 17.366 15.773 17.501 15.898 17.602 L 15.094 18.406 C 14.963 18.329 14.851 18.219 14.771 18.083 C 14.126 16.992 13.167 15.339 13.167 15.221 C 13.167 15.088 12.722 12.829 12.5 11.717 L 10.664 11.967 L 9.329 13.052 L 11.227 17.212 C 11.39 17.57 11.314 17.992 11.036 18.27 C 10.805 18.501 10.471 18.596 10.153 18.521 L 4.657 17.224 L 2.889 18.761 C 2.791 18.846 2.667 18.892 2.538 18.892 C 2.117 18.892 1.861 18.429 2.085 18.073 L 3.153 16.373 C 3.309 16.125 3.585 15.978 3.878 15.989 L 8.161 16.139 L 5.867 14.821 C 4.975 14.308 4.687 13.149 5.221 12.27 C 6.393 10.34 8.198 8.84 10.316 8.057 L 10.941 7.826 C 11.144 7.75 11.359 7.712 11.576 7.712 L 14.373 7.712 C 14.424 7.712 14.475 7.714 14.526 7.718" transform="matrix(1 0 0 1 0 0)" fill="#FFFFFF" stroke="none" />
  <path d="M 19.084 15.771 L 23.001 19.385 L 21.113 19.385 L 19.084 17.646 L 17.055 19.385 L 15.291 19.385 L 19.084 15.771" transform="matrix(1 0 0 1 0 0)" fill="#FFFFFF" stroke="none" />
  <path d="M 19.084 19.385 L 23.001 23 L 21.113 23 L 19.084 21.261 L 17.055 23 L 15.291 23 L 19.084 19.385" transform="matrix(1 0 0 1 0 0)" fill="#FFFFFF" stroke="none" />
</svg>
