<?xml version="1.0" encoding="UTF-8"?>
<!-- Reconstructed from Amplitude.Graphics.Svg.SvgAsset and recolored from static UIMapper.Color metadata for EWShop; not original source SVG. Live UI state/material colors are not included. -->
<svg xmlns="http://www.w3.org/2000/svg" width="24" height="24" viewBox="0 0 24 24">
  <path d="M 12.765 19.318 L 12.263 20.777 L 9.5 22.314 L 9.5 23 L 8.5 23 L 7.233 19.317 L 9.305 16.833 L 10 21 L 10.694 16.833 L 12.765 19.318 M 14.25 15 L 13.476 17.251 L 11.295 15.269 L 15.211 12.204 L 14.25 15 M 8.71 15.263 L 6.523 17.25 L 4.717 11.995 L 8.71 15.263 M 15 11 L 10.097 15 L 9.903 15 L 5 11 L 9.137 7.755 L 10 12.5 L 10.862 7.755 L 15 11 M 8.606 6.678 L 4.178 10.426 L 3 7 L 5.93 4.488 L 8.606 6.678 M 17 7 L 15.871 10.283 L 11.419 6.656 L 14.069 4.487 L 17 7 M 12.423 3.076 L 10 5.5 L 7.576 3.076 L 10 1 L 12.423 3.076" transform="matrix(1 0 0 1 0 0)" fill="#FFFFFF" stroke="none" />
  <path d="M 16.623 11.942 C 18.798 14.26 19.248 17.292 22.258 19.111 C 25.035 20.791 18.826 23 16 23 C 13.543 23 9.5 23 9.5 23 L 9.5 22.314 L 14 19.814 L 16.623 11.942 M 7.15 22.795 C 4.241 22.559 2.299 22.051 1.357 20.952 C 1.214 20.782 1.118 20.631 1.051 20.481 L 1.074 20.488 C 0.615 19.357 2.37 18.749 4.22 18.102 L 4.211 18.082 C 4.534 17.969 4.955 17.859 5.42 17.746 L 7.15 22.795" transform="matrix(1 0 0 1 0 0)" fill="#FFFFFF" stroke="none" />
</svg>
