<?xml version="1.0" encoding="UTF-8"?>
<!-- Reconstructed from Amplitude.Graphics.Svg.SvgAsset and recolored from static UIMapper.Color metadata for EWShop; not original source SVG. Live UI state/material colors are not included. -->
<svg xmlns="http://www.w3.org/2000/svg" width="24" height="24" viewBox="0 0 24 24">
  <path d="M 22.039 7.547 L 22.155 9.257 L 23.168 7.875 L 22.155 3.36 L 18.598 7.745 L 22.039 7.547" transform="matrix(1 0 0 1 0 0)" fill="#FFFFFF" stroke="none" />
  <path d="M 13.745 4.52 L 15.674 6.026 L 16.544 3.61 L 17.269 4.264 L 19.265 0.966 L 8.318 0.966 L 9.821 5.145 L 11.97 1.848 L 13.219 6.567 L 13.745 4.52" transform="matrix(1 0 0 1 0 0)" fill="#FFFFFF" stroke="none" />
  <path d="M 19.968 16.165 L 20.772 14.134 L 21.991 16.674 L 22.772 17.878 L 21.593 19.187 L 17.205 16.794 L 19.968 16.165" transform="matrix(1 0 0 1 0 0)" fill="#FFFFFF" stroke="none" />
  <path d="M 12.122 19.763 L 15.054 15.941 L 15.054 20.601 L 15.813 19.998 L 16.232 22.381 L 18.614 21.49 L 18.901 23.035 L 7.359 23.035 L 8.013 19.187 L 10.264 22.222 L 11.572 17.878 L 12.122 19.763" transform="matrix(1 0 0 1 0 0)" fill="#FFFFFF" stroke="none" />
  <path d="M 2.211 16.304 L 1.765 14.289 L 0.832 20.555 L 6.849 19.703 L 3.21 18.364 L 6.841 15.408 L 2.211 16.304" transform="matrix(1 0 0 1 0 0)" fill="#FFFFFF" stroke="none" />
  <path d="M 2.697 8.909 L 3.302 7.244 L 7.143 8.524 L 4.238 4.257 L 6.298 4.337 L 3.353 2.107 L 1.327 0.966 L 1.932 7.215 L 2.697 8.909" transform="matrix(1 0 0 1 0 0)" fill="#FFFFFF" stroke="none" />
  <path d="M 14.424 13.35 L 17.855 9.313 C 18.91 8.863 19.221 14.157 16.752 14.762 C 16.131 14.918 13.896 14.7 14.439 13.365 L 14.424 13.35 M 6.576 9.298 L 10.007 13.334 C 10.38 14.234 9.479 14.623 8.672 14.731 L 7.709 14.731 C 5.241 14.126 5.552 8.848 6.607 9.282 L 6.576 9.298" transform="matrix(1 0 0 1 0 0)" fill="#FFFFFF" stroke="none" />
</svg>
