<?xml version="1.0" encoding="UTF-8"?>
<!-- Reconstructed from Amplitude.Graphics.Svg.SvgAsset and recolored from static UIMapper.Color metadata for EWShop; not original source SVG. Live UI state/material colors are not included. -->
<svg xmlns="http://www.w3.org/2000/svg" width="24" height="24" viewBox="0 0 24 24">
  <path d="M 14.24 2.217 L 15.562 2 L 14.553 5.62 L 14.24 2.217" transform="matrix(1 0 0 1 0 0)" fill="#FFFFFF" stroke="none" />
  <path d="M 22.648 12.553 L 22.392 11.239 L 19 11.651 L 22.648 12.553" transform="matrix(1 0 0 1 0 0)" fill="#FFFFFF" stroke="none" />
  <path d="M 5.516 9.089 C 7.065 7.749 9.495 7.88 11.6 9.22 L 10.941 9.988 C 10.347 9.627 9.734 9.381 9.142 9.252 C 7.942 8.992 6.893 9.22 6.171 9.845 C 5.448 10.471 5.073 11.476 5.159 12.7 C 5.245 13.926 5.797 15.304 6.839 16.508 C 7.882 17.712 9.167 18.455 10.367 18.716 C 11.567 18.976 12.616 18.749 13.338 18.123 C 14.061 17.498 14.436 16.493 14.35 15.268 C 14.3 14.556 14.092 13.792 13.723 13.04 L 14.571 12.501 C 15.777 14.87 15.618 17.472 13.993 18.879 C 11.965 20.635 8.424 19.866 6.083 17.163 C 3.743 14.459 3.489 10.845 5.516 9.089" transform="matrix(1 0 0 1 0 0)" fill="#FFFFFF" stroke="none" />
  <path d="M 15.901 4.857 L 16.246 6.762 C 16.263 6.854 16.377 6.887 16.44 6.819 L 19.453 3.572 C 19.556 3.462 19.61 3.316 19.604 3.166 L 19.52 0.909 C 19.516 0.808 19.392 0.762 19.324 0.836 L 17.514 2.787 L 17.54 3.478 L 16.848 3.504 L 16.043 4.372 C 15.922 4.502 15.869 4.682 15.901 4.857" transform="matrix(1 0 0 1 0 0)" fill="#FFFFFF" stroke="none" />
  <path d="M 10.923 11.909 C 9.847 10.964 8.471 10.738 7.662 11.439 C 6.744 12.234 6.901 13.919 8.013 15.202 C 9.124 16.486 10.769 16.883 11.687 16.088 C 12.486 15.397 12.47 14.031 11.72 12.842 L 21.045 4.223 L 21.845 2.137 L 10.923 11.909" transform="matrix(1 0 0 1 0 0)" fill="#FFFFFF" stroke="none" />
  <path d="M 19.368 8.842 L 17.469 8.467 C 17.377 8.449 17.346 8.335 17.415 8.272 L 20.708 5.31 C 20.82 5.209 20.967 5.157 21.116 5.165 L 23.372 5.284 C 23.473 5.29 23.517 5.414 23.442 5.482 L 21.464 7.261 L 19.746 7.529 L 20.736 7.915 L 19.856 8.707 C 19.724 8.827 19.543 8.876 19.368 8.842" transform="matrix(1 0 0 1 0 0)" fill="#FFFFFF" stroke="none" />
  <path d="M 15.83 11.699 C 16.679 13.151 17.147 14.664 17.245 16.06 C 17.385 18.058 16.773 19.713 15.578 20.748 C 14.383 21.783 12.657 22.152 10.699 21.727 C 8.741 21.302 6.651 20.091 4.958 18.137 C 3.266 16.182 2.367 13.94 2.226 11.941 C 2.086 9.943 2.698 8.287 3.893 7.252 C 5.089 6.217 6.814 5.849 8.772 6.274 C 10.037 6.548 11.357 7.151 12.59 8.07 L 13.57 6.93 C 10.003 4.225 5.619 3.774 2.911 6.118 C -0.353 8.945 0.055 14.765 3.824 19.118 C 7.593 23.471 13.295 24.709 16.56 21.882 C 19.342 19.473 19.456 14.89 17.097 10.893 L 15.83 11.699" transform="matrix(1 0 0 1 0 0)" fill="#FFFFFF" stroke="none" />
</svg>
