<?xml version="1.0" encoding="UTF-8"?>
<!-- Reconstructed from Amplitude.Graphics.Svg.SvgAsset and recolored from static UIMapper.Color metadata for EWShop; not original source SVG. Live UI state/material colors are not included. -->
<svg xmlns="http://www.w3.org/2000/svg" width="24" height="24" viewBox="0 0 24 24">
  <path d="M 16.265 5.021 L 17.36 2.476 L 18.051 5.592 L 21.368 3.623 L 19.592 6.779 L 23 7.163 L 19.389 9.406 L 22.432 11.428 L 18.963 10.882 L 20.545 15.106 L 17.482 12.114 L 16.569 13.893 L 15.636 11.751 L 12.167 14.58 L 13.364 10.336 L 11.478 10.619 L 12.796 9.629 L 8.982 7.406 L 12.918 7.588 L 11.883 5.405 L 14.358 6.052 L 13.485 1.444 L 16.265 5.021 M 22.857 12.814 L 22.021 14.401 L 20.015 11.731 L 22.857 12.814 M 9.815 14.186 L 8.895 13.03 L 12.093 11.275 L 9.815 14.186 M 15.4 7.502 L 14.504 7.268 L 14.879 8.059 L 13.453 7.992 L 14.834 8.798 L 14.356 9.156 L 15.04 9.054 L 14.606 10.59 L 15.862 9.565 L 16.2 10.342 L 16.531 9.697 L 17.655 10.817 L 17.067 9.251 L 18.323 9.448 L 17.222 8.717 L 18.529 7.904 L 17.295 7.766 L 17.618 6.316 L 16.752 7.268 L 16.487 6.207 L 16.091 7.129 L 15.084 5.834 L 15.4 7.502 M 21.58 1.358 L 18.426 4.67 L 19.529 1 L 21.58 1.358" transform="matrix(1 0 0 1 0 0)" fill="#FFFFFF" stroke="none" />
  <path d="M 5.685 4.871 C 5.765 4.633 6.152 4.689 6.186 4.938 C 6.436 6.797 7.244 9.257 8.663 9.442 C 8.769 9.361 8.875 9.282 8.981 9.203 L 10.497 10.103 L 10.485 10.113 L 10.82 10.922 L 8.198 12.388 C 8.089 12.449 7.992 12.531 7.912 12.628 L 7.598 13.012 C 4.821 15.416 4.133 19.122 3.921 20.919 C 3.891 21.175 4.112 21.387 4.369 21.338 C 5.587 21.105 7.196 20.407 6.56 18.911 C 5.996 17.589 7.222 15.912 8.314 14.917 L 8.625 15.315 L 9.424 16.333 C 9.298 16.462 9.158 16.6 8.999 16.742 C 8.527 17.398 7.918 18.639 8.398 19.367 C 8.693 19.812 9.347 19.695 9.829 19.454 L 10.111 19.314 C 10.288 19.225 10.374 19.027 10.341 18.835 C 10.266 18.403 10.292 18.009 10.373 17.667 L 12.523 15.884 L 13.831 14.796 C 13.624 15.509 13.328 16.023 13.009 16.377 L 12.691 16.695 C 12.395 17.019 12.19 17.461 12.331 17.862 L 12.679 18.849 C 12.782 19.144 12.707 19.473 12.475 19.686 C 8.745 23.117 4.737 23.283 2.544 22.802 C 2.019 22.687 1.698 22.188 1.75 21.663 C 1.83 20.863 1.956 20.095 2.125 19.361 C 1.472 18.786 0.742 17.438 1.09 15.034 C 1.126 14.785 1.498 14.786 1.565 15.029 C 1.809 15.9 2.206 16.819 2.774 17.197 C 3.042 16.482 3.352 15.804 3.699 15.159 C 2.996 14.504 2.244 13.067 2.524 10.583 C 2.565 10.226 3.099 10.224 3.208 10.568 C 3.586 11.764 4.22 12.936 5.14 12.934 C 5.479 12.49 5.838 12.066 6.213 11.661 C 5.347 10.775 4.434 8.584 5.685 4.871 M 18.686 15.595 C 18.612 16.997 18.16 18.354 17.287 19.385 C 16.859 19.891 16.302 20.279 15.636 20.555 C 15.572 20.581 15.579 20.421 15.619 20.366 C 16.532 19.101 16.91 17.461 16.648 15.938 L 17.206 14.832 L 17.443 14.359 L 18.686 15.595" transform="matrix(1 0 0 1 0 0)" fill="#FFFFFF" stroke="none" />
</svg>
