<?xml version="1.0" encoding="UTF-8"?>
<!-- Reconstructed from Amplitude.Graphics.Svg.SvgAsset and recolored from static UIMapper.Color metadata for EWShop; not original source SVG. Live UI state/material colors are not included. -->
<svg xmlns="http://www.w3.org/2000/svg" width="24" height="24" viewBox="0 0 24 24">
  <path d="M 3.761 7.704 C 4.454 7.501 5.339 7.684 5.36 7.689 L 5.967 11.8 C 5.971 11.795 6.097 11.633 6.278 11.402 L 6.545 13.063 L 6.461 13.321 C 6.342 13.68 6.436 14.076 6.703 14.343 C 6.721 14.361 6.741 14.377 6.76 14.394 L 6.782 14.522 C 6.63 14.613 6.534 14.674 6.526 14.683 C 6.219 15.241 7.031 16.9 7.223 17.258 L 7.24 17.363 L 6.855 18.194 L 6.848 18.195 L 6.044 17.68 C 6.043 17.675 6.043 17.667 6.042 17.657 C 6.015 17.397 5.812 15.384 5.223 15.066 C 5.137 15.031 2.537 15.281 2.537 15.281 C 2.209 15.301 2.081 16.168 2.447 16.43 C 2.486 16.455 2.537 16.489 2.596 16.528 C 3.147 16.886 4.478 17.751 4.519 17.972 L 4.522 17.987 C 4.568 18.192 4.635 18.493 4.641 18.562 C 4.642 18.62 4.565 18.722 4.51 18.794 C 4.492 18.818 4.476 18.839 4.466 18.855 C 3.997 19.522 4.246 20.037 4.336 20.223 C 4.339 20.231 4.343 20.239 4.346 20.246 C 4.531 20.58 5.449 21.313 5.479 21.333 L 6.104 23.457 C 4.086 21.305 2.66 21 2.629 20.993 C 2.629 20.993 2.631 20.989 2.632 20.985 C 2.696 20.813 3.656 18.237 1.274 16.832 C 1.271 16.818 1.264 16.795 1.256 16.764 C 1.123 16.254 0.412 13.535 1.561 11.498 C 1.654 11.471 4.094 12.327 4.131 12.34 L 2.421 8.554 C 2.429 8.544 2.881 7.963 3.761 7.704" transform="matrix(1 0 0 1 0 0)" fill="#FFFFFF" stroke="none" />
  <path d="M 11.656 13.285 C 11.811 14.062 11.844 14.691 11.852 14.865 C 11.853 14.882 11.854 14.896 11.854 14.904 C 10.47 17.213 11.766 19.14 11.867 19.289 C 11.87 19.293 11.873 19.298 11.873 19.298 C 11.867 19.302 10.716 20.071 9.337 22.742 L 9.272 20.527 C 9.726 19.882 9.947 19.362 10.003 19.135 C 10.046 18.962 10.132 18.338 9.464 17.851 C 9.455 17.845 9.443 17.839 9.43 17.832 C 9.353 17.789 9.222 17.715 9.207 17.622 C 9.191 17.553 9.138 17.2 9.132 16.996 C 9.135 16.878 10.391 15.214 10.599 14.939 C 10.61 14.925 10.618 14.915 10.623 14.908 C 10.885 14.598 10.595 13.981 10.32 13.862 C 10.2 13.847 9.985 13.874 9.725 13.923 L 11.656 13.285" transform="matrix(1 0 0 1 0 0)" fill="#FFFFFF" stroke="none" />
  <path d="M 7.895 0.999 C 7.923 0.763 8.17 0.787 8.172 1.026 C 8.204 5.083 8.355 6.236 9.545 1.555 C 9.641 1.309 9.849 1.416 9.817 1.65 C 9 4.5 9 5.5 9.245 6.935 C 9.307 7.153 9.613 7.162 9.691 6.95 C 9.755 6.773 9.817 6.578 9.868 6.421 C 9.881 6.378 9.895 6.337 9.907 6.301 C 9.924 6.249 9.94 6.192 9.958 6.134 C 10.013 5.956 10.074 5.758 10.158 5.572 C 10.192 5.495 10.694 5.523 10.689 5.607 C 10.678 5.785 10.563 6.072 10.388 6.512 C 10.044 7.376 8.629 10.164 7.972 12.808 L 12.634 7.283 C 12.466 7.146 12.242 6.912 12.226 6.858 L 11.74 5.153 C 11.695 4.996 11.729 4.826 11.831 4.696 L 12.513 3.825 L 12.966 5.499 L 13.466 2.499 L 14.609 1.154 C 14.667 1.08 14.786 1.109 14.798 1.2 L 15.07 3.252 C 15.081 3.34 15.112 3.921 15.109 4.35 L 15.752 3.587 L 17.673 2.607 L 15.705 5.05 C 16.414 4.693 17.623 4.126 17.725 4.12 L 19.909 3.97 C 20.003 3.965 20.055 4.075 19.991 4.144 L 18.287 5.958 L 16.742 6.359 L 17.66 6.625 L 16.902 7.433 C 16.788 7.554 16.622 7.617 16.455 7.603 L 14.138 7.806 C 14.086 7.801 13.84 7.691 13.662 7.589 L 8.581 13.896 C 10.966 13.063 19.127 8.324 22.969 6.645 C 23.096 6.589 23.27 6.705 23.172 6.803 C 23.149 6.826 23.117 6.845 23.075 6.861 C 21.945 7.384 24.819 6.856 23.053 7.591 C 21.118 8.397 19.15 9.217 17.915 9.801 C 17.843 9.836 17.883 9.944 17.96 9.925 C 18.856 9.701 20.5 9.999 23 9.59 C 22.625 9.756 21.86 10.184 19.406 10.868 C 17.07 11.518 14.742 12.167 14.228 12.363 L 14.241 12.411 C 20.405 12.597 19.5 12.499 23 11.999 C 23.201 11.943 23.336 12.181 23.19 12.315 C 23.179 12.325 23.165 12.332 23.151 12.338 C 20.495 13.502 19.451 14.035 14.362 14.011 C 11.912 14 9.96 14.227 7.794 14.285 C 7.547 14.291 7.491 14.157 7.489 13.909 C 7.483 13.35 7.263 6.46 7.895 0.999" transform="matrix(1 0 0 1 0 0)" fill="#FFFFFF" stroke="none" />
</svg>
