<?xml version="1.0" encoding="UTF-8"?>
<!-- Reconstructed from Amplitude.Graphics.Svg.SvgAsset and recolored from static UIMapper.Color metadata for EWShop; not original source SVG. Live UI state/material colors are not included. -->
<svg xmlns="http://www.w3.org/2000/svg" width="24" height="24" viewBox="0 0 24 24">
  <path d="M 15.709 4.428 C 15.625 4.723 15.725 5.036 15.927 5.268 C 16.06 5.421 16.179 5.583 16.283 5.752 C 16.441 6.007 16.701 6.193 17.001 6.207 L 18.662 6.286 L 17.184 7.34 C 16.967 7.495 16.848 7.749 16.826 8.015 C 16.809 8.224 16.775 8.432 16.722 8.637 C 16.655 8.899 16.686 9.182 16.845 9.401 L 17.307 10.037 L 16.368 9.768 C 16.293 9.746 16.213 9.777 16.169 9.84 C 16.109 9.927 15.793 10.287 15.623 10.48 C 15.579 10.529 15.545 10.568 15.528 10.588 C 16.673 9.117 16.374 6.399 14.796 5.299 C 13.526 4.413 11.525 4.718 10.307 5.654 L 10.298 5.666 L 10.295 5.662 C 10.004 5.888 9.759 6.15 9.579 6.44 C 9.592 6.417 9.617 6.371 9.648 6.313 C 9.771 6.087 9.999 5.666 10.06 5.58 C 10.11 5.507 10.112 5.41 10.06 5.338 L 9.536 4.617 L 10.216 4.81 C 10.478 4.884 10.756 4.813 10.979 4.657 C 11.119 4.559 11.265 4.472 11.416 4.395 C 11.642 4.279 11.825 4.086 11.892 3.84 L 12.359 2.13 L 12.941 3.504 C 13.065 3.796 13.352 3.979 13.666 4.026 C 13.926 4.065 14.183 4.132 14.434 4.227 C 14.721 4.336 15.049 4.322 15.298 4.141 L 15.917 3.691 L 15.709 4.428" transform="matrix(1 0 0 1 0 0)" fill="#FFFFFF" stroke="none" />
  <path d="M 9.641 13.182 C 9.883 12.992 10.21 12.965 10.501 13.063 C 10.693 13.127 10.888 13.175 11.084 13.207 C 11.381 13.256 11.652 13.425 11.779 13.697 L 12.486 15.202 L 12.896 13.435 C 12.956 13.175 13.146 12.968 13.383 12.846 C 13.57 12.751 13.749 12.64 13.919 12.512 C 14.136 12.35 14.409 12.271 14.672 12.335 L 15.435 12.519 L 14.829 11.754 C 14.781 11.693 14.778 11.608 14.82 11.542 C 14.877 11.454 15.089 11.024 15.203 10.794 C 15.232 10.734 15.255 10.688 15.267 10.664 C 14.344 12.285 11.718 13.045 10.098 12.006 C 8.795 11.17 8.314 9.203 8.714 7.72 L 8.722 7.708 L 8.718 7.707 C 8.815 7.351 8.963 7.025 9.163 6.748 C 9.146 6.769 9.114 6.809 9.072 6.86 C 8.91 7.059 8.608 7.431 8.551 7.52 C 8.503 7.595 8.414 7.633 8.328 7.612 L 7.462 7.403 L 7.899 7.959 C 8.067 8.173 8.109 8.456 8.049 8.722 C 8.012 8.889 7.987 9.057 7.973 9.226 C 7.953 9.479 7.844 9.722 7.642 9.878 L 6.24 10.962 L 7.731 10.975 C 8.049 10.978 8.328 11.174 8.491 11.447 C 8.626 11.672 8.786 11.884 8.969 12.08 C 9.18 12.304 9.292 12.612 9.219 12.911 L 9.04 13.655 L 9.641 13.182" transform="matrix(1 0 0 1 0 0)" fill="#FFFFFF" stroke="none" />
  <path d="M 19.084 19.385 L 23 23 L 21.112 23 L 19.084 21.261 L 17.055 23 L 15.291 23 L 19.084 19.385" transform="matrix(1 0 0 1 0 0)" fill="#FFFFFF" stroke="none" />
  <path d="M 9.599 15.516 C 11.058 15.653 12.651 16.126 13.354 16.382 C 16.242 15.118 18.016 16.908 18.543 17.961 C 18.648 18.051 18.757 18.133 18.867 18.21 L 16.069 20.876 C 13.933 19.458 9.789 20.276 7.52 21.031 C 7.366 21.082 7.197 21.029 7.095 20.903 C 5.613 19.087 3.004 18.484 1.846 18.412 C 2.748 16.607 4.929 17.509 5.907 18.186 C 6.99 19.45 8.164 19.465 8.615 19.314 C 10.961 17.69 12.451 18.337 12.902 18.863 C 13.116 18.738 13.132 18.435 12.93 18.292 C 10.589 16.643 8.93 16.369 8.031 16.524 C 7.954 16.537 7.891 16.428 7.946 16.373 L 8.304 16.015 C 8.647 15.672 9.115 15.471 9.599 15.516 M 3.426 14.576 C 5.231 14.215 6.134 16.532 6.359 17.735 C 5.998 17.374 5.155 17.134 4.779 17.058 C 4.779 16.336 3.877 15.102 3.426 14.576 M 11.253 7.248 C 12.159 6.457 13.404 6.401 14.033 7.122 C 14.663 7.843 14.439 9.069 13.533 9.86 C 12.627 10.651 11.383 10.707 10.753 9.986 C 10.123 9.265 10.347 8.039 11.253 7.248" transform="matrix(1 0 0 1 0 0)" fill="#FFFFFF" stroke="none" />
</svg>
