<?xml version="1.0" encoding="UTF-8"?>
<!-- Reconstructed from Amplitude.Graphics.Svg.SvgAsset and recolored from static UIMapper.Color metadata for EWShop; not original source SVG. Live UI state/material colors are not included. -->
<svg xmlns="http://www.w3.org/2000/svg" width="24" height="24" viewBox="0 0 24 24">
  <path d="M 6.763 7.349 C 7.126 6.86 7.307 6.252 7.262 5.632 L 7.107 3.505 C 7.091 3.289 6.938 3.106 6.727 3.054 L 6.537 3.007 C 5.814 2.828 5.136 2.5 4.547 2.046 L 4.581 2.514 C 5.148 2.903 5.781 3.189 6.451 3.355 L 6.641 3.402 C 6.701 3.417 6.745 3.469 6.75 3.531 L 6.905 5.658 C 6.943 6.182 6.793 6.697 6.491 7.114 L 6.763 7.349" transform="matrix(1 0 0 1 0 0)" fill="#FFFFFF" stroke="none" />
  <path d="M 3.817 2.111 C 3.302 2.64 2.684 3.057 2 3.337 L 1.819 3.412 C 1.618 3.494 1.493 3.696 1.508 3.913 L 1.663 6.04 C 1.703 6.586 1.916 7.098 2.26 7.507 L 2.498 7.232 C 2.223 6.888 2.053 6.465 2.021 6.014 L 1.866 3.887 C 1.861 3.825 1.897 3.767 1.955 3.743 L 2.136 3.669 C 2.769 3.41 3.35 3.04 3.851 2.578 L 3.817 2.111" transform="matrix(1 0 0 1 0 0)" fill="#FFFFFF" stroke="none" />
  <path d="M 3.043 7.721 L 2.806 7.994 C 2.827 8.008 2.848 8.021 2.869 8.034 L 4.522 9.061 C 4.632 9.13 4.773 9.12 4.872 9.036 L 6.249 7.872 L 5.975 7.635 L 4.674 8.734 L 3.058 7.73 L 3.043 7.721" transform="matrix(1 0 0 1 0 0)" fill="#FFFFFF" stroke="none" />
  <path d="M 0.218 3.173 L 0.532 6.348 C 0.645 7.486 1.303 8.501 2.304 9.078 L 4.851 10.546 C 4.919 10.585 5.005 10.577 5.064 10.525 L 7.274 8.586 C 8.142 7.824 8.589 6.7 8.476 5.562 L 8.162 2.387 C 8.141 2.179 7.987 2.007 7.78 1.963 L 7.489 1.9 C 6.314 1.646 5.207 1.147 4.245 0.436 C 4.07 0.307 3.823 0.332 3.676 0.493 C 2.872 1.378 1.885 2.084 0.782 2.564 L 0.509 2.682 C 0.315 2.767 0.197 2.965 0.218 3.173 M 1.325 6.186 L 1.135 3.579 C 1.123 3.408 1.221 3.248 1.38 3.183 L 1.602 3.092 C 2.502 2.724 3.312 2.167 3.979 1.46 C 4.101 1.331 4.3 1.317 4.439 1.427 C 5.201 2.03 6.084 2.463 7.027 2.697 L 7.26 2.755 C 7.427 2.796 7.548 2.94 7.56 3.111 L 7.75 5.718 C 7.818 6.652 7.435 7.563 6.72 8.167 L 4.898 9.707 C 4.849 9.748 4.78 9.753 4.726 9.719 L 2.7 8.46 C 1.904 7.966 1.393 7.12 1.325 6.186" transform="matrix(1 0 0 1 0 0)" fill="#FFFFFF" stroke="none" />
  <path d="M 11.454 1.412 L 9.968 5.027 C 9.745 5.57 9.638 6.145 9.645 6.719 C 9.982 6.63 10.348 6.648 10.687 6.791 C 10.675 6.349 10.745 5.903 10.9 5.477 L 11.991 2.459 C 12.062 2.261 12.253 2.132 12.463 2.138 L 12.758 2.147 C 13.951 2.184 15.137 1.966 16.239 1.507 C 16.439 1.423 16.67 1.507 16.771 1.699 C 17.324 2.756 18.096 3.683 19.037 4.418 L 19.269 4.599 C 19.435 4.729 19.499 4.95 19.427 5.148 L 18.337 8.165 C 18.146 8.692 17.838 9.159 17.445 9.537 L 17.703 10.487 C 18.275 10.032 18.73 9.436 19.015 8.744 L 20.5 5.128 C 20.597 4.891 20.529 4.617 20.33 4.45 L 20.052 4.215 C 18.927 3.264 18.017 2.088 17.384 0.766 C 17.269 0.526 16.988 0.41 16.737 0.5 C 15.357 0.995 13.884 1.192 12.415 1.076 L 12.052 1.048 C 11.793 1.028 11.551 1.174 11.454 1.412" transform="matrix(1 0 0 1 0 0)" fill="#FFFFFF" stroke="none" />
  <path d="M 11.202 7.037 C 11.359 7.109 11.517 7.177 11.677 7.242 L 11.691 7.235 C 11.555 6.712 11.577 6.153 11.766 5.631 L 12.656 3.17 C 12.682 3.098 12.751 3.051 12.828 3.053 L 13.068 3.06 C 13.907 3.086 14.743 2.962 15.537 2.695 L 15.732 2.155 C 14.89 2.49 13.988 2.649 13.081 2.621 L 12.841 2.613 C 12.574 2.605 12.333 2.769 12.242 3.02 L 11.352 5.482 C 11.17 5.986 11.121 6.521 11.202 7.037" transform="matrix(1 0 0 1 0 0)" fill="#FFFFFF" stroke="none" />
  <path d="M 17.195 8.88 C 17.116 8.752 17.021 8.636 16.913 8.535 C 17.13 8.285 17.303 7.995 17.419 7.675 L 18.309 5.214 C 18.335 5.142 18.311 5.061 18.251 5.014 L 18.062 4.866 C 17.394 4.345 16.827 3.708 16.386 2.988 L 16.582 2.446 C 17.016 3.251 17.612 3.957 18.332 4.519 L 18.522 4.667 C 18.732 4.831 18.813 5.112 18.722 5.363 L 17.832 7.825 C 17.689 8.22 17.471 8.577 17.195 8.88" transform="matrix(1 0 0 1 0 0)" fill="#FFFFFF" stroke="none" />
  <path d="M 15.567 14.409 C 15.87 15.342 15.82 16.342 15.447 17.227 L 14.941 16.969 C 15.248 16.217 15.284 15.372 15.029 14.583 L 13.991 11.382 C 13.961 11.288 13.874 11.225 13.775 11.224 L 13.466 11.223 C 12.376 11.22 11.297 11.021 10.281 10.637 L 10.053 9.932 C 11.128 10.407 12.291 10.654 13.468 10.658 L 13.777 10.659 C 14.12 10.66 14.424 10.881 14.53 11.208 L 15.567 14.409" transform="matrix(1 0 0 1 0 0)" fill="#FFFFFF" stroke="none" />
  <path d="M 6.632 12.868 C 7.576 12.182 8.367 11.31 8.959 10.306 L 9.186 11.009 C 8.591 11.905 7.839 12.69 6.965 13.325 L 6.715 13.507 C 6.635 13.565 6.602 13.668 6.632 13.761 L 7.669 16.963 C 7.889 17.641 8.308 18.226 8.859 18.65 L 8.598 19.161 C 7.916 18.664 7.397 17.959 7.131 17.137 L 6.094 13.936 C 5.988 13.609 6.104 13.252 6.382 13.05 L 6.632 12.868" transform="matrix(1 0 0 1 0 0)" fill="#FFFFFF" stroke="none" />
  <path d="M 9.619 19.703 L 9.879 19.194 L 9.906 19.203 L 12.763 20.135 L 14.345 17.962 L 14.855 18.223 L 13.18 20.523 C 13.06 20.689 12.846 20.757 12.652 20.694 L 9.73 19.741 C 9.693 19.728 9.656 19.716 9.619 19.703" transform="matrix(1 0 0 1 0 0)" fill="#FFFFFF" stroke="none" />
  <path d="M 5.325 17.884 L 3.98 12.921 C 3.891 12.596 4.026 12.249 4.313 12.063 L 4.715 11.802 C 6.342 10.747 7.724 9.362 8.769 7.74 C 8.959 7.446 9.345 7.341 9.658 7.5 C 11.379 8.373 13.272 8.872 15.21 8.963 L 15.689 8.986 C 16.031 9.002 16.322 9.233 16.41 9.559 L 17.755 14.521 C 18.237 16.3 17.826 18.205 16.647 19.647 L 13.647 23.318 C 13.567 23.415 13.433 23.452 13.315 23.407 L 8.871 21.751 C 7.125 21.1 5.807 19.663 5.325 17.884 M 5.396 13.565 L 6.667 17.489 C 7.123 18.895 8.225 19.999 9.632 20.458 L 13.213 21.627 C 13.309 21.658 13.413 21.624 13.472 21.543 L 15.689 18.5 C 16.559 17.304 16.805 15.765 16.349 14.358 L 15.077 10.434 C 14.994 10.177 14.754 10.002 14.483 10.001 L 14.104 10 C 12.569 9.996 11.052 9.663 9.656 9.025 C 9.402 8.909 9.101 9.007 8.963 9.249 C 8.206 10.584 7.171 11.741 5.93 12.643 L 5.623 12.866 C 5.404 13.026 5.312 13.307 5.396 13.565" transform="matrix(1 0 0 1 0 0)" fill="#FFFFFF" stroke="none" />
  <path d="M 23.087 10 L 23.583 11.37 L 19.5 11.084 L 23.087 10" transform="matrix(1 0 0 1 0 0)" fill="#FFFFFF" stroke="none" />
  <path d="M 20.708 18.627 L 22.031 16.749 L 18.502 10.874 L 20.708 18.627" transform="matrix(1 0 0 1 0 0)" fill="#FFFFFF" stroke="none" />
  <path d="M 22.884 15.138 L 23.552 13.524 L 19.5 11.584 L 22.884 15.138" transform="matrix(1 0 0 1 0 0)" fill="#FFFFFF" stroke="none" />
  <path d="M 2.584 16.579 L 1.903 18.773 L 6.734 22.365 L 2.584 16.579" transform="matrix(1 0 0 1 0 0)" fill="#FFFFFF" stroke="none" />
  <path d="M 0.95 22.251 L 1.09 20.51 L 5.403 22.851 L 0.95 22.251" transform="matrix(1 0 0 1 0 0)" fill="#FFFFFF" stroke="none" />
</svg>
