<?xml version="1.0" encoding="UTF-8"?>
<!-- Reconstructed from Amplitude.Graphics.Svg.SvgAsset and recolored from static UIMapper.Color metadata for EWShop; not original source SVG. Live UI state/material colors are not included. -->
<svg xmlns="http://www.w3.org/2000/svg" width="24" height="24" viewBox="0 0 24 24">
  <path d="M 12.27 12.43 C 12.12 12.45 12.01 12.56 12.01 12.71 L 12.01 16.63 C 12.01 16.86 12.25 17.03 12.47 16.97 C 12.5 16.97 12.52 16.97 12.53 16.96 L 12.99 16.79 L 12.99 12.22 C 12.79 12.36 12.55 12.43 12.3 12.43 L 12.26 12.43 L 12.27 12.43" transform="matrix(1 0 0 1 0 0)" fill="#FFFFFF" stroke="none" />
  <path d="M 4.72 7.45 L 4.68 7.45 C 4.43 7.45 4.18 7.36 3.98 7.23 L 2.92 6.48 L 3.91 5.78 C 4.17 5.6 4.47 5.5 4.79 5.5 L 7.23 5.5 C 7.47 5.5 7.69 5.56 7.9 5.66 L 10.48 4.47 C 9.95 2.24 7.17 1.36 6.13 1.04 L 6.02 1 L 5.99 1 L 5.88 1.04 C 4.73 1.39 1.44 2.44 1.45 5.25 L 1.45 7.38 C 1.45 7.38 1.45 8.66 1.31 9.52 C 1.22 9.8 1.13 10.06 1.06 10.25 C 1.06 10.26 1.05 10.27 1.04 10.28 C 1.04 10.28 1.03 10.3 1.02 10.31 C 0.99 10.36 0.99 10.42 0.99 10.47 C 0.99 10.54 1.02 10.62 1.05 10.67 C 1.16 10.88 1.45 11.05 1.7 11.12 L 3.34 11.58 L 4.44 11.97 C 4.44 11.97 4.49 11.98 4.5 11.98 C 4.58 12 4.65 12 4.72 11.98 L 4.95 7.64 C 4.92 7.54 4.82 7.46 4.7 7.44 L 4.72 7.45" transform="matrix(1 0 0 1 0 0)" fill="#FFFFFF" stroke="none" />
  <path d="M 15.63 21.05 C 17.77 21 19.04 20.65 19.87 20.19 C 20.71 19.73 21.15 19.12 21.62 18.43 L 21.62 6.32 C 19.86 7.61 18.05 7.67 16.02 7.7 L 15.64 21.04 L 15.63 21.05" transform="matrix(1 0 0 1 0 0)" fill="#FFFFFF" stroke="none" />
  <path d="M 11.011 5.98 L 10.981 5.98 L 10.871 6.02 C 9.72 6.37 6.43 7.43 6.44 10.23 L 6.44 12.36 C 6.44 12.36 6.44 13.64 6.3 14.5 C 6.21 14.78 6.12 15.04 6.05 15.23 C 6.05 15.24 6.04 15.25 6.03 15.26 C 6.03 15.26 6.02 15.28 6.01 15.29 C 5.98 15.34 5.98 15.4 5.98 15.45 C 5.98 15.52 6.01 15.6 6.04 15.65 C 6.15 15.86 6.44 16.03 6.69 16.1 L 8.33 16.57 L 9.43 16.96 C 9.43 16.96 9.48 16.97 9.49 16.97 C 9.73 17.03 9.95 16.86 9.95 16.63 L 9.95 12.71 C 9.95 12.56 9.84 12.45 9.69 12.43 L 9.65 12.43 C 9.4 12.43 9.15 12.34 8.95 12.21 L 7.89 11.46 L 8.88 10.76 C 9.14 10.58 9.44 10.48 9.76 10.48 L 12.201 10.48 C 12.481 10.48 12.751 10.56 12.991 10.7 L 12.991 6.74 C 12.251 6.37 11.541 6.14 11.111 6.01 L 11.001 5.97 L 11.011 5.98" transform="matrix(1 0 0 1 0 0)" fill="#FFFFFF" stroke="none" />
  <path d="M 22.68 3.08 C 21.01 4.93 16.9 5.56 14.49 5.67 C 14.22 5.68 14 5.9 14 6.18 L 14 22.57 C 14 22.66 14.06 22.74 14.15 22.76 C 18.82 23.82 21.88 21.2 22.97 19.54 C 23.07 19.39 23.11 19.22 23.11 19.04 L 23.19 3.24 C 23.19 3.02 22.81 2.92 22.67 3.08 L 22.68 3.08 M 22.62 18.58 C 22.62 18.68 22.59 18.77 22.54 18.85 L 22.54 18.87 C 22.03 19.61 21.47 20.43 20.37 21.04 C 19.26 21.65 17.67 22.03 15.12 22.03 C 14.98 22.03 14.86 21.98 14.76 21.88 C 14.67 21.78 14.61 21.65 14.62 21.52 L 15.03 7.19 C 15.03 6.93 15.25 6.71 15.52 6.71 L 15.75 6.71 C 18.24 6.67 19.98 6.64 21.76 4.88 C 21.9 4.74 22.12 4.7 22.3 4.77 C 22.49 4.85 22.61 5.03 22.61 5.23 L 22.61 18.57 L 22.62 18.58" transform="matrix(1 0 0 1 0 0)" fill="#FFFFFF" stroke="none" />
</svg>
