<?xml version="1.0" encoding="UTF-8"?>
<!-- Reconstructed from Amplitude.Graphics.Svg.SvgAsset and recolored from static UIMapper.Color metadata for EWShop; not original source SVG. Live UI state/material colors are not included. -->
<svg xmlns="http://www.w3.org/2000/svg" width="24" height="24" viewBox="0 0 24 24">
  <path d="M 20.701 18.665 L 20.769 18.706 L 22.854 22.113 L 22.187 22.778 L 18.767 20.7 L 17.246 18.216 C 17.301 18.23 17.357 18.242 17.412 18.253 C 18.164 18.396 18.775 18.206 19.296 17.873 C 20.503 16.376 21.32 14.619 21.483 12.805 L 22.136 12.768 L 22.996 12.25 C 22.936 14.521 22.171 16.777 20.701 18.665" transform="matrix(1 0 0 1 0 0)" fill="#FFFFFF" stroke="none" />
  <path d="M 22.594 9 C 22.206 7.618 21.541 6.296 20.599 5.123 L 22.281 2.376 L 21.613 1.711 L 18.855 3.387 C 14.875 0.22 9.199 0.205 5.203 3.341 L 2.15 1.487 L 1.483 2.152 L 3.345 5.193 C 0.153 9.235 0.22 14.997 3.544 18.968 L 3.527 18.995 C 3.653 18.973 3.782 18.963 3.913 18.968 L 4.577 18.991 C 4.133 18.439 3.916 17.738 3.958 17.038 C 1.822 13.688 2.001 9.296 4.495 6.122 L 6.679 7.448 C 5.555 8.782 5.041 10.569 5.081 12.338 C 5.097 13.011 5.192 13.686 5.367 14.336 C 5.522 14.154 5.682 13.976 5.847 13.804 C 5.743 13.319 5.684 12.823 5.673 12.325 C 5.631 10.506 6.219 8.708 7.448 7.483 C 9.826 5.115 13.618 5.015 16.115 7.184 L 16.108 7.196 L 16.775 7.861 L 16.782 7.856 C 17.547 8.744 18.1 9.848 18.396 11.012 L 18.963 10.842 C 18.653 9.636 18.084 8.487 17.294 7.546 L 19.548 6.176 C 20.219 7.044 20.719 8 21.048 9 L 22.594 9 M 17.798 4.434 L 16.427 6.674 C 13.848 4.497 10.051 4.494 7.468 6.665 L 6.135 4.486 C 9.548 1.821 14.367 1.803 17.798 4.434" transform="matrix(1 0 0 1 0 0)" fill="#FFFFFF" stroke="none" />
  <path d="M 14.526 11.697 C 14.518 11.691 14.51 11.686 14.502 11.681 L 18.173 12.122 L 20.702 11.367 L 21.158 10.911 L 21.613 10 L 22.524 10 L 22.021 11.186 L 22.524 11.089 L 22.524 11.367 L 21.832 11.784 L 21.158 11.822 L 18.674 13.192 L 16.287 13.347 L 16.504 13.86 C 17.756 13.999 20.092 14.494 18.757 17.03 C 18.062 17.475 17.339 17.448 15.837 16.363 L 16.004 15.278 L 15.169 15.028 L 14.669 18.616 L 15.616 21.187 C 15.749 21.547 16.092 21.786 16.475 21.786 L 17.172 21.786 L 17.381 21.995 C 17.612 22.226 17.448 22.621 17.122 22.621 L 16.504 22.621 L 15.456 22.504 C 15.17 22.472 14.916 22.309 14.77 22.062 C 14.126 20.97 13.167 19.318 13.167 19.2 C 13.167 19.066 12.722 16.808 12.499 15.695 L 10.664 15.946 L 9.329 17.03 L 11.227 21.191 C 11.39 21.549 11.314 21.971 11.036 22.249 C 10.805 22.48 10.47 22.575 10.152 22.5 L 4.657 21.202 L 2.888 22.74 C 2.791 22.824 2.666 22.871 2.537 22.871 C 2.117 22.871 1.861 22.407 2.085 22.051 L 3.153 20.351 C 3.309 20.103 3.585 19.957 3.878 19.967 L 8.161 20.117 L 5.866 18.799 C 4.974 18.287 4.687 17.128 5.221 16.248 C 6.393 14.318 8.198 12.818 10.316 12.035 L 10.941 11.804 C 11.144 11.729 11.359 11.691 11.576 11.691 L 14.373 11.691 C 14.424 11.691 14.475 11.693 14.526 11.697" transform="matrix(1 0 0 1 0 0)" fill="#FFFFFF" stroke="none" />
</svg>
