<?xml version="1.0" encoding="UTF-8"?>
<!-- Reconstructed from Amplitude.Graphics.Svg.SvgAsset and recolored from static UIMapper.Color metadata for EWShop; not original source SVG. Live UI state/material colors are not included. -->
<svg xmlns="http://www.w3.org/2000/svg" width="24" height="24" viewBox="0 0 24 24">
  <path d="M 13.366 9.458 L 13.531 9.516 L 13.694 9.457 L 19.638 7.333 C 19.468 7.648 19.255 7.965 19.039 8.286 C 18.544 9.024 18.031 10.903 17.968 11.741 C 17.957 11.892 17.983 12.166 18.006 12.417 C 18.03 12.672 18.052 12.904 18.031 12.961 C 18.002 13.034 17.154 13.981 17.023 14.101 C 16.531 14.55 14.946 15.229 13.996 15.471 C 13.998 15.414 14 15.357 14 15.3 C 14 12.979 12.142 11.12 9.849 11.006 L 9.625 11 C 9.356 11 9.092 11.025 8.836 11.071 C 8.616 10.087 8.141 8.739 7.716 8.106 C 7.528 7.827 7.35 7.562 7.208 7.321 L 13.366 9.458" transform="matrix(1 0 0 1 0 0)" fill="#FFFFFF" stroke="none" />
  <path d="M 11.149 2.57 C 11.19 2.663 11.478 2.741 11.509 2.797 L 13.035 3.253 L 13.035 8.301 L 7.529 6.389 C 7.674 6.068 7.818 5.745 7.878 5.366 C 8.077 4.122 7.724 3.023 7.359 1.885 C 7.296 1.69 7.234 1.493 7.173 1.295 L 8.714 1.039 L 11.149 2.57" transform="matrix(1 0 0 1 0 0)" fill="#FFFFFF" stroke="none" />
  <path d="M 18.243 1 C 18.939 1.137 19.618 1.299 19.634 1.372 C 19.103 3.087 18.646 4.76 19.3 6.407 L 14.021 8.294 L 14.021 3.151 L 15.385 2.797 L 15.662 2.622 L 18.243 1" transform="matrix(1 0 0 1 0 0)" fill="#FFFFFF" stroke="none" />
  <path d="M 6.28 1.928 C 6.836 3.64 7.418 5.41 5.966 6.872 C 5.64 6.453 4.024 5.889 4.001 5.429 C 3.963 4.613 5.378 2.244 6.28 1.928" transform="matrix(1 0 0 1 0 0)" fill="#FFFFFF" stroke="none" />
  <path d="M 20.643 1.928 C 21.849 2.769 22.51 4.065 22.91 5.448 C 22.927 5.751 21.168 6.624 20.83 6.869 C 19.576 5.353 19.964 3.599 20.643 1.928" transform="matrix(1 0 0 1 0 0)" fill="#FFFFFF" stroke="none" />
  <path d="M 9.625 12 C 11.489 12 13 13.477 13 15.3 C 13 20.066 7 23 7 23 C 7 23 1 20.066 1 15.3 C 1 13.477 2.511 12 4.375 12 L 4.572 12.006 C 5.552 12.061 6.42 12.525 7 13.226 C 7.619 12.478 8.565 12 9.625 12" transform="matrix(1 0 0 1 0 0)" fill="#FFFFFF" stroke="none" />
  <path d="M 19.198 15.26 C 19.196 15.597 17.121 17.671 16.694 17.919 C 16.13 18.248 13.952 19.029 13.352 18.999 C 13.255 18.994 13.125 18.969 12.972 18.935 C 13.403 18.191 13.739 17.364 13.898 16.458 C 14.173 16.422 14.469 16.363 14.796 16.274 C 16.304 15.864 17.557 15.297 18.544 14.054 L 19.198 15.26" transform="matrix(1 0 0 1 0 0)" fill="#FFFFFF" stroke="none" />
</svg>
