<?xml version="1.0" encoding="UTF-8"?>
<!-- Reconstructed from Amplitude.Graphics.Svg.SvgAsset and recolored from static UIMapper.Color metadata for EWShop; not original source SVG. Live UI state/material colors are not included. -->
<svg xmlns="http://www.w3.org/2000/svg" width="24" height="24" viewBox="0 0 24 24">
  <path d="M 1.74 4.148 C 2.133 4.299 2.697 3.785 3 3 C 3.303 2.215 3.231 1.455 2.838 1.304 C 2.445 1.152 1.881 1.666 1.578 2.451 C 1.275 3.237 1.348 3.996 1.74 4.148" transform="matrix(1 0 0 1 0 0)" fill="#FFFFFF" stroke="none" />
  <path d="M 10.182 7 L 13.818 7 L 13.818 10.182 L 17 10.182 L 17 13.818 L 13.818 13.818 L 13.818 17 L 10.182 17 L 10.182 13.818 L 7 13.818 L 7 10.182 L 10.182 10.182 L 10.182 7" transform="matrix(1 0 0 1 0 0)" fill="#FFFFFF" stroke="none" />
  <path d="M 2.885 21.88 C 2.611 22.589 1.863 22.705 1.509 22.568 C 1.154 22.431 1.089 21.746 1.362 21.036 C 1.636 20.327 2.146 19.863 2.5 20 C 2.855 20.137 2.885 21.036 2.885 21.88" transform="matrix(1 0 0 1 0 0)" fill="#FFFFFF" stroke="none" />
  <path d="M 21.78 7.902 C 21.769 7.738 21.754 7.502 21.851 7.25 C 22.05 6.734 22.109 6.393 21.851 6.293 C 21.594 6.194 21.224 6.531 21.025 7.046 C 20.826 7.562 21.407 8.014 21.665 8.113 C 21.796 8.164 21.79 8.072 21.78 7.902" transform="matrix(1 0 0 1 0 0)" fill="#FFFFFF" stroke="none" />
  <path d="M 2.539 16.717 C 2.766 17.02 2.644 17.323 2.517 17.639 C 2.478 17.735 2.439 17.831 2.409 17.929 C 2.068 18.184 2.021 18.12 1.78 17.793 C 1.761 17.768 1.741 17.741 1.72 17.712 C 1.7 17.686 1.68 17.659 1.659 17.631 C 1.368 17.245 0.996 16.753 1.339 16.497 C 1.706 16.223 2.243 16.321 2.539 16.717" transform="matrix(1 0 0 1 0 0)" fill="#FFFFFF" stroke="none" />
  <path d="M 21.638 3.714 C 21.72 3.571 21.808 3.419 21.905 3.267 C 22.003 3.112 22.104 2.969 22.196 2.838 C 22.536 2.355 22.769 2.025 22.408 1.795 C 22.383 1.78 22.358 1.764 22.333 1.747 C 21.887 1.46 21.342 1.109 20.904 1.795 C 20.442 2.521 20.276 4.131 20.735 4.423 C 21.097 4.653 21.329 4.251 21.638 3.714" transform="matrix(1 0 0 1 0 0)" fill="#FFFFFF" stroke="none" />
  <path d="M 9.538 3.02 C 9.158 3.575 9.227 4.436 9.68 3.917 C 11.385 1.965 14.965 2.615 15.928 5.971 C 16.15 6.745 16.718 7.219 17.498 7.426 C 18.276 7.622 19.737 6.858 19.651 5.473 C 19.483 1.379 12.03 -0.625 9.538 3.02 M 17.868 4.997 C 18.135 4.949 18.315 4.74 18.44 4.596 C 18.571 4.446 18.641 4.365 18.685 4.606 C 18.771 5.08 18.781 6.328 18.238 6.427 C 17.694 6.525 17.184 6.221 17.098 5.748 C 17.012 5.274 17.325 5.096 17.868 4.997" transform="matrix(1 0 0 1 0 0)" fill="#FFFFFF" stroke="none" />
  <path d="M 13.5 21.5 C 13.946 20.995 13.984 20.133 13.47 20.592 C 11.537 22.319 8.064 21.233 7.523 17.784 C 7.398 16.988 6.893 16.448 6.144 16.146 C 5.396 15.856 3.852 16.434 3.766 17.819 C 3.429 21.902 10.577 24.81 13.5 21.5 M 6.02 18.59 C 5.799 19.162 5.306 19.504 4.917 19.354 C 4.529 19.204 4.393 18.619 4.614 18.047 C 4.835 17.475 5.329 17.133 5.717 17.282 C 6.105 17.432 6.241 18.018 6.02 18.59" transform="matrix(1 0 0 1 0 0)" fill="#FFFFFF" stroke="none" />
  <path d="M 3.2 13.701 C 3.633 14.236 2.774 14.155 2.292 13.686 C -0.871 10.604 2.384 3.607 6.446 4.145 C 7.825 4.298 8.327 5.868 8 6.602 C 7.662 7.334 7.097 7.813 6.296 7.898 C 2.826 8.27 1.571 11.685 3.2 13.701 M 4.357 6.552 C 4.271 6.18 4.189 5.824 4.506 5.4 C 4.918 4.849 5.55 4.624 5.917 4.899 C 6.259 5.155 5.743 5.841 5.337 6.38 C 5.308 6.419 5.28 6.456 5.252 6.493 C 5.223 6.533 5.195 6.57 5.169 6.605 C 4.832 7.06 4.765 7.15 4.425 6.896 C 4.409 6.778 4.383 6.664 4.357 6.552" transform="matrix(1 0 0 1 0 0)" fill="#FFFFFF" stroke="none" />
  <path d="M 21.406 9.712 C 20.882 9.29 20.019 9.289 20.5 9.782 C 21.949 11.268 21.64 13.819 19.702 15.132 L 21.956 17.161 C 23.351 14.827 23.519 11.42 21.406 9.712" transform="matrix(1 0 0 1 0 0)" fill="#FFFFFF" stroke="none" />
  <path d="M 23.001 19.385 L 19.084 15.771 L 15.291 19.385 L 17.055 19.385 L 19.084 17.646 L 21.113 19.385 L 23.001 19.385" transform="matrix(1 0 0 1 0 0)" fill="#FFFFFF" stroke="none" />
  <path d="M 23.001 23 L 19.084 19.385 L 15.291 23 L 17.055 23 L 19.084 21.261 L 21.113 23 L 23.001 23" transform="matrix(1 0 0 1 0 0)" fill="#FFFFFF" stroke="none" />
</svg>
