<?xml version="1.0" encoding="UTF-8"?>
<!-- Reconstructed from Amplitude.Graphics.Svg.SvgAsset and recolored from static UIMapper.Color metadata for EWShop; not original source SVG. Live UI state/material colors are not included. -->
<svg xmlns="http://www.w3.org/2000/svg" width="24" height="24" viewBox="0 0 24 24">
  <path d="M 3.82 9.982 C 4.01 10.032 4.19 9.892 4.19 9.702 L 4.19 6.505 C 4.19 6.385 4.1 6.295 3.98 6.275 C 3.97 6.275 3.96 6.275 3.95 6.275 C 3.75 6.275 3.55 6.205 3.39 6.095 L 2.54 5.486 L 3.33 4.916 C 3.54 4.767 3.78 4.687 4.03 4.687 L 5.98 4.687 C 6.23 4.687 6.47 4.767 6.68 4.916 L 7.47 5.486 L 6.62 6.095 C 6.46 6.215 6.26 6.275 6.06 6.275 C 6.06 6.275 6.04 6.275 6.03 6.275 C 5.91 6.295 5.82 6.385 5.82 6.505 L 5.82 9.043 C 6.64 8.193 7.6 7.494 8.67 6.985 C 8.65 6.555 8.65 6.205 8.65 6.205 L 8.65 4.467 C 8.66 2.179 6.03 1.32 5.11 1.03 L 5.02 1 L 5.01 1 L 5 1 L 4.91 1.03 C 3.98 1.32 1.35 2.179 1.36 4.467 L 1.36 6.205 C 1.36 6.205 1.36 7.254 1.25 7.954 C 1.18 8.183 1.11 8.393 1.05 8.553 C 1.04 8.573 1.03 8.583 1.02 8.603 C 1 8.643 1 8.693 1 8.733 C 1 8.793 1.02 8.853 1.05 8.893 C 1.14 9.063 1.37 9.203 1.57 9.262 L 2.88 9.642 L 3.76 9.962 C 3.76 9.962 3.8 9.972 3.81 9.972 L 3.82 9.982" transform="matrix(1 0 0 1 0 0)" fill="#FFFFFF" stroke="none" />
  <path d="M 21.3 15.627 C 20.95 11.59 17.77 8.373 13.78 7.994 L 13.31 5.855 L 12.74 5.855 L 12.27 7.994 C 8.24 8.343 5.04 11.59 4.7 15.657 L 3 16.106 L 3 16.686 L 4.7 17.145 C 4.91 19.533 6.11 21.621 7.88 23.02 L 8.26 21.871 C 6.91 20.682 6 19.004 5.82 17.105 L 7.46 16.696 L 7.46 16.116 L 5.82 15.707 C 6.14 12.23 8.87 9.462 12.31 9.142 L 12.73 11.061 L 13.3 11.061 L 13.72 9.142 C 17.13 9.492 19.84 12.23 20.16 15.677 L 18.52 16.086 L 18.52 16.666 L 20.16 17.075 C 19.99 18.904 19.14 20.542 17.87 21.721 L 18.34 22.82 C 19.98 21.431 21.09 19.403 21.29 17.115 L 22.99 16.656 L 22.99 16.076 L 21.29 15.627 L 21.3 15.627" transform="matrix(1 0 0 1 0 0)" fill="#FFFFFF" stroke="none" />
  <path d="M 16.95 19.533 C 16.89 19.373 16.81 19.173 16.75 18.934 C 16.64 18.234 16.64 17.185 16.64 17.185 L 16.64 15.447 C 16.65 13.159 14.02 12.3 13.1 12.01 L 13.01 11.98 L 13 11.98 L 12.99 11.98 L 12.9 12.01 C 11.98 12.3 9.35 13.159 9.36 15.447 L 9.36 17.185 C 9.36 17.185 9.36 18.234 9.25 18.934 C 9.18 19.164 9.11 19.373 9.05 19.533 C 9.04 19.553 9.03 19.563 9.02 19.583 C 9 19.623 9 19.673 9 19.713 C 9 19.773 9.02 19.833 9.05 19.873 C 9.14 20.043 9.37 20.183 9.57 20.243 L 10.88 20.622 L 11.76 20.942 C 11.76 20.942 11.8 20.952 11.81 20.952 C 12 21.002 12.18 20.862 12.18 20.672 L 12.18 17.475 C 12.18 17.355 12.09 17.265 11.97 17.245 C 11.96 17.245 11.95 17.245 11.94 17.245 C 11.74 17.245 11.54 17.175 11.38 17.065 L 10.53 16.456 L 11.32 15.886 C 11.53 15.737 11.77 15.657 12.02 15.657 L 13.97 15.657 C 14.22 15.657 14.46 15.737 14.67 15.886 L 15.46 16.456 L 14.61 17.065 C 14.45 17.185 14.25 17.245 14.05 17.245 C 14.05 17.245 14.03 17.245 14.02 17.245 C 13.9 17.265 13.81 17.355 13.81 17.475 L 13.81 20.672 C 13.81 20.862 14 21.002 14.18 20.952 C 14.2 20.952 14.22 20.952 14.23 20.942 L 15.11 20.622 L 16.42 20.243 C 16.63 20.183 16.85 20.043 16.94 19.873 C 16.97 19.823 16.99 19.763 16.99 19.713 C 16.99 19.673 16.99 19.623 16.97 19.583 C 16.97 19.563 16.95 19.543 16.94 19.533 L 16.95 19.533" transform="matrix(1 0 0 1 0 0)" fill="#FFFFFF" stroke="none" />
</svg>
