<?xml version="1.0" encoding="UTF-8"?>
<!-- Reconstructed from Amplitude.Graphics.Svg.SvgAsset and recolored from static UIMapper.Color metadata for EWShop; not original source SVG. Live UI state/material colors are not included. -->
<svg xmlns="http://www.w3.org/2000/svg" width="24" height="24" viewBox="0 0 24 24">
  <path d="M 8.388 10.916 L 6.309 9.71 L 5.487 9.768 L 4.448 10.532 L 4.058 11.268 L 6.416 12.518 L 3.819 12.413 L 3.74 13.747 L 3.811 14.751 L 3.943 15.182 L 6.578 14.769 L 4.344 16.305 L 4.575 16.819 L 5.226 17.351 L 6.047 17.872 L 6.48 18.207 L 7.858 16.927 L 7.546 18.76 L 7.565 18.769 L 8.606 19.004 L 9.642 19.16 L 11.844 18.949 L 13.974 18.01 L 14.888 17.171 L 13.146 17.563 L 11.302 17.302 L 9.794 16.448 L 9.204 15.143 L 8.96 13.576 L 9.222 11.732 L 10.476 11.638 L 11.072 11.188 L 11.092 10.388 L 10.824 9.188 L 11.008 8.772 L 12.857 9.933 L 13.175 6.932 L 12.574 5.963 L 11.588 5.242 L 10.932 5.088 L 12.238 3.661 L 14.306 5.84 L 12.343 2.705 L 9.314 6.166 L 9.23 6.759 L 9.261 7.393 L 8.726 7.499 L 7.345 4.138 L 6.267 2.215 L 5.8 1.964 L 5.439 2.367 L 5.058 3.223 L 4.832 5.178 L 2.856 1.581 L 2.033 0.67 L 1.034 0.232 L 0.789 2.247 L 0.897 4.099 L 1.502 5.415 L 3.011 7.011 L 5.042 8.135 L 6.807 8.885 L 7.419 9.203 L 7.676 9.762 L 8.311 10.425 L 8.388 10.916" transform="matrix(1 0 0 1 0 0)" fill="#FFFFFF" stroke="none" />
  <path d="M 23.211 22.255 L 18.61 18.832 L 21.363 17.369 L 18.627 16.261 L 22.303 13.175 L 17.044 14.325 L 17.404 12.346 L 15.949 14.158 L 14.713 10.16 L 12.741 14.763 L 12.133 14.494 L 11.888 15.142 L 13.115 16.811 L 12.845 15.866 L 13.938 16.356 L 14.24 14.1 L 15.275 16.114 L 15.876 15.361 L 15.732 16.187 L 17.922 15.722 L 16.398 17 L 17.543 17.471 L 16.399 18.074 L 18.328 19.517 L 16.05 19.116 L 16.442 20.206 L 16.748 20.005 C 17.288 19.652 18.017 19.888 18.247 20.491 L 18.624 21.48 L 23.211 22.255" transform="matrix(1 0 0 1 0 0)" fill="#FFFFFF" stroke="none" />
  <path d="M 16.087 22.577 L 15.674 21.82 C 15.421 21.358 15.567 20.779 16.008 20.49 L 16.299 20.299 L 15.239 19.595 L 15.266 21.407 L 14.398 19.923 L 14.141 21.315 L 15.246 23.769 L 15.683 22.295 L 16.087 22.577" transform="matrix(1 0 0 1 0 0)" fill="#FFFFFF" stroke="none" />
  <path d="M 16.398 11.515 L 19.626 7.648 L 17.922 6.58 L 16.398 11.515" transform="matrix(1 0 0 1 0 0)" fill="#FFFFFF" stroke="none" />
</svg>
