<?xml version="1.0" encoding="UTF-8"?>
<!-- Reconstructed from Amplitude.Graphics.Svg.SvgAsset and recolored from static UIMapper.Color metadata for EWShop; not original source SVG. Live UI state/material colors are not included. -->
<svg xmlns="http://www.w3.org/2000/svg" width="25" height="26" viewBox="0 0 25 26">
  <path d="M 5.488 13.775 C 5.696 13.259 5.627 12.704 5.452 12.216 C 5.169 11.427 5.087 10.51 5.049 9.672 C 4.956 7.615 2.705 5.399 1.35 4.395 L 7.139 2.844 C 7.383 3.443 8.838 3.271 10.151 2.955 C 11.035 2.742 12.135 2.931 13.012 3.177 C 13.673 3.363 14.468 3.521 15.173 3.638 C 15.848 3.75 16.436 4.179 16.868 4.709 C 17.705 5.735 19.036 6.885 19.748 7.443 C 19.131 8.672 15.917 6.746 14.386 5.629 C 9.85 4.095 7.84 6.806 7.087 8.871 C 6.927 9.312 6.998 9.792 7.145 10.238 C 7.919 12.585 6.3 13.603 5.488 13.775 M 14.062 9.807 C 13.436 9.808 12.167 9.463 12.097 8.08 C 12.075 7.376 11.693 6.01 10.335 6.174 C 10.401 6.126 10.484 6.077 10.58 6.034 C 12.398 5.236 13.548 7.889 14.062 9.807 M 16.982 9.025 C 16.598 9.461 15.535 9.887 14.356 8.1 C 14.065 7.636 14.393 6.839 12.414 5.992 C 13.263 5.89 15.365 6.353 16.982 9.025" transform="matrix(1 0 0 1 0 0)" fill="#FFFFFF" stroke="none" />
  <path d="M 11.796 11.133 C 13.411 10.298 15.292 11.375 15.733 13.039 C 16.067 14.292 15.385 15.241 14.754 16.118 C 14.202 16.885 13.69 17.597 13.932 18.41 C 14.13 19.082 15.036 19.583 15.868 20.043 C 16.058 20.148 16.242 20.253 16.414 20.356 L 23.247 20.844 L 17.747 22.844 L 21.247 24.844 L 15.733 23.844 L 16.247 21.344 L 14.247 23.844 L 12.247 24.844 L 10.19 23.844 L 3.247 24.844 L 6.747 22.844 L 1.247 20.844 L 8.247 20.344 L 8.258 20.376 C 8.276 20.367 8.294 20.359 8.312 20.351 L 12.747 20.844 L 10.431 19.299 C 10.498 19.235 10.551 19.172 10.582 19.104 C 11.13 17.88 10.68 17.564 10.19 17.222 C 9.952 17.055 9.705 16.881 9.559 16.593 C 8.925 15.343 10.58 11.762 11.796 11.133" transform="matrix(1 0 0 1 0 0)" fill="#FFFFFF" stroke="none" />
</svg>
