<?xml version="1.0" encoding="UTF-8"?>
<!-- Reconstructed from Amplitude.Graphics.Svg.SvgAsset and recolored from static UIMapper.Color metadata for EWShop; not original source SVG. Live UI state/material colors are not included. -->
<svg xmlns="http://www.w3.org/2000/svg" width="24" height="24" viewBox="0 0 24 24">
  <path d="M 19.623 1.931 L 22.29 1 L 22.984 3.767 L 15.807 16.198 L 17.409 17.127 L 16.555 18.605 L 13.968 17.112 L 12.261 20.068 L 10.783 19.215 L 12.49 16.258 L 9.903 14.765 L 10.756 13.286 L 12.491 14.284 L 19.623 1.931 M 13.563 14.856 L 20.444 2.936 L 21.358 2.745 L 21.648 3.632 L 14.767 15.551 L 13.563 14.856" transform="matrix(1 0 0 1 0 0)" fill="#FFFFFF" stroke="none" />
  <path d="M 5.632 17.777 C 6.423 18.684 7.066 19.195 8.183 19.656 C 9.207 20.079 9.937 20.338 10.763 20.357 L 12.627 21.435 L 13.603 19.742 C 14.156 19.531 14.669 19.275 15.143 18.944 L 16.575 19.772 C 15.9 20.554 14.74 21.678 14.426 21.859 C 13.829 22.207 11.527 23.031 10.892 22.999 C 10.318 22.971 8.596 22.363 8.027 22.091 C 6.676 21.444 5.856 20.265 4.91 19.156 L 5.632 17.777" transform="matrix(1 0 0 1 0 0)" fill="#FFFFFF" stroke="none" />
  <path d="M 9.991 12.611 L 8.537 15.131 L 11.124 16.624 L 9.704 19.083 C 8.611 18.687 7.352 17.961 6.841 17.425 C 6.156 16.708 6.17 16.587 6.217 16.167 C 6.235 16.002 6.259 15.79 6.247 15.478 C 6.214 14.584 5.525 12.384 4.931 11.501 C 4.732 11.206 4.544 10.926 4.394 10.672 L 9.991 12.611" transform="matrix(1 0 0 1 0 0)" fill="#FFFFFF" stroke="none" />
  <path d="M 12.124 12.918 L 11.799 12.731 L 12.343 12.537 L 12.124 12.918" transform="matrix(1 0 0 1 0 0)" fill="#FFFFFF" stroke="none" />
  <path d="M 8.562 5.657 C 8.606 5.755 8.91 5.837 8.943 5.896 L 10.557 6.379 L 10.557 11.706 L 4.732 9.688 C 4.885 9.35 5.038 9.009 5.102 8.608 C 5.311 7.295 4.939 6.136 4.553 4.935 C 4.487 4.729 4.42 4.521 4.356 4.312 L 5.986 4.042 L 8.562 5.657" transform="matrix(1 0 0 1 0 0)" fill="#FFFFFF" stroke="none" />
  <path d="M 16.064 4 C 16.462 4.078 16.854 4.165 17.134 4.24 L 13.147 11.147 L 11.599 11.699 L 11.599 6.271 L 13.041 5.896 L 13.335 5.713 L 16.064 4" transform="matrix(1 0 0 1 0 0)" fill="#FFFFFF" stroke="none" />
  <path d="M 3.412 4.979 C 3.999 6.787 4.616 8.655 3.08 10.198 C 2.735 9.756 1.025 9.16 1.001 8.675 C 0.961 7.814 2.458 5.314 3.412 4.979" transform="matrix(1 0 0 1 0 0)" fill="#FFFFFF" stroke="none" />
</svg>
