<?xml version="1.0" encoding="UTF-8"?>
<!-- Reconstructed from Amplitude.Graphics.Svg.SvgAsset and recolored from static UIMapper.Color metadata for EWShop; not original source SVG. Live UI state/material colors are not included. -->
<svg xmlns="http://www.w3.org/2000/svg" width="24" height="25" viewBox="0 0 24 25">
  <path d="M 3.762 7.839 C 4.463 7.633 5.36 7.823 5.36 7.823 L 5.968 11.935 C 5.974 11.927 6.099 11.765 6.278 11.535 L 6.781 14.655 C 6.633 14.745 6.537 14.806 6.526 14.817 C 6.219 15.375 7.032 17.036 7.224 17.393 L 7.24 17.497 L 6.856 18.328 L 6.849 18.33 L 6.044 17.815 C 6.044 17.81 6.043 17.802 6.042 17.792 C 6.016 17.534 5.813 15.519 5.224 15.2 C 5.151 15.165 2.571 15.412 2.537 15.415 C 2.209 15.434 2.08 16.303 2.447 16.565 C 2.486 16.59 2.537 16.622 2.597 16.661 C 3.148 17.02 4.481 17.887 4.52 18.107 L 4.523 18.12 C 4.569 18.326 4.636 18.627 4.642 18.695 C 4.643 18.754 4.566 18.855 4.511 18.928 C 4.493 18.952 4.477 18.973 4.467 18.988 C 3.997 19.657 4.246 20.172 4.336 20.358 C 4.34 20.366 4.344 20.373 4.347 20.38 C 4.533 20.716 5.462 21.459 5.48 21.468 L 6.105 23.592 C 4.08 21.433 2.651 21.132 2.629 21.127 C 2.629 21.127 2.631 21.123 2.632 21.119 C 2.695 20.951 3.658 18.372 1.274 16.966 C 1.271 16.952 1.265 16.929 1.257 16.899 C 1.124 16.39 0.412 13.671 1.562 11.633 C 1.661 11.608 4.132 12.475 4.132 12.475 L 2.422 8.688 C 2.435 8.671 2.886 8.097 3.762 7.839" transform="matrix(1 0 0 1 0 0)" fill="#FFFFFF" stroke="none" />
  <path d="M 11.464 12.635 C 11.788 13.746 11.84 14.77 11.852 15 C 11.853 15.017 11.853 15.03 11.854 15.038 C 10.468 17.351 11.77 19.28 11.867 19.424 C 11.871 19.429 11.873 19.433 11.873 19.433 C 11.873 19.433 10.72 20.198 9.338 22.876 L 9.273 20.661 C 9.726 20.017 9.947 19.497 10.003 19.27 C 10.047 19.097 10.133 18.472 9.465 17.985 C 9.456 17.98 9.444 17.973 9.431 17.966 C 9.353 17.922 9.222 17.849 9.207 17.756 C 9.191 17.688 9.139 17.335 9.133 17.131 C 9.131 17.019 10.392 15.349 10.6 15.073 C 10.61 15.06 10.618 15.049 10.623 15.042 C 10.884 14.732 10.595 14.116 10.32 13.996 C 9.943 13.949 8.604 14.313 7.941 14.51 L 8.122 12.635 L 11.464 12.635" transform="matrix(1 0 0 1 0 0)" fill="#FFFFFF" stroke="none" />
  <path d="M 12.405 19.918 C 12.541 19.829 12.724 19.864 12.818 19.997 L 15.246 23.462 C 15.331 23.583 15.314 23.749 15.207 23.851 C 15.1 23.953 14.935 23.962 14.818 23.872 L 11.479 21.303 C 11.415 21.254 11.373 21.182 11.363 21.102 C 11.354 21.022 11.378 20.941 11.428 20.878 C 11.506 20.781 11.581 20.691 11.651 20.612 C 11.86 20.372 12.027 20.214 12.133 20.121 L 12.246 20.026 C 12.252 20.021 12.259 20.016 12.266 20.011 L 12.405 19.918" transform="matrix(1 0 0 1 0 0)" fill="#FFFFFF" stroke="none" />
  <path d="M 12.209 16.167 C 12.293 16.131 12.389 16.135 12.47 16.178 L 19.95 20.187 C 20.086 20.26 20.145 20.425 20.086 20.567 C 20.027 20.709 19.869 20.783 19.722 20.739 L 12.296 18.494 C 12.203 18.465 12.13 18.394 12.099 18.302 C 11.94 17.828 11.827 17.148 12.038 16.365 C 12.062 16.277 12.125 16.204 12.209 16.167" transform="matrix(1 0 0 1 0 0)" fill="#FFFFFF" stroke="none" />
  <path d="M 20.943 14.596 C 21.097 14.612 21.214 14.741 21.214 14.895 C 21.214 15.049 21.097 15.178 20.943 15.194 L 12.646 16.019 C 12.536 16.03 12.429 15.979 12.367 15.887 C 12.306 15.795 12.3 15.676 12.352 15.579 C 12.384 15.518 12.419 15.457 12.455 15.397 L 12.567 15.211 L 12.553 14.994 L 12.553 14.985 C 12.553 14.981 12.552 14.975 12.552 14.968 L 12.551 14.955 L 12.538 14.735 C 12.528 14.588 12.507 14.383 12.477 14.138 C 12.46 13.998 12.544 13.863 12.678 13.817 L 12.715 13.804 L 12.777 13.79 C 12.798 13.788 12.82 13.787 12.841 13.79 L 20.943 14.596" transform="matrix(1 0 0 1 0 0)" fill="#FFFFFF" stroke="none" />
  <path d="M 17.781 9.98 L 13.827 7.415 L 12.568 8.545 L 14.933 11.134 L 8 11.134 L 8 3.543 L 10.369 6.137 L 13.829 3.134 L 17.781 6.634 L 23 1.134 L 17.781 9.98" transform="matrix(1 0 0 1 0 0)" fill="#FFFFFF" stroke="none" />
  <path d="M 5.285 0.001 C 5.438 -0.013 5.578 0.091 5.608 0.242 L 6.5 4.723 L 6.5 9.622 C 6.458 9.635 6.413 9.641 6.368 9.634 C 6.25 9.615 6.155 9.527 6.126 9.411 L 5.895 6.95 L 5.267 6.932 C 5.115 6.914 5 6.787 5 6.634 L 5.014 0.299 C 5.014 0.145 5.132 0.016 5.285 0.001" transform="matrix(1 0 0 1 0 0)" fill="#FFFFFF" stroke="none" />
  <path d="M 0.724 1.205 C 0.866 1.146 1.031 1.205 1.104 1.34 L 3.966 6.682 C 4.01 6.765 4.013 6.864 3.974 6.95 C 3.934 7.035 3.856 7.097 3.764 7.117 C 3.696 7.131 3.629 7.148 3.565 7.167 C 3.244 7.262 2.968 7.39 2.739 7.526 C 2.66 7.572 2.563 7.581 2.478 7.547 C 2.392 7.514 2.327 7.443 2.3 7.355 L 0.552 1.569 C 0.508 1.422 0.582 1.264 0.724 1.205" transform="matrix(1 0 0 1 0 0)" fill="#FFFFFF" stroke="none" />
</svg>
