<?xml version="1.0" encoding="UTF-8"?>
<!-- Reconstructed from Amplitude.Graphics.Svg.SvgAsset and recolored from static UIMapper.Color metadata for EWShop; not original source SVG. Live UI state/material colors are not included. -->
<svg xmlns="http://www.w3.org/2000/svg" width="24" height="24" viewBox="0 0 24 24">
  <path d="M 13.615 11.142 L 13.61 11.12 L 13.603 11.1 C 13.272 10.143 12.536 8.776 11.384 7.756 C 10.215 6.722 8.599 6.033 6.578 6.53 C 5.166 6.877 4.25 7.558 3.696 8.382 C 3.701 8.369 3.705 8.356 3.71 8.344 C 2.69 9.457 1.644 11.574 1.157 12.967 C 0.887 13.737 0.986 14.561 1.294 15.317 C 4.064 22.109 10.641 23.577 13.734 23.432 C 20.126 23.562 22.63 19.216 22.795 17.634 C 22.78 17.645 22.766 17.656 22.751 17.667 C 22.865 17.404 22.909 17.136 22.881 16.869 C 22.849 16.571 22.73 16.307 22.567 16.081 C 22.251 15.641 21.743 15.306 21.235 15.058 C 20.895 14.892 20.483 14.748 20.097 14.635 C 19.72 14.524 19.325 14.488 18.933 14.467 C 15.231 14.267 13.856 12.108 13.615 11.142 M 6.695 7.007 C 3.03 7.908 3.225 11.15 3.78 12.658 C 5.158 18.633 15.956 21.675 20.597 19.014 C 23.954 17.089 21.924 15.718 20.096 15.133 C 19.722 15.013 19.326 14.979 18.934 14.959 C 15.003 14.756 13.434 12.445 13.139 11.26 C 12.518 9.467 10.36 6.107 6.695 7.007" transform="matrix(1 0 0 1 0 0)" fill="#FFFFFF" stroke="none" />
  <path d="M 16.182 1 L 19.818 1 L 19.818 4.182 L 23 4.182 L 23 7.818 L 19.818 7.818 L 19.818 11 L 16.182 11 L 16.182 7.818 L 13 7.818 L 13 4.182 L 16.182 4.182 L 16.182 1" transform="matrix(1 0 0 1 0 0)" fill="#FFFFFF" stroke="none" />
  <path d="M 8.044 8.592 C 5.276 8.583 4.29 10.379 5.088 12.495 C 5.136 12.623 5.183 12.753 5.231 12.883 C 5.386 13.307 5.542 13.735 5.74 14.139 C 7.42 17.57 15.775 19.832 18.976 18.427 C 21.603 17.273 20.289 16.025 18.752 15.561 C 18.641 15.527 17.908 15.5 17.451 15.483 C 17.277 15.476 17.143 15.471 17.099 15.468 C 13.9 15.23 12.457 14.316 12.162 13.502 C 12.061 13.287 11.954 12.993 11.832 12.655 C 11.266 11.094 10.361 8.599 8.044 8.592 M 9.416 11.834 C 9.179 12.462 8.502 12.787 7.623 12.455 C 6.745 12.123 6.225 11.345 6.462 10.718 C 6.699 10.09 7.518 10.078 8.396 10.41 C 9.275 10.742 9.653 11.207 9.416 11.834" transform="matrix(1 0 0 1 0 0)" fill="#FFFFFF" stroke="none" />
</svg>
