<?xml version="1.0" encoding="UTF-8"?>
<!-- Reconstructed from Amplitude.Graphics.Svg.SvgAsset and recolored from static UIMapper.Color metadata for EWShop; not original source SVG. Live UI state/material colors are not included. -->
<svg xmlns="http://www.w3.org/2000/svg" width="24" height="24" viewBox="0 0 24 24">
  <path d="M 14.85 11.222 C 14.12 10.962 12.99 10.723 12.22 10.852 L 12.19 10.852 C 11.92 10.902 11.56 10.962 11.67 11.302 C 11.85 11.851 12.89 12.3 13.44 12.4 C 12.87 12.879 12.44 13.428 12.17 14.126 L 12.07 14.086 C 12.07 14.086 12.11 13.997 12.1 13.947 C 12.08 13.807 12.07 13.637 12.06 13.448 C 12.04 13.008 12.02 12.499 11.81 12.28 C 11.51 11.96 10.51 11.351 10.08 11.272 C 9.72 11.202 9.65 11.651 9.6 11.93 L 9.6 11.98 C 9.45 12.789 9.56 14.057 9.89 14.805 C 9.94 14.915 10.11 15.274 10.18 15.344 C 10.31 15.464 10.75 15.424 11.09 15.394 C 11.22 15.384 11.33 15.374 11.41 15.374 C 11.77 15.374 12.14 15.374 12.51 15.414 C 12.59 15.414 12.74 15.444 12.92 15.474 C 13.33 15.534 13.89 15.614 13.98 15.564 C 14.14 15.464 14.59 14.536 14.72 14.246 L 14.72 14.226 C 14.98 13.697 15.21 13.148 15.39 12.589 C 15.43 12.469 15.47 12.36 15.5 12.26 C 15.73 11.591 15.75 11.541 14.86 11.232 L 14.85 11.222" transform="matrix(1 0 0 1 0 0)" fill="#FFFFFF" stroke="none" />
  <path d="M 10.83 10.762 C 10.88 10.662 10.83 10.034 10.83 9.804 L 10.83 9.754 C 10.83 9.704 10.83 9.644 10.82 9.574 C 10.8 9.045 10.77 8.257 10.08 8.536 C 9.61 8.716 9.71 9.285 9.8 9.804 C 9.84 10.024 9.87 10.233 9.86 10.403 C 9.97 10.662 10.65 11.172 10.84 10.772 L 10.83 10.762" transform="matrix(1 0 0 1 0 0)" fill="#FFFFFF" stroke="none" />
  <path d="M 12.31 10.144 C 12.41 9.914 12.38 8.926 12.25 8.716 C 12.08 8.447 11.45 8.377 11.33 8.686 C 11.24 8.906 11.33 9.944 11.45 10.144 C 11.62 10.433 12.16 10.473 12.31 10.144" transform="matrix(1 0 0 1 0 0)" fill="#FFFFFF" stroke="none" />
  <path d="M 20.64 19.966 C 22.12 17.969 23 15.454 23 12.719 C 23 6.25 18.08 1 12 1 C 5.92 1 1 6.25 1 12.719 C 1 14.735 1.48 16.632 2.32 18.279 L 3.03 16.761 C 2.53 15.514 2.26 14.146 2.26 12.709 C 2.26 6.989 6.62 2.338 12 2.338 C 17.38 2.338 21.74 6.979 21.74 12.719 C 21.74 14.446 21.34 16.083 20.64 17.51 L 20.64 19.966" transform="matrix(1 0 0 1 0 0)" fill="#FFFFFF" stroke="none" />
  <path d="M 13.93 18.469 C 13.91 18.349 13.9 18.109 13.89 17.84 C 13.87 17.4 13.85 16.911 13.8 16.812 C 13.71 16.642 12.59 16.372 12.34 16.322 C 12 16.253 10.83 16.043 10.57 16.143 C 10.41 16.203 10.38 16.282 10.33 16.402 C 10.33 16.402 10.31 16.452 10.3 16.482 C 9.92 17.361 9.94 18.339 9.96 19.297 C 9.97 19.846 9.99 20.385 9.92 20.904 L 9.97 21.872 L 10.25 22.99 L 14.16 21.513 C 14.16 21.513 14.37 20.964 14.35 20.754 C 14.31 20.345 14.22 19.926 14.13 19.507 C 14.05 19.157 13.98 18.808 13.93 18.469" transform="matrix(1 0 0 1 0 0)" fill="#FFFFFF" stroke="none" />
  <path d="M 13.08 10.413 C 13.35 10.533 13.57 10.513 13.69 10.243 C 13.82 9.964 13.93 8.885 13.72 8.646 C 13.56 8.466 13.32 8.356 13.08 8.456 C 12.74 8.596 12.8 8.876 12.85 9.145 C 12.87 9.235 12.89 9.335 12.89 9.415 C 12.89 9.494 12.89 9.584 12.88 9.684 C 12.86 9.974 12.83 10.313 13.07 10.413 L 13.08 10.413" transform="matrix(1 0 0 1 0 0)" fill="#FFFFFF" stroke="none" />
  <path d="M 12 4.993 C 8.13 4.993 5 8.027 5 11.78 C 5 12.948 5.3 14.046 5.84 15.005 L 6.29 14.126 C 5.97 13.407 5.8 12.609 5.8 11.78 C 5.8 8.466 8.58 5.771 12 5.771 C 15.42 5.771 18.2 8.456 18.2 11.78 C 18.2 12.779 17.95 13.727 17.5 14.555 L 17.5 15.973 C 18.44 14.815 19 13.358 19 11.78 C 19 8.037 15.87 4.993 12 4.993" transform="matrix(1 0 0 1 0 0)" fill="#FFFFFF" stroke="none" />
  <path d="M 14.22 10.253 C 14.2 10.313 14.18 10.373 14.16 10.433 C 14.45 10.802 14.91 10.623 15.12 10.263 C 15.24 10.074 15.4 9.395 15.33 9.175 C 15.22 8.806 14.49 8.457 14.35 8.886 C 14.33 8.956 14.35 9.105 14.35 9.255 C 14.36 9.375 14.37 9.495 14.37 9.585 C 14.35 9.834 14.28 10.034 14.21 10.253 L 14.22 10.253" transform="matrix(1 0 0 1 0 0)" fill="#FFFFFF" stroke="none" />
</svg>
