<?xml version="1.0" encoding="UTF-8"?>
<!-- Reconstructed from Amplitude.Graphics.Svg.SvgAsset and recolored from static UIMapper.Color metadata for EWShop; not original source SVG. Live UI state/material colors are not included. -->
<svg xmlns="http://www.w3.org/2000/svg" width="24" height="24" viewBox="0 0 24 24">
  <path d="M 5.688 9.816 L 5.688 4.693 C 5.688 4.357 5.904 4.059 6.223 3.955 L 6.67 3.809 C 8.481 3.217 10.144 2.245 11.548 0.957 C 11.804 0.723 12.196 0.723 12.451 0.957 C 13.856 2.245 15.519 3.217 17.33 3.809 L 17.777 3.955 C 18.096 4.059 18.312 4.357 18.312 4.693 L 18.312 9.816 C 18.312 11.652 17.434 13.377 15.949 14.457 L 12.169 17.206 C 12.068 17.279 11.932 17.279 11.831 17.206 L 8.051 14.457 C 6.566 13.377 5.688 11.652 5.688 9.816 M 11.279 2.516 C 10.247 3.439 9.034 4.138 7.717 4.568 L 7.369 4.682 C 6.952 4.818 6.669 5.208 6.669 5.647 L 6.669 9.64 C 6.669 10.601 6.952 11.526 7.463 12.31 L 8.057 11.716 C 7.689 11.096 7.487 10.381 7.487 9.64 L 7.487 5.647 C 7.487 5.561 7.542 5.486 7.623 5.459 L 7.971 5.345 C 9.17 4.953 10.289 4.356 11.279 3.581 L 11.279 2.516 M 12.676 3.546 C 13.677 4.338 14.812 4.947 16.029 5.345 L 16.377 5.459 C 16.458 5.486 16.513 5.561 16.513 5.647 L 16.513 9.64 C 16.513 10.529 16.223 11.381 15.704 12.075 L 16.287 12.658 C 16.955 11.808 17.331 10.748 17.331 9.64 L 17.331 5.647 C 17.331 5.208 17.049 4.818 16.632 4.682 L 16.283 4.568 C 14.947 4.131 13.718 3.418 12.676 2.476 L 12.676 3.546 M 15.275 13.622 L 14.69 13.037 L 12 14.993 L 9.161 12.928 C 9.096 12.881 9.032 12.831 8.969 12.78 L 8.389 13.36 C 8.483 13.44 8.58 13.517 8.68 13.59 L 11.628 15.733 C 11.85 15.895 12.15 15.895 12.372 15.733 L 15.275 13.622" transform="matrix(1 0 0 1 0 0)" fill="#FFFFFF" stroke="none" />
  <path d="M 23.28 12.377 L 21.323 12.522 L 14.315 19.53 L 13.33 18.549 L 12.491 19.388 L 13.959 20.855 L 12.282 22.532 L 13.12 23.371 L 14.798 21.694 L 16.265 23.161 L 17.104 22.323 L 16.196 21.411 L 23.248 14.359 L 23.28 12.377 M 21.781 13.433 L 15.019 20.195 L 15.502 20.678 L 22.264 13.916 L 22.34 13.381 L 21.781 13.433 M 0.721 12.378 L 2.678 12.523 L 9.686 19.53 L 10.67 18.549 L 11.509 19.388 L 10.041 20.855 L 11.719 22.533 L 10.88 23.371 L 9.203 21.694 L 7.735 23.162 L 6.897 22.323 L 7.805 21.412 L 0.752 14.359 L 0.721 12.378 M 2.219 13.433 L 8.981 20.195 L 8.499 20.678 L 1.737 13.916 L 1.66 13.381 L 2.219 13.433" transform="matrix(1 0 0 1 0 0)" fill="#FFFFFF" stroke="none" />
</svg>
