<?xml version="1.0" encoding="UTF-8"?>
<!-- Reconstructed from Amplitude.Graphics.Svg.SvgAsset and recolored from static UIMapper.Color metadata for EWShop; not original source SVG. Live UI state/material colors are not included. -->
<svg xmlns="http://www.w3.org/2000/svg" width="24" height="24" viewBox="0 0 24 24">
  <path d="M 12 0 L 12.975 6.825 C 13.172 6.855 13.367 6.895 13.558 6.943 L 14.702 3.623 L 14.275 7.168 C 14.447 7.234 14.616 7.306 14.782 7.386 L 18.877 0.902 L 16.23 8.324 C 16.384 8.454 16.532 8.59 16.676 8.733 L 19.123 6.614 L 17.209 9.323 C 17.318 9.457 17.423 9.596 17.523 9.738 L 23.79 6.614 L 18.405 11.368 C 18.485 11.568 18.557 11.772 18.622 11.981 L 21.825 11.508 L 18.826 12.774 C 18.869 12.986 18.905 13.202 18.933 13.42 L 24 14.5 L 18.933 15.579 C 18.905 15.798 18.869 16.014 18.826 16.226 L 21.825 17.492 L 18.622 17.019 C 18.573 17.178 18.519 17.334 18.461 17.488 C 18.46 17.49 18.459 17.492 18.459 17.494 C 18.413 17.458 18.387 17.434 18.375 17.422 C 18.347 17.339 18.31 17.181 18.273 16.917 C 18.23 16.614 18.198 16.259 18.163 15.851 L 18.154 15.748 C 18.09 15.007 18.009 14.064 17.785 13.319 C 17.112 11.076 15.672 9.042 13.729 8.198 C 12.73 7.764 11.612 7.657 10.481 8.015 C 9.364 8.367 8.331 9.14 7.415 10.295 C 5.859 12.258 5.713 13.904 5.564 15.579 C 5.527 15.997 5.49 16.417 5.431 16.844 C 5.421 16.913 5.406 16.978 5.385 17.04 C 5.382 17.033 5.38 17.026 5.378 17.019 L 2.175 17.492 L 5.174 16.226 C 5.131 16.013 5.095 15.798 5.067 15.579 L 0 14.5 L 5.067 13.42 C 5.095 13.202 5.131 12.986 5.174 12.774 L 2.175 11.508 L 5.378 11.981 C 5.443 11.773 5.515 11.568 5.595 11.368 L 0.211 6.614 L 6.477 9.738 C 6.577 9.596 6.682 9.457 6.791 9.323 L 4.877 6.614 L 7.324 8.733 C 7.468 8.59 7.616 8.454 7.77 8.324 L 5.123 0.902 L 9.218 7.386 C 9.384 7.306 9.553 7.234 9.725 7.168 L 9.298 3.623 L 10.442 6.943 C 10.633 6.895 10.828 6.855 11.025 6.825 L 12 0" transform="matrix(1 0 0 1 0 0)" fill="#FFFFFF" stroke="none" />
  <path d="M 20.763 20.987 C 19.824 20.471 19.196 21.122 18.566 21.775 C 18.329 22.02 18.093 22.265 17.839 22.449 C 17.507 22.689 15.416 24.157 15.2 23.982 C 16.373 21.492 14.943 13.348 11.125 14.451 C 8.3 15.266 7.662 21.565 8.349 23.984 C 7.361 23.679 6.573 23.009 5.792 22.345 C 4.939 21.619 4.093 20.9 3 20.668 C 3.411 20.02 4.071 19.61 4.716 19.21 C 5.603 18.659 6.463 18.125 6.619 17.011 C 6.692 16.49 6.735 16.014 6.776 15.567 C 6.925 13.95 7.039 12.701 8.355 11.041 C 11.589 6.964 15.416 9.598 16.636 13.665 C 16.823 14.287 16.895 15.121 16.963 15.911 C 17.034 16.73 17.101 17.5 17.287 17.937 C 17.469 18.365 18.091 18.71 18.76 19.081 C 19.66 19.58 20.646 20.127 20.763 20.987" transform="matrix(1 0 0 1 0 0)" fill="#FFFFFF" stroke="none" />
  <path d="M 11.076 17.832 C 11.137 17.888 11.177 17.983 11.217 18.081 C 11.253 18.166 11.289 18.253 11.341 18.316 C 11.42 18.654 11.362 18.66 11.056 18.605 C 10.401 18.485 9.453 18.153 9.421 17.351 C 9.543 17.239 10.887 17.661 11.076 17.834 L 11.076 17.832" transform="matrix(1 0 0 1 0 0)" fill="#FFFFFF" stroke="none" />
  <path d="M 12.647 18.542 C 13.382 18.404 14.158 18.259 14.128 17.351 C 13.212 17.351 12.488 17.738 12.204 18.633 C 12.345 18.598 12.495 18.57 12.647 18.542" transform="matrix(1 0 0 1 0 0)" fill="#FFFFFF" stroke="none" />
</svg>
