<?xml version="1.0" encoding="UTF-8"?>
<!-- Reconstructed from Amplitude.Graphics.Svg.SvgAsset and recolored from static UIMapper.Color metadata for EWShop; not original source SVG. Live UI state/material colors are not included. -->
<svg xmlns="http://www.w3.org/2000/svg" width="24" height="24" viewBox="0 0 24 24">
  <path d="M 12.713 11.607 C 13.083 11.931 13.45 12.223 13.798 12.48 L 13.815 12.587 C 13.815 12.658 13.788 12.744 13.72 12.773 L 12.54 13.201 C 12.376 13.258 12.417 13.516 12.595 13.516 L 14.583 13.516 C 14.583 13.516 14.707 13.458 14.721 13.401 L 14.806 13.17 C 14.857 13.203 14.905 13.236 14.954 13.267 C 15.277 13.468 15.547 13.623 15.739 13.729 C 15.8 13.762 15.854 13.79 15.898 13.814 L 15.872 14.473 C 15.87 14.481 15.829 14.601 15.763 14.615 L 12.375 15.73 C 12.266 15.773 12.225 15.915 12.32 16.001 L 13.089 16.715 C 13.093 16.718 13.145 16.758 13.171 16.758 L 16.119 17.058 C 16.122 17.058 16.188 17.057 16.215 17.029 L 18.766 15.43 C 18.903 15.344 19.068 15.515 18.972 15.658 L 18.944 15.658 L 17.065 18.443 C 17.063 18.446 17.01 18.501 16.97 18.515 L 14.227 19 L 14.158 19 C 13.774 18.886 11.341 18.615 10.326 18.586 L 9.627 16.515 L 8.282 15.273 L 6.582 13.387 C 6.582 13.258 6.555 13.13 6.527 12.987 C 6.5 12.802 6.473 12.601 6.473 12.444 L 6.5 11.83 L 8.975 11.701 C 8.975 11.701 9.002 11.702 9.016 11.716 L 9.948 12.273 C 9.948 12.273 10.016 12.301 10.044 12.287 L 12.554 11.973 C 12.622 11.973 12.677 11.901 12.69 11.83 L 12.713 11.607" transform="matrix(1 0 0 1 0 0)" fill="#FFFFFF" stroke="none" />
  <path d="M 8.76 6.003 C 8.92 5.975 9.021 6.157 8.905 6.27 L 6.784 8.291 C 6.781 8.297 6.741 8.363 6.741 8.403 L 6.625 11.701 L 6.596 12.305 L 6.61 12.305 C 6.61 12.585 6.698 12.937 6.712 13.231 L 8.513 15.084 L 9.937 16.305 L 10.692 18.368 C 10.358 18.551 11.548 20.01 11.694 20.249 C 11.694 20.263 11.723 20.291 11.737 20.291 L 13.073 21.148 C 13.077 21.149 13.132 21.176 13.16 21.176 L 16.835 21.218 C 17.024 21.218 17.067 21.47 16.878 21.526 L 12.144 23 C 12.141 23 12.027 22.999 11.984 22.972 L 8.339 19.842 C 8.339 19.842 8.31 19.814 8.295 19.8 L 7.758 18.762 C 7.758 18.762 7.715 18.706 7.686 18.691 L 5.812 17.681 L 3.081 16.558 C 3.077 16.556 3.023 16.529 3.009 16.502 L 2.486 15.758 C 1.92 14.761 1.295 11.912 4.098 9.146 L 6.581 6.438 C 6.581 6.438 6.64 6.396 6.669 6.382 L 8.76 6.003" transform="matrix(1 0 0 1 0 0)" fill="#FFFFFF" stroke="none" />
  <path d="M 19.344 1 C 21.363 1 23 2.612 23 4.601 C 23 6.351 22.261 7.873 21.284 9.124 L 20 7.197 L 18.028 10.154 C 17.595 10.804 17.531 11.58 17.768 12.255 C 17.029 12.735 16.512 12.994 16.5 13 C 16.5 13 10.001 9.8 10 4.601 C 10 2.612 11.637 1 13.656 1 C 14.805 1 15.83 1.521 16.5 2.337 C 17.17 1.521 18.195 1 19.344 1" transform="matrix(1 0 0 1 0 0)" fill="#FFFFFF" stroke="none" />
  <path d="M 21.14 10.709 C 21.597 11.394 21.349 12.325 20.612 12.693 C 20.227 12.886 19.773 12.886 19.388 12.693 C 18.651 12.325 18.404 11.394 18.861 10.709 L 20 9 L 21.14 10.709" transform="matrix(1 0 0 1 0 0)" fill="#FFFFFF" stroke="none" />
</svg>
