<?xml version="1.0" encoding="UTF-8"?>
<!-- Reconstructed from Amplitude.Graphics.Svg.SvgAsset and recolored from static UIMapper.Color metadata for EWShop; not original source SVG. Live UI state/material colors are not included. -->
<svg xmlns="http://www.w3.org/2000/svg" width="24" height="24" viewBox="0 0 24 24">
  <path d="M 16.571 1.651 C 16.779 1.651 16.958 1.797 17 2 C 17.142 2.673 17.488 4.704 17.813 6.615 C 18.045 7.977 18.267 9.278 18.397 9.985 C 18.461 10.331 18.257 10.739 18 10.499 C 17.787 10.3 17.034 7.798 16.319 5.421 C 15.91 4.06 15.513 2.739 15.236 1.914 L 16.571 1.651" transform="matrix(1 0 0 1 0 0)" fill="#FFFFFF" stroke="none" />
  <path d="M 12.41 2.066 L 12.093 2.063 C 12.271 2.438 12.8 3.504 13.393 4.696 C 14.28 6.483 15.308 8.552 15.5 9 C 15.524 9.055 15.448 9.097 15.414 9.049 C 15.174 8.714 14.129 7.359 13.018 5.919 C 11.765 4.295 10.427 2.561 10.069 2.063 C 10.034 2.012 9.979 1.948 9.928 1.942 C 9.804 1.927 9.236 1.929 8.993 1.93 L 8.909 1.93 C 9.405 2.613 10.058 3.454 10.771 4.373 C 12.679 6.831 15.023 9.851 15.973 11.919 C 16.11 12.213 16.269 12.496 16.428 12.779 C 16.493 12.894 16.558 13.01 16.621 13.126 C 16.645 13.175 16.804 13.209 16.98 13.236 C 17.231 13.275 17.753 13.118 17.695 12.87 C 17.016 9.984 14.006 3.829 13 2.063 C 12.945 1.966 12.769 2.003 12.61 2.036 C 12.534 2.051 12.462 2.066 12.41 2.066" transform="matrix(1 0 0 1 0 0)" fill="#FFFFFF" stroke="none" />
  <path d="M 6.742 11.547 C 5.054 10.373 3.454 9.261 2.5 8.5 C 2.5 8.653 2.491 8.878 2.482 9.105 C 2.472 9.367 2.462 9.632 2.464 9.791 C 2.465 9.828 2.5 9.874 2.532 9.897 C 3.77 10.808 9.199 14.68 10.5 15.5 C 9.867 15.165 8.128 14.337 6.392 13.51 C 4.659 12.685 2.929 11.86 2.3 11.527 C 2.226 11.759 2.085 12.388 2.3 12.5 C 3.479 13.107 5.756 14.087 7.927 15.02 C 9.702 15.783 11.406 16.516 12.381 16.99 C 12.438 17.018 12.507 16.944 12.521 16.881 C 12.533 16.825 12.551 16.754 12.569 16.676 C 12.625 16.447 12.694 16.158 12.705 16.013 C 12.709 15.95 12.67 15.902 12.622 15.861 C 11.372 14.764 8.979 13.101 6.742 11.547" transform="matrix(1 0 0 1 0 0)" fill="#FFFFFF" stroke="none" />
  <path d="M 9.004 4.332 L 8.725 6.251 C 8.711 6.343 8.598 6.381 8.533 6.314 L 5.404 3.17 C 5.299 3.063 5.239 2.919 5.24 2.769 L 5.246 0.507 C 5.246 0.406 5.368 0.356 5.439 0.427 L 7.318 2.316 L 7.673 4.021 L 8.009 3.011 L 8.845 3.851 C 8.971 3.978 9.03 4.156 9.004 4.332" transform="matrix(1 0 0 1 0 0)" fill="#FFFFFF" stroke="none" />
  <path d="M 7.081 7.559 L 5.193 8 C 5.02 8.04 4.837 7.997 4.7 7.882 L 3.792 7.12 L 3.731 6.43 L 3.042 6.491 L 1 4.778 C 0.923 4.714 0.962 4.588 1.063 4.579 L 3.316 4.381 C 3.466 4.368 3.615 4.415 3.73 4.512 L 7.128 7.362 C 7.2 7.422 7.172 7.538 7.081 7.559" transform="matrix(1 0 0 1 0 0)" fill="#FFFFFF" stroke="none" />
  <path d="M 3.395 20.007 C 3.221 19.877 3.358 19.618 3.567 19.678 C 9.969 21.5 9.784 21.491 15.949 21.305 L 15.961 21.257 C 15.448 21.061 13.119 20.412 10.783 19.761 C 8.328 19.077 5.865 18.391 5.49 18.225 C 5.172 18.085 5.073 17.855 5.5 18 C 6.244 18.254 7.788 18.372 9.256 18.484 C 10.457 18.576 11.607 18.664 12.229 18.819 C 12.306 18.838 12.346 18.729 12.273 18.695 C 11.038 18.111 9.071 17.291 7.136 16.485 C 5.37 15.749 3.631 15.024 2.5 14.5 C 2.457 14.485 2.426 14.466 2.403 14.443 C 2.305 14.344 2.479 14.229 2.606 14.285 C 6.714 16.08 19.358 21.011 20.999 21.286 C 21.251 21.329 21.448 21.272 21.377 20.89 C 20.845 18.032 20.18 16.359 19.801 15.406 C 19.625 14.966 19.511 14.679 19.5 14.5 C 19.495 14.416 19.996 14.389 20.031 14.465 C 20.114 14.652 20.175 14.85 20.23 15.028 C 20.248 15.086 20.265 15.142 20.282 15.195 C 20.294 15.231 20.307 15.272 20.321 15.315 C 20.371 15.472 20.434 15.667 20.498 15.844 C 20.576 16.056 20.883 16.047 20.944 15.829 C 21.352 14.37 20 10.5 19.229 6.095 C 19.196 5.861 19.405 5.754 19.5 6 C 19.875 6.969 20.778 10.201 21 11 C 21.019 11.068 21.116 11.049 21.112 10.978 C 21.572 10.011 21.829 9.168 21.871 3.663 C 21.873 3.425 22.122 3.4 22.149 3.637 C 22.781 9.098 23.194 22.004 23.189 22.563 C 23.187 22.812 23.131 22.946 22.884 22.94 C 20.718 22.882 18.277 22.893 15.828 22.905 C 10.725 22.929 7.516 23.082 3.395 20.007" transform="matrix(1 0 0 1 0 0)" fill="#FFFFFF" stroke="none" />
  <path d="M 13.654 12.945 L 12.704 12.892 L 3.5 3.001 L 5.398 3.785 L 13.551 12.134 L 13.654 12.945" transform="matrix(1 0 0 1 0 0)" fill="#FFFFFF" stroke="none" />
  <path d="M 20.118 20.001 L 14.16 17.696 C 14.249 16.926 14.062 15.131 12.602 14.117 L 13.535 13.874 L 17.962 17.948 L 14.939 14.005 L 14.604 12.722 C 15.246 13.592 16.792 15.09 17.834 14.12 L 20.118 20.001" transform="matrix(1 0 0 1 0 0)" fill="#FFFFFF" stroke="none" />
</svg>
