<?xml version="1.0" encoding="UTF-8"?>
<!-- Reconstructed from Amplitude.Graphics.Svg.SvgAsset and recolored from static UIMapper.Color metadata for EWShop; not original source SVG. Live UI state/material colors are not included. -->
<svg xmlns="http://www.w3.org/2000/svg" width="24" height="24" viewBox="0 0 24 24">
  <path d="M 11.19 9.002 L 8.207 7.7 L 11.857 6.88 L 9.552 2.939 L 13.249 5.049 L 13.698 1 L 16.326 5.29 L 18.692 1.675 L 18.054 5.796 L 23 3.917 L 19.497 7.556 L 21.58 8.641 L 19.071 9.749 L 22.385 13.871 L 17.414 12.449 L 17.746 14.69 L 16.586 13.124 L 13.982 17.655 L 14.195 12.98 L 11.64 14.208 L 12.397 11.268 L 7 12.305 L 11.19 9.002 M 14.096 10.029 L 13.821 11.095 L 14.747 10.649 L 14.67 12.343 L 15.612 10.702 L 16.032 11.27 L 15.912 10.457 L 17.712 10.973 L 16.513 9.479 L 17.421 9.078 L 16.667 8.686 L 17.978 7.351 L 16.144 8.049 L 16.375 6.556 L 15.519 7.865 L 14.566 6.312 L 14.404 7.778 L 12.707 7.394 L 13.821 8.424 L 12.578 8.738 L 13.658 9.209 L 12.142 10.405 L 14.096 10.029" transform="matrix(1 0 0 1 0 0)" fill="#FFFFFF" stroke="none" />
  <path d="M 9.217 2 C 9.079 2.049 8.949 2.127 8.841 2.236 C 8.548 2.532 8.475 2.973 8.642 3.346 L 7.987 3.346 L 5.807 4.349 L 4.788 5.664 L 3.937 7.541 L 4.788 9.073 L 6.795 9.55 L 8.585 9.78 L 6.381 11.52 C 6.019 11.805 5.899 12.301 6.091 12.721 C 6.283 13.14 6.736 13.374 7.188 13.287 L 10.786 12.595 L 10.994 12.697 L 10.671 13.959 C 10.574 14.336 10.704 14.735 11.005 14.981 C 11.306 15.228 11.723 15.278 12.073 15.109 L 13.12 14.606 L 12.983 17.609 C 12.962 18.07 13.26 18.486 13.703 18.615 C 14.146 18.744 14.62 18.553 14.85 18.153 L 15.495 17.028 L 17 19.277 L 13.543 21.236 L 9.448 23 L 7.507 19.904 L 8.638 19.277 L 10.045 16.427 L 7.293 18.303 L 4.35 18.822 L 2.877 17.697 L 2.728 15.445 L 2.024 13.758 L 1 12.783 L 2.728 10.192 L 2.555 7.314 L 4.35 3.426 L 8.125 2 L 9.217 2" transform="matrix(1 0 0 1 0 0)" fill="#FFFFFF" stroke="none" />
  <path d="M 12.188 2.44 L 12.511 2.625 L 12.422 3.426 L 10.047 2.071 C 9.997 2.043 9.945 2.019 9.892 2 L 10.321 2 L 12.188 2.44" transform="matrix(1 0 0 1 0 0)" fill="#FFFFFF" stroke="none" />
</svg>
