<?xml version="1.0" encoding="UTF-8"?>
<!-- Reconstructed from Amplitude.Graphics.Svg.SvgAsset and recolored from static UIMapper.Color metadata for EWShop; not original source SVG. Live UI state/material colors are not included. -->
<svg xmlns="http://www.w3.org/2000/svg" width="24" height="24" viewBox="0 0 24 24">
  <path d="M 8.285 4.497 L 8.937 4.446 C 8.781 3.916 8.478 3.462 8.165 3.016 C 7.746 2.421 7.239 1.8 6.699 1.316 C 6.71 1.46 6.719 1.604 6.728 1.747 C 6.804 2.892 6.878 4.013 7.402 5.065 C 7.421 5.08 7.561 4.959 7.678 4.858 C 7.743 4.802 7.801 4.752 7.826 4.735 C 7.88 4.7 8.259 4.499 8.285 4.497" transform="matrix(1 0 0 1 0 0)" fill="#FFFFFF" stroke="none" />
  <path d="M 11.181 6.905 C 10.672 5.678 8.985 4.036 7.761 5.414 C 6.4 6.947 7.976 10.856 10.077 10.646 C 11.754 10.478 11.66 8.059 11.181 6.905" transform="matrix(1 0 0 1 0 0)" fill="#FFFFFF" stroke="none" />
  <path d="M 16.206 8.199 C 16.192 6.952 15.326 4.723 13.768 4.939 C 11.452 5.261 11.667 10.088 13.775 10.898 C 15.418 11.53 16.22 9.487 16.206 8.199" transform="matrix(1 0 0 1 0 0)" fill="#FFFFFF" stroke="none" />
  <path d="M 11.32 11.245 C 12.293 11.087 13.317 11.101 14.232 11.492 C 14.535 11.622 14.798 11.797 15.037 12 L 14.248 12 C 13.696 12 13.248 12.447 13.248 13 L 13.248 15.181 L 11.066 15.181 C 10.514 15.181 10.066 15.629 10.066 16.181 L 10.066 19.818 C 10.066 20.37 10.514 20.818 11.066 20.818 L 13.248 20.818 L 13.248 21.36 C 13.061 21.48 12.875 21.602 12.689 21.725 C 11.545 22.478 10.404 23.23 8.944 23.237 C 7.512 23.242 5.545 22.3 4.936 20.949 C 4.301 19.54 5.232 18.694 6.177 17.835 C 6.814 17.256 7.457 16.671 7.633 15.904 C 7.741 15.429 7.745 15.031 7.748 14.671 C 7.756 13.925 7.762 13.337 8.683 12.561 C 9.419 11.94 10.36 11.4 11.32 11.245" transform="matrix(1 0 0 1 0 0)" fill="#FFFFFF" stroke="none" />
  <path d="M 7.63 10.277 C 7.237 9.253 5.974 7.685 4.722 8.004 C 2.159 8.657 4.515 14.431 6.984 13.463 C 8.168 13 7.999 11.236 7.63 10.277" transform="matrix(1 0 0 1 0 0)" fill="#FFFFFF" stroke="none" />
  <path d="M 5.405 17.655 C 7.278 16.481 4.973 12.382 2.529 12.931 C 2.229 12.999 1.895 13.248 1.725 13.504 C 0.496 15.362 3.482 18.859 5.405 17.655" transform="matrix(1 0 0 1 0 0)" fill="#FFFFFF" stroke="none" />
  <path d="M 11.301 1.679 C 12.11 2.591 12.913 3.602 13.135 4.84 C 13.596 4.666 14.103 4.544 14.594 4.679 L 14.636 4.583 C 14.05 3.173 12.825 1.979 11.301 1.679" transform="matrix(1 0 0 1 0 0)" fill="#FFFFFF" stroke="none" />
  <path d="M 3.875 3.985 C 3.919 5.231 4.11 6.468 4.788 7.535 C 4.308 7.672 3.864 8.008 3.614 8.442 C 2.978 7.176 3.024 5.542 3.653 4.278 L 3.661 4.261 L 3.662 4.259 C 3.699 4.179 3.819 3.926 3.875 3.985" transform="matrix(1 0 0 1 0 0)" fill="#FFFFFF" stroke="none" />
  <path d="M 1.771 8.906 C 1.732 10.109 2.002 11.338 2.584 12.393 C 2.486 12.465 2.38 12.519 2.273 12.574 C 2.161 12.631 2.048 12.688 1.942 12.768 C 1.842 12.843 1.764 12.931 1.685 13.019 C 1.603 13.112 1.52 13.205 1.414 13.281 C 1.32 13.267 1.123 12.466 1.094 12.327 C 0.918 11.468 0.993 10.555 1.284 9.728 C 1.331 9.594 1.565 9.021 1.636 8.946 C 1.673 8.906 1.699 8.906 1.741 8.906 L 1.75 8.906 C 1.757 8.906 1.764 8.907 1.771 8.906" transform="matrix(1 0 0 1 0 0)" fill="#FFFFFF" stroke="none" />
  <path d="M 21.157 6 L 18.976 6 L 18.976 7.909 L 17.066 7.909 L 17.066 10.091 L 18.976 10.091 L 18.976 12 L 21.157 12 L 21.157 10.091 L 23.066 10.091 L 23.066 7.909 L 21.157 7.909 L 21.157 6" transform="matrix(1 0 0 1 0 0)" fill="#FFFFFF" stroke="none" />
  <path d="M 17.885 13 L 14.248 13 L 14.248 16.182 L 11.066 16.182 L 11.066 19.818 L 14.248 19.818 L 14.248 23 L 17.885 23 L 17.885 19.818 L 21.066 19.818 L 21.066 16.182 L 17.885 16.182 L 17.885 13" transform="matrix(1 0 0 1 0 0)" fill="#FFFFFF" stroke="none" />
</svg>
