<?xml version="1.0" encoding="UTF-8"?>
<!-- Reconstructed from Amplitude.Graphics.Svg.SvgAsset and recolored from static UIMapper.Color metadata for EWShop; not original source SVG. Live UI state/material colors are not included. -->
<svg xmlns="http://www.w3.org/2000/svg" width="24" height="24" viewBox="0 0 24 24">
  <path d="M 8.922 4.985 C 11.062 3.445 13.704 4.272 14.757 4.879 L 14.812 7.897 C 14.821 8.37 14.996 8.825 15.309 9.18 L 16.86 10.947 C 17.062 11.177 17.209 11.451 17.313 11.739 C 17.334 11.797 17.355 11.856 17.377 11.915 C 17.564 12.426 17.754 12.943 17.52 12.832 C 17.184 12.671 15.954 12.832 15.537 13.161 C 14.825 12.495 13.508 12.614 13.026 12.832 L 12.988 10.748 C 11.511 12.109 9.475 12.479 8.642 12.495 L 8.66 13.537 C 11.501 13.201 12.503 14.678 12.657 16.086 C 12.687 16.363 12.45 16.583 12.172 16.562 C 9.83 16.386 7.871 15.625 6.838 14.968 C 6.515 14.761 6.301 14.425 6.236 14.047 C 5.752 11.2 7.825 9.213 8.99 8.736 C 10.269 8.903 11.568 8.684 12.721 8.108 L 12.834 8.051 C 12.968 7.984 12.912 7.78 12.762 7.791 L 12.244 7.828 C 11.119 7.908 9.989 7.736 8.939 7.325 L 8.922 4.985" transform="matrix(1 0 0 1 0 0)" fill="#FFFFFF" stroke="none" />
  <path d="M 8.516 16.507 C 8.672 16.552 8.818 16.614 8.95 16.685 C 9.384 16.917 9.562 17.415 9.569 17.908 L 9.58 18.693 C 9.588 19.282 9.331 19.933 8.742 19.949 C 8.671 19.95 8.601 19.947 8.533 19.94 C 7.981 19.883 7.662 19.35 7.566 18.803 L 7.511 18.491 C 7.443 18.105 7.445 17.709 7.516 17.322 C 7.611 16.81 8.017 16.364 8.516 16.507" transform="matrix(1 0 0 1 0 0)" fill="#FFFFFF" stroke="none" />
  <path d="M 11.758 17.432 C 11.594 17.37 11.419 17.316 11.244 17.278 C 10.59 17.138 10.194 17.778 10.203 18.448 C 10.212 19.065 10.533 19.667 11.142 19.765 C 11.259 19.784 11.382 19.796 11.509 19.799 C 12.126 19.815 12.508 19.214 12.499 18.597 C 12.492 18.091 12.231 17.61 11.758 17.432" transform="matrix(1 0 0 1 0 0)" fill="#FFFFFF" stroke="none" />
  <path d="M 13.135 17.499 L 13.135 17.667 C 13.135 18.599 13.831 19.528 14.702 19.201 C 14.904 19.125 15.067 19.026 15.188 18.925 C 15.383 18.761 15.422 18.495 15.417 18.241 L 15.361 15.132 C 15.355 14.826 15.278 14.525 15.136 14.253 C 14.994 13.982 14.797 13.724 14.503 13.636 C 14.279 13.569 14.047 13.556 13.834 13.576 C 13.301 13.626 13.042 14.155 13.051 14.689 C 13.056 14.919 13.115 15.143 13.174 15.365 C 13.183 15.398 13.192 15.431 13.2 15.464 C 13.278 15.764 13.29 16.082 13.268 16.347 C 13.255 16.502 13.231 16.659 13.206 16.816 C 13.17 17.044 13.135 17.272 13.135 17.499" transform="matrix(1 0 0 1 0 0)" fill="#FFFFFF" stroke="none" />
  <path d="M 15.964 14.358 L 16.001 16.372 C 16.021 17.477 17.263 18.57 17.803 17.607 C 17.818 17.579 17.833 17.55 17.846 17.519 C 17.897 17.398 17.901 17.263 17.899 17.132 L 17.864 15.213 C 17.847 14.315 17.452 13.386 16.566 13.528 C 16.211 13.584 15.958 13.999 15.964 14.358" transform="matrix(1 0 0 1 0 0)" fill="#FFFFFF" stroke="none" />
  <path d="M 18.987 4.61 L 18.365 0.265 L 17.55 3.655 L 16.023 4.661 L 17.648 5.274 L 18.987 4.61" transform="matrix(1 0 0 1 0 0)" fill="#FFFFFF" stroke="none" />
  <path d="M 6.615 16.83 C 6.674 16.655 6.756 16.482 6.86 16.322 L 5.371 16.001 C 5.316 15.989 5.287 16.06 5.336 16.089 C 5.455 16.157 5.582 16.229 5.713 16.302 C 6.018 16.474 6.341 16.656 6.615 16.83" transform="matrix(1 0 0 1 0 0)" fill="#FFFFFF" stroke="none" />
  <path d="M 6.527 18.668 L 6.582 18.98 C 6.703 19.665 7.189 20.807 8.427 20.934 C 8.535 20.945 8.648 20.951 8.765 20.948 C 9.312 20.933 9.727 20.683 10.012 20.364 C 10.041 20.371 10.07 20.378 10.1 20.385 C 10.337 20.564 10.629 20.695 10.981 20.752 C 11.138 20.777 11.305 20.793 11.48 20.798 C 11.892 20.808 12.252 20.689 12.547 20.495 C 13.008 20.449 13.506 20.367 14.043 20.242 C 14.357 20.294 14.699 20.268 15.055 20.135 C 15.355 20.022 15.618 19.868 15.832 19.688 C 16.169 19.405 16.315 19.046 16.376 18.739 C 16.652 18.893 16.994 19.003 17.378 18.972 C 17.916 18.928 18.338 18.624 18.609 18.206 C 19.585 18.336 20.471 18.242 21.408 18.142 C 21.988 18.08 22.588 18.016 23.24 18.002 C 23.295 18.001 23.31 18.075 23.259 18.096 L 21 18.999 C 17.72 19.937 20.413 21.783 22.004 22.873 C 22.11 22.946 22.212 23.016 22.306 23.082 C 20.612 22.225 19.483 21.939 16.659 21.653 C 14.532 21.438 14.408 22.895 14.637 23.781 C 14.649 23.829 14.59 23.868 14.551 23.839 C 11.809 21.809 8.883 22.869 7.554 23.784 C 7.508 23.815 7.443 23.756 7.468 23.707 C 7.964 22.705 7.604 22.116 7.341 21.939 C 6.929 21.521 3.025 21.549 0.632 21.629 C 0.571 21.631 0.558 21.529 0.618 21.514 C 2.533 21.035 3.809 20.284 4.236 19.939 C 4.641 19.529 2.5 18.628 1.036 18.103 C 0.979 18.083 1.003 17.992 1.063 17.999 C 4.395 18.381 5.558 18.093 6.463 17.824 C 6.457 18.106 6.478 18.389 6.527 18.668" transform="matrix(1 0 0 1 0 0)" fill="#FFFFFF" stroke="none" />
  <path d="M 7.158 6.012 L 5.043 2.165 L 6.062 1.071 L 7.799 1.072 L 6.725 2.552 L 7.158 6.012" transform="matrix(1 0 0 1 0 0)" fill="#FFFFFF" stroke="none" />
  <path d="M 19 7.849 L 19 14 L 20.475 9.5 L 22 10.5 L 22.7 1.277 L 20.475 7.1 L 19 7.849" transform="matrix(1 0 0 1 0 0)" fill="#FFFFFF" stroke="none" />
  <path d="M 4.5 14 L 2.056 9.553 L 3.234 8.288 L 1 3.184 L 5.241 8.288 L 4 10 L 4.5 14" transform="matrix(1 0 0 1 0 0)" fill="#FFFFFF" stroke="none" />
</svg>
