<?xml version="1.0" encoding="UTF-8"?>
<!-- Reconstructed from Amplitude.Graphics.Svg.SvgAsset and recolored from static UIMapper.Color metadata for EWShop; not original source SVG. Live UI state/material colors are not included. -->
<svg xmlns="http://www.w3.org/2000/svg" width="26" height="26" viewBox="0 0 26 26">
  <path d="M 10.406 3.396 L 12.441 4.005 L 12.441 10.734 L 5.098 8.186 C 5.291 7.758 5.485 7.327 5.564 6.821 C 5.829 5.163 5.359 3.698 4.872 2.18 C 4.789 1.92 4.705 1.658 4.624 1.393 L 6.679 1.052 L 9.926 3.093 C 9.981 3.217 10.365 3.321 10.406 3.396 M 15.574 3.396 L 13.755 3.869 L 13.755 10.725 L 20.794 8.21 C 19.922 6.013 20.532 3.783 21.239 1.496 C 21.22 1.399 20.312 1.182 19.384 1 L 15.944 3.163 L 15.574 3.396 M 13.319 12.276 L 21.244 9.444 C 21.017 9.864 20.734 10.286 20.446 10.714 C 19.786 11.698 19.102 14.204 19.018 15.321 C 19.003 15.522 19.037 15.887 19.069 16.223 C 19.1 16.563 19.129 16.872 19.101 16.948 C 19.066 17.043 17.932 18.308 17.758 18.468 C 16.978 19.179 14.142 20.328 13.114 20.411 C 11.781 20.518 8.719 18.969 7.757 17.958 C 6.894 17.052 6.911 16.9 6.97 16.369 C 6.993 16.161 7.023 15.893 7.008 15.498 C 6.966 14.369 6.098 11.59 5.348 10.475 C 5.098 10.102 4.86 9.749 4.671 9.428 L 12.882 12.278 L 13.101 12.354 L 13.319 12.276" transform="matrix(1 0 0 1 0 0)" fill="#FFFFFF" stroke="none" />
  <path d="M 6.232 18.403 C 7.23 19.549 8.04 20.194 9.448 20.777 C 11.506 21.627 12.619 21.956 14.788 21.367 C 16.799 20.819 18.47 20.064 19.786 18.405 L 20.659 20.013 C 20.657 20.462 17.887 23.23 17.319 23.559 C 16.567 23.998 13.663 25.04 12.863 24.999 C 12.14 24.963 9.97 24.196 9.253 23.852 C 7.548 23.035 6.515 21.546 5.322 20.145 L 6.232 18.403" transform="matrix(1 0 0 1 0 0)" fill="#FFFFFF" stroke="none" />
  <path d="M 3.434 2.237 C 4.174 4.521 4.952 6.879 3.016 8.829 C 2.58 8.27 0.423 7.518 0.395 6.904 C 0.344 5.817 2.231 2.659 3.434 2.237" transform="matrix(1 0 0 1 0 0)" fill="#FFFFFF" stroke="none" />
  <path d="M 22.585 2.237 C 24.193 3.358 25.074 5.087 25.607 6.932 C 25.629 7.335 23.283 8.499 22.834 8.826 C 21.162 6.804 21.68 4.465 22.585 2.237" transform="matrix(1 0 0 1 0 0)" fill="#FFFFFF" stroke="none" />
</svg>
