<?xml version="1.0" encoding="UTF-8"?>
<!-- Reconstructed from Amplitude.Graphics.Svg.SvgAsset and recolored from static UIMapper.Color metadata for EWShop; not original source SVG. Live UI state/material colors are not included. -->
<svg xmlns="http://www.w3.org/2000/svg" width="32" height="32" viewBox="0 0 32 32">
  <path d="M 30.975 23.159 C 30.463 23.159 29.476 23.159 28.576 23.146 C 28.001 23.146 27.464 23.121 27.114 23.096 C 27.539 22.396 27.876 21.67 28.101 20.97 C 28.526 19.694 28.676 18.194 27.826 17.105 C 26.927 15.967 25.34 15.78 23.453 16.218 C 21.891 16.58 19.905 17.406 17.406 18.794 C 16.818 19.119 16.194 19.482 15.544 19.882 L 15.507 19.857 C 14.944 19.557 14.394 19.282 13.87 19.031 C 11.658 17.956 9.821 17.268 8.322 16.918 C 6.523 16.493 5.023 16.505 3.974 17.118 C 2.799 17.806 2.499 19.031 2.662 20.207 C 2.824 21.358 3.424 22.633 4.286 23.859 C 4.399 24.009 4.511 24.172 4.623 24.322 C 4.011 24.434 3.436 24.509 2.874 24.572 C 2.212 24.634 1.587 24.672 1 24.672 L 1 26.623 C 1.987 26.623 3.049 26.548 4.211 26.373 C 4.861 26.273 5.536 26.148 6.223 25.985 C 7.435 27.048 8.834 27.923 10.121 28.636 C 11.846 29.587 13.507 30.275 14.457 30.675 C 14.657 30.762 14.832 30.825 14.957 30.887 L 15.207 31 L 15.482 30.963 C 18.38 30.587 22.404 28.849 25.74 24.972 L 25.777 24.934 C 26.177 24.972 26.677 25.01 27.227 25.035 C 28.551 25.097 30.113 25.122 31 25.11 L 30.975 23.159 M 26.252 20.357 C 25.99 21.145 25.527 22.02 24.928 22.871 C 24.44 22.808 23.94 22.721 23.441 22.621 C 22.204 22.383 20.954 22.071 19.68 21.645 L 17.281 22.846 C 18.855 23.484 20.442 23.959 21.991 24.309 C 22.479 24.422 22.953 24.509 23.441 24.597 C 20.717 27.361 17.681 28.636 15.507 28.987 C 15.419 28.949 15.319 28.911 15.207 28.861 C 14.245 28.461 12.72 27.811 11.096 26.923 C 10.234 26.448 9.359 25.91 8.572 25.335 C 8.409 25.197 8.247 25.06 8.097 24.934 C 7.31 24.272 6.523 23.609 5.923 22.758 C 5.161 21.67 4.736 20.682 4.636 19.957 C 4.536 19.257 4.736 18.969 4.998 18.819 C 5.373 18.594 6.248 18.444 7.91 18.844 C 9.034 19.106 10.421 19.594 12.133 20.382 C 12.595 20.595 13.07 20.82 13.57 21.07 C 13.132 21.308 12.708 21.52 12.283 21.733 C 10.946 22.396 9.659 22.921 8.459 23.334 L 10.184 24.784 C 11.558 24.259 13.008 23.596 14.519 22.783 C 14.907 22.571 15.294 22.358 15.681 22.133 L 17.731 20.907 C 18.268 20.595 18.78 20.307 19.267 20.057 C 21.254 19.006 22.791 18.406 23.953 18.131 C 25.627 17.743 26.177 18.106 26.339 18.319 C 26.552 18.594 26.664 19.244 26.302 20.357 L 26.252 20.357" transform="matrix(1 0 0 1 0 0)" fill="#FFFFFF" stroke="none" />
  <path d="M 15.736 1 C 17.987 1 19.813 2.815 19.813 5.054 C 19.812 6.538 19.01 7.836 17.814 8.542 C 19.071 8.845 20.398 9.439 21.773 10.416 C 22.854 11.185 23.52 12.344 23.816 13.617 C 23.579 13.656 23.345 13.702 23.114 13.756 C 21.36 14.163 19.234 15.062 16.679 16.481 C 16.298 16.692 15.903 16.92 15.495 17.161 C 15.164 16.993 14.841 16.833 14.525 16.683 C 12.54 15.717 10.801 15.032 9.295 14.618 L 8.663 14.457 C 8.445 14.406 8.226 14.36 8.007 14.318 C 8.069 12.912 8.535 11.529 9.619 10.624 C 10.689 9.731 12.061 8.93 13.656 8.54 C 12.462 7.833 11.661 6.537 11.661 5.054 C 11.661 2.815 13.486 1 15.736 1" transform="matrix(1 0 0 1 0 0)" fill="#FFFFFF" stroke="none" />
</svg>
