<?xml version="1.0" encoding="UTF-8"?>
<!-- Reconstructed from Amplitude.Graphics.Svg.SvgAsset and recolored from static UIMapper.Color metadata for EWShop; not original source SVG. Live UI state/material colors are not included. -->
<svg xmlns="http://www.w3.org/2000/svg" width="32" height="32" viewBox="0 0 32 32">
  <path d="M 11.928 4.801 C 14.817 4.801 17.159 7.109 17.159 9.958 C 17.159 11.764 16.218 13.354 14.792 14.275 C 14.721 14.321 14.738 14.433 14.819 14.454 C 16.366 14.855 17.993 15.597 19.675 16.782 C 21.633 18.163 22.533 20.529 22.533 22.903 L 22.533 26.031 C 22.533 26.07 22.509 26.106 22.472 26.119 L 11.882 29.994 C 11.86 30.002 11.836 30.002 11.815 29.993 L 2.059 26.12 C 2.023 26.106 1.999 26.071 1.999 26.033 L 1.999 22.17 C 1.999 20.238 2.577 18.289 4.077 17.047 C 5.4 15.952 7.083 14.966 9.034 14.451 C 9.115 14.43 9.132 14.319 9.062 14.273 C 7.638 13.352 6.697 11.763 6.697 9.958 C 6.697 7.11 9.039 4.801 11.928 4.801 M 20.359 2 C 22.986 2 25.114 4.053 25.114 6.585 C 25.114 8.264 24.179 9.732 22.783 10.531 C 24.25 10.874 25.799 11.546 27.402 12.65 C 29.183 13.878 30 15.981 30 18.092 L 30 20.93 L 25.326 22.602 C 25.252 19.889 24.178 17.016 21.684 15.257 C 20.754 14.602 19.829 14.061 18.911 13.628 C 19.573 12.562 19.959 11.307 19.959 9.959 C 19.959 7.38 18.562 5.142 16.49 3.921 C 17.353 2.758 18.764 2 20.359 2" transform="matrix(1 0 0 1 0 0)" fill="#FFFFFF" stroke="none" />
</svg>
