<?xml version="1.0" encoding="UTF-8"?>
<!-- Reconstructed from Amplitude.Graphics.Svg.SvgAsset and recolored from static UIMapper.Color metadata for EWShop; not original source SVG. Live UI state/material colors are not included. -->
<svg xmlns="http://www.w3.org/2000/svg" width="32" height="32" viewBox="0 0 32 32">
  <path d="M 16.137 11 C 18.388 11 20.213 12.833 20.213 15.094 C 20.213 16.527 19.48 17.789 18.369 18.52 C 18.314 18.557 18.327 18.645 18.39 18.662 C 19.595 18.98 20.863 19.569 22.174 20.51 C 23.7 21.606 24.4 23.483 24.4 25.368 L 24.4 27.85 C 24.4 27.881 24.381 27.909 24.353 27.92 L 16.101 30.996 C 16.084 31.002 16.065 31.002 16.049 30.995 L 8.446 27.921 C 8.419 27.909 8.4 27.882 8.4 27.852 L 8.4 24.786 C 8.4 23.253 8.85 21.705 10.019 20.719 C 11.05 19.85 12.362 19.068 13.882 18.66 C 13.945 18.643 13.958 18.555 13.903 18.518 C 12.794 17.787 12.061 16.526 12.061 15.094 C 12.061 12.833 13.886 11 16.137 11" transform="matrix(1 0 0 1 0 0)" fill="none" stroke="none" />
  <path d="M 8 18 L 10.307 18.644 C 9.961 18.867 9.634 19.102 9.329 19.345 L 6 20 L 4.5 17.5 L 1 18 L 6 15 L 8 18 M 31 18 L 27.5 17.5 L 26 20 L 23.275 19.464 C 23.201 19.405 23.126 19.347 23.048 19.291 C 22.681 19.028 22.315 18.789 21.95 18.571 L 24 18 L 26 15 L 31 18 M 4.5 6.5 L 9 9 L 6.957 9.299 L 10.86 13.284 C 10.746 13.619 10.662 13.968 10.613 14.328 L 6.5 11.5 L 6 13 L 3 8 L 1 2 L 4.5 6.5 M 29 8 L 26 13 L 25.5 11.5 L 21.633 14.158 C 21.57 13.785 21.471 13.425 21.338 13.08 L 25.043 9.299 L 23 9 L 27.5 6.5 L 31 2 L 29 8 M 14.5 7 L 14.682 9.693 C 14.245 9.811 13.829 9.981 13.442 10.195 L 13 9 L 12 11 L 9 1 L 14.5 7 M 20 11 L 19 9 L 18.601 10.075 C 18.199 9.877 17.771 9.724 17.322 9.627 L 17.5 7 L 23 1 L 20 11" transform="matrix(1 0 0 1 0 0)" fill="none" stroke="none" />
</svg>
