<?xml version="1.0" encoding="UTF-8"?>
<!-- Reconstructed from Amplitude.Graphics.Svg.SvgAsset and recolored from static UIMapper.Color metadata for EWShop; not original source SVG. Live UI state/material colors are not included. -->
<svg xmlns="http://www.w3.org/2000/svg" width="25" height="25" viewBox="0 0 25 25">
  <path d="M 18.47 11.7 C 18.33 11.856 17.52 13.479 17.52 14.173 C 17.52 15.073 17.72 15.884 18.06 16.5 L 16.06 16.5 C 16.38 16.07 17.28 15.405 16.79 15.004 C 16.77 14.995 16.62 14.887 16.57 14.838 C 16.54 14.799 16.43 14.447 16.43 14.203 C 16.43 14.203 17.5 11.915 17.65 11.651 C 17.85 11.308 17.43 10.448 17.39 10.419 C 17.31 10.35 17.23 10.321 17.15 10.35 L 13.3 11.015 C 12.68 12.032 13.25 14.3 13.25 14.32 L 12.5 15.161 L 11.74 14.32 C 11.74 14.32 12.26 12.11 11.76 11.103 C 11.74 11.074 7.84 10.35 7.84 10.35 C 7.76 10.321 7.68 10.35 7.59 10.419 C 7.56 10.448 7.14 11.308 7.34 11.651 C 7.49 11.915 8.56 14.193 8.56 14.203 C 8.56 14.447 8.45 14.799 8.42 14.838 C 8.37 14.887 8.22 14.995 8.2 15.004 C 7.7 15.405 8.61 16.07 8.93 16.5 L 6.93 16.5 C 6.99 16.383 7.3 15.239 7.33 13.841 C 7.36 12.677 6.52 11.876 6.52 11.7 C 6.52 7.084 9.1 5.276 9.12 5.256 L 11.35 7.485 L 10.66 2.518 C 10.66 2.518 11.45 2 12.5 2 C 13.55 2 14.33 2.528 14.33 2.528 L 13.64 7.476 L 15.86 5.256 C 18.55 7.036 18.47 11.7 18.47 11.7" transform="matrix(1 0 0 1 0 0)" fill="none" stroke="none" />
  <path d="M 25 16.012 L 23 17.644 L 17 17.644 L 20 18.622 L 19.5 19.923 L 17 19.923 L 16 21.878 L 14 21.878 L 12.5 24 L 11 21.878 L 9 21.878 L 8 19.923 L 5.5 19.923 L 5 18.622 L 8 17.644 L 2 17.644 L 0 16.012 L 8.5 16.012 L 12.5 20.196 L 16.5 16.012 L 25 16.012" transform="matrix(1 0 0 1 0 0)" fill="none" stroke="none" />
</svg>
