<?xml version="1.0" encoding="UTF-8"?>
<!-- Reconstructed from Amplitude.Graphics.Svg.SvgAsset and recolored from static UIMapper.Color metadata for EWShop; not original source SVG. Live UI state/material colors are not included. -->
<svg xmlns="http://www.w3.org/2000/svg" width="32" height="32" viewBox="0 0 32 32">
  <path d="M 12.661 8.029 L 11.743 9.395 C 11.655 9.525 11.612 9.68 11.619 9.837 L 11.958 17.163 C 11.962 17.247 12.036 17.31 12.12 17.301 L 12.73 17.237 C 12.804 17.229 12.86 17.167 12.861 17.092 L 12.929 8.112 C 12.93 7.967 12.742 7.908 12.661 8.029" transform="matrix(1 0 0 1 0 0)" fill="#FFFFFF" stroke="none" />
  <path d="M 23.416 21.564 L 22.261 20.392 C 22.151 20.28 22.007 20.206 21.852 20.182 L 14.607 19.053 C 14.523 19.04 14.446 19.1 14.438 19.184 L 14.38 19.795 C 14.373 19.869 14.422 19.936 14.495 19.952 L 23.282 21.81 C 23.424 21.84 23.518 21.667 23.416 21.564" transform="matrix(1 0 0 1 0 0)" fill="#FFFFFF" stroke="none" />
  <path d="M 28.425 8.015 L 30.782 0 L 23.366 3.615 C 24.743 4.867 22.959 7.044 21.895 7.976 L 23.53 7.4 L 28.341 3.032 L 23.511 9.245 L 23.93 10.434 C 25.092 8.42 27.411 7.982 28.425 8.015" transform="matrix(1 0 0 1 0 0)" fill="#FFFFFF" stroke="none" />
  <path d="M 23.004 9.718 L 22.97 8.474 L 21.924 8.697 L 9.187 22.52 L 8.371 25.079 L 23.004 9.718" transform="matrix(1 0 0 1 0 0)" fill="#FFFFFF" stroke="none" />
  <path d="M 13.987 22.848 L 13.388 20.656 C 13.359 20.55 13.222 20.523 13.155 20.609 L 9.963 24.715 C 9.855 24.854 9.807 25.031 9.829 25.205 L 10.158 27.837 C 10.173 27.954 10.323 27.995 10.395 27.902 L 12.312 25.435 L 12.212 24.63 L 13.017 24.529 L 13.87 23.431 C 13.999 23.266 14.042 23.05 13.987 22.848" transform="matrix(1 0 0 1 0 0)" fill="#FFFFFF" stroke="none" />
  <path d="M 9.524 18.543 L 11.783 18.787 C 11.892 18.799 11.941 18.929 11.866 19.009 L 8.318 22.811 C 8.198 22.94 8.031 23.016 7.855 23.022 L 5.205 23.114 C 5.087 23.118 5.023 22.977 5.103 22.89 L 7.235 20.606 L 9.216 20.117 L 8.018 19.767 L 8.967 18.75 C 9.109 18.598 9.316 18.521 9.524 18.543" transform="matrix(1 0 0 1 0 0)" fill="#FFFFFF" stroke="none" />
  <path d="M 0.629 7.117 C 5.521 4.092 12.76 5.597 18.158 10.733 L 20.129 8.515 C 14.294 3.173 6.448 1.99 1.688 6.06 C 1.305 6.388 0.952 6.742 0.629 7.117" transform="matrix(1 0 0 1 0 0)" fill="#FFFFFF" stroke="none" />
  <path d="M 21.909 32 C 25.643 27.653 25.296 20.307 21.103 14.19 L 23.329 12.187 C 27.926 18.844 27.958 26.978 23.118 31.117 C 22.734 31.446 22.33 31.74 21.909 32" transform="matrix(1 0 0 1 0 0)" fill="#FFFFFF" stroke="none" />
</svg>
