<?xml version="1.0" encoding="UTF-8"?>
<!-- Reconstructed from Amplitude.Graphics.Svg.SvgAsset and recolored from static UIMapper.Color metadata for EWShop; not original source SVG. Live UI state/material colors are not included. -->
<svg xmlns="http://www.w3.org/2000/svg" width="24" height="24" viewBox="0 0 24 24">
  <path d="M 21.33 13.058 L 17.11 9.15 L 21.59 4.918 C 22.27 4.279 21.83 3.095 20.92 3.095 L 15.49 3.095 L 16.13 1.754 C 16.3 1.409 16.05 1 15.68 1 L 8.26 1 C 7.89 1 7.64 1.409 7.81 1.754 L 8.45 3.095 L 3.01 3.095 C 2.09 3.095 1.65 4.279 2.33 4.918 L 6.99 9.318 L 3.44 13.027 C 2.61 13.886 2.66 15.3 3.55 16.096 L 4.82 17.238 L 4.49 16.473 C 4.15 15.688 4.3 14.766 4.88 14.148 L 8.27 10.512 L 10.74 12.849 L 6.88 16.431 C 6 17.249 5.65 18.527 6.29 19.553 C 7.12 20.873 8.65 22.508 11.25 22.906 C 11.37 22.937 11.5 22.958 11.63 22.979 C 11.58 22.979 11.52 22.99 11.47 23 C 11.58 23 11.68 23 11.79 23 C 11.85 23 11.91 23 11.98 23 C 12.05 23 12.1 23 12.17 23 C 12.27 23 12.38 23 12.49 23 C 12.44 23 12.38 22.99 12.33 22.979 C 12.46 22.969 12.59 22.937 12.71 22.906 C 15.31 22.508 16.83 20.873 17.67 19.553 C 18.31 18.527 17.96 17.249 17.08 16.431 L 13.22 12.849 L 15.93 10.282 L 20.03 14.148 C 20.68 14.755 20.87 15.74 20.51 16.568 L 20.22 17.238 L 21.35 16.191 C 22.25 15.352 22.24 13.896 21.35 13.058 L 21.33 13.058 M 8.12 8.145 L 5.92 6.102 C 5.57 5.777 5.79 5.19 6.25 5.19 L 9.45 5.19 L 9.63 5.568 C 9.82 5.966 9.75 6.458 9.44 6.772 L 8.12 8.145 M 11.96 21.429 C 11.13 21.429 10.45 20.727 10.45 19.857 C 10.45 18.988 11.12 18.286 11.96 18.286 C 12.8 18.286 13.47 18.988 13.47 19.857 C 13.47 20.727 12.8 21.429 11.96 21.429 M 15.32 17.186 C 16.05 17.877 16.43 18.914 16 19.826 C 15.65 20.57 15.07 21.429 14.09 22.078 C 14.64 21.512 14.98 20.716 14.98 19.847 C 14.98 18.108 13.63 16.704 11.97 16.704 C 10.31 16.704 8.96 18.108 8.96 19.847 C 8.96 20.716 9.3 21.502 9.85 22.078 C 8.87 21.429 8.29 20.57 7.94 19.826 C 7.51 18.904 7.89 17.867 8.62 17.186 L 11.98 14.011 L 15.34 17.186 L 15.32 17.186 M 11.96 11.707 L 9.38 9.318 L 11.32 7.233 C 11.59 6.95 11.67 6.531 11.55 6.154 L 10.6 3.368 C 10.48 3.022 10.73 2.666 11.07 2.666 L 12.91 2.666 C 13.26 2.666 13.5 3.032 13.38 3.378 L 12.4 6.102 C 12.26 6.5 12.36 6.961 12.67 7.244 L 14.71 9.161 L 11.96 11.707 M 14.54 6.772 C 14.2 6.458 14.11 5.945 14.31 5.526 L 14.47 5.201 L 17.67 5.201 C 18.13 5.201 18.35 5.798 18 6.112 L 15.91 8.05 L 14.54 6.783 L 14.54 6.772" transform="matrix(1 0 0 1 0 0)" fill="#FFFFFF" stroke="none" />
</svg>
