<?xml version="1.0" encoding="UTF-8"?>
<!-- Reconstructed from Amplitude.Graphics.Svg.SvgAsset and recolored from static UIMapper.Color metadata for EWShop; not original source SVG. Live UI state/material colors are not included. -->
<svg xmlns="http://www.w3.org/2000/svg" width="20" height="21" viewBox="0 0 20 21">
  <path d="M 9.997 17.127 C 8.612 15.742 7.455 14.557 6.526 13.573 C 5.598 12.589 4.853 11.727 4.292 10.985 C 3.731 10.244 3.332 9.586 3.097 9.011 C 2.861 8.436 2.744 7.871 2.744 7.317 C 2.744 6.195 3.135 5.242 3.918 4.459 C 4.701 3.676 5.653 3.285 6.776 3.285 C 7.275 3.285 7.76 3.368 8.231 3.534 C 8.702 3.7 9.131 3.943 9.519 4.262 L 8.127 9.104 L 10.683 9.104 L 10.081 15.735 L 12.679 7.192 L 10.143 7.192 L 11.307 3.7 C 11.584 3.562 11.878 3.458 12.19 3.389 C 12.502 3.319 12.817 3.285 13.136 3.285 C 14.258 3.285 15.211 3.676 15.994 4.459 C 16.777 5.242 17.168 6.195 17.168 7.317 C 17.168 7.885 17.04 8.467 16.784 9.063 C 16.527 9.659 16.111 10.338 15.536 11.1 C 14.961 11.862 14.22 12.728 13.313 13.698 C 12.405 14.668 11.3 15.811 9.997 17.127" transform="matrix(1 0 0 1 0 0)" fill="#FFFFFF" stroke="none" />
</svg>
