<?xml version="1.0" encoding="UTF-8"?>
<!-- Reconstructed from Amplitude.Graphics.Svg.SvgAsset and recolored from static UIMapper.Color metadata for EWShop; not original source SVG. Live UI state/material colors are not included. -->
<svg xmlns="http://www.w3.org/2000/svg" width="32" height="32" viewBox="0 0 32 32">
  <path d="M 6.699 17.989 L 4.063 10.23 C 3.89 9.721 4.064 9.158 4.494 8.836 L 5.096 8.384 C 7.535 6.556 9.554 4.228 11.018 1.555 C 11.285 1.069 11.879 0.867 12.386 1.091 C 15.176 2.318 18.195 2.935 21.243 2.9 L 21.995 2.891 C 22.533 2.885 23.013 3.225 23.186 3.734 L 23.375 4.291 L 21.599 5.882 C 21.385 5.31 20.835 4.931 20.222 4.938 L 19.656 4.945 C 17.542 4.969 15.446 4.562 13.497 3.751 L 13.93 5.027 C 15.769 5.679 17.711 6.003 19.668 5.98 L 20.234 5.974 C 20.414 5.972 20.575 6.086 20.633 6.257 L 20.761 6.633 L 9.303 16.893 C 9.271 16.811 9.241 16.728 9.213 16.645 L 7.231 10.809 C 7.173 10.638 7.231 10.45 7.375 10.341 L 7.828 10.002 C 9.379 8.839 10.712 7.415 11.768 5.798 L 11.336 4.525 C 10.287 6.335 8.883 7.916 7.207 9.173 L 6.754 9.513 C 6.251 9.89 6.048 10.547 6.25 11.142 L 8.232 16.978 C 8.307 17.198 8.392 17.414 8.486 17.625 L 7.063 18.899 C 6.926 18.604 6.804 18.3 6.699 17.989" transform="matrix(1 0 0 1 0 0)" fill="#FFFFFF" stroke="none" />
  <path d="M 14.156 24.266 L 19.807 26.022 C 19.997 26.081 20.203 26.011 20.318 25.848 L 24.63 19.739 C 26.323 17.339 26.766 14.274 25.822 11.493 L 25.759 11.309 L 23.946 13.334 C 24.079 14.544 23.913 15.768 23.462 16.897 L 22.53 16.437 C 22.775 15.8 22.915 15.128 22.948 14.449 L 16.489 21.661 L 18.616 22.322 L 21.367 18.423 L 22.308 18.886 L 19.389 23.021 C 19.174 23.327 18.786 23.459 18.428 23.348 L 15.73 22.509 L 14.156 24.266" transform="matrix(1 0 0 1 0 0)" fill="#FFFFFF" stroke="none" />
  <path d="M 1.227 20.683 C 1.356 20.565 1.484 20.446 1.613 20.327 C 2.087 20.047 2.708 20.107 3.12 20.511 C 3.482 20.866 3.579 21.387 3.414 21.833 C 3.994 22.686 5.757 24.32 8.2 23.768 C 7.697 26.227 9.574 28.155 10.439 28.717 C 10.882 28.544 11.405 28.631 11.766 28.985 C 12.174 29.385 12.249 29.996 11.989 30.473 C 11.871 30.608 11.754 30.743 11.637 30.877 C 11.153 31.238 10.466 31.203 10.021 30.767 C 9.631 30.385 9.55 29.812 9.771 29.345 L 2.801 22.513 C 2.338 22.743 1.764 22.674 1.374 22.292 C 0.931 21.858 0.881 21.174 1.227 20.683 M 30.333 1.02 C 30.38 1.004 30.423 1.019 30.459 1.053 C 30.496 1.088 30.514 1.132 30.498 1.181 C 29.096 5.694 9.795 26.788 9.795 26.788 C 9.558 27.05 8.539 24.646 9.138 23.625 C 9.138 23.625 21.911 10.334 25.252 6.539 C 25.564 6.185 25.431 6.055 25.084 6.374 C 21.359 9.793 8.335 22.839 8.335 22.839 C 7.554 23.448 5.228 22.787 5.354 22.436 C 5.354 22.436 25.851 2.517 30.333 1.02 M 4.217 30.135 C 3.826 29.769 2.606 28.56 2.246 28.162 C 2.74 27.742 3.257 27.194 3.682 26.504 C 3.573 25.976 3.721 25.405 4.127 24.991 L 7.369 28.168 C 6.963 28.582 6.395 28.741 5.865 28.643 C 5.173 29.089 4.63 29.626 4.217 30.135" transform="matrix(1 0 0 1 0 0)" fill="#FFFFFF" stroke="none" />
</svg>
