<?xml version="1.0" encoding="UTF-8"?>
<!-- Reconstructed from Amplitude.Graphics.Svg.SvgAsset and recolored from static UIMapper.Color metadata for EWShop; not original source SVG. Live UI state/material colors are not included. -->
<svg xmlns="http://www.w3.org/2000/svg" width="24" height="24" viewBox="0 0 24 24">
  <path d="M 8.21 16 C 9.11 16.21 10.04 16.37 10.93 16.45 C 10.65 16.92 10.5 17.45 10.5 18 C 10.5 18.94 10.06 19.83 9.3 20.4 L 8.5 21 L 6 23 L 6.51 21.31 C 6.67 20.77 6.9 20.26 7.2 19.79 C 7.73 18.94 8.05 17.98 8.13 16.99 L 8.13 16.981 L 8.21 16" transform="matrix(1 0 0 1 0 0)" fill="#FFFFFF" stroke="none" />
  <path d="M 16.21 15.9 C 17.51 17.07 18.25 18.74 18.25 20.49 L 18 22.99 L 17 21.65 C 16.67 21.211 16.41 20.72 16.24 20.2 C 15.92 19.24 15.32 18.39 14.51 17.77 L 14.19 17.53 C 13.78 17.22 13.41 16.85 13.09 16.45 L 13.09 16.44 C 14.11 16.35 15.18 16.15 16.21 15.9" transform="matrix(1 0 0 1 0 0)" fill="#FFFFFF" stroke="none" />
  <path d="M 4.32 10.05 C 4.21 10.18 4.15 10.32 4.15 10.45 C 4.151 11.45 7.77 12.72 12.01 12.72 C 16.25 12.72 19.69 11.52 19.86 10.52 L 21.84 9.81 C 22.58 10.22 23 10.7 23 11.22 C 23 13.02 18.07 14.72 12 14.72 C 5.93 14.72 1 13.02 1 11.22 C 1 10.56 1.67 9.98 2.81 9.51 L 4.32 10.05" transform="matrix(1 0 0 1 0 0)" fill="#FFFFFF" stroke="none" />
  <path d="M 14.01 1 C 13.36 2.29 13.17 3.77 13.45 5.19 L 13.51 5.5 L 15.33 4.34 C 15.94 3.94 16.51 3.49 17.03 2.97 L 18 2 C 18.16 3.57 17.56 5.13 16.39 6.19 L 15.5 7 C 16.65 7.32 17.86 7.38 19.04 7.17 L 19.231 7.14 C 19.74 7.05 20.26 7 20.78 7 L 23 7 L 20.4 8.5 C 19.97 8.75 19.52 8.97 19.05 9.15 L 18.62 9.32 C 17.47 9.77 16.24 10 15 10 L 15 10.77 C 13.94 10.95 12.86 11.09 12 11.09 C 11.14 11.09 10.06 10.95 9 10.77 L 9 10 L 7.8 9.4 C 7.11 9.06 6.35 8.88 5.58 8.88 L 5.58 8.87 C 4.71 8.87 3.85 8.64 3.1 8.21 L 1 7 L 3.23 7 C 3.75 7 4.26 6.93 4.76 6.8 C 5.82 6.52 6.94 6.54 7.99 6.85 L 8.51 7 L 6.92 4.42 C 6.65 3.97 6.34 3.55 6 3.15 L 5.01 2 L 5.44 2.12 C 7.44 2.69 9.21 3.88 10.51 5.5 C 10.51 3.95 11.34 2.53 12.68 1.76 L 14.01 1" transform="matrix(1 0 0 1 0 0)" fill="#FFFFFF" stroke="none" />
</svg>
