<?xml version="1.0" encoding="UTF-8"?>
<!-- Reconstructed from Amplitude.Graphics.Svg.SvgAsset and recolored from static UIMapper.Color metadata for EWShop; not original source SVG. Live UI state/material colors are not included. -->
<svg xmlns="http://www.w3.org/2000/svg" width="24" height="24" viewBox="0 0 24 24">
  <path d="M 19 6.8 C 21.44 7.44 23 8.42 23 9.5 C 23 10.47 21.74 11.61 19.71 12.5 L 19.71 12.51 C 21.74 13.4 23 14.54 23 15.51 C 23 16.6 21.44 17.57 19 18.21 L 19 23.01 L 18 21.68 L 17 19.68 L 17 17.56 C 18.75 17.2 19.86 16.66 19.86 16.05 C 19.86 14.97 16.35 14.11 12 14.11 C 7.65 14.11 4.14 14.98 4.14 16.05 C 4.14 16.65 5.26 17.19 7 17.55 L 7 19.67 L 6 21.67 L 5 23 L 5 18.2 C 2.56 17.56 1 16.58 1 15.5 C 1 14.53 2.26 13.39 4.29 12.5 C 2.26 11.61 1 10.47 1 9.5 C 1 8.41 2.56 7.44 5 6.8 L 5 1 L 6 2.56 L 7 4.89 L 7 7.46 C 5.25 7.82 4.14 8.36 4.14 8.96 C 4.14 10.03 7.65 10.9 12 10.9 C 16.35 10.9 19.86 10.05 19.86 8.96 C 19.86 8.34 18.75 7.8 17 7.45 L 17 4.89 L 18 2.56 L 19 1 L 19 6.8" transform="matrix(1 0 0 1 0 0)" fill="#FFFFFF" stroke="none" />
  <path d="M 12 16 C 13.657 16 15 17.343 15 19 C 15 20.657 13.657 22 12 22 C 10.343 22 9 20.657 9 19 C 9 17.343 10.343 16 12 16" transform="matrix(1 0 0 1 0 0)" fill="#FFFFFF" stroke="none" />
  <path d="M 12 2 C 13.657 2 15 3.343 15 5 C 15 6.657 13.657 8 12 8 C 10.343 8 9 6.657 9 5 C 9 3.343 10.343 2 12 2" transform="matrix(1 0 0 1 0 0)" fill="#FFFFFF" stroke="none" />
</svg>
