<?xml version="1.0" encoding="UTF-8"?>
<!-- Reconstructed from Amplitude.Graphics.Svg.SvgAsset and recolored from static UIMapper.Color metadata for EWShop; not original source SVG. Live UI state/material colors are not included. -->
<svg xmlns="http://www.w3.org/2000/svg" width="32" height="32" viewBox="0 0 32 32">
  <path d="M 18.23 12.887 C 19.548 11.736 19.874 9.953 18.958 8.904 C 18.042 7.855 16.231 7.937 14.914 9.088 C 13.596 10.238 13.27 12.021 14.186 13.07 C 15.101 14.119 16.912 14.037 18.23 12.887" transform="matrix(1 0 0 1 0 0)" fill="#FFFFFF" stroke="none" />
  <path d="M 7.795 24.342 C 7.27 23.817 6.045 23.467 5.498 23.357 C 5.498 22.307 4.185 20.513 3.528 19.747 C 6.154 19.222 7.467 22.591 7.795 24.342" transform="matrix(1 0 0 1 0 0)" fill="#FFFFFF" stroke="none" />
  <path d="M 8.865 28.95 C 6.71 26.308 2.916 25.432 1.23 25.326 C 2.543 22.701 5.716 24.014 7.138 24.998 C 8.714 26.836 10.42 26.858 11.077 26.639 C 14.49 24.276 16.656 25.217 17.313 25.983 C 17.624 25.801 17.648 25.359 17.353 25.151 C 13.948 22.752 11.534 22.355 10.228 22.581 C 10.115 22.6 10.023 22.441 10.104 22.361 L 10.624 21.841 C 11.124 21.341 11.803 21.049 12.508 21.115 C 14.63 21.313 16.947 22.001 17.969 22.373 C 22.17 20.535 24.752 23.138 25.518 24.67 C 27.356 26.245 28.515 26.092 29.5 25.983 C 29.5 27.821 25.737 29.702 23.22 30.249 C 20.934 26.439 13.343 27.851 9.483 29.136 C 9.259 29.211 9.014 29.133 8.865 28.95" transform="matrix(1 0 0 1 0 0)" fill="#FFFFFF" stroke="none" />
  <path d="M 21.395 4.986 C 21.273 5.416 21.418 5.871 21.712 6.208 C 21.905 6.43 22.078 6.666 22.23 6.912 C 22.459 7.284 22.838 7.554 23.274 7.574 L 25.69 7.689 L 23.541 9.222 C 23.225 9.447 23.052 9.816 23.02 10.203 C 22.996 10.507 22.945 10.81 22.868 11.109 C 22.771 11.49 22.816 11.901 23.047 12.219 L 23.719 13.144 L 22.353 12.753 C 22.244 12.722 22.128 12.766 22.064 12.859 C 21.976 12.985 21.516 13.508 21.27 13.789 C 21.206 13.861 21.157 13.917 21.131 13.947 C 22.798 11.807 22.363 7.854 20.067 6.253 C 18.22 4.965 15.308 5.408 13.537 6.769 L 13.524 6.787 L 13.521 6.782 C 13.097 7.11 12.74 7.49 12.479 7.912 C 12.498 7.879 12.533 7.813 12.579 7.729 C 12.757 7.4 13.09 6.787 13.178 6.662 C 13.251 6.556 13.253 6.414 13.178 6.31 L 12.416 5.262 L 13.405 5.541 C 13.786 5.649 14.191 5.547 14.515 5.32 C 14.719 5.178 14.931 5.05 15.15 4.938 C 15.48 4.77 15.746 4.488 15.843 4.132 L 16.523 1.644 L 17.368 3.642 C 17.548 4.067 17.966 4.334 18.424 4.402 C 18.801 4.458 19.176 4.555 19.54 4.694 C 19.958 4.852 20.435 4.832 20.797 4.569 L 21.698 3.914 L 21.395 4.986" transform="matrix(1 0 0 1 0 0)" fill="#FFFFFF" stroke="none" />
  <path d="M 12.569 17.719 C 12.92 17.442 13.396 17.403 13.82 17.546 C 14.099 17.64 14.383 17.71 14.668 17.756 C 15.099 17.826 15.493 18.073 15.679 18.468 L 16.706 20.658 L 17.303 18.087 C 17.391 17.709 17.666 17.408 18.012 17.231 C 18.284 17.093 18.544 16.93 18.792 16.745 C 19.106 16.51 19.504 16.394 19.886 16.487 L 20.997 16.755 L 20.115 15.642 C 20.045 15.553 20.041 15.429 20.102 15.334 C 20.185 15.205 20.493 14.581 20.659 14.245 C 20.701 14.159 20.734 14.092 20.752 14.057 C 19.409 16.414 15.589 17.52 13.234 16.008 C 11.338 14.792 10.638 11.932 11.22 9.775 L 11.232 9.757 L 11.226 9.755 C 11.367 9.239 11.583 8.763 11.873 8.361 C 11.849 8.391 11.802 8.449 11.742 8.524 C 11.506 8.814 11.066 9.355 10.984 9.484 C 10.914 9.592 10.784 9.648 10.658 9.618 L 9.399 9.314 L 10.035 10.122 C 10.28 10.433 10.34 10.846 10.254 11.232 C 10.2 11.475 10.163 11.72 10.143 11.965 C 10.113 12.334 9.954 12.687 9.662 12.913 L 7.621 14.49 L 9.791 14.51 C 10.253 14.514 10.659 14.799 10.896 15.195 C 11.092 15.523 11.325 15.832 11.592 16.116 C 11.898 16.442 12.06 16.891 11.956 17.325 L 11.694 18.408 L 12.569 17.719" transform="matrix(1 0 0 1 0 0)" fill="#FFFFFF" stroke="none" />
</svg>
