<?xml version="1.0" encoding="UTF-8"?>
<!-- Reconstructed from Amplitude.Graphics.Svg.SvgAsset and recolored from static UIMapper.Color metadata for EWShop; not original source SVG. Live UI state/material colors are not included. -->
<svg xmlns="http://www.w3.org/2000/svg" width="32" height="32" viewBox="0 0 32 32">
  <path d="M 23.194 12.614 C 22.335 11.604 20.74 9.041 20.604 6.43 C 20.425 3.011 4.499 9.045 8.33 18.506 C 10.801 16.222 16.208 12.633 18.143 16.476 L 11.899 21.25 C 10.461 24.024 5.144 27.863 2.666 29.435 L 4.154 31.114 C 5.738 31.209 9.227 28.241 10.774 26.745 C 15.028 22.074 18.794 20.009 20.145 19.561 C 23.644 22.155 19.111 26.849 16.407 28.871 C 25.016 34.355 33.838 19.788 30.509 18.992 C 27.846 18.355 25.708 16.253 24.971 15.282 L 26.23 14.166 L 24.184 11.858 L 23.194 12.614 M 17.991 28.264 C 19.899 29.96 24.475 29.666 28.187 23.865 C 22.943 27.792 21.781 27.895 19.573 28.091 C 19.108 28.132 18.597 28.178 17.991 28.264 M 15.113 8.159 C 8.735 10.757 7.615 15.204 8.938 17.387 C 9.132 16.808 9.269 16.313 9.394 15.863 C 9.987 13.727 10.3 12.603 15.113 8.159" transform="matrix(1 0 0 1 0 0)" fill="#FFFFFF" stroke="none" />
  <path d="M 7.566 11.681 C 7.211 12.338 6.932 12.98 6.719 13.58 C 5.838 12.867 4.35 12.112 2.314 12.141 C 3.287 11.577 5.415 10.912 7.566 11.681 M 9.099 9.404 C 7.78 8.056 5.079 7.051 0 7.825 C 1.932 6.748 6.406 5.5 10.95 7.535 C 10.244 8.128 9.63 8.76 9.099 9.404 M 18.321 4.137 C 16.339 4.523 14.652 5.166 13.224 5.967 C 10.791 3.42 6.513 1.301 0.823 4.494 C 3.504 2.027 10.625 -1.329 18.321 4.137" transform="matrix(1 0 0 1 0 0)" fill="#FFFFFF" stroke="none" />
</svg>
