<?xml version="1.0" encoding="UTF-8"?>
<!-- Reconstructed from Amplitude.Graphics.Svg.SvgAsset and recolored from static UIMapper.Color metadata for EWShop; not original source SVG. Live UI state/material colors are not included. -->
<svg xmlns="http://www.w3.org/2000/svg" width="129" height="129" viewBox="0 0 129 129">
  <path d="M 64.724 7.703 C 63.035 7.631 61.131 7.801 59.011 8.212 C 57.675 9.723 56.508 11.389 55.511 13.212 C 55.299 16.47 54.799 19.637 54.011 22.712 L 48.011 25.712 C 39.158 26.39 31.658 29.89 25.511 36.212 C 21.365 44.178 18.032 52.511 15.511 61.212 C 12.726 63.423 10.393 66.09 8.511 69.212 C 7.569 78.314 7.902 87.314 9.511 96.212 C 12.193 99.062 15.027 101.728 18.011 104.212 C 20.153 103.111 22.319 102.111 24.511 101.212 C 25.009 97.896 25.176 94.562 25.011 91.212 L 19.011 91.212 C 18.849 89.185 19.015 87.185 19.511 85.212 C 24.597 80.306 27.597 74.306 28.511 67.212 L 37.011 58.712 C 38.344 58.046 39.678 58.046 41.011 58.712 C 43.86 61.729 46.86 64.562 50.011 67.212 C 51.339 72.267 51.173 77.267 49.511 82.212 C 43.937 95.478 38.103 108.477 32.011 121.212 C 35.617 121.501 39.117 121.168 42.511 120.212 C 46.147 114.309 48.814 107.975 50.511 101.212 C 53.178 99.212 55.844 97.212 58.511 95.212 C 60.511 92.546 62.511 89.879 64.511 87.212 C 66.678 90.046 68.844 92.879 71.011 95.712 C 73.511 97.546 76.011 99.379 78.511 101.212 C 80.208 107.975 82.875 114.309 86.511 120.212 C 89.905 121.168 93.405 121.501 97.011 121.212 C 90.585 107.476 84.419 93.476 78.511 79.212 C 77.684 75.171 77.851 71.171 79.011 67.212 C 82.162 64.562 85.162 61.729 88.011 58.712 C 89.344 58.046 90.678 58.046 92.011 58.712 L 100.511 67.212 C 101.583 72.096 103.25 76.763 105.511 81.212 C 109.388 83.47 110.888 86.803 110.011 91.212 L 104.011 91.212 C 103.846 94.562 104.013 97.896 104.511 101.212 C 106.703 102.111 108.869 103.111 111.011 104.212 C 114.698 101.359 117.864 98.026 120.511 94.212 C 121.178 85.879 121.178 77.546 120.511 69.212 C 118.629 66.09 116.296 63.423 113.511 61.212 C 112.034 57.283 110.867 53.283 110.011 49.212 C 107.687 49.374 106.02 50.541 105.011 52.712 C 100.289 53.489 95.622 53.323 91.011 52.212 C 90.319 51.687 89.819 51.021 89.511 50.212 C 89.012 44.89 88.845 39.556 89.011 34.212 C 82.577 35.543 80.244 33.21 82.011 27.212 C 79.806 25.187 77.306 23.52 74.511 22.212 C 75.304 12.848 72.041 8.011 64.724 7.703 M 97.011 15.212 C 92.548 20.177 87.881 25.01 83.011 29.712 C 85.789 31.104 88.789 31.604 92.011 31.212 L 92.011 50.212 L 105.011 50.212 L 105.011 31.212 C 107.758 31.526 110.425 31.192 113.011 30.212 C 108.853 23.714 103.52 18.714 97.011 15.212" transform="matrix(1 0 0 1 0 0)" fill="#FFFFFF" stroke="none" />
</svg>
