<?xml version="1.0" encoding="UTF-8"?>
<!-- Reconstructed from Amplitude.Graphics.Svg.SvgAsset and recolored from static UIMapper.Color metadata for EWShop; not original source SVG. Live UI state/material colors are not included. -->
<svg xmlns="http://www.w3.org/2000/svg" width="26" height="26" viewBox="0 0 26 26">
  <path d="M 8.943 1.749 L 10.429 9.627 L 6.213 8.522 L 7.976 12.253 L 1.272 11.942 L 7.768 15.743 L 5.522 17.436 L 8.736 16.952 L 6.697 24.208 L 12.606 19.371 L 14.195 23.033 L 15.75 19.993 L 20.966 25.107 L 18.272 17.885 L 24.18 18.818 L 18.998 15.363 L 25.148 11.528 L 19.343 10.871 L 22.368 5.475 L 16.719 8.84 L 15.542 3.512 L 13.677 7.865 L 8.943 1.749 M 11.665 9.254 L 12.203 12.107 L 10.677 11.706 L 11.315 13.058 L 8.888 12.945 L 11.24 14.321 L 10.427 14.934 L 11.59 14.759 L 10.852 17.387 L 12.992 15.635 L 13.567 16.961 L 14.13 15.86 L 16.044 17.775 L 15.044 15.097 L 17.183 15.435 L 15.306 14.184 L 17.533 12.795 L 15.431 12.557 L 15.982 10.08 L 14.506 11.706 L 14.055 9.892 L 13.379 11.469 L 11.665 9.254" transform="matrix(1 0 0 1 0 0)" fill="#FFFFFF" stroke="none" />
  <path d="M 1.936 3.499 L 7.837 7.304 L 4.596 0.711 L 1.936 3.499 M 22.728 1.602 L 17.356 7.263 L 19.236 0.989 L 22.728 1.602 M 6.57 18.558 L 1.123 21.558 L 2.692 23.534 L 6.57 18.558 M 24.905 21.187 L 20.063 19.338 L 23.479 23.902 L 24.905 21.187" transform="matrix(1 0 0 1 0 0)" fill="#FFFFFF" stroke="none" />
</svg>
