<?xml version="1.0" encoding="UTF-8"?>
<!-- Reconstructed from Amplitude.Graphics.Svg.SvgAsset and recolored from static UIMapper.Color metadata for EWShop; not original source SVG. Live UI state/material colors are not included. -->
<svg xmlns="http://www.w3.org/2000/svg" width="25" height="25" viewBox="0 0 25 25">
  <path d="M 14.425 6.474 L 13.261 2.906 L 12.5 0.576 L 11.74 2.906 L 10.575 6.474 L 7.007 7.638 L 4.677 8.399 L 7.007 9.159 L 10.575 10.324 L 11.74 13.892 L 12.5 16.222 L 13.261 13.892 L 14.425 10.324 L 17.993 9.159 L 20.323 8.399 L 17.993 7.638 L 14.425 6.474 M 15.663 8.399 L 13.977 7.848 L 13.278 7.621 L 13.051 6.923 L 12.5 5.236 L 11.95 6.923 L 11.722 7.621 L 11.024 7.848 L 9.337 8.399 L 11.024 8.949 L 11.722 9.177 L 11.95 9.875 L 12.5 11.562 L 13.051 9.875 L 13.278 9.177 L 13.977 8.949 L 15.663 8.399 M 6.904 24.425 C 8.985 24.006 10.201 24.148 11.359 24.284 L 11.393 24.288 C 11.473 24.297 11.553 24.306 11.633 24.315 C 12.111 24.37 12.589 24.425 13.122 24.425 C 13.567 24.425 13.877 24.179 14.589 23.614 L 14.602 23.604 C 15.273 23.069 16.306 22.261 18.121 21.104 C 20.26 19.748 23.071 19.612 23.071 19.612 C 23.071 17.672 21.206 17.895 21.206 17.895 C 19.987 17.895 18.109 18.567 16.853 19.139 C 13.33 20.739 12.591 20.545 10.515 20.002 L 10.498 19.997 C 10.355 19.962 10.208 19.923 10.054 19.884 L 10.053 19.883 C 9.723 19.798 9.363 19.705 8.956 19.612 C 9.826 19.301 11.145 19.139 12.401 18.99 C 13.781 18.816 15.609 18.567 15.609 17.895 C 15.609 16.863 13.98 16.975 13.98 16.975 C 12.55 16.938 10.199 16.975 10.199 16.975 L 8.147 16.975 C 6.904 16.975 5.971 17.361 5.038 17.746 C 4.106 18.132 3.173 18.517 1.929 18.517 C 2.961 20.37 5.1 23.305 6.904 24.425" transform="matrix(1 0 0 1 0 0)" fill="#FFFFFF" stroke="none" />
</svg>
