<?xml version="1.0" encoding="UTF-8"?>
<!-- Reconstructed from Amplitude.Graphics.Svg.SvgAsset and recolored from static UIMapper.Color metadata for EWShop; not original source SVG. Live UI state/material colors are not included. -->
<svg xmlns="http://www.w3.org/2000/svg" width="25" height="25" viewBox="0 0 25 25">
  <path d="M 23.337 22.2 L 23.337 11.742 L 21.331 11.399 L 19.111 11.399 L 17.648 12.185 L 18.73 14.516 L 15.808 13.579 L 13.662 13.35 L 11.375 14.045 L 7.653 16.713 L 6.98 16.422 L 7.137 15.839 L 8.884 13.804 L 10.139 8.602 L 10.552 7.033 L 12.17 5.771 L 13.876 6.488 L 14.961 5.55 L 15.476 6.488 L 17.106 5.771 L 16.736 4.848 L 17.429 3.656 L 14.961 2.36 L 12.541 2.948 L 9.016 4.848 L 6.097 8.071 L 3.095 13.579 L 2.378 17.848 L 4.196 19.996 L 6.262 21.483 L 10.421 22.447 L 12.211 22.447 L 16.259 20.822 L 17.994 22.2 L 20.39 22.64 L 23.337 22.2" transform="matrix(1 0 0 1 0 0)" fill="#FFFFFF" stroke="none" />
</svg>
