<?xml version="1.0" encoding="UTF-8"?>
<!-- Reconstructed from Amplitude.Graphics.Svg.SvgAsset and recolored from static UIMapper.Color metadata for EWShop; not original source SVG. Live UI state/material colors are not included. -->
<svg xmlns="http://www.w3.org/2000/svg" width="24" height="24" viewBox="0 0 24 24">
  <path d="M 9.463 6.64 L 14.053 6.64 L 14.053 3.82 L 9.453 3.82 L 9.906 1 L 4.834 5.08 L 9.906 9.47 L 9.463 6.64" transform="matrix(1 0 0 1 0 0)" fill="#FFFFFF" stroke="none" />
  <path d="M 16.076 3.82 L 15.15 3.82 L 15.15 6.64 L 16.076 6.64 L 16.076 3.82" transform="matrix(1 0 0 1 0 0)" fill="#FFFFFF" stroke="none" />
  <path d="M 12.634 10.36 L 11.708 10.36 L 11.708 13.18 L 12.634 13.18 L 12.634 10.36" transform="matrix(1 0 0 1 0 0)" fill="#FFFFFF" stroke="none" />
  <path d="M 23 11.61 L 17.928 7.53 L 18.381 10.36 L 13.781 10.36 L 13.781 13.18 L 18.371 13.18 L 17.928 16 L 23 11.61" transform="matrix(1 0 0 1 0 0)" fill="#FFFFFF" stroke="none" />
  <path d="M 14.063 15.91 L 11.859 15.91 C 11.88 16.11 11.9 16.3 11.9 16.5 C 11.9 17.73 11.397 18.84 10.571 19.63 L 10.551 19.63 C 9.776 20.38 8.709 20.84 7.542 20.84 C 6.375 20.84 5.308 20.38 4.533 19.63 L 4.513 19.63 C 3.687 18.84 3.184 17.73 3.184 16.5 C 3.184 14.34 4.744 12.57 6.797 12.23 C 7.039 12.19 7.28 12.17 7.532 12.17 C 7.783 12.17 8.025 12.19 8.267 12.24 C 8.488 12.28 8.709 12.33 8.921 12.4 L 6.586 10.08 C 3.416 10.53 0.99 13.23 0.99 16.52 C 0.99 20.12 3.899 23.01 7.522 23.01 L 7.552 23.01 C 11.175 23.01 14.084 20.11 14.084 16.52 C 14.084 16.32 14.074 16.13 14.063 15.94 L 14.063 15.92 L 14.063 15.91" transform="matrix(1 0 0 1 0 0)" fill="#FFFFFF" stroke="none" />
  <path d="M 7.572 13.65 C 6.022 13.65 4.764 14.9 4.764 16.45 C 4.764 18 6.022 19.25 7.572 19.25 C 9.121 19.25 10.39 18 10.39 16.45 C 10.39 14.9 9.131 13.65 7.572 13.65" transform="matrix(1 0 0 1 0 0)" fill="#FFFFFF" stroke="none" />
</svg>
