<?xml version="1.0" encoding="UTF-8"?>
<!-- Reconstructed from Amplitude.Graphics.Svg.SvgAsset and recolored from static UIMapper.Color metadata for EWShop; not original source SVG. Live UI state/material colors are not included. -->
<svg xmlns="http://www.w3.org/2000/svg" width="24" height="24" viewBox="0 0 24 24">
  <path d="M 5.136 10.222 L 4.516 10.025 L 4.309 9.404 L 3.816 7.896 L 3.324 9.404 L 3.127 10.025 L 2.507 10.222 L 1 10.714 L 2.507 11.207 L 3.127 11.414 L 3.324 12.034 L 3.816 13.532 L 4.309 12.034 L 4.516 11.414 L 5.136 11.207 L 6.633 10.714 L 5.136 10.222" transform="matrix(1 0 0 1 0 0)" fill="#FFFFFF" stroke="none" />
  <path d="M 9.863 8.882 L 9.37 6.911 C 7.893 6.911 3.954 4.941 3.954 1 L 1.984 1 C 1.984 4.941 5.136 8.882 9.863 8.882" transform="matrix(1 0 0 1 0 0)" fill="#FFFFFF" stroke="none" />
  <path d="M 22.665 1 L 20.696 1 C 20.696 4.941 16.757 6.911 15.28 6.911 L 14.787 8.882 C 19.514 8.882 22.665 4.941 22.665 1" transform="matrix(1 0 0 1 0 0)" fill="#FFFFFF" stroke="none" />
  <path d="M 14.521 18.301 L 15.771 17.838 L 15.771 14.547 L 14.048 12.823 L 10.601 12.823 L 8.878 14.547 L 8.878 17.995 L 10.601 19.719 L 14.048 19.719 L 14.294 19.473 L 13.063 19.02 L 11.832 19.02 L 13.309 18.242 L 14.294 17.256 L 15.072 15.778 L 15.072 17.749 L 14.521 18.301 M 11.34 14.301 L 10.355 15.286 L 9.577 16.764 L 9.577 14.793 L 10.848 13.522 L 12.817 13.522 L 11.34 14.301" transform="matrix(1 0 0 1 0 0)" fill="#FFFFFF" stroke="none" />
  <path d="M 15.309 19.857 L 14.452 20.704 L 10.198 20.704 L 7.893 18.399 L 7.893 14.143 L 10.198 11.837 L 14.452 11.837 L 16.756 14.143 L 16.756 17.473 L 17.278 17.286 L 18.716 13.394 L 17.003 14.034 L 18.48 12.823 L 15.811 10.153 L 14.541 11.69 L 15.22 9.867 L 13.428 9.867 L 13.802 6.911 L 10.848 6.911 L 11.222 9.867 L 9.538 9.867 L 10.227 11.69 L 8.908 10.084 L 6.17 12.823 L 7.647 14.034 L 5.924 13.394 L 5.924 19.148 L 7.647 18.507 L 6.17 19.719 L 8.927 22.478 L 10.227 20.901 L 9.558 22.675 L 15.201 22.675 L 14.541 20.901 L 15.782 22.419 L 17.357 20.842 L 17.278 20.576 L 15.309 19.857" transform="matrix(1 0 0 1 0 0)" fill="#FFFFFF" stroke="none" />
  <path d="M 20.823 18.222 L 19.927 17.926 L 19.632 17.03 L 18.923 14.862 L 18.214 17.03 L 17.918 17.926 L 17.022 18.222 L 14.856 18.931 L 17.022 19.641 L 17.918 19.936 L 18.214 20.833 L 18.923 23 L 19.632 20.833 L 19.927 19.936 L 20.823 19.641 L 23 18.931 L 20.823 18.222" transform="matrix(1 0 0 1 0 0)" fill="#FFFFFF" stroke="none" />
</svg>
