<?xml version="1.0" encoding="UTF-8"?>
<!-- Reconstructed from Amplitude.Graphics.Svg.SvgAsset and recolored from static UIMapper.Color metadata for EWShop; not original source SVG. Live UI state/material colors are not included. -->
<svg xmlns="http://www.w3.org/2000/svg" width="24" height="24" viewBox="0 0 24 24">
  <path d="M 5.724 10.34 C 6.65 10.529 8.498 11.647 7.614 14.224 C 7.447 14.713 7.366 15.24 7.549 15.724 C 8.408 17.991 10.703 20.967 15.881 19.282 C 17.628 18.057 21.297 15.942 22 17.291 C 21.188 17.904 19.669 19.166 18.714 20.293 C 18.221 20.875 17.548 21.345 16.778 21.468 C 15.974 21.597 15.066 21.77 14.311 21.975 C 13.311 22.245 12.055 22.452 11.045 22.218 C 9.547 21.871 7.887 21.682 7.608 22.34 L 1 20.638 C 2.546 19.535 5.117 17.103 5.223 14.845 C 5.266 13.925 5.359 12.918 5.682 12.052 C 5.881 11.516 5.96 10.907 5.724 10.34" transform="matrix(1 0 0 1 0 0)" fill="#FFFFFF" stroke="none" />
  <path d="M 15.51 14.696 C 14.923 16.801 13.61 19.714 11.536 18.838 C 11.426 18.791 11.331 18.737 11.256 18.685 C 12.806 18.864 13.242 17.364 13.267 16.592 C 13.347 15.074 14.796 14.696 15.51 14.696" transform="matrix(1 0 0 1 0 0)" fill="#FFFFFF" stroke="none" />
  <path d="M 15.846 16.569 C 17.192 14.609 18.404 15.076 18.843 15.555 C 16.997 18.487 14.598 18.996 13.629 18.884 C 15.888 17.955 15.513 17.079 15.846 16.569" transform="matrix(1 0 0 1 0 0)" fill="#FFFFFF" stroke="none" />
  <path d="M 13 2 C 15.209 2 17 3.791 17 6 C 17 8.209 15.209 10 13 10 C 10.791 10 9 8.209 9 6 C 9 3.791 10.791 2 13 2" transform="matrix(1 0 0 1 0 0)" fill="#FFFFFF" stroke="none" />
  <path d="M 8.06 5.22 C 8.021 5.474 8 5.735 8 6 C 8 6.323 8.031 6.638 8.09 6.944 C 7.41 7.164 6.804 7.432 6.332 7.739 C 5.943 7.992 5.72 8.184 5.607 8.331 C 5.506 8.464 5.522 8.52 5.536 8.555 C 5.566 8.63 5.662 8.742 5.889 8.906 C 6.107 9.064 6.399 9.237 6.763 9.451 C 6.826 9.488 6.892 9.528 6.959 9.567 C 8.388 10.414 10.457 10.931 12.617 11.162 C 14.772 11.393 16.985 11.335 18.68 11.056 C 19.126 10.982 19.595 10.875 20.067 10.767 C 20.335 10.705 20.604 10.643 20.866 10.588 C 20.866 10.588 20.87 10.587 20.873 10.586 C 20.881 10.583 20.892 10.58 20.906 10.575 C 20.936 10.565 21.031 10.529 21.124 10.525 C 21.101 10.534 16.785 12.179 13.884 12.296 C 11.884 12.376 10.225 12.151 8.659 11.761 C 8.539 11.402 8.365 11.076 8.148 10.787 C 7.509 9.933 6.583 9.495 5.924 9.36 C 5.561 9.286 5.186 9.418 4.951 9.704 C 4.792 9.898 4.716 10.141 4.726 10.384 C 4.176 10.107 3.746 9.828 3.432 9.543 C 3.096 9.24 2.873 8.915 2.785 8.571 C 2.695 8.219 2.757 7.879 2.933 7.568 C 3.27 6.973 4.032 6.479 4.999 6.081 C 5.843 5.734 6.889 5.442 8.06 5.22" transform="matrix(1 0 0 1 0 0)" fill="#FFFFFF" stroke="none" />
  <path d="M 17.32 2.76 C 18.733 2.975 20.116 3.301 21.228 3.782 C 21.653 3.967 22.052 4.159 22.382 4.375 C 22.71 4.59 22.994 4.841 23.167 5.15 C 23.346 5.471 23.394 5.833 23.288 6.23 C 23.185 6.617 22.939 7.028 22.553 7.475 C 21.998 8.116 21.09 8.636 20.031 9.039 C 18.965 9.445 17.713 9.746 16.438 9.935 C 16.295 9.956 16.152 9.975 16.008 9.993 C 16.678 9.487 17.216 8.816 17.563 8.041 C 17.898 7.935 18.216 7.817 18.508 7.688 C 19.277 7.349 19.833 6.953 20.103 6.536 L 20.107 6.528 L 20.113 6.521 C 20.373 6.168 20.45 5.927 20.449 5.77 C 20.449 5.632 20.388 5.51 20.23 5.384 C 20.064 5.25 19.808 5.13 19.473 5.014 C 19.14 4.899 18.754 4.796 18.338 4.686 C 18.182 4.644 18.021 4.602 17.86 4.558 C 17.834 4.551 17.808 4.544 17.782 4.537 C 17.595 3.924 17.292 3.361 16.9 2.873 L 16.84 2.687 L 17.32 2.76" transform="matrix(1 0 0 1 0 0)" fill="#FFFFFF" stroke="none" />
  <path d="M 9.251 2.693 C 8.911 3.078 8.629 3.516 8.42 3.992 C 7.717 4.082 7.043 4.202 6.43 4.354 L 3.393 4.667 L 5.282 3.881 C 6.482 3.382 7.826 2.97 9.19 2.705 L 9.251 2.693" transform="matrix(1 0 0 1 0 0)" fill="#FFFFFF" stroke="none" />
</svg>
