<?xml version="1.0" encoding="UTF-8"?>
<!-- Reconstructed from Amplitude.Graphics.Svg.SvgAsset and recolored from static UIMapper.Color metadata for EWShop; not original source SVG. Live UI state/material colors are not included. -->
<svg xmlns="http://www.w3.org/2000/svg" width="24" height="24" viewBox="0 0 24 24">
  <path d="M 14.674 12 C 14.674 13.381 13.661 14.5 12.176 14.5 C 10.691 14.5 9.674 13.381 9.674 12 C 9.674 10.619 10.691 9.5 12.176 9.5 C 13.661 9.5 14.674 10.619 14.674 12 M 13.752 12 C 13.752 12.907 13.152 13.643 12.176 13.643 C 11.2 13.643 10.596 12.907 10.596 12 C 10.596 11.093 11.2 10.357 12.176 10.357 C 13.152 10.357 13.752 11.093 13.752 12" transform="matrix(1 0 0 1 0 0)" fill="#FFFFFF" stroke="none" />
  <path d="M 13.006 8.128 C 12.455 8.043 11.894 8.045 11.343 8.134 L 11.174 8.161 L 10.759 8.242 C 10.648 8.267 10.537 8.295 10.427 8.326 L 10.418 8.328 L 7.5 1.5 L 9.174 8.5 C 9.174 8.685 9.144 8.697 8.998 8.751 L 8.955 8.767 C 8.731 8.863 8.221 9.091 8.008 9.211 L 4 5.5 L 6.174 10.5 L 4.674 12 C 4.674 12 5.708 13.685 6.174 14 L 3 19 L 8.012 14.787 C 8.225 14.906 8.727 15.138 8.948 15.238 C 9.131 15.313 9.174 15.5 9.174 15.5 L 8.012 23 L 10.403 15.693 L 10.458 15.705 L 10.516 15.717 C 10.597 15.734 10.677 15.749 10.758 15.764 L 11.282 15.841 L 11.442 15.869 C 11.927 15.956 12.423 15.96 12.909 15.882 L 13.414 15.804 C 13.542 15.785 13.67 15.763 13.797 15.738 L 16.288 23 L 15.174 15.5 C 15.174 15.5 15.094 15.373 15.291 15.293 C 15.53 15.188 16.03 14.96 16.259 14.832 L 21 19 L 18.174 14 C 18.776 13.595 19.474 12 19.474 12 L 18.174 10.5 L 21 5.5 L 16.288 9.155 C 16.054 9.025 15.544 8.804 15.297 8.702 C 15.118 8.637 15.174 8.5 15.174 8.5 L 17 1.5 L 13.79 8.272 C 13.665 8.241 13.54 8.214 13.415 8.191 L 13.006 8.128 M 6.891 11.283 L 6.5 11.674 C 6.32 11.854 6.32 12.146 6.5 12.326 L 6.891 12.716 C 8.049 13.874 9.56 14.626 11.181 14.858 C 11.838 14.952 12.508 14.958 13.166 14.876 L 13.282 14.861 C 15.137 14.63 16.828 13.683 17.995 12.224 C 18.1 12.093 18.1 11.907 17.995 11.776 C 16.828 10.316 15.137 9.37 13.282 9.138 L 13.166 9.124 C 12.508 9.042 11.838 9.048 11.181 9.142 C 9.56 9.373 8.049 10.126 6.891 11.283" transform="matrix(1 0 0 1 0 0)" fill="#FFFFFF" stroke="none" />
  <path d="M 6.129 3.333 C 6.622 4.478 7.637 6.848 7.757 7.178 L 6.202 6.108 L 5.453 4.045 L 5.059 4.889 L 3 0.5 L 6.129 3.333" transform="matrix(1 0 0 1 0 0)" fill="#FFFFFF" stroke="none" />
  <path d="M 18.337 20.845 C 17.844 19.701 16.829 17.33 16.709 17 L 18.264 18.07 L 19.013 20.133 L 19.407 19.29 L 21.466 23.679 L 18.337 20.845" transform="matrix(1 0 0 1 0 0)" fill="#FFFFFF" stroke="none" />
  <path d="M 19.838 4.343 C 20.331 3.199 21.346 0.828 21.466 0.498 L 19.911 1.568 L 19.162 3.631 L 18.768 2.788 L 16.709 7.177 L 19.838 4.343" transform="matrix(1 0 0 1 0 0)" fill="#FFFFFF" stroke="none" />
  <path d="M 4.628 19.835 C 4.135 20.98 3.12 23.35 3 23.68 L 4.555 22.61 L 5.304 20.547 L 5.698 21.391 L 7.757 17.002 L 4.628 19.835" transform="matrix(1 0 0 1 0 0)" fill="#FFFFFF" stroke="none" />
  <path d="M 11.869 19.885 L 12 17 L 12.718 19.579 L 12 23.001 L 11.285 19.329 L 11.869 19.885" transform="matrix(1 0 0 1 0 0)" fill="#FFFFFF" stroke="none" />
  <path d="M 12.16 3.902 L 12.03 1.016 L 11.311 3.595 L 12.03 7.017 L 12.745 3.345 L 12.16 3.902" transform="matrix(1 0 0 1 0 0)" fill="#FFFFFF" stroke="none" />
  <path d="M 2.413 15.194 L 1.785 14.742 L 0.978 14.469 L 4.966 13.997 L 3.398 14.751 L 2.234 15.91 L 2.413 15.194" transform="matrix(1 0 0 1 0 0)" fill="#FFFFFF" stroke="none" />
  <path d="M 21.553 15.194 L 22.181 14.742 L 22.988 14.469 L 19 13.997 L 20.568 14.751 L 21.731 15.91 L 21.553 15.194" transform="matrix(1 0 0 1 0 0)" fill="#FFFFFF" stroke="none" />
  <path d="M 2.413 9.122 L 1.785 9.574 L 0.978 9.846 L 4.966 10.319 L 3.398 9.565 L 2.234 8.406 L 2.413 9.122" transform="matrix(1 0 0 1 0 0)" fill="#FFFFFF" stroke="none" />
  <path d="M 21.553 9.122 L 22.181 9.574 L 22.988 9.846 L 19 10.319 L 20.568 9.565 L 21.731 8.406 L 21.553 9.122" transform="matrix(1 0 0 1 0 0)" fill="#FFFFFF" stroke="none" />
</svg>
