<?xml version="1.0" encoding="UTF-8"?>
<!-- Reconstructed from Amplitude.Graphics.Svg.SvgAsset and recolored from static UIMapper.Color metadata for EWShop; not original source SVG. Live UI state/material colors are not included. -->
<svg xmlns="http://www.w3.org/2000/svg" width="24" height="24" viewBox="0 0 24 24">
  <path d="M 13.065 16.518 C 13.065 16.015 13.653 14.837 13.754 14.723 C 13.754 14.723 13.812 11.339 11.86 10.047 L 10.249 11.658 L 10.75 8.068 C 10.75 8.068 10.184 7.685 9.422 7.685 C 8.66 7.685 8.087 8.061 8.087 8.061 L 8.587 11.665 L 6.969 10.047 C 6.969 10.048 6.967 10.049 6.963 10.052 C 6.844 10.142 5.083 11.475 5.083 14.723 C 5.083 14.758 5.129 14.828 5.196 14.929 C 5.371 15.192 5.686 15.666 5.67 16.277 C 5.656 16.927 5.559 17.501 5.48 17.852 L 0.352 17.852 L 1.803 19.037 L 6.157 19.037 L 3.98 19.747 L 4.343 20.69 L 6.157 20.69 L 6.882 22.109 L 8.334 22.109 L 9.422 23.649 L 10.511 22.109 L 11.962 22.109 L 12.688 20.69 L 14.502 20.69 L 14.865 19.747 L 12.688 19.037 L 17.042 19.037 L 18.493 17.852 L 13.294 17.852 C 13.147 17.466 13.065 17.01 13.065 16.518 M 12.303 17.875 C 12.547 17.612 12.779 17.321 12.535 17.121 C 12.521 17.114 12.412 17.036 12.375 17.001 C 12.354 16.972 12.274 16.717 12.274 16.54 C 12.274 16.54 13.05 14.879 13.159 14.688 C 13.304 14.439 12.999 13.815 12.97 13.794 C 12.912 13.744 12.854 13.723 12.796 13.744 L 10.003 14.227 C 9.583 14.915 9.915 16.394 9.961 16.601 C 9.964 16.615 9.966 16.624 9.966 16.625 L 9.422 17.235 L 8.87 16.625 C 8.87 16.625 9.248 15.021 8.885 14.29 C 8.87 14.269 6.04 13.744 6.04 13.744 C 5.982 13.723 5.924 13.744 5.859 13.794 C 5.837 13.815 5.532 14.439 5.678 14.688 C 5.786 14.879 6.563 16.532 6.563 16.54 C 6.563 16.717 6.483 16.972 6.461 17.001 C 6.425 17.036 6.316 17.114 6.302 17.121 C 6.06 17.316 6.273 17.595 6.511 17.852 L 6.52 17.852 L 9.422 20.889 L 12.303 17.875" transform="matrix(1 0 0 1 0 0)" fill="#FFFFFF" stroke="none" />
  <path d="M 21.822 7.642 L 21.822 9.413 L 23.594 9.413 L 23.594 11.438 L 21.822 11.438 L 21.822 13.209 L 19.798 13.209 L 19.798 11.438 L 18.026 11.438 L 18.026 9.413 L 19.798 9.413 L 19.798 7.642 L 21.822 7.642" transform="matrix(1 0 0 1 0 0)" fill="#FFFFFF" stroke="none" />
  <path d="M 17.345 0.434 L 17.345 3.145 L 20.056 3.145 L 20.056 6.242 L 17.345 6.242 L 17.345 8.953 L 14.247 8.953 L 14.247 6.242 L 11.536 6.242 L 11.536 3.145 L 14.247 3.145 L 14.247 0.434 L 17.345 0.434" transform="matrix(1 0 0 1 0 0)" fill="#FFFFFF" stroke="none" />
</svg>
