<?xml version="1.0" encoding="UTF-8"?>
<!-- Reconstructed from Amplitude.Graphics.Svg.SvgAsset and recolored from static UIMapper.Color metadata for EWShop; not original source SVG. Live UI state/material colors are not included. -->
<svg xmlns="http://www.w3.org/2000/svg" width="24" height="24" viewBox="0 0 24 24">
  <path d="M 23.065 2.86 L 18.95 2.86 C 21.106 2.86 21.969 4.266 21.969 5.432 L 23.703 6.255 C 24.44 3.933 23.649 3.316 23.112 2.898 L 23.065 2.86" transform="matrix(1 0 0 1 0 0)" fill="#FFFFFF" stroke="none" />
  <path d="M 4.18 3.645 L 2.635 5.541 L 5.979 11.009 L 4.18 3.645" transform="matrix(1 0 0 1 0 0)" fill="#FFFFFF" stroke="none" />
  <path d="M 0.312 8.597 L 1.142 6.934 L 4.47 10.959 L 0.312 8.597" transform="matrix(1 0 0 1 0 0)" fill="#FFFFFF" stroke="none" />
  <path d="M 14.007 18.29 L 12.256 20.861 C 9.927 20.15 5.751 18.29 8.831 16.575 C 9.297 17.15 11.203 17.947 14.007 18.29" transform="matrix(1 0 0 1 0 0)" fill="#FFFFFF" stroke="none" />
  <path d="M 11.933 15.227 C 12.657 15.423 13.475 15.556 14.395 15.589 L 14.067 5.938 C 12.661 5.646 11.6 4.438 11.6 3.829 C 11.6 3.126 12.989 2.56 14.706 2.56 C 16.422 2.56 17.811 3.126 17.811 3.829 C 17.811 4.421 16.811 5.578 15.456 5.912 L 15.128 15.598 C 16.566 15.568 17.696 15.296 18.586 14.914 L 19.174 14.628 C 19.32 14.548 19.458 14.465 19.588 14.381 C 19.623 14.226 19.683 14.089 19.761 13.952 C 20.399 12.863 21.814 10.146 21.641 7.275 C 21.495 4.806 20.606 3.829 20.183 3.649 L 18.355 3.469 C 18.243 2.938 17.328 1.935 14.619 2.003 C 11.911 1.935 10.996 2.938 10.876 3.461 L 9.047 3.641 C 8.914 3.697 8.736 3.831 8.55 4.065 L 12.848 12.838 C 13.233 13.624 12.965 14.573 12.226 15.041 L 11.933 15.227 M 20.899 7.421 C 20.805 5.921 20.382 4.729 19.951 4.755 C 19.519 4.781 19.252 6.015 19.347 7.515 C 19.442 9.015 19.864 10.206 20.296 10.181 C 20.727 10.155 20.994 8.921 20.899 7.421" transform="matrix(1 0 0 1 0 0)" fill="#FFFFFF" stroke="none" />
  <path d="M 17.28 16.219 L 16.199 17.3 C 15.751 17.361 15.305 17.402 14.886 17.424 L 14.61 17.424 C 14.515 17.424 14.421 17.424 14.334 17.416 C 12.747 17.347 10.754 16.996 9.78 16.344 C 9.503 16.164 9.443 15.916 9.486 15.676 C 9.499 15.616 9.512 15.558 9.525 15.5 C 9.538 15.442 9.551 15.384 9.564 15.324 C 9.568 15.303 9.573 15.283 9.577 15.264 C 9.581 15.245 9.585 15.226 9.59 15.204 C 10.892 15.916 12.618 16.456 14.869 16.456 C 15.77 16.456 16.57 16.369 17.28 16.219" transform="matrix(1 0 0 1 0 0)" fill="#FFFFFF" stroke="none" />
  <path d="M 0.857 18.024 L 7.536 18.943 L 6.156 16.857 L 11.309 13.593 L 5.699 2.144 L 7.591 12.397 L 4.895 14.401 L 3.887 12.435 L 0.857 18.024" transform="matrix(1 0 0 1 0 0)" fill="#FFFFFF" stroke="none" />
  <path d="M 23.001 19.385 L 19.084 15.771 L 15.291 19.385 L 17.055 19.385 L 19.084 17.646 L 21.113 19.385 L 23.001 19.385" transform="matrix(1 0 0 1 0 0)" fill="#FFFFFF" stroke="none" />
  <path d="M 23.001 23 L 19.084 19.385 L 15.291 23 L 17.055 23 L 19.084 21.261 L 21.113 23 L 23.001 23" transform="matrix(1 0 0 1 0 0)" fill="#FFFFFF" stroke="none" />
</svg>
