<?xml version="1.0" encoding="UTF-8"?>
<!-- Reconstructed from Amplitude.Graphics.Svg.SvgAsset and recolored from static UIMapper.Color metadata for EWShop; not original source SVG. Live UI state/material colors are not included. -->
<svg xmlns="http://www.w3.org/2000/svg" width="24" height="24" viewBox="0 0 24 24">
  <path d="M 5.263 6.768 L 4.532 3 L 3.802 6.768 L 0.04 7.5 L 3.802 8.232 L 4.532 12 L 5.263 8.232 L 9.025 7.5 L 5.263 6.768" transform="matrix(1 0 0 1 0 0)" fill="#FFFFFF" stroke="none" />
  <path d="M 18.504 3.27 C 18.728 3.242 18.904 3.361 19.04 3.524 L 22.821 8.833 C 22.898 8.992 22.806 9.219 22.697 9.347 C 22.64 9.413 21.744 10.063 21.675 10.085 C 21.527 10.133 21.415 10.099 21.318 9.976 L 17.298 4.298 C 17.153 3.952 18.263 3.301 18.504 3.27" transform="matrix(1 0 0 1 0 0)" fill="#FFFFFF" stroke="none" />
  <path d="M 20.88 9.943 L 17.153 4.691 C 16.972 4.722 16.822 4.812 16.67 4.903 L 16.618 4.933 C 15.784 5.426 14.97 6.006 14.155 6.586 C 13.351 7.158 12.546 7.732 11.718 8.224 C 11.373 8.533 11.115 8.886 11.324 9.364 L 14.232 13.611 C 14.536 13.951 15.01 13.942 15.384 13.727 C 16.184 13.125 17.056 12.577 17.926 12.029 C 18.815 11.47 19.703 10.912 20.512 10.298 C 20.526 10.287 20.544 10.274 20.563 10.26 C 20.678 10.177 20.862 10.043 20.88 9.943" transform="matrix(1 0 0 1 0 0)" fill="#FFFFFF" stroke="none" />
  <path d="M 6.516 18.769 L 9.618 16.739 L 13.149 14.458 L 13.866 13.999 L 10.937 9.646 L 3.649 14.469 C 3.251 14.806 3.051 15.205 3.262 15.728 C 3.578 16.125 3.87 16.567 4.162 17.01 C 4.486 17.502 4.811 17.995 5.17 18.424 C 5.549 18.879 5.944 19.044 6.516 18.769" transform="matrix(1 0 0 1 0 0)" fill="#FFFFFF" stroke="none" />
  <path d="M 4.904 18.6 L 3.24 16.117 L 0.026 18.493 C -0.004 18.56 -0.002 18.632 0.003 18.703 C 0.02 18.955 0.648 19.89 0.836 20.133 C 0.855 20.157 0.872 20.18 0.89 20.203 C 1.084 20.459 1.247 20.674 1.63 20.511 L 4.904 18.6" transform="matrix(1 0 0 1 0 0)" fill="#FFFFFF" stroke="none" />
  <path d="M 12.089 2.931 L 11.521 0 L 10.953 2.931 L 8.027 3.5 L 10.953 4.069 L 11.521 7 L 12.089 4.069 L 15.015 3.5 L 12.089 2.931" transform="matrix(1 0 0 1 0 0)" fill="#FFFFFF" stroke="none" />
  <path d="M 23.8 18.592 L 19.408 13 L 15.015 18.592 L 17.881 18.592 L 17.881 24 L 20.934 24 L 20.934 18.592 L 23.8 18.592" transform="matrix(1 0 0 1 0 0)" fill="#FFFFFF" stroke="none" />
</svg>
