<?xml version="1.0" encoding="UTF-8"?>
<!-- Reconstructed from Amplitude.Graphics.Svg.SvgAsset and recolored from static UIMapper.Color metadata for EWShop; not original source SVG. Live UI state/material colors are not included. -->
<svg xmlns="http://www.w3.org/2000/svg" width="24" height="24" viewBox="0 0 24 24">
  <path d="M 7 7 L 7 5.15 L 1 1 L 5.15 7 L 7 7" transform="matrix(1 0 0 1 0 0)" fill="#FFFFFF" stroke="none" />
  <path d="M 23 1 L 17 5.15 L 17 7 L 18.85 7 L 23 1" transform="matrix(1 0 0 1 0 0)" fill="#FFFFFF" stroke="none" />
  <path d="M 1 23 L 7 18.85 L 7 17 L 5.15 17 L 1 23" transform="matrix(1 0 0 1 0 0)" fill="#FFFFFF" stroke="none" />
  <path d="M 17 17 L 17 18.85 L 23 23 L 18.85 17 L 17 17" transform="matrix(1 0 0 1 0 0)" fill="#FFFFFF" stroke="none" />
  <path d="M 12 11 C 11.42 11.02 10.98 11.5 11 12.07 C 11.01 12.64 11.5 13.09 12.07 13.07 C 12.64 13.05 13.08 12.56 13.06 11.99 C 13.03 11.42 12.57 10.98 11.99 11 L 12 11" transform="matrix(1 0 0 1 0 0)" fill="#FFFFFF" stroke="none" />
  <path d="M 20 9.09 L 14.91 9.09 L 14.91 4 L 9.09 4 L 9.09 9.09 L 4 9.09 L 4 14.91 L 9.09 14.91 L 9.09 20 L 14.91 20 L 14.91 14.91 L 20 14.91 L 20 9.09 M 15.01 11.9 C 15.07 13.55 13.79 14.97 12.14 15.03 C 10.49 15.09 9.07 13.78 9.04 12.13 C 8.98 10.48 10.26 9.09 11.94 9.03 C 13.62 8.97 14.95 10.25 15.04 11.9 L 15.01 11.9" transform="matrix(1 0 0 1 0 0)" fill="#FFFFFF" stroke="none" />
</svg>
