<?xml version="1.0" encoding="UTF-8"?>
<!-- Reconstructed from Amplitude.Graphics.Svg.SvgAsset and recolored from static UIMapper.Color metadata for EWShop; not original source SVG. Live UI state/material colors are not included. -->
<svg xmlns="http://www.w3.org/2000/svg" width="24" height="24" viewBox="0 0 24 24">
  <path d="M 13.703 11.008 L 15.016 1 L 14.104 1 C 14.034 1.093 13.883 1.463 13.683 1.936 L 13.643 2.018 C 12.902 3.798 11.569 6.996 11.249 4.795 L 10.838 1.946 L 10.427 1.946 L 7.983 5.268 L 5.538 1.946 L 5.128 1.946 L 4.717 4.795 C 4.346 7.644 1.832 1 1.832 1 L 1 1 L 2.342 10.936 C 2.383 11.182 2.523 11.378 2.723 11.481 L 8.003 13.857 L 13.322 11.553 C 13.523 11.46 13.673 11.254 13.703 11.008 M 8.013 10.977 L 5.979 9.074 L 8.013 7.171 L 10.046 9.074 L 8.013 10.977" transform="matrix(1 0 0 1 0 0)" fill="#FFFFFF" stroke="none" />
  <path d="M 13.813 16.14 C 12.691 16.14 11.77 17.055 11.77 18.197 C 11.77 19.338 12.681 20.254 13.813 20.254 C 14.945 20.254 15.857 19.338 15.857 18.197 C 15.857 17.055 14.945 16.14 13.813 16.14" transform="matrix(1 0 0 1 0 0)" fill="#FFFFFF" stroke="none" />
  <path d="M 13.813 13.404 C 11.169 13.404 9.055 15.543 9.055 18.207 C 9.055 20.871 11.179 23.01 13.813 23.01 C 16.448 23.01 18.572 20.871 18.572 18.207 C 18.572 15.543 16.448 13.404 13.813 13.404 M 13.813 21.406 C 12.05 21.406 10.638 19.976 10.638 18.207 C 10.638 16.438 12.05 15.008 13.813 15.008 C 15.577 15.008 16.989 16.438 16.989 18.207 C 16.989 19.976 15.577 21.406 13.813 21.406" transform="matrix(1 0 0 1 0 0)" fill="#FFFFFF" stroke="none" />
  <path d="M 18.241 13.075 C 18.011 13.075 17.78 13.116 17.58 13.188 C 18.622 14.011 19.413 15.163 19.794 16.479 C 20.105 16.119 20.285 15.646 20.285 15.132 C 20.285 14 19.373 13.075 18.241 13.075" transform="matrix(1 0 0 1 0 0)" fill="#FFFFFF" stroke="none" />
  <path d="M 18.242 10.329 C 16.839 10.329 15.577 10.936 14.705 11.913 C 15.326 12.015 15.917 12.211 16.458 12.478 C 16.969 12.129 17.58 11.923 18.242 11.923 C 20.005 11.923 21.417 13.353 21.417 15.122 C 21.417 16.232 20.866 17.199 20.025 17.775 C 20.045 17.94 20.045 18.104 20.045 18.269 C 20.045 18.732 19.995 19.184 19.905 19.616 C 21.718 18.937 23 17.189 23 15.111 C 23 12.447 20.876 10.308 18.232 10.308 L 18.242 10.329" transform="matrix(1 0 0 1 0 0)" fill="#FFFFFF" stroke="none" />
</svg>
