<?xml version="1.0" encoding="UTF-8"?>
<!-- Reconstructed from Amplitude.Graphics.Svg.SvgAsset and recolored from static UIMapper.Color metadata for EWShop; not original source SVG. Live UI state/material colors are not included. -->
<svg xmlns="http://www.w3.org/2000/svg" width="24" height="24" viewBox="0 0 24 24">
  <path d="M 13 20 L 11 20 L 11 11 L 13 11 L 13 20 M 8.5 20 L 6.5 18.634 L 6.5 11.134 L 8.5 11.134 L 8.5 20 M 17.5 18.5 L 15.5 19.866 L 15.5 11 L 17.5 11 L 17.5 18.5 M 20 9.5 L 4 9.5 L 4 7.5 L 20 7.5 L 20 9.5 M 23 3 L 23 6 L 1 6 L 1 3 L 12 1 L 23 3" transform="matrix(1 0 0 1 0 0)" fill="#FFFFFF" stroke="none" />
  <path d="M 1.912 21.257 C 5.324 19.651 7.013 21.089 7.431 22.009 C 4.823 24.016 2.665 22.344 1.912 21.257 M 16.5 22.009 C 16.918 21.089 18.607 19.652 22.018 21.257 C 21.266 22.344 19.109 24.016 16.5 22.009 M 1.091 18.027 C 3.839 17.962 5.093 19.008 5.577 19.97 C 4.799 19.79 3.772 19.84 2.467 20.357 C 1.64 19.688 1.221 18.707 1.091 18.027 M 22.841 18.027 C 22.71 18.707 22.292 19.688 21.465 20.357 C 20.159 19.84 19.132 19.79 18.354 19.97 C 18.838 19.008 20.092 17.962 22.841 18.027 M 1.024 14.513 C 4.299 15.465 4.867 17.353 4.727 18.42 C 4.12 17.952 3.216 17.584 1.899 17.502 C 1.077 16.559 0.932 15.294 1.024 14.513 M 22.907 14.513 C 22.999 15.294 22.855 16.559 22.032 17.502 C 20.715 17.584 19.811 17.952 19.204 18.42 C 19.065 17.353 19.632 15.465 22.907 14.513 M 20.943 11 C 21.415 11.695 21.9 13.003 21.473 14.303 C 20.38 14.853 19.772 15.533 19.462 16.182 C 18.843 15.303 18.468 13.361 20.943 11 M 2.987 11 C 5.462 13.361 5.088 15.301 4.47 16.181 C 4.159 15.532 3.55 14.853 2.458 14.303 C 2.03 13.003 2.516 11.695 2.987 11" transform="matrix(1 0 0 1 0 0)" fill="#FFFFFF" stroke="none" />
</svg>
