<?xml version="1.0" encoding="UTF-8"?>
<!-- Reconstructed from Amplitude.Graphics.Svg.SvgAsset and recolored from static UIMapper.Color metadata for EWShop; not original source SVG. Live UI state/material colors are not included. -->
<svg xmlns="http://www.w3.org/2000/svg" width="24" height="24" viewBox="0 0 24 24">
  <path d="M 6.355 2.5 C 3.259 2.5 1.438 5.143 3.2 7.8 C 3.51 7.556 3.752 7.274 4 7 C 4.077 6.919 4.254 6.96 4.258 7.071 C 4.293 7.678 4.5 9.999 4.609 10.849 C 4.643 10.955 4.511 11.04 4.411 10.98 C 3.5 10.5 1.499 9.5 1.095 9.436 C 0.984 9.41 0.967 9.261 1.062 9.205 C 1.353 9.036 1.649 8.853 1.942 8.662 C -0.343 5.346 2.443 1 6.355 1 L 6.355 2.5 M 7.745 1.151 C 7.712 1.045 7.844 0.96 7.943 1.021 C 8.855 1.5 10.853 2.499 11.259 2.564 C 11.37 2.589 11.388 2.739 11.293 2.795 C 11.002 2.964 10.705 3.147 10.412 3.338 C 12.698 6.654 9.911 11 6 11 L 6 9.5 C 9.095 9.5 10.917 6.857 9.154 4.2 C 8.844 4.444 8.603 4.726 8.355 5 C 8.277 5.081 8.101 5.04 8.097 4.929 C 8.062 4.322 7.855 2.001 7.745 1.151" transform="matrix(1 0 0 1 0 0)" fill="#FFFFFF" stroke="none" />
  <path d="M 12.93 18.647 C 13.272 19.206 13.527 19.791 13.741 20.405 L 4 20.405 L 4 18.467 L 12.802 18.467 C 12.85 18.535 12.895 18.594 12.93 18.647 M 8.887 13.307 C 8.918 13.468 8.971 13.631 9.053 13.795 C 9.166 14.078 9.392 14.335 9.604 14.547 L 9.614 14.547 C 9.805 14.759 10.017 14.971 10.229 15.193 C 10.23 15.195 10.245 15.214 10.271 15.245 L 4.721 15.245 L 4.721 13.307 L 8.887 13.307" transform="matrix(1 0 0 1 0 0)" fill="#FFFFFF" stroke="none" />
  <path d="M 16.764 1.074 C 17.283 0.524 22.219 3.224 22.643 3.468 C 22.929 3.68 22.929 4.018 22.643 4.537 C 22.516 4.749 21.775 5.798 20.885 7.059 C 19.688 8.743 18.258 10.786 17.686 11.708 C 16.701 12.63 18.184 17.111 18.671 18.583 C 19.045 19.705 20.578 20.342 21.879 20.763 C 22.487 20.959 22.769 21.651 22.456 22.206 L 22.294 22.492 C 22.117 22.806 21.785 23 21.424 23 L 18.681 23 C 15.641 23 14.37 22.703 13.798 20.564 C 13.574 19.891 13.301 19.254 12.93 18.647 C 12.409 17.865 10.254 15.22 10.229 15.194 C 10.017 14.971 9.805 14.759 9.615 14.547 L 9.604 14.547 C 9.392 14.336 9.166 14.078 9.053 13.795 C 8.837 13.363 8.811 12.94 8.91 12.536 C 10.788 11.786 12.232 10.186 12.77 8.211 C 13.251 7.555 13.674 6.849 14.074 6.19 C 15.038 4.601 15.864 2.917 16.32 1.868 C 16.331 1.845 16.5 1.349 16.764 1.074" transform="matrix(1 0 0 1 0 0)" fill="#FFFFFF" stroke="none" />
</svg>
