<?xml version="1.0" encoding="UTF-8"?>
<!-- Reconstructed from Amplitude.Graphics.Svg.SvgAsset and recolored from static UIMapper.Color metadata for EWShop; not original source SVG. Live UI state/material colors are not included. -->
<svg xmlns="http://www.w3.org/2000/svg" width="24" height="24" viewBox="0 0 24 24">
  <path d="M 15.313 1 C 15.056 1.678 14.992 2.613 15.001 3.5 C 16.189 3.786 16.974 4.27 17.898 4.799 C 18.481 4.516 18.905 2.534 19.001 2 C 19.398 2.69 20.119 5.387 20.001 6 C 21.001 7.5 21.001 7.5 21.501 9 C 22.166 9.366 22.622 10.259 23 10.953 C 22.389 10.611 21.723 10.513 20.996 10.664 C 20.616 11.865 19.681 12.933 18.368 13.768 C 17.918 12.521 17.551 11.619 17.551 11.619 C 18.341 11.146 18.921 10.576 19.22 9.945 C 19.415 10.419 19.547 10.92 19.604 11.416 C 20.376 9.497 19.539 7.776 18.225 6.759 L 18.217 6.753 C 17.464 6.129 16.404 5.612 15.147 5.262 L 13.573 4.93 C 13.049 4.851 12.503 4.796 11.941 4.773 C 11.368 5.246 10.831 6.269 10.729 7.188 C 10.229 6.688 9.957 5.711 9.87 4.829 C 8.196 4.989 6.71 5.421 5.594 6.037 C 5.553 6.059 5.513 6.082 5.474 6.104 C 4.507 6.663 3.837 7.363 3.59 8.142 C 4.397 8.273 5.236 8.56 5.678 9.024 C 4.99 9.083 4.237 9.382 3.697 9.764 C 4.056 10.554 4.85 11.261 5.941 11.814 C 5.718 12.966 5.767 13.918 6.103 14.663 C 5.842 14.563 5.589 14.456 5.345 14.342 C 4.945 14.78 4.5 15.5 2.001 16 C 2.401 15.454 4.029 14.132 3.62 13.303 C 2.493 11.98 2.275 9.537 2.881 7.727 C 1.947 8.592 2.03 10.444 2.072 11.619 C 1.837 11.078 1.282 9.828 1.29 9.241 C 1.301 8.399 1.507 7.726 2.001 7 C 1.428 6.29 0.982 3.958 1.001 3.221 C 1.785 4.204 3 5.5 4.61 4.675 C 5.094 4.408 5.116 4.407 5.678 4.204 C 5.588 3.447 6.074 1.71 6.479 1.049 C 6.592 1.793 7.555 2.821 8.617 3.403 C 10.586 3.268 12.653 3.696 14.316 4.49 C 14.316 4.49 14.001 3.5 12.818 3.221 C 13.027 2.521 14.538 1.187 15.313 1" transform="matrix(1 0 0 1 0 0)" fill="#FFFFFF" stroke="none" />
  <path d="M 15.719 11.479 C 16.917 13.02 18.972 16.615 16.233 18.67 C 14.041 20.314 14.406 22.323 14.862 23.122 C 12.123 23.807 9.84 23.407 9.041 23.122 L 9.041 21.581 C 10 20.348 12.18 20.268 13.151 20.382 C 12.465 19.423 10.125 19.755 9.041 20.04 C 7.808 19.081 7.5 17.357 7.5 16.615 C 8.527 15.588 10.24 16.615 10.925 17.643 C 11.062 15.948 13.151 15.074 15.205 15.245 C 14.384 14.697 14.407 14.218 14.521 14.047 C 12.055 14.732 11.552 13.761 11.61 13.19 L 15.719 11.479" transform="matrix(1 0 0 1 0 0)" fill="#FFFFFF" stroke="none" />
  <path d="M 8.186 10.966 C 8.642 12.107 9.281 14.493 8.186 14.904 C 7.615 14.904 6.611 14.287 7.158 11.822 C 7.215 11.48 7.501 10.829 8.186 10.966" transform="matrix(1 0 0 1 0 0)" fill="#FFFFFF" stroke="none" />
  <path d="M 9.385 12.849 C 8.289 9.972 9.385 8.91 10.412 9.253 C 10.823 10.897 10.811 12.564 10.754 13.191 C 10.343 14.424 9.67 13.476 9.385 12.849" transform="matrix(1 0 0 1 0 0)" fill="#FFFFFF" stroke="none" />
  <path d="M 12.124 8.568 C 12.98 10.793 12.467 10.966 12.467 11.137 C 11.645 11.822 11.211 10.737 11.097 10.109 C 11.097 8.74 11.782 8.511 12.124 8.568" transform="matrix(1 0 0 1 0 0)" fill="#FFFFFF" stroke="none" />
  <path d="M 14.179 6 C 15.685 8.876 15.492 10.167 15.206 10.452 C 14.35 11.822 12.98 10.28 12.98 9.253 C 12.432 6.925 13.551 6.114 14.179 6" transform="matrix(1 0 0 1 0 0)" fill="#FFFFFF" stroke="none" />
</svg>
