<?xml version="1.0" encoding="UTF-8"?>
<!-- Reconstructed from Amplitude.Graphics.Svg.SvgAsset and recolored from static UIMapper.Color metadata for EWShop; not original source SVG. Live UI state/material colors are not included. -->
<svg xmlns="http://www.w3.org/2000/svg" width="24" height="25" viewBox="0 0 24 25">
  <path d="M 3.761 7.762 C 4.459 7.557 5.352 7.744 5.36 7.746 L 5.967 11.857 C 5.967 11.857 6.094 11.694 6.278 11.459 L 6.782 14.579 C 6.63 14.671 6.533 14.732 6.526 14.74 C 6.219 15.298 7.032 16.958 7.223 17.315 L 7.24 17.42 L 6.855 18.251 L 6.848 18.253 L 6.043 17.737 C 6.043 17.732 6.043 17.725 6.042 17.714 C 6.016 17.456 5.813 15.441 5.224 15.123 C 5.155 15.086 2.537 15.338 2.537 15.338 C 2.209 15.358 2.08 16.226 2.447 16.487 C 2.486 16.512 2.536 16.546 2.596 16.585 C 3.147 16.943 4.479 17.809 4.519 18.029 L 4.522 18.044 C 4.568 18.25 4.635 18.551 4.641 18.619 C 4.642 18.677 4.565 18.778 4.51 18.851 C 4.492 18.875 4.476 18.896 4.466 18.912 C 3.997 19.58 4.246 20.094 4.335 20.28 C 4.339 20.288 4.343 20.296 4.346 20.303 C 4.532 20.638 5.457 21.377 5.479 21.39 L 6.104 23.514 C 4.083 21.36 2.657 21.056 2.629 21.05 C 2.629 21.05 2.63 21.047 2.632 21.042 C 2.695 20.873 3.658 18.295 1.274 16.889 C 1.271 16.875 1.265 16.852 1.256 16.821 C 1.123 16.312 0.412 13.593 1.562 11.555 C 1.663 11.531 4.123 12.394 4.131 12.397 L 2.421 8.611 C 2.421 8.611 2.873 8.024 3.761 7.762" transform="matrix(1 0 0 1 0 0)" fill="#FFFFFF" stroke="none" />
  <path d="M 9.94 10.002 C 11.678 11.398 11.831 14.501 11.852 14.922 C 11.853 14.94 11.854 14.953 11.854 14.961 C 10.468 17.272 11.769 19.201 11.867 19.346 C 11.87 19.352 11.873 19.355 11.873 19.355 C 11.873 19.355 10.719 20.121 9.337 22.799 L 9.272 20.584 C 9.726 19.939 9.948 19.419 10.003 19.192 C 10.047 19.02 10.133 18.395 9.464 17.908 C 9.455 17.902 9.443 17.897 9.43 17.889 C 9.353 17.846 9.222 17.772 9.207 17.679 C 9.191 17.612 9.138 17.258 9.132 17.053 C 9.132 16.94 10.391 15.271 10.599 14.996 C 10.61 14.982 10.618 14.972 10.623 14.965 C 10.885 14.655 10.595 14.038 10.32 13.919 C 9.942 13.871 8.603 14.235 7.94 14.432 L 8.249 11.235 C 8.882 10.747 9.905 9.97 9.94 10.002" transform="matrix(1 0 0 1 0 0)" fill="#FFFFFF" stroke="none" />
  <path d="M 12.405 19.842 C 12.541 19.752 12.724 19.787 12.817 19.92 L 15.246 23.386 C 15.331 23.507 15.314 23.672 15.207 23.774 C 15.1 23.877 14.934 23.885 14.817 23.795 L 11.478 21.227 C 11.415 21.178 11.373 21.105 11.363 21.025 C 11.353 20.945 11.377 20.865 11.427 20.802 C 11.506 20.704 11.58 20.615 11.65 20.535 C 11.86 20.295 12.026 20.137 12.133 20.044 L 12.246 19.949 C 12.252 19.944 12.259 19.939 12.265 19.935 L 12.405 19.842" transform="matrix(1 0 0 1 0 0)" fill="#FFFFFF" stroke="none" />
  <path d="M 12.209 16.091 C 12.293 16.055 12.389 16.059 12.469 16.102 L 19.95 20.11 C 20.086 20.183 20.145 20.348 20.086 20.49 C 20.027 20.632 19.869 20.707 19.721 20.662 L 12.296 18.417 C 12.203 18.389 12.129 18.318 12.098 18.226 C 11.939 17.751 11.827 17.072 12.038 16.288 C 12.062 16.2 12.125 16.127 12.209 16.091" transform="matrix(1 0 0 1 0 0)" fill="#FFFFFF" stroke="none" />
  <path d="M 21.281 9.8 L 20.581 12.618 L 23.758 13.578 L 23.358 15.189 L 20.18 14.229 L 19.48 17.047 L 17.891 16.567 L 18.322 14.819 L 13.873 13.475 L 13.634 13.204 L 13.801 12.212 L 18.572 13.653 L 18.897 12.341 L 14.027 10.869 L 14.225 9.698 L 19.219 11.207 L 19.691 9.32 L 21.281 9.8" transform="matrix(1 0 0 1 0 0)" fill="#FFFFFF" stroke="none" />
  <path d="M 6.394 0 C 6.548 0 6.678 0.117 6.693 0.271 L 7.466 8.034 C 7.47 8.076 7.465 8.118 7.452 8.158 L 7.088 9.258 C 7.077 9.29 7.06 9.321 7.039 9.348 L 6.851 9.587 C 6.777 9.681 6.654 9.723 6.538 9.692 C 6.422 9.662 6.336 9.565 6.318 9.446 L 5.98 7.161 L 5.684 7.098 C 5.535 7.066 5.433 6.927 5.448 6.775 L 6.095 0.271 C 6.111 0.117 6.24 0 6.394 0" transform="matrix(1 0 0 1 0 0)" fill="#FFFFFF" stroke="none" />
  <path d="M 12.38 2.28 L 13.951 8.712 L 12.755 8.786 L 11.354 3.052 L 10.562 2.657 L 10.058 3.438 L 11.077 7.607 L 9.92 7.881 L 8.792 3.258 L 10.167 0.771 L 12.38 2.28" transform="matrix(1 0 0 1 0 0)" fill="#FFFFFF" stroke="none" />
  <path d="M 0.723 1.128 C 0.866 1.069 1.03 1.128 1.103 1.264 L 3.966 6.605 C 4.01 6.688 4.013 6.788 3.973 6.873 C 3.934 6.959 3.856 7.02 3.763 7.04 C 3.696 7.054 3.629 7.072 3.564 7.091 C 3.244 7.185 2.968 7.314 2.739 7.449 C 2.66 7.496 2.563 7.504 2.477 7.471 C 2.392 7.437 2.326 7.366 2.299 7.278 L 0.551 1.492 C 0.507 1.345 0.581 1.187 0.723 1.128" transform="matrix(1 0 0 1 0 0)" fill="#FFFFFF" stroke="none" />
</svg>
