<?xml version="1.0" encoding="UTF-8"?>
<!-- Reconstructed from Amplitude.Graphics.Svg.SvgAsset and recolored from static UIMapper.Color metadata for EWShop; not original source SVG. Live UI state/material colors are not included. -->
<svg xmlns="http://www.w3.org/2000/svg" width="24" height="24" viewBox="0 0 24 24">
  <path d="M 7.034 1 L 0.815 1 L 2.575 2.431 L 7.855 2.431 L 5.215 3.288 L 5.655 4.427 L 7.855 4.427 L 8.735 6.141 L 10.495 6.141 L 11.815 8 L 13.135 6.141 L 14.895 6.141 L 15.775 4.427 L 17.975 4.427 L 18.415 3.288 L 15.775 2.431 L 21.055 2.431 L 22.815 1 L 16.51 1 L 15.309 1.028 L 11.815 4.667 L 8.295 1 L 8.285 1 L 7.034 1" transform="matrix(1 0 0 1 0 0)" fill="#FFFFFF" stroke="none" />
  <path d="M 6.25 18.288 C 7.061 19.218 7.72 19.742 8.864 20.215 C 10.537 20.905 11.442 21.172 13.205 20.693 C 13.931 20.496 14.602 20.264 15.218 19.95 L 16.093 20.237 L 16.098 20.239 L 16.601 20.401 L 16.73 20.795 C 16.127 21.258 15.486 21.701 15.263 21.83 C 14.651 22.186 12.291 23.032 11.641 22.999 C 11.052 22.97 9.288 22.348 8.705 22.068 C 7.54 21.511 6.761 21.21 5.966 20.248 C 5.815 20.066 5.664 19.883 5.51 19.702 L 6.25 18.288 M 11.656 13.315 L 11.834 13.376 L 12.011 13.314 L 18.409 11.028 L 18.364 11.167 C 18.197 11.457 18.003 11.75 17.805 12.045 C 17.268 12.843 16.712 14.878 16.643 15.785 C 16.633 15.922 16.652 16.154 16.673 16.386 L 16.601 16.603 L 16.096 16.771 L 10.766 18.494 L 13.57 19.411 C 12.888 19.679 12.219 19.888 11.844 19.918 C 10.76 20.004 8.271 18.747 7.489 17.926 C 6.788 17.191 6.801 17.067 6.849 16.637 C 6.868 16.467 6.893 16.25 6.881 15.929 C 6.847 15.013 6.141 12.756 5.531 11.851 C 5.327 11.548 5.135 11.261 4.981 11.001 L 11.656 13.315 M 7.243 5.427 L 8.124 7.141 L 9.977 7.141 L 11.297 8.998 L 11.297 12.062 L 5.328 9.992 C 5.485 9.645 5.642 9.295 5.707 8.885 C 5.904 7.651 5.598 6.55 5.241 5.427 L 7.243 5.427 M 18.192 5.427 C 17.751 6.982 17.488 8.507 18.087 10.012 L 12.365 12.054 L 12.365 8.951 L 13.651 7.141 L 15.505 7.141 L 16.386 5.427 L 18.192 5.427 M 3.984 5.19 C 4.583 7.036 5.201 8.939 3.635 10.515 C 3.485 10.323 3.086 10.103 2.674 9.876 C 2.109 9.565 1.519 9.24 1.505 8.952 C 1.463 8.069 2.998 5.505 3.975 5.162 L 3.984 5.19 M 19.543 5.162 C 20.85 6.073 21.566 7.476 22 8.974 C 22.013 9.205 21.062 9.745 20.376 10.136 C 20.092 10.298 19.852 10.434 19.745 10.512 C 18.386 8.871 18.807 6.971 19.543 5.162" transform="matrix(1 0 0 1 0 0)" fill="#FFFFFF" stroke="none" />
  <path d="M 20.604 17.722 L 19.605 17.395 L 19.287 16.405 L 18.5 14 L 17.722 16.405 L 17.395 17.395 L 16.405 17.722 L 14 18.5 L 16.405 19.287 L 17.395 19.605 L 17.722 20.604 L 18.5 23 L 19.287 20.604 L 19.605 19.605 L 20.604 19.287 L 23 18.5 L 20.604 17.722" transform="matrix(1 0 0 1 0 0)" fill="#FFFFFF" stroke="none" />
</svg>
