<?xml version="1.0" encoding="UTF-8"?>
<!-- Reconstructed from Amplitude.Graphics.Svg.SvgAsset and recolored from static UIMapper.Color metadata for EWShop; not original source SVG. Live UI state/material colors are not included. -->
<svg xmlns="http://www.w3.org/2000/svg" width="24" height="24" viewBox="0 0 24 24">
  <path d="M 4.903 6.062 C 4.929 5.979 5.046 5.979 5.071 6.062 L 5.59 8.143 C 5.749 8.753 6.226 9.232 6.845 9.381 L 8.929 9.885 L 8.938 9.901 C 9.021 9.918 9.021 10.042 8.938 10.066 L 6.837 10.611 C 6.234 10.76 5.757 11.238 5.606 11.841 L 5.079 13.939 C 5.054 14.02 4.937 14.021 4.912 13.939 L 4.394 11.841 C 4.243 11.23 3.774 10.752 3.163 10.595 L 1.063 10.05 C 0.979 10.025 0.979 9.91 1.063 9.885 L 3.138 9.381 C 3.757 9.232 4.243 8.753 4.394 8.134 L 4.903 6.062 M 18.903 6.062 C 18.929 5.979 19.046 5.979 19.071 6.062 L 19.59 8.143 C 19.749 8.753 20.226 9.232 20.845 9.381 L 22.929 9.885 L 22.938 9.901 C 23.021 9.918 23.021 10.042 22.938 10.066 L 20.837 10.611 C 20.235 10.76 19.757 11.238 19.607 11.841 L 19.079 13.939 C 19.054 14.02 18.937 14.021 18.912 13.939 L 18.394 11.841 C 18.243 11.23 17.774 10.752 17.163 10.595 L 15.063 10.05 C 14.979 10.025 14.979 9.91 15.063 9.885 L 17.138 9.381 C 17.757 9.232 18.243 8.753 18.394 8.134 L 18.903 6.062 M 11.88 1.077 C 11.911 0.974 12.057 0.974 12.089 1.077 L 12.737 3.678 C 12.936 4.441 13.533 5.04 14.307 5.226 L 16.911 5.855 L 16.922 5.876 C 17.026 5.897 17.026 6.052 16.922 6.083 L 14.296 6.764 C 13.543 6.949 12.947 7.548 12.759 8.302 L 12.1 10.923 C 12.068 11.026 11.922 11.026 11.891 10.923 L 11.241 8.302 C 11.053 7.538 10.468 6.939 9.704 6.743 L 7.078 6.062 C 6.974 6.03 6.974 5.887 7.078 5.855 L 9.673 5.226 C 10.447 5.04 11.053 4.442 11.241 3.668 L 11.88 1.077" transform="matrix(1 0 0 1 0 0)" fill="#FFFFFF" stroke="none" />
  <path d="M 18.374 18.445 L 23.001 17 L 18.501 21 L 23.001 22.27 L 16.001 23 L 9.001 23 L 1 22.27 L 6.583 21.154 L 1 17 L 5.308 18.445 L 1 12 L 5.945 16.215 L 5.336 14.946 C 5.649 14.847 5.921 14.609 6.037 14.23 L 6.044 14.206 L 6.051 14.182 L 6.224 13.49 L 12.001 21 L 17.621 12.881 L 17.942 14.179 L 17.948 14.204 L 17.956 14.23 C 18.026 14.459 18.155 14.635 18.314 14.762 L 17.736 16.215 L 19.31 14.955 C 19.568 14.88 19.8 14.711 19.944 14.446 L 23.001 12 L 18.374 18.445" transform="matrix(1 0 0 1 0 0)" fill="#FFFFFF" stroke="none" />
  <path d="M 12 18.5 L 8.5 12.5 L 12 15 L 15.5 12.5 L 12 18.5" transform="matrix(1 0 0 1 0 0)" fill="#FFFFFF" stroke="none" />
</svg>
