<?xml version="1.0" encoding="UTF-8"?>
<!-- Reconstructed from Amplitude.Graphics.Svg.SvgAsset and recolored from static UIMapper.Color metadata for EWShop; not original source SVG. Live UI state/material colors are not included. -->
<svg xmlns="http://www.w3.org/2000/svg" width="24" height="24" viewBox="0 0 24 24">
  <path d="M 1.339 20.382 L 9.13 21.454 L 7.52 19.021 L 13.532 15.212 L 6.987 1.855 L 9.195 13.817 L 6.05 16.155 L 4.873 13.862 L 1.339 20.382" transform="matrix(1 0 0 1 0 0)" fill="#FFFFFF" stroke="none" />
  <path d="M 15.173 21.374 L 11.892 18.989 L 12.623 18.522 L 14.894 20.174 C 15.081 20.31 15.335 20.31 15.522 20.174 L 18.127 18.279 L 17.668 17.821 L 15.208 19.61 L 13.202 18.152 L 15.738 16.531 C 16.06 16.307 16.202 15.901 16.09 15.524 L 13.395 9.326 C 13.794 9.088 14.177 8.824 14.542 8.534 L 14.542 7.698 C 14.105 8.086 13.635 8.432 13.137 8.734 L 12.855 8.084 C 13.591 7.652 14.282 7.142 14.915 6.562 C 15.148 6.348 15.505 6.348 15.738 6.562 C 17.018 7.735 18.535 8.621 20.185 9.161 L 20.593 9.294 C 20.884 9.389 21.081 9.661 21.081 9.968 L 21.081 14.637 C 21.081 16.311 20.28 17.884 18.927 18.868 L 15.48 21.374 C 15.389 21.441 15.264 21.441 15.173 21.374 M 20.222 14.419 C 20.222 15.53 19.82 16.59 19.11 17.414 L 18.656 16.959 C 19.248 16.256 19.582 15.358 19.582 14.419 L 19.582 10.61 C 19.582 10.498 19.511 10.399 19.405 10.365 L 19.072 10.256 C 17.9 9.873 16.809 9.283 15.85 8.515 L 15.85 7.676 C 16.841 8.563 18.006 9.234 19.271 9.648 L 19.604 9.756 C 19.973 9.877 20.222 10.221 20.222 10.61 L 20.222 14.419" transform="matrix(1 0 0 1 0 0)" fill="#FFFFFF" stroke="none" />
  <path d="M 12.291 0.565 L 14.378 0.402 L 10.88 5.867 L 12.291 0.565" transform="matrix(1 0 0 1 0 0)" fill="#FFFFFF" stroke="none" />
  <path d="M 10.547 0.463 L 9.025 0.931 L 10.02 4.903 L 10.547 0.463" transform="matrix(1 0 0 1 0 0)" fill="#FFFFFF" stroke="none" />
  <path d="M 10.13 20.114 C 10.266 20.229 10.407 20.339 10.552 20.444 L 14.764 23.484 C 15.1 23.727 15.553 23.727 15.889 23.484 L 20.101 20.444 C 21.921 19.13 23 17.03 23 14.793 L 23 9.128 C 23 8.477 22.578 7.904 21.961 7.703 L 21.463 7.542 C 19.531 6.915 17.758 5.886 16.26 4.524 C 15.732 4.043 14.922 4.043 14.393 4.524 C 13.674 5.178 12.891 5.756 12.057 6.249 L 12.314 6.84 C 13.21 6.316 14.052 5.699 14.823 4.997 C 15.108 4.738 15.545 4.738 15.83 4.997 C 17.395 6.42 19.248 7.495 21.266 8.15 L 21.764 8.312 C 22.12 8.427 22.361 8.757 22.361 9.128 L 22.361 14.793 C 22.361 16.823 21.382 18.731 19.727 19.925 L 15.515 22.966 C 15.403 23.047 15.251 23.047 15.139 22.966 L 10.926 19.925 C 10.848 19.869 10.772 19.811 10.697 19.752 L 10.13 20.114" transform="matrix(1 0 0 1 0 0)" fill="#FFFFFF" stroke="none" />
  <path d="M 4.3 5.884 L 3.317 8.124 L 8 12.5 L 4.3 5.884" transform="matrix(1 0 0 1 0 0)" fill="#FFFFFF" stroke="none" />
  <path d="M 1.894 11.69 L 2.25 9.865 L 6.533 12.855 L 1.894 11.69" transform="matrix(1 0 0 1 0 0)" fill="#FFFFFF" stroke="none" />
</svg>
