<?xml version="1.0" encoding="UTF-8"?>
<!-- Reconstructed from Amplitude.Graphics.Svg.SvgAsset and recolored from static UIMapper.Color metadata for EWShop; not original source SVG. Live UI state/material colors are not included. -->
<svg xmlns="http://www.w3.org/2000/svg" width="24" height="24" viewBox="0 0 24 24">
  <path d="M 20.682 2.318 C 22.439 4.075 22.439 6.925 20.682 8.682 C 18.925 10.439 16.075 10.439 14.318 8.682 M 20.682 2.318 C 18.925 0.561 16.075 0.561 14.318 2.318 C 12.561 4.075 12.561 6.925 14.318 8.682 M 20.682 2.318 L 14.318 8.682" transform="matrix(1 0 0 1 0 0)" fill="none" stroke="#FFFFFF" stroke-width="1.5" />
  <path d="M 3.762 7.704 C 4.463 7.498 5.36 7.688 5.36 7.688 L 5.968 11.8 C 5.968 11.8 6.095 11.637 6.278 11.401 L 6.782 14.522 C 6.63 14.613 6.533 14.675 6.526 14.683 C 6.22 15.241 7.032 16.901 7.224 17.258 L 7.24 17.362 L 6.856 18.193 L 6.849 18.195 L 6.044 17.68 C 6.044 17.675 6.043 17.667 6.042 17.657 C 6.016 17.4 5.813 15.384 5.224 15.065 C 5.146 15.03 2.537 15.281 2.537 15.281 C 2.209 15.3 2.08 16.168 2.447 16.43 C 2.486 16.455 2.537 16.488 2.597 16.527 C 3.148 16.886 4.48 17.752 4.52 17.972 L 4.523 17.986 C 4.569 18.192 4.636 18.492 4.642 18.561 C 4.643 18.619 4.566 18.721 4.511 18.794 C 4.493 18.818 4.477 18.838 4.467 18.854 C 3.997 19.522 4.246 20.037 4.336 20.223 C 4.34 20.231 4.343 20.239 4.347 20.246 C 4.533 20.582 5.462 21.323 5.48 21.333 L 6.105 23.457 C 4.086 21.305 2.661 21 2.63 20.993 C 2.63 20.993 2.631 20.989 2.633 20.984 C 2.695 20.817 3.659 18.238 1.275 16.832 C 1.271 16.818 1.265 16.795 1.257 16.764 C 1.124 16.255 0.412 13.536 1.562 11.498 C 1.655 11.471 4.132 12.34 4.132 12.34 L 2.422 8.553 C 2.43 8.543 2.882 7.963 3.762 7.704" transform="matrix(1 0 0 1 0 0)" fill="#FFFFFF" stroke="none" />
  <path d="M 9.941 9.944 C 11.678 11.341 11.832 14.444 11.853 14.865 C 11.854 14.883 11.854 14.895 11.855 14.903 C 10.469 17.216 11.77 19.145 11.867 19.289 C 11.871 19.295 11.873 19.298 11.873 19.298 C 11.873 19.298 10.72 20.064 9.338 22.742 L 9.273 20.526 C 9.726 19.882 9.947 19.362 10.003 19.135 C 10.047 18.963 10.133 18.338 9.465 17.851 C 9.456 17.845 9.444 17.838 9.431 17.831 C 9.353 17.788 9.222 17.714 9.207 17.621 C 9.191 17.553 9.139 17.2 9.133 16.996 C 9.131 16.884 10.392 15.214 10.6 14.939 C 10.61 14.925 10.618 14.915 10.623 14.908 C 10.885 14.598 10.595 13.981 10.32 13.861 C 9.943 13.814 8.604 14.178 7.941 14.375 L 8.249 11.178 C 8.883 10.69 9.906 9.913 9.941 9.944" transform="matrix(1 0 0 1 0 0)" fill="#FFFFFF" stroke="none" />
  <path d="M 9.67 2.447 L 10.965 3.808 C 10.839 4.296 10.769 4.796 10.754 5.298 L 9.164 3.627 L 8.281 3.678 L 8.233 4.606 L 11.087 7.606 C 11.406 8.581 11.952 9.499 12.727 10.273 C 13.417 10.964 14.22 11.471 15.076 11.8 L 17.455 14.3 L 18.387 13.32 L 17.365 12.246 C 17.867 12.256 18.37 12.212 18.863 12.11 L 19.228 12.493 L 19.87 11.819 C 20.201 11.695 20.524 11.544 20.836 11.366 L 21.714 12.289 L 19.712 14.394 L 22 16.798 L 20.857 18 L 18.569 15.596 L 16.567 17.699 L 15.423 16.497 L 16.662 15.19 L 7.043 5.08 L 7 2.239 L 9.67 2.447" transform="matrix(1 0 0 1 0 0)" fill="#FFFFFF" stroke="none" />
</svg>
