<?xml version="1.0" encoding="UTF-8"?>
<!-- Reconstructed from Amplitude.Graphics.Svg.SvgAsset and recolored from static UIMapper.Color metadata for EWShop; not original source SVG. Live UI state/material colors are not included. -->
<svg xmlns="http://www.w3.org/2000/svg" width="24" height="24" viewBox="0 0 24 24">
  <path d="M 6.374 11.004 L 6.485 11.04 C 6.799 11.136 7.258 11.281 7.77 11.488 C 8.04 12.244 8.467 13.337 9.065 14.567 C 8.361 15.043 7.741 15.506 7.224 15.912 L 5.012 15.912 C 4.668 15.912 4.338 16.019 4.049 16.219 L 3.078 16.898 C 3.021 16.937 3.021 17.022 3.078 17.062 L 4.131 17.794 C 4.351 17.954 4.627 18.034 4.902 18.034 L 4.936 18.034 C 4.941 18.034 4.946 18.035 4.951 18.036 C 5.011 18.047 5.066 18.07 5.11 18.104 C 5.038 18.431 5.077 18.78 5.232 19.093 L 5.232 22.612 C 5.232 22.862 4.98 23.046 4.736 22.989 C 4.728 22.987 4.719 22.986 4.71 22.986 C 4.697 22.986 4.684 22.985 4.674 22.982 C 4.66 22.979 4.647 22.971 4.634 22.966 L 3.442 22.546 L 1.64 22.039 C 1.351 21.959 1.047 21.772 0.923 21.545 C 0.882 21.478 0.854 21.398 0.854 21.331 C 0.854 21.28 0.855 21.216 0.879 21.164 C 0.881 21.16 0.882 21.155 0.883 21.15 C 0.886 21.13 0.904 21.11 0.917 21.097 C 0.919 21.095 0.918 21.091 0.915 21.091 C 0.913 21.091 0.91 21.088 0.911 21.086 C 0.994 20.873 1.103 20.608 1.185 20.29 C 1.336 19.356 1.336 17.954 1.336 17.954 L 1.336 15.632 C 1.322 12.575 4.943 11.427 6.21 11.04 L 6.32 11.004 C 6.329 11.001 6.339 11 6.348 11 C 6.357 11 6.366 11.001 6.374 11.004 M 11.371 18.475 C 11.385 18.966 11.417 19.711 11.509 20.283 C 11.51 20.288 11.511 20.292 11.513 20.297 C 11.608 20.601 11.704 20.879 11.786 21.091 C 11.8 21.117 11.813 21.131 11.827 21.157 C 11.855 21.211 11.855 21.278 11.855 21.331 C 11.855 21.408 11.829 21.485 11.79 21.538 C 11.787 21.542 11.785 21.547 11.782 21.552 C 11.656 21.776 11.342 21.96 11.069 22.039 L 9.267 22.546 L 8.055 22.973 C 8.055 22.973 8.019 22.982 7.998 22.985 C 7.99 22.987 7.982 22.988 7.974 22.989 C 7.717 23.047 7.477 22.862 7.477 22.612 L 7.477 19.719 C 7.763 19.626 8.162 19.49 8.645 19.31 C 9.345 19.047 10.226 18.686 11.193 18.223 C 11.252 18.308 11.313 18.391 11.371 18.475" transform="matrix(1 0 0 1 0 0)" fill="#FFFFFF" stroke="none" />
  <path d="M 8.854 10 C 8.87 10.016 10.6 11.788 12.221 14.407 C 14.959 12.936 17.36 12.258 17.36 12.258 C 17.36 12.258 15.567 13.98 12.912 15.594 C 14.389 18.291 15.073 20.66 15.081 20.687 C 15.064 20.669 13.335 18.897 11.715 16.278 C 8.985 17.746 6.589 18.424 6.575 18.428 C 6.594 18.409 8.383 16.698 11.023 15.093 C 9.546 12.394 8.862 10.025 8.854 10" transform="matrix(1 0 0 1 0 0)" fill="#FFFFFF" stroke="none" />
  <path d="M 17.33 5.936 L 22.855 6.727 L 18.859 10.582 L 19.796 16 L 16.996 14.55 C 17.023 14.528 17.05 14.508 17.076 14.486 C 17.486 14.154 17.811 13.872 18.036 13.672 C 18.149 13.572 18.237 13.492 18.298 13.436 C 18.328 13.407 18.352 13.384 18.369 13.368 C 18.378 13.36 18.385 13.353 18.39 13.349 C 18.392 13.346 18.394 13.344 18.396 13.343 L 18.398 13.341 L 18.399 13.34 L 18.488 13.247 C 18.908 12.769 18.983 12.072 18.662 11.513 C 18.32 10.916 17.615 10.628 16.953 10.815 L 16.951 10.815 L 16.94 10.818 C 16.933 10.82 16.924 10.823 16.913 10.826 C 16.891 10.833 16.859 10.842 16.819 10.854 C 16.74 10.878 16.625 10.913 16.481 10.959 C 16.194 11.052 15.786 11.19 15.291 11.376 C 14.591 11.639 13.708 11.999 12.74 12.462 C 11.298 10.362 9.977 9.003 9.928 8.952 C 9.6 8.617 9.146 8.463 8.701 8.509 L 6.854 6.727 L 12.379 5.936 L 14.845 1 L 17.33 5.936" transform="matrix(1 0 0 1 0 0)" fill="#FFFFFF" stroke="none" />
</svg>
