<?xml version="1.0" encoding="UTF-8"?>
<!-- Reconstructed from Amplitude.Graphics.Svg.SvgAsset and recolored from static UIMapper.Color metadata for EWShop; not original source SVG. Live UI state/material colors are not included. -->
<svg xmlns="http://www.w3.org/2000/svg" width="24" height="24" viewBox="0 0 24 24">
  <path d="M 18.958 5.64 L 20.812 6.51 C 21.622 3.97 20.701 3.35 20.133 2.91 L 15.737 2.91 C 18.037 2.91 18.958 4.4 18.958 5.64" transform="matrix(1 0 0 1 0 0)" fill="#FFFFFF" stroke="none" />
  <path d="M 6.398 2.91 L 1.992 2.91 C 1.435 3.35 0.503 3.97 1.324 6.51 L 3.177 5.64 C 3.177 4.4 4.099 2.91 6.398 2.91" transform="matrix(1 0 0 1 0 0)" fill="#FFFFFF" stroke="none" />
  <path d="M 8.586 22 L 10.45 19.27 C 7.462 18.91 5.426 18.06 4.93 17.45 C 1.638 19.27 6.094 21.24 8.586 22" transform="matrix(1 0 0 1 0 0)" fill="#FFFFFF" stroke="none" />
  <path d="M 15.414 18.57 C 14.512 18.86 13.378 19.12 12.051 19.28 L 13.915 22.01 C 14.684 21.77 15.657 21.42 16.518 20.99 L 15.758 18.7 L 15.414 18.57" transform="matrix(1 0 0 1 0 0)" fill="#FFFFFF" stroke="none" />
  <path d="M 5.74 14.95 C 6.925 15.68 8.556 16.3 10.733 16.4 L 10.875 16.35 L 10.531 6.17 C 9.022 5.86 7.897 4.58 7.897 3.93 C 7.897 3.19 9.376 2.58 11.21 2.58 C 13.043 2.58 14.522 3.18 14.522 3.93 C 14.522 4.56 13.448 5.78 12.01 6.14 L 11.675 16.06 L 15.768 14.57 L 17.226 10.67 C 17.226 10.67 17.196 10.67 17.175 10.67 C 16.72 10.7 16.264 9.43 16.163 7.84 C 16.061 6.25 16.345 4.94 16.801 4.91 C 17.257 4.88 17.712 6.15 17.814 7.74 C 17.844 8.23 17.844 8.69 17.814 9.1 L 17.854 8.99 L 18.361 10.35 C 18.563 9.47 18.664 8.54 18.614 7.58 C 18.462 4.96 17.51 3.93 17.054 3.73 L 15.109 3.54 C 14.978 2.99 13.995 1.93 11.108 2 C 8.221 1.93 7.239 2.99 7.117 3.55 L 5.173 3.74 C 4.717 3.93 3.775 4.97 3.613 7.59 C 3.43 10.63 4.94 13.51 5.618 14.67 C 5.669 14.76 5.72 14.85 5.75 14.95 L 5.74 14.95 M 5.051 10.68 C 4.585 10.65 4.281 9.34 4.393 7.75 C 4.494 6.16 4.96 4.89 5.426 4.92 C 5.892 4.95 6.196 6.26 6.084 7.85 C 5.973 9.44 5.517 10.71 5.051 10.68" transform="matrix(1 0 0 1 0 0)" fill="#FFFFFF" stroke="none" />
  <path d="M 11.989 17.32 C 11.787 17.32 11.584 17.33 11.372 17.33 C 8.971 17.33 7.128 16.76 5.74 16 C 5.74 16.04 5.72 16.08 5.709 16.13 C 5.679 16.25 5.649 16.38 5.628 16.5 C 5.588 16.75 5.649 17.02 5.942 17.21 C 6.986 17.9 9.113 18.28 10.804 18.35 C 10.896 18.36 10.997 18.36 11.098 18.36 C 11.199 18.36 11.291 18.36 11.392 18.36 C 12.202 18.31 13.104 18.21 13.944 18.03 L 11.979 17.31 L 11.989 17.32" transform="matrix(1 0 0 1 0 0)" fill="#FFFFFF" stroke="none" />
  <path d="M 20.255 15.75 L 19.11 15.38 L 18.746 14.26 L 17.844 11.54 L 16.953 14.26 L 16.578 15.38 L 15.444 15.75 L 12.689 16.63 L 15.444 17.52 L 16.578 17.88 L 16.953 19.01 L 17.844 21.72 L 18.746 19.01 L 19.11 17.88 L 20.255 17.52 L 23 16.63 L 20.255 15.75" transform="matrix(1 0 0 1 0 0)" fill="#FFFFFF" stroke="none" />
</svg>
