<?xml version="1.0" encoding="UTF-8"?>
<!-- Reconstructed from Amplitude.Graphics.Svg.SvgAsset and recolored from static UIMapper.Color metadata for EWShop; not original source SVG. Live UI state/material colors are not included. -->
<svg xmlns="http://www.w3.org/2000/svg" width="24" height="24" viewBox="0 0 24 24">
  <path d="M 9.782 3.279 C 9.659 2.022 11.693 -0.913 11.58 0.328 C 11.303 3.362 11.984 6.303 12.611 8.917 C 12.036 9.703 11.011 10.67 10.293 11.29 C 9.233 10.2 7.719 8.448 6.832 7.396 C 6.717 6.287 6.92 5.177 7.298 5.843 C 8.081 7.222 9.014 8.408 9.988 9.467 C 9.995 9.46 10.002 9.454 10.009 9.447 C 10.022 9.436 10.034 9.424 10.048 9.413 C 10.079 9.388 10.112 9.367 10.145 9.346 L 10.147 9.345 C 9.276 7.983 8.402 6.606 8.059 5.714 C 7.631 4.599 8.846 1.658 9.056 2.819 C 9.462 5.064 10.394 7.285 11.331 9.191 C 11.392 9.207 11.453 9.226 11.514 9.248 C 11.327 8.616 11.099 7.936 10.871 7.254 C 10.377 5.777 9.881 4.293 9.782 3.279" transform="matrix(1 0 0 1 0 0)" fill="#FFFFFF" stroke="none" />
  <path d="M 2.748 2.342 C 4.426 6.095 7.192 9.091 9.644 11.74 C 9.374 12.116 9.169 12.505 9.045 12.912 C 8.67 14.147 9.122 15.227 9.932 16.077 C 10.202 16.36 10.498 16.681 10.801 17.028 C 10.648 17.076 10.486 17.111 10.318 17.131 C 10.015 17.186 9.709 17.244 9.404 17.302 C 7.866 17.591 6.347 17.878 5.368 17.841 C 4.061 17.791 1.605 15.282 2.866 15.573 C 4.41 15.929 5.959 16.06 7.45 16.076 C 7.364 15.985 7.285 15.891 7.214 15.795 C 5.716 15.584 4.333 15.353 3.393 15.005 C 1.913 14.457 0.043 10.673 1.379 11.479 C 3.176 12.563 5.021 13.327 6.83 13.918 C 6.834 13.906 6.838 13.894 6.842 13.882 C 6.848 13.86 6.855 13.839 6.864 13.817 C 6.884 13.769 6.909 13.722 6.933 13.677 L 6.934 13.675 C 5.047 12.667 3.147 11.644 2.174 10.837 C 0.958 9.828 0.456 5.647 1.449 6.85 C 3.371 9.178 5.886 11.138 8.201 12.73 C 8.282 12.709 8.365 12.691 8.45 12.677 C 7.824 12.07 7.12 11.432 6.415 10.792 C 4.889 9.408 3.355 8.017 2.585 6.911 C 1.629 5.541 2.076 0.836 2.748 2.342" transform="matrix(1 0 0 1 0 0)" fill="#FFFFFF" stroke="none" />
  <path d="M 18.692 18.955 C 19.108 20.28 20.31 20.738 21.847 21.142 C 23.381 21.547 22.204 22.7 21.845 22.868 C 21.556 23.004 21.504 23.004 20.031 22.998 C 19.674 22.996 19.235 22.995 18.69 22.995 C 15.987 22.995 14.846 22.716 14.343 20.738 C 13.844 18.78 11.9 16.521 10.61 15.167 C 9.397 13.896 9.746 12.576 11.975 10.848 C 13.757 9.466 15.8 5.306 16.599 3.397 C 16.599 3.397 16.743 2.938 16.99 2.669 C 17.455 2.16 21.85 4.654 22.228 4.886 C 22.48 5.096 22.48 5.403 22.228 5.887 C 22.121 6.094 21.457 7.068 20.662 8.233 L 20.581 8.352 C 19.539 9.883 18.3 11.703 17.81 12.536 C 16.943 13.388 18.239 17.516 18.673 18.899 L 18.677 18.913 L 18.692 18.955" transform="matrix(1 0 0 1 0 0)" fill="#FFFFFF" stroke="none" />
</svg>
