<?xml version="1.0" encoding="UTF-8"?>
<!-- Reconstructed from Amplitude.Graphics.Svg.SvgAsset and recolored from static UIMapper.Color metadata for EWShop; not original source SVG. Live UI state/material colors are not included. -->
<svg xmlns="http://www.w3.org/2000/svg" width="24" height="24" viewBox="0 0 24 24">
  <path d="M 13.1 18.298 C 13.792 14.127 13.792 9.855 13.1 5.684 C 17.005 5.528 20 4.538 20 3.347 C 20 2.054 16.408 1 12 1 C 7.592 1 4 2.054 4 3.356 C 4 4.548 7.005 5.538 10.901 5.693 C 10.209 9.864 10.199 14.136 10.901 18.298 C 7.005 18.453 4 19.443 4 20.644 C 4 21.955 7.573 23 12 23 C 16.427 23 20 21.946 20 20.644 C 20 19.453 16.995 18.463 13.1 18.298 M 6.284 3.723 C 6.284 3.035 8.626 2.467 11.602 2.421 C 11.384 3.283 11.185 4.144 11.024 5.015 C 8.332 4.905 6.284 4.373 6.284 3.723 M 6.284 20.268 C 6.284 19.618 8.332 19.086 11.024 18.976 C 11.185 19.847 11.374 20.718 11.602 21.57 C 8.635 21.524 6.284 20.956 6.284 20.268 M 17.716 3.723 C 17.716 4.383 15.668 4.905 12.976 5.015 C 12.815 4.144 12.626 3.273 12.398 2.421 C 15.374 2.467 17.716 3.026 17.716 3.723 M 12.398 21.57 C 12.626 20.708 12.815 19.847 12.976 18.976 C 15.668 19.077 17.716 19.608 17.716 20.268 C 17.716 20.974 15.374 21.524 12.398 21.57" transform="matrix(1 0 0 1 0 0)" fill="#FFFFFF" stroke="none" />
  <path d="M 6.846 13.57 C 7.586 15.07 7.576 16.64 6.846 18.14 C 6.116 16.64 6.107 15.07 6.846 13.57 M 16.746 13 C 17.486 14.11 17.476 15.31 16.746 16.43 C 16.016 15.32 16.006 14.12 16.746 13 M 20.436 12.09 C 21.196 13.49 21.186 14.94 20.436 16.33 C 19.686 14.93 19.676 13.48 20.436 12.09 M 3.566 11.311 C 4.316 12.71 4.326 14.16 3.566 15.55 C 2.806 14.15 2.816 12.701 3.566 11.311 M 16.766 6.71 C 17.526 8.11 17.516 9.56 16.766 10.95 C 16.016 9.55 16.006 8.1 16.766 6.71 M 7.946 6 C 8.686 7.48 8.676 9.07 7.946 10.57 C 7.216 9.09 7.206 7.5 7.946 6" transform="matrix(1 0 0 1 0 0)" fill="#FFFFFF" stroke="none" />
</svg>
