<?xml version="1.0" encoding="UTF-8"?>
<!-- Reconstructed from Amplitude.Graphics.Svg.SvgAsset and recolored from static UIMapper.Color metadata for EWShop; not original source SVG. Live UI state/material colors are not included. -->
<svg xmlns="http://www.w3.org/2000/svg" width="24" height="24" viewBox="0 0 24 24">
  <path d="M 14.389 4.933 C 14.26 5.008 14.119 5.065 13.969 5.101 L 10.838 5.861 L 10.82 5.866 C 9.727 6.174 9.727 7.731 10.82 8.04 L 10.83 8.043 L 13.995 8.86 L 13.999 8.861 C 14.314 8.941 14.591 9.119 14.795 9.363 L 14.197 12.043 L 16.062 14.132 C 17.202 14.231 19.586 14.888 20 16.719 C 18.929 19.438 16.249 25.211 7.876 22.107 L 6.839 19.62 C 5.181 19.554 1.409 17.694 0 15.624 C 0.08 15.403 0.159 15.152 0.246 14.876 C 0.675 13.52 1.287 11.582 3.043 9.813 C 3.255 9.599 3.398 9.373 3.538 9.153 C 3.734 8.844 3.924 8.546 4.286 8.304 L 4.96 7.857 L 5.634 7.127 L 6.981 6.514 L 7.188 6.911 C 7.12 6.966 7.021 7.025 6.908 7.091 C 6.648 7.243 6.319 7.436 6.152 7.723 C 5.912 8.136 5.592 8.758 5.634 8.917 C 5.737 9.315 6.981 8.42 6.981 8.42 C 6.981 8.42 7.603 8.105 7.188 8.901 L 6.67 9.315 L 5.841 9.713 C 5.81 9.758 5.786 9.803 5.762 9.848 C 5.625 10.101 5.489 10.355 4.079 10.609 L 3.523 14.53 L 9.637 14.53 L 10.985 13.436 L 10.674 12.54 L 8.601 12.54 C 7.876 10.152 7.171 5.118 10.156 4.083 C 11.381 3.898 13.297 3.959 14.389 4.933" transform="matrix(1 0 0 1 0 0)" fill="#FFFFFF" stroke="none" />
  <path d="M 22.909 6.854 L 22.909 6.828 L 19.772 6.074 C 18.842 5.851 18.13 5.13 17.886 4.212 L 17.104 1.09 C 17.07 0.97 16.887 0.97 16.852 1.09 L 16.088 4.204 C 15.862 5.13 15.132 5.851 14.202 6.074 L 11.091 6.828 C 10.97 6.863 10.97 7.043 11.091 7.077 L 14.246 7.892 C 15.158 8.124 15.862 8.844 16.088 9.762 L 16.87 12.91 C 16.904 13.03 17.087 13.03 17.122 12.91 L 17.912 9.762 C 18.138 8.861 18.851 8.141 19.755 7.918 L 22.909 7.103 C 23.03 7.069 23.03 6.88 22.909 6.854" transform="matrix(1 0 0 1 0 0)" fill="#FFFFFF" stroke="none" />
</svg>
