<?xml version="1.0" encoding="UTF-8"?>
<!-- Reconstructed from Amplitude.Graphics.Svg.SvgAsset and recolored from static UIMapper.Color metadata for EWShop; not original source SVG. Live UI state/material colors are not included. -->
<svg xmlns="http://www.w3.org/2000/svg" width="24" height="24" viewBox="0 0 24 24">
  <path d="M 5.97 10.189 C 8.08 10.424 9.35 8.562 9.62 6.045 C 9.89 3.517 9.06 1.287 6.95 1.051 C 4.84 0.816 3.05 1.409 2.78 3.927 C 2.51 6.454 3.87 9.943 5.98 10.189 L 5.97 10.189" transform="matrix(1 0 0 1 0 0)" fill="#FFFFFF" stroke="none" />
  <path d="M 9.18 10.639 C 8.54 11.918 7.43 12.675 5.9 12.47 C 4.94 12.348 4.1 11.652 3.48 10.69 C 2.75 10.843 2.09 11.273 1.64 11.887 C 1 12.757 0.83 13.913 1.21 14.936 L 2.35 18.037 C 2.89 19.5 3.23 20.656 3.99 22.089 C 3.99 22.089 4.05 22.14 4.08 22.161 L 4.32 22.324 C 5.64 23.215 7.35 23.215 8.67 22.324 L 8.91 22.161 C 8.91 22.161 8.97 22.12 9 22.099 L 9.03 22.038 C 9.78 20.626 10.12 19.48 10.65 18.037 L 11.79 14.936 C 12.17 13.913 12.01 12.767 11.36 11.887 C 10.83 11.171 10.03 10.721 9.17 10.639 L 9.18 10.639" transform="matrix(1 0 0 1 0 0)" fill="#FFFFFF" stroke="none" />
  <path d="M 12 9.79 C 12 9.79 13 10.21 13 11.028 L 17.56 11.028 C 17.26 11.274 16.19 12.297 15.96 12.563 C 15.46 13.136 16.1 13.985 16.82 13.474 C 17.78 12.788 19.63 11.008 19.63 11.008 C 19.98 10.609 19.88 10.343 19.57 9.974 C 19.57 9.974 17.81 8.255 17.04 7.365 C 16.5 6.945 15.79 7.518 16.09 8.163 L 17.62 9.77 C 17.62 9.77 17.54 9.77 17.43 9.77 C 16.56 9.77 13.01 9.77 12.01 9.79 L 12 9.79" transform="matrix(1 0 0 1 0 0)" fill="#FFFFFF" stroke="none" />
  <path d="M 15.5 3.047 C 13.91 3.047 12.43 3.559 11.22 4.418 C 11.29 4.756 11.35 5.145 11.39 5.564 C 12.51 4.633 13.94 4.07 15.5 4.07 C 19.09 4.07 22 7.048 22 10.721 C 22 14.395 19.09 17.373 15.5 17.373 C 14.61 17.373 13.77 17.188 13 16.861 L 12.68 17.833 C 13.55 18.191 14.5 18.396 15.5 18.396 C 19.64 18.396 23 14.958 23 10.721 C 23 6.485 19.64 3.047 15.5 3.047" transform="matrix(1 0 0 1 0 0)" fill="#FFFFFF" stroke="none" />
</svg>
