<?xml version="1.0" encoding="UTF-8"?>
<!-- Reconstructed from Amplitude.Graphics.Svg.SvgAsset and recolored from static UIMapper.Color metadata for EWShop; not original source SVG. Live UI state/material colors are not included. -->
<svg xmlns="http://www.w3.org/2000/svg" width="24" height="24" viewBox="0 0 24 24">
  <path d="M 18.011 1.05 C 18.341 0.676 21.458 2.51 21.726 2.68 C 21.904 2.835 21.904 3.061 21.726 3.416 C 21.65 3.569 21.178 4.285 20.615 5.141 C 19.865 6.285 18.949 7.678 18.593 8.306 C 17.976 8.935 18.903 11.988 19.208 12.995 L 19.218 13.026 C 19.513 14 20.365 14.337 21.455 14.634 C 22.542 14.932 21.709 15.779 21.454 15.903 C 21.249 16.003 21.212 16.002 20.168 15.999 C 19.915 15.997 19.603 15.997 19.217 15.997 C 17.301 15.997 16.491 15.791 16.135 14.336 C 15.789 12.931 14.466 11.315 13.553 10.313 C 13.832 9.908 14.115 9.495 14.388 9.099 L 14.387 9.098 C 14.761 8.558 15.11 8.056 15.377 7.665 C 15.61 7.323 15.856 6.957 15.959 6.762 L 15.96 6.763 C 16.121 6.458 16.312 6.014 16.313 5.499 C 16.313 5.244 16.263 5.004 16.178 4.784 C 16.844 3.627 17.423 2.357 17.734 1.586 C 17.734 1.586 17.836 1.248 18.011 1.05" transform="matrix(1 0 0 1 0 0)" fill="#FFFFFF" stroke="none" />
  <path d="M 23.001 23 L 21.113 23 L 19.084 21.261 L 17.055 23 L 15.291 23 L 19.084 19.386 L 23.001 23" transform="matrix(1 0 0 1 0 0)" fill="#FFFFFF" stroke="none" />
  <path d="M 9.682 3.063 C 10.123 2.59 14.277 4.913 14.634 5.129 C 14.873 5.325 14.873 5.611 14.634 6.062 C 14.533 6.255 13.904 7.162 13.154 8.246 C 12.153 9.694 10.933 11.458 10.458 12.254 C 9.635 13.051 10.872 16.919 11.278 18.193 L 11.292 18.232 C 11.685 19.466 12.821 19.893 14.274 20.27 C 15.724 20.647 14.612 21.722 14.273 21.878 C 14 22.004 13.95 22.004 12.557 21.999 C 12.22 21.997 11.804 21.995 11.29 21.995 C 8.735 21.995 7.656 21.736 7.18 19.894 C 6.708 18.07 4.871 15.967 3.651 14.705 C 2.505 13.521 2.835 12.291 4.942 10.682 C 6.627 9.394 8.558 5.519 9.313 3.742 C 9.316 3.732 9.452 3.311 9.682 3.063" transform="matrix(1 0 0 1 0 0)" fill="#FFFFFF" stroke="none" />
</svg>
