<?xml version="1.0" encoding="UTF-8"?>
<!-- Reconstructed from Amplitude.Graphics.Svg.SvgAsset and recolored from static UIMapper.Color metadata for EWShop; not original source SVG. Live UI state/material colors are not included. -->
<svg xmlns="http://www.w3.org/2000/svg" width="24" height="24" viewBox="0 0 24 24">
  <path d="M 10.122 0 C 7.943 1.643 5.459 2.906 2.789 3.721 C 2.237 3.889 1.5 4.605 1.5 5.147 L 1.5 13.157 C 1.5 16.119 2.507 18.402 5.073 20.144 L 10.754 24 L 4.467 21.065 C 1.619 19.131 0.409 16.514 0.409 13.157 L 0.409 5.147 C 0.409 4.065 1.512 2.954 2.475 2.66 C 4.52 2.036 8.368 1.137 10.122 0" transform="matrix(1 0 0 1 0 0)" fill="#FFFFFF" stroke="none" />
  <path d="M 13.854 0 C 15.486 1.137 19.071 2.036 21.116 2.66 L 21.889 2.896 C 22.851 3.189 23.591 4.065 23.591 5.147 L 23.591 13.157 C 23.591 16.514 22.177 19.131 19.329 21.065 L 13.042 24 L 18.723 20.144 C 21.289 18.402 22.5 16.119 22.5 13.157 L 22.5 5.147 C 22.5 4.605 22.126 4.125 21.574 3.956 L 20.802 3.721 C 18.132 2.906 15.946 1.643 13.854 0" transform="matrix(1 0 0 1 0 0)" fill="#FFFFFF" stroke="none" />
  <path d="M 16.012 20.531 L 12.686 22.79 C 12.272 23.07 11.727 23.07 11.314 22.79 L 8.249 20.709 L 8.929 20.152 L 11.777 22.086 C 11.91 22.176 12.09 22.176 12.223 22.086 L 15.398 19.929 L 16.012 20.531" transform="matrix(1 0 0 1 0 0)" fill="#FFFFFF" stroke="none" />
  <path d="M 3.666 12.671 L 3.666 12.978 C 3.666 15.012 4.606 16.933 6.22 18.268 L 5.973 19.147 C 4.008 17.659 2.833 15.401 2.833 12.978 L 2.833 12.183 L 3.666 12.671" transform="matrix(1 0 0 1 0 0)" fill="#FFFFFF" stroke="none" />
  <path d="M 19.927 17.11 C 19.537 17.71 19.063 18.262 18.513 18.749 L 18.195 17.899 C 18.497 17.609 18.77 17.296 19.012 16.965 L 19.927 17.11" transform="matrix(1 0 0 1 0 0)" fill="#FFFFFF" stroke="none" />
  <path d="M 21.166 12.978 C 21.166 13.638 21.077 14.286 20.91 14.91 L 20.171 14.417 C 20.275 13.948 20.333 13.466 20.333 12.978 L 20.333 12.408 L 21.166 11.889 L 21.166 12.978" transform="matrix(1 0 0 1 0 0)" fill="#FFFFFF" stroke="none" />
  <path d="M 7.862 4.413 C 6.938 4.879 5.968 5.269 4.964 5.576 L 4.373 5.756 C 3.951 5.885 3.666 6.252 3.666 6.667 L 3.666 9.614 L 2.833 9.575 L 2.833 6.667 C 2.833 5.84 3.398 5.17 4.134 4.946 L 4.724 4.766 C 5.759 4.45 6.755 4.04 7.699 3.548 L 7.862 4.413" transform="matrix(1 0 0 1 0 0)" fill="#FFFFFF" stroke="none" />
  <path d="M 20.628 5.399 C 20.957 5.721 21.166 6.164 21.166 6.667 L 21.166 9.09 L 20.333 8.996 L 20.333 6.667 C 20.333 6.502 20.287 6.346 20.207 6.209 L 20.544 5.609 C 20.582 5.542 20.607 5.471 20.628 5.399" transform="matrix(1 0 0 1 0 0)" fill="#FFFFFF" stroke="none" />
  <path d="M 10.866 1.416 C 11.514 0.861 12.485 0.861 13.133 1.416 C 14.735 2.787 16.611 3.854 18.653 4.561 L 17.718 5.119 C 16.791 4.757 15.9 4.322 15.054 3.82 L 14.931 3.259 C 14.837 2.836 14.48 2.521 14.048 2.48 C 13.795 2.456 13.551 2.531 13.356 2.676 C 13.097 2.479 12.843 2.274 12.596 2.062 C 12.258 1.774 11.741 1.773 11.403 2.062 C 11.07 2.347 10.725 2.619 10.37 2.878 L 9.854 2.213 C 10.202 1.96 10.54 1.695 10.866 1.416" transform="matrix(1 0 0 1 0 0)" fill="#FFFFFF" stroke="none" />
  <path d="M 12.354 7.612 L 13.76 4.329 L 14.648 8.348 L 18.907 5.81 L 16.626 9.879 L 21.003 10.374 L 16.365 13.266 L 20.273 15.871 L 15.818 15.168 L 17.85 20.613 L 13.916 16.757 L 12.744 19.05 L 11.545 16.288 L 7.09 19.936 L 8.627 14.464 L 6.204 14.829 L 7.897 13.553 L 3 10.687 L 8.054 10.921 L 6.726 8.107 L 9.904 8.94 L 8.783 3 L 12.354 7.612 M 11.242 10.811 L 10.091 10.509 L 10.572 11.527 L 8.742 11.442 L 10.516 12.481 L 9.902 12.942 L 10.779 12.811 L 10.223 14.792 L 11.836 13.471 L 12.271 14.471 L 12.695 13.641 L 14.139 15.084 L 13.384 13.065 L 14.997 13.32 L 13.582 12.377 L 15.261 11.329 L 13.676 11.15 L 14.091 9.282 L 12.978 10.509 L 12.639 9.141 L 12.129 10.329 L 10.836 8.659 L 11.242 10.811" transform="matrix(1 0 0 1 0 0)" fill="#FFFFFF" stroke="none" />
</svg>
