<?xml version="1.0" encoding="UTF-8"?>
<!-- Reconstructed from Amplitude.Graphics.Svg.SvgAsset and recolored from static UIMapper.Color metadata for EWShop; not original source SVG. Live UI state/material colors are not included. -->
<svg xmlns="http://www.w3.org/2000/svg" width="24" height="24" viewBox="0 0 24 24">
  <path d="M 12.691 9.14 C 14.554 9.234 16.035 10.77 16.035 12.649 L 16.031 12.83 C 15.937 14.687 14.396 16.164 12.51 16.164 L 12.328 16.159 C 10.525 16.068 9.08 14.627 8.988 12.83 L 8.983 12.649 C 8.984 10.709 10.563 9.135 12.51 9.135 L 12.691 9.14 M 12.51 10.135 C 11.112 10.135 9.984 11.264 9.983 12.649 C 9.983 14.035 11.112 15.164 12.51 15.164 C 13.908 15.164 15.035 14.035 15.035 12.649 C 15.035 11.264 13.908 10.135 12.51 10.135" transform="matrix(1 0 0 1 0 0)" fill="#FFFFFF" stroke="none" />
  <path d="M 9.362 9.354 C 8.489 10.183 7.943 11.353 7.943 12.65 C 7.944 13.947 8.488 15.116 9.361 15.945 C 6.497 14.844 4.487 12.662 4.476 12.649 C 4.5 12.623 6.507 10.451 9.362 9.354" transform="matrix(1 0 0 1 0 0)" fill="#FFFFFF" stroke="none" />
  <path d="M 15.655 9.353 C 18.515 10.451 20.525 12.629 20.544 12.649 C 20.519 12.676 18.511 14.848 15.656 15.945 C 16.53 15.116 17.076 13.947 17.076 12.65 C 17.076 11.352 16.53 10.182 15.655 9.353" transform="matrix(1 0 0 1 0 0)" fill="#FFFFFF" stroke="none" />
  <path d="M 3.697 14.254 C 4.035 14.183 4.378 14.225 4.667 14.474 C 4.83 14.616 5.029 14.677 5.223 14.67 C 6.149 15.405 7.457 16.285 9.003 16.88 C 9.433 17.045 9.917 16.894 10.179 16.52 C 10.86 16.929 11.658 17.165 12.509 17.165 C 13.361 17.165 14.158 16.929 14.838 16.52 C 15.101 16.894 15.585 17.045 16.015 16.88 C 17.63 16.259 18.985 15.325 19.917 14.571 C 20.038 14.804 20.116 15.067 20.136 15.352 C 20.16 15.689 20.279 15.928 20.439 16.098 C 20.601 16.27 20.812 16.379 21.025 16.446 C 21.237 16.513 21.448 16.538 21.607 16.546 C 21.665 16.548 21.717 16.548 21.757 16.548 C 21.793 16.547 21.82 16.545 21.839 16.545 C 21.849 16.544 21.857 16.544 21.862 16.544 L 21.87 16.544 C 21.924 16.541 21.971 16.582 21.975 16.636 C 21.979 16.69 21.937 16.738 21.883 16.743 L 21.882 16.744 C 21.881 16.744 21.879 16.744 21.878 16.744 C 21.874 16.744 21.868 16.744 21.862 16.745 C 21.848 16.746 21.828 16.746 21.803 16.747 C 21.797 16.747 21.79 16.747 21.783 16.747 C 21.775 16.747 21.767 16.748 21.758 16.748 C 21.682 16.749 21.573 16.75 21.442 16.747 C 21.18 16.74 20.828 16.716 20.472 16.648 C 20.118 16.581 19.751 16.468 19.464 16.28 C 19.175 16.09 18.961 15.818 18.934 15.438 C 18.932 15.402 18.926 15.366 18.919 15.332 C 18.696 15.79 18.418 16.22 18.092 16.615 C 18.346 17.081 18.421 17.65 18.234 18.211 C 18.127 18.532 18.146 18.798 18.229 19.016 C 18.313 19.236 18.467 19.418 18.637 19.561 C 18.808 19.704 18.994 19.808 19.137 19.876 C 19.19 19.9 19.237 19.92 19.275 19.935 C 19.308 19.948 19.334 19.958 19.352 19.965 C 19.361 19.968 19.368 19.971 19.373 19.972 C 19.375 19.973 19.377 19.973 19.379 19.973 L 19.38 19.975 C 19.431 19.994 19.459 20.05 19.442 20.101 C 19.425 20.152 19.368 20.181 19.316 20.165 C 19.315 20.164 19.313 20.163 19.311 20.163 C 19.308 20.162 19.302 20.16 19.296 20.158 C 19.283 20.153 19.264 20.146 19.241 20.137 C 19.235 20.135 19.228 20.132 19.221 20.13 C 19.215 20.127 19.207 20.124 19.2 20.121 C 19.129 20.093 19.027 20.052 18.908 19.999 C 18.669 19.892 18.352 19.735 18.049 19.537 C 17.748 19.339 17.451 19.094 17.258 18.811 C 17.064 18.525 16.971 18.192 17.091 17.831 C 17.121 17.743 17.131 17.654 17.13 17.567 C 16.734 17.888 16.3 18.17 15.833 18.403 C 15.952 18.986 15.818 19.622 15.383 20.124 C 15.162 20.379 15.077 20.632 15.07 20.866 C 15.063 21.102 15.136 21.327 15.239 21.525 C 15.342 21.722 15.473 21.89 15.58 22.008 C 15.619 22.051 15.656 22.086 15.685 22.115 C 15.711 22.139 15.732 22.159 15.746 22.172 C 15.752 22.178 15.758 22.184 15.761 22.187 C 15.763 22.189 15.765 22.189 15.766 22.19 L 15.766 22.192 C 15.806 22.228 15.811 22.291 15.776 22.332 C 15.74 22.373 15.677 22.377 15.635 22.342 C 15.635 22.342 15.632 22.34 15.631 22.34 C 15.629 22.337 15.624 22.333 15.619 22.329 C 15.609 22.32 15.595 22.305 15.577 22.289 C 15.572 22.285 15.567 22.279 15.562 22.274 C 15.557 22.269 15.55 22.263 15.545 22.258 C 15.489 22.205 15.411 22.128 15.321 22.033 C 15.141 21.843 14.909 21.577 14.705 21.278 C 14.502 20.98 14.322 20.64 14.253 20.304 C 14.182 19.966 14.224 19.623 14.473 19.335 C 14.594 19.195 14.655 19.029 14.667 18.863 C 14.173 19.011 13.655 19.108 13.12 19.151 C 13.068 19.822 12.689 20.465 12.017 20.8 C 11.715 20.952 11.54 21.153 11.444 21.366 C 11.348 21.581 11.328 21.818 11.347 22.04 C 11.367 22.261 11.425 22.466 11.478 22.616 C 11.498 22.671 11.518 22.718 11.534 22.756 C 11.548 22.788 11.56 22.814 11.568 22.831 C 11.572 22.839 11.575 22.847 11.577 22.851 C 11.578 22.853 11.579 22.855 11.58 22.856 L 11.58 22.858 C 11.603 22.907 11.583 22.967 11.535 22.991 C 11.486 23.015 11.426 22.995 11.401 22.947 L 11.4 22.946 C 11.4 22.945 11.399 22.943 11.398 22.942 C 11.396 22.939 11.394 22.933 11.391 22.927 C 11.385 22.915 11.377 22.897 11.367 22.875 C 11.364 22.869 11.362 22.862 11.359 22.855 C 11.356 22.849 11.352 22.841 11.349 22.834 C 11.319 22.764 11.276 22.663 11.229 22.541 C 11.135 22.296 11.023 21.962 10.949 21.607 C 10.875 21.254 10.839 20.871 10.903 20.535 C 10.968 20.195 11.137 19.894 11.478 19.723 C 11.717 19.604 11.863 19.387 11.908 19.152 C 11.377 19.11 10.863 19.015 10.373 18.87 C 10.1 19.553 9.465 20.079 8.649 20.137 C 8.312 20.161 8.073 20.28 7.903 20.44 C 7.731 20.602 7.623 20.813 7.556 21.026 C 7.489 21.238 7.464 21.449 7.457 21.608 C 7.454 21.666 7.454 21.718 7.455 21.758 C 7.455 21.793 7.456 21.822 7.457 21.841 C 7.457 21.85 7.457 21.858 7.458 21.863 C 7.458 21.865 7.458 21.868 7.459 21.869 L 7.458 21.871 C 7.46 21.925 7.419 21.972 7.365 21.976 C 7.311 21.98 7.263 21.938 7.258 21.884 L 7.257 21.883 C 7.257 21.883 7.257 21.88 7.257 21.879 C 7.257 21.875 7.257 21.869 7.256 21.863 C 7.256 21.849 7.255 21.829 7.254 21.804 C 7.254 21.798 7.255 21.791 7.254 21.784 C 7.254 21.777 7.254 21.768 7.253 21.759 C 7.252 21.683 7.252 21.574 7.255 21.443 C 7.262 21.181 7.286 20.829 7.353 20.473 C 7.42 20.119 7.533 19.752 7.721 19.466 C 7.911 19.176 8.183 18.962 8.563 18.935 C 8.887 18.912 9.14 18.704 9.252 18.434 C 8.789 18.209 8.356 17.937 7.961 17.626 C 7.453 18.221 6.614 18.509 5.791 18.235 C 5.47 18.128 5.204 18.147 4.986 18.23 C 4.765 18.314 4.585 18.468 4.441 18.638 C 4.298 18.809 4.193 18.994 4.126 19.137 C 4.101 19.19 4.081 19.238 4.066 19.276 C 4.053 19.309 4.044 19.335 4.038 19.353 C 4.034 19.362 4.031 19.369 4.029 19.374 C 4.028 19.376 4.028 19.379 4.028 19.38 L 4.026 19.381 C 4.008 19.432 3.952 19.46 3.901 19.443 C 3.849 19.426 3.821 19.369 3.837 19.317 C 3.838 19.316 3.838 19.314 3.838 19.312 C 3.84 19.309 3.842 19.303 3.844 19.297 C 3.849 19.284 3.855 19.265 3.864 19.242 C 3.866 19.236 3.87 19.229 3.873 19.222 C 3.875 19.216 3.878 19.208 3.88 19.201 C 3.908 19.13 3.949 19.028 4.003 18.909 C 4.109 18.67 4.266 18.353 4.464 18.05 C 4.662 17.749 4.907 17.452 5.191 17.259 C 5.477 17.065 5.81 16.972 6.171 17.092 C 6.524 17.21 6.884 17.07 7.082 16.798 C 6.752 16.426 6.466 16.02 6.23 15.587 C 5.519 16.011 4.57 15.985 3.878 15.384 C 3.622 15.163 3.37 15.078 3.136 15.071 C 2.9 15.064 2.674 15.137 2.476 15.24 C 2.279 15.343 2.111 15.474 1.994 15.581 C 1.95 15.62 1.915 15.657 1.886 15.686 C 1.862 15.712 1.843 15.733 1.83 15.747 C 1.823 15.754 1.817 15.759 1.814 15.762 C 1.813 15.764 1.812 15.766 1.811 15.767 L 1.809 15.767 C 1.773 15.808 1.711 15.812 1.669 15.777 C 1.628 15.741 1.624 15.678 1.659 15.636 L 1.663 15.633 C 1.665 15.63 1.669 15.625 1.673 15.62 C 1.682 15.61 1.696 15.595 1.712 15.578 C 1.717 15.573 1.722 15.568 1.727 15.563 C 1.732 15.558 1.738 15.551 1.744 15.546 C 1.797 15.49 1.873 15.412 1.968 15.322 C 2.158 15.142 2.424 14.91 2.723 14.706 C 3.021 14.503 3.361 14.323 3.697 14.254 M 15.5 22.068 L 15.505 22.074 C 15.468 22.033 15.428 21.985 15.387 21.933 C 15.426 21.983 15.464 22.029 15.5 22.068 M 7.385 21.321 C 7.383 21.334 7.381 21.347 7.379 21.359 C 7.388 21.296 7.4 21.229 7.416 21.161 L 7.385 21.321 M 8.57 19.036 C 8.608 19.033 8.647 19.027 8.683 19.02 L 8.57 19.036 M 18.103 18.305 C 18.1 18.32 18.097 18.335 18.094 18.349 C 18.106 18.294 18.12 18.237 18.139 18.179 L 18.103 18.305 M 21.122 16.63 L 21.445 16.646 C 21.331 16.643 21.2 16.634 21.06 16.623 C 21.081 16.624 21.101 16.628 21.122 16.63 M 21.445 16.646 L 21.601 16.645 C 21.599 16.645 21.597 16.644 21.594 16.644 C 21.549 16.644 21.499 16.648 21.445 16.646 M 21.32 16.617 C 21.337 16.62 21.355 16.62 21.372 16.623 C 21.304 16.614 21.233 16.602 21.16 16.586 L 21.32 16.617 M 19.046 15.525 C 19.047 15.532 19.048 15.54 19.049 15.547 C 19.042 15.51 19.038 15.471 19.035 15.431 L 19.046 15.525 M 20.05 15.49 C 20.053 15.504 20.056 15.519 20.058 15.533 C 20.048 15.478 20.041 15.42 20.037 15.36 L 20.05 15.49 M 2.038 15.395 C 2.009 15.422 1.984 15.449 1.96 15.474 C 2.003 15.432 2.051 15.385 2.104 15.336 L 2.038 15.395 M 3.943 15.309 L 3.84 15.227 C 3.829 15.219 3.817 15.212 3.806 15.204 C 3.851 15.235 3.898 15.27 3.943 15.309 M 20.005 15.122 L 19.95 14.909 C 19.949 14.908 19.948 14.906 19.948 14.905 C 19.97 14.975 19.99 15.048 20.005 15.122" transform="matrix(1 0 0 1 0 0)" fill="#FFFFFF" stroke="none" />
  <path d="M 22.857 12.422 C 22.906 12.398 22.965 12.418 22.99 12.466 C 23.014 12.515 22.994 12.575 22.946 12.6 L 22.945 12.601 C 22.944 12.602 22.943 12.602 22.941 12.603 C 22.938 12.605 22.932 12.607 22.926 12.61 C 22.914 12.616 22.896 12.624 22.874 12.634 C 22.868 12.637 22.861 12.639 22.854 12.642 C 22.847 12.645 22.84 12.649 22.833 12.652 C 22.763 12.683 22.662 12.725 22.54 12.772 C 22.295 12.866 21.961 12.979 21.606 13.052 C 21.553 13.063 21.5 13.071 21.446 13.08 C 21.515 12.934 21.548 12.776 21.543 12.618 C 21.706 12.66 21.876 12.668 22.039 12.654 C 22.26 12.635 22.465 12.577 22.615 12.523 C 22.67 12.503 22.717 12.484 22.755 12.467 C 22.787 12.453 22.812 12.441 22.83 12.433 C 22.838 12.429 22.846 12.427 22.85 12.424 C 22.852 12.423 22.854 12.422 22.855 12.422 L 22.857 12.422 M 22.644 12.618 C 22.515 12.671 22.345 12.738 22.151 12.8 C 22.28 12.759 22.4 12.718 22.504 12.678 L 22.648 12.618 C 22.647 12.618 22.645 12.618 22.644 12.618" transform="matrix(1 0 0 1 0 0)" fill="#FFFFFF" stroke="none" />
  <path d="M 2.395 10.95 C 2.748 10.876 3.131 10.84 3.467 10.904 C 3.799 10.967 4.093 11.131 4.265 11.456 C 4.239 11.48 4.213 11.502 4.189 11.525 C 4.172 11.491 4.152 11.458 4.132 11.427 L 4.189 11.525 C 3.911 11.788 3.755 11.957 3.741 11.972 C 3.612 12.112 3.531 12.279 3.496 12.453 C 3.383 12.325 3.283 12.18 3.202 12.018 C 3.051 11.716 2.849 11.541 2.636 11.445 C 2.421 11.349 2.185 11.329 1.962 11.348 C 1.741 11.368 1.536 11.426 1.386 11.479 C 1.332 11.499 1.284 11.519 1.247 11.535 C 1.214 11.549 1.189 11.561 1.171 11.569 C 1.163 11.573 1.155 11.576 1.151 11.578 C 1.149 11.579 1.147 11.58 1.146 11.581 L 1.144 11.581 C 1.095 11.604 1.036 11.584 1.011 11.536 C 0.987 11.487 1.007 11.427 1.055 11.402 L 1.056 11.401 C 1.057 11.401 1.059 11.4 1.06 11.399 C 1.063 11.397 1.069 11.395 1.075 11.392 C 1.087 11.386 1.105 11.378 1.128 11.368 C 1.133 11.365 1.141 11.363 1.147 11.36 C 1.154 11.357 1.161 11.353 1.169 11.35 C 1.239 11.32 1.339 11.277 1.461 11.23 C 1.706 11.136 2.041 11.024 2.395 10.95" transform="matrix(1 0 0 1 0 0)" fill="#FFFFFF" stroke="none" />
  <path d="M 12.465 1.012 C 12.514 0.988 12.574 1.008 12.599 1.056 L 12.6 1.057 C 12.601 1.058 12.602 1.06 12.602 1.061 C 12.604 1.065 12.606 1.07 12.609 1.076 C 12.615 1.088 12.624 1.107 12.633 1.129 C 12.636 1.134 12.638 1.142 12.641 1.148 C 12.644 1.155 12.648 1.162 12.651 1.17 C 12.682 1.24 12.724 1.341 12.771 1.463 C 12.865 1.707 12.978 2.042 13.051 2.396 C 13.125 2.749 13.161 3.132 13.097 3.468 C 13.032 3.808 12.863 4.109 12.522 4.28 C 12.029 4.527 11.922 5.184 12.311 5.575 L 12.867 6.131 C 12.749 6.125 12.63 6.124 12.51 6.124 L 12.872 6.131 C 13.093 6.142 13.312 6.163 13.527 6.192 C 13.52 6.191 13.513 6.19 13.505 6.189 C 13.323 5.059 14.143 3.952 15.351 3.866 C 15.689 3.842 15.927 3.722 16.097 3.562 C 16.269 3.4 16.378 3.19 16.445 2.977 C 16.512 2.765 16.537 2.553 16.545 2.394 C 16.547 2.336 16.547 2.285 16.546 2.244 C 16.546 2.209 16.544 2.181 16.544 2.162 C 16.543 2.152 16.544 2.144 16.544 2.139 C 16.543 2.137 16.543 2.135 16.543 2.133 L 16.543 2.131 C 16.54 2.077 16.581 2.03 16.635 2.026 C 16.69 2.022 16.737 2.064 16.742 2.118 L 16.743 2.12 C 16.743 2.121 16.743 2.122 16.743 2.124 C 16.743 2.127 16.743 2.134 16.744 2.14 C 16.745 2.154 16.745 2.174 16.746 2.198 C 16.746 2.204 16.746 2.212 16.746 2.219 C 16.746 2.227 16.747 2.235 16.747 2.243 C 16.748 2.319 16.749 2.429 16.746 2.559 C 16.739 2.821 16.715 3.173 16.647 3.529 C 16.58 3.883 16.467 4.25 16.279 4.537 C 16.089 4.826 15.817 5.04 15.437 5.067 C 14.887 5.106 14.536 5.673 14.747 6.182 L 14.88 6.504 C 14.855 6.495 14.83 6.488 14.805 6.48 C 15.132 6.585 15.447 6.712 15.75 6.858 C 15.746 6.856 15.742 6.854 15.738 6.852 C 16.144 5.95 17.189 5.427 18.21 5.767 C 18.53 5.874 18.797 5.856 19.015 5.773 C 19.236 5.689 19.417 5.536 19.56 5.365 C 19.703 5.194 19.807 5.009 19.875 4.865 C 19.9 4.812 19.919 4.764 19.934 4.726 C 19.947 4.693 19.956 4.667 19.963 4.649 C 19.966 4.64 19.97 4.633 19.971 4.629 C 19.972 4.626 19.972 4.624 19.972 4.623 L 19.974 4.622 C 19.992 4.571 20.048 4.542 20.099 4.559 C 20.151 4.577 20.18 4.633 20.164 4.685 L 20.156 4.706 C 20.151 4.719 20.145 4.737 20.136 4.76 C 20.134 4.766 20.13 4.773 20.128 4.78 C 20.125 4.787 20.123 4.794 20.12 4.801 C 20.092 4.873 20.051 4.974 19.998 5.093 C 19.891 5.333 19.734 5.649 19.536 5.952 C 19.338 6.254 19.093 6.55 18.81 6.743 C 18.524 6.937 18.191 7.03 17.83 6.91 C 17.373 6.758 16.903 7.034 16.79 7.473 C 17.167 7.743 17.514 8.047 17.825 8.381 C 18.53 7.991 19.448 8.033 20.123 8.618 C 20.378 8.839 20.631 8.924 20.865 8.931 C 21.101 8.938 21.326 8.865 21.524 8.762 C 21.722 8.66 21.889 8.528 22.006 8.422 C 22.05 8.382 22.085 8.345 22.114 8.316 C 22.138 8.291 22.158 8.27 22.171 8.256 C 22.177 8.249 22.183 8.244 22.186 8.24 C 22.187 8.238 22.188 8.237 22.189 8.236 L 22.191 8.235 C 22.227 8.195 22.289 8.19 22.331 8.225 C 22.372 8.261 22.376 8.324 22.341 8.366 C 22.341 8.367 22.34 8.369 22.338 8.371 C 22.336 8.374 22.332 8.378 22.328 8.382 C 22.319 8.393 22.305 8.407 22.288 8.425 L 22.256 8.457 C 22.203 8.512 22.127 8.59 22.032 8.68 C 21.842 8.86 21.576 9.093 21.277 9.297 C 20.979 9.5 20.639 9.679 20.303 9.749 C 19.965 9.819 19.622 9.777 19.334 9.528 C 19.115 9.338 18.832 9.292 18.582 9.363 C 18.707 9.562 18.818 9.769 18.921 9.98 C 18.11 9.419 17.123 8.845 16.014 8.42 C 15.584 8.254 15.099 8.406 14.838 8.78 C 14.157 8.372 13.361 8.135 12.509 8.135 C 11.658 8.136 10.86 8.371 10.179 8.78 C 9.917 8.407 9.434 8.256 9.004 8.421 C 7.571 8.971 6.342 9.767 5.433 10.466 C 4.608 10.281 3.931 9.583 3.865 8.65 C 3.841 8.313 3.721 8.074 3.561 7.904 C 3.399 7.733 3.189 7.624 2.976 7.557 C 2.764 7.49 2.552 7.465 2.393 7.458 C 2.335 7.455 2.284 7.455 2.243 7.456 C 2.208 7.456 2.18 7.457 2.161 7.458 C 2.151 7.458 2.143 7.458 2.138 7.459 C 2.136 7.459 2.134 7.459 2.132 7.46 L 2.13 7.459 C 2.076 7.461 2.029 7.42 2.025 7.366 C 2.021 7.312 2.063 7.264 2.117 7.259 L 2.119 7.258 C 2.12 7.258 2.121 7.259 2.123 7.258 C 2.126 7.258 2.133 7.258 2.139 7.257 C 2.153 7.257 2.173 7.256 2.197 7.256 C 2.203 7.255 2.211 7.256 2.218 7.256 C 2.226 7.255 2.234 7.255 2.242 7.255 C 2.318 7.253 2.427 7.253 2.558 7.256 C 2.82 7.263 3.172 7.287 3.528 7.354 C 3.882 7.421 4.25 7.534 4.537 7.722 C 4.825 7.912 5.039 8.184 5.066 8.564 C 5.105 9.114 5.672 9.465 6.181 9.255 L 6.636 9.066 C 6.81 8.821 7.002 8.587 7.209 8.367 C 7.204 8.372 7.198 8.377 7.193 8.382 C 6.087 8.112 5.385 6.936 5.766 5.792 C 5.873 5.471 5.855 5.205 5.772 4.987 C 5.688 4.767 5.534 4.585 5.364 4.442 C 5.193 4.299 5.008 4.195 4.864 4.127 C 4.811 4.102 4.763 4.082 4.725 4.067 C 4.693 4.054 4.666 4.045 4.648 4.039 C 4.639 4.035 4.632 4.032 4.628 4.03 C 4.625 4.029 4.623 4.029 4.622 4.029 L 4.621 4.027 C 4.57 4.009 4.541 3.953 4.558 3.902 C 4.575 3.85 4.632 3.822 4.684 3.839 C 4.685 3.839 4.689 3.839 4.69 3.839 C 4.693 3.841 4.699 3.843 4.705 3.845 C 4.718 3.85 4.737 3.856 4.759 3.865 C 4.765 3.867 4.772 3.871 4.779 3.874 C 4.785 3.876 4.793 3.879 4.8 3.881 C 4.872 3.909 4.974 3.95 5.093 4.004 C 5.332 4.11 5.648 4.267 5.951 4.465 C 6.252 4.663 6.549 4.909 6.742 5.192 C 6.936 5.478 7.029 5.811 6.909 6.172 C 6.735 6.696 7.124 7.236 7.675 7.237 L 8.559 7.237 C 8.565 7.237 8.57 7.239 8.576 7.24 C 8.562 7.248 8.549 7.258 8.536 7.266 C 8.728 7.144 8.927 7.029 9.132 6.924 C 9.127 6.927 9.122 6.93 9.117 6.932 C 8.052 6.31 7.779 4.844 8.617 3.879 C 8.838 3.623 8.923 3.371 8.93 3.137 C 8.937 2.902 8.864 2.675 8.761 2.477 C 8.659 2.28 8.527 2.112 8.42 1.995 C 8.381 1.952 8.344 1.916 8.315 1.887 C 8.29 1.863 8.269 1.844 8.255 1.831 C 8.249 1.824 8.242 1.818 8.239 1.815 C 8.238 1.814 8.236 1.813 8.235 1.812 L 8.234 1.81 C 8.194 1.774 8.189 1.712 8.224 1.671 C 8.26 1.629 8.323 1.625 8.365 1.66 L 8.366 1.661 C 8.367 1.661 8.369 1.663 8.37 1.664 C 8.372 1.666 8.377 1.67 8.381 1.674 C 8.392 1.683 8.407 1.697 8.424 1.714 L 8.456 1.745 C 8.511 1.798 8.589 1.874 8.679 1.969 C 8.859 2.159 9.092 2.425 9.295 2.724 C 9.499 3.022 9.678 3.362 9.748 3.698 C 9.818 4.036 9.777 4.38 9.527 4.668 C 9.166 5.084 9.319 5.733 9.828 5.945 L 10.644 6.283 C 10.671 6.294 10.689 6.316 10.699 6.341 C 10.89 6.294 11.084 6.256 11.281 6.223 C 10.528 5.241 10.837 3.776 11.983 3.203 C 12.285 3.052 12.46 2.85 12.556 2.637 C 12.653 2.422 12.672 2.186 12.653 1.964 C 12.634 1.742 12.576 1.537 12.522 1.387 C 12.503 1.333 12.482 1.285 12.466 1.248 C 12.452 1.216 12.44 1.19 12.432 1.172 C 12.428 1.164 12.425 1.157 12.423 1.152 C 12.423 1.15 12.421 1.148 12.421 1.147 L 12.421 1.145 C 12.397 1.096 12.417 1.037 12.465 1.012 M 17.952 6.84 C 17.958 6.842 17.966 6.842 17.972 6.843 C 17.936 6.836 17.898 6.827 17.861 6.815 L 17.952 6.84 M 6.769 6.361 C 6.767 6.385 6.767 6.409 6.767 6.432 C 6.767 6.407 6.768 6.38 6.77 6.354 L 6.769 6.361 M 18.304 5.899 C 18.323 5.904 18.343 5.906 18.361 5.91 C 18.302 5.898 18.241 5.883 18.178 5.862 L 18.304 5.899 M 5.861 5.823 L 5.898 5.697 C 5.902 5.683 5.904 5.668 5.907 5.654 C 5.895 5.709 5.88 5.765 5.861 5.823 M 9.326 4.789 C 9.318 4.803 9.313 4.819 9.306 4.834 C 9.314 4.817 9.321 4.799 9.33 4.783 L 9.326 4.789 M 12.367 4.255 C 12.354 4.264 12.341 4.274 12.329 4.284 C 12.345 4.271 12.361 4.259 12.379 4.248 L 12.367 4.255 M 8.693 3.944 L 8.775 3.842 C 8.787 3.826 8.797 3.808 8.808 3.792 C 8.774 3.842 8.737 3.894 8.693 3.944 M 12.687 1.527 C 12.684 1.518 12.681 1.508 12.677 1.499 L 12.662 1.463 C 12.67 1.483 12.679 1.505 12.687 1.527" transform="matrix(1 0 0 1 0 0)" fill="#FFFFFF" stroke="none" />
</svg>
