<?xml version="1.0" encoding="UTF-8"?>
<!-- Reconstructed from Amplitude.Graphics.Svg.SvgAsset and recolored from static UIMapper.Color metadata for EWShop; not original source SVG. Live UI state/material colors are not included. -->
<svg xmlns="http://www.w3.org/2000/svg" width="24" height="24" viewBox="0 0 24 24">
  <path d="M 11.774 1.127 L 12.647 2 L 11.774 2.873 L 12.128 3.226 L 13 2.354 L 13.873 3.226 L 14.226 2.873 L 13.354 2 L 14.226 1.127 L 13.873 0.774 L 13 1.647 L 12.128 0.774 L 11.774 1.127" transform="matrix(1 0 0 1 0 0)" fill="#FFFFFF" stroke="none" />
  <path d="M 2.449 6.624 C 2.493 6.358 2.393 6.088 2.186 5.915 L 1.229 5.114 L 2.46 5.318 C 2.726 5.362 2.996 5.262 3.169 5.055 L 3.97 4.099 L 3.766 5.33 C 3.722 5.596 3.821 5.866 4.028 6.039 L 4.985 6.839 L 3.754 6.635 C 3.488 6.591 3.218 6.691 3.045 6.898 L 2.244 7.855 L 2.449 6.624" transform="matrix(1 0 0 1 0 0)" fill="#FFFFFF" stroke="none" />
  <path d="M 14.83 14.517 L 15.139 14.735 C 15.5 14.989 15.783 15.339 15.956 15.745 L 17.406 19.354 C 17.43 19.409 17.461 19.46 17.5 19.506 C 17.616 19.642 17.806 19.672 17.984 19.684 C 18.646 19.73 19.25 20.188 19.29 20.85 C 19.304 21.078 19.28 21.25 19.188 21.275 C 19.052 21.312 18.81 21.521 18.587 21.741 C 18.361 21.964 18.385 22.328 18.624 22.538 C 18.863 22.748 19.178 22.85 19.494 22.819 C 20.359 22.735 21.204 22.509 21.995 22.149 C 22.284 22.017 22.506 21.772 22.608 21.47 C 22.71 21.17 22.549 20.841 22.242 20.761 C 21.938 20.683 21.625 20.622 21.488 20.659 C 21.396 20.684 21.29 20.546 21.188 20.342 C 20.891 19.748 21.185 19.049 21.736 18.679 C 21.884 18.579 22.033 18.458 22.066 18.282 C 22.076 18.224 22.078 18.164 22.071 18.104 L 21.522 14.254 C 21.47 13.815 21.54 13.371 21.725 12.97 L 21.884 12.627 C 22.095 12.168 21.677 11.671 21.189 11.802 L 15.019 13.455 C 14.531 13.586 14.417 14.226 14.83 14.517" transform="matrix(1 0 0 1 0 0)" fill="#FFFFFF" stroke="none" />
  <path d="M 18.808 6.463 C 18.639 5.844 18.156 5.361 17.537 5.192 L 15 4.5 L 17.537 3.808 C 18.156 3.639 18.639 3.156 18.808 2.537 L 19.5 0 L 20.192 2.537 C 20.361 3.156 20.844 3.639 21.463 3.808 L 24 4.5 L 21.463 5.192 C 20.844 5.361 20.361 5.844 20.192 6.463 L 19.5 9 L 18.808 6.463" transform="matrix(1 0 0 1 0 0)" fill="#FFFFFF" stroke="none" />
  <path d="M 11.782 19.451 L 12.647 20.316 L 11.782 21.182 L 12.135 21.535 L 13 20.67 L 13.866 21.535 L 14.219 21.182 L 13.354 20.316 L 14.219 19.451 L 13.866 19.098 L 13 19.963 L 12.135 19.098 L 11.782 19.451" transform="matrix(1 0 0 1 0 0)" fill="#FFFFFF" stroke="none" />
  <path d="M 7.013 4.089 L 7.094 4.735 C 7.178 5.393 7.1 6.06 6.87 6.679 C 9.456 8.608 12.176 10.351 15.009 11.894 L 15.334 12.071 C 15.797 11.609 16.365 11.264 16.991 11.065 L 17.612 10.868 C 18.441 10.605 18.587 9.495 17.855 9.026 L 8.583 3.096 C 7.85 2.628 6.904 3.226 7.013 4.089" transform="matrix(1 0 0 1 0 0)" fill="#FFFFFF" stroke="none" />
  <path d="M 6.042 8.438 L 6.385 7.724 C 8.934 9.617 11.612 11.328 14.4 12.846 L 14.587 12.948 L 14.016 13.641 C 13.416 13.335 12.823 13.016 12.238 12.684 L 12.738 15.071 L 12.688 15.082 C 12.721 15.099 12.754 15.116 12.787 15.133 L 10.861 17.469 C 10.793 17.548 10.714 17.615 10.628 17.669 C 10.367 17.833 10.039 17.783 9.74 17.71 C 8.629 17.44 7.399 17.878 6.988 18.945 C 6.846 19.312 6.795 19.607 6.933 19.696 C 7.138 19.827 7.426 20.296 7.678 20.774 C 7.933 21.258 7.703 21.844 7.202 22.064 C 6.7 22.284 6.13 22.287 5.627 22.072 L 4.773 21.707 C 3.962 21.36 3.213 20.881 2.557 20.29 L 1.869 19.668 C 1.462 19.301 1.225 18.782 1.215 18.235 C 1.205 17.688 1.64 17.233 2.187 17.261 C 2.726 17.29 3.272 17.354 3.477 17.485 C 3.616 17.574 3.862 17.404 4.136 17.121 C 4.932 16.301 4.813 15 4.103 14.104 C 3.911 13.864 3.729 13.587 3.767 13.282 C 3.78 13.18 3.808 13.081 3.851 12.986 L 5.201 10.183 C 5.206 10.187 5.211 10.191 5.216 10.196 L 5.216 10.194 L 7.588 9.646 C 7.064 9.255 6.548 8.852 6.042 8.438 M 8.826 10.537 L 8.997 12.351 L 10.829 11.85 C 10.15 11.43 9.482 10.992 8.826 10.537 M 6.225 10.987 C 6.801 11.426 7.388 11.85 7.984 12.26 L 7.829 10.616 L 6.225 10.987 M 9.494 13.252 C 10.183 13.686 10.884 14.1 11.596 14.495 L 11.235 12.775 L 9.494 13.252" transform="matrix(1 0 0 1 0 0)" fill="#FFFFFF" stroke="none" />
</svg>
