<?xml version="1.0" encoding="UTF-8"?>
<!-- Reconstructed from Amplitude.Graphics.Svg.SvgAsset and recolored from static UIMapper.Color metadata for EWShop; not original source SVG. Live UI state/material colors are not included. -->
<svg xmlns="http://www.w3.org/2000/svg" width="24" height="24" viewBox="0 0 24 24">
  <path d="M 5.308 8.413 L 6.075 8.708 C 6.19 8.706 6.372 8.306 6.487 8.232 L 6.581 8.452 L 6.956 8.304 L 6.71 7.314 L 8.849 6.114 L 9.877 6.898 L 8.45 10.374 L 7.022 11.472 L 6.074 16.013 L 4.717 16.465 L 3.28 18.309 C 3.18 18.37 2.72 18.174 2.552 18.182 C 2.36 18.191 2.074 18.362 1.864 18.371 C 1.71 18.851 1.345 19.368 1.206 19.838 C 1.11 20.164 1.102 20.556 1 20.886 C 0.996 20.985 1.255 21.02 1.331 20.989 L 1.732 20.27 L 7.216 17.315 L 9.115 13.669 L 11.68 14.49 L 10.464 15.282 L 9.731 16.623 C 9.657 16.67 9.132 16.328 8.999 16.322 C 8.866 16.317 8.615 16.49 8.466 16.502 C 8.041 17.306 7.572 18.081 7.405 18.987 L 7.773 19.018 L 8.06 18.582 L 14.155 14.893 L 14.187 14.794 L 13.78 13.683 L 10.862 11.224 L 12.867 9.081 L 14.842 10.722 L 17.078 9.46 C 17.15 9.404 17.692 8.627 17.736 8.526 C 17.855 8.252 17.906 7.86 18 7.57 L 17.173 7.214 L 16.885 7.638 L 16.445 7.573 C 16.235 7.929 16.657 8.189 16.725 8.527 L 14.984 9.072 L 13.667 6.526 C 13.852 6.497 13.968 6.736 14.153 6.672 C 14.287 6.625 14.997 6.111 15.148 5.992 C 15.24 5.919 15.514 5.707 15.551 5.617 L 15.572 4.587 C 15.41 4.463 15.143 4.032 14.963 4.009 C 14.845 3.993 14.08 3.997 14.006 4.03 L 12.826 5.224 C 12.751 5.266 12.612 5.285 12.523 5.295 C 11.461 5.417 10.129 4.938 9.063 4.719 C 8.949 4.695 8.529 4.584 8.457 4.615 L 6.019 6.819 C 5.901 7.059 5.612 7.301 5.512 7.534 C 5.474 7.622 5.277 8.379 5.308 8.413" transform="matrix(1 0 0 1 0 0)" fill="#FFFFFF" stroke="none" />
  <path d="M 10 22 L 20.9 11.596 L 17 21 L 22.854 11.321 C 23.567 10.142 23.623 8.679 23.002 7.449 L 20 1.5 L 20.9 7.567 L 14.5 0.5 L 19.061 6.861 C 20.139 8.365 20.045 10.413 18.832 11.812 L 10 22" transform="matrix(1 0 0 1 0 0)" fill="#FFFFFF" stroke="none" />
  <path d="M 10.6 6 L 1 6 L 1 7.2 L 10.6 7.2 L 10.6 6" transform="matrix(1 0 0 1 0 0)" fill="#FFFFFF" stroke="none" />
  <path d="M 3.4 9.2 L 10.6 9.2 L 10.6 10.4 L 3.4 10.4 L 3.4 9.2" transform="matrix(1 0 0 1 0 0)" fill="#FFFFFF" stroke="none" />
  <path d="M 10.6 12.4 L 1 12.4 L 1 13.6 L 10.6 13.6 L 10.6 12.4" transform="matrix(1 0 0 1 0 0)" fill="#FFFFFF" stroke="none" />
</svg>
