<?xml version="1.0" encoding="UTF-8"?>
<!-- Reconstructed from Amplitude.Graphics.Svg.SvgAsset and recolored from static UIMapper.Color metadata for EWShop; not original source SVG. Live UI state/material colors are not included. -->
<svg xmlns="http://www.w3.org/2000/svg" width="24" height="24" viewBox="0 0 24 24">
  <path d="M 7.09 9.15 L 7.38 8.18 L 3.32 3.35 L 7.3 6.69 L 8.62 7.1 C 7.74 6.39 6.25 4.7 7.3 3.64 L 1.27 1 L 3.43 7.36 C 4.23 7.3 6.09 7.57 7.09 9.15" transform="matrix(1 0 0 1 0 0)" fill="#FFFFFF" stroke="none" />
  <path d="M 7.8 8.54 L 9.24 9.94 L 10.12 9.19 L 8.62 7.68 L 7.78 7.54 L 7.8 8.54" transform="matrix(1 0 0 1 0 0)" fill="#FFFFFF" stroke="none" />
  <path d="M 6.47 16.95 C 6.47 16.95 16.181 7.41 18.961 4.92 C 19.221 4.69 19.321 4.78 19.091 5.04 C 16.601 7.81 7.07 17.52 7.07 17.52 C 6.62 18.27 7.38 20.02 7.56 19.83 C 7.56 19.83 21.951 4.42 23.001 1.12 C 23.011 1.08 23.001 1.05 22.971 1.03 C 22.941 1.01 22.911 0.99 22.881 1.01 C 19.531 2.1 4.25 16.65 4.25 16.65 C 4.16 16.91 5.89 17.39 6.47 16.94 L 6.47 16.95" transform="matrix(1 0 0 1 0 0)" fill="#FFFFFF" stroke="none" />
  <path d="M 3 19.63 C 2.68 20.13 2.3 20.53 1.93 20.84 C 2.2 21.13 3.11 22.01 3.4 22.28 C 3.71 21.91 4.11 21.52 4.63 21.19 C 5.03 21.26 5.45 21.15 5.75 20.84 L 3.33 18.52 C 3.03 18.82 2.92 19.24 3 19.63" transform="matrix(1 0 0 1 0 0)" fill="#FFFFFF" stroke="none" />
  <path d="M 8.04 21.24 C 7.4 20.83 6 19.42 6.37 17.62 C 4.55 18.02 3.23 16.83 2.8 16.21 C 2.92 15.88 2.85 15.5 2.58 15.24 C 2.27 14.94 1.81 14.9 1.46 15.11 L 1.17 15.37 C 0.91 15.73 0.95 16.23 1.28 16.55 C 1.57 16.83 2 16.88 2.34 16.71 L 7.54 21.7 C 7.38 22.04 7.44 22.46 7.73 22.74 C 8.06 23.06 8.57 23.08 8.94 22.82 L 9.2 22.52 C 9.39 22.17 9.34 21.72 9.03 21.43 C 8.76 21.17 8.37 21.11 8.04 21.23 L 8.04 21.24" transform="matrix(1 0 0 1 0 0)" fill="#FFFFFF" stroke="none" />
  <path d="M 20.33 17.13 L 19.23 16.77 L 18.87 15.67 L 18 13 L 17.13 15.67 L 16.77 16.77 L 15.67 17.13 L 13 18 L 15.67 18.87 L 16.77 19.23 L 17.13 20.33 L 18 23 L 18.87 20.33 L 19.23 19.23 L 20.33 18.87 L 23 18 L 20.33 17.13" transform="matrix(1 0 0 1 0 0)" fill="#FFFFFF" stroke="none" />
</svg>
