<?xml version="1.0" encoding="UTF-8"?>
<!-- Reconstructed from Amplitude.Graphics.Svg.SvgAsset and recolored from static UIMapper.Color metadata for EWShop; not original source SVG. Live UI state/material colors are not included. -->
<svg xmlns="http://www.w3.org/2000/svg" width="24" height="24" viewBox="0 0 24 24">
  <path d="M 16.687 9.68 L 17.056 7.98 L 15.859 6.78 L 14.273 7.18 L 13.805 8.88 L 15.011 10.08 L 16.687 9.68" transform="matrix(1 0 0 1 0 0)" fill="#FFFFFF" stroke="none" />
  <path d="M 15.67 17.56 L 14.533 16.42 L 13.197 17.76 L 3.663 8.2 L 1 8 L 1.04 10.7 L 10.634 20.32 L 9.397 21.56 L 10.534 22.7 L 12.529 20.7 L 14.812 22.99 L 15.949 21.85 L 13.666 19.56 L 15.66 17.56 L 15.67 17.56 M 11.581 19.33 L 2.386 10.1 L 2.286 9.37 L 3.044 9.44 L 12.239 18.67 L 11.581 19.33" transform="matrix(1 0 0 1 0 0)" fill="#FFFFFF" stroke="none" />
  <path d="M 18.373 6.27 C 21.255 6.65 21.923 7.94 22.103 8.46 L 23 9.14 C 23.15 7.03 20.776 6.3 18.413 6.08 L 18.383 6.08 C 18.842 3.8 19.191 1 18.014 1 C 16.837 1 15.331 2.74 14.573 4.08 C 13.058 3 11.482 2.52 10.345 4.17 L 11.701 4.17 C 12.359 3.72 13.097 3.35 16.069 6.01 C 15.78 6.01 15.511 6.01 15.262 6.03 L 14.763 6.03 C 12.439 6.01 8.679 5.98 8.999 7.35 C 9.288 8.58 11.512 9.96 12.938 10.31 C 11.033 8.93 10.056 6.54 15.321 6.21 C 15.64 6.19 15.94 6.18 16.229 6.17 L 16.259 6.17 C 16.548 6.42 16.847 6.71 17.166 7.02 C 17.246 7.1 17.336 7.18 17.426 7.26 L 17.635 7.47 C 17.635 7.47 17.615 7.57 17.605 7.62 C 17.605 7.67 17.585 7.72 17.585 7.77 C 16.638 13.44 14.883 14.1 13.975 14.1 L 13.077 14.78 C 14.603 15.54 15.82 14.09 16.678 12.18 C 18.094 12.89 20.936 13.61 21.594 12.61 C 22.462 11.29 19.999 9.02 18.273 7.43 L 18.233 7.39 L 18.144 7.31 C 18.174 7.16 18.213 7 18.243 6.84 C 18.283 6.65 18.323 6.45 18.373 6.25 L 18.373 6.27 M 16.767 6.01 C 16.129 5.38 15.411 4.7 14.673 4.16 C 16.359 2.78 17.954 2.63 17.755 6.05 C 17.426 6.03 17.107 6.02 16.797 6.01 L 16.767 6.01 M 17.366 6.61 L 16.927 6.17 C 17.216 6.17 17.485 6.19 17.745 6.21 L 17.745 6.32 C 17.725 6.51 17.715 6.71 17.685 6.92 L 17.376 6.61 L 17.366 6.61 M 16.688 12.12 C 17.316 10.7 17.765 9.05 17.994 7.89 C 20.836 11.02 19.101 12.34 16.688 12.12" transform="matrix(1 0 0 1 0 0)" fill="#FFFFFF" stroke="none" />
</svg>
