<?xml version="1.0" encoding="UTF-8"?>
<!-- Reconstructed from Amplitude.Graphics.Svg.SvgAsset and recolored from static UIMapper.Color metadata for EWShop; not original source SVG. Live UI state/material colors are not included. -->
<svg xmlns="http://www.w3.org/2000/svg" width="24" height="24" viewBox="0 0 24 24">
  <path d="M 2.557 6.212 C 3.678 1.183 9.394 0 13.641 1.779 C 14.089 1.967 14.544 2.149 14.968 2.386 L 13.779 2.761 C 13.707 2.784 13.638 2.812 13.573 2.847 C 13.427 2.86 13.283 2.901 13.148 2.968 C 13.181 2.951 13.19 2.95 13.149 2.965 C 13.116 2.977 13.068 2.993 13.004 3.013 L 12.524 3.155 C 12.234 3.24 11.878 3.342 11.588 3.442 C 11.445 3.492 11.283 3.552 11.137 3.621 C 11.066 3.655 10.968 3.706 10.868 3.775 C 10.808 3.817 10.632 3.942 10.49 4.163 L 10.431 4.264 C 10.416 4.293 10.403 4.322 10.39 4.351 C 10.341 4.324 10.295 4.302 10.252 4.284 L 10.118 4.235 L 9.942 4.193 C 9.777 4.166 9.648 4.177 9.632 4.178 C 9.553 4.182 9.478 4.192 9.418 4.201 C 9.293 4.22 9.151 4.249 9.008 4.282 C 8.721 4.35 8.365 4.453 8.018 4.583 C 7.693 4.706 7.282 4.887 6.953 5.139 C 6.791 5.263 6.563 5.47 6.409 5.776 C 6.246 6.101 6.189 6.511 6.336 6.924 L 6.334 6.925 C 6.649 7.876 6.958 8.831 7.268 9.79 L 7.807 11.452 L 7.951 11.939 L 8.127 12.546 C 8.191 12.764 8.259 12.988 8.326 13.195 C 8.392 13.4 8.462 13.608 8.532 13.782 C 8.566 13.868 8.609 13.967 8.657 14.061 C 8.684 14.114 8.787 14.319 8.977 14.492 C 9.298 14.785 9.672 14.84 9.815 14.857 C 10.005 14.88 10.19 14.873 10.338 14.86 C 10.64 14.834 10.969 14.767 11.259 14.694 C 11.556 14.62 11.855 14.528 12.106 14.435 C 12.23 14.389 12.358 14.337 12.474 14.281 C 12.553 14.243 12.757 14.144 12.931 13.979 L 12.933 13.977 C 13.07 13.846 13.19 13.685 13.282 13.503 C 13.57 13.679 13.92 13.729 14.248 13.632 L 16.202 13.053 C 15.83 13.871 15.545 14.623 15.554 15.194 C 15.573 16.307 18.084 18.655 17.803 19.031 L 9.713 23 L 7.654 19.745 C 7.594 18.974 9.713 17.712 10.112 16.471 C 8.463 18.099 6.04 18.919 3.774 18.342 C 3.334 18.23 3.058 17.817 3.007 17.365 C 2.85 15.985 2.409 14.488 1.976 13.326 C 1.955 13.312 0.985 12.678 1 12.066 C 1.087 11.086 2.155 10.626 2.36 9.718 C 2.607 8.628 2.288 7.439 2.557 6.212" transform="matrix(1 0 0 1 0 0)" fill="#FFFFFF" stroke="none" />
  <path d="M 13.819 3.679 C 13.883 3.711 14.039 4.267 14.215 4.896 C 14.435 5.686 14.689 6.592 14.836 6.732 C 15.164 7.047 15.407 6.82 15.666 6.576 C 15.816 6.435 15.973 6.287 16.155 6.238 C 17.182 5.963 18.007 7.293 17 8.071 C 16.757 8.258 16.434 8.242 16.146 8.227 C 15.729 8.205 15.388 8.187 15.476 8.801 C 15.501 8.974 15.668 9.452 15.849 9.969 C 16.114 10.725 16.409 11.568 16.333 11.67 L 14.049 12.345 C 14.057 11.406 13.968 10.172 12.672 10.362 C 11.375 10.553 11.401 12.078 12.352 12.712 C 12.333 12.815 12.274 12.917 12.198 12.989 C 11.97 13.204 10.103 13.761 9.817 13.5 C 9.667 13.363 9.329 12.192 9.116 11.448 C 9.046 11.204 8.989 11.006 8.957 10.906 C 8.772 10.339 8.588 9.771 8.404 9.203 C 8.085 8.219 7.766 7.234 7.441 6.252 C 7.146 5.605 9.604 4.996 9.784 5.052 C 9.911 5.092 9.903 5.127 9.889 5.177 C 9.884 5.197 9.878 5.219 9.88 5.245 C 9.888 5.389 9.879 5.526 9.87 5.658 C 9.847 6.001 9.826 6.314 10.115 6.637 C 11.104 7.745 12.678 6.527 12.081 5.341 C 12.034 5.247 11.942 5.144 11.847 5.037 C 11.673 4.84 11.49 4.633 11.574 4.473 C 11.644 4.337 12.358 4.13 12.971 3.952 C 13.349 3.842 13.69 3.743 13.819 3.679" transform="matrix(1 0 0 1 0 0)" fill="#FFFFFF" stroke="none" />
  <path d="M 20.324 1.5 C 20.406 1.503 20.471 1.535 20.537 1.583 C 20.695 1.699 21.547 4.207 21.514 4.364 C 21.471 4.568 21.086 4.311 20.781 4.313 C 20.45 4.315 20.055 4.317 19.79 4.579 C 18.836 5.522 19.811 7.614 21.003 7.198 C 21.12 7.157 21.27 7.038 21.422 6.916 C 21.664 6.722 22.002 6.179 22.14 6.284 C 22.249 6.367 22.993 8.732 23 8.877 C 23.01 9.076 22.981 9.199 22.859 9.361 C 22.678 9.602 20.932 10.112 19.317 10.584 C 18.108 10.937 17.398 11.234 17.048 11.415 C 16.973 11.017 16.5 9.5 16.5 9.5 C 19.594 9.361 19 4 15.5 5.5 L 14.503 3.498 L 20.324 1.5" transform="matrix(1 0 0 1 0 0)" fill="#FFFFFF" stroke="none" />
</svg>
