<?xml version="1.0" encoding="UTF-8"?>
<!-- Reconstructed from Amplitude.Graphics.Svg.SvgAsset and recolored from static UIMapper.Color metadata for EWShop; not original source SVG. Live UI state/material colors are not included. -->
<svg xmlns="http://www.w3.org/2000/svg" width="24" height="24" viewBox="0 0 24 24">
  <path d="M 9.81 16.89 L 10.23 14.95 L 8.86 13.58 L 7.05 14.04 L 6.52 15.98 L 7.9 17.35 L 9.81 16.89" transform="matrix(1 0 0 1 0 0)" fill="#FFFFFF" stroke="none" />
  <path d="M 23 6.59 L 18.5 1 L 14 6.59 L 16.94 6.59 L 16.94 12 L 20.06 12 L 20.06 6.59 L 23 6.59" transform="matrix(1 0 0 1 0 0)" fill="#FFFFFF" stroke="none" />
  <path d="M 11.78 12.78 L 11.75 12.78 C 12.27 10.17 12.67 6.97 11.33 6.97 C 9.99 6.97 8.26 8.96 7.4 10.49 C 5.67 9.26 3.87 8.71 2.57 10.59 L 4.12 10.59 C 4.87 10.08 5.72 9.65 9.11 12.69 C 8.78 12.69 8.47 12.69 8.19 12.71 L 7.62 12.71 C 4.96 12.69 0.67 12.65 1.03 14.22 C 1.36 15.63 3.9 17.2 5.53 17.6 C 3.35 16.02 2.24 13.29 8.25 12.91 C 8.6 12.89 8.93 12.88 9.25 12.87 L 9.29 12.87 L 9.32 12.87 C 9.65 13.16 9.99 13.49 10.36 13.84 C 10.45 13.93 10.55 14.02 10.66 14.11 L 10.9 14.35 L 10.87 14.52 C 10.87 14.52 10.87 14.58 10.86 14.61 C 10.86 14.64 10.85 14.67 10.85 14.7 C 9.77 21.18 7.76 21.94 6.72 21.94 L 5.69 22.72 C 7.43 23.59 8.82 21.93 9.8 19.75 C 11.42 20.56 14.67 21.38 15.42 20.24 C 16.41 18.73 13.6 16.14 11.62 14.32 L 11.57 14.27 L 11.47 14.18 C 11.49 14.11 11.5 14.03 11.52 13.95 C 11.54 13.85 11.57 13.75 11.58 13.64 L 11.6 13.53 C 11.64 13.35 11.68 13.16 11.72 12.97 L 11.72 12.99 C 15.01 13.42 15.78 14.9 15.98 15.49 L 17.01 16.27 C 17.18 13.86 14.47 13.02 11.77 12.77 L 11.78 12.78 M 9.94 12.7 L 9.91 12.7 C 9.18 11.98 8.36 11.2 7.52 10.59 C 9.45 9.01 11.27 8.84 11.04 12.75 C 10.68 12.73 10.32 12.72 9.98 12.71 L 9.95 12.71 L 9.94 12.7 M 10.6 13.38 L 10.59 13.38 L 10.09 12.88 C 10.42 12.88 10.73 12.9 11.02 12.93 L 11.02 13.06 C 11.02 13.14 11.01 13.22 11 13.3 C 10.99 13.44 10.98 13.59 10.95 13.75 L 10.6 13.4 L 10.6 13.38 M 9.81 19.68 C 10.53 18.06 11.04 16.17 11.3 14.85 C 14.55 18.43 12.57 19.94 9.81 19.68" transform="matrix(1 0 0 1 0 0)" fill="#FFFFFF" stroke="none" />
</svg>
