<?xml version="1.0" encoding="UTF-8"?>
<!-- Reconstructed from Amplitude.Graphics.Svg.SvgAsset and recolored from static UIMapper.Color metadata for EWShop; not original source SVG. Live UI state/material colors are not included. -->
<svg xmlns="http://www.w3.org/2000/svg" width="24" height="24" viewBox="0 0 24 24">
  <path d="M 14.067 15.845 C 15.431 13.343 16.525 12.645 16.525 12.645 C 16.438 12.505 15.275 10.622 16.634 8.468 C 16.634 8.461 16.633 8.448 16.633 8.431 C 16.625 8.029 16.568 5.069 14.983 3.678 C 14.938 3.633 12.897 5.14 12.897 5.14 L 13.436 1.215 C 13.436 1.215 12.682 0.799 12 0.799 C 11.135 0.799 10.576 1.215 10.576 1.215 L 11.109 5.14 C 11.109 5.14 9.121 3.678 9.03 3.678 C 7.462 5.233 7.383 7.914 7.368 8.414 C 7.367 8.445 7.366 8.468 7.366 8.481 C 9.132 10.411 7.587 12.512 7.488 12.647 C 7.485 12.651 7.483 12.654 7.483 12.654 C 7.483 12.654 8.692 13.304 9.946 15.845 L 9.946 13.733 C 9.933 13.72 9.296 12.79 9.218 12.433 C 9.217 12.425 9.216 12.417 9.214 12.409 C 9.183 12.215 9.095 11.676 9.692 11.191 C 9.705 11.18 9.725 11.165 9.748 11.148 C 9.816 11.096 9.912 11.024 9.926 10.97 C 9.939 10.907 9.958 10.613 9.971 10.412 L 9.972 10.398 C 9.995 10.187 9.03 9.035 8.631 8.558 C 8.587 8.507 8.551 8.463 8.523 8.429 C 8.263 8.091 8.607 7.331 8.906 7.402 C 8.906 7.402 11.317 7.877 11.369 7.929 C 11.813 8.379 11.463 10.278 11.419 10.521 C 11.417 10.53 11.416 10.537 11.415 10.541 L 12.006 11.23 L 12.598 10.541 C 12.565 10.431 12.175 8.397 12.637 7.929 C 12.676 7.903 14.762 7.344 15.23 7.422 C 15.483 7.545 15.737 8.143 15.483 8.429 C 15.479 8.435 15.471 8.445 15.461 8.458 C 15.259 8.713 14.034 10.261 14.034 10.366 C 14.034 10.561 14.073 10.899 14.086 10.964 C 14.097 11.053 14.218 11.127 14.289 11.172 C 14.301 11.179 14.312 11.186 14.32 11.191 C 14.931 11.679 14.834 12.27 14.788 12.433 C 14.73 12.647 14.509 13.135 14.067 13.733 L 14.067 15.845" transform="matrix(1 0 0 1 0 0)" fill="#FFFFFF" stroke="none" />
  <path d="M 23.28 12.377 L 21.323 12.522 L 14.315 19.53 L 13.33 18.548 L 12.491 19.387 L 13.959 20.855 L 12.282 22.532 L 13.12 23.371 L 14.798 21.693 L 16.265 23.161 L 17.104 22.322 L 16.196 21.411 L 23.248 14.359 L 23.28 12.377 M 21.781 13.433 L 15.019 20.195 L 15.502 20.677 L 22.264 13.916 L 22.34 13.381 L 21.781 13.433 M 0.721 12.377 L 2.678 12.522 L 9.686 19.53 L 10.67 18.549 L 11.509 19.387 L 10.041 20.855 L 11.719 22.532 L 10.88 23.371 L 9.203 21.694 L 7.735 23.161 L 6.897 22.323 L 7.805 21.411 L 0.752 14.359 L 0.721 12.377 M 2.219 13.433 L 8.981 20.195 L 8.499 20.678 L 1.737 13.916 L 1.66 13.381 L 2.219 13.433" transform="matrix(1 0 0 1 0 0)" fill="#FFFFFF" stroke="none" />
</svg>
