<?xml version="1.0" encoding="UTF-8"?>
<!-- Reconstructed from Amplitude.Graphics.Svg.SvgAsset and recolored from static UIMapper.Color metadata for EWShop; not original source SVG. Live UI state/material colors are not included. -->
<svg xmlns="http://www.w3.org/2000/svg" width="24" height="24" viewBox="0 0 24 24">
  <path d="M 9.87 7.758 L 8.211 8.28 C 8.337 8.871 8.589 9.403 8.967 9.864 L 10.375 8.821 C 10.598 9.122 10.821 9.413 11.17 9.644 L 10.084 11.017 C 10.588 11.418 11.035 11.679 11.607 11.88 L 12.189 10.105 C 12.568 10.235 12.956 10.376 13.267 10.376 L 13.296 11.268 L 13.296 12.251 C 13.829 12.221 14.402 12.09 14.984 11.96 L 14.732 11.108 L 14.421 10.115 C 14.771 10.015 15.12 9.924 15.411 9.694 L 16.421 11.148 C 16.964 10.787 17.313 10.366 17.663 9.934 L 16.993 9.373 L 16.236 8.781 C 16.43 8.521 16.653 8.16 16.78 7.768 L 18.497 8.37 C 18.662 7.879 18.759 7.257 18.73 6.696 L 17.867 6.726 L 16.945 6.625 C 16.945 6.465 16.935 6.264 16.915 6.064 C 16.896 5.863 16.886 5.673 16.886 5.502 L 18.546 4.981 C 18.323 4.359 18.07 3.828 17.789 3.397 L 17.09 3.918 L 16.256 4.51 C 16.032 4.209 15.809 3.918 15.46 3.687 L 16.032 2.905 L 16.576 2.213 C 16.071 1.812 15.625 1.552 15.052 1.351 L 14.47 3.126 C 14.091 2.995 13.8 2.895 13.393 2.855 L 13.364 1.963 L 13.461 1 C 12.82 1 12.248 1.13 11.772 1.291 L 12.277 3.005 C 12.141 3.076 12.015 3.126 11.889 3.186 C 11.656 3.286 11.442 3.376 11.258 3.527 L 10.753 2.805 L 10.151 2.043 C 9.705 2.273 9.356 2.705 9.035 3.096 C 8.987 3.146 8.948 3.206 8.9 3.256 L 10.423 4.449 C 10.229 4.71 10.006 5.071 9.88 5.462 L 8.065 4.83 C 7.871 5.422 7.774 6.044 7.803 6.605 L 9.715 6.605 C 9.686 7.036 9.773 7.407 9.87 7.768 L 9.87 7.758 M 11.578 6.234 C 11.578 6.164 11.578 6.094 11.597 6.054 C 11.665 5.853 11.724 5.663 11.889 5.492 C 12.044 5.332 12.209 5.161 12.335 5.101 C 12.49 4.941 12.626 4.871 12.849 4.84 C 12.975 4.77 13.199 4.74 13.296 4.78 C 13.519 4.75 13.713 4.81 13.897 4.881 L 14.47 5.081 C 14.548 5.161 14.606 5.242 14.664 5.312 C 14.722 5.382 14.771 5.462 14.858 5.542 C 14.878 5.583 14.907 5.633 14.945 5.683 C 15.013 5.783 15.072 5.873 15.052 5.943 C 15.149 6.134 15.149 6.244 15.159 6.375 C 15.159 6.425 15.159 6.475 15.178 6.535 C 15.207 6.766 15.149 6.966 15.081 7.157 C 15.013 7.357 14.955 7.548 14.79 7.718 C 14.742 7.859 14.664 7.939 14.557 8.029 C 14.557 8.029 14.48 8.099 14.441 8.139 L 13.926 8.4 C 13.868 8.4 13.81 8.42 13.762 8.43 C 13.626 8.46 13.519 8.48 13.383 8.43 C 13.16 8.46 12.966 8.4 12.781 8.33 C 12.587 8.26 12.403 8.2 12.335 8.069 C 12.141 7.999 11.986 7.839 11.927 7.708 C 11.821 7.598 11.772 7.448 11.724 7.327 C 11.704 7.277 11.694 7.227 11.675 7.187 C 11.656 7.077 11.636 6.976 11.617 6.886 C 11.597 6.796 11.568 6.706 11.559 6.585 C 11.597 6.465 11.597 6.345 11.607 6.234 L 11.578 6.234" transform="matrix(1 0 0 1 0 0)" fill="#FFFFFF" stroke="none" />
  <path d="M 18.944 12.582 L 20.331 11.358 L 21.719 12.582 L 23 12.582 L 20.331 10.035 L 17.74 12.582 L 18.944 12.582" transform="matrix(1 0 0 1 0 0)" fill="#FFFFFF" stroke="none" />
  <path d="M 17.74 15.59 L 18.944 15.59 L 20.331 14.367 L 21.719 15.59 L 23 15.59 L 20.331 13.043 L 17.74 15.59" transform="matrix(1 0 0 1 0 0)" fill="#FFFFFF" stroke="none" />
  <path d="M 2.009 12.923 L 2.97 11.94 C 3.251 12.371 3.794 12.672 4.367 12.863 L 4.105 14.306 C 4.998 14.507 5.891 14.377 6.618 14.086 L 6.182 12.832 C 6.754 12.702 7.201 12.311 7.492 11.75 L 8.695 12.612 C 8.918 12.251 9.083 11.76 9.21 11.368 C 9.336 10.977 9.375 10.546 9.307 10.085 L 8.666 10.085 L 7.996 10.175 C 7.87 9.584 7.715 9.092 7.24 8.591 L 8.2 7.608 C 7.696 6.886 6.997 6.415 6.104 6.214 L 5.842 7.658 C 5.27 7.458 4.726 7.488 4.221 7.749 C 4.221 7.749 4.115 7.357 3.998 7.127 C 3.892 6.896 3.649 6.565 3.649 6.565 C 2.911 6.856 2.319 7.307 1.873 8.029 L 2.242 8.27 L 2.843 8.701 C 2.688 8.862 2.591 9.162 2.494 9.453 C 2.416 9.684 2.416 9.884 2.426 10.115 C 2.426 10.175 2.426 10.245 2.426 10.306 L 1.087 10.496 C 1.116 11.389 1.465 12.271 1.999 12.903 L 2.009 12.923 M 3.882 10.286 C 3.882 10.205 3.882 10.125 3.901 10.075 L 4.027 9.684 C 4.124 9.393 4.377 9.263 4.639 9.132 C 4.891 9.002 5.211 9.002 5.502 9.102 C 5.784 9.203 6.046 9.403 6.201 9.563 C 6.356 9.724 6.483 9.995 6.483 10.326 C 6.551 10.456 6.483 10.657 6.453 10.757 L 6.327 11.148 C 6.23 11.439 5.978 11.569 5.716 11.699 C 5.464 11.83 5.143 11.83 4.852 11.729 C 4.571 11.629 4.309 11.429 4.154 11.268 C 3.998 11.108 3.872 10.837 3.872 10.506 C 3.892 10.456 3.892 10.376 3.892 10.296 L 3.882 10.286" transform="matrix(1 0 0 1 0 0)" fill="#FFFFFF" stroke="none" />
  <path d="M 18.682 18.809 C 18.128 17.656 16.246 15.7 13.189 17.084 C 12.442 16.803 10.763 16.292 9.21 16.141 C 8.696 16.091 8.201 16.312 7.842 16.683 L 7.463 17.074 C 7.405 17.134 7.463 17.254 7.551 17.234 C 8.502 17.064 10.258 17.365 12.733 19.17 C 12.946 19.33 12.927 19.661 12.704 19.791 C 12.228 19.22 10.646 18.508 8.162 20.283 C 7.686 20.443 6.444 20.433 5.299 19.049 C 4.261 18.307 1.951 17.325 1 19.3 C 2.223 19.38 4.989 20.042 6.561 22.027 C 6.667 22.168 6.852 22.228 7.007 22.168 C 9.812 21.205 15.343 20.142 17.003 23 C 18.837 22.589 22.495 21.416 22.495 20.042 C 21.777 20.122 20.011 19.992 18.672 18.809 L 18.682 18.809" transform="matrix(1 0 0 1 0 0)" fill="#FFFFFF" stroke="none" />
  <path d="M 2.669 15.108 C 3.144 15.68 4.105 17.034 4.105 17.826 C 4.503 17.906 5.396 18.167 5.774 18.568 C 5.532 17.254 4.581 14.717 2.669 15.108" transform="matrix(1 0 0 1 0 0)" fill="#FFFFFF" stroke="none" />
</svg>
