<?xml version="1.0" encoding="UTF-8"?>
<!-- Reconstructed from Amplitude.Graphics.Svg.SvgAsset and recolored from static UIMapper.Color metadata for EWShop; not original source SVG. Live UI state/material colors are not included. -->
<svg xmlns="http://www.w3.org/2000/svg" width="24" height="24" viewBox="0 0 24 24">
  <path d="M 5.549 4.987 L 5.549 10.207 C 5.549 12.078 6.443 13.837 7.953 14.937 L 11.799 17.739 C 11.901 17.814 12.04 17.814 12.142 17.739 L 15.988 14.937 C 17.499 13.837 18.392 12.078 18.392 10.207 L 18.392 4.987 C 18.392 4.644 18.172 4.341 17.847 4.234 L 17.393 4.085 C 15.551 3.482 13.859 2.491 12.43 1.179 C 12.17 0.94 11.771 0.94 11.511 1.179 C 10.083 2.491 8.391 3.482 6.548 4.085 L 6.094 4.234 C 5.769 4.341 5.549 4.644 5.549 4.987 M 7.614 4.859 C 8.953 4.42 10.187 3.708 11.237 2.767 L 11.237 3.853 C 10.23 4.643 9.092 5.252 7.872 5.651 L 7.518 5.767 C 7.435 5.794 7.379 5.871 7.379 5.958 L 7.379 10.029 C 7.379 10.784 7.585 11.513 7.959 12.144 L 7.356 12.749 C 6.835 11.951 6.548 11.008 6.548 10.029 L 6.548 5.958 C 6.548 5.511 6.835 5.114 7.259 4.975 L 7.614 4.859 M 16.069 5.651 C 14.831 5.246 13.677 4.624 12.659 3.818 L 12.659 2.726 C 13.719 3.687 14.969 4.414 16.328 4.859 L 16.682 4.975 C 17.107 5.114 17.394 5.511 17.394 5.958 L 17.394 10.029 C 17.394 11.157 17.012 12.237 16.332 13.104 L 15.739 12.51 C 16.267 11.802 16.562 10.934 16.562 10.029 L 16.562 5.958 C 16.562 5.871 16.506 5.794 16.424 5.767 L 16.069 5.651 M 14.707 13.491 L 15.302 14.087 L 12.349 16.239 C 12.124 16.403 11.818 16.403 11.592 16.239 L 8.594 14.054 C 8.491 13.979 8.393 13.901 8.297 13.82 L 8.888 13.229 C 8.951 13.281 9.016 13.331 9.083 13.38 L 11.971 15.484 L 14.707 13.491 M 14.866 11.103 L 15.261 7.042 L 13.421 8.501 L 12.125 6.511 L 10.828 8.501 L 8.946 7.042 L 9.341 11.103 L 14.866 11.103" transform="matrix(1 0 0 1 0 0)" fill="#FFFFFF" stroke="none" />
  <path d="M 4.883 11.563 L 4.883 8.807 L 2.334 4.674 C 1.621 6.467 1.268 8.164 1.209 9.744 L 4.883 11.563" transform="matrix(1 0 0 1 0 0)" fill="#FFFFFF" stroke="none" />
  <path d="M 6.812 14.979 C 6.812 14.979 8.637 16.815 8.649 16.816 L 6.026 19.267 C 4.74 18.348 3.623 17.136 2.793 15.696 L 6.812 14.979" transform="matrix(1 0 0 1 0 0)" fill="#FFFFFF" stroke="none" />
  <path d="M 22.724 9.362 C 22.629 7.892 22.276 6.327 21.622 4.674 L 19.05 8.807 L 19.05 11.563 L 22.724 9.362" transform="matrix(1 0 0 1 0 0)" fill="#FFFFFF" stroke="none" />
  <path d="M 5.089 12.482 L 1 10.909 C 1.11 12.048 1.478 13.801 1.874 14.778 L 6.063 14.319 L 5.089 12.482" transform="matrix(1 0 0 1 0 0)" fill="#FFFFFF" stroke="none" />
  <path d="M 9.491 17.073 L 7.205 19.851 C 8.557 20.579 10.034 21.012 11.519 21.115 L 11.519 18.451 L 9.491 17.073" transform="matrix(1 0 0 1 0 0)" fill="#FFFFFF" stroke="none" />
  <path d="M 15.666 20.361 L 13.5 20 L 15.351 18.149 L 14.465 17.073 L 12.437 18.451 L 12.437 21.115 C 13.533 21.039 14.625 20.783 15.666 20.361" transform="matrix(1 0 0 1 0 0)" fill="#FFFFFF" stroke="none" />
  <path d="M 18.311 15.189 L 17.129 14.98 L 15.292 16.817 L 16.004 17.496 L 18.311 15.189" transform="matrix(1 0 0 1 0 0)" fill="#FFFFFF" stroke="none" />
  <path d="M 18.867 12.481 L 17.948 14.318 L 22.082 14.778 C 22.515 13.697 22.912 11.821 23 10.542 L 18.867 12.481" transform="matrix(1 0 0 1 0 0)" fill="#FFFFFF" stroke="none" />
  <path d="M 23 19.385 L 19.084 15.771 L 15.291 19.385 L 17.055 19.385 L 19.084 17.646 L 21.113 19.385 L 23 19.385" transform="matrix(1 0 0 1 0 0)" fill="#FFFFFF" stroke="none" />
  <path d="M 23 23 L 19.084 19.385 L 15.291 23 L 17.055 23 L 19.084 21.261 L 21.113 23 L 23 23" transform="matrix(1 0 0 1 0 0)" fill="#FFFFFF" stroke="none" />
</svg>
