<?xml version="1.0" encoding="UTF-8"?>
<!-- Reconstructed from Amplitude.Graphics.Svg.SvgAsset and recolored from static UIMapper.Color metadata for EWShop; not original source SVG. Live UI state/material colors are not included. -->
<svg xmlns="http://www.w3.org/2000/svg" width="24" height="24" viewBox="0 0 24 24">
  <path d="M 19 2 C 19.256 4.094 20.906 5.744 23 6 C 20.906 6.256 19.256 7.906 19 10 C 18.744 7.906 17.094 6.256 15 6 C 17.094 5.744 18.744 4.094 19 2" transform="matrix(1 0 0 1 0 0)" fill="#FFFFFF" stroke="none" />
  <path d="M 4 17 C 4.192 18.571 5.429 19.808 7 20 C 5.429 20.192 4.192 21.429 4 23 C 3.808 21.429 2.571 20.192 1 20 C 2.571 19.808 3.808 18.571 4 17" transform="matrix(1 0 0 1 0 0)" fill="#FFFFFF" stroke="none" />
  <path d="M 13.547 6.306 C 14.04 7.315 15.404 8.749 16.073 9.383 C 15.462 10.362 12.927 8.503 11.736 7.452 C 7.764 5.684 5.875 8.3 5.21 9.996 C 5.169 10.101 5.171 10.218 5.207 10.324 C 5.981 12.667 4.401 13.486 3.664 13.573 C 4.025 12.869 3.732 12.013 3.441 11.493 C 3.343 11.317 3.342 11.101 3.425 10.918 C 4.201 9.22 2.493 6.928 1.26 5.713 C 1.061 5.516 0.942 5.25 0.945 4.97 L 0.969 3.086 C 0.983 1.868 2.245 1.067 3.354 1.571 C 3.497 1.637 3.609 1.761 3.715 1.879 L 3.723 1.888 C 4.469 2.719 7.887 4.527 9.312 4.658 C 9.529 4.678 9.763 4.776 9.945 4.896 C 10.598 5.326 12.187 5.772 13.188 6.007 C 13.348 6.045 13.476 6.159 13.547 6.306" transform="matrix(1 0 0 1 0 0)" fill="#FFFFFF" stroke="none" />
  <path d="M 13.638 10.49 C 12.496 8.132 10.776 7.582 10.059 7.602 C 11.272 8.26 11.362 8.789 11.429 9.186 C 11.449 9.308 11.468 9.418 11.517 9.515 C 12.363 11.1 13.284 10.826 13.638 10.49" transform="matrix(1 0 0 1 0 0)" fill="#FFFFFF" stroke="none" />
  <path d="M 8.308 7.593 C 8.367 7.558 8.44 7.524 8.524 7.496 C 10.105 6.969 10.858 9.276 11.138 10.918 C 10.615 10.871 9.581 10.485 9.631 9.323 C 9.668 8.733 9.455 7.561 8.308 7.593" transform="matrix(1 0 0 1 0 0)" fill="#FFFFFF" stroke="none" />
  <path d="M 23 17 C 19.975 16.631 17.592 14.247 17.222 11.222 C 16.853 14.247 14.47 16.631 11.445 17 C 14.47 17.369 16.853 19.753 17.222 22.778 C 17.592 19.753 19.975 17.369 23 17" transform="matrix(1 0 0 1 0 0)" fill="#FFFFFF" stroke="none" />
  <path d="M 7.778 11.001 C 8.019 12.978 9.578 14.537 11.556 14.778 C 9.578 15.02 8.019 16.578 7.778 18.556 C 7.537 16.578 5.978 15.02 4 14.778 C 5.978 14.537 7.537 12.978 7.778 11.001" transform="matrix(1 0 0 1 0 0)" fill="#FFFFFF" stroke="none" />
</svg>
