<?xml version="1.0" encoding="UTF-8"?>
<!-- Reconstructed from Amplitude.Graphics.Svg.SvgAsset and recolored from static UIMapper.Color metadata for EWShop; not original source SVG. Live UI state/material colors are not included. -->
<svg xmlns="http://www.w3.org/2000/svg" width="24" height="24" viewBox="0 0 24 24">
  <path d="M 20.455 1.947 C 21.317 7.519 16.592 5.89 14.374 9.593 C 12.991 8.153 14.879 5.794 16.283 5.178 C 14.051 4.807 12.002 5.852 10.73 8.678 C 10.134 10.002 10.01 10.819 10.01 12.493 C 10.469 11.226 11.191 10.105 12.082 9.356 C 11.832 12.059 16.879 11.156 18.955 9.356 C 16.283 11.673 18.12 16.051 21.063 14.44 C 20.31 16.046 19.163 17.441 18 18.357 C 19.184 18.045 20.33 17.314 21.298 16.051 C 22.38 14.642 23.719 12.237 23.014 10.43 C 22.5 12.325 20.938 12.554 19.063 12.226 C 22.23 10.622 23.581 5.11 20.455 1.947" transform="matrix(1 0 0 1 0 0)" fill="#FFFFFF" stroke="none" />
  <path d="M 18.237 17.944 L 18.237 16.441 L 14.478 12.681 L 14.478 11.929 L 11.846 8.922 L 9.215 11.929 L 9.215 12.681 L 5.456 16.441 L 5.456 17.914 L 9.215 14.185 L 9.215 15.689 L 6.207 18.696 L 6.207 23.207 L 9.215 23.207 L 9.215 20.568 C 9.215 19.982 9.463 19.448 9.839 19.057 C 10.23 18.681 11.095 18.32 11.846 18.32 C 12.569 18.32 13.47 18.681 13.854 19.057 C 14.23 19.448 14.478 19.974 14.478 20.568 L 14.478 23.207 L 17.485 23.207 L 17.47 18.696 L 14.478 15.689 L 14.478 14.185 L 18.237 17.944 M 11.937 16.147 C 10.952 16.147 10.14 15.35 10.14 14.365 C 10.14 13.381 10.952 12.576 11.937 12.576 C 12.922 12.576 13.719 13.373 13.719 14.365 C 13.719 15.358 12.922 16.147 11.937 16.147" transform="matrix(1 0 0 1 0 0)" fill="#FFFFFF" stroke="none" />
  <path d="M 6.655 0.792 L 7.425 4.757 L 11.39 5.527 L 7.425 6.297 L 6.655 10.262 L 5.885 6.297 L 1.92 5.527 L 5.885 4.757 L 6.655 0.792" transform="matrix(1 0 0 1 0 0)" fill="#FFFFFF" stroke="none" />
  <path d="M 4.145 8.004 L 4.69 10.814 L 7.5 11.36 L 4.69 11.906 L 4.145 14.715 L 3.599 11.906 L 0.789 11.36 L 3.599 10.814 L 4.145 8.004" transform="matrix(1 0 0 1 0 0)" fill="#FFFFFF" stroke="none" />
</svg>
