<?xml version="1.0" encoding="UTF-8"?>
<!-- Reconstructed from Amplitude.Graphics.Svg.SvgAsset and recolored from static UIMapper.Color metadata for EWShop; not original source SVG. Live UI state/material colors are not included. -->
<svg xmlns="http://www.w3.org/2000/svg" width="24" height="24" viewBox="0 0 24 24">
  <path d="M 5.727 0.515 L 10.603 6.136 L 7.421 6.136 L 7.421 11.572 L 4.033 11.572 L 4.033 6.136 L 0.852 6.136 L 5.727 0.515" transform="matrix(1 0 0 1 0 0)" fill="#FFFFFF" stroke="none" />
  <path d="M 9.844 10.007 L 10.649 10.323 C 10.769 10.321 10.96 9.892 11.08 9.812 L 11.179 10.048 L 11.572 9.89 L 11.314 8.83 L 13.556 7.544 L 14.633 8.384 L 13.138 12.106 L 11.64 13.282 L 10.647 18.145 L 9.224 18.629 L 7.719 20.603 C 7.613 20.669 7.132 20.458 6.955 20.467 C 6.754 20.477 6.455 20.661 6.235 20.67 C 6.072 21.184 5.691 21.737 5.545 22.241 C 5.443 22.59 5.436 23.009 5.329 23.363 C 5.325 23.469 5.596 23.507 5.675 23.473 L 6.096 22.703 L 11.844 19.539 L 13.835 15.635 L 16.523 16.514 L 15.249 17.362 L 14.48 18.797 C 14.402 18.849 13.853 18.482 13.713 18.476 C 13.574 18.47 13.311 18.656 13.154 18.668 C 12.709 19.529 12.218 20.359 12.042 21.329 L 12.428 21.362 L 12.729 20.896 L 19.118 16.946 L 19.151 16.839 L 18.725 15.649 L 15.666 13.017 L 17.767 10.721 L 19.837 12.479 L 22.182 11.128 C 22.257 11.067 22.825 10.235 22.871 10.127 C 22.995 9.834 23.05 9.414 23.148 9.103 L 22.281 8.722 L 21.979 9.176 L 21.518 9.107 C 21.298 9.488 21.74 9.766 21.812 10.128 L 19.987 10.712 L 18.606 7.985 C 18.8 7.955 18.922 8.211 19.116 8.142 C 19.256 8.092 20 7.542 20.158 7.414 C 20.255 7.336 20.542 7.108 20.581 7.012 L 20.603 5.91 C 20.434 5.776 20.154 5.315 19.965 5.29 C 19.84 5.274 19.039 5.277 18.961 5.313 L 17.724 6.591 C 17.646 6.636 17.5 6.657 17.407 6.668 C 16.293 6.798 14.897 6.285 13.781 6.05 C 13.66 6.025 13.221 5.906 13.145 5.939 L 10.589 8.3 C 10.466 8.557 10.163 8.815 10.058 9.066 C 10.019 9.16 9.811 9.97 9.844 10.007" transform="matrix(1 0 0 1 0 0)" fill="#FFFFFF" stroke="none" />
</svg>
