<?xml version="1.0" encoding="UTF-8"?>
<!-- Reconstructed from Amplitude.Graphics.Svg.SvgAsset and recolored from static UIMapper.Color metadata for EWShop; not original source SVG. Live UI state/material colors are not included. -->
<svg xmlns="http://www.w3.org/2000/svg" width="24" height="24" viewBox="0 0 24 24">
  <path d="M 10.639 5.763 L 10.639 5.763 C 10.86 5.806 11.064 5.846 11.199 5.898 L 11.19 5.903 C 11.199 6.028 11.19 6.028 11.162 6.028 C 11.153 6.028 11.139 6.028 11.12 6.038 C 10.949 6.131 10.767 6.209 10.586 6.288 L 10.527 6.314 C 10.397 6.371 10.265 6.428 10.14 6.493 C 10.043 6.544 9.885 6.637 9.718 6.744 C 9.63 6.799 9.523 6.86 9.416 6.92 L 9.416 9.191 C 9.416 9.326 9.36 9.456 9.258 9.549 L 8.652 10.094 L 8.362 9.799 L 8.362 8.118 L 8.357 8.118 C 8.357 8.118 8.352 8.081 8.334 8.016 C 8.324 7.974 8.301 7.905 8.264 7.826 C 8.139 8.156 7.865 8.49 7.354 8.764 C 7.354 8.764 7.846 7.617 7.08 6.99 L 6.462 8.123 C 6.462 7.803 5.867 7.162 5.867 7.162 C 5.867 7.162 5.273 7.803 5.273 8.123 L 4.655 6.99 C 3.884 7.617 4.381 8.764 4.381 8.764 C 3.87 8.485 3.596 8.151 3.471 7.826 C 3.387 8.002 3.369 8.123 3.369 8.123 L 3.369 9.725 C 3.601 9.591 3.926 9.475 4.376 9.405 C 4.376 9.405 4.079 10.366 4.674 10.366 C 4.674 10.366 4.674 9.725 5.268 9.405 C 5.268 9.725 5.863 10.366 5.863 10.366 C 5.863 10.366 6.457 9.725 6.457 9.405 C 7.052 9.725 7.052 10.366 7.052 10.366 C 7.052 10.366 7.052 10.366 7.052 10.366 L 7.107 11.315 C 6.77 11.479 6.313 11.648 5.858 11.648 C 4.971 11.648 4.079 11.007 4.079 11.007 L 2.458 9.549 C 2.356 9.461 2.3 9.331 2.3 9.191 L 2.3 6.776 L 1.641 6.525 C 1.528 6.465 1.406 6.414 1.282 6.362 L 1.282 6.362 L 1.282 6.362 C 1.253 6.35 1.224 6.338 1.195 6.326 C 0.986 6.242 0.772 6.154 0.591 6.038 C 0.573 6.024 0.549 6.024 0.549 6.024 L 0.548 6.023 C 0.525 6.019 0.512 6.016 0.526 5.898 L 2.059 5.462 C 2.31 4.951 2.616 4.5 2.969 4.119 L 2.667 2.475 L 3.856 3.776 L 3.869 3.767 C 3.941 3.718 4.024 3.66 4.107 3.599 C 4.302 3.455 4.511 3.302 4.683 3.242 C 4.781 3.209 4.906 3.395 4.906 3.395 L 5.24 4.124 L 5.84 1.43 L 6.476 4.105 L 6.824 3.437 C 6.824 3.437 6.912 3.204 7.005 3.228 C 7.091 3.25 7.271 3.377 7.451 3.502 L 7.47 3.516 L 7.522 3.552 C 7.696 3.673 7.85 3.779 7.892 3.766 L 9.054 2.48 L 8.738 4.036 C 8.738 4.11 8.956 4.384 9.123 4.593 C 9.198 4.686 9.258 4.765 9.29 4.811 C 9.326 4.863 9.371 4.951 9.421 5.047 L 9.421 5.047 L 9.421 5.047 L 9.448 5.099 C 9.527 5.257 9.611 5.425 9.662 5.466 C 9.833 5.61 10.224 5.684 10.589 5.753 L 10.596 5.754 L 10.639 5.763 M 7.841 4.914 L 6.815 6.121 L 6.82 6.126 C 6.657 6.525 7.326 6.59 7.512 6.544 C 8.25 6.363 8.157 4.779 7.841 4.914 M 4.864 6.117 L 3.838 4.909 L 3.847 4.904 C 3.531 4.774 3.438 6.353 4.177 6.535 L 4.465 6.535 C 4.706 6.502 4.976 6.386 4.864 6.117 M 22.919 5.763 C 23.14 5.806 23.344 5.846 23.479 5.898 L 23.47 5.903 C 23.479 6.028 23.47 6.028 23.442 6.028 C 23.433 6.028 23.419 6.028 23.4 6.038 C 23.229 6.131 23.048 6.209 22.866 6.288 L 22.866 6.288 L 22.807 6.314 C 22.678 6.371 22.545 6.428 22.42 6.493 C 22.323 6.544 22.165 6.637 21.998 6.744 C 21.91 6.799 21.803 6.86 21.696 6.92 L 21.696 9.191 C 21.696 9.326 21.64 9.456 21.538 9.549 L 19.917 11.007 C 19.917 11.007 19.025 11.648 18.138 11.648 C 17.656 11.648 17.173 11.459 16.832 11.287 L 16.885 10.362 C 16.907 10.365 16.929 10.366 16.954 10.366 C 16.954 10.366 16.954 9.725 17.548 9.405 C 17.548 9.725 18.143 10.366 18.143 10.366 C 18.143 10.366 18.737 9.725 18.737 9.405 C 19.332 9.725 19.332 10.366 19.332 10.366 C 19.926 10.366 19.629 9.405 19.629 9.405 C 20.089 9.568 20.409 9.758 20.637 9.944 L 20.642 9.939 L 20.642 8.118 L 20.637 8.118 C 20.637 8.118 20.632 8.081 20.614 8.016 C 20.604 7.974 20.581 7.905 20.544 7.826 C 20.419 8.156 20.145 8.49 19.634 8.764 C 19.634 8.764 20.126 7.617 19.36 6.99 L 18.742 8.123 C 18.742 7.803 18.147 7.162 18.147 7.162 C 18.147 7.162 17.553 7.803 17.553 8.123 L 16.935 6.99 C 16.26 7.539 16.557 8.487 16.642 8.714 L 16.617 8.739 C 16.134 8.466 15.873 8.141 15.751 7.826 C 15.667 8.002 15.649 8.123 15.649 8.123 L 15.649 9.725 L 15.313 10.066 L 14.738 9.549 C 14.636 9.461 14.58 9.331 14.58 9.191 L 14.58 6.776 L 13.921 6.525 C 13.808 6.465 13.686 6.414 13.562 6.362 C 13.533 6.35 13.504 6.338 13.475 6.326 C 13.266 6.242 13.052 6.154 12.871 6.038 C 12.853 6.024 12.829 6.024 12.829 6.024 L 12.828 6.023 C 12.806 6.019 12.792 6.016 12.806 5.898 L 14.339 5.462 C 14.59 4.951 14.896 4.5 15.249 4.119 L 14.947 2.475 L 16.136 3.776 L 16.149 3.767 C 16.221 3.718 16.304 3.66 16.387 3.599 C 16.582 3.455 16.791 3.302 16.963 3.242 C 17.061 3.209 17.186 3.395 17.186 3.395 L 17.52 4.124 L 18.12 1.43 L 18.756 4.105 L 19.104 3.437 C 19.104 3.437 19.192 3.204 19.285 3.228 C 19.371 3.25 19.551 3.377 19.731 3.502 L 19.731 3.502 L 19.75 3.516 L 19.802 3.552 L 19.802 3.552 L 19.802 3.552 C 19.976 3.673 20.13 3.779 20.172 3.766 L 21.334 2.48 L 21.018 4.036 C 21.018 4.11 21.236 4.384 21.403 4.593 C 21.478 4.686 21.538 4.765 21.57 4.811 C 21.606 4.863 21.651 4.95 21.701 5.047 L 21.701 5.047 L 21.701 5.047 L 21.728 5.099 C 21.807 5.257 21.891 5.425 21.942 5.466 C 22.113 5.61 22.504 5.684 22.869 5.753 L 22.876 5.754 L 22.919 5.763 M 20.121 4.914 L 19.095 6.121 L 19.1 6.126 C 18.937 6.525 19.606 6.59 19.792 6.544 C 20.53 6.363 20.437 4.779 20.121 4.914 M 17.144 6.117 L 16.118 4.909 L 16.127 4.904 C 15.811 4.774 15.718 6.353 16.457 6.535 L 16.745 6.535 C 16.986 6.502 17.256 6.386 17.144 6.117" transform="matrix(1 0 0 1 0 0)" fill="#FFFFFF" stroke="none" />
  <path d="M 19.34 14.666 C 19.142 14.589 18.836 14.532 18.51 14.468 C 18.005 14.372 17.463 14.27 17.227 14.072 C 17.156 14.015 17.041 13.785 16.933 13.568 C 16.85 13.408 16.773 13.255 16.716 13.172 C 16.671 13.108 16.588 13 16.486 12.872 C 16.256 12.585 15.956 12.208 15.956 12.106 L 16.39 9.967 L 14.794 11.735 C 14.73 11.755 14.481 11.576 14.213 11.391 C 13.958 11.212 13.696 11.027 13.575 10.995 C 13.447 10.963 13.326 11.282 13.326 11.282 L 12.847 12.202 L 11.972 8.524 L 11.148 12.227 L 10.689 11.225 C 10.689 11.225 10.516 10.969 10.382 11.014 C 10.146 11.097 9.859 11.308 9.59 11.506 C 9.469 11.595 9.348 11.678 9.246 11.748 L 7.611 9.96 L 8.026 12.221 C 7.541 12.744 7.12 13.364 6.775 14.066 L 4.668 14.666 C 4.649 14.832 4.668 14.832 4.7 14.838 C 4.7 14.838 4.732 14.838 4.757 14.858 C 5.006 15.017 5.3 15.139 5.587 15.253 C 5.798 15.343 6.009 15.426 6.2 15.528 L 7.107 15.873 L 7.107 19.193 C 7.107 19.384 7.183 19.563 7.324 19.684 L 9.552 21.689 C 9.552 21.689 10.778 22.57 11.997 22.57 C 13.217 22.57 14.443 21.689 14.443 21.689 L 16.671 19.684 C 16.812 19.557 16.888 19.378 16.888 19.193 L 16.888 16.071 C 17.035 15.988 17.182 15.905 17.303 15.828 C 17.533 15.681 17.75 15.554 17.884 15.483 C 18.082 15.381 18.293 15.292 18.497 15.202 C 18.746 15.094 18.995 14.985 19.231 14.858 C 19.257 14.845 19.276 14.845 19.289 14.845 C 19.327 14.845 19.34 14.845 19.327 14.672 L 19.34 14.666 M 13.313 14.973 L 14.724 13.313 C 15.158 13.127 15.286 15.305 14.27 15.554 C 14.015 15.617 13.096 15.528 13.319 14.979 L 13.313 14.973 M 9.22 13.306 L 10.631 14.966 C 10.784 15.336 10.414 15.496 10.082 15.541 L 9.686 15.541 C 8.671 15.292 8.799 13.121 9.233 13.3 L 9.22 13.306 M 15.432 20.227 C 15.12 19.972 14.679 19.71 14.047 19.487 C 14.047 19.487 14.456 20.808 13.638 20.808 C 13.638 20.808 13.638 19.927 12.821 19.487 C 12.821 19.927 12.004 20.808 12.004 20.808 C 12.004 20.808 11.187 19.927 11.187 19.487 C 10.369 19.927 10.369 20.808 10.369 20.808 C 9.552 20.808 9.961 19.487 9.961 19.487 C 9.341 19.582 8.894 19.742 8.575 19.927 L 8.575 17.724 C 8.575 17.724 8.601 17.558 8.716 17.316 C 8.888 17.763 9.265 18.222 9.967 18.605 C 9.967 18.605 9.284 17.028 10.344 16.166 L 11.193 17.724 C 11.193 17.284 12.01 16.403 12.01 16.403 C 12.01 16.403 12.827 17.284 12.827 17.724 L 13.677 16.166 C 14.73 17.028 14.053 18.605 14.053 18.605 C 14.756 18.229 15.132 17.769 15.305 17.316 C 15.356 17.424 15.388 17.52 15.401 17.577 C 15.426 17.667 15.432 17.718 15.432 17.718 L 15.439 17.718 L 15.439 20.221 L 15.432 20.227" transform="matrix(1 0 0 1 0 0)" fill="#FFFFFF" stroke="none" />
</svg>
