<?xml version="1.0" encoding="UTF-8"?>
<!-- Reconstructed from Amplitude.Graphics.Svg.SvgAsset and recolored from static UIMapper.Color metadata for EWShop; not original source SVG. Live UI state/material colors are not included. -->
<svg xmlns="http://www.w3.org/2000/svg" width="24" height="24" viewBox="0 0 24 24">
  <path d="M 17.792 11.97 C 20.037 11.89 21.863 10.12 22.801 8.83 C 23.09 8.43 23.08 7.87 22.781 7.45 C 20.456 4.15 18.011 2.13 16.764 2 L 15.467 2.13 L 14.23 2.34 C 14.05 2.37 13.911 2.52 13.881 2.71 L 13.661 4.05 L 14.19 4.22 L 14.11 4.72 L 14.539 4.85 L 15.238 4 C 15.866 4.29 16.495 3.88 16.704 3.55 C 17.493 3.79 18.381 5.62 19.029 6.96 C 19.279 7.47 19.488 7.91 19.658 8.17 C 17.972 6.63 17.074 7.45 16.914 8.63 C 17.273 9.22 17.712 9.92 17.064 10.87 C 16.934 8.68 14.729 7.16 12.893 8.27 C 9.68 10.18 13.572 16.38 17.812 11.98 L 17.792 11.97" transform="matrix(1 0 0 1 0 0)" fill="#FFFFFF" stroke="none" />
  <path d="M 2.616 4.45 C 3.075 4.57 3.424 4.93 3.534 5.38 L 3.923 6.95 C 3.943 7.01 4.033 7.01 4.053 6.95 L 4.452 5.38 C 4.562 4.93 4.921 4.57 5.37 4.46 L 6.946 4.05 C 7.006 4.03 7.006 3.94 6.946 3.93 L 5.38 3.54 C 4.921 3.43 4.562 3.07 4.442 2.61 L 4.043 1.05 C 4.023 0.99 3.933 0.99 3.913 1.05 L 3.534 2.6 C 3.424 3.06 3.055 3.42 2.596 3.53 L 1.05 3.91 C 0.99 3.93 0.99 4.02 1.05 4.03 L 2.626 4.44 L 2.616 4.45" transform="matrix(1 0 0 1 0 0)" fill="#FFFFFF" stroke="none" />
  <path d="M 22.9 18.4 L 21.074 17.96 C 20.536 17.83 20.116 17.41 19.977 16.88 L 19.528 15.06 C 19.508 14.99 19.408 14.99 19.378 15.06 L 18.929 16.87 C 18.799 17.41 18.37 17.83 17.832 17.96 L 16.016 18.4 C 15.946 18.42 15.946 18.52 16.016 18.54 L 17.852 19.02 C 18.38 19.16 18.79 19.58 18.929 20.11 L 19.378 21.94 C 19.398 22.01 19.498 22.01 19.528 21.94 L 19.987 20.11 C 20.116 19.58 20.536 19.16 21.064 19.03 L 22.9 18.55 C 22.97 18.53 22.97 18.42 22.9 18.41 L 22.9 18.4" transform="matrix(1 0 0 1 0 0)" fill="#FFFFFF" stroke="none" />
  <path d="M 15.397 16.38 C 15.796 15.8 16.205 15.19 16.485 14.55 C 15.926 14.84 15.298 15 14.629 15 C 12.334 15 10.469 13.06 10.469 10.68 C 10.469 9.75 10.748 8.89 11.227 8.18 L 11.456 6.17 L 10.049 4.88 L 8.413 4.78 L 7.046 5.72 L 6.946 7.43 L 7.884 11.09 L 6.547 11.96 L 6.547 11.99 C 5.679 12.21 4.801 12.93 4.183 14.4 C 2.347 15.22 1.399 17.29 1.03 18.68 C 0.91 19.11 1.1 19.56 1.469 19.81 C 4.412 21.75 7.056 22.59 8.124 22.29 L 9.161 21.74 L 9.341 21.63 C 9.421 21.91 9.471 22.16 9.481 22.33 C 10.309 23.18 12.624 23.92 15.228 20.14 C 14.779 19.77 14.03 18.77 14.589 17.67 C 14.799 17.27 15.088 16.84 15.387 16.39 L 15.397 16.38 M 7.715 20.98 C 6.986 21.05 5.689 19.84 4.731 18.94 C 4.372 18.6 4.053 18.31 3.844 18.15 C 5.709 18.86 6.198 17.88 5.969 16.85 C 5.49 16.49 4.911 16.06 5.161 15.05 C 5.42 15.62 5.829 16.07 6.308 16.35 C 6.438 16.62 6.617 16.9 6.847 17.16 C 7.016 17.8 7.545 19.26 8.363 19.97 C 8.423 20.02 8.473 20.07 8.523 20.13 C 8.064 20.24 7.775 20.68 7.715 20.97 L 7.715 20.98" transform="matrix(1 0 0 1 0 0)" fill="#FFFFFF" stroke="none" />
</svg>
