<?xml version="1.0" encoding="UTF-8"?>
<!-- Reconstructed from Amplitude.Graphics.Svg.SvgAsset and recolored from static UIMapper.Color metadata for EWShop; not original source SVG. Live UI state/material colors are not included. -->
<svg xmlns="http://www.w3.org/2000/svg" width="24" height="24" viewBox="0 0 24 24">
  <path d="M 22.41 5.04 L 22.24 4.81 L 22.23 4.81 C 22.23 4.81 22.21 4.76 22.19 4.75 L 19.94 1.78 C 19.94 1.78 19.91 1.75 19.9 1.73 L 19.83 1.64 C 19.76 1.55 19.66 1.5 19.56 1.5 L 12.43 1.5 C 12.33 1.5 12.22 1.55 12.16 1.64 L 9.59 5.03 C 9.47 5.18 9.48 5.42 9.59 5.59 L 15.73 13.36 C 15.87 13.55 16.12 13.55 16.27 13.36 L 21.88 6.26 L 21.92 6.22 L 22.2 5.87 C 22.2 5.87 22.23 5.83 22.24 5.81 L 22.41 5.6 C 22.53 5.45 22.53 5.21 22.41 5.04" transform="matrix(1 0 0 1 0 0)" fill="#FFFFFF" stroke="none" />
  <path d="M 16.21 17.06 L 15.07 15.92 L 13.73 17.26 L 4.17 7.7 L 1.5 7.5 L 1.54 10.2 L 11.16 19.82 L 9.92 21.06 L 11.06 22.2 L 13.06 20.2 L 15.35 22.49 L 16.49 21.35 L 14.2 19.06 L 16.2 17.06 L 16.21 17.06 M 12.11 18.83 L 2.89 9.6 L 2.79 8.87 L 3.55 8.94 L 12.77 18.17 L 12.11 18.83" transform="matrix(1 0 0 1 0 0)" fill="#FFFFFF" stroke="none" />
</svg>
