<?xml version="1.0" encoding="UTF-8"?>
<!-- Reconstructed from Amplitude.Graphics.Svg.SvgAsset and recolored from static UIMapper.Color metadata for EWShop; not original source SVG. Live UI state/material colors are not included. -->
<svg xmlns="http://www.w3.org/2000/svg" width="24" height="24" viewBox="0 0 24 24">
  <path d="M 10.3 16.124 C 10.297 16.148 10.296 16.173 10.296 16.198 C 10.296 16.564 10.592 16.861 10.958 16.861 C 11.233 16.861 11.468 16.694 11.568 16.456 L 13.391 16.456 C 13.466 17.491 13.99 18.402 14.769 18.995 L 14.2 19.908 C 13.946 19.869 13.682 19.981 13.537 20.213 C 13.343 20.523 13.438 20.931 13.749 21.125 C 14.059 21.318 14.468 21.224 14.661 20.913 C 14.807 20.679 14.789 20.39 14.639 20.179 L 15.201 19.276 C 15.633 19.514 16.119 19.664 16.637 19.701 L 16.637 21.524 C 16.399 21.625 16.232 21.86 16.232 22.134 C 16.232 22.5 16.529 22.797 16.894 22.797 C 17.26 22.797 17.557 22.5 17.557 22.134 C 17.557 21.86 17.39 21.625 17.152 21.524 L 17.152 19.701 C 17.883 19.648 18.553 19.371 19.091 18.939 L 20.129 20.042 C 20.025 20.278 20.064 20.564 20.252 20.764 C 20.503 21.03 20.922 21.043 21.188 20.792 C 21.455 20.542 21.468 20.123 21.217 19.856 C 21.029 19.656 20.746 19.599 20.504 19.689 L 19.469 18.588 C 19.996 18.02 20.338 17.277 20.398 16.456 L 21.615 16.456 C 21.716 16.694 21.951 16.861 22.225 16.861 C 22.591 16.861 22.887 16.564 22.887 16.198 C 22.887 15.833 22.591 15.536 22.225 15.536 C 21.951 15.536 21.715 15.703 21.615 15.941 L 20.398 15.941 C 20.314 14.786 19.672 13.786 18.74 13.209 L 19.301 12.129 C 19.559 12.15 19.815 12.018 19.942 11.775 C 20.111 11.45 19.984 11.05 19.66 10.882 C 19.336 10.713 18.936 10.839 18.767 11.163 C 18.64 11.407 18.68 11.693 18.844 11.892 L 18.283 12.971 C 17.857 12.787 17.388 12.686 16.894 12.686 C 16.862 12.686 16.829 12.686 16.797 12.687 C 16.761 12.688 16.725 12.69 16.69 12.692 L 16.541 10.973 C 16.769 10.853 16.915 10.604 16.892 10.33 C 16.86 9.966 16.539 9.696 16.175 9.728 C 15.81 9.759 15.541 10.08 15.572 10.445 C 15.596 10.718 15.782 10.938 16.028 11.018 L 16.179 12.759 C 15.201 12.961 14.372 13.57 13.877 14.4 L 13.517 14.213 C 13.399 14.348 13.276 14.478 13.147 14.601 L 13.646 14.861 C 13.507 15.198 13.419 15.561 13.391 15.941 L 11.568 15.941 C 11.538 15.869 11.496 15.804 11.444 15.748 C 11.081 15.91 10.698 16.037 10.3 16.124 M 19.052 17.121 C 19.052 17.68 18.598 18.133 18.039 18.133 C 17.48 18.133 17.027 17.68 17.027 17.121 C 17.027 16.562 17.48 16.108 18.039 16.108 C 18.598 16.108 19.052 16.562 19.052 17.121" transform="matrix(1 0 0 1 0 0)" fill="#FFFFFF" stroke="none" />
  <path d="M 9.24 2.97 C 9.57 2.83 9.802 2.503 9.802 2.123 C 9.802 1.615 9.39 1.204 8.883 1.204 C 8.375 1.204 7.964 1.615 7.964 2.123 C 7.964 2.503 8.195 2.83 8.525 2.969 L 8.525 5.499 C 7.51 5.573 6.582 5.957 5.834 6.557 L 4.394 5.026 C 4.539 4.699 4.484 4.302 4.223 4.025 C 3.875 3.655 3.294 3.637 2.924 3.985 C 2.554 4.333 2.536 4.914 2.884 5.284 C 3.145 5.562 3.537 5.641 3.873 5.516 L 5.31 7.044 C 4.578 7.832 4.104 8.863 4.021 10.003 L 2.332 10.003 C 2.192 9.673 1.866 9.441 1.485 9.441 C 0.977 9.441 0.566 9.853 0.566 10.36 C 0.566 10.868 0.977 11.28 1.485 11.28 C 1.866 11.28 2.192 11.048 2.332 10.718 L 4.021 10.718 C 4.137 12.321 5.029 13.709 6.322 14.509 L 5.542 16.007 C 5.185 15.979 4.829 16.162 4.654 16.499 C 4.419 16.95 4.595 17.505 5.045 17.739 C 5.495 17.973 6.05 17.798 6.284 17.347 C 6.46 17.01 6.405 16.613 6.177 16.337 L 6.956 14.839 C 7.547 15.094 8.198 15.235 8.883 15.235 C 8.928 15.235 8.973 15.234 9.018 15.233 C 9.068 15.232 9.117 15.23 9.166 15.227 L 9.373 17.612 C 9.056 17.779 8.854 18.124 8.886 18.504 C 8.93 19.009 9.376 19.384 9.881 19.34 C 10.387 19.296 10.761 18.851 10.718 18.345 C 10.685 17.966 10.426 17.66 10.085 17.55 L 9.876 15.134 C 11.233 14.853 12.383 14.008 13.071 12.856 L 14.567 13.634 C 14.549 13.983 14.731 14.326 15.061 14.498 C 15.511 14.732 16.066 14.557 16.3 14.106 C 16.535 13.656 16.36 13.101 15.909 12.867 C 15.563 12.687 15.156 12.749 14.879 12.991 L 13.391 12.217 C 13.584 11.749 13.706 11.245 13.744 10.718 L 16.274 10.718 C 16.413 11.048 16.74 11.28 17.121 11.28 C 17.628 11.28 18.04 10.868 18.04 10.36 C 18.04 9.853 17.628 9.441 17.121 9.441 C 16.74 9.441 16.413 9.673 16.274 10.003 L 13.744 10.003 C 13.64 8.566 12.913 7.302 11.832 6.479 L 12.622 5.212 C 12.974 5.266 13.341 5.112 13.542 4.79 C 13.811 4.359 13.679 3.792 13.248 3.524 C 12.817 3.255 12.251 3.387 11.982 3.817 C 11.78 4.142 11.805 4.543 12.013 4.836 L 11.232 6.089 C 10.634 5.759 9.959 5.551 9.24 5.499 L 9.24 2.97 M 7.924 9.974 C 7.924 10.745 7.299 11.37 6.528 11.37 C 5.757 11.37 5.132 10.745 5.132 9.974 C 5.132 9.203 5.757 8.578 6.528 8.578 C 7.299 8.578 7.924 9.203 7.924 9.974 M 8.215 8.384 C 8.661 8.384 9.022 8.022 9.022 7.576 C 9.022 7.131 8.661 6.769 8.215 6.769 C 7.769 6.769 7.408 7.131 7.408 7.576 C 7.408 8.022 7.769 8.384 8.215 8.384" transform="matrix(1 0 0 1 0 0)" fill="#FFFFFF" stroke="none" />
</svg>
