<?xml version="1.0" encoding="UTF-8"?>
<!-- Reconstructed from Amplitude.Graphics.Svg.SvgAsset and recolored from static UIMapper.Color metadata for EWShop; not original source SVG. Live UI state/material colors are not included. -->
<svg xmlns="http://www.w3.org/2000/svg" width="24" height="24" viewBox="0 0 24 24">
  <path d="M 7.83 10.305 L 7.027 9.907 C 6.625 10.391 4.758 10.949 4.262 9.277 C 3.871 7.962 5.241 7.13 6.291 6.72 C 6.706 6.558 7.153 6.796 7.309 7.216 L 7.606 8.012 L 8.965 7.07 C 9.454 6.731 10.425 6.478 11.016 6.68 C 11.099 6.708 11.183 6.735 11.271 6.742 L 12.31 6.829 C 12.782 6.869 13.239 7.018 13.644 7.265 L 14.387 7.719 C 14.918 8.043 15.338 8.522 15.59 9.092 L 16.076 10.185 C 17.434 10.382 19.674 13.265 20.109 14.893 C 20.114 14.914 20.117 14.934 20.119 14.955 L 20.461 20.194 C 20.59 21.522 22.185 20.882 23.034 21.284 C 23.674 21.586 23.542 22.088 23.542 22.088 L 19.711 22.458 C 19.355 22.538 19.032 22.23 19.091 21.867 C 19.149 21.508 19.05 20.864 18.958 20.512 C 18.958 20.512 17.833 17.713 17.764 17.001 C 17.694 16.29 18.276 15.274 18.276 15.274 L 15.732 13.64 L 15.281 16.422 L 13.211 20.124 L 15.28 20.354 C 15.448 20.369 15.6 20.463 15.69 20.608 C 15.9 20.945 15.695 21.388 15.304 21.441 L 13.91 21.63 L 12.106 21.737 C 11.893 21.75 11.721 21.564 11.749 21.352 C 11.835 20.706 12.178 20.208 12.178 20.208 C 12.178 20.208 12.498 17.207 12.889 16.827 C 13.279 16.446 13.921 16.041 13.921 16.041 L 13.391 11.982 L 10.204 10.758 L 9.298 11.949 L 9.553 14.57 L 11.188 15.608 L 9.672 16.611 L 8.578 15.052 L 7.802 12.258 L 7.83 10.305" transform="matrix(1 0 0 1 0 0)" fill="#FFFFFF" stroke="none" />
  <path d="M 23 10.5 L 23 12 L 15.914 8 L 23 10.5" transform="matrix(1 0 0 1 0 0)" fill="#FFFFFF" stroke="none" />
  <path d="M 6.52 1.555 L 22.94 5.954 L 20.37 7.336 L 6.002 3.486 L 6.451 5.677 L 0.948 1.097 L 7.874 0.364 L 6.52 1.555" transform="matrix(1 0 0 1 0 0)" fill="#FFFFFF" stroke="none" />
  <path d="M 17.459 1.39 L 23 1.913 L 23 2.917 L 17.365 2.385 L 9.884 1.121 L 17.459 1.39" transform="matrix(1 0 0 1 0 0)" fill="#FFFFFF" stroke="none" />
</svg>
