<?xml version="1.0" encoding="UTF-8"?>
<!-- Reconstructed from Amplitude.Graphics.Svg.SvgAsset and recolored from static UIMapper.Color metadata for EWShop; not original source SVG. Live UI state/material colors are not included. -->
<svg xmlns="http://www.w3.org/2000/svg" width="24" height="24" viewBox="0 0 24 24">
  <path d="M 2.557 6.211 C 3.743 0.895 10.062 -0.123 14.354 2.114 C 14.779 2.335 15.181 2.654 15.552 3.038 C 15.336 3.296 15.086 3.559 14.794 3.825 C 14.712 3.765 14.625 3.707 14.532 3.652 C 9.959 0.884 6.581 2.419 4.751 4.258 C 3.893 5.12 3.642 6.551 4.507 7.406 C 5.852 8.732 8.087 8.257 9.65 7.223 C 10.136 6.902 10.791 6.877 11.35 7.074 C 11.49 7.137 11.625 7.202 11.757 7.264 C 11.911 7.353 12.068 7.428 12.227 7.492 C 15.148 8.967 15.988 10.344 16.423 12.581 C 15.951 13.579 15.543 14.514 15.554 15.194 C 15.573 16.307 18.083 18.654 17.802 19.031 L 9.713 23 L 7.654 19.745 C 7.594 18.974 9.713 17.711 10.112 16.47 C 8.463 18.099 6.04 18.919 3.774 18.341 C 3.334 18.229 3.058 17.816 3.007 17.365 C 2.85 15.985 2.409 14.487 1.976 13.326 C 1.953 13.31 0.985 12.676 1 12.065 C 1.087 11.085 2.154 10.625 2.359 9.717 C 2.606 8.627 2.288 7.438 2.557 6.211" transform="matrix(1 0 0 1 0 0)" fill="#FFFFFF" stroke="none" />
  <path d="M 22.389 4.305 C 22.59 4.342 22.795 4.361 23 4.361 L 23 4.972 C 22.478 4.972 21.962 4.869 21.48 4.67 C 20.998 4.47 20.56 4.178 20.191 3.809 C 19.822 3.44 19.53 3.002 19.33 2.52 C 19.131 2.038 19.028 1.522 19.028 1 L 19.639 1 C 19.639 1.205 19.658 1.41 19.695 1.611 L 22.389 1.611 L 22.389 4.305 M 21.778 4.131 C 21.756 4.123 21.735 4.114 21.714 4.105 C 21.306 3.936 20.936 3.689 20.623 3.377 C 20.311 3.065 20.064 2.694 19.895 2.286 C 19.886 2.265 19.877 2.244 19.869 2.222 L 21.778 2.222 L 21.778 4.131" transform="matrix(1 0 0 1 0 0)" fill="#FFFFFF" stroke="none" />
  <path d="M 23 8.639 C 22.795 8.639 22.59 8.658 22.389 8.695 L 22.389 11.389 L 19.695 11.389 C 19.658 11.59 19.639 11.795 19.639 12 L 19.028 12 C 19.028 11.478 19.131 10.962 19.33 10.48 C 19.53 9.998 19.822 9.56 20.191 9.191 C 20.56 8.822 20.998 8.53 21.48 8.33 C 21.962 8.131 22.478 8.028 23 8.028 L 23 8.639 M 21.714 8.895 C 21.735 8.886 21.756 8.877 21.778 8.869 L 21.778 10.778 L 19.869 10.778 C 19.877 10.756 19.886 10.735 19.895 10.714 C 20.064 10.306 20.311 9.935 20.623 9.623 C 20.936 9.311 21.306 9.064 21.714 8.895" transform="matrix(1 0 0 1 0 0)" fill="#FFFFFF" stroke="none" />
  <path d="M 21.211 1.611 L 22.389 1.611 L 22.389 2.79 L 21.778 2.79 L 21.778 2.222 L 21.211 2.222 L 21.211 1.611" transform="matrix(1 0 0 1 0 0)" fill="#FFFFFF" stroke="none" />
  <path d="M 22.389 11.389 L 21.211 11.389 L 21.211 10.778 L 21.778 10.778 L 21.778 10.211 L 22.389 10.211 L 22.389 11.389" transform="matrix(1 0 0 1 0 0)" fill="#FFFFFF" stroke="none" />
  <path d="M 22.389 6.5 C 19.83 6.188 17.813 4.171 17.5 1.611 C 17.188 4.171 15.171 6.188 12.611 6.5 C 15.171 6.813 17.188 8.83 17.5 11.389 C 17.813 8.83 19.83 6.813 22.389 6.5" transform="matrix(1 0 0 1 0 0)" fill="#FFFFFF" stroke="none" />
</svg>
