<?xml version="1.0" encoding="UTF-8"?>
<!-- Reconstructed from Amplitude.Graphics.Svg.SvgAsset and recolored from static UIMapper.Color metadata for EWShop; not original source SVG. Live UI state/material colors are not included. -->
<svg xmlns="http://www.w3.org/2000/svg" width="24" height="24" viewBox="0 0 24 24">
  <path d="M 12 0.68 L 12.912 6.048 C 13.096 6.072 13.278 6.103 13.457 6.141 L 14.527 3.53 L 14.127 6.318 C 14.288 6.37 14.446 6.427 14.601 6.49 L 18.431 1.39 L 15.955 7.228 C 16.099 7.329 16.238 7.436 16.373 7.549 L 18.661 5.882 L 16.871 8.013 C 16.973 8.119 17.071 8.227 17.165 8.339 L 23.025 5.882 L 17.989 9.621 C 18.064 9.779 18.132 9.94 18.192 10.104 L 21.188 9.732 L 18.383 10.728 C 18.424 10.894 18.457 11.064 18.483 11.236 L 23.222 12.085 L 18.483 12.934 C 18.457 13.106 18.424 13.275 18.383 13.443 L 21.188 14.438 L 18.192 14.067 C 18.146 14.191 18.015 14.263 17.961 14.384 C 17.96 14.385 18.04 14.438 18.04 14.44 C 17.997 14.412 17.973 14.393 17.961 14.384 C 17.936 14.318 17.901 14.194 17.866 13.986 C 17.826 13.748 17.796 13.468 17.763 13.148 L 17.755 13.067 C 17.695 12.484 17.619 11.742 17.41 11.157 C 16.781 9.392 15.434 7.792 13.617 7.128 C 12.682 6.787 11.637 6.703 10.579 6.984 C 9.535 7.261 8.569 7.869 7.712 8.778 C 6.257 10.321 6.12 11.616 5.982 12.934 C 5.947 13.263 5.912 13.593 5.857 13.929 C 5.848 13.983 5.834 14.034 5.813 14.083 C 5.811 14.078 5.809 14.072 5.807 14.066 L 2.812 14.438 L 5.617 13.443 C 5.576 13.275 5.542 13.106 5.517 12.934 L 0.778 12.085 L 5.517 11.236 C 5.542 11.064 5.576 10.895 5.617 10.728 L 2.812 9.732 L 5.807 10.104 C 5.868 9.94 5.936 9.779 6.01 9.622 L 0.975 5.882 L 6.835 8.339 C 6.929 8.227 7.027 8.119 7.128 8.013 L 5.339 5.882 L 7.627 7.549 C 7.761 7.436 7.901 7.329 8.044 7.228 L 5.569 1.39 L 9.399 6.49 C 9.554 6.427 9.712 6.37 9.872 6.318 L 9.473 3.53 L 10.543 6.141 C 10.722 6.103 10.904 6.072 11.088 6.048 L 12 0.68" transform="matrix(1 0 0 1 0 0)" fill="#FFFFFF" stroke="none" />
  <path d="M 19.657 14.912 C 19.447 14.831 19.121 14.77 18.774 14.702 C 18.238 14.6 17.661 14.491 17.409 14.281 C 17.335 14.22 17.212 13.975 17.097 13.744 C 17.009 13.574 16.927 13.411 16.866 13.323 C 16.819 13.255 16.73 13.14 16.622 13.004 C 16.377 12.698 16.058 12.298 16.058 12.189 L 16.52 9.914 L 14.822 11.795 C 14.754 11.815 14.489 11.625 14.204 11.428 C 13.932 11.238 13.654 11.041 13.525 11.007 C 13.389 10.973 13.26 11.313 13.26 11.313 L 12.75 12.291 L 11.82 8.379 L 10.944 12.318 L 10.455 11.252 C 10.455 11.252 10.272 10.98 10.129 11.028 C 9.878 11.116 9.572 11.34 9.287 11.551 C 9.158 11.646 9.029 11.734 8.92 11.809 L 7.181 9.907 L 7.623 12.311 C 7.107 12.868 6.659 13.527 6.292 14.274 L 4.051 14.912 C 4.03 15.089 4.051 15.089 4.085 15.096 C 4.085 15.096 4.119 15.096 4.146 15.116 C 4.411 15.286 4.723 15.415 5.029 15.537 C 5.253 15.632 5.477 15.72 5.681 15.829 L 6.645 16.196 L 6.645 19.727 C 6.645 19.931 6.726 20.121 6.876 20.25 L 9.246 22.383 C 9.246 22.383 10.55 23.32 11.847 23.32 C 13.144 23.32 14.448 22.383 14.448 22.383 L 16.819 20.25 C 16.968 20.115 17.049 19.924 17.049 19.727 L 17.049 16.406 C 17.206 16.318 17.362 16.23 17.491 16.148 C 17.735 15.992 17.966 15.856 18.109 15.782 C 18.319 15.673 18.544 15.578 18.761 15.483 C 19.026 15.367 19.291 15.252 19.542 15.116 C 19.569 15.102 19.589 15.102 19.603 15.102 C 19.644 15.102 19.657 15.102 19.644 14.919 L 19.657 14.912 M 13.246 15.238 L 14.747 13.473 C 15.209 13.276 15.345 15.591 14.265 15.856 C 13.993 15.924 13.015 15.829 13.253 15.245 L 13.246 15.238 M 8.893 13.466 L 10.394 15.232 C 10.557 15.625 10.163 15.795 9.81 15.843 L 9.389 15.843 C 8.309 15.578 8.445 13.269 8.906 13.459 L 8.893 13.466 M 15.501 20.828 C 15.168 20.556 14.7 20.278 14.027 20.04 C 14.027 20.04 14.462 21.446 13.593 21.446 C 13.593 21.446 13.593 20.508 12.723 20.04 C 12.723 20.508 11.854 21.446 11.854 21.446 C 11.854 21.446 10.985 20.508 10.985 20.04 C 10.115 20.508 10.115 21.446 10.115 21.446 C 9.246 21.446 9.681 20.04 9.681 20.04 C 9.022 20.142 8.547 20.312 8.207 20.508 L 8.207 18.165 C 8.207 18.165 8.234 17.989 8.356 17.731 C 8.54 18.206 8.94 18.695 9.688 19.103 C 9.688 19.103 8.961 17.425 10.088 16.508 L 10.992 18.165 C 10.992 17.697 11.861 16.76 11.861 16.76 C 11.861 16.76 12.73 17.697 12.73 18.165 L 13.633 16.508 C 14.754 17.425 14.034 19.103 14.034 19.103 C 14.781 18.702 15.182 18.213 15.365 17.731 C 15.42 17.846 15.453 17.948 15.467 18.009 C 15.494 18.104 15.501 18.159 15.501 18.159 L 15.508 18.159 L 15.508 20.821 L 15.501 20.828" transform="matrix(1 0 0 1 0 0)" fill="#FFFFFF" stroke="none" />
</svg>
