<?xml version="1.0" encoding="UTF-8"?>
<!-- Reconstructed from Amplitude.Graphics.Svg.SvgAsset and recolored from static UIMapper.Color metadata for EWShop; not original source SVG. Live UI state/material colors are not included. -->
<svg xmlns="http://www.w3.org/2000/svg" width="24" height="24" viewBox="0 0 24 24">
  <path d="M 7.15 18.72 C 6.81 18.28 6.53 17.8 6.33 17.29 L 2.49 17.29 C 3.32 18.74 4.43 19.96 5.72 20.88 L 7.52 19.14 C 7.39 19.01 7.27 18.87 7.15 18.72" transform="matrix(1 0 0 1 0 0)" fill="#FFFFFF" stroke="none" />
  <path d="M 5.96 15.2 L 1.04 12.68 C 1.15 13.83 1.41 14.9 1.8 15.88 L 5.98 15.88 C 5.96 15.66 5.95 15.43 5.95 15.21 L 5.96 15.2" transform="matrix(1 0 0 1 0 0)" fill="#FFFFFF" stroke="none" />
  <path d="M 2.12 5.94 C 1.41 7.75 1.06 9.45 1 11.04 L 6.2 13.71 L 2.12 5.94" transform="matrix(1 0 0 1 0 0)" fill="#FFFFFF" stroke="none" />
  <path d="M 21.9 5.94 L 17.73 13.72 L 23 10.65 C 22.9 9.17 22.55 7.6 21.9 5.94" transform="matrix(1 0 0 1 0 0)" fill="#FFFFFF" stroke="none" />
  <path d="M 14.65 20.4 C 14.05 20.68 13.4 20.87 12.74 20.95 L 12.74 22.94 C 14.2 22.84 15.66 22.41 17 21.69 L 15.3 20.04 C 15.09 20.17 14.87 20.29 14.65 20.39 L 14.65 20.4" transform="matrix(1 0 0 1 0 0)" fill="#FFFFFF" stroke="none" />
  <path d="M 8.64 20.06 L 6.97 21.67 C 8.32 22.4 9.79 22.84 11.27 22.94 L 11.27 20.97 C 10.57 20.9 9.89 20.7 9.26 20.4 C 9.05 20.3 8.83 20.19 8.64 20.06" transform="matrix(1 0 0 1 0 0)" fill="#FFFFFF" stroke="none" />
  <path d="M 16.77 18.73 C 16.66 18.87 16.54 19 16.42 19.13 L 18.26 20.91 C 19.56 19.98 20.69 18.76 21.52 17.29 L 17.59 17.29 C 17.39 17.8 17.11 18.29 16.76 18.73 L 16.77 18.73" transform="matrix(1 0 0 1 0 0)" fill="#FFFFFF" stroke="none" />
  <path d="M 17.97 15.25 C 17.97 15.46 17.97 15.66 17.94 15.87 L 22.21 15.87 C 22.64 14.78 22.91 13.59 23 12.31 L 17.97 15.25" transform="matrix(1 0 0 1 0 0)" fill="#FFFFFF" stroke="none" />
  <path d="M 14.03 16.83 L 16.47 11 C 16.47 11 16.48 10.96 16.47 10.94 L 16.21 9.96 C 16.21 9.96 16.21 9.93 16.21 9.92 L 17.2 4.31 C 17.2 4.31 17.2 4.29 17.2 4.27 L 16.97 3.06 C 16.97 3.06 16.96 3.02 16.94 3.01 L 15.93 2.07 C 15.93 2.07 15.92 2.06 15.91 2.06 L 14.6 1.34 C 14.6 1.34 14.58 1.34 14.57 1.34 L 13.16 1 L 13.14 1 L 11.48 1.02 C 11.48 1.02 11.46 1.02 11.45 1.02 L 8.62 2.11 C 8.62 2.11 8.58 2.14 8.56 2.16 L 7.24 5.06 C 7.24 5.06 7.24 5.09 7.24 5.11 L 7.39 7.23 C 7.39 7.23 7.39 7.27 7.37 7.29 L 6.13 9.17 C 6.13 9.17 6.11 9.27 6.15 9.3 L 6.87 9.96 C 6.87 9.96 6.89 9.98 6.89 9.99 L 7.43 11.23 C 7.43 11.23 7.43 11.25 7.43 11.26 L 7.56 12.9 C 7.56 12.9 7.58 12.96 7.6 12.97 L 8.67 13.76 C 8.67 13.76 8.72 13.78 8.75 13.78 L 10.94 13.37 C 10.94 13.37 10.97 13.37 10.98 13.35 L 12.75 12.13 C 12.83 12.07 12.94 12.16 12.9 12.26 L 12.02 14.06 C 12.02 14.06 12 14.09 11.98 14.1 L 11.24 14.52 C 11.19 14.55 11.17 14.61 11.21 14.66 L 12.64 16.85 C 12.64 16.85 12.69 16.9 12.72 16.9 L 13.94 16.9 C 13.94 16.9 14.02 16.88 14.03 16.84 L 14.03 16.83" transform="matrix(1 0 0 1 0 0)" fill="#FFFFFF" stroke="none" />
</svg>
