<?xml version="1.0" encoding="UTF-8"?>
<!-- Reconstructed from Amplitude.Graphics.Svg.SvgAsset and recolored from static UIMapper.Color metadata for EWShop; not original source SVG. Live UI state/material colors are not included. -->
<svg xmlns="http://www.w3.org/2000/svg" width="24" height="24" viewBox="0 0 24 24">
  <path d="M 6.328 2.534 C 4.765 3.652 1.665 7.276 1.011 13.187 C 0.928 13.933 1.32 14.648 2 14.932 C 4.204 15.854 7.921 16.704 10.963 15.102 L 10.981 15.074 C 11.402 15.217 11.852 15.294 12.319 15.294 C 12.406 15.294 12.492 15.293 12.577 15.289 L 12.25 13.656 L 14.125 13.656 L 14.125 9.906 L 16.905 11.759 C 16.926 11.596 16.938 11.43 16.938 11.261 C 16.938 9.161 15.209 7.459 13.077 7.459 C 11.546 7.459 10.223 8.336 9.598 9.609 C 9.535 9.727 9.481 9.852 9.438 9.982 C 9.433 9.998 9.428 10.013 9.423 10.029 C 9.289 10.415 9.216 10.83 9.216 11.261 C 9.216 11.798 9.329 12.31 9.533 12.773 C 8.733 12.191 8.271 11.223 8.324 10.215 C 7.584 10.112 6.517 10.167 5.795 10.87 C 5.883 9.237 6.361 5.659 7.558 4.419 C 8.078 4.677 9.229 4.716 9.844 3.879 L 11.394 4.419 L 11.865 3.937 L 11.394 3.371 L 11.968 2.764 L 10.69 1.238 C 10.509 1.022 10.215 0.944 9.954 1.042 L 8.153 1.717 L 6.328 2.534" transform="matrix(1 0 0 1 0 0)" fill="#FFFFFF" stroke="none" />
  <path d="M 15.616 15.184 L 14.816 10.942 L 17.364 14.236 L 18.369 11.891 L 19.003 14.761 L 22.044 12.948 L 20.416 15.854 L 23.541 16.208 L 20.23 18.273 L 23.02 20.133 L 19.839 19.631 L 21.289 23.52 L 18.481 20.766 L 17.643 22.403 L 16.788 20.431 L 13.606 23.036 L 14.704 19.129 L 12.974 19.389 L 14.183 18.477 L 10.685 16.431 L 14.295 16.598 L 13.346 14.589 L 15.616 15.184 M 16.571 16.519 L 16.281 14.983 L 17.204 16.176 L 17.568 15.327 L 17.811 16.304 L 18.606 15.428 L 18.309 16.762 L 19.441 16.89 L 18.242 17.638 L 19.252 18.312 L 18.1 18.13 L 18.639 19.571 L 17.609 18.541 L 17.305 19.133 L 16.996 18.419 L 15.843 19.363 L 16.241 17.948 L 15.614 18.042 L 16.052 17.712 L 14.786 16.971 L 16.093 17.032 L 15.749 16.304 L 16.571 16.519" transform="matrix(1 0 0 1 0 0)" fill="#FFFFFF" stroke="none" />
  <path d="M 19.346 13.911 L 22.239 10.863 L 20.358 10.533 L 19.346 13.911" transform="matrix(1 0 0 1 0 0)" fill="#FFFFFF" stroke="none" />
  <path d="M 13.538 19.993 L 10.605 21.608 L 11.45 22.672 L 13.538 19.993" transform="matrix(1 0 0 1 0 0)" fill="#FFFFFF" stroke="none" />
  <path d="M 23.411 21.409 L 20.804 20.413 L 22.643 22.87 L 23.411 21.409" transform="matrix(1 0 0 1 0 0)" fill="#FFFFFF" stroke="none" />
</svg>
