<?xml version="1.0" encoding="UTF-8"?>
<!-- Reconstructed from Amplitude.Graphics.Svg.SvgAsset and recolored from static UIMapper.Color metadata for EWShop; not original source SVG. Live UI state/material colors are not included. -->
<svg xmlns="http://www.w3.org/2000/svg" width="24" height="24" viewBox="0 0 24 24">
  <path d="M 6.238 7 C 3.126 7 1.471 9.27 1 10.45 C 0.989 10.48 1 10.51 1 10.54 C 2.404 12.6 1.765 16.36 1.649 17.08 C 1.649 17.11 1.649 17.14 1.639 17.16 C 1.639 17.18 1.639 17.2 1.649 17.22 L 5.316 22.98 C 5.316 22.98 5.337 23 5.337 23.01 L 5.337 19.31 C 5.337 19.31 5.337 19.29 5.337 19.28 L 4.143 12.72 C 4.132 12.65 4.09 12.6 4.027 12.58 L 2.812 12.11 C 2.76 12.09 2.707 12.04 2.697 11.98 L 2.362 10.59 C 2.33 10.44 2.466 10.32 2.592 10.37 L 4.792 11.12 C 4.792 11.12 4.876 11.19 4.897 11.24 L 5.347 13.9 L 5.725 15.08 C 5.871 15.55 6.573 15.55 6.73 15.08 L 7.107 13.9 L 7.526 11.24 C 7.537 11.19 7.579 11.14 7.631 11.12 L 9.852 10.37 C 9.988 10.31 10.125 10.44 10.083 10.59 L 9.747 11.98 C 9.737 12.04 9.685 12.09 9.632 12.11 L 8.396 12.58 C 8.333 12.6 8.291 12.66 8.281 12.72 L 7.086 19.28 C 7.086 19.28 7.086 19.3 7.086 19.31 L 7.086 23.01 C 7.086 23.01 7.107 22.99 7.107 22.98 L 10.795 17.22 C 10.795 17.22 10.816 17.18 10.806 17.16 C 10.806 17.14 10.806 17.12 10.806 17.09 C 10.722 16.4 10.271 12.49 11.445 10.54 C 11.455 10.51 11.466 10.49 11.445 10.46 C 10.984 9.28 9.318 7.01 6.217 7.01 L 6.238 7" transform="matrix(1 0 0 1 0 0)" fill="#FFFFFF" stroke="none" />
  <path d="M 17.113 1 C 15.258 1 13.614 1.78 12.524 3.01 C 11.445 1.79 9.79 1 7.935 1 C 4.688 1 2.048 3.42 2.048 6.4 C 2.048 6.57 2.048 6.73 2.058 6.9 C 3.085 6.23 4.447 5.75 6.238 5.75 C 10.607 5.75 12.398 8.62 13.048 10 C 11.497 12.14 12.252 16.08 12.472 17.23 C 12.493 17.36 12.514 17.45 12.524 17.5 L 11.717 18.59 C 12.22 18.86 12.524 19 12.524 19 C 12.524 19 23 14.2 23 6.4 C 23 3.42 20.36 1 17.113 1" transform="matrix(1 0 0 1 0 0)" fill="#FFFFFF" stroke="none" />
</svg>
