<?xml version="1.0" encoding="UTF-8"?>
<!-- Reconstructed from Amplitude.Graphics.Svg.SvgAsset and recolored from static UIMapper.Color metadata for EWShop; not original source SVG. Live UI state/material colors are not included. -->
<svg xmlns="http://www.w3.org/2000/svg" width="24" height="24" viewBox="0 0 24 24">
  <path d="M 7.94 14.375 C 8.603 14.178 9.943 13.814 10.32 13.861 C 10.595 13.981 10.885 14.598 10.623 14.908 C 10.618 14.914 10.61 14.925 10.6 14.939 C 10.391 15.215 9.13 16.886 9.133 16.996 C 9.139 17.201 9.191 17.554 9.207 17.621 C 9.222 17.714 9.353 17.788 9.43 17.831 C 9.444 17.839 9.455 17.845 9.464 17.851 C 10.133 18.338 10.047 18.962 10.003 19.135 C 9.947 19.362 9.726 19.882 9.272 20.526 L 9.338 22.742 C 10.72 20.064 11.873 19.298 11.873 19.298 C 11.873 19.298 11.871 19.295 11.867 19.289 C 11.77 19.145 10.468 17.216 11.854 14.904 C 11.854 14.896 11.853 14.883 11.852 14.865 C 11.831 14.444 11.678 11.341 9.94 9.944 C 9.906 9.913 8.883 10.69 8.249 11.178 L 7.94 14.375" transform="matrix(1 0 0 1 0 0)" fill="#FFFFFF" stroke="none" />
  <path d="M 7.224 17.258 L 7.24 17.363 L 6.856 18.193 L 6.849 18.195 L 6.044 17.679 C 6.044 17.675 6.043 17.668 6.042 17.657 C 6.016 17.4 5.813 15.384 5.224 15.066 C 5.155 15.029 2.537 15.281 2.537 15.281 C 2.209 15.299 2.08 16.168 2.447 16.43 C 2.486 16.455 2.537 16.488 2.597 16.527 C 3.148 16.886 4.481 17.753 4.519 17.972 L 4.522 17.986 C 4.569 18.192 4.636 18.493 4.642 18.561 C 4.643 18.619 4.566 18.721 4.511 18.794 C 4.493 18.818 4.477 18.839 4.467 18.854 C 3.997 19.522 4.246 20.038 4.336 20.223 C 4.34 20.231 4.343 20.239 4.347 20.246 C 4.533 20.582 5.462 21.324 5.479 21.333 L 6.105 23.457 C 4.064 21.281 2.629 20.993 2.629 20.993 C 2.629 20.993 2.63 20.99 2.632 20.985 C 2.694 20.819 3.66 18.239 1.274 16.832 C 1.271 16.818 1.265 16.795 1.257 16.764 C 1.124 16.256 0.412 13.536 1.562 11.498 C 1.655 11.471 4.132 12.34 4.132 12.34 L 2.422 8.553 C 2.422 8.553 2.873 7.966 3.761 7.704 C 4.462 7.498 5.36 7.688 5.36 7.688 L 5.968 11.8 C 5.968 11.8 6.094 11.636 6.278 11.401 L 6.782 14.521 C 6.629 14.613 6.533 14.674 6.526 14.682 C 6.219 15.241 7.032 16.902 7.224 17.258" transform="matrix(1 0 0 1 0 0)" fill="#FFFFFF" stroke="none" />
  <path d="M 9.67 2.447 L 9.97 2.763 C 9.855 3.159 9.8 3.569 9.8 3.989 C 9.8 4.096 9.804 4.202 9.811 4.307 L 9.164 3.627 L 8.281 3.678 L 8.232 4.606 L 17.455 14.3 L 18.387 13.32 L 13.5 8.185 C 13.613 8.194 13.726 8.2 13.841 8.2 C 14.236 8.2 14.622 8.148 14.994 8.043 L 19.228 12.493 L 20.57 11.087 L 21.714 12.289 L 19.712 14.394 L 22 16.798 L 20.856 18 L 18.568 15.596 L 16.566 17.699 L 15.423 16.497 L 16.662 15.19 L 7.043 5.08 L 7 2.239 L 9.67 2.447" transform="matrix(1 0 0 1 0 0)" fill="#FFFFFF" stroke="none" />
  <path d="M 20.18 0.8 C 20.737 0.8 21.247 0.944 21.705 1.233 C 22.164 1.517 22.527 1.903 22.793 2.386 C 23.065 2.869 23.2 3.405 23.2 3.989 C 23.2 4.431 23.121 4.848 22.964 5.24 C 22.811 5.626 22.598 5.968 22.323 6.264 L 22.322 6.265 C 22.047 6.556 21.726 6.786 21.359 6.953 C 20.993 7.118 20.598 7.2 20.18 7.2 C 19.782 7.2 19.413 7.141 19.073 7.02 L 19.07 7.019 C 18.744 6.897 18.446 6.741 18.177 6.553 L 18.174 6.551 C 17.916 6.363 17.685 6.167 17.484 5.962 L 17.482 5.959 C 17.356 5.825 17.239 5.692 17.133 5.561 L 17.131 5.559 C 17.086 5.502 17.043 5.445 17.002 5.39 L 16.867 5.561 C 16.761 5.692 16.644 5.825 16.518 5.959 L 16.516 5.962 C 16.365 6.116 16.196 6.265 16.011 6.409 L 15.819 6.552 C 15.554 6.741 15.257 6.897 14.93 7.019 L 14.928 7.019 C 14.595 7.14 14.232 7.2 13.841 7.2 C 13.277 7.2 12.761 7.056 12.299 6.766 C 11.841 6.478 11.476 6.091 11.206 5.608 C 10.934 5.122 10.8 4.581 10.8 3.989 C 10.8 3.551 10.876 3.138 11.03 2.753 L 11.031 2.752 C 11.188 2.367 11.403 2.027 11.678 1.735 L 11.679 1.734 C 11.957 1.443 12.281 1.215 12.648 1.052 C 13.021 0.884 13.419 0.8 13.841 0.8 C 14.231 0.8 14.594 0.862 14.927 0.987 C 15.255 1.106 15.553 1.262 15.819 1.459 C 16.08 1.646 16.311 1.845 16.512 2.057 L 16.697 2.248 C 16.756 2.312 16.811 2.377 16.864 2.442 C 16.911 2.499 16.956 2.556 17.001 2.611 C 17.038 2.561 17.077 2.512 17.116 2.463 C 17.215 2.338 17.339 2.203 17.487 2.058 C 17.79 1.738 18.158 1.452 18.592 1.198 C 19.052 0.931 19.584 0.8 20.18 0.8 M 13.841 2.443 C 13.569 2.443 13.325 2.514 13.104 2.653 C 12.938 2.757 12.795 2.888 12.678 3.047 L 12.568 3.215 C 12.439 3.445 12.373 3.702 12.373 3.989 C 12.373 4.285 12.44 4.55 12.57 4.787 C 12.705 5.023 12.881 5.21 13.102 5.352 L 13.272 5.441 C 13.447 5.518 13.636 5.557 13.841 5.557 C 14.147 5.557 14.422 5.483 14.671 5.338 C 14.936 5.183 15.182 4.992 15.406 4.765 C 15.555 4.606 15.686 4.455 15.797 4.31 C 15.88 4.201 15.954 4.094 16.023 3.992 C 15.954 3.897 15.881 3.796 15.801 3.69 L 15.798 3.686 C 15.696 3.544 15.567 3.394 15.408 3.236 L 15.403 3.231 C 15.191 3.006 14.949 2.817 14.679 2.663 L 14.678 2.662 C 14.425 2.517 14.147 2.443 13.841 2.443 M 20.18 2.443 C 19.969 2.443 19.773 2.478 19.591 2.546 L 19.588 2.547 C 19.401 2.613 19.226 2.706 19.064 2.825 L 19.062 2.826 C 18.894 2.946 18.739 3.081 18.597 3.231 L 18.593 3.236 C 18.503 3.326 18.422 3.413 18.349 3.499 L 18.151 3.75 C 18.083 3.847 18.022 3.926 17.975 3.991 C 18.045 4.094 18.12 4.201 18.203 4.31 C 18.314 4.455 18.444 4.607 18.593 4.765 C 18.818 4.992 19.064 5.183 19.329 5.338 C 19.581 5.483 19.863 5.557 20.18 5.557 C 20.445 5.557 20.683 5.488 20.897 5.353 C 21.118 5.211 21.294 5.023 21.426 4.786 L 21.514 4.603 C 21.589 4.414 21.627 4.21 21.627 3.989 C 21.627 3.702 21.559 3.445 21.427 3.216 L 21.426 3.214 C 21.294 2.977 21.118 2.791 20.898 2.653 L 20.895 2.651 C 20.681 2.513 20.444 2.443 20.18 2.443" transform="matrix(1 0 0 1 0 0)" fill="#FFFFFF" stroke="none" />
</svg>
