<?xml version="1.0" encoding="UTF-8"?>
<!-- Reconstructed from Amplitude.Graphics.Svg.SvgAsset and recolored from static UIMapper.Color metadata for EWShop; not original source SVG. Live UI state/material colors are not included. -->
<svg xmlns="http://www.w3.org/2000/svg" width="24" height="24" viewBox="0 0 24 24">
  <path d="M 12.078 6.973 C 11.843 6.137 11.882 4.828 12.811 3.103 C 12.918 2.905 13.228 3.016 13.209 3.24 C 13.123 4.295 13.209 5.515 13.835 5.948 C 16.564 4.859 17.452 4.767 19.483 4.556 C 19.623 4.542 19.768 4.527 19.92 4.511 C 20.001 4.502 20.032 4.608 19.958 4.644 C 18.846 5.189 17.418 5.933 16.149 6.691 C 15.945 6.806 15.785 6.961 15.667 7.141 C 15.923 7.213 16.164 7.292 16.391 7.377 C 19.786 8.649 20.797 14.008 18.478 16.765 C 18.097 17.218 17.602 17.566 17.009 17.813 C 16.953 17.836 16.959 17.692 16.995 17.642 C 18.027 16.202 18.296 14.219 17.591 12.598 C 17.13 11.537 16.097 11.548 15.563 11.951 C 15.377 13.117 14.951 13.838 14.51 14.24 C 14.188 14.534 13.929 14.993 14.072 15.402 L 14.381 16.286 C 14.473 16.55 14.406 16.844 14.2 17.035 C 10.885 20.104 7.322 20.253 5.373 19.823 C 4.906 19.719 4.62 19.273 4.667 18.804 C 4.738 18.087 4.851 17.401 5.001 16.744 C 4.42 16.23 3.771 15.024 4.08 12.872 C 4.112 12.649 4.442 12.651 4.503 12.868 C 4.719 13.647 5.073 14.47 5.578 14.807 C 5.815 14.168 6.091 13.561 6.4 12.985 C 5.775 12.398 5.106 11.112 5.356 8.89 C 5.391 8.57 5.866 8.569 5.963 8.876 C 6.299 9.947 6.862 10.995 7.68 10.993 C 7.982 10.596 8.301 10.217 8.634 9.855 C 7.864 9.062 7.053 7.102 8.164 3.78 C 8.235 3.566 8.58 3.616 8.61 3.839 C 8.833 5.503 9.55 7.704 10.812 7.869 C 11.224 7.551 11.648 7.253 12.078 6.973 M 12.543 9.546 C 7.789 11.126 6.84 16.059 6.597 18.138 C 6.57 18.367 6.766 18.557 6.995 18.513 C 8.078 18.304 9.508 17.679 8.942 16.342 C 8.131 14.425 11.489 11.676 11.763 12.038 C 12.268 12.178 12.845 12.847 11.11 14.4 C 10.691 14.988 10.149 16.098 10.576 16.749 C 10.838 17.147 11.42 17.043 11.849 16.828 L 12.099 16.702 C 12.257 16.623 12.333 16.445 12.303 16.274 C 12.121 15.222 12.611 14.423 12.904 14.137 C 14.233 12.75 14.063 11.092 13.655 10.029 C 13.487 9.592 12.992 9.397 12.543 9.546" transform="matrix(1 0 0 1 0 0)" fill="#FFFFFF" stroke="none" />
  <path d="M 23 6 L 23 18 L 12 24 L 6.46 20.979 C 7.058 21.017 7.72 21.002 8.425 20.91 L 12 22.86 L 22 17.406 L 22 6.593 L 20.228 5.626 C 20.285 5.598 20.342 5.569 20.398 5.542 L 20.495 5.489 C 20.746 5.338 20.894 5.121 20.96 4.887 L 23 6 M 18.667 3.637 C 18.09 3.701 17.568 3.769 17.023 3.878 L 12 1.139 L 8.96 2.796 C 8.819 2.721 8.673 2.674 8.54 2.655 C 8.141 2.6 7.529 2.749 7.264 3.339 L 7.216 3.463 C 7.177 3.579 7.139 3.694 7.104 3.808 L 2 6.593 L 2 17.406 L 3.713 18.341 L 3.672 18.705 C 3.645 18.975 3.676 19.247 3.757 19.504 L 1 18 L 1 6 L 12 0 L 18.667 3.637" transform="matrix(1 0 0 1 0 0)" fill="#FFFFFF" stroke="none" />
</svg>
