<?xml version="1.0" encoding="UTF-8"?>
<!-- Reconstructed from Amplitude.Graphics.Svg.SvgAsset and recolored from static UIMapper.Color metadata for EWShop; not original source SVG. Live UI state/material colors are not included. -->
<svg xmlns="http://www.w3.org/2000/svg" width="24" height="24" viewBox="0 0 24 24">
  <path d="M 14.49 1.349 L 9.511 1.349 L 9.511 5.704 L 5.156 5.704 L 5.156 10.682 L 9.511 10.682 L 9.511 15.038 L 14.49 15.038 L 14.49 10.682 L 18.845 10.682 L 18.845 5.704 L 14.49 5.704 L 14.49 1.349" transform="matrix(1 0 0 1 0 0)" fill="#FFFFFF" stroke="none" />
  <path d="M 23.28 12.377 L 21.323 12.522 L 14.315 19.53 L 13.33 18.549 L 12.491 19.388 L 13.959 20.855 L 12.282 22.532 L 13.12 23.371 L 14.798 21.694 L 16.265 23.161 L 17.104 22.323 L 16.196 21.411 L 23.248 14.359 L 23.28 12.377 M 21.781 13.433 L 15.019 20.195 L 15.502 20.678 L 22.264 13.916 L 22.34 13.381 L 21.781 13.433 M 0.721 12.378 L 2.678 12.523 L 9.686 19.53 L 10.67 18.549 L 11.509 19.388 L 10.041 20.855 L 11.719 22.533 L 10.88 23.371 L 9.203 21.694 L 7.735 23.162 L 6.897 22.323 L 7.805 21.412 L 0.752 14.359 L 0.721 12.378 M 2.219 13.433 L 8.981 20.195 L 8.499 20.678 L 1.737 13.916 L 1.66 13.381 L 2.219 13.433" transform="matrix(1 0 0 1 0 0)" fill="#FFFFFF" stroke="none" />
</svg>
