<?xml version="1.0" encoding="UTF-8"?>
<!-- Reconstructed from Amplitude.Graphics.Svg.SvgAsset and recolored from static UIMapper.Color metadata for EWShop; not original source SVG. Live UI state/material colors are not included. -->
<svg xmlns="http://www.w3.org/2000/svg" width="24" height="24" viewBox="0 0 24 24">
  <path d="M 4.772 3.331 C 5.131 4.029 5.52 4.726 7.117 4.029 C 8.212 3.551 8.509 3.062 8.099 2.176 C 8.028 2.006 7.956 1.857 7.905 1.727 C 7.628 1.06 7.526 0.821 6.717 1.169 C 6.113 1.428 5.458 1.717 5.079 1.877 C 4.998 1.907 4.936 1.937 4.875 1.966 C 4.25 2.235 4.414 2.584 4.711 3.222 C 4.731 3.262 4.742 3.292 4.762 3.331 L 4.772 3.331" transform="matrix(1 0 0 1 0 0)" fill="#FFFFFF" stroke="none" />
  <path d="M 9.297 8.204 L 14.641 10.127 L 15.859 13.734 C 14.764 13.983 13.402 14.142 11.928 13.983 C 11.396 13.933 11.17 14.411 11.672 14.601 C 12.634 14.959 13.658 15.189 14.303 15.328 C 14.784 15.428 15.06 15.488 14.927 15.527 C 10.126 16.863 8.099 14.661 7.024 13.485 C 6.881 13.325 6.758 13.196 6.646 13.086 C 6.642 13.089 6.639 13.093 6.637 13.097 C 6.633 13.107 6.629 13.117 6.625 13.126 C 6.625 13.119 6.63 13.107 6.637 13.097 C 7.112 11.908 7.484 10.526 7.301 9.3 C 7.127 10.625 6.175 13.684 3.718 15.278 C 3.892 15.946 4.434 17.57 5.253 18.766 C 9.41 24.843 14.979 20.758 14.979 20.758 C 18.099 19.235 19.717 16.168 18.563 12.792 C 18.504 12.823 18.146 13.008 17.558 13.226 L 18.562 10.227 C 19.718 13.226 20.65 18.108 17.507 20.23 C 13.023 23.249 9.082 24.256 6.083 20.918 C 3.677 18.247 2.694 15.956 2.51 15.149 C 4.097 14.342 7.065 11.353 6.246 6.709 C 5.827 6.719 4.905 6.709 4.649 5.823 C 4.414 5.006 4.731 4.717 5.018 4.567 C 5.059 4.537 5.11 4.557 5.141 4.587 C 5.479 4.906 6.359 5.085 7.403 4.627 C 8.498 4.149 8.867 3.501 8.887 3.172 C 8.898 3.112 8.928 3.053 8.99 3.053 C 9.42 3.003 9.962 3.122 10.208 3.939 C 10.464 4.826 9.921 5.314 9.614 5.444 C 10.095 5.972 10.853 6.66 11.785 7.307 L 9.297 8.204" transform="matrix(1 0 0 1 0 0)" fill="#FFFFFF" stroke="none" />
  <path d="M 14.334 9.021 L 15.409 9.369 L 15.767 10.416 L 16.617 12.946 L 17.466 10.416 L 17.814 9.369 L 18.889 9.021 L 21.5 8.194 L 18.889 7.367 L 17.814 7.028 L 17.466 5.982 L 16.617 3.441 L 15.767 5.982 L 15.409 7.028 L 14.334 7.367 L 11.733 8.194 L 14.334 9.021" transform="matrix(1 0 0 1 0 0)" fill="#FFFFFF" stroke="none" />
  <path d="M 17.548 13.225 L 16.617 16.015 L 15.849 13.734 C 14.754 13.983 13.392 14.142 11.918 13.983 C 11.386 13.923 11.16 14.401 11.662 14.6 C 12.624 14.959 13.648 15.188 14.293 15.328 C 14.774 15.437 15.05 15.497 14.917 15.527 C 10.116 16.862 8.089 14.66 7.014 13.484 C 6.871 13.335 6.748 13.195 6.636 13.086 C 6.636 13.096 6.625 13.116 6.615 13.126 C 6.554 13.285 6.482 13.455 6.41 13.604 C 6.369 13.684 6.339 13.763 6.298 13.833 C 6.257 13.923 6.216 14.003 6.175 14.082 C 6.134 14.162 6.093 14.242 6.062 14.311 C 6.032 14.381 5.991 14.451 5.96 14.511 C 5.919 14.59 5.878 14.66 5.837 14.74 C 5.806 14.79 5.776 14.849 5.755 14.899 C 5.714 14.969 5.673 15.039 5.643 15.109 C 5.622 15.148 5.602 15.178 5.581 15.218 C 5.54 15.288 5.51 15.348 5.469 15.407 C 5.469 15.427 5.448 15.437 5.438 15.457 C 5.315 15.657 5.233 15.786 5.233 15.786 C 5.233 15.786 5.1 17.57 5.182 18.456 C 5.192 18.586 5.213 18.695 5.233 18.775 C 9.389 24.843 14.958 20.768 14.958 20.768 C 16.944 18.347 18.081 15.906 18.541 12.797 C 18.541 12.797 18.173 12.996 17.528 13.235 L 17.548 13.225" transform="matrix(1 0 0 1 0 0)" fill="#FFFFFF" stroke="none" />
</svg>
