<?xml version="1.0" encoding="UTF-8"?>
<!-- Reconstructed from Amplitude.Graphics.Svg.SvgAsset and recolored from static UIMapper.Color metadata for EWShop; not original source SVG. Live UI state/material colors are not included. -->
<svg xmlns="http://www.w3.org/2000/svg" width="24" height="24" viewBox="0 0 24 24">
  <path d="M 13.17 19.345 L 12.156 18.753 L 19.109 6.653 C 19.138 6.595 19.148 6.517 19.138 6.469 L 18.544 4.122 C 18.505 3.977 18.349 3.88 18.202 3.938 L 15.94 4.714 C 15.881 4.733 15.803 4.83 15.803 4.83 L 8.899 16.853 L 7.748 16.194 C 7.436 16.009 7.046 16.116 6.871 16.436 L 6.685 16.775 C 6.5 17.076 6.607 17.483 6.929 17.658 L 8.909 18.802 L 7.563 21.148 C 7.378 21.449 7.485 21.856 7.807 22.031 L 8.138 22.225 C 8.45 22.409 8.841 22.302 9.016 21.982 L 10.362 19.636 L 12.341 20.78 C 12.654 20.964 13.044 20.857 13.219 20.537 L 13.404 20.198 C 13.59 19.898 13.482 19.49 13.161 19.316 L 13.17 19.345" transform="matrix(1 0 0 1 0 0)" fill="#FFFFFF" stroke="none" />
  <path d="M 5.135 8.456 C 4.852 8.456 4.579 8.359 4.345 8.194 L 3.146 7.331 L 4.248 6.527 C 4.54 6.323 4.872 6.207 5.233 6.207 L 8.012 6.207 C 8.363 6.207 8.714 6.323 8.997 6.527 L 10.099 7.331 L 8.899 8.194 C 8.665 8.359 8.392 8.446 8.109 8.446 C 7.924 8.446 7.768 8.592 7.768 8.776 L 7.768 13.294 C 7.768 13.585 8.061 13.779 8.324 13.682 L 9.562 13.227 L 11.659 9.591 C 11.64 9.406 11.63 9.203 11.63 9.009 L 11.63 5.848 C 11.659 2.6 8.051 1.456 6.764 1.039 L 6.637 1 L 6.51 1.039 L 6.5 1.039 C 5.203 1.456 1.615 2.61 1.615 5.848 L 1.615 9.009 C 1.615 10.153 1.264 11.2 1.03 11.753 C 0.942 11.986 1.049 12.257 1.273 12.335 L 4.911 13.692 C 5.184 13.789 5.476 13.595 5.476 13.304 L 5.476 8.786 C 5.476 8.602 5.33 8.456 5.135 8.456" transform="matrix(1 0 0 1 0 0)" fill="#FFFFFF" stroke="none" />
  <path d="M 22.922 18.181 L 22.922 18.162 L 20.485 17.57 C 19.763 17.396 19.207 16.833 19.022 16.116 L 18.417 13.672 C 18.388 13.575 18.251 13.575 18.222 13.672 L 17.627 16.106 C 17.452 16.833 16.886 17.396 16.164 17.57 L 13.746 18.162 C 13.649 18.191 13.649 18.326 13.746 18.355 L 16.194 18.995 C 16.906 19.18 17.452 19.742 17.627 20.46 L 18.232 22.922 C 18.261 23.019 18.398 23.019 18.427 22.922 L 19.041 20.46 C 19.217 19.752 19.773 19.189 20.475 19.015 L 22.922 18.375 C 23.02 18.346 23.02 18.2 22.922 18.181" transform="matrix(1 0 0 1 0 0)" fill="#FFFFFF" stroke="none" />
</svg>
