<?xml version="1.0" encoding="UTF-8"?>
<!-- Reconstructed from Amplitude.Graphics.Svg.SvgAsset and recolored from static UIMapper.Color metadata for EWShop; not original source SVG. Live UI state/material colors are not included. -->
<svg xmlns="http://www.w3.org/2000/svg" width="24" height="24" viewBox="0 0 24 24">
  <path d="M 15.855 1 C 16.11 3.094 17.76 4.744 19.855 5 C 17.76 5.256 16.11 6.906 15.855 9 C 15.599 6.906 13.949 5.256 11.855 5 C 13.949 4.744 15.599 3.094 15.855 1" transform="matrix(1 0 0 1 0 0)" fill="#FFFFFF" stroke="none" />
  <path d="M 5 15 C 5.192 16.571 6.429 17.808 8 18 C 6.429 18.192 5.192 19.429 5 21 C 4.808 19.429 3.571 18.192 2 18 C 3.571 17.808 4.808 16.571 5 15" transform="matrix(1 0 0 1 0 0)" fill="#FFFFFF" stroke="none" />
  <path d="M 17.077 11.222 C 17.447 14.247 19.83 16.631 22.855 17.001 C 19.83 17.37 17.447 19.753 17.077 22.778 C 16.708 19.753 14.324 17.37 11.299 17.001 C 14.324 16.631 16.708 14.247 17.077 11.222" transform="matrix(1 0 0 1 0 0)" fill="#FFFFFF" stroke="none" />
  <path d="M 4.165 1.147 C 4.712 0.831 5.403 1.043 5.681 1.611 L 6.189 2.653 C 6.27 2.82 6.392 2.963 6.543 3.069 L 8.641 4.541 C 8.749 4.616 8.842 4.711 8.916 4.821 L 10.522 7.189 L 11.858 9.335 L 12.62 10.504 L 13.877 12.523 C 13.929 12.606 13.963 12.699 13.976 12.797 C 14.048 13.331 13.517 13.747 13.03 13.537 L 13.005 13.526 C 12.871 13.468 12.759 13.368 12.684 13.241 L 12.295 12.579 C 12.25 12.501 12.194 12.43 12.131 12.366 L 10.821 11.032 C 10.738 10.948 10.669 10.85 10.617 10.744 L 10.101 9.685 C 10.019 9.517 9.799 9.482 9.667 9.616 C 9.594 9.69 9.568 9.799 9.6 9.898 L 9.705 10.224 C 9.832 10.617 9.656 11.048 9.29 11.235 L 8.755 11.508 C 8.55 11.613 8.302 11.531 8.201 11.324 C 8.095 11.105 7.827 11.027 7.62 11.154 L 7.364 11.31 C 7.162 11.434 6.912 11.445 6.702 11.339 L 6.628 11.301 C 6.405 11.189 6.141 11.19 5.916 11.305 C 5.66 11.437 5.355 11.418 5.118 11.258 L 3.444 10.128 C 3.286 10.021 3.158 9.874 3.073 9.701 L 2.821 9.184 L 1.673 7 C 1.554 6.772 1.516 6.508 1.568 6.253 L 1.621 5.986 C 1.663 5.779 1.646 5.564 1.572 5.368 L 1.071 4.026 C 0.879 3.512 1.087 2.928 1.561 2.654 L 4.165 1.147" transform="matrix(1 0 0 1 0 0)" fill="#FFFFFF" stroke="none" />
</svg>
