<?xml version="1.0" encoding="UTF-8"?>
<!-- Reconstructed from Amplitude.Graphics.Svg.SvgAsset and recolored from static UIMapper.Color metadata for EWShop; not original source SVG. Live UI state/material colors are not included. -->
<svg xmlns="http://www.w3.org/2000/svg" width="24" height="24" viewBox="0 0 24 24">
  <path d="M 17.063 8.072 C 18.419 8.005 19.753 7.735 21.022 7.271 L 21.022 19.14 C 19.741 19.704 18.366 20.029 16.965 20.098 L 14.903 20.199 L 14.903 8.178 L 17.063 8.072" transform="matrix(1 0 0 1 0 0)" fill="#FFFFFF" stroke="none" />
  <path d="M 16.313 5.622 L 12.5 5.81 L 12.5 23 L 16.313 22.813 C 18.451 22.708 20.542 22.155 22.452 21.191 L 22.452 4 C 20.542 4.964 18.451 5.517 16.313 5.622 M 22.022 5.75 C 21.695 5.915 21.362 6.066 21.022 6.201 C 19.746 6.71 18.392 7.006 17.014 7.073 L 13.903 7.226 L 13.903 21.25 L 17.014 21.097 C 18.758 21.011 20.464 20.56 22.022 19.774 L 22.022 5.75" transform="matrix(1 0 0 1 0 0)" fill="#FFFFFF" stroke="none" />
  <path d="M 0 6 L 5 0 L 10 6 L 7 6 L 7 10 L 3 10 L 3 6 L 0 6" transform="matrix(1 0 0 1 0 0)" fill="#FFFFFF" stroke="none" />
  <path d="M 12.784 19.163 L 13.909 21.697 L 13.909 6.762 C 13.909 6.762 14.505 3.388 12.645 3.043 C 10.343 2.617 10.359 5.44 10.943 6.757 C 8.293 7.051 8.064 8.582 7.818 10.225 C 7.735 10.782 7.65 11.352 7.467 11.891 C 7.318 12.33 7.051 12.708 6.789 13.08 C 6.583 13.371 6.381 13.657 6.239 13.967 C 5.961 14.577 5.128 17.237 5.025 17.871 C 4.902 18.636 5.25 18.897 5.801 19.308 C 5.856 19.349 5.913 19.391 5.972 19.436 C 6.158 19.465 6.89 18.832 6.964 18.688 C 7.149 18.335 7.029 18.096 6.912 17.862 C 6.829 17.695 6.746 17.53 6.778 17.328 C 6.836 16.964 7.112 16.542 7.406 16.093 C 7.802 15.488 8.23 14.833 8.201 14.204 L 9.249 12.197 C 9.432 12.671 9.456 13.129 9.417 13.629 C 9.329 14.762 9.027 15.961 8.728 17.146 C 8.456 18.227 8.187 19.297 8.086 20.294 C 8.082 20.33 8.077 20.371 8.072 20.415 C 8.033 20.761 7.972 21.296 8.231 21.487 C 8.523 21.701 10.621 22.156 10.955 21.946 L 11.895 19.134 L 12.784 19.163" transform="matrix(1 0 0 1 0 0)" fill="#FFFFFF" stroke="none" />
</svg>
