<?xml version="1.0" encoding="UTF-8"?>
<!-- Reconstructed from Amplitude.Graphics.Svg.SvgAsset and recolored from static UIMapper.Color metadata for EWShop; not original source SVG. Live UI state/material colors are not included. -->
<svg xmlns="http://www.w3.org/2000/svg" width="24" height="24" viewBox="0 0 24 24">
  <path d="M 11.5 4.181 C 11.783 3.94 12.217 3.94 12.501 4.181 C 14.058 5.509 15.902 6.512 17.91 7.122 L 18.406 7.274 C 18.76 7.381 19 7.689 19 8.035 L 19 13.319 C 19 15.213 18.026 16.993 16.38 18.107 L 12.187 20.944 C 12.075 21.019 11.925 21.019 11.813 20.944 L 7.62 18.107 C 5.974 16.993 5 15.213 5 13.319 L 5 8.035 C 5 7.689 5.24 7.381 5.594 7.274 L 6.09 7.122 C 8.098 6.512 9.942 5.509 11.5 4.181 M 7.996 16.977 C 8.1 17.059 8.208 17.138 8.319 17.213 L 11.588 19.425 C 11.834 19.591 12.166 19.591 12.412 19.425 L 15.632 17.247 L 14.982 16.643 L 12 18.661 L 8.853 16.531 C 8.78 16.482 8.709 16.431 8.64 16.378 L 7.996 16.977 M 12.75 6.852 C 13.86 7.669 15.119 8.297 16.468 8.708 L 16.854 8.825 C 16.943 8.853 17.005 8.931 17.005 9.018 L 17.005 13.139 C 17.005 14.055 16.683 14.934 16.107 15.651 L 16.754 16.252 C 17.495 15.374 17.912 14.281 17.912 13.139 L 17.912 9.018 C 17.912 8.566 17.598 8.165 17.136 8.024 L 16.75 7.907 C 15.268 7.456 13.905 6.72 12.75 5.747 L 12.75 6.852 M 11.201 5.789 C 10.056 6.741 8.712 7.462 7.252 7.907 L 6.865 8.024 C 6.402 8.165 6.089 8.566 6.089 9.018 L 6.089 13.139 C 6.089 14.13 6.403 15.084 6.97 15.892 L 7.627 15.281 C 7.219 14.642 6.996 13.903 6.996 13.139 L 6.996 9.018 C 6.996 8.931 7.057 8.853 7.146 8.825 L 7.533 8.708 C 8.862 8.303 10.103 7.687 11.201 6.888 L 11.201 5.789" transform="matrix(1 0 0 1 0 0)" fill="#FFFFFF" stroke="none" />
  <path d="M 16.662 17.905 L 16.38 18.107 C 16.482 18.039 16.58 17.966 16.677 17.893 C 16.672 17.897 16.667 17.901 16.662 17.905" transform="matrix(1 0 0 1 0 0)" fill="#FFFFFF" stroke="none" />
  <path d="M 16.287 15.409 L 16.107 15.65 C 16.177 15.564 16.241 15.474 16.303 15.383 C 16.297 15.391 16.293 15.401 16.287 15.409" transform="matrix(1 0 0 1 0 0)" fill="#FFFFFF" stroke="none" />
  <path d="M 7.035 13.688 C 7.034 13.682 7.033 13.677 7.032 13.671 L 7.007 13.424 C 7.013 13.512 7.023 13.6 7.035 13.688" transform="matrix(1 0 0 1 0 0)" fill="#FFFFFF" stroke="none" />
  <path d="M 17.893 13.565 C 17.891 13.588 17.886 13.611 17.884 13.634 C 17.887 13.606 17.891 13.579 17.894 13.551 L 17.893 13.565" transform="matrix(1 0 0 1 0 0)" fill="#FFFFFF" stroke="none" />
  <path d="M 15.117 5.963 C 15.09 5.949 15.063 5.935 15.036 5.921 L 14.699 5.731 C 14.837 5.811 14.977 5.888 15.117 5.963" transform="matrix(1 0 0 1 0 0)" fill="#FFFFFF" stroke="none" />
  <path d="M 8.964 5.92 C 8.943 5.931 8.921 5.94 8.9 5.951 C 9.035 5.879 9.169 5.808 9.301 5.731 L 8.964 5.92" transform="matrix(1 0 0 1 0 0)" fill="#FFFFFF" stroke="none" />
  <path d="M 12.389 4.102 L 12.401 4.11 C 12.389 4.103 12.376 4.097 12.363 4.09 C 12.372 4.094 12.381 4.097 12.389 4.102" transform="matrix(1 0 0 1 0 0)" fill="#FFFFFF" stroke="none" />
  <path d="M 19.078 5.473 C 19.623 5.654 20.114 5.953 20.47 6.418 C 20.846 6.91 21 7.495 21 8.1 L 21 8.889 L 23 10 L 21 11 L 21 13.4 C 21 14.038 20.933 14.644 20.804 15.219 L 23 16.5 L 20.26 16.773 C 19.961 17.384 19.571 17.945 19.095 18.46 L 22.5 23 L 17.191 20.014 L 15.219 21.376 L 15.5 22.5 L 14.78 21.678 L 13.269 22.723 L 13.268 22.722 C 12.907 22.976 12.48 23.15 12 23.15 C 11.52 23.15 11.092 22.977 10.731 22.722 L 9.479 21.858 L 9 22.5 L 9 21.526 L 6.532 19.823 C 6.408 19.742 6.287 19.657 6.169 19.572 L 3.5 22 L 5.145 18.709 C 4.277 17.85 3.665 16.849 3.324 15.71 L 1 15.5 L 3.034 14.143 C 3.014 13.9 3 13.653 3 13.4 L 3 11.563 L 1.5 11 L 3 10.666 L 3 8.1 C 3 7.7 3.069 7.308 3.224 6.946 L 1 4.5 L 4.768 5.526 C 4.846 5.496 4.925 5.469 5.006 5.444 L 5.055 5.43 L 5.104 5.419 L 5.542 5.331 C 5.833 5.236 6.119 5.132 6.401 5.02 L 6 1 L 8.635 3.898 C 9.198 3.55 9.74 3.161 10.263 2.729 C 10.742 2.305 11.325 2 12 2 C 12.34 2 12.657 2.077 12.949 2.208 L 13.5 1 L 13.916 2.874 L 14.008 2.948 C 14.639 3.445 15.299 3.881 15.987 4.26 L 20.5 0.5 L 19.078 5.473 M 13.1 3.5 C 12.366 2.834 11.634 2.834 10.9 3.5 C 9.367 4.767 7.666 5.7 5.8 6.3 L 5.3 6.4 L 5.143 6.453 C 4.739 6.604 4.443 6.83 4.253 7.129 C 4.174 7.26 4.111 7.402 4.068 7.553 C 4.023 7.719 4 7.902 4 8.1 L 4 13.4 L 4.002 13.497 L 4.005 13.496 C 4.027 14.303 4.197 15.087 4.498 15.817 L 4.412 15.81 C 4.681 16.529 5.083 17.18 5.617 17.763 L 5.655 17.688 C 6.033 18.123 6.468 18.518 6.954 18.859 L 6.928 18.883 C 6.985 18.922 7.041 18.962 7.1 19 L 9 20.312 L 9 20.247 L 10.12 21.005 L 10.08 21.058 L 11.3 21.9 C 11.766 22.234 12.234 22.234 12.7 21.9 L 14.118 20.921 L 14.075 20.872 L 14.945 20.283 L 14.959 20.34 L 16.222 19.468 L 16.183 19.446 L 16.94 18.936 C 17.509 18.55 18.011 18.092 18.436 17.581 L 18.485 17.648 C 18.695 17.408 18.881 17.157 19.047 16.895 L 18.931 16.906 C 19.373 16.221 19.688 15.464 19.856 14.666 L 19.891 14.686 C 19.938 14.413 19.972 14.133 19.988 13.844 L 20 13.4 L 20 8.1 C 20 7.287 19.619 6.738 18.857 6.453 L 18.7 6.4 L 18.2 6.3 C 16.334 5.7 14.633 4.767 13.1 3.5" transform="matrix(1 0 0 1 0 0)" fill="#FFFFFF" stroke="none" />
</svg>
