<?xml version="1.0" encoding="UTF-8"?>
<!-- Reconstructed from Amplitude.Graphics.Svg.SvgAsset and recolored from static UIMapper.Color metadata for EWShop; not original source SVG. Live UI state/material colors are not included. -->
<svg xmlns="http://www.w3.org/2000/svg" width="25" height="24" viewBox="0 0 25 24">
  <path d="M 19.346 13.406 C 20.145 12.94 20.681 12.086 20.681 11.108 C 20.681 9.634 19.462 8.438 17.96 8.438 C 16.457 8.438 15.239 9.634 15.239 11.108 C 15.239 12.085 15.773 12.939 16.571 13.404 C 15.506 13.661 14.59 14.188 13.876 14.777 C 13.095 15.42 12.795 16.429 12.795 17.429 L 12.795 23 C 12.941 23 13.503 22.972 14.601 22.769 C 16.676 22.331 18.74 21.365 20.553 19.757 C 22.366 18.149 23.247 16.369 23.247 16.369 C 23.014 15.682 22.601 15.069 21.989 14.64 C 21.072 13.996 20.185 13.605 19.346 13.406" transform="matrix(1 0 0 1 0 0)" fill="#FFFFFF" stroke="none" />
  <path d="M 11.358 16.938 C 11.339 17.138 11.331 17.335 11.331 17.526 L 11.331 18.707 C 10.966 18.996 10.731 19.453 10.731 19.969 C 10.731 20.482 10.968 20.936 11.331 21.224 L 11.331 23 C 8.844 22.548 7.366 20.956 6.554 19.663 C 5.912 18.631 6.263 17.345 7.146 16.523 L 11.022 12.919 L 8.542 10.569 L 5.138 14.225 C 4.556 14.847 4.406 15.775 4.747 16.565 L 5.079 17.334 L 3.804 16.185 C 2.91 15.384 2.86 13.961 3.693 13.097 L 7.257 9.367 L 2.578 4.941 C 1.896 4.298 2.338 3.108 3.262 3.108 L 8.723 3.108 L 8.081 1.758 C 7.91 1.411 8.161 1 8.533 1 L 15.982 1 C 16.353 1 16.603 1.411 16.433 1.758 L 15.791 3.108 L 21.242 3.108 C 22.155 3.108 22.598 4.298 21.916 4.941 L 19.492 7.234 C 19.033 7.066 18.538 6.974 18.023 6.973 C 17.798 6.973 17.576 6.992 17.359 7.026 L 18.31 6.142 C 18.662 5.826 18.441 5.226 17.979 5.226 L 14.767 5.226 L 14.606 5.552 C 14.406 5.974 14.496 6.49 14.837 6.806 L 14.837 6.817 L 15.728 7.643 C 15.264 7.94 14.86 8.323 14.544 8.772 L 12.959 7.281 C 12.648 6.996 12.548 6.532 12.689 6.132 L 13.672 3.392 C 13.793 3.044 13.552 2.676 13.2 2.676 L 11.353 2.676 C 11.012 2.676 10.762 3.034 10.882 3.381 L 11.836 6.185 C 11.956 6.564 11.875 6.986 11.604 7.27 L 9.656 9.367 L 12.247 11.77 L 13.889 10.246 C 13.822 10.542 13.786 10.85 13.786 11.168 C 13.786 11.621 13.859 12.055 13.993 12.462 C 12.289 14.081 10.739 15.534 8.893 17.281 C 8.161 17.966 7.779 19.01 8.211 19.937 C 8.562 20.685 9.145 21.549 10.129 22.202 C 9.577 21.623 9.235 20.832 9.235 19.958 C 9.235 18.537 10.129 17.338 11.358 16.938 M 6.514 5.215 C 6.052 5.215 5.832 5.805 6.183 6.132 L 8.391 8.187 L 9.717 6.806 C 10.028 6.49 10.098 5.995 9.907 5.594 L 9.727 5.215 L 6.514 5.215" transform="matrix(1 0 0 1 0 0)" fill="#FFFFFF" stroke="none" />
</svg>
