<?xml version="1.0" encoding="UTF-8"?>
<!-- Reconstructed from Amplitude.Graphics.Svg.SvgAsset and recolored from static UIMapper.Color metadata for EWShop; not original source SVG. Live UI state/material colors are not included. -->
<svg xmlns="http://www.w3.org/2000/svg" width="24" height="24" viewBox="0 0 24 24">
  <path d="M 14.373 7.348 L 13.083 10.822 L 13.397 7.315 L 16.556 0.581 L 14.737 8.142 L 14.373 7.348" transform="matrix(1 0 0 1 0 0)" fill="#FFFFFF" stroke="none" />
  <path d="M 18.601 6.926 L 15.262 12.05 L 19.009 8.018 L 18.951 9.429 L 22.688 2.399 L 20.143 5.179 L 17.117 7.262 L 18.601 6.926" transform="matrix(1 0 0 1 0 0)" fill="#FFFFFF" stroke="none" />
  <path d="M 9.627 7.348 L 10.917 10.822 L 10.603 7.315 L 7.444 0.581 L 9.263 8.142 L 9.627 7.348" transform="matrix(1 0 0 1 0 0)" fill="#FFFFFF" stroke="none" />
  <path d="M 5.399 6.926 L 8.738 12.05 L 4.991 8.018 L 5.049 9.429 L 1.312 2.399 L 3.857 5.179 L 6.883 7.262 L 5.399 6.926" transform="matrix(1 0 0 1 0 0)" fill="#FFFFFF" stroke="none" />
  <path d="M 5.365 15.383 L 6.453 15.091 L 6.457 15.082 L 7.411 13.959 L 7.288 12.715 C 7.271 12.703 7.254 12.691 7.236 12.678 C 7.221 12.667 7.205 12.656 7.19 12.645 C 7.001 12.505 6.799 12.357 6.632 12.298 C 6.538 12.267 6.416 12.447 6.416 12.447 L 6.093 13.153 L 5.513 10.545 L 4.897 13.135 L 4.56 12.487 C 4.56 12.487 4.474 12.262 4.384 12.285 C 4.302 12.307 4.127 12.429 3.953 12.551 L 3.935 12.564 L 3.884 12.599 C 3.715 12.716 3.566 12.819 3.525 12.807 L 2.401 11.561 L 2.707 13.067 C 2.707 13.139 2.496 13.404 2.334 13.607 C 2.262 13.697 2.204 13.773 2.172 13.818 C 2.146 13.856 2.114 13.916 2.078 13.983 C 2.068 14.004 2.057 14.025 2.046 14.046 L 2.019 14.097 C 1.943 14.25 1.862 14.412 1.812 14.452 C 1.647 14.591 1.268 14.663 0.915 14.73 L 0.909 14.731 L 0.867 14.739 C 0.653 14.781 0.455 14.82 0.324 14.87 L 0.333 14.875 C 0.324 14.996 0.333 14.996 0.36 14.996 C 0.369 14.996 0.383 14.996 0.401 15.005 C 0.567 15.095 0.742 15.171 0.917 15.248 L 0.975 15.273 C 1.101 15.328 1.228 15.383 1.349 15.446 C 1.444 15.495 1.597 15.585 1.758 15.688 C 1.844 15.742 1.947 15.801 2.051 15.859 L 2.051 18.058 C 2.051 18.188 2.105 18.314 2.204 18.404 L 3.773 19.816 C 3.773 19.816 4.636 20.436 5.495 20.436 C 5.811 20.436 6.128 20.352 6.403 20.246 L 6.63 19.089 L 6.63 19.076 C 6.598 18.88 6.484 18.49 6.066 18.265 C 6.066 18.575 5.49 19.195 5.49 19.195 C 5.49 19.195 4.915 18.575 4.915 18.265 C 4.339 18.575 4.339 19.195 4.339 19.195 C 3.764 19.195 4.051 18.265 4.051 18.265 C 3.606 18.422 3.296 18.606 3.076 18.786 L 3.071 18.782 L 3.071 17.019 L 3.076 17.019 C 3.076 17.019 3.08 16.983 3.098 16.92 C 3.103 16.901 3.11 16.877 3.12 16.848 C 3.131 16.815 3.147 16.777 3.166 16.736 C 3.287 17.055 3.552 17.379 4.047 17.644 C 4.047 17.644 3.784 17.033 3.952 16.469 L 3.382 16.185 L 5.365 15.383 M 9.053 15.248 C 8.899 15.329 8.864 15.573 8.924 16.032 L 8.939 15.948 L 8.939 16.13 C 9.014 16.557 9.217 16.966 9.607 17.062 L 9.965 17.062 C 10.266 17.021 10.6 16.877 10.462 16.542 L 9.562 15.483 L 9.053 15.248 M 3.575 13.917 L 4.569 15.086 L 4.564 15.091 C 4.721 15.477 4.074 15.54 3.894 15.495 C 3.179 15.32 3.269 13.787 3.575 13.917 M 17.552 15.09 L 18.644 15.383 L 20.627 16.185 L 20.052 16.471 C 20.218 17.034 19.956 17.643 19.956 17.643 C 20.45 17.378 20.715 17.054 20.837 16.735 C 20.873 16.812 20.895 16.879 20.904 16.919 C 20.922 16.982 20.927 17.018 20.927 17.018 L 20.931 17.018 L 20.931 18.779 L 20.927 18.784 C 20.706 18.604 20.396 18.42 19.952 18.263 C 19.952 18.263 20.239 19.192 19.664 19.192 C 19.664 19.192 19.664 18.573 19.089 18.263 C 19.089 18.573 18.514 19.192 18.514 19.192 C 18.514 19.192 17.939 18.573 17.939 18.263 C 17.364 18.573 17.364 19.192 17.364 19.192 C 17.241 19.192 17.158 19.15 17.102 19.083 L 16.958 19.083 L 17.034 19.967 C 17.35 20.15 17.931 20.432 18.51 20.432 C 19.368 20.432 20.23 19.812 20.23 19.812 L 21.798 18.402 C 21.897 18.312 21.951 18.186 21.951 18.056 L 21.951 15.859 C 22.054 15.801 22.157 15.742 22.243 15.689 C 22.349 15.621 22.45 15.559 22.535 15.511 C 22.579 15.485 22.619 15.463 22.652 15.446 C 22.723 15.409 22.797 15.375 22.871 15.341 C 22.922 15.318 22.974 15.296 23.026 15.273 L 23.083 15.248 C 23.258 15.172 23.433 15.096 23.599 15.006 C 23.617 14.997 23.631 14.997 23.64 14.997 C 23.653 14.997 23.662 14.997 23.666 14.983 C 23.671 14.969 23.671 14.938 23.667 14.875 L 23.676 14.871 C 23.545 14.82 23.347 14.782 23.134 14.74 L 23.092 14.732 L 23.086 14.731 C 22.733 14.663 22.354 14.592 22.189 14.453 C 22.139 14.413 22.059 14.251 21.982 14.098 L 21.956 14.047 C 21.908 13.954 21.864 13.869 21.83 13.82 C 21.798 13.775 21.74 13.698 21.668 13.609 C 21.506 13.406 21.295 13.141 21.295 13.07 L 21.6 11.565 L 20.477 12.809 C 20.436 12.821 20.288 12.718 20.119 12.602 L 20.069 12.566 L 20.05 12.554 C 19.877 12.432 19.702 12.31 19.619 12.288 C 19.529 12.265 19.444 12.49 19.444 12.49 L 19.107 13.137 L 18.492 10.549 L 17.912 13.155 L 17.589 12.45 C 17.589 12.45 17.468 12.27 17.373 12.301 C 17.227 12.353 17.052 12.474 16.883 12.598 L 16.602 13.969 L 17.548 15.082 L 17.552 15.09 M 16.389 14.066 L 16.39 14.062 L 16.384 14.062 L 16.389 14.066 M 13.999 15.284 L 13.971 15.273 L 12.887 16.548 L 12.893 16.553 C 12.691 17.05 13.522 17.131 13.753 17.073 C 14.353 16.926 14.512 16.035 14.44 15.481 L 14.431 15.477 C 14.322 15.419 14.204 15.37 14.085 15.32 L 13.999 15.284 M 19.435 15.087 L 20.428 13.919 C 20.733 13.788 20.823 15.32 20.109 15.495 C 19.929 15.54 19.282 15.477 19.44 15.091 L 19.435 15.087 M 17.642 16.102 C 17.916 16.156 18.17 16.205 18.338 16.27 L 18.327 16.276 C 18.338 16.432 18.327 16.432 18.292 16.432 C 18.28 16.432 18.263 16.432 18.24 16.444 C 18.026 16.559 17.801 16.657 17.576 16.755 L 17.503 16.787 L 17.502 16.788 C 17.34 16.858 17.177 16.93 17.022 17.01 C 16.9 17.073 16.704 17.189 16.496 17.321 C 16.386 17.391 16.254 17.466 16.121 17.541 L 16.121 20.365 C 16.121 20.532 16.052 20.694 15.924 20.809 L 13.909 22.622 C 13.909 22.622 12.8 23.419 11.698 23.419 C 10.595 23.419 9.486 22.622 9.486 22.622 L 7.471 20.809 C 7.344 20.699 7.274 20.538 7.274 20.365 L 7.274 17.362 L 6.454 17.05 C 6.314 16.975 6.162 16.912 6.009 16.847 L 6.005 16.846 L 5.989 16.839 C 5.959 16.827 5.93 16.814 5.9 16.802 C 5.64 16.698 5.374 16.588 5.149 16.444 C 5.126 16.426 5.097 16.426 5.097 16.426 L 5.095 16.426 C 5.081 16.423 5.07 16.421 5.065 16.4 C 5.06 16.38 5.06 16.342 5.068 16.27 L 6.974 15.728 C 7.286 15.092 7.667 14.532 8.106 14.059 L 7.73 12.015 L 9.209 13.631 L 9.225 13.62 C 9.279 13.583 9.337 13.543 9.398 13.5 C 9.439 13.472 9.48 13.442 9.521 13.412 C 9.763 13.233 10.023 13.042 10.237 12.967 C 10.358 12.927 10.514 13.158 10.514 13.158 L 10.93 14.065 L 11.674 10.715 L 12.466 14.041 L 12.899 13.21 C 12.899 13.21 13.008 12.921 13.124 12.95 C 13.23 12.978 13.455 13.135 13.678 13.292 L 13.701 13.308 L 13.766 13.353 C 13.983 13.503 14.174 13.636 14.227 13.62 L 15.67 12.02 L 15.278 13.955 C 15.278 14.047 15.549 14.388 15.757 14.648 C 15.849 14.763 15.924 14.861 15.965 14.919 C 16.009 14.983 16.065 15.092 16.127 15.212 L 16.161 15.277 C 16.223 15.401 16.287 15.529 16.342 15.62 C 16.374 15.673 16.403 15.714 16.427 15.733 C 16.639 15.911 17.126 16.004 17.58 16.09 L 17.588 16.091 L 17.642 16.102 M 13.551 20.63 C 14.123 20.832 14.521 21.069 14.804 21.3 L 14.81 21.294 L 14.81 19.031 L 14.804 19.031 C 14.804 19.031 14.802 19.012 14.795 18.979 C 14.79 18.959 14.784 18.934 14.775 18.904 C 14.764 18.852 14.735 18.765 14.689 18.667 C 14.533 19.077 14.192 19.493 13.557 19.833 C 13.557 19.833 14.169 18.407 13.216 17.627 L 12.448 19.036 C 12.448 18.638 11.709 17.841 11.709 17.841 C 11.709 17.841 10.97 18.638 10.97 19.036 L 10.202 17.627 C 9.243 18.407 9.861 19.833 9.861 19.833 C 9.226 19.487 8.885 19.071 8.729 18.667 C 8.626 18.886 8.602 19.036 8.602 19.036 L 8.602 21.029 C 8.891 20.861 9.295 20.717 9.855 20.63 C 9.855 20.63 9.486 21.825 10.225 21.825 C 10.225 21.825 10.225 21.029 10.964 20.63 C 10.964 21.029 11.703 21.825 11.703 21.825 C 11.703 21.825 12.442 21.029 12.442 20.63 C 13.182 21.029 13.182 21.825 13.182 21.825 C 13.921 21.825 13.551 20.63 13.551 20.63" transform="matrix(1 0 0 1 0 0)" fill="#FFFFFF" stroke="none" />
</svg>
