<?xml version="1.0" encoding="UTF-8"?>
<!-- Reconstructed from Amplitude.Graphics.Svg.SvgAsset and recolored from static UIMapper.Color metadata for EWShop; not original source SVG. Live UI state/material colors are not included. -->
<svg xmlns="http://www.w3.org/2000/svg" width="24" height="24" viewBox="0 0 24 24">
  <path d="M 17 1 C 13.67 1 11 3.67 11 7 C 11 10.33 13.67 13 17 13 C 20.33 13 23 10.33 23 7 C 23 3.67 20.33 1 17 1 M 17 11 C 14.78 11 13 9.22 13 7 C 13 4.78 14.78 3 17 3 C 19.22 3 21 4.78 21 7 C 21 9.22 19.22 11 17 11" transform="matrix(1 0 0 1 0 0)" fill="#FFFFFF" stroke="none" />
  <path d="M 15.71 17.57 L 15.72 17.57 L 14.58 16.43 L 13.24 17.77 L 3.67 8.2 L 1 8 L 1.04 10.7 L 10.67 20.33 L 9.43 21.57 L 10.57 22.71 L 12.57 20.71 L 14.86 23 L 16 21.86 L 13.71 19.57 L 15.71 17.57 M 11.62 19.34 L 2.39 10.1 L 2.29 9.37 L 3.05 9.44 L 12.28 18.68 L 11.62 19.34" transform="matrix(1 0 0 1 0 0)" fill="#FFFFFF" stroke="none" />
  <path d="M 17 9.57 C 18.419 9.57 19.57 8.42 19.57 7 C 19.57 5.581 18.419 4.43 17 4.43 C 15.58 4.43 14.43 5.581 14.43 7 C 14.43 8.42 15.58 9.57 17 9.57" transform="matrix(1 0 0 1 0 0)" fill="#FFFFFF" stroke="none" />
</svg>
