<?xml version="1.0" encoding="UTF-8"?>
<!-- Reconstructed from Amplitude.Graphics.Svg.SvgAsset and recolored from static UIMapper.Color metadata for EWShop; not original source SVG. Live UI state/material colors are not included. -->
<svg xmlns="http://www.w3.org/2000/svg" width="24" height="24" viewBox="0 0 24 24">
  <path d="M 14.246 1.756 L 14.714 0.819 C 14.97 0.307 15.603 0.114 16.101 0.396 L 18.473 1.736 C 18.904 1.98 19.092 2.503 18.914 2.966 L 18.45 4.173 C 18.382 4.35 18.366 4.542 18.403 4.728 L 18.451 4.969 C 18.496 5.197 18.461 5.434 18.351 5.639 L 17.292 7.605 L 17.06 8.07 C 16.982 8.225 16.865 8.358 16.72 8.454 L 15.185 9.478 C 14.968 9.623 14.69 9.64 14.456 9.523 C 14.252 9.421 14.011 9.421 13.806 9.523 L 13.738 9.558 C 13.545 9.654 13.317 9.645 13.133 9.534 L 12.9 9.395 C 12.712 9.282 12.467 9.353 12.369 9.55 C 12.275 9.736 12.048 9.812 11.862 9.719 L 11.375 9.475 C 11.042 9.309 10.882 8.923 11 8.57 L 11.098 8.277 C 11.127 8.188 11.104 8.09 11.038 8.023 C 10.918 7.904 10.717 7.936 10.641 8.088 L 10.165 9.04 C 10.117 9.136 10.054 9.224 9.978 9.3 L 8.775 10.503 C 8.717 10.561 8.666 10.625 8.624 10.696 L 8.267 11.292 C 8.198 11.406 8.095 11.496 7.972 11.549 L 7.949 11.559 C 7.503 11.75 7.019 11.379 7.088 10.898 C 7.101 10.811 7.132 10.727 7.179 10.652 L 8.336 8.834 L 9.039 7.78 L 10.268 5.849 L 11.745 3.715 C 11.813 3.616 11.899 3.531 11.998 3.462 L 13.921 2.131 C 14.059 2.035 14.171 1.907 14.246 1.756" transform="matrix(1 0 0 1 0 0)" fill="#FFFFFF" stroke="none" />
  <path d="M 9.632 5.01 L 9.46 4.991 C 7.728 3.976 5.634 3.72 3.685 4.319 L 3.685 6.109 C 3.07 6.169 2.456 6.29 1.853 6.476 L 1.5 6.585 L 1.5 19.948 L 2.147 19.749 C 4.762 18.945 7.607 19.486 9.743 21.196 L 11.549 22.64 L 13.355 21.196 C 15.492 19.486 18.336 18.945 20.951 19.749 L 21.598 19.948 L 21.598 6.585 L 21.245 6.476 C 20.591 6.275 19.923 6.165 19.244 6.089 C 18.899 6.753 18.535 7.407 18.18 8.066 L 17.954 8.517 C 17.799 8.828 17.565 9.094 17.275 9.287 L 15.74 10.31 C 15.263 10.628 14.663 10.687 14.137 10.475 C 13.723 10.666 13.25 10.673 12.834 10.501 C 12.432 10.789 11.888 10.85 11.415 10.613 C 11.124 10.468 10.813 10.342 10.565 10.128 L 9.124 11.806 C 8.947 12.101 8.682 12.333 8.366 12.468 L 8.344 12.478 C 7.18 12.976 5.919 12.01 6.098 10.757 C 6.131 10.529 6.212 10.31 6.336 10.116 L 7.499 8.288 L 8.201 7.235 L 9.435 5.296 L 9.632 5.01 M 3.685 7.114 L 3.685 17.239 C 5.969 16.536 8.453 17.009 10.319 18.502 L 11.549 19.486 L 12.779 18.502 C 14.645 17.009 17.129 16.536 19.413 17.239 L 19.413 7.114 C 19.81 7.158 20.206 7.23 20.598 7.332 L 20.598 18.62 C 17.851 17.987 14.95 18.639 12.73 20.415 L 11.549 21.36 L 10.368 20.415 C 8.148 18.639 5.247 17.987 2.5 18.62 L 2.5 7.332 C 2.892 7.23 3.288 7.158 3.685 7.114" transform="matrix(1 0 0 1 0 0)" fill="#FFFFFF" stroke="none" />
</svg>
