<?xml version="1.0" encoding="UTF-8"?>
<!-- Reconstructed from Amplitude.Graphics.Svg.SvgAsset and recolored from static UIMapper.Color metadata for EWShop; not original source SVG. Live UI state/material colors are not included. -->
<svg xmlns="http://www.w3.org/2000/svg" width="24" height="24" viewBox="0 0 24 24">
  <path d="M 9.188 24 L 17.719 19.814 C 17.853 19.635 17.386 19.032 16.832 18.316 C 16.749 18.209 16.664 18.099 16.579 17.988 C 12.355 17.763 9 14.266 9 9.986 C 9 9.058 9.158 8.166 9.448 7.337 C 7.742 8.434 5.287 8.954 3.79 7.6 C 2.8 6.705 3.077 5.115 4.051 4.204 C 5.822 2.547 8.876 1.229 13.055 3.016 C 13.553 2.732 14.086 2.5 14.644 2.328 C 14.461 2.193 14.274 2.075 14.082 1.975 C 9.556 -0.384 2.892 0.69 1.642 6.297 C 1.497 6.959 1.514 7.61 1.53 8.242 C 1.546 8.846 1.561 9.432 1.434 9.994 C 1.333 10.44 1.035 10.784 0.735 11.128 C 0.393 11.522 0.049 11.918 0 12.469 C -0.016 13.122 1.03 13.799 1.03 13.799 C 1.486 15.023 1.952 16.603 2.116 18.058 C 2.17 18.534 2.461 18.97 2.926 19.088 C 5.315 19.697 7.87 18.832 9.609 17.115 C 9.397 17.772 8.729 18.435 8.123 19.035 C 7.523 19.63 6.985 20.163 7.017 20.567 L 9.188 24" transform="matrix(1 0 0 1 0 0)" fill="#FFFFFF" stroke="none" />
  <path d="M 21.502 9.935 C 21.581 7.61 19.718 5.684 17.393 5.684 L 17.393 10 L 21.5 10 L 21.502 9.935" transform="matrix(1 0 0 1 0 0)" fill="#FFFFFF" stroke="none" />
  <path d="M 18.639 1 L 15.962 1 L 15.962 2.338 L 16.631 2.338 L 16.631 3.378 C 13.435 3.712 10.943 6.415 10.943 9.7 C 10.943 13.212 13.789 16.058 17.3 16.058 C 20.812 16.058 23.658 13.212 23.658 9.7 C 23.658 8.205 23.142 6.83 22.277 5.744 L 22.688 5.366 L 23.005 5.709 L 23.693 5.075 L 22.424 3.699 L 21.736 4.334 L 22.054 4.678 L 21.643 5.057 C 20.659 4.137 19.383 3.525 17.97 3.378 L 17.97 2.338 L 18.639 2.338 L 18.639 1 M 22.158 9.7 C 22.158 12.383 19.983 14.558 17.3 14.558 C 14.618 14.558 12.443 12.383 12.443 9.7 C 12.443 7.018 14.618 4.843 17.3 4.843 C 19.983 4.843 22.158 7.018 22.158 9.7" transform="matrix(1 0 0 1 0 0)" fill="#FFFFFF" stroke="none" />
</svg>
