<?xml version="1.0" encoding="UTF-8"?>
<!-- Reconstructed from Amplitude.Graphics.Svg.SvgAsset and recolored from static UIMapper.Color metadata for EWShop; not original source SVG. Live UI state/material colors are not included. -->
<svg xmlns="http://www.w3.org/2000/svg" width="24" height="24" viewBox="0 0 24 24">
  <path d="M 7.507 13.707 L 8.284 10.908 L 11.18 8.321 L 11.329 7.61 L 8.544 3.727 L 11.539 0 L 12.405 0.806 L 11.5 2.924 L 13.271 1.612 L 15.002 3.224 L 12.438 7.146 L 12.24 8.428 L 15.321 9.887 L 16.035 13.987 L 16.947 15.805 L 12.24 19.424 L 7.79 16.612 L 7.507 13.707 M 11.952 13.395 L 15.14 12.714 L 11.952 16.109 L 8.475 12.713 L 11.952 13.395" transform="matrix(1 0 0 1 0 0)" fill="#FFFFFF" stroke="none" />
  <path d="M 6.662 17.188 L 9.558 18.821 L 16.001 23 L 1.929 19.253 L 6.662 17.188" transform="matrix(1 0 0 1 0 0)" fill="#FFFFFF" stroke="none" />
  <path d="M 17 16.924 L 21 18.924 L 15 21 L 13 20.066 L 17 16.924" transform="matrix(1 0 0 1 0 0)" fill="#FFFFFF" stroke="none" />
  <path d="M 19.417 2.405 L 14.434 8.19 L 17.86 8.218 L 16.747 12.37 L 21.952 5.755 L 18.527 5.727 L 19.417 2.405" transform="matrix(1 0 0 1 0 0)" fill="#FFFFFF" stroke="none" />
  <path d="M 1.601 4.991 L 7.601 8.984 L 4.556 10.372 L 5.754 12.272 L 0.793 10.62 L 3.837 9.232 L 1.601 4.991" transform="matrix(1 0 0 1 0 0)" fill="#FFFFFF" stroke="none" />
</svg>
