<?xml version="1.0" encoding="UTF-8"?>
<!-- Reconstructed from Amplitude.Graphics.Svg.SvgAsset and recolored from static UIMapper.Color metadata for EWShop; not original source SVG. Live UI state/material colors are not included. -->
<svg xmlns="http://www.w3.org/2000/svg" width="24" height="24" viewBox="0 0 24 24">
  <path d="M 10.211 1.273 C 10.094 1.296 10.017 1.41 10.04 1.527 L 10.177 2.241 C 10.198 2.35 10.133 2.457 10.028 2.492 C 9.555 2.651 9.098 2.862 8.677 3.129 C 8.584 3.188 8.46 3.173 8.388 3.089 L 7.915 2.538 C 7.837 2.447 7.7 2.436 7.609 2.515 L 6.924 3.106 C 6.833 3.185 6.823 3.322 6.902 3.413 L 7.389 3.971 C 7.463 4.055 7.46 4.18 7.387 4.264 C 7.063 4.632 6.775 5.044 6.543 5.492 C 6.492 5.59 6.377 5.639 6.272 5.602 L 5.583 5.361 C 5.47 5.322 5.346 5.381 5.307 5.495 L 5.008 6.349 C 4.969 6.462 5.028 6.586 5.142 6.625 L 5.831 6.866 C 5.936 6.903 5.996 7.012 5.975 7.12 C 5.88 7.609 5.852 8.105 5.876 8.588 C 5.882 8.699 5.805 8.799 5.696 8.819 L 4.967 8.952 C 4.849 8.974 4.771 9.088 4.793 9.206 L 4.961 10.095 C 4.983 10.213 5.097 10.291 5.215 10.268 L 5.928 10.131 C 6.036 10.11 6.143 10.175 6.179 10.28 C 6.342 10.75 6.569 11.2 6.84 11.619 C 6.9 11.712 6.884 11.836 6.8 11.908 L 6.248 12.382 C 6.157 12.459 6.147 12.596 6.224 12.687 L 6.8 13.365 C 6.878 13.456 7.015 13.467 7.107 13.389 L 7.657 12.917 C 7.741 12.844 7.866 12.848 7.949 12.921 C 8.318 13.247 8.727 13.532 9.178 13.765 C 9.276 13.816 9.325 13.931 9.288 14.036 L 9.047 14.725 C 9.008 14.838 9.068 14.962 9.181 15.001 L 10.035 15.3 C 10.148 15.339 10.272 15.28 10.311 15.166 L 10.552 14.477 C 10.589 14.373 10.698 14.313 10.807 14.334 C 11.305 14.433 11.802 14.464 12.294 14.439 C 12.405 14.433 12.504 14.508 12.525 14.617 L 12.662 15.329 C 12.684 15.448 12.799 15.525 12.917 15.502 L 13.79 15.33 C 13.907 15.307 13.983 15.193 13.961 15.076 L 13.824 14.362 C 13.803 14.253 13.868 14.146 13.973 14.111 C 14.445 13.952 14.903 13.741 15.324 13.474 C 15.417 13.415 15.541 13.431 15.613 13.515 L 16.085 14.065 C 16.164 14.156 16.301 14.167 16.392 14.088 L 17.077 13.497 C 17.168 13.419 17.178 13.281 17.099 13.19 L 16.611 12.632 C 16.538 12.548 16.54 12.423 16.614 12.339 C 16.934 11.976 17.22 11.571 17.451 11.129 C 17.502 11.031 17.617 10.983 17.721 11.02 L 18.411 11.261 C 18.524 11.3 18.648 11.24 18.687 11.127 L 18.986 10.273 C 19.025 10.16 18.966 10.036 18.853 9.997 L 18.163 9.756 C 18.059 9.719 17.999 9.61 18.02 9.501 C 18.118 9.006 18.148 8.504 18.125 8.015 C 18.119 7.904 18.195 7.804 18.305 7.784 L 19.034 7.651 C 19.152 7.629 19.23 7.515 19.208 7.397 L 19.04 6.508 C 19.018 6.39 18.904 6.313 18.786 6.335 L 18.073 6.472 C 17.964 6.493 17.858 6.428 17.821 6.323 C 17.659 5.853 17.432 5.403 17.161 4.984 C 17.101 4.891 17.117 4.767 17.201 4.695 L 17.753 4.222 C 17.843 4.144 17.854 4.007 17.777 3.916 L 17.201 3.238 C 17.123 3.147 16.985 3.136 16.894 3.214 L 16.344 3.687 C 16.259 3.759 16.135 3.756 16.052 3.682 C 15.683 3.356 15.274 3.071 14.823 2.838 C 14.724 2.787 14.676 2.672 14.712 2.568 L 14.947 1.897 C 14.986 1.784 14.927 1.66 14.813 1.62 L 13.959 1.322 C 13.846 1.283 13.722 1.342 13.683 1.455 L 13.449 2.126 C 13.412 2.231 13.303 2.291 13.194 2.269 C 12.696 2.17 12.198 2.139 11.706 2.164 C 11.596 2.17 11.496 2.095 11.476 1.986 L 11.339 1.274 C 11.316 1.156 11.202 1.079 11.084 1.102 L 10.211 1.273 M 16.691 8.302 C 16.691 10.892 14.591 12.993 12 12.993 C 9.41 12.993 7.309 10.892 7.309 8.302 C 7.309 5.711 9.41 3.611 12 3.611 C 14.591 3.611 16.691 5.711 16.691 8.302 M 14.559 8.302 C 14.559 9.715 13.413 10.86 12 10.86 C 10.587 10.86 9.441 9.715 9.441 8.302 C 9.441 6.889 10.587 5.743 12 5.743 C 13.413 5.743 14.559 6.889 14.559 8.302 M 15.643 8.302 C 15.643 10.314 14.012 11.945 12 11.945 C 9.988 11.945 8.356 10.314 8.356 8.302 C 8.356 6.289 9.988 4.658 12 4.658 C 14.012 4.658 15.643 6.289 15.643 8.302" transform="matrix(1 0 0 1 0 0)" fill="#FFFFFF" stroke="none" />
  <path d="M 23.28 12.377 L 21.323 12.522 L 14.315 19.53 L 13.33 18.549 L 12.491 19.388 L 13.959 20.855 L 12.282 22.532 L 13.12 23.371 L 14.798 21.694 L 16.265 23.161 L 17.104 22.323 L 16.196 21.411 L 23.248 14.359 L 23.28 12.377 M 21.781 13.433 L 15.019 20.195 L 15.502 20.678 L 22.264 13.916 L 22.34 13.381 L 21.781 13.433 M 0.721 12.378 L 2.678 12.523 L 9.686 19.53 L 10.67 18.549 L 11.509 19.388 L 10.041 20.855 L 11.719 22.533 L 10.88 23.371 L 9.203 21.694 L 7.735 23.162 L 6.897 22.323 L 7.805 21.412 L 0.752 14.359 L 0.721 12.378 M 2.219 13.433 L 8.981 20.195 L 8.499 20.678 L 1.737 13.916 L 1.66 13.381 L 2.219 13.433" transform="matrix(1 0 0 1 0 0)" fill="#FFFFFF" stroke="none" />
</svg>
