<?xml version="1.0" encoding="UTF-8"?>
<!-- Reconstructed from Amplitude.Graphics.Svg.SvgAsset and recolored from static UIMapper.Color metadata for EWShop; not original source SVG. Live UI state/material colors are not included. -->
<svg xmlns="http://www.w3.org/2000/svg" width="24" height="24" viewBox="0 0 24 24">
  <path d="M 4.499 18 C 5.328 18 5.999 18.672 5.999 19.5 C 5.999 20.328 5.328 21 4.499 21 C 3.671 21 2.999 20.328 2.999 19.5 C 2.999 18.672 3.671 18 4.499 18" transform="matrix(1 0 0 1 0 0)" fill="#FFFFFF" stroke="none" />
  <path d="M 19.724 15.082 C 19.918 14.954 20.182 14.976 20.353 15.147 C 20.523 15.317 20.545 15.581 20.417 15.775 L 20.353 15.854 L 18.956 17.25 L 20.353 18.647 L 20.417 18.725 C 20.545 18.919 20.523 19.183 20.353 19.354 C 20.182 19.524 19.918 19.546 19.724 19.418 L 19.646 19.354 L 18.249 17.957 L 16.853 19.354 L 16.775 19.418 C 16.58 19.546 16.316 19.524 16.146 19.354 C 15.975 19.183 15.953 18.919 16.081 18.725 L 16.146 18.647 L 17.542 17.25 L 16.146 15.854 L 16.081 15.775 C 15.953 15.581 15.975 15.317 16.146 15.147 C 16.316 14.976 16.58 14.954 16.775 15.082 L 16.853 15.147 L 18.249 16.543 L 19.646 15.147 L 19.724 15.082" transform="matrix(1 0 0 1 0 0)" fill="#FFFFFF" stroke="none" />
  <path d="M 3.177 14.483 C 3.408 14.413 3.651 14.517 3.763 14.721 L 3.802 14.815 L 3.925 15.199 C 3.951 15.277 3.975 15.35 3.994 15.43 C 4.027 15.66 3.895 15.889 3.667 15.971 C 3.44 16.052 3.192 15.959 3.071 15.76 C 3.033 15.678 3.006 15.604 2.977 15.517 L 2.846 15.108 L 2.826 15.009 C 2.804 14.777 2.946 14.554 3.177 14.483" transform="matrix(1 0 0 1 0 0)" fill="#FFFFFF" stroke="none" />
  <path d="M 2.517 9.981 C 2.793 9.978 3.019 10.198 3.023 10.474 C 3.026 10.652 3.034 10.834 3.047 11.016 L 3.097 11.562 L 3.099 11.663 C 3.078 11.895 2.897 12.089 2.657 12.116 C 2.417 12.144 2.197 11.996 2.125 11.775 L 2.104 11.676 L 2.049 11.084 C 2.035 10.886 2.026 10.686 2.023 10.488 C 2.02 10.212 2.241 9.985 2.517 9.981" transform="matrix(1 0 0 1 0 0)" fill="#FFFFFF" stroke="none" />
  <path d="M 20.499 5 C 21.328 5 21.999 5.672 21.999 6.5 C 21.999 7.328 21.328 8 20.499 8 C 19.671 8 18.999 7.328 18.999 6.5 C 18.999 5.672 19.671 5 20.499 5" transform="matrix(1 0 0 1 0 0)" fill="#FFFFFF" stroke="none" />
  <path d="M 4.112 6.361 C 4.345 6.213 4.654 6.281 4.803 6.514 C 4.951 6.746 4.884 7.055 4.651 7.204 C 4.515 7.291 4.372 7.373 4.223 7.447 C 4.086 7.516 3.965 7.598 3.857 7.692 L 3.775 7.752 C 3.574 7.868 3.311 7.83 3.151 7.648 C 2.969 7.441 2.989 7.125 3.196 6.942 L 3.329 6.833 C 3.466 6.727 3.615 6.633 3.775 6.553 C 3.893 6.494 4.005 6.43 4.112 6.361" transform="matrix(1 0 0 1 0 0)" fill="#FFFFFF" stroke="none" />
  <path d="M 5.969 3.84 C 6.063 3.58 6.35 3.447 6.609 3.541 C 6.869 3.635 7.003 3.922 6.908 4.182 C 6.804 4.467 6.682 4.758 6.536 5.044 C 6.411 5.29 6.11 5.387 5.864 5.263 C 5.618 5.138 5.52 4.837 5.645 4.591 C 5.769 4.345 5.877 4.092 5.969 3.84" transform="matrix(1 0 0 1 0 0)" fill="#FFFFFF" stroke="none" />
  <path d="M 6.999 0.5 C 7.366 0.5 7.507 0.823 7.496 1.133 C 7.493 1.214 7.488 1.331 7.477 1.476 L 7.459 1.575 C 7.395 1.799 7.181 1.955 6.94 1.937 C 6.665 1.916 6.459 1.676 6.48 1.4 L 6.497 1.099 C 6.507 0.799 6.646 0.5 6.999 0.5" transform="matrix(1 0 0 1 0 0)" fill="#FFFFFF" stroke="none" />
  <path d="M 15.03 3.97 L 15.082 4.026 C 15.322 4.321 15.305 4.756 15.03 5.03 C 14.756 5.305 14.321 5.322 14.026 5.082 L 13.97 5.03 L 12.75 3.811 L 12.75 5.238 C 12.75 6.793 11.472 7.847 10.336 8.314 C 8.805 8.945 7.75 10.41 7.75 12.096 C 7.75 13.782 8.805 15.246 10.336 15.876 C 11.472 16.344 12.75 17.397 12.75 18.952 L 12.75 22 C 12.75 22.414 12.414 22.75 12 22.75 C 11.586 22.75 11.25 22.414 11.25 22 L 11.25 18.952 C 11.25 18.298 10.671 17.636 9.765 17.263 C 7.711 16.417 6.25 14.43 6.25 12.096 C 6.25 9.761 7.711 7.774 9.765 6.928 C 10.671 6.554 11.25 5.892 11.25 5.238 L 11.25 3.811 L 10.03 5.03 C 9.737 5.323 9.263 5.323 8.97 5.03 C 8.677 4.737 8.677 4.263 8.97 3.97 L 12 0.939 L 15.03 3.97" transform="matrix(1 0 0 1 0 0)" fill="#FFFFFF" stroke="none" />
  <path d="M 12 9 C 13.657 9 15 10.343 15 12 C 15 13.657 13.657 15 12 15 C 10.343 15 9 13.657 9 12 C 9 10.343 10.343 9 12 9" transform="matrix(1 0 0 1 0 0)" fill="#FFFFFF" stroke="none" />
</svg>
