<?xml version="1.0" encoding="UTF-8"?>
<!-- Reconstructed from Amplitude.Graphics.Svg.SvgAsset and recolored from static UIMapper.Color metadata for EWShop; not original source SVG. Live UI state/material colors are not included. -->
<svg xmlns="http://www.w3.org/2000/svg" width="24" height="24" viewBox="0 0 24 24">
  <path d="M 21.821 9.626 C 22.432 7.88 22.215 5.951 21.232 4.383 C 20.862 3.794 20.395 3.273 19.849 2.842 L 18.455 1.74 C 16.691 3.022 15.9 5.258 16.464 7.364 L 16.627 7.971 C 14.517 9.152 13.53 11.656 14.268 13.959 L 14.65 15.151 L 15.819 15.499 L 18.144 14.876 L 15.742 16.216 L 13.118 15.29 L 10.831 16.19 L 7.939 17.221 L 8.194 15.66 L 7.149 13.768 L 7.196 12.941 L 6.438 12.17 L 5.668 13.582 L 6.211 15.608 L 5.388 15.733 L 3.953 14.896 L 2.491 15.966 L 2.213 17.941 L 2.03 18.261 L 2.916 20.06 L 5.538 20.307 L 7.59 20.436 L 14.695 21.175 L 17.587 20.608 L 19.301 15.941 L 20.512 14.938 L 21.112 11.655 L 21.821 9.626" transform="matrix(1 0 0 1 0 0)" fill="#FFFFFF" stroke="none" />
  <path d="M 3.891 13.702 L 3.665 13.868 L 0.938 12.941 L 3.698 12.083 L 0.938 10.214 L 4.238 10.373 L 0.938 6.114 L 5.407 9.036 L 3.379 3.222 L 7.004 8.305 L 7.878 1.67 L 8.752 8.305 L 12.377 4.257 L 10.348 9.036 L 14.987 5.714 L 15.473 7.529 C 13.546 8.964 12.636 11.417 13.181 13.774 C 13.136 13.799 13.09 13.824 13.045 13.848 L 12.585 14.426 L 10.48 15.253 L 9.199 15.71 L 9.237 15.479 L 8.164 13.537 L 8.22 12.555 L 6.205 10.508 L 4.599 13.455 L 4.808 14.236 L 3.891 13.702" transform="matrix(1 0 0 1 0 0)" fill="#FFFFFF" stroke="none" />
</svg>
