<?xml version="1.0" encoding="UTF-8"?>
<!-- Reconstructed from Amplitude.Graphics.Svg.SvgAsset and recolored from static UIMapper.Color metadata for EWShop; not original source SVG. Live UI state/material colors are not included. -->
<svg xmlns="http://www.w3.org/2000/svg" width="26" height="26" viewBox="0 0 26 26">
  <path d="M 14.16 19.87 C 14.89 15.32 14.89 10.66 14.16 6.11 C 18.28 5.94 21.44 4.86 21.44 3.56 C 21.44 2.15 17.65 1 13 1 C 8.35 1 4.56 2.15 4.56 3.57 C 4.56 4.87 7.73 5.95 11.84 6.12 C 11.11 10.67 11.1 15.33 11.84 19.87 C 7.73 20.04 4.56 21.12 4.56 22.43 C 4.56 23.86 8.33 25 13 25 C 17.67 25 21.44 23.85 21.44 22.43 C 21.44 21.13 18.27 20.05 14.16 19.87 M 6.97 3.97 C 6.97 3.22 9.44 2.6 12.58 2.55 C 12.35 3.49 12.14 4.43 11.97 5.38 C 9.13 5.26 6.97 4.68 6.97 3.97 M 6.97 22.02 C 6.97 21.31 9.13 20.73 11.97 20.61 C 12.14 21.56 12.34 22.51 12.58 23.44 C 9.45 23.39 6.97 22.77 6.97 22.02 M 19.03 3.97 C 19.03 4.69 16.87 5.26 14.03 5.38 C 13.86 4.43 13.66 3.48 13.42 2.55 C 16.56 2.6 19.03 3.21 19.03 3.97 M 13.42 23.44 C 13.66 22.5 13.86 21.56 14.03 20.61 C 16.87 20.72 19.03 21.3 19.03 22.02 C 19.03 22.79 16.56 23.39 13.42 23.44" transform="matrix(1 0 0 1 0 0)" fill="#FFFFFF" stroke="none" />
  <path d="M 4.57 11.31 C 3.82 12.7 3.81 14.15 4.57 15.55 C 5.33 14.16 5.32 12.71 4.57 11.31" transform="matrix(1 0 0 1 0 0)" fill="#FFFFFF" stroke="none" />
  <path d="M 8.95 6 C 8.21 7.5 8.22 9.09 8.95 10.57 C 9.68 9.07 9.69 7.48 8.95 6" transform="matrix(1 0 0 1 0 0)" fill="#FFFFFF" stroke="none" />
  <path d="M 17.75 19.43 C 18.48 18.31 18.49 17.11 17.75 16 C 17.01 17.12 17.02 18.32 17.75 19.43" transform="matrix(1 0 0 1 0 0)" fill="#FFFFFF" stroke="none" />
  <path d="M 21.44 12.09 C 20.68 13.48 20.69 14.93 21.44 16.33 C 22.19 14.94 22.2 13.49 21.44 12.09" transform="matrix(1 0 0 1 0 0)" fill="#FFFFFF" stroke="none" />
  <path d="M 7.85 18.14 C 8.58 16.64 8.59 15.07 7.85 13.57 C 7.11 15.07 7.12 16.64 7.85 18.14" transform="matrix(1 0 0 1 0 0)" fill="#FFFFFF" stroke="none" />
  <path d="M 17.77 6.71 C 17.01 8.1 17.02 9.55 17.77 10.95 C 18.52 9.56 18.53 8.11 17.77 6.71" transform="matrix(1 0 0 1 0 0)" fill="#FFFFFF" stroke="none" />
</svg>
