<?xml version="1.0" encoding="UTF-8"?>
<!-- Reconstructed from Amplitude.Graphics.Svg.SvgAsset and recolored from static UIMapper.Color metadata for EWShop; not original source SVG. Live UI state/material colors are not included. -->
<svg xmlns="http://www.w3.org/2000/svg" width="20" height="20" viewBox="0 0 20 20">
  <path d="M 7.704 2.13 C 7.742 2.004 7.883 1.965 7.986 2.033 L 7.978 2.043 L 9.501 2.5 C 9.501 2.5 8.336 3.633 8.251 3.873 C 8.242 3.893 8.223 3.922 8.223 3.922 L 7.798 4.516 C 7.771 4.553 7.761 4.627 7.761 4.632 L 7.761 5.858 C 7.761 5.888 7.741 5.946 7.741 5.946 L 6.034 9.902 L 6.034 12.13 L 4.895 15.5 L 11.797 17 L 2.072 17 C 1.875 16.084 0.912 12.13 0.912 12.13 L 2.575 9.314 C 2.594 9.266 2.659 9.218 2.66 9.217 L 4.895 7.951 C 4.942 7.922 4.98 7.884 4.989 7.835 L 5.894 4.622 C 5.903 4.594 5.946 4.54 5.95 4.535 L 7.289 3.27 C 7.307 3.251 7.334 3.195 7.336 3.191 L 7.704 2.13 M 11.305 1.024 C 11.418 0.956 11.578 1.035 11.578 1.181 L 11.691 3.021 C 11.692 3.077 11.761 3.159 11.767 3.166 L 13.615 4.559 C 13.642 4.587 13.678 4.659 13.681 4.665 L 14.633 8.248 C 14.642 8.295 14.714 8.361 14.718 8.364 L 17.074 9.786 C 17.101 9.805 17.138 9.859 17.141 9.863 L 19 12.5 L 19 15 L 18 17 L 13 15 L 16 12 L 11 12 L 8.75 10.613 L 8.75 10.506 L 9.712 6.146 C 9.721 6.107 9.712 6.04 9.712 6.038 L 9.26 4.665 C 9.251 4.627 9.259 4.543 9.26 4.539 L 10.202 1.696 C 10.212 1.648 10.287 1.589 10.287 1.589 L 11.305 1.024" transform="matrix(1 0 0 1 0 0)" fill="#FFFFFF" stroke="none" />
</svg>
