<?xml version="1.0" encoding="UTF-8"?>
<!-- Reconstructed from Amplitude.Graphics.Svg.SvgAsset and recolored from static UIMapper.Color metadata for EWShop; not original source SVG. Live UI state/material colors are not included. -->
<svg xmlns="http://www.w3.org/2000/svg" width="26" height="26" viewBox="0 0 26 26">
  <path d="M 5.137 16.726 C 4.534 14.5 3.535 9.423 4.369 6.92 C 5.064 4.522 8.467 0.028 16.516 1.238 L 16.516 3.636 C 20.669 4.366 26.786 9.485 18.028 24.124 L 18.028 25.688 C 16.499 25.289 12.152 23.983 8.523 17.31 L 8.069 19.163 L 5.137 16.726 M 15.592 10.498 L 16.743 10.498 C 16.607 12.776 15.995 17.255 15.592 18.148 L 14.512 18.148 C 15.063 16.073 15.592 11.858 15.592 10.498 M 18.878 10.498 L 17.795 10.498 C 17.795 11.858 17.297 16.073 16.778 18.148 L 17.795 18.148 C 18.174 17.255 18.75 12.776 18.878 10.498 M 19.789 10.498 L 20.684 10.498 C 20.578 12.776 20.103 17.255 19.789 18.148 L 18.95 18.148 C 19.378 16.073 19.789 11.858 19.789 10.498" transform="matrix(1 0 0 1 0 0)" fill="#C73849" stroke="none" />
</svg>
