<?xml version="1.0" encoding="UTF-8"?>
<!-- Reconstructed from Amplitude.Graphics.Svg.SvgAsset and recolored from static UIMapper.Color metadata for EWShop; not original source SVG. Live UI state/material colors are not included. -->
<svg xmlns="http://www.w3.org/2000/svg" width="24" height="24" viewBox="0 0 24 24">
  <path d="M 15.73 17.867 L 14.52 17.957 C 13.66 18.027 12.89 17.415 12.74 16.561 L 12.71 16.4 C 12.63 15.938 12.03 15.827 11.79 16.229 C 11.35 16.963 10.39 17.184 9.68 16.701 L 9.45 16.541 C 8.64 15.998 8.42 14.903 8.96 14.089 L 9.55 13.195 C 9.8 12.824 9.75 12.321 9.43 12 L 9.21 11.779 C 9.06 11.628 8.86 11.528 8.64 11.498 L 7.31 11.307 C 6.25 11.156 5.47 10.252 5.47 9.177 L 5.47 9.077 C 5.47 7.941 6.39 7.027 7.51 7.027 C 8.09 7.027 8.4 6.354 8.03 5.902 L 7.6 5.39 C 7.1 4.787 7.02 3.953 7.34 3.28 C 5.2 3.823 3.42 5.269 2.86 7.761 C 2.74 8.333 2.75 8.886 2.76 9.438 C 2.77 9.961 2.79 10.463 2.68 10.945 C 2.59 11.327 2.34 11.628 2.08 11.92 C 1.84 12.261 1.54 12.603 1.5 13.075 C 1.49 13.637 2.38 14.22 2.38 14.22 C 2.48 14.481 2.58 14.773 2.67 15.064 L 3.1 16.631 C 3.19 17.053 3.27 17.475 3.31 17.877 C 3.36 18.289 3.61 18.66 4 18.761 C 6.05 19.283 8.24 18.54 9.72 17.063 C 9.54 17.626 8.97 18.198 8.45 18.71 C 7.94 19.223 7.48 19.685 7.5 20.026 L 9.36 22.98 L 16.67 19.373 C 16.78 19.223 16.38 18.7 15.91 18.088 C 15.85 18.007 15.79 17.927 15.73 17.847 L 15.73 17.867" transform="matrix(1 0 0 1 0 0)" fill="#FFFFFF" stroke="none" />
  <path d="M 19.031 5.29 C 19.131 4.858 19.231 4.395 19.681 3.994 C 20.231 3.491 20.781 3.28 21.241 3.11 C 21.561 2.989 21.841 2.889 22.031 2.708 C 22.501 2.276 22.501 1 22.501 1 C 22.501 1 22.031 1.854 20.621 1.854 C 19.211 1.854 18.381 2.175 17.801 2.708 C 17.521 2.959 17.461 3.21 17.391 3.471 C 17.321 3.763 17.241 4.074 16.861 4.416 C 16.141 5.079 14.511 4.868 14.511 4.868 C 14.331 4.837 14.141 4.817 13.951 4.797 L 13.951 2.567 C 14.231 2.447 14.431 2.155 14.431 1.814 C 14.431 1.362 14.081 1 13.641 1 C 13.201 1 12.851 1.362 12.851 1.814 C 12.851 2.155 13.051 2.437 13.331 2.567 L 13.331 4.807 C 12.461 4.868 11.661 5.209 11.021 5.742 L 9.78 4.385 C 9.9 4.094 9.86 3.742 9.63 3.501 C 9.33 3.17 8.83 3.16 8.51 3.461 C 8.19 3.773 8.18 4.285 8.48 4.616 C 8.7 4.858 9.04 4.928 9.33 4.817 L 10.561 6.174 C 9.93 6.877 9.52 7.781 9.45 8.795 L 8 8.795 C 7.88 8.504 7.6 8.293 7.27 8.293 C 6.83 8.293 6.48 8.655 6.48 9.107 C 6.48 9.559 6.83 9.921 7.27 9.921 C 7.6 9.921 7.88 9.72 8 9.418 L 9.45 9.418 C 9.55 10.835 10.311 12.07 11.421 12.774 L 10.751 14.1 C 10.441 14.069 10.141 14.24 9.99 14.532 C 9.79 14.933 9.94 15.426 10.331 15.627 C 10.721 15.837 11.191 15.677 11.391 15.275 C 11.541 14.974 11.491 14.622 11.301 14.381 L 11.971 13.055 C 12.481 13.276 13.041 13.406 13.621 13.406 C 13.661 13.406 13.701 13.406 13.741 13.406 C 13.781 13.406 13.821 13.406 13.871 13.406 L 14.051 15.516 C 13.781 15.667 13.601 15.968 13.631 16.31 C 13.671 16.762 14.051 17.093 14.481 17.053 C 14.911 17.013 15.241 16.621 15.201 16.169 C 15.171 15.837 14.951 15.566 14.661 15.466 L 14.481 13.326 C 15.641 13.075 16.631 12.332 17.221 11.307 L 18.501 12 C 18.481 12.311 18.641 12.613 18.921 12.764 C 19.311 12.974 19.781 12.814 19.981 12.412 C 20.181 12.01 20.031 11.518 19.641 11.317 C 19.341 11.156 18.991 11.216 18.761 11.427 L 17.481 10.744 C 17.651 10.332 17.751 9.88 17.781 9.418 L 19.951 9.418 C 20.071 9.71 20.351 9.921 20.681 9.921 C 21.121 9.921 21.471 9.559 21.471 9.107 C 21.471 8.655 21.121 8.293 20.681 8.293 C 20.351 8.293 20.071 8.494 19.951 8.795 L 17.781 8.795 C 17.731 8.122 17.531 7.479 17.221 6.927 C 17.581 6.857 17.931 6.746 18.231 6.565 C 18.791 6.224 18.891 5.772 19.001 5.29 L 19.031 5.29 M 11.621 10.011 C 10.961 10.011 10.421 9.458 10.421 8.775 C 10.421 8.092 10.961 7.54 11.621 7.54 C 12.281 7.54 12.821 8.092 12.821 8.775 C 12.821 9.458 12.281 10.011 11.621 10.011 M 13.071 7.359 C 12.691 7.359 12.381 7.037 12.381 6.646 C 12.381 6.254 12.691 5.932 13.071 5.932 C 13.451 5.932 13.761 6.254 13.761 6.646 C 13.761 7.037 13.451 7.359 13.071 7.359" transform="matrix(1 0 0 1 0 0)" fill="#FFFFFF" stroke="none" />
</svg>
