<?xml version="1.0" encoding="UTF-8"?>
<!-- Reconstructed from Amplitude.Graphics.Svg.SvgAsset and recolored from static UIMapper.Color metadata for EWShop; not original source SVG. Live UI state/material colors are not included. -->
<svg xmlns="http://www.w3.org/2000/svg" width="24" height="24" viewBox="0 0 24 24">
  <path d="M 7.053 17.073 L 5.971 20.401 L 2.346 21.852 L 3.272 18.999 L 0.419 18.071 L 3.679 15.977 L 7.053 17.073" transform="matrix(1 0 0 1 0 0)" fill="#FFFFFF" stroke="none" />
  <path d="M 13.773 14.49 L 7.985 17.44 L 8.313 16.431 L 7.305 16.104 L 10.199 14.629 L 11.646 13.892 L 12.369 13.523 L 13.773 14.49" transform="matrix(1 0 0 1 0 0)" fill="#FFFFFF" stroke="none" />
  <path d="M 16.893 7.212 L 16.94 7.28 L 17.345 7.862 L 15.898 9.822 L 15.174 10.802 L 14.812 11.291 L 13.244 10.89 L 16.139 6.971 L 16.893 7.212" transform="matrix(1 0 0 1 0 0)" fill="#FFFFFF" stroke="none" />
  <path d="M 21.047 5.609 C 20.367 5.647 19.139 6.325 18.488 7.736 L 18.481 7.745 L 17.761 6.709 L 20.304 2.594 L 17.117 6.233 L 15.915 5.85 C 16.57 5.163 17.595 3.574 17.194 2.78 L 21.945 0.372 L 21.047 5.609" transform="matrix(1 0 0 1 0 0)" fill="#FFFFFF" stroke="none" />
  <path d="M 18.02 8.631 C 18.06 8.652 18.103 8.67 18.147 8.686 L 17.65 9.591 L 23 10.21 L 17.332 13.822 L 22.108 17.077 L 16.663 16.197 L 19.147 23 L 14.341 18.184 L 12.908 21.048 L 11.442 17.598 L 5.998 22.154 L 6.21 21.382 L 6.342 21.33 C 6.617 21.22 6.83 20.993 6.922 20.711 L 7.677 18.388 C 7.924 18.468 8.198 18.453 8.439 18.33 L 14.018 15.487 L 14.611 16.094 L 14.328 15.32 C 14.744 15.043 14.897 14.493 14.664 14.036 L 14.493 13.702 L 15.66 13.891 L 14.021 12.773 L 13.983 12.7 C 13.981 12.695 13.977 12.689 13.974 12.684 L 13.998 12.668 C 14.183 12.762 14.391 12.802 14.599 12.771 C 14.861 12.731 15.097 12.588 15.255 12.375 L 15.962 11.417 L 15.982 11.404 L 15.972 11.402 L 16.22 11.068 L 18.02 8.631" transform="matrix(1 0 0 1 0 0)" fill="#FFFFFF" stroke="none" />
  <path d="M 12.43 6.761 L 14.148 2.66 L 15.038 6.775 L 13.404 8.989 L 12.991 9.547 L 12.779 8.67 L 12.156 10.155 L 10.576 8.068 L 11.072 10.755 L 9.665 10.378 L 10.253 11.651 L 8.018 11.545 L 10.185 12.842 L 9.436 13.419 L 10.507 13.254 L 10.476 13.365 L 6.851 15.213 C 6.701 15.289 6.576 15.4 6.484 15.532 L 5.852 15.63 L 5.324 15.459 L 6.984 14.181 L 1 10.601 L 7.177 10.894 L 5.554 7.378 L 9.437 8.42 L 8.068 1 L 12.43 6.761" transform="matrix(1 0 0 1 0 0)" fill="#FFFFFF" stroke="none" />
</svg>
