<?xml version="1.0" encoding="UTF-8"?>
<!-- Reconstructed from Amplitude.Graphics.Svg.SvgAsset and recolored from static UIMapper.Color metadata for EWShop; not original source SVG. Live UI state/material colors are not included. -->
<svg xmlns="http://www.w3.org/2000/svg" width="24" height="24" viewBox="0 0 24 24">
  <path d="M 11.601 12.629 C 11.97 12.912 12.366 13.161 12.786 13.37 L 11.91 15.123 L 13.619 13.723 C 14.016 13.863 14.429 13.969 14.854 14.039 L 12.565 17.328 L 17 15.899 L 11.253 20.007 L 17 21.109 L 8.628 21.503 L 5.996 23 L 3.372 21.503 L 1.013 21.393 L 2.64 20.148 L 1.013 17.408 L 3.148 18.574 L 1.013 13.425 L 5.996 19.85 L 11.601 12.629" transform="matrix(1 0 0 1 0 0)" fill="#FFFFFF" stroke="none" />
  <path d="M 3.898 9.188 C 4.007 8.962 5.46 9.772 5.544 10.439 L 5.544 10.462 C 5.544 10.472 5.662 14.125 5.8 18 L 4.29 15.626 C 4.057 11.862 3.898 9.188 3.898 9.188" transform="matrix(1 0 0 1 0 0)" fill="#FFFFFF" stroke="none" />
  <path d="M 6.324 10.462 C 6.516 9.688 8.162 9.045 8.162 9.283 C 8.161 9.319 8.103 12.172 7.948 15.827 L 6.379 18 C 6.365 14.184 6.324 10.469 6.324 10.462" transform="matrix(1 0 0 1 0 0)" fill="#FFFFFF" stroke="none" />
  <path d="M 15.977 1.137 C 18.575 1.137 20.712 2.839 21.393 5.352 L 21.557 5.189 L 21.615 5.138 C 21.758 5.026 21.94 4.977 22.11 4.977 C 22.3 4.977 22.506 5.038 22.654 5.18 C 22.899 5.338 22.993 5.735 22.772 6.178 L 22.757 6.207 L 22.734 6.229 L 22.665 6.298 L 22.662 6.302 L 21.283 7.61 L 21.282 7.609 C 21.088 7.801 20.884 7.802 20.801 7.802 C 20.666 7.802 20.463 7.805 20.269 7.626 L 18.684 6.456 L 18.671 6.447 L 18.661 6.437 C 18.501 6.276 18.396 6.09 18.396 5.881 C 18.396 5.672 18.501 5.487 18.661 5.327 C 18.741 5.247 18.861 5.147 19.036 5.109 C 19.169 5.081 19.316 5.092 19.48 5.148 L 19.649 5.221 L 19.657 5.225 L 19.857 5.336 C 19.312 3.755 17.795 2.708 16.045 2.708 C 13.676 2.708 11.903 4.544 11.903 6.846 C 11.904 9.138 13.736 10.915 16.045 10.983 L 16.12 10.988 C 16.293 11.009 16.45 11.099 16.565 11.214 C 16.697 11.345 16.796 11.531 16.796 11.733 C 16.796 12.134 16.416 12.485 15.977 12.485 C 12.837 12.485 10.262 9.989 10.262 6.846 C 10.262 3.637 12.765 1.137 15.977 1.137" transform="matrix(1 0 0 1 0 0)" fill="#FFFFFF" stroke="none" />
  <path d="M 1.856 7.341 C 2.229 7.341 2.541 7.591 2.661 7.925 L 9.173 8.052 C 9.129 8.244 9.093 8.44 9.065 8.638 C 8.24 8.554 6.722 8.71 5.903 9.949 C 4.979 8.508 3.333 8.425 2.637 8.544 C 2.505 8.842 2.205 9.032 1.856 9.032 C 1.46 9.032 1.124 8.759 1.04 8.39 L 1.016 8.032 C 1.076 7.627 1.436 7.329 1.856 7.341" transform="matrix(1 0 0 1 0 0)" fill="#FFFFFF" stroke="none" />
  <path d="M 16.5 4.8 C 16.887 4.8 17.2 5.113 17.2 5.5 L 17.2 8.2 L 14.5 8.2 C 14.113 8.2 13.8 7.886 13.8 7.5 C 13.8 7.113 14.113 6.8 14.5 6.8 L 15.8 6.8 L 15.8 5.5 C 15.8 5.113 16.113 4.8 16.5 4.8" transform="matrix(1 0 0 1 0 0)" fill="#FFFFFF" stroke="none" />
  <path d="M 5.999 0.978 C 6.917 0.978 7.245 1.12 7.245 1.809 C 7.245 2.223 7.126 2.591 6.83 2.817 L 6.83 6.377 C 6.894 6.421 6.967 6.464 7.043 6.51 C 7.337 6.686 7.67 6.885 7.661 7.207 L 4.338 7.207 C 4.338 6.878 4.702 6.66 5.003 6.479 C 5.061 6.443 5.118 6.41 5.169 6.377 L 5.169 2.817 C 4.873 2.591 4.754 2.223 4.754 1.809 C 4.754 1.121 5.082 0.978 5.999 0.978" transform="matrix(1 0 0 1 0 0)" fill="#FFFFFF" stroke="none" />
</svg>
