<?xml version="1.0" encoding="UTF-8"?>
<!-- Reconstructed from Amplitude.Graphics.Svg.SvgAsset and recolored from static UIMapper.Color metadata for EWShop; not original source SVG. Live UI state/material colors are not included. -->
<svg xmlns="http://www.w3.org/2000/svg" width="24" height="24" viewBox="0 0 24 24">
  <path d="M 23.001 4.616 L 19.084 8.23 L 15.291 4.616 L 17.055 4.616 L 19.084 6.355 L 21.113 4.616 L 23.001 4.616" transform="matrix(1 0 0 1 0 0)" fill="#FFFFFF" stroke="none" />
  <path d="M 23.001 1.001 L 19.084 4.616 L 15.291 1.001 L 17.055 1.001 L 19.084 2.74 L 21.113 1.001 L 23.001 1.001" transform="matrix(1 0 0 1 0 0)" fill="#FFFFFF" stroke="none" />
  <path d="M 23.001 8.001 L 19.084 11.615 L 15.291 8.001 L 17.055 8.001 L 19.084 9.74 L 21.113 8.001 L 23.001 8.001" transform="matrix(1 0 0 1 0 0)" fill="#FFFFFF" stroke="none" />
  <path d="M 23.001 11.5 L 19.084 15.115 L 15.291 11.5 L 17.055 11.5 L 19.084 13.24 L 21.113 11.5 L 23.001 11.5" transform="matrix(1 0 0 1 0 0)" fill="#FFFFFF" stroke="none" />
  <path d="M 13.149 22.652 L 0.876 22.652 L 0.876 20.939 L 13.149 20.939 L 13.149 22.652 M 13.149 18.184 L 3.119 18.184 L 3.119 16.469 L 13.149 16.469 L 13.149 18.184 M 9.876 14.001 L 0.876 14.001 L 0.876 12 L 9.876 12 L 9.876 14.001" transform="matrix(1 0 0 1 0 0)" fill="#FFFFFF" stroke="none" />
  <path d="M 15.374 22.856 C 16.942 22.861 16.998 22.861 17.305 22.717 C 17.687 22.539 18.94 21.311 17.307 20.88 C 15.671 20.45 14.391 19.961 13.948 18.551 L 13.933 18.507 C 13.476 17.05 12.084 12.63 13.01 11.719 C 13.226 11.351 13.582 10.804 14.001 10.172 L 14.001 1.654 C 13.09 1.256 12.321 1.014 12.136 1.216 C 11.875 1.503 11.72 1.991 11.72 1.991 C 10.87 4.023 8.696 8.451 6.799 9.922 C 4.426 11.762 4.055 13.166 5.345 14.52 C 6.719 15.961 8.787 18.365 9.319 20.449 C 9.854 22.555 11.07 22.852 13.946 22.852 C 14.526 22.852 14.994 22.854 15.374 22.856" transform="matrix(1 0 0 1 0 0)" fill="#FFFFFF" stroke="none" />
</svg>
