<?xml version="1.0" encoding="UTF-8"?>
<!-- Reconstructed from Amplitude.Graphics.Svg.SvgAsset and recolored from static UIMapper.Color metadata for EWShop; not original source SVG. Live UI state/material colors are not included. -->
<svg xmlns="http://www.w3.org/2000/svg" width="24" height="24" viewBox="0 0 24 24">
  <path d="M 14.91 7.455 C 14.663 6.976 12.641 6.344 13.211 8.684 C 13.328 9.497 14.549 11.383 15.438 10.007 C 15.661 9.662 15.545 8.684 14.91 7.455" transform="matrix(1 0 0 1 0 0)" fill="#FFFFFF" stroke="none" />
  <path d="M 11.255 9.543 C 11.255 8.167 11.966 7.937 12.321 7.995 C 13.211 10.231 13.032 10.734 12.801 10.92 C 11.947 11.608 11.373 10.174 11.255 9.543" transform="matrix(1 0 0 1 0 0)" fill="#FFFFFF" stroke="none" />
  <path d="M 10.543 8.683 C 9.476 8.339 8.338 9.406 9.476 12.296 C 9.773 12.927 10.472 13.879 10.899 12.64 C 10.958 12.01 10.97 10.335 10.543 8.683" transform="matrix(1 0 0 1 0 0)" fill="#FFFFFF" stroke="none" />
  <path d="M 8.231 14.362 C 9.369 13.949 8.706 11.552 8.231 10.405 C 7.52 10.267 7.224 10.921 7.164 11.265 C 6.595 13.743 7.639 14.362 8.231 14.362" transform="matrix(1 0 0 1 0 0)" fill="#FFFFFF" stroke="none" />
  <path d="M 9.121 19.523 C 7.84 18.559 7.52 16.827 7.52 16.082 C 8.587 15.049 10.365 16.082 11.077 17.114 C 11.219 15.411 13.388 14.533 15.522 14.705 C 14.669 14.155 14.692 13.673 14.811 13.501 C 12.25 14.189 11.729 13.214 11.788 12.641 L 16.056 10.92 C 17.301 12.469 19.434 16.082 16.589 18.146 C 14.313 19.798 14.692 21.817 15.167 22.62 C 12.321 23.308 9.95 22.907 9.121 22.62 L 9.121 21.072 C 10.116 19.833 12.381 19.752 13.388 19.867 C 12.677 18.904 10.247 19.236 9.121 19.523" transform="matrix(1 0 0 1 0 0)" fill="#FFFFFF" stroke="none" />
  <path d="M 7.365 19.026 C 7.523 19.286 7.708 19.544 7.929 19.784 L 6.806 21.445 C 6.691 21.615 6.429 21.478 6.502 21.286 L 7.365 19.026 M 17.661 21.164 C 17.738 21.354 17.48 21.496 17.362 21.329 L 16.284 19.82 C 16.432 19.618 16.623 19.409 16.869 19.198 L 17.661 21.164 M 6.393 14.237 C 6.607 14.614 6.888 14.885 7.192 15.067 C 7.066 15.151 6.943 15.25 6.825 15.364 L 6.521 15.659 L 6.521 15.793 L 2.758 17.453 C 2.572 17.535 2.423 17.283 2.583 17.158 L 6.371 14.197 C 6.378 14.21 6.385 14.224 6.393 14.237 M 21.417 17.158 C 21.577 17.283 21.427 17.535 21.241 17.453 L 18.894 16.417 C 18.979 16.031 19.008 15.645 18.993 15.266 L 21.417 17.158 M 17.931 11.259 L 22.852 11.956 C 23.049 11.984 23.049 12.27 22.852 12.298 L 18.429 12.924 C 18.183 12.345 17.882 11.807 17.581 11.337 C 17.681 11.273 17.803 11.241 17.931 11.259 M 6.181 11.082 C 6.036 11.726 5.979 12.303 6.007 12.813 L 1.149 12.125 C 0.951 12.097 0.951 11.81 1.149 11.782 L 6.068 11.086 C 6.107 11.081 6.144 11.079 6.181 11.082 M 21.241 6.547 C 21.427 6.465 21.577 6.717 21.417 6.842 L 17.451 9.939 C 17.201 10.134 16.837 10.06 16.683 9.782 L 16.54 9.525 C 16.54 9.317 16.519 9.1 16.48 8.884 C 16.471 8.837 16.458 8.789 16.447 8.741 C 16.499 8.669 16.569 8.608 16.656 8.569 L 21.241 6.547 M 2.758 6.547 L 7.344 8.569 C 7.623 8.692 7.735 9.03 7.587 9.297 L 7.488 9.474 C 7.173 9.577 6.91 9.763 6.71 9.985 C 6.702 9.995 6.694 10.004 6.686 10.014 C 6.638 9.996 6.591 9.973 6.548 9.939 L 2.583 6.842 C 2.423 6.717 2.572 6.465 2.758 6.547 M 6.502 2.713 C 6.429 2.521 6.691 2.385 6.806 2.555 L 9.633 6.732 C 9.796 6.974 9.73 7.303 9.485 7.461 L 9.081 7.72 C 8.805 7.897 8.437 7.775 8.319 7.469 L 6.502 2.713 M 17.362 2.671 C 17.48 2.505 17.738 2.646 17.661 2.836 L 15.901 7.204 L 15.799 6.997 L 15.695 6.827 C 15.582 6.671 15.449 6.556 15.344 6.477 C 15.229 6.39 15.104 6.315 14.976 6.252 L 14.847 6.194 L 17.362 2.671 M 11.915 1.148 C 11.943 0.951 12.229 0.951 12.257 1.148 L 12.95 6.088 C 12.959 6.151 12.952 6.212 12.94 6.271 C 12.777 6.372 12.628 6.504 12.501 6.671 C 12.481 6.673 12.46 6.679 12.439 6.679 L 11.734 6.679 C 11.419 6.679 11.178 6.4 11.222 6.088 L 11.915 1.148" transform="matrix(1 0 0 1 0 0)" fill="#FFFFFF" stroke="none" />
</svg>
