<?xml version="1.0" encoding="UTF-8"?>
<!-- Reconstructed from Amplitude.Graphics.Svg.SvgAsset and recolored from static UIMapper.Color metadata for EWShop; not original source SVG. Live UI state/material colors are not included. -->
<svg xmlns="http://www.w3.org/2000/svg" width="24" height="24" viewBox="0 0 24 24">
  <path d="M 19.084 4.615 L 23.001 1 L 21.113 1 L 19.084 2.739 L 17.055 1 L 15.291 1 L 19.084 4.615" transform="matrix(1 0 0 1 0 0)" fill="#FFFFFF" stroke="none" />
  <path d="M 13.149 22.652 L 0.876 22.652 L 0.876 20.939 L 13.149 20.939 L 13.149 22.652 M 13.149 18.184 L 3.119 18.184 L 3.119 16.469 L 13.149 16.469 L 13.149 18.184 M 9.876 14.001 L 0.876 14.001 L 0.876 12 L 9.876 12 L 9.876 14.001" transform="matrix(1 0 0 1 0 0)" fill="#FFFFFF" stroke="none" />
  <path d="M 15.374 22.856 C 16.942 22.861 16.998 22.861 17.305 22.717 C 17.687 22.539 18.94 21.31 17.307 20.879 C 15.671 20.449 14.391 19.961 13.948 18.551 L 13.933 18.507 C 13.476 17.05 12.083 12.628 13.01 11.718 C 13.545 10.809 14.919 8.793 16.046 7.138 C 16.612 6.308 17.116 5.568 17.422 5.104 L 13.648 1.507 C 12.897 1.202 12.297 1.04 12.136 1.215 C 11.878 1.498 11.724 1.979 11.72 1.99 C 10.87 4.022 8.696 8.451 6.799 9.922 C 4.426 11.762 4.055 13.166 5.345 14.52 C 6.719 15.962 8.788 18.365 9.319 20.449 C 9.854 22.555 11.069 22.852 13.946 22.852 C 14.526 22.852 14.994 22.854 15.374 22.856" transform="matrix(1 0 0 1 0 0)" fill="#FFFFFF" stroke="none" />
</svg>
