<?xml version="1.0" encoding="UTF-8"?>
<!-- Reconstructed from Amplitude.Graphics.Svg.SvgAsset and recolored from static UIMapper.Color metadata for EWShop; not original source SVG. Live UI state/material colors are not included. -->
<svg xmlns="http://www.w3.org/2000/svg" width="24" height="24" viewBox="0 0 24 24">
  <path d="M 23 23 L 21.113 23 L 19.084 21.261 L 17.055 23 L 15.291 23 L 19.084 19.385 L 23 23" transform="matrix(1 0 0 1 0 0)" fill="#FFFFFF" stroke="none" />
  <path d="M 18.904 8.481 C 19.437 8.339 19.986 8.655 20.129 9.188 L 22.741 18.911 C 22.879 19.426 22.589 19.953 22.089 20.117 L 20.704 18.838 C 20.981 18.515 21.1 18.067 20.982 17.626 C 20.79 16.914 20.057 16.491 19.343 16.682 C 18.71 16.851 18.307 17.445 18.357 18.074 C 18.289 18.112 18.223 18.154 18.16 18.203 L 18.049 18.299 L 14.256 21.914 C 14.14 22.025 14.044 22.152 13.97 22.289 L 12.281 22.741 C 11.747 22.884 11.198 22.567 11.055 22.034 L 8.443 12.311 C 8.299 11.778 8.616 11.23 9.15 11.088 L 18.904 8.481 M 14.519 19.351 C 14.327 18.64 13.594 18.219 12.88 18.409 C 12.167 18.6 11.743 19.331 11.934 20.043 C 12.125 20.754 12.859 21.177 13.573 20.986 C 14.286 20.795 14.71 20.063 14.519 19.351 M 16.884 15.266 C 16.693 14.554 15.959 14.131 15.245 14.322 C 14.532 14.513 14.108 15.244 14.299 15.956 C 14.49 16.668 15.225 17.091 15.939 16.9 C 16.652 16.709 17.075 15.977 16.884 15.266 M 12.786 12.906 C 12.595 12.195 11.861 11.773 11.148 11.964 C 10.434 12.155 10.011 12.886 10.202 13.598 C 10.394 14.309 11.127 14.731 11.84 14.541 C 12.554 14.35 12.978 13.618 12.786 12.906 M 19.25 11.18 C 19.059 10.468 18.325 10.046 17.612 10.236 C 16.898 10.427 16.474 11.158 16.665 11.87 C 16.857 12.582 17.59 13.005 18.304 12.814 C 19.018 12.624 19.441 11.891 19.25 11.18" transform="matrix(1 0 0 1 0 0)" fill="#FFFFFF" stroke="none" />
  <path d="M 4.872 1.034 C 4.339 0.892 3.79 1.209 3.647 1.742 L 1.034 11.465 C 0.891 11.998 1.208 12.546 1.741 12.688 L 9.07 14.646 L 8.443 12.311 C 8.299 11.778 8.615 11.231 9.149 11.088 L 14.01 9.789 L 15.332 4.864 C 15.475 4.331 15.159 3.783 14.625 3.641 L 4.872 1.034 M 2.793 10.179 C 2.984 9.467 3.719 9.045 4.433 9.235 C 5.146 9.426 5.568 10.158 5.377 10.869 C 5.186 11.581 4.453 12.003 3.739 11.812 C 3.026 11.622 2.602 10.89 2.793 10.179 M 6.892 7.819 C 7.083 7.108 7.816 6.685 8.529 6.875 C 9.243 7.066 9.667 7.798 9.476 8.51 C 9.284 9.221 8.551 9.644 7.837 9.453 C 7.124 9.262 6.701 8.531 6.892 7.819 M 10.989 5.46 C 11.181 4.748 11.914 4.326 12.628 4.517 C 13.341 4.708 13.764 5.439 13.573 6.15 C 13.382 6.862 12.648 7.285 11.935 7.095 C 11.221 6.904 10.798 6.172 10.989 5.46" transform="matrix(1 0 0 1 0 0)" fill="#FFFFFF" stroke="none" />
</svg>
