<?xml version="1.0" encoding="UTF-8"?>
<!-- Reconstructed from Amplitude.Graphics.Svg.SvgAsset and recolored from static UIMapper.Color metadata for EWShop; not original source SVG. Live UI state/material colors are not included. -->
<svg xmlns="http://www.w3.org/2000/svg" width="24" height="24" viewBox="0 0 24 24">
  <path d="M 7 17.5 L 9.5 17.5 L 9.5 15.86 C 8.66 14.91 7.87 13.68 7.31 12.32 C 6.89 13.26 5.74 14.82 5.77 15.29 L 7 17.5" transform="matrix(1 0 0 1 0 0)" fill="#FFFFFF" stroke="none" />
  <path d="M 3.21 11.21 C 3.28 12.37 3.95 13.54 5.1 13.35 C 5.89 13.22 6.65 12.8 7.26 12.19 C 6.8 11.02 6.51 9.76 6.51 8.51 C 6.51 5.8 7.37 3.38 8.74 1.73 C 6.33 1.02 3.53 1.98 2.93 5.04 C 2.77 5.87 3.15 6.76 3 7.5 C 2.88 8.11 2.05 8.34 2 9.01 C 2 9.43 2.99 9.99 3 10 C 3.12 10.38 3.18 10.79 3.21 11.21" transform="matrix(1 0 0 1 0 0)" fill="#FFFFFF" stroke="none" />
  <path d="M 16.401 17.5 L 19.001 17.5 L 20.231 15.29 C 20.261 14.82 19.071 13.19 18.661 12.26 C 18.041 13.65 17.161 14.88 16.231 15.86 L 16.391 17.5 L 16.401 17.5" transform="matrix(1 0 0 1 0 0)" fill="#FFFFFF" stroke="none" />
  <path d="M 23 7.5 C 22.85 6.76 23.23 5.87 23.07 5.04 C 22.47 1.98 19.67 1.02 17.27 1.72 C 18.64 3.37 19.5 5.8 19.5 8.5 C 19.5 9.79 19.2 11.02 18.71 12.15 C 19.33 12.78 20.1 13.21 20.91 13.35 C 22.06 13.54 22.73 12.37 22.8 11.21 C 22.83 10.79 22.88 10.38 23.01 10 C 23.01 10 24.02 9.43 24.01 9.01 C 23.96 8.34 23.13 8.12 23.01 7.5 L 23 7.5" transform="matrix(1 0 0 1 0 0)" fill="#FFFFFF" stroke="none" />
  <path d="M 22.23 18.99 C 22.05 18.69 21.72 18.5 21.37 18.5 L 15.57 18.5 C 15.09 18.5 14.67 18.15 14.59 17.68 L 14.19 15.5 C 14.92 15.24 15.56 14.79 16.01 14.19 L 16.55 13.48 C 16.69 13.3 16.77 13.08 16.8 12.86 L 16.88 11.98 C 16.89 11.82 17.04 11.7 17.21 11.7 C 17.33 11.7 17.44 11.64 17.5 11.54 L 18.22 10.27 C 18.46 9.84 18.56 9.35 18.49 8.87 L 18.43 8.5 C 18.42 8.43 18.39 8.35 18.35 8.29 L 18.16 8.01 C 18.11 7.93 17.99 7.9 17.9 7.94 C 17.73 8.02 17.43 7.94 17.51 7.78 C 17.39 6.36 17.61 4.8 16.88 3.78 C 14.8 0.86 12.01 0.78 9.84 3.32 C 8.69 4.53 8.72 6.26 8.72 8.01 C 8.74 8.14 8.41 8.25 8.29 8.17 C 8.2 8.1 8.06 8.15 8.04 8.25 C 7.87 8.94 7.84 9.65 8.01 10.27 C 8.29 10.78 8.41 11.22 8.83 11.58 C 8.87 11.66 8.95 11.7 9.04 11.7 C 9.17 11.7 9.28 11.8 9.28 11.92 L 9.28 12.94 C 9.28 13.24 9.4 13.54 9.62 13.76 L 10.5 14.68 C 10.86 15.06 11.31 15.35 11.81 15.53 L 11.42 17.66 C 11.33 18.14 10.92 18.48 10.44 18.48 L 4.63 18.48 C 4.28 18.48 3.95 18.67 3.77 18.97 L 2.84 20.55 C 2.46 21.2 2.9 22.02 3.66 22.06 L 13 22.48 L 22.34 22.06 C 23.09 22.03 23.54 21.2 23.16 20.55 L 22.23 18.97 L 22.23 18.99 M 13 12.27 L 11.5 10.28 L 13 8 L 13 12.26 L 13 12.27" transform="matrix(1 0 0 1 0 0)" fill="#FFFFFF" stroke="none" />
</svg>
