<?xml version="1.0" encoding="UTF-8"?>
<!-- Reconstructed from Amplitude.Graphics.Svg.SvgAsset and recolored from static UIMapper.Color metadata for EWShop; not original source SVG. Live UI state/material colors are not included. -->
<svg xmlns="http://www.w3.org/2000/svg" width="24" height="24" viewBox="0 0 24 24">
  <path d="M 15.06 7 C 13.82 7 12.72 7.52 12 8.34 C 11.28 7.52 10.17 7 8.94 7 C 6.77 7 5 8.61 5 10.6 C 5 15.8 12 19 12 19 C 12 19 19 15.8 19 10.6 C 19 8.61 17.24 7 15.06 7" transform="matrix(1 0 0 1 0 0)" fill="#FFFFFF" stroke="none" />
  <path d="M 12 1 C 18.08 1 23 5.92 23 12 C 23 18.08 18.08 23 12 23 C 5.92 23 1 18.08 1 12 C 1 5.92 5.92 1 12 1 M 12 2.5 C 6.75 2.5 2.5 6.75 2.5 12 C 2.5 17.25 6.75 21.5 12 21.5 C 17.25 21.5 21.5 17.25 21.5 12 C 21.5 6.75 17.25 2.5 12 2.5" transform="matrix(1 0 0 1 0 0)" fill="#FFFFFF" stroke="none" />
</svg>
