<?xml version="1.0" encoding="UTF-8"?>
<!-- Reconstructed from Amplitude.Graphics.Svg.SvgAsset and recolored from static UIMapper.Color metadata for EWShop; not original source SVG. Live UI state/material colors are not included. -->
<svg xmlns="http://www.w3.org/2000/svg" width="24" height="24" viewBox="0 0 24 24">
  <path d="M 13.356 14.306 L 13.375 14.318 C 13.333 14.315 13.291 14.313 13.249 14.313 L 10.932 14.313 C 10.752 14.313 10.574 14.343 10.406 14.402 L 9.888 14.581 C 8.133 15.19 6.638 16.355 5.668 17.855 C 5.225 18.538 5.463 19.439 6.202 19.837 L 8.103 20.861 L 4.555 20.744 C 4.313 20.736 4.084 20.85 3.955 21.043 L 3.07 22.363 C 2.884 22.64 3.096 23 3.445 23 C 3.552 23 3.655 22.964 3.736 22.898 L 5.2 21.704 L 9.753 22.712 C 10.016 22.77 10.293 22.696 10.484 22.517 C 10.715 22.301 10.778 21.973 10.643 21.695 L 9.071 18.462 L 10.176 17.62 L 11.697 17.425 C 11.881 18.289 12.25 20.044 12.25 20.148 C 12.25 20.24 13.044 21.523 13.578 22.372 C 13.699 22.564 13.909 22.69 14.146 22.715 L 15.014 22.806 L 15.526 22.806 C 15.796 22.806 15.932 22.499 15.741 22.32 L 15.567 22.157 L 14.991 22.157 C 14.673 22.157 14.389 21.971 14.279 21.692 L 13.494 19.694 L 13.909 16.906 L 14.6 17.101 L 14.462 17.944 C 15.706 18.786 16.305 18.808 16.881 18.462 C 17.986 16.492 16.051 16.107 15.014 15.999 L 14.835 15.6 L 16.811 15.48 L 18.869 14.416 L 19.428 14.386 L 20.001 14.062 L 20.001 13.846 L 19.584 13.921 L 20.001 13 L 19.246 13 L 18.869 13.708 L 18.492 14.062 L 16.397 14.649 L 13.356 14.306" transform="matrix(1 0 0 1 0 0)" fill="#FFFFFF" stroke="none" />
  <path d="M 13.664 1.254 C 13.689 1.017 13.263 0.899 13.116 1.109 C 11.839 2.935 11.786 4.321 12.109 5.206 C 11.516 5.503 10.934 5.819 10.367 6.155 C 8.632 5.98 7.646 3.65 7.339 1.889 C 7.298 1.653 6.824 1.599 6.726 1.825 C 5.198 5.342 6.313 7.418 7.372 8.258 C 6.914 8.641 6.475 9.042 6.06 9.463 C 4.936 9.465 4.162 8.355 3.7 7.222 C 3.567 6.896 2.914 6.898 2.865 7.236 C 2.522 9.589 3.441 10.951 4.3 11.572 C 3.876 12.182 3.497 12.825 3.17 13.502 C 2.476 13.144 1.989 12.273 1.692 11.448 C 1.609 11.219 1.155 11.217 1.111 11.452 C 0.685 13.73 1.578 15.008 2.376 15.552 C 2.17 16.247 2.016 16.975 1.918 17.733 C 1.855 18.231 2.246 18.702 2.888 18.811 C 3.355 18.891 3.89 18.949 4.478 18.978 C 4.39 18.447 4.483 17.884 4.789 17.378 C 4.641 17.308 4.548 17.176 4.571 17.028 C 4.906 14.827 6.211 9.603 12.748 7.931 C 13.365 7.773 14.045 7.98 14.276 8.442 C 14.838 9.568 15.071 11.323 13.244 12.792 C 13.1 12.9 12.922 13.079 12.763 13.313 L 13.252 13.313 C 13.323 13.306 13.395 13.304 13.467 13.312 L 14.91 13.475 C 15.029 13.259 15.23 13.058 15.453 12.901 C 16.059 12.475 16.644 11.712 16.901 10.477 C 17.635 10.051 19.054 10.04 19.688 11.162 C 19.841 11.434 19.962 11.715 20.049 12.003 C 20.37 12.019 20.666 12.186 20.841 12.458 C 21.025 12.743 21.052 13.103 20.912 13.412 L 20.907 13.423 C 20.968 13.554 21 13.699 21 13.847 L 21 14.061 C 21 14.422 20.806 14.755 20.493 14.933 L 19.919 15.257 C 19.846 15.298 19.767 15.329 19.686 15.351 C 19.473 15.758 19.201 16.147 18.869 16.504 C 18.82 16.556 18.811 16.708 18.889 16.684 C 19.704 16.422 20.384 16.055 20.908 15.575 C 24.097 12.656 22.706 6.981 18.039 5.634 C 17.727 5.544 17.395 5.461 17.042 5.385 C 17.204 5.194 17.426 5.03 17.707 4.908 C 19.451 4.105 21.414 3.317 22.944 2.74 C 23.044 2.702 23.002 2.59 22.89 2.6 C 22.682 2.616 22.482 2.632 22.29 2.647 C 19.497 2.871 18.276 2.969 14.523 4.122 C 13.662 3.663 13.545 2.371 13.664 1.254" transform="matrix(1 0 0 1 0 0)" fill="#FFFFFF" stroke="none" />
  <path d="M 11.675 10.569 C 11.332 10.221 7.474 12.603 7.629 14.564 C 8.231 14.186 8.878 13.873 9.56 13.637 L 10.078 13.457 C 10.23 13.404 10.387 13.367 10.545 13.344 C 10.624 13.245 10.701 13.152 10.777 13.07 C 13.162 11.426 12.37 10.718 11.675 10.569" transform="matrix(1 0 0 1 0 0)" fill="#FFFFFF" stroke="none" />
</svg>
