<?xml version="1.0" encoding="UTF-8"?>
<!-- Reconstructed from Amplitude.Graphics.Svg.SvgAsset and recolored from static UIMapper.Color metadata for EWShop; not original source SVG. Live UI state/material colors are not included. -->
<svg xmlns="http://www.w3.org/2000/svg" width="24" height="24" viewBox="0 0 24 24">
  <path d="M 17.06 19.38 L 19.08 17.65 L 21.11 19.38 L 23 19.38 L 19.08 15.77 L 15.29 19.38 L 17.06 19.38" transform="matrix(1 0 0 1 0 0)" fill="#FFFFFF" stroke="none" />
  <path d="M 15.29 23 L 17.06 23 L 19.08 21.26 L 21.11 23 L 23 23 L 19.08 19.38 L 15.29 23" transform="matrix(1 0 0 1 0 0)" fill="#FFFFFF" stroke="none" />
  <path d="M 13 20.5 L 15.13 18.23 C 15.02 18.06 14.92 17.86 14.85 17.65 L 14.85 17.61 C 14.39 16.22 12.99 11.99 13.92 11.12 C 14.46 10.25 15.81 8.32 16.94 6.73 C 17.78 5.54 18.48 4.55 18.6 4.35 C 18.87 3.86 18.87 3.54 18.6 3.34 C 18.2 3.11 13.54 0.56 13.05 1.08 C 12.8 1.34 12.64 1.81 12.63 1.83 C 12.2 2.82 11.42 4.41 10.52 5.91 C 10.32 6.24 10.12 6.57 9.91 6.89 C 9.86 6.96 9.81 7.02 9.76 7.1 C 9.61 7.32 9.45 7.55 9.3 7.76 C 8.77 8.46 8.25 9.06 7.73 9.43 C 6.07 10.67 5.41 11.7 5.61 12.66 C 5.61 12.68 5.63 12.7 5.63 12.71 C 5.65 12.83 5.72 12.97 5.78 13.09 C 5.8 13.14 5.83 13.2 5.87 13.26 C 5.98 13.43 6.11 13.61 6.3 13.8 L 6.31 13.8 C 6.49 14 6.69 14.2 6.89 14.41 C 6.9 14.42 6.93 14.46 6.93 14.46 L 6.91 14.46 L 6.92 14.46 C 7.73 15.33 8.63 16.4 9.32 17.5 L 9.34 17.5 C 9.36 17.56 9.4 17.61 9.44 17.67 C 9.55 17.85 9.65 18.04 9.75 18.22 C 9.8 18.32 9.86 18.43 9.91 18.54 L 9.92 18.54 C 10.01 18.74 10.08 18.92 10.14 19.11 C 10.16 19.18 10.19 19.26 10.21 19.33 L 10.21 19.35 C 10.21 19.35 10.25 19.45 10.26 19.48 C 10.8 21.5 12 21.78 14.87 21.78 L 15.24 21.78 L 16.52 20.5 L 13.02 20.5 L 13 20.5" transform="matrix(1 0 0 1 0 0)" fill="#FFFFFF" stroke="none" />
  <path d="M 6.28 13.81 C 6.11 13.64 5.96 13.46 5.85 13.27 C 5.81 13.22 5.79 13.16 5.76 13.1 C 5.7 12.98 5.65 12.86 5.61 12.72 C 5.61 12.7 5.61 12.67 5.61 12.65 C 5.61 12.64 5.6 12.63 5.6 12.62 L 1.68 12.62 L 1.68 14.45 L 6.89 14.45 L 6.85 14.41 C 6.65 14.2 6.46 13.99 6.28 13.81" transform="matrix(1 0 0 1 0 0)" fill="#FFFFFF" stroke="none" />
  <path d="M 9.89 18.55 C 9.84 18.45 9.79 18.34 9.73 18.23 C 9.63 18.05 9.53 17.86 9.42 17.68 C 9.38 17.62 9.33 17.52 9.32 17.51 C 9.32 17.51 9.31 17.49 9.3 17.49 L 1 17.49 L 1 19.32 L 10.18 19.32 C 10.16 19.25 10.13 19.19 10.1 19.12 C 10.04 18.92 9.97 18.74 9.88 18.55 L 9.89 18.55" transform="matrix(1 0 0 1 0 0)" fill="#FFFFFF" stroke="none" />
  <path d="M 3.33 8 L 5.67 8 L 5.67 5.67 L 8 5.67 L 8 3.33 L 5.67 3.33 L 5.67 1 L 3.33 1 L 3.33 3.33 L 1 3.33 L 1 5.67 L 3.33 5.67 L 3.33 8" transform="matrix(1 0 0 1 0 0)" fill="#FFFFFF" stroke="none" />
</svg>
