<?xml version="1.0" encoding="UTF-8"?>
<!-- Reconstructed from Amplitude.Graphics.Svg.SvgAsset and recolored from static UIMapper.Color metadata for EWShop; not original source SVG. Live UI state/material colors are not included. -->
<svg xmlns="http://www.w3.org/2000/svg" width="24" height="24" viewBox="0 0 24 24">
  <path d="M 10.095 10.157 C 11.707 9.226 13.769 9.779 14.7 11.392 C 15.631 13.004 15.078 15.066 13.466 15.997 C 11.853 16.928 9.791 16.375 8.86 14.763 C 7.929 13.15 8.482 11.088 10.095 10.157 M 12.753 12.515 C 12.443 11.978 11.755 11.793 11.218 12.104 C 10.681 12.414 10.497 13.101 10.807 13.639 C 11.117 14.176 11.804 14.36 12.342 14.05 C 12.879 13.74 13.063 13.052 12.753 12.515" transform="matrix(1 0 0 1 0 0)" fill="#FFFFFF" stroke="none" />
  <path d="M 1.343 16.611 C 3.722 8.907 10.953 4.401 18.764 5.561 C 18.872 5.597 18.984 5.615 19.097 5.613 C 19.919 5.752 20.748 5.954 21.577 6.222 C 21.623 6.528 21.659 6.832 21.687 7.133 L 21.344 7.001 L 20.305 8.326 L 18.329 7.49 L 16.46 9.503 L 18.26 9.111 L 20.663 10.077 L 21.75 8.69 C 21.734 10.205 21.486 11.623 21.047 12.921 L 19.868 10.555 L 17.303 10.706 L 19.231 11.805 L 20.481 14.315 C 17.243 21.106 8.423 23.829 1.207 18.336 L 1.434 17.904 L 3.608 19.155 L 4.985 16.679 L 6.658 16.099 L 4.576 15.202 L 3.198 17.679 L 1.343 16.611 M 16.47 10.37 C 14.975 7.781 11.664 6.893 9.074 8.388 C 6.485 9.883 5.597 13.195 7.092 15.784 C 8.587 18.374 11.899 19.262 14.488 17.767 C 17.078 16.272 17.965 12.96 16.47 10.37" transform="matrix(1 0 0 1 0 0)" fill="#FFFFFF" stroke="none" />
  <path d="M 19.083 2.739 L 21.112 1 L 23 1 L 19.083 4.614 L 15.291 1 L 17.055 1 L 19.083 2.739" transform="matrix(1 0 0 1 0 0)" fill="#FFFFFF" stroke="none" />
  <path d="M 9.864 9.759 C 11.697 8.701 14.041 9.329 15.099 11.161 C 16.157 12.994 15.529 15.337 13.696 16.396 C 11.864 17.454 9.52 16.826 8.462 14.993 C 7.404 13.161 8.032 10.817 9.864 9.759" transform="matrix(1 0 0 1 0 0)" fill="none" stroke="#FFFFFF" stroke-width="1" />
</svg>
