<?xml version="1.0" encoding="UTF-8"?>
<!-- Reconstructed from Amplitude.Graphics.Svg.SvgAsset and recolored from static UIMapper.Color metadata for EWShop; not original source SVG. Live UI state/material colors are not included. -->
<svg xmlns="http://www.w3.org/2000/svg" width="33" height="33" viewBox="0 0 33 33">
  <path d="M 16.5 2.153 C 11.438 2.153 7.334 6.256 7.334 11.317 C 7.334 13.954 8.448 16.331 10.23 18.003 L 9.957 19.096 L 4.982 17.882 C 4.059 17.656 3.126 18.222 2.9 19.145 C 2.675 20.069 3.24 21 4.164 21.225 L 6.189 21.721 C 6.78 20.762 8.003 20.359 9.064 20.823 L 12.041 22.126 C 12.577 21.744 12.986 21.176 13.158 20.487 L 13.281 20.001 L 13.371 20.96 L 13.371 22.708 L 17.123 24.35 L 19.549 23.29 L 19.549 20.477 L 19.582 19.952 C 19.62 19.938 19.659 19.923 19.697 19.909 L 19.842 20.487 C 20.069 21.394 20.706 22.093 21.506 22.432 L 23.865 21.399 C 24.734 21.019 25.712 21.22 26.361 21.831 L 28.836 21.225 C 29.76 21 30.325 20.069 30.1 19.145 C 29.874 18.222 28.941 17.656 28.018 17.882 L 23.043 19.096 L 22.77 18.003 C 24.552 16.331 25.664 13.954 25.664 11.317 C 25.664 6.256 21.562 2.153 16.5 2.153 M 16.5 3.3 C 20.928 3.3 24.518 6.889 24.518 11.317 C 24.518 13.389 23.731 15.277 22.441 16.7 L 22.111 15.378 C 21.919 14.609 21.417 13.955 20.725 13.569 L 18.324 12.231 C 18.963 11.705 19.369 10.909 19.369 10.016 C 19.369 8.432 18.085 7.147 16.5 7.147 C 14.915 7.147 13.631 8.432 13.631 10.016 C 13.631 10.909 14.039 11.705 14.678 12.231 L 12.275 13.569 C 11.583 13.955 11.081 14.609 10.889 15.378 L 10.559 16.7 C 9.269 15.277 8.482 13.389 8.482 11.317 C 8.482 6.889 12.072 3.3 16.5 3.3 M 8.166 21.204 C 7.495 21.196 6.852 21.584 6.566 22.237 C 6.185 23.108 6.582 24.122 7.453 24.503 L 20.303 30.126 C 21.174 30.507 22.189 30.11 22.57 29.239 C 22.951 28.368 22.555 27.353 21.684 26.971 L 8.834 21.348 C 8.616 21.253 8.39 21.207 8.166 21.204 M 24.764 21.78 C 24.54 21.783 24.313 21.829 24.096 21.925 L 17.84 24.663 L 21.914 26.446 C 21.985 26.477 22.053 26.51 22.119 26.548 L 25.477 25.079 C 26.348 24.698 26.744 23.684 26.363 22.813 C 26.077 22.16 25.435 21.772 24.764 21.78 M 12.113 27.169 L 11.246 27.548 C 10.375 27.929 9.978 28.944 10.359 29.815 C 10.741 30.686 11.756 31.083 12.627 30.702 L 16.408 29.048 L 12.113 27.169" transform="matrix(1 0 0 1 0 0)" fill="#FFFFFF" stroke="none" />
</svg>
