<?xml version="1.0" encoding="UTF-8"?>
<!-- Reconstructed from Amplitude.Graphics.Svg.SvgAsset and recolored from static UIMapper.Color metadata for EWShop; not original source SVG. Live UI state/material colors are not included. -->
<svg xmlns="http://www.w3.org/2000/svg" width="24" height="24" viewBox="0 0 24 24">
  <path d="M 5.753 16.988 C 6.674 18.045 7.421 18.642 8.721 19.18 C 10.621 19.965 11.649 20.268 13.65 19.724 C 15.507 19.219 17.049 18.521 18.264 16.99 L 18.658 17.718 L 18.049 18.3 L 13.365 22.763 C 12.73 22.956 12.158 23.092 11.874 23.077 C 11.206 23.044 9.203 22.335 8.541 22.018 C 6.968 21.264 6.014 19.889 4.913 18.596 L 5.753 16.988" transform="matrix(1 0 0 1 0 0)" fill="#FFFFFF" stroke="none" />
  <path d="M 23 23.001 L 21.113 23.001 L 19.084 21.262 L 17.055 23.001 L 15.291 23.001 L 19.084 19.386 L 23 23.001" transform="matrix(1 0 0 1 0 0)" fill="#FFFFFF" stroke="none" />
  <path d="M 12.094 11.404 L 12.295 11.332 L 19.61 8.718 C 19.401 9.106 19.139 9.495 18.874 9.891 C 18.264 10.798 17.633 13.112 17.556 14.144 C 17.542 14.329 17.573 14.666 17.602 14.976 C 17.631 15.289 17.658 15.574 17.632 15.645 C 17.599 15.732 16.553 16.901 16.392 17.048 C 15.672 17.705 13.055 18.765 12.105 18.842 C 10.875 18.94 8.048 17.511 7.16 16.577 C 6.364 15.741 6.379 15.601 6.434 15.111 C 6.455 14.919 6.482 14.671 6.469 14.307 C 6.43 13.265 5.63 10.699 4.937 9.67 C 4.706 9.326 4.487 8.999 4.312 8.703 L 12.094 11.404" transform="matrix(1 0 0 1 0 0)" fill="#FFFFFF" stroke="none" />
  <path d="M 9.162 2.856 C 9.213 2.97 9.566 3.066 9.605 3.135 L 11.484 3.697 L 11.484 9.909 L 4.706 7.557 C 4.885 7.162 5.063 6.764 5.137 6.297 C 5.381 4.766 4.947 3.414 4.498 2.013 C 4.421 1.772 4.343 1.53 4.269 1.286 L 6.165 0.972 L 9.162 2.856" transform="matrix(1 0 0 1 0 0)" fill="#FFFFFF" stroke="none" />
  <path d="M 17.894 0.924 C 18.75 1.092 19.586 1.292 19.605 1.382 C 18.952 3.493 18.389 5.552 19.194 7.579 L 12.697 9.901 L 12.697 3.572 L 14.376 3.135 L 14.718 2.921 L 17.894 0.924" transform="matrix(1 0 0 1 0 0)" fill="#FFFFFF" stroke="none" />
  <path d="M 3.17 2.065 C 3.853 4.174 4.571 6.35 2.783 8.15 C 2.381 7.634 0.391 6.94 0.364 6.374 C 0.317 5.37 2.06 2.455 3.17 2.065" transform="matrix(1 0 0 1 0 0)" fill="#FFFFFF" stroke="none" />
  <path d="M 20.848 2.065 C 22.332 3.101 23.145 4.696 23.638 6.399 C 23.656 6.772 21.493 7.845 21.078 8.147 C 19.535 6.282 20.013 4.122 20.848 2.065" transform="matrix(1 0 0 1 0 0)" fill="#FFFFFF" stroke="none" />
</svg>
