<?xml version="1.0" encoding="UTF-8"?>
<!-- Reconstructed from Amplitude.Graphics.Svg.SvgAsset and recolored from static UIMapper.Color metadata for EWShop; not original source SVG. Live UI state/material colors are not included. -->
<svg xmlns="http://www.w3.org/2000/svg" width="24" height="24" viewBox="0 0 24 24">
  <path d="M 5.753 16.988 C 6.674 18.045 7.421 18.642 8.721 19.18 C 10.23 19.803 11.188 20.121 12.522 19.953 L 11.543 20.887 L 15.335 20.887 L 13.365 22.763 C 12.73 22.956 12.158 23.092 11.874 23.077 C 11.206 23.044 9.203 22.335 8.541 22.018 C 6.968 21.264 6.014 19.889 4.913 18.596 L 5.753 16.988" transform="matrix(1 0 0 1 0 0)" fill="#FFFFFF" stroke="none" />
  <path d="M 18.768 17.918 L 17.055 19.387 L 15.291 19.387 L 15.704 18.992 C 16.675 18.534 17.529 17.916 18.264 16.99 L 18.768 17.918" transform="matrix(1 0 0 1 0 0)" fill="#FFFFFF" stroke="none" />
  <path d="M 23 23 L 21.112 23 L 19.084 21.261 L 17.055 23 L 15.291 23 L 19.084 19.386 L 23 23" transform="matrix(1 0 0 1 0 0)" fill="#FFFFFF" stroke="none" />
  <path d="M 23 19.386 L 21.112 19.386 L 19.084 17.647 L 17.055 19.386 L 15.291 19.386 L 19.084 15.771 L 23 19.386" transform="matrix(1 0 0 1 0 0)" fill="#FFFFFF" stroke="none" />
  <path d="M 11.892 11.333 L 12.093 11.403 L 12.294 11.331 L 19.61 8.717 C 19.401 9.105 19.139 9.494 18.873 9.89 C 18.264 10.798 17.633 13.111 17.556 14.143 C 17.542 14.328 17.573 14.665 17.602 14.975 C 17.606 15.017 17.608 15.06 17.611 15.101 L 14.454 18.109 C 13.555 18.489 12.602 18.801 12.105 18.841 C 10.875 18.939 8.049 17.51 7.16 16.576 C 6.364 15.74 6.379 15.6 6.434 15.11 C 6.455 14.918 6.482 14.67 6.469 14.306 C 6.43 13.264 5.629 10.698 4.936 9.669 C 4.705 9.325 4.486 8.998 4.311 8.702 L 11.892 11.333" transform="matrix(1 0 0 1 0 0)" fill="#FFFFFF" stroke="none" />
  <path d="M 9.162 2.855 C 9.213 2.969 9.567 3.065 9.605 3.134 L 11.484 3.696 L 11.484 9.908 L 4.706 7.556 C 4.885 7.161 5.063 6.762 5.137 6.296 C 5.381 4.765 4.946 3.413 4.497 2.012 C 4.42 1.772 4.343 1.529 4.269 1.285 L 6.165 0.971 L 9.162 2.855" transform="matrix(1 0 0 1 0 0)" fill="#FFFFFF" stroke="none" />
  <path d="M 17.894 0.923 C 18.75 1.091 19.586 1.291 19.605 1.381 C 18.952 3.492 18.389 5.551 19.194 7.578 L 12.696 9.9 L 12.696 3.571 L 14.376 3.134 L 14.718 2.92 L 17.894 0.923" transform="matrix(1 0 0 1 0 0)" fill="#FFFFFF" stroke="none" />
  <path d="M 3.17 2.064 C 3.853 4.173 4.571 6.349 2.783 8.149 C 2.381 7.633 0.391 6.939 0.364 6.373 C 0.317 5.369 2.06 2.454 3.17 2.064" transform="matrix(1 0 0 1 0 0)" fill="#FFFFFF" stroke="none" />
  <path d="M 20.848 2.064 C 22.332 3.1 23.145 4.695 23.638 6.398 C 23.657 6.771 21.492 7.845 21.077 8.146 C 19.534 6.281 20.013 4.121 20.848 2.064" transform="matrix(1 0 0 1 0 0)" fill="#FFFFFF" stroke="none" />
</svg>
