<?xml version="1.0" encoding="UTF-8"?>
<!-- Reconstructed from Amplitude.Graphics.Svg.SvgAsset and recolored from static UIMapper.Color metadata for EWShop; not original source SVG. Live UI state/material colors are not included. -->
<svg xmlns="http://www.w3.org/2000/svg" width="24" height="24" viewBox="0 0 24 24">
  <path d="M 17.99 5.658 L 17.99 12.368 C 17.99 14.763 16.663 17.62 12.214 19.683 C 10.075 18.946 6.01 15.905 6.01 12.368 L 6.01 5.658 L 12.214 4 L 17.99 5.658 M 12.161 5.4 L 12.161 18.283 C 10.556 17.694 7.508 15.124 7.508 12.295 L 7.508 6.726 L 12.161 5.4" transform="matrix(1 0 0 1 0 0)" fill="#FFFFFF" stroke="none" />
  <path d="M 21.983 5.289 L 21.983 2.842 L 19.576 2.132 L 19.012 4.05 L 19.986 4.338 L 19.986 5.289 L 21.983 5.289 M 14.763 0.711 L 14.199 2.629 L 12.337 2.079 L 10.3 2.639 L 9.772 0.711 L 12.357 0 L 14.763 0.711 M 4.602 2.132 L 5.13 4.06 L 4.014 4.367 L 4.014 5.289 L 2.017 5.289 L 2.017 2.842 L 4.602 2.132 M 2.017 10.184 L 4.014 10.184 C 4.014 11.492 3.879 12.871 4.207 14.152 L 2.273 14.649 C 1.901 13.196 2.017 11.67 2.017 10.184 M 4.104 18.255 L 5.679 17.026 C 6.384 17.932 7.265 18.759 8.225 19.486 L 7.02 21.081 C 5.954 20.273 4.938 19.328 4.104 18.255 M 10.485 23.205 L 11.36 21.408 C 11.676 21.562 11.978 21.699 12.263 21.819 C 12.575 21.661 12.876 21.504 13.165 21.346 L 14.118 23.104 C 13.567 23.404 12.98 23.703 12.357 24 C 11.798 23.802 11.162 23.536 10.485 23.205 M 17.435 20.974 L 16.215 19.391 C 17.272 18.574 18.039 17.778 18.593 17.011 L 20.211 18.183 C 19.527 19.131 18.618 20.06 17.435 20.974 M 21.983 10.184 L 19.986 10.184 C 19.986 11.513 20.099 12.894 19.838 14.205 L 21.796 14.596 C 22.084 13.151 21.983 11.649 21.983 10.184" transform="matrix(1 0 0 1 0 0)" fill="#FFFFFF" stroke="none" />
</svg>
