<?xml version="1.0" encoding="UTF-8"?>
<!-- Reconstructed from Amplitude.Graphics.Svg.SvgAsset and recolored from static UIMapper.Color metadata for EWShop; not original source SVG. Live UI state/material colors are not included. -->
<svg xmlns="http://www.w3.org/2000/svg" width="24" height="24" viewBox="0 0 24 24">
  <path d="M 22.99 19.558 L 21.674 22.064 L 18.521 17.851 L 22.99 19.558" transform="matrix(1 0 0 1 0 0)" fill="#FFFFFF" stroke="none" />
  <path d="M 2.485 21.724 L 1.037 19.899 L 6.064 17.131 L 2.485 21.724" transform="matrix(1 0 0 1 0 0)" fill="#FFFFFF" stroke="none" />
  <path d="M 7.235 6.743 L 1.787 3.229 L 4.243 0.656 L 7.235 6.743" transform="matrix(1 0 0 1 0 0)" fill="#FFFFFF" stroke="none" />
  <path d="M 12.625 7.261 L 13.572 5.049 L 15.059 6.465 L 15.434 8.161 L 16.297 7.646 L 18.186 9.445 L 17.856 10.035 L 23.214 10.642 L 17.536 14.182 L 22.32 17.371 L 16.867 16.51 L 19.354 23.176 L 14.538 18.455 L 13.104 21.262 L 11.636 17.882 L 6.183 22.347 L 8.063 15.648 L 5.098 16.096 L 7.171 14.532 L 1.175 11.024 L 7.362 11.312 L 5.735 7.866 L 9.627 8.887 L 8.255 1.615 L 12.625 7.261 M 11.265 11.176 L 9.855 10.807 L 10.444 12.054 L 8.204 11.95 L 10.376 13.22 L 9.625 13.786 L 10.699 13.624 L 10.018 16.05 L 11.992 14.433 L 12.523 15.657 L 13.043 14.641 L 14.811 16.408 L 13.887 13.937 L 15.861 14.248 L 14.129 13.093 L 16.185 11.812 L 14.244 11.592 L 14.753 9.305 L 13.39 10.807 L 12.974 9.132 L 12.351 10.587 L 10.769 8.543 L 11.265 11.176" transform="matrix(1 0 0 1 0 0)" fill="#FFFFFF" stroke="none" />
  <path d="M 19.084 6.354 L 21.113 4.614 L 23 4.614 L 19.084 8.229 L 15.291 4.614 L 17.055 4.614 L 19.084 6.354" transform="matrix(1 0 0 1 0 0)" fill="#FFFFFF" stroke="none" />
  <path d="M 19.084 2.739 L 21.113 1 L 23 1 L 19.084 4.614 L 15.291 1 L 17.055 1 L 19.084 2.739" transform="matrix(1 0 0 1 0 0)" fill="#FFFFFF" stroke="none" />
</svg>
