<?xml version="1.0" encoding="UTF-8"?>
<!-- Reconstructed from Amplitude.Graphics.Svg.SvgAsset and recolored from static UIMapper.Color metadata for EWShop; not original source SVG. Live UI state/material colors are not included. -->
<svg xmlns="http://www.w3.org/2000/svg" width="24" height="24" viewBox="0 0 24 24">
  <path d="M 16.57 4.67 C 17.96 4.68 18.76 2.04 17.28 2.04 L 15.57 2.04 C 14.26 2.04 15.12 4.66 16.57 4.67" transform="matrix(1 0 0 1 0 0)" fill="#FFFFFF" stroke="none" />
  <path d="M 17.85 7.38 C 18.13 7.38 18.71 7.17 18.82 6.34 C 18.93 5.57 18.55 5.28 18.21 5.15 C 18.17 5.13 18.11 5.17 18.09 5.21 C 17.96 5.48 17.45 5.89 16.46 5.89 C 15.47 5.89 14.9 5.42 14.76 5.05 C 14.74 5.01 14.71 4.99 14.67 4.99 C 14.4 5.01 14.06 5.14 13.95 5.9 C 13.84 6.74 14.53 7.07 14.85 7.21 C 13.85 11.35 10.48 12.72 9 12.83 L 9 13.04 C 9 14.46 9 17.08 9.88 19.22 C 11.19 22.42 14.26 23.79 18.69 22.51 C 22.84 21.32 23 16.48 23 13.45 C 20.1 12.73 18.35 9.09 17.85 7.37 L 17.85 7.38 M 17.54 21.92 C 17.54 21.92 17.52 21.94 17.51 21.95 C 17.3 22 17.08 22.03 16.86 22.06 L 16.83 22.06 C 16.01 22.17 15.14 22.13 14.25 21.95 C 13.93 21.88 13.62 21.78 13.34 21.66 C 13.25 21.62 13.18 21.57 13.09 21.53 C 12.9 21.44 12.71 21.35 12.54 21.24 C 12.44 21.18 12.36 21.09 12.28 21.03 C 12.14 20.92 11.99 20.82 11.87 20.69 C 11.78 20.61 11.7 20.51 11.62 20.41 C 11.51 20.28 11.39 20.16 11.3 20.03 C 11.22 19.93 11.16 19.81 11.09 19.7 C 11 19.56 10.91 19.43 10.83 19.29 C 10.77 19.17 10.71 19.04 10.65 18.91 C 10.58 18.76 10.51 18.62 10.45 18.47 C 10.4 18.34 10.35 18.19 10.31 18.07 C 10.26 17.91 10.2 17.77 10.15 17.6 C 10.11 17.46 10.08 17.32 10.04 17.17 C 10 17.03 9.96 16.9 9.94 16.77 C 9.94 16.72 9.91 16.69 9.9 16.64 C 9.67 15.53 9.59 14.36 9.59 13.29 C 12.01 12.85 14.22 10.72 14.8 9.66 C 14.51 10.73 13.75 11.76 12.99 12.56 C 13.04 12.73 13.1 12.88 13.16 13.04 C 13.2 13.16 13.25 13.29 13.29 13.41 C 13.35 13.57 13.42 13.7 13.48 13.85 C 13.53 13.96 13.58 14.08 13.63 14.19 C 13.7 14.34 13.78 14.47 13.86 14.6 C 13.91 14.7 13.96 14.8 14.03 14.89 C 14.12 15.03 14.21 15.16 14.31 15.28 C 14.37 15.36 14.42 15.45 14.48 15.53 C 14.59 15.67 14.72 15.79 14.84 15.92 C 14.9 15.98 14.95 16.05 15.01 16.1 C 15.16 16.24 15.33 16.36 15.49 16.48 C 15.53 16.52 15.58 16.55 15.63 16.59 C 16.08 16.88 16.6 17.13 17.2 17.32 C 17.57 17.43 17.96 17.52 18.41 17.59 C 18.44 17.59 18.44 17.59 18.45 17.59 C 18.45 17.55 18.3 17.44 18.09 17.28 L 18.01 17.22 C 17.57 16.88 16.89 16.33 16.3 15.69 C 16.23 15.62 16.19 15.54 16.18 15.47 C 16.14 15.27 16.34 15.12 16.57 15.19 C 16.76 15.27 16.96 15.36 17.14 15.44 C 17.5 15.6 17.87 15.75 18.22 15.9 C 18.25 15.92 18.3 15.94 18.33 15.95 C 18.47 16.01 18.61 16.06 18.75 16.11 C 18.81 16.13 18.87 16.16 18.93 16.17 C 19.06 16.22 19.19 16.25 19.33 16.3 C 19.4 16.32 19.47 16.35 19.54 16.36 C 19.67 16.4 19.8 16.42 19.93 16.46 C 20 16.48 20.08 16.5 20.15 16.52 C 20.3 16.55 20.45 16.57 20.6 16.59 C 20.66 16.59 20.71 16.61 20.77 16.62 C 20.95 16.64 21.14 16.66 21.33 16.66 L 21.42 16.66 C 21.64 16.66 21.86 16.66 22.08 16.64 L 22.11 16.64 C 21.84 19.51 19.96 21.38 17.5 21.94 L 17.54 21.92" transform="matrix(1 0 0 1 0 0)" fill="#FFFFFF" stroke="none" />
  <path d="M 5.03 17.32 C 4.89 17.23 4.76 17.13 4.64 17.03 L 5.42 16.29 C 5.5 16.36 5.59 16.42 5.68 16.48 L 7.59 17.79 L 7.03 14.3 C 6.73 12.43 7.91 10.65 9.74 10.19 C 11.36 9.78 12.5 8.33 12.5 6.66 L 12.5 6 C 12.5 5.94 12.51 5.89 12.52 5.84 C 11.78 5.46 11.07 5.02 10.41 4.53 L 10.41 3.17 C 11.14 3.79 11.94 4.34 12.79 4.8 C 12.97 4.35 13.21 3.93 13.51 3.56 C 12.29 2.92 11.15 2.14 10.11 1.24 C 9.77 0.94 9.24 0.94 8.89 1.24 C 7 2.86 4.76 4.1 2.32 4.86 L 1.72 5.05 C 1.29 5.18 1 5.56 1 5.99 L 1 12.52 C 1 14.86 2.18 17.06 4.18 18.43 L 8.12 21.14 L 7.82 19.24 L 5.03 17.32 M 3.39 15.69 C 2.7 14.69 2.32 13.51 2.32 12.29 L 2.32 7.2 C 2.32 6.64 2.7 6.15 3.26 5.97 L 3.73 5.82 C 5.5 5.27 7.14 4.38 8.53 3.2 L 8.53 4.56 C 7.2 5.55 5.69 6.31 4.08 6.81 L 3.61 6.96 C 3.5 6.99 3.43 7.09 3.43 7.2 L 3.43 12.29 C 3.43 13.23 3.7 14.15 4.2 14.94 L 3.4 15.7 L 3.39 15.69" transform="matrix(1 0 0 1 0 0)" fill="#FFFFFF" stroke="none" />
</svg>
