<?xml version="1.0" encoding="UTF-8"?>
<!-- Reconstructed from Amplitude.Graphics.Svg.SvgAsset and recolored from static UIMapper.Color metadata for EWShop; not original source SVG. Live UI state/material colors are not included. -->
<svg xmlns="http://www.w3.org/2000/svg" width="24" height="24" viewBox="0 0 24 24">
  <path d="M 20.998 2.371 L 16.491 9.884 L 19.359 12.753 L 14.1 10.362 L 2.464 21.998 L 1.371 21.998 L 1.371 20.906 L 13.007 9.269 L 10.617 4.01 L 13.497 6.89 L 13.928 9.442 L 20.998 2.371" transform="matrix(1 0 0 1 0 0)" fill="#FFFFFF" stroke="none" />
  <path d="M 19.084 15.771 L 23.001 19.385 L 21.113 19.385 L 19.084 17.646 L 17.055 19.385 L 15.291 19.385 L 19.084 15.771" transform="matrix(1 0 0 1 0 0)" fill="#FFFFFF" stroke="none" />
  <path d="M 19.084 19.385 L 23.001 23 L 21.113 23 L 19.084 21.261 L 17.055 23 L 15.291 23 L 19.084 19.385" transform="matrix(1 0 0 1 0 0)" fill="#FFFFFF" stroke="none" />
  <path d="M 19.095 10.367 L 18.379 9.651 L 18.932 8.73 L 22.841 10.243 L 19.095 10.367" transform="matrix(1 0 0 1 0 0)" fill="#FFFFFF" stroke="none" />
  <path d="M 15.966 12.858 L 14.426 12.158 L 11.388 15.196 L 10.887 21 L 13.5 13.635 L 15.443 17 L 15.443 13.23 L 15.966 12.858" transform="matrix(1 0 0 1 0 0)" fill="#FFFFFF" stroke="none" />
  <path d="M 9.643 12.633 L 13.007 9.269 L 10.617 4.011 L 13.486 6.879 L 20.998 2.372 L 20.186 3.726 L 17.636 6.616 L 18.506 6.524 L 16.491 9.884 L 19.359 12.753 L 14.1 10.362 L 6.84 17.622 L 9.643 12.633" transform="matrix(1 0 0 1 0 0)" fill="#FFFFFF" stroke="none" />
  <path d="M 6.748 13.408 L 2.615 15.112 L 8.958 10.401 L 1 10.243 L 8.75 8.466 L 1.546 5.15 L 9.364 6.616 L 4.16 0.716 L 8.954 3.985 L 11.212 8.944 L 6.748 13.408" transform="matrix(1 0 0 1 0 0)" fill="#FFFFFF" stroke="none" />
  <path d="M 12.618 3.89 L 13.718 4.99 L 17.775 2.556 L 18.612 1.065 L 14.493 4.378 L 13.5 0 L 12.618 3.89" transform="matrix(1 0 0 1 0 0)" fill="#FFFFFF" stroke="none" />
  <path d="M 19.42 7.916 L 23.5 6 L 20.373 6.328 L 19.42 7.916" transform="matrix(1 0 0 1 0 0)" fill="#FFFFFF" stroke="none" />
</svg>
