<?xml version="1.0" encoding="UTF-8"?>
<!-- Reconstructed from Amplitude.Graphics.Svg.SvgAsset and recolored from static UIMapper.Color metadata for EWShop; not original source SVG. Live UI state/material colors are not included. -->
<svg xmlns="http://www.w3.org/2000/svg" width="30" height="30" viewBox="0 0 30 30">
  <path d="M 25.425 21.053 C 25.425 21.053 25.325 21.015 25.275 20.99 C 24.1 20.486 22.813 19.932 21.35 19.932 C 19.888 19.932 18.6 20.486 17.425 20.99 C 17.375 21.015 17.325 21.028 17.275 21.053 C 16.063 21.57 14.963 22.01 13.95 22.01 C 12.938 22.01 11.838 21.57 10.625 21.053 C 10.575 21.028 10.525 21.015 10.488 20.99 C 9.313 20.486 8.025 19.932 6.563 19.932 C 4.688 20.033 2.938 20.6 1.325 21.129 C 1.3 21.129 1.275 21.141 1.238 21.154 L 1.238 23.598 C 1.363 23.56 1.488 23.51 1.613 23.472 C 1.8 23.409 2 23.333 2.2 23.27 C 3.688 22.766 5.525 22.288 6.55 22.288 C 7.575 22.288 8.663 22.729 9.875 23.245 C 9.925 23.27 9.975 23.283 10.025 23.308 C 11.2 23.812 12.488 24.366 13.95 24.366 C 15.413 24.366 16.7 23.812 17.875 23.308 C 17.925 23.283 17.975 23.27 18.025 23.245 C 19.238 22.729 20.338 22.288 21.35 22.288 C 22.363 22.288 23.463 22.729 24.675 23.245 C 24.725 23.27 24.775 23.283 24.825 23.308 C 26 23.812 27.288 24.366 28.75 24.366 L 28.75 22.036 C 27.738 22.036 26.638 21.595 25.425 21.078 L 25.425 21.053" transform="matrix(1 0 0 1 0 0)" fill="#FFFFFF" stroke="none" />
  <path d="M 25.275 25.399 C 24.1 24.895 22.813 24.341 21.35 24.341 C 19.888 24.341 18.6 24.895 17.425 25.399 C 17.375 25.424 17.325 25.437 17.275 25.462 C 16.063 25.979 14.963 26.42 13.95 26.42 C 12.938 26.42 11.838 25.979 10.625 25.462 C 10.575 25.437 10.525 25.424 10.488 25.399 C 9.313 24.895 8.025 24.341 6.563 24.341 C 4.688 24.442 2.938 25.009 1.325 25.538 C 1.3 25.538 1.275 25.55 1.238 25.563 L 1.238 28.007 C 1.363 27.969 1.488 27.919 1.613 27.881 C 1.8 27.818 2 27.742 2.2 27.679 C 3.688 27.175 5.525 26.697 6.55 26.697 C 7.575 26.697 8.663 27.138 9.875 27.654 C 9.925 27.679 9.975 27.692 10.025 27.717 C 11.2 28.221 12.488 28.775 13.95 28.775 C 15.413 28.775 16.7 28.221 17.875 27.717 C 17.925 27.692 17.975 27.679 18.025 27.654 C 19.238 27.138 20.338 26.697 21.35 26.697 C 22.363 26.697 23.463 27.138 24.675 27.654 C 24.725 27.679 24.775 27.692 24.825 27.717 C 26 28.221 27.288 28.775 28.75 28.775 L 28.75 26.445 C 27.738 26.445 26.638 26.004 25.425 25.487 C 25.375 25.462 25.325 25.45 25.275 25.424 L 25.275 25.399" transform="matrix(1 0 0 1 0 0)" fill="#FFFFFF" stroke="none" />
  <path d="M 20.691 1 C 20.834 2.117 21.226 4.301 21.769 5.799 C 22.018 6.467 22.094 7.221 21.855 7.899 C 21.531 8.815 21.188 9.912 20.997 10.809 C 20.797 11.744 20.501 12.927 20.215 13.833 C 19.845 15.019 19.548 16.704 19.385 18.242 C 18.694 18.447 18.044 18.724 17.425 18.99 C 17.375 19.015 17.325 19.028 17.275 19.053 C 16.063 19.57 14.963 20.01 13.95 20.01 C 13.658 20.01 13.358 19.97 13.051 19.906 C 12.583 17.962 11.698 15.754 10.244 14.873 L 10.254 14.864 C 9.548 14.434 8.822 13.89 8.326 13.184 C 7.945 12.64 7.41 12.154 6.733 12.039 C 7.354 11.286 9.261 10.198 11.102 12.526 C 11.398 12.898 11.77 13.212 12.219 13.308 C 14.613 13.795 18.411 13.404 19.461 7.679 C 19.232 5.408 19.165 0.905 20.691 1 M 15.282 5.503 C 16.837 7.192 18.735 9.988 16.971 11.4 C 16.875 11.476 16.779 11.534 16.703 11.572 C 17.609 10.255 16.513 9.034 15.854 8.595 L 15.845 8.585 C 14.557 7.679 14.929 6.152 15.282 5.503 M 17.639 2.937 C 19.299 6.229 18.583 8.691 18.02 9.521 C 18.24 7.555 17.733 7.011 17.361 6.611 L 17.361 6.601 C 17.247 6.477 17.142 6.362 17.075 6.229 C 16.016 3.93 17.009 3.08 17.639 2.937" transform="matrix(1 0 0 1 0 0)" fill="#FFFFFF" stroke="none" />
</svg>
