<?xml version="1.0" encoding="UTF-8"?>
<!-- Reconstructed from Amplitude.Graphics.Svg.SvgAsset and recolored from static UIMapper.Color metadata for EWShop; not original source SVG. Live UI state/material colors are not included. -->
<svg xmlns="http://www.w3.org/2000/svg" width="24" height="24" viewBox="0 0 24 24">
  <path d="M 12 18 C 12 18 6 15.067 6 10.3 C 6 8.477 7.511 7 9.375 7 C 10.435 7 11.381 7.478 12 8.226 C 12.619 7.478 13.565 7 14.625 7 C 16.489 7 18 8.477 18 10.3 C 18 15.067 12 18 12 18" transform="matrix(1 0 0 1 0 0)" fill="#FFFFFF" stroke="none" />
  <path d="M 7.889 5.728 C 10.818 3.07 17.865 3.135 21.318 7.283 C 24.135 10.668 23.309 14.428 22.174 16.627 C 20.591 19.691 17.641 21.758 15.038 22.69 C 12.687 23.533 9.893 23.905 7.048 22.603 L 8.111 22.509 C 12.16 23.285 16.194 21.787 18.857 18.613 C 20.094 17.139 22.385 12.991 19.778 9.241 C 19.581 8.957 19.36 8.695 19.125 8.45 C 18.385 6.706 16.633 5.5 14.625 5.5 C 13.776 5.5 12.975 5.716 12.277 6.094 C 12.124 6.11 11.973 6.129 11.824 6.154 C 11.103 5.739 10.266 5.5 9.375 5.5 C 8.859 5.5 8.359 5.58 7.889 5.728 M 8.836 1.363 C 11.258 0.466 14.064 0.11 17.008 1.45 C 17.079 1.723 16.832 1.558 16.726 1.545 C 15.898 1.446 14.975 1.243 14.168 1.214 C 10.285 1.075 5.036 3.649 3.418 8.582 C 2.557 11.205 3.21 14.371 5.683 16.243 C 6.594 16.932 7.655 17.405 8.74 17.671 C 9.307 18.115 9.84 18.474 10.271 18.742 C 10.578 18.933 10.838 19.081 11.023 19.182 C 11.116 19.232 11.191 19.271 11.245 19.299 C 11.272 19.313 11.295 19.324 11.311 19.332 C 11.318 19.336 11.325 19.34 11.33 19.342 C 11.333 19.343 11.335 19.345 11.337 19.346 L 11.339 19.347 L 11.34 19.347 C 11.341 19.347 11.355 19.319 12 18 C 12 18 11.914 17.958 11.764 17.876 C 11.99 17.85 12.212 17.814 12.428 17.768 C 12.161 17.919 12.002 18 12 18 L 12.66 19.347 L 12.661 19.347 L 12.663 19.346 C 12.665 19.345 12.667 19.343 12.67 19.342 C 12.675 19.34 12.682 19.336 12.689 19.332 C 12.706 19.324 12.728 19.313 12.755 19.299 C 12.809 19.271 12.884 19.233 12.977 19.182 C 13.162 19.081 13.422 18.933 13.73 18.742 C 14.342 18.361 15.166 17.796 15.995 17.061 C 16.435 16.672 16.893 16.215 17.33 15.699 C 17.334 16.06 17.27 16.443 17.115 16.839 C 16.154 19.304 11.866 20.151 9.803 20.078 C 3.518 19.858 -2.451 13.15 2.828 5.817 C 4.363 3.685 6.698 2.153 8.836 1.363 M 11.341 19.348 L 12 19.67 L 12.659 19.348 L 12 18 L 11.341 19.348 M 14.981 12.839 C 15.608 12.957 16.281 13.381 16.745 14.005 C 16.382 14.528 15.966 15.005 15.535 15.433 C 15.744 14.537 15.189 13.662 13.805 13.226 C 13.583 12.949 14.827 12.811 14.981 12.839 M 9.572 7.006 C 9.575 7.006 9.577 7.006 9.579 7.006 C 9.158 7.302 8.821 7.662 8.6 8.087 C 7.805 9.617 9.11 10.257 10.104 10.769 C 10.441 11.246 8.761 10.986 8.615 10.942 C 7.402 10.577 6.663 9.541 6.628 8.382 C 7.24 7.545 8.242 7 9.375 7 L 9.572 7.006" transform="matrix(1 0 0 1 0 0)" fill="#FFFFFF" stroke="none" />
  <path d="M 19.084 4.615 L 23.001 1 L 21.113 1 L 19.084 2.739 L 17.055 1 L 15.291 1 L 19.084 4.615" transform="matrix(1 0 0 1 0 0)" fill="#FFFFFF" stroke="none" />
</svg>
