<?xml version="1.0" encoding="UTF-8"?>
<!-- Reconstructed from Amplitude.Graphics.Svg.SvgAsset and recolored from static UIMapper.Color metadata for EWShop; not original source SVG. Live UI state/material colors are not included. -->
<svg xmlns="http://www.w3.org/2000/svg" width="24" height="24" viewBox="0 0 24 24">
  <path d="M 14.003 19.784 C 13.953 19.686 13.904 19.577 13.845 19.469 C 13.746 19.281 13.648 19.104 13.539 18.916 C 13.5 18.857 13.44 18.748 13.44 18.748 C 13.44 18.748 13.431 18.729 13.421 18.719 L 5.242 18.719 L 5.242 20.544 L 14.299 20.544 C 14.279 20.475 14.249 20.416 14.23 20.347 C 14.17 20.149 14.092 19.972 14.013 19.774 L 14.003 19.784" transform="matrix(1 0 0 1 0 0)" fill="#FFFFFF" stroke="none" />
  <path d="M 22.201 21.106 C 20.593 20.682 19.34 20.218 18.906 18.876 L 18.906 18.837 C 18.452 17.446 17.071 13.233 17.989 12.365 C 18.521 11.497 19.853 9.573 20.968 7.985 C 21.797 6.801 22.487 5.814 22.606 5.607 C 22.872 5.124 22.872 4.798 22.606 4.591 C 22.211 4.364 17.614 1.819 17.13 2.332 C 16.884 2.598 16.726 3.062 16.716 3.072 C 16.351 3.92 15.739 5.203 15.009 6.495 C 15.068 6.88 15.108 7.284 15.108 7.689 C 15.108 10.925 13.036 13.667 10.146 14.674 C 10.234 14.792 10.333 14.92 10.451 15.029 C 10.629 15.216 10.826 15.423 11.024 15.631 C 11.033 15.64 11.043 15.66 11.073 15.68 C 11.872 16.538 12.76 17.604 13.441 18.699 L 13.46 18.699 C 13.48 18.758 13.52 18.807 13.559 18.866 C 13.668 19.054 13.766 19.231 13.865 19.419 C 13.914 19.517 13.973 19.626 14.023 19.735 L 14.033 19.735 C 14.121 19.932 14.19 20.109 14.25 20.307 C 14.269 20.376 14.299 20.455 14.319 20.524 L 14.309 20.524 C 14.309 20.524 14.309 20.544 14.319 20.553 C 14.319 20.553 14.358 20.652 14.368 20.691 C 14.901 22.704 16.085 22.98 18.916 22.98 L 20.317 22.98 C 21.856 22.98 21.905 22.98 22.211 22.842 C 22.586 22.674 23.819 21.5 22.211 21.086 L 22.201 21.106" transform="matrix(1 0 0 1 0 0)" fill="#FFFFFF" stroke="none" />
  <path d="M 13.431 7.215 C 13.431 3.782 10.648 1 7.215 1 C 3.782 1 1 3.782 1 7.215 C 1 10.648 3.782 13.431 7.215 13.431 C 10.648 13.431 13.431 10.648 13.431 7.215 M 2.381 7.215 C 2.381 4.542 4.542 2.381 7.215 2.381 C 8.3 2.381 9.297 2.736 10.106 3.338 L 3.338 10.106 C 2.726 9.297 2.381 8.3 2.381 7.215 M 11.092 4.325 C 11.704 5.134 12.049 6.13 12.049 7.215 C 12.049 9.889 9.889 12.049 7.215 12.049 C 6.13 12.049 5.134 11.694 4.325 11.092 L 11.092 4.325" transform="matrix(1 0 0 1 0 0)" fill="#FFFFFF" stroke="none" />
</svg>
