<?xml version="1.0" encoding="UTF-8"?>
<!-- Reconstructed from Amplitude.Graphics.Svg.SvgAsset and recolored from static UIMapper.Color metadata for EWShop; not original source SVG. Live UI state/material colors are not included. -->
<svg xmlns="http://www.w3.org/2000/svg" width="24" height="24" viewBox="0 0 24 24">
  <path d="M 12 18 C 12 18 6 15.067 6 10.3 C 6 8.477 7.511 7 9.375 7 C 10.435 7 11.381 7.478 12 8.226 C 12.619 7.478 13.565 7 14.625 7 C 16.489 7 18 8.477 18 10.3 C 18 15.067 12 18 12 18" transform="matrix(1 0 0 1 0 0)" fill="#FFFFFF" stroke="none" />
  <path d="M 23.001 4.615 L 19.084 8.229 L 15.291 4.615 L 17.055 4.615 L 19.084 6.354 L 21.113 4.615 L 23.001 4.615" transform="matrix(1 0 0 1 0 0)" fill="#FFFFFF" stroke="none" />
  <path d="M 23.001 1 L 19.084 4.615 L 15.291 1 L 17.055 1 L 19.084 2.739 L 21.113 1 L 23.001 1" transform="matrix(1 0 0 1 0 0)" fill="#FFFFFF" stroke="none" />
  <path d="M 21.733 7.824 C 24.045 11.063 23.249 14.545 22.174 16.628 C 20.591 19.692 17.64 21.758 15.038 22.69 C 12.686 23.533 9.893 23.906 7.048 22.604 L 8.111 22.51 C 12.16 23.286 16.193 21.788 18.857 18.613 C 20.067 17.171 22.286 13.168 19.936 9.483 L 20.101 9.332 L 21.733 7.824 M 13.351 1.225 C 9.582 1.44 4.925 3.988 3.418 8.583 C 2.557 11.206 3.21 14.372 5.682 16.243 C 6.593 16.933 7.654 17.406 8.74 17.672 C 9.307 18.116 9.84 18.475 10.27 18.742 C 10.578 18.933 10.837 19.081 11.023 19.183 C 11.116 19.233 11.191 19.272 11.245 19.3 C 11.272 19.314 11.294 19.325 11.31 19.333 C 11.318 19.337 11.325 19.34 11.33 19.343 C 11.332 19.344 11.335 19.346 11.337 19.347 L 11.339 19.348 L 11.34 19.348 C 11.34 19.347 11.355 19.32 12 18.001 C 11.996 17.999 11.911 17.957 11.763 17.877 C 11.99 17.851 12.212 17.814 12.427 17.769 C 12.16 17.92 12.001 18 12 18.001 L 12.66 19.348 L 12.661 19.348 L 12.663 19.347 C 12.665 19.346 12.667 19.344 12.67 19.343 C 12.675 19.34 12.681 19.337 12.689 19.333 C 12.705 19.325 12.728 19.314 12.755 19.3 C 12.808 19.272 12.884 19.233 12.976 19.183 C 13.162 19.081 13.421 18.933 13.729 18.742 C 14.342 18.361 15.165 17.796 15.995 17.062 C 16.434 16.672 16.893 16.216 17.33 15.699 C 17.334 16.061 17.269 16.444 17.115 16.84 C 16.153 19.304 11.866 20.152 9.802 20.079 C 3.517 19.858 -2.45 13.15 2.828 5.817 C 4.363 3.686 6.698 2.154 8.836 1.363 C 10.028 0.922 11.315 0.612 12.665 0.57 L 13.351 1.225 M 11.341 19.349 L 12 19.671 L 12.659 19.349 L 12 18.001 L 11.341 19.349 M 14.98 12.84 C 15.607 12.958 16.28 13.382 16.745 14.006 C 16.382 14.529 15.965 15.006 15.535 15.434 C 15.743 14.537 15.188 13.663 13.804 13.227 C 13.583 12.949 14.826 12.811 14.98 12.84 M 9.572 7.007 C 9.574 7.007 9.577 7.007 9.579 7.007 C 9.158 7.302 8.82 7.663 8.599 8.088 C 7.806 9.617 9.109 10.258 10.103 10.77 C 10.44 11.247 8.761 10.986 8.615 10.942 C 7.402 10.578 6.663 9.541 6.628 8.383 C 7.24 7.546 8.242 7.001 9.375 7.001 L 9.572 7.007 M 19.084 6.354 L 19.717 5.81 C 20.085 6.071 20.436 6.36 20.761 6.68 L 19.084 8.229 L 18.968 8.119 C 18.476 7.171 17.675 6.41 16.701 5.958 L 15.291 4.614 L 17.054 4.614 L 19.084 6.354 M 14.079 5.532 C 13.433 5.604 12.823 5.799 12.277 6.095 C 12.124 6.11 11.972 6.13 11.824 6.154 C 11.102 5.74 10.266 5.501 9.375 5.501 C 8.858 5.501 8.358 5.58 7.888 5.729 C 8.971 4.746 10.617 4.135 12.436 3.966 L 14.079 5.532 M 15.828 1 C 16.218 1.122 16.612 1.271 17.008 1.451 C 17.078 1.723 16.832 1.559 16.725 1.546 C 16.396 1.506 16.052 1.449 15.706 1.395 L 15.291 1 L 15.828 1" transform="matrix(1 0 0 1 0 0)" fill="#FFFFFF" stroke="none" />
</svg>
