<?xml version="1.0" encoding="UTF-8"?>
<!-- Reconstructed from Amplitude.Graphics.Svg.SvgAsset and recolored from static UIMapper.Color metadata for EWShop; not original source SVG. Live UI state/material colors are not included. -->
<svg xmlns="http://www.w3.org/2000/svg" width="24" height="24" viewBox="0 0 24 24">
  <path d="M 12.007 3 L 12.182 3.059 L 12.2 3.063 C 12.884 3.282 14.027 3.647 15.188 4.259 L 15.923 5.5 L 14.158 8.48 C 13.786 9.107 13.801 9.813 14.083 10.384 C 14.047 10.382 14.01 10.38 13.973 10.38 L 10.028 10.38 C 9.524 10.38 9.045 10.544 8.635 10.834 L 7.067 11.971 L 8.763 13.189 C 9.091 13.421 9.489 13.548 9.887 13.548 L 9.875 13.56 C 10.144 13.56 10.355 13.769 10.356 14.023 L 10.356 20.418 C 10.356 20.824 9.945 21.103 9.559 20.964 L 4.398 19.05 C 4.07 18.934 3.917 18.55 4.045 18.226 C 4.373 17.437 4.876 15.95 4.876 14.337 L 4.876 9.857 C 4.877 5.278 9.971 3.649 11.801 3.063 L 11.819 3.059 L 11.994 3 L 12.007 3" transform="matrix(1 0 0 1 0 0)" fill="#FFFFFF" stroke="none" />
  <path d="M 19.123 14.337 C 19.123 15.95 19.627 17.436 19.954 18.226 C 20.083 18.55 19.932 18.934 19.604 19.05 L 14.441 20.964 C 14.055 21.103 13.645 20.824 13.645 20.418 L 13.645 14.023 C 13.645 13.769 13.857 13.56 14.125 13.56 L 14.113 13.548 C 14.511 13.548 14.91 13.421 15.238 13.189 L 16.935 11.971 L 16.286 11.5 L 19.123 11.5 L 19.123 14.337" transform="matrix(1 0 0 1 0 0)" fill="#FFFFFF" stroke="none" />
  <path d="M 22.123 1 C 22.51 1 22.75 1.422 22.553 1.755 L 20.635 4.99 C 20.449 5.305 20.449 5.696 20.635 6.01 L 22.553 9.245 C 22.75 9.578 22.51 10 22.123 10 L 15.878 10 C 15.491 10 15.25 9.578 15.447 9.245 L 17.364 6.01 C 17.551 5.695 17.551 5.305 17.364 4.99 L 15.447 1.755 C 15.25 1.422 15.491 1 15.878 1 L 22.123 1 M 19.447 5.895 C 19.263 5.526 18.737 5.526 18.553 5.895 L 17.363 8.276 C 17.196 8.609 17.438 9 17.81 9 L 20.192 9 C 20.563 9 20.805 8.609 20.639 8.276 L 19.447 5.895" transform="matrix(1 0 0 1 0 0)" fill="#FFFFFF" stroke="none" />
</svg>
