<?xml version="1.0" encoding="UTF-8"?>
<!-- Reconstructed from Amplitude.Graphics.Svg.SvgAsset and recolored from static UIMapper.Color metadata for EWShop; not original source SVG. Live UI state/material colors are not included. -->
<svg xmlns="http://www.w3.org/2000/svg" width="24" height="24" viewBox="0 0 24 24">
  <path d="M 6.28 13.81 C 6.11 13.64 5.96 13.46 5.85 13.27 C 5.81 13.22 5.79 13.16 5.76 13.1 C 5.7 12.98 5.65 12.86 5.61 12.72 C 5.61 12.7 5.61 12.67 5.61 12.65 C 5.61 12.64 5.6 12.63 5.6 12.62 L 1.68 12.62 L 1.68 14.45 L 6.89 14.45 L 6.85 14.41 C 6.65 14.2 6.46 13.99 6.27 13.81 L 6.28 13.81" transform="matrix(1 0 0 1 0 0)" fill="#FFFFFF" stroke="none" />
  <path d="M 9.89 18.55 C 9.84 18.45 9.79 18.34 9.73 18.23 C 9.63 18.05 9.53 17.86 9.42 17.68 C 9.38 17.62 9.33 17.52 9.32 17.51 C 9.32 17.51 9.31 17.49 9.3 17.49 L 1 17.49 L 1 19.32 L 10.18 19.32 C 10.16 19.25 10.13 19.19 10.1 19.12 C 10.04 18.92 9.97 18.74 9.88 18.55 L 9.89 18.55" transform="matrix(1 0 0 1 0 0)" fill="#FFFFFF" stroke="none" />
  <path d="M 3.33 8 L 5.67 8 L 5.67 5.67 L 8 5.67 L 8 3.33 L 5.67 3.33 L 5.67 1 L 3.33 1 L 3.33 3.33 L 1 3.33 L 1 5.67 L 3.33 5.67 L 3.33 8" transform="matrix(1 0 0 1 0 0)" fill="#FFFFFF" stroke="none" />
  <path d="M 19.08 19.38 L 15.29 23 L 17.06 23 L 19.08 21.26 L 21.11 23 L 23 23 L 19.08 19.38" transform="matrix(1 0 0 1 0 0)" fill="#FFFFFF" stroke="none" />
  <path d="M 14.85 17.64 L 14.85 17.6 C 14.39 16.21 12.99 11.98 13.92 11.11 C 14.46 10.24 15.81 8.31 16.94 6.72 C 17.78 5.53 18.48 4.54 18.6 4.34 C 18.87 3.85 18.87 3.53 18.6 3.33 C 18.2 3.1 13.54 0.55 13.05 1.07 C 12.8 1.33 12.64 1.8 12.63 1.82 C 12.2 2.81 11.42 4.4 10.51 5.9 C 10.31 6.23 10.11 6.56 9.9 6.88 C 9.85 6.95 9.8 7.01 9.75 7.09 C 9.6 7.31 9.44 7.54 9.29 7.75 C 8.76 8.45 8.24 9.05 7.73 9.42 C 6.07 10.66 5.41 11.69 5.6 12.65 C 5.6 12.67 5.62 12.69 5.62 12.7 C 5.64 12.82 5.71 12.96 5.77 13.08 C 5.79 13.13 5.82 13.19 5.86 13.25 C 5.97 13.42 6.1 13.6 6.29 13.79 L 6.3 13.79 C 6.48 13.99 6.68 14.19 6.88 14.4 C 6.89 14.41 6.92 14.45 6.92 14.45 L 6.9 14.45 L 6.91 14.45 C 7.72 15.32 8.62 16.39 9.31 17.49 L 9.33 17.49 C 9.35 17.55 9.39 17.6 9.43 17.66 C 9.54 17.84 9.64 18.03 9.74 18.21 C 9.79 18.31 9.85 18.42 9.9 18.53 L 9.91 18.53 C 10 18.73 10.07 18.91 10.13 19.1 C 10.15 19.17 10.18 19.25 10.2 19.32 L 10.2 19.34 C 10.2 19.34 10.24 19.44 10.25 19.47 C 10.79 21.49 11.99 21.77 14.86 21.77 L 15.14 21.77 L 17.38 19.63 C 16.15 19.25 15.23 18.74 14.86 17.63 L 14.85 17.64" transform="matrix(1 0 0 1 0 0)" fill="#FFFFFF" stroke="none" />
</svg>
