<?xml version="1.0" encoding="UTF-8"?>
<!-- Reconstructed from Amplitude.Graphics.Svg.SvgAsset and recolored from static UIMapper.Color metadata for EWShop; not original source SVG. Live UI state/material colors are not included. -->
<svg xmlns="http://www.w3.org/2000/svg" width="33" height="33" viewBox="0 0 33 33">
  <path d="M 16.499 2.57 C 16.308 2.801 16.041 3.068 15.698 3.352 C 14.056 4.712 10.697 6.439 5.845 6.174 C 5.287 9.781 5.834 17.059 10.866 22.883 C 12.334 24.582 14.183 26.158 16.499 27.482 C 18.815 26.158 20.666 24.582 22.134 22.883 C 27.166 17.059 27.711 9.781 27.153 6.174 C 22.301 6.439 18.944 4.712 17.302 3.352 C 16.959 3.068 16.69 2.801 16.499 2.57 M 8.892 24.539 C 7.267 24.782 5.893 25.103 4.913 25.49 C 4.426 25.683 4.003 25.904 3.692 26.162 C 3.387 26.416 3.114 26.772 3.114 27.23 C 3.114 27.61 3.304 27.921 3.538 28.156 C 3.77 28.39 4.083 28.588 4.437 28.76 C 5.146 29.105 6.138 29.402 7.317 29.645 C 9.686 30.132 12.933 30.43 16.501 30.43 C 20.069 30.43 23.314 30.132 25.683 29.645 C 26.862 29.402 27.853 29.105 28.563 28.76 C 28.917 28.588 29.232 28.39 29.464 28.156 C 29.698 27.921 29.886 27.61 29.886 27.23 C 29.886 26.772 29.613 26.416 29.308 26.162 C 28.997 25.904 28.575 25.683 28.087 25.49 C 27.107 25.103 25.735 24.782 24.11 24.539 L 23.944 25.643 C 25.532 25.88 26.81 26.187 27.677 26.529 C 28.113 26.702 28.413 26.871 28.595 27.021 C 28.745 27.146 28.766 27.217 28.769 27.23 C 28.766 27.242 28.751 27.288 28.671 27.369 C 28.561 27.479 28.37 27.612 28.075 27.756 C 27.487 28.042 26.6 28.316 25.458 28.551 C 23.184 29.019 20.017 29.313 16.501 29.313 C 12.985 29.313 9.816 29.019 7.542 28.551 C 6.4 28.316 5.513 28.042 4.925 27.756 C 4.629 27.612 4.439 27.479 4.329 27.369 C 4.249 27.288 4.234 27.242 4.231 27.23 L 4.231 27.228 C 4.235 27.214 4.257 27.144 4.405 27.021 C 4.587 26.871 4.887 26.701 5.323 26.529 C 6.19 26.187 7.468 25.88 9.056 25.643 L 8.892 24.539" transform="matrix(1 0 0 1 0 0)" fill="#FFFFFF" stroke="none" />
</svg>
