<?xml version="1.0" encoding="UTF-8"?>
<!-- Reconstructed from Amplitude.Graphics.Svg.SvgAsset and recolored from static UIMapper.Color metadata for EWShop; not original source SVG. Live UI state/material colors are not included. -->
<svg xmlns="http://www.w3.org/2000/svg" width="24" height="24" viewBox="0 0 24 24">
  <path d="M 21.141 11.262 L 23.402 11.701 L 21.141 12.141 L 20.701 14.402 L 20.262 12.141 L 18 11.701 L 20.262 11.262 L 20.701 9 L 21.141 11.262" transform="matrix(1 0 0 1 0 0)" fill="#FFFFFF" stroke="none" />
  <path d="M 17.643 4.714 L 21.394 5.678 L 17.643 6.643 L 16.678 10.395 L 15.714 6.643 L 12 5.678 L 15.714 4.714 L 16.678 1 L 17.643 4.714" transform="matrix(1 0 0 1 0 0)" fill="#FFFFFF" stroke="none" />
  <path d="M 5.234 4.05 L 8.284 4.643 L 5.234 5.234 L 4.642 8.284 L 4.05 5.234 L 1 4.643 L 4.05 4.05 L 4.642 1 L 5.234 4.05" transform="matrix(1 0 0 1 0 0)" fill="#FFFFFF" stroke="none" />
  <path d="M 8.881 5.006 C 9.137 4.982 9.384 5.029 9.613 5.145 C 10.172 5.426 10.511 6.026 10.592 6.645 C 10.599 6.702 10.611 7.107 10.611 7.107 C 10.609 7.119 10.5 8.255 10.421 8.385 C 10.349 8.531 10.333 8.707 10.265 8.859 C 10.227 8.943 9.94 9.407 9.935 9.424 C 9.932 9.44 9.935 9.457 9.936 9.473 C 9.967 9.546 10.042 9.596 10.104 9.64 C 10.306 9.782 10.535 9.897 10.747 10.023 C 11.075 10.217 11.408 10.433 11.749 10.599 C 12.017 10.729 12.295 10.77 12.538 10.962 C 13.418 11.661 13.556 13.764 13.658 14.834 C 13.697 15.225 13.742 15.616 13.792 16.005 C 14.029 16.236 14.301 16.428 14.563 16.627 C 15.184 17.1 15.809 17.539 16.485 17.925 L 16.76 18.99 C 16.837 19.116 16.913 19.223 16.957 19.368 C 17.021 19.578 17.008 19.822 16.95 20.048 L 15.802 21.197 C 15.785 21.206 15.768 21.215 15.751 21.224 C 15.471 21.373 15.192 21.534 14.9 21.657 C 14.678 21.749 14.445 21.817 14.216 21.888 C 14.236 21.907 14.255 21.926 14.275 21.946 C 14.398 22.068 14.538 22.237 14.578 22.42 L 14.055 22.944 C 14.029 22.948 14.004 22.954 13.98 22.956 C 13.546 23.007 13.071 22.952 12.638 22.908 C 11.805 22.823 10.979 22.697 10.151 22.578 C 9.8 22.527 9.447 22.455 9.095 22.426 C 8.832 22.387 8.424 22.506 8.154 22.552 L 7.002 22.744 C 6.483 22.824 5.962 22.887 5.44 22.933 C 5.173 22.959 4.904 22.992 4.637 22.998 C 4.306 23.006 3.733 22.984 3.492 22.733 C 3.423 22.661 3.377 22.563 3.378 22.46 C 3.381 22.197 3.652 22.035 3.815 21.872 C 3.068 21.638 2.238 21.395 1.597 20.921 C 1.231 20.651 1.086 20.291 1.018 19.845 C 0.963 19.49 1.034 19.258 1.237 18.97 L 1.682 17.894 C 1.985 17.78 2.555 17.319 2.839 17.109 C 3.285 16.779 3.731 16.447 4.193 16.142 C 4.238 15.848 4.248 15.541 4.274 15.245 C 4.376 14.048 4.512 11.858 5.432 11.037 C 5.635 10.856 5.919 10.763 6.16 10.648 C 6.28 10.591 6.394 10.523 6.508 10.455 C 6.9 10.22 7.74 9.785 8.015 9.462 L 8.03 9.444 C 7.94 9.267 7.814 9.112 7.729 8.93 C 7.647 8.755 7.614 8.566 7.55 8.384 L 7.355 6.945 C 7.371 6.456 7.492 6.003 7.796 5.617 C 8.077 5.258 8.436 5.052 8.881 5.006 M 11.874 14.458 C 11.122 15.784 11.222 17.575 11.672 18.531 C 11.673 18.535 11.766 18.896 11.989 18.896 C 12.654 18.705 13.502 18.593 14.193 18.504 C 14.47 18.467 14.75 18.434 15.029 18.425 C 14.572 18.299 12.818 17.637 12.612 17.267 C 12.534 17.126 12.49 16.95 12.441 16.795 C 12.349 16.52 12.267 16.241 12.193 15.959 C 12.118 15.678 12.053 15.395 11.996 15.11 C 11.974 15.001 11.923 14.514 11.874 14.458 M 6.109 14.46 C 5.957 15.216 5.775 16.566 5.412 17.214 C 5.333 17.355 5.234 17.47 5.102 17.56 C 4.705 17.83 3.692 18.159 3.204 18.322 C 3.071 18.366 2.939 18.422 2.804 18.459 C 3.072 18.487 3.343 18.487 3.611 18.503 C 3.928 18.522 4.246 18.542 4.56 18.585 C 5.051 18.653 5.534 18.758 6.023 18.841 C 6.176 18.805 6.401 18.32 6.405 18.311 C 6.535 17.845 6.93 16.443 6.109 14.46" transform="matrix(1 0 0 1 0 0)" fill="#FFFFFF" stroke="none" />
  <path d="M 19.084 19.385 L 23.001 23 L 21.113 23 L 19.084 21.261 L 17.055 23 L 15.291 23 L 19.084 19.385" transform="matrix(1 0 0 1 0 0)" fill="#FFFFFF" stroke="none" />
</svg>
