<?xml version="1.0" encoding="UTF-8"?>
<!-- Reconstructed from Amplitude.Graphics.Svg.SvgAsset and recolored from static UIMapper.Color metadata for EWShop; not original source SVG. Live UI state/material colors are not included. -->
<svg xmlns="http://www.w3.org/2000/svg" width="24" height="24" viewBox="0 0 24 24">
  <path d="M 5.753 16.987 C 6.674 18.045 7.422 18.64 8.721 19.178 C 10.621 19.963 11.649 20.267 13.651 19.723 C 15.507 19.217 17.049 18.52 18.264 16.989 L 19.07 18.473 C 19.068 18.888 16.511 21.443 15.987 21.746 C 15.293 22.151 12.612 23.113 11.874 23.076 C 11.206 23.043 9.203 22.334 8.541 22.017 C 6.968 21.263 6.014 19.888 4.913 18.595 L 5.753 16.987" transform="matrix(1 0 0 1 0 0)" fill="#FFFFFF" stroke="none" />
  <path d="M 11.892 11.333 L 12.093 11.403 L 12.294 11.331 L 18.018 9.285 L 18.049 9.315 L 18.791 10.023 C 18.208 11.006 17.629 13.158 17.556 14.143 C 17.542 14.328 17.573 14.665 17.602 14.975 C 17.631 15.288 17.658 15.573 17.632 15.644 C 17.599 15.731 16.553 16.9 16.392 17.047 C 15.672 17.704 13.055 18.764 12.105 18.841 C 10.875 18.939 8.049 17.51 7.16 16.576 C 6.364 15.74 6.379 15.6 6.434 15.11 C 6.455 14.918 6.482 14.67 6.469 14.306 C 6.43 13.264 5.629 10.698 4.936 9.669 C 4.705 9.325 4.486 8.998 4.311 8.702 L 11.892 11.333" transform="matrix(1 0 0 1 0 0)" fill="#FFFFFF" stroke="none" />
  <path d="M 9.162 2.855 C 9.213 2.969 9.567 3.065 9.605 3.134 L 11.484 3.696 L 11.484 9.908 L 4.706 7.556 C 4.885 7.161 5.063 6.762 5.137 6.296 C 5.381 4.765 4.946 3.413 4.497 2.012 C 4.42 1.772 4.343 1.529 4.269 1.285 L 6.165 0.971 L 9.162 2.855" transform="matrix(1 0 0 1 0 0)" fill="#FFFFFF" stroke="none" />
  <path d="M 17.035 8.35 L 12.696 9.9 L 12.696 4.213 L 17.035 8.35" transform="matrix(1 0 0 1 0 0)" fill="#FFFFFF" stroke="none" />
  <path d="M 19.084 6.354 L 21.112 4.614 L 23 4.614 L 19.084 8.229 L 15.291 4.614 L 17.055 4.614 L 19.084 6.354" transform="matrix(1 0 0 1 0 0)" fill="#FFFFFF" stroke="none" />
  <path d="M 3.17 2.064 C 3.853 4.173 4.571 6.349 2.783 8.149 C 2.381 7.633 0.391 6.939 0.364 6.373 C 0.317 5.369 2.06 2.454 3.17 2.064" transform="matrix(1 0 0 1 0 0)" fill="#FFFFFF" stroke="none" />
  <path d="M 19.084 2.739 L 21.112 1 L 23 1 L 19.084 4.614 L 15.291 1 L 17.055 1 L 19.084 2.739" transform="matrix(1 0 0 1 0 0)" fill="#FFFFFF" stroke="none" />
</svg>
