<?xml version="1.0" encoding="UTF-8"?>
<!-- Reconstructed from Amplitude.Graphics.Svg.SvgAsset and recolored from static UIMapper.Color metadata for EWShop; not original source SVG. Live UI state/material colors are not included. -->
<svg xmlns="http://www.w3.org/2000/svg" width="24" height="24" viewBox="0 0 24 24">
  <path d="M 8 16.219 C 8.268 15.828 8.91 15.558 9.501 15.311 C 10.046 15.082 10.547 14.872 10.668 14.601 C 11.107 13.623 10.746 13.371 10.355 13.097 C 10.164 12.964 9.966 12.825 9.849 12.595 C 9.342 11.596 10.666 8.734 11.639 8.231 C 12.931 7.564 14.436 8.425 14.789 9.755 C 15.056 10.756 14.51 11.515 14.006 12.216 C 13.564 12.829 13.154 13.398 13.348 14.048 C 13.507 14.585 14.231 14.985 14.897 15.353 C 15.369 15.614 15.811 15.858 16 16.123 L 14.665 20.213 L 11.306 23 L 8.746 19.035 L 8 16.219" transform="matrix(1 0 0 1 0 0)" fill="#FFFFFF" stroke="none" />
  <path d="M 12.001 3.5 L 15.001 1 L 9 1 L 12.001 3.5" transform="matrix(1 0 0 1 0 0)" fill="#FFFFFF" stroke="none" />
  <path d="M 22.493 18.5 L 16.763 13.425 L 16.271 11.182 L 18.357 11.581 L 16.347 10.245 L 17.982 9.037 L 16.008 9.352 L 17.363 7.875 L 16.001 8.456 L 19.993 2 L 18.183 7.982 L 23.001 7 L 18.531 9.598 L 23.001 12.477 L 18.697 12.477 L 22.493 18.5" transform="matrix(1 0 0 1 0 0)" fill="#FFFFFF" stroke="none" />
  <path d="M 6.046 6.826 L 5.773 3.956 L 9.5 8 L 6.209 7.937 L 8.351 10.103 L 5.924 10.893 L 8.513 11.211 L 6.361 12.394 L 8.513 12.394 L 2.127 17.19 L 5.356 11.998 L 1.596 11.703 L 5.398 10.083 L 0.91 5.227 L 6.046 6.826" transform="matrix(1 0 0 1 0 0)" fill="#FFFFFF" stroke="none" />
  <path d="M 12 4.802 L 7.438 1 L 6 1 L 12.001 7 L 18.001 1 L 16.562 1 L 12 4.802" transform="matrix(1 0 0 1 0 0)" fill="#FFFFFF" stroke="none" />
</svg>
