<?xml version="1.0" encoding="UTF-8"?>
<!-- Reconstructed from Amplitude.Graphics.Svg.SvgAsset and recolored from static UIMapper.Color metadata for EWShop; not original source SVG. Live UI state/material colors are not included. -->
<svg xmlns="http://www.w3.org/2000/svg" width="24" height="24" viewBox="0 0 24 24">
  <path d="M 12 9 C 13.657 9 15 10.343 15 12 C 15 13.657 13.657 15 12 15 C 10.343 15 9 13.657 9 12 C 9 10.343 10.343 9 12 9" transform="matrix(1 0 0 1 0 0)" fill="#FFFFFF" stroke="none" />
  <path d="M 3.009 23 L 5.692 20.886 L 7.57 22.831 C 7.691 22.96 7.912 22.87 7.912 22.691 L 7.912 16.637 C 7.912 16.637 7.912 16.567 7.892 16.547 C 7.862 16.488 7.791 16.438 7.711 16.438 L 1.613 16.438 C 1.432 16.438 1.342 16.657 1.472 16.777 L 3.532 18.742 L 1 20.497 C 1.502 21.993 3.009 22.99 3.009 22.99 L 3.009 23" transform="matrix(1 0 0 1 0 0)" fill="#FFFFFF" stroke="none" />
  <path d="M 20.903 23 L 18.22 20.886 L 16.342 22.831 C 16.221 22.96 16 22.87 16 22.691 L 16 16.637 C 16 16.637 16 16.567 16.02 16.547 C 16.05 16.488 16.121 16.438 16.201 16.438 L 22.299 16.438 C 22.48 16.438 22.57 16.657 22.44 16.777 L 20.38 18.742 L 22.912 20.497 C 22.41 21.993 20.903 22.99 20.903 22.99 L 20.903 23" transform="matrix(1 0 0 1 0 0)" fill="#FFFFFF" stroke="none" />
  <path d="M 3.009 1 L 5.692 3.114 L 7.57 1.17 C 7.691 1.04 7.912 1.13 7.912 1.309 L 7.912 7.363 C 7.912 7.363 7.912 7.433 7.892 7.453 C 7.862 7.512 7.791 7.562 7.711 7.562 L 1.613 7.562 C 1.432 7.562 1.342 7.343 1.472 7.223 L 3.532 5.259 L 1 3.503 C 1.502 2.007 3.009 1.01 3.009 1.01 L 3.009 1" transform="matrix(1 0 0 1 0 0)" fill="#FFFFFF" stroke="none" />
  <path d="M 20.903 1 L 18.22 3.114 L 16.342 1.17 C 16.221 1.04 16 1.13 16 1.309 L 16 7.363 C 16 7.363 16 7.433 16.02 7.453 C 16.05 7.512 16.121 7.562 16.201 7.562 L 22.299 7.562 C 22.48 7.562 22.57 7.343 22.44 7.223 L 20.38 5.259 L 22.912 3.503 C 22.41 2.007 20.903 1.01 20.903 1.01 L 20.903 1" transform="matrix(1 0 0 1 0 0)" fill="#FFFFFF" stroke="none" />
  <path d="M 10.837 21.31 C 11.217 21.359 11.605 21.385 12 21.385 L 12 23 C 11.535 23 11.077 22.969 10.628 22.91 L 10.837 21.31 M 13.371 22.91 C 12.922 22.969 12.465 23 12 23 L 12 21.385 C 12.395 21.385 12.783 21.359 13.163 21.31 L 13.371 22.91 M 1.5 12.5 C 1.5 12.047 1.529 11.601 1.584 11.163 L 1.589 11.128 L 3.19 11.337 C 3.141 11.717 3.115 12.105 3.115 12.5 C 3.115 12.895 3.141 13.283 3.19 13.663 L 1.589 13.871 C 1.531 13.422 1.5 12.965 1.5 12.5 M 22.41 11.128 C 22.469 11.577 22.5 12.035 22.5 12.5 C 22.5 12.965 22.469 13.422 22.41 13.871 L 20.81 13.663 C 20.859 13.283 20.885 12.895 20.885 12.5 C 20.885 12.105 20.859 11.717 20.81 11.337 L 22.41 11.128 M 12 2 C 12.465 2 12.922 2.031 13.371 2.089 L 13.163 3.69 C 12.783 3.641 12.395 3.615 12 3.615 C 11.605 3.615 11.217 3.641 10.837 3.69 L 10.628 2.089 C 11.077 2.031 11.535 2 12 2" transform="matrix(1 0 0 1 0 0)" fill="#FFFFFF" stroke="none" />
</svg>
