<?xml version="1.0" encoding="UTF-8"?>
<!-- Reconstructed from Amplitude.Graphics.Svg.SvgAsset and recolored from static UIMapper.Color metadata for EWShop; not original source SVG. Live UI state/material colors are not included. -->
<svg xmlns="http://www.w3.org/2000/svg" width="30" height="30" viewBox="0 0 30 30">
  <path d="M 18.807 14.47 C 19.134 14.157 18.807 13.137 18.12 11.209 C 17.874 10.522 15.579 10.542 16.224 13.137 C 16.224 14.278 17.813 15.995 18.807 14.47" transform="matrix(1 0 0 1 0 0)" fill="#FFFFFF" stroke="none" />
  <path d="M 15.63 15.237 C 15.63 15.237 15.651 15.167 15.671 15.126 C 15.784 14.914 16.05 14.429 15.231 12.38 C 14.831 12.319 14.042 12.572 14.042 14.096 C 14.175 14.793 14.677 16.005 15.63 15.237" transform="matrix(1 0 0 1 0 0)" fill="#FFFFFF" stroke="none" />
  <path d="M 13.643 17.519 C 13.704 16.823 13.725 14.965 13.243 13.137 C 12.054 12.753 10.774 13.935 12.054 17.146 C 12.382 17.843 13.171 18.903 13.643 17.53 L 13.643 17.519" transform="matrix(1 0 0 1 0 0)" fill="#FFFFFF" stroke="none" />
  <path d="M 10.661 15.045 C 9.862 14.894 9.534 15.621 9.472 15.995 C 8.837 18.741 10.005 19.428 10.661 19.428 C 11.932 18.973 11.194 16.318 10.661 15.045" transform="matrix(1 0 0 1 0 0)" fill="#FFFFFF" stroke="none" />
  <path d="M 14.636 17.519 C 14.574 18.155 15.148 19.236 18.017 18.468 C 17.884 18.66 17.853 19.195 18.816 19.801 C 16.429 19.609 14.011 20.579 13.847 22.467 C 13.048 21.326 11.06 20.175 9.871 21.326 C 9.871 22.154 10.23 24.072 11.664 25.143 C 12.925 24.83 15.64 24.456 16.439 25.527 C 15.312 25.395 12.781 25.486 11.664 26.859 L 11.664 28.576 C 12.597 28.889 15.24 29.343 18.427 28.576 C 17.894 27.687 17.474 25.446 20.015 23.618 C 23.192 21.326 20.815 17.327 19.421 15.611 L 14.646 17.519 L 14.636 17.519" transform="matrix(1 0 0 1 0 0)" fill="#FFFFFF" stroke="none" />
  <path d="M 24.402 5.019 C 24.812 7.018 20.611 9.209 20.611 9.209 C 20.611 9.189 20.129 -1.09 10.671 1.384 C 13.653 3.343 11.624 7.271 10.128 8.745 C 6.634 11.209 3.406 8.997 3.908 6.544 C -0.703 13.612 2.371 22.699 4.421 24.719 C 4.718 21.801 6.214 20.013 8.263 18.913 C 7.761 17.954 7.884 16.914 8.232 15.409 C 8.314 15.025 8.509 14.5 8.909 14.056 C 9.278 13.652 9.8 13.339 10.446 13.268 C 10.712 12.471 11.276 11.804 12.055 11.491 C 12.762 11.209 14.37 10.684 15.149 10.613 C 15.436 10.007 15.907 9.573 16.45 9.32 C 17.588 8.795 19.217 9.078 19.77 10.3 C 20.078 11.138 20.395 11.976 20.6 12.844 C 20.672 13.157 20.744 13.521 20.733 13.884 C 20.733 14.137 20.703 14.218 20.867 14.409 C 21.215 14.844 21.543 15.298 21.84 15.773 C 22.373 16.631 22.896 17.671 23.172 18.792 C 23.398 19.711 23.48 20.751 23.193 21.801 C 23.193 21.831 23.172 21.871 23.162 21.902 C 24.258 23.578 25.037 25.305 24.812 26.839 C 29.894 21.255 29.72 10.259 24.402 5.029 L 24.402 5.019" transform="matrix(1 0 0 1 0 0)" fill="#FFFFFF" stroke="none" />
</svg>
