<?xml version="1.0" encoding="UTF-8"?>
<!-- Reconstructed from Amplitude.Graphics.Svg.SvgAsset and recolored from static UIMapper.Color metadata for EWShop; not original source SVG. Live UI state/material colors are not included. -->
<svg xmlns="http://www.w3.org/2000/svg" width="30" height="30" viewBox="0 0 30 30">
  <path d="M 16.37 1.192 C 15.47 0.93 14.52 0.93 13.62 1.192 L 11.57 1.786 C 11.57 1.786 11.5 1.836 11.5 1.886 L 11.5 8.725 C 11.5 8.796 11.56 8.836 11.63 8.826 L 13.63 8.252 C 14.53 7.99 15.48 7.99 16.38 8.252 L 18.38 8.826 C 18.44 8.846 18.51 8.796 18.51 8.725 L 18.51 1.886 C 18.51 1.886 18.48 1.806 18.44 1.786 L 16.39 1.192 L 16.37 1.192" transform="matrix(1 0 0 1 0 0)" fill="#FFFFFF" stroke="none" />
  <path d="M 20.5 2.511 L 20.5 9.269 C 22 10.317 23.19 11.918 23.19 14.285 C 23.19 20.358 21 24.518 19.75 26.119 L 22.25 29 C 24.33 26.653 28.5 20.358 28.5 13.963 C 28.5 7.869 25.23 4.011 20.5 2.511 M 24.5 7.849 C 25.33 7.627 26.41 8.967 26.63 9.813 C 26.85 10.669 26.48 12.009 25.65 12.23 C 24.82 12.452 23.84 11.475 23.61 10.619 C 23.39 9.763 23.66 8.07 24.5 7.849 M 24.5 22.957 C 23.64 22.957 23.19 21.889 23.19 21.003 C 23.19 20.117 24.14 18.928 25 18.928 C 25.86 18.928 26.31 20.117 26.31 21.003 C 26.31 21.889 25.36 22.957 24.5 22.957" transform="matrix(1 0 0 1 0 0)" fill="#FFFFFF" stroke="none" />
  <path d="M 9.5 9.269 L 9.5 2.511 C 4.77 4.011 1.5 7.869 1.5 13.963 C 1.5 20.358 5.67 26.653 7.75 29 L 10.25 26.119 C 9 24.518 6.81 20.358 6.81 14.285 C 6.81 11.918 7.99 10.317 9.5 9.269 M 3.37 9.813 C 3.59 8.957 4.67 7.627 5.5 7.849 C 6.33 8.07 6.61 9.773 6.39 10.619 C 6.17 11.475 5.19 12.452 4.35 12.23 C 3.52 12.009 3.14 10.669 3.37 9.813 M 5.5 22.957 C 4.64 22.957 3.69 21.889 3.69 21.003 C 3.69 20.117 4.14 18.928 5 18.928 C 5.86 18.928 6.81 20.117 6.81 21.003 C 6.81 21.889 6.36 22.957 5.5 22.957" transform="matrix(1 0 0 1 0 0)" fill="#FFFFFF" stroke="none" />
</svg>
