<?xml version="1.0" encoding="UTF-8"?>
<!-- Reconstructed from Amplitude.Graphics.Svg.SvgAsset and recolored from static UIMapper.Color metadata for EWShop; not original source SVG. Live UI state/material colors are not included. -->
<svg xmlns="http://www.w3.org/2000/svg" width="30" height="30" viewBox="0 0 30 30">
  <path d="M 19.52 19.47 C 15.586 15.55 10.601 10.9 7.983 5.44 C 6.88 3.15 6.152 10.3 7.72 12.38 C 8.973 14.06 11.481 16.17 13.968 18.27 C 15.121 19.24 15.617 19.57 16.638 20.49 C 16.496 20.51 16.365 20.54 16.233 20.57 C 12.462 18.15 9.004 15.82 5.869 12.28 C 4.252 10.45 5.071 16.8 7.052 18.33 C 8.64 19.56 11.744 21.11 14.818 22.64 C 14.777 22.71 14.737 22.78 14.707 22.86 C 14.696 22.89 14.676 22.92 14.666 22.96 C 14.666 22.98 14.656 23 14.646 23.01 C 11.693 22.11 8.69 20.95 5.758 19.31 C 3.584 18.09 6.628 23.83 9.044 24.67 C 10.581 25.2 12.836 25.55 15.273 25.87 C 15.394 26.02 15.515 26.16 15.657 26.3 C 13.23 26.28 10.703 26.08 8.185 25.54 C 6.132 25.1 10.136 28.91 12.27 28.98 C 14.878 29.07 18.913 28.81 21.623 28.14 C 20.106 26.53 19.176 24.37 19.176 22 C 19.176 21.12 19.307 20.28 19.54 19.47 L 19.52 19.47" transform="matrix(1 0 0 1 0 0)" fill="#FFFFFF" stroke="none" />
  <path d="M 23.433 1.45 C 23.635 -0.42 20.096 4.01 20.309 5.91 C 20.642 8.84 21.754 10.72 22.705 13.5 C 22.604 13.47 22.493 13.44 22.381 13.41 C 20.753 10.53 19.752 8.6 19.045 5.21 C 18.681 3.46 16.567 7.9 17.316 9.58 C 17.912 10.93 19.429 13.01 20.946 15.06 C 20.885 15.09 20.834 15.13 20.774 15.16 C 20.753 15.18 20.733 15.19 20.703 15.21 C 20.693 15.21 20.683 15.23 20.662 15.24 C 18.964 13.64 17.346 11.85 15.981 9.77 C 15.324 8.76 14.97 10.44 15.172 12.11 C 16.527 13.5 18.711 15.7 20.47 17.33 C 21.512 15.63 23.099 14.3 25 13.58 C 23.979 9.84 22.978 5.7 23.433 1.44 L 23.433 1.45" transform="matrix(1 0 0 1 0 0)" fill="#FFFFFF" stroke="none" />
</svg>
