<?xml version="1.0" encoding="UTF-8"?>
<!-- Reconstructed from Amplitude.Graphics.Svg.SvgAsset and recolored from static UIMapper.Color metadata for EWShop; not original source SVG. Live UI state/material colors are not included. -->
<svg xmlns="http://www.w3.org/2000/svg" width="30" height="30" viewBox="0 0 30 30">
  <path d="M 28.95 15.02 L 27.2 15.56 L 26.49 14.15 C 24.72 15.21 22.9 12.79 21.49 11.37 L 19.37 13.49 C 20.78 14.9 22.55 16.67 25.03 17.73 C 26.09 19.5 23.85 23.19 21.85 25.15 L 23.98 27.28 C 27.52 23.74 29.45 18.91 28.96 15.02 L 28.95 15.02" transform="matrix(1 0 0 1 0 0)" fill="#FFFFFF" stroke="none" />
  <path d="M 26.13 3.89 L 22.21 8.52 L 22.91 9.94 C 23.98 8.31 25.64 7.7 26.48 7.78 L 28.58 1.44 L 22.25 3.53 C 22.6 4.59 21.03 6.37 20.09 7.1 L 21.51 7.8 L 26.14 3.88 L 26.13 3.89" transform="matrix(1 0 0 1 0 0)" fill="#FFFFFF" stroke="none" />
  <path d="M 12.29 5 C 13.35 7.47 15.12 9.24 16.53 10.66 L 18.65 8.54 C 17.24 7.13 14.81 5.31 15.87 3.54 L 14.46 2.83 L 15 1.08 C 12.68 0.79 10.03 1.36 7.51 2.62 C 8.09 3.31 8.79 4.14 9.57 5.07 C 10.62 4.69 11.6 4.6 12.29 5.02 L 12.29 5" transform="matrix(1 0 0 1 0 0)" fill="#FFFFFF" stroke="none" />
  <path d="M 17.27 14.17 L 21.13 10.31 L 21.13 8.89 L 19.72 8.89 L 15.97 12.64 C 16.41 13.16 16.84 13.67 17.27 14.17" transform="matrix(1 0 0 1 0 0)" fill="#FFFFFF" stroke="none" />
  <path d="M 17.39 18.13 C 12.95 13.66 7.32 8.35 4.36 2.12 C 3.12 -0.49 2.3 7.66 4.06 10.04 C 5.48 11.96 8.3 14.37 11.11 16.76 C 12.41 17.87 12.97 18.24 14.12 19.3 C 13.96 19.32 13.81 19.35 13.66 19.39 C 9.4 16.63 5.51 13.97 1.97 9.94 C 0.14 7.85 1.07 15.1 3.3 16.85 C 5.09 18.25 8.59 20.02 12.06 21.77 C 12.01 21.85 11.97 21.93 11.93 22.02 C 11.91 22.06 11.9 22.09 11.89 22.13 C 11.89 22.15 11.88 22.17 11.87 22.19 C 8.54 21.17 5.14 19.84 1.84 17.96 C -0.62 16.56 2.82 23.12 5.55 24.07 C 7.28 24.67 9.83 25.07 12.58 25.44 C 12.71 25.61 12.86 25.77 13.01 25.93 C 10.27 25.9 7.41 25.68 4.57 25.06 C 2.25 24.56 6.77 28.9 9.18 28.99 C 12.12 29.09 16.68 28.8 19.74 28.03 C 18.02 26.19 16.97 23.73 16.97 21.02 C 16.97 20.02 17.12 19.05 17.38 18.14 L 17.39 18.13" transform="matrix(1 0 0 1 0 0)" fill="#FFFFFF" stroke="none" />
</svg>
