<?xml version="1.0" encoding="UTF-8"?>
<!-- Reconstructed from Amplitude.Graphics.Svg.SvgAsset and recolored from static UIMapper.Color metadata for EWShop; not original source SVG. Live UI state/material colors are not included. -->
<svg xmlns="http://www.w3.org/2000/svg" width="30" height="30" viewBox="0 0 30 30">
  <path d="M 11.617 14.86 L 13.075 15.56 L 17.829 11.64 L 13.804 16.27 L 14.523 17.69 C 15.622 16.06 17.326 15.45 18.189 15.53 L 20.335 9.2 L 13.835 11.29 C 14.194 12.35 12.582 14.13 11.617 14.86" transform="matrix(1 0 0 1 0 0)" fill="#FFFFFF" stroke="none" />
  <path d="M 12.295 17 L 10.888 17 L 1 27.51 L 1 29 L 2.489 29 L 12.295 18.4 L 12.295 17" transform="matrix(1 0 0 1 0 0)" fill="#FFFFFF" stroke="none" />
  <path d="M 3.577 13 C 4.655 15.47 6.441 17.24 7.869 18.66 L 10.015 16.54 C 8.587 15.13 6.133 13.31 7.201 11.54 L 5.774 10.83 L 6.318 9.08 C 4.655 8.88 2.827 9.1 0.989 9.7 L 0.989 13.01 C 1.995 12.68 2.909 12.62 3.566 13.01 L 3.577 13" transform="matrix(1 0 0 1 0 0)" fill="#FFFFFF" stroke="none" />
  <path d="M 18.66 23.55 L 17.941 22.14 C 16.155 23.2 14.307 20.78 12.879 19.36 L 10.733 21.48 C 12.161 22.89 13.958 24.66 16.453 25.72 C 16.945 26.53 16.73 27.73 16.175 28.99 L 19.543 28.99 C 20.334 26.94 20.662 24.87 20.426 23.01 L 18.65 23.55 L 18.66 23.55" transform="matrix(1 0 0 1 0 0)" fill="#FFFFFF" stroke="none" />
  <path d="M 28.487 9.96 C 27.912 11.86 23.26 11.86 23.26 11.86 C 23.26 11.86 27.788 3.1 18.455 1.01 C 20.129 4.01 16.391 6.2 14.41 6.79 C 10.251 7.34 8.475 4.01 10.046 2.13 C 7.684 3.43 5.918 5.28 4.655 7.26 C 5.364 7.31 6.052 7.39 6.678 7.47 L 7.982 7.63 L 7.274 9.89 L 8.803 10.75 C 8.352 11.68 7.725 12.21 8.424 13.11 C 8.855 13.67 9.399 13.93 9.974 14.46 C 11.319 13.43 12.941 12.41 12.294 10.5 L 22.049 7.25 L 19.482 17 C 19.482 17 17.942 17 16.915 17.5 C 15.888 18 14.861 19.5 14.861 19.5 C 16.402 21 18.455 20.5 18.455 20.5 L 19.482 22 L 21.515 21.23 C 21.7 22.68 22.028 24.96 21.987 27.03 C 27.152 23.23 30.304 15.68 28.497 9.96 L 28.487 9.96" transform="matrix(1 0 0 1 0 0)" fill="#FFFFFF" stroke="none" />
</svg>
