<?xml version="1.0" encoding="UTF-8"?>
<!-- Reconstructed from Amplitude.Graphics.Svg.SvgAsset and recolored from static UIMapper.Color metadata for EWShop; not original source SVG. Live UI state/material colors are not included. -->
<svg xmlns="http://www.w3.org/2000/svg" width="30" height="30" viewBox="0 0 30 30">
  <path d="M 13.798 19.397 C 9.485 16.639 5.556 13.981 1.98 9.954 C 0.131 7.865 1.071 15.11 3.323 16.859 C 5.131 18.258 8.667 20.027 12.172 21.775 C 12.121 21.855 12.081 21.935 12.041 22.025 C 12.02 22.065 12.01 22.095 12 22.135 C 12 22.155 11.99 22.175 11.98 22.195 C 8.616 21.176 5.182 19.847 1.849 17.968 C -0.636 16.569 2.839 23.124 5.596 24.074 C 7.344 24.673 9.919 25.073 12.697 25.443 C 12.829 25.613 12.98 25.773 13.132 25.932 C 10.364 25.902 7.475 25.683 4.606 25.063 C 2.263 24.563 6.828 28.9 9.263 28.99 C 12.111 29.09 16.465 28.82 19.546 28.121 C 17.344 25.123 15.414 22.215 13.839 19.397 C 13.818 19.397 13.808 19.397 13.788 19.407 L 13.798 19.397" transform="matrix(1 0 0 1 0 0)" fill="#FFFFFF" stroke="none" />
  <path d="M 11.212 16.779 C 11.748 17.229 12.152 17.558 12.526 17.858 C 12.819 18.088 13.091 18.308 13.384 18.558 C 11.899 15.79 10.788 13.102 10.122 10.474 C 7.889 7.895 5.829 5.127 4.394 2.139 C 3.142 -0.469 2.313 7.675 4.091 10.054 C 5.526 11.972 8.374 14.381 11.212 16.769 L 11.212 16.779" transform="matrix(1 0 0 1 0 0)" fill="#FFFFFF" stroke="none" />
  <path d="M 13 6.386 C 14.819 4.777 17.606 4.777 19.425 6.386 L 20.142 7.016 C 20.546 3.398 18.596 1 16.152 1 C 13.707 1 11.728 3.438 12.172 7.116 L 12.99 6.386 L 13 6.386" transform="matrix(1 0 0 1 0 0)" fill="#FFFFFF" stroke="none" />
  <path d="M 25.868 17.818 L 25.929 18.907 C 26.07 21.315 24.323 23.474 21.929 23.874 L 20.98 24.033 C 23.596 26.602 26.697 26.592 28.222 24.703 C 29.757 22.794 29.05 19.757 25.868 17.818" transform="matrix(1 0 0 1 0 0)" fill="#FFFFFF" stroke="none" />
  <path d="M 23.697 18.707 L 24.151 16.979 C 22.343 16.279 20.02 15.879 17.161 15.989 C 17.697 18.797 18.626 20.956 19.727 22.545 L 21.222 21.775 C 22.444 21.146 23.353 20.026 23.697 18.707" transform="matrix(1 0 0 1 0 0)" fill="#FFFFFF" stroke="none" />
  <path d="M 14.223 8.235 L 12.576 8.964 C 13.152 10.793 14.283 12.841 16.152 14.99 C 18.031 12.821 19.172 10.763 19.738 8.914 L 18.192 8.235 C 16.93 7.675 15.485 7.675 14.223 8.235" transform="matrix(1 0 0 1 0 0)" fill="#FFFFFF" stroke="none" />
</svg>
