<?xml version="1.0" encoding="UTF-8"?>
<!-- Reconstructed from Amplitude.Graphics.Svg.SvgAsset and recolored from static UIMapper.Color metadata for EWShop; not original source SVG. Live UI state/material colors are not included. -->
<svg xmlns="http://www.w3.org/2000/svg" width="30" height="30" viewBox="0 0 30 30">
  <path d="M 7.285 13.5 L 7.285 8.191 C 3.569 9.37 1 12.4 1 17.187 C 1 22.211 4.276 27.157 5.91 29 L 7.874 26.737 C 6.892 25.479 5.171 22.211 5.171 17.44 C 5.171 15.581 6.098 14.323 7.285 13.5 M 2.469 13.927 C 2.642 13.255 3.49 12.21 4.142 12.384 C 4.794 12.559 5.014 13.896 4.841 14.56 C 4.669 15.233 3.899 16 3.239 15.826 C 2.587 15.652 2.288 14.6 2.469 13.927 M 4.142 24.253 C 3.467 24.253 2.72 23.414 2.72 22.718 C 2.72 22.022 3.074 21.088 3.75 21.088 C 4.425 21.088 5.171 22.022 5.171 22.718 C 5.171 23.414 4.818 24.253 4.142 24.253" transform="matrix(1 0 0 1 0 0)" fill="#FFFFFF" stroke="none" />
  <path d="M 14.362 12.845 L 14.362 13.072 C 14.362 13.128 14.307 13.167 14.26 13.151 L 12.69 12.701 C 11.982 12.496 11.235 12.496 10.528 12.701 L 8.958 13.151 C 8.903 13.159 8.855 13.128 8.855 13.072 L 8.855 7.7 C 8.856 7.662 8.907 7.624 8.91 7.621 L 10.461 7.171 L 14.362 12.845" transform="matrix(1 0 0 1 0 0)" fill="#FFFFFF" stroke="none" />
  <path d="M 21.886 20.034 C 21.019 23.986 18.623 27.508 17.301 29 L 15.337 26.737 C 16.319 25.479 18.039 22.212 18.039 17.44 C 18.039 17.162 18.016 16.898 17.977 16.646 L 21.886 20.034 M 19.461 21.088 C 18.785 21.088 18.039 22.022 18.039 22.718 C 18.039 23.414 18.393 24.253 19.068 24.253 C 19.744 24.253 20.49 23.414 20.49 22.718 C 20.49 22.022 20.137 21.088 19.461 21.088" transform="matrix(1 0 0 1 0 0)" fill="#FFFFFF" stroke="none" />
  <path d="M 26.746 14.141 L 27.453 15.555 L 29.207 15.017 C 29.691 18.908 27.761 23.745 24.225 27.28 L 22.097 25.153 C 24.094 23.188 26.34 19.496 25.279 17.728 C 22.804 16.668 21.037 14.9 19.623 13.486 L 21.744 11.364 C 23.158 12.779 24.978 15.201 26.746 14.141" transform="matrix(1 0 0 1 0 0)" fill="#FFFFFF" stroke="none" />
  <path d="M 26.746 7.779 L 28.838 1.445 L 22.503 3.537 C 22.857 4.597 21.282 6.381 20.344 7.11 L 21.767 7.809 L 26.392 3.89 L 22.473 8.515 L 23.172 9.938 C 24.245 8.306 25.897 7.702 26.746 7.779" transform="matrix(1 0 0 1 0 0)" fill="#FFFFFF" stroke="none" />
  <path d="M 4.46 4.744 C 7.794 2.054 11.885 0.653 15.264 1.073 L 14.726 2.827 L 16.14 3.534 C 15.079 5.302 17.502 7.122 18.916 8.536 L 16.795 10.657 C 15.381 9.243 13.613 7.476 12.553 5.001 C 11.72 4.501 10.459 4.734 9.153 5.331 L 4.46 4.744" transform="matrix(1 0 0 1 0 0)" fill="#FFFFFF" stroke="none" />
  <path d="M 21.392 10.306 L 17.53 14.165 C 17.105 13.663 16.67 13.152 16.232 12.635 L 19.978 8.892 L 21.392 8.89 L 21.392 10.306" transform="matrix(1 0 0 1 0 0)" fill="#FFFFFF" stroke="none" />
</svg>
