<?xml version="1.0" encoding="UTF-8"?>
<!-- Reconstructed from Amplitude.Graphics.Svg.SvgAsset and recolored from static UIMapper.Color metadata for EWShop; not original source SVG. Live UI state/material colors are not included. -->
<svg xmlns="http://www.w3.org/2000/svg" width="26" height="26" viewBox="0 0 26 26">
  <path d="M 9.787 12.028 C 9.254 12.171 8.937 12.719 9.08 13.253 L 11.993 24.126 C 12.135 24.66 12.684 24.976 13.217 24.834 L 24.086 21.92 C 24.62 21.777 24.936 21.229 24.793 20.695 L 21.881 9.822 C 21.738 9.288 21.19 8.972 20.656 9.115 L 9.787 12.028 M 12.827 15.798 C 13.609 15.589 14.073 14.785 13.864 14.002 C 13.654 13.22 12.85 12.756 12.069 12.966 C 11.287 13.175 10.823 13.979 11.032 14.761 C 11.242 15.544 12.045 16.008 12.827 15.798 M 15.761 21.084 C 15.971 21.867 15.507 22.671 14.725 22.88 C 13.943 23.09 13.139 22.626 12.93 21.843 C 12.72 21.061 13.184 20.257 13.966 20.048 C 14.748 19.838 15.552 20.302 15.761 21.084 M 19.908 13.901 C 20.69 13.691 21.154 12.887 20.944 12.105 C 20.735 11.322 19.931 10.858 19.149 11.068 C 18.367 11.277 17.903 12.081 18.112 12.864 C 18.322 13.646 19.126 14.11 19.908 13.901 M 22.841 19.187 C 23.05 19.969 22.586 20.773 21.804 20.983 C 21.022 21.192 20.219 20.728 20.009 19.946 C 19.8 19.163 20.264 18.359 21.046 18.15 C 21.828 17.94 22.631 18.404 22.841 19.187 M 17.316 18.39 C 18.098 18.181 18.562 17.377 18.352 16.594 C 18.143 15.812 17.339 15.348 16.557 15.558 C 15.775 15.767 15.311 16.571 15.521 17.353 C 15.73 18.136 16.534 18.6 17.316 18.39" transform="matrix(1 0 0 1 0 0)" fill="#FFFFFF" stroke="none" />
  <path d="M 16.678 5.07 C 16.821 4.537 16.504 3.988 15.97 3.845 L 5.102 0.932 C 4.568 0.789 4.02 1.106 3.877 1.639 L 0.964 12.513 C 0.822 13.046 1.138 13.595 1.672 13.738 L 9.792 15.914 L 9.079 13.253 C 8.937 12.72 9.253 12.171 9.787 12.028 L 15.203 10.576 L 16.678 5.07 M 11.894 5.82 C 11.684 6.602 12.149 7.406 12.93 7.616 C 13.712 7.825 14.516 7.361 14.726 6.579 C 14.935 5.797 14.471 4.993 13.689 4.783 C 12.907 4.573 12.104 5.038 11.894 5.82 M 3.953 12.8 C 3.171 12.59 2.707 11.786 2.917 11.004 C 3.126 10.222 3.93 9.758 4.712 9.967 C 5.494 10.177 5.958 10.981 5.749 11.763 C 5.539 12.545 4.735 13.01 3.953 12.8 M 7.405 8.412 C 7.196 9.194 7.66 9.998 8.442 10.208 C 9.224 10.417 10.028 9.953 10.237 9.171 C 10.447 8.389 9.983 7.585 9.201 7.375 C 8.419 7.165 7.615 7.63 7.405 8.412" transform="matrix(1 0 0 1 0 0)" fill="#FFFFFF" stroke="none" />
</svg>
